<?xml version="1.0" encoding="utf-8"?>
<svg version="1.1" xmlns:xlink="http://www.w3.org/1999/xlink" width="44px" height="56px" xmlns="http://www.w3.org/2000/svg">
  <defs>
    <pattern id="BGPattern" patternUnits="userSpaceOnUse" alignment="0 0" imageRepeat="None" />
    <mask fill="white" id="Clip4915">
      <path d="M 18.077265811780048 47.006950056570226  C 27.627559311155185 47.00679603377028  34.99847859161052 42.04929186196864  34.99847859161052 33.27881040892193  C 34.99840127750405 29.275279504909488  33.908879592454426 25.970774074546426  31.47359269723973 23.682883465330534  C 29.670839405453638 22.014546235428117  27.24788890789706 20.904784150013384  23.51912627689633 20.301276870858253  C 23.51912627689633 20.301276870858253  22.75624864159965 20.186843381283335  22.75624864159965 20.186843381283335  C 22.75624864159965 20.186843381283335  17.372093023255815 19.424599967674155  17.372093023255815 19.424599967674155  C 15.629473461738955 19.186273062154015  14.224304723211072 18.556790672636424  13.316126928928494 17.79828673024083  C 13.316126928928494 17.79828673024083  13.141056292110411 17.645062227250687  13.141056292110411 17.645062227250687  C 12.1795957018515 16.75528956885405  11.795261899587047 15.547097240181024  11.795261899587047 14.403103281073218  C 11.79537978858303 11.289002678246726  14.102927586224462 8.683368352998222  18.846011736579005 8.683368352998222  C 18.846011736579005 8.683368352998222  19.41621386655075 8.688217229675125  19.41621386655075 8.688217229675125  C 22.289149655178562 8.740152456734588  25.500034543696344 9.235561885682682  28.20397739621821 11.797316954905448  C 28.20397739621821 11.797316954905448  33.8443816561617 6.268627767900436  33.8443816561617 6.268627767900436  C 29.934446570718322 2.518891993797479  25.38378816043727 0.993049943429772  19.102260378178656 0.993049943429772  C 9.2313351547218 0.9930951910790977  3.206042164746794 6.649713486948441  3.206042164746794 14.721189591078065  C 3.206042164746794 14.721189591078065  3.218756792001739 15.42524648456441  3.218756792001739 15.42524648456441  C 3.3463684940980687 18.896652712466665  4.432459751022196 21.592962688904155  6.475657465768311 23.618878293195408  C 8.526684580925004 25.588874014124876  11.410581864421458 26.79700123336987  15.320147793957835 27.368999515112332  C 15.320147793957835 27.368999515112332  20.83340578135188 28.131242928721512  20.83340578135188 28.131242928721512  C 22.948046386824874 28.448967940591157  23.97357468914918 28.893800761677713  24.87078895892197 29.719734928075  C 25.83224859405564 30.609507586471636  26.28113453597044 31.94498198086714  26.28113453597044 33.53386132212704  C 26.28113453597044 33.53386132212704  26.273310149967397 33.86843381283336  26.273310149967397 33.86843381283336  C 26.102823785998673 37.277317469467235  23.29679270004143 39.1264650442136  18.205390132579872 39.12655568126718  C 18.205390132579872 39.12655568126718  18.205390132579872 38.1335057378374  18.205390132579872 38.1335057378374  C 20.73199655242237 38.13345854827439  22.514767072014745 37.65524609154023  23.63942621169311 36.874737352513336  C 24.708999219238176 36.13236912452521  25.279511872806115 35.05197571205249  25.279613127580962 33.53386132212704  C 25.279613127580962 32.11906422993778  24.882255118091685 31.089998769629112  24.19006737665725 30.448036204945858  C 24.19006737665725 30.448036204945858  23.92306020430341 30.2201390011314  23.92306020430341 30.2201390011314  C 23.280784920334064 29.715264337174972  22.449361647349082 29.379147953953982  20.69452292979787 29.114595118797478  C 20.69452292979787 29.114595118797478  15.182242990654206 28.352351705188298  15.182242990654206 28.352351705188298  C 15.182242990654206 28.352351705188298  15.174418604651164 28.351381929852916  15.174418604651164 28.351381929852916  C 11.139992017275457 27.761173428945014  8.030773525159272 26.495279763768785  5.77830906324712 24.331663164700178  C 5.77830906324712 24.331663164700178  5.7724407737448375 24.326814288023275  5.7724407737448375 24.326814288023275  C 5.7724407737448375 24.326814288023275  5.766572484242555 24.32099563601099  5.766572484242555 24.32099563601099  C 3.3586964896388016 21.933348622868515  2.204534556665368 18.73416112539397  2.2045207563573137 14.721189591078065  C 2.2045207563573137 10.427258799953531  3.8147766736765787 6.716836808782528  6.785698761138883 4.089542589300145  C 9.747165825024451 1.4708073000848554  13.976893557022251 2.2649711426344484E-05  19.102260378178656 0  C 25.578723014528094 0  30.402067294304224 1.5857469858675448  34.54075201043251 5.554873121060288  C 34.54075201043251 5.554873121060288  35.27722234296892 6.260869565217391  35.27722234296892 6.260869565217391  L 28.215713975222776 13.182156133828997  C 28.215713975222776 13.182156133828997  27.512497283199302 12.515920478422498  27.512497283199302 12.515920478422498  C 24.915192253976716 10.055044536427186  21.785899894596625 9.676420262558029  18.846011736579005 9.676418296427993  C 16.656714005150036 9.676418296427993  15.153997668751527 10.275767391556894  14.211041078026517 11.114595118797478  C 13.274643690527533 11.947680016914246  12.796841516131337 13.09801498321834  12.796783307976526 14.403103281073218  C 12.796783307976526 15.334211547713451  13.107996661412772 16.25412276844341  13.822755922625516 16.91676095037983  C 14.495476301326308 17.536146643320926  15.65365651658607 18.129683360618788  17.19506628993697 18.39275901082916  C 17.19506628993697 18.39275901082916  17.509019778309064 18.440278002262808  17.509019778309064 18.440278002262808  L 17.512931971310586 18.44124777759819  C 17.512931971310586 18.44124777759819  22.897087589654426 19.20349119120737  22.897087589654426 19.20349119120737  C 26.91819113499443 19.755880111366324  29.671463102238306 20.844087306297478  31.74940230384699 22.596735089704218  C 31.74940230384699 22.596735089704218  32.15627037600522 22.956521739130437  32.15627037600522 22.956521739130437  C 32.15627037600522 22.956521739130437  32.1621386655075 22.96137061580734  32.1621386655075 22.96137061580734  C 34.86106424511995 25.49664059027497  35.99992249482039 29.103659576026345  36 33.27881040892193  C 36 37.971870990837644  34.01358973422897 41.69370938750101  30.733210171701806 44.21690641668013  C 27.479156726289123 46.71980729819076  23.015009740154994 47.999923060312014  18.077265811780048 48  C 10.990768024699113 48  5.435594365949658 46.49463166846816  0.6983264507715714 41.73040245676418  C 0.6983264507715714 41.73040245676418  0 41.0282851139486  0 41.0282851139486  L 7.179852206042165 33.90819460158397  C 7.179852206042165 33.90819460158397  7.888937187567921 34.61128171973493  7.888937187567921 34.61128171973493  C 10.510619639624878 37.210464055807535  14.111954474910346 38.1335057378374  18.205390132579872 38.1335057378374  C 18.205390132579872 38.1335057378374  18.205390132579872 39.12655568126718  18.205390132579872 39.12655568126718  C 18.205390132579872 39.12655568126718  17.41610519452293 39.1149183772426  17.41610519452293 39.1149183772426  C 13.490076726272143 38.999760959613525  9.884044823815476 37.99471753399264  7.179852206042165 35.31339906255051  C 7.179852206042165 35.31339906255051  1.4113236252988481 41.0331339906255  1.4113236252988481 41.0331339906255  C 5.7579367193443005 45.40455020986544  10.826576264416024 46.913068535525596  17.432732014779397 47.00307095522871  C 17.432732014779397 47.00307095522871  18.077265811780048 47.006950056570226  18.077265811780048 47.006950056570226  Z " fill-rule="evenodd" />
    </mask>
  </defs>
  <g transform="matrix(1 0 0 1 -136 -311 )">
    <path d="M 18.077265811780048 47.006950056570226  C 27.627559311155185 47.00679603377028  34.99847859161052 42.04929186196864  34.99847859161052 33.27881040892193  C 34.99840127750405 29.275279504909488  33.908879592454426 25.970774074546426  31.47359269723973 23.682883465330534  C 29.670839405453638 22.014546235428117  27.24788890789706 20.904784150013384  23.51912627689633 20.301276870858253  C 23.51912627689633 20.301276870858253  22.75624864159965 20.186843381283335  22.75624864159965 20.186843381283335  C 22.75624864159965 20.186843381283335  17.372093023255815 19.424599967674155  17.372093023255815 19.424599967674155  C 15.629473461738955 19.186273062154015  14.224304723211072 18.556790672636424  13.316126928928494 17.79828673024083  C 13.316126928928494 17.79828673024083  13.141056292110411 17.645062227250687  13.141056292110411 17.645062227250687  C 12.1795957018515 16.75528956885405  11.795261899587047 15.547097240181024  11.795261899587047 14.403103281073218  C 11.79537978858303 11.289002678246726  14.102927586224462 8.683368352998222  18.846011736579005 8.683368352998222  C 18.846011736579005 8.683368352998222  19.41621386655075 8.688217229675125  19.41621386655075 8.688217229675125  C 22.289149655178562 8.740152456734588  25.500034543696344 9.235561885682682  28.20397739621821 11.797316954905448  C 28.20397739621821 11.797316954905448  33.8443816561617 6.268627767900436  33.8443816561617 6.268627767900436  C 29.934446570718322 2.518891993797479  25.38378816043727 0.993049943429772  19.102260378178656 0.993049943429772  C 9.2313351547218 0.9930951910790977  3.206042164746794 6.649713486948441  3.206042164746794 14.721189591078065  C 3.206042164746794 14.721189591078065  3.218756792001739 15.42524648456441  3.218756792001739 15.42524648456441  C 3.3463684940980687 18.896652712466665  4.432459751022196 21.592962688904155  6.475657465768311 23.618878293195408  C 8.526684580925004 25.588874014124876  11.410581864421458 26.79700123336987  15.320147793957835 27.368999515112332  C 15.320147793957835 27.368999515112332  20.83340578135188 28.131242928721512  20.83340578135188 28.131242928721512  C 22.948046386824874 28.448967940591157  23.97357468914918 28.893800761677713  24.87078895892197 29.719734928075  C 25.83224859405564 30.609507586471636  26.28113453597044 31.94498198086714  26.28113453597044 33.53386132212704  C 26.28113453597044 33.53386132212704  26.273310149967397 33.86843381283336  26.273310149967397 33.86843381283336  C 26.102823785998673 37.277317469467235  23.29679270004143 39.1264650442136  18.205390132579872 39.12655568126718  C 18.205390132579872 39.12655568126718  18.205390132579872 38.1335057378374  18.205390132579872 38.1335057378374  C 20.73199655242237 38.13345854827439  22.514767072014745 37.65524609154023  23.63942621169311 36.874737352513336  C 24.708999219238176 36.13236912452521  25.279511872806115 35.05197571205249  25.279613127580962 33.53386132212704  C 25.279613127580962 32.11906422993778  24.882255118091685 31.089998769629112  24.19006737665725 30.448036204945858  C 24.19006737665725 30.448036204945858  23.92306020430341 30.2201390011314  23.92306020430341 30.2201390011314  C 23.280784920334064 29.715264337174972  22.449361647349082 29.379147953953982  20.69452292979787 29.114595118797478  C 20.69452292979787 29.114595118797478  15.182242990654206 28.352351705188298  15.182242990654206 28.352351705188298  C 15.182242990654206 28.352351705188298  15.174418604651164 28.351381929852916  15.174418604651164 28.351381929852916  C 11.139992017275457 27.761173428945014  8.030773525159272 26.495279763768785  5.77830906324712 24.331663164700178  C 5.77830906324712 24.331663164700178  5.7724407737448375 24.326814288023275  5.7724407737448375 24.326814288023275  C 5.7724407737448375 24.326814288023275  5.766572484242555 24.32099563601099  5.766572484242555 24.32099563601099  C 3.3586964896388016 21.933348622868515  2.204534556665368 18.73416112539397  2.2045207563573137 14.721189591078065  C 2.2045207563573137 10.427258799953531  3.8147766736765787 6.716836808782528  6.785698761138883 4.089542589300145  C 9.747165825024451 1.4708073000848554  13.976893557022251 2.2649711426344484E-05  19.102260378178656 0  C 25.578723014528094 0  30.402067294304224 1.5857469858675448  34.54075201043251 5.554873121060288  C 34.54075201043251 5.554873121060288  35.27722234296892 6.260869565217391  35.27722234296892 6.260869565217391  L 28.215713975222776 13.182156133828997  C 28.215713975222776 13.182156133828997  27.512497283199302 12.515920478422498  27.512497283199302 12.515920478422498  C 24.915192253976716 10.055044536427186  21.785899894596625 9.676420262558029  18.846011736579005 9.676418296427993  C 16.656714005150036 9.676418296427993  15.153997668751527 10.275767391556894  14.211041078026517 11.114595118797478  C 13.274643690527533 11.947680016914246  12.796841516131337 13.09801498321834  12.796783307976526 14.403103281073218  C 12.796783307976526 15.334211547713451  13.107996661412772 16.25412276844341  13.822755922625516 16.91676095037983  C 14.495476301326308 17.536146643320926  15.65365651658607 18.129683360618788  17.19506628993697 18.39275901082916  C 17.19506628993697 18.39275901082916  17.509019778309064 18.440278002262808  17.509019778309064 18.440278002262808  L 17.512931971310586 18.44124777759819  C 17.512931971310586 18.44124777759819  22.897087589654426 19.20349119120737  22.897087589654426 19.20349119120737  C 26.91819113499443 19.755880111366324  29.671463102238306 20.844087306297478  31.74940230384699 22.596735089704218  C 31.74940230384699 22.596735089704218  32.15627037600522 22.956521739130437  32.15627037600522 22.956521739130437  C 32.15627037600522 22.956521739130437  32.1621386655075 22.96137061580734  32.1621386655075 22.96137061580734  C 34.86106424511995 25.49664059027497  35.99992249482039 29.103659576026345  36 33.27881040892193  C 36 37.971870990837644  34.01358973422897 41.69370938750101  30.733210171701806 44.21690641668013  C 27.479156726289123 46.71980729819076  23.015009740154994 47.999923060312014  18.077265811780048 48  C 10.990768024699113 48  5.435594365949658 46.49463166846816  0.6983264507715714 41.73040245676418  C 0.6983264507715714 41.73040245676418  0 41.0282851139486  0 41.0282851139486  L 7.179852206042165 33.90819460158397  C 7.179852206042165 33.90819460158397  7.888937187567921 34.61128171973493  7.888937187567921 34.61128171973493  C 10.510619639624878 37.210464055807535  14.111954474910346 38.1335057378374  18.205390132579872 38.1335057378374  C 18.205390132579872 38.1335057378374  18.205390132579872 39.12655568126718  18.205390132579872 39.12655568126718  C 18.205390132579872 39.12655568126718  17.41610519452293 39.1149183772426  17.41610519452293 39.1149183772426  C 13.490076726272143 38.999760959613525  9.884044823815476 37.99471753399264  7.179852206042165 35.31339906255051  C 7.179852206042165 35.31339906255051  1.4113236252988481 41.0331339906255  1.4113236252988481 41.0331339906255  C 5.7579367193443005 45.40455020986544  10.826576264416024 46.913068535525596  17.432732014779397 47.00307095522871  C 17.432732014779397 47.00307095522871  18.077265811780048 47.006950056570226  18.077265811780048 47.006950056570226  Z " fill-rule="nonzero" fill="rgba(127, 140, 159, 0.058823529411764705)" stroke="none" transform="matrix(1 0 0 1 140 311 )" class="fill" />
    <path d="M 18.077265811780048 47.006950056570226  C 27.627559311155185 47.00679603377028  34.99847859161052 42.04929186196864  34.99847859161052 33.27881040892193  C 34.99840127750405 29.275279504909488  33.908879592454426 25.970774074546426  31.47359269723973 23.682883465330534  C 29.670839405453638 22.014546235428117  27.24788890789706 20.904784150013384  23.51912627689633 20.301276870858253  C 23.51912627689633 20.301276870858253  22.75624864159965 20.186843381283335  22.75624864159965 20.186843381283335  C 22.75624864159965 20.186843381283335  17.372093023255815 19.424599967674155  17.372093023255815 19.424599967674155  C 15.629473461738955 19.186273062154015  14.224304723211072 18.556790672636424  13.316126928928494 17.79828673024083  C 13.316126928928494 17.79828673024083  13.141056292110411 17.645062227250687  13.141056292110411 17.645062227250687  C 12.1795957018515 16.75528956885405  11.795261899587047 15.547097240181024  11.795261899587047 14.403103281073218  C 11.79537978858303 11.289002678246726  14.102927586224462 8.683368352998222  18.846011736579005 8.683368352998222  C 18.846011736579005 8.683368352998222  19.41621386655075 8.688217229675125  19.41621386655075 8.688217229675125  C 22.289149655178562 8.740152456734588  25.500034543696344 9.235561885682682  28.20397739621821 11.797316954905448  C 28.20397739621821 11.797316954905448  33.8443816561617 6.268627767900436  33.8443816561617 6.268627767900436  C 29.934446570718322 2.518891993797479  25.38378816043727 0.993049943429772  19.102260378178656 0.993049943429772  C 9.2313351547218 0.9930951910790977  3.206042164746794 6.649713486948441  3.206042164746794 14.721189591078065  C 3.206042164746794 14.721189591078065  3.218756792001739 15.42524648456441  3.218756792001739 15.42524648456441  C 3.3463684940980687 18.896652712466665  4.432459751022196 21.592962688904155  6.475657465768311 23.618878293195408  C 8.526684580925004 25.588874014124876  11.410581864421458 26.79700123336987  15.320147793957835 27.368999515112332  C 15.320147793957835 27.368999515112332  20.83340578135188 28.131242928721512  20.83340578135188 28.131242928721512  C 22.948046386824874 28.448967940591157  23.97357468914918 28.893800761677713  24.87078895892197 29.719734928075  C 25.83224859405564 30.609507586471636  26.28113453597044 31.94498198086714  26.28113453597044 33.53386132212704  C 26.28113453597044 33.53386132212704  26.273310149967397 33.86843381283336  26.273310149967397 33.86843381283336  C 26.102823785998673 37.277317469467235  23.29679270004143 39.1264650442136  18.205390132579872 39.12655568126718  C 18.205390132579872 39.12655568126718  18.205390132579872 38.1335057378374  18.205390132579872 38.1335057378374  C 20.73199655242237 38.13345854827439  22.514767072014745 37.65524609154023  23.63942621169311 36.874737352513336  C 24.708999219238176 36.13236912452521  25.279511872806115 35.05197571205249  25.279613127580962 33.53386132212704  C 25.279613127580962 32.11906422993778  24.882255118091685 31.089998769629112  24.19006737665725 30.448036204945858  C 24.19006737665725 30.448036204945858  23.92306020430341 30.2201390011314  23.92306020430341 30.2201390011314  C 23.280784920334064 29.715264337174972  22.449361647349082 29.379147953953982  20.69452292979787 29.114595118797478  C 20.69452292979787 29.114595118797478  15.182242990654206 28.352351705188298  15.182242990654206 28.352351705188298  C 15.182242990654206 28.352351705188298  15.174418604651164 28.351381929852916  15.174418604651164 28.351381929852916  C 11.139992017275457 27.761173428945014  8.030773525159272 26.495279763768785  5.77830906324712 24.331663164700178  C 5.77830906324712 24.331663164700178  5.7724407737448375 24.326814288023275  5.7724407737448375 24.326814288023275  C 5.7724407737448375 24.326814288023275  5.766572484242555 24.32099563601099  5.766572484242555 24.32099563601099  C 3.3586964896388016 21.933348622868515  2.204534556665368 18.73416112539397  2.2045207563573137 14.721189591078065  C 2.2045207563573137 10.427258799953531  3.8147766736765787 6.716836808782528  6.785698761138883 4.089542589300145  C 9.747165825024451 1.4708073000848554  13.976893557022251 2.2649711426344484E-05  19.102260378178656 0  C 25.578723014528094 0  30.402067294304224 1.5857469858675448  34.54075201043251 5.554873121060288  C 34.54075201043251 5.554873121060288  35.27722234296892 6.260869565217391  35.27722234296892 6.260869565217391  L 28.215713975222776 13.182156133828997  C 28.215713975222776 13.182156133828997  27.512497283199302 12.515920478422498  27.512497283199302 12.515920478422498  C 24.915192253976716 10.055044536427186  21.785899894596625 9.676420262558029  18.846011736579005 9.676418296427993  C 16.656714005150036 9.676418296427993  15.153997668751527 10.275767391556894  14.211041078026517 11.114595118797478  C 13.274643690527533 11.947680016914246  12.796841516131337 13.09801498321834  12.796783307976526 14.403103281073218  C 12.796783307976526 15.334211547713451  13.107996661412772 16.25412276844341  13.822755922625516 16.91676095037983  C 14.495476301326308 17.536146643320926  15.65365651658607 18.129683360618788  17.19506628993697 18.39275901082916  C 17.19506628993697 18.39275901082916  17.509019778309064 18.440278002262808  17.509019778309064 18.440278002262808  L 17.512931971310586 18.44124777759819  C 17.512931971310586 18.44124777759819  22.897087589654426 19.20349119120737  22.897087589654426 19.20349119120737  C 26.91819113499443 19.755880111366324  29.671463102238306 20.844087306297478  31.74940230384699 22.596735089704218  C 31.74940230384699 22.596735089704218  32.15627037600522 22.956521739130437  32.15627037600522 22.956521739130437  C 32.15627037600522 22.956521739130437  32.1621386655075 22.96137061580734  32.1621386655075 22.96137061580734  C 34.86106424511995 25.49664059027497  35.99992249482039 29.103659576026345  36 33.27881040892193  C 36 37.971870990837644  34.01358973422897 41.69370938750101  30.733210171701806 44.21690641668013  C 27.479156726289123 46.71980729819076  23.015009740154994 47.999923060312014  18.077265811780048 48  C 10.990768024699113 48  5.435594365949658 46.49463166846816  0.6983264507715714 41.73040245676418  C 0.6983264507715714 41.73040245676418  0 41.0282851139486  0 41.0282851139486  L 7.179852206042165 33.90819460158397  C 7.179852206042165 33.90819460158397  7.888937187567921 34.61128171973493  7.888937187567921 34.61128171973493  C 10.510619639624878 37.210464055807535  14.111954474910346 38.1335057378374  18.205390132579872 38.1335057378374  C 18.205390132579872 38.1335057378374  18.205390132579872 39.12655568126718  18.205390132579872 39.12655568126718  C 18.205390132579872 39.12655568126718  17.41610519452293 39.1149183772426  17.41610519452293 39.1149183772426  C 13.490076726272143 38.999760959613525  9.884044823815476 37.99471753399264  7.179852206042165 35.31339906255051  C 7.179852206042165 35.31339906255051  1.4113236252988481 41.0331339906255  1.4113236252988481 41.0331339906255  C 5.7579367193443005 45.40455020986544  10.826576264416024 46.913068535525596  17.432732014779397 47.00307095522871  C 17.432732014779397 47.00307095522871  18.077265811780048 47.006950056570226  18.077265811780048 47.006950056570226  Z " stroke-width="0" stroke-dasharray="0" stroke="rgba(121, 121, 121, 1)" fill="none" transform="matrix(1 0 0 1 140 311 )" class="stroke" mask="url(#Clip4915)" />
  </g>
  <style>svg { filter: drop-shadow(0px 4px 2px rgba(0, 0, 0, 0.12941176470588237)); }</style>
</svg>