<?xml version="1.0" encoding="utf-8"?>
<svg version="1.1" xmlns:xlink="http://www.w3.org/1999/xlink" width="57px" height="55px" xmlns="http://www.w3.org/2000/svg">
  <defs>
    <pattern id="BGPattern" patternUnits="userSpaceOnUse" alignment="0 0" imageRepeat="None" />
    <mask fill="white" id="Clip4906">
      <path d="M 45.17160116043397 13  L 45.17160116043397 8  L 34.40301235941661 8  L 34.40301235941661 0.9925754825936314  L 28.708123037793584 0.9925754825936314  L 28.708123037793584 8  L 18.419544569407464 8  L 18.419544569407464 13  L 28.708123037793584 13  L 28.708123037793584 18.8114378815377  L 19.232543814330565 18.8114378815377  L 19.232543814330565 23.95654594951328  L 21.785458808568137 23.95654594951328  C 21.785458808568137 23.95654594951328  20.286035051464452 24.38498185117967  20.286035051464452 24.38498185117967  C 22.083286673040213 28.767325626153635  24.38083486197337 32.56708023481648  27.177542423399437 35.78506022108563  C 26.085619752378555 36.47583428492859  24.93765552892019 37.10787841892542  23.731788737431945 37.67812654677446  C 21.21135035506001 38.88508563410664  18.515045404936377 39.82212191771957  15.643663315184993 40.489131331463454  C 15.99456878129692 40.90201097068918  16.3610892830794 41.41045942433969  16.743889838254578 42.01385909915855  C 16.743889838254578 42.01385909915855  15.901681039621668 42.54310344827586  15.901681039621668 42.54310344827586  C 15.536236225769894 41.96707257923956  15.195669659236815 41.49857969965366  14.882267615149228 41.1298465599736  C 14.882267615149228 41.1298465599736  14.040058816516314 40.13824038937469  14.040058816516314 40.13824038937469  C 13.993914245995382 41.24047662747259  13.831194313636614 42.19562184104548  13.517207805110678 42.96766210196337  C 13.517207805110678 42.96766210196337  13.519155108691331 42.96863141395809  13.519155108691331 42.96863141395809  C 13.139284422935507 44.019127666232336  12.398049744959739 44.818012319998154  11.378094821762112 45.36477066490678  C 11.378094821762112 45.36477066490678  11.372252911020148 45.36864791288566  11.372252911020148 45.36864791288566  C 11.372252911020148 45.36864791288566  11.365437348487859 45.371555848869825  11.365437348487859 45.371555848869825  C 10.428867107989115 45.85637241219396  9.311543024150506 46.15127304422051  8.045284743472559 46.28755568388055  C 6.81748428226479 46.41967808840358  5.327863601292231 46.4843153296485  3.5840122401939354 46.48432601880878  C 3.5840122401939354 46.48432601880878  2.7077256288995746 46.48432601880878  2.7077256288995746 46.48432601880878  C 2.7077256288995746 46.48432601880878  2.594782021221635 45.61969971951823  2.594782021221635 45.61969971951823  C 2.509241022792865 44.96695162797206  2.3196015148953433 44.15552768351673  2.0125382506060485 43.17606418082824  C 2.0125382506060485 43.17606418082824  1.7788618209275524 42.48688335258208  1.7788618209275524 42.48688335258208  C 1.543392642410449 41.82368593101079  1.3028484733031842 41.237580938045  1.0573858442951953 40.726612770169936  C 1.0573858442951953 40.726612770169936  0.3485673409370902 39.2522892262003  0.3485673409370902 39.2522892262003  C 0.3485673409370902 39.2522892262003  1.989170607638199 39.30657069790463  1.989170607638199 39.30657069790463  C 2.9364262367760636 39.338005149704735  3.835043014661594 39.35309709512592  4.684238763263522 39.35309767365121  C 4.684238763263522 39.35309767365121  4.684238763263522 40.34567315624484  4.684238763263522 40.34567315624484  C 3.8228278564676277 40.34567257778032  2.91318772865565 40.329938712322246  1.9560664467670787 40.298176868503546  C 2.306988998138388 41.02865349965173  2.64282574089107 41.886195846328526  2.9618487461749394 42.87073090249134  C 3.24097728452579 43.75996065226311  3.4339602885439375 44.54022521544675  3.542145213209872 45.21065005774625  C 3.542145213209872 45.21065005774625  3.5840122401939354 45.49175053621514  3.5840122401939354 45.49175053621514  C 5.306499004420863 45.49173982169414  6.757875327668291 45.42780968175629  7.938183046536581 45.300796073255235  C 8.971016035992205 45.18963612772179  9.857471793670891 44.96874533437538  10.597226085919804 44.63875598086125  C 10.597226085919804 44.63875598086125  10.905873703453484 44.49142055766375  10.905873703453484 44.49142055766375  C 11.735275213372484 44.04681053407081  12.29337745305394 43.42714598265011  12.580554782816039 42.63324946378486  C 12.85974129219481 41.96618976224828  13.01692187889853 41.06773368156973  13.05180224933434 39.9385621184623  C 13.05180224933434 39.9385621184623  13.059591463656956 39.44033575317604  13.059591463656956 39.44033575317604  C 13.059591463656956 39.44033575317604  13.059591463656956 28.029594951328164  13.059591463656956 28.029594951328164  C 13.44330276715444 27.92570314484448  13.826396653948095 27.824276231496054  14.207526924452571 27.720384425012377  C 14.207526924452571 27.720384425012377  18.180026228987003 26.62506187097839  18.180026228987003 26.62506187097839  C 18.180026228987003 26.62506187097839  17.462444859515955 21.383991915525492  17.462444859515955 21.383991915525492  C 16.013182116564842 21.74469302979422  14.545427952814059 22.11494849928337  13.059591463656956 22.493854149480285  C 13.059591463656956 22.493854149480285  13.059591463656956 15.381042732222404  13.059591463656956 15.381042732222404  L 17.797381075388465 15.381042732222404  L 17.797381075388465 10.092476489028213  L 13.059591463656956 10.092476489028213  L 13.059591463656956 0.9925754825936314  L 7.412411079759965 0.9925754825936314  L 7.412411079759965 10.092476489028213  L 1.860648571315026 10.092476489028213  L 1.860648571315026 15.381042732222404  L 7.412411079759965 15.381042732222404  C 7.412411079759965 15.381042732222404  7.412411079759965 23.86833855799373  7.412411079759965 23.86833855799373  C 6.94423738511526 23.97828688571957  6.481688217286185 24.089217371013056  6.023983626753567 24.194996700214485  C 4.237453584853319 24.57611720228801  2.6422051151298223 24.909481813285716  1.2384850772960299 25.19532667876588  C 1.2384850772960299 25.19532667876588  2.7223304057544806 30.67387807292526  2.7223304057544806 30.67387807292526  C 4.18354094487535 30.32059310651262  5.7463394260243525 29.93003237292704  7.412411079759965 29.50876505527141  C 7.412411079759965 29.50876505527141  7.412411079759965 39.39283946543475  7.412411079759965 39.39283946543475  C 7.412411079759965 39.39283946543475  7.408516472598658 39.508187592806465  7.408516472598658 39.508187592806465  C 7.37310091755526 40.066679262992984  7.07132470535274 40.345617166400565  6.5030203075944835 40.34567315624484  C 6.5030203075944835 40.34567315624484  4.684238763263522 40.34567315624484  4.684238763263522 40.34567315624484  L 4.684238763263522 39.35309767365121  L 6.415391646465048 39.35309767365121  C 6.415391646465048 39.35309767365121  6.415391646465048 30.78728757630754  6.415391646465048 30.78728757630754  C 5.205671014730054 31.090107766576104  4.052555065581782 31.37443056847667  2.956980487223304 31.639312819666724  C 2.956980487223304 31.639312819666724  2.0125382506060485 31.867101138426005  2.0125382506060485 31.867101138426005  L 0 24.434416762910413  C 0 24.434416762910413  1.038886460278981 24.223106748061376  1.038886460278981 24.223106748061376  C 2.4346896346174502 23.938873813404463  4.0212822068084835 23.606838456672953  5.799070063188013 23.227623329483585  C 5.799070063188013 23.227623329483585  6.415391646465048 23.082226530275534  6.415391646465048 23.082226530275534  L 6.415391646465048 16.373618214816037  L 0.8636291380201088 16.373618214816037  L 0.8636291380201088 9.099901006434582  L 6.415391646465048 9.099901006434582  L 6.415391646465048 0  L 14.056610896951872 0  L 14.056610896951872 9.099901006434582  L 17.422525136112547 9.099901006434582  L 17.422525136112547 7  L 27.711103604498668 7  L 27.711103604498668 0  L 35.40003179271152 0  L 35.40003179271152 7  L 46.16862059372889 7  L 46.16862059372889 14  L 35.40003179271152 14  L 35.40003179271152 17.81886239894407  L 40.095954377458966 17.81886239894407  L 41.24778444541589 17.589135456195347  L 46.02938838771212 19.505465269757465  C 46.02938838771212 19.505465269757465  45.7986329134046 20.35652120112193  45.7986329134046 20.35652120112193  C 44.82164126686 23.955250299325023  43.48120306868747 27.18290542026023  41.77160910861185 30.032193532420393  C 40.50349908295181 32.18579819060418  39.044325106749305 34.13750564381345  37.394070659301356 35.88489935654182  C 40.22590836651284 37.65788612434955  43.51337422582885 39.003209588473  47.27176807216946 39.905605510641806  C 47.27176807216946 39.905605510641806  49 40.32047104438212  49 40.32047104438212  C 49 40.32047104438212  47.74301553868776 41.571852829566076  47.74301553868776 41.571852829566076  C 47.35444598968631 41.958691852357475  46.927803321828975 42.42769515303924  46.46363708619799 42.98220178188418  C 46.01070736510355 43.52329541401311  45.58834127138032 44.07899924729685  45.195942455192146 44.64844910080845  C 44.82370540390133 45.26653902311566  44.49870796568968 45.82084716308473  44.22131701307475 46.31178848374856  C 44.22131701307475 46.31178848374856  43.83282994873425 47  43.83282994873425 47  C 43.83282994873425 47  43.07143424869848 46.77705824121432  43.07143424869848 46.77705824121432  C 38.550803216155664 45.45191633321727  34.61580234177848 43.5313428215728  31.2805110678377 41.00868256063356  C 30.239608130962687 41.69960837528623  29.156259823645147 42.34239611163861  28.029487739935618 42.935674806137605  C 25.221891490140536 44.430700473631205  22.206741013436147 45.64789005034711  18.986209911377816 46.587073090249135  C 18.986209911377816 46.587073090249135  18.116738862615744 46.841032832865864  18.116738862615744 46.841032832865864  C 18.116738862615744 46.841032832865864  17.780828994952905 46.003547269427486  17.780828994952905 46.003547269427486  C 17.606503651308216 45.569677298463546  17.351886175766815 45.0305131497782  17.010670428804197 44.38188830226036  C 16.6744129132548 43.774177602879035  16.307038356497664 43.165156699430625  15.908496602153956 42.554735192212505  C 15.908496602153956 42.554735192212505  15.90070738783134 42.54407276027059  15.90070738783134 42.54407276027059  C 15.90070738783134 42.54407276027059  16.743889838254578 42.01385909915855  16.743889838254578 42.01385909915855  C 17.158633380646272 42.64908497138024  17.541860265041656 43.28430054939495  17.89279895084052 43.91952648077875  C 18.155958179524966 44.41969105591968  18.374609787532457 44.866114930614074  18.548066605730636 45.25911565748226  C 18.548066605730636 45.25911565748226  18.70677184755395 45.63423939943904  18.70677184755395 45.63423939943904  C 21.8651670405829 44.713146594270505  24.816515037774025 43.5223601202311  27.560187576997976 42.06135538689985  C 28.874172742352673 41.369693595610556  30.126044462079896 40.60843545158121  31.31848348766045 39.78153357531761  C 34.40636190223338 42.234951213766806  38.06262951687808 44.14027912320526  42.287644557485194 45.49756640818347  C 42.287644557485194 45.49756640818347  43.35281961610301 45.82519386239895  43.35281961610301 45.82519386239895  C 43.63996131938511 45.31699513201075  43.974773927120175 44.74475992640495  44.35762826372054 44.10951163174394  C 44.66870115610865 43.656904399640844  44.9979467326401 43.21338748475581  45.34491117911219 42.77864626299291  C 45.34491117911219 42.77864626299291  45.69737312721058 42.347302425342356  45.69737312721058 42.347302425342356  C 46.175943900456524 41.77557891281775  46.623333094784506 41.28298235466684  47.03809164249096 40.870070945388555  C 42.729925407825355 39.83567388622974  38.99701076423128 38.22731728263469  35.83622779477805 36.050651707639005  C 37.77811496193258 34.15125610119949  39.47061498628551 31.978689868740076  40.911874577753046 29.531059231149975  C 42.46724111963824 26.940409164542  43.7141975736654 24.014591787892428  44.652644756189645 20.75393911895727  C 44.652644756189645 20.75393911895727  44.83666494456146 20.097714898531596  44.83666494456146 20.097714898531596  L 41.15139291817351 18.62048341857779  L 40.194293208282005 18.8114378815377  L 34.40301235941661 18.8114378815377  L 34.40301235941661 13  L 45.17160116043397 13  Z M 18.235524381035646 20.16750536215146  L 18.235524381035646 17.81886239894407  L 27.711103604498668 17.81886239894407  L 27.711103604498668 14.086041907276028  L 18.794400508683385 14.086041907276028  L 18.794400508683385 16.373618214816037  L 14.056610896951872 16.373618214816037  C 14.056610896951872 16.373618214816037  14.056610896951872 21.21533162844415  14.056610896951872 21.21533162844415  C 15.12056663260619 20.945801749872192  16.174965438718463 20.680591799760098  17.220005563724516 20.42049579277347  C 17.220005563724516 20.42049579277347  18.235524381035646 20.16750536215146  18.235524381035646 20.16750536215146  Z M 25.896216667329014 23.95654594951328  C 25.896216667329014 23.95654594951328  37.616063267495925 23.95654594951328  37.616063267495925 23.95654594951328  C 37.10400627726559 25.099011948470174  36.51229144910729 26.195533955103098  35.83914875014903 27.244452235604687  C 34.62842285146548 29.146137060691885  33.20077287249244 30.86574351404036  31.558975479871243 32.406038607490515  C 29.17520633632777 29.929978919961513  27.288917871687534 27.113053191398517  25.896216667329014 23.95654594951328  Z M 36.0251162421015 24.949121432106914  C 36.0251162421015 24.949121432106914  27.466717005126576 24.949121432106914  27.466717005126576 24.949121432106914  C 28.577756981996913 27.142148879982223  29.953591142877343 29.151742433876198  31.595000596113337 30.98114997525161  C 32.87690826126157 29.681910303515817  34.01159744617438 28.260021663502762  34.99693995151611 26.71229995050322  C 34.99693995151611 26.71229995050322  34.99888725509677 26.709392014519054  34.99888725509677 26.709392014519054  C 35.36591772958669 26.137462203720183  35.70768436473878 25.55058177299103  36.0251162421015 24.949121432106914  Z M 14.056610896951872 39.44033575317604  C 14.056610896951872 39.57520675533303  14.052784859250583 39.70861488560052  14.049795334419585 39.83969229500082  C 14.049795334419585 39.83969229500082  15.416802448038787 39.52272727272727  15.416802448038787 39.52272727272727  C 18.221064368326324 38.87131594903515  20.848163261666745 37.95731395928503  23.299487342526724 36.78345157564758  C 23.299487342526724 36.78345157564758  23.303381949688035 36.781512951658144  23.303381949688035 36.781512951658144  C 24.11953777799412 36.39556692174079  24.90737088154956 35.979951656173505  25.66838214839248 35.53788566243194  C 23.17384585122191 32.477864720958664  21.10092859109388 28.945455637058394  19.442852601041213 24.949121432106914  C 19.442852601041213 24.949121432106914  18.957000357668004 24.949121432106914  18.957000357668004 24.949121432106914  L 19.285121011008226 27.347199307045045  C 19.285121011008226 27.347199307045045  18.448754123117276 27.580803497772646  18.448754123117276 27.580803497772646  C 17.00417553430539 27.98418291510774  15.539880259031428 28.386199385355532  14.056610896951872 28.789535555188912  C 14.056610896951872 28.789535555188912  14.056610896951872 39.44033575317604  14.056610896951872 39.44033575317604  Z " fill-rule="evenodd" />
    </mask>
  </defs>
  <g transform="matrix(1 0 0 1 -184 -375 )">
    <path d="M 45.17160116043397 13  L 45.17160116043397 8  L 34.40301235941661 8  L 34.40301235941661 0.9925754825936314  L 28.708123037793584 0.9925754825936314  L 28.708123037793584 8  L 18.419544569407464 8  L 18.419544569407464 13  L 28.708123037793584 13  L 28.708123037793584 18.8114378815377  L 19.232543814330565 18.8114378815377  L 19.232543814330565 23.95654594951328  L 21.785458808568137 23.95654594951328  C 21.785458808568137 23.95654594951328  20.286035051464452 24.38498185117967  20.286035051464452 24.38498185117967  C 22.083286673040213 28.767325626153635  24.38083486197337 32.56708023481648  27.177542423399437 35.78506022108563  C 26.085619752378555 36.47583428492859  24.93765552892019 37.10787841892542  23.731788737431945 37.67812654677446  C 21.21135035506001 38.88508563410664  18.515045404936377 39.82212191771957  15.643663315184993 40.489131331463454  C 15.99456878129692 40.90201097068918  16.3610892830794 41.41045942433969  16.743889838254578 42.01385909915855  C 16.743889838254578 42.01385909915855  15.901681039621668 42.54310344827586  15.901681039621668 42.54310344827586  C 15.536236225769894 41.96707257923956  15.195669659236815 41.49857969965366  14.882267615149228 41.1298465599736  C 14.882267615149228 41.1298465599736  14.040058816516314 40.13824038937469  14.040058816516314 40.13824038937469  C 13.993914245995382 41.24047662747259  13.831194313636614 42.19562184104548  13.517207805110678 42.96766210196337  C 13.517207805110678 42.96766210196337  13.519155108691331 42.96863141395809  13.519155108691331 42.96863141395809  C 13.139284422935507 44.019127666232336  12.398049744959739 44.818012319998154  11.378094821762112 45.36477066490678  C 11.378094821762112 45.36477066490678  11.372252911020148 45.36864791288566  11.372252911020148 45.36864791288566  C 11.372252911020148 45.36864791288566  11.365437348487859 45.371555848869825  11.365437348487859 45.371555848869825  C 10.428867107989115 45.85637241219396  9.311543024150506 46.15127304422051  8.045284743472559 46.28755568388055  C 6.81748428226479 46.41967808840358  5.327863601292231 46.4843153296485  3.5840122401939354 46.48432601880878  C 3.5840122401939354 46.48432601880878  2.7077256288995746 46.48432601880878  2.7077256288995746 46.48432601880878  C 2.7077256288995746 46.48432601880878  2.594782021221635 45.61969971951823  2.594782021221635 45.61969971951823  C 2.509241022792865 44.96695162797206  2.3196015148953433 44.15552768351673  2.0125382506060485 43.17606418082824  C 2.0125382506060485 43.17606418082824  1.7788618209275524 42.48688335258208  1.7788618209275524 42.48688335258208  C 1.543392642410449 41.82368593101079  1.3028484733031842 41.237580938045  1.0573858442951953 40.726612770169936  C 1.0573858442951953 40.726612770169936  0.3485673409370902 39.2522892262003  0.3485673409370902 39.2522892262003  C 0.3485673409370902 39.2522892262003  1.989170607638199 39.30657069790463  1.989170607638199 39.30657069790463  C 2.9364262367760636 39.338005149704735  3.835043014661594 39.35309709512592  4.684238763263522 39.35309767365121  C 4.684238763263522 39.35309767365121  4.684238763263522 40.34567315624484  4.684238763263522 40.34567315624484  C 3.8228278564676277 40.34567257778032  2.91318772865565 40.329938712322246  1.9560664467670787 40.298176868503546  C 2.306988998138388 41.02865349965173  2.64282574089107 41.886195846328526  2.9618487461749394 42.87073090249134  C 3.24097728452579 43.75996065226311  3.4339602885439375 44.54022521544675  3.542145213209872 45.21065005774625  C 3.542145213209872 45.21065005774625  3.5840122401939354 45.49175053621514  3.5840122401939354 45.49175053621514  C 5.306499004420863 45.49173982169414  6.757875327668291 45.42780968175629  7.938183046536581 45.300796073255235  C 8.971016035992205 45.18963612772179  9.857471793670891 44.96874533437538  10.597226085919804 44.63875598086125  C 10.597226085919804 44.63875598086125  10.905873703453484 44.49142055766375  10.905873703453484 44.49142055766375  C 11.735275213372484 44.04681053407081  12.29337745305394 43.42714598265011  12.580554782816039 42.63324946378486  C 12.85974129219481 41.96618976224828  13.01692187889853 41.06773368156973  13.05180224933434 39.9385621184623  C 13.05180224933434 39.9385621184623  13.059591463656956 39.44033575317604  13.059591463656956 39.44033575317604  C 13.059591463656956 39.44033575317604  13.059591463656956 28.029594951328164  13.059591463656956 28.029594951328164  C 13.44330276715444 27.92570314484448  13.826396653948095 27.824276231496054  14.207526924452571 27.720384425012377  C 14.207526924452571 27.720384425012377  18.180026228987003 26.62506187097839  18.180026228987003 26.62506187097839  C 18.180026228987003 26.62506187097839  17.462444859515955 21.383991915525492  17.462444859515955 21.383991915525492  C 16.013182116564842 21.74469302979422  14.545427952814059 22.11494849928337  13.059591463656956 22.493854149480285  C 13.059591463656956 22.493854149480285  13.059591463656956 15.381042732222404  13.059591463656956 15.381042732222404  L 17.797381075388465 15.381042732222404  L 17.797381075388465 10.092476489028213  L 13.059591463656956 10.092476489028213  L 13.059591463656956 0.9925754825936314  L 7.412411079759965 0.9925754825936314  L 7.412411079759965 10.092476489028213  L 1.860648571315026 10.092476489028213  L 1.860648571315026 15.381042732222404  L 7.412411079759965 15.381042732222404  C 7.412411079759965 15.381042732222404  7.412411079759965 23.86833855799373  7.412411079759965 23.86833855799373  C 6.94423738511526 23.97828688571957  6.481688217286185 24.089217371013056  6.023983626753567 24.194996700214485  C 4.237453584853319 24.57611720228801  2.6422051151298223 24.909481813285716  1.2384850772960299 25.19532667876588  C 1.2384850772960299 25.19532667876588  2.7223304057544806 30.67387807292526  2.7223304057544806 30.67387807292526  C 4.18354094487535 30.32059310651262  5.7463394260243525 29.93003237292704  7.412411079759965 29.50876505527141  C 7.412411079759965 29.50876505527141  7.412411079759965 39.39283946543475  7.412411079759965 39.39283946543475  C 7.412411079759965 39.39283946543475  7.408516472598658 39.508187592806465  7.408516472598658 39.508187592806465  C 7.37310091755526 40.066679262992984  7.07132470535274 40.345617166400565  6.5030203075944835 40.34567315624484  C 6.5030203075944835 40.34567315624484  4.684238763263522 40.34567315624484  4.684238763263522 40.34567315624484  L 4.684238763263522 39.35309767365121  L 6.415391646465048 39.35309767365121  C 6.415391646465048 39.35309767365121  6.415391646465048 30.78728757630754  6.415391646465048 30.78728757630754  C 5.205671014730054 31.090107766576104  4.052555065581782 31.37443056847667  2.956980487223304 31.639312819666724  C 2.956980487223304 31.639312819666724  2.0125382506060485 31.867101138426005  2.0125382506060485 31.867101138426005  L 0 24.434416762910413  C 0 24.434416762910413  1.038886460278981 24.223106748061376  1.038886460278981 24.223106748061376  C 2.4346896346174502 23.938873813404463  4.0212822068084835 23.606838456672953  5.799070063188013 23.227623329483585  C 5.799070063188013 23.227623329483585  6.415391646465048 23.082226530275534  6.415391646465048 23.082226530275534  L 6.415391646465048 16.373618214816037  L 0.8636291380201088 16.373618214816037  L 0.8636291380201088 9.099901006434582  L 6.415391646465048 9.099901006434582  L 6.415391646465048 0  L 14.056610896951872 0  L 14.056610896951872 9.099901006434582  L 17.422525136112547 9.099901006434582  L 17.422525136112547 7  L 27.711103604498668 7  L 27.711103604498668 0  L 35.40003179271152 0  L 35.40003179271152 7  L 46.16862059372889 7  L 46.16862059372889 14  L 35.40003179271152 14  L 35.40003179271152 17.81886239894407  L 40.095954377458966 17.81886239894407  L 41.24778444541589 17.589135456195347  L 46.02938838771212 19.505465269757465  C 46.02938838771212 19.505465269757465  45.7986329134046 20.35652120112193  45.7986329134046 20.35652120112193  C 44.82164126686 23.955250299325023  43.48120306868747 27.18290542026023  41.77160910861185 30.032193532420393  C 40.50349908295181 32.18579819060418  39.044325106749305 34.13750564381345  37.394070659301356 35.88489935654182  C 40.22590836651284 37.65788612434955  43.51337422582885 39.003209588473  47.27176807216946 39.905605510641806  C 47.27176807216946 39.905605510641806  49 40.32047104438212  49 40.32047104438212  C 49 40.32047104438212  47.74301553868776 41.571852829566076  47.74301553868776 41.571852829566076  C 47.35444598968631 41.958691852357475  46.927803321828975 42.42769515303924  46.46363708619799 42.98220178188418  C 46.01070736510355 43.52329541401311  45.58834127138032 44.07899924729685  45.195942455192146 44.64844910080845  C 44.82370540390133 45.26653902311566  44.49870796568968 45.82084716308473  44.22131701307475 46.31178848374856  C 44.22131701307475 46.31178848374856  43.83282994873425 47  43.83282994873425 47  C 43.83282994873425 47  43.07143424869848 46.77705824121432  43.07143424869848 46.77705824121432  C 38.550803216155664 45.45191633321727  34.61580234177848 43.5313428215728  31.2805110678377 41.00868256063356  C 30.239608130962687 41.69960837528623  29.156259823645147 42.34239611163861  28.029487739935618 42.935674806137605  C 25.221891490140536 44.430700473631205  22.206741013436147 45.64789005034711  18.986209911377816 46.587073090249135  C 18.986209911377816 46.587073090249135  18.116738862615744 46.841032832865864  18.116738862615744 46.841032832865864  C 18.116738862615744 46.841032832865864  17.780828994952905 46.003547269427486  17.780828994952905 46.003547269427486  C 17.606503651308216 45.569677298463546  17.351886175766815 45.0305131497782  17.010670428804197 44.38188830226036  C 16.6744129132548 43.774177602879035  16.307038356497664 43.165156699430625  15.908496602153956 42.554735192212505  C 15.908496602153956 42.554735192212505  15.90070738783134 42.54407276027059  15.90070738783134 42.54407276027059  C 15.90070738783134 42.54407276027059  16.743889838254578 42.01385909915855  16.743889838254578 42.01385909915855  C 17.158633380646272 42.64908497138024  17.541860265041656 43.28430054939495  17.89279895084052 43.91952648077875  C 18.155958179524966 44.41969105591968  18.374609787532457 44.866114930614074  18.548066605730636 45.25911565748226  C 18.548066605730636 45.25911565748226  18.70677184755395 45.63423939943904  18.70677184755395 45.63423939943904  C 21.8651670405829 44.713146594270505  24.816515037774025 43.5223601202311  27.560187576997976 42.06135538689985  C 28.874172742352673 41.369693595610556  30.126044462079896 40.60843545158121  31.31848348766045 39.78153357531761  C 34.40636190223338 42.234951213766806  38.06262951687808 44.14027912320526  42.287644557485194 45.49756640818347  C 42.287644557485194 45.49756640818347  43.35281961610301 45.82519386239895  43.35281961610301 45.82519386239895  C 43.63996131938511 45.31699513201075  43.974773927120175 44.74475992640495  44.35762826372054 44.10951163174394  C 44.66870115610865 43.656904399640844  44.9979467326401 43.21338748475581  45.34491117911219 42.77864626299291  C 45.34491117911219 42.77864626299291  45.69737312721058 42.347302425342356  45.69737312721058 42.347302425342356  C 46.175943900456524 41.77557891281775  46.623333094784506 41.28298235466684  47.03809164249096 40.870070945388555  C 42.729925407825355 39.83567388622974  38.99701076423128 38.22731728263469  35.83622779477805 36.050651707639005  C 37.77811496193258 34.15125610119949  39.47061498628551 31.978689868740076  40.911874577753046 29.531059231149975  C 42.46724111963824 26.940409164542  43.7141975736654 24.014591787892428  44.652644756189645 20.75393911895727  C 44.652644756189645 20.75393911895727  44.83666494456146 20.097714898531596  44.83666494456146 20.097714898531596  L 41.15139291817351 18.62048341857779  L 40.194293208282005 18.8114378815377  L 34.40301235941661 18.8114378815377  L 34.40301235941661 13  L 45.17160116043397 13  Z M 18.235524381035646 20.16750536215146  L 18.235524381035646 17.81886239894407  L 27.711103604498668 17.81886239894407  L 27.711103604498668 14.086041907276028  L 18.794400508683385 14.086041907276028  L 18.794400508683385 16.373618214816037  L 14.056610896951872 16.373618214816037  C 14.056610896951872 16.373618214816037  14.056610896951872 21.21533162844415  14.056610896951872 21.21533162844415  C 15.12056663260619 20.945801749872192  16.174965438718463 20.680591799760098  17.220005563724516 20.42049579277347  C 17.220005563724516 20.42049579277347  18.235524381035646 20.16750536215146  18.235524381035646 20.16750536215146  Z M 25.896216667329014 23.95654594951328  C 25.896216667329014 23.95654594951328  37.616063267495925 23.95654594951328  37.616063267495925 23.95654594951328  C 37.10400627726559 25.099011948470174  36.51229144910729 26.195533955103098  35.83914875014903 27.244452235604687  C 34.62842285146548 29.146137060691885  33.20077287249244 30.86574351404036  31.558975479871243 32.406038607490515  C 29.17520633632777 29.929978919961513  27.288917871687534 27.113053191398517  25.896216667329014 23.95654594951328  Z M 36.0251162421015 24.949121432106914  C 36.0251162421015 24.949121432106914  27.466717005126576 24.949121432106914  27.466717005126576 24.949121432106914  C 28.577756981996913 27.142148879982223  29.953591142877343 29.151742433876198  31.595000596113337 30.98114997525161  C 32.87690826126157 29.681910303515817  34.01159744617438 28.260021663502762  34.99693995151611 26.71229995050322  C 34.99693995151611 26.71229995050322  34.99888725509677 26.709392014519054  34.99888725509677 26.709392014519054  C 35.36591772958669 26.137462203720183  35.70768436473878 25.55058177299103  36.0251162421015 24.949121432106914  Z M 14.056610896951872 39.44033575317604  C 14.056610896951872 39.57520675533303  14.052784859250583 39.70861488560052  14.049795334419585 39.83969229500082  C 14.049795334419585 39.83969229500082  15.416802448038787 39.52272727272727  15.416802448038787 39.52272727272727  C 18.221064368326324 38.87131594903515  20.848163261666745 37.95731395928503  23.299487342526724 36.78345157564758  C 23.299487342526724 36.78345157564758  23.303381949688035 36.781512951658144  23.303381949688035 36.781512951658144  C 24.11953777799412 36.39556692174079  24.90737088154956 35.979951656173505  25.66838214839248 35.53788566243194  C 23.17384585122191 32.477864720958664  21.10092859109388 28.945455637058394  19.442852601041213 24.949121432106914  C 19.442852601041213 24.949121432106914  18.957000357668004 24.949121432106914  18.957000357668004 24.949121432106914  L 19.285121011008226 27.347199307045045  C 19.285121011008226 27.347199307045045  18.448754123117276 27.580803497772646  18.448754123117276 27.580803497772646  C 17.00417553430539 27.98418291510774  15.539880259031428 28.386199385355532  14.056610896951872 28.789535555188912  C 14.056610896951872 28.789535555188912  14.056610896951872 39.44033575317604  14.056610896951872 39.44033575317604  Z " fill-rule="nonzero" fill="rgba(127, 140, 159, 0.058823529411764705)" stroke="none" transform="matrix(1 0 0 1 188 375 )" class="fill" />
    <path d="M 45.17160116043397 13  L 45.17160116043397 8  L 34.40301235941661 8  L 34.40301235941661 0.9925754825936314  L 28.708123037793584 0.9925754825936314  L 28.708123037793584 8  L 18.419544569407464 8  L 18.419544569407464 13  L 28.708123037793584 13  L 28.708123037793584 18.8114378815377  L 19.232543814330565 18.8114378815377  L 19.232543814330565 23.95654594951328  L 21.785458808568137 23.95654594951328  C 21.785458808568137 23.95654594951328  20.286035051464452 24.38498185117967  20.286035051464452 24.38498185117967  C 22.083286673040213 28.767325626153635  24.38083486197337 32.56708023481648  27.177542423399437 35.78506022108563  C 26.085619752378555 36.47583428492859  24.93765552892019 37.10787841892542  23.731788737431945 37.67812654677446  C 21.21135035506001 38.88508563410664  18.515045404936377 39.82212191771957  15.643663315184993 40.489131331463454  C 15.99456878129692 40.90201097068918  16.3610892830794 41.41045942433969  16.743889838254578 42.01385909915855  C 16.743889838254578 42.01385909915855  15.901681039621668 42.54310344827586  15.901681039621668 42.54310344827586  C 15.536236225769894 41.96707257923956  15.195669659236815 41.49857969965366  14.882267615149228 41.1298465599736  C 14.882267615149228 41.1298465599736  14.040058816516314 40.13824038937469  14.040058816516314 40.13824038937469  C 13.993914245995382 41.24047662747259  13.831194313636614 42.19562184104548  13.517207805110678 42.96766210196337  C 13.517207805110678 42.96766210196337  13.519155108691331 42.96863141395809  13.519155108691331 42.96863141395809  C 13.139284422935507 44.019127666232336  12.398049744959739 44.818012319998154  11.378094821762112 45.36477066490678  C 11.378094821762112 45.36477066490678  11.372252911020148 45.36864791288566  11.372252911020148 45.36864791288566  C 11.372252911020148 45.36864791288566  11.365437348487859 45.371555848869825  11.365437348487859 45.371555848869825  C 10.428867107989115 45.85637241219396  9.311543024150506 46.15127304422051  8.045284743472559 46.28755568388055  C 6.81748428226479 46.41967808840358  5.327863601292231 46.4843153296485  3.5840122401939354 46.48432601880878  C 3.5840122401939354 46.48432601880878  2.7077256288995746 46.48432601880878  2.7077256288995746 46.48432601880878  C 2.7077256288995746 46.48432601880878  2.594782021221635 45.61969971951823  2.594782021221635 45.61969971951823  C 2.509241022792865 44.96695162797206  2.3196015148953433 44.15552768351673  2.0125382506060485 43.17606418082824  C 2.0125382506060485 43.17606418082824  1.7788618209275524 42.48688335258208  1.7788618209275524 42.48688335258208  C 1.543392642410449 41.82368593101079  1.3028484733031842 41.237580938045  1.0573858442951953 40.726612770169936  C 1.0573858442951953 40.726612770169936  0.3485673409370902 39.2522892262003  0.3485673409370902 39.2522892262003  C 0.3485673409370902 39.2522892262003  1.989170607638199 39.30657069790463  1.989170607638199 39.30657069790463  C 2.9364262367760636 39.338005149704735  3.835043014661594 39.35309709512592  4.684238763263522 39.35309767365121  C 4.684238763263522 39.35309767365121  4.684238763263522 40.34567315624484  4.684238763263522 40.34567315624484  C 3.8228278564676277 40.34567257778032  2.91318772865565 40.329938712322246  1.9560664467670787 40.298176868503546  C 2.306988998138388 41.02865349965173  2.64282574089107 41.886195846328526  2.9618487461749394 42.87073090249134  C 3.24097728452579 43.75996065226311  3.4339602885439375 44.54022521544675  3.542145213209872 45.21065005774625  C 3.542145213209872 45.21065005774625  3.5840122401939354 45.49175053621514  3.5840122401939354 45.49175053621514  C 5.306499004420863 45.49173982169414  6.757875327668291 45.42780968175629  7.938183046536581 45.300796073255235  C 8.971016035992205 45.18963612772179  9.857471793670891 44.96874533437538  10.597226085919804 44.63875598086125  C 10.597226085919804 44.63875598086125  10.905873703453484 44.49142055766375  10.905873703453484 44.49142055766375  C 11.735275213372484 44.04681053407081  12.29337745305394 43.42714598265011  12.580554782816039 42.63324946378486  C 12.85974129219481 41.96618976224828  13.01692187889853 41.06773368156973  13.05180224933434 39.9385621184623  C 13.05180224933434 39.9385621184623  13.059591463656956 39.44033575317604  13.059591463656956 39.44033575317604  C 13.059591463656956 39.44033575317604  13.059591463656956 28.029594951328164  13.059591463656956 28.029594951328164  C 13.44330276715444 27.92570314484448  13.826396653948095 27.824276231496054  14.207526924452571 27.720384425012377  C 14.207526924452571 27.720384425012377  18.180026228987003 26.62506187097839  18.180026228987003 26.62506187097839  C 18.180026228987003 26.62506187097839  17.462444859515955 21.383991915525492  17.462444859515955 21.383991915525492  C 16.013182116564842 21.74469302979422  14.545427952814059 22.11494849928337  13.059591463656956 22.493854149480285  C 13.059591463656956 22.493854149480285  13.059591463656956 15.381042732222404  13.059591463656956 15.381042732222404  L 17.797381075388465 15.381042732222404  L 17.797381075388465 10.092476489028213  L 13.059591463656956 10.092476489028213  L 13.059591463656956 0.9925754825936314  L 7.412411079759965 0.9925754825936314  L 7.412411079759965 10.092476489028213  L 1.860648571315026 10.092476489028213  L 1.860648571315026 15.381042732222404  L 7.412411079759965 15.381042732222404  C 7.412411079759965 15.381042732222404  7.412411079759965 23.86833855799373  7.412411079759965 23.86833855799373  C 6.94423738511526 23.97828688571957  6.481688217286185 24.089217371013056  6.023983626753567 24.194996700214485  C 4.237453584853319 24.57611720228801  2.6422051151298223 24.909481813285716  1.2384850772960299 25.19532667876588  C 1.2384850772960299 25.19532667876588  2.7223304057544806 30.67387807292526  2.7223304057544806 30.67387807292526  C 4.18354094487535 30.32059310651262  5.7463394260243525 29.93003237292704  7.412411079759965 29.50876505527141  C 7.412411079759965 29.50876505527141  7.412411079759965 39.39283946543475  7.412411079759965 39.39283946543475  C 7.412411079759965 39.39283946543475  7.408516472598658 39.508187592806465  7.408516472598658 39.508187592806465  C 7.37310091755526 40.066679262992984  7.07132470535274 40.345617166400565  6.5030203075944835 40.34567315624484  C 6.5030203075944835 40.34567315624484  4.684238763263522 40.34567315624484  4.684238763263522 40.34567315624484  L 4.684238763263522 39.35309767365121  L 6.415391646465048 39.35309767365121  C 6.415391646465048 39.35309767365121  6.415391646465048 30.78728757630754  6.415391646465048 30.78728757630754  C 5.205671014730054 31.090107766576104  4.052555065581782 31.37443056847667  2.956980487223304 31.639312819666724  C 2.956980487223304 31.639312819666724  2.0125382506060485 31.867101138426005  2.0125382506060485 31.867101138426005  L 0 24.434416762910413  C 0 24.434416762910413  1.038886460278981 24.223106748061376  1.038886460278981 24.223106748061376  C 2.4346896346174502 23.938873813404463  4.0212822068084835 23.606838456672953  5.799070063188013 23.227623329483585  C 5.799070063188013 23.227623329483585  6.415391646465048 23.082226530275534  6.415391646465048 23.082226530275534  L 6.415391646465048 16.373618214816037  L 0.8636291380201088 16.373618214816037  L 0.8636291380201088 9.099901006434582  L 6.415391646465048 9.099901006434582  L 6.415391646465048 0  L 14.056610896951872 0  L 14.056610896951872 9.099901006434582  L 17.422525136112547 9.099901006434582  L 17.422525136112547 7  L 27.711103604498668 7  L 27.711103604498668 0  L 35.40003179271152 0  L 35.40003179271152 7  L 46.16862059372889 7  L 46.16862059372889 14  L 35.40003179271152 14  L 35.40003179271152 17.81886239894407  L 40.095954377458966 17.81886239894407  L 41.24778444541589 17.589135456195347  L 46.02938838771212 19.505465269757465  C 46.02938838771212 19.505465269757465  45.7986329134046 20.35652120112193  45.7986329134046 20.35652120112193  C 44.82164126686 23.955250299325023  43.48120306868747 27.18290542026023  41.77160910861185 30.032193532420393  C 40.50349908295181 32.18579819060418  39.044325106749305 34.13750564381345  37.394070659301356 35.88489935654182  C 40.22590836651284 37.65788612434955  43.51337422582885 39.003209588473  47.27176807216946 39.905605510641806  C 47.27176807216946 39.905605510641806  49 40.32047104438212  49 40.32047104438212  C 49 40.32047104438212  47.74301553868776 41.571852829566076  47.74301553868776 41.571852829566076  C 47.35444598968631 41.958691852357475  46.927803321828975 42.42769515303924  46.46363708619799 42.98220178188418  C 46.01070736510355 43.52329541401311  45.58834127138032 44.07899924729685  45.195942455192146 44.64844910080845  C 44.82370540390133 45.26653902311566  44.49870796568968 45.82084716308473  44.22131701307475 46.31178848374856  C 44.22131701307475 46.31178848374856  43.83282994873425 47  43.83282994873425 47  C 43.83282994873425 47  43.07143424869848 46.77705824121432  43.07143424869848 46.77705824121432  C 38.550803216155664 45.45191633321727  34.61580234177848 43.5313428215728  31.2805110678377 41.00868256063356  C 30.239608130962687 41.69960837528623  29.156259823645147 42.34239611163861  28.029487739935618 42.935674806137605  C 25.221891490140536 44.430700473631205  22.206741013436147 45.64789005034711  18.986209911377816 46.587073090249135  C 18.986209911377816 46.587073090249135  18.116738862615744 46.841032832865864  18.116738862615744 46.841032832865864  C 18.116738862615744 46.841032832865864  17.780828994952905 46.003547269427486  17.780828994952905 46.003547269427486  C 17.606503651308216 45.569677298463546  17.351886175766815 45.0305131497782  17.010670428804197 44.38188830226036  C 16.6744129132548 43.774177602879035  16.307038356497664 43.165156699430625  15.908496602153956 42.554735192212505  C 15.908496602153956 42.554735192212505  15.90070738783134 42.54407276027059  15.90070738783134 42.54407276027059  C 15.90070738783134 42.54407276027059  16.743889838254578 42.01385909915855  16.743889838254578 42.01385909915855  C 17.158633380646272 42.64908497138024  17.541860265041656 43.28430054939495  17.89279895084052 43.91952648077875  C 18.155958179524966 44.41969105591968  18.374609787532457 44.866114930614074  18.548066605730636 45.25911565748226  C 18.548066605730636 45.25911565748226  18.70677184755395 45.63423939943904  18.70677184755395 45.63423939943904  C 21.8651670405829 44.713146594270505  24.816515037774025 43.5223601202311  27.560187576997976 42.06135538689985  C 28.874172742352673 41.369693595610556  30.126044462079896 40.60843545158121  31.31848348766045 39.78153357531761  C 34.40636190223338 42.234951213766806  38.06262951687808 44.14027912320526  42.287644557485194 45.49756640818347  C 42.287644557485194 45.49756640818347  43.35281961610301 45.82519386239895  43.35281961610301 45.82519386239895  C 43.63996131938511 45.31699513201075  43.974773927120175 44.74475992640495  44.35762826372054 44.10951163174394  C 44.66870115610865 43.656904399640844  44.9979467326401 43.21338748475581  45.34491117911219 42.77864626299291  C 45.34491117911219 42.77864626299291  45.69737312721058 42.347302425342356  45.69737312721058 42.347302425342356  C 46.175943900456524 41.77557891281775  46.623333094784506 41.28298235466684  47.03809164249096 40.870070945388555  C 42.729925407825355 39.83567388622974  38.99701076423128 38.22731728263469  35.83622779477805 36.050651707639005  C 37.77811496193258 34.15125610119949  39.47061498628551 31.978689868740076  40.911874577753046 29.531059231149975  C 42.46724111963824 26.940409164542  43.7141975736654 24.014591787892428  44.652644756189645 20.75393911895727  C 44.652644756189645 20.75393911895727  44.83666494456146 20.097714898531596  44.83666494456146 20.097714898531596  L 41.15139291817351 18.62048341857779  L 40.194293208282005 18.8114378815377  L 34.40301235941661 18.8114378815377  L 34.40301235941661 13  L 45.17160116043397 13  Z " stroke-width="0" stroke-dasharray="0" stroke="rgba(121, 121, 121, 1)" fill="none" transform="matrix(1 0 0 1 188 375 )" class="stroke" mask="url(#Clip4906)" />
    <path d="M 18.235524381035646 20.16750536215146  L 18.235524381035646 17.81886239894407  L 27.711103604498668 17.81886239894407  L 27.711103604498668 14.086041907276028  L 18.794400508683385 14.086041907276028  L 18.794400508683385 16.373618214816037  L 14.056610896951872 16.373618214816037  C 14.056610896951872 16.373618214816037  14.056610896951872 21.21533162844415  14.056610896951872 21.21533162844415  C 15.12056663260619 20.945801749872192  16.174965438718463 20.680591799760098  17.220005563724516 20.42049579277347  C 17.220005563724516 20.42049579277347  18.235524381035646 20.16750536215146  18.235524381035646 20.16750536215146  Z " stroke-width="0" stroke-dasharray="0" stroke="rgba(121, 121, 121, 1)" fill="none" transform="matrix(1 0 0 1 188 375 )" class="stroke" mask="url(#Clip4906)" />
    <path d="M 25.896216667329014 23.95654594951328  C 25.896216667329014 23.95654594951328  37.616063267495925 23.95654594951328  37.616063267495925 23.95654594951328  C 37.10400627726559 25.099011948470174  36.51229144910729 26.195533955103098  35.83914875014903 27.244452235604687  C 34.62842285146548 29.146137060691885  33.20077287249244 30.86574351404036  31.558975479871243 32.406038607490515  C 29.17520633632777 29.929978919961513  27.288917871687534 27.113053191398517  25.896216667329014 23.95654594951328  Z " stroke-width="0" stroke-dasharray="0" stroke="rgba(121, 121, 121, 1)" fill="none" transform="matrix(1 0 0 1 188 375 )" class="stroke" mask="url(#Clip4906)" />
    <path d="M 36.0251162421015 24.949121432106914  C 36.0251162421015 24.949121432106914  27.466717005126576 24.949121432106914  27.466717005126576 24.949121432106914  C 28.577756981996913 27.142148879982223  29.953591142877343 29.151742433876198  31.595000596113337 30.98114997525161  C 32.87690826126157 29.681910303515817  34.01159744617438 28.260021663502762  34.99693995151611 26.71229995050322  C 34.99693995151611 26.71229995050322  34.99888725509677 26.709392014519054  34.99888725509677 26.709392014519054  C 35.36591772958669 26.137462203720183  35.70768436473878 25.55058177299103  36.0251162421015 24.949121432106914  Z " stroke-width="0" stroke-dasharray="0" stroke="rgba(121, 121, 121, 1)" fill="none" transform="matrix(1 0 0 1 188 375 )" class="stroke" mask="url(#Clip4906)" />
    <path d="M 14.056610896951872 39.44033575317604  C 14.056610896951872 39.57520675533303  14.052784859250583 39.70861488560052  14.049795334419585 39.83969229500082  C 14.049795334419585 39.83969229500082  15.416802448038787 39.52272727272727  15.416802448038787 39.52272727272727  C 18.221064368326324 38.87131594903515  20.848163261666745 37.95731395928503  23.299487342526724 36.78345157564758  C 23.299487342526724 36.78345157564758  23.303381949688035 36.781512951658144  23.303381949688035 36.781512951658144  C 24.11953777799412 36.39556692174079  24.90737088154956 35.979951656173505  25.66838214839248 35.53788566243194  C 23.17384585122191 32.477864720958664  21.10092859109388 28.945455637058394  19.442852601041213 24.949121432106914  C 19.442852601041213 24.949121432106914  18.957000357668004 24.949121432106914  18.957000357668004 24.949121432106914  L 19.285121011008226 27.347199307045045  C 19.285121011008226 27.347199307045045  18.448754123117276 27.580803497772646  18.448754123117276 27.580803497772646  C 17.00417553430539 27.98418291510774  15.539880259031428 28.386199385355532  14.056610896951872 28.789535555188912  C 14.056610896951872 28.789535555188912  14.056610896951872 39.44033575317604  14.056610896951872 39.44033575317604  Z " stroke-width="0" stroke-dasharray="0" stroke="rgba(121, 121, 121, 1)" fill="none" transform="matrix(1 0 0 1 188 375 )" class="stroke" mask="url(#Clip4906)" />
  </g>
  <style>svg { filter: drop-shadow(0px 4px 2px rgba(0, 0, 0, 0.12941176470588237)); }</style>
</svg>