<?xml version="1.0" encoding="utf-8"?>
<svg version="1.1" xmlns:xlink="http://www.w3.org/1999/xlink" width="58px" height="56px" xmlns="http://www.w3.org/2000/svg">
  <defs>
    <pattern id="BGPattern" patternUnits="userSpaceOnUse" alignment="0 0" imageRepeat="None" />
    <mask fill="white" id="Clip4907">
      <path d="M 45 24.83550227841865  L 45 3  L 23.92205315795618 3  C 23.92205315795618 3  23.92205315795618 39.64005090520957  23.92205315795618 39.64005090520957  C 23.36470684142513 39.7557273397129  22.826794237878417 39.864163812997276  22.308051523524146 39.96420214294511  C 22.308051523524146 39.96420214294511  22.152391329727205 37.281333388070124  22.152391329727205 37.281333388070124  C 19.95154202399599 37.652811545046234  17.735860393859816 38.0232016681142  15.505701054597813 38.3946795845478  C 15.505701054597813 38.3946795845478  15.505701054597813 26.38433433227965  15.505701054597813 26.38433433227965  L 21.81772191306378 26.38433433227965  L 21.81772191306378 21.445215320825977  L 15.505701054597813 21.445215320825977  L 15.505701054597813 17.910094831479125  L 20.81371366307351 17.910094831479125  L 20.81371366307351 13.20842399113264  C 20.81371366307351 13.20842399113264  23.730396544343698 9.725522394186953  23.730396544343698 9.725522394186953  C 23.22839467577532 8.962953506821144  22.567803474577985 8.138618414427162  21.74864770206639 7.252514471037399  C 21.74864770206639 7.252514471037399  21.387710627699732 6.86826224393448  21.387710627699732 6.86826224393448  C 20.670469576279725 6.093464957125702  19.91667981490498 5.32825551435686  19.12771918901039 4.571616240403958  C 19.12771918901039 4.571616240403958  18.327042067167373 3.817890718009771  18.327042067167373 3.817890718009771  C 17.243185524681262 2.7848034543187326  16.206928245306024 1.84829707529173  15.218702572284704 1.008908411675356  C 15.218702572284704 1.008908411675356  10.53235786278554 1.008908411675356  10.53235786278554 1.008908411675356  C 9.990423712956979 2.2679634741009482  9.288717744118204 3.5913313049719813  8.428026617893138 4.979514758405518  C 7.599175157735156 6.367758467737797  6.627102234430636 7.739980241838232  5.511343736622952 9.095939899010633  C 4.395585001296662 10.41961201615676  3.104745244573479 11.662906252245063  1.6383235397128069 12.8251570261505  C 2.020806817547859 13.115687637269593  2.435442989111995 13.486611734641842  2.8816593376658752 13.938503222628185  C 3.327968199716893 14.390494144874584  3.758236242694308 14.875204621495136  4.1726660699692575 15.391764850773843  C 4.5870027305709025 15.875939428750026  4.9216697423584375 16.327854399698904  5.176674319959528 16.7474855289626  C 5.420469296007772 16.53319536249275  5.659181359037191 16.318086434420735  5.893684087636689 16.10312410197463  C 5.893684087636689 16.10312410197463  5.893684087636689 17.910094831479125  5.893684087636689 17.910094831479125  L 10.53235786278554 17.910094831479125  L 10.53235786278554 21.445215320825977  L 3.8379966533058334 21.445215320825977  L 3.8379966533058334 26.38433433227965  L 10.53235786278554 26.38433433227965  C 10.53235786278554 26.38433433227965  10.53235786278554 39.16416930087442  10.53235786278554 39.16416930087442  C 9.883236375704728 39.26462588914534  9.245539652344206 39.362236536294496  8.619683231505624 39.45974793710744  C 6.547730523018251 39.78256801259288  4.714841716840731 40.0574437112486  3.120986885628673 40.28342707007677  C 3.120986885628673 40.28342707007677  4.268007938669884 45.46492056324151  4.268007938669884 45.46492056324151  C 5.957606045027143 45.17435495318722  7.806957740841587 44.851543777774644  9.815348095108378 44.496407898518  C 11.85554694112518 44.14128380584435  13.94386824436279 43.770468523890045  16.079698019224033 43.383061702040315  C 17.705165151817333 43.09256230131189  19.30330980657701 42.7996336016398  20.875004864381054 42.50913420091137  C 20.875004864381054 42.50913420091137  21.81772191306378 45.99794737058171  21.81772191306378 45.99794737058171  C 23.921690467044428 45.51368469391126  26.24882817820417 44.964969854410846  28.799081604856596 44.35157436676383  C 31.38123235521778 43.73817322636782  33.899796286941935 43.10851147243447  36.35443826127563 42.46282688123486  C 36.35443826127563 42.46282688123486  35.80184457329649 37.29217127139866  35.80184457329649 37.29217127139866  C 36.53160814005526 38.73608601896373  37.35327596872629 40.07215329164785  38.26711289255555 41.30021757871834  C 39.82128893423995 43.388745481008044  41.739921125961324 45.08037138641005  44.02264855819745 46.37431750071842  C 44.02264855819745 46.37431750071842  44.483791882320894 46.627529865758035  44.483791882320894 46.627529865758035  C 44.738781525939615 46.11105887775052  45.073472170828474 45.54617137306796  45.487800132311165 44.932879018022085  C 45.902203209053084 44.35178550295194  46.348325440859234 43.7700584590462  46.82647779896486 43.1889650642473  C 47.304667358422186 42.60783378400309  47.75169827703623 42.14010230112587  48.16612834182978 41.78496654214048  C 46.104041443690534 40.81646109369227  44.335756273303424 39.49317107832321  42.86200723819901 37.8153454575311  C 42.86200723819901 37.8153454575311  42.57111725104098 37.474444763742355  42.57111725104098 37.474444763742355  C 41.87902942002364 36.6244051784633  41.245601143536184 35.70845363799699  40.6691442580846 34.727533971016875  C 41.48578880575189 34.22792492275378  42.359768504200545 33.66011966749328  43.288127018718136 33.01908945359005  C 44.690813099534964 32.018252205293734  46.014173666308324 31.017833019879717  47.25746196054014 30.016995771583396  C 47.25746196054014 30.016995771583396  43.43211269798031 26.094667268771296  43.43211269798031 26.094667268771296  C 42.82647267331334 26.740292746649082  42.09305042932343 27.4340697836272  41.23243958438728 28.176526129972494  C 41.23243958438728 28.176526129972494  40.60785305677705 28.70659715095037  40.60785305677705 28.70659715095037  C 39.9802267066643 29.23325174665934  39.343654396385794 29.75087577518833  38.698097054130834 30.25937025329447  C 38.67243084920707 30.279586996202752  38.64579143406153 30.298441477345342  38.62026695723236 30.318485980541073  C 37.98453368143047 28.584664949941498  37.45788328980789 26.757014179499876  37.03837023777095 24.83550227841865  C 37.03837023777095 24.83550227841865  45 24.83550227841865  45 24.83550227841865  Z M 29.277736700782192 24.83550227841865  C 29.277736700782192 24.83550227841865  31.89963809004942 24.83550227841865  31.89963809004942 24.83550227841865  C 32.510347711848354 27.980182825136502  33.27669110349928 30.886003216213716  34.202436082032925 33.55211626093025  C 34.64923827022914 34.799893367505334  35.15141614008475 35.9833424311856  35.7074755808071 37.10300094420953  C 33.85099607037817 37.51726370587168  31.99424056332877 37.932138738425095  30.137759271510294 38.346401740629744  C 29.848767087706086 38.405928197970574  29.562213240223883 38.465969916160105  29.277736700782192 38.524734184490335  C 29.277736700782192 38.524734184490335  29.277736700782192 24.83550227841865  29.277736700782192 24.83550227841865  Z M 7.950344398178776 28.224803973890552  C 7.950344398178776 28.224803973890552  4.22033700431957 29.193316638614064  4.22033700431957 29.193316638614064  C 4.634766831594519 30.549289405353257  5.001867988830773 32.002432686584015  5.320659999221699 33.55211626093025  C 5.639434255096807 35.10173957937774  5.829927784629187 36.47403111080607  5.893684087636689 37.668541401535364  C 5.893684087636689 37.668541401535364  9.863019029458691 36.50593209901884  9.863019029458691 36.50593209901884  C 9.767370568772126 35.68264005908365  9.609428459500304 34.73212147749548  9.388255438378021 33.654583521491034  C 9.388255438378021 33.654583521491034  9.146009261781531 32.535325752288685  9.146009261781531 32.535325752288685  C 8.795337741577324 30.985642659027466  8.396653260229794 29.548492087113594  7.950344398178776 28.224803973890552  Z M 30.273961941082618 25.844410690094012  C 30.273961941082618 25.844410690094012  30.273961941082618 37.282318650190895  30.273961941082618 37.282318650190895  C 31.605525331682383 36.98518803368365  32.937029223871285 36.68778692712396  34.268591664396624 36.39065643088797  C 33.909009218021104 35.58724114017791  33.57445027719941 34.75589381266934  33.26652916682881 33.89597274108132  C 33.26652916682881 33.89597274108132  33.26263766198389 33.88710538199433  33.26263766198389 33.88710538199433  C 32.40002958246737 31.402833334188596  31.677329640919748 28.720739847823182  31.086313577460405 25.844410690094012  C 31.086313577460405 25.844410690094012  30.273961941082618 25.844410690094012  30.273961941082618 25.844410690094012  Z M 16.501926294898237 37.191674535079436  C 16.501926294898237 37.191674535079436  16.501926294898237 37.20546820477031  16.501926294898237 37.20546820477031  C 16.511658168875414 37.20384346391039  16.521381269509067 37.20216663490889  16.531112581235163 37.20054189416643  C 16.531112581235163 37.20054189416643  16.501926294898237 37.191674535079436  16.501926294898237 37.191674535079436  Z M 22.05704946102658 28.854386469066874  C 22.05704946102658 28.854386469066874  17.753045102541154 27.789318116507246  17.753045102541154 27.789318116507246  C 17.657419985480107 28.596288505243184  17.498451936855925 29.500159519774517  17.27536288282679 30.500759472884766  C 17.27536288282679 30.500759472884766  17.125539946297234 31.22788291801798  17.125539946297234 31.22788291801798  C 16.97017103938104 31.954074561603257  16.79626175664847 32.68010582347002  16.60505117328871 33.406297467055296  C 16.3818967422632 34.34256444614927  16.158866770987373 35.1990487666263  15.935712339961864 35.97389055379942  C 15.935712339961864 35.97389055379942  19.378721251507958 36.990681062440984  19.378721251507958 36.990681062440984  C 19.761258297617502 35.95759452037748  20.175765882546177 34.6982316838104  20.622057049461027 33.21318609138306  C 21.10024565884393 31.72807278623917  21.578861801718098 30.274929505008416  22.05704946102658 28.854386469066874  Z M 22.92582791765576 36.12660618251981  C 22.92582791765576 36.12660618251981  22.92582791765576 29.40219220821873  22.92582791765576 29.40219220821873  C 22.47401963886493 30.747551998876183  22.021598443310655 32.12186456847315  21.569638479199906 33.52551418366928  C 21.232987236975696 34.644983750551646  20.91165175858966 35.64239350862361  20.607463906292566 36.516769982347384  C 21.06839966884396 36.43918516816086  21.52929247021745 36.36380327234832  21.98894812624042 36.286218646085636  C 21.98894812624042 36.286218646085636  22.92582791765576 36.12660618251981  22.92582791765576 36.12660618251981  Z M 8.722808109896096 27.393242743955007  C 8.722808109896096 27.393242743955007  8.893061446861502 27.89868221191346  8.893061446861502 27.89868221191346  C 9.1200514916349 28.57190212517704  9.334108455313705 29.272426319423772  9.536132622485114 29.999261053409416  C 9.536132622485114 29.999261053409416  9.536132622485114 27.393242743955007  9.536132622485114 27.393242743955007  L 8.722808109896096 27.393242743955007  Z M 16.501926294898237 27.393242743955007  C 16.501926294898237 27.393242743955007  16.501926294898237 29.312533355228048  16.501926294898237 29.312533355228048  C 16.61583477779878 28.719313190196644  16.704037475526558 28.172000082105175  16.763629995719345 27.669116137772484  C 16.763629995719345 27.669116137772484  16.796707786901194 27.393242743955007  16.796707786901194 27.393242743955007  L 16.501926294898237 27.393242743955007  Z M 42.27828151146048 25.844410690094012  C 42.27828151146048 25.844410690094012  38.29532630268125 25.844410690094012  38.29532630268125 25.844410690094012  C 38.53416444355585 26.80583312379408  38.802933847875906 27.74047842542156  39.098922053157956 28.64945194794532  C 39.600887225101665 28.24045613514897  40.097790044230905 27.826463322318624  40.58839553255244 27.4060511515251  C 41.22938361061952 26.852979876694704  41.792025374787265 26.33251059108671  42.27828151146048 25.844410690094012  Z M 39.892789041522356 17  L 39.892789041522356 20  L 29.277736700782192 20  L 29.277736700782192 17  L 39.892789041522356 17  Z M 30.273961941082618 17.22435239541853  L 30.273961941082618 18.692392955375837  L 38.89656380122194 18.692392955375837  L 38.89656380122194 17.22435239541853  L 30.273961941082618 17.22435239541853  Z M 12.876016655640738 7.7402192208218725  C 13.15479527216744 7.2923875491829255  13.420133007664289 6.85515156463281  13.675720901272523 6.430805862309619  C 14.154281464792826 6.892765677999533  14.637081616675523 7.394186612718862  15.123360703584076 7.934315858614886  C 16.11148014640875 9.03187717450429  17.036397253840278 10.145499754325916  17.897030781803323 11.275339710168726  C 18.4183623302065 11.916452790966634  18.87309045491388 12.514525720729504  19.263921858582712 13.06753150786157  C 19.263921858582712 13.06753150786157  8.875549675059345 13.06753150786157  8.875549675059345 13.06753150786157  C 9.115967730323122 12.793124401049148  9.350311707424162 12.519323491429631  9.57602054714558 12.243852374892239  C 10.691861345150333 10.887796500715854  11.673592071883544 9.568932587801223  12.520916838541464 8.28703969785295  C 12.520916838541464 8.28703969785295  12.876016655640738 7.7402192208218725  12.876016655640738 7.7402192208218725  Z M 13.86056738140639 8.045650478262655  C 13.81300040969228 8.122471051310283  13.766764484825183 8.200684132464996  13.718527454566681 8.278172338765959  C 13.718527454566681 8.278172338765959  13.712690197299295 8.28703969785295  13.712690197299295 8.28703969785295  C 12.930566663245132 9.516098026845826  12.02892400404078 10.77283762707059  11.011012958711133 12.058623096186214  C 11.011012958711133 12.058623096186214  17.240339339222476 12.058623096186214  17.240339339222476 12.058623096186214  C 17.202713857222406 12.011952042408367  17.165895919927472 11.963980104668865  17.127485698719696 11.916745350794367  C 17.127485698719696 11.916745350794367  17.108028174495075 11.891128535654174  17.108028174495075 11.891128535654174  C 16.264663080522077 10.78396849117626  15.357451322556804 9.691195294218769  14.386893411682298 8.613161459830042  C 14.211099507878549 8.417904204426495  14.034669588626894 8.229694694225568  13.86056738140639 8.045650478262655  Z M 29.277736700782192 8  L 39.892789041522356 8  L 39.892789041522356 12  L 29.277736700782192 12  L 29.277736700782192 8  Z M 30.273961941082618 8.94322427029024  L 30.273961941082618 10.314709142411429  L 38.89656380122194 10.314709142411429  L 38.89656380122194 8.94322427029024  L 30.273961941082618 8.94322427029024  Z M 22.813947153364207 20.436306909150623  L 22.813947153364207 27.393242743955007  L 20.35062458652761 27.393242743955007  L 23 28.030707336097542  L 23 12.24582289913379  L 21.809938903373936 13.578882548544684  L 21.809938903373936 18.919003243154478  L 16.501926294898237 18.919003243154478  L 16.501926294898237 20.436306909150623  L 22.813947153364207 20.436306909150623  Z M 46 2  L 46 25.844410690094012  L 44.5878896369226 25.844410690094012  L 48.745962563723396 30.107639886694855  C 48.745962563723396 30.107639886694855  47.87718410709421 30.806190730325547  47.87718410709421 30.806190730325547  C 46.6177717435173 31.820007772730307  45.279209273387636 32.83263773784843  43.86212398334436 33.84375384868016  C 43.86212398334436 33.84375384868016  43.85628672607697 33.848680159284044  43.85628672607697 33.848680159284044  C 43.85628672607697 33.848680159284044  43.84947659259836 33.85262120776715  43.84947659259836 33.85262120776715  C 43.225270569795356 34.283634898805374  42.6227667408054 34.68244725423932  42.04479122076507 35.05267047087319  C 42.450886282627835 35.67731949930595  42.88214982546373 36.271085996513094  43.33968945791338 36.83303912311671  C 44.77286948375388 38.55424850991933  46.518269380150166 39.898765860571295  48.5854379888703 40.86965803193891  C 48.5854379888703 40.86965803193891  50 41.5347099634632  50 41.5347099634632  C 50 41.5347099634632  48.8091995174534 42.5544562584671  48.8091995174534 42.5544562584671  C 48.451774363509045 42.860743065480165  48.04604439743392 43.283668334214255  47.592131377203565 43.835297015476826  C 47.13360405331962 44.392544709636326  46.70595741413 44.948007157422566  46.30988053080126 45.50236052383103  C 46.30988053080126 45.50236052383103  46.029692181966766 45.92996428424812  46.029692181966766 45.92996428424812  C 45.76481846875707 46.34661797832359  45.547470269131004 46.72934011452068  45.37494649180838 47.07877991707377  C 45.37494649180838 47.07877991707377  44.920613301163556 48  44.920613301163556 48  C 44.920613301163556 48  44.02070280577499 47.52017734718174  44.02070280577499 47.52017734718174  C 41.40665093140736 46.12863110945903  39.219315721816386 44.257122463719774  37.47130015176869 41.90812430723757  C 37.40214548876588 41.81519321166185  37.33510745797783 41.720418350230375  37.266996147410204 41.62633934069543  C 37.266996147410204 41.62633934069543  37.437249484375606 43.22049345211216  37.437249484375606 43.22049345211216  C 37.437249484375606 43.22049345211216  36.6054403237732 43.439221642924586  36.6054403237732 43.439221642924586  C 34.14277829618061 44.08701747573407  31.6162717422632 44.71872492344334  29.026734638284623 45.33388070117821  C 29.026734638284623 45.33388070117821  29.025761762073394 45.33289543905743  29.025761762073394 45.33289543905743  C 26.474278226559157 45.94657747296944  24.145363638706 46.49731025365368  22.038564813013192 46.98222422923766  C 22.038564813013192 46.98222422923766  21.10849515507647 47.1960261094462  21.10849515507647 47.1960261094462  C 21.10849515507647 47.1960261094462  20.155076468070202 43.667802454944784  20.155076468070202 43.667802454944784  C 18.872218880388214 43.90338579017573  17.57189393688344 44.13965991839355  16.25384286103436 44.37522065766247  C 16.25384286103436 44.37522065766247  16.254815737245593 44.37620591978324  16.254815737245593 44.37620591978324  C 14.117478431790435 44.76388551683925  12.027586180491035 45.13411294296705  9.985601432073784 45.48955211626093  C 9.985601432073784 45.48955211626093  9.986574308285014 45.4905373783817  9.986574308285014 45.4905373783817  C 7.977072841978148 45.84586972073335  6.126623810202796 46.1691796009047  4.435342647001596 46.46003530522599  C 4.435342647001596 46.46003530522599  3.5033272366424097 46.6206330309126  3.5033272366424097 46.6206330309126  L 1.911701755068685 39.4361016462088  C 1.911701755068685 39.4361016462088  2.9828384636338874 39.28437127960918  2.9828384636338874 39.28437127960918  C 4.5710901121650265 39.05918258303046  6.399245291279137 38.78497033068501  8.467914542553604 38.4626626708814  C 8.820153240211726 38.407782198158436  9.176538834596148 38.35393517498626  9.536132622485114 38.29812389671169  C 9.536132622485114 38.29812389671169  9.536132622485114 37.65179194548216  9.536132622485114 37.65179194548216  L 4.966533058333657 38.98977790549694  C 4.966533058333657 38.98977790549694  4.899404599758727 37.722730818178086  4.899404599758727 37.722730818178086  C 4.839062749186708 36.59234543219395  4.656430280184928 35.272622541976276  4.3448651593571235 33.758036044172584  C 4.031774634660281 32.236068018365906  3.6729969607024135 30.81413464671682  3.268864069735767 29.49185106120941  C 3.268864069735767 29.49185106120941  2.9594894345643463 28.47998686317172  2.9594894345643463 28.47998686317172  L 7.141884266645912 27.393242743955007  L 2.8417714130054095 27.393242743955007  L 2.8417714130054095 20.436306909150623  L 9.536132622485114 20.436306909150623  L 9.536132622485114 18.919003243154478  L 4.897458847336265 18.919003243154478  L 4.897458847336265 18.212570302557577  C 4.897458847336265 18.212570302557577  4.328326263766198 17.276571287819696  4.328326263766198 17.276571287819696  C 4.108549852048711 16.914887570831752  3.808539922345857 16.507312853116407  3.4196598824765534 16.052875733815018  C 3.4196598824765534 16.052875733815018  3.408958244153014 16.04006732624492  3.408958244153014 16.04006732624492  C 3.408958244153014 16.04006732624492  3.399229482040705 16.028244180795596  3.399229482040705 16.028244180795596  C 3.0055070018965004 15.53749431317416  2.598425525261947 15.07832304666653  2.1772969607347163 14.651832998070528  C 1.7544881598969937 14.223647094711527  1.3751020059282364 13.88660945349704  1.0400046698058139 13.63208670306663  C 1.0400046698058139 13.63208670306663  0 12.8419064822037  0 12.8419064822037  C 0 12.8419064822037  1.0244386504261198 12.030050494683689  1.0244386504261198 12.030050494683689  C 2.442655241591005 10.905971652225563  3.68440655292173 9.709019855020218  4.753473168074094 8.440740588694117  C 5.836717031315366 7.123434910158975  6.776888118057617 5.7954021181211255  7.575787056854885 4.457325834393858  C 7.575787056854885 4.457325834393858  7.58065143791104 4.450428999548421  7.58065143791104 4.450428999548421  C 7.58065143791104 4.450428999548421  7.584542942755963 4.443532164702985  7.584542942755963 4.443532164702985  C 8.423630386009918 3.0901930979052916  9.100132067945674 1.8109580824207683  9.61882710043974 0.6059362042776797  C 9.61882710043974 0.6059362042776797  9.879557925049616 0  9.879557925049616 0  L 15.581585399073822 0  C 15.581585399073822 0  15.858855119274622 0.23547764686563488  15.858855119274622 0.23547764686563488  C 16.860207198691114 1.0860119078164128  17.90674232381668 2.031950620150663  18.998326652916685 3.0720472925817974  C 18.998326652916685 3.0720472925817974  19.81262404171693 3.8385812225460816  19.81262404171693 3.8385812225460816  C 20.61551934982379 4.608573913261012  21.383142194826974 5.388586823177522  22.1144491574892 6.1785787593907795  C 22.400679920287235 6.478091348102858  22.67054689808681 6.772712565010622  22.92582791765576 7.062358881727493  C 22.92582791765576 7.062358881727493  22.92582791765576 2  22.92582791765576 2  L 46 2  Z " fill-rule="evenodd" />
    </mask>
  </defs>
  <g transform="matrix(1 0 0 1 -135 -375 )">
    <path d="M 45 24.83550227841865  L 45 3  L 23.92205315795618 3  C 23.92205315795618 3  23.92205315795618 39.64005090520957  23.92205315795618 39.64005090520957  C 23.36470684142513 39.7557273397129  22.826794237878417 39.864163812997276  22.308051523524146 39.96420214294511  C 22.308051523524146 39.96420214294511  22.152391329727205 37.281333388070124  22.152391329727205 37.281333388070124  C 19.95154202399599 37.652811545046234  17.735860393859816 38.0232016681142  15.505701054597813 38.3946795845478  C 15.505701054597813 38.3946795845478  15.505701054597813 26.38433433227965  15.505701054597813 26.38433433227965  L 21.81772191306378 26.38433433227965  L 21.81772191306378 21.445215320825977  L 15.505701054597813 21.445215320825977  L 15.505701054597813 17.910094831479125  L 20.81371366307351 17.910094831479125  L 20.81371366307351 13.20842399113264  C 20.81371366307351 13.20842399113264  23.730396544343698 9.725522394186953  23.730396544343698 9.725522394186953  C 23.22839467577532 8.962953506821144  22.567803474577985 8.138618414427162  21.74864770206639 7.252514471037399  C 21.74864770206639 7.252514471037399  21.387710627699732 6.86826224393448  21.387710627699732 6.86826224393448  C 20.670469576279725 6.093464957125702  19.91667981490498 5.32825551435686  19.12771918901039 4.571616240403958  C 19.12771918901039 4.571616240403958  18.327042067167373 3.817890718009771  18.327042067167373 3.817890718009771  C 17.243185524681262 2.7848034543187326  16.206928245306024 1.84829707529173  15.218702572284704 1.008908411675356  C 15.218702572284704 1.008908411675356  10.53235786278554 1.008908411675356  10.53235786278554 1.008908411675356  C 9.990423712956979 2.2679634741009482  9.288717744118204 3.5913313049719813  8.428026617893138 4.979514758405518  C 7.599175157735156 6.367758467737797  6.627102234430636 7.739980241838232  5.511343736622952 9.095939899010633  C 4.395585001296662 10.41961201615676  3.104745244573479 11.662906252245063  1.6383235397128069 12.8251570261505  C 2.020806817547859 13.115687637269593  2.435442989111995 13.486611734641842  2.8816593376658752 13.938503222628185  C 3.327968199716893 14.390494144874584  3.758236242694308 14.875204621495136  4.1726660699692575 15.391764850773843  C 4.5870027305709025 15.875939428750026  4.9216697423584375 16.327854399698904  5.176674319959528 16.7474855289626  C 5.420469296007772 16.53319536249275  5.659181359037191 16.318086434420735  5.893684087636689 16.10312410197463  C 5.893684087636689 16.10312410197463  5.893684087636689 17.910094831479125  5.893684087636689 17.910094831479125  L 10.53235786278554 17.910094831479125  L 10.53235786278554 21.445215320825977  L 3.8379966533058334 21.445215320825977  L 3.8379966533058334 26.38433433227965  L 10.53235786278554 26.38433433227965  C 10.53235786278554 26.38433433227965  10.53235786278554 39.16416930087442  10.53235786278554 39.16416930087442  C 9.883236375704728 39.26462588914534  9.245539652344206 39.362236536294496  8.619683231505624 39.45974793710744  C 6.547730523018251 39.78256801259288  4.714841716840731 40.0574437112486  3.120986885628673 40.28342707007677  C 3.120986885628673 40.28342707007677  4.268007938669884 45.46492056324151  4.268007938669884 45.46492056324151  C 5.957606045027143 45.17435495318722  7.806957740841587 44.851543777774644  9.815348095108378 44.496407898518  C 11.85554694112518 44.14128380584435  13.94386824436279 43.770468523890045  16.079698019224033 43.383061702040315  C 17.705165151817333 43.09256230131189  19.30330980657701 42.7996336016398  20.875004864381054 42.50913420091137  C 20.875004864381054 42.50913420091137  21.81772191306378 45.99794737058171  21.81772191306378 45.99794737058171  C 23.921690467044428 45.51368469391126  26.24882817820417 44.964969854410846  28.799081604856596 44.35157436676383  C 31.38123235521778 43.73817322636782  33.899796286941935 43.10851147243447  36.35443826127563 42.46282688123486  C 36.35443826127563 42.46282688123486  35.80184457329649 37.29217127139866  35.80184457329649 37.29217127139866  C 36.53160814005526 38.73608601896373  37.35327596872629 40.07215329164785  38.26711289255555 41.30021757871834  C 39.82128893423995 43.388745481008044  41.739921125961324 45.08037138641005  44.02264855819745 46.37431750071842  C 44.02264855819745 46.37431750071842  44.483791882320894 46.627529865758035  44.483791882320894 46.627529865758035  C 44.738781525939615 46.11105887775052  45.073472170828474 45.54617137306796  45.487800132311165 44.932879018022085  C 45.902203209053084 44.35178550295194  46.348325440859234 43.7700584590462  46.82647779896486 43.1889650642473  C 47.304667358422186 42.60783378400309  47.75169827703623 42.14010230112587  48.16612834182978 41.78496654214048  C 46.104041443690534 40.81646109369227  44.335756273303424 39.49317107832321  42.86200723819901 37.8153454575311  C 42.86200723819901 37.8153454575311  42.57111725104098 37.474444763742355  42.57111725104098 37.474444763742355  C 41.87902942002364 36.6244051784633  41.245601143536184 35.70845363799699  40.6691442580846 34.727533971016875  C 41.48578880575189 34.22792492275378  42.359768504200545 33.66011966749328  43.288127018718136 33.01908945359005  C 44.690813099534964 32.018252205293734  46.014173666308324 31.017833019879717  47.25746196054014 30.016995771583396  C 47.25746196054014 30.016995771583396  43.43211269798031 26.094667268771296  43.43211269798031 26.094667268771296  C 42.82647267331334 26.740292746649082  42.09305042932343 27.4340697836272  41.23243958438728 28.176526129972494  C 41.23243958438728 28.176526129972494  40.60785305677705 28.70659715095037  40.60785305677705 28.70659715095037  C 39.9802267066643 29.23325174665934  39.343654396385794 29.75087577518833  38.698097054130834 30.25937025329447  C 38.67243084920707 30.279586996202752  38.64579143406153 30.298441477345342  38.62026695723236 30.318485980541073  C 37.98453368143047 28.584664949941498  37.45788328980789 26.757014179499876  37.03837023777095 24.83550227841865  C 37.03837023777095 24.83550227841865  45 24.83550227841865  45 24.83550227841865  Z M 29.277736700782192 24.83550227841865  C 29.277736700782192 24.83550227841865  31.89963809004942 24.83550227841865  31.89963809004942 24.83550227841865  C 32.510347711848354 27.980182825136502  33.27669110349928 30.886003216213716  34.202436082032925 33.55211626093025  C 34.64923827022914 34.799893367505334  35.15141614008475 35.9833424311856  35.7074755808071 37.10300094420953  C 33.85099607037817 37.51726370587168  31.99424056332877 37.932138738425095  30.137759271510294 38.346401740629744  C 29.848767087706086 38.405928197970574  29.562213240223883 38.465969916160105  29.277736700782192 38.524734184490335  C 29.277736700782192 38.524734184490335  29.277736700782192 24.83550227841865  29.277736700782192 24.83550227841865  Z M 7.950344398178776 28.224803973890552  C 7.950344398178776 28.224803973890552  4.22033700431957 29.193316638614064  4.22033700431957 29.193316638614064  C 4.634766831594519 30.549289405353257  5.001867988830773 32.002432686584015  5.320659999221699 33.55211626093025  C 5.639434255096807 35.10173957937774  5.829927784629187 36.47403111080607  5.893684087636689 37.668541401535364  C 5.893684087636689 37.668541401535364  9.863019029458691 36.50593209901884  9.863019029458691 36.50593209901884  C 9.767370568772126 35.68264005908365  9.609428459500304 34.73212147749548  9.388255438378021 33.654583521491034  C 9.388255438378021 33.654583521491034  9.146009261781531 32.535325752288685  9.146009261781531 32.535325752288685  C 8.795337741577324 30.985642659027466  8.396653260229794 29.548492087113594  7.950344398178776 28.224803973890552  Z M 30.273961941082618 25.844410690094012  C 30.273961941082618 25.844410690094012  30.273961941082618 37.282318650190895  30.273961941082618 37.282318650190895  C 31.605525331682383 36.98518803368365  32.937029223871285 36.68778692712396  34.268591664396624 36.39065643088797  C 33.909009218021104 35.58724114017791  33.57445027719941 34.75589381266934  33.26652916682881 33.89597274108132  C 33.26652916682881 33.89597274108132  33.26263766198389 33.88710538199433  33.26263766198389 33.88710538199433  C 32.40002958246737 31.402833334188596  31.677329640919748 28.720739847823182  31.086313577460405 25.844410690094012  C 31.086313577460405 25.844410690094012  30.273961941082618 25.844410690094012  30.273961941082618 25.844410690094012  Z M 16.501926294898237 37.191674535079436  C 16.501926294898237 37.191674535079436  16.501926294898237 37.20546820477031  16.501926294898237 37.20546820477031  C 16.511658168875414 37.20384346391039  16.521381269509067 37.20216663490889  16.531112581235163 37.20054189416643  C 16.531112581235163 37.20054189416643  16.501926294898237 37.191674535079436  16.501926294898237 37.191674535079436  Z M 22.05704946102658 28.854386469066874  C 22.05704946102658 28.854386469066874  17.753045102541154 27.789318116507246  17.753045102541154 27.789318116507246  C 17.657419985480107 28.596288505243184  17.498451936855925 29.500159519774517  17.27536288282679 30.500759472884766  C 17.27536288282679 30.500759472884766  17.125539946297234 31.22788291801798  17.125539946297234 31.22788291801798  C 16.97017103938104 31.954074561603257  16.79626175664847 32.68010582347002  16.60505117328871 33.406297467055296  C 16.3818967422632 34.34256444614927  16.158866770987373 35.1990487666263  15.935712339961864 35.97389055379942  C 15.935712339961864 35.97389055379942  19.378721251507958 36.990681062440984  19.378721251507958 36.990681062440984  C 19.761258297617502 35.95759452037748  20.175765882546177 34.6982316838104  20.622057049461027 33.21318609138306  C 21.10024565884393 31.72807278623917  21.578861801718098 30.274929505008416  22.05704946102658 28.854386469066874  Z M 22.92582791765576 36.12660618251981  C 22.92582791765576 36.12660618251981  22.92582791765576 29.40219220821873  22.92582791765576 29.40219220821873  C 22.47401963886493 30.747551998876183  22.021598443310655 32.12186456847315  21.569638479199906 33.52551418366928  C 21.232987236975696 34.644983750551646  20.91165175858966 35.64239350862361  20.607463906292566 36.516769982347384  C 21.06839966884396 36.43918516816086  21.52929247021745 36.36380327234832  21.98894812624042 36.286218646085636  C 21.98894812624042 36.286218646085636  22.92582791765576 36.12660618251981  22.92582791765576 36.12660618251981  Z M 8.722808109896096 27.393242743955007  C 8.722808109896096 27.393242743955007  8.893061446861502 27.89868221191346  8.893061446861502 27.89868221191346  C 9.1200514916349 28.57190212517704  9.334108455313705 29.272426319423772  9.536132622485114 29.999261053409416  C 9.536132622485114 29.999261053409416  9.536132622485114 27.393242743955007  9.536132622485114 27.393242743955007  L 8.722808109896096 27.393242743955007  Z M 16.501926294898237 27.393242743955007  C 16.501926294898237 27.393242743955007  16.501926294898237 29.312533355228048  16.501926294898237 29.312533355228048  C 16.61583477779878 28.719313190196644  16.704037475526558 28.172000082105175  16.763629995719345 27.669116137772484  C 16.763629995719345 27.669116137772484  16.796707786901194 27.393242743955007  16.796707786901194 27.393242743955007  L 16.501926294898237 27.393242743955007  Z M 42.27828151146048 25.844410690094012  C 42.27828151146048 25.844410690094012  38.29532630268125 25.844410690094012  38.29532630268125 25.844410690094012  C 38.53416444355585 26.80583312379408  38.802933847875906 27.74047842542156  39.098922053157956 28.64945194794532  C 39.600887225101665 28.24045613514897  40.097790044230905 27.826463322318624  40.58839553255244 27.4060511515251  C 41.22938361061952 26.852979876694704  41.792025374787265 26.33251059108671  42.27828151146048 25.844410690094012  Z M 39.892789041522356 17  L 39.892789041522356 20  L 29.277736700782192 20  L 29.277736700782192 17  L 39.892789041522356 17  Z M 30.273961941082618 17.22435239541853  L 30.273961941082618 18.692392955375837  L 38.89656380122194 18.692392955375837  L 38.89656380122194 17.22435239541853  L 30.273961941082618 17.22435239541853  Z M 12.876016655640738 7.7402192208218725  C 13.15479527216744 7.2923875491829255  13.420133007664289 6.85515156463281  13.675720901272523 6.430805862309619  C 14.154281464792826 6.892765677999533  14.637081616675523 7.394186612718862  15.123360703584076 7.934315858614886  C 16.11148014640875 9.03187717450429  17.036397253840278 10.145499754325916  17.897030781803323 11.275339710168726  C 18.4183623302065 11.916452790966634  18.87309045491388 12.514525720729504  19.263921858582712 13.06753150786157  C 19.263921858582712 13.06753150786157  8.875549675059345 13.06753150786157  8.875549675059345 13.06753150786157  C 9.115967730323122 12.793124401049148  9.350311707424162 12.519323491429631  9.57602054714558 12.243852374892239  C 10.691861345150333 10.887796500715854  11.673592071883544 9.568932587801223  12.520916838541464 8.28703969785295  C 12.520916838541464 8.28703969785295  12.876016655640738 7.7402192208218725  12.876016655640738 7.7402192208218725  Z M 13.86056738140639 8.045650478262655  C 13.81300040969228 8.122471051310283  13.766764484825183 8.200684132464996  13.718527454566681 8.278172338765959  C 13.718527454566681 8.278172338765959  13.712690197299295 8.28703969785295  13.712690197299295 8.28703969785295  C 12.930566663245132 9.516098026845826  12.02892400404078 10.77283762707059  11.011012958711133 12.058623096186214  C 11.011012958711133 12.058623096186214  17.240339339222476 12.058623096186214  17.240339339222476 12.058623096186214  C 17.202713857222406 12.011952042408367  17.165895919927472 11.963980104668865  17.127485698719696 11.916745350794367  C 17.127485698719696 11.916745350794367  17.108028174495075 11.891128535654174  17.108028174495075 11.891128535654174  C 16.264663080522077 10.78396849117626  15.357451322556804 9.691195294218769  14.386893411682298 8.613161459830042  C 14.211099507878549 8.417904204426495  14.034669588626894 8.229694694225568  13.86056738140639 8.045650478262655  Z M 29.277736700782192 8  L 39.892789041522356 8  L 39.892789041522356 12  L 29.277736700782192 12  L 29.277736700782192 8  Z M 30.273961941082618 8.94322427029024  L 30.273961941082618 10.314709142411429  L 38.89656380122194 10.314709142411429  L 38.89656380122194 8.94322427029024  L 30.273961941082618 8.94322427029024  Z M 22.813947153364207 20.436306909150623  L 22.813947153364207 27.393242743955007  L 20.35062458652761 27.393242743955007  L 23 28.030707336097542  L 23 12.24582289913379  L 21.809938903373936 13.578882548544684  L 21.809938903373936 18.919003243154478  L 16.501926294898237 18.919003243154478  L 16.501926294898237 20.436306909150623  L 22.813947153364207 20.436306909150623  Z M 46 2  L 46 25.844410690094012  L 44.5878896369226 25.844410690094012  L 48.745962563723396 30.107639886694855  C 48.745962563723396 30.107639886694855  47.87718410709421 30.806190730325547  47.87718410709421 30.806190730325547  C 46.6177717435173 31.820007772730307  45.279209273387636 32.83263773784843  43.86212398334436 33.84375384868016  C 43.86212398334436 33.84375384868016  43.85628672607697 33.848680159284044  43.85628672607697 33.848680159284044  C 43.85628672607697 33.848680159284044  43.84947659259836 33.85262120776715  43.84947659259836 33.85262120776715  C 43.225270569795356 34.283634898805374  42.6227667408054 34.68244725423932  42.04479122076507 35.05267047087319  C 42.450886282627835 35.67731949930595  42.88214982546373 36.271085996513094  43.33968945791338 36.83303912311671  C 44.77286948375388 38.55424850991933  46.518269380150166 39.898765860571295  48.5854379888703 40.86965803193891  C 48.5854379888703 40.86965803193891  50 41.5347099634632  50 41.5347099634632  C 50 41.5347099634632  48.8091995174534 42.5544562584671  48.8091995174534 42.5544562584671  C 48.451774363509045 42.860743065480165  48.04604439743392 43.283668334214255  47.592131377203565 43.835297015476826  C 47.13360405331962 44.392544709636326  46.70595741413 44.948007157422566  46.30988053080126 45.50236052383103  C 46.30988053080126 45.50236052383103  46.029692181966766 45.92996428424812  46.029692181966766 45.92996428424812  C 45.76481846875707 46.34661797832359  45.547470269131004 46.72934011452068  45.37494649180838 47.07877991707377  C 45.37494649180838 47.07877991707377  44.920613301163556 48  44.920613301163556 48  C 44.920613301163556 48  44.02070280577499 47.52017734718174  44.02070280577499 47.52017734718174  C 41.40665093140736 46.12863110945903  39.219315721816386 44.257122463719774  37.47130015176869 41.90812430723757  C 37.40214548876588 41.81519321166185  37.33510745797783 41.720418350230375  37.266996147410204 41.62633934069543  C 37.266996147410204 41.62633934069543  37.437249484375606 43.22049345211216  37.437249484375606 43.22049345211216  C 37.437249484375606 43.22049345211216  36.6054403237732 43.439221642924586  36.6054403237732 43.439221642924586  C 34.14277829618061 44.08701747573407  31.6162717422632 44.71872492344334  29.026734638284623 45.33388070117821  C 29.026734638284623 45.33388070117821  29.025761762073394 45.33289543905743  29.025761762073394 45.33289543905743  C 26.474278226559157 45.94657747296944  24.145363638706 46.49731025365368  22.038564813013192 46.98222422923766  C 22.038564813013192 46.98222422923766  21.10849515507647 47.1960261094462  21.10849515507647 47.1960261094462  C 21.10849515507647 47.1960261094462  20.155076468070202 43.667802454944784  20.155076468070202 43.667802454944784  C 18.872218880388214 43.90338579017573  17.57189393688344 44.13965991839355  16.25384286103436 44.37522065766247  C 16.25384286103436 44.37522065766247  16.254815737245593 44.37620591978324  16.254815737245593 44.37620591978324  C 14.117478431790435 44.76388551683925  12.027586180491035 45.13411294296705  9.985601432073784 45.48955211626093  C 9.985601432073784 45.48955211626093  9.986574308285014 45.4905373783817  9.986574308285014 45.4905373783817  C 7.977072841978148 45.84586972073335  6.126623810202796 46.1691796009047  4.435342647001596 46.46003530522599  C 4.435342647001596 46.46003530522599  3.5033272366424097 46.6206330309126  3.5033272366424097 46.6206330309126  L 1.911701755068685 39.4361016462088  C 1.911701755068685 39.4361016462088  2.9828384636338874 39.28437127960918  2.9828384636338874 39.28437127960918  C 4.5710901121650265 39.05918258303046  6.399245291279137 38.78497033068501  8.467914542553604 38.4626626708814  C 8.820153240211726 38.407782198158436  9.176538834596148 38.35393517498626  9.536132622485114 38.29812389671169  C 9.536132622485114 38.29812389671169  9.536132622485114 37.65179194548216  9.536132622485114 37.65179194548216  L 4.966533058333657 38.98977790549694  C 4.966533058333657 38.98977790549694  4.899404599758727 37.722730818178086  4.899404599758727 37.722730818178086  C 4.839062749186708 36.59234543219395  4.656430280184928 35.272622541976276  4.3448651593571235 33.758036044172584  C 4.031774634660281 32.236068018365906  3.6729969607024135 30.81413464671682  3.268864069735767 29.49185106120941  C 3.268864069735767 29.49185106120941  2.9594894345643463 28.47998686317172  2.9594894345643463 28.47998686317172  L 7.141884266645912 27.393242743955007  L 2.8417714130054095 27.393242743955007  L 2.8417714130054095 20.436306909150623  L 9.536132622485114 20.436306909150623  L 9.536132622485114 18.919003243154478  L 4.897458847336265 18.919003243154478  L 4.897458847336265 18.212570302557577  C 4.897458847336265 18.212570302557577  4.328326263766198 17.276571287819696  4.328326263766198 17.276571287819696  C 4.108549852048711 16.914887570831752  3.808539922345857 16.507312853116407  3.4196598824765534 16.052875733815018  C 3.4196598824765534 16.052875733815018  3.408958244153014 16.04006732624492  3.408958244153014 16.04006732624492  C 3.408958244153014 16.04006732624492  3.399229482040705 16.028244180795596  3.399229482040705 16.028244180795596  C 3.0055070018965004 15.53749431317416  2.598425525261947 15.07832304666653  2.1772969607347163 14.651832998070528  C 1.7544881598969937 14.223647094711527  1.3751020059282364 13.88660945349704  1.0400046698058139 13.63208670306663  C 1.0400046698058139 13.63208670306663  0 12.8419064822037  0 12.8419064822037  C 0 12.8419064822037  1.0244386504261198 12.030050494683689  1.0244386504261198 12.030050494683689  C 2.442655241591005 10.905971652225563  3.68440655292173 9.709019855020218  4.753473168074094 8.440740588694117  C 5.836717031315366 7.123434910158975  6.776888118057617 5.7954021181211255  7.575787056854885 4.457325834393858  C 7.575787056854885 4.457325834393858  7.58065143791104 4.450428999548421  7.58065143791104 4.450428999548421  C 7.58065143791104 4.450428999548421  7.584542942755963 4.443532164702985  7.584542942755963 4.443532164702985  C 8.423630386009918 3.0901930979052916  9.100132067945674 1.8109580824207683  9.61882710043974 0.6059362042776797  C 9.61882710043974 0.6059362042776797  9.879557925049616 0  9.879557925049616 0  L 15.581585399073822 0  C 15.581585399073822 0  15.858855119274622 0.23547764686563488  15.858855119274622 0.23547764686563488  C 16.860207198691114 1.0860119078164128  17.90674232381668 2.031950620150663  18.998326652916685 3.0720472925817974  C 18.998326652916685 3.0720472925817974  19.81262404171693 3.8385812225460816  19.81262404171693 3.8385812225460816  C 20.61551934982379 4.608573913261012  21.383142194826974 5.388586823177522  22.1144491574892 6.1785787593907795  C 22.400679920287235 6.478091348102858  22.67054689808681 6.772712565010622  22.92582791765576 7.062358881727493  C 22.92582791765576 7.062358881727493  22.92582791765576 2  22.92582791765576 2  L 46 2  Z " fill-rule="nonzero" fill="rgba(127, 140, 159, 0.058823529411764705)" stroke="none" transform="matrix(1 0 0 1 139 375 )" class="fill" />
    <path d="M 45 24.83550227841865  L 45 3  L 23.92205315795618 3  C 23.92205315795618 3  23.92205315795618 39.64005090520957  23.92205315795618 39.64005090520957  C 23.36470684142513 39.7557273397129  22.826794237878417 39.864163812997276  22.308051523524146 39.96420214294511  C 22.308051523524146 39.96420214294511  22.152391329727205 37.281333388070124  22.152391329727205 37.281333388070124  C 19.95154202399599 37.652811545046234  17.735860393859816 38.0232016681142  15.505701054597813 38.3946795845478  C 15.505701054597813 38.3946795845478  15.505701054597813 26.38433433227965  15.505701054597813 26.38433433227965  L 21.81772191306378 26.38433433227965  L 21.81772191306378 21.445215320825977  L 15.505701054597813 21.445215320825977  L 15.505701054597813 17.910094831479125  L 20.81371366307351 17.910094831479125  L 20.81371366307351 13.20842399113264  C 20.81371366307351 13.20842399113264  23.730396544343698 9.725522394186953  23.730396544343698 9.725522394186953  C 23.22839467577532 8.962953506821144  22.567803474577985 8.138618414427162  21.74864770206639 7.252514471037399  C 21.74864770206639 7.252514471037399  21.387710627699732 6.86826224393448  21.387710627699732 6.86826224393448  C 20.670469576279725 6.093464957125702  19.91667981490498 5.32825551435686  19.12771918901039 4.571616240403958  C 19.12771918901039 4.571616240403958  18.327042067167373 3.817890718009771  18.327042067167373 3.817890718009771  C 17.243185524681262 2.7848034543187326  16.206928245306024 1.84829707529173  15.218702572284704 1.008908411675356  C 15.218702572284704 1.008908411675356  10.53235786278554 1.008908411675356  10.53235786278554 1.008908411675356  C 9.990423712956979 2.2679634741009482  9.288717744118204 3.5913313049719813  8.428026617893138 4.979514758405518  C 7.599175157735156 6.367758467737797  6.627102234430636 7.739980241838232  5.511343736622952 9.095939899010633  C 4.395585001296662 10.41961201615676  3.104745244573479 11.662906252245063  1.6383235397128069 12.8251570261505  C 2.020806817547859 13.115687637269593  2.435442989111995 13.486611734641842  2.8816593376658752 13.938503222628185  C 3.327968199716893 14.390494144874584  3.758236242694308 14.875204621495136  4.1726660699692575 15.391764850773843  C 4.5870027305709025 15.875939428750026  4.9216697423584375 16.327854399698904  5.176674319959528 16.7474855289626  C 5.420469296007772 16.53319536249275  5.659181359037191 16.318086434420735  5.893684087636689 16.10312410197463  C 5.893684087636689 16.10312410197463  5.893684087636689 17.910094831479125  5.893684087636689 17.910094831479125  L 10.53235786278554 17.910094831479125  L 10.53235786278554 21.445215320825977  L 3.8379966533058334 21.445215320825977  L 3.8379966533058334 26.38433433227965  L 10.53235786278554 26.38433433227965  C 10.53235786278554 26.38433433227965  10.53235786278554 39.16416930087442  10.53235786278554 39.16416930087442  C 9.883236375704728 39.26462588914534  9.245539652344206 39.362236536294496  8.619683231505624 39.45974793710744  C 6.547730523018251 39.78256801259288  4.714841716840731 40.0574437112486  3.120986885628673 40.28342707007677  C 3.120986885628673 40.28342707007677  4.268007938669884 45.46492056324151  4.268007938669884 45.46492056324151  C 5.957606045027143 45.17435495318722  7.806957740841587 44.851543777774644  9.815348095108378 44.496407898518  C 11.85554694112518 44.14128380584435  13.94386824436279 43.770468523890045  16.079698019224033 43.383061702040315  C 17.705165151817333 43.09256230131189  19.30330980657701 42.7996336016398  20.875004864381054 42.50913420091137  C 20.875004864381054 42.50913420091137  21.81772191306378 45.99794737058171  21.81772191306378 45.99794737058171  C 23.921690467044428 45.51368469391126  26.24882817820417 44.964969854410846  28.799081604856596 44.35157436676383  C 31.38123235521778 43.73817322636782  33.899796286941935 43.10851147243447  36.35443826127563 42.46282688123486  C 36.35443826127563 42.46282688123486  35.80184457329649 37.29217127139866  35.80184457329649 37.29217127139866  C 36.53160814005526 38.73608601896373  37.35327596872629 40.07215329164785  38.26711289255555 41.30021757871834  C 39.82128893423995 43.388745481008044  41.739921125961324 45.08037138641005  44.02264855819745 46.37431750071842  C 44.02264855819745 46.37431750071842  44.483791882320894 46.627529865758035  44.483791882320894 46.627529865758035  C 44.738781525939615 46.11105887775052  45.073472170828474 45.54617137306796  45.487800132311165 44.932879018022085  C 45.902203209053084 44.35178550295194  46.348325440859234 43.7700584590462  46.82647779896486 43.1889650642473  C 47.304667358422186 42.60783378400309  47.75169827703623 42.14010230112587  48.16612834182978 41.78496654214048  C 46.104041443690534 40.81646109369227  44.335756273303424 39.49317107832321  42.86200723819901 37.8153454575311  C 42.86200723819901 37.8153454575311  42.57111725104098 37.474444763742355  42.57111725104098 37.474444763742355  C 41.87902942002364 36.6244051784633  41.245601143536184 35.70845363799699  40.6691442580846 34.727533971016875  C 41.48578880575189 34.22792492275378  42.359768504200545 33.66011966749328  43.288127018718136 33.01908945359005  C 44.690813099534964 32.018252205293734  46.014173666308324 31.017833019879717  47.25746196054014 30.016995771583396  C 47.25746196054014 30.016995771583396  43.43211269798031 26.094667268771296  43.43211269798031 26.094667268771296  C 42.82647267331334 26.740292746649082  42.09305042932343 27.4340697836272  41.23243958438728 28.176526129972494  C 41.23243958438728 28.176526129972494  40.60785305677705 28.70659715095037  40.60785305677705 28.70659715095037  C 39.9802267066643 29.23325174665934  39.343654396385794 29.75087577518833  38.698097054130834 30.25937025329447  C 38.67243084920707 30.279586996202752  38.64579143406153 30.298441477345342  38.62026695723236 30.318485980541073  C 37.98453368143047 28.584664949941498  37.45788328980789 26.757014179499876  37.03837023777095 24.83550227841865  C 37.03837023777095 24.83550227841865  45 24.83550227841865  45 24.83550227841865  Z " stroke-width="0" stroke-dasharray="0" stroke="rgba(121, 121, 121, 1)" fill="none" transform="matrix(1 0 0 1 139 375 )" class="stroke" mask="url(#Clip4907)" />
    <path d="M 29.277736700782192 24.83550227841865  C 29.277736700782192 24.83550227841865  31.89963809004942 24.83550227841865  31.89963809004942 24.83550227841865  C 32.510347711848354 27.980182825136502  33.27669110349928 30.886003216213716  34.202436082032925 33.55211626093025  C 34.64923827022914 34.799893367505334  35.15141614008475 35.9833424311856  35.7074755808071 37.10300094420953  C 33.85099607037817 37.51726370587168  31.99424056332877 37.932138738425095  30.137759271510294 38.346401740629744  C 29.848767087706086 38.405928197970574  29.562213240223883 38.465969916160105  29.277736700782192 38.524734184490335  C 29.277736700782192 38.524734184490335  29.277736700782192 24.83550227841865  29.277736700782192 24.83550227841865  Z " stroke-width="0" stroke-dasharray="0" stroke="rgba(121, 121, 121, 1)" fill="none" transform="matrix(1 0 0 1 139 375 )" class="stroke" mask="url(#Clip4907)" />
    <path d="M 7.950344398178776 28.224803973890552  C 7.950344398178776 28.224803973890552  4.22033700431957 29.193316638614064  4.22033700431957 29.193316638614064  C 4.634766831594519 30.549289405353257  5.001867988830773 32.002432686584015  5.320659999221699 33.55211626093025  C 5.639434255096807 35.10173957937774  5.829927784629187 36.47403111080607  5.893684087636689 37.668541401535364  C 5.893684087636689 37.668541401535364  9.863019029458691 36.50593209901884  9.863019029458691 36.50593209901884  C 9.767370568772126 35.68264005908365  9.609428459500304 34.73212147749548  9.388255438378021 33.654583521491034  C 9.388255438378021 33.654583521491034  9.146009261781531 32.535325752288685  9.146009261781531 32.535325752288685  C 8.795337741577324 30.985642659027466  8.396653260229794 29.548492087113594  7.950344398178776 28.224803973890552  Z " stroke-width="0" stroke-dasharray="0" stroke="rgba(121, 121, 121, 1)" fill="none" transform="matrix(1 0 0 1 139 375 )" class="stroke" mask="url(#Clip4907)" />
    <path d="M 30.273961941082618 25.844410690094012  C 30.273961941082618 25.844410690094012  30.273961941082618 37.282318650190895  30.273961941082618 37.282318650190895  C 31.605525331682383 36.98518803368365  32.937029223871285 36.68778692712396  34.268591664396624 36.39065643088797  C 33.909009218021104 35.58724114017791  33.57445027719941 34.75589381266934  33.26652916682881 33.89597274108132  C 33.26652916682881 33.89597274108132  33.26263766198389 33.88710538199433  33.26263766198389 33.88710538199433  C 32.40002958246737 31.402833334188596  31.677329640919748 28.720739847823182  31.086313577460405 25.844410690094012  C 31.086313577460405 25.844410690094012  30.273961941082618 25.844410690094012  30.273961941082618 25.844410690094012  Z " stroke-width="0" stroke-dasharray="0" stroke="rgba(121, 121, 121, 1)" fill="none" transform="matrix(1 0 0 1 139 375 )" class="stroke" mask="url(#Clip4907)" />
    <path d="M 16.501926294898237 37.191674535079436  C 16.501926294898237 37.191674535079436  16.501926294898237 37.20546820477031  16.501926294898237 37.20546820477031  C 16.511658168875414 37.20384346391039  16.521381269509067 37.20216663490889  16.531112581235163 37.20054189416643  C 16.531112581235163 37.20054189416643  16.501926294898237 37.191674535079436  16.501926294898237 37.191674535079436  Z " stroke-width="0" stroke-dasharray="0" stroke="rgba(121, 121, 121, 1)" fill="none" transform="matrix(1 0 0 1 139 375 )" class="stroke" mask="url(#Clip4907)" />
    <path d="M 22.05704946102658 28.854386469066874  C 22.05704946102658 28.854386469066874  17.753045102541154 27.789318116507246  17.753045102541154 27.789318116507246  C 17.657419985480107 28.596288505243184  17.498451936855925 29.500159519774517  17.27536288282679 30.500759472884766  C 17.27536288282679 30.500759472884766  17.125539946297234 31.22788291801798  17.125539946297234 31.22788291801798  C 16.97017103938104 31.954074561603257  16.79626175664847 32.68010582347002  16.60505117328871 33.406297467055296  C 16.3818967422632 34.34256444614927  16.158866770987373 35.1990487666263  15.935712339961864 35.97389055379942  C 15.935712339961864 35.97389055379942  19.378721251507958 36.990681062440984  19.378721251507958 36.990681062440984  C 19.761258297617502 35.95759452037748  20.175765882546177 34.6982316838104  20.622057049461027 33.21318609138306  C 21.10024565884393 31.72807278623917  21.578861801718098 30.274929505008416  22.05704946102658 28.854386469066874  Z " stroke-width="0" stroke-dasharray="0" stroke="rgba(121, 121, 121, 1)" fill="none" transform="matrix(1 0 0 1 139 375 )" class="stroke" mask="url(#Clip4907)" />
    <path d="M 22.92582791765576 36.12660618251981  C 22.92582791765576 36.12660618251981  22.92582791765576 29.40219220821873  22.92582791765576 29.40219220821873  C 22.47401963886493 30.747551998876183  22.021598443310655 32.12186456847315  21.569638479199906 33.52551418366928  C 21.232987236975696 34.644983750551646  20.91165175858966 35.64239350862361  20.607463906292566 36.516769982347384  C 21.06839966884396 36.43918516816086  21.52929247021745 36.36380327234832  21.98894812624042 36.286218646085636  C 21.98894812624042 36.286218646085636  22.92582791765576 36.12660618251981  22.92582791765576 36.12660618251981  Z " stroke-width="0" stroke-dasharray="0" stroke="rgba(121, 121, 121, 1)" fill="none" transform="matrix(1 0 0 1 139 375 )" class="stroke" mask="url(#Clip4907)" />
    <path d="M 8.722808109896096 27.393242743955007  C 8.722808109896096 27.393242743955007  8.893061446861502 27.89868221191346  8.893061446861502 27.89868221191346  C 9.1200514916349 28.57190212517704  9.334108455313705 29.272426319423772  9.536132622485114 29.999261053409416  C 9.536132622485114 29.999261053409416  9.536132622485114 27.393242743955007  9.536132622485114 27.393242743955007  L 8.722808109896096 27.393242743955007  Z " stroke-width="0" stroke-dasharray="0" stroke="rgba(121, 121, 121, 1)" fill="none" transform="matrix(1 0 0 1 139 375 )" class="stroke" mask="url(#Clip4907)" />
    <path d="M 16.501926294898237 27.393242743955007  C 16.501926294898237 27.393242743955007  16.501926294898237 29.312533355228048  16.501926294898237 29.312533355228048  C 16.61583477779878 28.719313190196644  16.704037475526558 28.172000082105175  16.763629995719345 27.669116137772484  C 16.763629995719345 27.669116137772484  16.796707786901194 27.393242743955007  16.796707786901194 27.393242743955007  L 16.501926294898237 27.393242743955007  Z " stroke-width="0" stroke-dasharray="0" stroke="rgba(121, 121, 121, 1)" fill="none" transform="matrix(1 0 0 1 139 375 )" class="stroke" mask="url(#Clip4907)" />
    <path d="M 42.27828151146048 25.844410690094012  C 42.27828151146048 25.844410690094012  38.29532630268125 25.844410690094012  38.29532630268125 25.844410690094012  C 38.53416444355585 26.80583312379408  38.802933847875906 27.74047842542156  39.098922053157956 28.64945194794532  C 39.600887225101665 28.24045613514897  40.097790044230905 27.826463322318624  40.58839553255244 27.4060511515251  C 41.22938361061952 26.852979876694704  41.792025374787265 26.33251059108671  42.27828151146048 25.844410690094012  Z " stroke-width="0" stroke-dasharray="0" stroke="rgba(121, 121, 121, 1)" fill="none" transform="matrix(1 0 0 1 139 375 )" class="stroke" mask="url(#Clip4907)" />
    <path d="M 39.892789041522356 17  L 39.892789041522356 20  L 29.277736700782192 20  L 29.277736700782192 17  L 39.892789041522356 17  Z " stroke-width="0" stroke-dasharray="0" stroke="rgba(121, 121, 121, 1)" fill="none" transform="matrix(1 0 0 1 139 375 )" class="stroke" mask="url(#Clip4907)" />
    <path d="M 30.273961941082618 17.22435239541853  L 30.273961941082618 18.692392955375837  L 38.89656380122194 18.692392955375837  L 38.89656380122194 17.22435239541853  L 30.273961941082618 17.22435239541853  Z " stroke-width="0" stroke-dasharray="0" stroke="rgba(121, 121, 121, 1)" fill="none" transform="matrix(1 0 0 1 139 375 )" class="stroke" mask="url(#Clip4907)" />
    <path d="M 12.876016655640738 7.7402192208218725  C 13.15479527216744 7.2923875491829255  13.420133007664289 6.85515156463281  13.675720901272523 6.430805862309619  C 14.154281464792826 6.892765677999533  14.637081616675523 7.394186612718862  15.123360703584076 7.934315858614886  C 16.11148014640875 9.03187717450429  17.036397253840278 10.145499754325916  17.897030781803323 11.275339710168726  C 18.4183623302065 11.916452790966634  18.87309045491388 12.514525720729504  19.263921858582712 13.06753150786157  C 19.263921858582712 13.06753150786157  8.875549675059345 13.06753150786157  8.875549675059345 13.06753150786157  C 9.115967730323122 12.793124401049148  9.350311707424162 12.519323491429631  9.57602054714558 12.243852374892239  C 10.691861345150333 10.887796500715854  11.673592071883544 9.568932587801223  12.520916838541464 8.28703969785295  C 12.520916838541464 8.28703969785295  12.876016655640738 7.7402192208218725  12.876016655640738 7.7402192208218725  Z " stroke-width="0" stroke-dasharray="0" stroke="rgba(121, 121, 121, 1)" fill="none" transform="matrix(1 0 0 1 139 375 )" class="stroke" mask="url(#Clip4907)" />
    <path d="M 13.86056738140639 8.045650478262655  C 13.81300040969228 8.122471051310283  13.766764484825183 8.200684132464996  13.718527454566681 8.278172338765959  C 13.718527454566681 8.278172338765959  13.712690197299295 8.28703969785295  13.712690197299295 8.28703969785295  C 12.930566663245132 9.516098026845826  12.02892400404078 10.77283762707059  11.011012958711133 12.058623096186214  C 11.011012958711133 12.058623096186214  17.240339339222476 12.058623096186214  17.240339339222476 12.058623096186214  C 17.202713857222406 12.011952042408367  17.165895919927472 11.963980104668865  17.127485698719696 11.916745350794367  C 17.127485698719696 11.916745350794367  17.108028174495075 11.891128535654174  17.108028174495075 11.891128535654174  C 16.264663080522077 10.78396849117626  15.357451322556804 9.691195294218769  14.386893411682298 8.613161459830042  C 14.211099507878549 8.417904204426495  14.034669588626894 8.229694694225568  13.86056738140639 8.045650478262655  Z " stroke-width="0" stroke-dasharray="0" stroke="rgba(121, 121, 121, 1)" fill="none" transform="matrix(1 0 0 1 139 375 )" class="stroke" mask="url(#Clip4907)" />
    <path d="M 29.277736700782192 8  L 39.892789041522356 8  L 39.892789041522356 12  L 29.277736700782192 12  L 29.277736700782192 8  Z " stroke-width="0" stroke-dasharray="0" stroke="rgba(121, 121, 121, 1)" fill="none" transform="matrix(1 0 0 1 139 375 )" class="stroke" mask="url(#Clip4907)" />
    <path d="M 30.273961941082618 8.94322427029024  L 30.273961941082618 10.314709142411429  L 38.89656380122194 10.314709142411429  L 38.89656380122194 8.94322427029024  L 30.273961941082618 8.94322427029024  Z " stroke-width="0" stroke-dasharray="0" stroke="rgba(121, 121, 121, 1)" fill="none" transform="matrix(1 0 0 1 139 375 )" class="stroke" mask="url(#Clip4907)" />
    <path d="M 22.813947153364207 20.436306909150623  L 22.813947153364207 27.393242743955007  L 20.35062458652761 27.393242743955007  L 23 28.030707336097542  L 23 12.24582289913379  L 21.809938903373936 13.578882548544684  L 21.809938903373936 18.919003243154478  L 16.501926294898237 18.919003243154478  L 16.501926294898237 20.436306909150623  L 22.813947153364207 20.436306909150623  Z " stroke-width="0" stroke-dasharray="0" stroke="rgba(121, 121, 121, 1)" fill="none" transform="matrix(1 0 0 1 139 375 )" class="stroke" mask="url(#Clip4907)" />
    <path d="M 46 2  L 46 25.844410690094012  L 44.5878896369226 25.844410690094012  L 48.745962563723396 30.107639886694855  C 48.745962563723396 30.107639886694855  47.87718410709421 30.806190730325547  47.87718410709421 30.806190730325547  C 46.6177717435173 31.820007772730307  45.279209273387636 32.83263773784843  43.86212398334436 33.84375384868016  C 43.86212398334436 33.84375384868016  43.85628672607697 33.848680159284044  43.85628672607697 33.848680159284044  C 43.85628672607697 33.848680159284044  43.84947659259836 33.85262120776715  43.84947659259836 33.85262120776715  C 43.225270569795356 34.283634898805374  42.6227667408054 34.68244725423932  42.04479122076507 35.05267047087319  C 42.450886282627835 35.67731949930595  42.88214982546373 36.271085996513094  43.33968945791338 36.83303912311671  C 44.77286948375388 38.55424850991933  46.518269380150166 39.898765860571295  48.5854379888703 40.86965803193891  C 48.5854379888703 40.86965803193891  50 41.5347099634632  50 41.5347099634632  C 50 41.5347099634632  48.8091995174534 42.5544562584671  48.8091995174534 42.5544562584671  C 48.451774363509045 42.860743065480165  48.04604439743392 43.283668334214255  47.592131377203565 43.835297015476826  C 47.13360405331962 44.392544709636326  46.70595741413 44.948007157422566  46.30988053080126 45.50236052383103  C 46.30988053080126 45.50236052383103  46.029692181966766 45.92996428424812  46.029692181966766 45.92996428424812  C 45.76481846875707 46.34661797832359  45.547470269131004 46.72934011452068  45.37494649180838 47.07877991707377  C 45.37494649180838 47.07877991707377  44.920613301163556 48  44.920613301163556 48  C 44.920613301163556 48  44.02070280577499 47.52017734718174  44.02070280577499 47.52017734718174  C 41.40665093140736 46.12863110945903  39.219315721816386 44.257122463719774  37.47130015176869 41.90812430723757  C 37.40214548876588 41.81519321166185  37.33510745797783 41.720418350230375  37.266996147410204 41.62633934069543  C 37.266996147410204 41.62633934069543  37.437249484375606 43.22049345211216  37.437249484375606 43.22049345211216  C 37.437249484375606 43.22049345211216  36.6054403237732 43.439221642924586  36.6054403237732 43.439221642924586  C 34.14277829618061 44.08701747573407  31.6162717422632 44.71872492344334  29.026734638284623 45.33388070117821  C 29.026734638284623 45.33388070117821  29.025761762073394 45.33289543905743  29.025761762073394 45.33289543905743  C 26.474278226559157 45.94657747296944  24.145363638706 46.49731025365368  22.038564813013192 46.98222422923766  C 22.038564813013192 46.98222422923766  21.10849515507647 47.1960261094462  21.10849515507647 47.1960261094462  C 21.10849515507647 47.1960261094462  20.155076468070202 43.667802454944784  20.155076468070202 43.667802454944784  C 18.872218880388214 43.90338579017573  17.57189393688344 44.13965991839355  16.25384286103436 44.37522065766247  C 16.25384286103436 44.37522065766247  16.254815737245593 44.37620591978324  16.254815737245593 44.37620591978324  C 14.117478431790435 44.76388551683925  12.027586180491035 45.13411294296705  9.985601432073784 45.48955211626093  C 9.985601432073784 45.48955211626093  9.986574308285014 45.4905373783817  9.986574308285014 45.4905373783817  C 7.977072841978148 45.84586972073335  6.126623810202796 46.1691796009047  4.435342647001596 46.46003530522599  C 4.435342647001596 46.46003530522599  3.5033272366424097 46.6206330309126  3.5033272366424097 46.6206330309126  L 1.911701755068685 39.4361016462088  C 1.911701755068685 39.4361016462088  2.9828384636338874 39.28437127960918  2.9828384636338874 39.28437127960918  C 4.5710901121650265 39.05918258303046  6.399245291279137 38.78497033068501  8.467914542553604 38.4626626708814  C 8.820153240211726 38.407782198158436  9.176538834596148 38.35393517498626  9.536132622485114 38.29812389671169  C 9.536132622485114 38.29812389671169  9.536132622485114 37.65179194548216  9.536132622485114 37.65179194548216  L 4.966533058333657 38.98977790549694  C 4.966533058333657 38.98977790549694  4.899404599758727 37.722730818178086  4.899404599758727 37.722730818178086  C 4.839062749186708 36.59234543219395  4.656430280184928 35.272622541976276  4.3448651593571235 33.758036044172584  C 4.031774634660281 32.236068018365906  3.6729969607024135 30.81413464671682  3.268864069735767 29.49185106120941  C 3.268864069735767 29.49185106120941  2.9594894345643463 28.47998686317172  2.9594894345643463 28.47998686317172  L 7.141884266645912 27.393242743955007  L 2.8417714130054095 27.393242743955007  L 2.8417714130054095 20.436306909150623  L 9.536132622485114 20.436306909150623  L 9.536132622485114 18.919003243154478  L 4.897458847336265 18.919003243154478  L 4.897458847336265 18.212570302557577  C 4.897458847336265 18.212570302557577  4.328326263766198 17.276571287819696  4.328326263766198 17.276571287819696  C 4.108549852048711 16.914887570831752  3.808539922345857 16.507312853116407  3.4196598824765534 16.052875733815018  C 3.4196598824765534 16.052875733815018  3.408958244153014 16.04006732624492  3.408958244153014 16.04006732624492  C 3.408958244153014 16.04006732624492  3.399229482040705 16.028244180795596  3.399229482040705 16.028244180795596  C 3.0055070018965004 15.53749431317416  2.598425525261947 15.07832304666653  2.1772969607347163 14.651832998070528  C 1.7544881598969937 14.223647094711527  1.3751020059282364 13.88660945349704  1.0400046698058139 13.63208670306663  C 1.0400046698058139 13.63208670306663  0 12.8419064822037  0 12.8419064822037  C 0 12.8419064822037  1.0244386504261198 12.030050494683689  1.0244386504261198 12.030050494683689  C 2.442655241591005 10.905971652225563  3.68440655292173 9.709019855020218  4.753473168074094 8.440740588694117  C 5.836717031315366 7.123434910158975  6.776888118057617 5.7954021181211255  7.575787056854885 4.457325834393858  C 7.575787056854885 4.457325834393858  7.58065143791104 4.450428999548421  7.58065143791104 4.450428999548421  C 7.58065143791104 4.450428999548421  7.584542942755963 4.443532164702985  7.584542942755963 4.443532164702985  C 8.423630386009918 3.0901930979052916  9.100132067945674 1.8109580824207683  9.61882710043974 0.6059362042776797  C 9.61882710043974 0.6059362042776797  9.879557925049616 0  9.879557925049616 0  L 15.581585399073822 0  C 15.581585399073822 0  15.858855119274622 0.23547764686563488  15.858855119274622 0.23547764686563488  C 16.860207198691114 1.0860119078164128  17.90674232381668 2.031950620150663  18.998326652916685 3.0720472925817974  C 18.998326652916685 3.0720472925817974  19.81262404171693 3.8385812225460816  19.81262404171693 3.8385812225460816  C 20.61551934982379 4.608573913261012  21.383142194826974 5.388586823177522  22.1144491574892 6.1785787593907795  C 22.400679920287235 6.478091348102858  22.67054689808681 6.772712565010622  22.92582791765576 7.062358881727493  C 22.92582791765576 7.062358881727493  22.92582791765576 2  22.92582791765576 2  L 46 2  Z " stroke-width="0" stroke-dasharray="0" stroke="rgba(121, 121, 121, 1)" fill="none" transform="matrix(1 0 0 1 139 375 )" class="stroke" mask="url(#Clip4907)" />
  </g>
  <style>svg { filter: drop-shadow(0px 4px 2px rgba(0, 0, 0, 0.12941176470588237)); }</style>
</svg>