<?xml version="1.0" encoding="utf-8"?>
<svg version="1.1" xmlns:xlink="http://www.w3.org/1999/xlink" width="37px" height="56px" xmlns="http://www.w3.org/2000/svg">
  <defs>
    <pattern id="BGPattern" patternUnits="userSpaceOnUse" alignment="0 0" imageRepeat="None" />
    <mask fill="white" id="Clip4910">
      <path d="M 28.015482544839706 46.99092588790803  C 28.015482544839706 46.99092588790803  28.015482544839706 25.226852802299323  28.015482544839706 25.226852802299323  C 28.015356170403145 18.234015089304044  24.35196802775234 13.118252651815272  17.385770646155887 12.960295627181278  C 17.385770646155887 12.960295627181278  17.05214998508106 12.957339355368507  17.05214998508106 12.957339355368507  C 14.153868611080318 12.957339355368507  11.381278047478492 14.119085371330321  9.176010343798692 16.44376924656128  C 9.176010343798692 16.44376924656128  9.176010343798692 1.0090741120919728  9.176010343798692 1.0090741120919728  L 1 1.0090741120919728  L 1 46.99092588790803  L 9.176010343798692 46.99092588790803  C 9.176010343798692 46.99092588790803  9.176010343798692 26.45469102853624  9.176010343798692 26.45469102853624  C 9.176010343798692 22.063201216382673  11.885379703869393 20.512584684869637  14.468753108112589 20.512584684869637  C 14.468753108112589 20.512584684869637  14.711036700593443 20.517511804557586  14.711036700593443 20.517511804557586  C 17.22238545569075 20.608777148678083  19.823989656201306 22.137757583145145  19.823989656201306 26.45469102853624  C 19.823989656201306 26.45469102853624  19.823989656201306 46.99092588790803  19.823989656201306 46.99092588790803  L 28.015482544839706 46.99092588790803  Z M 10.160527798958988 0  C 10.160527798958988 0  10.160527798958988 14.240361322110449  10.160527798958988 14.240361322110449  C 12.216985466206529 12.717630531782486  14.591448094584527 11.948265243276534  17.05214998508106 11.948265243276534  C 20.890563299108695 11.94830968616019  23.917691156694463 13.33807603354034  25.971455093989327 15.766783001437076  C 28.008423592167453 18.175755026560253  28.999935802082046 21.500975239298914  29 25.226852802299323  C 29 25.226852802299323  29 48  29 48  L 18.83947220104101 48  C 18.83947220104101 48  18.83947220104101 26.45469102853624  18.83947220104101 26.45469102853624  C 18.83947220104101 24.45402541829193  18.225950968730704 23.266278801677018  17.45980174385837 22.566208170806817  C 16.67130143788735 21.845748574952523  15.590402918880335 21.521689829031462  14.468753108112589 21.52165879696161  C 13.357285530842319 21.52165879696161  12.292807122074878 21.855804482203347  11.517123628286312 22.581974953808253  C 10.76036519529696 23.290566338085096  10.160527798958988 24.483260102840795  10.160527798958988 26.45469102853624  C 10.160527798958988 26.45469102853624  10.160527798958988 48  10.160527798958988 48  L 0 48  L 0 0  L 10.160527798958988 0  Z " fill-rule="evenodd" />
    </mask>
  </defs>
  <g transform="matrix(1 0 0 1 -525 -311 )">
    <path d="M 28.015482544839706 46.99092588790803  C 28.015482544839706 46.99092588790803  28.015482544839706 25.226852802299323  28.015482544839706 25.226852802299323  C 28.015356170403145 18.234015089304044  24.35196802775234 13.118252651815272  17.385770646155887 12.960295627181278  C 17.385770646155887 12.960295627181278  17.05214998508106 12.957339355368507  17.05214998508106 12.957339355368507  C 14.153868611080318 12.957339355368507  11.381278047478492 14.119085371330321  9.176010343798692 16.44376924656128  C 9.176010343798692 16.44376924656128  9.176010343798692 1.0090741120919728  9.176010343798692 1.0090741120919728  L 1 1.0090741120919728  L 1 46.99092588790803  L 9.176010343798692 46.99092588790803  C 9.176010343798692 46.99092588790803  9.176010343798692 26.45469102853624  9.176010343798692 26.45469102853624  C 9.176010343798692 22.063201216382673  11.885379703869393 20.512584684869637  14.468753108112589 20.512584684869637  C 14.468753108112589 20.512584684869637  14.711036700593443 20.517511804557586  14.711036700593443 20.517511804557586  C 17.22238545569075 20.608777148678083  19.823989656201306 22.137757583145145  19.823989656201306 26.45469102853624  C 19.823989656201306 26.45469102853624  19.823989656201306 46.99092588790803  19.823989656201306 46.99092588790803  L 28.015482544839706 46.99092588790803  Z M 10.160527798958988 0  C 10.160527798958988 0  10.160527798958988 14.240361322110449  10.160527798958988 14.240361322110449  C 12.216985466206529 12.717630531782486  14.591448094584527 11.948265243276534  17.05214998508106 11.948265243276534  C 20.890563299108695 11.94830968616019  23.917691156694463 13.33807603354034  25.971455093989327 15.766783001437076  C 28.008423592167453 18.175755026560253  28.999935802082046 21.500975239298914  29 25.226852802299323  C 29 25.226852802299323  29 48  29 48  L 18.83947220104101 48  C 18.83947220104101 48  18.83947220104101 26.45469102853624  18.83947220104101 26.45469102853624  C 18.83947220104101 24.45402541829193  18.225950968730704 23.266278801677018  17.45980174385837 22.566208170806817  C 16.67130143788735 21.845748574952523  15.590402918880335 21.521689829031462  14.468753108112589 21.52165879696161  C 13.357285530842319 21.52165879696161  12.292807122074878 21.855804482203347  11.517123628286312 22.581974953808253  C 10.76036519529696 23.290566338085096  10.160527798958988 24.483260102840795  10.160527798958988 26.45469102853624  C 10.160527798958988 26.45469102853624  10.160527798958988 48  10.160527798958988 48  L 0 48  L 0 0  L 10.160527798958988 0  Z " fill-rule="nonzero" fill="rgba(127, 140, 159, 0.058823529411764705)" stroke="none" transform="matrix(1 0 0 1 529 311 )" class="fill" />
    <path d="M 28.015482544839706 46.99092588790803  C 28.015482544839706 46.99092588790803  28.015482544839706 25.226852802299323  28.015482544839706 25.226852802299323  C 28.015356170403145 18.234015089304044  24.35196802775234 13.118252651815272  17.385770646155887 12.960295627181278  C 17.385770646155887 12.960295627181278  17.05214998508106 12.957339355368507  17.05214998508106 12.957339355368507  C 14.153868611080318 12.957339355368507  11.381278047478492 14.119085371330321  9.176010343798692 16.44376924656128  C 9.176010343798692 16.44376924656128  9.176010343798692 1.0090741120919728  9.176010343798692 1.0090741120919728  L 1 1.0090741120919728  L 1 46.99092588790803  L 9.176010343798692 46.99092588790803  C 9.176010343798692 46.99092588790803  9.176010343798692 26.45469102853624  9.176010343798692 26.45469102853624  C 9.176010343798692 22.063201216382673  11.885379703869393 20.512584684869637  14.468753108112589 20.512584684869637  C 14.468753108112589 20.512584684869637  14.711036700593443 20.517511804557586  14.711036700593443 20.517511804557586  C 17.22238545569075 20.608777148678083  19.823989656201306 22.137757583145145  19.823989656201306 26.45469102853624  C 19.823989656201306 26.45469102853624  19.823989656201306 46.99092588790803  19.823989656201306 46.99092588790803  L 28.015482544839706 46.99092588790803  Z " stroke-width="0" stroke-dasharray="0" stroke="rgba(121, 121, 121, 1)" fill="none" transform="matrix(1 0 0 1 529 311 )" class="stroke" mask="url(#Clip4910)" />
    <path d="M 10.160527798958988 0  C 10.160527798958988 0  10.160527798958988 14.240361322110449  10.160527798958988 14.240361322110449  C 12.216985466206529 12.717630531782486  14.591448094584527 11.948265243276534  17.05214998508106 11.948265243276534  C 20.890563299108695 11.94830968616019  23.917691156694463 13.33807603354034  25.971455093989327 15.766783001437076  C 28.008423592167453 18.175755026560253  28.999935802082046 21.500975239298914  29 25.226852802299323  C 29 25.226852802299323  29 48  29 48  L 18.83947220104101 48  C 18.83947220104101 48  18.83947220104101 26.45469102853624  18.83947220104101 26.45469102853624  C 18.83947220104101 24.45402541829193  18.225950968730704 23.266278801677018  17.45980174385837 22.566208170806817  C 16.67130143788735 21.845748574952523  15.590402918880335 21.521689829031462  14.468753108112589 21.52165879696161  C 13.357285530842319 21.52165879696161  12.292807122074878 21.855804482203347  11.517123628286312 22.581974953808253  C 10.76036519529696 23.290566338085096  10.160527798958988 24.483260102840795  10.160527798958988 26.45469102853624  C 10.160527798958988 26.45469102853624  10.160527798958988 48  10.160527798958988 48  L 0 48  L 0 0  L 10.160527798958988 0  Z " stroke-width="0" stroke-dasharray="0" stroke="rgba(121, 121, 121, 1)" fill="none" transform="matrix(1 0 0 1 529 311 )" class="stroke" mask="url(#Clip4910)" />
  </g>
  <style>svg { filter: drop-shadow(0px 4px 2px rgba(0, 0, 0, 0.12941176470588237)); }</style>
</svg>