<?xml version="1.0" encoding="utf-8"?>
<svg version="1.1" xmlns:xlink="http://www.w3.org/1999/xlink" width="38px" height="44px" xmlns="http://www.w3.org/2000/svg">
  <defs>
    <pattern id="BGPattern" patternUnits="userSpaceOnUse" alignment="0 0" imageRepeat="None" />
    <mask fill="white" id="Clip4908">
      <path d="M 28.990304026294165 34.99237392373924  C 28.990304026294165 34.99237392373924  28.990304026294165 13.518327183271833  28.990304026294165 13.518327183271833  C 28.990304026294165 9.95748673892989  28.323287364549095 6.880470912130996  25.81429745275267 4.229274292742928  C 25.81429745275267 4.229274292742928  25.565817584223502 3.9734317343173435  25.565817584223502 3.9734317343173435  C 23.808927201558646 2.220141211177737  21.313469581321897 1.1476890122905137  18.239605587510272 1.0204182041820418  C 18.239605587510272 1.0204182041820418  17.617419884963024 1.0076260762607625  17.617419884963024 1.0076260762607625  C 14.515698583222063 1.0076260762607625  11.413524708555874 2.1675810078413287  9.216433853738703 4.489052890528906  C 9.216433853738703 4.489052890528906  9.216433853738703 1.3943419434194344  9.216433853738703 1.3943419434194344  L 1 1.3943419434194344  L 1 34.99237392373924  L 9.410682004930157 34.99237392373924  C 9.410682004930157 34.99237392373924  9.410682004930157 14.678474784747847  9.410682004930157 14.678474784747847  C 9.410749381704711 10.100194591789668  12.382742848705833 8.552199008324049  15.032046014790467 8.552029520295203  C 17.681458713152217 8.552029520295203  20.590238117094202 10.099943784594096  20.590304026294167 14.678474784747847  C 20.590304026294167 14.678474784747847  20.590304026294167 34.99237392373924  20.590304026294167 34.99237392373924  L 28.990304026294165 34.99237392373924  Z M 10.226129827444536 1  C 10.226129827444536 1  10.226129827444536 2.2888068880688808  10.226129827444536 2.2888068880688808  C 12.39628344546015 0.7560725851399139  15.016932245660437 0  17.617419884963024 0  C 21.20330490576212 2.5656223663691375E-05  24.188539473346342 1.174128661208487  26.279704190632703 3.2610086100861007  C 29.25632903977506 6.231534200107626  30 9.700259215482781  30 13.518327183271833  C 30 13.518327183271833  30 36  30 36  L 19.58060805258833 36  C 19.58060805258833 36  19.58060805258833 14.678474784747847  19.58060805258833 14.678474784747847  C 19.58057552687365 12.614186221940345  18.93342100596369 11.375851279020603  18.12621199671323 10.644034440344402  C 17.29833195983335 9.893532225361316  16.173065050136092 9.559655596555967  15.032046014790467 9.559655596555967  C 13.89027674352917 9.559740586129795  12.746680630360261 9.89436969076722  11.90139687756779 10.648954489544895  C 11.078905527809162 11.3833591587869  10.420411195994745 12.621185760685732  10.42037797863599 14.678474784747847  C 10.42037797863599 14.678474784747847  10.42037797863599 36  10.42037797863599 36  L 0 36  L 0 1  L 10.226129827444536 1  Z " fill-rule="evenodd" />
    </mask>
  </defs>
  <g transform="matrix(1 0 0 1 -596 -323 )">
    <path d="M 28.990304026294165 34.99237392373924  C 28.990304026294165 34.99237392373924  28.990304026294165 13.518327183271833  28.990304026294165 13.518327183271833  C 28.990304026294165 9.95748673892989  28.323287364549095 6.880470912130996  25.81429745275267 4.229274292742928  C 25.81429745275267 4.229274292742928  25.565817584223502 3.9734317343173435  25.565817584223502 3.9734317343173435  C 23.808927201558646 2.220141211177737  21.313469581321897 1.1476890122905137  18.239605587510272 1.0204182041820418  C 18.239605587510272 1.0204182041820418  17.617419884963024 1.0076260762607625  17.617419884963024 1.0076260762607625  C 14.515698583222063 1.0076260762607625  11.413524708555874 2.1675810078413287  9.216433853738703 4.489052890528906  C 9.216433853738703 4.489052890528906  9.216433853738703 1.3943419434194344  9.216433853738703 1.3943419434194344  L 1 1.3943419434194344  L 1 34.99237392373924  L 9.410682004930157 34.99237392373924  C 9.410682004930157 34.99237392373924  9.410682004930157 14.678474784747847  9.410682004930157 14.678474784747847  C 9.410749381704711 10.100194591789668  12.382742848705833 8.552199008324049  15.032046014790467 8.552029520295203  C 17.681458713152217 8.552029520295203  20.590238117094202 10.099943784594096  20.590304026294167 14.678474784747847  C 20.590304026294167 14.678474784747847  20.590304026294167 34.99237392373924  20.590304026294167 34.99237392373924  L 28.990304026294165 34.99237392373924  Z M 10.226129827444536 1  C 10.226129827444536 1  10.226129827444536 2.2888068880688808  10.226129827444536 2.2888068880688808  C 12.39628344546015 0.7560725851399139  15.016932245660437 0  17.617419884963024 0  C 21.20330490576212 2.5656223663691375E-05  24.188539473346342 1.174128661208487  26.279704190632703 3.2610086100861007  C 29.25632903977506 6.231534200107626  30 9.700259215482781  30 13.518327183271833  C 30 13.518327183271833  30 36  30 36  L 19.58060805258833 36  C 19.58060805258833 36  19.58060805258833 14.678474784747847  19.58060805258833 14.678474784747847  C 19.58057552687365 12.614186221940345  18.93342100596369 11.375851279020603  18.12621199671323 10.644034440344402  C 17.29833195983335 9.893532225361316  16.173065050136092 9.559655596555967  15.032046014790467 9.559655596555967  C 13.89027674352917 9.559740586129795  12.746680630360261 9.89436969076722  11.90139687756779 10.648954489544895  C 11.078905527809162 11.3833591587869  10.420411195994745 12.621185760685732  10.42037797863599 14.678474784747847  C 10.42037797863599 14.678474784747847  10.42037797863599 36  10.42037797863599 36  L 0 36  L 0 1  L 10.226129827444536 1  Z " fill-rule="nonzero" fill="rgba(127, 140, 159, 0.058823529411764705)" stroke="none" transform="matrix(1 0 0 1 600 323 )" class="fill" />
    <path d="M 28.990304026294165 34.99237392373924  C 28.990304026294165 34.99237392373924  28.990304026294165 13.518327183271833  28.990304026294165 13.518327183271833  C 28.990304026294165 9.95748673892989  28.323287364549095 6.880470912130996  25.81429745275267 4.229274292742928  C 25.81429745275267 4.229274292742928  25.565817584223502 3.9734317343173435  25.565817584223502 3.9734317343173435  C 23.808927201558646 2.220141211177737  21.313469581321897 1.1476890122905137  18.239605587510272 1.0204182041820418  C 18.239605587510272 1.0204182041820418  17.617419884963024 1.0076260762607625  17.617419884963024 1.0076260762607625  C 14.515698583222063 1.0076260762607625  11.413524708555874 2.1675810078413287  9.216433853738703 4.489052890528906  C 9.216433853738703 4.489052890528906  9.216433853738703 1.3943419434194344  9.216433853738703 1.3943419434194344  L 1 1.3943419434194344  L 1 34.99237392373924  L 9.410682004930157 34.99237392373924  C 9.410682004930157 34.99237392373924  9.410682004930157 14.678474784747847  9.410682004930157 14.678474784747847  C 9.410749381704711 10.100194591789668  12.382742848705833 8.552199008324049  15.032046014790467 8.552029520295203  C 17.681458713152217 8.552029520295203  20.590238117094202 10.099943784594096  20.590304026294167 14.678474784747847  C 20.590304026294167 14.678474784747847  20.590304026294167 34.99237392373924  20.590304026294167 34.99237392373924  L 28.990304026294165 34.99237392373924  Z " stroke-width="0" stroke-dasharray="0" stroke="rgba(121, 121, 121, 1)" fill="none" transform="matrix(1 0 0 1 600 323 )" class="stroke" mask="url(#Clip4908)" />
    <path d="M 10.226129827444536 1  C 10.226129827444536 1  10.226129827444536 2.2888068880688808  10.226129827444536 2.2888068880688808  C 12.39628344546015 0.7560725851399139  15.016932245660437 0  17.617419884963024 0  C 21.20330490576212 2.5656223663691375E-05  24.188539473346342 1.174128661208487  26.279704190632703 3.2610086100861007  C 29.25632903977506 6.231534200107626  30 9.700259215482781  30 13.518327183271833  C 30 13.518327183271833  30 36  30 36  L 19.58060805258833 36  C 19.58060805258833 36  19.58060805258833 14.678474784747847  19.58060805258833 14.678474784747847  C 19.58057552687365 12.614186221940345  18.93342100596369 11.375851279020603  18.12621199671323 10.644034440344402  C 17.29833195983335 9.893532225361316  16.173065050136092 9.559655596555967  15.032046014790467 9.559655596555967  C 13.89027674352917 9.559740586129795  12.746680630360261 9.89436969076722  11.90139687756779 10.648954489544895  C 11.078905527809162 11.3833591587869  10.420411195994745 12.621185760685732  10.42037797863599 14.678474784747847  C 10.42037797863599 14.678474784747847  10.42037797863599 36  10.42037797863599 36  L 0 36  L 0 1  L 10.226129827444536 1  Z " stroke-width="0" stroke-dasharray="0" stroke="rgba(121, 121, 121, 1)" fill="none" transform="matrix(1 0 0 1 600 323 )" class="stroke" mask="url(#Clip4908)" />
  </g>
  <style>svg { filter: drop-shadow(0px 4px 2px rgba(0, 0, 0, 0.12941176470588237)); }</style>
</svg>