<?xml version="1.0" encoding="utf-8"?>
<svg version="1.1" xmlns:xlink="http://www.w3.org/1999/xlink" width="23px" height="22px" xmlns="http://www.w3.org/2000/svg">
  <defs>
    <pattern id="BGPattern" patternUnits="userSpaceOnUse" alignment="0 0" imageRepeat="None" />
    <mask fill="white" id="Clip4935">
      <path d="M 15.333338524319885 18.321391294263183  L 15.333338524319885 10.940284742318143  L 16.802989872836626 10.940284742318143  L 16.802989872836626 18.321391294263183  L 15.333338524319885 18.321391294263183  Z M 9.33228294848939 6.3778537741059  L 9.33228294848939 5.159613919017429  L 22.48562514261107 5.159613919017429  L 22.48562514261107 6.3778537741059  L 9.33228294848939 6.3778537741059  Z M 9.234297886343123 11.489689412180521  L 9.234297886343123 10.247560416620646  L 22.63260273583047 10.247560416620646  L 22.63260273583047 11.489689412180521  L 9.234297886343123 11.489689412180521  Z M 12.44302835835953 9.339849013673817  L 12.44302835835953 3.4397476750093885  L 14.01066476902254 3.4397476750093885  L 14.01066476902254 8.169387439528155  L 18.174656159207107 8.169387439528155  L 18.174656159207107 3.4397476750093885  L 19.79128510094325 3.4397476750093885  L 19.79128510094325 9.339849013673817  L 12.44302835835953 9.339849013673817  Z M 20.1097054069993 16.267107457642094  L 12.173600583376611 16.267107457642094  L 12.173600583376611 17.70031920298659  L 20.1097054069993 17.70031920298659  L 20.1097054069993 16.267107457642094  Z M 20.1097054069993 13.854501700943251  L 12.173600583376611 13.854501700943251  L 12.173600583376611 15.239950352338244  L 20.1097054069993 15.239950352338244  L 20.1097054069993 13.854501700943251  Z M 10.703949234859866 18.775239402239944  L 10.703949234859866 12.7557075482118  L 21.628333713629523 12.7557075482118  L 21.628333713629523 18.775239402239944  L 10.703949234859866 18.775239402239944  Z M 19.521841753000672 20.78176014491153  C 18.78701705205228 20.367717502336728  18.04402238714513 19.977567085091344  17.29286846468899 19.611298570765868  C 17.29286846468899 19.611298570765868  18.54206899633629 18.775239402239944  18.54206899633629 18.775239402239944  C 19.06461089775404 19.01411016213496  19.603482020679536 19.26891098051112  20.158682365112778 19.539631149351653  C 20.713883682856 19.810351347854287  21.23643629068351 20.081065791910234  21.726318775775788 20.351785990412864  C 22.232531455685788 20.622506188915498  22.657082455097402 20.885271398797155  23 21.14006687799598  C 23 21.14006687799598  21.309913407573468 21.952221719057192  21.309913407573468 21.952221719057192  C 20.852689365496687 21.601877953697617  20.256665480639086 21.211727536452237  19.521841753000672 20.78176014491153  Z M 14.647505381134646 2.985884380039321  L 14.647505381134646 0.02388914047140427  L 16.3621038120574 0.02388914047140427  L 16.3621038120574 2.985884380039321  L 14.647505381134646 2.985884380039321  Z M 8.499472212084752 4  L 8.499472212084752 2.2931600543418234  L 22.583610204757335 2.2931600543418234  L 22.583610204757335 4  L 8.499472212084752 4  Z M 8.156555640492133 8.838222624754247  C 8.156555640492133 8.838222624754247  8.156555640492133 2.2931600543418234  8.156555640492133 2.2931600543418234  L 9.724176478195487 2.2931600543418234  C 9.724176478195487 2.2931600543418234  9.724176478195487 8.838222624754247  9.724176478195487 8.838222624754247  C 9.724176478195487 9.793705664334313  9.691524848349841 10.84473624852272  9.626206989008875 11.991315801100091  C 9.56088912966791 13.121970842008329  9.438417535084863 14.276508141781628  9.258794151879691 15.454937429587575  C 9.095499503527275 16.633366480096754  8.84239024364234 17.787919322808516  8.499472212084752 18.91857424506837  C 8.156554180527166 20.03330441836232  7.707503022339072 21.060441709385838  7.15230219125084 22  C 7.054325888894381 21.920376492467252  6.923687736937502 21.8327830169549  6.760393088585089 21.73723464180786  C 6.5970989268876625 21.641686385309207  6.425642101056321 21.546143645960466  6.246018231196159 21.450595330137624  C 6.066394847990987 21.355047014314774  5.91125605060264 21.283382381137617  5.780620331920708 21.23560825288829  C 6.3194914548462044 20.32789934155755  6.744057540562482 19.348533449870498  7.054317129104574 18.29750215379178  C 7.380905452499427 17.230546108747156  7.617681597636702 16.147673145530053  7.76464653782638 15.048867602553624  C 7.9279406995238055 13.934137547908062  8.034078206049216 12.85124939769765  8.083066843882435 11.800217864322164  C 8.132054995060663 10.73326181927754  8.156555640492133 9.745931654733372  8.156555640492133 8.838222624754247  Z M 12.075615521230347 19.56352028982306  C 12.58182722783037 19.292800091320427  12.99007528510365 19.037999302606362  13.300335360300734 18.799128542711347  C 13.300335360300734 18.799128542711347  14.769971135857825 19.587409430294464  14.769971135857825 19.587409430294464  C 14.345405536796536 19.905903786708517  13.855535704733976 20.20847591543485  13.300335360300734 20.49512083324129  C 12.761463264065261 20.79769044068944  12.198091982363284 21.068404914407488  11.61023319491455 21.307275674302502  C 11.038702655663581 21.56207118316342  10.483498417990424 21.769085444871905  9.94462729506493 21.92833257858579  C 9.813991576382996 21.78501019383781  9.634368193177824 21.609838429806405  9.405756172139434 21.402817049194812  C 9.19347385926378 21.195795727907413  8.997516388000966 21.020623963876012  8.817892518140805 20.87730151980384  C 9.373093349229038 20.718054326765763  9.928298073557182 20.519004501055928  10.483498417990424 20.28013375599196  C 11.055028470586404 20.05718771540075  11.58573206282809 19.818315769021883  12.075615521230347 19.56352028982306  Z M 0.4653978992754511 14.069488778192582  C 0.4653978992754511 14.069488778192582  0 12.349622534184542  0 12.349622534184542  C 0.9307777314844281 12.078902513654487  2.065671583461923 11.744487768602687  3.4046850233492836 11.346369756345403  C 4.743698463236643 10.948251744088118  6.090883083720231 10.534208270974618  7.446226231770328 10.104240760785526  C 7.446226231770328 10.104240760785526  7.6911733141763365 11.752439583379356  7.6911733141763365 11.752439583379356  C 6.45013641997293 12.166482107305772  5.192771277571756 12.58052558041927  3.919075453697867 12.99456857893923  C 2.6453797514877255 13.392686116602974  1.4941521156119597 13.750994273468045  0.4653978992754511 14.069488778192582  Z M 0.3674128371291858 6.497284289469615  L 0.3674128371291858 4.825196326404383  L 7.299264211510584 4.825196326404383  L 7.299264211510584 6.497284289469615  L 0.3674128371291858 6.497284289469615  Z M 3.3557080652358056 19.92182702290751  C 3.3557080652358056 19.92182702290751  3.3557080652358056 0  3.3557080652358056 0  L 5.045794657662336 0  C 5.045794657662336 0  5.045794657662336 19.92182702290751  5.045794657662336 19.92182702290751  C 5.045794657662336 20.39956854269754  4.980475581683897 20.765840853771344  4.84984010632946 21.020636362632263  C 4.719204630975023 21.291356561134897  4.506929131269216 21.50633527367307  4.212999494217353 21.665582407386953  C 3.919069613837997 21.792980161817415  3.527155157967363 21.880558450336462  3.0372721862200973 21.92833257858579  C 2.547389214472832 21.97610670683511  1.9187144297520715 21.992035489846113  1.1512310424606902 21.976110859528596  C 1.1185722344539544 21.769089478917  1.0532531584755156 21.506339485690745  0.9552764911278141 21.18784515893879  C 0.8572999454438598 20.869350802524735  0.7511621955909566 20.590656750307883  0.6368561850717609 20.351785990412864  C 1.1593979648257624 20.367710709716672  1.632949646781577 20.37567513088427  2.0575150025153714 20.37567513088427  C 2.4984097014206603 20.37567513088427  2.7923380001713025 20.367710709716672  2.9393026970334866 20.351785990412864  C 3.086267637223165 20.351785990412864  3.192405143748574 20.319943477904737  3.2577230030895397 20.256244615520554  C 3.323040619103011 20.208470465024657  3.3557080652358056 20.096998905587295  3.3557080652358056 19.92182702290751  Z " fill-rule="evenodd" />
    </mask>
  </defs>
  <g transform="matrix(1 0 0 1 -374 -643 )">
    <path d="M 15.333338524319885 18.321391294263183  L 15.333338524319885 10.940284742318143  L 16.802989872836626 10.940284742318143  L 16.802989872836626 18.321391294263183  L 15.333338524319885 18.321391294263183  Z M 9.33228294848939 6.3778537741059  L 9.33228294848939 5.159613919017429  L 22.48562514261107 5.159613919017429  L 22.48562514261107 6.3778537741059  L 9.33228294848939 6.3778537741059  Z M 9.234297886343123 11.489689412180521  L 9.234297886343123 10.247560416620646  L 22.63260273583047 10.247560416620646  L 22.63260273583047 11.489689412180521  L 9.234297886343123 11.489689412180521  Z M 12.44302835835953 9.339849013673817  L 12.44302835835953 3.4397476750093885  L 14.01066476902254 3.4397476750093885  L 14.01066476902254 8.169387439528155  L 18.174656159207107 8.169387439528155  L 18.174656159207107 3.4397476750093885  L 19.79128510094325 3.4397476750093885  L 19.79128510094325 9.339849013673817  L 12.44302835835953 9.339849013673817  Z M 20.1097054069993 16.267107457642094  L 12.173600583376611 16.267107457642094  L 12.173600583376611 17.70031920298659  L 20.1097054069993 17.70031920298659  L 20.1097054069993 16.267107457642094  Z M 20.1097054069993 13.854501700943251  L 12.173600583376611 13.854501700943251  L 12.173600583376611 15.239950352338244  L 20.1097054069993 15.239950352338244  L 20.1097054069993 13.854501700943251  Z M 10.703949234859866 18.775239402239944  L 10.703949234859866 12.7557075482118  L 21.628333713629523 12.7557075482118  L 21.628333713629523 18.775239402239944  L 10.703949234859866 18.775239402239944  Z M 19.521841753000672 20.78176014491153  C 18.78701705205228 20.367717502336728  18.04402238714513 19.977567085091344  17.29286846468899 19.611298570765868  C 17.29286846468899 19.611298570765868  18.54206899633629 18.775239402239944  18.54206899633629 18.775239402239944  C 19.06461089775404 19.01411016213496  19.603482020679536 19.26891098051112  20.158682365112778 19.539631149351653  C 20.713883682856 19.810351347854287  21.23643629068351 20.081065791910234  21.726318775775788 20.351785990412864  C 22.232531455685788 20.622506188915498  22.657082455097402 20.885271398797155  23 21.14006687799598  C 23 21.14006687799598  21.309913407573468 21.952221719057192  21.309913407573468 21.952221719057192  C 20.852689365496687 21.601877953697617  20.256665480639086 21.211727536452237  19.521841753000672 20.78176014491153  Z M 14.647505381134646 2.985884380039321  L 14.647505381134646 0.02388914047140427  L 16.3621038120574 0.02388914047140427  L 16.3621038120574 2.985884380039321  L 14.647505381134646 2.985884380039321  Z M 8.499472212084752 4  L 8.499472212084752 2.2931600543418234  L 22.583610204757335 2.2931600543418234  L 22.583610204757335 4  L 8.499472212084752 4  Z M 8.156555640492133 8.838222624754247  C 8.156555640492133 8.838222624754247  8.156555640492133 2.2931600543418234  8.156555640492133 2.2931600543418234  L 9.724176478195487 2.2931600543418234  C 9.724176478195487 2.2931600543418234  9.724176478195487 8.838222624754247  9.724176478195487 8.838222624754247  C 9.724176478195487 9.793705664334313  9.691524848349841 10.84473624852272  9.626206989008875 11.991315801100091  C 9.56088912966791 13.121970842008329  9.438417535084863 14.276508141781628  9.258794151879691 15.454937429587575  C 9.095499503527275 16.633366480096754  8.84239024364234 17.787919322808516  8.499472212084752 18.91857424506837  C 8.156554180527166 20.03330441836232  7.707503022339072 21.060441709385838  7.15230219125084 22  C 7.054325888894381 21.920376492467252  6.923687736937502 21.8327830169549  6.760393088585089 21.73723464180786  C 6.5970989268876625 21.641686385309207  6.425642101056321 21.546143645960466  6.246018231196159 21.450595330137624  C 6.066394847990987 21.355047014314774  5.91125605060264 21.283382381137617  5.780620331920708 21.23560825288829  C 6.3194914548462044 20.32789934155755  6.744057540562482 19.348533449870498  7.054317129104574 18.29750215379178  C 7.380905452499427 17.230546108747156  7.617681597636702 16.147673145530053  7.76464653782638 15.048867602553624  C 7.9279406995238055 13.934137547908062  8.034078206049216 12.85124939769765  8.083066843882435 11.800217864322164  C 8.132054995060663 10.73326181927754  8.156555640492133 9.745931654733372  8.156555640492133 8.838222624754247  Z M 12.075615521230347 19.56352028982306  C 12.58182722783037 19.292800091320427  12.99007528510365 19.037999302606362  13.300335360300734 18.799128542711347  C 13.300335360300734 18.799128542711347  14.769971135857825 19.587409430294464  14.769971135857825 19.587409430294464  C 14.345405536796536 19.905903786708517  13.855535704733976 20.20847591543485  13.300335360300734 20.49512083324129  C 12.761463264065261 20.79769044068944  12.198091982363284 21.068404914407488  11.61023319491455 21.307275674302502  C 11.038702655663581 21.56207118316342  10.483498417990424 21.769085444871905  9.94462729506493 21.92833257858579  C 9.813991576382996 21.78501019383781  9.634368193177824 21.609838429806405  9.405756172139434 21.402817049194812  C 9.19347385926378 21.195795727907413  8.997516388000966 21.020623963876012  8.817892518140805 20.87730151980384  C 9.373093349229038 20.718054326765763  9.928298073557182 20.519004501055928  10.483498417990424 20.28013375599196  C 11.055028470586404 20.05718771540075  11.58573206282809 19.818315769021883  12.075615521230347 19.56352028982306  Z M 0.4653978992754511 14.069488778192582  C 0.4653978992754511 14.069488778192582  0 12.349622534184542  0 12.349622534184542  C 0.9307777314844281 12.078902513654487  2.065671583461923 11.744487768602687  3.4046850233492836 11.346369756345403  C 4.743698463236643 10.948251744088118  6.090883083720231 10.534208270974618  7.446226231770328 10.104240760785526  C 7.446226231770328 10.104240760785526  7.6911733141763365 11.752439583379356  7.6911733141763365 11.752439583379356  C 6.45013641997293 12.166482107305772  5.192771277571756 12.58052558041927  3.919075453697867 12.99456857893923  C 2.6453797514877255 13.392686116602974  1.4941521156119597 13.750994273468045  0.4653978992754511 14.069488778192582  Z M 0.3674128371291858 6.497284289469615  L 0.3674128371291858 4.825196326404383  L 7.299264211510584 4.825196326404383  L 7.299264211510584 6.497284289469615  L 0.3674128371291858 6.497284289469615  Z M 3.3557080652358056 19.92182702290751  C 3.3557080652358056 19.92182702290751  3.3557080652358056 0  3.3557080652358056 0  L 5.045794657662336 0  C 5.045794657662336 0  5.045794657662336 19.92182702290751  5.045794657662336 19.92182702290751  C 5.045794657662336 20.39956854269754  4.980475581683897 20.765840853771344  4.84984010632946 21.020636362632263  C 4.719204630975023 21.291356561134897  4.506929131269216 21.50633527367307  4.212999494217353 21.665582407386953  C 3.919069613837997 21.792980161817415  3.527155157967363 21.880558450336462  3.0372721862200973 21.92833257858579  C 2.547389214472832 21.97610670683511  1.9187144297520715 21.992035489846113  1.1512310424606902 21.976110859528596  C 1.1185722344539544 21.769089478917  1.0532531584755156 21.506339485690745  0.9552764911278141 21.18784515893879  C 0.8572999454438598 20.869350802524735  0.7511621955909566 20.590656750307883  0.6368561850717609 20.351785990412864  C 1.1593979648257624 20.367710709716672  1.632949646781577 20.37567513088427  2.0575150025153714 20.37567513088427  C 2.4984097014206603 20.37567513088427  2.7923380001713025 20.367710709716672  2.9393026970334866 20.351785990412864  C 3.086267637223165 20.351785990412864  3.192405143748574 20.319943477904737  3.2577230030895397 20.256244615520554  C 3.323040619103011 20.208470465024657  3.3557080652358056 20.096998905587295  3.3557080652358056 19.92182702290751  Z " fill-rule="nonzero" fill="rgba(0, 0, 0, 1)" stroke="none" transform="matrix(1 0 0 1 374 643 )" class="fill" />
    <path d="M 15.333338524319885 18.321391294263183  L 15.333338524319885 10.940284742318143  L 16.802989872836626 10.940284742318143  L 16.802989872836626 18.321391294263183  L 15.333338524319885 18.321391294263183  Z " stroke-width="0" stroke-dasharray="0" stroke="rgba(121, 121, 121, 1)" fill="none" transform="matrix(1 0 0 1 374 643 )" class="stroke" mask="url(#Clip4935)" />
    <path d="M 9.33228294848939 6.3778537741059  L 9.33228294848939 5.159613919017429  L 22.48562514261107 5.159613919017429  L 22.48562514261107 6.3778537741059  L 9.33228294848939 6.3778537741059  Z " stroke-width="0" stroke-dasharray="0" stroke="rgba(121, 121, 121, 1)" fill="none" transform="matrix(1 0 0 1 374 643 )" class="stroke" mask="url(#Clip4935)" />
    <path d="M 9.234297886343123 11.489689412180521  L 9.234297886343123 10.247560416620646  L 22.63260273583047 10.247560416620646  L 22.63260273583047 11.489689412180521  L 9.234297886343123 11.489689412180521  Z " stroke-width="0" stroke-dasharray="0" stroke="rgba(121, 121, 121, 1)" fill="none" transform="matrix(1 0 0 1 374 643 )" class="stroke" mask="url(#Clip4935)" />
    <path d="M 12.44302835835953 9.339849013673817  L 12.44302835835953 3.4397476750093885  L 14.01066476902254 3.4397476750093885  L 14.01066476902254 8.169387439528155  L 18.174656159207107 8.169387439528155  L 18.174656159207107 3.4397476750093885  L 19.79128510094325 3.4397476750093885  L 19.79128510094325 9.339849013673817  L 12.44302835835953 9.339849013673817  Z " stroke-width="0" stroke-dasharray="0" stroke="rgba(121, 121, 121, 1)" fill="none" transform="matrix(1 0 0 1 374 643 )" class="stroke" mask="url(#Clip4935)" />
    <path d="M 20.1097054069993 16.267107457642094  L 12.173600583376611 16.267107457642094  L 12.173600583376611 17.70031920298659  L 20.1097054069993 17.70031920298659  L 20.1097054069993 16.267107457642094  Z " stroke-width="0" stroke-dasharray="0" stroke="rgba(121, 121, 121, 1)" fill="none" transform="matrix(1 0 0 1 374 643 )" class="stroke" mask="url(#Clip4935)" />
    <path d="M 20.1097054069993 13.854501700943251  L 12.173600583376611 13.854501700943251  L 12.173600583376611 15.239950352338244  L 20.1097054069993 15.239950352338244  L 20.1097054069993 13.854501700943251  Z " stroke-width="0" stroke-dasharray="0" stroke="rgba(121, 121, 121, 1)" fill="none" transform="matrix(1 0 0 1 374 643 )" class="stroke" mask="url(#Clip4935)" />
    <path d="M 10.703949234859866 18.775239402239944  L 10.703949234859866 12.7557075482118  L 21.628333713629523 12.7557075482118  L 21.628333713629523 18.775239402239944  L 10.703949234859866 18.775239402239944  Z " stroke-width="0" stroke-dasharray="0" stroke="rgba(121, 121, 121, 1)" fill="none" transform="matrix(1 0 0 1 374 643 )" class="stroke" mask="url(#Clip4935)" />
    <path d="M 19.521841753000672 20.78176014491153  C 18.78701705205228 20.367717502336728  18.04402238714513 19.977567085091344  17.29286846468899 19.611298570765868  C 17.29286846468899 19.611298570765868  18.54206899633629 18.775239402239944  18.54206899633629 18.775239402239944  C 19.06461089775404 19.01411016213496  19.603482020679536 19.26891098051112  20.158682365112778 19.539631149351653  C 20.713883682856 19.810351347854287  21.23643629068351 20.081065791910234  21.726318775775788 20.351785990412864  C 22.232531455685788 20.622506188915498  22.657082455097402 20.885271398797155  23 21.14006687799598  C 23 21.14006687799598  21.309913407573468 21.952221719057192  21.309913407573468 21.952221719057192  C 20.852689365496687 21.601877953697617  20.256665480639086 21.211727536452237  19.521841753000672 20.78176014491153  Z " stroke-width="0" stroke-dasharray="0" stroke="rgba(121, 121, 121, 1)" fill="none" transform="matrix(1 0 0 1 374 643 )" class="stroke" mask="url(#Clip4935)" />
    <path d="M 14.647505381134646 2.985884380039321  L 14.647505381134646 0.02388914047140427  L 16.3621038120574 0.02388914047140427  L 16.3621038120574 2.985884380039321  L 14.647505381134646 2.985884380039321  Z " stroke-width="0" stroke-dasharray="0" stroke="rgba(121, 121, 121, 1)" fill="none" transform="matrix(1 0 0 1 374 643 )" class="stroke" mask="url(#Clip4935)" />
    <path d="M 8.499472212084752 4  L 8.499472212084752 2.2931600543418234  L 22.583610204757335 2.2931600543418234  L 22.583610204757335 4  L 8.499472212084752 4  Z " stroke-width="0" stroke-dasharray="0" stroke="rgba(121, 121, 121, 1)" fill="none" transform="matrix(1 0 0 1 374 643 )" class="stroke" mask="url(#Clip4935)" />
    <path d="M 8.156555640492133 8.838222624754247  C 8.156555640492133 8.838222624754247  8.156555640492133 2.2931600543418234  8.156555640492133 2.2931600543418234  L 9.724176478195487 2.2931600543418234  C 9.724176478195487 2.2931600543418234  9.724176478195487 8.838222624754247  9.724176478195487 8.838222624754247  C 9.724176478195487 9.793705664334313  9.691524848349841 10.84473624852272  9.626206989008875 11.991315801100091  C 9.56088912966791 13.121970842008329  9.438417535084863 14.276508141781628  9.258794151879691 15.454937429587575  C 9.095499503527275 16.633366480096754  8.84239024364234 17.787919322808516  8.499472212084752 18.91857424506837  C 8.156554180527166 20.03330441836232  7.707503022339072 21.060441709385838  7.15230219125084 22  C 7.054325888894381 21.920376492467252  6.923687736937502 21.8327830169549  6.760393088585089 21.73723464180786  C 6.5970989268876625 21.641686385309207  6.425642101056321 21.546143645960466  6.246018231196159 21.450595330137624  C 6.066394847990987 21.355047014314774  5.91125605060264 21.283382381137617  5.780620331920708 21.23560825288829  C 6.3194914548462044 20.32789934155755  6.744057540562482 19.348533449870498  7.054317129104574 18.29750215379178  C 7.380905452499427 17.230546108747156  7.617681597636702 16.147673145530053  7.76464653782638 15.048867602553624  C 7.9279406995238055 13.934137547908062  8.034078206049216 12.85124939769765  8.083066843882435 11.800217864322164  C 8.132054995060663 10.73326181927754  8.156555640492133 9.745931654733372  8.156555640492133 8.838222624754247  Z " stroke-width="0" stroke-dasharray="0" stroke="rgba(121, 121, 121, 1)" fill="none" transform="matrix(1 0 0 1 374 643 )" class="stroke" mask="url(#Clip4935)" />
    <path d="M 12.075615521230347 19.56352028982306  C 12.58182722783037 19.292800091320427  12.99007528510365 19.037999302606362  13.300335360300734 18.799128542711347  C 13.300335360300734 18.799128542711347  14.769971135857825 19.587409430294464  14.769971135857825 19.587409430294464  C 14.345405536796536 19.905903786708517  13.855535704733976 20.20847591543485  13.300335360300734 20.49512083324129  C 12.761463264065261 20.79769044068944  12.198091982363284 21.068404914407488  11.61023319491455 21.307275674302502  C 11.038702655663581 21.56207118316342  10.483498417990424 21.769085444871905  9.94462729506493 21.92833257858579  C 9.813991576382996 21.78501019383781  9.634368193177824 21.609838429806405  9.405756172139434 21.402817049194812  C 9.19347385926378 21.195795727907413  8.997516388000966 21.020623963876012  8.817892518140805 20.87730151980384  C 9.373093349229038 20.718054326765763  9.928298073557182 20.519004501055928  10.483498417990424 20.28013375599196  C 11.055028470586404 20.05718771540075  11.58573206282809 19.818315769021883  12.075615521230347 19.56352028982306  Z " stroke-width="0" stroke-dasharray="0" stroke="rgba(121, 121, 121, 1)" fill="none" transform="matrix(1 0 0 1 374 643 )" class="stroke" mask="url(#Clip4935)" />
    <path d="M 0.4653978992754511 14.069488778192582  C 0.4653978992754511 14.069488778192582  0 12.349622534184542  0 12.349622534184542  C 0.9307777314844281 12.078902513654487  2.065671583461923 11.744487768602687  3.4046850233492836 11.346369756345403  C 4.743698463236643 10.948251744088118  6.090883083720231 10.534208270974618  7.446226231770328 10.104240760785526  C 7.446226231770328 10.104240760785526  7.6911733141763365 11.752439583379356  7.6911733141763365 11.752439583379356  C 6.45013641997293 12.166482107305772  5.192771277571756 12.58052558041927  3.919075453697867 12.99456857893923  C 2.6453797514877255 13.392686116602974  1.4941521156119597 13.750994273468045  0.4653978992754511 14.069488778192582  Z " stroke-width="0" stroke-dasharray="0" stroke="rgba(121, 121, 121, 1)" fill="none" transform="matrix(1 0 0 1 374 643 )" class="stroke" mask="url(#Clip4935)" />
    <path d="M 0.3674128371291858 6.497284289469615  L 0.3674128371291858 4.825196326404383  L 7.299264211510584 4.825196326404383  L 7.299264211510584 6.497284289469615  L 0.3674128371291858 6.497284289469615  Z " stroke-width="0" stroke-dasharray="0" stroke="rgba(121, 121, 121, 1)" fill="none" transform="matrix(1 0 0 1 374 643 )" class="stroke" mask="url(#Clip4935)" />
    <path d="M 3.3557080652358056 19.92182702290751  C 3.3557080652358056 19.92182702290751  3.3557080652358056 0  3.3557080652358056 0  L 5.045794657662336 0  C 5.045794657662336 0  5.045794657662336 19.92182702290751  5.045794657662336 19.92182702290751  C 5.045794657662336 20.39956854269754  4.980475581683897 20.765840853771344  4.84984010632946 21.020636362632263  C 4.719204630975023 21.291356561134897  4.506929131269216 21.50633527367307  4.212999494217353 21.665582407386953  C 3.919069613837997 21.792980161817415  3.527155157967363 21.880558450336462  3.0372721862200973 21.92833257858579  C 2.547389214472832 21.97610670683511  1.9187144297520715 21.992035489846113  1.1512310424606902 21.976110859528596  C 1.1185722344539544 21.769089478917  1.0532531584755156 21.506339485690745  0.9552764911278141 21.18784515893879  C 0.8572999454438598 20.869350802524735  0.7511621955909566 20.590656750307883  0.6368561850717609 20.351785990412864  C 1.1593979648257624 20.367710709716672  1.632949646781577 20.37567513088427  2.0575150025153714 20.37567513088427  C 2.4984097014206603 20.37567513088427  2.7923380001713025 20.367710709716672  2.9393026970334866 20.351785990412864  C 3.086267637223165 20.351785990412864  3.192405143748574 20.319943477904737  3.2577230030895397 20.256244615520554  C 3.323040619103011 20.208470465024657  3.3557080652358056 20.096998905587295  3.3557080652358056 19.92182702290751  Z " stroke-width="0" stroke-dasharray="0" stroke="rgba(121, 121, 121, 1)" fill="none" transform="matrix(1 0 0 1 374 643 )" class="stroke" mask="url(#Clip4935)" />
  </g>
</svg>