<?xml version="1.0" encoding="utf-8"?>
<svg version="1.1" xmlns:xlink="http://www.w3.org/1999/xlink" width="23px" height="22px" xmlns="http://www.w3.org/2000/svg">
  <defs>
    <pattern id="BGPattern" patternUnits="userSpaceOnUse" alignment="0 0" imageRepeat="None" />
    <mask fill="white" id="Clip4952">
      <path d="M 0.4639615561134958 11  L 0.4639615561134958 10  L 22.58490591506709 10  L 22.58490591506709 11  L 0.4639615561134958 11  Z M 5.420377419616101 0.7469911735519925  C 6.169137914743122 0.47389852196166504  6.779589825294943 0.22489954910255738  7.251634675089766 0  C 7.251634675089766 0  8.350314516346751 1.132535993454153  8.350314516346751 1.132535993454153  C 7.666663756040603 1.4056276875402587  6.909770001484841 1.6626610783238451  6.079622580383899 1.903625633258474  C 5.249475159282957 2.1445892306888807  4.468205639105991 2.3534180289340365  3.735722577684188 2.530124475548824  C 3.703167710273751 2.3694820772618863  3.638041239353014 2.18474121272262  3.540376879673875 1.9759057119479118  C 3.4589897111477823 1.7670702111732037  3.3694253812498314 1.5823293466339374  3.271761021570692 1.4216869483469994  C 3.9716894581342297 1.2289164534043628  4.68789460074647 1.0040197768144705  5.420377419616101 0.7469911735519925  Z M 3.0520126346480927 10.313254992078829  L 2.685786020895764 0.8915666509984158  C 2.685786020895764 0.8915666509984158  4.834402418941173 1.37350533590989  4.834402418941173 1.37350533590989  C 4.785570117825518 1.5341477341968282  4.622816155155774 1.6305281941470378  4.346100267271402 1.6626562908027367  C 4.346100267271402 1.6626562908027367  4.687924192111444 10.313254992078829  4.687924192111444 10.313254992078829  L 3.0520126346480927 10.313254992078829  Z M 3.540376879673875 5.108430563534757  L 3.540376879673875 3.8072359464494  L 7.764339515671823 3.8072359464494  L 7.764339515671823 5.108430563534757  L 3.540376879673875 5.108430563534757  Z M 15.040376879673875 5.108430563534757  L 15.040376879673875 3.8072359464494  L 19.28874220458411 3.8072359464494  L 19.28874220458411 5.108430563534757  L 15.040376879673875 5.108430563534757  Z M 15.015912097405577 7.975902926481085  L 15.015912097405577 6.698791455580508  L 19.239936826759536 6.698791455580508  L 19.239936826759536 7.975902926481085  L 15.015912097405577 7.975902926481085  Z M 14.967106719581004 2.192776588151321  L 14.967106719581004 0.8915666509984158  L 19.386415053589268 0.8915666509984158  L 19.386415053589268 2.192776588151321  L 14.967106719581004 2.192776588151321  Z M 3.662452417591318 7.975902926481085  L 3.662452417591318 6.698791455580508  L 7.764339515671823 6.698791455580508  L 7.764339515671823 7.975902926481085  L 3.662452417591318 7.975902926481085  Z M 9.888553224804946 2.987949374140422  L 10.010628762722389 1.7108532233073936  L 14.259056180988635 1.7108532233073936  L 14.259056180988635 2.987949374140422  L 9.888553224804946 2.987949374140422  Z M 9.326980913042304 5.759043192144984  L 9.449056450959748 4.481931721244408  L 13.038238708458195 4.481931721244408  L 13.038238708458195 5.759043192144984  L 9.326980913042304 5.759043192144984  Z M 9.156037903944277 2.168678121898992  C 9.204869962507761 1.4136582754478508  9.237433561796388 0.7148659494089588  9.253710752949434 0.07229539875698543  C 9.253710752949434 0.07229539875698543  10.79194946140763 0.16867394369875177  10.79194946140763 0.16867394369875177  C 10.759394593997193 0.8433725910064239  10.710580969398775 1.5501993349697951  10.645471234577899 2.289155133093087  C 10.580361499757027 3.0281109312163785  10.515234786284118 3.751005553524486  10.450125536567587 4.457833254992079  C 10.385015801746713 5.148595950627601  10.311764075618909 5.751008774220504  10.230377149644989 6.265065023241238  C 10.230377149644989 6.265065023241238  8.741005912367376 6.168671158231924  8.741005912367376 6.168671158231924  C 8.822392838341298 5.622486812555492  8.895644564469102 5.004021430685398  8.960754299289976 4.3132577775456555  C 9.042141225263896 3.622495081910134  9.107205360276451 2.907633920022284  9.156037903944277 2.168678121898992  Z M 12.20805053859237 10.192777980884733  L 12.20805053859237 4.481931721244408  L 13.746289247050566 4.481931721244408  L 13.746289247050566 10.192777980884733  L 12.20805053859237 10.192777980884733  Z M 8.86308145028482 10.000005570933654  L 8.86308145028482 6.7710868543374945  L 10.279182527469562 6.7710868543374945  L 10.279182527469562 10.000005570933654  L 8.86308145028482 10.000005570933654  Z M 18.40974865689371 4.072288435089918  C 18.45858120056154 2.9317266412492815  18.49114431474582 1.8714870040563363  18.50742150589887 0.8915666509984158  C 18.50742150589887 0.8915666509984158  20.192138441186795 0.8915666509984158  20.192138441186795 0.8915666509984158  C 20.175861250033748 1.8875510523841854  20.143298135849463 2.95582510750161  20.09446559218164 4.096386901342247  C 20.04563304851381 5.236949652687105  19.988694411260497 6.345379519855156  19.92358467643962 7.421684162880172  C 19.87475310298048 8.48192523632945  19.817751402162468 9.397595141101304  19.752641667341596 10.168679514632405  C 19.752641667341596 10.168679514632405  18.019119354229097 10.168679514632405  18.019119354229097 10.168679514632405  C 18.116784441564754 9.381531092773454  18.19816069524311 8.44980767222019  18.263270430063983 7.373502550443064  C 18.328380164884855 6.2971969499138245  18.37719427458762 5.196786180602705  18.40974865689371 4.072288435089918  Z M 4.907672579034043 12.265062237774412  C 5.623878206750628 11.590363111714629  6.201704909762155 10.891570785675738  6.641194892146541 10.168679514632405  C 6.641194892146541 10.168679514632405  8.130566129424151 10.722898278233318  8.130566129424151 10.722898278233318  C 7.642244088476283 11.574303850907889  7.023728773521233 12.385544515241726  6.274968278394212 13.156628888772827  C 5.54248545952458 13.927713022927875  4.736777837818228 14.618471409794399  3.8577981156016303 15.228913145662506  C 2.995095827090251 15.839354881530616  2.099823996762034 16.337353545376995  1.1720120947058665 16.72289549276649  C 1.0743477350267272 16.594381669887362  0.952282141748333 16.441762199474244  0.8057854809535381 16.265055274107347  C 0.6755663145020046 16.088348348740446  0.5371879961773778 15.919675841298028  0.39069139602062575 15.759033443011091  C 0.26047216893104935 15.58232651764419  0.13021922708957642 15.445790963771524  0 15.349405476924147  C 0.8789797222165978 15.028120440974217  1.741688317084447 14.602414542748212  2.588113171890608 14.072294006023572  C 3.4345380266967687 13.542173708674989  4.207744385022678 12.939760885082084  4.907672579034043 12.265062237774412  Z M 14.820628492751277 10.722898278233318  C 14.820628492751277 10.722898278233318  16.334402418941174 10.168679514632405  16.334402418941174 10.168679514632405  C 16.790169592478605 10.843378161940079  17.367996780594478 11.502015154680453  18.06792473205367 12.144585226580318  C 18.78412987466591 12.78715577723229  19.565461245646716 13.365465347051758  20.41188682810939 13.879521596072491  C 21.27458863151643 14.377513318013266  22.137297226384277 14.78715109851848  23 15.108436134468413  C 22.886057721511296 15.20482186069184  22.74767976701493 15.333338556083634  22.58490591506709 15.49398095437057  C 22.438409254272294 15.654623592033566  22.300093393131935 15.823296099475984  22.169873923490186 16.000002785466826  C 22.039655424057127 16.16064542312982  21.9257150859858 16.313249334099336  21.828049998650144 16.457827684058426  C 20.93279284272833 16.08834978499678  20.04564566122675 15.606435037690849  19.166666666666668 15.012057589526647  C 18.287686701897897 14.41768014136244  17.47379221673281 13.759043627374174  16.725031721605788 13.036151877578732  C 15.976271226478765 12.297196079455441  15.34150540110958 11.52611074842012  14.820628492751277 10.722898278233318  Z M 6.128490051564483 15  L 6.128490051564483 13.68674918612141  L 16.84716935287924 13.68674918612141  L 16.84716935287924 15  L 6.128490051564483 15  Z M 2.807861558813207 18.698801204714403  L 2.807861558813207 17  L 20.50955967711455 17  L 20.50955967711455 18.698801204714403  L 2.807861558813207 18.698801204714403  Z M 10.474528225479872 22  L 10.474528225479872 11.783138872930484  L 12 11.783138872930484  L 12 22  L 10.474528225479872 22  Z " fill-rule="evenodd" />
    </mask>
  </defs>
  <g transform="matrix(1 0 0 1 -653 -612 )">
    <path d="M 0.4639615561134958 11  L 0.4639615561134958 10  L 22.58490591506709 10  L 22.58490591506709 11  L 0.4639615561134958 11  Z M 5.420377419616101 0.7469911735519925  C 6.169137914743122 0.47389852196166504  6.779589825294943 0.22489954910255738  7.251634675089766 0  C 7.251634675089766 0  8.350314516346751 1.132535993454153  8.350314516346751 1.132535993454153  C 7.666663756040603 1.4056276875402587  6.909770001484841 1.6626610783238451  6.079622580383899 1.903625633258474  C 5.249475159282957 2.1445892306888807  4.468205639105991 2.3534180289340365  3.735722577684188 2.530124475548824  C 3.703167710273751 2.3694820772618863  3.638041239353014 2.18474121272262  3.540376879673875 1.9759057119479118  C 3.4589897111477823 1.7670702111732037  3.3694253812498314 1.5823293466339374  3.271761021570692 1.4216869483469994  C 3.9716894581342297 1.2289164534043628  4.68789460074647 1.0040197768144705  5.420377419616101 0.7469911735519925  Z M 3.0520126346480927 10.313254992078829  L 2.685786020895764 0.8915666509984158  C 2.685786020895764 0.8915666509984158  4.834402418941173 1.37350533590989  4.834402418941173 1.37350533590989  C 4.785570117825518 1.5341477341968282  4.622816155155774 1.6305281941470378  4.346100267271402 1.6626562908027367  C 4.346100267271402 1.6626562908027367  4.687924192111444 10.313254992078829  4.687924192111444 10.313254992078829  L 3.0520126346480927 10.313254992078829  Z M 3.540376879673875 5.108430563534757  L 3.540376879673875 3.8072359464494  L 7.764339515671823 3.8072359464494  L 7.764339515671823 5.108430563534757  L 3.540376879673875 5.108430563534757  Z M 15.040376879673875 5.108430563534757  L 15.040376879673875 3.8072359464494  L 19.28874220458411 3.8072359464494  L 19.28874220458411 5.108430563534757  L 15.040376879673875 5.108430563534757  Z M 15.015912097405577 7.975902926481085  L 15.015912097405577 6.698791455580508  L 19.239936826759536 6.698791455580508  L 19.239936826759536 7.975902926481085  L 15.015912097405577 7.975902926481085  Z M 14.967106719581004 2.192776588151321  L 14.967106719581004 0.8915666509984158  L 19.386415053589268 0.8915666509984158  L 19.386415053589268 2.192776588151321  L 14.967106719581004 2.192776588151321  Z M 3.662452417591318 7.975902926481085  L 3.662452417591318 6.698791455580508  L 7.764339515671823 6.698791455580508  L 7.764339515671823 7.975902926481085  L 3.662452417591318 7.975902926481085  Z M 9.888553224804946 2.987949374140422  L 10.010628762722389 1.7108532233073936  L 14.259056180988635 1.7108532233073936  L 14.259056180988635 2.987949374140422  L 9.888553224804946 2.987949374140422  Z M 9.326980913042304 5.759043192144984  L 9.449056450959748 4.481931721244408  L 13.038238708458195 4.481931721244408  L 13.038238708458195 5.759043192144984  L 9.326980913042304 5.759043192144984  Z M 9.156037903944277 2.168678121898992  C 9.204869962507761 1.4136582754478508  9.237433561796388 0.7148659494089588  9.253710752949434 0.07229539875698543  C 9.253710752949434 0.07229539875698543  10.79194946140763 0.16867394369875177  10.79194946140763 0.16867394369875177  C 10.759394593997193 0.8433725910064239  10.710580969398775 1.5501993349697951  10.645471234577899 2.289155133093087  C 10.580361499757027 3.0281109312163785  10.515234786284118 3.751005553524486  10.450125536567587 4.457833254992079  C 10.385015801746713 5.148595950627601  10.311764075618909 5.751008774220504  10.230377149644989 6.265065023241238  C 10.230377149644989 6.265065023241238  8.741005912367376 6.168671158231924  8.741005912367376 6.168671158231924  C 8.822392838341298 5.622486812555492  8.895644564469102 5.004021430685398  8.960754299289976 4.3132577775456555  C 9.042141225263896 3.622495081910134  9.107205360276451 2.907633920022284  9.156037903944277 2.168678121898992  Z M 12.20805053859237 10.192777980884733  L 12.20805053859237 4.481931721244408  L 13.746289247050566 4.481931721244408  L 13.746289247050566 10.192777980884733  L 12.20805053859237 10.192777980884733  Z M 8.86308145028482 10.000005570933654  L 8.86308145028482 6.7710868543374945  L 10.279182527469562 6.7710868543374945  L 10.279182527469562 10.000005570933654  L 8.86308145028482 10.000005570933654  Z M 18.40974865689371 4.072288435089918  C 18.45858120056154 2.9317266412492815  18.49114431474582 1.8714870040563363  18.50742150589887 0.8915666509984158  C 18.50742150589887 0.8915666509984158  20.192138441186795 0.8915666509984158  20.192138441186795 0.8915666509984158  C 20.175861250033748 1.8875510523841854  20.143298135849463 2.95582510750161  20.09446559218164 4.096386901342247  C 20.04563304851381 5.236949652687105  19.988694411260497 6.345379519855156  19.92358467643962 7.421684162880172  C 19.87475310298048 8.48192523632945  19.817751402162468 9.397595141101304  19.752641667341596 10.168679514632405  C 19.752641667341596 10.168679514632405  18.019119354229097 10.168679514632405  18.019119354229097 10.168679514632405  C 18.116784441564754 9.381531092773454  18.19816069524311 8.44980767222019  18.263270430063983 7.373502550443064  C 18.328380164884855 6.2971969499138245  18.37719427458762 5.196786180602705  18.40974865689371 4.072288435089918  Z M 4.907672579034043 12.265062237774412  C 5.623878206750628 11.590363111714629  6.201704909762155 10.891570785675738  6.641194892146541 10.168679514632405  C 6.641194892146541 10.168679514632405  8.130566129424151 10.722898278233318  8.130566129424151 10.722898278233318  C 7.642244088476283 11.574303850907889  7.023728773521233 12.385544515241726  6.274968278394212 13.156628888772827  C 5.54248545952458 13.927713022927875  4.736777837818228 14.618471409794399  3.8577981156016303 15.228913145662506  C 2.995095827090251 15.839354881530616  2.099823996762034 16.337353545376995  1.1720120947058665 16.72289549276649  C 1.0743477350267272 16.594381669887362  0.952282141748333 16.441762199474244  0.8057854809535381 16.265055274107347  C 0.6755663145020046 16.088348348740446  0.5371879961773778 15.919675841298028  0.39069139602062575 15.759033443011091  C 0.26047216893104935 15.58232651764419  0.13021922708957642 15.445790963771524  0 15.349405476924147  C 0.8789797222165978 15.028120440974217  1.741688317084447 14.602414542748212  2.588113171890608 14.072294006023572  C 3.4345380266967687 13.542173708674989  4.207744385022678 12.939760885082084  4.907672579034043 12.265062237774412  Z M 14.820628492751277 10.722898278233318  C 14.820628492751277 10.722898278233318  16.334402418941174 10.168679514632405  16.334402418941174 10.168679514632405  C 16.790169592478605 10.843378161940079  17.367996780594478 11.502015154680453  18.06792473205367 12.144585226580318  C 18.78412987466591 12.78715577723229  19.565461245646716 13.365465347051758  20.41188682810939 13.879521596072491  C 21.27458863151643 14.377513318013266  22.137297226384277 14.78715109851848  23 15.108436134468413  C 22.886057721511296 15.20482186069184  22.74767976701493 15.333338556083634  22.58490591506709 15.49398095437057  C 22.438409254272294 15.654623592033566  22.300093393131935 15.823296099475984  22.169873923490186 16.000002785466826  C 22.039655424057127 16.16064542312982  21.9257150859858 16.313249334099336  21.828049998650144 16.457827684058426  C 20.93279284272833 16.08834978499678  20.04564566122675 15.606435037690849  19.166666666666668 15.012057589526647  C 18.287686701897897 14.41768014136244  17.47379221673281 13.759043627374174  16.725031721605788 13.036151877578732  C 15.976271226478765 12.297196079455441  15.34150540110958 11.52611074842012  14.820628492751277 10.722898278233318  Z M 6.128490051564483 15  L 6.128490051564483 13.68674918612141  L 16.84716935287924 13.68674918612141  L 16.84716935287924 15  L 6.128490051564483 15  Z M 2.807861558813207 18.698801204714403  L 2.807861558813207 17  L 20.50955967711455 17  L 20.50955967711455 18.698801204714403  L 2.807861558813207 18.698801204714403  Z M 10.474528225479872 22  L 10.474528225479872 11.783138872930484  L 12 11.783138872930484  L 12 22  L 10.474528225479872 22  Z " fill-rule="nonzero" fill="rgba(0, 0, 0, 1)" stroke="none" transform="matrix(1 0 0 1 653 612 )" class="fill" />
    <path d="M 0.4639615561134958 11  L 0.4639615561134958 10  L 22.58490591506709 10  L 22.58490591506709 11  L 0.4639615561134958 11  Z " stroke-width="0" stroke-dasharray="0" stroke="rgba(121, 121, 121, 1)" fill="none" transform="matrix(1 0 0 1 653 612 )" class="stroke" mask="url(#Clip4952)" />
    <path d="M 5.420377419616101 0.7469911735519925  C 6.169137914743122 0.47389852196166504  6.779589825294943 0.22489954910255738  7.251634675089766 0  C 7.251634675089766 0  8.350314516346751 1.132535993454153  8.350314516346751 1.132535993454153  C 7.666663756040603 1.4056276875402587  6.909770001484841 1.6626610783238451  6.079622580383899 1.903625633258474  C 5.249475159282957 2.1445892306888807  4.468205639105991 2.3534180289340365  3.735722577684188 2.530124475548824  C 3.703167710273751 2.3694820772618863  3.638041239353014 2.18474121272262  3.540376879673875 1.9759057119479118  C 3.4589897111477823 1.7670702111732037  3.3694253812498314 1.5823293466339374  3.271761021570692 1.4216869483469994  C 3.9716894581342297 1.2289164534043628  4.68789460074647 1.0040197768144705  5.420377419616101 0.7469911735519925  Z " stroke-width="0" stroke-dasharray="0" stroke="rgba(121, 121, 121, 1)" fill="none" transform="matrix(1 0 0 1 653 612 )" class="stroke" mask="url(#Clip4952)" />
    <path d="M 3.0520126346480927 10.313254992078829  L 2.685786020895764 0.8915666509984158  C 2.685786020895764 0.8915666509984158  4.834402418941173 1.37350533590989  4.834402418941173 1.37350533590989  C 4.785570117825518 1.5341477341968282  4.622816155155774 1.6305281941470378  4.346100267271402 1.6626562908027367  C 4.346100267271402 1.6626562908027367  4.687924192111444 10.313254992078829  4.687924192111444 10.313254992078829  L 3.0520126346480927 10.313254992078829  Z " stroke-width="0" stroke-dasharray="0" stroke="rgba(121, 121, 121, 1)" fill="none" transform="matrix(1 0 0 1 653 612 )" class="stroke" mask="url(#Clip4952)" />
    <path d="M 3.540376879673875 5.108430563534757  L 3.540376879673875 3.8072359464494  L 7.764339515671823 3.8072359464494  L 7.764339515671823 5.108430563534757  L 3.540376879673875 5.108430563534757  Z " stroke-width="0" stroke-dasharray="0" stroke="rgba(121, 121, 121, 1)" fill="none" transform="matrix(1 0 0 1 653 612 )" class="stroke" mask="url(#Clip4952)" />
    <path d="M 15.040376879673875 5.108430563534757  L 15.040376879673875 3.8072359464494  L 19.28874220458411 3.8072359464494  L 19.28874220458411 5.108430563534757  L 15.040376879673875 5.108430563534757  Z " stroke-width="0" stroke-dasharray="0" stroke="rgba(121, 121, 121, 1)" fill="none" transform="matrix(1 0 0 1 653 612 )" class="stroke" mask="url(#Clip4952)" />
    <path d="M 15.015912097405577 7.975902926481085  L 15.015912097405577 6.698791455580508  L 19.239936826759536 6.698791455580508  L 19.239936826759536 7.975902926481085  L 15.015912097405577 7.975902926481085  Z " stroke-width="0" stroke-dasharray="0" stroke="rgba(121, 121, 121, 1)" fill="none" transform="matrix(1 0 0 1 653 612 )" class="stroke" mask="url(#Clip4952)" />
    <path d="M 14.967106719581004 2.192776588151321  L 14.967106719581004 0.8915666509984158  L 19.386415053589268 0.8915666509984158  L 19.386415053589268 2.192776588151321  L 14.967106719581004 2.192776588151321  Z " stroke-width="0" stroke-dasharray="0" stroke="rgba(121, 121, 121, 1)" fill="none" transform="matrix(1 0 0 1 653 612 )" class="stroke" mask="url(#Clip4952)" />
    <path d="M 3.662452417591318 7.975902926481085  L 3.662452417591318 6.698791455580508  L 7.764339515671823 6.698791455580508  L 7.764339515671823 7.975902926481085  L 3.662452417591318 7.975902926481085  Z " stroke-width="0" stroke-dasharray="0" stroke="rgba(121, 121, 121, 1)" fill="none" transform="matrix(1 0 0 1 653 612 )" class="stroke" mask="url(#Clip4952)" />
    <path d="M 9.888553224804946 2.987949374140422  L 10.010628762722389 1.7108532233073936  L 14.259056180988635 1.7108532233073936  L 14.259056180988635 2.987949374140422  L 9.888553224804946 2.987949374140422  Z " stroke-width="0" stroke-dasharray="0" stroke="rgba(121, 121, 121, 1)" fill="none" transform="matrix(1 0 0 1 653 612 )" class="stroke" mask="url(#Clip4952)" />
    <path d="M 9.326980913042304 5.759043192144984  L 9.449056450959748 4.481931721244408  L 13.038238708458195 4.481931721244408  L 13.038238708458195 5.759043192144984  L 9.326980913042304 5.759043192144984  Z " stroke-width="0" stroke-dasharray="0" stroke="rgba(121, 121, 121, 1)" fill="none" transform="matrix(1 0 0 1 653 612 )" class="stroke" mask="url(#Clip4952)" />
    <path d="M 9.156037903944277 2.168678121898992  C 9.204869962507761 1.4136582754478508  9.237433561796388 0.7148659494089588  9.253710752949434 0.07229539875698543  C 9.253710752949434 0.07229539875698543  10.79194946140763 0.16867394369875177  10.79194946140763 0.16867394369875177  C 10.759394593997193 0.8433725910064239  10.710580969398775 1.5501993349697951  10.645471234577899 2.289155133093087  C 10.580361499757027 3.0281109312163785  10.515234786284118 3.751005553524486  10.450125536567587 4.457833254992079  C 10.385015801746713 5.148595950627601  10.311764075618909 5.751008774220504  10.230377149644989 6.265065023241238  C 10.230377149644989 6.265065023241238  8.741005912367376 6.168671158231924  8.741005912367376 6.168671158231924  C 8.822392838341298 5.622486812555492  8.895644564469102 5.004021430685398  8.960754299289976 4.3132577775456555  C 9.042141225263896 3.622495081910134  9.107205360276451 2.907633920022284  9.156037903944277 2.168678121898992  Z " stroke-width="0" stroke-dasharray="0" stroke="rgba(121, 121, 121, 1)" fill="none" transform="matrix(1 0 0 1 653 612 )" class="stroke" mask="url(#Clip4952)" />
    <path d="M 12.20805053859237 10.192777980884733  L 12.20805053859237 4.481931721244408  L 13.746289247050566 4.481931721244408  L 13.746289247050566 10.192777980884733  L 12.20805053859237 10.192777980884733  Z " stroke-width="0" stroke-dasharray="0" stroke="rgba(121, 121, 121, 1)" fill="none" transform="matrix(1 0 0 1 653 612 )" class="stroke" mask="url(#Clip4952)" />
    <path d="M 8.86308145028482 10.000005570933654  L 8.86308145028482 6.7710868543374945  L 10.279182527469562 6.7710868543374945  L 10.279182527469562 10.000005570933654  L 8.86308145028482 10.000005570933654  Z " stroke-width="0" stroke-dasharray="0" stroke="rgba(121, 121, 121, 1)" fill="none" transform="matrix(1 0 0 1 653 612 )" class="stroke" mask="url(#Clip4952)" />
    <path d="M 18.40974865689371 4.072288435089918  C 18.45858120056154 2.9317266412492815  18.49114431474582 1.8714870040563363  18.50742150589887 0.8915666509984158  C 18.50742150589887 0.8915666509984158  20.192138441186795 0.8915666509984158  20.192138441186795 0.8915666509984158  C 20.175861250033748 1.8875510523841854  20.143298135849463 2.95582510750161  20.09446559218164 4.096386901342247  C 20.04563304851381 5.236949652687105  19.988694411260497 6.345379519855156  19.92358467643962 7.421684162880172  C 19.87475310298048 8.48192523632945  19.817751402162468 9.397595141101304  19.752641667341596 10.168679514632405  C 19.752641667341596 10.168679514632405  18.019119354229097 10.168679514632405  18.019119354229097 10.168679514632405  C 18.116784441564754 9.381531092773454  18.19816069524311 8.44980767222019  18.263270430063983 7.373502550443064  C 18.328380164884855 6.2971969499138245  18.37719427458762 5.196786180602705  18.40974865689371 4.072288435089918  Z " stroke-width="0" stroke-dasharray="0" stroke="rgba(121, 121, 121, 1)" fill="none" transform="matrix(1 0 0 1 653 612 )" class="stroke" mask="url(#Clip4952)" />
    <path d="M 4.907672579034043 12.265062237774412  C 5.623878206750628 11.590363111714629  6.201704909762155 10.891570785675738  6.641194892146541 10.168679514632405  C 6.641194892146541 10.168679514632405  8.130566129424151 10.722898278233318  8.130566129424151 10.722898278233318  C 7.642244088476283 11.574303850907889  7.023728773521233 12.385544515241726  6.274968278394212 13.156628888772827  C 5.54248545952458 13.927713022927875  4.736777837818228 14.618471409794399  3.8577981156016303 15.228913145662506  C 2.995095827090251 15.839354881530616  2.099823996762034 16.337353545376995  1.1720120947058665 16.72289549276649  C 1.0743477350267272 16.594381669887362  0.952282141748333 16.441762199474244  0.8057854809535381 16.265055274107347  C 0.6755663145020046 16.088348348740446  0.5371879961773778 15.919675841298028  0.39069139602062575 15.759033443011091  C 0.26047216893104935 15.58232651764419  0.13021922708957642 15.445790963771524  0 15.349405476924147  C 0.8789797222165978 15.028120440974217  1.741688317084447 14.602414542748212  2.588113171890608 14.072294006023572  C 3.4345380266967687 13.542173708674989  4.207744385022678 12.939760885082084  4.907672579034043 12.265062237774412  Z " stroke-width="0" stroke-dasharray="0" stroke="rgba(121, 121, 121, 1)" fill="none" transform="matrix(1 0 0 1 653 612 )" class="stroke" mask="url(#Clip4952)" />
    <path d="M 14.820628492751277 10.722898278233318  C 14.820628492751277 10.722898278233318  16.334402418941174 10.168679514632405  16.334402418941174 10.168679514632405  C 16.790169592478605 10.843378161940079  17.367996780594478 11.502015154680453  18.06792473205367 12.144585226580318  C 18.78412987466591 12.78715577723229  19.565461245646716 13.365465347051758  20.41188682810939 13.879521596072491  C 21.27458863151643 14.377513318013266  22.137297226384277 14.78715109851848  23 15.108436134468413  C 22.886057721511296 15.20482186069184  22.74767976701493 15.333338556083634  22.58490591506709 15.49398095437057  C 22.438409254272294 15.654623592033566  22.300093393131935 15.823296099475984  22.169873923490186 16.000002785466826  C 22.039655424057127 16.16064542312982  21.9257150859858 16.313249334099336  21.828049998650144 16.457827684058426  C 20.93279284272833 16.08834978499678  20.04564566122675 15.606435037690849  19.166666666666668 15.012057589526647  C 18.287686701897897 14.41768014136244  17.47379221673281 13.759043627374174  16.725031721605788 13.036151877578732  C 15.976271226478765 12.297196079455441  15.34150540110958 11.52611074842012  14.820628492751277 10.722898278233318  Z " stroke-width="0" stroke-dasharray="0" stroke="rgba(121, 121, 121, 1)" fill="none" transform="matrix(1 0 0 1 653 612 )" class="stroke" mask="url(#Clip4952)" />
    <path d="M 6.128490051564483 15  L 6.128490051564483 13.68674918612141  L 16.84716935287924 13.68674918612141  L 16.84716935287924 15  L 6.128490051564483 15  Z " stroke-width="0" stroke-dasharray="0" stroke="rgba(121, 121, 121, 1)" fill="none" transform="matrix(1 0 0 1 653 612 )" class="stroke" mask="url(#Clip4952)" />
    <path d="M 2.807861558813207 18.698801204714403  L 2.807861558813207 17  L 20.50955967711455 17  L 20.50955967711455 18.698801204714403  L 2.807861558813207 18.698801204714403  Z " stroke-width="0" stroke-dasharray="0" stroke="rgba(121, 121, 121, 1)" fill="none" transform="matrix(1 0 0 1 653 612 )" class="stroke" mask="url(#Clip4952)" />
    <path d="M 10.474528225479872 22  L 10.474528225479872 11.783138872930484  L 12 11.783138872930484  L 12 22  L 10.474528225479872 22  Z " stroke-width="0" stroke-dasharray="0" stroke="rgba(121, 121, 121, 1)" fill="none" transform="matrix(1 0 0 1 653 612 )" class="stroke" mask="url(#Clip4952)" />
  </g>
</svg>