<?xml version="1.0" encoding="utf-8"?>
<svg version="1.1" xmlns:xlink="http://www.w3.org/1999/xlink" width="22px" height="21px" xmlns="http://www.w3.org/2000/svg">
  <defs>
    <pattern id="BGPattern" patternUnits="userSpaceOnUse" alignment="0 0" imageRepeat="None" />
    <mask fill="white" id="Clip4970">
      <path d="M 2.4444431991430515 1.6629035134909653  L 2.4444431991430515 0  L 7.920938758002052 0  L 7.920938758002052 1.6629035134909653  L 2.4444431991430515 1.6629035134909653  Z M 2.4444431991430515 7.221723489152856  L 2.4444431991430515 5.55881997566189  L 7.967947640284051 5.55881997566189  L 7.967947640284051 7.221723489152856  L 2.4444431991430515 7.221723489152856  Z M 11.611111733761808 9.787329223280581  L 11.611111733761808 8.148198519575493  L 20.166664798714578 8.148198519575493  L 20.166664798714578 9.787329223280581  L 11.611111733761808 9.787329223280581  Z M 2.3974343168610526 12.923074599471237  L 2.3974343168610526 11.236428483068329  L 7.920938758002052 11.236428483068329  L 7.920938758002052 12.923074599471237  L 2.3974343168610526 12.923074599471237  Z M 1.739313700817246 8.528276510847144  C 1.739313700817246 8.528276510847144  1.739313700817246 0  1.739313700817246 0  L 3.337604490692674 0  C 3.337604490692674 0  3.337604490692674 8.528276510847144  3.337604490692674 8.528276510847144  C 3.337604490692674 9.46266574224043  3.314101684009753 10.468325260786012  3.267093035221765 11.545248458730217  C 3.220084386433777 12.62217118469202  3.1339022138968162 13.722848313125894  3.0085460506228605 14.847282675926271  C 2.8831901208429147 15.955879787115258  2.695155525690964 17.04073075552426  2.4444431991430515 18.101816583861474  C 2.193730872595139 19.162902412198687  1.856834855799193 20.12895942106548  1.4337578339363424 21  C 1.3397406531073723 20.904977434296452  1.2065526337105577 20.802039723657447  1.0341879383956194 20.69118002433811  C 0.8618232430806808 20.58032032501877  0.6816218466421524 20.477382673377566  0.49358766010472077 20.38236004867622  C 0.3055534151937864 20.287337423974872  0.14102565449644938 20.216067077824775  0 20.168555794973  C 0.407407472266855 19.329189365274466  0.7207969464757008 18.418546512652366  0.9401701738316215 17.43664611640291  C 1.175212950783538 16.45474572015345  1.3475775293514707 15.449100833062431  1.457264143029431 14.4196892719568  C 1.566950873454397 13.37444034124418  1.6374632629013508 12.352939205249955  1.668802245346337 11.355201911375909  C 1.7158107773873192 10.341627247894868  1.739313700817246 9.399317207777262  1.739313700817246 8.528276510847144  Z M 6.933759701888431 18.814472257143926  C 6.933759701888431 18.814472257143926  6.933759701888431 0  6.933759701888431 0  L 8.579059374045858 0  C 8.579059374045858 0  8.579059374045858 18.838229963492836  8.579059374045858 18.838229963492836  C 8.579059374045858 19.31334302800177  8.516383510601987 19.69344140301355  8.391027580822042 19.978509247618693  C 8.265671184054074 20.279414196340724  8.054130279809034 20.50113076308497  7.756409537967144 20.64366461164029  C 7.458688796125257 20.802035711807005  7.059117032632443 20.897052731717288  6.557692379536619 20.92872688095327  C 6.056267726440794 20.960401148184854  5.405982468930013 20.97624229365109  4.606836840498288 20.97624229365109  C 4.591167524396304 20.83370832710017  4.559827724722278 20.65157975657575  4.51281907593429 20.42986035793707  C 4.465810427146303 20.223978033916385  4.403131061292263 20.01810276013288  4.3247835468062945 19.812220406613292  C 4.262105581916321 19.606338082592604  4.191593192469368 19.424209497318735  4.1132454444893884 19.265838470899276  C 4.661678746373202 19.281675575016163  5.155269441900067 19.289596177248182  5.594015896611908 19.289596177248182  C 6.032762351323749 19.289596177248182  6.330482159189595 19.281675575016163  6.487177188161531 19.265838470899276  C 6.64387268412149 19.265838470899276  6.7535616327395624 19.234156054596475  6.816239364135524 19.170807645503636  C 6.894587345609515 19.107459236410794  6.933759701888431 18.98868038768028  6.933759701888431 18.814472257143926  Z M 18.92094249390623 4.656102651588162  C 18.92094249390623 4.656102651588162  18.92094249390623 0.0712731190467286  18.92094249390623 0.0712731190467286  L 20.636753621534567 0.0712731190467286  C 20.636753621534567 0.0712731190467286  20.636753621534567 4.679860357937073  20.636753621534567 4.679860357937073  C 20.636753621534567 5.107461313625026  20.57407448917454 5.447972075902682  20.44871809240657 5.701366213755347  C 20.323361695638603 5.954759407643202  20.072651704030804 6.152714492179296  19.696583447702945 6.295248458730218  C 19.33618450747707 6.406108630031961  18.850430104459278 6.477378917184259  18.239319304673515 6.509052712433437  C 17.628207570911705 6.524890554022837  16.87607012427995 6.532810418782347  15.98290789875428 6.532810418782347  C 15.951568332574265 6.279416280929681  15.873222686040386 6.018097558493453  15.747867223248463 5.7488665230162  C 15.638180142582481 5.463798589914356  15.528487458060232 5.218319596997149  15.418801311370293 5.012438039947871  C 15.904555714388088 5.012438039947871  16.35114103004312 5.020358848672192  16.758548852550994 5.036195746296781  C 17.18162599116085 5.05203264392137  17.542021195482544 5.059953452645691  17.839741937324433 5.059953452645691  C 18.137462679166322 5.044116555021102  18.349003583411363 5.036195746296781  18.47435998017933 5.036195746296781  C 18.662393641355237 5.020358848672192  18.779915847060234 4.988691661176687  18.826924729342235 4.94118002433811  C 18.889602927726216 4.893668387499533  18.92094249390623 4.798636618139084  18.92094249390623 4.656102651588162  Z M 19.673077138609855 8.480776201586293  C 19.673077138609855 8.480776201586293  19.673077138609855 8.148198519575493  19.673077138609855 8.148198519575493  L 19.97863674139494 8.148198519575493  L 20.284188872371665 8.076925400528765  C 20.284188872371665 8.076925400528765  21.318376810767283 8.457018495237383  21.318376810767283 8.457018495237383  C 20.926639238337444 10.484167822199463  20.339036615596857 12.297517851273579  19.555560536761128 13.897065042591692  C 18.787753774027383 15.480775218289615  17.878917562519508 16.850677246429473  16.829060308021905 18.00678575846584  C 15.79487143565024 19.162894152506595  14.666665732690623 20.105204487613204  13.444443199143052 20.8337111589946  C 13.350426368555098 20.643665968589705  13.201568332574265 20.414028829112343  12.99786442132033 20.144798088624093  C 12.794160510066394 19.87556734813584  12.59828892192334 19.669676941416466  12.410255260747432 19.527143033863343  C 13.538460029731006 18.925333136419276  14.588321020132787 18.09389624711956  15.559831694120469 17.032810418782347  C 16.531341434132102 15.95588733883374  17.377491041471593 14.696828372633435  18.09828892192334 13.255652281482035  C 18.819086802375082 11.798638820723642  19.344016830587954 10.207020225839535  19.673077138609855 8.480776201586293  Z M 12.833335201285424 9.54978236666542  C 12.833335201285424 9.54978236666542  14.243590462032856 9.169689271956802  14.243590462032856 9.169689271956802  C 14.698006232846682 10.705888164802952  15.29344584857837 12.154981052828226  16.0299130451321 13.516971947883075  C 16.78205049176386 14.87896284293792  17.659546203115678 16.090498018752715  18.662395509307323 17.151583847089928  C 19.66524388152293 18.19683254181135  20.77777746645243 19.020363961814915  22 19.622173859258982  C 21.811966338824096 19.780544841430096  21.608261493594114 19.99434077644342  21.38888826623819 20.263571516931673  C 21.16951503888227 20.548639391035714  20.989321172625605 20.794117734977114  20.84829545975565 21  C 19.594733360028066 20.30316753685239  18.45085367108624 19.38461897894293  17.41666573269062 18.244347718517965  C 16.398147110396987 17.088239206481603  15.50498488487132 15.773751216590838  14.737178122137575 14.300900740212255  C 13.969372293379875 12.812213012222276  13.334759854381247 11.22851522606249  12.833335201285424 9.54978236666542  Z M 11 20.97624229365109  L 11 0.0712731190467286  L 19.41453015401095 0.0712731190467286  L 19.41453015401095 1.7341615291007269  L 12 1.7341615291007269  L 12 20.97624229365109  L 11 20.97624229365109  Z " fill-rule="evenodd" />
    </mask>
  </defs>
  <g transform="matrix(1 0 0 1 -189 -613 )">
    <path d="M 2.4444431991430515 1.6629035134909653  L 2.4444431991430515 0  L 7.920938758002052 0  L 7.920938758002052 1.6629035134909653  L 2.4444431991430515 1.6629035134909653  Z M 2.4444431991430515 7.221723489152856  L 2.4444431991430515 5.55881997566189  L 7.967947640284051 5.55881997566189  L 7.967947640284051 7.221723489152856  L 2.4444431991430515 7.221723489152856  Z M 11.611111733761808 9.787329223280581  L 11.611111733761808 8.148198519575493  L 20.166664798714578 8.148198519575493  L 20.166664798714578 9.787329223280581  L 11.611111733761808 9.787329223280581  Z M 2.3974343168610526 12.923074599471237  L 2.3974343168610526 11.236428483068329  L 7.920938758002052 11.236428483068329  L 7.920938758002052 12.923074599471237  L 2.3974343168610526 12.923074599471237  Z M 1.739313700817246 8.528276510847144  C 1.739313700817246 8.528276510847144  1.739313700817246 0  1.739313700817246 0  L 3.337604490692674 0  C 3.337604490692674 0  3.337604490692674 8.528276510847144  3.337604490692674 8.528276510847144  C 3.337604490692674 9.46266574224043  3.314101684009753 10.468325260786012  3.267093035221765 11.545248458730217  C 3.220084386433777 12.62217118469202  3.1339022138968162 13.722848313125894  3.0085460506228605 14.847282675926271  C 2.8831901208429147 15.955879787115258  2.695155525690964 17.04073075552426  2.4444431991430515 18.101816583861474  C 2.193730872595139 19.162902412198687  1.856834855799193 20.12895942106548  1.4337578339363424 21  C 1.3397406531073723 20.904977434296452  1.2065526337105577 20.802039723657447  1.0341879383956194 20.69118002433811  C 0.8618232430806808 20.58032032501877  0.6816218466421524 20.477382673377566  0.49358766010472077 20.38236004867622  C 0.3055534151937864 20.287337423974872  0.14102565449644938 20.216067077824775  0 20.168555794973  C 0.407407472266855 19.329189365274466  0.7207969464757008 18.418546512652366  0.9401701738316215 17.43664611640291  C 1.175212950783538 16.45474572015345  1.3475775293514707 15.449100833062431  1.457264143029431 14.4196892719568  C 1.566950873454397 13.37444034124418  1.6374632629013508 12.352939205249955  1.668802245346337 11.355201911375909  C 1.7158107773873192 10.341627247894868  1.739313700817246 9.399317207777262  1.739313700817246 8.528276510847144  Z M 6.933759701888431 18.814472257143926  C 6.933759701888431 18.814472257143926  6.933759701888431 0  6.933759701888431 0  L 8.579059374045858 0  C 8.579059374045858 0  8.579059374045858 18.838229963492836  8.579059374045858 18.838229963492836  C 8.579059374045858 19.31334302800177  8.516383510601987 19.69344140301355  8.391027580822042 19.978509247618693  C 8.265671184054074 20.279414196340724  8.054130279809034 20.50113076308497  7.756409537967144 20.64366461164029  C 7.458688796125257 20.802035711807005  7.059117032632443 20.897052731717288  6.557692379536619 20.92872688095327  C 6.056267726440794 20.960401148184854  5.405982468930013 20.97624229365109  4.606836840498288 20.97624229365109  C 4.591167524396304 20.83370832710017  4.559827724722278 20.65157975657575  4.51281907593429 20.42986035793707  C 4.465810427146303 20.223978033916385  4.403131061292263 20.01810276013288  4.3247835468062945 19.812220406613292  C 4.262105581916321 19.606338082592604  4.191593192469368 19.424209497318735  4.1132454444893884 19.265838470899276  C 4.661678746373202 19.281675575016163  5.155269441900067 19.289596177248182  5.594015896611908 19.289596177248182  C 6.032762351323749 19.289596177248182  6.330482159189595 19.281675575016163  6.487177188161531 19.265838470899276  C 6.64387268412149 19.265838470899276  6.7535616327395624 19.234156054596475  6.816239364135524 19.170807645503636  C 6.894587345609515 19.107459236410794  6.933759701888431 18.98868038768028  6.933759701888431 18.814472257143926  Z M 18.92094249390623 4.656102651588162  C 18.92094249390623 4.656102651588162  18.92094249390623 0.0712731190467286  18.92094249390623 0.0712731190467286  L 20.636753621534567 0.0712731190467286  C 20.636753621534567 0.0712731190467286  20.636753621534567 4.679860357937073  20.636753621534567 4.679860357937073  C 20.636753621534567 5.107461313625026  20.57407448917454 5.447972075902682  20.44871809240657 5.701366213755347  C 20.323361695638603 5.954759407643202  20.072651704030804 6.152714492179296  19.696583447702945 6.295248458730218  C 19.33618450747707 6.406108630031961  18.850430104459278 6.477378917184259  18.239319304673515 6.509052712433437  C 17.628207570911705 6.524890554022837  16.87607012427995 6.532810418782347  15.98290789875428 6.532810418782347  C 15.951568332574265 6.279416280929681  15.873222686040386 6.018097558493453  15.747867223248463 5.7488665230162  C 15.638180142582481 5.463798589914356  15.528487458060232 5.218319596997149  15.418801311370293 5.012438039947871  C 15.904555714388088 5.012438039947871  16.35114103004312 5.020358848672192  16.758548852550994 5.036195746296781  C 17.18162599116085 5.05203264392137  17.542021195482544 5.059953452645691  17.839741937324433 5.059953452645691  C 18.137462679166322 5.044116555021102  18.349003583411363 5.036195746296781  18.47435998017933 5.036195746296781  C 18.662393641355237 5.020358848672192  18.779915847060234 4.988691661176687  18.826924729342235 4.94118002433811  C 18.889602927726216 4.893668387499533  18.92094249390623 4.798636618139084  18.92094249390623 4.656102651588162  Z M 19.673077138609855 8.480776201586293  C 19.673077138609855 8.480776201586293  19.673077138609855 8.148198519575493  19.673077138609855 8.148198519575493  L 19.97863674139494 8.148198519575493  L 20.284188872371665 8.076925400528765  C 20.284188872371665 8.076925400528765  21.318376810767283 8.457018495237383  21.318376810767283 8.457018495237383  C 20.926639238337444 10.484167822199463  20.339036615596857 12.297517851273579  19.555560536761128 13.897065042591692  C 18.787753774027383 15.480775218289615  17.878917562519508 16.850677246429473  16.829060308021905 18.00678575846584  C 15.79487143565024 19.162894152506595  14.666665732690623 20.105204487613204  13.444443199143052 20.8337111589946  C 13.350426368555098 20.643665968589705  13.201568332574265 20.414028829112343  12.99786442132033 20.144798088624093  C 12.794160510066394 19.87556734813584  12.59828892192334 19.669676941416466  12.410255260747432 19.527143033863343  C 13.538460029731006 18.925333136419276  14.588321020132787 18.09389624711956  15.559831694120469 17.032810418782347  C 16.531341434132102 15.95588733883374  17.377491041471593 14.696828372633435  18.09828892192334 13.255652281482035  C 18.819086802375082 11.798638820723642  19.344016830587954 10.207020225839535  19.673077138609855 8.480776201586293  Z M 12.833335201285424 9.54978236666542  C 12.833335201285424 9.54978236666542  14.243590462032856 9.169689271956802  14.243590462032856 9.169689271956802  C 14.698006232846682 10.705888164802952  15.29344584857837 12.154981052828226  16.0299130451321 13.516971947883075  C 16.78205049176386 14.87896284293792  17.659546203115678 16.090498018752715  18.662395509307323 17.151583847089928  C 19.66524388152293 18.19683254181135  20.77777746645243 19.020363961814915  22 19.622173859258982  C 21.811966338824096 19.780544841430096  21.608261493594114 19.99434077644342  21.38888826623819 20.263571516931673  C 21.16951503888227 20.548639391035714  20.989321172625605 20.794117734977114  20.84829545975565 21  C 19.594733360028066 20.30316753685239  18.45085367108624 19.38461897894293  17.41666573269062 18.244347718517965  C 16.398147110396987 17.088239206481603  15.50498488487132 15.773751216590838  14.737178122137575 14.300900740212255  C 13.969372293379875 12.812213012222276  13.334759854381247 11.22851522606249  12.833335201285424 9.54978236666542  Z M 11 20.97624229365109  L 11 0.0712731190467286  L 19.41453015401095 0.0712731190467286  L 19.41453015401095 1.7341615291007269  L 12 1.7341615291007269  L 12 20.97624229365109  L 11 20.97624229365109  Z " fill-rule="nonzero" fill="rgba(0, 0, 0, 1)" stroke="none" transform="matrix(1 0 0 1 189 613 )" class="fill" />
    <path d="M 2.4444431991430515 1.6629035134909653  L 2.4444431991430515 0  L 7.920938758002052 0  L 7.920938758002052 1.6629035134909653  L 2.4444431991430515 1.6629035134909653  Z " stroke-width="0" stroke-dasharray="0" stroke="rgba(121, 121, 121, 1)" fill="none" transform="matrix(1 0 0 1 189 613 )" class="stroke" mask="url(#Clip4970)" />
    <path d="M 2.4444431991430515 7.221723489152856  L 2.4444431991430515 5.55881997566189  L 7.967947640284051 5.55881997566189  L 7.967947640284051 7.221723489152856  L 2.4444431991430515 7.221723489152856  Z " stroke-width="0" stroke-dasharray="0" stroke="rgba(121, 121, 121, 1)" fill="none" transform="matrix(1 0 0 1 189 613 )" class="stroke" mask="url(#Clip4970)" />
    <path d="M 11.611111733761808 9.787329223280581  L 11.611111733761808 8.148198519575493  L 20.166664798714578 8.148198519575493  L 20.166664798714578 9.787329223280581  L 11.611111733761808 9.787329223280581  Z " stroke-width="0" stroke-dasharray="0" stroke="rgba(121, 121, 121, 1)" fill="none" transform="matrix(1 0 0 1 189 613 )" class="stroke" mask="url(#Clip4970)" />
    <path d="M 2.3974343168610526 12.923074599471237  L 2.3974343168610526 11.236428483068329  L 7.920938758002052 11.236428483068329  L 7.920938758002052 12.923074599471237  L 2.3974343168610526 12.923074599471237  Z " stroke-width="0" stroke-dasharray="0" stroke="rgba(121, 121, 121, 1)" fill="none" transform="matrix(1 0 0 1 189 613 )" class="stroke" mask="url(#Clip4970)" />
    <path d="M 1.739313700817246 8.528276510847144  C 1.739313700817246 8.528276510847144  1.739313700817246 0  1.739313700817246 0  L 3.337604490692674 0  C 3.337604490692674 0  3.337604490692674 8.528276510847144  3.337604490692674 8.528276510847144  C 3.337604490692674 9.46266574224043  3.314101684009753 10.468325260786012  3.267093035221765 11.545248458730217  C 3.220084386433777 12.62217118469202  3.1339022138968162 13.722848313125894  3.0085460506228605 14.847282675926271  C 2.8831901208429147 15.955879787115258  2.695155525690964 17.04073075552426  2.4444431991430515 18.101816583861474  C 2.193730872595139 19.162902412198687  1.856834855799193 20.12895942106548  1.4337578339363424 21  C 1.3397406531073723 20.904977434296452  1.2065526337105577 20.802039723657447  1.0341879383956194 20.69118002433811  C 0.8618232430806808 20.58032032501877  0.6816218466421524 20.477382673377566  0.49358766010472077 20.38236004867622  C 0.3055534151937864 20.287337423974872  0.14102565449644938 20.216067077824775  0 20.168555794973  C 0.407407472266855 19.329189365274466  0.7207969464757008 18.418546512652366  0.9401701738316215 17.43664611640291  C 1.175212950783538 16.45474572015345  1.3475775293514707 15.449100833062431  1.457264143029431 14.4196892719568  C 1.566950873454397 13.37444034124418  1.6374632629013508 12.352939205249955  1.668802245346337 11.355201911375909  C 1.7158107773873192 10.341627247894868  1.739313700817246 9.399317207777262  1.739313700817246 8.528276510847144  Z " stroke-width="0" stroke-dasharray="0" stroke="rgba(121, 121, 121, 1)" fill="none" transform="matrix(1 0 0 1 189 613 )" class="stroke" mask="url(#Clip4970)" />
    <path d="M 6.933759701888431 18.814472257143926  C 6.933759701888431 18.814472257143926  6.933759701888431 0  6.933759701888431 0  L 8.579059374045858 0  C 8.579059374045858 0  8.579059374045858 18.838229963492836  8.579059374045858 18.838229963492836  C 8.579059374045858 19.31334302800177  8.516383510601987 19.69344140301355  8.391027580822042 19.978509247618693  C 8.265671184054074 20.279414196340724  8.054130279809034 20.50113076308497  7.756409537967144 20.64366461164029  C 7.458688796125257 20.802035711807005  7.059117032632443 20.897052731717288  6.557692379536619 20.92872688095327  C 6.056267726440794 20.960401148184854  5.405982468930013 20.97624229365109  4.606836840498288 20.97624229365109  C 4.591167524396304 20.83370832710017  4.559827724722278 20.65157975657575  4.51281907593429 20.42986035793707  C 4.465810427146303 20.223978033916385  4.403131061292263 20.01810276013288  4.3247835468062945 19.812220406613292  C 4.262105581916321 19.606338082592604  4.191593192469368 19.424209497318735  4.1132454444893884 19.265838470899276  C 4.661678746373202 19.281675575016163  5.155269441900067 19.289596177248182  5.594015896611908 19.289596177248182  C 6.032762351323749 19.289596177248182  6.330482159189595 19.281675575016163  6.487177188161531 19.265838470899276  C 6.64387268412149 19.265838470899276  6.7535616327395624 19.234156054596475  6.816239364135524 19.170807645503636  C 6.894587345609515 19.107459236410794  6.933759701888431 18.98868038768028  6.933759701888431 18.814472257143926  Z " stroke-width="0" stroke-dasharray="0" stroke="rgba(121, 121, 121, 1)" fill="none" transform="matrix(1 0 0 1 189 613 )" class="stroke" mask="url(#Clip4970)" />
    <path d="M 18.92094249390623 4.656102651588162  C 18.92094249390623 4.656102651588162  18.92094249390623 0.0712731190467286  18.92094249390623 0.0712731190467286  L 20.636753621534567 0.0712731190467286  C 20.636753621534567 0.0712731190467286  20.636753621534567 4.679860357937073  20.636753621534567 4.679860357937073  C 20.636753621534567 5.107461313625026  20.57407448917454 5.447972075902682  20.44871809240657 5.701366213755347  C 20.323361695638603 5.954759407643202  20.072651704030804 6.152714492179296  19.696583447702945 6.295248458730218  C 19.33618450747707 6.406108630031961  18.850430104459278 6.477378917184259  18.239319304673515 6.509052712433437  C 17.628207570911705 6.524890554022837  16.87607012427995 6.532810418782347  15.98290789875428 6.532810418782347  C 15.951568332574265 6.279416280929681  15.873222686040386 6.018097558493453  15.747867223248463 5.7488665230162  C 15.638180142582481 5.463798589914356  15.528487458060232 5.218319596997149  15.418801311370293 5.012438039947871  C 15.904555714388088 5.012438039947871  16.35114103004312 5.020358848672192  16.758548852550994 5.036195746296781  C 17.18162599116085 5.05203264392137  17.542021195482544 5.059953452645691  17.839741937324433 5.059953452645691  C 18.137462679166322 5.044116555021102  18.349003583411363 5.036195746296781  18.47435998017933 5.036195746296781  C 18.662393641355237 5.020358848672192  18.779915847060234 4.988691661176687  18.826924729342235 4.94118002433811  C 18.889602927726216 4.893668387499533  18.92094249390623 4.798636618139084  18.92094249390623 4.656102651588162  Z " stroke-width="0" stroke-dasharray="0" stroke="rgba(121, 121, 121, 1)" fill="none" transform="matrix(1 0 0 1 189 613 )" class="stroke" mask="url(#Clip4970)" />
    <path d="M 19.673077138609855 8.480776201586293  C 19.673077138609855 8.480776201586293  19.673077138609855 8.148198519575493  19.673077138609855 8.148198519575493  L 19.97863674139494 8.148198519575493  L 20.284188872371665 8.076925400528765  C 20.284188872371665 8.076925400528765  21.318376810767283 8.457018495237383  21.318376810767283 8.457018495237383  C 20.926639238337444 10.484167822199463  20.339036615596857 12.297517851273579  19.555560536761128 13.897065042591692  C 18.787753774027383 15.480775218289615  17.878917562519508 16.850677246429473  16.829060308021905 18.00678575846584  C 15.79487143565024 19.162894152506595  14.666665732690623 20.105204487613204  13.444443199143052 20.8337111589946  C 13.350426368555098 20.643665968589705  13.201568332574265 20.414028829112343  12.99786442132033 20.144798088624093  C 12.794160510066394 19.87556734813584  12.59828892192334 19.669676941416466  12.410255260747432 19.527143033863343  C 13.538460029731006 18.925333136419276  14.588321020132787 18.09389624711956  15.559831694120469 17.032810418782347  C 16.531341434132102 15.95588733883374  17.377491041471593 14.696828372633435  18.09828892192334 13.255652281482035  C 18.819086802375082 11.798638820723642  19.344016830587954 10.207020225839535  19.673077138609855 8.480776201586293  Z " stroke-width="0" stroke-dasharray="0" stroke="rgba(121, 121, 121, 1)" fill="none" transform="matrix(1 0 0 1 189 613 )" class="stroke" mask="url(#Clip4970)" />
    <path d="M 12.833335201285424 9.54978236666542  C 12.833335201285424 9.54978236666542  14.243590462032856 9.169689271956802  14.243590462032856 9.169689271956802  C 14.698006232846682 10.705888164802952  15.29344584857837 12.154981052828226  16.0299130451321 13.516971947883075  C 16.78205049176386 14.87896284293792  17.659546203115678 16.090498018752715  18.662395509307323 17.151583847089928  C 19.66524388152293 18.19683254181135  20.77777746645243 19.020363961814915  22 19.622173859258982  C 21.811966338824096 19.780544841430096  21.608261493594114 19.99434077644342  21.38888826623819 20.263571516931673  C 21.16951503888227 20.548639391035714  20.989321172625605 20.794117734977114  20.84829545975565 21  C 19.594733360028066 20.30316753685239  18.45085367108624 19.38461897894293  17.41666573269062 18.244347718517965  C 16.398147110396987 17.088239206481603  15.50498488487132 15.773751216590838  14.737178122137575 14.300900740212255  C 13.969372293379875 12.812213012222276  13.334759854381247 11.22851522606249  12.833335201285424 9.54978236666542  Z " stroke-width="0" stroke-dasharray="0" stroke="rgba(121, 121, 121, 1)" fill="none" transform="matrix(1 0 0 1 189 613 )" class="stroke" mask="url(#Clip4970)" />
    <path d="M 11 20.97624229365109  L 11 0.0712731190467286  L 19.41453015401095 0.0712731190467286  L 19.41453015401095 1.7341615291007269  L 12 1.7341615291007269  L 12 20.97624229365109  L 11 20.97624229365109  Z " stroke-width="0" stroke-dasharray="0" stroke="rgba(121, 121, 121, 1)" fill="none" transform="matrix(1 0 0 1 189 613 )" class="stroke" mask="url(#Clip4970)" />
  </g>
</svg>