<?xml version="1.0" encoding="utf-8"?>
<svg version="1.1" xmlns:xlink="http://www.w3.org/1999/xlink" width="22px" height="22px" xmlns="http://www.w3.org/2000/svg">
  <defs>
    <pattern id="BGPattern" patternUnits="userSpaceOnUse" alignment="0 0" imageRepeat="None" />
    <mask fill="white" id="Clip4971">
      <path d="M 0.6629471124124002 16.854656503401266  L 0.6629471124124002 15.460106867152595  L 11.859377042811566 15.460106867152595  L 11.859377042811566 16.854656503401266  L 0.6629471124124002 16.854656503401266  Z M 0 5.289618321671519  L 0 4  L 12.2767886935674 4  L 12.2767886935674 5.289618321671519  L 0 5.289618321671519  Z M 5.328124786571926 19.379236643343038  L 5.328124786571926 1.7070992308066455  L 7 1.7070992308066455  L 7 19.379236643343038  L 5.328124786571926 19.379236643343038  Z M 0.24553546165656553 21.01421374820209  C 0.24553546165656553 21.01421374820209  0 19.427328251700633  0 19.427328251700633  C 0.9985119018581214 19.33115336498207  2.1443456417211193 19.226967410034952  3.4375003658766983 19.114763370553863  C 4.74702429155184 19.002559271359534  6.130208465455475 18.874323421876845  7.5870533754231975 18.730061076870697  C 9.060267608869383 18.585798731864546  10.51711154316591 18.433528125151998  11.957588105326366 18.273236657239938  C 11.957588105326366 18.273236657239938  11.982143797968652 19.691801524489808  11.982143797968652 19.691801524489808  C 10.590774718407989 19.852093037186798  9.191221221025891 20.012395522191177  7.7834833058223625 20.172687034888167  C 6.375744902783236 20.349007700347684  5.0252979123297346 20.501278262275306  3.732143310133055 20.629511454518923  C 2.4553576655381404 20.773773799525074  1.29315448023778 20.902009649007763  0.24553546165656553 21.01421374820209  Z M 10.238837922388019 10.987984741205  L 2.2589285888512713 10.987984741205  L 2.2589285888512713 12.743175580369241  L 10.238837922388019 12.743175580369241  L 10.238837922388019 10.987984741205  Z M 10.238837922388019 8.054641216812469  L 2.2589285888512713 8.054641216812469  L 2.2589285888512713 9.785801538386709  L 10.238837922388019 9.785801538386709  L 10.238837922388019 8.054641216812469  Z M 0.7366083363120871 14  L 0.7366083363120871 7  L 11.810269560211774 7  L 11.810269560211774 14  L 0.7366083363120871 14  Z M 8.69196587989133 0.4087480978619621  C 9.543156065703473 0.2805146369087738  10.287945892823405 0.14426240471938687  10.926338776100314 0  C 10.926338776100314 0  11.83482135016928 1.3945343496598734  11.83482135016928 1.3945343496598734  C 10.869047363514687 1.5868835856778558  9.755952880403113 1.7632048333414398  8.495535949492163 1.9234961818270255  C 7.235119506416812 2.0837884857244107  5.925595580741669 2.2200407179137978  4.566964660302334 2.3322442796889873  C 3.224702819423662 2.428418897697979  1.9397332448429125 2.4925365835863724  0.7120545950121915 2.5245954265305697  C 0.6793165578497626 2.332245235100787  0.613839020018112 2.1078247357852096  0.5156246646130267 1.8513587692906328  C 0.43377944974805505 1.5948918473842562  0.35193441782143264 1.3704866346574762  0.2700892029564611 1.1781373986394936  C 1.1867558289701612 1.130049611929098  2.1279760743248577 1.073948786453303  3.0937499390205505 1.0098320559767087  C 4.075892761318007 0.929686381733916  5.041667235808197 0.841533401196523  5.991071898984326 0.7453587831875317  C 6.956845885638918 0.6491832097667406  7.857144529722049 0.5369806034033505  8.69196587989133 0.4087480978619621  Z M 12.080358763168235 7.04480916083576  L 12.080358763168235 5.385786251797912  L 20.94419497813166 5.385786251797912  L 20.94419497813166 7.04480916083576  L 12.080358763168235 7.04480916083576  Z M 20.23214233446186 5.794534349659874  C 20.23214233446186 5.794534349659874  20.23214233446186 5.385786251797912  20.23214233446186 5.385786251797912  C 20.23214233446186 5.385786251797912  22 5.385786251797912  22 5.385786251797912  C 22 5.385786251797912  22 5.449904893098105  22 5.578137398639494  C 22 5.690341915826483  22 5.818577287603272  22 5.9628396923226585  C 22 6.091073153275847  22 6.195258899226637  22 6.27540457346943  C 21.934523681757344 8.824039116296198  21.860863433528852 10.971952453497503  21.77901827964333 12.719129776190442  C 21.713542937071868 14.450278393970136  21.631695831843956 15.868858906088231  21.533480866644375 16.974870237706455  C 21.435266877115986 18.080881688751155  21.312498170616507 18.93843424074293  21.16517669848833 19.54754198600582  C 21.03422406200302 20.14062054864957  20.86235177558853 20.56539618701665  20.649553985217697 20.821862601360507  C 20.436757170518057 21.142445596897865  20.19940661451852 21.366850749911407  19.937501341547893 21.495083972011646  C 19.675597044248462 21.623317194111884  19.364582337335655 21.703468481399  19.004463074836643 21.73552672721082  C 18.660712647980493 21.783614275068267  18.218751158609546 21.799647518187566  17.67857275269662 21.783618335568416  C 17.1383943467837 21.783618335568416  16.573660248228492 21.77560171400877  15.98437435971578 21.75957253138962  C 15.968005524072913 21.503106146902383  15.910714111487287 21.20656638787461  15.8125001219589 20.869954209718102  C 15.714285156759317 20.549371184324126  15.591517425931036 20.268864757985508  15.444195953802856 20.028427496404177  C 16.049850677958435 20.07651494722761  16.606397919514222 20.10054962235177  17.113838654141414 20.10054962235177  C 17.621279388768606 20.116578775114302  17.989584532595845 20.12459542653057  18.218751158609546 20.12459542653057  C 18.415180113337513 20.12459542653057  18.578870421108558 20.10054546481761  18.709822081922674 20.052458013994176  C 18.84077471840799 20.004370563170745  18.96354244923627 19.908201296960662  19.078126250078718 19.763938937026204  C 19.241816557849763 19.571589118804155  19.38095117297852 19.194898117274192  19.495533998149774 18.633877860155508  C 19.61011779899222 18.056828420417673  19.708333739862997 17.231327127788933  19.79017889374852 16.157374041982532  C 19.872024047634042 15.083420956176129  19.945684295862534 13.696907049723105  20.01116061410519 11.99781679718171  C 20.09300576799071 10.298727261199163  20.166666016219203 8.230965808417352  20.23214233446186 5.794534349659874  Z M 15.002232513089515 5.337709930029114  C 15.034970184375247 3.6386199163406685  15.051339995689307 1.88341570141123  15.051339995689307 0.07212212594759479  C 15.051339995689307 0.07212212594759479  16.843749451184955 0.07212212594759479  16.843749451184955 0.07212212594759479  C 16.827380615542086 1.9795912748320215  16.79464196858516 3.822947514887053  16.74553448598537 5.602183202818291  C 16.71279681469964 7.381418413043629  16.606397919514222 9.072489177789976  16.42633780042912 10.67540457346943  C 16.24627865701521 12.278319491442984  15.943454709786602 13.777051768554097  15.517859129044933 15.17158779018462  C 15.108633359617324 16.566124050668094  14.527529449748055 17.840435589610678  13.774553253464298 18.994534349659872  C 13.037945892823407 20.132604046516395  12.080358275332637 21.134425929963104  10.901786986142808 22  C 10.819941832257285 21.85573771470709  10.697173613593407 21.703467167707775  10.533482817986766 21.54317558036924  C 10.36979251021572 21.38288411245718  10.197915833280854 21.222596824471744  10.017856202031348 21.062305356559683  C 9.854165894260305 20.918042951840295  9.698662443488681 20.797823753773876  9.551340971360503 20.70164886705532  C 10.664435942307676 19.916220471261212  11.572919004212238 18.994534707939298  12.2767886935674 17.93661068532557  C 12.980657407251368 16.862657599519167  13.520835813164288 15.676513849996873  13.897323911306167 14.37815268522829  C 14.29018084509091 13.063762337840561  14.560270048047371 11.653183041266843  14.707591520175551 10.146442741302279  C 14.871281827946595 8.623673497571517  14.96949386613259 7.020770999951361  15.002232513089515 5.337709930029114  Z " fill-rule="evenodd" />
    </mask>
  </defs>
  <g transform="matrix(1 0 0 1 -165 -612 )">
    <path d="M 0.6629471124124002 16.854656503401266  L 0.6629471124124002 15.460106867152595  L 11.859377042811566 15.460106867152595  L 11.859377042811566 16.854656503401266  L 0.6629471124124002 16.854656503401266  Z M 0 5.289618321671519  L 0 4  L 12.2767886935674 4  L 12.2767886935674 5.289618321671519  L 0 5.289618321671519  Z M 5.328124786571926 19.379236643343038  L 5.328124786571926 1.7070992308066455  L 7 1.7070992308066455  L 7 19.379236643343038  L 5.328124786571926 19.379236643343038  Z M 0.24553546165656553 21.01421374820209  C 0.24553546165656553 21.01421374820209  0 19.427328251700633  0 19.427328251700633  C 0.9985119018581214 19.33115336498207  2.1443456417211193 19.226967410034952  3.4375003658766983 19.114763370553863  C 4.74702429155184 19.002559271359534  6.130208465455475 18.874323421876845  7.5870533754231975 18.730061076870697  C 9.060267608869383 18.585798731864546  10.51711154316591 18.433528125151998  11.957588105326366 18.273236657239938  C 11.957588105326366 18.273236657239938  11.982143797968652 19.691801524489808  11.982143797968652 19.691801524489808  C 10.590774718407989 19.852093037186798  9.191221221025891 20.012395522191177  7.7834833058223625 20.172687034888167  C 6.375744902783236 20.349007700347684  5.0252979123297346 20.501278262275306  3.732143310133055 20.629511454518923  C 2.4553576655381404 20.773773799525074  1.29315448023778 20.902009649007763  0.24553546165656553 21.01421374820209  Z M 10.238837922388019 10.987984741205  L 2.2589285888512713 10.987984741205  L 2.2589285888512713 12.743175580369241  L 10.238837922388019 12.743175580369241  L 10.238837922388019 10.987984741205  Z M 10.238837922388019 8.054641216812469  L 2.2589285888512713 8.054641216812469  L 2.2589285888512713 9.785801538386709  L 10.238837922388019 9.785801538386709  L 10.238837922388019 8.054641216812469  Z M 0.7366083363120871 14  L 0.7366083363120871 7  L 11.810269560211774 7  L 11.810269560211774 14  L 0.7366083363120871 14  Z M 8.69196587989133 0.4087480978619621  C 9.543156065703473 0.2805146369087738  10.287945892823405 0.14426240471938687  10.926338776100314 0  C 10.926338776100314 0  11.83482135016928 1.3945343496598734  11.83482135016928 1.3945343496598734  C 10.869047363514687 1.5868835856778558  9.755952880403113 1.7632048333414398  8.495535949492163 1.9234961818270255  C 7.235119506416812 2.0837884857244107  5.925595580741669 2.2200407179137978  4.566964660302334 2.3322442796889873  C 3.224702819423662 2.428418897697979  1.9397332448429125 2.4925365835863724  0.7120545950121915 2.5245954265305697  C 0.6793165578497626 2.332245235100787  0.613839020018112 2.1078247357852096  0.5156246646130267 1.8513587692906328  C 0.43377944974805505 1.5948918473842562  0.35193441782143264 1.3704866346574762  0.2700892029564611 1.1781373986394936  C 1.1867558289701612 1.130049611929098  2.1279760743248577 1.073948786453303  3.0937499390205505 1.0098320559767087  C 4.075892761318007 0.929686381733916  5.041667235808197 0.841533401196523  5.991071898984326 0.7453587831875317  C 6.956845885638918 0.6491832097667406  7.857144529722049 0.5369806034033505  8.69196587989133 0.4087480978619621  Z M 12.080358763168235 7.04480916083576  L 12.080358763168235 5.385786251797912  L 20.94419497813166 5.385786251797912  L 20.94419497813166 7.04480916083576  L 12.080358763168235 7.04480916083576  Z M 20.23214233446186 5.794534349659874  C 20.23214233446186 5.794534349659874  20.23214233446186 5.385786251797912  20.23214233446186 5.385786251797912  C 20.23214233446186 5.385786251797912  22 5.385786251797912  22 5.385786251797912  C 22 5.385786251797912  22 5.449904893098105  22 5.578137398639494  C 22 5.690341915826483  22 5.818577287603272  22 5.9628396923226585  C 22 6.091073153275847  22 6.195258899226637  22 6.27540457346943  C 21.934523681757344 8.824039116296198  21.860863433528852 10.971952453497503  21.77901827964333 12.719129776190442  C 21.713542937071868 14.450278393970136  21.631695831843956 15.868858906088231  21.533480866644375 16.974870237706455  C 21.435266877115986 18.080881688751155  21.312498170616507 18.93843424074293  21.16517669848833 19.54754198600582  C 21.03422406200302 20.14062054864957  20.86235177558853 20.56539618701665  20.649553985217697 20.821862601360507  C 20.436757170518057 21.142445596897865  20.19940661451852 21.366850749911407  19.937501341547893 21.495083972011646  C 19.675597044248462 21.623317194111884  19.364582337335655 21.703468481399  19.004463074836643 21.73552672721082  C 18.660712647980493 21.783614275068267  18.218751158609546 21.799647518187566  17.67857275269662 21.783618335568416  C 17.1383943467837 21.783618335568416  16.573660248228492 21.77560171400877  15.98437435971578 21.75957253138962  C 15.968005524072913 21.503106146902383  15.910714111487287 21.20656638787461  15.8125001219589 20.869954209718102  C 15.714285156759317 20.549371184324126  15.591517425931036 20.268864757985508  15.444195953802856 20.028427496404177  C 16.049850677958435 20.07651494722761  16.606397919514222 20.10054962235177  17.113838654141414 20.10054962235177  C 17.621279388768606 20.116578775114302  17.989584532595845 20.12459542653057  18.218751158609546 20.12459542653057  C 18.415180113337513 20.12459542653057  18.578870421108558 20.10054546481761  18.709822081922674 20.052458013994176  C 18.84077471840799 20.004370563170745  18.96354244923627 19.908201296960662  19.078126250078718 19.763938937026204  C 19.241816557849763 19.571589118804155  19.38095117297852 19.194898117274192  19.495533998149774 18.633877860155508  C 19.61011779899222 18.056828420417673  19.708333739862997 17.231327127788933  19.79017889374852 16.157374041982532  C 19.872024047634042 15.083420956176129  19.945684295862534 13.696907049723105  20.01116061410519 11.99781679718171  C 20.09300576799071 10.298727261199163  20.166666016219203 8.230965808417352  20.23214233446186 5.794534349659874  Z M 15.002232513089515 5.337709930029114  C 15.034970184375247 3.6386199163406685  15.051339995689307 1.88341570141123  15.051339995689307 0.07212212594759479  C 15.051339995689307 0.07212212594759479  16.843749451184955 0.07212212594759479  16.843749451184955 0.07212212594759479  C 16.827380615542086 1.9795912748320215  16.79464196858516 3.822947514887053  16.74553448598537 5.602183202818291  C 16.71279681469964 7.381418413043629  16.606397919514222 9.072489177789976  16.42633780042912 10.67540457346943  C 16.24627865701521 12.278319491442984  15.943454709786602 13.777051768554097  15.517859129044933 15.17158779018462  C 15.108633359617324 16.566124050668094  14.527529449748055 17.840435589610678  13.774553253464298 18.994534349659872  C 13.037945892823407 20.132604046516395  12.080358275332637 21.134425929963104  10.901786986142808 22  C 10.819941832257285 21.85573771470709  10.697173613593407 21.703467167707775  10.533482817986766 21.54317558036924  C 10.36979251021572 21.38288411245718  10.197915833280854 21.222596824471744  10.017856202031348 21.062305356559683  C 9.854165894260305 20.918042951840295  9.698662443488681 20.797823753773876  9.551340971360503 20.70164886705532  C 10.664435942307676 19.916220471261212  11.572919004212238 18.994534707939298  12.2767886935674 17.93661068532557  C 12.980657407251368 16.862657599519167  13.520835813164288 15.676513849996873  13.897323911306167 14.37815268522829  C 14.29018084509091 13.063762337840561  14.560270048047371 11.653183041266843  14.707591520175551 10.146442741302279  C 14.871281827946595 8.623673497571517  14.96949386613259 7.020770999951361  15.002232513089515 5.337709930029114  Z " fill-rule="nonzero" fill="rgba(0, 0, 0, 1)" stroke="none" transform="matrix(1 0 0 1 165 612 )" class="fill" />
    <path d="M 0.6629471124124002 16.854656503401266  L 0.6629471124124002 15.460106867152595  L 11.859377042811566 15.460106867152595  L 11.859377042811566 16.854656503401266  L 0.6629471124124002 16.854656503401266  Z " stroke-width="0" stroke-dasharray="0" stroke="rgba(121, 121, 121, 1)" fill="none" transform="matrix(1 0 0 1 165 612 )" class="stroke" mask="url(#Clip4971)" />
    <path d="M 0 5.289618321671519  L 0 4  L 12.2767886935674 4  L 12.2767886935674 5.289618321671519  L 0 5.289618321671519  Z " stroke-width="0" stroke-dasharray="0" stroke="rgba(121, 121, 121, 1)" fill="none" transform="matrix(1 0 0 1 165 612 )" class="stroke" mask="url(#Clip4971)" />
    <path d="M 5.328124786571926 19.379236643343038  L 5.328124786571926 1.7070992308066455  L 7 1.7070992308066455  L 7 19.379236643343038  L 5.328124786571926 19.379236643343038  Z " stroke-width="0" stroke-dasharray="0" stroke="rgba(121, 121, 121, 1)" fill="none" transform="matrix(1 0 0 1 165 612 )" class="stroke" mask="url(#Clip4971)" />
    <path d="M 0.24553546165656553 21.01421374820209  C 0.24553546165656553 21.01421374820209  0 19.427328251700633  0 19.427328251700633  C 0.9985119018581214 19.33115336498207  2.1443456417211193 19.226967410034952  3.4375003658766983 19.114763370553863  C 4.74702429155184 19.002559271359534  6.130208465455475 18.874323421876845  7.5870533754231975 18.730061076870697  C 9.060267608869383 18.585798731864546  10.51711154316591 18.433528125151998  11.957588105326366 18.273236657239938  C 11.957588105326366 18.273236657239938  11.982143797968652 19.691801524489808  11.982143797968652 19.691801524489808  C 10.590774718407989 19.852093037186798  9.191221221025891 20.012395522191177  7.7834833058223625 20.172687034888167  C 6.375744902783236 20.349007700347684  5.0252979123297346 20.501278262275306  3.732143310133055 20.629511454518923  C 2.4553576655381404 20.773773799525074  1.29315448023778 20.902009649007763  0.24553546165656553 21.01421374820209  Z " stroke-width="0" stroke-dasharray="0" stroke="rgba(121, 121, 121, 1)" fill="none" transform="matrix(1 0 0 1 165 612 )" class="stroke" mask="url(#Clip4971)" />
    <path d="M 10.238837922388019 10.987984741205  L 2.2589285888512713 10.987984741205  L 2.2589285888512713 12.743175580369241  L 10.238837922388019 12.743175580369241  L 10.238837922388019 10.987984741205  Z " stroke-width="0" stroke-dasharray="0" stroke="rgba(121, 121, 121, 1)" fill="none" transform="matrix(1 0 0 1 165 612 )" class="stroke" mask="url(#Clip4971)" />
    <path d="M 10.238837922388019 8.054641216812469  L 2.2589285888512713 8.054641216812469  L 2.2589285888512713 9.785801538386709  L 10.238837922388019 9.785801538386709  L 10.238837922388019 8.054641216812469  Z " stroke-width="0" stroke-dasharray="0" stroke="rgba(121, 121, 121, 1)" fill="none" transform="matrix(1 0 0 1 165 612 )" class="stroke" mask="url(#Clip4971)" />
    <path d="M 0.7366083363120871 14  L 0.7366083363120871 7  L 11.810269560211774 7  L 11.810269560211774 14  L 0.7366083363120871 14  Z " stroke-width="0" stroke-dasharray="0" stroke="rgba(121, 121, 121, 1)" fill="none" transform="matrix(1 0 0 1 165 612 )" class="stroke" mask="url(#Clip4971)" />
    <path d="M 8.69196587989133 0.4087480978619621  C 9.543156065703473 0.2805146369087738  10.287945892823405 0.14426240471938687  10.926338776100314 0  C 10.926338776100314 0  11.83482135016928 1.3945343496598734  11.83482135016928 1.3945343496598734  C 10.869047363514687 1.5868835856778558  9.755952880403113 1.7632048333414398  8.495535949492163 1.9234961818270255  C 7.235119506416812 2.0837884857244107  5.925595580741669 2.2200407179137978  4.566964660302334 2.3322442796889873  C 3.224702819423662 2.428418897697979  1.9397332448429125 2.4925365835863724  0.7120545950121915 2.5245954265305697  C 0.6793165578497626 2.332245235100787  0.613839020018112 2.1078247357852096  0.5156246646130267 1.8513587692906328  C 0.43377944974805505 1.5948918473842562  0.35193441782143264 1.3704866346574762  0.2700892029564611 1.1781373986394936  C 1.1867558289701612 1.130049611929098  2.1279760743248577 1.073948786453303  3.0937499390205505 1.0098320559767087  C 4.075892761318007 0.929686381733916  5.041667235808197 0.841533401196523  5.991071898984326 0.7453587831875317  C 6.956845885638918 0.6491832097667406  7.857144529722049 0.5369806034033505  8.69196587989133 0.4087480978619621  Z " stroke-width="0" stroke-dasharray="0" stroke="rgba(121, 121, 121, 1)" fill="none" transform="matrix(1 0 0 1 165 612 )" class="stroke" mask="url(#Clip4971)" />
    <path d="M 12.080358763168235 7.04480916083576  L 12.080358763168235 5.385786251797912  L 20.94419497813166 5.385786251797912  L 20.94419497813166 7.04480916083576  L 12.080358763168235 7.04480916083576  Z " stroke-width="0" stroke-dasharray="0" stroke="rgba(121, 121, 121, 1)" fill="none" transform="matrix(1 0 0 1 165 612 )" class="stroke" mask="url(#Clip4971)" />
    <path d="M 20.23214233446186 5.794534349659874  C 20.23214233446186 5.794534349659874  20.23214233446186 5.385786251797912  20.23214233446186 5.385786251797912  C 20.23214233446186 5.385786251797912  22 5.385786251797912  22 5.385786251797912  C 22 5.385786251797912  22 5.449904893098105  22 5.578137398639494  C 22 5.690341915826483  22 5.818577287603272  22 5.9628396923226585  C 22 6.091073153275847  22 6.195258899226637  22 6.27540457346943  C 21.934523681757344 8.824039116296198  21.860863433528852 10.971952453497503  21.77901827964333 12.719129776190442  C 21.713542937071868 14.450278393970136  21.631695831843956 15.868858906088231  21.533480866644375 16.974870237706455  C 21.435266877115986 18.080881688751155  21.312498170616507 18.93843424074293  21.16517669848833 19.54754198600582  C 21.03422406200302 20.14062054864957  20.86235177558853 20.56539618701665  20.649553985217697 20.821862601360507  C 20.436757170518057 21.142445596897865  20.19940661451852 21.366850749911407  19.937501341547893 21.495083972011646  C 19.675597044248462 21.623317194111884  19.364582337335655 21.703468481399  19.004463074836643 21.73552672721082  C 18.660712647980493 21.783614275068267  18.218751158609546 21.799647518187566  17.67857275269662 21.783618335568416  C 17.1383943467837 21.783618335568416  16.573660248228492 21.77560171400877  15.98437435971578 21.75957253138962  C 15.968005524072913 21.503106146902383  15.910714111487287 21.20656638787461  15.8125001219589 20.869954209718102  C 15.714285156759317 20.549371184324126  15.591517425931036 20.268864757985508  15.444195953802856 20.028427496404177  C 16.049850677958435 20.07651494722761  16.606397919514222 20.10054962235177  17.113838654141414 20.10054962235177  C 17.621279388768606 20.116578775114302  17.989584532595845 20.12459542653057  18.218751158609546 20.12459542653057  C 18.415180113337513 20.12459542653057  18.578870421108558 20.10054546481761  18.709822081922674 20.052458013994176  C 18.84077471840799 20.004370563170745  18.96354244923627 19.908201296960662  19.078126250078718 19.763938937026204  C 19.241816557849763 19.571589118804155  19.38095117297852 19.194898117274192  19.495533998149774 18.633877860155508  C 19.61011779899222 18.056828420417673  19.708333739862997 17.231327127788933  19.79017889374852 16.157374041982532  C 19.872024047634042 15.083420956176129  19.945684295862534 13.696907049723105  20.01116061410519 11.99781679718171  C 20.09300576799071 10.298727261199163  20.166666016219203 8.230965808417352  20.23214233446186 5.794534349659874  Z " stroke-width="0" stroke-dasharray="0" stroke="rgba(121, 121, 121, 1)" fill="none" transform="matrix(1 0 0 1 165 612 )" class="stroke" mask="url(#Clip4971)" />
    <path d="M 15.002232513089515 5.337709930029114  C 15.034970184375247 3.6386199163406685  15.051339995689307 1.88341570141123  15.051339995689307 0.07212212594759479  C 15.051339995689307 0.07212212594759479  16.843749451184955 0.07212212594759479  16.843749451184955 0.07212212594759479  C 16.827380615542086 1.9795912748320215  16.79464196858516 3.822947514887053  16.74553448598537 5.602183202818291  C 16.71279681469964 7.381418413043629  16.606397919514222 9.072489177789976  16.42633780042912 10.67540457346943  C 16.24627865701521 12.278319491442984  15.943454709786602 13.777051768554097  15.517859129044933 15.17158779018462  C 15.108633359617324 16.566124050668094  14.527529449748055 17.840435589610678  13.774553253464298 18.994534349659872  C 13.037945892823407 20.132604046516395  12.080358275332637 21.134425929963104  10.901786986142808 22  C 10.819941832257285 21.85573771470709  10.697173613593407 21.703467167707775  10.533482817986766 21.54317558036924  C 10.36979251021572 21.38288411245718  10.197915833280854 21.222596824471744  10.017856202031348 21.062305356559683  C 9.854165894260305 20.918042951840295  9.698662443488681 20.797823753773876  9.551340971360503 20.70164886705532  C 10.664435942307676 19.916220471261212  11.572919004212238 18.994534707939298  12.2767886935674 17.93661068532557  C 12.980657407251368 16.862657599519167  13.520835813164288 15.676513849996873  13.897323911306167 14.37815268522829  C 14.29018084509091 13.063762337840561  14.560270048047371 11.653183041266843  14.707591520175551 10.146442741302279  C 14.871281827946595 8.623673497571517  14.96949386613259 7.020770999951361  15.002232513089515 5.337709930029114  Z " stroke-width="0" stroke-dasharray="0" stroke="rgba(121, 121, 121, 1)" fill="none" transform="matrix(1 0 0 1 165 612 )" class="stroke" mask="url(#Clip4971)" />
  </g>
</svg>