<?xml version="1.0" encoding="utf-8"?>
<svg version="1.1" xmlns:xlink="http://www.w3.org/1999/xlink" width="22px" height="22px" xmlns="http://www.w3.org/2000/svg">
  <defs>
    <pattern id="BGPattern" patternUnits="userSpaceOnUse" alignment="0 0" imageRepeat="None" />
    <mask fill="white" id="Clip4941">
      <path d="M 0 8  L 0 6  L 22 6  L 22 8  L 0 8  Z M 4.574260168066287 20  L 4.574260168066287 18.48962076084079  L 21.177115875091406 18.48962076084079  L 21.177115875091406 20  L 4.574260168066287 20  Z M 10.81848540304889 14.378142694648517  L 10.81848540304889 12.695090437481023  L 17.183717804751723 12.695090437481023  L 17.183717804751723 14.378142694648517  L 10.81848540304889 14.378142694648517  Z M 4 22  L 4 0.5289767511991278  L 5.49395464259598 0.5289767511991278  L 5.49395464259598 22  L 4 22  Z M 10 15.556294561243938  L 10 0  L 11.834982533458158 0  L 11.834982533458158 15.556294561243938  L 10 15.556294561243938  Z M 16 15.436065623890421  L 16 0.2885341630702675  L 18 0.2885341630702675  L 18 15.436065623890421  L 16 15.436065623890421  Z " fill-rule="evenodd" />
    </mask>
  </defs>
  <g transform="matrix(1 0 0 1 -207 -643 )">
    <path d="M 0 8  L 0 6  L 22 6  L 22 8  L 0 8  Z M 4.574260168066287 20  L 4.574260168066287 18.48962076084079  L 21.177115875091406 18.48962076084079  L 21.177115875091406 20  L 4.574260168066287 20  Z M 10.81848540304889 14.378142694648517  L 10.81848540304889 12.695090437481023  L 17.183717804751723 12.695090437481023  L 17.183717804751723 14.378142694648517  L 10.81848540304889 14.378142694648517  Z M 4 22  L 4 0.5289767511991278  L 5.49395464259598 0.5289767511991278  L 5.49395464259598 22  L 4 22  Z M 10 15.556294561243938  L 10 0  L 11.834982533458158 0  L 11.834982533458158 15.556294561243938  L 10 15.556294561243938  Z M 16 15.436065623890421  L 16 0.2885341630702675  L 18 0.2885341630702675  L 18 15.436065623890421  L 16 15.436065623890421  Z " fill-rule="nonzero" fill="rgba(0, 0, 0, 1)" stroke="none" transform="matrix(1 0 0 1 207 643 )" class="fill" />
    <path d="M 0 8  L 0 6  L 22 6  L 22 8  L 0 8  Z " stroke-width="0" stroke-dasharray="0" stroke="rgba(121, 121, 121, 1)" fill="none" transform="matrix(1 0 0 1 207 643 )" class="stroke" mask="url(#Clip4941)" />
    <path d="M 4.574260168066287 20  L 4.574260168066287 18.48962076084079  L 21.177115875091406 18.48962076084079  L 21.177115875091406 20  L 4.574260168066287 20  Z " stroke-width="0" stroke-dasharray="0" stroke="rgba(121, 121, 121, 1)" fill="none" transform="matrix(1 0 0 1 207 643 )" class="stroke" mask="url(#Clip4941)" />
    <path d="M 10.81848540304889 14.378142694648517  L 10.81848540304889 12.695090437481023  L 17.183717804751723 12.695090437481023  L 17.183717804751723 14.378142694648517  L 10.81848540304889 14.378142694648517  Z " stroke-width="0" stroke-dasharray="0" stroke="rgba(121, 121, 121, 1)" fill="none" transform="matrix(1 0 0 1 207 643 )" class="stroke" mask="url(#Clip4941)" />
    <path d="M 4 22  L 4 0.5289767511991278  L 5.49395464259598 0.5289767511991278  L 5.49395464259598 22  L 4 22  Z " stroke-width="0" stroke-dasharray="0" stroke="rgba(121, 121, 121, 1)" fill="none" transform="matrix(1 0 0 1 207 643 )" class="stroke" mask="url(#Clip4941)" />
    <path d="M 10 15.556294561243938  L 10 0  L 11.834982533458158 0  L 11.834982533458158 15.556294561243938  L 10 15.556294561243938  Z " stroke-width="0" stroke-dasharray="0" stroke="rgba(121, 121, 121, 1)" fill="none" transform="matrix(1 0 0 1 207 643 )" class="stroke" mask="url(#Clip4941)" />
    <path d="M 16 15.436065623890421  L 16 0.2885341630702675  L 18 0.2885341630702675  L 18 15.436065623890421  L 16 15.436065623890421  Z " stroke-width="0" stroke-dasharray="0" stroke="rgba(121, 121, 121, 1)" fill="none" transform="matrix(1 0 0 1 207 643 )" class="stroke" mask="url(#Clip4941)" />
  </g>
</svg>