<?xml version="1.0" encoding="utf-8"?>
<svg version="1.1" xmlns:xlink="http://www.w3.org/1999/xlink" width="22px" height="21px" xmlns="http://www.w3.org/2000/svg">
  <defs>
    <pattern id="BGPattern" patternUnits="userSpaceOnUse" alignment="0 0" imageRepeat="None" />
    <mask fill="white" id="Clip4929">
      <path d="M 9.199971712764887 4.503445037614707  C 8.713697439121246 3.7970238064858575  8.227446539845563 3.1467940097175577  7.7411717987145625 2.5527575612195945  C 7.7411717987145625 2.5527575612195945  9.31764389090919 1.7821103024487839  9.31764389090919 1.7821103024487839  C 9.835291241224837 2.3600919187073197  10.337232418735397 2.994262098461727  10.823506692379038 3.6846284973511487  C 11.309780966022679 4.374994896240571  11.748990482297359 5.05734201312687  12.141147863361775 5.731654536731757  C 12.533304309451472 6.38991031418743  12.839191573259859 7.000007336654179  13.058799370065032 7.561934120673288  C 13.058799370065032 7.561934120673288  11.364685018917088 8.477058601365766  11.364685018917088 8.477058601365766  C 11.160763292960558 7.931187128063532  10.870567242361766 7.31307608684557  10.494096399633355 6.6227096879561484  C 10.1176260243923 5.916287499872405  9.686246453895887 5.209867225698449  9.199971712764887 4.503445037614707  Z M 0.6352741821861138 18.30274990558045  C 0.6352741821861138 18.30274990558045  0 16.42431635142446  0 16.42431635142446  C 0.7999999564386778 16.103215639577613  1.725490583359626 15.717886507701571  2.776471004224046 15.268345463268243  C 3.8431376128089494 14.81880417959619  4.96468279622719 14.337150599819328  6.141153303214681 13.823389508712118  C 7.333310114794497 13.293573106888033  8.517646797830587 12.771786752809618  9.694117071074398 12.258025661702408  C 9.694117071074398 12.258025661702408  10.094106735353876 14.01605132340482  10.094106735353876 14.01605132340482  C 9.011753822176649 14.513757582272602  7.905869465289658 15.019499869854135  6.776457404591779 15.533261200200066  C 5.647045811381261 16.047022530546002  4.556851265241788 16.54471993758102  3.505870961249208 17.026371124970655  C 2.4548907741284673 17.491967240882133  1.498019298558167 17.91742893772584  0.6352741821861138 18.30274990558045  Z M 15.858816777594333 15.172022211561035  C 15.262738605548106 14.48165557343289  14.682345569375803 13.847470082400196  14.117639539026866 13.269488705380382  C 14.117639539026866 13.269488705380382  15.482343597429125 12.065363847009706  15.482343597429125 12.065363847009706  C 16.03136355692942 12.643345463268243  16.61175659310172 13.253442007257545  17.223520835996595 13.895643430951239  C 17.85097208471483 14.537845093883654  18.4627157581659 15.19610398144273  19.05879393021213 15.870415548092724  C 19.654873037233074 16.528672282503294  20.211744914417515 17.162842282828656  20.729391797245803 17.77293374299509  C 21.24703868007409 18.383025262971206  21.67058783730488 18.93692992402735  22 19.434636152990294  C 22 19.434636152990294  20.49410727933917 20.855507466800045  20.49410727933917 20.855507466800045  C 20.164695116644044 20.357801207932262  19.756836705135495 19.795867007512733  19.270561964004493 19.169720416058468  C 18.784288157848213 18.543573884413885  18.243136010602274 17.89334456612303  17.647056903581326 17.219032939663357  C 17.06666480238374 16.52866618191585  16.470581020489206 15.846333897830393  15.858816777594333 15.172022211561035  Z M 16.235289957759544 7.056187287556013  C 16.737250769739187 4.985087612410301  17.113698705587 2.633026937642267  17.36467957906418 0  C 17.36467957906418 0  19.29410836730975 0.19266181469270263  19.29410836730975 0.19266181469270263  C 18.996068346311915 2.9862380316841386  18.572519189081127 5.474771479171558  18.02350016455555 7.658257372380496  C 17.474480205055258 9.841742787111988  16.737244224916157 11.776371364209377  15.81175389017481 13.462150520073086  C 14.901950561256823 15.131874604458645  13.733334075646594 16.58486503267682  12.305882928925602 17.821103024487837  C 10.894118320540613 19.057341135918218  9.160769157801973 20.11697280318245  7.105867697337464 21  C 7.027435940632166 20.871559667413518  6.901943166456779 20.70298398870921  6.729394517172256 20.494268478161015  C 6.556845400400373 20.301607979281286  6.376451378254732 20.108943473152948  6.188216190634206 19.916283034082905  C 5.999980535526319 19.72362253520318  5.835276791615554 19.563076455671933  5.694100751515679 19.434636152990294  C 7.733316141131544 18.663994277090755  9.43528427991307 17.716746256073474  10.799990208264768 16.592893525370787  C 12.18038173997775 15.45298572318995  13.309786788365242 14.096335532628334  14.188218910560657 12.522941398634234  C 15.066650097781356 10.933492432400707  15.74901615160326 9.111232130462298  16.235289957759544 7.056187287556013  Z M 3.2705864433425718 15.990823440546306  L 2.8470503757578394 0.07225392223912133  L 4.658806985859102 0  L 5.082343053443835 15.918569518307185  L 3.2705864433425718 15.990823440546306  Z " fill-rule="evenodd" />
    </mask>
  </defs>
  <g transform="matrix(1 0 0 1 -525 -644 )">
    <path d="M 9.199971712764887 4.503445037614707  C 8.713697439121246 3.7970238064858575  8.227446539845563 3.1467940097175577  7.7411717987145625 2.5527575612195945  C 7.7411717987145625 2.5527575612195945  9.31764389090919 1.7821103024487839  9.31764389090919 1.7821103024487839  C 9.835291241224837 2.3600919187073197  10.337232418735397 2.994262098461727  10.823506692379038 3.6846284973511487  C 11.309780966022679 4.374994896240571  11.748990482297359 5.05734201312687  12.141147863361775 5.731654536731757  C 12.533304309451472 6.38991031418743  12.839191573259859 7.000007336654179  13.058799370065032 7.561934120673288  C 13.058799370065032 7.561934120673288  11.364685018917088 8.477058601365766  11.364685018917088 8.477058601365766  C 11.160763292960558 7.931187128063532  10.870567242361766 7.31307608684557  10.494096399633355 6.6227096879561484  C 10.1176260243923 5.916287499872405  9.686246453895887 5.209867225698449  9.199971712764887 4.503445037614707  Z M 0.6352741821861138 18.30274990558045  C 0.6352741821861138 18.30274990558045  0 16.42431635142446  0 16.42431635142446  C 0.7999999564386778 16.103215639577613  1.725490583359626 15.717886507701571  2.776471004224046 15.268345463268243  C 3.8431376128089494 14.81880417959619  4.96468279622719 14.337150599819328  6.141153303214681 13.823389508712118  C 7.333310114794497 13.293573106888033  8.517646797830587 12.771786752809618  9.694117071074398 12.258025661702408  C 9.694117071074398 12.258025661702408  10.094106735353876 14.01605132340482  10.094106735353876 14.01605132340482  C 9.011753822176649 14.513757582272602  7.905869465289658 15.019499869854135  6.776457404591779 15.533261200200066  C 5.647045811381261 16.047022530546002  4.556851265241788 16.54471993758102  3.505870961249208 17.026371124970655  C 2.4548907741284673 17.491967240882133  1.498019298558167 17.91742893772584  0.6352741821861138 18.30274990558045  Z M 15.858816777594333 15.172022211561035  C 15.262738605548106 14.48165557343289  14.682345569375803 13.847470082400196  14.117639539026866 13.269488705380382  C 14.117639539026866 13.269488705380382  15.482343597429125 12.065363847009706  15.482343597429125 12.065363847009706  C 16.03136355692942 12.643345463268243  16.61175659310172 13.253442007257545  17.223520835996595 13.895643430951239  C 17.85097208471483 14.537845093883654  18.4627157581659 15.19610398144273  19.05879393021213 15.870415548092724  C 19.654873037233074 16.528672282503294  20.211744914417515 17.162842282828656  20.729391797245803 17.77293374299509  C 21.24703868007409 18.383025262971206  21.67058783730488 18.93692992402735  22 19.434636152990294  C 22 19.434636152990294  20.49410727933917 20.855507466800045  20.49410727933917 20.855507466800045  C 20.164695116644044 20.357801207932262  19.756836705135495 19.795867007512733  19.270561964004493 19.169720416058468  C 18.784288157848213 18.543573884413885  18.243136010602274 17.89334456612303  17.647056903581326 17.219032939663357  C 17.06666480238374 16.52866618191585  16.470581020489206 15.846333897830393  15.858816777594333 15.172022211561035  Z M 16.235289957759544 7.056187287556013  C 16.737250769739187 4.985087612410301  17.113698705587 2.633026937642267  17.36467957906418 0  C 17.36467957906418 0  19.29410836730975 0.19266181469270263  19.29410836730975 0.19266181469270263  C 18.996068346311915 2.9862380316841386  18.572519189081127 5.474771479171558  18.02350016455555 7.658257372380496  C 17.474480205055258 9.841742787111988  16.737244224916157 11.776371364209377  15.81175389017481 13.462150520073086  C 14.901950561256823 15.131874604458645  13.733334075646594 16.58486503267682  12.305882928925602 17.821103024487837  C 10.894118320540613 19.057341135918218  9.160769157801973 20.11697280318245  7.105867697337464 21  C 7.027435940632166 20.871559667413518  6.901943166456779 20.70298398870921  6.729394517172256 20.494268478161015  C 6.556845400400373 20.301607979281286  6.376451378254732 20.108943473152948  6.188216190634206 19.916283034082905  C 5.999980535526319 19.72362253520318  5.835276791615554 19.563076455671933  5.694100751515679 19.434636152990294  C 7.733316141131544 18.663994277090755  9.43528427991307 17.716746256073474  10.799990208264768 16.592893525370787  C 12.18038173997775 15.45298572318995  13.309786788365242 14.096335532628334  14.188218910560657 12.522941398634234  C 15.066650097781356 10.933492432400707  15.74901615160326 9.111232130462298  16.235289957759544 7.056187287556013  Z M 3.2705864433425718 15.990823440546306  L 2.8470503757578394 0.07225392223912133  L 4.658806985859102 0  L 5.082343053443835 15.918569518307185  L 3.2705864433425718 15.990823440546306  Z " fill-rule="nonzero" fill="rgba(0, 0, 0, 1)" stroke="none" transform="matrix(1 0 0 1 525 644 )" class="fill" />
    <path d="M 9.199971712764887 4.503445037614707  C 8.713697439121246 3.7970238064858575  8.227446539845563 3.1467940097175577  7.7411717987145625 2.5527575612195945  C 7.7411717987145625 2.5527575612195945  9.31764389090919 1.7821103024487839  9.31764389090919 1.7821103024487839  C 9.835291241224837 2.3600919187073197  10.337232418735397 2.994262098461727  10.823506692379038 3.6846284973511487  C 11.309780966022679 4.374994896240571  11.748990482297359 5.05734201312687  12.141147863361775 5.731654536731757  C 12.533304309451472 6.38991031418743  12.839191573259859 7.000007336654179  13.058799370065032 7.561934120673288  C 13.058799370065032 7.561934120673288  11.364685018917088 8.477058601365766  11.364685018917088 8.477058601365766  C 11.160763292960558 7.931187128063532  10.870567242361766 7.31307608684557  10.494096399633355 6.6227096879561484  C 10.1176260243923 5.916287499872405  9.686246453895887 5.209867225698449  9.199971712764887 4.503445037614707  Z " stroke-width="0" stroke-dasharray="0" stroke="rgba(121, 121, 121, 1)" fill="none" transform="matrix(1 0 0 1 525 644 )" class="stroke" mask="url(#Clip4929)" />
    <path d="M 0.6352741821861138 18.30274990558045  C 0.6352741821861138 18.30274990558045  0 16.42431635142446  0 16.42431635142446  C 0.7999999564386778 16.103215639577613  1.725490583359626 15.717886507701571  2.776471004224046 15.268345463268243  C 3.8431376128089494 14.81880417959619  4.96468279622719 14.337150599819328  6.141153303214681 13.823389508712118  C 7.333310114794497 13.293573106888033  8.517646797830587 12.771786752809618  9.694117071074398 12.258025661702408  C 9.694117071074398 12.258025661702408  10.094106735353876 14.01605132340482  10.094106735353876 14.01605132340482  C 9.011753822176649 14.513757582272602  7.905869465289658 15.019499869854135  6.776457404591779 15.533261200200066  C 5.647045811381261 16.047022530546002  4.556851265241788 16.54471993758102  3.505870961249208 17.026371124970655  C 2.4548907741284673 17.491967240882133  1.498019298558167 17.91742893772584  0.6352741821861138 18.30274990558045  Z " stroke-width="0" stroke-dasharray="0" stroke="rgba(121, 121, 121, 1)" fill="none" transform="matrix(1 0 0 1 525 644 )" class="stroke" mask="url(#Clip4929)" />
    <path d="M 15.858816777594333 15.172022211561035  C 15.262738605548106 14.48165557343289  14.682345569375803 13.847470082400196  14.117639539026866 13.269488705380382  C 14.117639539026866 13.269488705380382  15.482343597429125 12.065363847009706  15.482343597429125 12.065363847009706  C 16.03136355692942 12.643345463268243  16.61175659310172 13.253442007257545  17.223520835996595 13.895643430951239  C 17.85097208471483 14.537845093883654  18.4627157581659 15.19610398144273  19.05879393021213 15.870415548092724  C 19.654873037233074 16.528672282503294  20.211744914417515 17.162842282828656  20.729391797245803 17.77293374299509  C 21.24703868007409 18.383025262971206  21.67058783730488 18.93692992402735  22 19.434636152990294  C 22 19.434636152990294  20.49410727933917 20.855507466800045  20.49410727933917 20.855507466800045  C 20.164695116644044 20.357801207932262  19.756836705135495 19.795867007512733  19.270561964004493 19.169720416058468  C 18.784288157848213 18.543573884413885  18.243136010602274 17.89334456612303  17.647056903581326 17.219032939663357  C 17.06666480238374 16.52866618191585  16.470581020489206 15.846333897830393  15.858816777594333 15.172022211561035  Z " stroke-width="0" stroke-dasharray="0" stroke="rgba(121, 121, 121, 1)" fill="none" transform="matrix(1 0 0 1 525 644 )" class="stroke" mask="url(#Clip4929)" />
    <path d="M 16.235289957759544 7.056187287556013  C 16.737250769739187 4.985087612410301  17.113698705587 2.633026937642267  17.36467957906418 0  C 17.36467957906418 0  19.29410836730975 0.19266181469270263  19.29410836730975 0.19266181469270263  C 18.996068346311915 2.9862380316841386  18.572519189081127 5.474771479171558  18.02350016455555 7.658257372380496  C 17.474480205055258 9.841742787111988  16.737244224916157 11.776371364209377  15.81175389017481 13.462150520073086  C 14.901950561256823 15.131874604458645  13.733334075646594 16.58486503267682  12.305882928925602 17.821103024487837  C 10.894118320540613 19.057341135918218  9.160769157801973 20.11697280318245  7.105867697337464 21  C 7.027435940632166 20.871559667413518  6.901943166456779 20.70298398870921  6.729394517172256 20.494268478161015  C 6.556845400400373 20.301607979281286  6.376451378254732 20.108943473152948  6.188216190634206 19.916283034082905  C 5.999980535526319 19.72362253520318  5.835276791615554 19.563076455671933  5.694100751515679 19.434636152990294  C 7.733316141131544 18.663994277090755  9.43528427991307 17.716746256073474  10.799990208264768 16.592893525370787  C 12.18038173997775 15.45298572318995  13.309786788365242 14.096335532628334  14.188218910560657 12.522941398634234  C 15.066650097781356 10.933492432400707  15.74901615160326 9.111232130462298  16.235289957759544 7.056187287556013  Z " stroke-width="0" stroke-dasharray="0" stroke="rgba(121, 121, 121, 1)" fill="none" transform="matrix(1 0 0 1 525 644 )" class="stroke" mask="url(#Clip4929)" />
    <path d="M 3.2705864433425718 15.990823440546306  L 2.8470503757578394 0.07225392223912133  L 4.658806985859102 0  L 5.082343053443835 15.918569518307185  L 3.2705864433425718 15.990823440546306  Z " stroke-width="0" stroke-dasharray="0" stroke="rgba(121, 121, 121, 1)" fill="none" transform="matrix(1 0 0 1 525 644 )" class="stroke" mask="url(#Clip4929)" />
  </g>
</svg>