<?xml version="1.0" encoding="utf-8"?>
<svg version="1.1" xmlns:xlink="http://www.w3.org/1999/xlink" width="10px" height="12px" xmlns="http://www.w3.org/2000/svg">
  <defs>
    <pattern id="BGPattern" patternUnits="userSpaceOnUse" alignment="0 0" imageRepeat="None" />
    <mask fill="white" id="Clip4985">
      <path d="M 5.946602728310855 5.878045975377625  L 10 12  L 7.888350282398692 12  L 5.024272013209469 7.341463257043687  L 2.1116506820777134 12  L 0 12  L 4.053397271689145 5.878045975377625  L 0.16990312798987686 0  L 2.2815538100675905 0  L 5.024272013209469 4.439021049326161  L 7.7184461899324095 0  L 9.830097836486528 0  L 5.946602728310855 5.878045975377625  Z " fill-rule="evenodd" />
    </mask>
  </defs>
  <g transform="matrix(1 0 0 1 -153 -558 )">
    <path d="M 5.946602728310855 5.878045975377625  L 10 12  L 7.888350282398692 12  L 5.024272013209469 7.341463257043687  L 2.1116506820777134 12  L 0 12  L 4.053397271689145 5.878045975377625  L 0.16990312798987686 0  L 2.2815538100675905 0  L 5.024272013209469 4.439021049326161  L 7.7184461899324095 0  L 9.830097836486528 0  L 5.946602728310855 5.878045975377625  Z " fill-rule="nonzero" fill="rgba(0, 0, 0, 1)" stroke="none" transform="matrix(1 0 0 1 153 558 )" class="fill" />
    <path d="M 5.946602728310855 5.878045975377625  L 10 12  L 7.888350282398692 12  L 5.024272013209469 7.341463257043687  L 2.1116506820777134 12  L 0 12  L 4.053397271689145 5.878045975377625  L 0.16990312798987686 0  L 2.2815538100675905 0  L 5.024272013209469 4.439021049326161  L 7.7184461899324095 0  L 9.830097836486528 0  L 5.946602728310855 5.878045975377625  Z " stroke-width="0" stroke-dasharray="0" stroke="rgba(121, 121, 121, 1)" fill="none" transform="matrix(1 0 0 1 153 558 )" class="stroke" mask="url(#Clip4985)" />
  </g>
</svg>