<?xml version="1.0" encoding="utf-8"?>
<svg version="1.1" xmlns:xlink="http://www.w3.org/1999/xlink" width="22px" height="22px" xmlns="http://www.w3.org/2000/svg">
  <defs>
    <pattern id="BGPattern" patternUnits="userSpaceOnUse" alignment="0 0" imageRepeat="None" />
    <mask fill="white" id="Clip4942">
      <path d="M 8.96904985738989 4.275791656542005  L 8.96904985738989 3  L 21.647811553132147 3  L 21.647811553132147 4.275791656542005  L 8.96904985738989 4.275791656542005  Z M 12.138742147283827 9.26819677925291  L 12.138742147283827 7.763302425500895  L 18.26681067341759 7.763302425500895  L 18.26681067341759 9.26819677925291  L 12.138742147283827 9.26819677925291  Z M 9.485591917618278 12.779596688683204  L 9.485591917618278 11  L 21.0373520761501 11  L 21.0373520761501 12.779596688683204  L 9.485591917618278 12.779596688683204  Z M 11.786553700415974 16.123787801806976  L 11.786553700415974 14.61889344805496  L 18.924228858776466 14.61889344805496  L 18.924228858776466 16.123787801806976  L 11.786553700415974 16.123787801806976  Z M 15.68410037227566 3.5352890499016985  C 15.68410037227566 3.5352890499016985  17.186767844583986 3.057551801453533  17.186767844583986 3.057551801453533  C 17.499823412485025 3.8537878259681015  17.898968701771338 4.634103135561864  18.384205578401293 5.3984901367381655  C 18.885095046830465 6.162876188727385  19.448596748414868 6.855598616050719  20.07470788421694 7.476663113830657  C 20.700819952998206 8.097726662423513  21.34258274762031 8.591384625792484  22 8.957653140117962  C 21.812167032451054 9.116900155183458  21.60085191177613 9.339858505544633  21.366059302871168 9.626503512337361  C 21.131267626945387 9.897223532867415  20.943437458333996 10.136080292252977  20.802562266182694 10.343101791512956  C 20.09818630542617 9.881285257985597  19.417288765878883 9.292084970537234  18.759871513499192 8.575472453555413  C 18.118106852918714 7.858860411167134  17.531127663104268 7.0705799981775606  16.998933011076666 6.210644977799377  C 16.48239095084828 5.33478544575206  16.044114648553528 4.442997605287283  15.68410037227566 3.5352890499016985  Z M 18.290288161647634 14.857769665775697  C 18.290288161647634 14.857769665775697  18.313769381794422 14.61889344805496  18.313769381794422 14.61889344805496  C 18.313769381794422 14.61889344805496  20.027749175840114 14.61889344805496  20.027749175840114 14.61889344805496  C 20.027749175840114 14.61889344805496  20.019924279409285 14.714436009431122  20.00427168761007 14.905532759725197  C 19.988619095810858 15.0807045237566  19.97296650401164 15.239962691770307  19.95731297923324 15.383285195166671  C 19.816437787081938 16.625413241539466  19.65991000313142 17.6525504139146  19.487729627381682 18.4647109500983  C 19.331201843431167 19.276871545606195  19.16684636411226 19.913858330398043  18.99466505538334 20.37567513088427  C 18.822484679633607 20.837491931370497  18.611172357896244 21.171921774429315  18.36072809017125 21.378943095716714  C 18.157241597843903 21.585964417004117  17.93027388536977 21.72927843704094  17.679828684665587 21.80890206322207  C 17.429384416940596 21.904450319720723  17.116328849039558 21.96018611056269  16.740661980962475 21.976110859528596  C 16.443258071881466 21.9920356084945  16.02846019079594 22  15.49626553876834 22  C 14.979723478539952 22  14.424050405303122 21.984071216989  13.829244453099475 21.952221719057192  C 13.813590928321075 21.713350959162177  13.758803591596674 21.442636455782033  13.6648871078222 21.14006687799598  C 13.570970624047725 20.837497211223635  13.453577585022392 20.574747203166332  13.312702392871088 20.351801177406173  C 13.907508345074735 20.415500039790352  14.471009113679953 20.45530697346608  15.003204698686739 20.471231692769887  C 15.53539935071434 20.487156412073695  15.911063419853864 20.49512083324129  16.130202503980428 20.49512083324129  C 16.34934158810699 20.49512083324129  16.521521963856728 20.4791919909061  16.646744564208813 20.447342552298483  C 16.771966231581718 20.431417832994676  16.889363002523794 20.375682056983756  16.998933011076666 20.28013375599196  C 17.186766911604803 20.120886577784933  17.351122390923706 19.842207697730338  17.491997583075012 19.444089774459343  C 17.632871842247127 19.030047102222444  17.773747034398433 18.456745372108948  17.91462222654974 17.724208343457995  C 18.055497418701044 16.97574656584114  18.180718153094762 16.02027396731897  18.290288161647634 14.857769665775697  Z M 11.434365253548119 14.595004307583554  C 11.716115637850727 13.687295514901201  11.958734076165705 12.835330106557466  12.162219635513868 12.039094082042899  C 12.162219635513868 12.039094082042899  13.85272194132952 12.039094082042899  13.85272194132952 12.039094082042899  C 13.617930265403741 12.899028627827542  13.351834338858719 13.814694455815513  13.054431362756896 14.786102244361484  C 12.772680978454288 15.74158552123832  12.506582252971707 16.561708313256588  12.256137052267528 17.24647109500983  C 12.256137052267528 17.24647109500983  10.636074674975497 16.935942642868188  10.636074674975497 16.935942642868188  C 10.902172467478891 16.267104372784082  11.168267461044724 15.486788351300007  11.434365253548119 14.595004307583554  Z M 6.762005491345855 2.579814553005368  L 2.6766277178955926 2.579814553005368  L 2.6766277178955926 6.87948016302547  L 6.762005491345855 6.87948016302547  L 6.762005491345855 2.579814553005368  Z M 1.1504790254404764 8.408248470255584  L 1.1504790254404764 1.051031058781948  L 8.3351128921778 1.051031058781948  L 8.3351128921778 8.408248470255584  L 1.1504790254404764 8.408248470255584  Z M 4.202776410350709 18.65580888687623  L 4.202776410350709 7.596093629194372  L 6 7.596093629194372  L 6 18.65580888687623  L 4.202776410350709 18.65580888687623  Z M 1.1504790254404764 19.372422353045128  L 1.1504790254404764 10.6297562901765  L 2.6061915212887192 10.6297562901765  L 2.6061915212887192 19.372422353045128  L 1.1504790254404764 19.372422353045128  Z M 0.37566593509789664 20.805649285382934  C 0.37566593509789664 20.805649285382934  0 19.133546135324394  0 19.133546135324394  C 0.7669869110653705 18.958374252644607  1.6513676775128605 18.751359931611933  2.653146497748806 18.51248923104111  C 3.670578026406364 18.273618471146094  4.742796425298732 18.018817741756223  5.869797496019571 17.7480974839294  C 6.996799033230004 17.461452595785058  8.131625933360858 17.17480925006972  9.274279595880914 16.88816436192538  C 9.274279595880914 16.88816436192538  9.462114429388233 18.4169478561488  9.462114429388233 18.4169478561488  C 7.849876482037436 18.846915188365312  6.237638767931436 19.276872583779568  4.625401053825435 19.706839945658174  C 3.028815931518649 20.12088258823298  1.6122365478820186 20.487154958630974  0.37566593509789664 20.805649285382934  Z M 4.860190863792842 13.25733393713137  L 4.860190863792842 11.704676489429852  L 8.87513244063623 11.704676489429852  L 8.87513244063623 13.25733393713137  L 4.860190863792842 13.25733393713137  Z M 13.03095014261011 3.344191113123771  C 13.50053442744085 2.1976110859528597  13.821417690710277 1.0828800821202147  13.993598066460008 0  C 13.993598066460008 0  15.707577860505701 0.1910979367779275  15.707577860505701 0.1910979367779275  C 15.488438776379137 1.4491514440069362  15.120599603670442 2.715175275160706  14.604057543442055 3.9891523448717665  C 14.087515483213668 5.247204902913694  13.383136723519591 6.44951360202346  12.490926862234938 7.596093629194372  C 11.614370525728681 8.726748195509069  10.503024845744614 9.730007617657778  9.156884690897211 10.605867149705096  C 9.094273390721167 10.462544646308732  8.992529678067898 10.311266056793833  8.851654952406188 10.152019041728336  C 8.726432352054097 9.976847040400163  8.58555809288198 9.809624480880956  8.42903030893146 9.650377465815458  C 8.288155116780157 9.49112997615642  8.155105754038868 9.371694240263757  8.029883153686777 9.292070732731007  C 9.266454232960491 8.527684680741789  10.291712524007252 7.635912027270317  11.105658026827054 6.616729991826637  C 11.935255654956478 5.581623444713822  12.577019382557769 4.490771140294683  13.03095014261011 3.344191113123771  Z " fill-rule="evenodd" />
    </mask>
  </defs>
  <g transform="matrix(1 0 0 1 -183 -643 )">
    <path d="M 8.96904985738989 4.275791656542005  L 8.96904985738989 3  L 21.647811553132147 3  L 21.647811553132147 4.275791656542005  L 8.96904985738989 4.275791656542005  Z M 12.138742147283827 9.26819677925291  L 12.138742147283827 7.763302425500895  L 18.26681067341759 7.763302425500895  L 18.26681067341759 9.26819677925291  L 12.138742147283827 9.26819677925291  Z M 9.485591917618278 12.779596688683204  L 9.485591917618278 11  L 21.0373520761501 11  L 21.0373520761501 12.779596688683204  L 9.485591917618278 12.779596688683204  Z M 11.786553700415974 16.123787801806976  L 11.786553700415974 14.61889344805496  L 18.924228858776466 14.61889344805496  L 18.924228858776466 16.123787801806976  L 11.786553700415974 16.123787801806976  Z M 15.68410037227566 3.5352890499016985  C 15.68410037227566 3.5352890499016985  17.186767844583986 3.057551801453533  17.186767844583986 3.057551801453533  C 17.499823412485025 3.8537878259681015  17.898968701771338 4.634103135561864  18.384205578401293 5.3984901367381655  C 18.885095046830465 6.162876188727385  19.448596748414868 6.855598616050719  20.07470788421694 7.476663113830657  C 20.700819952998206 8.097726662423513  21.34258274762031 8.591384625792484  22 8.957653140117962  C 21.812167032451054 9.116900155183458  21.60085191177613 9.339858505544633  21.366059302871168 9.626503512337361  C 21.131267626945387 9.897223532867415  20.943437458333996 10.136080292252977  20.802562266182694 10.343101791512956  C 20.09818630542617 9.881285257985597  19.417288765878883 9.292084970537234  18.759871513499192 8.575472453555413  C 18.118106852918714 7.858860411167134  17.531127663104268 7.0705799981775606  16.998933011076666 6.210644977799377  C 16.48239095084828 5.33478544575206  16.044114648553528 4.442997605287283  15.68410037227566 3.5352890499016985  Z M 18.290288161647634 14.857769665775697  C 18.290288161647634 14.857769665775697  18.313769381794422 14.61889344805496  18.313769381794422 14.61889344805496  C 18.313769381794422 14.61889344805496  20.027749175840114 14.61889344805496  20.027749175840114 14.61889344805496  C 20.027749175840114 14.61889344805496  20.019924279409285 14.714436009431122  20.00427168761007 14.905532759725197  C 19.988619095810858 15.0807045237566  19.97296650401164 15.239962691770307  19.95731297923324 15.383285195166671  C 19.816437787081938 16.625413241539466  19.65991000313142 17.6525504139146  19.487729627381682 18.4647109500983  C 19.331201843431167 19.276871545606195  19.16684636411226 19.913858330398043  18.99466505538334 20.37567513088427  C 18.822484679633607 20.837491931370497  18.611172357896244 21.171921774429315  18.36072809017125 21.378943095716714  C 18.157241597843903 21.585964417004117  17.93027388536977 21.72927843704094  17.679828684665587 21.80890206322207  C 17.429384416940596 21.904450319720723  17.116328849039558 21.96018611056269  16.740661980962475 21.976110859528596  C 16.443258071881466 21.9920356084945  16.02846019079594 22  15.49626553876834 22  C 14.979723478539952 22  14.424050405303122 21.984071216989  13.829244453099475 21.952221719057192  C 13.813590928321075 21.713350959162177  13.758803591596674 21.442636455782033  13.6648871078222 21.14006687799598  C 13.570970624047725 20.837497211223635  13.453577585022392 20.574747203166332  13.312702392871088 20.351801177406173  C 13.907508345074735 20.415500039790352  14.471009113679953 20.45530697346608  15.003204698686739 20.471231692769887  C 15.53539935071434 20.487156412073695  15.911063419853864 20.49512083324129  16.130202503980428 20.49512083324129  C 16.34934158810699 20.49512083324129  16.521521963856728 20.4791919909061  16.646744564208813 20.447342552298483  C 16.771966231581718 20.431417832994676  16.889363002523794 20.375682056983756  16.998933011076666 20.28013375599196  C 17.186766911604803 20.120886577784933  17.351122390923706 19.842207697730338  17.491997583075012 19.444089774459343  C 17.632871842247127 19.030047102222444  17.773747034398433 18.456745372108948  17.91462222654974 17.724208343457995  C 18.055497418701044 16.97574656584114  18.180718153094762 16.02027396731897  18.290288161647634 14.857769665775697  Z M 11.434365253548119 14.595004307583554  C 11.716115637850727 13.687295514901201  11.958734076165705 12.835330106557466  12.162219635513868 12.039094082042899  C 12.162219635513868 12.039094082042899  13.85272194132952 12.039094082042899  13.85272194132952 12.039094082042899  C 13.617930265403741 12.899028627827542  13.351834338858719 13.814694455815513  13.054431362756896 14.786102244361484  C 12.772680978454288 15.74158552123832  12.506582252971707 16.561708313256588  12.256137052267528 17.24647109500983  C 12.256137052267528 17.24647109500983  10.636074674975497 16.935942642868188  10.636074674975497 16.935942642868188  C 10.902172467478891 16.267104372784082  11.168267461044724 15.486788351300007  11.434365253548119 14.595004307583554  Z M 6.762005491345855 2.579814553005368  L 2.6766277178955926 2.579814553005368  L 2.6766277178955926 6.87948016302547  L 6.762005491345855 6.87948016302547  L 6.762005491345855 2.579814553005368  Z M 1.1504790254404764 8.408248470255584  L 1.1504790254404764 1.051031058781948  L 8.3351128921778 1.051031058781948  L 8.3351128921778 8.408248470255584  L 1.1504790254404764 8.408248470255584  Z M 4.202776410350709 18.65580888687623  L 4.202776410350709 7.596093629194372  L 6 7.596093629194372  L 6 18.65580888687623  L 4.202776410350709 18.65580888687623  Z M 1.1504790254404764 19.372422353045128  L 1.1504790254404764 10.6297562901765  L 2.6061915212887192 10.6297562901765  L 2.6061915212887192 19.372422353045128  L 1.1504790254404764 19.372422353045128  Z M 0.37566593509789664 20.805649285382934  C 0.37566593509789664 20.805649285382934  0 19.133546135324394  0 19.133546135324394  C 0.7669869110653705 18.958374252644607  1.6513676775128605 18.751359931611933  2.653146497748806 18.51248923104111  C 3.670578026406364 18.273618471146094  4.742796425298732 18.018817741756223  5.869797496019571 17.7480974839294  C 6.996799033230004 17.461452595785058  8.131625933360858 17.17480925006972  9.274279595880914 16.88816436192538  C 9.274279595880914 16.88816436192538  9.462114429388233 18.4169478561488  9.462114429388233 18.4169478561488  C 7.849876482037436 18.846915188365312  6.237638767931436 19.276872583779568  4.625401053825435 19.706839945658174  C 3.028815931518649 20.12088258823298  1.6122365478820186 20.487154958630974  0.37566593509789664 20.805649285382934  Z M 4.860190863792842 13.25733393713137  L 4.860190863792842 11.704676489429852  L 8.87513244063623 11.704676489429852  L 8.87513244063623 13.25733393713137  L 4.860190863792842 13.25733393713137  Z M 13.03095014261011 3.344191113123771  C 13.50053442744085 2.1976110859528597  13.821417690710277 1.0828800821202147  13.993598066460008 0  C 13.993598066460008 0  15.707577860505701 0.1910979367779275  15.707577860505701 0.1910979367779275  C 15.488438776379137 1.4491514440069362  15.120599603670442 2.715175275160706  14.604057543442055 3.9891523448717665  C 14.087515483213668 5.247204902913694  13.383136723519591 6.44951360202346  12.490926862234938 7.596093629194372  C 11.614370525728681 8.726748195509069  10.503024845744614 9.730007617657778  9.156884690897211 10.605867149705096  C 9.094273390721167 10.462544646308732  8.992529678067898 10.311266056793833  8.851654952406188 10.152019041728336  C 8.726432352054097 9.976847040400163  8.58555809288198 9.809624480880956  8.42903030893146 9.650377465815458  C 8.288155116780157 9.49112997615642  8.155105754038868 9.371694240263757  8.029883153686777 9.292070732731007  C 9.266454232960491 8.527684680741789  10.291712524007252 7.635912027270317  11.105658026827054 6.616729991826637  C 11.935255654956478 5.581623444713822  12.577019382557769 4.490771140294683  13.03095014261011 3.344191113123771  Z " fill-rule="nonzero" fill="rgba(0, 0, 0, 1)" stroke="none" transform="matrix(1 0 0 1 183 643 )" class="fill" />
    <path d="M 8.96904985738989 4.275791656542005  L 8.96904985738989 3  L 21.647811553132147 3  L 21.647811553132147 4.275791656542005  L 8.96904985738989 4.275791656542005  Z " stroke-width="0" stroke-dasharray="0" stroke="rgba(121, 121, 121, 1)" fill="none" transform="matrix(1 0 0 1 183 643 )" class="stroke" mask="url(#Clip4942)" />
    <path d="M 12.138742147283827 9.26819677925291  L 12.138742147283827 7.763302425500895  L 18.26681067341759 7.763302425500895  L 18.26681067341759 9.26819677925291  L 12.138742147283827 9.26819677925291  Z " stroke-width="0" stroke-dasharray="0" stroke="rgba(121, 121, 121, 1)" fill="none" transform="matrix(1 0 0 1 183 643 )" class="stroke" mask="url(#Clip4942)" />
    <path d="M 9.485591917618278 12.779596688683204  L 9.485591917618278 11  L 21.0373520761501 11  L 21.0373520761501 12.779596688683204  L 9.485591917618278 12.779596688683204  Z " stroke-width="0" stroke-dasharray="0" stroke="rgba(121, 121, 121, 1)" fill="none" transform="matrix(1 0 0 1 183 643 )" class="stroke" mask="url(#Clip4942)" />
    <path d="M 11.786553700415974 16.123787801806976  L 11.786553700415974 14.61889344805496  L 18.924228858776466 14.61889344805496  L 18.924228858776466 16.123787801806976  L 11.786553700415974 16.123787801806976  Z " stroke-width="0" stroke-dasharray="0" stroke="rgba(121, 121, 121, 1)" fill="none" transform="matrix(1 0 0 1 183 643 )" class="stroke" mask="url(#Clip4942)" />
    <path d="M 15.68410037227566 3.5352890499016985  C 15.68410037227566 3.5352890499016985  17.186767844583986 3.057551801453533  17.186767844583986 3.057551801453533  C 17.499823412485025 3.8537878259681015  17.898968701771338 4.634103135561864  18.384205578401293 5.3984901367381655  C 18.885095046830465 6.162876188727385  19.448596748414868 6.855598616050719  20.07470788421694 7.476663113830657  C 20.700819952998206 8.097726662423513  21.34258274762031 8.591384625792484  22 8.957653140117962  C 21.812167032451054 9.116900155183458  21.60085191177613 9.339858505544633  21.366059302871168 9.626503512337361  C 21.131267626945387 9.897223532867415  20.943437458333996 10.136080292252977  20.802562266182694 10.343101791512956  C 20.09818630542617 9.881285257985597  19.417288765878883 9.292084970537234  18.759871513499192 8.575472453555413  C 18.118106852918714 7.858860411167134  17.531127663104268 7.0705799981775606  16.998933011076666 6.210644977799377  C 16.48239095084828 5.33478544575206  16.044114648553528 4.442997605287283  15.68410037227566 3.5352890499016985  Z " stroke-width="0" stroke-dasharray="0" stroke="rgba(121, 121, 121, 1)" fill="none" transform="matrix(1 0 0 1 183 643 )" class="stroke" mask="url(#Clip4942)" />
    <path d="M 18.290288161647634 14.857769665775697  C 18.290288161647634 14.857769665775697  18.313769381794422 14.61889344805496  18.313769381794422 14.61889344805496  C 18.313769381794422 14.61889344805496  20.027749175840114 14.61889344805496  20.027749175840114 14.61889344805496  C 20.027749175840114 14.61889344805496  20.019924279409285 14.714436009431122  20.00427168761007 14.905532759725197  C 19.988619095810858 15.0807045237566  19.97296650401164 15.239962691770307  19.95731297923324 15.383285195166671  C 19.816437787081938 16.625413241539466  19.65991000313142 17.6525504139146  19.487729627381682 18.4647109500983  C 19.331201843431167 19.276871545606195  19.16684636411226 19.913858330398043  18.99466505538334 20.37567513088427  C 18.822484679633607 20.837491931370497  18.611172357896244 21.171921774429315  18.36072809017125 21.378943095716714  C 18.157241597843903 21.585964417004117  17.93027388536977 21.72927843704094  17.679828684665587 21.80890206322207  C 17.429384416940596 21.904450319720723  17.116328849039558 21.96018611056269  16.740661980962475 21.976110859528596  C 16.443258071881466 21.9920356084945  16.02846019079594 22  15.49626553876834 22  C 14.979723478539952 22  14.424050405303122 21.984071216989  13.829244453099475 21.952221719057192  C 13.813590928321075 21.713350959162177  13.758803591596674 21.442636455782033  13.6648871078222 21.14006687799598  C 13.570970624047725 20.837497211223635  13.453577585022392 20.574747203166332  13.312702392871088 20.351801177406173  C 13.907508345074735 20.415500039790352  14.471009113679953 20.45530697346608  15.003204698686739 20.471231692769887  C 15.53539935071434 20.487156412073695  15.911063419853864 20.49512083324129  16.130202503980428 20.49512083324129  C 16.34934158810699 20.49512083324129  16.521521963856728 20.4791919909061  16.646744564208813 20.447342552298483  C 16.771966231581718 20.431417832994676  16.889363002523794 20.375682056983756  16.998933011076666 20.28013375599196  C 17.186766911604803 20.120886577784933  17.351122390923706 19.842207697730338  17.491997583075012 19.444089774459343  C 17.632871842247127 19.030047102222444  17.773747034398433 18.456745372108948  17.91462222654974 17.724208343457995  C 18.055497418701044 16.97574656584114  18.180718153094762 16.02027396731897  18.290288161647634 14.857769665775697  Z " stroke-width="0" stroke-dasharray="0" stroke="rgba(121, 121, 121, 1)" fill="none" transform="matrix(1 0 0 1 183 643 )" class="stroke" mask="url(#Clip4942)" />
    <path d="M 11.434365253548119 14.595004307583554  C 11.716115637850727 13.687295514901201  11.958734076165705 12.835330106557466  12.162219635513868 12.039094082042899  C 12.162219635513868 12.039094082042899  13.85272194132952 12.039094082042899  13.85272194132952 12.039094082042899  C 13.617930265403741 12.899028627827542  13.351834338858719 13.814694455815513  13.054431362756896 14.786102244361484  C 12.772680978454288 15.74158552123832  12.506582252971707 16.561708313256588  12.256137052267528 17.24647109500983  C 12.256137052267528 17.24647109500983  10.636074674975497 16.935942642868188  10.636074674975497 16.935942642868188  C 10.902172467478891 16.267104372784082  11.168267461044724 15.486788351300007  11.434365253548119 14.595004307583554  Z " stroke-width="0" stroke-dasharray="0" stroke="rgba(121, 121, 121, 1)" fill="none" transform="matrix(1 0 0 1 183 643 )" class="stroke" mask="url(#Clip4942)" />
    <path d="M 6.762005491345855 2.579814553005368  L 2.6766277178955926 2.579814553005368  L 2.6766277178955926 6.87948016302547  L 6.762005491345855 6.87948016302547  L 6.762005491345855 2.579814553005368  Z " stroke-width="0" stroke-dasharray="0" stroke="rgba(121, 121, 121, 1)" fill="none" transform="matrix(1 0 0 1 183 643 )" class="stroke" mask="url(#Clip4942)" />
    <path d="M 1.1504790254404764 8.408248470255584  L 1.1504790254404764 1.051031058781948  L 8.3351128921778 1.051031058781948  L 8.3351128921778 8.408248470255584  L 1.1504790254404764 8.408248470255584  Z " stroke-width="0" stroke-dasharray="0" stroke="rgba(121, 121, 121, 1)" fill="none" transform="matrix(1 0 0 1 183 643 )" class="stroke" mask="url(#Clip4942)" />
    <path d="M 4.202776410350709 18.65580888687623  L 4.202776410350709 7.596093629194372  L 6 7.596093629194372  L 6 18.65580888687623  L 4.202776410350709 18.65580888687623  Z " stroke-width="0" stroke-dasharray="0" stroke="rgba(121, 121, 121, 1)" fill="none" transform="matrix(1 0 0 1 183 643 )" class="stroke" mask="url(#Clip4942)" />
    <path d="M 1.1504790254404764 19.372422353045128  L 1.1504790254404764 10.6297562901765  L 2.6061915212887192 10.6297562901765  L 2.6061915212887192 19.372422353045128  L 1.1504790254404764 19.372422353045128  Z " stroke-width="0" stroke-dasharray="0" stroke="rgba(121, 121, 121, 1)" fill="none" transform="matrix(1 0 0 1 183 643 )" class="stroke" mask="url(#Clip4942)" />
    <path d="M 0.37566593509789664 20.805649285382934  C 0.37566593509789664 20.805649285382934  0 19.133546135324394  0 19.133546135324394  C 0.7669869110653705 18.958374252644607  1.6513676775128605 18.751359931611933  2.653146497748806 18.51248923104111  C 3.670578026406364 18.273618471146094  4.742796425298732 18.018817741756223  5.869797496019571 17.7480974839294  C 6.996799033230004 17.461452595785058  8.131625933360858 17.17480925006972  9.274279595880914 16.88816436192538  C 9.274279595880914 16.88816436192538  9.462114429388233 18.4169478561488  9.462114429388233 18.4169478561488  C 7.849876482037436 18.846915188365312  6.237638767931436 19.276872583779568  4.625401053825435 19.706839945658174  C 3.028815931518649 20.12088258823298  1.6122365478820186 20.487154958630974  0.37566593509789664 20.805649285382934  Z " stroke-width="0" stroke-dasharray="0" stroke="rgba(121, 121, 121, 1)" fill="none" transform="matrix(1 0 0 1 183 643 )" class="stroke" mask="url(#Clip4942)" />
    <path d="M 4.860190863792842 13.25733393713137  L 4.860190863792842 11.704676489429852  L 8.87513244063623 11.704676489429852  L 8.87513244063623 13.25733393713137  L 4.860190863792842 13.25733393713137  Z " stroke-width="0" stroke-dasharray="0" stroke="rgba(121, 121, 121, 1)" fill="none" transform="matrix(1 0 0 1 183 643 )" class="stroke" mask="url(#Clip4942)" />
    <path d="M 13.03095014261011 3.344191113123771  C 13.50053442744085 2.1976110859528597  13.821417690710277 1.0828800821202147  13.993598066460008 0  C 13.993598066460008 0  15.707577860505701 0.1910979367779275  15.707577860505701 0.1910979367779275  C 15.488438776379137 1.4491514440069362  15.120599603670442 2.715175275160706  14.604057543442055 3.9891523448717665  C 14.087515483213668 5.247204902913694  13.383136723519591 6.44951360202346  12.490926862234938 7.596093629194372  C 11.614370525728681 8.726748195509069  10.503024845744614 9.730007617657778  9.156884690897211 10.605867149705096  C 9.094273390721167 10.462544646308732  8.992529678067898 10.311266056793833  8.851654952406188 10.152019041728336  C 8.726432352054097 9.976847040400163  8.58555809288198 9.809624480880956  8.42903030893146 9.650377465815458  C 8.288155116780157 9.49112997615642  8.155105754038868 9.371694240263757  8.029883153686777 9.292070732731007  C 9.266454232960491 8.527684680741789  10.291712524007252 7.635912027270317  11.105658026827054 6.616729991826637  C 11.935255654956478 5.581623444713822  12.577019382557769 4.490771140294683  13.03095014261011 3.344191113123771  Z " stroke-width="0" stroke-dasharray="0" stroke="rgba(121, 121, 121, 1)" fill="none" transform="matrix(1 0 0 1 183 643 )" class="stroke" mask="url(#Clip4942)" />
  </g>
</svg>