<?xml version="1.0" encoding="utf-8"?>
<svg version="1.1" xmlns:xlink="http://www.w3.org/1999/xlink" width="19px" height="22px" xmlns="http://www.w3.org/2000/svg">
  <defs>
    <pattern id="BGPattern" patternUnits="userSpaceOnUse" alignment="0 0" imageRepeat="None" />
    <mask fill="white" id="Clip4961">
      <path d="M 4.251255870065033 14  L 4.251255870065033 12.677560394185425  L 17.931263117990987 12.677560394185425  L 17.931263117990987 14  L 4.251255870065033 14  Z M 4.393753114343184 8  L 4.393753114343184 6.18300852766383  L 19 6.18300852766383  L 19 15.649236194749042  L 17.218761796754485 15.649236194749042  L 17.218761796754485 8  L 4.393753114343184 8  Z M 14.202507210176343 0.7908419553026583  C 15.200007738670942 0.5352141854394625  16.07082528008227 0.2716052792146765  16.81499192158253 0  C 16.81499192158253 0  18.287498678763498 1.3420422206970204  18.287498678763498 1.3420422206970204  C 17.08416554676144 1.741461860987929  15.698736768760169 2.1169209509872298  14.131235938268652 2.468409967802234  C 12.579569183519553 2.81989803232797  10.956668906477118 3.139425364415132  9.26250207622879 3.4270072006920196  C 7.584168377982518 3.6986124799066964  5.953334783547684 3.938264644996949  4.370001056989202 4.145962743673509  C 4.338334321114909 3.938264644996949  4.267080980274038 3.690637057280719  4.156247640649102 3.4030552210038305  C 4.061247668961314 3.1154733847269425  3.958334670298842 2.8758202673474207  3.847501094738816 2.684099678022341  C 5.01916819867185 2.5243312505324162  6.20665899720335 2.3485872182695484  7.4099926010755865 2.156866628944469  C 8.613326204947821 1.9651450873301202  9.792928985624153 1.7574393703394096  10.94876224974986 1.5337647146006377  C 12.120429117747802 1.2941135017996535  13.205006681681741 1.046470677455123  14.202507210176343 0.7908419553026583  Z M 3.3012490751344483 9.921574303841915  C 3.3012490751344483 9.921574303841915  3.3012490751344483 2.204785824949148  3.3012490751344483 2.204785824949148  C 3.3012490751344483 2.204785824949148  5.60500234047609 2.8758221719259582  5.60500234047609 2.8758221719259582  C 5.589168736603854 3.051567156478095  5.4229208505822575 3.163403055913578  5.106254435579687 3.2113327271002134  C 5.106254435579687 3.2113327271002134  5.106254435579687 9.969493499846594  5.106254435579687 9.969493499846594  C 5.106254435579687 10.848215565739471  5.0666609884955065 11.814816789933298  4.987494148809774 12.869282888089044  C 4.908327545059132 13.907772667254894  4.7341609696207 14.962238051193687  4.464994186559389 16.032681182556274  C 4.211660771435224 17.103124432955028  3.8395866521535953 18.14959939571186  3.348753189842413 19.17211226070702  C 2.8579197275312307 20.19462512570218  2.2087506983678655 21.137254729241654  1.4012505851190225 22  C 1.3062506134312333 21.856209081861554  1.1795813105831638 21.70443619410841  1.0212478671467886 21.5446685998716  C 0.8629145416779584 21.3849009461167  0.688747907255754 21.2251224005533  0.49874790489640314 21.065354746798405  C 0.32458115250665387 20.92156388817804  0.15833332546883033 20.817718469442596  0 20.75381140794064  C 0.7441667594678019 19.970949993818778  1.3379198266239685 19.13216580901475  1.7812533030912563 18.237467007505426  C 2.2245866615909993 17.32679158941581  2.5491635082822652 16.4001427092041  2.75499705553008 15.457513700845425  C 2.976663734779952 14.498907659279904  3.1191706523967824 13.548287515522315  3.1825038882102787 12.605658745235957  C 3.2616704919609214 11.663029498804963  3.3012490751344483 10.768342779465733  3.3012490751344483 9.921574303841915  Z " fill-rule="evenodd" />
    </mask>
  </defs>
  <g transform="matrix(1 0 0 1 -389 -612 )">
    <path d="M 4.251255870065033 14  L 4.251255870065033 12.677560394185425  L 17.931263117990987 12.677560394185425  L 17.931263117990987 14  L 4.251255870065033 14  Z M 4.393753114343184 8  L 4.393753114343184 6.18300852766383  L 19 6.18300852766383  L 19 15.649236194749042  L 17.218761796754485 15.649236194749042  L 17.218761796754485 8  L 4.393753114343184 8  Z M 14.202507210176343 0.7908419553026583  C 15.200007738670942 0.5352141854394625  16.07082528008227 0.2716052792146765  16.81499192158253 0  C 16.81499192158253 0  18.287498678763498 1.3420422206970204  18.287498678763498 1.3420422206970204  C 17.08416554676144 1.741461860987929  15.698736768760169 2.1169209509872298  14.131235938268652 2.468409967802234  C 12.579569183519553 2.81989803232797  10.956668906477118 3.139425364415132  9.26250207622879 3.4270072006920196  C 7.584168377982518 3.6986124799066964  5.953334783547684 3.938264644996949  4.370001056989202 4.145962743673509  C 4.338334321114909 3.938264644996949  4.267080980274038 3.690637057280719  4.156247640649102 3.4030552210038305  C 4.061247668961314 3.1154733847269425  3.958334670298842 2.8758202673474207  3.847501094738816 2.684099678022341  C 5.01916819867185 2.5243312505324162  6.20665899720335 2.3485872182695484  7.4099926010755865 2.156866628944469  C 8.613326204947821 1.9651450873301202  9.792928985624153 1.7574393703394096  10.94876224974986 1.5337647146006377  C 12.120429117747802 1.2941135017996535  13.205006681681741 1.046470677455123  14.202507210176343 0.7908419553026583  Z M 3.3012490751344483 9.921574303841915  C 3.3012490751344483 9.921574303841915  3.3012490751344483 2.204785824949148  3.3012490751344483 2.204785824949148  C 3.3012490751344483 2.204785824949148  5.60500234047609 2.8758221719259582  5.60500234047609 2.8758221719259582  C 5.589168736603854 3.051567156478095  5.4229208505822575 3.163403055913578  5.106254435579687 3.2113327271002134  C 5.106254435579687 3.2113327271002134  5.106254435579687 9.969493499846594  5.106254435579687 9.969493499846594  C 5.106254435579687 10.848215565739471  5.0666609884955065 11.814816789933298  4.987494148809774 12.869282888089044  C 4.908327545059132 13.907772667254894  4.7341609696207 14.962238051193687  4.464994186559389 16.032681182556274  C 4.211660771435224 17.103124432955028  3.8395866521535953 18.14959939571186  3.348753189842413 19.17211226070702  C 2.8579197275312307 20.19462512570218  2.2087506983678655 21.137254729241654  1.4012505851190225 22  C 1.3062506134312333 21.856209081861554  1.1795813105831638 21.70443619410841  1.0212478671467886 21.5446685998716  C 0.8629145416779584 21.3849009461167  0.688747907255754 21.2251224005533  0.49874790489640314 21.065354746798405  C 0.32458115250665387 20.92156388817804  0.15833332546883033 20.817718469442596  0 20.75381140794064  C 0.7441667594678019 19.970949993818778  1.3379198266239685 19.13216580901475  1.7812533030912563 18.237467007505426  C 2.2245866615909993 17.32679158941581  2.5491635082822652 16.4001427092041  2.75499705553008 15.457513700845425  C 2.976663734779952 14.498907659279904  3.1191706523967824 13.548287515522315  3.1825038882102787 12.605658745235957  C 3.2616704919609214 11.663029498804963  3.3012490751344483 10.768342779465733  3.3012490751344483 9.921574303841915  Z " fill-rule="nonzero" fill="rgba(0, 0, 0, 1)" stroke="none" transform="matrix(1 0 0 1 389 612 )" class="fill" />
    <path d="M 4.251255870065033 14  L 4.251255870065033 12.677560394185425  L 17.931263117990987 12.677560394185425  L 17.931263117990987 14  L 4.251255870065033 14  Z " stroke-width="0" stroke-dasharray="0" stroke="rgba(121, 121, 121, 1)" fill="none" transform="matrix(1 0 0 1 389 612 )" class="stroke" mask="url(#Clip4961)" />
    <path d="M 4.393753114343184 8  L 4.393753114343184 6.18300852766383  L 19 6.18300852766383  L 19 15.649236194749042  L 17.218761796754485 15.649236194749042  L 17.218761796754485 8  L 4.393753114343184 8  Z " stroke-width="0" stroke-dasharray="0" stroke="rgba(121, 121, 121, 1)" fill="none" transform="matrix(1 0 0 1 389 612 )" class="stroke" mask="url(#Clip4961)" />
    <path d="M 14.202507210176343 0.7908419553026583  C 15.200007738670942 0.5352141854394625  16.07082528008227 0.2716052792146765  16.81499192158253 0  C 16.81499192158253 0  18.287498678763498 1.3420422206970204  18.287498678763498 1.3420422206970204  C 17.08416554676144 1.741461860987929  15.698736768760169 2.1169209509872298  14.131235938268652 2.468409967802234  C 12.579569183519553 2.81989803232797  10.956668906477118 3.139425364415132  9.26250207622879 3.4270072006920196  C 7.584168377982518 3.6986124799066964  5.953334783547684 3.938264644996949  4.370001056989202 4.145962743673509  C 4.338334321114909 3.938264644996949  4.267080980274038 3.690637057280719  4.156247640649102 3.4030552210038305  C 4.061247668961314 3.1154733847269425  3.958334670298842 2.8758202673474207  3.847501094738816 2.684099678022341  C 5.01916819867185 2.5243312505324162  6.20665899720335 2.3485872182695484  7.4099926010755865 2.156866628944469  C 8.613326204947821 1.9651450873301202  9.792928985624153 1.7574393703394096  10.94876224974986 1.5337647146006377  C 12.120429117747802 1.2941135017996535  13.205006681681741 1.046470677455123  14.202507210176343 0.7908419553026583  Z " stroke-width="0" stroke-dasharray="0" stroke="rgba(121, 121, 121, 1)" fill="none" transform="matrix(1 0 0 1 389 612 )" class="stroke" mask="url(#Clip4961)" />
    <path d="M 3.3012490751344483 9.921574303841915  C 3.3012490751344483 9.921574303841915  3.3012490751344483 2.204785824949148  3.3012490751344483 2.204785824949148  C 3.3012490751344483 2.204785824949148  5.60500234047609 2.8758221719259582  5.60500234047609 2.8758221719259582  C 5.589168736603854 3.051567156478095  5.4229208505822575 3.163403055913578  5.106254435579687 3.2113327271002134  C 5.106254435579687 3.2113327271002134  5.106254435579687 9.969493499846594  5.106254435579687 9.969493499846594  C 5.106254435579687 10.848215565739471  5.0666609884955065 11.814816789933298  4.987494148809774 12.869282888089044  C 4.908327545059132 13.907772667254894  4.7341609696207 14.962238051193687  4.464994186559389 16.032681182556274  C 4.211660771435224 17.103124432955028  3.8395866521535953 18.14959939571186  3.348753189842413 19.17211226070702  C 2.8579197275312307 20.19462512570218  2.2087506983678655 21.137254729241654  1.4012505851190225 22  C 1.3062506134312333 21.856209081861554  1.1795813105831638 21.70443619410841  1.0212478671467886 21.5446685998716  C 0.8629145416779584 21.3849009461167  0.688747907255754 21.2251224005533  0.49874790489640314 21.065354746798405  C 0.32458115250665387 20.92156388817804  0.15833332546883033 20.817718469442596  0 20.75381140794064  C 0.7441667594678019 19.970949993818778  1.3379198266239685 19.13216580901475  1.7812533030912563 18.237467007505426  C 2.2245866615909993 17.32679158941581  2.5491635082822652 16.4001427092041  2.75499705553008 15.457513700845425  C 2.976663734779952 14.498907659279904  3.1191706523967824 13.548287515522315  3.1825038882102787 12.605658745235957  C 3.2616704919609214 11.663029498804963  3.3012490751344483 10.768342779465733  3.3012490751344483 9.921574303841915  Z " stroke-width="0" stroke-dasharray="0" stroke="rgba(121, 121, 121, 1)" fill="none" transform="matrix(1 0 0 1 389 612 )" class="stroke" mask="url(#Clip4961)" />
  </g>
</svg>