<?xml version="1.0" encoding="utf-8"?>
<svg version="1.1" xmlns:xlink="http://www.w3.org/1999/xlink" width="20px" height="20px" xmlns="http://www.w3.org/2000/svg">
  <defs>
    <pattern id="BGPattern" patternUnits="userSpaceOnUse" alignment="0 0" imageRepeat="None" />
    <mask fill="white" id="Clip4878">
      <path d="M 12.908106875975701 5.519480421996212  L 12.908106875975701 4.025974208757103  L 19.891876328114105 4.025974208757103  L 19.891876328114105 5.519480421996212  L 12.908106875975701 5.519480421996212  Z M 12.691889524900686 3.6580092226052723  C 12.965763237042404 2.460317871748626  13.18917804452116 1.2409816596898813  13.362151316154517 0  C 13.362151316154517 0  14.940531980462756 0.23809441150954713  14.940531980462756 0.23809441150954713  C 14.73873026468836 1.608946293984289  14.479277899347133 2.9437228213598288  14.162161513671421 4.24242375906455  C 13.859458493341245 5.541125635055733  13.499092433882975 6.760461847114478  13.081074758296353 7.900432981669824  C 12.663057082709734 9.040404116225169  12.18738541852559 10.036075237813396  11.654052238279979 10.887446346434501  C 11.567565170439591 10.800866080625456  11.45224544073518 10.685425765308661  11.308101477290279 10.54112575234154  C 11.163957513845379 10.396825739374423  11.012600233600931 10.259741222588195  10.854042040763074 10.129871043785512  C 10.695482998522671 9.985570605657342  10.551337072664994 9.870130283010184  10.421607338613049 9.783550449692552  C 10.92611208936249 8.989899498729843  11.36576205607997 8.073593396002112  11.740536179440307 7.03463196558065  C 12.115311181492931 5.981241565977583  12.432430056796795 4.8557005734619185  12.691889524900686 3.6580092226052723  Z M 16.021618735837823 10.75757624093545  C 16.54053767204561 8.997114276535163  16.929714967920937 7.020201588969355  17.189174436024828 4.82683923381029  C 17.189174436024828 4.82683923381029  18.7243206279271 4.9567102775958025  18.7243206279271 4.9567102775958025  C 18.421618486289212 7.352092510165865  17.981968519571733 9.49494925090024  17.40539178709984 11.385281438085386  C 16.843230177358063 13.261183365945044  16.064859769146214 14.913420907049026  15.070265390377443 16.341992653967647  C 14.075671011608673 17.75613414156078  12.799999137709968 18.961040094294038  11.243242270507132 19.95671121588226  C 11.1855853712414 19.855701123239143  11.099090962659186 19.71861671640836  10.98377545067776 19.545456507326236  C 10.882874160766853 19.372296356887013  10.767554423740007 19.199136294412146  10.63782468968806 19.025976085330022  C 10.522510034431615 18.867245915662497  10.414399952986448 18.737375861475986  10.313498663075542 18.636365768832864  C 11.783768425825812 17.75613478663272  12.972961806456379 16.66666733128624  13.88106995946487 15.36796592443829  C 14.80359235651119 14.054834492836466  15.51711486378067 12.518038205335735  16.021618735837823 10.75757624093545  Z M 12.32431402953381 5.584415474745739  C 12.32431402953381 5.584415474745739  13.708102077144215 5.3896103164971585  13.708102077144215 5.3896103164971585  C 13.99639000403402 7.366522183062315  14.399988309877793 9.22799455531133  14.918907246085578 10.974026729529358  C 15.437826182293362 12.70562840985028  16.10810150540843 14.235209626331171  16.929722612543845 15.56277108268687  C 17.765758783829888 16.890332539042568  18.789189676063877 17.922079367587422  20 18.65801016089173  C 19.884684488018575 18.759020253534853  19.754943733700845 18.88167594041637  19.61079977025594 19.025976085330022  C 19.46665580681104 19.170276259565128  19.32971953653504 19.32178940833626  19.199989802483096 19.480519578003786  C 19.084674290501667 19.639249747671315  18.983774714040724 19.790766708231192  18.897288510247755 19.935066823823394  C 17.614406204589184 19.098125974527775  16.540532634209818 17.972585568441147  15.675667974848125 16.558444080848016  C 14.825217559524255 15.129872451215203  14.13332658185232 13.484849160130407  13.59999340160671 11.623377257024623  C 13.066660221361099 9.76190523663303  12.641431264612066 7.748917780397057  12.32431402953381 5.584415474745739  Z M 5 11.363637046026515  L 5 0  L 6.44324107079926 0  L 6.44324107079926 11.363637046026515  L 5 11.363637046026515  Z M 8.75674273314448 2.4675329427684667  L 2.8540450400327524 2.4675329427684667  L 2.8540450400327524 6.082251504683081  L 8.75674273314448 6.082251504683081  L 8.75674273314448 2.4675329427684667  Z M 1.4918817267995244 7.20779273177036  L 1.4918817267995244 1.3203459161926288  L 10.205404983886424 1.3203459161926288  L 10.205404983886424 7.20779273177036  L 1.4918817267995244 7.20779273177036  Z M 9.275661376454833 9.307359750100538  L 2.3351263967223983 9.307359750100538  L 2.3351263967223983 10.73593184887658  L 9.275661376454833 10.73593184887658  L 9.275661376454833 9.307359750100538  Z M 0.9513533454603804 11.818182415273203  L 0.9513533454603804 8.203463853358587  L 10.702698892819598 8.203463853358587  L 10.702698892819598 11.818182415273203  L 0.9513533454603804 11.818182415273203  Z M 0.0648592067831483 14.502165846635577  C 0.0648592067831483 14.502165846635577  0.02160973802878999 13.203464791645047  0.02160973802878999 13.203464791645047  C 0.9873752186655049 13.203464791645047  2.1117057605847975 13.196248567009334  3.394588417720285 13.181818523013257  C 4.677470957696801 13.16738847901718  6.039637434222267 13.152959782891596  7.4810783574199675 13.138529738895521  C 8.936933934711899 13.109669650903369  10.392789746321771 13.08802473014207  11.848644854977813 13.073594686145995  C 11.848644854977813 13.073594686145995  11.805395386223454 14.285714419755209  11.805395386223454 14.285714419755209  C 10.363954463025753 14.314574507747363  8.929729829536509 14.350650216536575  7.502703091797147 14.393940133195393  C 6.075676354057787 14.422800221187547  4.720720426451159 14.444445141948844  3.4378378864746435 14.458875185944919  C 2.1693696491154406 14.473305229940996  1.0450392243551196 14.4877358026395  0.0648592067831483 14.502165846635577  Z M 3.394588417720285 13.268399844394574  C 3.7405343166126546 12.633478989795758  4.0504433166617675 12.034632962510015  4.3243170288034865 11.471862759466699  C 4.3243170288034865 11.471862759466699  5.708105076413893 11.796538023214334  5.708105076413893 11.796538023214334  C 5.4198167101779475 12.373738485583134  5.09548734453473 12.987012954264351  4.735126996576334 13.636363892259943  C 4.3891813027121644 14.28571459568392  4.036025323536844 14.913421610763873  3.6756649755784467 15.519482298569132  C 3.329719076686077 16.12554298637439  3.0125997620360687 16.666667184678982  2.7243116301180663 17.142857679020835  C 2.7243116301180663 17.142857679020835  1.3837730512620179 16.753247362523677  1.3837730512620179 16.753247362523677  C 1.6864756322460481 16.277056750896016  2.0108052322072076 15.735932552591425  2.3567511310995775 15.129871982071974  C 2.702697029991947 14.523811176980905  3.0486425188279154 13.903320523064677  3.394588417720285 13.268399844394574  Z M 5.081077757566033 17.3593091059012  C 4.2738708944684465 16.98412869687211  3.445043397557695 16.645022939227374  2.59459321655177 16.341992653967647  C 2.59459321655177 16.341992653967647  3.4162131520974643 15.36796592443829  3.4162131520974643 15.36796592443829  C 4.252248913327104 15.6565662729085  5.0882866662592665 15.981242181728073  5.924322427488907 16.341992653967647  C 6.760358188718547 16.68831295484609  7.545938677213348 17.05627999349955  8.281073558588483 17.445890427282517  C 9.016208908599506 17.82107083631161  9.643236578924283 18.18181966654988  10.162155515132065 18.52814005539268  C 10.162155515132065 18.52814005539268  9.124318228511358 19.567100899385103  9.124318228511358 19.567100899385103  C 8.634228571202287 19.206350485788434  8.036026665007071 18.838383535099325  7.329720213128104 18.463203126070233  C 6.637828825399765 18.088022717041138  5.888285089299505 17.720059519497873  5.081077757566033 17.3593091059012  Z M 6.875675772949287 16.25541133258633  C 7.509909833049403 15.577200521011704  7.963949967636006 14.733046359983359  8.237824089834124 13.72294521364126  C 8.237824089834124 13.72294521364126  9.621612137444531 13.961039156007576  9.621612137444531 13.961039156007576  C 9.347738425302815 15.14430048211035  8.857646190496364 16.13275535982066  8.151340148673798 16.926406252140467  C 7.445034106851232 17.7056271197064  6.515307311732093 18.3405485314128  5.362154315424195 18.83116905050852  C 4.209001319116295 19.3217895989257  2.8107985002526887 19.711399651529792  1.1675557001870045 20  C 1.1243124884539832 19.783549760638433  1.037833610757968 19.552671006577764  0.9081038767060221 19.307360688386996  C 0.7927885770752321 19.076480468253735  0.6702580128769895 18.874459154091596  0.5405283813391439 18.70129894500947  C 2.0252126810246702 18.528138765248798  3.29368982246573 18.246755540300057  4.345941763180666 17.857145135838547  C 5.398193703895602 17.453104706623158  6.241441712849172 16.919192002121278  6.875675772949287 16.25541133258633  Z M 0 4.870129894500947  L 0 3.636362953973484  L 2.0540498388642363 3.636362953973484  L 2.0540498388642363 3.70129894500947  L 9.513503461907026 3.70129894500947  L 9.513503461907026 3.636362953973484  L 11.740536179440307 3.636362953973484  L 11.740536179440307 4.870129894500947  L 9.513503461907026 4.870129894500947  L 9.513503461907026 4.805194841751421  L 2.0540498388642363 4.805194841751421  L 2.0540498388642363 4.870129894500947  L 0 4.870129894500947  Z " fill-rule="evenodd" />
    </mask>
  </defs>
  <g transform="matrix(1 0 0 1 -1762 -72 )">
    <path d="M 12.908106875975701 5.519480421996212  L 12.908106875975701 4.025974208757103  L 19.891876328114105 4.025974208757103  L 19.891876328114105 5.519480421996212  L 12.908106875975701 5.519480421996212  Z M 12.691889524900686 3.6580092226052723  C 12.965763237042404 2.460317871748626  13.18917804452116 1.2409816596898813  13.362151316154517 0  C 13.362151316154517 0  14.940531980462756 0.23809441150954713  14.940531980462756 0.23809441150954713  C 14.73873026468836 1.608946293984289  14.479277899347133 2.9437228213598288  14.162161513671421 4.24242375906455  C 13.859458493341245 5.541125635055733  13.499092433882975 6.760461847114478  13.081074758296353 7.900432981669824  C 12.663057082709734 9.040404116225169  12.18738541852559 10.036075237813396  11.654052238279979 10.887446346434501  C 11.567565170439591 10.800866080625456  11.45224544073518 10.685425765308661  11.308101477290279 10.54112575234154  C 11.163957513845379 10.396825739374423  11.012600233600931 10.259741222588195  10.854042040763074 10.129871043785512  C 10.695482998522671 9.985570605657342  10.551337072664994 9.870130283010184  10.421607338613049 9.783550449692552  C 10.92611208936249 8.989899498729843  11.36576205607997 8.073593396002112  11.740536179440307 7.03463196558065  C 12.115311181492931 5.981241565977583  12.432430056796795 4.8557005734619185  12.691889524900686 3.6580092226052723  Z M 16.021618735837823 10.75757624093545  C 16.54053767204561 8.997114276535163  16.929714967920937 7.020201588969355  17.189174436024828 4.82683923381029  C 17.189174436024828 4.82683923381029  18.7243206279271 4.9567102775958025  18.7243206279271 4.9567102775958025  C 18.421618486289212 7.352092510165865  17.981968519571733 9.49494925090024  17.40539178709984 11.385281438085386  C 16.843230177358063 13.261183365945044  16.064859769146214 14.913420907049026  15.070265390377443 16.341992653967647  C 14.075671011608673 17.75613414156078  12.799999137709968 18.961040094294038  11.243242270507132 19.95671121588226  C 11.1855853712414 19.855701123239143  11.099090962659186 19.71861671640836  10.98377545067776 19.545456507326236  C 10.882874160766853 19.372296356887013  10.767554423740007 19.199136294412146  10.63782468968806 19.025976085330022  C 10.522510034431615 18.867245915662497  10.414399952986448 18.737375861475986  10.313498663075542 18.636365768832864  C 11.783768425825812 17.75613478663272  12.972961806456379 16.66666733128624  13.88106995946487 15.36796592443829  C 14.80359235651119 14.054834492836466  15.51711486378067 12.518038205335735  16.021618735837823 10.75757624093545  Z M 12.32431402953381 5.584415474745739  C 12.32431402953381 5.584415474745739  13.708102077144215 5.3896103164971585  13.708102077144215 5.3896103164971585  C 13.99639000403402 7.366522183062315  14.399988309877793 9.22799455531133  14.918907246085578 10.974026729529358  C 15.437826182293362 12.70562840985028  16.10810150540843 14.235209626331171  16.929722612543845 15.56277108268687  C 17.765758783829888 16.890332539042568  18.789189676063877 17.922079367587422  20 18.65801016089173  C 19.884684488018575 18.759020253534853  19.754943733700845 18.88167594041637  19.61079977025594 19.025976085330022  C 19.46665580681104 19.170276259565128  19.32971953653504 19.32178940833626  19.199989802483096 19.480519578003786  C 19.084674290501667 19.639249747671315  18.983774714040724 19.790766708231192  18.897288510247755 19.935066823823394  C 17.614406204589184 19.098125974527775  16.540532634209818 17.972585568441147  15.675667974848125 16.558444080848016  C 14.825217559524255 15.129872451215203  14.13332658185232 13.484849160130407  13.59999340160671 11.623377257024623  C 13.066660221361099 9.76190523663303  12.641431264612066 7.748917780397057  12.32431402953381 5.584415474745739  Z M 5 11.363637046026515  L 5 0  L 6.44324107079926 0  L 6.44324107079926 11.363637046026515  L 5 11.363637046026515  Z M 8.75674273314448 2.4675329427684667  L 2.8540450400327524 2.4675329427684667  L 2.8540450400327524 6.082251504683081  L 8.75674273314448 6.082251504683081  L 8.75674273314448 2.4675329427684667  Z M 1.4918817267995244 7.20779273177036  L 1.4918817267995244 1.3203459161926288  L 10.205404983886424 1.3203459161926288  L 10.205404983886424 7.20779273177036  L 1.4918817267995244 7.20779273177036  Z M 9.275661376454833 9.307359750100538  L 2.3351263967223983 9.307359750100538  L 2.3351263967223983 10.73593184887658  L 9.275661376454833 10.73593184887658  L 9.275661376454833 9.307359750100538  Z M 0.9513533454603804 11.818182415273203  L 0.9513533454603804 8.203463853358587  L 10.702698892819598 8.203463853358587  L 10.702698892819598 11.818182415273203  L 0.9513533454603804 11.818182415273203  Z M 0.0648592067831483 14.502165846635577  C 0.0648592067831483 14.502165846635577  0.02160973802878999 13.203464791645047  0.02160973802878999 13.203464791645047  C 0.9873752186655049 13.203464791645047  2.1117057605847975 13.196248567009334  3.394588417720285 13.181818523013257  C 4.677470957696801 13.16738847901718  6.039637434222267 13.152959782891596  7.4810783574199675 13.138529738895521  C 8.936933934711899 13.109669650903369  10.392789746321771 13.08802473014207  11.848644854977813 13.073594686145995  C 11.848644854977813 13.073594686145995  11.805395386223454 14.285714419755209  11.805395386223454 14.285714419755209  C 10.363954463025753 14.314574507747363  8.929729829536509 14.350650216536575  7.502703091797147 14.393940133195393  C 6.075676354057787 14.422800221187547  4.720720426451159 14.444445141948844  3.4378378864746435 14.458875185944919  C 2.1693696491154406 14.473305229940996  1.0450392243551196 14.4877358026395  0.0648592067831483 14.502165846635577  Z M 3.394588417720285 13.268399844394574  C 3.7405343166126546 12.633478989795758  4.0504433166617675 12.034632962510015  4.3243170288034865 11.471862759466699  C 4.3243170288034865 11.471862759466699  5.708105076413893 11.796538023214334  5.708105076413893 11.796538023214334  C 5.4198167101779475 12.373738485583134  5.09548734453473 12.987012954264351  4.735126996576334 13.636363892259943  C 4.3891813027121644 14.28571459568392  4.036025323536844 14.913421610763873  3.6756649755784467 15.519482298569132  C 3.329719076686077 16.12554298637439  3.0125997620360687 16.666667184678982  2.7243116301180663 17.142857679020835  C 2.7243116301180663 17.142857679020835  1.3837730512620179 16.753247362523677  1.3837730512620179 16.753247362523677  C 1.6864756322460481 16.277056750896016  2.0108052322072076 15.735932552591425  2.3567511310995775 15.129871982071974  C 2.702697029991947 14.523811176980905  3.0486425188279154 13.903320523064677  3.394588417720285 13.268399844394574  Z M 5.081077757566033 17.3593091059012  C 4.2738708944684465 16.98412869687211  3.445043397557695 16.645022939227374  2.59459321655177 16.341992653967647  C 2.59459321655177 16.341992653967647  3.4162131520974643 15.36796592443829  3.4162131520974643 15.36796592443829  C 4.252248913327104 15.6565662729085  5.0882866662592665 15.981242181728073  5.924322427488907 16.341992653967647  C 6.760358188718547 16.68831295484609  7.545938677213348 17.05627999349955  8.281073558588483 17.445890427282517  C 9.016208908599506 17.82107083631161  9.643236578924283 18.18181966654988  10.162155515132065 18.52814005539268  C 10.162155515132065 18.52814005539268  9.124318228511358 19.567100899385103  9.124318228511358 19.567100899385103  C 8.634228571202287 19.206350485788434  8.036026665007071 18.838383535099325  7.329720213128104 18.463203126070233  C 6.637828825399765 18.088022717041138  5.888285089299505 17.720059519497873  5.081077757566033 17.3593091059012  Z M 6.875675772949287 16.25541133258633  C 7.509909833049403 15.577200521011704  7.963949967636006 14.733046359983359  8.237824089834124 13.72294521364126  C 8.237824089834124 13.72294521364126  9.621612137444531 13.961039156007576  9.621612137444531 13.961039156007576  C 9.347738425302815 15.14430048211035  8.857646190496364 16.13275535982066  8.151340148673798 16.926406252140467  C 7.445034106851232 17.7056271197064  6.515307311732093 18.3405485314128  5.362154315424195 18.83116905050852  C 4.209001319116295 19.3217895989257  2.8107985002526887 19.711399651529792  1.1675557001870045 20  C 1.1243124884539832 19.783549760638433  1.037833610757968 19.552671006577764  0.9081038767060221 19.307360688386996  C 0.7927885770752321 19.076480468253735  0.6702580128769895 18.874459154091596  0.5405283813391439 18.70129894500947  C 2.0252126810246702 18.528138765248798  3.29368982246573 18.246755540300057  4.345941763180666 17.857145135838547  C 5.398193703895602 17.453104706623158  6.241441712849172 16.919192002121278  6.875675772949287 16.25541133258633  Z M 0 4.870129894500947  L 0 3.636362953973484  L 2.0540498388642363 3.636362953973484  L 2.0540498388642363 3.70129894500947  L 9.513503461907026 3.70129894500947  L 9.513503461907026 3.636362953973484  L 11.740536179440307 3.636362953973484  L 11.740536179440307 4.870129894500947  L 9.513503461907026 4.870129894500947  L 9.513503461907026 4.805194841751421  L 2.0540498388642363 4.805194841751421  L 2.0540498388642363 4.870129894500947  L 0 4.870129894500947  Z " fill-rule="nonzero" fill="rgba(200, 197, 197, 0.5019607843137255)" stroke="none" transform="matrix(1 0 0 1 1762 72 )" class="fill" />
    <path d="M 12.908106875975701 5.519480421996212  L 12.908106875975701 4.025974208757103  L 19.891876328114105 4.025974208757103  L 19.891876328114105 5.519480421996212  L 12.908106875975701 5.519480421996212  Z " stroke-width="0" stroke-dasharray="0" stroke="rgba(121, 121, 121, 1)" fill="none" transform="matrix(1 0 0 1 1762 72 )" class="stroke" mask="url(#Clip4878)" />
    <path d="M 12.691889524900686 3.6580092226052723  C 12.965763237042404 2.460317871748626  13.18917804452116 1.2409816596898813  13.362151316154517 0  C 13.362151316154517 0  14.940531980462756 0.23809441150954713  14.940531980462756 0.23809441150954713  C 14.73873026468836 1.608946293984289  14.479277899347133 2.9437228213598288  14.162161513671421 4.24242375906455  C 13.859458493341245 5.541125635055733  13.499092433882975 6.760461847114478  13.081074758296353 7.900432981669824  C 12.663057082709734 9.040404116225169  12.18738541852559 10.036075237813396  11.654052238279979 10.887446346434501  C 11.567565170439591 10.800866080625456  11.45224544073518 10.685425765308661  11.308101477290279 10.54112575234154  C 11.163957513845379 10.396825739374423  11.012600233600931 10.259741222588195  10.854042040763074 10.129871043785512  C 10.695482998522671 9.985570605657342  10.551337072664994 9.870130283010184  10.421607338613049 9.783550449692552  C 10.92611208936249 8.989899498729843  11.36576205607997 8.073593396002112  11.740536179440307 7.03463196558065  C 12.115311181492931 5.981241565977583  12.432430056796795 4.8557005734619185  12.691889524900686 3.6580092226052723  Z " stroke-width="0" stroke-dasharray="0" stroke="rgba(121, 121, 121, 1)" fill="none" transform="matrix(1 0 0 1 1762 72 )" class="stroke" mask="url(#Clip4878)" />
    <path d="M 16.021618735837823 10.75757624093545  C 16.54053767204561 8.997114276535163  16.929714967920937 7.020201588969355  17.189174436024828 4.82683923381029  C 17.189174436024828 4.82683923381029  18.7243206279271 4.9567102775958025  18.7243206279271 4.9567102775958025  C 18.421618486289212 7.352092510165865  17.981968519571733 9.49494925090024  17.40539178709984 11.385281438085386  C 16.843230177358063 13.261183365945044  16.064859769146214 14.913420907049026  15.070265390377443 16.341992653967647  C 14.075671011608673 17.75613414156078  12.799999137709968 18.961040094294038  11.243242270507132 19.95671121588226  C 11.1855853712414 19.855701123239143  11.099090962659186 19.71861671640836  10.98377545067776 19.545456507326236  C 10.882874160766853 19.372296356887013  10.767554423740007 19.199136294412146  10.63782468968806 19.025976085330022  C 10.522510034431615 18.867245915662497  10.414399952986448 18.737375861475986  10.313498663075542 18.636365768832864  C 11.783768425825812 17.75613478663272  12.972961806456379 16.66666733128624  13.88106995946487 15.36796592443829  C 14.80359235651119 14.054834492836466  15.51711486378067 12.518038205335735  16.021618735837823 10.75757624093545  Z " stroke-width="0" stroke-dasharray="0" stroke="rgba(121, 121, 121, 1)" fill="none" transform="matrix(1 0 0 1 1762 72 )" class="stroke" mask="url(#Clip4878)" />
    <path d="M 12.32431402953381 5.584415474745739  C 12.32431402953381 5.584415474745739  13.708102077144215 5.3896103164971585  13.708102077144215 5.3896103164971585  C 13.99639000403402 7.366522183062315  14.399988309877793 9.22799455531133  14.918907246085578 10.974026729529358  C 15.437826182293362 12.70562840985028  16.10810150540843 14.235209626331171  16.929722612543845 15.56277108268687  C 17.765758783829888 16.890332539042568  18.789189676063877 17.922079367587422  20 18.65801016089173  C 19.884684488018575 18.759020253534853  19.754943733700845 18.88167594041637  19.61079977025594 19.025976085330022  C 19.46665580681104 19.170276259565128  19.32971953653504 19.32178940833626  19.199989802483096 19.480519578003786  C 19.084674290501667 19.639249747671315  18.983774714040724 19.790766708231192  18.897288510247755 19.935066823823394  C 17.614406204589184 19.098125974527775  16.540532634209818 17.972585568441147  15.675667974848125 16.558444080848016  C 14.825217559524255 15.129872451215203  14.13332658185232 13.484849160130407  13.59999340160671 11.623377257024623  C 13.066660221361099 9.76190523663303  12.641431264612066 7.748917780397057  12.32431402953381 5.584415474745739  Z " stroke-width="0" stroke-dasharray="0" stroke="rgba(121, 121, 121, 1)" fill="none" transform="matrix(1 0 0 1 1762 72 )" class="stroke" mask="url(#Clip4878)" />
    <path d="M 5 11.363637046026515  L 5 0  L 6.44324107079926 0  L 6.44324107079926 11.363637046026515  L 5 11.363637046026515  Z " stroke-width="0" stroke-dasharray="0" stroke="rgba(121, 121, 121, 1)" fill="none" transform="matrix(1 0 0 1 1762 72 )" class="stroke" mask="url(#Clip4878)" />
    <path d="M 8.75674273314448 2.4675329427684667  L 2.8540450400327524 2.4675329427684667  L 2.8540450400327524 6.082251504683081  L 8.75674273314448 6.082251504683081  L 8.75674273314448 2.4675329427684667  Z " stroke-width="0" stroke-dasharray="0" stroke="rgba(121, 121, 121, 1)" fill="none" transform="matrix(1 0 0 1 1762 72 )" class="stroke" mask="url(#Clip4878)" />
    <path d="M 1.4918817267995244 7.20779273177036  L 1.4918817267995244 1.3203459161926288  L 10.205404983886424 1.3203459161926288  L 10.205404983886424 7.20779273177036  L 1.4918817267995244 7.20779273177036  Z " stroke-width="0" stroke-dasharray="0" stroke="rgba(121, 121, 121, 1)" fill="none" transform="matrix(1 0 0 1 1762 72 )" class="stroke" mask="url(#Clip4878)" />
    <path d="M 9.275661376454833 9.307359750100538  L 2.3351263967223983 9.307359750100538  L 2.3351263967223983 10.73593184887658  L 9.275661376454833 10.73593184887658  L 9.275661376454833 9.307359750100538  Z " stroke-width="0" stroke-dasharray="0" stroke="rgba(121, 121, 121, 1)" fill="none" transform="matrix(1 0 0 1 1762 72 )" class="stroke" mask="url(#Clip4878)" />
    <path d="M 0.9513533454603804 11.818182415273203  L 0.9513533454603804 8.203463853358587  L 10.702698892819598 8.203463853358587  L 10.702698892819598 11.818182415273203  L 0.9513533454603804 11.818182415273203  Z " stroke-width="0" stroke-dasharray="0" stroke="rgba(121, 121, 121, 1)" fill="none" transform="matrix(1 0 0 1 1762 72 )" class="stroke" mask="url(#Clip4878)" />
    <path d="M 0.0648592067831483 14.502165846635577  C 0.0648592067831483 14.502165846635577  0.02160973802878999 13.203464791645047  0.02160973802878999 13.203464791645047  C 0.9873752186655049 13.203464791645047  2.1117057605847975 13.196248567009334  3.394588417720285 13.181818523013257  C 4.677470957696801 13.16738847901718  6.039637434222267 13.152959782891596  7.4810783574199675 13.138529738895521  C 8.936933934711899 13.109669650903369  10.392789746321771 13.08802473014207  11.848644854977813 13.073594686145995  C 11.848644854977813 13.073594686145995  11.805395386223454 14.285714419755209  11.805395386223454 14.285714419755209  C 10.363954463025753 14.314574507747363  8.929729829536509 14.350650216536575  7.502703091797147 14.393940133195393  C 6.075676354057787 14.422800221187547  4.720720426451159 14.444445141948844  3.4378378864746435 14.458875185944919  C 2.1693696491154406 14.473305229940996  1.0450392243551196 14.4877358026395  0.0648592067831483 14.502165846635577  Z " stroke-width="0" stroke-dasharray="0" stroke="rgba(121, 121, 121, 1)" fill="none" transform="matrix(1 0 0 1 1762 72 )" class="stroke" mask="url(#Clip4878)" />
    <path d="M 3.394588417720285 13.268399844394574  C 3.7405343166126546 12.633478989795758  4.0504433166617675 12.034632962510015  4.3243170288034865 11.471862759466699  C 4.3243170288034865 11.471862759466699  5.708105076413893 11.796538023214334  5.708105076413893 11.796538023214334  C 5.4198167101779475 12.373738485583134  5.09548734453473 12.987012954264351  4.735126996576334 13.636363892259943  C 4.3891813027121644 14.28571459568392  4.036025323536844 14.913421610763873  3.6756649755784467 15.519482298569132  C 3.329719076686077 16.12554298637439  3.0125997620360687 16.666667184678982  2.7243116301180663 17.142857679020835  C 2.7243116301180663 17.142857679020835  1.3837730512620179 16.753247362523677  1.3837730512620179 16.753247362523677  C 1.6864756322460481 16.277056750896016  2.0108052322072076 15.735932552591425  2.3567511310995775 15.129871982071974  C 2.702697029991947 14.523811176980905  3.0486425188279154 13.903320523064677  3.394588417720285 13.268399844394574  Z " stroke-width="0" stroke-dasharray="0" stroke="rgba(121, 121, 121, 1)" fill="none" transform="matrix(1 0 0 1 1762 72 )" class="stroke" mask="url(#Clip4878)" />
    <path d="M 5.081077757566033 17.3593091059012  C 4.2738708944684465 16.98412869687211  3.445043397557695 16.645022939227374  2.59459321655177 16.341992653967647  C 2.59459321655177 16.341992653967647  3.4162131520974643 15.36796592443829  3.4162131520974643 15.36796592443829  C 4.252248913327104 15.6565662729085  5.0882866662592665 15.981242181728073  5.924322427488907 16.341992653967647  C 6.760358188718547 16.68831295484609  7.545938677213348 17.05627999349955  8.281073558588483 17.445890427282517  C 9.016208908599506 17.82107083631161  9.643236578924283 18.18181966654988  10.162155515132065 18.52814005539268  C 10.162155515132065 18.52814005539268  9.124318228511358 19.567100899385103  9.124318228511358 19.567100899385103  C 8.634228571202287 19.206350485788434  8.036026665007071 18.838383535099325  7.329720213128104 18.463203126070233  C 6.637828825399765 18.088022717041138  5.888285089299505 17.720059519497873  5.081077757566033 17.3593091059012  Z " stroke-width="0" stroke-dasharray="0" stroke="rgba(121, 121, 121, 1)" fill="none" transform="matrix(1 0 0 1 1762 72 )" class="stroke" mask="url(#Clip4878)" />
    <path d="M 6.875675772949287 16.25541133258633  C 7.509909833049403 15.577200521011704  7.963949967636006 14.733046359983359  8.237824089834124 13.72294521364126  C 8.237824089834124 13.72294521364126  9.621612137444531 13.961039156007576  9.621612137444531 13.961039156007576  C 9.347738425302815 15.14430048211035  8.857646190496364 16.13275535982066  8.151340148673798 16.926406252140467  C 7.445034106851232 17.7056271197064  6.515307311732093 18.3405485314128  5.362154315424195 18.83116905050852  C 4.209001319116295 19.3217895989257  2.8107985002526887 19.711399651529792  1.1675557001870045 20  C 1.1243124884539832 19.783549760638433  1.037833610757968 19.552671006577764  0.9081038767060221 19.307360688386996  C 0.7927885770752321 19.076480468253735  0.6702580128769895 18.874459154091596  0.5405283813391439 18.70129894500947  C 2.0252126810246702 18.528138765248798  3.29368982246573 18.246755540300057  4.345941763180666 17.857145135838547  C 5.398193703895602 17.453104706623158  6.241441712849172 16.919192002121278  6.875675772949287 16.25541133258633  Z " stroke-width="0" stroke-dasharray="0" stroke="rgba(121, 121, 121, 1)" fill="none" transform="matrix(1 0 0 1 1762 72 )" class="stroke" mask="url(#Clip4878)" />
    <path d="M 0 4.870129894500947  L 0 3.636362953973484  L 2.0540498388642363 3.636362953973484  L 2.0540498388642363 3.70129894500947  L 9.513503461907026 3.70129894500947  L 9.513503461907026 3.636362953973484  L 11.740536179440307 3.636362953973484  L 11.740536179440307 4.870129894500947  L 9.513503461907026 4.870129894500947  L 9.513503461907026 4.805194841751421  L 2.0540498388642363 4.805194841751421  L 2.0540498388642363 4.870129894500947  L 0 4.870129894500947  Z " stroke-width="0" stroke-dasharray="0" stroke="rgba(121, 121, 121, 1)" fill="none" transform="matrix(1 0 0 1 1762 72 )" class="stroke" mask="url(#Clip4878)" />
  </g>
</svg>