<?xml version="1.0" encoding="utf-8"?>
<svg version="1.1" xmlns:xlink="http://www.w3.org/1999/xlink" width="8px" height="16px" xmlns="http://www.w3.org/2000/svg">
  <defs>
    <pattern id="BGPattern" patternUnits="userSpaceOnUse" alignment="0 0" imageRepeat="None" />
    <mask fill="white" id="Clip4923">
      <path d="M 8 0  L 8 16  L 0 16  L 0 14.29367273198951  L 6 14.29367273198951  L 6 0  L 8 0  Z " fill-rule="evenodd" />
    </mask>
  </defs>
  <g transform="matrix(1 0 0 1 -783 -650 )">
    <path d="M 8 0  L 8 16  L 0 16  L 0 14.29367273198951  L 6 14.29367273198951  L 6 0  L 8 0  Z " fill-rule="nonzero" fill="rgba(0, 0, 0, 1)" stroke="none" transform="matrix(1 0 0 1 783 650 )" class="fill" />
    <path d="M 8 0  L 8 16  L 0 16  L 0 14.29367273198951  L 6 14.29367273198951  L 6 0  L 8 0  Z " stroke-width="0" stroke-dasharray="0" stroke="rgba(121, 121, 121, 1)" fill="none" transform="matrix(1 0 0 1 783 650 )" class="stroke" mask="url(#Clip4923)" />
  </g>
</svg>