<?xml version="1.0" encoding="utf-8"?>
<svg version="1.1" xmlns:xlink="http://www.w3.org/1999/xlink" width="22px" height="19px" xmlns="http://www.w3.org/2000/svg">
  <defs>
    <pattern id="BGPattern" patternUnits="userSpaceOnUse" alignment="0 0" imageRepeat="None" />
    <mask fill="white" id="Clip4933">
      <path d="M 0.9309757921089298 2  L 0.9309757921089298 0  L 21.19154479649286 0  L 21.19154479649286 2  L 0.9309757921089298 2  Z M 11.538990903632882 9.80798406896262  L 11.538990903632882 8.078558818236662  L 20.23608357782888 8.078558818236662  L 20.23608357782888 9.80798406896262  L 11.538990903632882 9.80798406896262  Z M 0 19  L 0 17  L 22 17  L 22 19  L 0 19  Z M 11 18.123440964550745  L 11 0.663338716083324  L 12.567939553904187 0.663338716083324  L 12.567939553904187 18.123440964550745  L 11 18.123440964550745  Z M 3.331855976075308 18.194519425068393  L 3.331855976075308 6.088527607799676  L 5.218261834906034 6.088527607799676  L 5.218261834906034 18.194519425068393  L 3.331855976075308 18.194519425068393  Z " fill-rule="evenodd" />
    </mask>
  </defs>
  <g transform="matrix(1 0 0 1 -423 -645 )">
    <path d="M 0.9309757921089298 2  L 0.9309757921089298 0  L 21.19154479649286 0  L 21.19154479649286 2  L 0.9309757921089298 2  Z M 11.538990903632882 9.80798406896262  L 11.538990903632882 8.078558818236662  L 20.23608357782888 8.078558818236662  L 20.23608357782888 9.80798406896262  L 11.538990903632882 9.80798406896262  Z M 0 19  L 0 17  L 22 17  L 22 19  L 0 19  Z M 11 18.123440964550745  L 11 0.663338716083324  L 12.567939553904187 0.663338716083324  L 12.567939553904187 18.123440964550745  L 11 18.123440964550745  Z M 3.331855976075308 18.194519425068393  L 3.331855976075308 6.088527607799676  L 5.218261834906034 6.088527607799676  L 5.218261834906034 18.194519425068393  L 3.331855976075308 18.194519425068393  Z " fill-rule="nonzero" fill="rgba(0, 0, 0, 1)" stroke="none" transform="matrix(1 0 0 1 423 645 )" class="fill" />
    <path d="M 0.9309757921089298 2  L 0.9309757921089298 0  L 21.19154479649286 0  L 21.19154479649286 2  L 0.9309757921089298 2  Z " stroke-width="0" stroke-dasharray="0" stroke="rgba(121, 121, 121, 1)" fill="none" transform="matrix(1 0 0 1 423 645 )" class="stroke" mask="url(#Clip4933)" />
    <path d="M 11.538990903632882 9.80798406896262  L 11.538990903632882 8.078558818236662  L 20.23608357782888 8.078558818236662  L 20.23608357782888 9.80798406896262  L 11.538990903632882 9.80798406896262  Z " stroke-width="0" stroke-dasharray="0" stroke="rgba(121, 121, 121, 1)" fill="none" transform="matrix(1 0 0 1 423 645 )" class="stroke" mask="url(#Clip4933)" />
    <path d="M 0 19  L 0 17  L 22 17  L 22 19  L 0 19  Z " stroke-width="0" stroke-dasharray="0" stroke="rgba(121, 121, 121, 1)" fill="none" transform="matrix(1 0 0 1 423 645 )" class="stroke" mask="url(#Clip4933)" />
    <path d="M 11 18.123440964550745  L 11 0.663338716083324  L 12.567939553904187 0.663338716083324  L 12.567939553904187 18.123440964550745  L 11 18.123440964550745  Z " stroke-width="0" stroke-dasharray="0" stroke="rgba(121, 121, 121, 1)" fill="none" transform="matrix(1 0 0 1 423 645 )" class="stroke" mask="url(#Clip4933)" />
    <path d="M 3.331855976075308 18.194519425068393  L 3.331855976075308 6.088527607799676  L 5.218261834906034 6.088527607799676  L 5.218261834906034 18.194519425068393  L 3.331855976075308 18.194519425068393  Z " stroke-width="0" stroke-dasharray="0" stroke="rgba(121, 121, 121, 1)" fill="none" transform="matrix(1 0 0 1 423 645 )" class="stroke" mask="url(#Clip4933)" />
  </g>
</svg>