<?xml version="1.0" encoding="utf-8"?>
<svg version="1.1" xmlns:xlink="http://www.w3.org/1999/xlink" width="9px" height="17px" xmlns="http://www.w3.org/2000/svg">
  <defs>
    <pattern id="BGPattern" patternUnits="userSpaceOnUse" alignment="0 0" imageRepeat="None" />
    <mask fill="white" id="Clip4984">
      <path d="M 9 9.455056147794506  C 9 9.455056147794506  9 17  9 17  L 7.325581137459678 17  C 7.325581137459678 17  7.325581137459678 9.741571189483151  7.325581137459678 9.741571189483151  C 7.325581137459678 7.688200661477565  6.255812914768149 6.637639895104762  4.534883033225809 6.637639895104762  C 2.813952805144912 6.637639895104762  1.6744188625403218 7.712076756824453  1.6744188625403218 9.741571189483151  C 1.6744188625403218 9.741571189483151  1.6744188625403218 17  1.6744188625403218 17  L 0 17  L 0 0  L 1.6744188625403218 0  C 1.6744188625403218 0  1.6744188625403218 6.542133616191211  1.6744188625403218 6.542133616191211  C 2.5116282938104826 5.563200898668317  3.6046511019002017 5.109549868880953  4.883720758306453 5.109549868880953  C 7.465115580619962 5.109549868880953  9 6.804775408821978  9 9.455056147794506  Z " fill-rule="evenodd" />
    </mask>
  </defs>
  <g transform="matrix(1 0 0 1 -166 -553 )">
    <path d="M 9 9.455056147794506  C 9 9.455056147794506  9 17  9 17  L 7.325581137459678 17  C 7.325581137459678 17  7.325581137459678 9.741571189483151  7.325581137459678 9.741571189483151  C 7.325581137459678 7.688200661477565  6.255812914768149 6.637639895104762  4.534883033225809 6.637639895104762  C 2.813952805144912 6.637639895104762  1.6744188625403218 7.712076756824453  1.6744188625403218 9.741571189483151  C 1.6744188625403218 9.741571189483151  1.6744188625403218 17  1.6744188625403218 17  L 0 17  L 0 0  L 1.6744188625403218 0  C 1.6744188625403218 0  1.6744188625403218 6.542133616191211  1.6744188625403218 6.542133616191211  C 2.5116282938104826 5.563200898668317  3.6046511019002017 5.109549868880953  4.883720758306453 5.109549868880953  C 7.465115580619962 5.109549868880953  9 6.804775408821978  9 9.455056147794506  Z " fill-rule="nonzero" fill="rgba(0, 0, 0, 1)" stroke="none" transform="matrix(1 0 0 1 166 553 )" class="fill" />
    <path d="M 9 9.455056147794506  C 9 9.455056147794506  9 17  9 17  L 7.325581137459678 17  C 7.325581137459678 17  7.325581137459678 9.741571189483151  7.325581137459678 9.741571189483151  C 7.325581137459678 7.688200661477565  6.255812914768149 6.637639895104762  4.534883033225809 6.637639895104762  C 2.813952805144912 6.637639895104762  1.6744188625403218 7.712076756824453  1.6744188625403218 9.741571189483151  C 1.6744188625403218 9.741571189483151  1.6744188625403218 17  1.6744188625403218 17  L 0 17  L 0 0  L 1.6744188625403218 0  C 1.6744188625403218 0  1.6744188625403218 6.542133616191211  1.6744188625403218 6.542133616191211  C 2.5116282938104826 5.563200898668317  3.6046511019002017 5.109549868880953  4.883720758306453 5.109549868880953  C 7.465115580619962 5.109549868880953  9 6.804775408821978  9 9.455056147794506  Z " stroke-width="0" stroke-dasharray="0" stroke="rgba(121, 121, 121, 1)" fill="none" transform="matrix(1 0 0 1 166 553 )" class="stroke" mask="url(#Clip4984)" />
  </g>
</svg>