<?xml version="1.0" encoding="utf-8"?>
<svg version="1.1" xmlns:xlink="http://www.w3.org/1999/xlink" width="22px" height="22px" xmlns="http://www.w3.org/2000/svg">
  <defs>
    <pattern id="BGPattern" patternUnits="userSpaceOnUse" alignment="0 0" imageRepeat="None" />
    <mask fill="white" id="Clip4949">
      <path d="M 8.08408238879267 5.422364090216263  L 8.08408238879267 4  L 21.14659746125008 4  L 21.14659746125008 5.422364090216263  L 8.08408238879267 5.422364090216263  Z M 8.558201609190363 11  L 8.558201609190363 9  L 19.012940389801155 9  L 19.012940389801155 11  L 8.558201609190363 11  Z M 13.678918290838139 9.960921104950408  L 13.678918290838139 0  L 15.43323175410519 0  L 15.43323175410519 9.960921104950408  L 13.678918290838139 9.960921104950408  Z M 9.269380439786902 10.701408524597406  C 9.269380439786902 10.701408524597406  10.857776291846623 10.223671276149242  10.857776291846623 10.223671276149242  C 11.758639643920045 12.739776866826636  13.149445470589525 14.889608959946376  15.030194242869356 16.673177284676047  C 16.91094395717778 18.45674560940572  19.23419181825905 19.71480552364753  22 20.447342552298483  C 21.873562806930043 20.574740277066844  21.73137489586302 20.726018777595456  21.573328875539868 20.901190660275244  C 21.431087268843314 21.092287291920933  21.296727615345407 21.283387838963336  21.170291364304035 21.474484470609028  C 21.043854171234077 21.665581042930523  20.933223275847894 21.840752866286117  20.83839585205972 22  C 17.993564660157194 21.140065335566973  15.60708218805494 19.746655733469648  13.678918290838139 17.81976490534361  C 11.766559749276523 15.892874195865963  10.29668051391599 13.520083633736661  9.269380439786902 10.701408524597406  Z M 18.870716681647774 9.339849013673817  C 18.870716681647774 9.339849013673817  18.870716681647774 9.029320561532174  18.870716681647774 9.029320561532174  L 19.20261219389209 9.029320561532174  L 19.53450770613641 8.957653140117962  C 19.53450770613641 8.957653140117962  20.672417951022734 9.45927952903753  20.672417951022734 9.45927952903753  C 20.16667012077149 11.163224583531225  19.47921722220091 12.691998585883828  18.609963168394977 14.045599637721178  C 17.740709114589045 15.399200452261757  16.729192729457612 16.593560302804484  15.575455462258567 17.628666968565685  C 14.43752355071471 18.647848885360983  13.196855885383554 19.515743195364102  11.853462828579572 20.23235547504915  C 10.525875127430776 20.9489677547342  9.135069300761296 21.522254327516485  7.681044877556837 21.952221719057192  C 7.617826281021858 21.79297458534331  7.530923672733103 21.609838429806405  7.4202913643040365 21.402817049194812  C 7.325463469501568 21.211720476873314  7.214832574115384 21.01267063633243  7.08839585205972 20.805649285382934  C 6.961958658989762 20.61455268339934  6.835488965933505 20.463259025539518  6.709052243877841 20.351785990412864  C 8.068249243294126 19.985517476087388  9.38004100907362 19.483895536482265  10.64441058470173 18.846906823654155  C 11.924584573956437 18.20991811082605  13.10201715725232 17.437566421523282  14.176731414289787 16.52985762884093  C 15.26725008495385 15.6062238498959  16.215531859064303 14.547229111498762  17.021567316335254 13.35287531202368  C 17.82760277360621 12.142596763582695  18.443991861558107 10.804923070975724  18.870716681647774 9.339849013673817  Z M 0.5215673163352553 14.380017230334223  C 0.5215673163352553 14.380017230334223  0 12.63626184585478  0 12.63626184585478  C 0.6637939683279712 12.477014830789281  1.414542238763483 12.285929233443415  2.2521868765483526 12.062983222514303  C 3.0898316320867956 11.824112225322516  3.9748783241619714 11.577276124734919  4.907350974502883 11.322480615873998  C 5.8556280384703925 11.051760595343945  6.795960504338128 10.781030608349532  7.728432683664744 10.510310587819479  C 7.728432683664744 10.510310587819479  7.9655525836932455 12.158524597406615  7.9655525836932455 12.158524597406615  C 6.669573709797645 12.556642609663898  5.365671433445509 12.946792670964125  4.053888145923311 13.328986171552277  C 2.7579095075348588 13.711179197546887  1.5804765709782573 14.061522725609688  0.5215673163352553 14.380017230334223  Z M 0.28450770613640847 6.521173429941019  L 0.28450770613640847 4.825196326404383  L 7.728432683664744 4.825196326404383  L 7.728432683664744 6.521173429941019  L 0.28450770613640847 6.521173429941019  Z M 3.342649025497117 19.802381320550488  C 3.342649025497117 19.802381320550488  3.342649025497117 0  3.342649025497117 0  L 5.096962488764168 0  C 5.096962488764168 0  5.096962488764168 19.802381320550488  5.096962488764168 19.802381320550488  C 5.096962488764168 20.311972278948137  5.033787696558547 20.702137883186825  4.907350974502883 20.972858081689456  C 4.780914016940072 21.24357828019209  4.559652461674851 21.45059254190057  4.24355995001425 21.59391498597274  C 3.927467673860796 21.737237489369104  3.5086120895838357 21.824830964881457  2.987059610198847 21.856680344164882  C 2.48131201545475 21.90445447241421  1.8175267608912207 21.920383255425207  0.9956865367329489 21.90445862510769  C 0.9640773562190329 21.681512495530193  0.8929532557706958 21.41078292380513  0.782320829588056 21.092288597053173  C 0.6716885211589898 20.789718959942924  0.561057625772806 20.511040065057283  0.4504253173437397 20.256244615520554  C 1.0035869772426447 20.272169334824362  1.5093452875619342 20.28013375599196  1.967679170411944 20.28013375599196  C 2.4260130532619537 20.28013375599196  2.7341774523230766 20.28013375599196  2.8922237081533773 20.28013375599196  C 3.1925113351730867 20.28013375599196  3.342649025497117 20.12087567696454  3.342649025497117 19.802381320550488  Z " fill-rule="evenodd" />
    </mask>
  </defs>
  <g transform="matrix(1 0 0 1 -731 -612 )">
    <path d="M 8.08408238879267 5.422364090216263  L 8.08408238879267 4  L 21.14659746125008 4  L 21.14659746125008 5.422364090216263  L 8.08408238879267 5.422364090216263  Z M 8.558201609190363 11  L 8.558201609190363 9  L 19.012940389801155 9  L 19.012940389801155 11  L 8.558201609190363 11  Z M 13.678918290838139 9.960921104950408  L 13.678918290838139 0  L 15.43323175410519 0  L 15.43323175410519 9.960921104950408  L 13.678918290838139 9.960921104950408  Z M 9.269380439786902 10.701408524597406  C 9.269380439786902 10.701408524597406  10.857776291846623 10.223671276149242  10.857776291846623 10.223671276149242  C 11.758639643920045 12.739776866826636  13.149445470589525 14.889608959946376  15.030194242869356 16.673177284676047  C 16.91094395717778 18.45674560940572  19.23419181825905 19.71480552364753  22 20.447342552298483  C 21.873562806930043 20.574740277066844  21.73137489586302 20.726018777595456  21.573328875539868 20.901190660275244  C 21.431087268843314 21.092287291920933  21.296727615345407 21.283387838963336  21.170291364304035 21.474484470609028  C 21.043854171234077 21.665581042930523  20.933223275847894 21.840752866286117  20.83839585205972 22  C 17.993564660157194 21.140065335566973  15.60708218805494 19.746655733469648  13.678918290838139 17.81976490534361  C 11.766559749276523 15.892874195865963  10.29668051391599 13.520083633736661  9.269380439786902 10.701408524597406  Z M 18.870716681647774 9.339849013673817  C 18.870716681647774 9.339849013673817  18.870716681647774 9.029320561532174  18.870716681647774 9.029320561532174  L 19.20261219389209 9.029320561532174  L 19.53450770613641 8.957653140117962  C 19.53450770613641 8.957653140117962  20.672417951022734 9.45927952903753  20.672417951022734 9.45927952903753  C 20.16667012077149 11.163224583531225  19.47921722220091 12.691998585883828  18.609963168394977 14.045599637721178  C 17.740709114589045 15.399200452261757  16.729192729457612 16.593560302804484  15.575455462258567 17.628666968565685  C 14.43752355071471 18.647848885360983  13.196855885383554 19.515743195364102  11.853462828579572 20.23235547504915  C 10.525875127430776 20.9489677547342  9.135069300761296 21.522254327516485  7.681044877556837 21.952221719057192  C 7.617826281021858 21.79297458534331  7.530923672733103 21.609838429806405  7.4202913643040365 21.402817049194812  C 7.325463469501568 21.211720476873314  7.214832574115384 21.01267063633243  7.08839585205972 20.805649285382934  C 6.961958658989762 20.61455268339934  6.835488965933505 20.463259025539518  6.709052243877841 20.351785990412864  C 8.068249243294126 19.985517476087388  9.38004100907362 19.483895536482265  10.64441058470173 18.846906823654155  C 11.924584573956437 18.20991811082605  13.10201715725232 17.437566421523282  14.176731414289787 16.52985762884093  C 15.26725008495385 15.6062238498959  16.215531859064303 14.547229111498762  17.021567316335254 13.35287531202368  C 17.82760277360621 12.142596763582695  18.443991861558107 10.804923070975724  18.870716681647774 9.339849013673817  Z M 0.5215673163352553 14.380017230334223  C 0.5215673163352553 14.380017230334223  0 12.63626184585478  0 12.63626184585478  C 0.6637939683279712 12.477014830789281  1.414542238763483 12.285929233443415  2.2521868765483526 12.062983222514303  C 3.0898316320867956 11.824112225322516  3.9748783241619714 11.577276124734919  4.907350974502883 11.322480615873998  C 5.8556280384703925 11.051760595343945  6.795960504338128 10.781030608349532  7.728432683664744 10.510310587819479  C 7.728432683664744 10.510310587819479  7.9655525836932455 12.158524597406615  7.9655525836932455 12.158524597406615  C 6.669573709797645 12.556642609663898  5.365671433445509 12.946792670964125  4.053888145923311 13.328986171552277  C 2.7579095075348588 13.711179197546887  1.5804765709782573 14.061522725609688  0.5215673163352553 14.380017230334223  Z M 0.28450770613640847 6.521173429941019  L 0.28450770613640847 4.825196326404383  L 7.728432683664744 4.825196326404383  L 7.728432683664744 6.521173429941019  L 0.28450770613640847 6.521173429941019  Z M 3.342649025497117 19.802381320550488  C 3.342649025497117 19.802381320550488  3.342649025497117 0  3.342649025497117 0  L 5.096962488764168 0  C 5.096962488764168 0  5.096962488764168 19.802381320550488  5.096962488764168 19.802381320550488  C 5.096962488764168 20.311972278948137  5.033787696558547 20.702137883186825  4.907350974502883 20.972858081689456  C 4.780914016940072 21.24357828019209  4.559652461674851 21.45059254190057  4.24355995001425 21.59391498597274  C 3.927467673860796 21.737237489369104  3.5086120895838357 21.824830964881457  2.987059610198847 21.856680344164882  C 2.48131201545475 21.90445447241421  1.8175267608912207 21.920383255425207  0.9956865367329489 21.90445862510769  C 0.9640773562190329 21.681512495530193  0.8929532557706958 21.41078292380513  0.782320829588056 21.092288597053173  C 0.6716885211589898 20.789718959942924  0.561057625772806 20.511040065057283  0.4504253173437397 20.256244615520554  C 1.0035869772426447 20.272169334824362  1.5093452875619342 20.28013375599196  1.967679170411944 20.28013375599196  C 2.4260130532619537 20.28013375599196  2.7341774523230766 20.28013375599196  2.8922237081533773 20.28013375599196  C 3.1925113351730867 20.28013375599196  3.342649025497117 20.12087567696454  3.342649025497117 19.802381320550488  Z " fill-rule="nonzero" fill="rgba(0, 0, 0, 1)" stroke="none" transform="matrix(1 0 0 1 731 612 )" class="fill" />
    <path d="M 8.08408238879267 5.422364090216263  L 8.08408238879267 4  L 21.14659746125008 4  L 21.14659746125008 5.422364090216263  L 8.08408238879267 5.422364090216263  Z " stroke-width="0" stroke-dasharray="0" stroke="rgba(121, 121, 121, 1)" fill="none" transform="matrix(1 0 0 1 731 612 )" class="stroke" mask="url(#Clip4949)" />
    <path d="M 8.558201609190363 11  L 8.558201609190363 9  L 19.012940389801155 9  L 19.012940389801155 11  L 8.558201609190363 11  Z " stroke-width="0" stroke-dasharray="0" stroke="rgba(121, 121, 121, 1)" fill="none" transform="matrix(1 0 0 1 731 612 )" class="stroke" mask="url(#Clip4949)" />
    <path d="M 13.678918290838139 9.960921104950408  L 13.678918290838139 0  L 15.43323175410519 0  L 15.43323175410519 9.960921104950408  L 13.678918290838139 9.960921104950408  Z " stroke-width="0" stroke-dasharray="0" stroke="rgba(121, 121, 121, 1)" fill="none" transform="matrix(1 0 0 1 731 612 )" class="stroke" mask="url(#Clip4949)" />
    <path d="M 9.269380439786902 10.701408524597406  C 9.269380439786902 10.701408524597406  10.857776291846623 10.223671276149242  10.857776291846623 10.223671276149242  C 11.758639643920045 12.739776866826636  13.149445470589525 14.889608959946376  15.030194242869356 16.673177284676047  C 16.91094395717778 18.45674560940572  19.23419181825905 19.71480552364753  22 20.447342552298483  C 21.873562806930043 20.574740277066844  21.73137489586302 20.726018777595456  21.573328875539868 20.901190660275244  C 21.431087268843314 21.092287291920933  21.296727615345407 21.283387838963336  21.170291364304035 21.474484470609028  C 21.043854171234077 21.665581042930523  20.933223275847894 21.840752866286117  20.83839585205972 22  C 17.993564660157194 21.140065335566973  15.60708218805494 19.746655733469648  13.678918290838139 17.81976490534361  C 11.766559749276523 15.892874195865963  10.29668051391599 13.520083633736661  9.269380439786902 10.701408524597406  Z " stroke-width="0" stroke-dasharray="0" stroke="rgba(121, 121, 121, 1)" fill="none" transform="matrix(1 0 0 1 731 612 )" class="stroke" mask="url(#Clip4949)" />
    <path d="M 18.870716681647774 9.339849013673817  C 18.870716681647774 9.339849013673817  18.870716681647774 9.029320561532174  18.870716681647774 9.029320561532174  L 19.20261219389209 9.029320561532174  L 19.53450770613641 8.957653140117962  C 19.53450770613641 8.957653140117962  20.672417951022734 9.45927952903753  20.672417951022734 9.45927952903753  C 20.16667012077149 11.163224583531225  19.47921722220091 12.691998585883828  18.609963168394977 14.045599637721178  C 17.740709114589045 15.399200452261757  16.729192729457612 16.593560302804484  15.575455462258567 17.628666968565685  C 14.43752355071471 18.647848885360983  13.196855885383554 19.515743195364102  11.853462828579572 20.23235547504915  C 10.525875127430776 20.9489677547342  9.135069300761296 21.522254327516485  7.681044877556837 21.952221719057192  C 7.617826281021858 21.79297458534331  7.530923672733103 21.609838429806405  7.4202913643040365 21.402817049194812  C 7.325463469501568 21.211720476873314  7.214832574115384 21.01267063633243  7.08839585205972 20.805649285382934  C 6.961958658989762 20.61455268339934  6.835488965933505 20.463259025539518  6.709052243877841 20.351785990412864  C 8.068249243294126 19.985517476087388  9.38004100907362 19.483895536482265  10.64441058470173 18.846906823654155  C 11.924584573956437 18.20991811082605  13.10201715725232 17.437566421523282  14.176731414289787 16.52985762884093  C 15.26725008495385 15.6062238498959  16.215531859064303 14.547229111498762  17.021567316335254 13.35287531202368  C 17.82760277360621 12.142596763582695  18.443991861558107 10.804923070975724  18.870716681647774 9.339849013673817  Z " stroke-width="0" stroke-dasharray="0" stroke="rgba(121, 121, 121, 1)" fill="none" transform="matrix(1 0 0 1 731 612 )" class="stroke" mask="url(#Clip4949)" />
    <path d="M 0.5215673163352553 14.380017230334223  C 0.5215673163352553 14.380017230334223  0 12.63626184585478  0 12.63626184585478  C 0.6637939683279712 12.477014830789281  1.414542238763483 12.285929233443415  2.2521868765483526 12.062983222514303  C 3.0898316320867956 11.824112225322516  3.9748783241619714 11.577276124734919  4.907350974502883 11.322480615873998  C 5.8556280384703925 11.051760595343945  6.795960504338128 10.781030608349532  7.728432683664744 10.510310587819479  C 7.728432683664744 10.510310587819479  7.9655525836932455 12.158524597406615  7.9655525836932455 12.158524597406615  C 6.669573709797645 12.556642609663898  5.365671433445509 12.946792670964125  4.053888145923311 13.328986171552277  C 2.7579095075348588 13.711179197546887  1.5804765709782573 14.061522725609688  0.5215673163352553 14.380017230334223  Z " stroke-width="0" stroke-dasharray="0" stroke="rgba(121, 121, 121, 1)" fill="none" transform="matrix(1 0 0 1 731 612 )" class="stroke" mask="url(#Clip4949)" />
    <path d="M 0.28450770613640847 6.521173429941019  L 0.28450770613640847 4.825196326404383  L 7.728432683664744 4.825196326404383  L 7.728432683664744 6.521173429941019  L 0.28450770613640847 6.521173429941019  Z " stroke-width="0" stroke-dasharray="0" stroke="rgba(121, 121, 121, 1)" fill="none" transform="matrix(1 0 0 1 731 612 )" class="stroke" mask="url(#Clip4949)" />
    <path d="M 3.342649025497117 19.802381320550488  C 3.342649025497117 19.802381320550488  3.342649025497117 0  3.342649025497117 0  L 5.096962488764168 0  C 5.096962488764168 0  5.096962488764168 19.802381320550488  5.096962488764168 19.802381320550488  C 5.096962488764168 20.311972278948137  5.033787696558547 20.702137883186825  4.907350974502883 20.972858081689456  C 4.780914016940072 21.24357828019209  4.559652461674851 21.45059254190057  4.24355995001425 21.59391498597274  C 3.927467673860796 21.737237489369104  3.5086120895838357 21.824830964881457  2.987059610198847 21.856680344164882  C 2.48131201545475 21.90445447241421  1.8175267608912207 21.920383255425207  0.9956865367329489 21.90445862510769  C 0.9640773562190329 21.681512495530193  0.8929532557706958 21.41078292380513  0.782320829588056 21.092288597053173  C 0.6716885211589898 20.789718959942924  0.561057625772806 20.511040065057283  0.4504253173437397 20.256244615520554  C 1.0035869772426447 20.272169334824362  1.5093452875619342 20.28013375599196  1.967679170411944 20.28013375599196  C 2.4260130532619537 20.28013375599196  2.7341774523230766 20.28013375599196  2.8922237081533773 20.28013375599196  C 3.1925113351730867 20.28013375599196  3.342649025497117 20.12087567696454  3.342649025497117 19.802381320550488  Z " stroke-width="0" stroke-dasharray="0" stroke="rgba(121, 121, 121, 1)" fill="none" transform="matrix(1 0 0 1 731 612 )" class="stroke" mask="url(#Clip4949)" />
  </g>
</svg>