<?xml version="1.0" encoding="utf-8"?>
<svg version="1.1" xmlns:xlink="http://www.w3.org/1999/xlink" width="23px" height="22px" xmlns="http://www.w3.org/2000/svg">
  <defs>
    <pattern id="BGPattern" patternUnits="userSpaceOnUse" alignment="0 0" imageRepeat="None" />
    <mask fill="white" id="Clip4936">
      <path d="M 19.717782953714487 14.579173220446275  L 11.830676001408337 14.579173220446275  L 11.830676001408337 15.652927462158173  L 19.717782953714487 15.652927462158173  L 19.717782953714487 14.579173220446275  Z M 19.717782953714487 16.583517505745835  L 11.830676001408337 16.583517505745835  L 11.830676001408337 17.704983033152413  L 19.717782953714487 17.704983033152413  L 19.717782953714487 16.583517505745835  Z M 19.717782953714487 12.57484410566681  L 11.830676001408337 12.57484410566681  L 11.830676001408337 13.62473511927132  L 19.717782953714487 13.62473511927132  L 19.717782953714487 12.57484410566681  Z M 10.18956747826558 18.731010818649533  L 10.18956747826558 11.548801149649597  L 21.40786840180917 11.548801149649597  L 21.40786840180917 18.731010818649533  L 10.18956747826558 18.731010818649533  Z M 18.542056441784254 20.40130025148585  C 17.970526289507895 20.130873701067316  17.39083688520705 19.876349292777938  16.802978495788533 19.63773763412981  C 16.802978495788533 19.63773763412981  18.003185683720176 18.70716276106224  18.003185683720176 18.70716276106224  C 18.607374256899494 18.929866944195243  19.21156380338813 19.17642039974234  19.81575237656745 19.4468469797908  C 20.436270160198248 19.701366054694205  21.02414120263792 19.963846274835692  21.5793421444628 20.234272825254227  C 22.13454211297836 20.50469937567276  22.60809408261788 20.76716439566423  23 21.02168350019756  C 23 21.02168350019756  21.40786840180917 22  21.40786840180917 22  C 21.064951089090812 21.761388341351875  20.640400377136203 21.506863933062494  20.134188039975083 21.23643738264396  C 19.644305886574763 20.966010832225425  19.113586594060614 20.687634218159662  18.542056441784254 20.40130025148585  Z M 14.72098421038377 4.438181164971821  L 14.72098421038377 0  L 16.50905465428053 0  L 16.50905465428053 4.438181164971821  L 14.72098421038377 4.438181164971821  Z M 8.744413373777862 3  L 8.744413373777862 1.431672322282529  L 22.534602415838368 1.431672322282529  L 22.534602415838368 3  L 8.744413373777862 3  Z M 9.895628063808466 5  L 9.895628063808466 4  L 21.75080031416732 4  L 21.75080031416732 5  L 9.895628063808466 5  Z M 20.575073802237085 6.919744500858858  L 10.924392654984699 6.919744500858858  L 10.924392654984699 9.42515589433319  L 20.575073802237085 9.42515589433319  L 20.575073802237085 6.919744500858858  Z M 9.454742301546462 10.475062078457793  L 9.454742301546462 6  L 22.118212902526878 6  L 22.118212902526878 10.475062078457793  L 9.454742301546462 10.475062078457793  Z M 13.079875687241016 7.73101840390958  C 13.455452394171655 7.444684318716077  13.675895275302658 6.99132565176347  13.741212117108578 6.370935765949216  C 13.741212117108578 6.370935765949216  14.965915553990737 6.370935765949216  14.965915553990737 6.370935765949216  C 14.884268528424018 7.1822153579449735  14.606673897367495 7.794644039261305  14.133120954418656 8.208237454497059  C 13.675897221921296 8.621830869732813  12.867584271659942 8.939986543059108  11.708194756655741 9.16269072619211  C 11.642877914849821 9.03543139614986  11.544906545378218 8.892257716450567  11.414270915147739 8.733182961299315  C 11.2999649820234 8.574108680226812  11.17749395701866 8.446861202153386  11.04685832678818 8.351416823141387  C 12.026624093552797 8.208249780544635  12.704298980310377 8.001445250627334  13.079875687241016 7.73101840390958  Z M 16.435565907428973 7.420826779553725  C 16.435565907428973 7.420826779553725  16.435565907428973 6.299346081627053  16.435565907428973 6.299346081627053  L 17.807231265065134 6.299346081627053  C 17.807231265065134 6.299346081627053  17.807231265065134 7.4685532357685  17.807231265065134 7.4685532357685  C 17.807231265065134 7.659441993792498  17.83989844575197 7.7787486527543805  17.90521626086721 7.826471316339133  C 17.97053407598245 7.85828579329063  18.125657195379574 7.874182602033814  18.370598272079732 7.874182602033814  C 18.452246270955772 7.874182602033814  18.615551028491726 7.874182602033814  18.860492105191888 7.874182602033814  C 19.121762392343527 7.874182602033814  19.383022946401972 7.874182602033814  19.64429420686293 7.874182602033814  C 19.90556449401457 7.874182602033814  20.077021690409772 7.874182602033814  20.158668715976493 7.874182602033814  C 20.33829295087073 7.874182602033814  20.46076348922081 7.866226612402175  20.52608130433605 7.8503193739264265  C 20.59139814614197 7.834412135450679  20.632232365327845 7.8026042956017205  20.64856254908864 7.75488163201697  C 20.795527389770605 7.818511534077471  20.966984586165804 7.874186394663839  21.162937058202203 7.921909058248591  C 21.375219713999403 7.969631721833344  21.571177052582403 8.00939555131394  21.75080031416732 8.041210028265438  C 21.71814189326436 8.29572916242869  21.59567038160496 8.478666671608579  21.38338772580776 8.59001876317508  C 21.171105070010565 8.685463142187078  20.83634311607941 8.733182961299315  20.37911938358205 8.733182961299315  C 20.31380156846681 8.733182961299315  20.175011552758445 8.733182961299315  19.96272987027056 8.733182961299315  C 19.766776424924842 8.733182961299315  19.54631894415405 8.733182961299315  19.30137786745389 8.733182961299315  C 19.05643581744441 8.733182961299315  18.82782687112369 8.733182961299315  18.61554518863581 8.733182961299315  C 18.419591743290088 8.733182961299315  18.288954166440973 8.733182961299315  18.223636351325734 8.733182961299315  C 17.75008340837689 8.733182961299315  17.382669846708016 8.701374647371605  17.121398586247054 8.637745219389855  C 16.860128299095415 8.574115317329355  16.680504064201173 8.446853142814586  16.582527828182975 8.255963910711834  C 16.484550618855454 8.06507420453033  16.435565907428973 7.786698005283478  16.435565907428973 7.420826779553725  Z M 11.487759661999295 19.51843666411296  C 12.091948721833274 19.232102667809222  12.58998477405682 18.96168183596565  12.981890691438942 18.70716276106224  C 12.981890691438942 18.70716276106224  14.476037293827694 19.56616312032774  14.476037293827694 19.56616312032774  C 14.002484350878857 19.88431200840188  13.439113450626982 20.194496551206367  12.7859362727839 20.496737993395307  C 12.132759094940823 20.814886851839532  11.455099294477696 21.093278636425385  10.752934485280177 21.33189029507351  C 10.067098886534138 21.58640936997692  9.413924141964358 21.793199025673346  8.7934058716789 21.952273543785225  C 8.64644103099694 21.809106501188474  8.450483692413941 21.626168992008584  8.205542615713782 21.403464808875583  C 7.976930749465103 21.180760566482736  7.764639820538689 20.99782305730285  7.568686861847629 20.854656073965938  C 8.221863553036048 20.695581615113905  8.891372374603906 20.49674769719478  9.577207973349944 20.258136053361614  C 10.263043572095983 20.03543184059869  10.899900299271456 19.788863214531496  11.487759661999295 19.51843666411296  Z M 3.3312095441865504 1.765727174745773  C 3.64146867932928 1.113521863822516  3.894578011165127 0.5249455068022543  4.090530969856188 0  C 4.090530969856188 0  5.707143244048425 0.5726719630170303  5.707143244048425 0.5726719630170303  C 5.396884108905696 1.161247371879786  5.062122154974541 1.7736755791173653  4.702874901822712 2.4099736515648735  C 4.359957102449693 3.0462707758548757  4.0170439262959405 3.658715101770055  3.6741258835955906 4.24729051063281  C 3.3312080842225713 4.835866867653072  2.996461459913198 5.360811426297821  2.6698731143189884 5.822127031039573  C 2.6698731143189884 5.822127031039573  1.4206578555371991 5.2971815242373195  1.4206578555371991 5.2971815242373195  C 1.7309168690162637 4.835865919495567  2.0493452326040003 4.29500938158754  2.375933699861875 3.674618547615781  C 2.718851620898559 3.054228661801527  3.037280106149961 2.4179324856690303  3.3312095441865504 1.765727174745773  Z M 5.584661999295832 4.772236017435065  C 5.992897127129432 4.040493565975558  6.343977585109553 3.356477570730826  6.637907266473472 2.720180446440824  C 6.637907266473472 2.720180446440824  8.205542615713782 3.364426923259924  8.205542615713782 3.364426923259924  C 7.683001068101183 4.255244603949438  7.11146312935027 5.201739989697837  6.490945345719471 6.203908339717594  C 5.87042707543401 7.190170399419107  5.233585921207648 8.144621300720393  4.580409230019229 9.067252984282652  C 3.9435617492822903 9.98988466784491  3.3393724461209815 10.79320684797277  2.7678425371719526 11.477226635847526  C 2.7678425371719526 11.477226635847526  1.6411085231427567 10.904554672830496  1.6411085231427567 10.904554672830496  C 2.065673469746161 10.37960916602824  2.506573223329632 9.783077293455092  2.963796955826991 9.114964269977333  C 3.4210209316516806 8.430944008023825  3.8700717857940847 7.723061466120436  4.310966064512635 6.991319014660928  C 4.768189797009994 6.243669324725673  5.192755595259053 5.503978468894573  5.584661999295832 4.772236017435065  Z M 1.5921315981908295 6.32320930973444  C 1.16756652992376 5.845986466516939  0.7430005491792041 5.408539778827608  0.31843566340763213 5.010853127988851  C 0.31843566340763213 5.010853127988851  1.2736959347831975 3.86550920195479  1.2736959347831975 3.86550920195479  C 1.714590335165412 4.2313804276845435  2.147323293577174 4.644975265156556  2.5718881185169136 5.106290869898309  C 3.0127826405627927 5.551699236164313  3.4128480532967256 5.997101913485282  3.772095306448555 6.4425102797512865  C 4.147672013379195 6.887918646017289  4.433448769229207 7.285616674746119  4.629401727920267 7.635580662000123  C 4.629401727920267 7.635580662000123  3.6006371367440346 8.9718000718531  3.6006371367440346 8.9718000718531  C 3.4046839347256452 8.605928846123346  3.1270897903237818 8.192334482730086  2.7678425371719526 7.73101840390958  C 2.408595405683788 7.253795560692079  2.016696544794234 6.784525862633699  1.5921315981908295 6.32320930973444  Z M 6.539937843620508 9.759225917316527  C 6.278667556468868 9.154743269978024  6.001072925412345 8.590019237253832  5.707143244048425 8.065073256372825  C 5.707143244048425 8.065073256372825  6.980839178831623 7.611717433892736  6.980839178831623 7.611717433892736  C 7.307427767753162 8.12075570221924  7.609522540997481 8.677509048870451  7.887122525255261 9.281991696208957  C 8.181052206619182 9.870567105071713  8.434145722178588 10.443246653348789  8.646428377975788 11.000007585260047  C 8.858710547118328 11.556768043092552  9.01384923946456 12.057846055078643  9.111825962137422 12.503254421344646  C 9.111825962137422 12.503254421344646  7.715664355550741 13.05206315625429  7.715664355550741 13.05206315625429  C 7.6340173299840215 12.606654789988283  7.487045676136825 12.097621262449307  7.274763020339625 11.524953092062301  C 7.062480851197086 10.952285395754046  6.817538314532947 10.363709038733784  6.539937843620508 9.759225917316527  Z M 0.41640508626059636 12.216926025096178  C 0.41640508626059636 12.216926025096178  0.22045066760555754 10.642089504689416  0.22045066760555754 10.642089504689416  C 1.2165453406624935 10.610274553659163  2.38410584823484 10.570495553658473  3.7231183814966284 10.522773364152474  C 5.078460611864556 10.459143462091973  6.48278122714839 10.387556622242327  7.9360994502071875 10.308019481706076  C 7.9360994502071875 10.308019481706076  7.9116032012566695 11.763555032095994  7.9116032012566695 11.763555032095994  C 6.556261214216072 11.843092172632243  5.2254266691831655 11.922635002113529  3.919072800151667 12.00217214264978  C 2.629048506562644 12.08170928318603  1.4614879381584647 12.153296123035675  0.41640508626059636 12.216926025096178  Z M 7.02981610378355 15.939255858406641  C 6.817533934641009 15.207513406947132  6.588924988320288 14.531453638373415  6.343983424965469 13.911063515519787  C 6.343983424965469 13.911063515519787  7.642175608699185 13.553145434949155  7.642175608699185 13.553145434949155  C 7.903446382505485 14.157628319327035  8.140221880670586 14.825747268789208  8.352504536467785 15.557489720248714  C 8.581116402716464 16.28923217170822  8.736239522113587 16.90961648709713  8.817886547680308 17.418654636903945  C 8.817886547680308 17.418654636903945  7.470717438994664 17.848147231276645  7.470717438994664 17.848147231276645  C 7.389070413427945 17.30729424895927  7.24209875958075 16.67099830986615  7.02981610378355 15.939255858406641  Z M 0.9307795953741571 16.726681703870067  C 1.1593914616228367 15.708605404256433  1.3390149665350866 14.682566951987372  1.4696503534382366 13.648583176858613  C 1.4696503534382366 13.648583176858613  2.98829320477751 13.887200287412398  2.98829320477751 13.887200287412398  C 2.82499915364407 15.01662891563191  2.604541429545947 16.12219455278341  2.3269412019608375 17.203900754457546  C 2.065670428154538 18.285606956131684  1.75542443268762 19.20823514336314  1.3961771795357907 19.971792486593053  C 1.2982005785265958 19.90816271045972  1.1593957198511091 19.836590989277802  0.9797720932751943 19.757053774666748  C 0.8001484666992796 19.67751654524073  0.6205249617870298 19.597973893538978  0.4409013352111151 19.51843666411296  C 0.2776071015821778 19.43889946431687  0.13063535648723357 19.37526834742956  0 19.327546009773954  C 0.39190613029353316 18.595803558314444  0.702167668293645 17.728850765007955  0.9307795953741571 16.726681703870067  Z M 4 21.952273543785225  L 4 11.262472753401125  L 6 11.262472753401125  L 6 21.952273543785225  L 4 21.952273543785225  Z " fill-rule="evenodd" />
    </mask>
  </defs>
  <g transform="matrix(1 0 0 1 -350 -643 )">
    <path d="M 19.717782953714487 14.579173220446275  L 11.830676001408337 14.579173220446275  L 11.830676001408337 15.652927462158173  L 19.717782953714487 15.652927462158173  L 19.717782953714487 14.579173220446275  Z M 19.717782953714487 16.583517505745835  L 11.830676001408337 16.583517505745835  L 11.830676001408337 17.704983033152413  L 19.717782953714487 17.704983033152413  L 19.717782953714487 16.583517505745835  Z M 19.717782953714487 12.57484410566681  L 11.830676001408337 12.57484410566681  L 11.830676001408337 13.62473511927132  L 19.717782953714487 13.62473511927132  L 19.717782953714487 12.57484410566681  Z M 10.18956747826558 18.731010818649533  L 10.18956747826558 11.548801149649597  L 21.40786840180917 11.548801149649597  L 21.40786840180917 18.731010818649533  L 10.18956747826558 18.731010818649533  Z M 18.542056441784254 20.40130025148585  C 17.970526289507895 20.130873701067316  17.39083688520705 19.876349292777938  16.802978495788533 19.63773763412981  C 16.802978495788533 19.63773763412981  18.003185683720176 18.70716276106224  18.003185683720176 18.70716276106224  C 18.607374256899494 18.929866944195243  19.21156380338813 19.17642039974234  19.81575237656745 19.4468469797908  C 20.436270160198248 19.701366054694205  21.02414120263792 19.963846274835692  21.5793421444628 20.234272825254227  C 22.13454211297836 20.50469937567276  22.60809408261788 20.76716439566423  23 21.02168350019756  C 23 21.02168350019756  21.40786840180917 22  21.40786840180917 22  C 21.064951089090812 21.761388341351875  20.640400377136203 21.506863933062494  20.134188039975083 21.23643738264396  C 19.644305886574763 20.966010832225425  19.113586594060614 20.687634218159662  18.542056441784254 20.40130025148585  Z M 14.72098421038377 4.438181164971821  L 14.72098421038377 0  L 16.50905465428053 0  L 16.50905465428053 4.438181164971821  L 14.72098421038377 4.438181164971821  Z M 8.744413373777862 3  L 8.744413373777862 1.431672322282529  L 22.534602415838368 1.431672322282529  L 22.534602415838368 3  L 8.744413373777862 3  Z M 9.895628063808466 5  L 9.895628063808466 4  L 21.75080031416732 4  L 21.75080031416732 5  L 9.895628063808466 5  Z M 20.575073802237085 6.919744500858858  L 10.924392654984699 6.919744500858858  L 10.924392654984699 9.42515589433319  L 20.575073802237085 9.42515589433319  L 20.575073802237085 6.919744500858858  Z M 9.454742301546462 10.475062078457793  L 9.454742301546462 6  L 22.118212902526878 6  L 22.118212902526878 10.475062078457793  L 9.454742301546462 10.475062078457793  Z M 13.079875687241016 7.73101840390958  C 13.455452394171655 7.444684318716077  13.675895275302658 6.99132565176347  13.741212117108578 6.370935765949216  C 13.741212117108578 6.370935765949216  14.965915553990737 6.370935765949216  14.965915553990737 6.370935765949216  C 14.884268528424018 7.1822153579449735  14.606673897367495 7.794644039261305  14.133120954418656 8.208237454497059  C 13.675897221921296 8.621830869732813  12.867584271659942 8.939986543059108  11.708194756655741 9.16269072619211  C 11.642877914849821 9.03543139614986  11.544906545378218 8.892257716450567  11.414270915147739 8.733182961299315  C 11.2999649820234 8.574108680226812  11.17749395701866 8.446861202153386  11.04685832678818 8.351416823141387  C 12.026624093552797 8.208249780544635  12.704298980310377 8.001445250627334  13.079875687241016 7.73101840390958  Z M 16.435565907428973 7.420826779553725  C 16.435565907428973 7.420826779553725  16.435565907428973 6.299346081627053  16.435565907428973 6.299346081627053  L 17.807231265065134 6.299346081627053  C 17.807231265065134 6.299346081627053  17.807231265065134 7.4685532357685  17.807231265065134 7.4685532357685  C 17.807231265065134 7.659441993792498  17.83989844575197 7.7787486527543805  17.90521626086721 7.826471316339133  C 17.97053407598245 7.85828579329063  18.125657195379574 7.874182602033814  18.370598272079732 7.874182602033814  C 18.452246270955772 7.874182602033814  18.615551028491726 7.874182602033814  18.860492105191888 7.874182602033814  C 19.121762392343527 7.874182602033814  19.383022946401972 7.874182602033814  19.64429420686293 7.874182602033814  C 19.90556449401457 7.874182602033814  20.077021690409772 7.874182602033814  20.158668715976493 7.874182602033814  C 20.33829295087073 7.874182602033814  20.46076348922081 7.866226612402175  20.52608130433605 7.8503193739264265  C 20.59139814614197 7.834412135450679  20.632232365327845 7.8026042956017205  20.64856254908864 7.75488163201697  C 20.795527389770605 7.818511534077471  20.966984586165804 7.874186394663839  21.162937058202203 7.921909058248591  C 21.375219713999403 7.969631721833344  21.571177052582403 8.00939555131394  21.75080031416732 8.041210028265438  C 21.71814189326436 8.29572916242869  21.59567038160496 8.478666671608579  21.38338772580776 8.59001876317508  C 21.171105070010565 8.685463142187078  20.83634311607941 8.733182961299315  20.37911938358205 8.733182961299315  C 20.31380156846681 8.733182961299315  20.175011552758445 8.733182961299315  19.96272987027056 8.733182961299315  C 19.766776424924842 8.733182961299315  19.54631894415405 8.733182961299315  19.30137786745389 8.733182961299315  C 19.05643581744441 8.733182961299315  18.82782687112369 8.733182961299315  18.61554518863581 8.733182961299315  C 18.419591743290088 8.733182961299315  18.288954166440973 8.733182961299315  18.223636351325734 8.733182961299315  C 17.75008340837689 8.733182961299315  17.382669846708016 8.701374647371605  17.121398586247054 8.637745219389855  C 16.860128299095415 8.574115317329355  16.680504064201173 8.446853142814586  16.582527828182975 8.255963910711834  C 16.484550618855454 8.06507420453033  16.435565907428973 7.786698005283478  16.435565907428973 7.420826779553725  Z M 11.487759661999295 19.51843666411296  C 12.091948721833274 19.232102667809222  12.58998477405682 18.96168183596565  12.981890691438942 18.70716276106224  C 12.981890691438942 18.70716276106224  14.476037293827694 19.56616312032774  14.476037293827694 19.56616312032774  C 14.002484350878857 19.88431200840188  13.439113450626982 20.194496551206367  12.7859362727839 20.496737993395307  C 12.132759094940823 20.814886851839532  11.455099294477696 21.093278636425385  10.752934485280177 21.33189029507351  C 10.067098886534138 21.58640936997692  9.413924141964358 21.793199025673346  8.7934058716789 21.952273543785225  C 8.64644103099694 21.809106501188474  8.450483692413941 21.626168992008584  8.205542615713782 21.403464808875583  C 7.976930749465103 21.180760566482736  7.764639820538689 20.99782305730285  7.568686861847629 20.854656073965938  C 8.221863553036048 20.695581615113905  8.891372374603906 20.49674769719478  9.577207973349944 20.258136053361614  C 10.263043572095983 20.03543184059869  10.899900299271456 19.788863214531496  11.487759661999295 19.51843666411296  Z M 3.3312095441865504 1.765727174745773  C 3.64146867932928 1.113521863822516  3.894578011165127 0.5249455068022543  4.090530969856188 0  C 4.090530969856188 0  5.707143244048425 0.5726719630170303  5.707143244048425 0.5726719630170303  C 5.396884108905696 1.161247371879786  5.062122154974541 1.7736755791173653  4.702874901822712 2.4099736515648735  C 4.359957102449693 3.0462707758548757  4.0170439262959405 3.658715101770055  3.6741258835955906 4.24729051063281  C 3.3312080842225713 4.835866867653072  2.996461459913198 5.360811426297821  2.6698731143189884 5.822127031039573  C 2.6698731143189884 5.822127031039573  1.4206578555371991 5.2971815242373195  1.4206578555371991 5.2971815242373195  C 1.7309168690162637 4.835865919495567  2.0493452326040003 4.29500938158754  2.375933699861875 3.674618547615781  C 2.718851620898559 3.054228661801527  3.037280106149961 2.4179324856690303  3.3312095441865504 1.765727174745773  Z M 5.584661999295832 4.772236017435065  C 5.992897127129432 4.040493565975558  6.343977585109553 3.356477570730826  6.637907266473472 2.720180446440824  C 6.637907266473472 2.720180446440824  8.205542615713782 3.364426923259924  8.205542615713782 3.364426923259924  C 7.683001068101183 4.255244603949438  7.11146312935027 5.201739989697837  6.490945345719471 6.203908339717594  C 5.87042707543401 7.190170399419107  5.233585921207648 8.144621300720393  4.580409230019229 9.067252984282652  C 3.9435617492822903 9.98988466784491  3.3393724461209815 10.79320684797277  2.7678425371719526 11.477226635847526  C 2.7678425371719526 11.477226635847526  1.6411085231427567 10.904554672830496  1.6411085231427567 10.904554672830496  C 2.065673469746161 10.37960916602824  2.506573223329632 9.783077293455092  2.963796955826991 9.114964269977333  C 3.4210209316516806 8.430944008023825  3.8700717857940847 7.723061466120436  4.310966064512635 6.991319014660928  C 4.768189797009994 6.243669324725673  5.192755595259053 5.503978468894573  5.584661999295832 4.772236017435065  Z M 1.5921315981908295 6.32320930973444  C 1.16756652992376 5.845986466516939  0.7430005491792041 5.408539778827608  0.31843566340763213 5.010853127988851  C 0.31843566340763213 5.010853127988851  1.2736959347831975 3.86550920195479  1.2736959347831975 3.86550920195479  C 1.714590335165412 4.2313804276845435  2.147323293577174 4.644975265156556  2.5718881185169136 5.106290869898309  C 3.0127826405627927 5.551699236164313  3.4128480532967256 5.997101913485282  3.772095306448555 6.4425102797512865  C 4.147672013379195 6.887918646017289  4.433448769229207 7.285616674746119  4.629401727920267 7.635580662000123  C 4.629401727920267 7.635580662000123  3.6006371367440346 8.9718000718531  3.6006371367440346 8.9718000718531  C 3.4046839347256452 8.605928846123346  3.1270897903237818 8.192334482730086  2.7678425371719526 7.73101840390958  C 2.408595405683788 7.253795560692079  2.016696544794234 6.784525862633699  1.5921315981908295 6.32320930973444  Z M 6.539937843620508 9.759225917316527  C 6.278667556468868 9.154743269978024  6.001072925412345 8.590019237253832  5.707143244048425 8.065073256372825  C 5.707143244048425 8.065073256372825  6.980839178831623 7.611717433892736  6.980839178831623 7.611717433892736  C 7.307427767753162 8.12075570221924  7.609522540997481 8.677509048870451  7.887122525255261 9.281991696208957  C 8.181052206619182 9.870567105071713  8.434145722178588 10.443246653348789  8.646428377975788 11.000007585260047  C 8.858710547118328 11.556768043092552  9.01384923946456 12.057846055078643  9.111825962137422 12.503254421344646  C 9.111825962137422 12.503254421344646  7.715664355550741 13.05206315625429  7.715664355550741 13.05206315625429  C 7.6340173299840215 12.606654789988283  7.487045676136825 12.097621262449307  7.274763020339625 11.524953092062301  C 7.062480851197086 10.952285395754046  6.817538314532947 10.363709038733784  6.539937843620508 9.759225917316527  Z M 0.41640508626059636 12.216926025096178  C 0.41640508626059636 12.216926025096178  0.22045066760555754 10.642089504689416  0.22045066760555754 10.642089504689416  C 1.2165453406624935 10.610274553659163  2.38410584823484 10.570495553658473  3.7231183814966284 10.522773364152474  C 5.078460611864556 10.459143462091973  6.48278122714839 10.387556622242327  7.9360994502071875 10.308019481706076  C 7.9360994502071875 10.308019481706076  7.9116032012566695 11.763555032095994  7.9116032012566695 11.763555032095994  C 6.556261214216072 11.843092172632243  5.2254266691831655 11.922635002113529  3.919072800151667 12.00217214264978  C 2.629048506562644 12.08170928318603  1.4614879381584647 12.153296123035675  0.41640508626059636 12.216926025096178  Z M 7.02981610378355 15.939255858406641  C 6.817533934641009 15.207513406947132  6.588924988320288 14.531453638373415  6.343983424965469 13.911063515519787  C 6.343983424965469 13.911063515519787  7.642175608699185 13.553145434949155  7.642175608699185 13.553145434949155  C 7.903446382505485 14.157628319327035  8.140221880670586 14.825747268789208  8.352504536467785 15.557489720248714  C 8.581116402716464 16.28923217170822  8.736239522113587 16.90961648709713  8.817886547680308 17.418654636903945  C 8.817886547680308 17.418654636903945  7.470717438994664 17.848147231276645  7.470717438994664 17.848147231276645  C 7.389070413427945 17.30729424895927  7.24209875958075 16.67099830986615  7.02981610378355 15.939255858406641  Z M 0.9307795953741571 16.726681703870067  C 1.1593914616228367 15.708605404256433  1.3390149665350866 14.682566951987372  1.4696503534382366 13.648583176858613  C 1.4696503534382366 13.648583176858613  2.98829320477751 13.887200287412398  2.98829320477751 13.887200287412398  C 2.82499915364407 15.01662891563191  2.604541429545947 16.12219455278341  2.3269412019608375 17.203900754457546  C 2.065670428154538 18.285606956131684  1.75542443268762 19.20823514336314  1.3961771795357907 19.971792486593053  C 1.2982005785265958 19.90816271045972  1.1593957198511091 19.836590989277802  0.9797720932751943 19.757053774666748  C 0.8001484666992796 19.67751654524073  0.6205249617870298 19.597973893538978  0.4409013352111151 19.51843666411296  C 0.2776071015821778 19.43889946431687  0.13063535648723357 19.37526834742956  0 19.327546009773954  C 0.39190613029353316 18.595803558314444  0.702167668293645 17.728850765007955  0.9307795953741571 16.726681703870067  Z M 4 21.952273543785225  L 4 11.262472753401125  L 6 11.262472753401125  L 6 21.952273543785225  L 4 21.952273543785225  Z " fill-rule="nonzero" fill="rgba(0, 0, 0, 1)" stroke="none" transform="matrix(1 0 0 1 350 643 )" class="fill" />
    <path d="M 19.717782953714487 14.579173220446275  L 11.830676001408337 14.579173220446275  L 11.830676001408337 15.652927462158173  L 19.717782953714487 15.652927462158173  L 19.717782953714487 14.579173220446275  Z " stroke-width="0" stroke-dasharray="0" stroke="rgba(121, 121, 121, 1)" fill="none" transform="matrix(1 0 0 1 350 643 )" class="stroke" mask="url(#Clip4936)" />
    <path d="M 19.717782953714487 16.583517505745835  L 11.830676001408337 16.583517505745835  L 11.830676001408337 17.704983033152413  L 19.717782953714487 17.704983033152413  L 19.717782953714487 16.583517505745835  Z " stroke-width="0" stroke-dasharray="0" stroke="rgba(121, 121, 121, 1)" fill="none" transform="matrix(1 0 0 1 350 643 )" class="stroke" mask="url(#Clip4936)" />
    <path d="M 19.717782953714487 12.57484410566681  L 11.830676001408337 12.57484410566681  L 11.830676001408337 13.62473511927132  L 19.717782953714487 13.62473511927132  L 19.717782953714487 12.57484410566681  Z " stroke-width="0" stroke-dasharray="0" stroke="rgba(121, 121, 121, 1)" fill="none" transform="matrix(1 0 0 1 350 643 )" class="stroke" mask="url(#Clip4936)" />
    <path d="M 10.18956747826558 18.731010818649533  L 10.18956747826558 11.548801149649597  L 21.40786840180917 11.548801149649597  L 21.40786840180917 18.731010818649533  L 10.18956747826558 18.731010818649533  Z " stroke-width="0" stroke-dasharray="0" stroke="rgba(121, 121, 121, 1)" fill="none" transform="matrix(1 0 0 1 350 643 )" class="stroke" mask="url(#Clip4936)" />
    <path d="M 18.542056441784254 20.40130025148585  C 17.970526289507895 20.130873701067316  17.39083688520705 19.876349292777938  16.802978495788533 19.63773763412981  C 16.802978495788533 19.63773763412981  18.003185683720176 18.70716276106224  18.003185683720176 18.70716276106224  C 18.607374256899494 18.929866944195243  19.21156380338813 19.17642039974234  19.81575237656745 19.4468469797908  C 20.436270160198248 19.701366054694205  21.02414120263792 19.963846274835692  21.5793421444628 20.234272825254227  C 22.13454211297836 20.50469937567276  22.60809408261788 20.76716439566423  23 21.02168350019756  C 23 21.02168350019756  21.40786840180917 22  21.40786840180917 22  C 21.064951089090812 21.761388341351875  20.640400377136203 21.506863933062494  20.134188039975083 21.23643738264396  C 19.644305886574763 20.966010832225425  19.113586594060614 20.687634218159662  18.542056441784254 20.40130025148585  Z " stroke-width="0" stroke-dasharray="0" stroke="rgba(121, 121, 121, 1)" fill="none" transform="matrix(1 0 0 1 350 643 )" class="stroke" mask="url(#Clip4936)" />
    <path d="M 14.72098421038377 4.438181164971821  L 14.72098421038377 0  L 16.50905465428053 0  L 16.50905465428053 4.438181164971821  L 14.72098421038377 4.438181164971821  Z " stroke-width="0" stroke-dasharray="0" stroke="rgba(121, 121, 121, 1)" fill="none" transform="matrix(1 0 0 1 350 643 )" class="stroke" mask="url(#Clip4936)" />
    <path d="M 8.744413373777862 3  L 8.744413373777862 1.431672322282529  L 22.534602415838368 1.431672322282529  L 22.534602415838368 3  L 8.744413373777862 3  Z " stroke-width="0" stroke-dasharray="0" stroke="rgba(121, 121, 121, 1)" fill="none" transform="matrix(1 0 0 1 350 643 )" class="stroke" mask="url(#Clip4936)" />
    <path d="M 9.895628063808466 5  L 9.895628063808466 4  L 21.75080031416732 4  L 21.75080031416732 5  L 9.895628063808466 5  Z " stroke-width="0" stroke-dasharray="0" stroke="rgba(121, 121, 121, 1)" fill="none" transform="matrix(1 0 0 1 350 643 )" class="stroke" mask="url(#Clip4936)" />
    <path d="M 20.575073802237085 6.919744500858858  L 10.924392654984699 6.919744500858858  L 10.924392654984699 9.42515589433319  L 20.575073802237085 9.42515589433319  L 20.575073802237085 6.919744500858858  Z " stroke-width="0" stroke-dasharray="0" stroke="rgba(121, 121, 121, 1)" fill="none" transform="matrix(1 0 0 1 350 643 )" class="stroke" mask="url(#Clip4936)" />
    <path d="M 9.454742301546462 10.475062078457793  L 9.454742301546462 6  L 22.118212902526878 6  L 22.118212902526878 10.475062078457793  L 9.454742301546462 10.475062078457793  Z " stroke-width="0" stroke-dasharray="0" stroke="rgba(121, 121, 121, 1)" fill="none" transform="matrix(1 0 0 1 350 643 )" class="stroke" mask="url(#Clip4936)" />
    <path d="M 13.079875687241016 7.73101840390958  C 13.455452394171655 7.444684318716077  13.675895275302658 6.99132565176347  13.741212117108578 6.370935765949216  C 13.741212117108578 6.370935765949216  14.965915553990737 6.370935765949216  14.965915553990737 6.370935765949216  C 14.884268528424018 7.1822153579449735  14.606673897367495 7.794644039261305  14.133120954418656 8.208237454497059  C 13.675897221921296 8.621830869732813  12.867584271659942 8.939986543059108  11.708194756655741 9.16269072619211  C 11.642877914849821 9.03543139614986  11.544906545378218 8.892257716450567  11.414270915147739 8.733182961299315  C 11.2999649820234 8.574108680226812  11.17749395701866 8.446861202153386  11.04685832678818 8.351416823141387  C 12.026624093552797 8.208249780544635  12.704298980310377 8.001445250627334  13.079875687241016 7.73101840390958  Z " stroke-width="0" stroke-dasharray="0" stroke="rgba(121, 121, 121, 1)" fill="none" transform="matrix(1 0 0 1 350 643 )" class="stroke" mask="url(#Clip4936)" />
    <path d="M 16.435565907428973 7.420826779553725  C 16.435565907428973 7.420826779553725  16.435565907428973 6.299346081627053  16.435565907428973 6.299346081627053  L 17.807231265065134 6.299346081627053  C 17.807231265065134 6.299346081627053  17.807231265065134 7.4685532357685  17.807231265065134 7.4685532357685  C 17.807231265065134 7.659441993792498  17.83989844575197 7.7787486527543805  17.90521626086721 7.826471316339133  C 17.97053407598245 7.85828579329063  18.125657195379574 7.874182602033814  18.370598272079732 7.874182602033814  C 18.452246270955772 7.874182602033814  18.615551028491726 7.874182602033814  18.860492105191888 7.874182602033814  C 19.121762392343527 7.874182602033814  19.383022946401972 7.874182602033814  19.64429420686293 7.874182602033814  C 19.90556449401457 7.874182602033814  20.077021690409772 7.874182602033814  20.158668715976493 7.874182602033814  C 20.33829295087073 7.874182602033814  20.46076348922081 7.866226612402175  20.52608130433605 7.8503193739264265  C 20.59139814614197 7.834412135450679  20.632232365327845 7.8026042956017205  20.64856254908864 7.75488163201697  C 20.795527389770605 7.818511534077471  20.966984586165804 7.874186394663839  21.162937058202203 7.921909058248591  C 21.375219713999403 7.969631721833344  21.571177052582403 8.00939555131394  21.75080031416732 8.041210028265438  C 21.71814189326436 8.29572916242869  21.59567038160496 8.478666671608579  21.38338772580776 8.59001876317508  C 21.171105070010565 8.685463142187078  20.83634311607941 8.733182961299315  20.37911938358205 8.733182961299315  C 20.31380156846681 8.733182961299315  20.175011552758445 8.733182961299315  19.96272987027056 8.733182961299315  C 19.766776424924842 8.733182961299315  19.54631894415405 8.733182961299315  19.30137786745389 8.733182961299315  C 19.05643581744441 8.733182961299315  18.82782687112369 8.733182961299315  18.61554518863581 8.733182961299315  C 18.419591743290088 8.733182961299315  18.288954166440973 8.733182961299315  18.223636351325734 8.733182961299315  C 17.75008340837689 8.733182961299315  17.382669846708016 8.701374647371605  17.121398586247054 8.637745219389855  C 16.860128299095415 8.574115317329355  16.680504064201173 8.446853142814586  16.582527828182975 8.255963910711834  C 16.484550618855454 8.06507420453033  16.435565907428973 7.786698005283478  16.435565907428973 7.420826779553725  Z " stroke-width="0" stroke-dasharray="0" stroke="rgba(121, 121, 121, 1)" fill="none" transform="matrix(1 0 0 1 350 643 )" class="stroke" mask="url(#Clip4936)" />
    <path d="M 11.487759661999295 19.51843666411296  C 12.091948721833274 19.232102667809222  12.58998477405682 18.96168183596565  12.981890691438942 18.70716276106224  C 12.981890691438942 18.70716276106224  14.476037293827694 19.56616312032774  14.476037293827694 19.56616312032774  C 14.002484350878857 19.88431200840188  13.439113450626982 20.194496551206367  12.7859362727839 20.496737993395307  C 12.132759094940823 20.814886851839532  11.455099294477696 21.093278636425385  10.752934485280177 21.33189029507351  C 10.067098886534138 21.58640936997692  9.413924141964358 21.793199025673346  8.7934058716789 21.952273543785225  C 8.64644103099694 21.809106501188474  8.450483692413941 21.626168992008584  8.205542615713782 21.403464808875583  C 7.976930749465103 21.180760566482736  7.764639820538689 20.99782305730285  7.568686861847629 20.854656073965938  C 8.221863553036048 20.695581615113905  8.891372374603906 20.49674769719478  9.577207973349944 20.258136053361614  C 10.263043572095983 20.03543184059869  10.899900299271456 19.788863214531496  11.487759661999295 19.51843666411296  Z " stroke-width="0" stroke-dasharray="0" stroke="rgba(121, 121, 121, 1)" fill="none" transform="matrix(1 0 0 1 350 643 )" class="stroke" mask="url(#Clip4936)" />
    <path d="M 3.3312095441865504 1.765727174745773  C 3.64146867932928 1.113521863822516  3.894578011165127 0.5249455068022543  4.090530969856188 0  C 4.090530969856188 0  5.707143244048425 0.5726719630170303  5.707143244048425 0.5726719630170303  C 5.396884108905696 1.161247371879786  5.062122154974541 1.7736755791173653  4.702874901822712 2.4099736515648735  C 4.359957102449693 3.0462707758548757  4.0170439262959405 3.658715101770055  3.6741258835955906 4.24729051063281  C 3.3312080842225713 4.835866867653072  2.996461459913198 5.360811426297821  2.6698731143189884 5.822127031039573  C 2.6698731143189884 5.822127031039573  1.4206578555371991 5.2971815242373195  1.4206578555371991 5.2971815242373195  C 1.7309168690162637 4.835865919495567  2.0493452326040003 4.29500938158754  2.375933699861875 3.674618547615781  C 2.718851620898559 3.054228661801527  3.037280106149961 2.4179324856690303  3.3312095441865504 1.765727174745773  Z " stroke-width="0" stroke-dasharray="0" stroke="rgba(121, 121, 121, 1)" fill="none" transform="matrix(1 0 0 1 350 643 )" class="stroke" mask="url(#Clip4936)" />
    <path d="M 5.584661999295832 4.772236017435065  C 5.992897127129432 4.040493565975558  6.343977585109553 3.356477570730826  6.637907266473472 2.720180446440824  C 6.637907266473472 2.720180446440824  8.205542615713782 3.364426923259924  8.205542615713782 3.364426923259924  C 7.683001068101183 4.255244603949438  7.11146312935027 5.201739989697837  6.490945345719471 6.203908339717594  C 5.87042707543401 7.190170399419107  5.233585921207648 8.144621300720393  4.580409230019229 9.067252984282652  C 3.9435617492822903 9.98988466784491  3.3393724461209815 10.79320684797277  2.7678425371719526 11.477226635847526  C 2.7678425371719526 11.477226635847526  1.6411085231427567 10.904554672830496  1.6411085231427567 10.904554672830496  C 2.065673469746161 10.37960916602824  2.506573223329632 9.783077293455092  2.963796955826991 9.114964269977333  C 3.4210209316516806 8.430944008023825  3.8700717857940847 7.723061466120436  4.310966064512635 6.991319014660928  C 4.768189797009994 6.243669324725673  5.192755595259053 5.503978468894573  5.584661999295832 4.772236017435065  Z " stroke-width="0" stroke-dasharray="0" stroke="rgba(121, 121, 121, 1)" fill="none" transform="matrix(1 0 0 1 350 643 )" class="stroke" mask="url(#Clip4936)" />
    <path d="M 1.5921315981908295 6.32320930973444  C 1.16756652992376 5.845986466516939  0.7430005491792041 5.408539778827608  0.31843566340763213 5.010853127988851  C 0.31843566340763213 5.010853127988851  1.2736959347831975 3.86550920195479  1.2736959347831975 3.86550920195479  C 1.714590335165412 4.2313804276845435  2.147323293577174 4.644975265156556  2.5718881185169136 5.106290869898309  C 3.0127826405627927 5.551699236164313  3.4128480532967256 5.997101913485282  3.772095306448555 6.4425102797512865  C 4.147672013379195 6.887918646017289  4.433448769229207 7.285616674746119  4.629401727920267 7.635580662000123  C 4.629401727920267 7.635580662000123  3.6006371367440346 8.9718000718531  3.6006371367440346 8.9718000718531  C 3.4046839347256452 8.605928846123346  3.1270897903237818 8.192334482730086  2.7678425371719526 7.73101840390958  C 2.408595405683788 7.253795560692079  2.016696544794234 6.784525862633699  1.5921315981908295 6.32320930973444  Z " stroke-width="0" stroke-dasharray="0" stroke="rgba(121, 121, 121, 1)" fill="none" transform="matrix(1 0 0 1 350 643 )" class="stroke" mask="url(#Clip4936)" />
    <path d="M 6.539937843620508 9.759225917316527  C 6.278667556468868 9.154743269978024  6.001072925412345 8.590019237253832  5.707143244048425 8.065073256372825  C 5.707143244048425 8.065073256372825  6.980839178831623 7.611717433892736  6.980839178831623 7.611717433892736  C 7.307427767753162 8.12075570221924  7.609522540997481 8.677509048870451  7.887122525255261 9.281991696208957  C 8.181052206619182 9.870567105071713  8.434145722178588 10.443246653348789  8.646428377975788 11.000007585260047  C 8.858710547118328 11.556768043092552  9.01384923946456 12.057846055078643  9.111825962137422 12.503254421344646  C 9.111825962137422 12.503254421344646  7.715664355550741 13.05206315625429  7.715664355550741 13.05206315625429  C 7.6340173299840215 12.606654789988283  7.487045676136825 12.097621262449307  7.274763020339625 11.524953092062301  C 7.062480851197086 10.952285395754046  6.817538314532947 10.363709038733784  6.539937843620508 9.759225917316527  Z " stroke-width="0" stroke-dasharray="0" stroke="rgba(121, 121, 121, 1)" fill="none" transform="matrix(1 0 0 1 350 643 )" class="stroke" mask="url(#Clip4936)" />
    <path d="M 0.41640508626059636 12.216926025096178  C 0.41640508626059636 12.216926025096178  0.22045066760555754 10.642089504689416  0.22045066760555754 10.642089504689416  C 1.2165453406624935 10.610274553659163  2.38410584823484 10.570495553658473  3.7231183814966284 10.522773364152474  C 5.078460611864556 10.459143462091973  6.48278122714839 10.387556622242327  7.9360994502071875 10.308019481706076  C 7.9360994502071875 10.308019481706076  7.9116032012566695 11.763555032095994  7.9116032012566695 11.763555032095994  C 6.556261214216072 11.843092172632243  5.2254266691831655 11.922635002113529  3.919072800151667 12.00217214264978  C 2.629048506562644 12.08170928318603  1.4614879381584647 12.153296123035675  0.41640508626059636 12.216926025096178  Z " stroke-width="0" stroke-dasharray="0" stroke="rgba(121, 121, 121, 1)" fill="none" transform="matrix(1 0 0 1 350 643 )" class="stroke" mask="url(#Clip4936)" />
    <path d="M 7.02981610378355 15.939255858406641  C 6.817533934641009 15.207513406947132  6.588924988320288 14.531453638373415  6.343983424965469 13.911063515519787  C 6.343983424965469 13.911063515519787  7.642175608699185 13.553145434949155  7.642175608699185 13.553145434949155  C 7.903446382505485 14.157628319327035  8.140221880670586 14.825747268789208  8.352504536467785 15.557489720248714  C 8.581116402716464 16.28923217170822  8.736239522113587 16.90961648709713  8.817886547680308 17.418654636903945  C 8.817886547680308 17.418654636903945  7.470717438994664 17.848147231276645  7.470717438994664 17.848147231276645  C 7.389070413427945 17.30729424895927  7.24209875958075 16.67099830986615  7.02981610378355 15.939255858406641  Z " stroke-width="0" stroke-dasharray="0" stroke="rgba(121, 121, 121, 1)" fill="none" transform="matrix(1 0 0 1 350 643 )" class="stroke" mask="url(#Clip4936)" />
    <path d="M 0.9307795953741571 16.726681703870067  C 1.1593914616228367 15.708605404256433  1.3390149665350866 14.682566951987372  1.4696503534382366 13.648583176858613  C 1.4696503534382366 13.648583176858613  2.98829320477751 13.887200287412398  2.98829320477751 13.887200287412398  C 2.82499915364407 15.01662891563191  2.604541429545947 16.12219455278341  2.3269412019608375 17.203900754457546  C 2.065670428154538 18.285606956131684  1.75542443268762 19.20823514336314  1.3961771795357907 19.971792486593053  C 1.2982005785265958 19.90816271045972  1.1593957198511091 19.836590989277802  0.9797720932751943 19.757053774666748  C 0.8001484666992796 19.67751654524073  0.6205249617870298 19.597973893538978  0.4409013352111151 19.51843666411296  C 0.2776071015821778 19.43889946431687  0.13063535648723357 19.37526834742956  0 19.327546009773954  C 0.39190613029353316 18.595803558314444  0.702167668293645 17.728850765007955  0.9307795953741571 16.726681703870067  Z " stroke-width="0" stroke-dasharray="0" stroke="rgba(121, 121, 121, 1)" fill="none" transform="matrix(1 0 0 1 350 643 )" class="stroke" mask="url(#Clip4936)" />
    <path d="M 4 21.952273543785225  L 4 11.262472753401125  L 6 11.262472753401125  L 6 21.952273543785225  L 4 21.952273543785225  Z " stroke-width="0" stroke-dasharray="0" stroke="rgba(121, 121, 121, 1)" fill="none" transform="matrix(1 0 0 1 350 643 )" class="stroke" mask="url(#Clip4936)" />
  </g>
</svg>