<?xml version="1.0" encoding="utf-8"?>
<svg version="1.1" xmlns:xlink="http://www.w3.org/1999/xlink" width="22px" height="22px" xmlns="http://www.w3.org/2000/svg">
  <defs>
    <pattern id="BGPattern" patternUnits="userSpaceOnUse" alignment="0 0" imageRepeat="None" />
    <mask fill="white" id="Clip4951">
      <path d="M 7.55577536659154 7.10293066180634  L 7.55577536659154 5.529800503391071  L 12.680408223994181 5.529800503391071  L 12.680408223994181 7.10293066180634  L 7.55577536659154 7.10293066180634  Z M 12.2037207456921 5.911168145567362  C 12.2037207456921 5.911168145567362  12.2037207456921 5.529800503391071  12.2037207456921 5.529800503391071  C 12.2037207456921 5.529800503391071  13.68148829827684 5.529800503391071  13.68148829827684 5.529800503391071  C 13.68148829827684 5.529800503391071  13.68148829827684 5.585415986455006  13.68148829827684 5.696646952582875  C 13.68148829827684 5.7919888631269485  13.68148829827684 5.903217934994497  13.68148829827684 6.030339850966485  C 13.68148829827684 6.157460819808315  13.68148829827684 6.260744416753803  13.68148829827684 6.340195377453757  C 13.633818224462582 8.914409440235744  13.594097425042294 11.083424171726064  13.562316428701322 12.847237204099317  C 13.530536379491814 14.59516023375861  13.48288335404394 16.01733879973811  13.419322308493463 17.11376307556239  C 13.371651287547735 18.19429723028144  13.300141914734748 19.028522135981717  13.204800819974762 19.616459813439466  C 13.109459725214776 20.188507310596357  12.9982295529815 20.585774574777304  12.871107461880541 20.808237483761022  C 12.696315296965322 21.078371022440784  12.505582909477653 21.26904235324993  12.29900974822146 21.38027379294288  C 12.092436586965267 21.50739547213233  11.854112737575013 21.58685199722198  11.58397853076834 21.61863235782371  C 11.345625320302641 21.666303076313206  11.059587355484958 21.68219734111289  10.72589257669354 21.66630710161639  C 10.39219779790212 21.66630710161639  10.034650460271452 21.66630710161639  9.65328513410004 21.66630710161639  C 9.637394635929553 21.42795398273399  9.589742084047414 21.15781103194825  9.51029101389218 20.855897073471123  C 9.4467299683417 20.569873324892683  9.359356617039275 20.3235870141825  9.248125024108802 20.11701431509746  C 9.61360032567546 20.148794734894825  9.939358616347695 20.164673904807564  10.225382847759121 20.164673904807564  C 10.5272971037753 20.18056410730679  10.757689200703702 20.188511276703903  10.9165918145799 20.188511276703903  C 11.043713432115126 20.204401486602585  11.154944077914132 20.180575147292732  11.25028517267412 20.11701431509746  C 11.345627214565573 20.06934369280087  11.433000092302265 19.966045718715517  11.512451162457499 19.807143634527613  C 11.62368228182224 19.64824155033971  11.711116723104222 19.298657272943625  11.774677768654701 18.758390195584102  C 11.854128838809935 18.21812305902894  11.917645369181514 17.415671588041086  11.965316390127239 16.351027791209805  C 12.012987411072965 15.286383639204713  12.052768826907077 13.903941090398234  12.084548876116582 12.203688779228436  C 12.13221989706231 10.48754670212722  12.171940696482595 8.390041244935436  12.2037207456921 5.911168145567362  Z M 9.105130903900942 6.48320445474922  C 9.152801451280935 4.4333675850040715  9.17659765579796 2.2802471183134334  9.17659765579796 0.023837371896340564  C 9.17659765579796 0.023837371896340564  10.654425824796522 0.023837371896340564  10.654425824796522 0.023837371896340564  C 10.638535326626034 3.233659593843034  10.55903311137164 6.189246981582279  10.416021469231659 8.890582013206094  C 10.2888993781307 11.591917518394991  9.979065682361725 14.031060401762282  9.48646876325984 16.208018713914342  C 9.009761868762709 18.38497726284894  8.223218910667937 20.315637928326698  7.126793005967961 22  C 7.063231960417482 21.90465879980355  6.952001788184208 21.785481648405998  6.793099647873742 21.642469729720048  C 6.650087532168029 21.515348109726233  6.4990764176663784 21.380276634333367  6.340173803790179 21.237264715647417  C 6.181271663479713 21.094252856157105  6.046245286729414 20.990970028754873  5.935013693798941 20.927409189160148  C 6.697744819707498 19.81509467383937  7.301548232756009 18.527987405665836  7.7464746044779 17.066088331769706  C 8.191400976199793 15.58829889998581  8.517159266872028 13.967502048384231  8.723732428128221 12.203688779228436  C 8.93030511581868 10.423985744141225  9.057459882955214 8.517150848215332  9.105130903900942 6.48320445474922  Z M 3.146294959469661 3.861320857390439  L 3.146294959469661 0  L 4.814761749940762 0  L 4.814761749940762 3.861320857390439  L 3.146294959469661 3.861320857390439  Z M 0.3575156087265594 4.719390475245806  L 0.3575156087265594 3.1939350606232186  L 7.41278124638368 3.1939350606232186  L 7.41278124638368 4.719390475245806  L 0.3575156087265594 4.719390475245806  Z M 0.09534961894318038 11.0834232245959  L 0.09534961894318038 9.557967809973315  L 7.675007852580881 9.557967809973315  L 7.675007852580881 11.0834232245959  L 0.09534961894318038 11.0834232245959  Z M 1.5969394221602589 7.46046093208629  C 1.4698175678421659 6.7295113359425915  1.3030026176991663 6.06211701500392  1.0964296932258402 5.458288387702049  C 1.0964296932258402 5.458288387702049  2.407380874970381 5.100758117422098  2.407380874970381 5.100758117422098  C 2.6457343222189467 5.720476747437927  2.8364060932927937 6.38787201550676  2.97941797221564 7.10293066180634  C 3.122430087921353 7.817990255236079  3.209803439223779 8.437702255340781  3.241583961999019 8.962078974812536  C 3.241583961999019 8.962078974812536  1.8114609106789588 9.343446616988828  1.8114609106789588 9.343446616988828  C 1.8114609106789588 8.819069897517073  1.7399515378659716 8.191410054664908  1.5969394221602589 7.46046093208629  Z M 5.267626977610501 6.340195377453757  C 5.378858570540974 5.847599610540078  5.4662319218434 5.410626903731624  5.529792967393879 5.029261155815655  C 5.529792967393879 5.029261155815655  7.05526563765712 5.339116682302925  7.05526563765712 5.339116682302925  C 6.832802451796175 6.038286273018707  6.610342107329626 6.7612960770213135  6.387878921468681 7.508135675878972  C 6.181306233778222 8.254975274736628  5.974709867801112 8.890581539641014  5.76813670654492 9.41495873267785  C 5.76813670654492 9.41495873267785  4.52871289311122 9.08126583429424  4.52871289311122 9.08126583429424  C 4.655834747429314 8.715791036222392  4.782928898152027 8.294697440131042  4.910050752470119 7.817991202366241  C 5.037172606788212 7.325394488322402  5.156395384680028 6.832792091497596  5.267626977610501 6.340195377453757  Z M 0.30987110746188057 16.303353047417126  C 0.30987110746188057 16.303353047417126  0 14.706385517105517  0 14.706385517105517  C 0.9534137889942634 14.563373598419567  2.1054358371815574 14.388581437523161  3.456105450517719 14.18200879763376  C 4.806775063853881 13.959545681465316  6.1971820514109845 13.729138511070056  7.62730273490238 13.490785628970198  C 7.62730273490238 13.490785628970198  7.722652353845561 14.992418825779025  7.722652353845561 14.992418825779025  C 6.419653287889392 15.214881705164926  5.108687899172861 15.445288875560184  3.7897988086119394 15.683641994442585  C 2.486799979438637 15.906104873828486  1.3268459420066236 16.11267041024168  0.30987110746188057 16.303353047417126  Z M 17.11377149816222 3.861320857390439  L 17.11377149816222 0  L 18.78223828863332 0  L 18.78223828863332 3.861320857390439  L 17.11377149816222 3.861320857390439  Z M 17 22  L 17 10.130019273237753  L 18.78223828863332 10.130019273237753  L 18.78223828863332 22  L 17 22  Z M 14.182058643625082 4.695568257432044  L 14.182058643625082 3.1939350606232186  L 21.71401175958428 3.1939350606232186  L 21.71401175958428 4.695568257432044  L 14.182058643625082 4.695568257432044  Z M 14.062826157635739 11.059585852699563  L 14.062826157635739 9.557967809973315  L 22 9.557967809973315  L 22 11.059585852699563  L 14.062826157635739 11.059585852699563  Z M 14.3012305132006 15.993497520929854  L 14.3012305132006 14.444204734410928  L 21.64248439127344 14.444204734410928  L 21.64248439127344 15.993497520929854  L 14.3012305132006 15.993497520929854  Z M 15.46912695832346 7.508135675878972  C 15.326114842617747 6.745406074307355  15.143375297571486 6.0541696458215375  14.92091211171054 5.434451015805708  C 14.92091211171054 5.434451015805708  16.231863293455078 5.100758117422098  16.231863293455078 5.100758117422098  C 16.486106528525532 5.720476747437927  16.68477114204079 6.403765806741362  16.8277832577465 7.150605405599021  C 16.98668539805697 7.881554528177639  17.08199050182125 8.517161266647104  17.11377149816222 9.0574284623979  C 17.11377149816222 9.0574284623979  15.731353564520663 9.41495873267785  15.731353564520663 9.41495873267785  C 15.715463539915909 8.890581539641014  15.628029098633926 8.254975274736628  15.46912695832346 7.508135675878972  Z M 19.35427538587858 6.316358005557415  C 19.481397476979538 5.823761291513576  19.57676319715764 5.3788412155227405  19.64032424270812 4.981586412022973  C 19.64032424270812 4.981586412022973  21.16579691297136 5.339116682302925  21.16579691297136 5.339116682302925  C 20.943333727110414 6.038286273018707  20.712942103747746 6.7612960770213135  20.47458794615058 7.508135675878972  C 20.252124760289636 8.254975274736628  20.02966441582309 8.890581539641014  19.807201229962143 9.41495873267785  C 19.807201229962143 9.41495873267785  18.56771680011462 9.0574284623979  18.56771680011462 9.0574284623979  C 18.694838891215582 8.69195366432605  18.821994131917847 8.27085959466962  18.94911527588734 7.7941538304699005  C 19.092127391593056 7.3015571164260615  19.227153294777622 6.808954719601254  19.35427538587858 6.316358005557415  Z M 3.146294959469661 14.27735828521912  C 3.146294959469661 14.27735828521912  3.146294959469661 10.130019273237753  3.146294959469661 10.130019273237753  L 4.814761749940762 10.130019273237753  C 4.814761749940762 10.130019273237753  4.814761749940762 14.301195657115462  4.814761749940762 14.301195657115462  C 4.814761749940762 14.905023574069713  4.767048344861933 15.54857720815648  4.671707013319079 16.231856085810684  C 4.592255943163846 16.915135081856153  4.433372982265566 17.59840922385955  4.195019535017 18.281688219905025  C 3.9725563491560543 18.964967156754863  3.630934079994379 19.616467923241473  3.170117210102001 20.236186020496586  C 2.7251908383801093 20.871794298052563  2.1372514038210384 21.443838539449523  1.406300800687721 21.952325256207317  C 1.2950692077572479 21.77753297691964  1.1281936412004254 21.570967381310815  0.9057304553394794 21.33261420323278  C 0.6832672694785336 21.09426108435038  0.47673163830668047 20.903574599458654  0.2860488568295411 20.760562739968343  C 0.9375482714161923 20.347417341798266  1.4539782147708422 19.878655868607904  1.8353437777251211 19.354279030744877  C 2.2167093406793996 18.814011953385354  2.502686452300393 18.249914844388236  2.693369115386099 17.661977166930484  C 2.884051778471805 17.058149131584965  3.0032745563636216 16.470210625388322  3.050945340526481 15.898163187427071  C 3.114506386076961 15.326115749465819  3.146294959469661 14.78584500197692  3.146294959469661 14.27735828521912  Z " fill-rule="evenodd" />
    </mask>
  </defs>
  <g transform="matrix(1 0 0 1 -683 -612 )">
    <path d="M 7.55577536659154 7.10293066180634  L 7.55577536659154 5.529800503391071  L 12.680408223994181 5.529800503391071  L 12.680408223994181 7.10293066180634  L 7.55577536659154 7.10293066180634  Z M 12.2037207456921 5.911168145567362  C 12.2037207456921 5.911168145567362  12.2037207456921 5.529800503391071  12.2037207456921 5.529800503391071  C 12.2037207456921 5.529800503391071  13.68148829827684 5.529800503391071  13.68148829827684 5.529800503391071  C 13.68148829827684 5.529800503391071  13.68148829827684 5.585415986455006  13.68148829827684 5.696646952582875  C 13.68148829827684 5.7919888631269485  13.68148829827684 5.903217934994497  13.68148829827684 6.030339850966485  C 13.68148829827684 6.157460819808315  13.68148829827684 6.260744416753803  13.68148829827684 6.340195377453757  C 13.633818224462582 8.914409440235744  13.594097425042294 11.083424171726064  13.562316428701322 12.847237204099317  C 13.530536379491814 14.59516023375861  13.48288335404394 16.01733879973811  13.419322308493463 17.11376307556239  C 13.371651287547735 18.19429723028144  13.300141914734748 19.028522135981717  13.204800819974762 19.616459813439466  C 13.109459725214776 20.188507310596357  12.9982295529815 20.585774574777304  12.871107461880541 20.808237483761022  C 12.696315296965322 21.078371022440784  12.505582909477653 21.26904235324993  12.29900974822146 21.38027379294288  C 12.092436586965267 21.50739547213233  11.854112737575013 21.58685199722198  11.58397853076834 21.61863235782371  C 11.345625320302641 21.666303076313206  11.059587355484958 21.68219734111289  10.72589257669354 21.66630710161639  C 10.39219779790212 21.66630710161639  10.034650460271452 21.66630710161639  9.65328513410004 21.66630710161639  C 9.637394635929553 21.42795398273399  9.589742084047414 21.15781103194825  9.51029101389218 20.855897073471123  C 9.4467299683417 20.569873324892683  9.359356617039275 20.3235870141825  9.248125024108802 20.11701431509746  C 9.61360032567546 20.148794734894825  9.939358616347695 20.164673904807564  10.225382847759121 20.164673904807564  C 10.5272971037753 20.18056410730679  10.757689200703702 20.188511276703903  10.9165918145799 20.188511276703903  C 11.043713432115126 20.204401486602585  11.154944077914132 20.180575147292732  11.25028517267412 20.11701431509746  C 11.345627214565573 20.06934369280087  11.433000092302265 19.966045718715517  11.512451162457499 19.807143634527613  C 11.62368228182224 19.64824155033971  11.711116723104222 19.298657272943625  11.774677768654701 18.758390195584102  C 11.854128838809935 18.21812305902894  11.917645369181514 17.415671588041086  11.965316390127239 16.351027791209805  C 12.012987411072965 15.286383639204713  12.052768826907077 13.903941090398234  12.084548876116582 12.203688779228436  C 12.13221989706231 10.48754670212722  12.171940696482595 8.390041244935436  12.2037207456921 5.911168145567362  Z M 9.105130903900942 6.48320445474922  C 9.152801451280935 4.4333675850040715  9.17659765579796 2.2802471183134334  9.17659765579796 0.023837371896340564  C 9.17659765579796 0.023837371896340564  10.654425824796522 0.023837371896340564  10.654425824796522 0.023837371896340564  C 10.638535326626034 3.233659593843034  10.55903311137164 6.189246981582279  10.416021469231659 8.890582013206094  C 10.2888993781307 11.591917518394991  9.979065682361725 14.031060401762282  9.48646876325984 16.208018713914342  C 9.009761868762709 18.38497726284894  8.223218910667937 20.315637928326698  7.126793005967961 22  C 7.063231960417482 21.90465879980355  6.952001788184208 21.785481648405998  6.793099647873742 21.642469729720048  C 6.650087532168029 21.515348109726233  6.4990764176663784 21.380276634333367  6.340173803790179 21.237264715647417  C 6.181271663479713 21.094252856157105  6.046245286729414 20.990970028754873  5.935013693798941 20.927409189160148  C 6.697744819707498 19.81509467383937  7.301548232756009 18.527987405665836  7.7464746044779 17.066088331769706  C 8.191400976199793 15.58829889998581  8.517159266872028 13.967502048384231  8.723732428128221 12.203688779228436  C 8.93030511581868 10.423985744141225  9.057459882955214 8.517150848215332  9.105130903900942 6.48320445474922  Z M 3.146294959469661 3.861320857390439  L 3.146294959469661 0  L 4.814761749940762 0  L 4.814761749940762 3.861320857390439  L 3.146294959469661 3.861320857390439  Z M 0.3575156087265594 4.719390475245806  L 0.3575156087265594 3.1939350606232186  L 7.41278124638368 3.1939350606232186  L 7.41278124638368 4.719390475245806  L 0.3575156087265594 4.719390475245806  Z M 0.09534961894318038 11.0834232245959  L 0.09534961894318038 9.557967809973315  L 7.675007852580881 9.557967809973315  L 7.675007852580881 11.0834232245959  L 0.09534961894318038 11.0834232245959  Z M 1.5969394221602589 7.46046093208629  C 1.4698175678421659 6.7295113359425915  1.3030026176991663 6.06211701500392  1.0964296932258402 5.458288387702049  C 1.0964296932258402 5.458288387702049  2.407380874970381 5.100758117422098  2.407380874970381 5.100758117422098  C 2.6457343222189467 5.720476747437927  2.8364060932927937 6.38787201550676  2.97941797221564 7.10293066180634  C 3.122430087921353 7.817990255236079  3.209803439223779 8.437702255340781  3.241583961999019 8.962078974812536  C 3.241583961999019 8.962078974812536  1.8114609106789588 9.343446616988828  1.8114609106789588 9.343446616988828  C 1.8114609106789588 8.819069897517073  1.7399515378659716 8.191410054664908  1.5969394221602589 7.46046093208629  Z M 5.267626977610501 6.340195377453757  C 5.378858570540974 5.847599610540078  5.4662319218434 5.410626903731624  5.529792967393879 5.029261155815655  C 5.529792967393879 5.029261155815655  7.05526563765712 5.339116682302925  7.05526563765712 5.339116682302925  C 6.832802451796175 6.038286273018707  6.610342107329626 6.7612960770213135  6.387878921468681 7.508135675878972  C 6.181306233778222 8.254975274736628  5.974709867801112 8.890581539641014  5.76813670654492 9.41495873267785  C 5.76813670654492 9.41495873267785  4.52871289311122 9.08126583429424  4.52871289311122 9.08126583429424  C 4.655834747429314 8.715791036222392  4.782928898152027 8.294697440131042  4.910050752470119 7.817991202366241  C 5.037172606788212 7.325394488322402  5.156395384680028 6.832792091497596  5.267626977610501 6.340195377453757  Z M 0.30987110746188057 16.303353047417126  C 0.30987110746188057 16.303353047417126  0 14.706385517105517  0 14.706385517105517  C 0.9534137889942634 14.563373598419567  2.1054358371815574 14.388581437523161  3.456105450517719 14.18200879763376  C 4.806775063853881 13.959545681465316  6.1971820514109845 13.729138511070056  7.62730273490238 13.490785628970198  C 7.62730273490238 13.490785628970198  7.722652353845561 14.992418825779025  7.722652353845561 14.992418825779025  C 6.419653287889392 15.214881705164926  5.108687899172861 15.445288875560184  3.7897988086119394 15.683641994442585  C 2.486799979438637 15.906104873828486  1.3268459420066236 16.11267041024168  0.30987110746188057 16.303353047417126  Z M 17.11377149816222 3.861320857390439  L 17.11377149816222 0  L 18.78223828863332 0  L 18.78223828863332 3.861320857390439  L 17.11377149816222 3.861320857390439  Z M 17 22  L 17 10.130019273237753  L 18.78223828863332 10.130019273237753  L 18.78223828863332 22  L 17 22  Z M 14.182058643625082 4.695568257432044  L 14.182058643625082 3.1939350606232186  L 21.71401175958428 3.1939350606232186  L 21.71401175958428 4.695568257432044  L 14.182058643625082 4.695568257432044  Z M 14.062826157635739 11.059585852699563  L 14.062826157635739 9.557967809973315  L 22 9.557967809973315  L 22 11.059585852699563  L 14.062826157635739 11.059585852699563  Z M 14.3012305132006 15.993497520929854  L 14.3012305132006 14.444204734410928  L 21.64248439127344 14.444204734410928  L 21.64248439127344 15.993497520929854  L 14.3012305132006 15.993497520929854  Z M 15.46912695832346 7.508135675878972  C 15.326114842617747 6.745406074307355  15.143375297571486 6.0541696458215375  14.92091211171054 5.434451015805708  C 14.92091211171054 5.434451015805708  16.231863293455078 5.100758117422098  16.231863293455078 5.100758117422098  C 16.486106528525532 5.720476747437927  16.68477114204079 6.403765806741362  16.8277832577465 7.150605405599021  C 16.98668539805697 7.881554528177639  17.08199050182125 8.517161266647104  17.11377149816222 9.0574284623979  C 17.11377149816222 9.0574284623979  15.731353564520663 9.41495873267785  15.731353564520663 9.41495873267785  C 15.715463539915909 8.890581539641014  15.628029098633926 8.254975274736628  15.46912695832346 7.508135675878972  Z M 19.35427538587858 6.316358005557415  C 19.481397476979538 5.823761291513576  19.57676319715764 5.3788412155227405  19.64032424270812 4.981586412022973  C 19.64032424270812 4.981586412022973  21.16579691297136 5.339116682302925  21.16579691297136 5.339116682302925  C 20.943333727110414 6.038286273018707  20.712942103747746 6.7612960770213135  20.47458794615058 7.508135675878972  C 20.252124760289636 8.254975274736628  20.02966441582309 8.890581539641014  19.807201229962143 9.41495873267785  C 19.807201229962143 9.41495873267785  18.56771680011462 9.0574284623979  18.56771680011462 9.0574284623979  C 18.694838891215582 8.69195366432605  18.821994131917847 8.27085959466962  18.94911527588734 7.7941538304699005  C 19.092127391593056 7.3015571164260615  19.227153294777622 6.808954719601254  19.35427538587858 6.316358005557415  Z M 3.146294959469661 14.27735828521912  C 3.146294959469661 14.27735828521912  3.146294959469661 10.130019273237753  3.146294959469661 10.130019273237753  L 4.814761749940762 10.130019273237753  C 4.814761749940762 10.130019273237753  4.814761749940762 14.301195657115462  4.814761749940762 14.301195657115462  C 4.814761749940762 14.905023574069713  4.767048344861933 15.54857720815648  4.671707013319079 16.231856085810684  C 4.592255943163846 16.915135081856153  4.433372982265566 17.59840922385955  4.195019535017 18.281688219905025  C 3.9725563491560543 18.964967156754863  3.630934079994379 19.616467923241473  3.170117210102001 20.236186020496586  C 2.7251908383801093 20.871794298052563  2.1372514038210384 21.443838539449523  1.406300800687721 21.952325256207317  C 1.2950692077572479 21.77753297691964  1.1281936412004254 21.570967381310815  0.9057304553394794 21.33261420323278  C 0.6832672694785336 21.09426108435038  0.47673163830668047 20.903574599458654  0.2860488568295411 20.760562739968343  C 0.9375482714161923 20.347417341798266  1.4539782147708422 19.878655868607904  1.8353437777251211 19.354279030744877  C 2.2167093406793996 18.814011953385354  2.502686452300393 18.249914844388236  2.693369115386099 17.661977166930484  C 2.884051778471805 17.058149131584965  3.0032745563636216 16.470210625388322  3.050945340526481 15.898163187427071  C 3.114506386076961 15.326115749465819  3.146294959469661 14.78584500197692  3.146294959469661 14.27735828521912  Z " fill-rule="nonzero" fill="rgba(0, 0, 0, 1)" stroke="none" transform="matrix(1 0 0 1 683 612 )" class="fill" />
    <path d="M 7.55577536659154 7.10293066180634  L 7.55577536659154 5.529800503391071  L 12.680408223994181 5.529800503391071  L 12.680408223994181 7.10293066180634  L 7.55577536659154 7.10293066180634  Z " stroke-width="0" stroke-dasharray="0" stroke="rgba(121, 121, 121, 1)" fill="none" transform="matrix(1 0 0 1 683 612 )" class="stroke" mask="url(#Clip4951)" />
    <path d="M 12.2037207456921 5.911168145567362  C 12.2037207456921 5.911168145567362  12.2037207456921 5.529800503391071  12.2037207456921 5.529800503391071  C 12.2037207456921 5.529800503391071  13.68148829827684 5.529800503391071  13.68148829827684 5.529800503391071  C 13.68148829827684 5.529800503391071  13.68148829827684 5.585415986455006  13.68148829827684 5.696646952582875  C 13.68148829827684 5.7919888631269485  13.68148829827684 5.903217934994497  13.68148829827684 6.030339850966485  C 13.68148829827684 6.157460819808315  13.68148829827684 6.260744416753803  13.68148829827684 6.340195377453757  C 13.633818224462582 8.914409440235744  13.594097425042294 11.083424171726064  13.562316428701322 12.847237204099317  C 13.530536379491814 14.59516023375861  13.48288335404394 16.01733879973811  13.419322308493463 17.11376307556239  C 13.371651287547735 18.19429723028144  13.300141914734748 19.028522135981717  13.204800819974762 19.616459813439466  C 13.109459725214776 20.188507310596357  12.9982295529815 20.585774574777304  12.871107461880541 20.808237483761022  C 12.696315296965322 21.078371022440784  12.505582909477653 21.26904235324993  12.29900974822146 21.38027379294288  C 12.092436586965267 21.50739547213233  11.854112737575013 21.58685199722198  11.58397853076834 21.61863235782371  C 11.345625320302641 21.666303076313206  11.059587355484958 21.68219734111289  10.72589257669354 21.66630710161639  C 10.39219779790212 21.66630710161639  10.034650460271452 21.66630710161639  9.65328513410004 21.66630710161639  C 9.637394635929553 21.42795398273399  9.589742084047414 21.15781103194825  9.51029101389218 20.855897073471123  C 9.4467299683417 20.569873324892683  9.359356617039275 20.3235870141825  9.248125024108802 20.11701431509746  C 9.61360032567546 20.148794734894825  9.939358616347695 20.164673904807564  10.225382847759121 20.164673904807564  C 10.5272971037753 20.18056410730679  10.757689200703702 20.188511276703903  10.9165918145799 20.188511276703903  C 11.043713432115126 20.204401486602585  11.154944077914132 20.180575147292732  11.25028517267412 20.11701431509746  C 11.345627214565573 20.06934369280087  11.433000092302265 19.966045718715517  11.512451162457499 19.807143634527613  C 11.62368228182224 19.64824155033971  11.711116723104222 19.298657272943625  11.774677768654701 18.758390195584102  C 11.854128838809935 18.21812305902894  11.917645369181514 17.415671588041086  11.965316390127239 16.351027791209805  C 12.012987411072965 15.286383639204713  12.052768826907077 13.903941090398234  12.084548876116582 12.203688779228436  C 12.13221989706231 10.48754670212722  12.171940696482595 8.390041244935436  12.2037207456921 5.911168145567362  Z " stroke-width="0" stroke-dasharray="0" stroke="rgba(121, 121, 121, 1)" fill="none" transform="matrix(1 0 0 1 683 612 )" class="stroke" mask="url(#Clip4951)" />
    <path d="M 9.105130903900942 6.48320445474922  C 9.152801451280935 4.4333675850040715  9.17659765579796 2.2802471183134334  9.17659765579796 0.023837371896340564  C 9.17659765579796 0.023837371896340564  10.654425824796522 0.023837371896340564  10.654425824796522 0.023837371896340564  C 10.638535326626034 3.233659593843034  10.55903311137164 6.189246981582279  10.416021469231659 8.890582013206094  C 10.2888993781307 11.591917518394991  9.979065682361725 14.031060401762282  9.48646876325984 16.208018713914342  C 9.009761868762709 18.38497726284894  8.223218910667937 20.315637928326698  7.126793005967961 22  C 7.063231960417482 21.90465879980355  6.952001788184208 21.785481648405998  6.793099647873742 21.642469729720048  C 6.650087532168029 21.515348109726233  6.4990764176663784 21.380276634333367  6.340173803790179 21.237264715647417  C 6.181271663479713 21.094252856157105  6.046245286729414 20.990970028754873  5.935013693798941 20.927409189160148  C 6.697744819707498 19.81509467383937  7.301548232756009 18.527987405665836  7.7464746044779 17.066088331769706  C 8.191400976199793 15.58829889998581  8.517159266872028 13.967502048384231  8.723732428128221 12.203688779228436  C 8.93030511581868 10.423985744141225  9.057459882955214 8.517150848215332  9.105130903900942 6.48320445474922  Z " stroke-width="0" stroke-dasharray="0" stroke="rgba(121, 121, 121, 1)" fill="none" transform="matrix(1 0 0 1 683 612 )" class="stroke" mask="url(#Clip4951)" />
    <path d="M 3.146294959469661 3.861320857390439  L 3.146294959469661 0  L 4.814761749940762 0  L 4.814761749940762 3.861320857390439  L 3.146294959469661 3.861320857390439  Z " stroke-width="0" stroke-dasharray="0" stroke="rgba(121, 121, 121, 1)" fill="none" transform="matrix(1 0 0 1 683 612 )" class="stroke" mask="url(#Clip4951)" />
    <path d="M 0.3575156087265594 4.719390475245806  L 0.3575156087265594 3.1939350606232186  L 7.41278124638368 3.1939350606232186  L 7.41278124638368 4.719390475245806  L 0.3575156087265594 4.719390475245806  Z " stroke-width="0" stroke-dasharray="0" stroke="rgba(121, 121, 121, 1)" fill="none" transform="matrix(1 0 0 1 683 612 )" class="stroke" mask="url(#Clip4951)" />
    <path d="M 0.09534961894318038 11.0834232245959  L 0.09534961894318038 9.557967809973315  L 7.675007852580881 9.557967809973315  L 7.675007852580881 11.0834232245959  L 0.09534961894318038 11.0834232245959  Z " stroke-width="0" stroke-dasharray="0" stroke="rgba(121, 121, 121, 1)" fill="none" transform="matrix(1 0 0 1 683 612 )" class="stroke" mask="url(#Clip4951)" />
    <path d="M 1.5969394221602589 7.46046093208629  C 1.4698175678421659 6.7295113359425915  1.3030026176991663 6.06211701500392  1.0964296932258402 5.458288387702049  C 1.0964296932258402 5.458288387702049  2.407380874970381 5.100758117422098  2.407380874970381 5.100758117422098  C 2.6457343222189467 5.720476747437927  2.8364060932927937 6.38787201550676  2.97941797221564 7.10293066180634  C 3.122430087921353 7.817990255236079  3.209803439223779 8.437702255340781  3.241583961999019 8.962078974812536  C 3.241583961999019 8.962078974812536  1.8114609106789588 9.343446616988828  1.8114609106789588 9.343446616988828  C 1.8114609106789588 8.819069897517073  1.7399515378659716 8.191410054664908  1.5969394221602589 7.46046093208629  Z " stroke-width="0" stroke-dasharray="0" stroke="rgba(121, 121, 121, 1)" fill="none" transform="matrix(1 0 0 1 683 612 )" class="stroke" mask="url(#Clip4951)" />
    <path d="M 5.267626977610501 6.340195377453757  C 5.378858570540974 5.847599610540078  5.4662319218434 5.410626903731624  5.529792967393879 5.029261155815655  C 5.529792967393879 5.029261155815655  7.05526563765712 5.339116682302925  7.05526563765712 5.339116682302925  C 6.832802451796175 6.038286273018707  6.610342107329626 6.7612960770213135  6.387878921468681 7.508135675878972  C 6.181306233778222 8.254975274736628  5.974709867801112 8.890581539641014  5.76813670654492 9.41495873267785  C 5.76813670654492 9.41495873267785  4.52871289311122 9.08126583429424  4.52871289311122 9.08126583429424  C 4.655834747429314 8.715791036222392  4.782928898152027 8.294697440131042  4.910050752470119 7.817991202366241  C 5.037172606788212 7.325394488322402  5.156395384680028 6.832792091497596  5.267626977610501 6.340195377453757  Z " stroke-width="0" stroke-dasharray="0" stroke="rgba(121, 121, 121, 1)" fill="none" transform="matrix(1 0 0 1 683 612 )" class="stroke" mask="url(#Clip4951)" />
    <path d="M 0.30987110746188057 16.303353047417126  C 0.30987110746188057 16.303353047417126  0 14.706385517105517  0 14.706385517105517  C 0.9534137889942634 14.563373598419567  2.1054358371815574 14.388581437523161  3.456105450517719 14.18200879763376  C 4.806775063853881 13.959545681465316  6.1971820514109845 13.729138511070056  7.62730273490238 13.490785628970198  C 7.62730273490238 13.490785628970198  7.722652353845561 14.992418825779025  7.722652353845561 14.992418825779025  C 6.419653287889392 15.214881705164926  5.108687899172861 15.445288875560184  3.7897988086119394 15.683641994442585  C 2.486799979438637 15.906104873828486  1.3268459420066236 16.11267041024168  0.30987110746188057 16.303353047417126  Z " stroke-width="0" stroke-dasharray="0" stroke="rgba(121, 121, 121, 1)" fill="none" transform="matrix(1 0 0 1 683 612 )" class="stroke" mask="url(#Clip4951)" />
    <path d="M 17.11377149816222 3.861320857390439  L 17.11377149816222 0  L 18.78223828863332 0  L 18.78223828863332 3.861320857390439  L 17.11377149816222 3.861320857390439  Z " stroke-width="0" stroke-dasharray="0" stroke="rgba(121, 121, 121, 1)" fill="none" transform="matrix(1 0 0 1 683 612 )" class="stroke" mask="url(#Clip4951)" />
    <path d="M 17 22  L 17 10.130019273237753  L 18.78223828863332 10.130019273237753  L 18.78223828863332 22  L 17 22  Z " stroke-width="0" stroke-dasharray="0" stroke="rgba(121, 121, 121, 1)" fill="none" transform="matrix(1 0 0 1 683 612 )" class="stroke" mask="url(#Clip4951)" />
    <path d="M 14.182058643625082 4.695568257432044  L 14.182058643625082 3.1939350606232186  L 21.71401175958428 3.1939350606232186  L 21.71401175958428 4.695568257432044  L 14.182058643625082 4.695568257432044  Z " stroke-width="0" stroke-dasharray="0" stroke="rgba(121, 121, 121, 1)" fill="none" transform="matrix(1 0 0 1 683 612 )" class="stroke" mask="url(#Clip4951)" />
    <path d="M 14.062826157635739 11.059585852699563  L 14.062826157635739 9.557967809973315  L 22 9.557967809973315  L 22 11.059585852699563  L 14.062826157635739 11.059585852699563  Z " stroke-width="0" stroke-dasharray="0" stroke="rgba(121, 121, 121, 1)" fill="none" transform="matrix(1 0 0 1 683 612 )" class="stroke" mask="url(#Clip4951)" />
    <path d="M 14.3012305132006 15.993497520929854  L 14.3012305132006 14.444204734410928  L 21.64248439127344 14.444204734410928  L 21.64248439127344 15.993497520929854  L 14.3012305132006 15.993497520929854  Z " stroke-width="0" stroke-dasharray="0" stroke="rgba(121, 121, 121, 1)" fill="none" transform="matrix(1 0 0 1 683 612 )" class="stroke" mask="url(#Clip4951)" />
    <path d="M 15.46912695832346 7.508135675878972  C 15.326114842617747 6.745406074307355  15.143375297571486 6.0541696458215375  14.92091211171054 5.434451015805708  C 14.92091211171054 5.434451015805708  16.231863293455078 5.100758117422098  16.231863293455078 5.100758117422098  C 16.486106528525532 5.720476747437927  16.68477114204079 6.403765806741362  16.8277832577465 7.150605405599021  C 16.98668539805697 7.881554528177639  17.08199050182125 8.517161266647104  17.11377149816222 9.0574284623979  C 17.11377149816222 9.0574284623979  15.731353564520663 9.41495873267785  15.731353564520663 9.41495873267785  C 15.715463539915909 8.890581539641014  15.628029098633926 8.254975274736628  15.46912695832346 7.508135675878972  Z " stroke-width="0" stroke-dasharray="0" stroke="rgba(121, 121, 121, 1)" fill="none" transform="matrix(1 0 0 1 683 612 )" class="stroke" mask="url(#Clip4951)" />
    <path d="M 19.35427538587858 6.316358005557415  C 19.481397476979538 5.823761291513576  19.57676319715764 5.3788412155227405  19.64032424270812 4.981586412022973  C 19.64032424270812 4.981586412022973  21.16579691297136 5.339116682302925  21.16579691297136 5.339116682302925  C 20.943333727110414 6.038286273018707  20.712942103747746 6.7612960770213135  20.47458794615058 7.508135675878972  C 20.252124760289636 8.254975274736628  20.02966441582309 8.890581539641014  19.807201229962143 9.41495873267785  C 19.807201229962143 9.41495873267785  18.56771680011462 9.0574284623979  18.56771680011462 9.0574284623979  C 18.694838891215582 8.69195366432605  18.821994131917847 8.27085959466962  18.94911527588734 7.7941538304699005  C 19.092127391593056 7.3015571164260615  19.227153294777622 6.808954719601254  19.35427538587858 6.316358005557415  Z " stroke-width="0" stroke-dasharray="0" stroke="rgba(121, 121, 121, 1)" fill="none" transform="matrix(1 0 0 1 683 612 )" class="stroke" mask="url(#Clip4951)" />
    <path d="M 3.146294959469661 14.27735828521912  C 3.146294959469661 14.27735828521912  3.146294959469661 10.130019273237753  3.146294959469661 10.130019273237753  L 4.814761749940762 10.130019273237753  C 4.814761749940762 10.130019273237753  4.814761749940762 14.301195657115462  4.814761749940762 14.301195657115462  C 4.814761749940762 14.905023574069713  4.767048344861933 15.54857720815648  4.671707013319079 16.231856085810684  C 4.592255943163846 16.915135081856153  4.433372982265566 17.59840922385955  4.195019535017 18.281688219905025  C 3.9725563491560543 18.964967156754863  3.630934079994379 19.616467923241473  3.170117210102001 20.236186020496586  C 2.7251908383801093 20.871794298052563  2.1372514038210384 21.443838539449523  1.406300800687721 21.952325256207317  C 1.2950692077572479 21.77753297691964  1.1281936412004254 21.570967381310815  0.9057304553394794 21.33261420323278  C 0.6832672694785336 21.09426108435038  0.47673163830668047 20.903574599458654  0.2860488568295411 20.760562739968343  C 0.9375482714161923 20.347417341798266  1.4539782147708422 19.878655868607904  1.8353437777251211 19.354279030744877  C 2.2167093406793996 18.814011953385354  2.502686452300393 18.249914844388236  2.693369115386099 17.661977166930484  C 2.884051778471805 17.058149131584965  3.0032745563636216 16.470210625388322  3.050945340526481 15.898163187427071  C 3.114506386076961 15.326115749465819  3.146294959469661 14.78584500197692  3.146294959469661 14.27735828521912  Z " stroke-width="0" stroke-dasharray="0" stroke="rgba(121, 121, 121, 1)" fill="none" transform="matrix(1 0 0 1 683 612 )" class="stroke" mask="url(#Clip4951)" />
  </g>
</svg>