<?xml version="1.0" encoding="utf-8"?>
<svg version="1.1" xmlns:xlink="http://www.w3.org/1999/xlink" width="23px" height="22px" xmlns="http://www.w3.org/2000/svg">
  <defs>
    <pattern id="BGPattern" patternUnits="userSpaceOnUse" alignment="0 0" imageRepeat="None" />
    <mask fill="white" id="Clip4963">
      <path d="M 9.444674032730648 6.2002211057779455  L 9.444674032730648 5  L 21.87446398086699 5  L 21.87446398086699 6.2002211057779455  L 9.444674032730648 6.2002211057779455  Z M 8.392548623868104 9.19260416392821  L 8.392548623868104 8  L 22.706388671700626 8  L 22.706388671700626 9.19260416392821  L 8.392548623868104 9.19260416392821  Z M 7.95213163141904 18  L 7.95213163141904 16.68552476647605  L 23 16.68552476647605  L 23 18  L 7.95213163141904 18  Z M 10.521269645016678 14.937974156359697  L 10.521269645016678 13.645274659589806  L 20.406376226587632 13.645274659589806  L 20.406376226587632 14.937974156359697  L 10.521269645016678 14.937974156359697  Z M 8.979786836858096 3.303587365146922  L 8.979786836858096 2  L 22.217015716013343 2  L 22.217015716013343 3.303587365146922  L 8.979786836858096 3.303587365146922  Z M 11.793611328299374 8.498372146759998  L 11.793611328299374 0  L 13.506385560422375 0  L 13.506385560422375 8.498372146759998  L 11.793611328299374 8.498372146759998  Z M 14.582981172708408 17.284007466125015  L 14.582981172708408 8.665944867454142  L 16.27126964501668 8.665944867454142  L 16.27126964501668 17.284007466125015  L 14.582981172708408 17.284007466125015  Z M 17.445746070996663 8.450489877976729  L 17.445746070996663 0  L 19.158504746728422 0  L 19.158504746728422 8.450489877976729  L 17.445746070996663 8.450489877976729  Z M 10 21.952132951264026  L 10 11  L 20.406376226587632 11  L 20.406376226587632 11.969532232601065  L 11.304253929003336 11.969532232601065  L 11.304253929003336 21.952132951264026  L 10 21.952132951264026  Z M 19.721272756294926 20.108817803581136  C 19.721272756294926 20.108817803581136  19.721272756294926 10.628950467047906  19.721272756294926 10.628950467047906  L 21.43404698841793 10.628950467047906  C 21.43404698841793 10.628950467047906  21.43404698841793 20.108817803581136  21.43404698841793 20.108817803581136  C 21.43404698841793 20.55568035405808  21.36879764990274 20.89880460797309  21.238300917421267 21.138195262137643  C 21.12411603343136 21.37758591630219  20.912051308021958 21.56112072104801  20.602122297584295 21.688795693003343  C 20.25956959016349 21.80051143466587  19.810996187331416 21.872331984081907  19.256385560422377 21.904250682480757  C 18.71808775427936 21.936169499786228  18.04929029883151 21.952132951264026  17.25 21.952132951264026  C 17.217375330742406 21.744660995498325  17.143967637295297 21.497287426528683  17.029783725579847 21.210018665312543  C 16.931910690081516 20.922749844643096  16.825886105572437 20.67537627567345  16.711702193856983 20.467904379361062  C 17.298936517749166 20.483863758287143  17.837234323892183 20.491845513752697  18.32659561228603 20.491845513752697  C 18.815957872954336 20.507804892678777  19.13404718287282 20.507804892678777  19.280855763845864 20.491845513752697  C 19.574471953517502 20.475886134826617  19.721272756294926 20.34820845774569  19.721272756294926 20.108817803581136  Z M 0.5138276027195278 6.870511988554525  L 0.5138276027195278 5.194784781613076  L 8.465959234138568 5.194784781613076  L 8.465959234138568 6.870511988554525  L 0.5138276027195278 6.870511988554525  Z M 4 22  L 4 0  L 6 0  L 6 22  L 4 22  Z M 3.229786836858096 8.85745872253992  C 3.507091907244003 7.931815398813666  3.7272994311940817 7.046068575306719  3.8904201037273114 6.2002211057779455  C 3.8904201037273114 6.2002211057779455  5.040426326283808 6.559307681557868  5.040426326283808 6.559307681557868  C 4.84468147063021 7.516870298216071  4.599999368021606 8.506349354047355  4.306382449144127 9.527749605316501  C 4.029077378758221 10.549149856585645  3.7109875827025105 11.554592363894727  3.3521222975842955 12.5440737978584  C 2.9932570124660804 13.533555231822074  2.6099331912178085 14.451213738237326  2.2021316314190402 15.29706073213962  C 1.7943300716202728 16.142907726041916  1.3702154479868678 16.86906510037967  0.9297899481363443 17.4755213212108  C 0.8482296118697294 17.236130785952863  0.7095723368388196 16.972793646598802  0.5138276027195278 16.68552476647605  C 0.3180829293673892 16.382296715513792  0.14680855058946887 16.126956640852544  0 15.919484566180225  C 0.40780146864803796 15.376865861053421  0.8074416047736477 14.730510880777217  1.1989310730122313 13.980420100978094  C 1.5904204197165086 13.23032955899221  1.9574436951637209 12.416403284901296  2.2999968887217515 11.538637473693534  C 2.6425503253483957 10.660871662485766  2.9524820095408026 9.767143351053159  3.229786836858096 8.85745872253992  Z M 4.673404387713968 9.144721895144944  C 4.673404387713968 9.144721895144944  5.505313522156359 8.37868169484912  5.505313522156359 8.37868169484912  C 5.652122103129405 8.538275305749995  5.864187314676035 8.825542758993318  6.141492141993329 9.240486432711478  C 6.43510930393942 9.639470935590143  6.745040745063212 10.078345755543904  7.071282090129673 10.557127063873004  C 7.413835283687703 11.035908372202107  7.723751654557482 11.482780375755295  8.001056481874775 11.897724049473457  C 8.278361795329294 12.296708552352118  8.465952428217399 12.583975529968965  8.563824491441279 12.759528787335814  C 8.563824491441279 12.759528787335814  7.5606394894257125 14.100110552888973  7.5606394894257125 14.100110552888973  C 7.413831394589893 13.796882501926719  7.2099240518379535 13.413864779911197  6.948931073012232 12.951042642421593  C 6.70424994267808 12.488220980558465  6.43510930393942 12.009437294096974  6.141492141993329 11.5146963393019  C 5.847874980047237 11.019955860133301  5.570560186916804 10.565117113075267  5.309567451159695 10.150173439357106  C 5.048574472333973 9.71927011917297  4.836524817178585 9.384112787122733  4.673404387713968 9.144721895144944  Z " fill-rule="evenodd" />
    </mask>
  </defs>
  <g transform="matrix(1 0 0 1 -341 -612 )">
    <path d="M 9.444674032730648 6.2002211057779455  L 9.444674032730648 5  L 21.87446398086699 5  L 21.87446398086699 6.2002211057779455  L 9.444674032730648 6.2002211057779455  Z M 8.392548623868104 9.19260416392821  L 8.392548623868104 8  L 22.706388671700626 8  L 22.706388671700626 9.19260416392821  L 8.392548623868104 9.19260416392821  Z M 7.95213163141904 18  L 7.95213163141904 16.68552476647605  L 23 16.68552476647605  L 23 18  L 7.95213163141904 18  Z M 10.521269645016678 14.937974156359697  L 10.521269645016678 13.645274659589806  L 20.406376226587632 13.645274659589806  L 20.406376226587632 14.937974156359697  L 10.521269645016678 14.937974156359697  Z M 8.979786836858096 3.303587365146922  L 8.979786836858096 2  L 22.217015716013343 2  L 22.217015716013343 3.303587365146922  L 8.979786836858096 3.303587365146922  Z M 11.793611328299374 8.498372146759998  L 11.793611328299374 0  L 13.506385560422375 0  L 13.506385560422375 8.498372146759998  L 11.793611328299374 8.498372146759998  Z M 14.582981172708408 17.284007466125015  L 14.582981172708408 8.665944867454142  L 16.27126964501668 8.665944867454142  L 16.27126964501668 17.284007466125015  L 14.582981172708408 17.284007466125015  Z M 17.445746070996663 8.450489877976729  L 17.445746070996663 0  L 19.158504746728422 0  L 19.158504746728422 8.450489877976729  L 17.445746070996663 8.450489877976729  Z M 10 21.952132951264026  L 10 11  L 20.406376226587632 11  L 20.406376226587632 11.969532232601065  L 11.304253929003336 11.969532232601065  L 11.304253929003336 21.952132951264026  L 10 21.952132951264026  Z M 19.721272756294926 20.108817803581136  C 19.721272756294926 20.108817803581136  19.721272756294926 10.628950467047906  19.721272756294926 10.628950467047906  L 21.43404698841793 10.628950467047906  C 21.43404698841793 10.628950467047906  21.43404698841793 20.108817803581136  21.43404698841793 20.108817803581136  C 21.43404698841793 20.55568035405808  21.36879764990274 20.89880460797309  21.238300917421267 21.138195262137643  C 21.12411603343136 21.37758591630219  20.912051308021958 21.56112072104801  20.602122297584295 21.688795693003343  C 20.25956959016349 21.80051143466587  19.810996187331416 21.872331984081907  19.256385560422377 21.904250682480757  C 18.71808775427936 21.936169499786228  18.04929029883151 21.952132951264026  17.25 21.952132951264026  C 17.217375330742406 21.744660995498325  17.143967637295297 21.497287426528683  17.029783725579847 21.210018665312543  C 16.931910690081516 20.922749844643096  16.825886105572437 20.67537627567345  16.711702193856983 20.467904379361062  C 17.298936517749166 20.483863758287143  17.837234323892183 20.491845513752697  18.32659561228603 20.491845513752697  C 18.815957872954336 20.507804892678777  19.13404718287282 20.507804892678777  19.280855763845864 20.491845513752697  C 19.574471953517502 20.475886134826617  19.721272756294926 20.34820845774569  19.721272756294926 20.108817803581136  Z M 0.5138276027195278 6.870511988554525  L 0.5138276027195278 5.194784781613076  L 8.465959234138568 5.194784781613076  L 8.465959234138568 6.870511988554525  L 0.5138276027195278 6.870511988554525  Z M 4 22  L 4 0  L 6 0  L 6 22  L 4 22  Z M 3.229786836858096 8.85745872253992  C 3.507091907244003 7.931815398813666  3.7272994311940817 7.046068575306719  3.8904201037273114 6.2002211057779455  C 3.8904201037273114 6.2002211057779455  5.040426326283808 6.559307681557868  5.040426326283808 6.559307681557868  C 4.84468147063021 7.516870298216071  4.599999368021606 8.506349354047355  4.306382449144127 9.527749605316501  C 4.029077378758221 10.549149856585645  3.7109875827025105 11.554592363894727  3.3521222975842955 12.5440737978584  C 2.9932570124660804 13.533555231822074  2.6099331912178085 14.451213738237326  2.2021316314190402 15.29706073213962  C 1.7943300716202728 16.142907726041916  1.3702154479868678 16.86906510037967  0.9297899481363443 17.4755213212108  C 0.8482296118697294 17.236130785952863  0.7095723368388196 16.972793646598802  0.5138276027195278 16.68552476647605  C 0.3180829293673892 16.382296715513792  0.14680855058946887 16.126956640852544  0 15.919484566180225  C 0.40780146864803796 15.376865861053421  0.8074416047736477 14.730510880777217  1.1989310730122313 13.980420100978094  C 1.5904204197165086 13.23032955899221  1.9574436951637209 12.416403284901296  2.2999968887217515 11.538637473693534  C 2.6425503253483957 10.660871662485766  2.9524820095408026 9.767143351053159  3.229786836858096 8.85745872253992  Z M 4.673404387713968 9.144721895144944  C 4.673404387713968 9.144721895144944  5.505313522156359 8.37868169484912  5.505313522156359 8.37868169484912  C 5.652122103129405 8.538275305749995  5.864187314676035 8.825542758993318  6.141492141993329 9.240486432711478  C 6.43510930393942 9.639470935590143  6.745040745063212 10.078345755543904  7.071282090129673 10.557127063873004  C 7.413835283687703 11.035908372202107  7.723751654557482 11.482780375755295  8.001056481874775 11.897724049473457  C 8.278361795329294 12.296708552352118  8.465952428217399 12.583975529968965  8.563824491441279 12.759528787335814  C 8.563824491441279 12.759528787335814  7.5606394894257125 14.100110552888973  7.5606394894257125 14.100110552888973  C 7.413831394589893 13.796882501926719  7.2099240518379535 13.413864779911197  6.948931073012232 12.951042642421593  C 6.70424994267808 12.488220980558465  6.43510930393942 12.009437294096974  6.141492141993329 11.5146963393019  C 5.847874980047237 11.019955860133301  5.570560186916804 10.565117113075267  5.309567451159695 10.150173439357106  C 5.048574472333973 9.71927011917297  4.836524817178585 9.384112787122733  4.673404387713968 9.144721895144944  Z " fill-rule="nonzero" fill="rgba(0, 0, 0, 1)" stroke="none" transform="matrix(1 0 0 1 341 612 )" class="fill" />
    <path d="M 9.444674032730648 6.2002211057779455  L 9.444674032730648 5  L 21.87446398086699 5  L 21.87446398086699 6.2002211057779455  L 9.444674032730648 6.2002211057779455  Z " stroke-width="0" stroke-dasharray="0" stroke="rgba(121, 121, 121, 1)" fill="none" transform="matrix(1 0 0 1 341 612 )" class="stroke" mask="url(#Clip4963)" />
    <path d="M 8.392548623868104 9.19260416392821  L 8.392548623868104 8  L 22.706388671700626 8  L 22.706388671700626 9.19260416392821  L 8.392548623868104 9.19260416392821  Z " stroke-width="0" stroke-dasharray="0" stroke="rgba(121, 121, 121, 1)" fill="none" transform="matrix(1 0 0 1 341 612 )" class="stroke" mask="url(#Clip4963)" />
    <path d="M 7.95213163141904 18  L 7.95213163141904 16.68552476647605  L 23 16.68552476647605  L 23 18  L 7.95213163141904 18  Z " stroke-width="0" stroke-dasharray="0" stroke="rgba(121, 121, 121, 1)" fill="none" transform="matrix(1 0 0 1 341 612 )" class="stroke" mask="url(#Clip4963)" />
    <path d="M 10.521269645016678 14.937974156359697  L 10.521269645016678 13.645274659589806  L 20.406376226587632 13.645274659589806  L 20.406376226587632 14.937974156359697  L 10.521269645016678 14.937974156359697  Z " stroke-width="0" stroke-dasharray="0" stroke="rgba(121, 121, 121, 1)" fill="none" transform="matrix(1 0 0 1 341 612 )" class="stroke" mask="url(#Clip4963)" />
    <path d="M 8.979786836858096 3.303587365146922  L 8.979786836858096 2  L 22.217015716013343 2  L 22.217015716013343 3.303587365146922  L 8.979786836858096 3.303587365146922  Z " stroke-width="0" stroke-dasharray="0" stroke="rgba(121, 121, 121, 1)" fill="none" transform="matrix(1 0 0 1 341 612 )" class="stroke" mask="url(#Clip4963)" />
    <path d="M 11.793611328299374 8.498372146759998  L 11.793611328299374 0  L 13.506385560422375 0  L 13.506385560422375 8.498372146759998  L 11.793611328299374 8.498372146759998  Z " stroke-width="0" stroke-dasharray="0" stroke="rgba(121, 121, 121, 1)" fill="none" transform="matrix(1 0 0 1 341 612 )" class="stroke" mask="url(#Clip4963)" />
    <path d="M 14.582981172708408 17.284007466125015  L 14.582981172708408 8.665944867454142  L 16.27126964501668 8.665944867454142  L 16.27126964501668 17.284007466125015  L 14.582981172708408 17.284007466125015  Z " stroke-width="0" stroke-dasharray="0" stroke="rgba(121, 121, 121, 1)" fill="none" transform="matrix(1 0 0 1 341 612 )" class="stroke" mask="url(#Clip4963)" />
    <path d="M 17.445746070996663 8.450489877976729  L 17.445746070996663 0  L 19.158504746728422 0  L 19.158504746728422 8.450489877976729  L 17.445746070996663 8.450489877976729  Z " stroke-width="0" stroke-dasharray="0" stroke="rgba(121, 121, 121, 1)" fill="none" transform="matrix(1 0 0 1 341 612 )" class="stroke" mask="url(#Clip4963)" />
    <path d="M 10 21.952132951264026  L 10 11  L 20.406376226587632 11  L 20.406376226587632 11.969532232601065  L 11.304253929003336 11.969532232601065  L 11.304253929003336 21.952132951264026  L 10 21.952132951264026  Z " stroke-width="0" stroke-dasharray="0" stroke="rgba(121, 121, 121, 1)" fill="none" transform="matrix(1 0 0 1 341 612 )" class="stroke" mask="url(#Clip4963)" />
    <path d="M 19.721272756294926 20.108817803581136  C 19.721272756294926 20.108817803581136  19.721272756294926 10.628950467047906  19.721272756294926 10.628950467047906  L 21.43404698841793 10.628950467047906  C 21.43404698841793 10.628950467047906  21.43404698841793 20.108817803581136  21.43404698841793 20.108817803581136  C 21.43404698841793 20.55568035405808  21.36879764990274 20.89880460797309  21.238300917421267 21.138195262137643  C 21.12411603343136 21.37758591630219  20.912051308021958 21.56112072104801  20.602122297584295 21.688795693003343  C 20.25956959016349 21.80051143466587  19.810996187331416 21.872331984081907  19.256385560422377 21.904250682480757  C 18.71808775427936 21.936169499786228  18.04929029883151 21.952132951264026  17.25 21.952132951264026  C 17.217375330742406 21.744660995498325  17.143967637295297 21.497287426528683  17.029783725579847 21.210018665312543  C 16.931910690081516 20.922749844643096  16.825886105572437 20.67537627567345  16.711702193856983 20.467904379361062  C 17.298936517749166 20.483863758287143  17.837234323892183 20.491845513752697  18.32659561228603 20.491845513752697  C 18.815957872954336 20.507804892678777  19.13404718287282 20.507804892678777  19.280855763845864 20.491845513752697  C 19.574471953517502 20.475886134826617  19.721272756294926 20.34820845774569  19.721272756294926 20.108817803581136  Z " stroke-width="0" stroke-dasharray="0" stroke="rgba(121, 121, 121, 1)" fill="none" transform="matrix(1 0 0 1 341 612 )" class="stroke" mask="url(#Clip4963)" />
    <path d="M 0.5138276027195278 6.870511988554525  L 0.5138276027195278 5.194784781613076  L 8.465959234138568 5.194784781613076  L 8.465959234138568 6.870511988554525  L 0.5138276027195278 6.870511988554525  Z " stroke-width="0" stroke-dasharray="0" stroke="rgba(121, 121, 121, 1)" fill="none" transform="matrix(1 0 0 1 341 612 )" class="stroke" mask="url(#Clip4963)" />
    <path d="M 4 22  L 4 0  L 6 0  L 6 22  L 4 22  Z " stroke-width="0" stroke-dasharray="0" stroke="rgba(121, 121, 121, 1)" fill="none" transform="matrix(1 0 0 1 341 612 )" class="stroke" mask="url(#Clip4963)" />
    <path d="M 3.229786836858096 8.85745872253992  C 3.507091907244003 7.931815398813666  3.7272994311940817 7.046068575306719  3.8904201037273114 6.2002211057779455  C 3.8904201037273114 6.2002211057779455  5.040426326283808 6.559307681557868  5.040426326283808 6.559307681557868  C 4.84468147063021 7.516870298216071  4.599999368021606 8.506349354047355  4.306382449144127 9.527749605316501  C 4.029077378758221 10.549149856585645  3.7109875827025105 11.554592363894727  3.3521222975842955 12.5440737978584  C 2.9932570124660804 13.533555231822074  2.6099331912178085 14.451213738237326  2.2021316314190402 15.29706073213962  C 1.7943300716202728 16.142907726041916  1.3702154479868678 16.86906510037967  0.9297899481363443 17.4755213212108  C 0.8482296118697294 17.236130785952863  0.7095723368388196 16.972793646598802  0.5138276027195278 16.68552476647605  C 0.3180829293673892 16.382296715513792  0.14680855058946887 16.126956640852544  0 15.919484566180225  C 0.40780146864803796 15.376865861053421  0.8074416047736477 14.730510880777217  1.1989310730122313 13.980420100978094  C 1.5904204197165086 13.23032955899221  1.9574436951637209 12.416403284901296  2.2999968887217515 11.538637473693534  C 2.6425503253483957 10.660871662485766  2.9524820095408026 9.767143351053159  3.229786836858096 8.85745872253992  Z " stroke-width="0" stroke-dasharray="0" stroke="rgba(121, 121, 121, 1)" fill="none" transform="matrix(1 0 0 1 341 612 )" class="stroke" mask="url(#Clip4963)" />
    <path d="M 4.673404387713968 9.144721895144944  C 4.673404387713968 9.144721895144944  5.505313522156359 8.37868169484912  5.505313522156359 8.37868169484912  C 5.652122103129405 8.538275305749995  5.864187314676035 8.825542758993318  6.141492141993329 9.240486432711478  C 6.43510930393942 9.639470935590143  6.745040745063212 10.078345755543904  7.071282090129673 10.557127063873004  C 7.413835283687703 11.035908372202107  7.723751654557482 11.482780375755295  8.001056481874775 11.897724049473457  C 8.278361795329294 12.296708552352118  8.465952428217399 12.583975529968965  8.563824491441279 12.759528787335814  C 8.563824491441279 12.759528787335814  7.5606394894257125 14.100110552888973  7.5606394894257125 14.100110552888973  C 7.413831394589893 13.796882501926719  7.2099240518379535 13.413864779911197  6.948931073012232 12.951042642421593  C 6.70424994267808 12.488220980558465  6.43510930393942 12.009437294096974  6.141492141993329 11.5146963393019  C 5.847874980047237 11.019955860133301  5.570560186916804 10.565117113075267  5.309567451159695 10.150173439357106  C 5.048574472333973 9.71927011917297  4.836524817178585 9.384112787122733  4.673404387713968 9.144721895144944  Z " stroke-width="0" stroke-dasharray="0" stroke="rgba(121, 121, 121, 1)" fill="none" transform="matrix(1 0 0 1 341 612 )" class="stroke" mask="url(#Clip4963)" />
  </g>
</svg>