<?xml version="1.0" encoding="utf-8"?>
<svg version="1.1" xmlns:xlink="http://www.w3.org/1999/xlink" width="37px" height="38px" xmlns="http://www.w3.org/2000/svg">
  <defs>
    <pattern id="BGPattern" patternUnits="userSpaceOnUse" alignment="0 0" imageRepeat="None" />
    <mask fill="white" id="Clip4230">
      <path d="M 12.56031050892972 9.252933731596668  L 12.56031050892972 0  L 16.598684410034082 0  L 16.598684410034082 9.252933731596668  L 12.56031050892972 9.252933731596668  Z M 21.718196467430236 19.37033070462229  C 20.912640931617634 18.559231111562333  20.138883834692216 17.833510576834264  19.396925235882843 17.193169040801635  C 19.396925235882843 17.193169040801635  22.067982256632586 15.496263037004748  22.067982256632586 15.496263037004748  C 22.80994085544196 16.115260091727535  23.583696649332296 16.798291127107888  24.389253488179975 17.545356143145796  C 25.216007627877495 18.292421159183707  25.989764665574043 19.039487725769284  26.710524719727367 19.786553039989435  C 27.45248456234295 20.533618056027347  28.05665567117466 21.216649389589936  28.523030405698623 21.83564614613048  C 28.523030405698623 21.83564614613048  25.629386563435574 23.756670694591918  25.629386563435574 23.756670694591918  C 25.226608795529273 23.15901853863411  24.675437246696514 22.475987324344416  23.97587579642811 21.70757758845087  C 23.276314346159708 20.939167852557325  22.523753306277914 20.160085220007925  21.718196467430236 19.37033070462229  Z M 21.050436002890304 26.157950903077126  C 20.09648798918633 25.538954086900134  19.195536959025585 24.983991907381636  18.347583030865803 24.49306346997491  C 18.347583030865803 24.49306346997491  21.24122687312886 22.604055583841784  21.24122687312886 22.604055583841784  C 22.067982256632586 23.030949980954503  22.968933227564467 23.532550420470358  23.944079845153357 24.10885779693608  C 24.919226462742248 24.663820453546165  25.851969594301377 25.240128366739924  26.74232067100212 25.837780463061282  C 27.653870292358917 26.414087839527  28.40643263527579 26.937034131991016  29 27.406617909178557  C 29 27.406617909178557  25.883769336223637 29.583777664632855  25.883769336223637 29.583777664632855  C 25.353797664696444 29.114193917263542  24.654237458234256 28.569903650399496  23.78508492618956 27.950906893858953  C 22.93713224183599 27.3532547975376  22.025582620479195 26.755602939762035  21.050436002890304 26.157950903077126  Z M 3.8157870795910496 25.165421012334917  C 5.1301150907572515 24.397011276441372  6.221845323069697 23.617928822801314  7.09099749974119 22.828174128506337  C 7.09099749974119 22.828174128506337  10.557013952719906 24.268943016944004  10.557013952719906 24.268943016944004  C 9.857451850933963 24.930629272832267  9.062501895323752 25.602988485012833  8.172150818623008 26.286019460756734  C 7.30299828657831 26.947705716645  6.402046664128894 27.566703308095825  5.469297846598509 28.143010684561542  C 4.557747869868509 28.7406627808829  3.688587460384466 29.252935162871438  2.861832728398276 29.679829559984153  C 2.628645672087848 29.423692921716523  2.331865765566033 29.135537146207962  1.9714854423450354 28.8153663185552  C 1.6323039895388587 28.495195550538885  1.2825234124768248 28.175025706887524  0.9221432373279961 27.854854998507655  C 0.582961784521819 27.534684230491344  0.2755849007905853 27.278548024587963  0 27.086445560796353  C 1.2507314887650436 26.552827624041907  2.5226580276829678 25.912486147645723  3.8157870795910496 25.165421012334917  Z M 0.9539391886027517 6  L 0.9539391886027517 3  L 28.141448665221514 3  L 28.141448665221514 6  L 0.9539391886027517 6  Z M 0.25438277278806565 14.407685067643953  L 0.25438277278806565 8  L 28.872816194900977 8  L 28.872816194900977 14.407685067643953  L 25.12062101785944 14.407685067643953  L 25.12062101785944 11  L 3.879378982140561 11  L 3.879378982140561 14.407685067643953  L 0.25438277278806565 14.407685067643953  Z M 2.861832728398276 22.70010557082673  C 2.6710432796525363 22.84951856508884  2.5756540043354548 22.998933482626423  2.5756540043354548 23.148346476888538  C 2.5544551246661245 22.913554439203647  2.490857219641096 22.61472845067942  2.3848631340969004 22.251868481497624  C 2.278868893076928 21.867663434641507  2.162270315660779 21.472784268582338  2.0350773448945465 21.067234800052823  C 1.9078842260561464 20.661685003522845  1.791300959302187 20.309497573178213  1.6853067182822143 20.010671584653988  C 2.300072983035676 19.925292548685768  2.936036252494638 19.786551444714437  3.593200258077739 19.594449249286846  C 4.271563163690093 19.381001976184923  5.07711052591901 19.082175972751582  6.009859343449396 18.69797125389593  C 6.51863152265866 18.50586873046787  7.302999530384524 18.185698931543847  8.36294168886156 17.73745993384839  C 9.444082332765783 17.28922093615293  10.652411283162937 16.755602880125586  11.987937898214055 16.1366058254028  C 13.323464513265176 15.49626428937017  14.680182743194871 14.802561072971349  16.05810775059317 14.055496056933439  C 17.436032165702798 13.308431040895528  18.71857121460058 12.540020350818804  19.905705944048997 11.750265835433172  C 19.905705944048997 11.750265835433172  22.513155899659207 13.959444161582141  22.513155899659207 13.959444161582141  C 19.71490867709278 15.645677268723173  16.7682748995217 17.13980670443451  13.673244616496271 18.44183413853671  C 10.578214333470843 19.722517210601968  7.525578889060557 20.811099294877717  4.515343495405736 21.70757758845087  C 4.515343495405736 21.70757758845087  4.515343495405736 21.867662808458796  4.515343495405736 21.867662808458796  C 4.515343495405736 21.867662808458796  4.4093569911565496 21.910352330170184  4.197368820068158 21.995731366138408  C 4.006579208443034 22.0597653244323  3.783979134470671 22.15581499087133  3.529593192938207 22.283883235459584  C 3.296405825676225 22.411951793139192  3.073821210438221 22.550692576564614  2.861832728398276 22.70010557082673  Z M 3.4024093878391843 22.89220936152932  C 3.084426805447827 22.956243640369124  2.8088412087180514 23.041622996883255  2.5756540043354548 23.148346476888538  C 2.5756540043354548 23.148346476888538  2.5438580530606996 20.84311625538827  2.5438580530606996 20.84311625538827  L 4.515343495405736 19.754534469294768  C 4.515343495405736 19.754534469294768  23.498906202126737 18.729989824590596  23.498906202126737 18.729989824590596  C 23.54130333215868 19.13553962112058  23.594304161876483 19.59445050165226  23.657901121090536 20.106723480005282  C 23.742695381154427 20.597652006866685  23.82748837520128 21.00320114739573  23.912283893878598 21.323371915412043  C 20.923248407143774 21.5154744388401  18.347588006090653 21.686233151868368  16.185306718282217 21.83564614613048  C 14.023024719727367 21.985059140392597  12.199927372337529 22.113126110251763  10.716008871683707 22.219849910802957  C 9.232089778741212 22.305228633679825  8.002552214780572 22.390607990193956  7.027405597191679 22.475987026162176  C 6.073458175776376 22.56136574903904  5.3102991369872035 22.636071291986923  4.737930316919045 22.70010557082673  C 4.1867606930244765 22.764139529120623  3.7415908406453617 22.828175082689512  3.4024093878391843 22.89220936152932  Z M 5.246711025085198 17.129133807778654  C 5.01352396877477 17.321236331206713  4.896925235882844 17.513338839725662  4.896925235882844 17.70544136315372  C 4.854527476544184 17.470649325468827  4.769735433861011 17.1718233369446  4.642542463094778 16.808963367762807  C 4.5365483775505835 16.446103398581016  4.41994995561021 16.06189838154312  4.292756673892425 15.656348257012672  C 4.186762588348229 15.250798788483161  4.080776084099044 14.909284523158407  3.9747819985548483 14.631803612308506  C 4.313963451361025 14.567769012922788  4.674341257355163 14.461046166554773  5.0559201548466435 14.311633172292657  C 5.4586982485117135 14.162220178030543  5.903867775132058 13.959443535399434  6.391441083926504 13.703307046222923  C 6.645827025458969 13.575238488543315  7.016801882698609 13.383135980024365  7.504375191493055 13.126999490847856  C 8.013147074557985 12.849518579997953  8.596124613958496 12.51867655532812  9.2532889749148 12.134471508472002  C 9.910452684353567 11.750266461615881  10.567610056303533 11.334044126248738  11.224774417259837 10.885804502370574  C 11.881938126698602 10.437566130857826  12.486110479336526 9.967982711488977  13.037280103231096 9.477054184627574  C 13.037280103231096 9.477054184627574  15.549342205017041 11.526147290768622  15.549342205017041 11.526147290768622  C 14.23501478613951 12.44396970783293  12.772294297081933 13.319103937551382  11.161182514710326 14.151547952284735  C 9.571269336223637 14.962647545344693  7.960159449175783 15.667022406033947  6.327849181376993 16.264674383082408  C 6.327849181376993 16.264674383082408  6.327849181376993 16.360726278433702  6.327849181376993 16.360726278433702  C 6.327849181376993 16.360726278433702  6.211250759436621 16.43543182883614  5.97806339217464 16.58484482309826  C 5.744876335864212 16.73425781736037  5.501097262761999 16.91568684776809  5.246711025085198 17.129133807778654  Z M 5.501093797873264 17.545356143145796  C 5.2467078563408 17.588045661129907  5.045317077063896 17.641407404859827  4.896925235882844 17.70544136315372  C 4.896925235882844 17.70544136315372  4.865129284608089 15.720383490035655  4.865129284608089 15.720383490035655  L 6.391441083926504 14.887940727667726  C 6.391441083926504 14.887940727667726  17.361847890988297 14.439699821605913  17.361847890988297 14.439699821605913  C 17.2558538054441 14.781215339296088  17.160449523012776 15.176094505355259  17.075654004335455 15.624333503050714  C 17.0120570451214 16.072572500746173  16.959056215403603 16.43543181392703  16.916659085371656 16.712913380777866  C 14.923968050135366 16.81963686078315  13.259873203004336 16.91568812249718  11.924345995664543 17.0010671584654  C 10.588819380613426 17.06510111675929  9.486476993694323 17.12913508250774  8.617324461649627 17.193169040801635  C 7.76937112577852 17.25720364018735  7.101601214234261 17.32123696484398  6.614027905439815 17.385270923137874  C 6.1476534966746215 17.427960441121982  5.7766789355793176 17.481322184851905  5.501093797873264 17.545356143145796  Z M 13.323458827293917 26.06189900772583  C 13.323458827293917 26.06189900772583  13.323458827293917 20.362860595364502  13.323458827293917 20.362860595364502  L 17.012062101785943 20.362860595364502  C 17.012062101785943 20.362860595364502  17.012062101785943 26.18996756540544  17.012062101785943 26.18996756540544  C 17.012062101785943 27.04375624035798  16.895463043135248 27.72678554628132  16.66227631258359 28.239058763180132  C 16.429089582031935 28.751331980078945  15.97332233784133 29.14621105668344  15.294959432228975 29.423692444624933  C 14.616595875099081 29.7011736834753  13.832228163517554 29.861258586664594  12.941877086816806 29.903948104648705  C 12.051526010116062 29.96798222694283  11.023393780926456 30  9.85745753690522 30  C 9.751463451361026 29.46638206324555  9.560670063895612 28.868730265106436  9.285084926189556 28.207044009218173  C 9.030698984657093 27.545357753329906  8.765710631666638 26.969049869954375  8.490125493960583 26.478121343092972  C 9.062494314028742 26.49946606294861  9.634859343449394 26.520809947893966  10.207228163517554 26.542154667749603  C 10.779596983585712 26.542154667749603  11.288379587075617 26.542154667749603  11.73355512542599 26.542154667749603  C 12.178730663776363 26.542154667749603  12.48610794730245 26.542154667749603  12.655698362753986 26.542154667749603  C 12.931283500460042 26.520809947893966  13.111479503517574 26.478122140730473  13.196275022194895 26.414088018436345  C 13.2810699115655 26.350053858869437  13.323458827293917 26.232656766570916  13.323458827293917 26.06189900772583  Z " fill-rule="evenodd" />
    </mask>
  </defs>
  <g transform="matrix(1 0 0 1 -1405 -700 )">
    <path d="M 12.56031050892972 9.252933731596668  L 12.56031050892972 0  L 16.598684410034082 0  L 16.598684410034082 9.252933731596668  L 12.56031050892972 9.252933731596668  Z M 21.718196467430236 19.37033070462229  C 20.912640931617634 18.559231111562333  20.138883834692216 17.833510576834264  19.396925235882843 17.193169040801635  C 19.396925235882843 17.193169040801635  22.067982256632586 15.496263037004748  22.067982256632586 15.496263037004748  C 22.80994085544196 16.115260091727535  23.583696649332296 16.798291127107888  24.389253488179975 17.545356143145796  C 25.216007627877495 18.292421159183707  25.989764665574043 19.039487725769284  26.710524719727367 19.786553039989435  C 27.45248456234295 20.533618056027347  28.05665567117466 21.216649389589936  28.523030405698623 21.83564614613048  C 28.523030405698623 21.83564614613048  25.629386563435574 23.756670694591918  25.629386563435574 23.756670694591918  C 25.226608795529273 23.15901853863411  24.675437246696514 22.475987324344416  23.97587579642811 21.70757758845087  C 23.276314346159708 20.939167852557325  22.523753306277914 20.160085220007925  21.718196467430236 19.37033070462229  Z M 21.050436002890304 26.157950903077126  C 20.09648798918633 25.538954086900134  19.195536959025585 24.983991907381636  18.347583030865803 24.49306346997491  C 18.347583030865803 24.49306346997491  21.24122687312886 22.604055583841784  21.24122687312886 22.604055583841784  C 22.067982256632586 23.030949980954503  22.968933227564467 23.532550420470358  23.944079845153357 24.10885779693608  C 24.919226462742248 24.663820453546165  25.851969594301377 25.240128366739924  26.74232067100212 25.837780463061282  C 27.653870292358917 26.414087839527  28.40643263527579 26.937034131991016  29 27.406617909178557  C 29 27.406617909178557  25.883769336223637 29.583777664632855  25.883769336223637 29.583777664632855  C 25.353797664696444 29.114193917263542  24.654237458234256 28.569903650399496  23.78508492618956 27.950906893858953  C 22.93713224183599 27.3532547975376  22.025582620479195 26.755602939762035  21.050436002890304 26.157950903077126  Z M 3.8157870795910496 25.165421012334917  C 5.1301150907572515 24.397011276441372  6.221845323069697 23.617928822801314  7.09099749974119 22.828174128506337  C 7.09099749974119 22.828174128506337  10.557013952719906 24.268943016944004  10.557013952719906 24.268943016944004  C 9.857451850933963 24.930629272832267  9.062501895323752 25.602988485012833  8.172150818623008 26.286019460756734  C 7.30299828657831 26.947705716645  6.402046664128894 27.566703308095825  5.469297846598509 28.143010684561542  C 4.557747869868509 28.7406627808829  3.688587460384466 29.252935162871438  2.861832728398276 29.679829559984153  C 2.628645672087848 29.423692921716523  2.331865765566033 29.135537146207962  1.9714854423450354 28.8153663185552  C 1.6323039895388587 28.495195550538885  1.2825234124768248 28.175025706887524  0.9221432373279961 27.854854998507655  C 0.582961784521819 27.534684230491344  0.2755849007905853 27.278548024587963  0 27.086445560796353  C 1.2507314887650436 26.552827624041907  2.5226580276829678 25.912486147645723  3.8157870795910496 25.165421012334917  Z M 0.9539391886027517 6  L 0.9539391886027517 3  L 28.141448665221514 3  L 28.141448665221514 6  L 0.9539391886027517 6  Z M 0.25438277278806565 14.407685067643953  L 0.25438277278806565 8  L 28.872816194900977 8  L 28.872816194900977 14.407685067643953  L 25.12062101785944 14.407685067643953  L 25.12062101785944 11  L 3.879378982140561 11  L 3.879378982140561 14.407685067643953  L 0.25438277278806565 14.407685067643953  Z M 2.861832728398276 22.70010557082673  C 2.6710432796525363 22.84951856508884  2.5756540043354548 22.998933482626423  2.5756540043354548 23.148346476888538  C 2.5544551246661245 22.913554439203647  2.490857219641096 22.61472845067942  2.3848631340969004 22.251868481497624  C 2.278868893076928 21.867663434641507  2.162270315660779 21.472784268582338  2.0350773448945465 21.067234800052823  C 1.9078842260561464 20.661685003522845  1.791300959302187 20.309497573178213  1.6853067182822143 20.010671584653988  C 2.300072983035676 19.925292548685768  2.936036252494638 19.786551444714437  3.593200258077739 19.594449249286846  C 4.271563163690093 19.381001976184923  5.07711052591901 19.082175972751582  6.009859343449396 18.69797125389593  C 6.51863152265866 18.50586873046787  7.302999530384524 18.185698931543847  8.36294168886156 17.73745993384839  C 9.444082332765783 17.28922093615293  10.652411283162937 16.755602880125586  11.987937898214055 16.1366058254028  C 13.323464513265176 15.49626428937017  14.680182743194871 14.802561072971349  16.05810775059317 14.055496056933439  C 17.436032165702798 13.308431040895528  18.71857121460058 12.540020350818804  19.905705944048997 11.750265835433172  C 19.905705944048997 11.750265835433172  22.513155899659207 13.959444161582141  22.513155899659207 13.959444161582141  C 19.71490867709278 15.645677268723173  16.7682748995217 17.13980670443451  13.673244616496271 18.44183413853671  C 10.578214333470843 19.722517210601968  7.525578889060557 20.811099294877717  4.515343495405736 21.70757758845087  C 4.515343495405736 21.70757758845087  4.515343495405736 21.867662808458796  4.515343495405736 21.867662808458796  C 4.515343495405736 21.867662808458796  4.4093569911565496 21.910352330170184  4.197368820068158 21.995731366138408  C 4.006579208443034 22.0597653244323  3.783979134470671 22.15581499087133  3.529593192938207 22.283883235459584  C 3.296405825676225 22.411951793139192  3.073821210438221 22.550692576564614  2.861832728398276 22.70010557082673  Z M 3.4024093878391843 22.89220936152932  C 3.084426805447827 22.956243640369124  2.8088412087180514 23.041622996883255  2.5756540043354548 23.148346476888538  C 2.5756540043354548 23.148346476888538  2.5438580530606996 20.84311625538827  2.5438580530606996 20.84311625538827  L 4.515343495405736 19.754534469294768  C 4.515343495405736 19.754534469294768  23.498906202126737 18.729989824590596  23.498906202126737 18.729989824590596  C 23.54130333215868 19.13553962112058  23.594304161876483 19.59445050165226  23.657901121090536 20.106723480005282  C 23.742695381154427 20.597652006866685  23.82748837520128 21.00320114739573  23.912283893878598 21.323371915412043  C 20.923248407143774 21.5154744388401  18.347588006090653 21.686233151868368  16.185306718282217 21.83564614613048  C 14.023024719727367 21.985059140392597  12.199927372337529 22.113126110251763  10.716008871683707 22.219849910802957  C 9.232089778741212 22.305228633679825  8.002552214780572 22.390607990193956  7.027405597191679 22.475987026162176  C 6.073458175776376 22.56136574903904  5.3102991369872035 22.636071291986923  4.737930316919045 22.70010557082673  C 4.1867606930244765 22.764139529120623  3.7415908406453617 22.828175082689512  3.4024093878391843 22.89220936152932  Z M 5.246711025085198 17.129133807778654  C 5.01352396877477 17.321236331206713  4.896925235882844 17.513338839725662  4.896925235882844 17.70544136315372  C 4.854527476544184 17.470649325468827  4.769735433861011 17.1718233369446  4.642542463094778 16.808963367762807  C 4.5365483775505835 16.446103398581016  4.41994995561021 16.06189838154312  4.292756673892425 15.656348257012672  C 4.186762588348229 15.250798788483161  4.080776084099044 14.909284523158407  3.9747819985548483 14.631803612308506  C 4.313963451361025 14.567769012922788  4.674341257355163 14.461046166554773  5.0559201548466435 14.311633172292657  C 5.4586982485117135 14.162220178030543  5.903867775132058 13.959443535399434  6.391441083926504 13.703307046222923  C 6.645827025458969 13.575238488543315  7.016801882698609 13.383135980024365  7.504375191493055 13.126999490847856  C 8.013147074557985 12.849518579997953  8.596124613958496 12.51867655532812  9.2532889749148 12.134471508472002  C 9.910452684353567 11.750266461615881  10.567610056303533 11.334044126248738  11.224774417259837 10.885804502370574  C 11.881938126698602 10.437566130857826  12.486110479336526 9.967982711488977  13.037280103231096 9.477054184627574  C 13.037280103231096 9.477054184627574  15.549342205017041 11.526147290768622  15.549342205017041 11.526147290768622  C 14.23501478613951 12.44396970783293  12.772294297081933 13.319103937551382  11.161182514710326 14.151547952284735  C 9.571269336223637 14.962647545344693  7.960159449175783 15.667022406033947  6.327849181376993 16.264674383082408  C 6.327849181376993 16.264674383082408  6.327849181376993 16.360726278433702  6.327849181376993 16.360726278433702  C 6.327849181376993 16.360726278433702  6.211250759436621 16.43543182883614  5.97806339217464 16.58484482309826  C 5.744876335864212 16.73425781736037  5.501097262761999 16.91568684776809  5.246711025085198 17.129133807778654  Z M 5.501093797873264 17.545356143145796  C 5.2467078563408 17.588045661129907  5.045317077063896 17.641407404859827  4.896925235882844 17.70544136315372  C 4.896925235882844 17.70544136315372  4.865129284608089 15.720383490035655  4.865129284608089 15.720383490035655  L 6.391441083926504 14.887940727667726  C 6.391441083926504 14.887940727667726  17.361847890988297 14.439699821605913  17.361847890988297 14.439699821605913  C 17.2558538054441 14.781215339296088  17.160449523012776 15.176094505355259  17.075654004335455 15.624333503050714  C 17.0120570451214 16.072572500746173  16.959056215403603 16.43543181392703  16.916659085371656 16.712913380777866  C 14.923968050135366 16.81963686078315  13.259873203004336 16.91568812249718  11.924345995664543 17.0010671584654  C 10.588819380613426 17.06510111675929  9.486476993694323 17.12913508250774  8.617324461649627 17.193169040801635  C 7.76937112577852 17.25720364018735  7.101601214234261 17.32123696484398  6.614027905439815 17.385270923137874  C 6.1476534966746215 17.427960441121982  5.7766789355793176 17.481322184851905  5.501093797873264 17.545356143145796  Z M 13.323458827293917 26.06189900772583  C 13.323458827293917 26.06189900772583  13.323458827293917 20.362860595364502  13.323458827293917 20.362860595364502  L 17.012062101785943 20.362860595364502  C 17.012062101785943 20.362860595364502  17.012062101785943 26.18996756540544  17.012062101785943 26.18996756540544  C 17.012062101785943 27.04375624035798  16.895463043135248 27.72678554628132  16.66227631258359 28.239058763180132  C 16.429089582031935 28.751331980078945  15.97332233784133 29.14621105668344  15.294959432228975 29.423692444624933  C 14.616595875099081 29.7011736834753  13.832228163517554 29.861258586664594  12.941877086816806 29.903948104648705  C 12.051526010116062 29.96798222694283  11.023393780926456 30  9.85745753690522 30  C 9.751463451361026 29.46638206324555  9.560670063895612 28.868730265106436  9.285084926189556 28.207044009218173  C 9.030698984657093 27.545357753329906  8.765710631666638 26.969049869954375  8.490125493960583 26.478121343092972  C 9.062494314028742 26.49946606294861  9.634859343449394 26.520809947893966  10.207228163517554 26.542154667749603  C 10.779596983585712 26.542154667749603  11.288379587075617 26.542154667749603  11.73355512542599 26.542154667749603  C 12.178730663776363 26.542154667749603  12.48610794730245 26.542154667749603  12.655698362753986 26.542154667749603  C 12.931283500460042 26.520809947893966  13.111479503517574 26.478122140730473  13.196275022194895 26.414088018436345  C 13.2810699115655 26.350053858869437  13.323458827293917 26.232656766570916  13.323458827293917 26.06189900772583  Z " fill-rule="nonzero" fill="rgba(255, 255, 255, 1)" stroke="none" transform="matrix(1 0 0 1 1409 700 )" class="fill" />
    <path d="M 12.56031050892972 9.252933731596668  L 12.56031050892972 0  L 16.598684410034082 0  L 16.598684410034082 9.252933731596668  L 12.56031050892972 9.252933731596668  Z " stroke-width="0" stroke-dasharray="0" stroke="rgba(121, 121, 121, 1)" fill="none" transform="matrix(1 0 0 1 1409 700 )" class="stroke" mask="url(#Clip4230)" />
    <path d="M 21.718196467430236 19.37033070462229  C 20.912640931617634 18.559231111562333  20.138883834692216 17.833510576834264  19.396925235882843 17.193169040801635  C 19.396925235882843 17.193169040801635  22.067982256632586 15.496263037004748  22.067982256632586 15.496263037004748  C 22.80994085544196 16.115260091727535  23.583696649332296 16.798291127107888  24.389253488179975 17.545356143145796  C 25.216007627877495 18.292421159183707  25.989764665574043 19.039487725769284  26.710524719727367 19.786553039989435  C 27.45248456234295 20.533618056027347  28.05665567117466 21.216649389589936  28.523030405698623 21.83564614613048  C 28.523030405698623 21.83564614613048  25.629386563435574 23.756670694591918  25.629386563435574 23.756670694591918  C 25.226608795529273 23.15901853863411  24.675437246696514 22.475987324344416  23.97587579642811 21.70757758845087  C 23.276314346159708 20.939167852557325  22.523753306277914 20.160085220007925  21.718196467430236 19.37033070462229  Z " stroke-width="0" stroke-dasharray="0" stroke="rgba(121, 121, 121, 1)" fill="none" transform="matrix(1 0 0 1 1409 700 )" class="stroke" mask="url(#Clip4230)" />
    <path d="M 21.050436002890304 26.157950903077126  C 20.09648798918633 25.538954086900134  19.195536959025585 24.983991907381636  18.347583030865803 24.49306346997491  C 18.347583030865803 24.49306346997491  21.24122687312886 22.604055583841784  21.24122687312886 22.604055583841784  C 22.067982256632586 23.030949980954503  22.968933227564467 23.532550420470358  23.944079845153357 24.10885779693608  C 24.919226462742248 24.663820453546165  25.851969594301377 25.240128366739924  26.74232067100212 25.837780463061282  C 27.653870292358917 26.414087839527  28.40643263527579 26.937034131991016  29 27.406617909178557  C 29 27.406617909178557  25.883769336223637 29.583777664632855  25.883769336223637 29.583777664632855  C 25.353797664696444 29.114193917263542  24.654237458234256 28.569903650399496  23.78508492618956 27.950906893858953  C 22.93713224183599 27.3532547975376  22.025582620479195 26.755602939762035  21.050436002890304 26.157950903077126  Z " stroke-width="0" stroke-dasharray="0" stroke="rgba(121, 121, 121, 1)" fill="none" transform="matrix(1 0 0 1 1409 700 )" class="stroke" mask="url(#Clip4230)" />
    <path d="M 3.8157870795910496 25.165421012334917  C 5.1301150907572515 24.397011276441372  6.221845323069697 23.617928822801314  7.09099749974119 22.828174128506337  C 7.09099749974119 22.828174128506337  10.557013952719906 24.268943016944004  10.557013952719906 24.268943016944004  C 9.857451850933963 24.930629272832267  9.062501895323752 25.602988485012833  8.172150818623008 26.286019460756734  C 7.30299828657831 26.947705716645  6.402046664128894 27.566703308095825  5.469297846598509 28.143010684561542  C 4.557747869868509 28.7406627808829  3.688587460384466 29.252935162871438  2.861832728398276 29.679829559984153  C 2.628645672087848 29.423692921716523  2.331865765566033 29.135537146207962  1.9714854423450354 28.8153663185552  C 1.6323039895388587 28.495195550538885  1.2825234124768248 28.175025706887524  0.9221432373279961 27.854854998507655  C 0.582961784521819 27.534684230491344  0.2755849007905853 27.278548024587963  0 27.086445560796353  C 1.2507314887650436 26.552827624041907  2.5226580276829678 25.912486147645723  3.8157870795910496 25.165421012334917  Z " stroke-width="0" stroke-dasharray="0" stroke="rgba(121, 121, 121, 1)" fill="none" transform="matrix(1 0 0 1 1409 700 )" class="stroke" mask="url(#Clip4230)" />
    <path d="M 0.9539391886027517 6  L 0.9539391886027517 3  L 28.141448665221514 3  L 28.141448665221514 6  L 0.9539391886027517 6  Z " stroke-width="0" stroke-dasharray="0" stroke="rgba(121, 121, 121, 1)" fill="none" transform="matrix(1 0 0 1 1409 700 )" class="stroke" mask="url(#Clip4230)" />
    <path d="M 0.25438277278806565 14.407685067643953  L 0.25438277278806565 8  L 28.872816194900977 8  L 28.872816194900977 14.407685067643953  L 25.12062101785944 14.407685067643953  L 25.12062101785944 11  L 3.879378982140561 11  L 3.879378982140561 14.407685067643953  L 0.25438277278806565 14.407685067643953  Z " stroke-width="0" stroke-dasharray="0" stroke="rgba(121, 121, 121, 1)" fill="none" transform="matrix(1 0 0 1 1409 700 )" class="stroke" mask="url(#Clip4230)" />
    <path d="M 2.861832728398276 22.70010557082673  C 2.6710432796525363 22.84951856508884  2.5756540043354548 22.998933482626423  2.5756540043354548 23.148346476888538  C 2.5544551246661245 22.913554439203647  2.490857219641096 22.61472845067942  2.3848631340969004 22.251868481497624  C 2.278868893076928 21.867663434641507  2.162270315660779 21.472784268582338  2.0350773448945465 21.067234800052823  C 1.9078842260561464 20.661685003522845  1.791300959302187 20.309497573178213  1.6853067182822143 20.010671584653988  C 2.300072983035676 19.925292548685768  2.936036252494638 19.786551444714437  3.593200258077739 19.594449249286846  C 4.271563163690093 19.381001976184923  5.07711052591901 19.082175972751582  6.009859343449396 18.69797125389593  C 6.51863152265866 18.50586873046787  7.302999530384524 18.185698931543847  8.36294168886156 17.73745993384839  C 9.444082332765783 17.28922093615293  10.652411283162937 16.755602880125586  11.987937898214055 16.1366058254028  C 13.323464513265176 15.49626428937017  14.680182743194871 14.802561072971349  16.05810775059317 14.055496056933439  C 17.436032165702798 13.308431040895528  18.71857121460058 12.540020350818804  19.905705944048997 11.750265835433172  C 19.905705944048997 11.750265835433172  22.513155899659207 13.959444161582141  22.513155899659207 13.959444161582141  C 19.71490867709278 15.645677268723173  16.7682748995217 17.13980670443451  13.673244616496271 18.44183413853671  C 10.578214333470843 19.722517210601968  7.525578889060557 20.811099294877717  4.515343495405736 21.70757758845087  C 4.515343495405736 21.70757758845087  4.515343495405736 21.867662808458796  4.515343495405736 21.867662808458796  C 4.515343495405736 21.867662808458796  4.4093569911565496 21.910352330170184  4.197368820068158 21.995731366138408  C 4.006579208443034 22.0597653244323  3.783979134470671 22.15581499087133  3.529593192938207 22.283883235459584  C 3.296405825676225 22.411951793139192  3.073821210438221 22.550692576564614  2.861832728398276 22.70010557082673  Z " stroke-width="0" stroke-dasharray="0" stroke="rgba(121, 121, 121, 1)" fill="none" transform="matrix(1 0 0 1 1409 700 )" class="stroke" mask="url(#Clip4230)" />
    <path d="M 3.4024093878391843 22.89220936152932  C 3.084426805447827 22.956243640369124  2.8088412087180514 23.041622996883255  2.5756540043354548 23.148346476888538  C 2.5756540043354548 23.148346476888538  2.5438580530606996 20.84311625538827  2.5438580530606996 20.84311625538827  L 4.515343495405736 19.754534469294768  C 4.515343495405736 19.754534469294768  23.498906202126737 18.729989824590596  23.498906202126737 18.729989824590596  C 23.54130333215868 19.13553962112058  23.594304161876483 19.59445050165226  23.657901121090536 20.106723480005282  C 23.742695381154427 20.597652006866685  23.82748837520128 21.00320114739573  23.912283893878598 21.323371915412043  C 20.923248407143774 21.5154744388401  18.347588006090653 21.686233151868368  16.185306718282217 21.83564614613048  C 14.023024719727367 21.985059140392597  12.199927372337529 22.113126110251763  10.716008871683707 22.219849910802957  C 9.232089778741212 22.305228633679825  8.002552214780572 22.390607990193956  7.027405597191679 22.475987026162176  C 6.073458175776376 22.56136574903904  5.3102991369872035 22.636071291986923  4.737930316919045 22.70010557082673  C 4.1867606930244765 22.764139529120623  3.7415908406453617 22.828175082689512  3.4024093878391843 22.89220936152932  Z " stroke-width="0" stroke-dasharray="0" stroke="rgba(121, 121, 121, 1)" fill="none" transform="matrix(1 0 0 1 1409 700 )" class="stroke" mask="url(#Clip4230)" />
    <path d="M 5.246711025085198 17.129133807778654  C 5.01352396877477 17.321236331206713  4.896925235882844 17.513338839725662  4.896925235882844 17.70544136315372  C 4.854527476544184 17.470649325468827  4.769735433861011 17.1718233369446  4.642542463094778 16.808963367762807  C 4.5365483775505835 16.446103398581016  4.41994995561021 16.06189838154312  4.292756673892425 15.656348257012672  C 4.186762588348229 15.250798788483161  4.080776084099044 14.909284523158407  3.9747819985548483 14.631803612308506  C 4.313963451361025 14.567769012922788  4.674341257355163 14.461046166554773  5.0559201548466435 14.311633172292657  C 5.4586982485117135 14.162220178030543  5.903867775132058 13.959443535399434  6.391441083926504 13.703307046222923  C 6.645827025458969 13.575238488543315  7.016801882698609 13.383135980024365  7.504375191493055 13.126999490847856  C 8.013147074557985 12.849518579997953  8.596124613958496 12.51867655532812  9.2532889749148 12.134471508472002  C 9.910452684353567 11.750266461615881  10.567610056303533 11.334044126248738  11.224774417259837 10.885804502370574  C 11.881938126698602 10.437566130857826  12.486110479336526 9.967982711488977  13.037280103231096 9.477054184627574  C 13.037280103231096 9.477054184627574  15.549342205017041 11.526147290768622  15.549342205017041 11.526147290768622  C 14.23501478613951 12.44396970783293  12.772294297081933 13.319103937551382  11.161182514710326 14.151547952284735  C 9.571269336223637 14.962647545344693  7.960159449175783 15.667022406033947  6.327849181376993 16.264674383082408  C 6.327849181376993 16.264674383082408  6.327849181376993 16.360726278433702  6.327849181376993 16.360726278433702  C 6.327849181376993 16.360726278433702  6.211250759436621 16.43543182883614  5.97806339217464 16.58484482309826  C 5.744876335864212 16.73425781736037  5.501097262761999 16.91568684776809  5.246711025085198 17.129133807778654  Z " stroke-width="0" stroke-dasharray="0" stroke="rgba(121, 121, 121, 1)" fill="none" transform="matrix(1 0 0 1 1409 700 )" class="stroke" mask="url(#Clip4230)" />
    <path d="M 5.501093797873264 17.545356143145796  C 5.2467078563408 17.588045661129907  5.045317077063896 17.641407404859827  4.896925235882844 17.70544136315372  C 4.896925235882844 17.70544136315372  4.865129284608089 15.720383490035655  4.865129284608089 15.720383490035655  L 6.391441083926504 14.887940727667726  C 6.391441083926504 14.887940727667726  17.361847890988297 14.439699821605913  17.361847890988297 14.439699821605913  C 17.2558538054441 14.781215339296088  17.160449523012776 15.176094505355259  17.075654004335455 15.624333503050714  C 17.0120570451214 16.072572500746173  16.959056215403603 16.43543181392703  16.916659085371656 16.712913380777866  C 14.923968050135366 16.81963686078315  13.259873203004336 16.91568812249718  11.924345995664543 17.0010671584654  C 10.588819380613426 17.06510111675929  9.486476993694323 17.12913508250774  8.617324461649627 17.193169040801635  C 7.76937112577852 17.25720364018735  7.101601214234261 17.32123696484398  6.614027905439815 17.385270923137874  C 6.1476534966746215 17.427960441121982  5.7766789355793176 17.481322184851905  5.501093797873264 17.545356143145796  Z " stroke-width="0" stroke-dasharray="0" stroke="rgba(121, 121, 121, 1)" fill="none" transform="matrix(1 0 0 1 1409 700 )" class="stroke" mask="url(#Clip4230)" />
    <path d="M 13.323458827293917 26.06189900772583  C 13.323458827293917 26.06189900772583  13.323458827293917 20.362860595364502  13.323458827293917 20.362860595364502  L 17.012062101785943 20.362860595364502  C 17.012062101785943 20.362860595364502  17.012062101785943 26.18996756540544  17.012062101785943 26.18996756540544  C 17.012062101785943 27.04375624035798  16.895463043135248 27.72678554628132  16.66227631258359 28.239058763180132  C 16.429089582031935 28.751331980078945  15.97332233784133 29.14621105668344  15.294959432228975 29.423692444624933  C 14.616595875099081 29.7011736834753  13.832228163517554 29.861258586664594  12.941877086816806 29.903948104648705  C 12.051526010116062 29.96798222694283  11.023393780926456 30  9.85745753690522 30  C 9.751463451361026 29.46638206324555  9.560670063895612 28.868730265106436  9.285084926189556 28.207044009218173  C 9.030698984657093 27.545357753329906  8.765710631666638 26.969049869954375  8.490125493960583 26.478121343092972  C 9.062494314028742 26.49946606294861  9.634859343449394 26.520809947893966  10.207228163517554 26.542154667749603  C 10.779596983585712 26.542154667749603  11.288379587075617 26.542154667749603  11.73355512542599 26.542154667749603  C 12.178730663776363 26.542154667749603  12.48610794730245 26.542154667749603  12.655698362753986 26.542154667749603  C 12.931283500460042 26.520809947893966  13.111479503517574 26.478122140730473  13.196275022194895 26.414088018436345  C 13.2810699115655 26.350053858869437  13.323458827293917 26.232656766570916  13.323458827293917 26.06189900772583  Z " stroke-width="0" stroke-dasharray="0" stroke="rgba(121, 121, 121, 1)" fill="none" transform="matrix(1 0 0 1 1409 700 )" class="stroke" mask="url(#Clip4230)" />
  </g>
  <style>svg { filter: drop-shadow(0px 4px 2px rgba(0, 0, 0, 0.25098039215686274)); }</style>
</svg>