<?xml version="1.0" encoding="utf-8"?>
<svg version="1.1" xmlns:xlink="http://www.w3.org/1999/xlink" width="104px" height="104px" xmlns="http://www.w3.org/2000/svg">
  <defs>
    <pattern id="BGPattern" patternUnits="userSpaceOnUse" alignment="0 0" imageRepeat="None" />
    <mask fill="white" id="Clip4243">
      <path d="M 66 33  L 66 21  L 103 21  L 103 33  L 66 33  Z M 64.82116684014763 19.389830378963563  C 66.14180232909752 13.073444822118073  67.20564310164731 6.610167233177109  68.01269613489504 0  C 68.01269613489504 0  80.55872916522017 1.7627091608643524  80.55872916522017 1.7627091608643524  C 79.53156878594787 9.327683915313429  78.17424986242135 16.709042316320534  76.4867716790408 23.906781498454468  C 74.87266119967994 31.1045206805884  72.85502948124372 37.82485657965822  70.43386602826847 44.067794926526304  C 68.08607016004628 50.31073327339439  65.29806448970687 55.7824885711542  62.06984782458396 60.48305174594029  C 61.48289778412872 59.675143838217174  60.602474303728734 58.64689322602514  59.42857851641703 57.398304267207486  C 58.32804602025962 56.149717457463225  57.15414820541516 54.937855327244364  55.90688483335039 53.76271393658301  C 54.659617048420195 52.51412712683875  53.5590871164954 51.522597492990165  52.605294381609475 50.78813273588358  C 55.466672645900516 46.82203187064827  57.88783621814241 42.15819325599461  59.86878497906852 36.79661044470243  C 61.84973815286004 31.43502763341025  63.500531351197736 25.632766337972317  64.82116684014763 19.389830378963563  Z M 80.99894326093616 55.85593052784108  C 83.27337154440528 47.40960214810356  84.85080115342211 37.89830378963562  85.73122189068953 27.32203163186233  C 85.73122189068953 27.32203163186233  98.05714787315667 28.203388600153836  98.05714787315667 28.203388600153836  C 96.80988008822649 40.3954793194116  94.79224836979027 51.26553840680703  92.00424222238435 60.81356204176521  C 89.21623607497841 70.36158376643591  85.29101065737272 78.69773870456207  80.22857622649768 85.82203306457792  C 75.16614179562264 92.94632694702192  68.59965398731472 99.0056494180199  60.529106122642496 104  C 60.162263428211844 103.04519749323262  59.53863275594583 101.87005216260337  58.6582076654463 100.47457212683398  C 57.85115463219858 99.15253834589825  56.97073109216529 97.79378179572458  56.01693835727938 96.39830140177628  C 55.06314562239347 95.0762675014476  54.18272208236018 93.97456967927816  53.37566904911246 93.09321372582687  C 60.6391596465715 89.12711190544782  66.47195586415319 84.05931578499187  70.87407249091996 77.88982417052931  C 75.34955670243981 71.64688582366122  78.72451497746705 64.3022589075786  80.99894326093616 55.85593052784108  Z M 62.620115444228944 31.949156670536468  C 62.620115444228944 31.949156670536468  73.73545648000938 30.406782931170067  73.73545648000938 30.406782931170067  C 75.05609196895927 39.66101868136236  76.89030627597903 48.40113399072203  79.2381021442012 56.627121218099205  C 81.65926559717647 64.85311131090758  84.85079560752368 72.1242910170128  88.81269766150794 78.44067466357082  C 92.84797159384405 84.6836130104389  97.91040507058604 89.60451375579635  104 93.20338382443518  C 103.11957926273257 94.01129340365983  102.09242431009207 95.03954377706593  100.91852422918159 96.28813130316799  C 99.8179961458896 97.53671894866301  98.75414768064198 98.82202781128741  97.72698730136969 100.14406183100905  C 96.77319456648377 101.46609585073072  96.00282097238049 102.67796490574165  95.41587093192524 103.77965980278339  C 88.73933055382139 99.29943348221086  83.23669061442793 93.53389364268823  78.90794157241423 86.48304601507789  C 74.65256011515358 79.43219838746758  71.24091613948369 71.31638651198922  68.67301727846902 62.135595583915006  C 66.10511412385557 52.88135696829151  64.08748622195161 42.81921098221324  62.620115444228944 31.949156670536468  Z M 25 59  L 25 0  L 36 0  L 36 59  L 25 59  Z M 43 14  L 18 14  L 18 30  L 43 30  L 43 14  Z M 7 39  L 7 6  L 54 6  L 54 39  L 7 39  Z M 44.68148645710871 50  L 15.62751357180886 50  L 15.62751357180886 54  L 44.68148645710871 54  L 44.68148645710871 50  Z M 5 62  L 5 42  L 56 42  L 56 62  L 5 62  Z M 0.7703703739041965 76.4576205297712  C 0.7703703739041965 76.4576205297712  0.33015842498759995 66.65254288283097  0.33015842498759995 66.65254288283097  C 5.5393299336349076 66.65254288283097  11.445503515833545 66.6158192554561  18.04867869451698 66.54237278422266  C 24.72522384328614 66.46892631298924  31.731926701443104 66.39547905823949  39.068787268987876 66.32203258700606  C 46.479017806618366 66.17514073400004  53.88924500478314 66.06496985933745  61.299473157080975 65.99152229118116  C 61.299473157080975 65.99152229118116  60.859259061364995 75.35592718483801  60.859259061364995 75.35592718483801  C 53.66913604865902 75.50282012730486  46.40564783653264 75.64971463680439  39.068787268987876 75.79660757927124  C 31.805294286196176 75.94349943227726  24.871960921058406 76.0903950312376  18.268785742374973 76.23728797370445  C 11.738979579644203 76.31073444493788  5.906173343665372 76.38417405853778  0.7703703739041965 76.4576205297712  Z M 16.838097564362513 68.85592957269735  C 18.67231210991554 65.624290300655  20.286421754409968 62.61299050947146  21.680425901512624 59.822031154290464  C 21.680425901512624 59.822031154290464  32.57566370596731 62.24575804137344  32.57566370596731 62.24575804137344  C 30.961555373405844 65.18361253286704  29.237394232515182 68.26835834009833  27.403178613562456 71.49999665699693  C 25.642332845428832 74.73163497389555  23.844799468386416 77.81637863205343  22.010582656767365 80.7542314520455  C 20.249736888633734 83.69208427203758  18.598942497629714 86.33615756477143  17.058200795688258 88.68644034609412  C 17.058200795688258 88.68644034609412  6.493121654754438 86.04236562064469  6.493121654754438 86.04236562064469  C 8.033862879629362 83.76552981051344  9.684657151366752 81.12146368135758  11.445503515833545 78.11016436774591  C 13.279719134786266 75.09886433777645  15.077250722829191 72.01412139597636  16.838097564362513 68.85592957269735  Z M 27.183071565704466 91.11016723317711  C 23.147798587501413 89.27400919083382  19.075839193055906 87.62146248742792  14.96719624476713 86.15253571925298  C 14.96719624476713 86.15253571925298  21.240211805796637 78.44067466357082  21.240211805796637 78.44067466357082  C 25.422222338838488 79.90960143174576  29.64092071932238 81.56214001642994  33.89630217658302 83.3982985363451  C 38.151681248511004 85.16101008506877  42.15026852607139 86.99716812741207  45.89206758726318 88.90677290216088  C 49.633866648454955 90.74293106389713  52.7887178756242 92.50564917923397  55.35662103023765 94.19491471190992  C 55.35662103023765 94.19491471190992  47.32275576527563 102.34745616202528  47.32275576527563 102.34745616202528  C 44.90159231230037 100.58474437451568  41.93016362501279 98.71186260779072  38.40846994194614 96.7288116976012  C 34.960145990431954 94.81920716163832  31.21834549804058 92.94632551430632  27.183071565704466 91.11016723317711  Z M 33.67619512872503 83.3982985363451  C 36.757676385808544 80.31355272911381  38.99541884936837 76.27400704176043  40.38942192307133 71.27965645978033  C 40.38942192307133 71.27965645978033  51.50476677538401 72.49151990332182  51.50476677538401 72.49151990332182  C 49.96402614684225 79.02824231438086  47.39612358856197 84.3531055800452  43.801062082208986 88.46610014887753  C 40.27936839914234 92.57909471770984  35.54709501712082 95.81073279582252  29.604237642545645 98.16101533835929  C 23.66137931383741 100.58474413572975  16.287831852983654 102.53107323182506  7.483598599450097 104  C 7.190124115922323 102.23728797370445  6.566490432173836 100.4011298119682  5.612698233987776 98.49152563418421  C 4.732275349920961 96.655367353055  3.8518523465875134 95.11299206158003  2.9714289258208515 93.864404416085  C 10.381658509318285 93.20338746592066  16.58130648559472 92.06496579997659  21.570372377583627 90.44914664152729  C 26.632806808458668 88.83332736368502  30.668081456394575 86.48304410479044  33.67619512872503 83.3982985363451  Z M 0 27  L 0 17  L 11.115345806445742 17  L 11.115345806445742 18  L 48.64339041935909 18  L 48.64339041935909 17  L 61.189419633151985 17  L 61.189419633151985 27  L 48.64339041935909 27  L 48.64339041935909 26  L 11.115345806445742 26  L 11.115345806445742 27  L 0 27  Z " fill-rule="evenodd" />
    </mask>
  </defs>
  <g transform="matrix(1 0 0 1 -233 -633 )">
    <path d="M 66 33  L 66 21  L 103 21  L 103 33  L 66 33  Z M 64.82116684014763 19.389830378963563  C 66.14180232909752 13.073444822118073  67.20564310164731 6.610167233177109  68.01269613489504 0  C 68.01269613489504 0  80.55872916522017 1.7627091608643524  80.55872916522017 1.7627091608643524  C 79.53156878594787 9.327683915313429  78.17424986242135 16.709042316320534  76.4867716790408 23.906781498454468  C 74.87266119967994 31.1045206805884  72.85502948124372 37.82485657965822  70.43386602826847 44.067794926526304  C 68.08607016004628 50.31073327339439  65.29806448970687 55.7824885711542  62.06984782458396 60.48305174594029  C 61.48289778412872 59.675143838217174  60.602474303728734 58.64689322602514  59.42857851641703 57.398304267207486  C 58.32804602025962 56.149717457463225  57.15414820541516 54.937855327244364  55.90688483335039 53.76271393658301  C 54.659617048420195 52.51412712683875  53.5590871164954 51.522597492990165  52.605294381609475 50.78813273588358  C 55.466672645900516 46.82203187064827  57.88783621814241 42.15819325599461  59.86878497906852 36.79661044470243  C 61.84973815286004 31.43502763341025  63.500531351197736 25.632766337972317  64.82116684014763 19.389830378963563  Z M 80.99894326093616 55.85593052784108  C 83.27337154440528 47.40960214810356  84.85080115342211 37.89830378963562  85.73122189068953 27.32203163186233  C 85.73122189068953 27.32203163186233  98.05714787315667 28.203388600153836  98.05714787315667 28.203388600153836  C 96.80988008822649 40.3954793194116  94.79224836979027 51.26553840680703  92.00424222238435 60.81356204176521  C 89.21623607497841 70.36158376643591  85.29101065737272 78.69773870456207  80.22857622649768 85.82203306457792  C 75.16614179562264 92.94632694702192  68.59965398731472 99.0056494180199  60.529106122642496 104  C 60.162263428211844 103.04519749323262  59.53863275594583 101.87005216260337  58.6582076654463 100.47457212683398  C 57.85115463219858 99.15253834589825  56.97073109216529 97.79378179572458  56.01693835727938 96.39830140177628  C 55.06314562239347 95.0762675014476  54.18272208236018 93.97456967927816  53.37566904911246 93.09321372582687  C 60.6391596465715 89.12711190544782  66.47195586415319 84.05931578499187  70.87407249091996 77.88982417052931  C 75.34955670243981 71.64688582366122  78.72451497746705 64.3022589075786  80.99894326093616 55.85593052784108  Z M 62.620115444228944 31.949156670536468  C 62.620115444228944 31.949156670536468  73.73545648000938 30.406782931170067  73.73545648000938 30.406782931170067  C 75.05609196895927 39.66101868136236  76.89030627597903 48.40113399072203  79.2381021442012 56.627121218099205  C 81.65926559717647 64.85311131090758  84.85079560752368 72.1242910170128  88.81269766150794 78.44067466357082  C 92.84797159384405 84.6836130104389  97.91040507058604 89.60451375579635  104 93.20338382443518  C 103.11957926273257 94.01129340365983  102.09242431009207 95.03954377706593  100.91852422918159 96.28813130316799  C 99.8179961458896 97.53671894866301  98.75414768064198 98.82202781128741  97.72698730136969 100.14406183100905  C 96.77319456648377 101.46609585073072  96.00282097238049 102.67796490574165  95.41587093192524 103.77965980278339  C 88.73933055382139 99.29943348221086  83.23669061442793 93.53389364268823  78.90794157241423 86.48304601507789  C 74.65256011515358 79.43219838746758  71.24091613948369 71.31638651198922  68.67301727846902 62.135595583915006  C 66.10511412385557 52.88135696829151  64.08748622195161 42.81921098221324  62.620115444228944 31.949156670536468  Z M 25 59  L 25 0  L 36 0  L 36 59  L 25 59  Z M 43 14  L 18 14  L 18 30  L 43 30  L 43 14  Z M 7 39  L 7 6  L 54 6  L 54 39  L 7 39  Z M 44.68148645710871 50  L 15.62751357180886 50  L 15.62751357180886 54  L 44.68148645710871 54  L 44.68148645710871 50  Z M 5 62  L 5 42  L 56 42  L 56 62  L 5 62  Z M 0.7703703739041965 76.4576205297712  C 0.7703703739041965 76.4576205297712  0.33015842498759995 66.65254288283097  0.33015842498759995 66.65254288283097  C 5.5393299336349076 66.65254288283097  11.445503515833545 66.6158192554561  18.04867869451698 66.54237278422266  C 24.72522384328614 66.46892631298924  31.731926701443104 66.39547905823949  39.068787268987876 66.32203258700606  C 46.479017806618366 66.17514073400004  53.88924500478314 66.06496985933745  61.299473157080975 65.99152229118116  C 61.299473157080975 65.99152229118116  60.859259061364995 75.35592718483801  60.859259061364995 75.35592718483801  C 53.66913604865902 75.50282012730486  46.40564783653264 75.64971463680439  39.068787268987876 75.79660757927124  C 31.805294286196176 75.94349943227726  24.871960921058406 76.0903950312376  18.268785742374973 76.23728797370445  C 11.738979579644203 76.31073444493788  5.906173343665372 76.38417405853778  0.7703703739041965 76.4576205297712  Z M 16.838097564362513 68.85592957269735  C 18.67231210991554 65.624290300655  20.286421754409968 62.61299050947146  21.680425901512624 59.822031154290464  C 21.680425901512624 59.822031154290464  32.57566370596731 62.24575804137344  32.57566370596731 62.24575804137344  C 30.961555373405844 65.18361253286704  29.237394232515182 68.26835834009833  27.403178613562456 71.49999665699693  C 25.642332845428832 74.73163497389555  23.844799468386416 77.81637863205343  22.010582656767365 80.7542314520455  C 20.249736888633734 83.69208427203758  18.598942497629714 86.33615756477143  17.058200795688258 88.68644034609412  C 17.058200795688258 88.68644034609412  6.493121654754438 86.04236562064469  6.493121654754438 86.04236562064469  C 8.033862879629362 83.76552981051344  9.684657151366752 81.12146368135758  11.445503515833545 78.11016436774591  C 13.279719134786266 75.09886433777645  15.077250722829191 72.01412139597636  16.838097564362513 68.85592957269735  Z M 27.183071565704466 91.11016723317711  C 23.147798587501413 89.27400919083382  19.075839193055906 87.62146248742792  14.96719624476713 86.15253571925298  C 14.96719624476713 86.15253571925298  21.240211805796637 78.44067466357082  21.240211805796637 78.44067466357082  C 25.422222338838488 79.90960143174576  29.64092071932238 81.56214001642994  33.89630217658302 83.3982985363451  C 38.151681248511004 85.16101008506877  42.15026852607139 86.99716812741207  45.89206758726318 88.90677290216088  C 49.633866648454955 90.74293106389713  52.7887178756242 92.50564917923397  55.35662103023765 94.19491471190992  C 55.35662103023765 94.19491471190992  47.32275576527563 102.34745616202528  47.32275576527563 102.34745616202528  C 44.90159231230037 100.58474437451568  41.93016362501279 98.71186260779072  38.40846994194614 96.7288116976012  C 34.960145990431954 94.81920716163832  31.21834549804058 92.94632551430632  27.183071565704466 91.11016723317711  Z M 33.67619512872503 83.3982985363451  C 36.757676385808544 80.31355272911381  38.99541884936837 76.27400704176043  40.38942192307133 71.27965645978033  C 40.38942192307133 71.27965645978033  51.50476677538401 72.49151990332182  51.50476677538401 72.49151990332182  C 49.96402614684225 79.02824231438086  47.39612358856197 84.3531055800452  43.801062082208986 88.46610014887753  C 40.27936839914234 92.57909471770984  35.54709501712082 95.81073279582252  29.604237642545645 98.16101533835929  C 23.66137931383741 100.58474413572975  16.287831852983654 102.53107323182506  7.483598599450097 104  C 7.190124115922323 102.23728797370445  6.566490432173836 100.4011298119682  5.612698233987776 98.49152563418421  C 4.732275349920961 96.655367353055  3.8518523465875134 95.11299206158003  2.9714289258208515 93.864404416085  C 10.381658509318285 93.20338746592066  16.58130648559472 92.06496579997659  21.570372377583627 90.44914664152729  C 26.632806808458668 88.83332736368502  30.668081456394575 86.48304410479044  33.67619512872503 83.3982985363451  Z M 0 27  L 0 17  L 11.115345806445742 17  L 11.115345806445742 18  L 48.64339041935909 18  L 48.64339041935909 17  L 61.189419633151985 17  L 61.189419633151985 27  L 48.64339041935909 27  L 48.64339041935909 26  L 11.115345806445742 26  L 11.115345806445742 27  L 0 27  Z " fill-rule="nonzero" fill="rgba(255, 255, 255, 1)" stroke="none" transform="matrix(1 0 0 1 233 633 )" class="fill" />
    <path d="M 66 33  L 66 21  L 103 21  L 103 33  L 66 33  Z " stroke-width="0" stroke-dasharray="0" stroke="rgba(121, 121, 121, 1)" fill="none" transform="matrix(1 0 0 1 233 633 )" class="stroke" mask="url(#Clip4243)" />
    <path d="M 64.82116684014763 19.389830378963563  C 66.14180232909752 13.073444822118073  67.20564310164731 6.610167233177109  68.01269613489504 0  C 68.01269613489504 0  80.55872916522017 1.7627091608643524  80.55872916522017 1.7627091608643524  C 79.53156878594787 9.327683915313429  78.17424986242135 16.709042316320534  76.4867716790408 23.906781498454468  C 74.87266119967994 31.1045206805884  72.85502948124372 37.82485657965822  70.43386602826847 44.067794926526304  C 68.08607016004628 50.31073327339439  65.29806448970687 55.7824885711542  62.06984782458396 60.48305174594029  C 61.48289778412872 59.675143838217174  60.602474303728734 58.64689322602514  59.42857851641703 57.398304267207486  C 58.32804602025962 56.149717457463225  57.15414820541516 54.937855327244364  55.90688483335039 53.76271393658301  C 54.659617048420195 52.51412712683875  53.5590871164954 51.522597492990165  52.605294381609475 50.78813273588358  C 55.466672645900516 46.82203187064827  57.88783621814241 42.15819325599461  59.86878497906852 36.79661044470243  C 61.84973815286004 31.43502763341025  63.500531351197736 25.632766337972317  64.82116684014763 19.389830378963563  Z " stroke-width="0" stroke-dasharray="0" stroke="rgba(121, 121, 121, 1)" fill="none" transform="matrix(1 0 0 1 233 633 )" class="stroke" mask="url(#Clip4243)" />
    <path d="M 80.99894326093616 55.85593052784108  C 83.27337154440528 47.40960214810356  84.85080115342211 37.89830378963562  85.73122189068953 27.32203163186233  C 85.73122189068953 27.32203163186233  98.05714787315667 28.203388600153836  98.05714787315667 28.203388600153836  C 96.80988008822649 40.3954793194116  94.79224836979027 51.26553840680703  92.00424222238435 60.81356204176521  C 89.21623607497841 70.36158376643591  85.29101065737272 78.69773870456207  80.22857622649768 85.82203306457792  C 75.16614179562264 92.94632694702192  68.59965398731472 99.0056494180199  60.529106122642496 104  C 60.162263428211844 103.04519749323262  59.53863275594583 101.87005216260337  58.6582076654463 100.47457212683398  C 57.85115463219858 99.15253834589825  56.97073109216529 97.79378179572458  56.01693835727938 96.39830140177628  C 55.06314562239347 95.0762675014476  54.18272208236018 93.97456967927816  53.37566904911246 93.09321372582687  C 60.6391596465715 89.12711190544782  66.47195586415319 84.05931578499187  70.87407249091996 77.88982417052931  C 75.34955670243981 71.64688582366122  78.72451497746705 64.3022589075786  80.99894326093616 55.85593052784108  Z " stroke-width="0" stroke-dasharray="0" stroke="rgba(121, 121, 121, 1)" fill="none" transform="matrix(1 0 0 1 233 633 )" class="stroke" mask="url(#Clip4243)" />
    <path d="M 62.620115444228944 31.949156670536468  C 62.620115444228944 31.949156670536468  73.73545648000938 30.406782931170067  73.73545648000938 30.406782931170067  C 75.05609196895927 39.66101868136236  76.89030627597903 48.40113399072203  79.2381021442012 56.627121218099205  C 81.65926559717647 64.85311131090758  84.85079560752368 72.1242910170128  88.81269766150794 78.44067466357082  C 92.84797159384405 84.6836130104389  97.91040507058604 89.60451375579635  104 93.20338382443518  C 103.11957926273257 94.01129340365983  102.09242431009207 95.03954377706593  100.91852422918159 96.28813130316799  C 99.8179961458896 97.53671894866301  98.75414768064198 98.82202781128741  97.72698730136969 100.14406183100905  C 96.77319456648377 101.46609585073072  96.00282097238049 102.67796490574165  95.41587093192524 103.77965980278339  C 88.73933055382139 99.29943348221086  83.23669061442793 93.53389364268823  78.90794157241423 86.48304601507789  C 74.65256011515358 79.43219838746758  71.24091613948369 71.31638651198922  68.67301727846902 62.135595583915006  C 66.10511412385557 52.88135696829151  64.08748622195161 42.81921098221324  62.620115444228944 31.949156670536468  Z " stroke-width="0" stroke-dasharray="0" stroke="rgba(121, 121, 121, 1)" fill="none" transform="matrix(1 0 0 1 233 633 )" class="stroke" mask="url(#Clip4243)" />
    <path d="M 25 59  L 25 0  L 36 0  L 36 59  L 25 59  Z " stroke-width="0" stroke-dasharray="0" stroke="rgba(121, 121, 121, 1)" fill="none" transform="matrix(1 0 0 1 233 633 )" class="stroke" mask="url(#Clip4243)" />
    <path d="M 43 14  L 18 14  L 18 30  L 43 30  L 43 14  Z " stroke-width="0" stroke-dasharray="0" stroke="rgba(121, 121, 121, 1)" fill="none" transform="matrix(1 0 0 1 233 633 )" class="stroke" mask="url(#Clip4243)" />
    <path d="M 7 39  L 7 6  L 54 6  L 54 39  L 7 39  Z " stroke-width="0" stroke-dasharray="0" stroke="rgba(121, 121, 121, 1)" fill="none" transform="matrix(1 0 0 1 233 633 )" class="stroke" mask="url(#Clip4243)" />
    <path d="M 44.68148645710871 50  L 15.62751357180886 50  L 15.62751357180886 54  L 44.68148645710871 54  L 44.68148645710871 50  Z " stroke-width="0" stroke-dasharray="0" stroke="rgba(121, 121, 121, 1)" fill="none" transform="matrix(1 0 0 1 233 633 )" class="stroke" mask="url(#Clip4243)" />
    <path d="M 5 62  L 5 42  L 56 42  L 56 62  L 5 62  Z " stroke-width="0" stroke-dasharray="0" stroke="rgba(121, 121, 121, 1)" fill="none" transform="matrix(1 0 0 1 233 633 )" class="stroke" mask="url(#Clip4243)" />
    <path d="M 0.7703703739041965 76.4576205297712  C 0.7703703739041965 76.4576205297712  0.33015842498759995 66.65254288283097  0.33015842498759995 66.65254288283097  C 5.5393299336349076 66.65254288283097  11.445503515833545 66.6158192554561  18.04867869451698 66.54237278422266  C 24.72522384328614 66.46892631298924  31.731926701443104 66.39547905823949  39.068787268987876 66.32203258700606  C 46.479017806618366 66.17514073400004  53.88924500478314 66.06496985933745  61.299473157080975 65.99152229118116  C 61.299473157080975 65.99152229118116  60.859259061364995 75.35592718483801  60.859259061364995 75.35592718483801  C 53.66913604865902 75.50282012730486  46.40564783653264 75.64971463680439  39.068787268987876 75.79660757927124  C 31.805294286196176 75.94349943227726  24.871960921058406 76.0903950312376  18.268785742374973 76.23728797370445  C 11.738979579644203 76.31073444493788  5.906173343665372 76.38417405853778  0.7703703739041965 76.4576205297712  Z " stroke-width="0" stroke-dasharray="0" stroke="rgba(121, 121, 121, 1)" fill="none" transform="matrix(1 0 0 1 233 633 )" class="stroke" mask="url(#Clip4243)" />
    <path d="M 16.838097564362513 68.85592957269735  C 18.67231210991554 65.624290300655  20.286421754409968 62.61299050947146  21.680425901512624 59.822031154290464  C 21.680425901512624 59.822031154290464  32.57566370596731 62.24575804137344  32.57566370596731 62.24575804137344  C 30.961555373405844 65.18361253286704  29.237394232515182 68.26835834009833  27.403178613562456 71.49999665699693  C 25.642332845428832 74.73163497389555  23.844799468386416 77.81637863205343  22.010582656767365 80.7542314520455  C 20.249736888633734 83.69208427203758  18.598942497629714 86.33615756477143  17.058200795688258 88.68644034609412  C 17.058200795688258 88.68644034609412  6.493121654754438 86.04236562064469  6.493121654754438 86.04236562064469  C 8.033862879629362 83.76552981051344  9.684657151366752 81.12146368135758  11.445503515833545 78.11016436774591  C 13.279719134786266 75.09886433777645  15.077250722829191 72.01412139597636  16.838097564362513 68.85592957269735  Z " stroke-width="0" stroke-dasharray="0" stroke="rgba(121, 121, 121, 1)" fill="none" transform="matrix(1 0 0 1 233 633 )" class="stroke" mask="url(#Clip4243)" />
    <path d="M 27.183071565704466 91.11016723317711  C 23.147798587501413 89.27400919083382  19.075839193055906 87.62146248742792  14.96719624476713 86.15253571925298  C 14.96719624476713 86.15253571925298  21.240211805796637 78.44067466357082  21.240211805796637 78.44067466357082  C 25.422222338838488 79.90960143174576  29.64092071932238 81.56214001642994  33.89630217658302 83.3982985363451  C 38.151681248511004 85.16101008506877  42.15026852607139 86.99716812741207  45.89206758726318 88.90677290216088  C 49.633866648454955 90.74293106389713  52.7887178756242 92.50564917923397  55.35662103023765 94.19491471190992  C 55.35662103023765 94.19491471190992  47.32275576527563 102.34745616202528  47.32275576527563 102.34745616202528  C 44.90159231230037 100.58474437451568  41.93016362501279 98.71186260779072  38.40846994194614 96.7288116976012  C 34.960145990431954 94.81920716163832  31.21834549804058 92.94632551430632  27.183071565704466 91.11016723317711  Z " stroke-width="0" stroke-dasharray="0" stroke="rgba(121, 121, 121, 1)" fill="none" transform="matrix(1 0 0 1 233 633 )" class="stroke" mask="url(#Clip4243)" />
    <path d="M 33.67619512872503 83.3982985363451  C 36.757676385808544 80.31355272911381  38.99541884936837 76.27400704176043  40.38942192307133 71.27965645978033  C 40.38942192307133 71.27965645978033  51.50476677538401 72.49151990332182  51.50476677538401 72.49151990332182  C 49.96402614684225 79.02824231438086  47.39612358856197 84.3531055800452  43.801062082208986 88.46610014887753  C 40.27936839914234 92.57909471770984  35.54709501712082 95.81073279582252  29.604237642545645 98.16101533835929  C 23.66137931383741 100.58474413572975  16.287831852983654 102.53107323182506  7.483598599450097 104  C 7.190124115922323 102.23728797370445  6.566490432173836 100.4011298119682  5.612698233987776 98.49152563418421  C 4.732275349920961 96.655367353055  3.8518523465875134 95.11299206158003  2.9714289258208515 93.864404416085  C 10.381658509318285 93.20338746592066  16.58130648559472 92.06496579997659  21.570372377583627 90.44914664152729  C 26.632806808458668 88.83332736368502  30.668081456394575 86.48304410479044  33.67619512872503 83.3982985363451  Z " stroke-width="0" stroke-dasharray="0" stroke="rgba(121, 121, 121, 1)" fill="none" transform="matrix(1 0 0 1 233 633 )" class="stroke" mask="url(#Clip4243)" />
    <path d="M 0 27  L 0 17  L 11.115345806445742 17  L 11.115345806445742 18  L 48.64339041935909 18  L 48.64339041935909 17  L 61.189419633151985 17  L 61.189419633151985 27  L 48.64339041935909 27  L 48.64339041935909 26  L 11.115345806445742 26  L 11.115345806445742 27  L 0 27  Z " stroke-width="0" stroke-dasharray="0" stroke="rgba(121, 121, 121, 1)" fill="none" transform="matrix(1 0 0 1 233 633 )" class="stroke" mask="url(#Clip4243)" />
  </g>
</svg>