<?xml version="1.0" encoding="utf-8"?>
<svg version="1.1" xmlns:xlink="http://www.w3.org/1999/xlink" width="112px" height="80px" xmlns="http://www.w3.org/2000/svg">
  <defs>
    <pattern id="BGPattern" patternUnits="userSpaceOnUse" alignment="0 0" imageRepeat="None" />
    <mask fill="white" id="Clip4249">
      <path d="M 112 29.449716707405535  C 112 29.449716707405535  112 80  112 80  L 92.21738316808619 80  C 92.21738316808619 80  92.21738316808619 32.18215683346236  92.21738316808619 32.18215683346236  C 92.21738316808619 21.404171784423326  85.36952837590042 17.76090272655788  79.13040622266983 17.76090272655788  C 73.04344694041336 17.76090272655788  65.89127786346418 21.404168927115016  65.89127786346418 31.726747605956614  C 65.89127786346418 31.726747605956614  65.89127786346418 80  65.89127786346418 80  L 46.10866103155036 80  C 46.10866103155036 80  46.10866103155036 32.18215683346236  46.10866103155036 32.18215683346236  C 46.10866103155036 21.404171784423326  39.26087641462133 17.76090272655788  33.02174519111948 17.76090272655788  C 26.782613967617632 17.76090272655788  19.782616831913824 21.404171784423326  19.782616831913824 32.18215683346236  C 19.782616831913824 32.18215683346236  19.782616831913824 80  19.782616831913824 80  L 0 80  L 0 1  L 19.3261014855604 1  C 19.3261014855604 1  19.3261014855604 8.197339426892528  19.3261014855604 8.197339426892528  C 24.500015276246366 2.884247011636483  31.80430855617103 0  39.10865721248877 0  C 47.93474342180281 0  55.08693111667724 3.187850782216723  60.10866866967354 10.018972527171098  C 66.8043200133558 3.0360500874717316  73.95653062259979 0  83.8478333099643 0  C 91.76088309797912 0  98.9130454915705 2.580636097785472  103.32608620931403 6.982914820210542  C 109.71738937406126 13.358629718749429  112 20.79696424326285  112 29.449716707405535  Z " fill-rule="evenodd" />
    </mask>
  </defs>
  <g transform="matrix(1 0 0 1 -1013 -515 )">
    <path d="M 112 29.449716707405535  C 112 29.449716707405535  112 80  112 80  L 92.21738316808619 80  C 92.21738316808619 80  92.21738316808619 32.18215683346236  92.21738316808619 32.18215683346236  C 92.21738316808619 21.404171784423326  85.36952837590042 17.76090272655788  79.13040622266983 17.76090272655788  C 73.04344694041336 17.76090272655788  65.89127786346418 21.404168927115016  65.89127786346418 31.726747605956614  C 65.89127786346418 31.726747605956614  65.89127786346418 80  65.89127786346418 80  L 46.10866103155036 80  C 46.10866103155036 80  46.10866103155036 32.18215683346236  46.10866103155036 32.18215683346236  C 46.10866103155036 21.404171784423326  39.26087641462133 17.76090272655788  33.02174519111948 17.76090272655788  C 26.782613967617632 17.76090272655788  19.782616831913824 21.404171784423326  19.782616831913824 32.18215683346236  C 19.782616831913824 32.18215683346236  19.782616831913824 80  19.782616831913824 80  L 0 80  L 0 1  L 19.3261014855604 1  C 19.3261014855604 1  19.3261014855604 8.197339426892528  19.3261014855604 8.197339426892528  C 24.500015276246366 2.884247011636483  31.80430855617103 0  39.10865721248877 0  C 47.93474342180281 0  55.08693111667724 3.187850782216723  60.10866866967354 10.018972527171098  C 66.8043200133558 3.0360500874717316  73.95653062259979 0  83.8478333099643 0  C 91.76088309797912 0  98.9130454915705 2.580636097785472  103.32608620931403 6.982914820210542  C 109.71738937406126 13.358629718749429  112 20.79696424326285  112 29.449716707405535  Z " fill-rule="nonzero" fill="rgba(255, 255, 255, 1)" stroke="none" transform="matrix(1 0 0 1 1013 515 )" class="fill" />
    <path d="M 112 29.449716707405535  C 112 29.449716707405535  112 80  112 80  L 92.21738316808619 80  C 92.21738316808619 80  92.21738316808619 32.18215683346236  92.21738316808619 32.18215683346236  C 92.21738316808619 21.404171784423326  85.36952837590042 17.76090272655788  79.13040622266983 17.76090272655788  C 73.04344694041336 17.76090272655788  65.89127786346418 21.404168927115016  65.89127786346418 31.726747605956614  C 65.89127786346418 31.726747605956614  65.89127786346418 80  65.89127786346418 80  L 46.10866103155036 80  C 46.10866103155036 80  46.10866103155036 32.18215683346236  46.10866103155036 32.18215683346236  C 46.10866103155036 21.404171784423326  39.26087641462133 17.76090272655788  33.02174519111948 17.76090272655788  C 26.782613967617632 17.76090272655788  19.782616831913824 21.404171784423326  19.782616831913824 32.18215683346236  C 19.782616831913824 32.18215683346236  19.782616831913824 80  19.782616831913824 80  L 0 80  L 0 1  L 19.3261014855604 1  C 19.3261014855604 1  19.3261014855604 8.197339426892528  19.3261014855604 8.197339426892528  C 24.500015276246366 2.884247011636483  31.80430855617103 0  39.10865721248877 0  C 47.93474342180281 0  55.08693111667724 3.187850782216723  60.10866866967354 10.018972527171098  C 66.8043200133558 3.0360500874717316  73.95653062259979 0  83.8478333099643 0  C 91.76088309797912 0  98.9130454915705 2.580636097785472  103.32608620931403 6.982914820210542  C 109.71738937406126 13.358629718749429  112 20.79696424326285  112 29.449716707405535  Z " stroke-width="0" stroke-dasharray="0" stroke="rgba(121, 121, 121, 1)" fill="none" transform="matrix(1 0 0 1 1013 515 )" class="stroke" mask="url(#Clip4249)" />
  </g>
</svg>