<?xml version="1.0" encoding="utf-8"?>
<svg version="1.1" xmlns:xlink="http://www.w3.org/1999/xlink" width="67px" height="81px" xmlns="http://www.w3.org/2000/svg">
  <defs>
    <pattern id="BGPattern" patternUnits="userSpaceOnUse" alignment="0 0" imageRepeat="None" />
    <mask fill="white" id="Clip4248">
      <path d="M 58.03626125880035 9.726074849349228  C 65.17685132402445 17.17260233611108  67 26.13882806459785  67 40.424007173980804  C 67 54.8611538191701  65.17685132402445 63.82738050114278  58.03626125880035 71.27390989487641  C 53.17458118247224 76.44088906556499  45.122461818872175 81  33.42404748636925 81  C 21.725628387769838 81  13.82535685827342 76.44088906556499  8.963677735164607 71.27390989487641  C 1.8230852868922616 63.82738050114278  0 54.8611538191701  0 40.424007173980804  C 0 26.13882806459785  1.8230852868922616 17.17260233611108  8.963677735164607 9.726074849349228  C 13.82535685827342 4.559099015861297  21.725628387769838 0  33.42404748636925 0  C 45.122461818872175 0  53.17458118247224 4.559099015861297  58.03626125880035 9.726074849349228  Z M 42.69159628209191 59.72419410430241  C 46.79363969545469 55.621003416775515  47.24941816632248 48.63038378160511  47.24941816632248 40.424007173980804  C 47.24941816632248 32.21762579892701  46.79363969545469 25.378981327450127  42.69159628209191 21.27579063992323  C 40.41268176540425 18.996243277335854  37.374160850463966 17.780479153737712  33.42404748636925 17.780479153737712  C 29.47392959448287 17.780479153737712  26.58731608985233 18.996243277335854  24.308403717908096 21.27579063992323  C 20.20636268759356 25.378981327450127  19.750581833677515 32.21762579892701  19.750581833677515 40.424007173980804  C 19.750581833677515 48.63038378160511  20.20636268759356 55.621003416775515  24.308403717908096 59.72419410430241  C 26.58731608985233 62.00374385060453  29.47392959448287 63.21950559048793  33.42404748636925 63.21950559048793  C 37.374160850463966 63.21950559048793  40.41268176540425 62.00374385060453  42.69159628209191 59.72419410430241  Z " fill-rule="evenodd" />
    </mask>
  </defs>
  <g transform="matrix(1 0 0 1 -1143 -515 )">
    <path d="M 58.03626125880035 9.726074849349228  C 65.17685132402445 17.17260233611108  67 26.13882806459785  67 40.424007173980804  C 67 54.8611538191701  65.17685132402445 63.82738050114278  58.03626125880035 71.27390989487641  C 53.17458118247224 76.44088906556499  45.122461818872175 81  33.42404748636925 81  C 21.725628387769838 81  13.82535685827342 76.44088906556499  8.963677735164607 71.27390989487641  C 1.8230852868922616 63.82738050114278  0 54.8611538191701  0 40.424007173980804  C 0 26.13882806459785  1.8230852868922616 17.17260233611108  8.963677735164607 9.726074849349228  C 13.82535685827342 4.559099015861297  21.725628387769838 0  33.42404748636925 0  C 45.122461818872175 0  53.17458118247224 4.559099015861297  58.03626125880035 9.726074849349228  Z M 42.69159628209191 59.72419410430241  C 46.79363969545469 55.621003416775515  47.24941816632248 48.63038378160511  47.24941816632248 40.424007173980804  C 47.24941816632248 32.21762579892701  46.79363969545469 25.378981327450127  42.69159628209191 21.27579063992323  C 40.41268176540425 18.996243277335854  37.374160850463966 17.780479153737712  33.42404748636925 17.780479153737712  C 29.47392959448287 17.780479153737712  26.58731608985233 18.996243277335854  24.308403717908096 21.27579063992323  C 20.20636268759356 25.378981327450127  19.750581833677515 32.21762579892701  19.750581833677515 40.424007173980804  C 19.750581833677515 48.63038378160511  20.20636268759356 55.621003416775515  24.308403717908096 59.72419410430241  C 26.58731608985233 62.00374385060453  29.47392959448287 63.21950559048793  33.42404748636925 63.21950559048793  C 37.374160850463966 63.21950559048793  40.41268176540425 62.00374385060453  42.69159628209191 59.72419410430241  Z " fill-rule="nonzero" fill="rgba(255, 255, 255, 1)" stroke="none" transform="matrix(1 0 0 1 1143 515 )" class="fill" />
    <path d="M 58.03626125880035 9.726074849349228  C 65.17685132402445 17.17260233611108  67 26.13882806459785  67 40.424007173980804  C 67 54.8611538191701  65.17685132402445 63.82738050114278  58.03626125880035 71.27390989487641  C 53.17458118247224 76.44088906556499  45.122461818872175 81  33.42404748636925 81  C 21.725628387769838 81  13.82535685827342 76.44088906556499  8.963677735164607 71.27390989487641  C 1.8230852868922616 63.82738050114278  0 54.8611538191701  0 40.424007173980804  C 0 26.13882806459785  1.8230852868922616 17.17260233611108  8.963677735164607 9.726074849349228  C 13.82535685827342 4.559099015861297  21.725628387769838 0  33.42404748636925 0  C 45.122461818872175 0  53.17458118247224 4.559099015861297  58.03626125880035 9.726074849349228  Z " stroke-width="0" stroke-dasharray="0" stroke="rgba(121, 121, 121, 1)" fill="none" transform="matrix(1 0 0 1 1143 515 )" class="stroke" mask="url(#Clip4248)" />
    <path d="M 42.69159628209191 59.72419410430241  C 46.79363969545469 55.621003416775515  47.24941816632248 48.63038378160511  47.24941816632248 40.424007173980804  C 47.24941816632248 32.21762579892701  46.79363969545469 25.378981327450127  42.69159628209191 21.27579063992323  C 40.41268176540425 18.996243277335854  37.374160850463966 17.780479153737712  33.42404748636925 17.780479153737712  C 29.47392959448287 17.780479153737712  26.58731608985233 18.996243277335854  24.308403717908096 21.27579063992323  C 20.20636268759356 25.378981327450127  19.750581833677515 32.21762579892701  19.750581833677515 40.424007173980804  C 19.750581833677515 48.63038378160511  20.20636268759356 55.621003416775515  24.308403717908096 59.72419410430241  C 26.58731608985233 62.00374385060453  29.47392959448287 63.21950559048793  33.42404748636925 63.21950559048793  C 37.374160850463966 63.21950559048793  40.41268176540425 62.00374385060453  42.69159628209191 59.72419410430241  Z " stroke-width="0" stroke-dasharray="0" stroke="rgba(121, 121, 121, 1)" fill="none" transform="matrix(1 0 0 1 1143 515 )" class="stroke" mask="url(#Clip4248)" />
  </g>
</svg>