<?xml version="1.0" encoding="utf-8"?>
<svg version="1.1" xmlns:xlink="http://www.w3.org/1999/xlink" width="38px" height="38px" xmlns="http://www.w3.org/2000/svg">
  <defs>
    <pattern id="BGPattern" patternUnits="userSpaceOnUse" alignment="0 0" imageRepeat="None" />
    <mask fill="white" id="Clip4231">
      <path d="M 10.593841872074126 19  L 10.593841872074126 15.675964607121632  L 29.045607484574845 15.675964607121632  L 29.045607484574845 19  L 10.593841872074126 19  Z M 10.625652933282229 8.07939837171885  L 10.625652933282229 2  L 28.886537008738813 2  L 28.886537008738813 7.918454326280159  L 25.609754987575936 7.918454326280159  L 25.609754987575936 5  L 13.74336447860907 5  L 13.74336447860907 8.07939837171885  L 10.625652933282229 8.07939837171885  Z M 18 29.871242461323813  L 18 12.489270205110317  L 21 12.489270205110317  L 21 29.871242461323813  L 18 29.871242461323813  Z M 19.819732263222246 18.508584411493054  C 19.819732263222246 18.508584411493054  22.460232381040992 17.510729794889684  22.460232381040992 17.510729794889684  C 22.990454658998168 18.51931384664442  23.64792497423663 19.517167563901996  24.432654704103026 20.50429172609544  C 25.238593052505443 21.491416248027193  26.11876864699709 22.39270331018729  27.073169991717293 23.208153991790674  C 28.027571336437493 24.02360467339406  29.003181358950737 24.699570839381735  30 25.236051650364285  C 29.72428389992625 25.450643875829268  29.427362973765355 25.740343766176235  29.10922960699105 26.105150646895833  C 28.791096240216746 26.448498237617997  28.48355770158825 26.813304428839157  28.18663298297848 27.199570539599804  C 27.910916882904726 27.56437739034121  27.677624404846256 27.907723242328174  27.486744127013665 28.22961166296568  C 26.46871680817136 27.52145719152391  25.48250440224306 26.652359514032863  24.528103057522852 25.622316591975398  C 23.57370171280265 24.592273669917933  22.693526118311006 23.465663792981054  21.887587769908585 22.24248780055417  C 21.081649421506167 21.019311928040057  20.39237308190577 19.77467874408926  19.819732263222246 18.508584411493054  Z M 15.015913115501812 20.536480151462303  C 15.885478682423619 19.463518529497197  16.595973714252377 18.3476397664905  17.14740591439988 17.1888417040123  C 17.14740591439988 17.1888417040123  19.915165446846554 18.12231755127758  19.915165446846554 18.12231755127758  C 19.300107331833967 19.58154471441766  18.536584976106308 20.965665231934324  17.624602172112454 22.274678144525396  C 16.712619368118602 23.583691057116468  15.694585708775827 24.763948829286804  14.570512749201816 25.815450981385318  C 13.467649059990979 26.86695313348383  12.290567738762467 27.736050810974877  11.039242238374122 28.422746052375597  C 10.784735408663545 27.993561541489242  10.424171501617606 27.48927002524116  9.957575138525515 26.909870874089286  C 9.5121880457966 26.30901249289637  9.088010845629507 25.847639736512306  8.685041671428298 25.5257513158748  C 9.89394981623057 24.989270684761408  11.028637958734617 24.291846008209323  12.089083107219103 23.43347680656746  C 13.170737526066766 22.57510790470753  14.146347548580007 21.609441773427406  15.015913115501812 20.536480151462303  Z M 13.234357159688393 9.399141079199605  C 14.252385071100832 8.369098636793229  15.079534586090865 7.296137134740898  15.715801971466627 6.180256333217066  C 15.715801971466627 6.180256333217066  19.088017176253807 7.339054995259128  19.088017176253807 7.339054995259128  C 18.579003516832657 8.28326159671627  17.963942913025495 9.216738103501797  17.242839098024188 10.139484455659327  C 16.5429452052132 11.04077187755774  15.800642845368206 11.888411284309923  15.015913115501812 12.682402675915876  C 14.231183385635417 13.454935137262712  13.446442278422381 14.141630498576204  12.661712548555986 14.74248875985635  C 12.492041541086568 14.484978149254758  12.24814662035602 14.184549018614684  11.930012631383072 13.841201337957937  C 11.611879264608765 13.497853657301192  11.283136522091773 13.165235441774003  10.943793884954292 12.843346721354564  C 10.625659895981345 12.499999670239875  10.328739592019094 12.22103077391032  10.053023491945345 12.006438068794246  C 11.155887181156181 11.29828311770139  12.216329248275953 10.42918352160598  13.234357159688393 9.399141079199605  Z M 22.460232381040992 9.978540410220635  C 21.717919947503656 9.163090088355569  20.986220030330742 8.422746711895845  20.26511745972672 7.75751028084147  C 20.26511745972672 7.75751028084147  23.001065930965297 5.890556667706551  23.001065930965297 5.890556667706551  C 23.722169745966603 6.51287517828631  24.464470802157297 7.210300034707553  25.227991913487667 7.982831177013892  C 26.012721643354062 8.75536363836073  26.744436730322498 9.517166604599815  27.42312200459746 10.268240075731152  C 28.10180727887242 11.019312947298625  28.642638310373638 11.706008308612116  29.045607484574845 12.328326159671628  C 29.045607484574845 12.328326159671628  26.086951245288514 14.452789094345833  26.086951245288514 14.452789094345833  C 25.726400611813656 13.830471842850187  25.21739077446989 13.13304704638533  24.55991411873096 12.360514585038493  C 23.923647385182345 11.566523193432541  23.223753492371365 10.772531801826588  22.460232381040992 9.978540410220635  Z M 0.986203576633256 20.21459206058492  C 0.986203576633256 20.21459206058492  0 16.51287517828631  0 16.51287517828631  C 1.2513258559304292 16.190986457866874  2.7253432434868485 15.761802966239086  4.422056073632165 15.225322814776785  C 6.139978174140657 14.688842003794232  7.87910966352635 14.130901003468454  9.63944935664897 13.551501672447422  C 9.63944935664897 13.551501672447422  10.339338212613786 17.02789765857361  10.339338212613786 17.02789765857361  C 8.74867007508796 17.58583739981528  7.136794326395344 18.143775222452582  5.503708003685249 18.70171496369425  C 3.8706216809751552 19.238195774676804  2.3647828029762126 19.742489089616473  0.986203576633256 20.21459206058492  Z M 0.4453851965044746 9.656652319343253  L 0.4453851965044746 6.115879482483334  L 9.862141954901208 6.115879482483334  L 9.862141954901208 9.656652319343253  L 0.4453851965044746 9.656652319343253  Z M 3.753978278875453 26.137339072262698  C 3.753978278875453 26.137339072262698  3.753978278875453 0  3.753978278875453 0  L 7.253437728495045 0  C 7.253437728495045 0  7.253437728495045 26.105150646895833  7.253437728495045 26.105150646895833  C 7.253437728495045 26.963519728624924  7.158003285659196 27.639486104459948  6.967123007826603 28.133048305469444  C 6.776243055907586 28.62661056643532  6.436898211446344 29.01287316974737  5.949093200189724 29.291843130302784  C 5.461288188933103 29.592272260942856  4.856844219852813 29.785405541159626  4.135741352963723 29.871242461323813  C 3.4146381897895646 29.957079381488  2.534462773068961 30  1.4952260653494565 30  C 1.4528083134821022 29.527897029031553  1.3361543303018815 28.969955698945647  1.1452740524692888 28.326178857670637  C 0.9543938635222168 27.682402016395624  0.7317031466801661 27.11373346954465  0.4771962577125769 26.62017120857877  C 1.0710456949321252 26.64163043861982  1.6224788431918464 26.663088829271455  2.131492798898066 26.6845480593125  C 2.661715550911351 26.6845480593125  3.0116621862175204 26.673818863986686  3.181333667743048 26.652359633945636  C 3.393422578925918 26.652359633945636  3.5418830494134914 26.620172010495438  3.6267188642475223 26.555794357845038  C 3.7115543679822314 26.4914166677219  3.753978278875453 26.351931372673164  3.753978278875453 26.137339072262698  Z " fill-rule="evenodd" />
    </mask>
  </defs>
  <g transform="matrix(1 0 0 1 -1373 -700 )">
    <path d="M 10.593841872074126 19  L 10.593841872074126 15.675964607121632  L 29.045607484574845 15.675964607121632  L 29.045607484574845 19  L 10.593841872074126 19  Z M 10.625652933282229 8.07939837171885  L 10.625652933282229 2  L 28.886537008738813 2  L 28.886537008738813 7.918454326280159  L 25.609754987575936 7.918454326280159  L 25.609754987575936 5  L 13.74336447860907 5  L 13.74336447860907 8.07939837171885  L 10.625652933282229 8.07939837171885  Z M 18 29.871242461323813  L 18 12.489270205110317  L 21 12.489270205110317  L 21 29.871242461323813  L 18 29.871242461323813  Z M 19.819732263222246 18.508584411493054  C 19.819732263222246 18.508584411493054  22.460232381040992 17.510729794889684  22.460232381040992 17.510729794889684  C 22.990454658998168 18.51931384664442  23.64792497423663 19.517167563901996  24.432654704103026 20.50429172609544  C 25.238593052505443 21.491416248027193  26.11876864699709 22.39270331018729  27.073169991717293 23.208153991790674  C 28.027571336437493 24.02360467339406  29.003181358950737 24.699570839381735  30 25.236051650364285  C 29.72428389992625 25.450643875829268  29.427362973765355 25.740343766176235  29.10922960699105 26.105150646895833  C 28.791096240216746 26.448498237617997  28.48355770158825 26.813304428839157  28.18663298297848 27.199570539599804  C 27.910916882904726 27.56437739034121  27.677624404846256 27.907723242328174  27.486744127013665 28.22961166296568  C 26.46871680817136 27.52145719152391  25.48250440224306 26.652359514032863  24.528103057522852 25.622316591975398  C 23.57370171280265 24.592273669917933  22.693526118311006 23.465663792981054  21.887587769908585 22.24248780055417  C 21.081649421506167 21.019311928040057  20.39237308190577 19.77467874408926  19.819732263222246 18.508584411493054  Z M 15.015913115501812 20.536480151462303  C 15.885478682423619 19.463518529497197  16.595973714252377 18.3476397664905  17.14740591439988 17.1888417040123  C 17.14740591439988 17.1888417040123  19.915165446846554 18.12231755127758  19.915165446846554 18.12231755127758  C 19.300107331833967 19.58154471441766  18.536584976106308 20.965665231934324  17.624602172112454 22.274678144525396  C 16.712619368118602 23.583691057116468  15.694585708775827 24.763948829286804  14.570512749201816 25.815450981385318  C 13.467649059990979 26.86695313348383  12.290567738762467 27.736050810974877  11.039242238374122 28.422746052375597  C 10.784735408663545 27.993561541489242  10.424171501617606 27.48927002524116  9.957575138525515 26.909870874089286  C 9.5121880457966 26.30901249289637  9.088010845629507 25.847639736512306  8.685041671428298 25.5257513158748  C 9.89394981623057 24.989270684761408  11.028637958734617 24.291846008209323  12.089083107219103 23.43347680656746  C 13.170737526066766 22.57510790470753  14.146347548580007 21.609441773427406  15.015913115501812 20.536480151462303  Z M 13.234357159688393 9.399141079199605  C 14.252385071100832 8.369098636793229  15.079534586090865 7.296137134740898  15.715801971466627 6.180256333217066  C 15.715801971466627 6.180256333217066  19.088017176253807 7.339054995259128  19.088017176253807 7.339054995259128  C 18.579003516832657 8.28326159671627  17.963942913025495 9.216738103501797  17.242839098024188 10.139484455659327  C 16.5429452052132 11.04077187755774  15.800642845368206 11.888411284309923  15.015913115501812 12.682402675915876  C 14.231183385635417 13.454935137262712  13.446442278422381 14.141630498576204  12.661712548555986 14.74248875985635  C 12.492041541086568 14.484978149254758  12.24814662035602 14.184549018614684  11.930012631383072 13.841201337957937  C 11.611879264608765 13.497853657301192  11.283136522091773 13.165235441774003  10.943793884954292 12.843346721354564  C 10.625659895981345 12.499999670239875  10.328739592019094 12.22103077391032  10.053023491945345 12.006438068794246  C 11.155887181156181 11.29828311770139  12.216329248275953 10.42918352160598  13.234357159688393 9.399141079199605  Z M 22.460232381040992 9.978540410220635  C 21.717919947503656 9.163090088355569  20.986220030330742 8.422746711895845  20.26511745972672 7.75751028084147  C 20.26511745972672 7.75751028084147  23.001065930965297 5.890556667706551  23.001065930965297 5.890556667706551  C 23.722169745966603 6.51287517828631  24.464470802157297 7.210300034707553  25.227991913487667 7.982831177013892  C 26.012721643354062 8.75536363836073  26.744436730322498 9.517166604599815  27.42312200459746 10.268240075731152  C 28.10180727887242 11.019312947298625  28.642638310373638 11.706008308612116  29.045607484574845 12.328326159671628  C 29.045607484574845 12.328326159671628  26.086951245288514 14.452789094345833  26.086951245288514 14.452789094345833  C 25.726400611813656 13.830471842850187  25.21739077446989 13.13304704638533  24.55991411873096 12.360514585038493  C 23.923647385182345 11.566523193432541  23.223753492371365 10.772531801826588  22.460232381040992 9.978540410220635  Z M 0.986203576633256 20.21459206058492  C 0.986203576633256 20.21459206058492  0 16.51287517828631  0 16.51287517828631  C 1.2513258559304292 16.190986457866874  2.7253432434868485 15.761802966239086  4.422056073632165 15.225322814776785  C 6.139978174140657 14.688842003794232  7.87910966352635 14.130901003468454  9.63944935664897 13.551501672447422  C 9.63944935664897 13.551501672447422  10.339338212613786 17.02789765857361  10.339338212613786 17.02789765857361  C 8.74867007508796 17.58583739981528  7.136794326395344 18.143775222452582  5.503708003685249 18.70171496369425  C 3.8706216809751552 19.238195774676804  2.3647828029762126 19.742489089616473  0.986203576633256 20.21459206058492  Z M 0.4453851965044746 9.656652319343253  L 0.4453851965044746 6.115879482483334  L 9.862141954901208 6.115879482483334  L 9.862141954901208 9.656652319343253  L 0.4453851965044746 9.656652319343253  Z M 3.753978278875453 26.137339072262698  C 3.753978278875453 26.137339072262698  3.753978278875453 0  3.753978278875453 0  L 7.253437728495045 0  C 7.253437728495045 0  7.253437728495045 26.105150646895833  7.253437728495045 26.105150646895833  C 7.253437728495045 26.963519728624924  7.158003285659196 27.639486104459948  6.967123007826603 28.133048305469444  C 6.776243055907586 28.62661056643532  6.436898211446344 29.01287316974737  5.949093200189724 29.291843130302784  C 5.461288188933103 29.592272260942856  4.856844219852813 29.785405541159626  4.135741352963723 29.871242461323813  C 3.4146381897895646 29.957079381488  2.534462773068961 30  1.4952260653494565 30  C 1.4528083134821022 29.527897029031553  1.3361543303018815 28.969955698945647  1.1452740524692888 28.326178857670637  C 0.9543938635222168 27.682402016395624  0.7317031466801661 27.11373346954465  0.4771962577125769 26.62017120857877  C 1.0710456949321252 26.64163043861982  1.6224788431918464 26.663088829271455  2.131492798898066 26.6845480593125  C 2.661715550911351 26.6845480593125  3.0116621862175204 26.673818863986686  3.181333667743048 26.652359633945636  C 3.393422578925918 26.652359633945636  3.5418830494134914 26.620172010495438  3.6267188642475223 26.555794357845038  C 3.7115543679822314 26.4914166677219  3.753978278875453 26.351931372673164  3.753978278875453 26.137339072262698  Z " fill-rule="nonzero" fill="rgba(255, 255, 255, 1)" stroke="none" transform="matrix(1 0 0 1 1377 700 )" class="fill" />
    <path d="M 10.593841872074126 19  L 10.593841872074126 15.675964607121632  L 29.045607484574845 15.675964607121632  L 29.045607484574845 19  L 10.593841872074126 19  Z " stroke-width="0" stroke-dasharray="0" stroke="rgba(121, 121, 121, 1)" fill="none" transform="matrix(1 0 0 1 1377 700 )" class="stroke" mask="url(#Clip4231)" />
    <path d="M 10.625652933282229 8.07939837171885  L 10.625652933282229 2  L 28.886537008738813 2  L 28.886537008738813 7.918454326280159  L 25.609754987575936 7.918454326280159  L 25.609754987575936 5  L 13.74336447860907 5  L 13.74336447860907 8.07939837171885  L 10.625652933282229 8.07939837171885  Z " stroke-width="0" stroke-dasharray="0" stroke="rgba(121, 121, 121, 1)" fill="none" transform="matrix(1 0 0 1 1377 700 )" class="stroke" mask="url(#Clip4231)" />
    <path d="M 18 29.871242461323813  L 18 12.489270205110317  L 21 12.489270205110317  L 21 29.871242461323813  L 18 29.871242461323813  Z " stroke-width="0" stroke-dasharray="0" stroke="rgba(121, 121, 121, 1)" fill="none" transform="matrix(1 0 0 1 1377 700 )" class="stroke" mask="url(#Clip4231)" />
    <path d="M 19.819732263222246 18.508584411493054  C 19.819732263222246 18.508584411493054  22.460232381040992 17.510729794889684  22.460232381040992 17.510729794889684  C 22.990454658998168 18.51931384664442  23.64792497423663 19.517167563901996  24.432654704103026 20.50429172609544  C 25.238593052505443 21.491416248027193  26.11876864699709 22.39270331018729  27.073169991717293 23.208153991790674  C 28.027571336437493 24.02360467339406  29.003181358950737 24.699570839381735  30 25.236051650364285  C 29.72428389992625 25.450643875829268  29.427362973765355 25.740343766176235  29.10922960699105 26.105150646895833  C 28.791096240216746 26.448498237617997  28.48355770158825 26.813304428839157  28.18663298297848 27.199570539599804  C 27.910916882904726 27.56437739034121  27.677624404846256 27.907723242328174  27.486744127013665 28.22961166296568  C 26.46871680817136 27.52145719152391  25.48250440224306 26.652359514032863  24.528103057522852 25.622316591975398  C 23.57370171280265 24.592273669917933  22.693526118311006 23.465663792981054  21.887587769908585 22.24248780055417  C 21.081649421506167 21.019311928040057  20.39237308190577 19.77467874408926  19.819732263222246 18.508584411493054  Z " stroke-width="0" stroke-dasharray="0" stroke="rgba(121, 121, 121, 1)" fill="none" transform="matrix(1 0 0 1 1377 700 )" class="stroke" mask="url(#Clip4231)" />
    <path d="M 15.015913115501812 20.536480151462303  C 15.885478682423619 19.463518529497197  16.595973714252377 18.3476397664905  17.14740591439988 17.1888417040123  C 17.14740591439988 17.1888417040123  19.915165446846554 18.12231755127758  19.915165446846554 18.12231755127758  C 19.300107331833967 19.58154471441766  18.536584976106308 20.965665231934324  17.624602172112454 22.274678144525396  C 16.712619368118602 23.583691057116468  15.694585708775827 24.763948829286804  14.570512749201816 25.815450981385318  C 13.467649059990979 26.86695313348383  12.290567738762467 27.736050810974877  11.039242238374122 28.422746052375597  C 10.784735408663545 27.993561541489242  10.424171501617606 27.48927002524116  9.957575138525515 26.909870874089286  C 9.5121880457966 26.30901249289637  9.088010845629507 25.847639736512306  8.685041671428298 25.5257513158748  C 9.89394981623057 24.989270684761408  11.028637958734617 24.291846008209323  12.089083107219103 23.43347680656746  C 13.170737526066766 22.57510790470753  14.146347548580007 21.609441773427406  15.015913115501812 20.536480151462303  Z " stroke-width="0" stroke-dasharray="0" stroke="rgba(121, 121, 121, 1)" fill="none" transform="matrix(1 0 0 1 1377 700 )" class="stroke" mask="url(#Clip4231)" />
    <path d="M 13.234357159688393 9.399141079199605  C 14.252385071100832 8.369098636793229  15.079534586090865 7.296137134740898  15.715801971466627 6.180256333217066  C 15.715801971466627 6.180256333217066  19.088017176253807 7.339054995259128  19.088017176253807 7.339054995259128  C 18.579003516832657 8.28326159671627  17.963942913025495 9.216738103501797  17.242839098024188 10.139484455659327  C 16.5429452052132 11.04077187755774  15.800642845368206 11.888411284309923  15.015913115501812 12.682402675915876  C 14.231183385635417 13.454935137262712  13.446442278422381 14.141630498576204  12.661712548555986 14.74248875985635  C 12.492041541086568 14.484978149254758  12.24814662035602 14.184549018614684  11.930012631383072 13.841201337957937  C 11.611879264608765 13.497853657301192  11.283136522091773 13.165235441774003  10.943793884954292 12.843346721354564  C 10.625659895981345 12.499999670239875  10.328739592019094 12.22103077391032  10.053023491945345 12.006438068794246  C 11.155887181156181 11.29828311770139  12.216329248275953 10.42918352160598  13.234357159688393 9.399141079199605  Z " stroke-width="0" stroke-dasharray="0" stroke="rgba(121, 121, 121, 1)" fill="none" transform="matrix(1 0 0 1 1377 700 )" class="stroke" mask="url(#Clip4231)" />
    <path d="M 22.460232381040992 9.978540410220635  C 21.717919947503656 9.163090088355569  20.986220030330742 8.422746711895845  20.26511745972672 7.75751028084147  C 20.26511745972672 7.75751028084147  23.001065930965297 5.890556667706551  23.001065930965297 5.890556667706551  C 23.722169745966603 6.51287517828631  24.464470802157297 7.210300034707553  25.227991913487667 7.982831177013892  C 26.012721643354062 8.75536363836073  26.744436730322498 9.517166604599815  27.42312200459746 10.268240075731152  C 28.10180727887242 11.019312947298625  28.642638310373638 11.706008308612116  29.045607484574845 12.328326159671628  C 29.045607484574845 12.328326159671628  26.086951245288514 14.452789094345833  26.086951245288514 14.452789094345833  C 25.726400611813656 13.830471842850187  25.21739077446989 13.13304704638533  24.55991411873096 12.360514585038493  C 23.923647385182345 11.566523193432541  23.223753492371365 10.772531801826588  22.460232381040992 9.978540410220635  Z " stroke-width="0" stroke-dasharray="0" stroke="rgba(121, 121, 121, 1)" fill="none" transform="matrix(1 0 0 1 1377 700 )" class="stroke" mask="url(#Clip4231)" />
    <path d="M 0.986203576633256 20.21459206058492  C 0.986203576633256 20.21459206058492  0 16.51287517828631  0 16.51287517828631  C 1.2513258559304292 16.190986457866874  2.7253432434868485 15.761802966239086  4.422056073632165 15.225322814776785  C 6.139978174140657 14.688842003794232  7.87910966352635 14.130901003468454  9.63944935664897 13.551501672447422  C 9.63944935664897 13.551501672447422  10.339338212613786 17.02789765857361  10.339338212613786 17.02789765857361  C 8.74867007508796 17.58583739981528  7.136794326395344 18.143775222452582  5.503708003685249 18.70171496369425  C 3.8706216809751552 19.238195774676804  2.3647828029762126 19.742489089616473  0.986203576633256 20.21459206058492  Z " stroke-width="0" stroke-dasharray="0" stroke="rgba(121, 121, 121, 1)" fill="none" transform="matrix(1 0 0 1 1377 700 )" class="stroke" mask="url(#Clip4231)" />
    <path d="M 0.4453851965044746 9.656652319343253  L 0.4453851965044746 6.115879482483334  L 9.862141954901208 6.115879482483334  L 9.862141954901208 9.656652319343253  L 0.4453851965044746 9.656652319343253  Z " stroke-width="0" stroke-dasharray="0" stroke="rgba(121, 121, 121, 1)" fill="none" transform="matrix(1 0 0 1 1377 700 )" class="stroke" mask="url(#Clip4231)" />
    <path d="M 3.753978278875453 26.137339072262698  C 3.753978278875453 26.137339072262698  3.753978278875453 0  3.753978278875453 0  L 7.253437728495045 0  C 7.253437728495045 0  7.253437728495045 26.105150646895833  7.253437728495045 26.105150646895833  C 7.253437728495045 26.963519728624924  7.158003285659196 27.639486104459948  6.967123007826603 28.133048305469444  C 6.776243055907586 28.62661056643532  6.436898211446344 29.01287316974737  5.949093200189724 29.291843130302784  C 5.461288188933103 29.592272260942856  4.856844219852813 29.785405541159626  4.135741352963723 29.871242461323813  C 3.4146381897895646 29.957079381488  2.534462773068961 30  1.4952260653494565 30  C 1.4528083134821022 29.527897029031553  1.3361543303018815 28.969955698945647  1.1452740524692888 28.326178857670637  C 0.9543938635222168 27.682402016395624  0.7317031466801661 27.11373346954465  0.4771962577125769 26.62017120857877  C 1.0710456949321252 26.64163043861982  1.6224788431918464 26.663088829271455  2.131492798898066 26.6845480593125  C 2.661715550911351 26.6845480593125  3.0116621862175204 26.673818863986686  3.181333667743048 26.652359633945636  C 3.393422578925918 26.652359633945636  3.5418830494134914 26.620172010495438  3.6267188642475223 26.555794357845038  C 3.7115543679822314 26.4914166677219  3.753978278875453 26.351931372673164  3.753978278875453 26.137339072262698  Z " stroke-width="0" stroke-dasharray="0" stroke="rgba(121, 121, 121, 1)" fill="none" transform="matrix(1 0 0 1 1377 700 )" class="stroke" mask="url(#Clip4231)" />
  </g>
  <style>svg { filter: drop-shadow(0px 4px 2px rgba(0, 0, 0, 0.25098039215686274)); }</style>
</svg>