<?xml version="1.0" encoding="utf-8"?>
<svg version="1.1" xmlns:xlink="http://www.w3.org/1999/xlink" width="19px" height="20px" xmlns="http://www.w3.org/2000/svg">
  <defs>
    <pattern id="BGPattern" patternUnits="userSpaceOnUse" alignment="0 0" imageRepeat="None" />
    <mask fill="white" id="Clip4264">
      <path d="M 3.440420272992301 20  L 3.440420272992301 11  L 17.1133189080308 11  L 17.1133189080308 19.956662442621507  L 15.42640219288366 19.956662442621507  L 15.42640219288366 12  L 5.082941910946107 12  L 5.082941910946107 20  L 3.440420272992301 20  Z M 4.372663011860564 15.709641934915137  L 4.372663011860564 14.431202778307702  L 16.025699172077843 14.431202778307702  L 16.025699172077843 15.709641934915137  L 4.372663011860564 15.709641934915137  Z M 2.596959991054746 3.1852656156055033  L 2.596959991054746 1.8634889016195744  L 9.69976437682207 1.8634889016195744  L 9.69976437682207 3.1852656156055033  L 2.596959991054746 3.1852656156055033  Z M 0.22195999105474593 6.587215730543303  L 0.22195999105474593 5.243771177171031  L 10.276869590511549 5.243771177171031  L 10.276869590511549 6.587215730543303  L 0.22195999105474593 6.587215730543303  Z M 4.372663011860564 19  L 4.372663011860564 17.85482190676047  L 16.025699172077843 17.85482190676047  L 16.025699172077843 19  L 4.372663011860564 19  Z M 4.8387824569307085 4.463705476690118  C 4.8387824569307085 4.463705476690118  4.8387824569307085 2.3185262093219614  4.8387824569307085 2.3185262093219614  L 6.414717252186483 2.3185262093219614  C 6.414717252186483 2.3185262093219614  6.414717252186483 4.463705476690118  6.414717252186483 4.463705476690118  C 6.414717252186483 4.983748944340949  6.355528784696662 5.547129617131683  6.237148489597091 6.15384673187871  C 6.118768630486236 6.760563846625738  5.874607906089923 7.381726911676315  5.504670127550896 8.017335398672557  C 5.149529685757944 8.652943885668803  4.616819940148229 9.274106011416475  3.906539718062445 9.880823126163502  C 3.1962594959766615 10.473094760258432  2.2566191411219165 11.029253074314923  1.087615887224978 11.549296541965752  C 0.9692358101197642 11.375948425883317  0.806462053991931 11.180931531111638  0.5992969791941817 10.964247031779342  C 0.39213190439643236 10.733116640849927  0.19236760274483178 10.552545945884129  0 10.422535078971421  C 1.1246105821585937 9.989165640008594  2.0124602884702645 9.51968270488803  2.663550682480752 9.014085128834317  C 3.314641016354866 8.494041661183486  3.7955603238988185 7.966775365146958  4.10630794361249 7.432286827789051  C 4.41705556332616 6.897797879486123  4.6168199175970885 6.377754411835292  4.70560492280667 5.8721563661301275  C 4.794390146010611 5.352112898479296  4.8387824569307085 4.882629024055829  4.8387824569307085 4.463705476690118  Z M 1.7091123293798118 2.3618637667004534  C 2.138240146471446 1.5962440165230896  2.4711819822470837 0.808956133427226  2.7079419109461065 0  C 2.7079419109461065 0  4.239485477736526 0.3033585573735137  4.239485477736526 0.3033585573735137  C 3.9435354052462417 1.2278801210911732  3.5514011404971053 2.1235103125596164  3.063083284852865 2.9902491904852746  C 2.5895631869093214 3.8425425877588353  2.086449558064746 4.5648253676220225  1.5537391810230972 5.157097001716951  C 1.4501566436242224 5.070423376635667  1.3169791621195126 4.976526585606705  1.1542065786509845 4.875406635968369  C 0.9914338899438006 4.774287544911594  0.8212620668066759 4.673167441168876  0.643692056387511 4.57204749153054  C 0.4809194278167017 4.470927541892205  0.3403400681599596 4.398699845099558  0.22195999105474593 4.355363461849696  C 0.7842653422704173 3.7919827303525304  1.2799846325609274 3.1274826949877763  1.7091123293798118 2.3618637667004534  Z M 4.8387824569307085 7.62730207878065  C 4.8387824569307085 7.62730207878065  5.926402192883661 6.890573935678228  5.926402192883661 6.890573935678228  C 6.133567267681411 7.006139343953749  6.42951476934168 7.179487144489115  6.814249854558596 7.410617109796901  C 7.213782697476207 7.627302034750826  7.628114831572067 7.865655679687565  8.057242738868263 8.12567741351298  C 8.501167982910534 8.385699147338396  8.908098381678252 8.631275165685988  9.278036160217278 8.862405556615403  C 9.662771245434193 9.079090055947699  9.936524290486998 9.245215483072212  10.099296979194182 9.360780891347734  C 10.099296979194182 9.360780891347734  8.945094249271174 10.465872636349914  8.945094249271174 10.465872636349914  C 8.737929174473424 10.306970411864597  8.449376131639967 10.097508241913328  8.07943835310094 9.837486508087915  C 7.72429833226261 9.57746518520752  7.339561924045455 9.302998234908948  6.925231774449956 9.014085128834317  C 6.525698931532345 8.725172022759685  6.13356466678321 8.457927445871965  5.748829581566294 8.21235158896706  C 5.378891803027267 7.966775306440528  5.0755426111411355 7.771758411668848  4.8387824569307085 7.62730207878065  Z M 17.379670127550895 3.2936076304459254  L 12.762847661674934 3.2936076304459254  L 12.762847661674934 7.908992444529233  L 17.379670127550895 7.908992444529233  L 17.379670127550895 3.2936076304459254  Z M 11.209112329379813 9.382448730734076  L 11.209112329379813 1.8201513442410822  L 19 1.8201513442410822  L 19 9.382448730734076  L 11.209112329379813 9.382448730734076  Z " fill-rule="evenodd" />
    </mask>
  </defs>
  <g transform="matrix(1 0 0 1 -672 -373 )">
    <path d="M 3.440420272992301 20  L 3.440420272992301 11  L 17.1133189080308 11  L 17.1133189080308 19.956662442621507  L 15.42640219288366 19.956662442621507  L 15.42640219288366 12  L 5.082941910946107 12  L 5.082941910946107 20  L 3.440420272992301 20  Z M 4.372663011860564 15.709641934915137  L 4.372663011860564 14.431202778307702  L 16.025699172077843 14.431202778307702  L 16.025699172077843 15.709641934915137  L 4.372663011860564 15.709641934915137  Z M 2.596959991054746 3.1852656156055033  L 2.596959991054746 1.8634889016195744  L 9.69976437682207 1.8634889016195744  L 9.69976437682207 3.1852656156055033  L 2.596959991054746 3.1852656156055033  Z M 0.22195999105474593 6.587215730543303  L 0.22195999105474593 5.243771177171031  L 10.276869590511549 5.243771177171031  L 10.276869590511549 6.587215730543303  L 0.22195999105474593 6.587215730543303  Z M 4.372663011860564 19  L 4.372663011860564 17.85482190676047  L 16.025699172077843 17.85482190676047  L 16.025699172077843 19  L 4.372663011860564 19  Z M 4.8387824569307085 4.463705476690118  C 4.8387824569307085 4.463705476690118  4.8387824569307085 2.3185262093219614  4.8387824569307085 2.3185262093219614  L 6.414717252186483 2.3185262093219614  C 6.414717252186483 2.3185262093219614  6.414717252186483 4.463705476690118  6.414717252186483 4.463705476690118  C 6.414717252186483 4.983748944340949  6.355528784696662 5.547129617131683  6.237148489597091 6.15384673187871  C 6.118768630486236 6.760563846625738  5.874607906089923 7.381726911676315  5.504670127550896 8.017335398672557  C 5.149529685757944 8.652943885668803  4.616819940148229 9.274106011416475  3.906539718062445 9.880823126163502  C 3.1962594959766615 10.473094760258432  2.2566191411219165 11.029253074314923  1.087615887224978 11.549296541965752  C 0.9692358101197642 11.375948425883317  0.806462053991931 11.180931531111638  0.5992969791941817 10.964247031779342  C 0.39213190439643236 10.733116640849927  0.19236760274483178 10.552545945884129  0 10.422535078971421  C 1.1246105821585937 9.989165640008594  2.0124602884702645 9.51968270488803  2.663550682480752 9.014085128834317  C 3.314641016354866 8.494041661183486  3.7955603238988185 7.966775365146958  4.10630794361249 7.432286827789051  C 4.41705556332616 6.897797879486123  4.6168199175970885 6.377754411835292  4.70560492280667 5.8721563661301275  C 4.794390146010611 5.352112898479296  4.8387824569307085 4.882629024055829  4.8387824569307085 4.463705476690118  Z M 1.7091123293798118 2.3618637667004534  C 2.138240146471446 1.5962440165230896  2.4711819822470837 0.808956133427226  2.7079419109461065 0  C 2.7079419109461065 0  4.239485477736526 0.3033585573735137  4.239485477736526 0.3033585573735137  C 3.9435354052462417 1.2278801210911732  3.5514011404971053 2.1235103125596164  3.063083284852865 2.9902491904852746  C 2.5895631869093214 3.8425425877588353  2.086449558064746 4.5648253676220225  1.5537391810230972 5.157097001716951  C 1.4501566436242224 5.070423376635667  1.3169791621195126 4.976526585606705  1.1542065786509845 4.875406635968369  C 0.9914338899438006 4.774287544911594  0.8212620668066759 4.673167441168876  0.643692056387511 4.57204749153054  C 0.4809194278167017 4.470927541892205  0.3403400681599596 4.398699845099558  0.22195999105474593 4.355363461849696  C 0.7842653422704173 3.7919827303525304  1.2799846325609274 3.1274826949877763  1.7091123293798118 2.3618637667004534  Z M 4.8387824569307085 7.62730207878065  C 4.8387824569307085 7.62730207878065  5.926402192883661 6.890573935678228  5.926402192883661 6.890573935678228  C 6.133567267681411 7.006139343953749  6.42951476934168 7.179487144489115  6.814249854558596 7.410617109796901  C 7.213782697476207 7.627302034750826  7.628114831572067 7.865655679687565  8.057242738868263 8.12567741351298  C 8.501167982910534 8.385699147338396  8.908098381678252 8.631275165685988  9.278036160217278 8.862405556615403  C 9.662771245434193 9.079090055947699  9.936524290486998 9.245215483072212  10.099296979194182 9.360780891347734  C 10.099296979194182 9.360780891347734  8.945094249271174 10.465872636349914  8.945094249271174 10.465872636349914  C 8.737929174473424 10.306970411864597  8.449376131639967 10.097508241913328  8.07943835310094 9.837486508087915  C 7.72429833226261 9.57746518520752  7.339561924045455 9.302998234908948  6.925231774449956 9.014085128834317  C 6.525698931532345 8.725172022759685  6.13356466678321 8.457927445871965  5.748829581566294 8.21235158896706  C 5.378891803027267 7.966775306440528  5.0755426111411355 7.771758411668848  4.8387824569307085 7.62730207878065  Z M 17.379670127550895 3.2936076304459254  L 12.762847661674934 3.2936076304459254  L 12.762847661674934 7.908992444529233  L 17.379670127550895 7.908992444529233  L 17.379670127550895 3.2936076304459254  Z M 11.209112329379813 9.382448730734076  L 11.209112329379813 1.8201513442410822  L 19 1.8201513442410822  L 19 9.382448730734076  L 11.209112329379813 9.382448730734076  Z " fill-rule="nonzero" fill="rgba(255, 255, 255, 1)" stroke="none" transform="matrix(1 0 0 1 672 373 )" class="fill" />
    <path d="M 3.440420272992301 20  L 3.440420272992301 11  L 17.1133189080308 11  L 17.1133189080308 19.956662442621507  L 15.42640219288366 19.956662442621507  L 15.42640219288366 12  L 5.082941910946107 12  L 5.082941910946107 20  L 3.440420272992301 20  Z " stroke-width="0" stroke-dasharray="0" stroke="rgba(121, 121, 121, 1)" fill="none" transform="matrix(1 0 0 1 672 373 )" class="stroke" mask="url(#Clip4264)" />
    <path d="M 4.372663011860564 15.709641934915137  L 4.372663011860564 14.431202778307702  L 16.025699172077843 14.431202778307702  L 16.025699172077843 15.709641934915137  L 4.372663011860564 15.709641934915137  Z " stroke-width="0" stroke-dasharray="0" stroke="rgba(121, 121, 121, 1)" fill="none" transform="matrix(1 0 0 1 672 373 )" class="stroke" mask="url(#Clip4264)" />
    <path d="M 2.596959991054746 3.1852656156055033  L 2.596959991054746 1.8634889016195744  L 9.69976437682207 1.8634889016195744  L 9.69976437682207 3.1852656156055033  L 2.596959991054746 3.1852656156055033  Z " stroke-width="0" stroke-dasharray="0" stroke="rgba(121, 121, 121, 1)" fill="none" transform="matrix(1 0 0 1 672 373 )" class="stroke" mask="url(#Clip4264)" />
    <path d="M 0.22195999105474593 6.587215730543303  L 0.22195999105474593 5.243771177171031  L 10.276869590511549 5.243771177171031  L 10.276869590511549 6.587215730543303  L 0.22195999105474593 6.587215730543303  Z " stroke-width="0" stroke-dasharray="0" stroke="rgba(121, 121, 121, 1)" fill="none" transform="matrix(1 0 0 1 672 373 )" class="stroke" mask="url(#Clip4264)" />
    <path d="M 4.372663011860564 19  L 4.372663011860564 17.85482190676047  L 16.025699172077843 17.85482190676047  L 16.025699172077843 19  L 4.372663011860564 19  Z " stroke-width="0" stroke-dasharray="0" stroke="rgba(121, 121, 121, 1)" fill="none" transform="matrix(1 0 0 1 672 373 )" class="stroke" mask="url(#Clip4264)" />
    <path d="M 4.8387824569307085 4.463705476690118  C 4.8387824569307085 4.463705476690118  4.8387824569307085 2.3185262093219614  4.8387824569307085 2.3185262093219614  L 6.414717252186483 2.3185262093219614  C 6.414717252186483 2.3185262093219614  6.414717252186483 4.463705476690118  6.414717252186483 4.463705476690118  C 6.414717252186483 4.983748944340949  6.355528784696662 5.547129617131683  6.237148489597091 6.15384673187871  C 6.118768630486236 6.760563846625738  5.874607906089923 7.381726911676315  5.504670127550896 8.017335398672557  C 5.149529685757944 8.652943885668803  4.616819940148229 9.274106011416475  3.906539718062445 9.880823126163502  C 3.1962594959766615 10.473094760258432  2.2566191411219165 11.029253074314923  1.087615887224978 11.549296541965752  C 0.9692358101197642 11.375948425883317  0.806462053991931 11.180931531111638  0.5992969791941817 10.964247031779342  C 0.39213190439643236 10.733116640849927  0.19236760274483178 10.552545945884129  0 10.422535078971421  C 1.1246105821585937 9.989165640008594  2.0124602884702645 9.51968270488803  2.663550682480752 9.014085128834317  C 3.314641016354866 8.494041661183486  3.7955603238988185 7.966775365146958  4.10630794361249 7.432286827789051  C 4.41705556332616 6.897797879486123  4.6168199175970885 6.377754411835292  4.70560492280667 5.8721563661301275  C 4.794390146010611 5.352112898479296  4.8387824569307085 4.882629024055829  4.8387824569307085 4.463705476690118  Z " stroke-width="0" stroke-dasharray="0" stroke="rgba(121, 121, 121, 1)" fill="none" transform="matrix(1 0 0 1 672 373 )" class="stroke" mask="url(#Clip4264)" />
    <path d="M 1.7091123293798118 2.3618637667004534  C 2.138240146471446 1.5962440165230896  2.4711819822470837 0.808956133427226  2.7079419109461065 0  C 2.7079419109461065 0  4.239485477736526 0.3033585573735137  4.239485477736526 0.3033585573735137  C 3.9435354052462417 1.2278801210911732  3.5514011404971053 2.1235103125596164  3.063083284852865 2.9902491904852746  C 2.5895631869093214 3.8425425877588353  2.086449558064746 4.5648253676220225  1.5537391810230972 5.157097001716951  C 1.4501566436242224 5.070423376635667  1.3169791621195126 4.976526585606705  1.1542065786509845 4.875406635968369  C 0.9914338899438006 4.774287544911594  0.8212620668066759 4.673167441168876  0.643692056387511 4.57204749153054  C 0.4809194278167017 4.470927541892205  0.3403400681599596 4.398699845099558  0.22195999105474593 4.355363461849696  C 0.7842653422704173 3.7919827303525304  1.2799846325609274 3.1274826949877763  1.7091123293798118 2.3618637667004534  Z " stroke-width="0" stroke-dasharray="0" stroke="rgba(121, 121, 121, 1)" fill="none" transform="matrix(1 0 0 1 672 373 )" class="stroke" mask="url(#Clip4264)" />
    <path d="M 4.8387824569307085 7.62730207878065  C 4.8387824569307085 7.62730207878065  5.926402192883661 6.890573935678228  5.926402192883661 6.890573935678228  C 6.133567267681411 7.006139343953749  6.42951476934168 7.179487144489115  6.814249854558596 7.410617109796901  C 7.213782697476207 7.627302034750826  7.628114831572067 7.865655679687565  8.057242738868263 8.12567741351298  C 8.501167982910534 8.385699147338396  8.908098381678252 8.631275165685988  9.278036160217278 8.862405556615403  C 9.662771245434193 9.079090055947699  9.936524290486998 9.245215483072212  10.099296979194182 9.360780891347734  C 10.099296979194182 9.360780891347734  8.945094249271174 10.465872636349914  8.945094249271174 10.465872636349914  C 8.737929174473424 10.306970411864597  8.449376131639967 10.097508241913328  8.07943835310094 9.837486508087915  C 7.72429833226261 9.57746518520752  7.339561924045455 9.302998234908948  6.925231774449956 9.014085128834317  C 6.525698931532345 8.725172022759685  6.13356466678321 8.457927445871965  5.748829581566294 8.21235158896706  C 5.378891803027267 7.966775306440528  5.0755426111411355 7.771758411668848  4.8387824569307085 7.62730207878065  Z " stroke-width="0" stroke-dasharray="0" stroke="rgba(121, 121, 121, 1)" fill="none" transform="matrix(1 0 0 1 672 373 )" class="stroke" mask="url(#Clip4264)" />
    <path d="M 17.379670127550895 3.2936076304459254  L 12.762847661674934 3.2936076304459254  L 12.762847661674934 7.908992444529233  L 17.379670127550895 7.908992444529233  L 17.379670127550895 3.2936076304459254  Z " stroke-width="0" stroke-dasharray="0" stroke="rgba(121, 121, 121, 1)" fill="none" transform="matrix(1 0 0 1 672 373 )" class="stroke" mask="url(#Clip4264)" />
    <path d="M 11.209112329379813 9.382448730734076  L 11.209112329379813 1.8201513442410822  L 19 1.8201513442410822  L 19 9.382448730734076  L 11.209112329379813 9.382448730734076  Z " stroke-width="0" stroke-dasharray="0" stroke="rgba(121, 121, 121, 1)" fill="none" transform="matrix(1 0 0 1 672 373 )" class="stroke" mask="url(#Clip4264)" />
  </g>
</svg>