<?xml version="1.0" encoding="utf-8"?>
<svg version="1.1" xmlns:xlink="http://www.w3.org/1999/xlink" width="34px" height="108px" xmlns="http://www.w3.org/2000/svg">
  <defs>
    <pattern id="BGPattern" patternUnits="userSpaceOnUse" alignment="0 0" imageRepeat="None" />
    <mask fill="white" id="Clip4251">
      <path d="M 34 91.31460537283535  L 34 108  C 34 108  22.86726732916032 108  22.86726732916032 108  C 6.76991556404056 108  0 96.62360054214497  0 85.39888119507631  C 0 85.39888119507631  0 0  0 0  L 19.557537627282468 0  C 19.557537627282468 0  19.557537627282468 84.18539462716465  19.557537627282468 84.18539462716465  C 19.557537627282468 88.88764222986653  21.513293560986316 91.31460537283535  26.47789802477866 91.31460537283535  C 26.47789802477866 91.31460537283535  34 91.31460537283535  34 91.31460537283535  Z " fill-rule="evenodd" />
    </mask>
  </defs>
  <g transform="matrix(1 0 0 1 -642 -487 )">
    <path d="M 34 91.31460537283535  L 34 108  C 34 108  22.86726732916032 108  22.86726732916032 108  C 6.76991556404056 108  0 96.62360054214497  0 85.39888119507631  C 0 85.39888119507631  0 0  0 0  L 19.557537627282468 0  C 19.557537627282468 0  19.557537627282468 84.18539462716465  19.557537627282468 84.18539462716465  C 19.557537627282468 88.88764222986653  21.513293560986316 91.31460537283535  26.47789802477866 91.31460537283535  C 26.47789802477866 91.31460537283535  34 91.31460537283535  34 91.31460537283535  Z " fill-rule="nonzero" fill="rgba(255, 255, 255, 1)" stroke="none" transform="matrix(1 0 0 1 642 487 )" class="fill" />
    <path d="M 34 91.31460537283535  L 34 108  C 34 108  22.86726732916032 108  22.86726732916032 108  C 6.76991556404056 108  0 96.62360054214497  0 85.39888119507631  C 0 85.39888119507631  0 0  0 0  L 19.557537627282468 0  C 19.557537627282468 0  19.557537627282468 84.18539462716465  19.557537627282468 84.18539462716465  C 19.557537627282468 88.88764222986653  21.513293560986316 91.31460537283535  26.47789802477866 91.31460537283535  C 26.47789802477866 91.31460537283535  34 91.31460537283535  34 91.31460537283535  Z " stroke-width="0" stroke-dasharray="0" stroke="rgba(121, 121, 121, 1)" fill="none" transform="matrix(1 0 0 1 642 487 )" class="stroke" mask="url(#Clip4251)" />
  </g>
</svg>