<?xml version="1.0" encoding="utf-8"?>
<svg version="1.1" xmlns:xlink="http://www.w3.org/1999/xlink" width="31px" height="137px" xmlns="http://www.w3.org/2000/svg">
  <defs>
    <pattern id="BGPattern" patternUnits="userSpaceOnUse" alignment="0 0" imageRepeat="None" />
    <mask fill="white" id="Clip4246">
      <path d="M 22.363098424976624 113.55778117357708  C 24.984989400706006 117.9722255119028  27.298504794404412 120.10333444757997  31 123.75666794009142  C 31 123.75666794009142  17.582091400899785 137  17.582091400899785 137  C 12.49254066413086 131.97666698502286  7.55724049522139 127.25778785905698  4.009976746230252 121.32112087403412  C 0.4627129972391143 115.23223171984841  0 108.38223171984842  0 101.68445293394271  C 0 101.68445293394271  0 35.31556234715418  0 35.31556234715418  C 0 28.61778021850853  0.4627129972391143 21.767779263439976  4.009976746230252 15.678896317199879  C 7.55724049522139 9.742224556834246  12.49254066413086 5.023332059908593  17.582091400899785 0  C 17.582091400899785 0  31 13.243335880182816  31 13.243335880182816  C 27.298504794404412 16.89666746255713  24.984989400706006 19.027779263439974  22.363098424976624 23.442230287245582  C 20.820809139009945 26.18223124231414  20.049759870865664 30.44445197887416  20.049759870865664 36.22889440706277  C 20.049759870865664 36.22889440706277  20.049759870865664 100.77111705375991  20.049759870865664 100.77111705375991  C 20.049759870865664 106.55556186961991  20.820809139009945 110.81778141234423  22.363098424976624 113.55778117357708  Z " fill-rule="evenodd" />
    </mask>
  </defs>
  <g transform="matrix(1 0 0 1 -1317 -472 )">
    <path d="M 22.363098424976624 113.55778117357708  C 24.984989400706006 117.9722255119028  27.298504794404412 120.10333444757997  31 123.75666794009142  C 31 123.75666794009142  17.582091400899785 137  17.582091400899785 137  C 12.49254066413086 131.97666698502286  7.55724049522139 127.25778785905698  4.009976746230252 121.32112087403412  C 0.4627129972391143 115.23223171984841  0 108.38223171984842  0 101.68445293394271  C 0 101.68445293394271  0 35.31556234715418  0 35.31556234715418  C 0 28.61778021850853  0.4627129972391143 21.767779263439976  4.009976746230252 15.678896317199879  C 7.55724049522139 9.742224556834246  12.49254066413086 5.023332059908593  17.582091400899785 0  C 17.582091400899785 0  31 13.243335880182816  31 13.243335880182816  C 27.298504794404412 16.89666746255713  24.984989400706006 19.027779263439974  22.363098424976624 23.442230287245582  C 20.820809139009945 26.18223124231414  20.049759870865664 30.44445197887416  20.049759870865664 36.22889440706277  C 20.049759870865664 36.22889440706277  20.049759870865664 100.77111705375991  20.049759870865664 100.77111705375991  C 20.049759870865664 106.55556186961991  20.820809139009945 110.81778141234423  22.363098424976624 113.55778117357708  Z " fill-rule="nonzero" fill="rgba(255, 255, 255, 1)" stroke="none" transform="matrix(1 0 0 1 1317 472 )" class="fill" />
    <path d="M 22.363098424976624 113.55778117357708  C 24.984989400706006 117.9722255119028  27.298504794404412 120.10333444757997  31 123.75666794009142  C 31 123.75666794009142  17.582091400899785 137  17.582091400899785 137  C 12.49254066413086 131.97666698502286  7.55724049522139 127.25778785905698  4.009976746230252 121.32112087403412  C 0.4627129972391143 115.23223171984841  0 108.38223171984842  0 101.68445293394271  C 0 101.68445293394271  0 35.31556234715418  0 35.31556234715418  C 0 28.61778021850853  0.4627129972391143 21.767779263439976  4.009976746230252 15.678896317199879  C 7.55724049522139 9.742224556834246  12.49254066413086 5.023332059908593  17.582091400899785 0  C 17.582091400899785 0  31 13.243335880182816  31 13.243335880182816  C 27.298504794404412 16.89666746255713  24.984989400706006 19.027779263439974  22.363098424976624 23.442230287245582  C 20.820809139009945 26.18223124231414  20.049759870865664 30.44445197887416  20.049759870865664 36.22889440706277  C 20.049759870865664 36.22889440706277  20.049759870865664 100.77111705375991  20.049759870865664 100.77111705375991  C 20.049759870865664 106.55556186961991  20.820809139009945 110.81778141234423  22.363098424976624 113.55778117357708  Z " stroke-width="0" stroke-dasharray="0" stroke="rgba(121, 121, 121, 1)" fill="none" transform="matrix(1 0 0 1 1317 472 )" class="stroke" mask="url(#Clip4246)" />
  </g>
</svg>