<?xml version="1.0" encoding="utf-8"?>
<svg version="1.1" xmlns:xlink="http://www.w3.org/1999/xlink" width="23px" height="32px" xmlns="http://www.w3.org/2000/svg">
  <defs>
    <pattern id="BGPattern" patternUnits="userSpaceOnUse" alignment="0 0" imageRepeat="None" />
    <mask fill="white" id="Clip4238">
      <path d="M 15 24  L 0 24  L 0 0  L 14.64515636151833 0  L 14.64515636151833 4.0161944440109725  L 4.7741843523630605 4.0161944440109725  L 4.7741843523630605 9.554657615984919  L 13.129030041756565 9.554657615984919  L 13.129030041756565 13.570850129481228  L 4.7741843523630605 13.570850129481228  L 4.7741843523630605 20  L 15 20  L 15 24  Z " fill-rule="evenodd" />
    </mask>
  </defs>
  <g transform="matrix(1 0 0 1 -1223 -703 )">
    <path d="M 15 24  L 0 24  L 0 0  L 14.64515636151833 0  L 14.64515636151833 4.0161944440109725  L 4.7741843523630605 4.0161944440109725  L 4.7741843523630605 9.554657615984919  L 13.129030041756565 9.554657615984919  L 13.129030041756565 13.570850129481228  L 4.7741843523630605 13.570850129481228  L 4.7741843523630605 20  L 15 20  L 15 24  Z " fill-rule="nonzero" fill="rgba(255, 255, 255, 1)" stroke="none" transform="matrix(1 0 0 1 1227 703 )" class="fill" />
    <path d="M 15 24  L 0 24  L 0 0  L 14.64515636151833 0  L 14.64515636151833 4.0161944440109725  L 4.7741843523630605 4.0161944440109725  L 4.7741843523630605 9.554657615984919  L 13.129030041756565 9.554657615984919  L 13.129030041756565 13.570850129481228  L 4.7741843523630605 13.570850129481228  L 4.7741843523630605 20  L 15 20  L 15 24  Z " stroke-width="0" stroke-dasharray="0" stroke="rgba(121, 121, 121, 1)" fill="none" transform="matrix(1 0 0 1 1227 703 )" class="stroke" mask="url(#Clip4238)" />
  </g>
  <style>svg { filter: drop-shadow(0px 4px 2px rgba(0, 0, 0, 0.25098039215686274)); }</style>
</svg>