<?xml version="1.0" encoding="utf-8"?>
<svg version="1.1" xmlns:xlink="http://www.w3.org/1999/xlink" width="10px" height="16px" xmlns="http://www.w3.org/2000/svg">
  <defs>
    <pattern id="BGPattern" patternUnits="userSpaceOnUse" alignment="0 0" imageRepeat="None" />
    <mask fill="white" id="Clip4272">
      <path d="M 10 14.471909866090469  L 10 16  L 0 16  L 0 0  L 10 0  L 10 1.5280891597784947  L 1.719454173414178 1.5280891597784947  L 1.719454173414178 7.168539707559774  L 8.778292471660453 7.168539707559774  L 8.778292471660453 8.69662886733827  L 1.719454173414178 8.69662886733827  L 1.719454173414178 14.471909866090469  L 10 14.471909866090469  Z " fill-rule="evenodd" />
    </mask>
  </defs>
  <g transform="matrix(1 0 0 1 -515 -376 )">
    <path d="M 10 14.471909866090469  L 10 16  L 0 16  L 0 0  L 10 0  L 10 1.5280891597784947  L 1.719454173414178 1.5280891597784947  L 1.719454173414178 7.168539707559774  L 8.778292471660453 7.168539707559774  L 8.778292471660453 8.69662886733827  L 1.719454173414178 8.69662886733827  L 1.719454173414178 14.471909866090469  L 10 14.471909866090469  Z " fill-rule="nonzero" fill="rgba(255, 255, 255, 1)" stroke="none" transform="matrix(1 0 0 1 515 376 )" class="fill" />
    <path d="M 10 14.471909866090469  L 10 16  L 0 16  L 0 0  L 10 0  L 10 1.5280891597784947  L 1.719454173414178 1.5280891597784947  L 1.719454173414178 7.168539707559774  L 8.778292471660453 7.168539707559774  L 8.778292471660453 8.69662886733827  L 1.719454173414178 8.69662886733827  L 1.719454173414178 14.471909866090469  L 10 14.471909866090469  Z " stroke-width="0" stroke-dasharray="0" stroke="rgba(121, 121, 121, 1)" fill="none" transform="matrix(1 0 0 1 515 376 )" class="stroke" mask="url(#Clip4272)" />
  </g>
</svg>