<?xml version="1.0" encoding="utf-8"?>
<svg version="1.1" xmlns:xlink="http://www.w3.org/1999/xlink" width="101px" height="103px" xmlns="http://www.w3.org/2000/svg">
  <defs>
    <pattern id="BGPattern" patternUnits="userSpaceOnUse" alignment="0 0" imageRepeat="None" />
    <mask fill="white" id="Clip4241">
      <path d="M 24 63  L 24 0  L 38 0  L 38 63  L 24 63  Z M 63 63  L 63 0  L 77 0  L 77 63  L 63 63  Z M 0 67  L 0 54  L 101 54  L 101 67  L 0 67  Z M 4 34  L 4 21  L 97 21  L 97 34  L 4 34  Z M 68.54754761037378 86.33011807979828  C 64.86813002552682 83.23901409845212  61.372669467484236 80.44230091550128  58.06119751693362 77.93997853094577  C 58.06119751693362 77.93997853094577  70.09288061200094 71.31618616524631  70.09288061200094 71.31618616524631  C 73.25718225185445 73.5977153911858  76.71585776852321 76.17363158707084  80.46886290119507 79.04394264907909  C 84.29545534244419 81.84065583202992  87.97487484127223 84.67416855270474  91.50711326325964 87.54447937543489  C 95.0393562309521 90.41478995888691  97.94609822357542 92.99070663332817  100.22733349918643 95.27223585926767  C 100.22733349918643 95.27223585926767  87.09181924317323 103  87.09181924317323 103  C 85.10493344111889 100.79206865311791  82.4189308849498 98.21614432177712  79.0338670801169 95.27223585926767  C 75.72239082310888 92.32832715748012  72.22696519522077 89.34762442136513  68.54754761037378 86.33011807979828  Z M 21.083067991126406 79.48553135909223  C 24.17377777669761 76.76241557664258  26.67577772938817 74.18649100602367  28.589073950012725 71.75776721835992  C 28.589073950012725 71.75776721835992  42.718020939028676 77.16719828842277  42.718020939028676 77.16719828842277  C 39.92166301949047 80.33190014882635  36.794183743641604 83.49660799118267  33.33553263023144 86.66130961230813  C 29.87688151682128 89.82601123343359  26.271054590018434 92.80671420882669  22.51804850035604 95.60342739177753  C 18.765043367684175 98.47373821450768  15.08561190647447 100.93926417195463  11.479782826442925 103  C 10.59672322094607 102.04323002485425  9.492894631912257 100.97606071870224  8.168304655453845 99.79849716620379  C 6.84371408087635 98.62093361370533  5.51913307620419 97.48017330774157  4.194543099745777 96.37620763430053  C 2.9435416281027904 95.34583972027785  1.7661239959463777 94.46266786346763  0.6622986965675232 93.72669068802075  C 4.194539032536011 91.81315013953399  7.726776019037631 89.64201234842312  11.259016594253753 87.21328784292503  C 14.791256212479338 84.78456333742693  18.065945514132455 82.20864666298566  21.083067991126406 79.48553135909223  Z " fill-rule="evenodd" />
    </mask>
  </defs>
  <g transform="matrix(1 0 0 1 -464 -633 )">
    <path d="M 24 63  L 24 0  L 38 0  L 38 63  L 24 63  Z M 63 63  L 63 0  L 77 0  L 77 63  L 63 63  Z M 0 67  L 0 54  L 101 54  L 101 67  L 0 67  Z M 4 34  L 4 21  L 97 21  L 97 34  L 4 34  Z M 68.54754761037378 86.33011807979828  C 64.86813002552682 83.23901409845212  61.372669467484236 80.44230091550128  58.06119751693362 77.93997853094577  C 58.06119751693362 77.93997853094577  70.09288061200094 71.31618616524631  70.09288061200094 71.31618616524631  C 73.25718225185445 73.5977153911858  76.71585776852321 76.17363158707084  80.46886290119507 79.04394264907909  C 84.29545534244419 81.84065583202992  87.97487484127223 84.67416855270474  91.50711326325964 87.54447937543489  C 95.0393562309521 90.41478995888691  97.94609822357542 92.99070663332817  100.22733349918643 95.27223585926767  C 100.22733349918643 95.27223585926767  87.09181924317323 103  87.09181924317323 103  C 85.10493344111889 100.79206865311791  82.4189308849498 98.21614432177712  79.0338670801169 95.27223585926767  C 75.72239082310888 92.32832715748012  72.22696519522077 89.34762442136513  68.54754761037378 86.33011807979828  Z M 21.083067991126406 79.48553135909223  C 24.17377777669761 76.76241557664258  26.67577772938817 74.18649100602367  28.589073950012725 71.75776721835992  C 28.589073950012725 71.75776721835992  42.718020939028676 77.16719828842277  42.718020939028676 77.16719828842277  C 39.92166301949047 80.33190014882635  36.794183743641604 83.49660799118267  33.33553263023144 86.66130961230813  C 29.87688151682128 89.82601123343359  26.271054590018434 92.80671420882669  22.51804850035604 95.60342739177753  C 18.765043367684175 98.47373821450768  15.08561190647447 100.93926417195463  11.479782826442925 103  C 10.59672322094607 102.04323002485425  9.492894631912257 100.97606071870224  8.168304655453845 99.79849716620379  C 6.84371408087635 98.62093361370533  5.51913307620419 97.48017330774157  4.194543099745777 96.37620763430053  C 2.9435416281027904 95.34583972027785  1.7661239959463777 94.46266786346763  0.6622986965675232 93.72669068802075  C 4.194539032536011 91.81315013953399  7.726776019037631 89.64201234842312  11.259016594253753 87.21328784292503  C 14.791256212479338 84.78456333742693  18.065945514132455 82.20864666298566  21.083067991126406 79.48553135909223  Z " fill-rule="nonzero" fill="rgba(255, 255, 255, 1)" stroke="none" transform="matrix(1 0 0 1 464 633 )" class="fill" />
    <path d="M 24 63  L 24 0  L 38 0  L 38 63  L 24 63  Z " stroke-width="0" stroke-dasharray="0" stroke="rgba(121, 121, 121, 1)" fill="none" transform="matrix(1 0 0 1 464 633 )" class="stroke" mask="url(#Clip4241)" />
    <path d="M 63 63  L 63 0  L 77 0  L 77 63  L 63 63  Z " stroke-width="0" stroke-dasharray="0" stroke="rgba(121, 121, 121, 1)" fill="none" transform="matrix(1 0 0 1 464 633 )" class="stroke" mask="url(#Clip4241)" />
    <path d="M 0 67  L 0 54  L 101 54  L 101 67  L 0 67  Z " stroke-width="0" stroke-dasharray="0" stroke="rgba(121, 121, 121, 1)" fill="none" transform="matrix(1 0 0 1 464 633 )" class="stroke" mask="url(#Clip4241)" />
    <path d="M 4 34  L 4 21  L 97 21  L 97 34  L 4 34  Z " stroke-width="0" stroke-dasharray="0" stroke="rgba(121, 121, 121, 1)" fill="none" transform="matrix(1 0 0 1 464 633 )" class="stroke" mask="url(#Clip4241)" />
    <path d="M 68.54754761037378 86.33011807979828  C 64.86813002552682 83.23901409845212  61.372669467484236 80.44230091550128  58.06119751693362 77.93997853094577  C 58.06119751693362 77.93997853094577  70.09288061200094 71.31618616524631  70.09288061200094 71.31618616524631  C 73.25718225185445 73.5977153911858  76.71585776852321 76.17363158707084  80.46886290119507 79.04394264907909  C 84.29545534244419 81.84065583202992  87.97487484127223 84.67416855270474  91.50711326325964 87.54447937543489  C 95.0393562309521 90.41478995888691  97.94609822357542 92.99070663332817  100.22733349918643 95.27223585926767  C 100.22733349918643 95.27223585926767  87.09181924317323 103  87.09181924317323 103  C 85.10493344111889 100.79206865311791  82.4189308849498 98.21614432177712  79.0338670801169 95.27223585926767  C 75.72239082310888 92.32832715748012  72.22696519522077 89.34762442136513  68.54754761037378 86.33011807979828  Z " stroke-width="0" stroke-dasharray="0" stroke="rgba(121, 121, 121, 1)" fill="none" transform="matrix(1 0 0 1 464 633 )" class="stroke" mask="url(#Clip4241)" />
    <path d="M 21.083067991126406 79.48553135909223  C 24.17377777669761 76.76241557664258  26.67577772938817 74.18649100602367  28.589073950012725 71.75776721835992  C 28.589073950012725 71.75776721835992  42.718020939028676 77.16719828842277  42.718020939028676 77.16719828842277  C 39.92166301949047 80.33190014882635  36.794183743641604 83.49660799118267  33.33553263023144 86.66130961230813  C 29.87688151682128 89.82601123343359  26.271054590018434 92.80671420882669  22.51804850035604 95.60342739177753  C 18.765043367684175 98.47373821450768  15.08561190647447 100.93926417195463  11.479782826442925 103  C 10.59672322094607 102.04323002485425  9.492894631912257 100.97606071870224  8.168304655453845 99.79849716620379  C 6.84371408087635 98.62093361370533  5.51913307620419 97.48017330774157  4.194543099745777 96.37620763430053  C 2.9435416281027904 95.34583972027785  1.7661239959463777 94.46266786346763  0.6622986965675232 93.72669068802075  C 4.194539032536011 91.81315013953399  7.726776019037631 89.64201234842312  11.259016594253753 87.21328784292503  C 14.791256212479338 84.78456333742693  18.065945514132455 82.20864666298566  21.083067991126406 79.48553135909223  Z " stroke-width="0" stroke-dasharray="0" stroke="rgba(121, 121, 121, 1)" fill="none" transform="matrix(1 0 0 1 464 633 )" class="stroke" mask="url(#Clip4241)" />
  </g>
</svg>