<?xml version="1.0" encoding="utf-8"?>
<svg version="1.1" xmlns:xlink="http://www.w3.org/1999/xlink" width="12px" height="16px" xmlns="http://www.w3.org/2000/svg">
  <defs>
    <pattern id="BGPattern" patternUnits="userSpaceOnUse" alignment="0 0" imageRepeat="None" />
    <mask fill="white" id="Clip4275">
      <path d="M 6.236392855981002 6.179775274058069  L 12 16  L 9.973721981847165 16  L 5.0881811379680535 7.48314604142066  L 1.711066723055402 11.528089768610393  L 1.711066723055402 16  L 0 16  L 0 0  L 1.711066723055402 0  L 1.711066723055402 9.191011084089123  L 9.185740590129804 0  L 11.279539347408829 0  L 6.236392855981002 6.179775274058069  Z " fill-rule="evenodd" />
    </mask>
  </defs>
  <g transform="matrix(1 0 0 1 -467 -376 )">
    <path d="M 6.236392855981002 6.179775274058069  L 12 16  L 9.973721981847165 16  L 5.0881811379680535 7.48314604142066  L 1.711066723055402 11.528089768610393  L 1.711066723055402 16  L 0 16  L 0 0  L 1.711066723055402 0  L 1.711066723055402 9.191011084089123  L 9.185740590129804 0  L 11.279539347408829 0  L 6.236392855981002 6.179775274058069  Z " fill-rule="nonzero" fill="rgba(255, 255, 255, 1)" stroke="none" transform="matrix(1 0 0 1 467 376 )" class="fill" />
    <path d="M 6.236392855981002 6.179775274058069  L 12 16  L 9.973721981847165 16  L 5.0881811379680535 7.48314604142066  L 1.711066723055402 11.528089768610393  L 1.711066723055402 16  L 0 16  L 0 0  L 1.711066723055402 0  L 1.711066723055402 9.191011084089123  L 9.185740590129804 0  L 11.279539347408829 0  L 6.236392855981002 6.179775274058069  Z " stroke-width="0" stroke-dasharray="0" stroke="rgba(121, 121, 121, 1)" fill="none" transform="matrix(1 0 0 1 467 376 )" class="stroke" mask="url(#Clip4275)" />
  </g>
</svg>