<?xml version="1.0" encoding="utf-8"?>
<svg version="1.1" xmlns:xlink="http://www.w3.org/1999/xlink" width="27px" height="32px" xmlns="http://www.w3.org/2000/svg">
  <defs>
    <pattern id="BGPattern" patternUnits="userSpaceOnUse" alignment="0 0" imageRepeat="None" />
    <mask fill="white" id="Clip4237">
      <path d="M 4.9565219038080786 24  L 0 24  L 6.576923076923077 11.659918606284243  L 0.3494994805027043 0  L 5.591972750114226 0  C 5.591972750114226 0  7.943143153998455 4.987855293125325  7.943143153998455 4.987855293125325  C 8.218505702272731 5.5276658034584845  8.493868871947804 6.110661263209748  8.76923076923077 6.736841732707696  C 9.044593317505045 7.34143132620405  9.351729272137643 8.010797348405934  9.690636768926167 8.744939919970514  C 9.690636768926167 8.744939919970514  9.817725423153073 8.744939919970514  9.817725423153073 8.744939919970514  C 10.114270045062803 8.010797348405934  10.389632563746565 7.34143132620405  10.643813038385387 6.736841732707696  C 10.897993513024211 6.110661263209748  11.15217395807252 5.5276658034584845  11.406354432711346 4.987855293125325  C 11.406354432711346 4.987855293125325  13.630434288575763 0  13.630434288575763 0  L 18.58695619238384 0  L 12.391302865727292 11.854251934415911  L 19 24  L 13.7892970001523 24  C 13.7892970001523 24  11.152175230464628 18.68825840067478  11.152175230464628 18.68825840067478  C 10.876812682190353 18.083670134407257  10.580268711271934 17.45749063016664  10.262543288118861 16.809717052509516  C 9.965998666209135 16.161944138466808  9.648272000254465 15.470985551062999  9.309365124866737 14.736842376212584  C 9.309365124866737 14.736842376212584  9.182274576846925 14.736842376212584  9.182274576846925 14.736842376212584  C 8.88573060592851 15.470985551062999  8.599777346332163 16.161944138466808  8.324414798057886 16.809717052509516  C 8.049052249783609 17.45749063016664  7.763098990187262 18.083670134407257  7.466555019268845 18.68825840067478  C 7.466555019268845 18.68825840067478  4.9565219038080786 24  4.9565219038080786 24  Z " fill-rule="evenodd" />
    </mask>
  </defs>
  <g transform="matrix(1 0 0 1 -1240 -703 )">
    <path d="M 4.9565219038080786 24  L 0 24  L 6.576923076923077 11.659918606284243  L 0.3494994805027043 0  L 5.591972750114226 0  C 5.591972750114226 0  7.943143153998455 4.987855293125325  7.943143153998455 4.987855293125325  C 8.218505702272731 5.5276658034584845  8.493868871947804 6.110661263209748  8.76923076923077 6.736841732707696  C 9.044593317505045 7.34143132620405  9.351729272137643 8.010797348405934  9.690636768926167 8.744939919970514  C 9.690636768926167 8.744939919970514  9.817725423153073 8.744939919970514  9.817725423153073 8.744939919970514  C 10.114270045062803 8.010797348405934  10.389632563746565 7.34143132620405  10.643813038385387 6.736841732707696  C 10.897993513024211 6.110661263209748  11.15217395807252 5.5276658034584845  11.406354432711346 4.987855293125325  C 11.406354432711346 4.987855293125325  13.630434288575763 0  13.630434288575763 0  L 18.58695619238384 0  L 12.391302865727292 11.854251934415911  L 19 24  L 13.7892970001523 24  C 13.7892970001523 24  11.152175230464628 18.68825840067478  11.152175230464628 18.68825840067478  C 10.876812682190353 18.083670134407257  10.580268711271934 17.45749063016664  10.262543288118861 16.809717052509516  C 9.965998666209135 16.161944138466808  9.648272000254465 15.470985551062999  9.309365124866737 14.736842376212584  C 9.309365124866737 14.736842376212584  9.182274576846925 14.736842376212584  9.182274576846925 14.736842376212584  C 8.88573060592851 15.470985551062999  8.599777346332163 16.161944138466808  8.324414798057886 16.809717052509516  C 8.049052249783609 17.45749063016664  7.763098990187262 18.083670134407257  7.466555019268845 18.68825840067478  C 7.466555019268845 18.68825840067478  4.9565219038080786 24  4.9565219038080786 24  Z " fill-rule="nonzero" fill="rgba(255, 255, 255, 1)" stroke="none" transform="matrix(1 0 0 1 1244 703 )" class="fill" />
    <path d="M 4.9565219038080786 24  L 0 24  L 6.576923076923077 11.659918606284243  L 0.3494994805027043 0  L 5.591972750114226 0  C 5.591972750114226 0  7.943143153998455 4.987855293125325  7.943143153998455 4.987855293125325  C 8.218505702272731 5.5276658034584845  8.493868871947804 6.110661263209748  8.76923076923077 6.736841732707696  C 9.044593317505045 7.34143132620405  9.351729272137643 8.010797348405934  9.690636768926167 8.744939919970514  C 9.690636768926167 8.744939919970514  9.817725423153073 8.744939919970514  9.817725423153073 8.744939919970514  C 10.114270045062803 8.010797348405934  10.389632563746565 7.34143132620405  10.643813038385387 6.736841732707696  C 10.897993513024211 6.110661263209748  11.15217395807252 5.5276658034584845  11.406354432711346 4.987855293125325  C 11.406354432711346 4.987855293125325  13.630434288575763 0  13.630434288575763 0  L 18.58695619238384 0  L 12.391302865727292 11.854251934415911  L 19 24  L 13.7892970001523 24  C 13.7892970001523 24  11.152175230464628 18.68825840067478  11.152175230464628 18.68825840067478  C 10.876812682190353 18.083670134407257  10.580268711271934 17.45749063016664  10.262543288118861 16.809717052509516  C 9.965998666209135 16.161944138466808  9.648272000254465 15.470985551062999  9.309365124866737 14.736842376212584  C 9.309365124866737 14.736842376212584  9.182274576846925 14.736842376212584  9.182274576846925 14.736842376212584  C 8.88573060592851 15.470985551062999  8.599777346332163 16.161944138466808  8.324414798057886 16.809717052509516  C 8.049052249783609 17.45749063016664  7.763098990187262 18.083670134407257  7.466555019268845 18.68825840067478  C 7.466555019268845 18.68825840067478  4.9565219038080786 24  4.9565219038080786 24  Z " stroke-width="0" stroke-dasharray="0" stroke="rgba(121, 121, 121, 1)" fill="none" transform="matrix(1 0 0 1 1244 703 )" class="stroke" mask="url(#Clip4237)" />
  </g>
  <style>svg { filter: drop-shadow(0px 4px 2px rgba(0, 0, 0, 0.25098039215686274)); }</style>
</svg>