<?xml version="1.0" encoding="utf-8"?>
<svg version="1.1" xmlns:xlink="http://www.w3.org/1999/xlink" width="12px" height="16px" xmlns="http://www.w3.org/2000/svg">
  <defs>
    <pattern id="BGPattern" patternUnits="userSpaceOnUse" alignment="0 0" imageRepeat="None" />
    <mask fill="white" id="Clip4270">
      <path d="M 12 0  L 12 16  L 10.357402054895672 16  L 1.7338340471317961 3.168538489895978  L 1.7338340471317961 16  L 0 16  L 0 0  L 1.642597945104327 0  L 10.266165952868203 12.786517052316011  L 10.266165952868203 0  L 12 0  Z " fill-rule="evenodd" />
    </mask>
  </defs>
  <g transform="matrix(1 0 0 1 -556 -376 )">
    <path d="M 12 0  L 12 16  L 10.357402054895672 16  L 1.7338340471317961 3.168538489895978  L 1.7338340471317961 16  L 0 16  L 0 0  L 1.642597945104327 0  L 10.266165952868203 12.786517052316011  L 10.266165952868203 0  L 12 0  Z " fill-rule="nonzero" fill="rgba(255, 255, 255, 1)" stroke="none" transform="matrix(1 0 0 1 556 376 )" class="fill" />
    <path d="M 12 0  L 12 16  L 10.357402054895672 16  L 1.7338340471317961 3.168538489895978  L 1.7338340471317961 16  L 0 16  L 0 0  L 1.642597945104327 0  L 10.266165952868203 12.786517052316011  L 10.266165952868203 0  L 12 0  Z " stroke-width="0" stroke-dasharray="0" stroke="rgba(121, 121, 121, 1)" fill="none" transform="matrix(1 0 0 1 556 376 )" class="stroke" mask="url(#Clip4270)" />
  </g>
</svg>