<?xml version="1.0" encoding="utf-8"?>
<svg version="1.1" xmlns:xlink="http://www.w3.org/1999/xlink" width="102px" height="103px" xmlns="http://www.w3.org/2000/svg">
  <defs>
    <pattern id="BGPattern" patternUnits="userSpaceOnUse" alignment="0 0" imageRepeat="None" />
    <mask fill="white" id="Clip4239">
      <path d="M 47.909074204183106 56  L 47.909074204183106 48  L 100.78569241023978 48  L 100.78569241023978 56  L 47.909074204183106 56  Z M 45.48052027599128 101  L 45.48052027599128 92  L 102 92  L 102 101  L 45.48052027599128 101  Z M 62 15.121277626579511  L 62 0  L 71 0  L 71 15.121277626579511  L 62 15.121277626579511  Z M 76 15.121277626579511  L 76 0  L 85 0  L 85 15.121277626579511  L 76 15.121277626579511  Z M 85.88312165594769 67  L 62.25970923634005 67  L 62.25970923634005 73  L 85.88312165594769 73  L 85.88312165594769 67  Z M 51 80  L 51 59  L 97 59  L 97 80  L 51 80  Z M 88.42205047830082 31  L 59.83115530814823 31  L 59.83115530814823 36  L 88.42205047830082 36  L 88.42205047830082 31  Z M 88.42205047830082 18  L 59.83115530814823 18  L 59.83115530814823 23  L 88.42205047830082 23  L 88.42205047830082 18  Z M 51 44  L 51 10  L 98 10  L 98 44  L 51 44  Z M 58.83765875803924 89.96063453835708  C 57.88094811694388 87.47694662541333  56.81384511548803 85.24893352996179  55.63635806806104 83.27659299578796  C 55.63635806806104 83.27659299578796  64.57788827037056 80.09893103625106  64.57788827037056 80.09893103625106  C 65.90256393529653 81.99822187703025  67.04328935890463 84.11666642917041  68 86.45425495532487  C 69.03030273666207 88.7918437189756  69.72940303036444 90.87375505267529  70.0973679943793 92.69999620005984  C 70.0973679943793 92.69999620005984  60.603902069934605 96.3159584574309  60.603902069934605 96.3159584574309  C 60.38312572341872 94.56276700344097  59.794369399134595 92.44432245130082  58.83765875803924 89.96063453835708  Z M 80.14283089228773 86.67340510424195  C 81.17313362894981 84.11666761665171  81.94586071135424 81.88865440245203  82.46100992631825 79.98936356167285  C 82.46100992631825 79.98936356167285  93.27921958601308 82.50957507445854  93.27921958601308 82.50957507445854  C 91.88094745897061 84.92021341275577  90.4826900466028 87.33084605114277  89.08442234592589 89.74148438944  C 87.75974668099992 92.07907315309073  86.54545572001838 94.0879412057948  85.44156082797384 95.76808308513822  C 85.44156082797384 95.76808308513822  77.16234124196076 93.24787157235252  77.16234124196076 93.24787157235252  C 78.19264397862283 91.34858073157334  79.18612025119238 89.15709325468194  80.14283089228773 86.67340510424195  Z M 12.915577654074113 70  L 12.915577654074113 61  L 37.090895170152585 61  L 37.090895170152585 70  L 12.915577654074113 70  Z M 12.915577654074113 84  L 12.915577654074113 75  L 37.090895170152585 75  L 37.090895170152585 84  L 12.915577654074113 84  Z M 7 103  L 7 49  L 36.53895944801744 49  L 36.53895944801744 57  L 18 57  L 18 103  L 7 103  Z M 29.584422345925887 91.82340320427187  C 29.584422345925887 91.82340320427187  29.584422345925887 49  29.584422345925887 49  L 40.844162207930246 49  C 40.844162207930246 49  40.844162207930246 91.9329782787304  40.844162207930246 91.9329782787304  C 40.844162207930246 94.34361661702765  40.62337805545891 96.24290852654  40.18182096596948 97.63085175105302  C 39.740261693205156 99.0918449064569  38.746754854787056 100.26063548834212  37.201300689978204 101.1372313340852  C 35.7294386805518 102.0138266454617  33.99998755832387 102.52517519686941  32.01297627411771 102.67127477662439  C 30.099554991926983 102.89042360446852  27.85497648748401 103  25.279219586013078 103  C 25.058441041268363 101.53900684459609  24.653688298997682 99.82234219664764  24.06494262191717 97.85000189997008  C 23.54979125358613 95.9507110591909  22.92425434389018 94.34361507330195  22.18832441586049 93.02872142343544  C 23.51300008078645 93.10177107229953  24.764071627179828 93.13829649789399  25.94156082797384 93.13829649789399  C 27.11905002876786 93.13829649789399  27.928557666676237 93.13829649789399  28.370114756165666 93.13829649789399  C 29.179638992944838 93.0652468490299  29.584422345925887 92.62694929724626  29.584422345925887 91.82340320427187  Z M 7 38.898934836191216  L 7 4  L 42 4  L 42 39  L 32 39  L 32 13  L 16 13  L 16 38.898934836191216  L 7 38.898934836191216  Z M 0 51.93830029783415  L 0 35  L 48 35  L 48 52  L 37.97401682610027 52  L 37.97401682610027 44  L 9.493496550108992 44  L 9.493496550108992 51.93830029783415  L 0 51.93830029783415  Z M 20 37.693616617027644  L 20 18  L 37.863641931938965 18  L 37.863641931938965 25  L 27 25  L 27 37.693616617027644  L 20 37.693616617027644  Z M 64 39.446810208483896  L 64 12.929783737289108  L 71 12.929783737289108  L 71 39.446810208483896  L 64 39.446810208483896  Z M 76 39.446810208483896  L 76 12.929783737289108  L 83 12.929783737289108  L 83 39.446810208483896  L 76 39.446810208483896  Z " fill-rule="evenodd" />
    </mask>
  </defs>
  <g transform="matrix(1 0 0 1 -693 -633 )">
    <path d="M 47.909074204183106 56  L 47.909074204183106 48  L 100.78569241023978 48  L 100.78569241023978 56  L 47.909074204183106 56  Z M 45.48052027599128 101  L 45.48052027599128 92  L 102 92  L 102 101  L 45.48052027599128 101  Z M 62 15.121277626579511  L 62 0  L 71 0  L 71 15.121277626579511  L 62 15.121277626579511  Z M 76 15.121277626579511  L 76 0  L 85 0  L 85 15.121277626579511  L 76 15.121277626579511  Z M 85.88312165594769 67  L 62.25970923634005 67  L 62.25970923634005 73  L 85.88312165594769 73  L 85.88312165594769 67  Z M 51 80  L 51 59  L 97 59  L 97 80  L 51 80  Z M 88.42205047830082 31  L 59.83115530814823 31  L 59.83115530814823 36  L 88.42205047830082 36  L 88.42205047830082 31  Z M 88.42205047830082 18  L 59.83115530814823 18  L 59.83115530814823 23  L 88.42205047830082 23  L 88.42205047830082 18  Z M 51 44  L 51 10  L 98 10  L 98 44  L 51 44  Z M 58.83765875803924 89.96063453835708  C 57.88094811694388 87.47694662541333  56.81384511548803 85.24893352996179  55.63635806806104 83.27659299578796  C 55.63635806806104 83.27659299578796  64.57788827037056 80.09893103625106  64.57788827037056 80.09893103625106  C 65.90256393529653 81.99822187703025  67.04328935890463 84.11666642917041  68 86.45425495532487  C 69.03030273666207 88.7918437189756  69.72940303036444 90.87375505267529  70.0973679943793 92.69999620005984  C 70.0973679943793 92.69999620005984  60.603902069934605 96.3159584574309  60.603902069934605 96.3159584574309  C 60.38312572341872 94.56276700344097  59.794369399134595 92.44432245130082  58.83765875803924 89.96063453835708  Z M 80.14283089228773 86.67340510424195  C 81.17313362894981 84.11666761665171  81.94586071135424 81.88865440245203  82.46100992631825 79.98936356167285  C 82.46100992631825 79.98936356167285  93.27921958601308 82.50957507445854  93.27921958601308 82.50957507445854  C 91.88094745897061 84.92021341275577  90.4826900466028 87.33084605114277  89.08442234592589 89.74148438944  C 87.75974668099992 92.07907315309073  86.54545572001838 94.0879412057948  85.44156082797384 95.76808308513822  C 85.44156082797384 95.76808308513822  77.16234124196076 93.24787157235252  77.16234124196076 93.24787157235252  C 78.19264397862283 91.34858073157334  79.18612025119238 89.15709325468194  80.14283089228773 86.67340510424195  Z M 12.915577654074113 70  L 12.915577654074113 61  L 37.090895170152585 61  L 37.090895170152585 70  L 12.915577654074113 70  Z M 12.915577654074113 84  L 12.915577654074113 75  L 37.090895170152585 75  L 37.090895170152585 84  L 12.915577654074113 84  Z M 7 103  L 7 49  L 36.53895944801744 49  L 36.53895944801744 57  L 18 57  L 18 103  L 7 103  Z M 29.584422345925887 91.82340320427187  C 29.584422345925887 91.82340320427187  29.584422345925887 49  29.584422345925887 49  L 40.844162207930246 49  C 40.844162207930246 49  40.844162207930246 91.9329782787304  40.844162207930246 91.9329782787304  C 40.844162207930246 94.34361661702765  40.62337805545891 96.24290852654  40.18182096596948 97.63085175105302  C 39.740261693205156 99.0918449064569  38.746754854787056 100.26063548834212  37.201300689978204 101.1372313340852  C 35.7294386805518 102.0138266454617  33.99998755832387 102.52517519686941  32.01297627411771 102.67127477662439  C 30.099554991926983 102.89042360446852  27.85497648748401 103  25.279219586013078 103  C 25.058441041268363 101.53900684459609  24.653688298997682 99.82234219664764  24.06494262191717 97.85000189997008  C 23.54979125358613 95.9507110591909  22.92425434389018 94.34361507330195  22.18832441586049 93.02872142343544  C 23.51300008078645 93.10177107229953  24.764071627179828 93.13829649789399  25.94156082797384 93.13829649789399  C 27.11905002876786 93.13829649789399  27.928557666676237 93.13829649789399  28.370114756165666 93.13829649789399  C 29.179638992944838 93.0652468490299  29.584422345925887 92.62694929724626  29.584422345925887 91.82340320427187  Z M 7 38.898934836191216  L 7 4  L 42 4  L 42 39  L 32 39  L 32 13  L 16 13  L 16 38.898934836191216  L 7 38.898934836191216  Z M 0 51.93830029783415  L 0 35  L 48 35  L 48 52  L 37.97401682610027 52  L 37.97401682610027 44  L 9.493496550108992 44  L 9.493496550108992 51.93830029783415  L 0 51.93830029783415  Z M 20 37.693616617027644  L 20 18  L 37.863641931938965 18  L 37.863641931938965 25  L 27 25  L 27 37.693616617027644  L 20 37.693616617027644  Z M 64 39.446810208483896  L 64 12.929783737289108  L 71 12.929783737289108  L 71 39.446810208483896  L 64 39.446810208483896  Z M 76 39.446810208483896  L 76 12.929783737289108  L 83 12.929783737289108  L 83 39.446810208483896  L 76 39.446810208483896  Z " fill-rule="nonzero" fill="rgba(255, 255, 255, 1)" stroke="none" transform="matrix(1 0 0 1 693 633 )" class="fill" />
    <path d="M 47.909074204183106 56  L 47.909074204183106 48  L 100.78569241023978 48  L 100.78569241023978 56  L 47.909074204183106 56  Z " stroke-width="0" stroke-dasharray="0" stroke="rgba(121, 121, 121, 1)" fill="none" transform="matrix(1 0 0 1 693 633 )" class="stroke" mask="url(#Clip4239)" />
    <path d="M 45.48052027599128 101  L 45.48052027599128 92  L 102 92  L 102 101  L 45.48052027599128 101  Z " stroke-width="0" stroke-dasharray="0" stroke="rgba(121, 121, 121, 1)" fill="none" transform="matrix(1 0 0 1 693 633 )" class="stroke" mask="url(#Clip4239)" />
    <path d="M 62 15.121277626579511  L 62 0  L 71 0  L 71 15.121277626579511  L 62 15.121277626579511  Z " stroke-width="0" stroke-dasharray="0" stroke="rgba(121, 121, 121, 1)" fill="none" transform="matrix(1 0 0 1 693 633 )" class="stroke" mask="url(#Clip4239)" />
    <path d="M 76 15.121277626579511  L 76 0  L 85 0  L 85 15.121277626579511  L 76 15.121277626579511  Z " stroke-width="0" stroke-dasharray="0" stroke="rgba(121, 121, 121, 1)" fill="none" transform="matrix(1 0 0 1 693 633 )" class="stroke" mask="url(#Clip4239)" />
    <path d="M 85.88312165594769 67  L 62.25970923634005 67  L 62.25970923634005 73  L 85.88312165594769 73  L 85.88312165594769 67  Z " stroke-width="0" stroke-dasharray="0" stroke="rgba(121, 121, 121, 1)" fill="none" transform="matrix(1 0 0 1 693 633 )" class="stroke" mask="url(#Clip4239)" />
    <path d="M 51 80  L 51 59  L 97 59  L 97 80  L 51 80  Z " stroke-width="0" stroke-dasharray="0" stroke="rgba(121, 121, 121, 1)" fill="none" transform="matrix(1 0 0 1 693 633 )" class="stroke" mask="url(#Clip4239)" />
    <path d="M 88.42205047830082 31  L 59.83115530814823 31  L 59.83115530814823 36  L 88.42205047830082 36  L 88.42205047830082 31  Z " stroke-width="0" stroke-dasharray="0" stroke="rgba(121, 121, 121, 1)" fill="none" transform="matrix(1 0 0 1 693 633 )" class="stroke" mask="url(#Clip4239)" />
    <path d="M 88.42205047830082 18  L 59.83115530814823 18  L 59.83115530814823 23  L 88.42205047830082 23  L 88.42205047830082 18  Z " stroke-width="0" stroke-dasharray="0" stroke="rgba(121, 121, 121, 1)" fill="none" transform="matrix(1 0 0 1 693 633 )" class="stroke" mask="url(#Clip4239)" />
    <path d="M 51 44  L 51 10  L 98 10  L 98 44  L 51 44  Z " stroke-width="0" stroke-dasharray="0" stroke="rgba(121, 121, 121, 1)" fill="none" transform="matrix(1 0 0 1 693 633 )" class="stroke" mask="url(#Clip4239)" />
    <path d="M 58.83765875803924 89.96063453835708  C 57.88094811694388 87.47694662541333  56.81384511548803 85.24893352996179  55.63635806806104 83.27659299578796  C 55.63635806806104 83.27659299578796  64.57788827037056 80.09893103625106  64.57788827037056 80.09893103625106  C 65.90256393529653 81.99822187703025  67.04328935890463 84.11666642917041  68 86.45425495532487  C 69.03030273666207 88.7918437189756  69.72940303036444 90.87375505267529  70.0973679943793 92.69999620005984  C 70.0973679943793 92.69999620005984  60.603902069934605 96.3159584574309  60.603902069934605 96.3159584574309  C 60.38312572341872 94.56276700344097  59.794369399134595 92.44432245130082  58.83765875803924 89.96063453835708  Z " stroke-width="0" stroke-dasharray="0" stroke="rgba(121, 121, 121, 1)" fill="none" transform="matrix(1 0 0 1 693 633 )" class="stroke" mask="url(#Clip4239)" />
    <path d="M 80.14283089228773 86.67340510424195  C 81.17313362894981 84.11666761665171  81.94586071135424 81.88865440245203  82.46100992631825 79.98936356167285  C 82.46100992631825 79.98936356167285  93.27921958601308 82.50957507445854  93.27921958601308 82.50957507445854  C 91.88094745897061 84.92021341275577  90.4826900466028 87.33084605114277  89.08442234592589 89.74148438944  C 87.75974668099992 92.07907315309073  86.54545572001838 94.0879412057948  85.44156082797384 95.76808308513822  C 85.44156082797384 95.76808308513822  77.16234124196076 93.24787157235252  77.16234124196076 93.24787157235252  C 78.19264397862283 91.34858073157334  79.18612025119238 89.15709325468194  80.14283089228773 86.67340510424195  Z " stroke-width="0" stroke-dasharray="0" stroke="rgba(121, 121, 121, 1)" fill="none" transform="matrix(1 0 0 1 693 633 )" class="stroke" mask="url(#Clip4239)" />
    <path d="M 12.915577654074113 70  L 12.915577654074113 61  L 37.090895170152585 61  L 37.090895170152585 70  L 12.915577654074113 70  Z " stroke-width="0" stroke-dasharray="0" stroke="rgba(121, 121, 121, 1)" fill="none" transform="matrix(1 0 0 1 693 633 )" class="stroke" mask="url(#Clip4239)" />
    <path d="M 12.915577654074113 84  L 12.915577654074113 75  L 37.090895170152585 75  L 37.090895170152585 84  L 12.915577654074113 84  Z " stroke-width="0" stroke-dasharray="0" stroke="rgba(121, 121, 121, 1)" fill="none" transform="matrix(1 0 0 1 693 633 )" class="stroke" mask="url(#Clip4239)" />
    <path d="M 7 103  L 7 49  L 36.53895944801744 49  L 36.53895944801744 57  L 18 57  L 18 103  L 7 103  Z " stroke-width="0" stroke-dasharray="0" stroke="rgba(121, 121, 121, 1)" fill="none" transform="matrix(1 0 0 1 693 633 )" class="stroke" mask="url(#Clip4239)" />
    <path d="M 29.584422345925887 91.82340320427187  C 29.584422345925887 91.82340320427187  29.584422345925887 49  29.584422345925887 49  L 40.844162207930246 49  C 40.844162207930246 49  40.844162207930246 91.9329782787304  40.844162207930246 91.9329782787304  C 40.844162207930246 94.34361661702765  40.62337805545891 96.24290852654  40.18182096596948 97.63085175105302  C 39.740261693205156 99.0918449064569  38.746754854787056 100.26063548834212  37.201300689978204 101.1372313340852  C 35.7294386805518 102.0138266454617  33.99998755832387 102.52517519686941  32.01297627411771 102.67127477662439  C 30.099554991926983 102.89042360446852  27.85497648748401 103  25.279219586013078 103  C 25.058441041268363 101.53900684459609  24.653688298997682 99.82234219664764  24.06494262191717 97.85000189997008  C 23.54979125358613 95.9507110591909  22.92425434389018 94.34361507330195  22.18832441586049 93.02872142343544  C 23.51300008078645 93.10177107229953  24.764071627179828 93.13829649789399  25.94156082797384 93.13829649789399  C 27.11905002876786 93.13829649789399  27.928557666676237 93.13829649789399  28.370114756165666 93.13829649789399  C 29.179638992944838 93.0652468490299  29.584422345925887 92.62694929724626  29.584422345925887 91.82340320427187  Z " stroke-width="0" stroke-dasharray="0" stroke="rgba(121, 121, 121, 1)" fill="none" transform="matrix(1 0 0 1 693 633 )" class="stroke" mask="url(#Clip4239)" />
    <path d="M 7 38.898934836191216  L 7 4  L 42 4  L 42 39  L 32 39  L 32 13  L 16 13  L 16 38.898934836191216  L 7 38.898934836191216  Z " stroke-width="0" stroke-dasharray="0" stroke="rgba(121, 121, 121, 1)" fill="none" transform="matrix(1 0 0 1 693 633 )" class="stroke" mask="url(#Clip4239)" />
    <path d="M 0 51.93830029783415  L 0 35  L 48 35  L 48 52  L 37.97401682610027 52  L 37.97401682610027 44  L 9.493496550108992 44  L 9.493496550108992 51.93830029783415  L 0 51.93830029783415  Z " stroke-width="0" stroke-dasharray="0" stroke="rgba(121, 121, 121, 1)" fill="none" transform="matrix(1 0 0 1 693 633 )" class="stroke" mask="url(#Clip4239)" />
    <path d="M 20 37.693616617027644  L 20 18  L 37.863641931938965 18  L 37.863641931938965 25  L 27 25  L 27 37.693616617027644  L 20 37.693616617027644  Z " stroke-width="0" stroke-dasharray="0" stroke="rgba(121, 121, 121, 1)" fill="none" transform="matrix(1 0 0 1 693 633 )" class="stroke" mask="url(#Clip4239)" />
    <path d="M 64 39.446810208483896  L 64 12.929783737289108  L 71 12.929783737289108  L 71 39.446810208483896  L 64 39.446810208483896  Z " stroke-width="0" stroke-dasharray="0" stroke="rgba(121, 121, 121, 1)" fill="none" transform="matrix(1 0 0 1 693 633 )" class="stroke" mask="url(#Clip4239)" />
    <path d="M 76 39.446810208483896  L 76 12.929783737289108  L 83 12.929783737289108  L 83 39.446810208483896  L 76 39.446810208483896  Z " stroke-width="0" stroke-dasharray="0" stroke="rgba(121, 121, 121, 1)" fill="none" transform="matrix(1 0 0 1 693 633 )" class="stroke" mask="url(#Clip4239)" />
  </g>
</svg>