<?xml version="1.0" encoding="utf-8"?>
<svg version="1.1" xmlns:xlink="http://www.w3.org/1999/xlink" width="11px" height="16px" xmlns="http://www.w3.org/2000/svg">
  <defs>
    <pattern id="BGPattern" patternUnits="userSpaceOnUse" alignment="0 0" imageRepeat="None" />
    <mask fill="white" id="Clip4279">
      <path d="M 7.267063781663816 8.741573325126279  C 7.267063781663816 8.741573325126279  11 16  11 16  L 9.034142883405847 16  L 5.455816894425163 8.89887697912224  L 1.6787128905923578 8.89887697912224  L 1.6787128905923578 16  L 0 16  L 0 0  C 0 0  6.030120666506967 0  6.030120666506967 0  C 8.769077762627923 0  10.690764221210788 1.6853935443727341  10.690764221210788 4.449438976626639  C 10.690764221210788 6.786516930549632  9.299194359739113 8.314607186225544  7.267063781663816 8.741573325126279  Z M 5.875495117073252 7.393258099975677  C 7.7088296073916585 7.393258099975677  9.01205133061843 6.426965895367976  9.01205133061843 4.471910231389607  C 9.01205133061843 2.51685383681296  7.7088296073916585 1.5280891597784947  5.875495117073252 1.5280891597784947  C 5.875495117073252 1.5280891597784947  1.6787128905923578 1.5280891597784947  1.6787128905923578 1.5280891597784947  L 1.6787128905923578 7.393258099975677  C 1.6787128905923578 7.393258099975677  5.875495117073252 7.393258099975677  5.875495117073252 7.393258099975677  Z " fill-rule="evenodd" />
    </mask>
  </defs>
  <g transform="matrix(1 0 0 1 -412 -376 )">
    <path d="M 7.267063781663816 8.741573325126279  C 7.267063781663816 8.741573325126279  11 16  11 16  L 9.034142883405847 16  L 5.455816894425163 8.89887697912224  L 1.6787128905923578 8.89887697912224  L 1.6787128905923578 16  L 0 16  L 0 0  C 0 0  6.030120666506967 0  6.030120666506967 0  C 8.769077762627923 0  10.690764221210788 1.6853935443727341  10.690764221210788 4.449438976626639  C 10.690764221210788 6.786516930549632  9.299194359739113 8.314607186225544  7.267063781663816 8.741573325126279  Z M 5.875495117073252 7.393258099975677  C 7.7088296073916585 7.393258099975677  9.01205133061843 6.426965895367976  9.01205133061843 4.471910231389607  C 9.01205133061843 2.51685383681296  7.7088296073916585 1.5280891597784947  5.875495117073252 1.5280891597784947  C 5.875495117073252 1.5280891597784947  1.6787128905923578 1.5280891597784947  1.6787128905923578 1.5280891597784947  L 1.6787128905923578 7.393258099975677  C 1.6787128905923578 7.393258099975677  5.875495117073252 7.393258099975677  5.875495117073252 7.393258099975677  Z " fill-rule="nonzero" fill="rgba(255, 255, 255, 1)" stroke="none" transform="matrix(1 0 0 1 412 376 )" class="fill" />
    <path d="M 7.267063781663816 8.741573325126279  C 7.267063781663816 8.741573325126279  11 16  11 16  L 9.034142883405847 16  L 5.455816894425163 8.89887697912224  L 1.6787128905923578 8.89887697912224  L 1.6787128905923578 16  L 0 16  L 0 0  C 0 0  6.030120666506967 0  6.030120666506967 0  C 8.769077762627923 0  10.690764221210788 1.6853935443727341  10.690764221210788 4.449438976626639  C 10.690764221210788 6.786516930549632  9.299194359739113 8.314607186225544  7.267063781663816 8.741573325126279  Z " stroke-width="0" stroke-dasharray="0" stroke="rgba(121, 121, 121, 1)" fill="none" transform="matrix(1 0 0 1 412 376 )" class="stroke" mask="url(#Clip4279)" />
    <path d="M 5.875495117073252 7.393258099975677  C 7.7088296073916585 7.393258099975677  9.01205133061843 6.426965895367976  9.01205133061843 4.471910231389607  C 9.01205133061843 2.51685383681296  7.7088296073916585 1.5280891597784947  5.875495117073252 1.5280891597784947  C 5.875495117073252 1.5280891597784947  1.6787128905923578 1.5280891597784947  1.6787128905923578 1.5280891597784947  L 1.6787128905923578 7.393258099975677  C 1.6787128905923578 7.393258099975677  5.875495117073252 7.393258099975677  5.875495117073252 7.393258099975677  Z " stroke-width="0" stroke-dasharray="0" stroke="rgba(121, 121, 121, 1)" fill="none" transform="matrix(1 0 0 1 412 376 )" class="stroke" mask="url(#Clip4279)" />
  </g>
</svg>