<?xml version="1.0" encoding="utf-8"?>
<svg version="1.1" xmlns:xlink="http://www.w3.org/1999/xlink" width="261px" height="262px" xmlns="http://www.w3.org/2000/svg">
  <defs>
    <pattern id="BGPattern" patternUnits="userSpaceOnUse" alignment="0 0" imageRepeat="None" />
    <mask fill="white" id="Clip5150">
      <path d="M 30 255  L 225 255  L 225 256  L 30 256  L 30 255  Z M 225 255  C 241.01625061035156 255  254 242.01625061035156  254 226  C 254 226  254 30  254 30  C 254 13.983741760253906  241.01626586914062 1  225 1  C 225 1  30 1  30 1  C 13.983741760253906 1  1 13.983741760253906  1 30  C 1 30  1 226  1 226  C 1 242.01625061035156  13.983741760253906 255  30 255  C 30 255  30 256  30 256  C 30 256  29.2255859375 255.990234375  29.2255859375 255.990234375  C 13.014949798583984 255.57948276400566  0 242.30962562561035  0 226  C 0 226  0 30  0 30  C 0 13.43145751953125  13.43145751953125 0  30 0  C 30 0  225 0  225 0  C 241.56854248046875 0  255 13.43145751953125  255 30  C 255 30  255 226  255 226  C 255 242.56854248046875  241.56854248046875 256  225 256  C 225 256  225 255  225 255  Z " fill-rule="evenodd" />
    </mask>
  </defs>
  <g transform="matrix(1 0 0 1 -40 -463 )">
    <path d="M 30 255  L 225 255  L 225 256  L 30 256  L 30 255  Z M 225 255  C 241.01625061035156 255  254 242.01625061035156  254 226  C 254 226  254 30  254 30  C 254 13.983741760253906  241.01626586914062 1  225 1  C 225 1  30 1  30 1  C 13.983741760253906 1  1 13.983741760253906  1 30  C 1 30  1 226  1 226  C 1 242.01625061035156  13.983741760253906 255  30 255  C 30 255  30 256  30 256  C 30 256  29.2255859375 255.990234375  29.2255859375 255.990234375  C 13.014949798583984 255.57948276400566  0 242.30962562561035  0 226  C 0 226  0 30  0 30  C 0 13.43145751953125  13.43145751953125 0  30 0  C 30 0  225 0  225 0  C 241.56854248046875 0  255 13.43145751953125  255 30  C 255 30  255 226  255 226  C 255 242.56854248046875  241.56854248046875 256  225 256  C 225 256  225 255  225 255  Z " fill-rule="nonzero" fill="rgba(237, 237, 237, 1)" stroke="none" transform="matrix(1 0 0 1 40 463 )" class="fill" />
    <path d="M 30 255  L 225 255  L 225 256  L 30 256  L 30 255  Z " stroke-width="0" stroke-dasharray="0" stroke="rgba(121, 121, 121, 1)" fill="none" transform="matrix(1 0 0 1 40 463 )" class="stroke" mask="url(#Clip5150)" />
    <path d="M 225 255  C 241.01625061035156 255  254 242.01625061035156  254 226  C 254 226  254 30  254 30  C 254 13.983741760253906  241.01626586914062 1  225 1  C 225 1  30 1  30 1  C 13.983741760253906 1  1 13.983741760253906  1 30  C 1 30  1 226  1 226  C 1 242.01625061035156  13.983741760253906 255  30 255  C 30 255  30 256  30 256  C 30 256  29.2255859375 255.990234375  29.2255859375 255.990234375  C 13.014949798583984 255.57948276400566  0 242.30962562561035  0 226  C 0 226  0 30  0 30  C 0 13.43145751953125  13.43145751953125 0  30 0  C 30 0  225 0  225 0  C 241.56854248046875 0  255 13.43145751953125  255 30  C 255 30  255 226  255 226  C 255 242.56854248046875  241.56854248046875 256  225 256  C 225 256  225 255  225 255  Z " stroke-width="0" stroke-dasharray="0" stroke="rgba(121, 121, 121, 1)" fill="none" transform="matrix(1 0 0 1 40 463 )" class="stroke" mask="url(#Clip5150)" />
  </g>
  <style>svg { filter: drop-shadow(4px 4px 1px rgba(255, 255, 255, 0.25098039215686274)); }</style>
</svg>