<?xml version="1.0" encoding="utf-8"?>
<svg version="1.1" xmlns:xlink="http://www.w3.org/1999/xlink" width="88px" height="28px" xmlns="http://www.w3.org/2000/svg">
  <defs>
    <pattern id="BGPattern" patternUnits="userSpaceOnUse" alignment="0 0" imageRepeat="None" />
    <mask fill="white" id="Clip5153">
      <path d="M 40 0  L 80 20  L 0 20  L 40 0  Z M 40 1.1072530864197532  L 4.191895668374476 19  L 75.80810433162553 19  L 40 1.1072530864197532  Z " fill-rule="evenodd" />
    </mask>
  </defs>
  <g transform="matrix(1 0 0 1 -124 -145 )">
    <path d="M 40 0  L 80 20  L 0 20  L 40 0  Z M 40 1.1072530864197532  L 4.191895668374476 19  L 75.80810433162553 19  L 40 1.1072530864197532  Z " fill-rule="nonzero" fill="rgba(255, 255, 255, 0.5019607843137255)" stroke="none" transform="matrix(1 0 0 1 128 145 )" class="fill" />
    <path d="M 40 0  L 80 20  L 0 20  L 40 0  Z " stroke-width="0" stroke-dasharray="0" stroke="rgba(121, 121, 121, 1)" fill="none" transform="matrix(1 0 0 1 128 145 )" class="stroke" mask="url(#Clip5153)" />
    <path d="M 40 1.1072530864197532  L 4.191895668374476 19  L 75.80810433162553 19  L 40 1.1072530864197532  Z " stroke-width="0" stroke-dasharray="0" stroke="rgba(121, 121, 121, 1)" fill="none" transform="matrix(1 0 0 1 128 145 )" class="stroke" mask="url(#Clip5153)" />
  </g>
  <style>svg { filter: drop-shadow(0px 4px 2px rgba(255, 255, 255, 0.25098039215686274)); }</style>
</svg>