<?xml version="1.0" encoding="utf-8"?>
<svg version="1.1" xmlns:xlink="http://www.w3.org/1999/xlink" width="560px" height="919px" xmlns="http://www.w3.org/2000/svg">
  <defs>
    <pattern id="BGPattern" patternUnits="userSpaceOnUse" alignment="0 0" imageRepeat="None" />
    <mask fill="white" id="Clip5001">
      <path d="M 30 910  L 522 910  L 522 911  L 30 911  L 30 910  Z M 522 910  C 538.0162353515625 910  551 897.0162353515625  551 881  C 551 881  551 30  551 30  C 551 13.983741760253906  538.0162353515625 1  522 1  C 522 1  30 1  30 1  C 13.983743667602539 1.000001030879389  1.000003092449333 13.983745574951172  1 30  C 1 30  1 881  1 881  C 1 897.0162353515625  13.983743667602539 910  30 910  C 30 910  30 911  30 911  C 30 911  29.2255859375 910.990234375  29.2255859375 910.990234375  C 13.014947891235352 910.5794857144356  0 897.309627532959  0 881  C 0 881  0 30  0 30  C 0 13.431461334228516  13.431459426879883 0  30 0  C 30 0  522 0  522 0  C 538.5685424804688 0  552 13.43145751953125  552 30  C 552 30  552 881  552 881  C 552 897.5685424804688  538.5685424804688 911  522 911  C 522 911  522 910  522 910  Z " fill-rule="evenodd" />
    </mask>
  </defs>
  <g transform="matrix(1 0 0 1 -1324 -135 )">
    <path d="M 30 910  L 522 910  L 522 911  L 30 911  L 30 910  Z M 522 910  C 538.0162353515625 910  551 897.0162353515625  551 881  C 551 881  551 30  551 30  C 551 13.983741760253906  538.0162353515625 1  522 1  C 522 1  30 1  30 1  C 13.983743667602539 1.000001030879389  1.000003092449333 13.983745574951172  1 30  C 1 30  1 881  1 881  C 1 897.0162353515625  13.983743667602539 910  30 910  C 30 910  30 911  30 911  C 30 911  29.2255859375 910.990234375  29.2255859375 910.990234375  C 13.014947891235352 910.5794857144356  0 897.309627532959  0 881  C 0 881  0 30  0 30  C 0 13.431461334228516  13.431459426879883 0  30 0  C 30 0  522 0  522 0  C 538.5685424804688 0  552 13.43145751953125  552 30  C 552 30  552 881  552 881  C 552 897.5685424804688  538.5685424804688 911  522 911  C 522 911  522 910  522 910  Z " fill-rule="nonzero" fill="rgba(255, 253, 253, 1)" stroke="none" transform="matrix(1 0 0 1 1324 135 )" class="fill" />
    <path d="M 30 910  L 522 910  L 522 911  L 30 911  L 30 910  Z " stroke-width="0" stroke-dasharray="0" stroke="rgba(121, 121, 121, 1)" fill="none" transform="matrix(1 0 0 1 1324 135 )" class="stroke" mask="url(#Clip5001)" />
    <path d="M 522 910  C 538.0162353515625 910  551 897.0162353515625  551 881  C 551 881  551 30  551 30  C 551 13.983741760253906  538.0162353515625 1  522 1  C 522 1  30 1  30 1  C 13.983743667602539 1.000001030879389  1.000003092449333 13.983745574951172  1 30  C 1 30  1 881  1 881  C 1 897.0162353515625  13.983743667602539 910  30 910  C 30 910  30 911  30 911  C 30 911  29.2255859375 910.990234375  29.2255859375 910.990234375  C 13.014947891235352 910.5794857144356  0 897.309627532959  0 881  C 0 881  0 30  0 30  C 0 13.431461334228516  13.431459426879883 0  30 0  C 30 0  522 0  522 0  C 538.5685424804688 0  552 13.43145751953125  552 30  C 552 30  552 881  552 881  C 552 897.5685424804688  538.5685424804688 911  522 911  C 522 911  522 910  522 910  Z " stroke-width="0" stroke-dasharray="0" stroke="rgba(121, 121, 121, 1)" fill="none" transform="matrix(1 0 0 1 1324 135 )" class="stroke" mask="url(#Clip5001)" />
  </g>
  <style>svg { filter: drop-shadow(4px 4px 2px rgba(0, 0, 0, 0.25098039215686274)); }</style>
</svg>