<?xml version="1.0" encoding="utf-8"?>
<svg version="1.1" xmlns:xlink="http://www.w3.org/1999/xlink" width="560px" height="919px" xmlns="http://www.w3.org/2000/svg">
  <defs>
    <pattern id="BGPattern" patternUnits="userSpaceOnUse" alignment="0 0" imageRepeat="None" />
    <mask fill="white" id="Clip5000">
      <path d="M 0 881  C 0 881  0 30.0000057220459  0 30.0000057220459  C 0 13.431463241577148  13.431459426879883 0  30.000001907348633 0  C 30.000001907348633 0  522 0  522 0  C 538.5685424804688 0  552 13.431455612182617  552 29.999998092651367  C 552 29.999998092651367  552 881  552 881  C 552 897.5685424804688  538.5685424804688 911  522 911  C 522 911  29.99999237060547 911  29.99999237060547 911  C 13.431449890136719 911  0 897.5685424804688  0 881  Z " fill-rule="evenodd" />
    </mask>
  </defs>
  <g transform="matrix(1 0 0 1 -1324 -135 )">
    <path d="M 0 881  C 0 881  0 30.0000057220459  0 30.0000057220459  C 0 13.431463241577148  13.431459426879883 0  30.000001907348633 0  C 30.000001907348633 0  522 0  522 0  C 538.5685424804688 0  552 13.431455612182617  552 29.999998092651367  C 552 29.999998092651367  552 881  552 881  C 552 897.5685424804688  538.5685424804688 911  522 911  C 522 911  29.99999237060547 911  29.99999237060547 911  C 13.431449890136719 911  0 897.5685424804688  0 881  Z " fill-rule="nonzero" fill="rgba(237, 237, 237, 0.4)" stroke="none" transform="matrix(1 0 0 1 1324 135 )" class="fill" />
    <path d="M 0 881  C 0 881  0 30.0000057220459  0 30.0000057220459  C 0 13.431463241577148  13.431459426879883 0  30.000001907348633 0  C 30.000001907348633 0  522 0  522 0  C 538.5685424804688 0  552 13.431455612182617  552 29.999998092651367  C 552 29.999998092651367  552 881  552 881  C 552 897.5685424804688  538.5685424804688 911  522 911  C 522 911  29.99999237060547 911  29.99999237060547 911  C 13.431449890136719 911  0 897.5685424804688  0 881  Z " stroke-width="0" stroke-dasharray="0" stroke="rgba(121, 121, 121, 1)" fill="none" transform="matrix(1 0 0 1 1324 135 )" class="stroke" mask="url(#Clip5000)" />
  </g>
  <style>svg { filter: drop-shadow(4px 4px 2px rgba(0, 0, 0, 0.25098039215686274)); }</style>
</svg>