<?xml version="1.0" encoding="utf-8"?>
<svg version="1.1" xmlns:xlink="http://www.w3.org/1999/xlink" width="25px" height="33px" xmlns="http://www.w3.org/2000/svg">
  <defs>
    <pattern id="BGPattern" patternUnits="userSpaceOnUse" alignment="0 0" imageRepeat="None" />
    <mask fill="white" id="Clip5065">
      <path d="M 0 16.33749805990998  L 6.325978942387318 16.33749805990998  C 6.325978942387318 16.33749805990998  6.357151307228203 17.29978270991774  6.357151307228203 17.29978270991774  C 6.382389498112344 18.078879120000934  6.659737363477071 18.541992071454576  6.99367088607595 18.820813285736456  C 7.345911108811452 19.11482416508491  7.870510995310467 19.29419525065963  8.52413344374778 19.29419525065963  C 8.52413344374778 19.29419525065963  8.52413344374778 20.28752134099022  8.52413344374778 20.28752134099022  C 8.52413344374778 20.28752134099022  8.211404235182776 20.27685084587925  8.211404235182776 20.27685084587925  C 6.66730843235667 20.168066972089854  5.389236978196708 19.237934297866268  5.327457707322845 17.33082415024057  C 5.327457707322845 17.33082415024057  1.0437714420915651 17.33082415024057  1.0437714420915651 17.33082415024057  C 1.1076124365705156 21.918995898831582  4.480459363308515 23.88264180783916  8.166154028155685 24.000853639608877  C 8.166154028155685 24.000853639608877  8.52413344374778 24.00667390966941  8.52413344374778 24.00667390966941  C 12.418287161016243 24.0065275350461  15.75549861375896 21.917945806161967  15.960250798533066 17.683920533912772  C 15.960250798533066 17.683920533912772  15.97030640009464 17.26777122458482  15.97030640009464 17.26777122458482  C 15.97030640009464 14.534263723332858  14.619899871151052 12.97606131165697  12.939548089435704 12.117802266025143  C 14.487932866555791 11.323093720406048  15.640482668874956 9.924375376271364  15.640482668874956 7.477106937761913  C 15.640360500043446 3.7819156176034068  12.8266496575966 1.1611167011323154  8.876079498402934 1.001086450411299  C 8.876079498402934 1.001086450411299  8.490949958594582 0.9933260903305914  8.490949958594582 0.9933260903305914  C 4.5370749041806535 0.9933260903305914  1.4063027987857548 3.408492338614824  1.3072282030048503 7.445095452428993  C 1.3072282030048503 7.445095452428993  5.59091446823613 7.445095452428993  5.59091446823613 7.445095452428993  C 5.689946569832883 5.728901341041755  6.876531597567524 4.71150861399969  8.490949958594582 4.71150861399969  C 8.490949958594582 4.71150861399969  8.778540163255649 4.723149154120751  8.778540163255649 4.723149154120751  C 10.19916368622364 4.8385091918088  11.357668604936654 5.816531384858992  11.357801963799833 7.604182834083502  C 11.357801963799833 7.604182834083502  11.3467408020821 7.898106472140308  11.3467408020821 7.898106472140308  C 11.24844149692544 9.247464658532031  10.455048426952247 10.286654090910952  8.767479001537916 10.419253453360236  C 8.767479001537916 10.419253453360236  8.39240506329114 10.433804128511563  8.39240506329114 10.433804128511563  C 8.39240506329114 10.433804128511563  8.39240506329114 9.440478038180972  8.39240506329114 9.440478038180972  C 9.209404830183487 9.44038491701034  9.647874291290352 9.203064169699447  9.892700816278245 8.944785038025763  C 10.15253951847659 8.670557091070705  10.328108363894476 8.230351387816114  10.328108363894476 7.604182834083502  C 10.328039206901126 6.882165319409298  10.084654111827208 6.431798447960192  9.791139240506329 6.159785814061772  C 9.488079465015193 5.8789400215865335  9.041135716886757 5.704871791664407  8.490949958594582 5.704834704330281  C 7.912128935420949 5.704834704330281  7.477554424181642 5.884280420137862  7.182716195433574 6.15493558901133  C 6.889010019729959 6.424558723304058  6.656753698665122 6.85636321154696  6.619602507985331 7.500388018004036  C 6.619602507985331 7.500388018004036  6.565302259552822 8.438421542759585  6.565302259552822 8.438421542759585  L 0.2534011593517095 8.438421542759585  C 0.2534011593517095 8.438421542759585  0.2785401632556489 7.421814372186869  0.2785401632556489 7.421814372186869  C 0.3343506890557214 5.145692329460024  1.253623082400017 3.266926276541341  2.76830710990181 1.964341145429148  C 4.272562746999956 0.6708442656016583  6.299101812041583 0  8.490949958594582 0  C 13.14497744999002 7.730269356209096E-05  16.670048448218477 3.052557815440449  16.670176268780313 7.477106937761913  C 16.670176268780313 8.856301113035707  16.343377135342344 10.004070103769807  15.74707204542766 10.938227533757566  C 15.45988243226679 11.388121342485077  15.117981115882952 11.773442711386828  14.740506329113924 12.105191680893993  C 15.195005464931782 12.482902601456098  15.609897412704345 12.930307561485696  15.956228557908435 13.460344559987583  C 16.619591756613314 14.475756936352315  17 15.73687441948869  17 17.26777122458482  C 16.999948202500047 19.788428446751805  16.03198718020553 21.759362393204107  14.423754879924289 23.085131150085363  C 12.838016464430158 24.392322810858502  10.7205670035324 24.999924496957583  8.52413344374778 25  C 6.447897955861639 25  4.343997902522126 24.474434184302794  2.7290902638116643 23.218027316467484  C 1.083175112224395 21.93740437383443  0.05072062934741006 19.97787591631361  0.01407784218620608 17.344404780381808  C 0.01407784218620608 17.344404780381808  0 16.33749805990998  0 16.33749805990998  Z M 10.074707204542767 18.76940090020177  C 10.401662290639234 18.458631759139113  10.656869004540587 17.945978513105157  10.656926534958004 17.14069532826323  C 10.656926534958004 16.405438333310347  10.428490536178794 15.899507876935997  10.099846208446705 15.579892907030887  C 9.773142481702017 15.262410449404424  9.23478166035727 15.018329590371959  8.39240506329114 15.018236846189664  C 8.39240506329114 15.018236846189664  6.736247486099609 15.018236846189664  6.736247486099609 15.018236846189664  L 6.736247486099609 9.440478038180972  L 8.39240506329114 9.440478038180972  L 8.39240506329114 10.433804128511563  L 7.765941086004969 10.433804128511563  L 7.765941086004969 14.024910755859072  C 7.765941086004969 14.024910755859072  8.39240506329114 14.024910755859072  8.39240506329114 14.024910755859072  C 10.500916675408325 14.025099686243308  11.686620134863363 15.265438110029478  11.686620134863363 17.14069532826323  C 11.686620134863363 17.14069532826323  11.68360345439489 17.328884060220396  11.68360345439489 17.328884060220396  C 11.60438120702195 19.243230942556362  10.311335934727316 20.287361920218732  8.52413344374778 20.28752134099022  C 8.52413344374778 20.28752134099022  8.52413344374778 19.29419525065963  8.52413344374778 19.29419525065963  C 9.23198513029652 19.29411425004593  9.743759092093784 19.08392573890526  10.074707204542767 18.76940090020177  Z " fill-rule="evenodd" />
    </mask>
  </defs>
  <g transform="matrix(1 0 0 1 -687 -993 )">
    <path d="M 0 16.33749805990998  L 6.325978942387318 16.33749805990998  C 6.325978942387318 16.33749805990998  6.357151307228203 17.29978270991774  6.357151307228203 17.29978270991774  C 6.382389498112344 18.078879120000934  6.659737363477071 18.541992071454576  6.99367088607595 18.820813285736456  C 7.345911108811452 19.11482416508491  7.870510995310467 19.29419525065963  8.52413344374778 19.29419525065963  C 8.52413344374778 19.29419525065963  8.52413344374778 20.28752134099022  8.52413344374778 20.28752134099022  C 8.52413344374778 20.28752134099022  8.211404235182776 20.27685084587925  8.211404235182776 20.27685084587925  C 6.66730843235667 20.168066972089854  5.389236978196708 19.237934297866268  5.327457707322845 17.33082415024057  C 5.327457707322845 17.33082415024057  1.0437714420915651 17.33082415024057  1.0437714420915651 17.33082415024057  C 1.1076124365705156 21.918995898831582  4.480459363308515 23.88264180783916  8.166154028155685 24.000853639608877  C 8.166154028155685 24.000853639608877  8.52413344374778 24.00667390966941  8.52413344374778 24.00667390966941  C 12.418287161016243 24.0065275350461  15.75549861375896 21.917945806161967  15.960250798533066 17.683920533912772  C 15.960250798533066 17.683920533912772  15.97030640009464 17.26777122458482  15.97030640009464 17.26777122458482  C 15.97030640009464 14.534263723332858  14.619899871151052 12.97606131165697  12.939548089435704 12.117802266025143  C 14.487932866555791 11.323093720406048  15.640482668874956 9.924375376271364  15.640482668874956 7.477106937761913  C 15.640360500043446 3.7819156176034068  12.8266496575966 1.1611167011323154  8.876079498402934 1.001086450411299  C 8.876079498402934 1.001086450411299  8.490949958594582 0.9933260903305914  8.490949958594582 0.9933260903305914  C 4.5370749041806535 0.9933260903305914  1.4063027987857548 3.408492338614824  1.3072282030048503 7.445095452428993  C 1.3072282030048503 7.445095452428993  5.59091446823613 7.445095452428993  5.59091446823613 7.445095452428993  C 5.689946569832883 5.728901341041755  6.876531597567524 4.71150861399969  8.490949958594582 4.71150861399969  C 8.490949958594582 4.71150861399969  8.778540163255649 4.723149154120751  8.778540163255649 4.723149154120751  C 10.19916368622364 4.8385091918088  11.357668604936654 5.816531384858992  11.357801963799833 7.604182834083502  C 11.357801963799833 7.604182834083502  11.3467408020821 7.898106472140308  11.3467408020821 7.898106472140308  C 11.24844149692544 9.247464658532031  10.455048426952247 10.286654090910952  8.767479001537916 10.419253453360236  C 8.767479001537916 10.419253453360236  8.39240506329114 10.433804128511563  8.39240506329114 10.433804128511563  C 8.39240506329114 10.433804128511563  8.39240506329114 9.440478038180972  8.39240506329114 9.440478038180972  C 9.209404830183487 9.44038491701034  9.647874291290352 9.203064169699447  9.892700816278245 8.944785038025763  C 10.15253951847659 8.670557091070705  10.328108363894476 8.230351387816114  10.328108363894476 7.604182834083502  C 10.328039206901126 6.882165319409298  10.084654111827208 6.431798447960192  9.791139240506329 6.159785814061772  C 9.488079465015193 5.8789400215865335  9.041135716886757 5.704871791664407  8.490949958594582 5.704834704330281  C 7.912128935420949 5.704834704330281  7.477554424181642 5.884280420137862  7.182716195433574 6.15493558901133  C 6.889010019729959 6.424558723304058  6.656753698665122 6.85636321154696  6.619602507985331 7.500388018004036  C 6.619602507985331 7.500388018004036  6.565302259552822 8.438421542759585  6.565302259552822 8.438421542759585  L 0.2534011593517095 8.438421542759585  C 0.2534011593517095 8.438421542759585  0.2785401632556489 7.421814372186869  0.2785401632556489 7.421814372186869  C 0.3343506890557214 5.145692329460024  1.253623082400017 3.266926276541341  2.76830710990181 1.964341145429148  C 4.272562746999956 0.6708442656016583  6.299101812041583 0  8.490949958594582 0  C 13.14497744999002 7.730269356209096E-05  16.670048448218477 3.052557815440449  16.670176268780313 7.477106937761913  C 16.670176268780313 8.856301113035707  16.343377135342344 10.004070103769807  15.74707204542766 10.938227533757566  C 15.45988243226679 11.388121342485077  15.117981115882952 11.773442711386828  14.740506329113924 12.105191680893993  C 15.195005464931782 12.482902601456098  15.609897412704345 12.930307561485696  15.956228557908435 13.460344559987583  C 16.619591756613314 14.475756936352315  17 15.73687441948869  17 17.26777122458482  C 16.999948202500047 19.788428446751805  16.03198718020553 21.759362393204107  14.423754879924289 23.085131150085363  C 12.838016464430158 24.392322810858502  10.7205670035324 24.999924496957583  8.52413344374778 25  C 6.447897955861639 25  4.343997902522126 24.474434184302794  2.7290902638116643 23.218027316467484  C 1.083175112224395 21.93740437383443  0.05072062934741006 19.97787591631361  0.01407784218620608 17.344404780381808  C 0.01407784218620608 17.344404780381808  0 16.33749805990998  0 16.33749805990998  Z M 10.074707204542767 18.76940090020177  C 10.401662290639234 18.458631759139113  10.656869004540587 17.945978513105157  10.656926534958004 17.14069532826323  C 10.656926534958004 16.405438333310347  10.428490536178794 15.899507876935997  10.099846208446705 15.579892907030887  C 9.773142481702017 15.262410449404424  9.23478166035727 15.018329590371959  8.39240506329114 15.018236846189664  C 8.39240506329114 15.018236846189664  6.736247486099609 15.018236846189664  6.736247486099609 15.018236846189664  L 6.736247486099609 9.440478038180972  L 8.39240506329114 9.440478038180972  L 8.39240506329114 10.433804128511563  L 7.765941086004969 10.433804128511563  L 7.765941086004969 14.024910755859072  C 7.765941086004969 14.024910755859072  8.39240506329114 14.024910755859072  8.39240506329114 14.024910755859072  C 10.500916675408325 14.025099686243308  11.686620134863363 15.265438110029478  11.686620134863363 17.14069532826323  C 11.686620134863363 17.14069532826323  11.68360345439489 17.328884060220396  11.68360345439489 17.328884060220396  C 11.60438120702195 19.243230942556362  10.311335934727316 20.287361920218732  8.52413344374778 20.28752134099022  C 8.52413344374778 20.28752134099022  8.52413344374778 19.29419525065963  8.52413344374778 19.29419525065963  C 9.23198513029652 19.29411425004593  9.743759092093784 19.08392573890526  10.074707204542767 18.76940090020177  Z " fill-rule="nonzero" fill="rgba(190, 190, 190, 0.058823529411764705)" stroke="none" transform="matrix(1 0 0 1 691 993 )" class="fill" />
    <path d="M 0 16.33749805990998  L 6.325978942387318 16.33749805990998  C 6.325978942387318 16.33749805990998  6.357151307228203 17.29978270991774  6.357151307228203 17.29978270991774  C 6.382389498112344 18.078879120000934  6.659737363477071 18.541992071454576  6.99367088607595 18.820813285736456  C 7.345911108811452 19.11482416508491  7.870510995310467 19.29419525065963  8.52413344374778 19.29419525065963  C 8.52413344374778 19.29419525065963  8.52413344374778 20.28752134099022  8.52413344374778 20.28752134099022  C 8.52413344374778 20.28752134099022  8.211404235182776 20.27685084587925  8.211404235182776 20.27685084587925  C 6.66730843235667 20.168066972089854  5.389236978196708 19.237934297866268  5.327457707322845 17.33082415024057  C 5.327457707322845 17.33082415024057  1.0437714420915651 17.33082415024057  1.0437714420915651 17.33082415024057  C 1.1076124365705156 21.918995898831582  4.480459363308515 23.88264180783916  8.166154028155685 24.000853639608877  C 8.166154028155685 24.000853639608877  8.52413344374778 24.00667390966941  8.52413344374778 24.00667390966941  C 12.418287161016243 24.0065275350461  15.75549861375896 21.917945806161967  15.960250798533066 17.683920533912772  C 15.960250798533066 17.683920533912772  15.97030640009464 17.26777122458482  15.97030640009464 17.26777122458482  C 15.97030640009464 14.534263723332858  14.619899871151052 12.97606131165697  12.939548089435704 12.117802266025143  C 14.487932866555791 11.323093720406048  15.640482668874956 9.924375376271364  15.640482668874956 7.477106937761913  C 15.640360500043446 3.7819156176034068  12.8266496575966 1.1611167011323154  8.876079498402934 1.001086450411299  C 8.876079498402934 1.001086450411299  8.490949958594582 0.9933260903305914  8.490949958594582 0.9933260903305914  C 4.5370749041806535 0.9933260903305914  1.4063027987857548 3.408492338614824  1.3072282030048503 7.445095452428993  C 1.3072282030048503 7.445095452428993  5.59091446823613 7.445095452428993  5.59091446823613 7.445095452428993  C 5.689946569832883 5.728901341041755  6.876531597567524 4.71150861399969  8.490949958594582 4.71150861399969  C 8.490949958594582 4.71150861399969  8.778540163255649 4.723149154120751  8.778540163255649 4.723149154120751  C 10.19916368622364 4.8385091918088  11.357668604936654 5.816531384858992  11.357801963799833 7.604182834083502  C 11.357801963799833 7.604182834083502  11.3467408020821 7.898106472140308  11.3467408020821 7.898106472140308  C 11.24844149692544 9.247464658532031  10.455048426952247 10.286654090910952  8.767479001537916 10.419253453360236  C 8.767479001537916 10.419253453360236  8.39240506329114 10.433804128511563  8.39240506329114 10.433804128511563  C 8.39240506329114 10.433804128511563  8.39240506329114 9.440478038180972  8.39240506329114 9.440478038180972  C 9.209404830183487 9.44038491701034  9.647874291290352 9.203064169699447  9.892700816278245 8.944785038025763  C 10.15253951847659 8.670557091070705  10.328108363894476 8.230351387816114  10.328108363894476 7.604182834083502  C 10.328039206901126 6.882165319409298  10.084654111827208 6.431798447960192  9.791139240506329 6.159785814061772  C 9.488079465015193 5.8789400215865335  9.041135716886757 5.704871791664407  8.490949958594582 5.704834704330281  C 7.912128935420949 5.704834704330281  7.477554424181642 5.884280420137862  7.182716195433574 6.15493558901133  C 6.889010019729959 6.424558723304058  6.656753698665122 6.85636321154696  6.619602507985331 7.500388018004036  C 6.619602507985331 7.500388018004036  6.565302259552822 8.438421542759585  6.565302259552822 8.438421542759585  L 0.2534011593517095 8.438421542759585  C 0.2534011593517095 8.438421542759585  0.2785401632556489 7.421814372186869  0.2785401632556489 7.421814372186869  C 0.3343506890557214 5.145692329460024  1.253623082400017 3.266926276541341  2.76830710990181 1.964341145429148  C 4.272562746999956 0.6708442656016583  6.299101812041583 0  8.490949958594582 0  C 13.14497744999002 7.730269356209096E-05  16.670048448218477 3.052557815440449  16.670176268780313 7.477106937761913  C 16.670176268780313 8.856301113035707  16.343377135342344 10.004070103769807  15.74707204542766 10.938227533757566  C 15.45988243226679 11.388121342485077  15.117981115882952 11.773442711386828  14.740506329113924 12.105191680893993  C 15.195005464931782 12.482902601456098  15.609897412704345 12.930307561485696  15.956228557908435 13.460344559987583  C 16.619591756613314 14.475756936352315  17 15.73687441948869  17 17.26777122458482  C 16.999948202500047 19.788428446751805  16.03198718020553 21.759362393204107  14.423754879924289 23.085131150085363  C 12.838016464430158 24.392322810858502  10.7205670035324 24.999924496957583  8.52413344374778 25  C 6.447897955861639 25  4.343997902522126 24.474434184302794  2.7290902638116643 23.218027316467484  C 1.083175112224395 21.93740437383443  0.05072062934741006 19.97787591631361  0.01407784218620608 17.344404780381808  C 0.01407784218620608 17.344404780381808  0 16.33749805990998  0 16.33749805990998  Z " stroke-width="0" stroke-dasharray="0" stroke="rgba(121, 121, 121, 1)" fill="none" transform="matrix(1 0 0 1 691 993 )" class="stroke" mask="url(#Clip5065)" />
    <path d="M 10.074707204542767 18.76940090020177  C 10.401662290639234 18.458631759139113  10.656869004540587 17.945978513105157  10.656926534958004 17.14069532826323  C 10.656926534958004 16.405438333310347  10.428490536178794 15.899507876935997  10.099846208446705 15.579892907030887  C 9.773142481702017 15.262410449404424  9.23478166035727 15.018329590371959  8.39240506329114 15.018236846189664  C 8.39240506329114 15.018236846189664  6.736247486099609 15.018236846189664  6.736247486099609 15.018236846189664  L 6.736247486099609 9.440478038180972  L 8.39240506329114 9.440478038180972  L 8.39240506329114 10.433804128511563  L 7.765941086004969 10.433804128511563  L 7.765941086004969 14.024910755859072  C 7.765941086004969 14.024910755859072  8.39240506329114 14.024910755859072  8.39240506329114 14.024910755859072  C 10.500916675408325 14.025099686243308  11.686620134863363 15.265438110029478  11.686620134863363 17.14069532826323  C 11.686620134863363 17.14069532826323  11.68360345439489 17.328884060220396  11.68360345439489 17.328884060220396  C 11.60438120702195 19.243230942556362  10.311335934727316 20.287361920218732  8.52413344374778 20.28752134099022  C 8.52413344374778 20.28752134099022  8.52413344374778 19.29419525065963  8.52413344374778 19.29419525065963  C 9.23198513029652 19.29411425004593  9.743759092093784 19.08392573890526  10.074707204542767 18.76940090020177  Z " stroke-width="0" stroke-dasharray="0" stroke="rgba(121, 121, 121, 1)" fill="none" transform="matrix(1 0 0 1 691 993 )" class="stroke" mask="url(#Clip5065)" />
  </g>
  <style>svg { filter: drop-shadow(0px 4px 2px rgba(0, 0, 0, 0.12941176470588237)); }</style>
</svg>