<?xml version="1.0" encoding="utf-8"?>
<svg version="1.1" xmlns:xlink="http://www.w3.org/1999/xlink" width="20px" height="23px" xmlns="http://www.w3.org/2000/svg">
  <defs>
    <pattern id="BGPattern" patternUnits="userSpaceOnUse" alignment="0 0" imageRepeat="None" />
    <mask fill="white" id="Clip5022">
      <path d="M 5.988178737489164 11.100740049336624  C 5.035277271714182 11.100736714462363  3.988966821656553 10.510592063559447  3.988966821656553 8.765584372291485  C 3.988966821656553 8.765584372291485  3.988966821656553 1.024068271218081  3.988966821656553 1.024068271218081  L 0.968397824887698 1.024068271218081  L 0.968397824887698 9.20861390759384  C 0.968397824887698 9.20861390759384  0.9806919378989676 9.724648309887327  0.9806919378989676 9.724648309887327  C 1.0429865785764554 10.90771094537813  1.3456341099143452 11.942671056000089  2.1997005280163924 12.845856390426029  C 2.8315381201852983 13.51401659606083  3.7289905919374067 13.923373564107155  4.834423516431555 13.971931462097473  C 4.834423516431555 13.971931462097473  5.0585546536370085 13.97593172878192  5.0585546536370085 13.97593172878192  C 6.174138856428304 13.975923823504605  7.289863552153932 13.533630330400934  8.080069351406731 12.64884325621708  C 8.080069351406731 12.64884325621708  8.080069351406731 13.82892192812854  8.080069351406731 13.82892192812854  L 11 13.82892192812854  L 11 1.024068271218081  L 8.01008747734258 1.024068271218081  C 8.01008747734258 1.024068271218081  8.01008747734258 8.765584372291485  8.01008747734258 8.765584372291485  C 8.01008747734258 10.510596946697488  6.941081704010363 11.100740049336624  5.988178737489164 11.100740049336624  C 5.988178737489164 11.100740049336624  5.988178737489164 10.076671778118541  5.988178737489164 10.076671778118541  C 6.289373308389649 10.076671778118541  6.543834223609339 9.982471909870489  6.710694302151469 9.824654976998467  C 6.855579588766291 9.687568445318231  7.041689652454883 9.402362419864449  7.041689652454883 8.765584372291485  C 7.041689652454883 8.765584372291485  7.041689652454883 0  7.041689652454883 0  L 12 0  L 12 14.852990199346623  L 7.111671526519032 14.852990199346623  C 7.111671526519032 14.852990199346623  7.111671526519032 14.56697113140876  7.111671526519032 14.56697113140876  C 6.456751880319568 14.85680356392249  5.753723851613602 14.99999593081718  5.0585546536370085 15  C 3.6335556002615457 15  2.397326755395914 14.502940190316073  1.5150130033887619 13.569904660310687  C 0.2871510495680314 12.271431498753563  3.574224066646004E-05 10.753993910466427  0 9.20861390759384  C 0 9.20861390759384  0 0  0 0  L 4.957364646544251 0  C 4.957364646544251 0  4.957364646544251 8.765584372291485  4.957364646544251 8.765584372291485  C 4.957364646544251 9.409562790025845  5.142729445433483 9.69521072421267  5.282685790842462 9.829655310354024  C 5.442402490553764 9.983077541066214  5.687923778023165 10.076670099218395  5.988178737489164 10.076671778118541  C 5.988178737489164 10.076671778118541  5.988178737489164 11.100740049336624  5.988178737489164 11.100740049336624  Z " fill-rule="evenodd" />
    </mask>
  </defs>
  <g transform="matrix(1 0 0 1 -1714 -430 )">
    <path d="M 5.988178737489164 11.100740049336624  C 5.035277271714182 11.100736714462363  3.988966821656553 10.510592063559447  3.988966821656553 8.765584372291485  C 3.988966821656553 8.765584372291485  3.988966821656553 1.024068271218081  3.988966821656553 1.024068271218081  L 0.968397824887698 1.024068271218081  L 0.968397824887698 9.20861390759384  C 0.968397824887698 9.20861390759384  0.9806919378989676 9.724648309887327  0.9806919378989676 9.724648309887327  C 1.0429865785764554 10.90771094537813  1.3456341099143452 11.942671056000089  2.1997005280163924 12.845856390426029  C 2.8315381201852983 13.51401659606083  3.7289905919374067 13.923373564107155  4.834423516431555 13.971931462097473  C 4.834423516431555 13.971931462097473  5.0585546536370085 13.97593172878192  5.0585546536370085 13.97593172878192  C 6.174138856428304 13.975923823504605  7.289863552153932 13.533630330400934  8.080069351406731 12.64884325621708  C 8.080069351406731 12.64884325621708  8.080069351406731 13.82892192812854  8.080069351406731 13.82892192812854  L 11 13.82892192812854  L 11 1.024068271218081  L 8.01008747734258 1.024068271218081  C 8.01008747734258 1.024068271218081  8.01008747734258 8.765584372291485  8.01008747734258 8.765584372291485  C 8.01008747734258 10.510596946697488  6.941081704010363 11.100740049336624  5.988178737489164 11.100740049336624  C 5.988178737489164 11.100740049336624  5.988178737489164 10.076671778118541  5.988178737489164 10.076671778118541  C 6.289373308389649 10.076671778118541  6.543834223609339 9.982471909870489  6.710694302151469 9.824654976998467  C 6.855579588766291 9.687568445318231  7.041689652454883 9.402362419864449  7.041689652454883 8.765584372291485  C 7.041689652454883 8.765584372291485  7.041689652454883 0  7.041689652454883 0  L 12 0  L 12 14.852990199346623  L 7.111671526519032 14.852990199346623  C 7.111671526519032 14.852990199346623  7.111671526519032 14.56697113140876  7.111671526519032 14.56697113140876  C 6.456751880319568 14.85680356392249  5.753723851613602 14.99999593081718  5.0585546536370085 15  C 3.6335556002615457 15  2.397326755395914 14.502940190316073  1.5150130033887619 13.569904660310687  C 0.2871510495680314 12.271431498753563  3.574224066646004E-05 10.753993910466427  0 9.20861390759384  C 0 9.20861390759384  0 0  0 0  L 4.957364646544251 0  C 4.957364646544251 0  4.957364646544251 8.765584372291485  4.957364646544251 8.765584372291485  C 4.957364646544251 9.409562790025845  5.142729445433483 9.69521072421267  5.282685790842462 9.829655310354024  C 5.442402490553764 9.983077541066214  5.687923778023165 10.076670099218395  5.988178737489164 10.076671778118541  C 5.988178737489164 10.076671778118541  5.988178737489164 11.100740049336624  5.988178737489164 11.100740049336624  Z " fill-rule="nonzero" fill="rgba(190, 190, 190, 0.058823529411764705)" stroke="none" transform="matrix(1 0 0 1 1718 430 )" class="fill" />
    <path d="M 5.988178737489164 11.100740049336624  C 5.035277271714182 11.100736714462363  3.988966821656553 10.510592063559447  3.988966821656553 8.765584372291485  C 3.988966821656553 8.765584372291485  3.988966821656553 1.024068271218081  3.988966821656553 1.024068271218081  L 0.968397824887698 1.024068271218081  L 0.968397824887698 9.20861390759384  C 0.968397824887698 9.20861390759384  0.9806919378989676 9.724648309887327  0.9806919378989676 9.724648309887327  C 1.0429865785764554 10.90771094537813  1.3456341099143452 11.942671056000089  2.1997005280163924 12.845856390426029  C 2.8315381201852983 13.51401659606083  3.7289905919374067 13.923373564107155  4.834423516431555 13.971931462097473  C 4.834423516431555 13.971931462097473  5.0585546536370085 13.97593172878192  5.0585546536370085 13.97593172878192  C 6.174138856428304 13.975923823504605  7.289863552153932 13.533630330400934  8.080069351406731 12.64884325621708  C 8.080069351406731 12.64884325621708  8.080069351406731 13.82892192812854  8.080069351406731 13.82892192812854  L 11 13.82892192812854  L 11 1.024068271218081  L 8.01008747734258 1.024068271218081  C 8.01008747734258 1.024068271218081  8.01008747734258 8.765584372291485  8.01008747734258 8.765584372291485  C 8.01008747734258 10.510596946697488  6.941081704010363 11.100740049336624  5.988178737489164 11.100740049336624  C 5.988178737489164 11.100740049336624  5.988178737489164 10.076671778118541  5.988178737489164 10.076671778118541  C 6.289373308389649 10.076671778118541  6.543834223609339 9.982471909870489  6.710694302151469 9.824654976998467  C 6.855579588766291 9.687568445318231  7.041689652454883 9.402362419864449  7.041689652454883 8.765584372291485  C 7.041689652454883 8.765584372291485  7.041689652454883 0  7.041689652454883 0  L 12 0  L 12 14.852990199346623  L 7.111671526519032 14.852990199346623  C 7.111671526519032 14.852990199346623  7.111671526519032 14.56697113140876  7.111671526519032 14.56697113140876  C 6.456751880319568 14.85680356392249  5.753723851613602 14.99999593081718  5.0585546536370085 15  C 3.6335556002615457 15  2.397326755395914 14.502940190316073  1.5150130033887619 13.569904660310687  C 0.2871510495680314 12.271431498753563  3.574224066646004E-05 10.753993910466427  0 9.20861390759384  C 0 9.20861390759384  0 0  0 0  L 4.957364646544251 0  C 4.957364646544251 0  4.957364646544251 8.765584372291485  4.957364646544251 8.765584372291485  C 4.957364646544251 9.409562790025845  5.142729445433483 9.69521072421267  5.282685790842462 9.829655310354024  C 5.442402490553764 9.983077541066214  5.687923778023165 10.076670099218395  5.988178737489164 10.076671778118541  C 5.988178737489164 10.076671778118541  5.988178737489164 11.100740049336624  5.988178737489164 11.100740049336624  Z " stroke-width="0" stroke-dasharray="0" stroke="rgba(121, 121, 121, 1)" fill="none" transform="matrix(1 0 0 1 1718 430 )" class="stroke" mask="url(#Clip5022)" />
  </g>
  <style>svg { filter: drop-shadow(0px 4px 2px rgba(0, 0, 0, 0.12941176470588237)); }</style>
</svg>