<?xml version="1.0" encoding="utf-8"?>
<svg version="1.1" xmlns:xlink="http://www.w3.org/1999/xlink" width="15px" height="27px" xmlns="http://www.w3.org/2000/svg">
  <defs>
    <pattern id="BGPattern" patternUnits="userSpaceOnUse" alignment="0 0" imageRepeat="None" />
    <mask fill="white" id="Clip5025">
      <path d="M 3.888581952117864 14.388519390156555  C 3.888581952117864 14.388519390156555  3.8848987108655617 14.25437429653126  3.8848987108655617 14.25437429653126  L 3.8848987108655617 0.9953954773355163  L 0.9429097605893186 0.9953954773355163  C 0.9429097605893186 0.9953954773355163  0.9429097605893186 14.444899212115011  0.9429097605893186 14.444899212115011  C 0.9429097605893186 16.157563389378343  1.8988381064399171 17.89313790615952  4.1602209944751385 17.999744193185307  C 4.1602209944751385 17.999744193185307  4.383057090239411 18.004604522664483  4.383057090239411 18.004604522664483  L 6.057090239410681 18.004604522664483  L 6.057090239410681 15.377110406221222  L 4.92633517495396 15.377110406221222  L 4.92633517495396 14.381714928885705  L 7 14.381714928885705  L 7 19  C 7 19  4.383057090239411 19  4.383057090239411 19  C 2.9336396106698897 19  1.803545423195068 18.452981842487553  1.0469613259668509 17.54481735393431  C 0.3088759954463053 16.65878403629579  0 15.518948727421053  0 14.444899212115011  C 0 14.444899212115011  0 0  0 0  L 4.82780847145488 0  C 4.82780847145488 0  4.82780847145488 14.25437429653126  4.82780847145488 14.25437429653126  C 4.827820461890857 14.304013147942548  4.830376052285646 14.343733051471405  4.833333333333333 14.374910467614859  C 4.8579779250845725 14.377222118438187  4.888853722953445 14.381714928885705  4.92633517495396 14.381714928885705  C 4.92633517495396 14.381714928885705  4.92633517495396 15.377110406221222  4.92633517495396 15.377110406221222  C 4.92633517495396 15.377110406221222  4.79097605893186 15.372250076742045  4.79097605893186 15.372250076742045  C 4.186605211120942 15.33046837481459  3.9212783651896386 14.997234244948215  3.888581952117864 14.388519390156555  Z " fill-rule="evenodd" />
    </mask>
  </defs>
  <g transform="matrix(1 0 0 1 -1681 -426 )">
    <path d="M 3.888581952117864 14.388519390156555  C 3.888581952117864 14.388519390156555  3.8848987108655617 14.25437429653126  3.8848987108655617 14.25437429653126  L 3.8848987108655617 0.9953954773355163  L 0.9429097605893186 0.9953954773355163  C 0.9429097605893186 0.9953954773355163  0.9429097605893186 14.444899212115011  0.9429097605893186 14.444899212115011  C 0.9429097605893186 16.157563389378343  1.8988381064399171 17.89313790615952  4.1602209944751385 17.999744193185307  C 4.1602209944751385 17.999744193185307  4.383057090239411 18.004604522664483  4.383057090239411 18.004604522664483  L 6.057090239410681 18.004604522664483  L 6.057090239410681 15.377110406221222  L 4.92633517495396 15.377110406221222  L 4.92633517495396 14.381714928885705  L 7 14.381714928885705  L 7 19  C 7 19  4.383057090239411 19  4.383057090239411 19  C 2.9336396106698897 19  1.803545423195068 18.452981842487553  1.0469613259668509 17.54481735393431  C 0.3088759954463053 16.65878403629579  0 15.518948727421053  0 14.444899212115011  C 0 14.444899212115011  0 0  0 0  L 4.82780847145488 0  C 4.82780847145488 0  4.82780847145488 14.25437429653126  4.82780847145488 14.25437429653126  C 4.827820461890857 14.304013147942548  4.830376052285646 14.343733051471405  4.833333333333333 14.374910467614859  C 4.8579779250845725 14.377222118438187  4.888853722953445 14.381714928885705  4.92633517495396 14.381714928885705  C 4.92633517495396 14.381714928885705  4.92633517495396 15.377110406221222  4.92633517495396 15.377110406221222  C 4.92633517495396 15.377110406221222  4.79097605893186 15.372250076742045  4.79097605893186 15.372250076742045  C 4.186605211120942 15.33046837481459  3.9212783651896386 14.997234244948215  3.888581952117864 14.388519390156555  Z " fill-rule="nonzero" fill="rgba(190, 190, 190, 0.058823529411764705)" stroke="none" transform="matrix(1 0 0 1 1685 426 )" class="fill" />
    <path d="M 3.888581952117864 14.388519390156555  C 3.888581952117864 14.388519390156555  3.8848987108655617 14.25437429653126  3.8848987108655617 14.25437429653126  L 3.8848987108655617 0.9953954773355163  L 0.9429097605893186 0.9953954773355163  C 0.9429097605893186 0.9953954773355163  0.9429097605893186 14.444899212115011  0.9429097605893186 14.444899212115011  C 0.9429097605893186 16.157563389378343  1.8988381064399171 17.89313790615952  4.1602209944751385 17.999744193185307  C 4.1602209944751385 17.999744193185307  4.383057090239411 18.004604522664483  4.383057090239411 18.004604522664483  L 6.057090239410681 18.004604522664483  L 6.057090239410681 15.377110406221222  L 4.92633517495396 15.377110406221222  L 4.92633517495396 14.381714928885705  L 7 14.381714928885705  L 7 19  C 7 19  4.383057090239411 19  4.383057090239411 19  C 2.9336396106698897 19  1.803545423195068 18.452981842487553  1.0469613259668509 17.54481735393431  C 0.3088759954463053 16.65878403629579  0 15.518948727421053  0 14.444899212115011  C 0 14.444899212115011  0 0  0 0  L 4.82780847145488 0  C 4.82780847145488 0  4.82780847145488 14.25437429653126  4.82780847145488 14.25437429653126  C 4.827820461890857 14.304013147942548  4.830376052285646 14.343733051471405  4.833333333333333 14.374910467614859  C 4.8579779250845725 14.377222118438187  4.888853722953445 14.381714928885705  4.92633517495396 14.381714928885705  C 4.92633517495396 14.381714928885705  4.92633517495396 15.377110406221222  4.92633517495396 15.377110406221222  C 4.92633517495396 15.377110406221222  4.79097605893186 15.372250076742045  4.79097605893186 15.372250076742045  C 4.186605211120942 15.33046837481459  3.9212783651896386 14.997234244948215  3.888581952117864 14.388519390156555  Z " stroke-width="0" stroke-dasharray="0" stroke="rgba(121, 121, 121, 1)" fill="none" transform="matrix(1 0 0 1 1685 426 )" class="stroke" mask="url(#Clip5025)" />
  </g>
  <style>svg { filter: drop-shadow(0px 4px 2px rgba(0, 0, 0, 0.12941176470588237)); }</style>
</svg>