<?xml version="1.0" encoding="utf-8"?>
<svg version="1.1" xmlns:xlink="http://www.w3.org/1999/xlink" width="21px" height="23px" xmlns="http://www.w3.org/2000/svg">
  <defs>
    <pattern id="BGPattern" patternUnits="userSpaceOnUse" alignment="0 0" imageRepeat="None" />
    <mask fill="white" id="Clip5024">
      <path d="M 11.963914325624708 7.91146761734997  C 11.963914325624708 7.91146761734997  11.966940866056184 7.488611606258665  11.966940866056184 7.488611606258665  C 11.966940866056184 5.200887020093706  11.669403469305351 3.764333409539637  10.504112990842774 2.5717963953258067  C 9.71068699345462 1.7444726494804046  8.396705893872227 1.0140621905327787  6.487893838274096 1.0140621905327787  C 4.5788535852712 1.0140870564655398  3.289262884395492 1.7443362300432326  2.495887009157225 2.5717963953258067  C 1.3306104466723818 3.7643299038562708  1.033059133943815 5.200898383343236  1.033059133943815 7.488611606258665  C 1.033059133943815 7.488611606258665  1.037094521185783 7.91146761734997  1.037094521185783 7.91146761734997  C 1.074030069910405 9.978788439697217  1.4033900250120042 11.311152536199927  2.495887009157225 12.429193899782135  C 3.2892657784262593 13.256639679674347  4.578881540376911 13.985912940848769  6.487893838274096 13.985937809467222  C 8.396666855244428 13.985937809467222  9.710681882719436 13.256497276398328  10.504112990842774 12.429193899782135  C 11.596610344438732 11.311151810886129  11.926979146350824 9.978790615638616  11.963914325624708 7.91146761734997  Z M 7.608722644730715 9.089918795801148  C 7.6910195819121165 8.666270379383604  7.711618156336434 8.142279815522722  7.7116250194009 7.488611606258665  C 7.7116250194009 6.834485784429775  7.690521231353348 6.317475489470765  7.608722644730715 5.901168548227372  C 7.528671821784884 5.493987565655406  7.406245122539799 5.272626312068487  7.269750116405402 5.1386413151119035  C 7.119299724459852 4.99102957580651  6.900237712655843 4.876213111507229  6.487893838274096 4.876213111507229  C 6.088950927298613 4.876230500924763  5.890040144090713 4.982883380082225  5.731258730405091 5.1386413151119035  C 5.594763739664473 5.272626372511303  5.47233707120695 5.493987505212589  5.392286202079776 5.901168548227372  C 5.310480580499375 6.317482863494396  5.2893838274095915 6.83446354147325  5.2893838274095915 7.488611606258665  C 5.2893906907808255 8.142301393608264  5.309982368484633 8.666262975138563  5.392286202079776 9.089918795801148  C 5.473375343229207 9.507205152445486  5.597737048402366 9.731282555105473  5.731258730405091 9.862348979996039  C 5.890031585148656 10.018080682843292  6.088990735615445 10.124759796774798  6.487893838274096 10.124777183600713  C 6.487893838274096 10.124777183600713  6.487893838274096 11.138839374133491  6.487893838274096 11.138839374133491  C 5.924058875404085 11.138822195369357  5.493169220600664 10.989711804540116  5.145118733509235 10.708061002178649  C 5.145118733509235 10.708061002178649  5.000853639608878 10.579322638146166  5.000853639608878 10.579322638146166  C 4.415183153023691 10.004421694251802  4.28478205783127 9.075387859136711  4.261368927518237 7.971875618934442  C 4.261368927518237 7.971875618934442  4.256324693465777 7.488611606258665  4.256324693465777 7.488611606258665  C 4.256324693465777 6.256630697871794  4.322183228012717 5.216990497518847  4.881809715970821 4.550406020994256  C 4.881809715970821 4.550406020994256  5.000853639608878 4.421667656961775  5.000853639608878 4.421667656961775  C 5.372692936458111 4.05679990995471  5.843475019711617 3.8621705555950805  6.487893838274096 3.8621509209744502  C 6.487893838274096 3.8621509209744502  6.722955145118733 3.8710635769459296  6.722955145118733 3.8710635769459296  C 7.254643460524927 3.9133383255473313  7.6747944755027255 4.102364515734087  8.000155207201615 4.421667656961775  C 8.6695777742681 5.078780200132452  8.744684153344714 6.17438651991731  8.744684153344714 7.488611606258665  C 8.744684153344714 7.488611606258665  8.739639919292255 7.971875618934442  8.739639919292255 7.971875618934442  C 8.716227129566619 9.07539003507811  8.585826863714132 10.004420908495185  8.000155207201615 10.579322638146166  C 8.000155207201615 10.579322638146166  7.854881266490764 10.708061002178649  7.854881266490764 10.708061002178649  C 7.502031583547702 10.989818878989805  7.051869623449747 11.138839374133491  6.487893838274096 11.138839374133491  C 6.487893838274096 11.138839374133491  6.487893838274096 10.124777183600713  6.487893838274096 10.124777183600713  C 6.90019424061921 10.124777183600713  7.119301756438902 10.009937463927727  7.269750116405402 9.862348979996039  C 7.4032717984081255 9.731282630658995  7.527633549762626 9.507205092002671  7.608722644730715 9.089918795801148  Z M 11.25570386465932 1.876609229550406  C 12.702586122945323 3.361366107265981  13 5.136788621896043  13 7.488611606258665  C 12.999972263861048 9.86224187532494  12.702386003796514 11.63719740875359  11.25570386465932 13.122400475341653  C 11.25570386465932 13.122400475341653  11.256712711469811 13.123390770449594  11.256712711469811 13.123390770449594  C 10.272565529950747 14.149818473297621  8.688282572444173 15  6.487893838274096 15  C 4.2868196498380025 14.999974871017033  2.731233408820013 14.149315709948752  1.750349216203632 13.129332541097247  C 0.2980058602844172 11.643757388529906  2.7777169616154294E-05 9.865823716639433  0 7.488611606258665  C 0 5.133547678067439  0.2982990810187655 3.355678317333878  1.750349216203632 1.8696771637948109  C 2.7312884569797165 0.8501371616749603  4.287536384266355 2.5117723723169976E-05  6.487893838274096 0  C 8.688065828012233 0  10.272544348108532 0.8503181274680011  11.256712711469811 1.876609229550406  C 11.256712711469811 1.876609229550406  11.25570386465932 1.876609229550406  11.25570386465932 1.876609229550406  Z " fill-rule="evenodd" />
    </mask>
  </defs>
  <g transform="matrix(1 0 0 1 -1688 -430 )">
    <path d="M 11.963914325624708 7.91146761734997  C 11.963914325624708 7.91146761734997  11.966940866056184 7.488611606258665  11.966940866056184 7.488611606258665  C 11.966940866056184 5.200887020093706  11.669403469305351 3.764333409539637  10.504112990842774 2.5717963953258067  C 9.71068699345462 1.7444726494804046  8.396705893872227 1.0140621905327787  6.487893838274096 1.0140621905327787  C 4.5788535852712 1.0140870564655398  3.289262884395492 1.7443362300432326  2.495887009157225 2.5717963953258067  C 1.3306104466723818 3.7643299038562708  1.033059133943815 5.200898383343236  1.033059133943815 7.488611606258665  C 1.033059133943815 7.488611606258665  1.037094521185783 7.91146761734997  1.037094521185783 7.91146761734997  C 1.074030069910405 9.978788439697217  1.4033900250120042 11.311152536199927  2.495887009157225 12.429193899782135  C 3.2892657784262593 13.256639679674347  4.578881540376911 13.985912940848769  6.487893838274096 13.985937809467222  C 8.396666855244428 13.985937809467222  9.710681882719436 13.256497276398328  10.504112990842774 12.429193899782135  C 11.596610344438732 11.311151810886129  11.926979146350824 9.978790615638616  11.963914325624708 7.91146761734997  Z M 7.608722644730715 9.089918795801148  C 7.6910195819121165 8.666270379383604  7.711618156336434 8.142279815522722  7.7116250194009 7.488611606258665  C 7.7116250194009 6.834485784429775  7.690521231353348 6.317475489470765  7.608722644730715 5.901168548227372  C 7.528671821784884 5.493987565655406  7.406245122539799 5.272626312068487  7.269750116405402 5.1386413151119035  C 7.119299724459852 4.99102957580651  6.900237712655843 4.876213111507229  6.487893838274096 4.876213111507229  C 6.088950927298613 4.876230500924763  5.890040144090713 4.982883380082225  5.731258730405091 5.1386413151119035  C 5.594763739664473 5.272626372511303  5.47233707120695 5.493987505212589  5.392286202079776 5.901168548227372  C 5.310480580499375 6.317482863494396  5.2893838274095915 6.83446354147325  5.2893838274095915 7.488611606258665  C 5.2893906907808255 8.142301393608264  5.309982368484633 8.666262975138563  5.392286202079776 9.089918795801148  C 5.473375343229207 9.507205152445486  5.597737048402366 9.731282555105473  5.731258730405091 9.862348979996039  C 5.890031585148656 10.018080682843292  6.088990735615445 10.124759796774798  6.487893838274096 10.124777183600713  C 6.487893838274096 10.124777183600713  6.487893838274096 11.138839374133491  6.487893838274096 11.138839374133491  C 5.924058875404085 11.138822195369357  5.493169220600664 10.989711804540116  5.145118733509235 10.708061002178649  C 5.145118733509235 10.708061002178649  5.000853639608878 10.579322638146166  5.000853639608878 10.579322638146166  C 4.415183153023691 10.004421694251802  4.28478205783127 9.075387859136711  4.261368927518237 7.971875618934442  C 4.261368927518237 7.971875618934442  4.256324693465777 7.488611606258665  4.256324693465777 7.488611606258665  C 4.256324693465777 6.256630697871794  4.322183228012717 5.216990497518847  4.881809715970821 4.550406020994256  C 4.881809715970821 4.550406020994256  5.000853639608878 4.421667656961775  5.000853639608878 4.421667656961775  C 5.372692936458111 4.05679990995471  5.843475019711617 3.8621705555950805  6.487893838274096 3.8621509209744502  C 6.487893838274096 3.8621509209744502  6.722955145118733 3.8710635769459296  6.722955145118733 3.8710635769459296  C 7.254643460524927 3.9133383255473313  7.6747944755027255 4.102364515734087  8.000155207201615 4.421667656961775  C 8.6695777742681 5.078780200132452  8.744684153344714 6.17438651991731  8.744684153344714 7.488611606258665  C 8.744684153344714 7.488611606258665  8.739639919292255 7.971875618934442  8.739639919292255 7.971875618934442  C 8.716227129566619 9.07539003507811  8.585826863714132 10.004420908495185  8.000155207201615 10.579322638146166  C 8.000155207201615 10.579322638146166  7.854881266490764 10.708061002178649  7.854881266490764 10.708061002178649  C 7.502031583547702 10.989818878989805  7.051869623449747 11.138839374133491  6.487893838274096 11.138839374133491  C 6.487893838274096 11.138839374133491  6.487893838274096 10.124777183600713  6.487893838274096 10.124777183600713  C 6.90019424061921 10.124777183600713  7.119301756438902 10.009937463927727  7.269750116405402 9.862348979996039  C 7.4032717984081255 9.731282630658995  7.527633549762626 9.507205092002671  7.608722644730715 9.089918795801148  Z M 11.25570386465932 1.876609229550406  C 12.702586122945323 3.361366107265981  13 5.136788621896043  13 7.488611606258665  C 12.999972263861048 9.86224187532494  12.702386003796514 11.63719740875359  11.25570386465932 13.122400475341653  C 11.25570386465932 13.122400475341653  11.256712711469811 13.123390770449594  11.256712711469811 13.123390770449594  C 10.272565529950747 14.149818473297621  8.688282572444173 15  6.487893838274096 15  C 4.2868196498380025 14.999974871017033  2.731233408820013 14.149315709948752  1.750349216203632 13.129332541097247  C 0.2980058602844172 11.643757388529906  2.7777169616154294E-05 9.865823716639433  0 7.488611606258665  C 0 5.133547678067439  0.2982990810187655 3.355678317333878  1.750349216203632 1.8696771637948109  C 2.7312884569797165 0.8501371616749603  4.287536384266355 2.5117723723169976E-05  6.487893838274096 0  C 8.688065828012233 0  10.272544348108532 0.8503181274680011  11.256712711469811 1.876609229550406  C 11.256712711469811 1.876609229550406  11.25570386465932 1.876609229550406  11.25570386465932 1.876609229550406  Z " fill-rule="nonzero" fill="rgba(190, 190, 190, 0.058823529411764705)" stroke="none" transform="matrix(1 0 0 1 1692 430 )" class="fill" />
    <path d="M 11.963914325624708 7.91146761734997  C 11.963914325624708 7.91146761734997  11.966940866056184 7.488611606258665  11.966940866056184 7.488611606258665  C 11.966940866056184 5.200887020093706  11.669403469305351 3.764333409539637  10.504112990842774 2.5717963953258067  C 9.71068699345462 1.7444726494804046  8.396705893872227 1.0140621905327787  6.487893838274096 1.0140621905327787  C 4.5788535852712 1.0140870564655398  3.289262884395492 1.7443362300432326  2.495887009157225 2.5717963953258067  C 1.3306104466723818 3.7643299038562708  1.033059133943815 5.200898383343236  1.033059133943815 7.488611606258665  C 1.033059133943815 7.488611606258665  1.037094521185783 7.91146761734997  1.037094521185783 7.91146761734997  C 1.074030069910405 9.978788439697217  1.4033900250120042 11.311152536199927  2.495887009157225 12.429193899782135  C 3.2892657784262593 13.256639679674347  4.578881540376911 13.985912940848769  6.487893838274096 13.985937809467222  C 8.396666855244428 13.985937809467222  9.710681882719436 13.256497276398328  10.504112990842774 12.429193899782135  C 11.596610344438732 11.311151810886129  11.926979146350824 9.978790615638616  11.963914325624708 7.91146761734997  Z " stroke-width="0" stroke-dasharray="0" stroke="rgba(121, 121, 121, 1)" fill="none" transform="matrix(1 0 0 1 1692 430 )" class="stroke" mask="url(#Clip5024)" />
    <path d="M 7.608722644730715 9.089918795801148  C 7.6910195819121165 8.666270379383604  7.711618156336434 8.142279815522722  7.7116250194009 7.488611606258665  C 7.7116250194009 6.834485784429775  7.690521231353348 6.317475489470765  7.608722644730715 5.901168548227372  C 7.528671821784884 5.493987565655406  7.406245122539799 5.272626312068487  7.269750116405402 5.1386413151119035  C 7.119299724459852 4.99102957580651  6.900237712655843 4.876213111507229  6.487893838274096 4.876213111507229  C 6.088950927298613 4.876230500924763  5.890040144090713 4.982883380082225  5.731258730405091 5.1386413151119035  C 5.594763739664473 5.272626372511303  5.47233707120695 5.493987505212589  5.392286202079776 5.901168548227372  C 5.310480580499375 6.317482863494396  5.2893838274095915 6.83446354147325  5.2893838274095915 7.488611606258665  C 5.2893906907808255 8.142301393608264  5.309982368484633 8.666262975138563  5.392286202079776 9.089918795801148  C 5.473375343229207 9.507205152445486  5.597737048402366 9.731282555105473  5.731258730405091 9.862348979996039  C 5.890031585148656 10.018080682843292  6.088990735615445 10.124759796774798  6.487893838274096 10.124777183600713  C 6.487893838274096 10.124777183600713  6.487893838274096 11.138839374133491  6.487893838274096 11.138839374133491  C 5.924058875404085 11.138822195369357  5.493169220600664 10.989711804540116  5.145118733509235 10.708061002178649  C 5.145118733509235 10.708061002178649  5.000853639608878 10.579322638146166  5.000853639608878 10.579322638146166  C 4.415183153023691 10.004421694251802  4.28478205783127 9.075387859136711  4.261368927518237 7.971875618934442  C 4.261368927518237 7.971875618934442  4.256324693465777 7.488611606258665  4.256324693465777 7.488611606258665  C 4.256324693465777 6.256630697871794  4.322183228012717 5.216990497518847  4.881809715970821 4.550406020994256  C 4.881809715970821 4.550406020994256  5.000853639608878 4.421667656961775  5.000853639608878 4.421667656961775  C 5.372692936458111 4.05679990995471  5.843475019711617 3.8621705555950805  6.487893838274096 3.8621509209744502  C 6.487893838274096 3.8621509209744502  6.722955145118733 3.8710635769459296  6.722955145118733 3.8710635769459296  C 7.254643460524927 3.9133383255473313  7.6747944755027255 4.102364515734087  8.000155207201615 4.421667656961775  C 8.6695777742681 5.078780200132452  8.744684153344714 6.17438651991731  8.744684153344714 7.488611606258665  C 8.744684153344714 7.488611606258665  8.739639919292255 7.971875618934442  8.739639919292255 7.971875618934442  C 8.716227129566619 9.07539003507811  8.585826863714132 10.004420908495185  8.000155207201615 10.579322638146166  C 8.000155207201615 10.579322638146166  7.854881266490764 10.708061002178649  7.854881266490764 10.708061002178649  C 7.502031583547702 10.989818878989805  7.051869623449747 11.138839374133491  6.487893838274096 11.138839374133491  C 6.487893838274096 11.138839374133491  6.487893838274096 10.124777183600713  6.487893838274096 10.124777183600713  C 6.90019424061921 10.124777183600713  7.119301756438902 10.009937463927727  7.269750116405402 9.862348979996039  C 7.4032717984081255 9.731282630658995  7.527633549762626 9.507205092002671  7.608722644730715 9.089918795801148  Z " stroke-width="0" stroke-dasharray="0" stroke="rgba(121, 121, 121, 1)" fill="none" transform="matrix(1 0 0 1 1692 430 )" class="stroke" mask="url(#Clip5024)" />
    <path d="M 11.25570386465932 1.876609229550406  C 12.702586122945323 3.361366107265981  13 5.136788621896043  13 7.488611606258665  C 12.999972263861048 9.86224187532494  12.702386003796514 11.63719740875359  11.25570386465932 13.122400475341653  C 11.25570386465932 13.122400475341653  11.256712711469811 13.123390770449594  11.256712711469811 13.123390770449594  C 10.272565529950747 14.149818473297621  8.688282572444173 15  6.487893838274096 15  C 4.2868196498380025 14.999974871017033  2.731233408820013 14.149315709948752  1.750349216203632 13.129332541097247  C 0.2980058602844172 11.643757388529906  2.7777169616154294E-05 9.865823716639433  0 7.488611606258665  C 0 5.133547678067439  0.2982990810187655 3.355678317333878  1.750349216203632 1.8696771637948109  C 2.7312884569797165 0.8501371616749603  4.287536384266355 2.5117723723169976E-05  6.487893838274096 0  C 8.688065828012233 0  10.272544348108532 0.8503181274680011  11.256712711469811 1.876609229550406  C 11.256712711469811 1.876609229550406  11.25570386465932 1.876609229550406  11.25570386465932 1.876609229550406  Z " stroke-width="0" stroke-dasharray="0" stroke="rgba(121, 121, 121, 1)" fill="none" transform="matrix(1 0 0 1 1692 430 )" class="stroke" mask="url(#Clip5024)" />
  </g>
  <style>svg { filter: drop-shadow(0px 4px 2px rgba(0, 0, 0, 0.12941176470588237)); }</style>
</svg>