<?xml version="1.0" encoding="utf-8"?>
<svg version="1.1" xmlns:xlink="http://www.w3.org/1999/xlink" width="25px" height="27px" xmlns="http://www.w3.org/2000/svg">
  <defs>
    <pattern id="BGPattern" patternUnits="userSpaceOnUse" alignment="0 0" imageRepeat="None" />
    <mask fill="white" id="Clip5031">
      <path d="M 16 18.004604522664483  L 16 0.9953954773355163  L 12.82954354991899 0.9953954773355163  L 8.511872171629701 10.193082983730687  L 4.17045645008101 0.9953954773355163  L 1 0.9953954773355163  L 1 18.004604522664483  L 4.216995362869434 18.004604522664483  L 4.216995362869434 8.090504451038576  L 7.414883513045422 14.540161669906885  L 9.608860830213978 14.540161669906885  L 12.783004637130565 8.090504451038576  L 12.783004637130565 18.004604522664483  L 16 18.004604522664483  Z M 17 0  L 17 19  L 11.810436337225545 19  L 11.810436337225545 12.279136396193595  L 10.208168054081234 15.535557147242402  L 6.817475836638918 15.535557147242402  L 5.189563662774456 12.250946485214365  L 5.189563662774456 19  L 0 19  L 0 0  L 4.780211184982401 0  L 5.046147829487681 0.5618540877928988  L 8.509022850438573 7.899007469558988  L 12.217889267556847 0  L 17 0  Z " fill-rule="evenodd" />
    </mask>
  </defs>
  <g transform="matrix(1 0 0 1 -1535 -426 )">
    <path d="M 16 18.004604522664483  L 16 0.9953954773355163  L 12.82954354991899 0.9953954773355163  L 8.511872171629701 10.193082983730687  L 4.17045645008101 0.9953954773355163  L 1 0.9953954773355163  L 1 18.004604522664483  L 4.216995362869434 18.004604522664483  L 4.216995362869434 8.090504451038576  L 7.414883513045422 14.540161669906885  L 9.608860830213978 14.540161669906885  L 12.783004637130565 8.090504451038576  L 12.783004637130565 18.004604522664483  L 16 18.004604522664483  Z M 17 0  L 17 19  L 11.810436337225545 19  L 11.810436337225545 12.279136396193595  L 10.208168054081234 15.535557147242402  L 6.817475836638918 15.535557147242402  L 5.189563662774456 12.250946485214365  L 5.189563662774456 19  L 0 19  L 0 0  L 4.780211184982401 0  L 5.046147829487681 0.5618540877928988  L 8.509022850438573 7.899007469558988  L 12.217889267556847 0  L 17 0  Z " fill-rule="nonzero" fill="rgba(190, 190, 190, 0.058823529411764705)" stroke="none" transform="matrix(1 0 0 1 1539 426 )" class="fill" />
    <path d="M 16 18.004604522664483  L 16 0.9953954773355163  L 12.82954354991899 0.9953954773355163  L 8.511872171629701 10.193082983730687  L 4.17045645008101 0.9953954773355163  L 1 0.9953954773355163  L 1 18.004604522664483  L 4.216995362869434 18.004604522664483  L 4.216995362869434 8.090504451038576  L 7.414883513045422 14.540161669906885  L 9.608860830213978 14.540161669906885  L 12.783004637130565 8.090504451038576  L 12.783004637130565 18.004604522664483  L 16 18.004604522664483  Z " stroke-width="0" stroke-dasharray="0" stroke="rgba(121, 121, 121, 1)" fill="none" transform="matrix(1 0 0 1 1539 426 )" class="stroke" mask="url(#Clip5031)" />
    <path d="M 17 0  L 17 19  L 11.810436337225545 19  L 11.810436337225545 12.279136396193595  L 10.208168054081234 15.535557147242402  L 6.817475836638918 15.535557147242402  L 5.189563662774456 12.250946485214365  L 5.189563662774456 19  L 0 19  L 0 0  L 4.780211184982401 0  L 5.046147829487681 0.5618540877928988  L 8.509022850438573 7.899007469558988  L 12.217889267556847 0  L 17 0  Z " stroke-width="0" stroke-dasharray="0" stroke="rgba(121, 121, 121, 1)" fill="none" transform="matrix(1 0 0 1 1539 426 )" class="stroke" mask="url(#Clip5031)" />
  </g>
  <style>svg { filter: drop-shadow(0px 4px 2px rgba(0, 0, 0, 0.12941176470588237)); }</style>
</svg>