<?xml version="1.0" encoding="utf-8"?>
<svg version="1.1" xmlns:xlink="http://www.w3.org/1999/xlink" width="24px" height="33px" xmlns="http://www.w3.org/2000/svg">
  <defs>
    <pattern id="BGPattern" patternUnits="userSpaceOnUse" alignment="0 0" imageRepeat="None" />
    <mask fill="white" id="Clip5057">
      <path d="M 14.9921028466483 16.398185799186738  C 14.9921028466483 16.398185799186738  14.997000306091214 15.447098842665  14.997000306091214 15.447098842665  C 14.997000306091214 12.948756356667385  14.964613942454852 10.097293895522169  13.295622895622895 8.43173287456991  C 12.42292748746939 7.561005433350755  11.042460710322926 6.999918867880231  9.524579124579125 6.933257741632781  C 9.524579124579125 6.933257741632781  9.219957147229875 6.926415389427588  9.219957147229875 6.926415389427588  C 7.518941665710131 6.926415389427588  6.2668664629247015 7.375015435384369  5.1756351392715025 8.5920394119487  C 5.1756351392715025 8.5920394119487  5.1756351392715025 1.0009383797309979  5.1756351392715025 1.0009383797309979  L 1 1.0009383797309979  L 1 23.806498279637157  L 5.047321701867157 23.806498279637157  C 5.047321701867157 23.806498279637157  5.047321701867157 22.23666718798874  5.047321701867157 22.23666718798874  C 6.130609001951331 23.437846150665234  7.298360140228038 23.935757191956025  8.894765840220385 23.993196746950264  C 8.894765840220385 23.993196746950264  9.219957147229875 23.999061620269003  9.219957147229875 23.999061620269003  C 10.754462475130088 23.99899108792152  12.17581592439547 23.49153374894768  13.114416896235078 22.662847982483576  C 13.114416896235078 22.662847982483576  13.295622895622895 22.493744135126683  13.295622895622895 22.493744135126683  C 14.75604195362718 21.03632597912838  14.963152956604993 18.646488422373515  14.9921028466483 16.398185799186738  Z M 9.438383838383839 18.454801376290273  C 9.729965911482246 17.816420558992686  9.821345748069785 16.822659346622565  9.821365166819712 15.447098842665  C 9.821365166819712 14.070428294019846  9.729202058463422 13.086629503027588  9.439363330272421 12.45796840788239  C 9.308666954822849 12.174513968669663  9.154216645622895 12.000945071559569  8.972145699418427 11.889075695964966  C 8.785024218271733 11.774141810109626  8.48849584265955 11.675007819831091  7.999510254055709 11.675007819831091  C 7.5108103107304105 11.675072601756904  7.214914757781413 11.77417928440928  7.0278543005815735 11.889075695964966  C 6.845761548367195 12.00095379691889  6.69036412001167 12.17446468903342  6.559657177838996 12.45796840788239  C 6.269925252764386 13.086642091409242  6.178634833180288 14.070642833453176  6.178634833180288 15.447098842665  C 6.178654252003193 16.82265922730141  6.270034028734313 17.816420558992686  6.561616161616161 18.454801376290273  C 6.693585759943182 18.743706286456906  6.850380820515764 18.91989292560013  7.032751760024487 19.033468877072256  C 7.219300470973944 19.149516819788957  7.51348564958295 19.250403494875055  7.999510254055709 19.2504691898655  C 7.999510254055709 19.2504691898655  7.999510254055709 20.2514075695965  7.999510254055709 20.2514075695965  C 7.999510254055709 20.2514075695965  7.771288644015916 20.24554269627776  7.771288644015916 20.24554269627776  C 5.624819214876033 20.128743373344644  5.222522323883963 18.33893051362239  5.179553106825834 15.94952299030341  C 5.179553106825834 15.94952299030341  5.1756351392715025 15.447098842665  5.1756351392715025 15.447098842665  C 5.1756351392715025 12.724719675473956  5.496460581190695 10.674330504558116  7.999510254055709 10.674069440100094  C 10.50299778083869 10.674069440100094  10.824364860728497 12.724546182517301  10.824364860728497 15.447098842665  C 10.824364860728497 15.447098842665  10.820446893174166 15.94952299030341  10.820446893174166 15.94952299030341  C 10.775993877278944 18.42144610250149  10.346454363712887 20.2514075695965  7.999510254055709 20.2514075695965  C 7.999510254055709 20.2514075695965  7.999510254055709 19.2504691898655  7.999510254055709 19.2504691898655  C 8.485820503807009 19.2504691898655  8.78063834067474 19.149554875779234  8.967248239975513 19.033468877072256  C 9.149613993270776 18.91989144900086  9.306417393633303 18.7437027366526  9.438383838383839 18.454801376290273  Z M 6.178634833180288 0  C 6.178634833180288 0  6.178634833180288 6.563770722552392  6.178634833180288 6.563770722552392  C 7.081692636593205 6.1115547683711045  8.0847424290251 5.925477009696591  9.219957147229875 5.925477009696591  C 11.069512597566575 5.925551783188614  12.851470194367922 6.573286465193504  14.00477502295684 7.724038160775727  C 15.043506322696663 8.760634712550951  15.525378055531641 10.118597374881174  15.760024487297214 11.454097591492024  C 15.994056449915824 12.7862043145078  16 14.209373481280362  16 15.447098842665  C 15.999998641179667 16.684894006924218  15.99377065517868 18.11454171570607  15.760024487297214 19.453784798248357  C 15.525868085447275 20.795254413508086  15.044994691230487 22.16335674878915  14.00477502295684 23.201438848920862  C 12.851468161730946 24.352151884449473  11.06947864057239 24.99992522910793  9.219957147229875 25  C 8.24649340229951 25  7.352996943870523 24.86711212124793  6.520477502295684 24.522990303409447  C 6.359122474747474 24.456280412098224  6.203388764539333 24.38006315299933  6.050321395775941 24.29914763841101  C 6.050321395775941 24.29914763841101  6.050321395775941 24.807436659368157  6.050321395775941 24.807436659368157  L 0 24.807436659368157  L 0 0  L 6.178634833180288 0  Z " fill-rule="evenodd" />
    </mask>
  </defs>
  <g transform="matrix(1 0 0 1 -923 -993 )">
    <path d="M 14.9921028466483 16.398185799186738  C 14.9921028466483 16.398185799186738  14.997000306091214 15.447098842665  14.997000306091214 15.447098842665  C 14.997000306091214 12.948756356667385  14.964613942454852 10.097293895522169  13.295622895622895 8.43173287456991  C 12.42292748746939 7.561005433350755  11.042460710322926 6.999918867880231  9.524579124579125 6.933257741632781  C 9.524579124579125 6.933257741632781  9.219957147229875 6.926415389427588  9.219957147229875 6.926415389427588  C 7.518941665710131 6.926415389427588  6.2668664629247015 7.375015435384369  5.1756351392715025 8.5920394119487  C 5.1756351392715025 8.5920394119487  5.1756351392715025 1.0009383797309979  5.1756351392715025 1.0009383797309979  L 1 1.0009383797309979  L 1 23.806498279637157  L 5.047321701867157 23.806498279637157  C 5.047321701867157 23.806498279637157  5.047321701867157 22.23666718798874  5.047321701867157 22.23666718798874  C 6.130609001951331 23.437846150665234  7.298360140228038 23.935757191956025  8.894765840220385 23.993196746950264  C 8.894765840220385 23.993196746950264  9.219957147229875 23.999061620269003  9.219957147229875 23.999061620269003  C 10.754462475130088 23.99899108792152  12.17581592439547 23.49153374894768  13.114416896235078 22.662847982483576  C 13.114416896235078 22.662847982483576  13.295622895622895 22.493744135126683  13.295622895622895 22.493744135126683  C 14.75604195362718 21.03632597912838  14.963152956604993 18.646488422373515  14.9921028466483 16.398185799186738  Z M 9.438383838383839 18.454801376290273  C 9.729965911482246 17.816420558992686  9.821345748069785 16.822659346622565  9.821365166819712 15.447098842665  C 9.821365166819712 14.070428294019846  9.729202058463422 13.086629503027588  9.439363330272421 12.45796840788239  C 9.308666954822849 12.174513968669663  9.154216645622895 12.000945071559569  8.972145699418427 11.889075695964966  C 8.785024218271733 11.774141810109626  8.48849584265955 11.675007819831091  7.999510254055709 11.675007819831091  C 7.5108103107304105 11.675072601756904  7.214914757781413 11.77417928440928  7.0278543005815735 11.889075695964966  C 6.845761548367195 12.00095379691889  6.69036412001167 12.17446468903342  6.559657177838996 12.45796840788239  C 6.269925252764386 13.086642091409242  6.178634833180288 14.070642833453176  6.178634833180288 15.447098842665  C 6.178654252003193 16.82265922730141  6.270034028734313 17.816420558992686  6.561616161616161 18.454801376290273  C 6.693585759943182 18.743706286456906  6.850380820515764 18.91989292560013  7.032751760024487 19.033468877072256  C 7.219300470973944 19.149516819788957  7.51348564958295 19.250403494875055  7.999510254055709 19.2504691898655  C 7.999510254055709 19.2504691898655  7.999510254055709 20.2514075695965  7.999510254055709 20.2514075695965  C 7.999510254055709 20.2514075695965  7.771288644015916 20.24554269627776  7.771288644015916 20.24554269627776  C 5.624819214876033 20.128743373344644  5.222522323883963 18.33893051362239  5.179553106825834 15.94952299030341  C 5.179553106825834 15.94952299030341  5.1756351392715025 15.447098842665  5.1756351392715025 15.447098842665  C 5.1756351392715025 12.724719675473956  5.496460581190695 10.674330504558116  7.999510254055709 10.674069440100094  C 10.50299778083869 10.674069440100094  10.824364860728497 12.724546182517301  10.824364860728497 15.447098842665  C 10.824364860728497 15.447098842665  10.820446893174166 15.94952299030341  10.820446893174166 15.94952299030341  C 10.775993877278944 18.42144610250149  10.346454363712887 20.2514075695965  7.999510254055709 20.2514075695965  C 7.999510254055709 20.2514075695965  7.999510254055709 19.2504691898655  7.999510254055709 19.2504691898655  C 8.485820503807009 19.2504691898655  8.78063834067474 19.149554875779234  8.967248239975513 19.033468877072256  C 9.149613993270776 18.91989144900086  9.306417393633303 18.7437027366526  9.438383838383839 18.454801376290273  Z M 6.178634833180288 0  C 6.178634833180288 0  6.178634833180288 6.563770722552392  6.178634833180288 6.563770722552392  C 7.081692636593205 6.1115547683711045  8.0847424290251 5.925477009696591  9.219957147229875 5.925477009696591  C 11.069512597566575 5.925551783188614  12.851470194367922 6.573286465193504  14.00477502295684 7.724038160775727  C 15.043506322696663 8.760634712550951  15.525378055531641 10.118597374881174  15.760024487297214 11.454097591492024  C 15.994056449915824 12.7862043145078  16 14.209373481280362  16 15.447098842665  C 15.999998641179667 16.684894006924218  15.99377065517868 18.11454171570607  15.760024487297214 19.453784798248357  C 15.525868085447275 20.795254413508086  15.044994691230487 22.16335674878915  14.00477502295684 23.201438848920862  C 12.851468161730946 24.352151884449473  11.06947864057239 24.99992522910793  9.219957147229875 25  C 8.24649340229951 25  7.352996943870523 24.86711212124793  6.520477502295684 24.522990303409447  C 6.359122474747474 24.456280412098224  6.203388764539333 24.38006315299933  6.050321395775941 24.29914763841101  C 6.050321395775941 24.29914763841101  6.050321395775941 24.807436659368157  6.050321395775941 24.807436659368157  L 0 24.807436659368157  L 0 0  L 6.178634833180288 0  Z " fill-rule="nonzero" fill="rgba(190, 190, 190, 0.058823529411764705)" stroke="none" transform="matrix(1 0 0 1 927 993 )" class="fill" />
    <path d="M 14.9921028466483 16.398185799186738  C 14.9921028466483 16.398185799186738  14.997000306091214 15.447098842665  14.997000306091214 15.447098842665  C 14.997000306091214 12.948756356667385  14.964613942454852 10.097293895522169  13.295622895622895 8.43173287456991  C 12.42292748746939 7.561005433350755  11.042460710322926 6.999918867880231  9.524579124579125 6.933257741632781  C 9.524579124579125 6.933257741632781  9.219957147229875 6.926415389427588  9.219957147229875 6.926415389427588  C 7.518941665710131 6.926415389427588  6.2668664629247015 7.375015435384369  5.1756351392715025 8.5920394119487  C 5.1756351392715025 8.5920394119487  5.1756351392715025 1.0009383797309979  5.1756351392715025 1.0009383797309979  L 1 1.0009383797309979  L 1 23.806498279637157  L 5.047321701867157 23.806498279637157  C 5.047321701867157 23.806498279637157  5.047321701867157 22.23666718798874  5.047321701867157 22.23666718798874  C 6.130609001951331 23.437846150665234  7.298360140228038 23.935757191956025  8.894765840220385 23.993196746950264  C 8.894765840220385 23.993196746950264  9.219957147229875 23.999061620269003  9.219957147229875 23.999061620269003  C 10.754462475130088 23.99899108792152  12.17581592439547 23.49153374894768  13.114416896235078 22.662847982483576  C 13.114416896235078 22.662847982483576  13.295622895622895 22.493744135126683  13.295622895622895 22.493744135126683  C 14.75604195362718 21.03632597912838  14.963152956604993 18.646488422373515  14.9921028466483 16.398185799186738  Z " stroke-width="0" stroke-dasharray="0" stroke="rgba(121, 121, 121, 1)" fill="none" transform="matrix(1 0 0 1 927 993 )" class="stroke" mask="url(#Clip5057)" />
    <path d="M 9.438383838383839 18.454801376290273  C 9.729965911482246 17.816420558992686  9.821345748069785 16.822659346622565  9.821365166819712 15.447098842665  C 9.821365166819712 14.070428294019846  9.729202058463422 13.086629503027588  9.439363330272421 12.45796840788239  C 9.308666954822849 12.174513968669663  9.154216645622895 12.000945071559569  8.972145699418427 11.889075695964966  C 8.785024218271733 11.774141810109626  8.48849584265955 11.675007819831091  7.999510254055709 11.675007819831091  C 7.5108103107304105 11.675072601756904  7.214914757781413 11.77417928440928  7.0278543005815735 11.889075695964966  C 6.845761548367195 12.00095379691889  6.69036412001167 12.17446468903342  6.559657177838996 12.45796840788239  C 6.269925252764386 13.086642091409242  6.178634833180288 14.070642833453176  6.178634833180288 15.447098842665  C 6.178654252003193 16.82265922730141  6.270034028734313 17.816420558992686  6.561616161616161 18.454801376290273  C 6.693585759943182 18.743706286456906  6.850380820515764 18.91989292560013  7.032751760024487 19.033468877072256  C 7.219300470973944 19.149516819788957  7.51348564958295 19.250403494875055  7.999510254055709 19.2504691898655  C 7.999510254055709 19.2504691898655  7.999510254055709 20.2514075695965  7.999510254055709 20.2514075695965  C 7.999510254055709 20.2514075695965  7.771288644015916 20.24554269627776  7.771288644015916 20.24554269627776  C 5.624819214876033 20.128743373344644  5.222522323883963 18.33893051362239  5.179553106825834 15.94952299030341  C 5.179553106825834 15.94952299030341  5.1756351392715025 15.447098842665  5.1756351392715025 15.447098842665  C 5.1756351392715025 12.724719675473956  5.496460581190695 10.674330504558116  7.999510254055709 10.674069440100094  C 10.50299778083869 10.674069440100094  10.824364860728497 12.724546182517301  10.824364860728497 15.447098842665  C 10.824364860728497 15.447098842665  10.820446893174166 15.94952299030341  10.820446893174166 15.94952299030341  C 10.775993877278944 18.42144610250149  10.346454363712887 20.2514075695965  7.999510254055709 20.2514075695965  C 7.999510254055709 20.2514075695965  7.999510254055709 19.2504691898655  7.999510254055709 19.2504691898655  C 8.485820503807009 19.2504691898655  8.78063834067474 19.149554875779234  8.967248239975513 19.033468877072256  C 9.149613993270776 18.91989144900086  9.306417393633303 18.7437027366526  9.438383838383839 18.454801376290273  Z " stroke-width="0" stroke-dasharray="0" stroke="rgba(121, 121, 121, 1)" fill="none" transform="matrix(1 0 0 1 927 993 )" class="stroke" mask="url(#Clip5057)" />
    <path d="M 6.178634833180288 0  C 6.178634833180288 0  6.178634833180288 6.563770722552392  6.178634833180288 6.563770722552392  C 7.081692636593205 6.1115547683711045  8.0847424290251 5.925477009696591  9.219957147229875 5.925477009696591  C 11.069512597566575 5.925551783188614  12.851470194367922 6.573286465193504  14.00477502295684 7.724038160775727  C 15.043506322696663 8.760634712550951  15.525378055531641 10.118597374881174  15.760024487297214 11.454097591492024  C 15.994056449915824 12.7862043145078  16 14.209373481280362  16 15.447098842665  C 15.999998641179667 16.684894006924218  15.99377065517868 18.11454171570607  15.760024487297214 19.453784798248357  C 15.525868085447275 20.795254413508086  15.044994691230487 22.16335674878915  14.00477502295684 23.201438848920862  C 12.851468161730946 24.352151884449473  11.06947864057239 24.99992522910793  9.219957147229875 25  C 8.24649340229951 25  7.352996943870523 24.86711212124793  6.520477502295684 24.522990303409447  C 6.359122474747474 24.456280412098224  6.203388764539333 24.38006315299933  6.050321395775941 24.29914763841101  C 6.050321395775941 24.29914763841101  6.050321395775941 24.807436659368157  6.050321395775941 24.807436659368157  L 0 24.807436659368157  L 0 0  L 6.178634833180288 0  Z " stroke-width="0" stroke-dasharray="0" stroke="rgba(121, 121, 121, 1)" fill="none" transform="matrix(1 0 0 1 927 993 )" class="stroke" mask="url(#Clip5057)" />
  </g>
  <style>svg { filter: drop-shadow(0px 4px 2px rgba(0, 0, 0, 0.12941176470588237)); }</style>
</svg>