<?xml version="1.0" encoding="utf-8"?>
<svg version="1.1" xmlns:xlink="http://www.w3.org/1999/xlink" width="23px" height="23px" xmlns="http://www.w3.org/2000/svg">
  <defs>
    <pattern id="BGPattern" patternUnits="userSpaceOnUse" alignment="0 0" imageRepeat="None" />
    <mask fill="white" id="Clip5033">
      <path d="M 0 0  L 5.630806516763161 0  L 7.508078632018313 5.704282251548613  L 9.369193483236838 0  L 15 0  L 9.50148108253669 15  L 5.5267941295274 15  L 0 0  Z M 4.882523226067052 1.0342041475895503  L 1.4824289753601723 1.0342041475895503  L 6.247812037161707 13.96579585241045  L 8.779453345900095 13.96579585241045  L 13.519590682644406 1.0342041475895503  L 10.119496431937526 1.0342041475895503  L 7.513127777029755 9.026057096687316  L 4.882523226067052 1.0342041475895503  Z " fill-rule="evenodd" />
    </mask>
  </defs>
  <g transform="matrix(1 0 0 1 -1463 -430 )">
    <path d="M 0 0  L 5.630806516763161 0  L 7.508078632018313 5.704282251548613  L 9.369193483236838 0  L 15 0  L 9.50148108253669 15  L 5.5267941295274 15  L 0 0  Z M 4.882523226067052 1.0342041475895503  L 1.4824289753601723 1.0342041475895503  L 6.247812037161707 13.96579585241045  L 8.779453345900095 13.96579585241045  L 13.519590682644406 1.0342041475895503  L 10.119496431937526 1.0342041475895503  L 7.513127777029755 9.026057096687316  L 4.882523226067052 1.0342041475895503  Z " fill-rule="nonzero" fill="rgba(190, 190, 190, 0.058823529411764705)" stroke="none" transform="matrix(1 0 0 1 1467 430 )" class="fill" />
    <path d="M 0 0  L 5.630806516763161 0  L 7.508078632018313 5.704282251548613  L 9.369193483236838 0  L 15 0  L 9.50148108253669 15  L 5.5267941295274 15  L 0 0  Z " stroke-width="0" stroke-dasharray="0" stroke="rgba(121, 121, 121, 1)" fill="none" transform="matrix(1 0 0 1 1467 430 )" class="stroke" mask="url(#Clip5033)" />
    <path d="M 4.882523226067052 1.0342041475895503  L 1.4824289753601723 1.0342041475895503  L 6.247812037161707 13.96579585241045  L 8.779453345900095 13.96579585241045  L 13.519590682644406 1.0342041475895503  L 10.119496431937526 1.0342041475895503  L 7.513127777029755 9.026057096687316  L 4.882523226067052 1.0342041475895503  Z " stroke-width="0" stroke-dasharray="0" stroke="rgba(121, 121, 121, 1)" fill="none" transform="matrix(1 0 0 1 1467 430 )" class="stroke" mask="url(#Clip5033)" />
  </g>
  <style>svg { filter: drop-shadow(0px 4px 2px rgba(0, 0, 0, 0.12941176470588237)); }</style>
</svg>