<?xml version="1.0" encoding="utf-8"?>
<svg version="1.1" xmlns:xlink="http://www.w3.org/1999/xlink" width="24px" height="33px" xmlns="http://www.w3.org/2000/svg">
  <defs>
    <pattern id="BGPattern" patternUnits="userSpaceOnUse" alignment="0 0" imageRepeat="None" />
    <mask fill="white" id="Clip5061">
      <path d="M 7.565830139695883 24.00667390966941  C 12.102875046359253 24.00667390966941  14.987266658425021 21.113999689585597  14.987266658425021 17.14069532826323  C 14.987266658425021 17.14069532826323  14.987266658425021 1.1844249573180194  14.987266658425021 1.1844249573180194  L 10.903696377797008 1.1844249573180194  C 10.903696377797008 1.1844249573180194  10.903696377797008 2.742317243520099  10.903696377797008 2.742317243520099  C 9.810023039583076 1.5504113824475205  8.716756793562245 1.056243299087271  7.115836320929658 0.9991463603911223  C 7.115836320929658 0.9991463603911223  6.788478180244777 0.9933260903305914  6.788478180244777 0.9933260903305914  C 5.135696914791692 0.9933260903305914  3.6773613278835455 1.5343469065870907  2.7375448139448633 2.4561539655440012  C 2.7375448139448633 2.4561539655440012  2.5931511929781186 2.603600807077448  2.5931511929781186 2.603600807077448  C 1.1418001587804425 4.145428262178006  1.0196563234021512 6.201750444326085  1.0196563234021512 9.003957783641162  C 1.0196563234021512 9.003957783641162  1.0285573000370873 10.053546484556882  1.0285573000370873 10.053546484556882  C 1.0751060196283146 12.420043755850584  1.3481645116052665 14.221017811769435  2.7375448139448633 15.58377308707124  C 3.6773437620727223 16.505456581334787  5.103205959675176 17.045608393916385  6.755841265916677 17.04563091727456  C 8.408589210656446 17.04563091727456  9.672298994004203 16.600504473612652  10.774137717888491 15.392674220083812  C 10.774137717888491 15.392674220083812  10.774137717888491 17.07764240260748  10.774137717888491 17.07764240260748  C 10.774137717888491 17.07764240260748  10.764247743849673 17.39387707589632  10.764247743849673 17.39387707589632  C 10.658812193835765 18.973956181361736  9.74147834829707 20.51050186938653  7.371986648535048 20.510631693310568  C 7.371986648535048 20.510631693310568  7.371986648535048 19.517305602979977  7.371986648535048 19.517305602979977  C 8.372932848138676 19.517239099696575  8.917263371022763 19.18439440303165  9.234268760044506 18.8004423405246  C 9.522338580460348 18.45141029979582  9.694479384076272 17.9679214001516  9.744591420447522 17.416188111128356  C 8.846781038002998 17.856313026637814  7.857591858928792 18.038957007605152  6.755841265916677 18.038957007605152  C 4.88621024694029 18.0389344566347  3.184847622929287 17.427024030174763  2.0215106935344296 16.286085674375293  C 0.094697467239461 14.396196312366316  0.0069269821326868805 11.831818976869277  0.0069229818271727035 9.003957783641162  C 0.0069229818271727035 6.173079646227616  0.09559736795339349 3.642966498245128  2.0215106935344296 1.7538413782399502  C 3.1885278715694154 0.6091874374396753  4.924861550021634 0  6.788478180244777 0  C 7.771804845411206 1.123904919963843E-05  8.654314561538046 0.13190874416192053  9.47657312399555 0.4782321899736148  C 9.618594394683367 0.5380541053818154  9.756048328193573 0.6051979837590782  9.890963036222029 0.6761213720316622  C 9.890963036222029 0.6761213720316622  9.890963036222029 0.1910988669874282  9.890963036222029 0.1910988669874282  L 16 0.1910988669874282  C 16 0.1910988669874282  16 17.14069532826323  16 17.14069532826323  C 16 19.370181557185973  15.186282224510137 21.35390536710747  13.681790085301026 22.778596926897407  C 12.178448959427927 24.202123295903743  10.05772089218383 25  7.565830139695883 25  C 6.20630133321486 24.99998040871068  4.990488505802634 24.86728130614704  3.8580788725429596 24.484906099643023  C 2.714165142284275 24.09863907895287  1.706813458091235 23.47557101026929  0.7387810606997156 22.561306844637592  C 0.7387810606997156 22.561306844637592  0 21.862874437373893  0 21.862874437373893  L 4.04895537149215 17.842037870557192  C 4.04895537149215 17.842037870557192  4.769934478921993 18.523979512649387  4.769934478921993 18.523979512649387  C 5.167666388672116 18.900637528216564  5.52873600650768 19.13692685141616  5.910248485597725 19.285464845568832  C 6.29379114383731 19.434780595688537  6.752690587236525 19.517305602979977  7.371986648535048 19.517305602979977  C 7.371986648535048 19.517305602979977  7.371986648535048 20.510631693310568  7.371986648535048 20.510631693310568  C 7.371986648535048 20.510631693310568  7.109902336506367 20.50578146826013  7.109902336506367 20.50578146826013  C 5.828283877024354 20.46061507963198  4.9468448302671835 20.07329521315375  4.065768327358141 19.23890268508459  C 4.065768327358141 19.23890268508459  1.4409692174558042 21.8454136271923  1.4409692174558042 21.8454136271923  C 3.190904749119174 23.498244213795193  4.973395583508468 24.006634501090016  7.565830139695883 24.00667390966941  Z M 9.399431326492769 11.566816700294893  C 9.678829069086877 10.981229053564217  9.761394628342842 10.104464848145517  9.761404376313513 9.003957783641162  C 9.761404376313513 7.902830941843983  9.678737406943457 7.0363366972043915  9.401409321300532 6.460499767189197  C 9.275324662663996 6.198843358448531  9.122925906323403 6.029660224766534  8.940536531091606 5.918244606549744  C 8.755724190692993 5.80540540405965  8.464616511186101 5.705804749340369  7.987143033749536 5.705804749340369  C 7.509608257065923 5.705844208395915  7.222725592698224 5.805467401031158  7.042650513042403 5.916304516529567  C 6.865142531765747 6.025582834113815  6.716759396742972 6.191804493026816  6.593645691680059 6.45273940710849  C 6.3215573485694305 7.029532290903767  6.24551860551366 7.896156790610631  6.24551860551366 9.003957783641162  C 6.245527439109547 10.110549891233703  6.320853388137054 10.987063296441056  6.594634689083941 11.573607015365512  C 6.71914852810578 11.840186947235388  6.869620153526394 12.010724267363086  7.047595500061813 12.121682446065497  C 7.22717971792326 12.233591990017214  7.512498074400806 12.333112269979367  7.987143033749536 12.333152258264784  C 7.987143033749536 12.333152258264784  7.987143033749536 13.326478348595375  7.987143033749536 13.326478348595375  C 5.64782082534924 13.326326355450266  5.274316933677052 11.45456809352204  5.236741253554209 9.413316777898494  C 5.236741253554209 9.413316777898494  5.232785263938682 9.003957783641162  5.232785263938682 9.003957783641162  C 5.232785263938682 6.81077695755083  5.492033452064532 4.712638340545805  7.987143033749536 4.712478659009777  C 10.482518698232168 4.712478659009777  10.774137717888491 6.810693594307776  10.774137717888491 9.003957783641162  C 10.774137717888491 9.003957783641162  10.770181728272963 9.413316777898494  10.770181728272963 9.413316777898494  C 10.72904731145909 11.454650983110303  10.32672070095191 13.326478348595375  7.987143033749536 13.326478348595375  C 7.987143033749536 13.326478348595375  7.987143033749536 12.333152258264784  7.987143033749536 12.333152258264784  C 8.461833537442823 12.333152258264784  8.751285035643505 12.233704453426434  8.935591544072198 12.119742356045322  C 9.118408444579444 12.006681238885216  9.27193521572023 11.833990032806467  9.399431326492769 11.566816700294893  Z " fill-rule="evenodd" />
    </mask>
  </defs>
  <g transform="matrix(1 0 0 1 -834 -999 )">
    <path d="M 7.565830139695883 24.00667390966941  C 12.102875046359253 24.00667390966941  14.987266658425021 21.113999689585597  14.987266658425021 17.14069532826323  C 14.987266658425021 17.14069532826323  14.987266658425021 1.1844249573180194  14.987266658425021 1.1844249573180194  L 10.903696377797008 1.1844249573180194  C 10.903696377797008 1.1844249573180194  10.903696377797008 2.742317243520099  10.903696377797008 2.742317243520099  C 9.810023039583076 1.5504113824475205  8.716756793562245 1.056243299087271  7.115836320929658 0.9991463603911223  C 7.115836320929658 0.9991463603911223  6.788478180244777 0.9933260903305914  6.788478180244777 0.9933260903305914  C 5.135696914791692 0.9933260903305914  3.6773613278835455 1.5343469065870907  2.7375448139448633 2.4561539655440012  C 2.7375448139448633 2.4561539655440012  2.5931511929781186 2.603600807077448  2.5931511929781186 2.603600807077448  C 1.1418001587804425 4.145428262178006  1.0196563234021512 6.201750444326085  1.0196563234021512 9.003957783641162  C 1.0196563234021512 9.003957783641162  1.0285573000370873 10.053546484556882  1.0285573000370873 10.053546484556882  C 1.0751060196283146 12.420043755850584  1.3481645116052665 14.221017811769435  2.7375448139448633 15.58377308707124  C 3.6773437620727223 16.505456581334787  5.103205959675176 17.045608393916385  6.755841265916677 17.04563091727456  C 8.408589210656446 17.04563091727456  9.672298994004203 16.600504473612652  10.774137717888491 15.392674220083812  C 10.774137717888491 15.392674220083812  10.774137717888491 17.07764240260748  10.774137717888491 17.07764240260748  C 10.774137717888491 17.07764240260748  10.764247743849673 17.39387707589632  10.764247743849673 17.39387707589632  C 10.658812193835765 18.973956181361736  9.74147834829707 20.51050186938653  7.371986648535048 20.510631693310568  C 7.371986648535048 20.510631693310568  7.371986648535048 19.517305602979977  7.371986648535048 19.517305602979977  C 8.372932848138676 19.517239099696575  8.917263371022763 19.18439440303165  9.234268760044506 18.8004423405246  C 9.522338580460348 18.45141029979582  9.694479384076272 17.9679214001516  9.744591420447522 17.416188111128356  C 8.846781038002998 17.856313026637814  7.857591858928792 18.038957007605152  6.755841265916677 18.038957007605152  C 4.88621024694029 18.0389344566347  3.184847622929287 17.427024030174763  2.0215106935344296 16.286085674375293  C 0.094697467239461 14.396196312366316  0.0069269821326868805 11.831818976869277  0.0069229818271727035 9.003957783641162  C 0.0069229818271727035 6.173079646227616  0.09559736795339349 3.642966498245128  2.0215106935344296 1.7538413782399502  C 3.1885278715694154 0.6091874374396753  4.924861550021634 0  6.788478180244777 0  C 7.771804845411206 1.123904919963843E-05  8.654314561538046 0.13190874416192053  9.47657312399555 0.4782321899736148  C 9.618594394683367 0.5380541053818154  9.756048328193573 0.6051979837590782  9.890963036222029 0.6761213720316622  C 9.890963036222029 0.6761213720316622  9.890963036222029 0.1910988669874282  9.890963036222029 0.1910988669874282  L 16 0.1910988669874282  C 16 0.1910988669874282  16 17.14069532826323  16 17.14069532826323  C 16 19.370181557185973  15.186282224510137 21.35390536710747  13.681790085301026 22.778596926897407  C 12.178448959427927 24.202123295903743  10.05772089218383 25  7.565830139695883 25  C 6.20630133321486 24.99998040871068  4.990488505802634 24.86728130614704  3.8580788725429596 24.484906099643023  C 2.714165142284275 24.09863907895287  1.706813458091235 23.47557101026929  0.7387810606997156 22.561306844637592  C 0.7387810606997156 22.561306844637592  0 21.862874437373893  0 21.862874437373893  L 4.04895537149215 17.842037870557192  C 4.04895537149215 17.842037870557192  4.769934478921993 18.523979512649387  4.769934478921993 18.523979512649387  C 5.167666388672116 18.900637528216564  5.52873600650768 19.13692685141616  5.910248485597725 19.285464845568832  C 6.29379114383731 19.434780595688537  6.752690587236525 19.517305602979977  7.371986648535048 19.517305602979977  C 7.371986648535048 19.517305602979977  7.371986648535048 20.510631693310568  7.371986648535048 20.510631693310568  C 7.371986648535048 20.510631693310568  7.109902336506367 20.50578146826013  7.109902336506367 20.50578146826013  C 5.828283877024354 20.46061507963198  4.9468448302671835 20.07329521315375  4.065768327358141 19.23890268508459  C 4.065768327358141 19.23890268508459  1.4409692174558042 21.8454136271923  1.4409692174558042 21.8454136271923  C 3.190904749119174 23.498244213795193  4.973395583508468 24.006634501090016  7.565830139695883 24.00667390966941  Z M 9.399431326492769 11.566816700294893  C 9.678829069086877 10.981229053564217  9.761394628342842 10.104464848145517  9.761404376313513 9.003957783641162  C 9.761404376313513 7.902830941843983  9.678737406943457 7.0363366972043915  9.401409321300532 6.460499767189197  C 9.275324662663996 6.198843358448531  9.122925906323403 6.029660224766534  8.940536531091606 5.918244606549744  C 8.755724190692993 5.80540540405965  8.464616511186101 5.705804749340369  7.987143033749536 5.705804749340369  C 7.509608257065923 5.705844208395915  7.222725592698224 5.805467401031158  7.042650513042403 5.916304516529567  C 6.865142531765747 6.025582834113815  6.716759396742972 6.191804493026816  6.593645691680059 6.45273940710849  C 6.3215573485694305 7.029532290903767  6.24551860551366 7.896156790610631  6.24551860551366 9.003957783641162  C 6.245527439109547 10.110549891233703  6.320853388137054 10.987063296441056  6.594634689083941 11.573607015365512  C 6.71914852810578 11.840186947235388  6.869620153526394 12.010724267363086  7.047595500061813 12.121682446065497  C 7.22717971792326 12.233591990017214  7.512498074400806 12.333112269979367  7.987143033749536 12.333152258264784  C 7.987143033749536 12.333152258264784  7.987143033749536 13.326478348595375  7.987143033749536 13.326478348595375  C 5.64782082534924 13.326326355450266  5.274316933677052 11.45456809352204  5.236741253554209 9.413316777898494  C 5.236741253554209 9.413316777898494  5.232785263938682 9.003957783641162  5.232785263938682 9.003957783641162  C 5.232785263938682 6.81077695755083  5.492033452064532 4.712638340545805  7.987143033749536 4.712478659009777  C 10.482518698232168 4.712478659009777  10.774137717888491 6.810693594307776  10.774137717888491 9.003957783641162  C 10.774137717888491 9.003957783641162  10.770181728272963 9.413316777898494  10.770181728272963 9.413316777898494  C 10.72904731145909 11.454650983110303  10.32672070095191 13.326478348595375  7.987143033749536 13.326478348595375  C 7.987143033749536 13.326478348595375  7.987143033749536 12.333152258264784  7.987143033749536 12.333152258264784  C 8.461833537442823 12.333152258264784  8.751285035643505 12.233704453426434  8.935591544072198 12.119742356045322  C 9.118408444579444 12.006681238885216  9.27193521572023 11.833990032806467  9.399431326492769 11.566816700294893  Z " fill-rule="nonzero" fill="rgba(190, 190, 190, 0.058823529411764705)" stroke="none" transform="matrix(1 0 0 1 838 999 )" class="fill" />
    <path d="M 7.565830139695883 24.00667390966941  C 12.102875046359253 24.00667390966941  14.987266658425021 21.113999689585597  14.987266658425021 17.14069532826323  C 14.987266658425021 17.14069532826323  14.987266658425021 1.1844249573180194  14.987266658425021 1.1844249573180194  L 10.903696377797008 1.1844249573180194  C 10.903696377797008 1.1844249573180194  10.903696377797008 2.742317243520099  10.903696377797008 2.742317243520099  C 9.810023039583076 1.5504113824475205  8.716756793562245 1.056243299087271  7.115836320929658 0.9991463603911223  C 7.115836320929658 0.9991463603911223  6.788478180244777 0.9933260903305914  6.788478180244777 0.9933260903305914  C 5.135696914791692 0.9933260903305914  3.6773613278835455 1.5343469065870907  2.7375448139448633 2.4561539655440012  C 2.7375448139448633 2.4561539655440012  2.5931511929781186 2.603600807077448  2.5931511929781186 2.603600807077448  C 1.1418001587804425 4.145428262178006  1.0196563234021512 6.201750444326085  1.0196563234021512 9.003957783641162  C 1.0196563234021512 9.003957783641162  1.0285573000370873 10.053546484556882  1.0285573000370873 10.053546484556882  C 1.0751060196283146 12.420043755850584  1.3481645116052665 14.221017811769435  2.7375448139448633 15.58377308707124  C 3.6773437620727223 16.505456581334787  5.103205959675176 17.045608393916385  6.755841265916677 17.04563091727456  C 8.408589210656446 17.04563091727456  9.672298994004203 16.600504473612652  10.774137717888491 15.392674220083812  C 10.774137717888491 15.392674220083812  10.774137717888491 17.07764240260748  10.774137717888491 17.07764240260748  C 10.774137717888491 17.07764240260748  10.764247743849673 17.39387707589632  10.764247743849673 17.39387707589632  C 10.658812193835765 18.973956181361736  9.74147834829707 20.51050186938653  7.371986648535048 20.510631693310568  C 7.371986648535048 20.510631693310568  7.371986648535048 19.517305602979977  7.371986648535048 19.517305602979977  C 8.372932848138676 19.517239099696575  8.917263371022763 19.18439440303165  9.234268760044506 18.8004423405246  C 9.522338580460348 18.45141029979582  9.694479384076272 17.9679214001516  9.744591420447522 17.416188111128356  C 8.846781038002998 17.856313026637814  7.857591858928792 18.038957007605152  6.755841265916677 18.038957007605152  C 4.88621024694029 18.0389344566347  3.184847622929287 17.427024030174763  2.0215106935344296 16.286085674375293  C 0.094697467239461 14.396196312366316  0.0069269821326868805 11.831818976869277  0.0069229818271727035 9.003957783641162  C 0.0069229818271727035 6.173079646227616  0.09559736795339349 3.642966498245128  2.0215106935344296 1.7538413782399502  C 3.1885278715694154 0.6091874374396753  4.924861550021634 0  6.788478180244777 0  C 7.771804845411206 1.123904919963843E-05  8.654314561538046 0.13190874416192053  9.47657312399555 0.4782321899736148  C 9.618594394683367 0.5380541053818154  9.756048328193573 0.6051979837590782  9.890963036222029 0.6761213720316622  C 9.890963036222029 0.6761213720316622  9.890963036222029 0.1910988669874282  9.890963036222029 0.1910988669874282  L 16 0.1910988669874282  C 16 0.1910988669874282  16 17.14069532826323  16 17.14069532826323  C 16 19.370181557185973  15.186282224510137 21.35390536710747  13.681790085301026 22.778596926897407  C 12.178448959427927 24.202123295903743  10.05772089218383 25  7.565830139695883 25  C 6.20630133321486 24.99998040871068  4.990488505802634 24.86728130614704  3.8580788725429596 24.484906099643023  C 2.714165142284275 24.09863907895287  1.706813458091235 23.47557101026929  0.7387810606997156 22.561306844637592  C 0.7387810606997156 22.561306844637592  0 21.862874437373893  0 21.862874437373893  L 4.04895537149215 17.842037870557192  C 4.04895537149215 17.842037870557192  4.769934478921993 18.523979512649387  4.769934478921993 18.523979512649387  C 5.167666388672116 18.900637528216564  5.52873600650768 19.13692685141616  5.910248485597725 19.285464845568832  C 6.29379114383731 19.434780595688537  6.752690587236525 19.517305602979977  7.371986648535048 19.517305602979977  C 7.371986648535048 19.517305602979977  7.371986648535048 20.510631693310568  7.371986648535048 20.510631693310568  C 7.371986648535048 20.510631693310568  7.109902336506367 20.50578146826013  7.109902336506367 20.50578146826013  C 5.828283877024354 20.46061507963198  4.9468448302671835 20.07329521315375  4.065768327358141 19.23890268508459  C 4.065768327358141 19.23890268508459  1.4409692174558042 21.8454136271923  1.4409692174558042 21.8454136271923  C 3.190904749119174 23.498244213795193  4.973395583508468 24.006634501090016  7.565830139695883 24.00667390966941  Z " stroke-width="0" stroke-dasharray="0" stroke="rgba(121, 121, 121, 1)" fill="none" transform="matrix(1 0 0 1 838 999 )" class="stroke" mask="url(#Clip5061)" />
    <path d="M 9.399431326492769 11.566816700294893  C 9.678829069086877 10.981229053564217  9.761394628342842 10.104464848145517  9.761404376313513 9.003957783641162  C 9.761404376313513 7.902830941843983  9.678737406943457 7.0363366972043915  9.401409321300532 6.460499767189197  C 9.275324662663996 6.198843358448531  9.122925906323403 6.029660224766534  8.940536531091606 5.918244606549744  C 8.755724190692993 5.80540540405965  8.464616511186101 5.705804749340369  7.987143033749536 5.705804749340369  C 7.509608257065923 5.705844208395915  7.222725592698224 5.805467401031158  7.042650513042403 5.916304516529567  C 6.865142531765747 6.025582834113815  6.716759396742972 6.191804493026816  6.593645691680059 6.45273940710849  C 6.3215573485694305 7.029532290903767  6.24551860551366 7.896156790610631  6.24551860551366 9.003957783641162  C 6.245527439109547 10.110549891233703  6.320853388137054 10.987063296441056  6.594634689083941 11.573607015365512  C 6.71914852810578 11.840186947235388  6.869620153526394 12.010724267363086  7.047595500061813 12.121682446065497  C 7.22717971792326 12.233591990017214  7.512498074400806 12.333112269979367  7.987143033749536 12.333152258264784  C 7.987143033749536 12.333152258264784  7.987143033749536 13.326478348595375  7.987143033749536 13.326478348595375  C 5.64782082534924 13.326326355450266  5.274316933677052 11.45456809352204  5.236741253554209 9.413316777898494  C 5.236741253554209 9.413316777898494  5.232785263938682 9.003957783641162  5.232785263938682 9.003957783641162  C 5.232785263938682 6.81077695755083  5.492033452064532 4.712638340545805  7.987143033749536 4.712478659009777  C 10.482518698232168 4.712478659009777  10.774137717888491 6.810693594307776  10.774137717888491 9.003957783641162  C 10.774137717888491 9.003957783641162  10.770181728272963 9.413316777898494  10.770181728272963 9.413316777898494  C 10.72904731145909 11.454650983110303  10.32672070095191 13.326478348595375  7.987143033749536 13.326478348595375  C 7.987143033749536 13.326478348595375  7.987143033749536 12.333152258264784  7.987143033749536 12.333152258264784  C 8.461833537442823 12.333152258264784  8.751285035643505 12.233704453426434  8.935591544072198 12.119742356045322  C 9.118408444579444 12.006681238885216  9.27193521572023 11.833990032806467  9.399431326492769 11.566816700294893  Z " stroke-width="0" stroke-dasharray="0" stroke="rgba(121, 121, 121, 1)" fill="none" transform="matrix(1 0 0 1 838 999 )" class="stroke" mask="url(#Clip5061)" />
  </g>
  <style>svg { filter: drop-shadow(0px 4px 2px rgba(0, 0, 0, 0.12941176470588237)); }</style>
</svg>