<?xml version="1.0" encoding="utf-8"?>
<svg version="1.1" xmlns:xlink="http://www.w3.org/1999/xlink" width="20px" height="27px" xmlns="http://www.w3.org/2000/svg">
  <defs>
    <pattern id="BGPattern" patternUnits="userSpaceOnUse" alignment="0 0" imageRepeat="None" />
    <mask fill="white" id="Clip5032">
      <path d="M 11 17.870207688010968  L 11 0.9879652668460875  L 8.040975914920239 0.9879652668460875  C 8.040975914920239 0.9879652668460875  8.040975914920239 6.60701772203321  8.040975914920239 6.60701772203321  C 7.256939546443688 5.70623047854389  6.334416794858949 5.37399075813741  5.112292774476071 5.37399075813741  C 3.936170437800575 5.374003504277611  2.852386636886143 5.801697716441518  2.183609634031905 6.489310922662876  C 2.183609634031905 6.489310922662876  2.074757585236159 6.60701772203321  2.074757585236159 6.60701772203321  C 0.9830581526626525 7.853499849397232  0.960900844541758 9.890191614128433  0.960900844541758 11.68191743259026  C 0.960900844541758 11.68191743259026  0.9646543634657491 12.386228609150459  0.9646543634657491 12.386228609150459  C 0.9854659312286711 14.050458907015658  1.1344414151084024 15.818822006173672  2.183609634031905 16.89767937845935  C 2.8106694035057282 17.542400769413028  3.822852494159564 17.957881148782928  4.916171410697529 18.007210683999393  C 4.916171410697529 18.007210683999393  5.135752267751016 18.01203473315391  5.135752267751016 18.01203473315391  C 6.40391531458936 18.01197021420333  7.280295774419866 17.656870473982664  8.110416015014076 16.70857665160209  C 8.110416015014076 16.70857665160209  8.110416015014076 17.870207688010968  8.110416015014076 17.870207688010968  L 11 17.870207688010968  Z M 6.818267125430091 13.798710201594474  C 7.006588293605944 13.382151908256581  7.080059418403495 12.698138366057657  7.08007507037848 11.68191743259026  C 7.08007507037848 10.664547371984176  7.005859279543078 9.988498692974265  6.819205505161088 9.579596811049612  C 6.7392407638936405 9.404474566709588  6.654566204320426 9.314806651337843  6.567719737253675 9.26024475702026  C 6.476287156893457 9.202836304919678  6.307026977348148 9.136756330846454  5.9887394432280265 9.1367490986645  C 5.670280229832778 9.1367490986645  5.504091426883968 9.202801079261674  5.416327807319362 9.258315137358453  C 5.333405307057428 9.310790249121315  5.250471294690641 9.397417466261409  5.172349077259931 9.571878332402376  C 4.988843963785324 9.981954751343771  4.91992492962152 10.658998066611549  4.91992492962152 11.68191743259026  C 4.919939401770441 12.703785777703372  4.9890404714059935 13.388711749463145  5.174225836721927 13.80642868024171  C 5.253606811179792 13.98527260312868  5.3377232054900405 14.074324222224352  5.42101970597435 14.12771035393287  C 5.508286851698584 14.183623432501706  5.6728150120443726 14.250241202457726  5.9887394432280265 14.250241202457726  C 5.9887394432280265 14.250241202457726  5.9887394432280265 15.238206469303814  5.9887394432280265 15.238206469303814  C 5.9887394432280265 15.238206469303814  5.82452299030341 15.23338242014929  5.82452299030341 15.23338242014929  C 4.281991891201713 15.146973560867695  3.992669686325498 13.822489254242068  3.961839224272756 12.053369217488447  C 3.961839224272756 12.053369217488447  3.9590240850797622 11.68191743259026  3.9590240850797622 11.68191743259026  C 3.9590240850797622 9.666468090362851  4.1899328533097435 8.148783831818413  5.9887394432280265 8.148783831818413  C 5.9887394432280265 8.148783831818413  6.152955896152644 8.15264307114203  6.152955896152644 8.15264307114203  C 7.803130903056088 8.243611906757993  8.040975914920239 9.729488945598133  8.040975914920239 11.68191743259026  C 8.040975914920239 11.68191743259026  8.038160775727244 12.053369217488447  8.038160775727244 12.053369217488447  C 8.00373486425491 13.883509471709093  7.675169332943971 15.238178618569039  5.9887394432280265 15.238206469303814  C 5.9887394432280265 15.238206469303814  5.9887394432280265 14.250241202457726  5.9887394432280265 14.250241202457726  C 6.304473180117591 14.250233873337592  6.472091760715918 14.183607889930006  6.563027838598687 14.12578073427106  C 6.650250439350032 14.070279870614147  6.737006642350861 13.9783410798878  6.818267125430091 13.798710201594474  Z M 12 0  L 12 18.858172954857057  L 7.149515170472318 18.858172954857057  C 7.149515170472318 18.858172954857057  7.149515170472318 18.63047783476362  7.149515170472318 18.63047783476362  C 6.520920797329527 18.899626064595942  5.853611616481272 18.999967897084325  5.135752267751016 19  C 3.7612559748396936 19  2.389574821121364 18.506490408408723  1.5042227087894902 17.596201696034125  C 0.7076258893530556 16.77708898486296  0.34884532824657394 15.707950728992774  0.1764153894275884 14.690194485350125  C 0.004380012252086918 13.674573378111829  0 12.595425455795285  0 11.68191743259026  C 0 10.768479308632628  0.004094915834485944 9.69383656063941  0.1764153894275884 8.68328847813944  C 0.34932610180961887 7.66939288711606  0.7089630117407433 6.607482284091072  1.5042227087894902 5.789823795257198  C 2.3862402053560956 4.883157654072037  3.73233310006207 4.386038137023147  5.112292774476071 4.3860254912913215  C 5.822107739250176 4.3860254912913215  6.477282474292306 4.486571863486599  7.08007507037848 4.7285329812623775  C 7.08007507037848 4.7285329812623775  7.08007507037848 0  7.08007507037848 0  L 12 0  Z " fill-rule="evenodd" />
    </mask>
  </defs>
  <g transform="matrix(1 0 0 1 -1515 -426 )">
    <path d="M 11 17.870207688010968  L 11 0.9879652668460875  L 8.040975914920239 0.9879652668460875  C 8.040975914920239 0.9879652668460875  8.040975914920239 6.60701772203321  8.040975914920239 6.60701772203321  C 7.256939546443688 5.70623047854389  6.334416794858949 5.37399075813741  5.112292774476071 5.37399075813741  C 3.936170437800575 5.374003504277611  2.852386636886143 5.801697716441518  2.183609634031905 6.489310922662876  C 2.183609634031905 6.489310922662876  2.074757585236159 6.60701772203321  2.074757585236159 6.60701772203321  C 0.9830581526626525 7.853499849397232  0.960900844541758 9.890191614128433  0.960900844541758 11.68191743259026  C 0.960900844541758 11.68191743259026  0.9646543634657491 12.386228609150459  0.9646543634657491 12.386228609150459  C 0.9854659312286711 14.050458907015658  1.1344414151084024 15.818822006173672  2.183609634031905 16.89767937845935  C 2.8106694035057282 17.542400769413028  3.822852494159564 17.957881148782928  4.916171410697529 18.007210683999393  C 4.916171410697529 18.007210683999393  5.135752267751016 18.01203473315391  5.135752267751016 18.01203473315391  C 6.40391531458936 18.01197021420333  7.280295774419866 17.656870473982664  8.110416015014076 16.70857665160209  C 8.110416015014076 16.70857665160209  8.110416015014076 17.870207688010968  8.110416015014076 17.870207688010968  L 11 17.870207688010968  Z M 6.818267125430091 13.798710201594474  C 7.006588293605944 13.382151908256581  7.080059418403495 12.698138366057657  7.08007507037848 11.68191743259026  C 7.08007507037848 10.664547371984176  7.005859279543078 9.988498692974265  6.819205505161088 9.579596811049612  C 6.7392407638936405 9.404474566709588  6.654566204320426 9.314806651337843  6.567719737253675 9.26024475702026  C 6.476287156893457 9.202836304919678  6.307026977348148 9.136756330846454  5.9887394432280265 9.1367490986645  C 5.670280229832778 9.1367490986645  5.504091426883968 9.202801079261674  5.416327807319362 9.258315137358453  C 5.333405307057428 9.310790249121315  5.250471294690641 9.397417466261409  5.172349077259931 9.571878332402376  C 4.988843963785324 9.981954751343771  4.91992492962152 10.658998066611549  4.91992492962152 11.68191743259026  C 4.919939401770441 12.703785777703372  4.9890404714059935 13.388711749463145  5.174225836721927 13.80642868024171  C 5.253606811179792 13.98527260312868  5.3377232054900405 14.074324222224352  5.42101970597435 14.12771035393287  C 5.508286851698584 14.183623432501706  5.6728150120443726 14.250241202457726  5.9887394432280265 14.250241202457726  C 5.9887394432280265 14.250241202457726  5.9887394432280265 15.238206469303814  5.9887394432280265 15.238206469303814  C 5.9887394432280265 15.238206469303814  5.82452299030341 15.23338242014929  5.82452299030341 15.23338242014929  C 4.281991891201713 15.146973560867695  3.992669686325498 13.822489254242068  3.961839224272756 12.053369217488447  C 3.961839224272756 12.053369217488447  3.9590240850797622 11.68191743259026  3.9590240850797622 11.68191743259026  C 3.9590240850797622 9.666468090362851  4.1899328533097435 8.148783831818413  5.9887394432280265 8.148783831818413  C 5.9887394432280265 8.148783831818413  6.152955896152644 8.15264307114203  6.152955896152644 8.15264307114203  C 7.803130903056088 8.243611906757993  8.040975914920239 9.729488945598133  8.040975914920239 11.68191743259026  C 8.040975914920239 11.68191743259026  8.038160775727244 12.053369217488447  8.038160775727244 12.053369217488447  C 8.00373486425491 13.883509471709093  7.675169332943971 15.238178618569039  5.9887394432280265 15.238206469303814  C 5.9887394432280265 15.238206469303814  5.9887394432280265 14.250241202457726  5.9887394432280265 14.250241202457726  C 6.304473180117591 14.250233873337592  6.472091760715918 14.183607889930006  6.563027838598687 14.12578073427106  C 6.650250439350032 14.070279870614147  6.737006642350861 13.9783410798878  6.818267125430091 13.798710201594474  Z M 12 0  L 12 18.858172954857057  L 7.149515170472318 18.858172954857057  C 7.149515170472318 18.858172954857057  7.149515170472318 18.63047783476362  7.149515170472318 18.63047783476362  C 6.520920797329527 18.899626064595942  5.853611616481272 18.999967897084325  5.135752267751016 19  C 3.7612559748396936 19  2.389574821121364 18.506490408408723  1.5042227087894902 17.596201696034125  C 0.7076258893530556 16.77708898486296  0.34884532824657394 15.707950728992774  0.1764153894275884 14.690194485350125  C 0.004380012252086918 13.674573378111829  0 12.595425455795285  0 11.68191743259026  C 0 10.768479308632628  0.004094915834485944 9.69383656063941  0.1764153894275884 8.68328847813944  C 0.34932610180961887 7.66939288711606  0.7089630117407433 6.607482284091072  1.5042227087894902 5.789823795257198  C 2.3862402053560956 4.883157654072037  3.73233310006207 4.386038137023147  5.112292774476071 4.3860254912913215  C 5.822107739250176 4.3860254912913215  6.477282474292306 4.486571863486599  7.08007507037848 4.7285329812623775  C 7.08007507037848 4.7285329812623775  7.08007507037848 0  7.08007507037848 0  L 12 0  Z " fill-rule="nonzero" fill="rgba(190, 190, 190, 0.058823529411764705)" stroke="none" transform="matrix(1 0 0 1 1519 426 )" class="fill" />
    <path d="M 11 17.870207688010968  L 11 0.9879652668460875  L 8.040975914920239 0.9879652668460875  C 8.040975914920239 0.9879652668460875  8.040975914920239 6.60701772203321  8.040975914920239 6.60701772203321  C 7.256939546443688 5.70623047854389  6.334416794858949 5.37399075813741  5.112292774476071 5.37399075813741  C 3.936170437800575 5.374003504277611  2.852386636886143 5.801697716441518  2.183609634031905 6.489310922662876  C 2.183609634031905 6.489310922662876  2.074757585236159 6.60701772203321  2.074757585236159 6.60701772203321  C 0.9830581526626525 7.853499849397232  0.960900844541758 9.890191614128433  0.960900844541758 11.68191743259026  C 0.960900844541758 11.68191743259026  0.9646543634657491 12.386228609150459  0.9646543634657491 12.386228609150459  C 0.9854659312286711 14.050458907015658  1.1344414151084024 15.818822006173672  2.183609634031905 16.89767937845935  C 2.8106694035057282 17.542400769413028  3.822852494159564 17.957881148782928  4.916171410697529 18.007210683999393  C 4.916171410697529 18.007210683999393  5.135752267751016 18.01203473315391  5.135752267751016 18.01203473315391  C 6.40391531458936 18.01197021420333  7.280295774419866 17.656870473982664  8.110416015014076 16.70857665160209  C 8.110416015014076 16.70857665160209  8.110416015014076 17.870207688010968  8.110416015014076 17.870207688010968  L 11 17.870207688010968  Z " stroke-width="0" stroke-dasharray="0" stroke="rgba(121, 121, 121, 1)" fill="none" transform="matrix(1 0 0 1 1519 426 )" class="stroke" mask="url(#Clip5032)" />
    <path d="M 6.818267125430091 13.798710201594474  C 7.006588293605944 13.382151908256581  7.080059418403495 12.698138366057657  7.08007507037848 11.68191743259026  C 7.08007507037848 10.664547371984176  7.005859279543078 9.988498692974265  6.819205505161088 9.579596811049612  C 6.7392407638936405 9.404474566709588  6.654566204320426 9.314806651337843  6.567719737253675 9.26024475702026  C 6.476287156893457 9.202836304919678  6.307026977348148 9.136756330846454  5.9887394432280265 9.1367490986645  C 5.670280229832778 9.1367490986645  5.504091426883968 9.202801079261674  5.416327807319362 9.258315137358453  C 5.333405307057428 9.310790249121315  5.250471294690641 9.397417466261409  5.172349077259931 9.571878332402376  C 4.988843963785324 9.981954751343771  4.91992492962152 10.658998066611549  4.91992492962152 11.68191743259026  C 4.919939401770441 12.703785777703372  4.9890404714059935 13.388711749463145  5.174225836721927 13.80642868024171  C 5.253606811179792 13.98527260312868  5.3377232054900405 14.074324222224352  5.42101970597435 14.12771035393287  C 5.508286851698584 14.183623432501706  5.6728150120443726 14.250241202457726  5.9887394432280265 14.250241202457726  C 5.9887394432280265 14.250241202457726  5.9887394432280265 15.238206469303814  5.9887394432280265 15.238206469303814  C 5.9887394432280265 15.238206469303814  5.82452299030341 15.23338242014929  5.82452299030341 15.23338242014929  C 4.281991891201713 15.146973560867695  3.992669686325498 13.822489254242068  3.961839224272756 12.053369217488447  C 3.961839224272756 12.053369217488447  3.9590240850797622 11.68191743259026  3.9590240850797622 11.68191743259026  C 3.9590240850797622 9.666468090362851  4.1899328533097435 8.148783831818413  5.9887394432280265 8.148783831818413  C 5.9887394432280265 8.148783831818413  6.152955896152644 8.15264307114203  6.152955896152644 8.15264307114203  C 7.803130903056088 8.243611906757993  8.040975914920239 9.729488945598133  8.040975914920239 11.68191743259026  C 8.040975914920239 11.68191743259026  8.038160775727244 12.053369217488447  8.038160775727244 12.053369217488447  C 8.00373486425491 13.883509471709093  7.675169332943971 15.238178618569039  5.9887394432280265 15.238206469303814  C 5.9887394432280265 15.238206469303814  5.9887394432280265 14.250241202457726  5.9887394432280265 14.250241202457726  C 6.304473180117591 14.250233873337592  6.472091760715918 14.183607889930006  6.563027838598687 14.12578073427106  C 6.650250439350032 14.070279870614147  6.737006642350861 13.9783410798878  6.818267125430091 13.798710201594474  Z " stroke-width="0" stroke-dasharray="0" stroke="rgba(121, 121, 121, 1)" fill="none" transform="matrix(1 0 0 1 1519 426 )" class="stroke" mask="url(#Clip5032)" />
    <path d="M 12 0  L 12 18.858172954857057  L 7.149515170472318 18.858172954857057  C 7.149515170472318 18.858172954857057  7.149515170472318 18.63047783476362  7.149515170472318 18.63047783476362  C 6.520920797329527 18.899626064595942  5.853611616481272 18.999967897084325  5.135752267751016 19  C 3.7612559748396936 19  2.389574821121364 18.506490408408723  1.5042227087894902 17.596201696034125  C 0.7076258893530556 16.77708898486296  0.34884532824657394 15.707950728992774  0.1764153894275884 14.690194485350125  C 0.004380012252086918 13.674573378111829  0 12.595425455795285  0 11.68191743259026  C 0 10.768479308632628  0.004094915834485944 9.69383656063941  0.1764153894275884 8.68328847813944  C 0.34932610180961887 7.66939288711606  0.7089630117407433 6.607482284091072  1.5042227087894902 5.789823795257198  C 2.3862402053560956 4.883157654072037  3.73233310006207 4.386038137023147  5.112292774476071 4.3860254912913215  C 5.822107739250176 4.3860254912913215  6.477282474292306 4.486571863486599  7.08007507037848 4.7285329812623775  C 7.08007507037848 4.7285329812623775  7.08007507037848 0  7.08007507037848 0  L 12 0  Z " stroke-width="0" stroke-dasharray="0" stroke="rgba(121, 121, 121, 1)" fill="none" transform="matrix(1 0 0 1 1519 426 )" class="stroke" mask="url(#Clip5032)" />
  </g>
  <style>svg { filter: drop-shadow(0px 4px 2px rgba(0, 0, 0, 0.12941176470588237)); }</style>
</svg>