<?xml version="1.0" encoding="utf-8"?>
<svg version="1.1" xmlns:xlink="http://www.w3.org/1999/xlink" width="23px" height="27px" xmlns="http://www.w3.org/2000/svg">
  <defs>
    <pattern id="BGPattern" patternUnits="userSpaceOnUse" alignment="0 0" imageRepeat="None" />
    <mask fill="white" id="Clip5062">
      <path d="M 0 19  L 0 0.19376714810788426  L 6.2295191600347755 0.19376714810788426  C 6.2295191600347755 0.19376714810788426  6.2295191600347755 0.7809701299373609  6.2295191600347755 0.7809701299373609  C 7.177834542373395 0.30183184965800847  8.313497689897094 3.531473590090093E-05  9.507791078713302 0  C 10.43348534963589 0  11.283169176668927 0.11625864994898033  12.087875342740588 0.42392711083501583  C 12.896784987328786 0.7332559794800039  13.604991399810551 1.2150902161349135  14.277736908981476 1.8747217476833877  C 14.277736908981476 1.8747217476833877  15 2.582906248382254  15 2.582906248382254  L 10.333377917474754 7.205777294610964  C 10.333377917474754 7.205777294610964  9.603089681000467 6.489724077237666  9.603089681000467 6.489724077237666  C 9.30505721312195 6.197517945985281  9.095779482213214 6.038047571325917  8.892864308165587 5.940881089196045  C 8.7045252166097 5.85072281042562  8.460783954927262 5.785473934876015  8.061258610312311 5.785473934876015  C 7.65368877250933 5.785576960396006  7.228580490925603 5.936998179606006  6.9086470942285825 6.245793860330279  C 6.601964904258605 6.541868132920889  6.327827191867852 7.045588768681933  6.327827191867852 7.872651032769063  C 6.327827191867852 7.872651032769063  6.327827191867852 19  6.327827191867852 19  L 0 19  Z M 1 1.2009628824351606  L 1 17.992804265672724  L 5.300608573530395 17.992804265672724  C 5.300608573530395 17.992804265672724  5.300608573530395 7.872651032769063  5.300608573530395 7.872651032769063  C 5.300608573530395 5.745678178850722  6.746530363824881 4.778482763970398  8.061258610312311 4.77827820054874  C 9.11304076666785 4.77827820054874  9.672019099787407 5.133104240906043  10.329365344746874 5.777605218201584  C 10.329365344746874 5.777605218201584  13.55146124523507 2.5868406067194702  13.55146124523507 2.5868406067194702  C 12.368104958035177 1.4265516509907077  11.184211832491808 1.0071957343272766  9.507791078713302 1.0071957343272766  C 7.667322127562194 1.0072593447184497  6.024143839172637 1.8453586209281332  5.202300541697318 2.8120826215250814  C 5.202300541697318 2.8120826215250814  5.202300541697318 1.2009628824351606  5.202300541697318 1.2009628824351606  L 1 1.2009628824351606  Z " fill-rule="evenodd" />
    </mask>
  </defs>
  <g transform="matrix(1 0 0 1 -754 -999 )">
    <path d="M 0 19  L 0 0.19376714810788426  L 6.2295191600347755 0.19376714810788426  C 6.2295191600347755 0.19376714810788426  6.2295191600347755 0.7809701299373609  6.2295191600347755 0.7809701299373609  C 7.177834542373395 0.30183184965800847  8.313497689897094 3.531473590090093E-05  9.507791078713302 0  C 10.43348534963589 0  11.283169176668927 0.11625864994898033  12.087875342740588 0.42392711083501583  C 12.896784987328786 0.7332559794800039  13.604991399810551 1.2150902161349135  14.277736908981476 1.8747217476833877  C 14.277736908981476 1.8747217476833877  15 2.582906248382254  15 2.582906248382254  L 10.333377917474754 7.205777294610964  C 10.333377917474754 7.205777294610964  9.603089681000467 6.489724077237666  9.603089681000467 6.489724077237666  C 9.30505721312195 6.197517945985281  9.095779482213214 6.038047571325917  8.892864308165587 5.940881089196045  C 8.7045252166097 5.85072281042562  8.460783954927262 5.785473934876015  8.061258610312311 5.785473934876015  C 7.65368877250933 5.785576960396006  7.228580490925603 5.936998179606006  6.9086470942285825 6.245793860330279  C 6.601964904258605 6.541868132920889  6.327827191867852 7.045588768681933  6.327827191867852 7.872651032769063  C 6.327827191867852 7.872651032769063  6.327827191867852 19  6.327827191867852 19  L 0 19  Z M 1 1.2009628824351606  L 1 17.992804265672724  L 5.300608573530395 17.992804265672724  C 5.300608573530395 17.992804265672724  5.300608573530395 7.872651032769063  5.300608573530395 7.872651032769063  C 5.300608573530395 5.745678178850722  6.746530363824881 4.778482763970398  8.061258610312311 4.77827820054874  C 9.11304076666785 4.77827820054874  9.672019099787407 5.133104240906043  10.329365344746874 5.777605218201584  C 10.329365344746874 5.777605218201584  13.55146124523507 2.5868406067194702  13.55146124523507 2.5868406067194702  C 12.368104958035177 1.4265516509907077  11.184211832491808 1.0071957343272766  9.507791078713302 1.0071957343272766  C 7.667322127562194 1.0072593447184497  6.024143839172637 1.8453586209281332  5.202300541697318 2.8120826215250814  C 5.202300541697318 2.8120826215250814  5.202300541697318 1.2009628824351606  5.202300541697318 1.2009628824351606  L 1 1.2009628824351606  Z " fill-rule="nonzero" fill="rgba(190, 190, 190, 0.058823529411764705)" stroke="none" transform="matrix(1 0 0 1 758 999 )" class="fill" />
    <path d="M 0 19  L 0 0.19376714810788426  L 6.2295191600347755 0.19376714810788426  C 6.2295191600347755 0.19376714810788426  6.2295191600347755 0.7809701299373609  6.2295191600347755 0.7809701299373609  C 7.177834542373395 0.30183184965800847  8.313497689897094 3.531473590090093E-05  9.507791078713302 0  C 10.43348534963589 0  11.283169176668927 0.11625864994898033  12.087875342740588 0.42392711083501583  C 12.896784987328786 0.7332559794800039  13.604991399810551 1.2150902161349135  14.277736908981476 1.8747217476833877  C 14.277736908981476 1.8747217476833877  15 2.582906248382254  15 2.582906248382254  L 10.333377917474754 7.205777294610964  C 10.333377917474754 7.205777294610964  9.603089681000467 6.489724077237666  9.603089681000467 6.489724077237666  C 9.30505721312195 6.197517945985281  9.095779482213214 6.038047571325917  8.892864308165587 5.940881089196045  C 8.7045252166097 5.85072281042562  8.460783954927262 5.785473934876015  8.061258610312311 5.785473934876015  C 7.65368877250933 5.785576960396006  7.228580490925603 5.936998179606006  6.9086470942285825 6.245793860330279  C 6.601964904258605 6.541868132920889  6.327827191867852 7.045588768681933  6.327827191867852 7.872651032769063  C 6.327827191867852 7.872651032769063  6.327827191867852 19  6.327827191867852 19  L 0 19  Z " stroke-width="0" stroke-dasharray="0" stroke="rgba(121, 121, 121, 1)" fill="none" transform="matrix(1 0 0 1 758 999 )" class="stroke" mask="url(#Clip5062)" />
    <path d="M 1 1.2009628824351606  L 1 17.992804265672724  L 5.300608573530395 17.992804265672724  C 5.300608573530395 17.992804265672724  5.300608573530395 7.872651032769063  5.300608573530395 7.872651032769063  C 5.300608573530395 5.745678178850722  6.746530363824881 4.778482763970398  8.061258610312311 4.77827820054874  C 9.11304076666785 4.77827820054874  9.672019099787407 5.133104240906043  10.329365344746874 5.777605218201584  C 10.329365344746874 5.777605218201584  13.55146124523507 2.5868406067194702  13.55146124523507 2.5868406067194702  C 12.368104958035177 1.4265516509907077  11.184211832491808 1.0071957343272766  9.507791078713302 1.0071957343272766  C 7.667322127562194 1.0072593447184497  6.024143839172637 1.8453586209281332  5.202300541697318 2.8120826215250814  C 5.202300541697318 2.8120826215250814  5.202300541697318 1.2009628824351606  5.202300541697318 1.2009628824351606  L 1 1.2009628824351606  Z " stroke-width="0" stroke-dasharray="0" stroke="rgba(121, 121, 121, 1)" fill="none" transform="matrix(1 0 0 1 758 999 )" class="stroke" mask="url(#Clip5062)" />
  </g>
  <style>svg { filter: drop-shadow(0px 4px 2px rgba(0, 0, 0, 0.12941176470588237)); }</style>
</svg>