<?xml version="1.0" encoding="utf-8"?>
<svg version="1.1" xmlns:xlink="http://www.w3.org/1999/xlink" width="14px" height="33px" xmlns="http://www.w3.org/2000/svg">
  <defs>
    <pattern id="BGPattern" patternUnits="userSpaceOnUse" alignment="0 0" imageRepeat="None" />
    <mask fill="white" id="Clip5055">
      <path d="M 5 23.996471971775772  L 5 7.26577812622501  L 1 7.26577812622501  L 1 23.996471971775772  L 5 23.996471971775772  Z M 5.0408991570402755 4.408075264602116  L 5.0408991570402755 1.0035280282242258  L 0.9591008429597253 1.0035280282242258  L 0.9591008429597253 4.408075264602116  L 5.0408991570402755 4.408075264602116  Z M 6 6.262250098000783  L 6 25  L 0 25  L 0 6.262250098000783  L 6 6.262250098000783  Z M 6 0  L 6 5.411603292826342  L 0 5.411603292826342  L 0 0  L 6 0  Z " fill-rule="evenodd" />
    </mask>
  </defs>
  <g transform="matrix(1 0 0 1 -961 -993 )">
    <path d="M 5 23.996471971775772  L 5 7.26577812622501  L 1 7.26577812622501  L 1 23.996471971775772  L 5 23.996471971775772  Z M 5.0408991570402755 4.408075264602116  L 5.0408991570402755 1.0035280282242258  L 0.9591008429597253 1.0035280282242258  L 0.9591008429597253 4.408075264602116  L 5.0408991570402755 4.408075264602116  Z M 6 6.262250098000783  L 6 25  L 0 25  L 0 6.262250098000783  L 6 6.262250098000783  Z M 6 0  L 6 5.411603292826342  L 0 5.411603292826342  L 0 0  L 6 0  Z " fill-rule="nonzero" fill="rgba(190, 190, 190, 0.058823529411764705)" stroke="none" transform="matrix(1 0 0 1 965 993 )" class="fill" />
    <path d="M 5 23.996471971775772  L 5 7.26577812622501  L 1 7.26577812622501  L 1 23.996471971775772  L 5 23.996471971775772  Z " stroke-width="0" stroke-dasharray="0" stroke="rgba(121, 121, 121, 1)" fill="none" transform="matrix(1 0 0 1 965 993 )" class="stroke" mask="url(#Clip5055)" />
    <path d="M 5.0408991570402755 4.408075264602116  L 5.0408991570402755 1.0035280282242258  L 0.9591008429597253 1.0035280282242258  L 0.9591008429597253 4.408075264602116  L 5.0408991570402755 4.408075264602116  Z " stroke-width="0" stroke-dasharray="0" stroke="rgba(121, 121, 121, 1)" fill="none" transform="matrix(1 0 0 1 965 993 )" class="stroke" mask="url(#Clip5055)" />
    <path d="M 6 6.262250098000783  L 6 25  L 0 25  L 0 6.262250098000783  L 6 6.262250098000783  Z " stroke-width="0" stroke-dasharray="0" stroke="rgba(121, 121, 121, 1)" fill="none" transform="matrix(1 0 0 1 965 993 )" class="stroke" mask="url(#Clip5055)" />
    <path d="M 6 0  L 6 5.411603292826342  L 0 5.411603292826342  L 0 0  L 6 0  Z " stroke-width="0" stroke-dasharray="0" stroke="rgba(121, 121, 121, 1)" fill="none" transform="matrix(1 0 0 1 965 993 )" class="stroke" mask="url(#Clip5055)" />
  </g>
  <style>svg { filter: drop-shadow(0px 4px 2px rgba(0, 0, 0, 0.12941176470588237)); }</style>
</svg>