<?xml version="1.0" encoding="utf-8"?>
<svg version="1.1" xmlns:xlink="http://www.w3.org/1999/xlink" width="22px" height="21px" xmlns="http://www.w3.org/2000/svg">
  <defs>
    <pattern id="BGPattern" patternUnits="userSpaceOnUse" alignment="0 0" imageRepeat="None" />
    <mask fill="white" id="Clip5077">
      <path d="M 0 15  L 0 13  L 22 13  L 22 15  L 0 15  Z M 0.8828629785778613 2  L 0.8828629785778613 0  L 21.11713702142214 0  L 21.11713702142214 2  L 0.8828629785778613 2  Z M 4.008685806333274 10  L 4.008685806333274 9  L 18.015162234809146 9  L 18.015162234809146 10  L 4.008685806333274 10  Z M 17.347052990590146 18.682928234074417  C 17.347052990590146 18.682928234074417  17.347052990590146 4.097558328090525  17.347052990590146 4.097558328090525  L 19.11277894774587 4.097558328090525  C 19.11277894774587 4.097558328090525  19.11277894774587 18.70731283173686  19.11277894774587 18.70731283173686  C 19.11277894774587 19.26015835104627  19.033251343624457 19.682923617483862  18.874177172244586 19.97560654125278  C 18.731010228371336 20.28454962913591  18.46057408656293 20.51219665149298  18.06288865811326 20.658538098233986  C 17.681110457170202 20.804879605548813  17.14821027636531 20.894310432459704  16.464190012012285 20.92683070011431  C 15.780170695816112 20.959350967768913  14.921188943870494 20.975607648888378  13.8872058817445 20.975607648888378  C 13.839483251067797 20.731705217462096  13.751985440448165 20.439023898899453  13.624725724081529 20.09756054336172  C 13.497466955871747 19.75609712725016  13.362263581398748 19.463415854117883  13.219096637525498 19.21951343783506  C 13.75994900984842 19.235773601949273  14.268967015864217 19.243898035497505  14.746190478160672 19.243898035497505  C 15.239320219806894 19.26015819961172  15.660870756222323 19.26015819961172  16.010834502152143 19.243898035497505  C 16.37670547558858 19.243898035497505  16.623288835470305 19.243898035497505  16.750548551836943 19.243898035497505  C 16.973252581400125 19.22763787138329  17.12436697600715 19.178860248725456  17.203904061697084 19.097559435726122  C 17.299348374893636 19.032518786841  17.347052990590146 18.89431033727227  17.347052990590146 18.682928234074417  Z M 3 21  L 3 4  L 18.06288865811326 4  L 18.06288865811326 6  L 5 6  L 5 21  L 3 21  Z M 10 13.975607648888378  L 10 0.5365852037606443  L 11.787425302479274 0.5365852037606443  L 11.787425302479274 13.975607648888378  L 10 13.975607648888378  Z " fill-rule="evenodd" />
    </mask>
  </defs>
  <g transform="matrix(1 0 0 1 -1785 -328 )">
    <path d="M 0 15  L 0 13  L 22 13  L 22 15  L 0 15  Z M 0.8828629785778613 2  L 0.8828629785778613 0  L 21.11713702142214 0  L 21.11713702142214 2  L 0.8828629785778613 2  Z M 4.008685806333274 10  L 4.008685806333274 9  L 18.015162234809146 9  L 18.015162234809146 10  L 4.008685806333274 10  Z M 17.347052990590146 18.682928234074417  C 17.347052990590146 18.682928234074417  17.347052990590146 4.097558328090525  17.347052990590146 4.097558328090525  L 19.11277894774587 4.097558328090525  C 19.11277894774587 4.097558328090525  19.11277894774587 18.70731283173686  19.11277894774587 18.70731283173686  C 19.11277894774587 19.26015835104627  19.033251343624457 19.682923617483862  18.874177172244586 19.97560654125278  C 18.731010228371336 20.28454962913591  18.46057408656293 20.51219665149298  18.06288865811326 20.658538098233986  C 17.681110457170202 20.804879605548813  17.14821027636531 20.894310432459704  16.464190012012285 20.92683070011431  C 15.780170695816112 20.959350967768913  14.921188943870494 20.975607648888378  13.8872058817445 20.975607648888378  C 13.839483251067797 20.731705217462096  13.751985440448165 20.439023898899453  13.624725724081529 20.09756054336172  C 13.497466955871747 19.75609712725016  13.362263581398748 19.463415854117883  13.219096637525498 19.21951343783506  C 13.75994900984842 19.235773601949273  14.268967015864217 19.243898035497505  14.746190478160672 19.243898035497505  C 15.239320219806894 19.26015819961172  15.660870756222323 19.26015819961172  16.010834502152143 19.243898035497505  C 16.37670547558858 19.243898035497505  16.623288835470305 19.243898035497505  16.750548551836943 19.243898035497505  C 16.973252581400125 19.22763787138329  17.12436697600715 19.178860248725456  17.203904061697084 19.097559435726122  C 17.299348374893636 19.032518786841  17.347052990590146 18.89431033727227  17.347052990590146 18.682928234074417  Z M 3 21  L 3 4  L 18.06288865811326 4  L 18.06288865811326 6  L 5 6  L 5 21  L 3 21  Z M 10 13.975607648888378  L 10 0.5365852037606443  L 11.787425302479274 0.5365852037606443  L 11.787425302479274 13.975607648888378  L 10 13.975607648888378  Z " fill-rule="nonzero" fill="rgba(255, 255, 255, 1)" stroke="none" transform="matrix(1 0 0 1 1785 328 )" class="fill" />
    <path d="M 0 15  L 0 13  L 22 13  L 22 15  L 0 15  Z " stroke-width="0" stroke-dasharray="0" stroke="rgba(121, 121, 121, 1)" fill="none" transform="matrix(1 0 0 1 1785 328 )" class="stroke" mask="url(#Clip5077)" />
    <path d="M 0.8828629785778613 2  L 0.8828629785778613 0  L 21.11713702142214 0  L 21.11713702142214 2  L 0.8828629785778613 2  Z " stroke-width="0" stroke-dasharray="0" stroke="rgba(121, 121, 121, 1)" fill="none" transform="matrix(1 0 0 1 1785 328 )" class="stroke" mask="url(#Clip5077)" />
    <path d="M 4.008685806333274 10  L 4.008685806333274 9  L 18.015162234809146 9  L 18.015162234809146 10  L 4.008685806333274 10  Z " stroke-width="0" stroke-dasharray="0" stroke="rgba(121, 121, 121, 1)" fill="none" transform="matrix(1 0 0 1 1785 328 )" class="stroke" mask="url(#Clip5077)" />
    <path d="M 17.347052990590146 18.682928234074417  C 17.347052990590146 18.682928234074417  17.347052990590146 4.097558328090525  17.347052990590146 4.097558328090525  L 19.11277894774587 4.097558328090525  C 19.11277894774587 4.097558328090525  19.11277894774587 18.70731283173686  19.11277894774587 18.70731283173686  C 19.11277894774587 19.26015835104627  19.033251343624457 19.682923617483862  18.874177172244586 19.97560654125278  C 18.731010228371336 20.28454962913591  18.46057408656293 20.51219665149298  18.06288865811326 20.658538098233986  C 17.681110457170202 20.804879605548813  17.14821027636531 20.894310432459704  16.464190012012285 20.92683070011431  C 15.780170695816112 20.959350967768913  14.921188943870494 20.975607648888378  13.8872058817445 20.975607648888378  C 13.839483251067797 20.731705217462096  13.751985440448165 20.439023898899453  13.624725724081529 20.09756054336172  C 13.497466955871747 19.75609712725016  13.362263581398748 19.463415854117883  13.219096637525498 19.21951343783506  C 13.75994900984842 19.235773601949273  14.268967015864217 19.243898035497505  14.746190478160672 19.243898035497505  C 15.239320219806894 19.26015819961172  15.660870756222323 19.26015819961172  16.010834502152143 19.243898035497505  C 16.37670547558858 19.243898035497505  16.623288835470305 19.243898035497505  16.750548551836943 19.243898035497505  C 16.973252581400125 19.22763787138329  17.12436697600715 19.178860248725456  17.203904061697084 19.097559435726122  C 17.299348374893636 19.032518786841  17.347052990590146 18.89431033727227  17.347052990590146 18.682928234074417  Z " stroke-width="0" stroke-dasharray="0" stroke="rgba(121, 121, 121, 1)" fill="none" transform="matrix(1 0 0 1 1785 328 )" class="stroke" mask="url(#Clip5077)" />
    <path d="M 3 21  L 3 4  L 18.06288865811326 4  L 18.06288865811326 6  L 5 6  L 5 21  L 3 21  Z " stroke-width="0" stroke-dasharray="0" stroke="rgba(121, 121, 121, 1)" fill="none" transform="matrix(1 0 0 1 1785 328 )" class="stroke" mask="url(#Clip5077)" />
    <path d="M 10 13.975607648888378  L 10 0.5365852037606443  L 11.787425302479274 0.5365852037606443  L 11.787425302479274 13.975607648888378  L 10 13.975607648888378  Z " stroke-width="0" stroke-dasharray="0" stroke="rgba(121, 121, 121, 1)" fill="none" transform="matrix(1 0 0 1 1785 328 )" class="stroke" mask="url(#Clip5077)" />
  </g>
</svg>