<?xml version="1.0" encoding="utf-8"?>
<svg version="1.1" xmlns:xlink="http://www.w3.org/1999/xlink" width="9px" height="17px" xmlns="http://www.w3.org/2000/svg">
  <defs>
    <pattern id="BGPattern" patternUnits="userSpaceOnUse" alignment="0 0" imageRepeat="None" />
    <mask fill="white" id="Clip5124">
      <path d="M 7.618923884941219 6.084958985138131  C 8.769818284646906 7.2688026798294985  9 9.210308027921762  9 11.033428136272722  C 9 12.856547891810642  8.769818284646906 14.798052181463785  7.618923884941219 15.981896346572539  C 7.020458056228557 16.59749530066866  6.007666054529341 17  4.856771654823655 17  C 3.613804797638986 17  2.578001484272102 16.69220214001171  1.657285484316818 15.461004114215129  C 1.657285484316818 15.461004114215129  1.657285484316818 16.857941475649536  1.657285484316818 16.857941475649536  L 0 16.857941475649536  L 0 0  L 1.657285484316818 0  C 1.657285484316818 0  1.657285484316818 6.558496180764245  1.657285484316818 6.558496180764245  C 2.578001484272102 5.350975202915923  3.613804797638986 5.0668525092063454  4.856771654823655 5.0668525092063454  C 6.007666054529341 5.0668525092063454  7.020458056228557 5.469359501822452  7.618923884941219 6.084958985138131  Z M 4.511517260443259 15.484681162163389  C 6.974432002959398 15.484681162163389  7.3427145156831815 13.306408745114577  7.3427145156831815 11.033428136272722  C 7.3427145156831815 8.760447527430868  6.974432002959398 6.582173228712507  4.511517260443259 6.582173228712507  C 2.048602060602611 6.582173228712507  1.657285484316818 8.760447527430868  1.657285484316818 11.033428136272722  C 1.657285484316818 13.306408745114577  2.048602060602611 15.484681162163389  4.511517260443259 15.484681162163389  Z " fill-rule="evenodd" />
    </mask>
  </defs>
  <g transform="matrix(1 0 0 1 -1761 -268 )">
    <path d="M 7.618923884941219 6.084958985138131  C 8.769818284646906 7.2688026798294985  9 9.210308027921762  9 11.033428136272722  C 9 12.856547891810642  8.769818284646906 14.798052181463785  7.618923884941219 15.981896346572539  C 7.020458056228557 16.59749530066866  6.007666054529341 17  4.856771654823655 17  C 3.613804797638986 17  2.578001484272102 16.69220214001171  1.657285484316818 15.461004114215129  C 1.657285484316818 15.461004114215129  1.657285484316818 16.857941475649536  1.657285484316818 16.857941475649536  L 0 16.857941475649536  L 0 0  L 1.657285484316818 0  C 1.657285484316818 0  1.657285484316818 6.558496180764245  1.657285484316818 6.558496180764245  C 2.578001484272102 5.350975202915923  3.613804797638986 5.0668525092063454  4.856771654823655 5.0668525092063454  C 6.007666054529341 5.0668525092063454  7.020458056228557 5.469359501822452  7.618923884941219 6.084958985138131  Z M 4.511517260443259 15.484681162163389  C 6.974432002959398 15.484681162163389  7.3427145156831815 13.306408745114577  7.3427145156831815 11.033428136272722  C 7.3427145156831815 8.760447527430868  6.974432002959398 6.582173228712507  4.511517260443259 6.582173228712507  C 2.048602060602611 6.582173228712507  1.657285484316818 8.760447527430868  1.657285484316818 11.033428136272722  C 1.657285484316818 13.306408745114577  2.048602060602611 15.484681162163389  4.511517260443259 15.484681162163389  Z " fill-rule="nonzero" fill="rgba(255, 255, 255, 1)" stroke="none" transform="matrix(1 0 0 1 1761 268 )" class="fill" />
    <path d="M 7.618923884941219 6.084958985138131  C 8.769818284646906 7.2688026798294985  9 9.210308027921762  9 11.033428136272722  C 9 12.856547891810642  8.769818284646906 14.798052181463785  7.618923884941219 15.981896346572539  C 7.020458056228557 16.59749530066866  6.007666054529341 17  4.856771654823655 17  C 3.613804797638986 17  2.578001484272102 16.69220214001171  1.657285484316818 15.461004114215129  C 1.657285484316818 15.461004114215129  1.657285484316818 16.857941475649536  1.657285484316818 16.857941475649536  L 0 16.857941475649536  L 0 0  L 1.657285484316818 0  C 1.657285484316818 0  1.657285484316818 6.558496180764245  1.657285484316818 6.558496180764245  C 2.578001484272102 5.350975202915923  3.613804797638986 5.0668525092063454  4.856771654823655 5.0668525092063454  C 6.007666054529341 5.0668525092063454  7.020458056228557 5.469359501822452  7.618923884941219 6.084958985138131  Z " stroke-width="0" stroke-dasharray="0" stroke="rgba(121, 121, 121, 1)" fill="none" transform="matrix(1 0 0 1 1761 268 )" class="stroke" mask="url(#Clip5124)" />
    <path d="M 4.511517260443259 15.484681162163389  C 6.974432002959398 15.484681162163389  7.3427145156831815 13.306408745114577  7.3427145156831815 11.033428136272722  C 7.3427145156831815 8.760447527430868  6.974432002959398 6.582173228712507  4.511517260443259 6.582173228712507  C 2.048602060602611 6.582173228712507  1.657285484316818 8.760447527430868  1.657285484316818 11.033428136272722  C 1.657285484316818 13.306408745114577  2.048602060602611 15.484681162163389  4.511517260443259 15.484681162163389  Z " stroke-width="0" stroke-dasharray="0" stroke="rgba(121, 121, 121, 1)" fill="none" transform="matrix(1 0 0 1 1761 268 )" class="stroke" mask="url(#Clip5124)" />
  </g>
</svg>