<?xml version="1.0" encoding="utf-8"?>
<svg version="1.1" xmlns:xlink="http://www.w3.org/1999/xlink" width="21px" height="21px" xmlns="http://www.w3.org/2000/svg">
  <defs>
    <pattern id="BGPattern" patternUnits="userSpaceOnUse" alignment="0 0" imageRepeat="None" />
    <mask fill="white" id="Clip5081">
      <path d="M 4.028077079234205 2  L 4.028077079234205 0  L 19.91929791686186 0  L 19.91929791686186 2  L 4.028077079234205 2  Z M 4.028077079234205 7.466670483841823  L 4.028077079234205 6  L 19.870170836066084 6  L 19.870170836066084 7.466670483841823  L 4.028077079234205 7.466670483841823  Z M 3.880695836846872 13  L 3.880695836846872 11.592983040588221  L 19.91929791686186 11.592983040588221  L 19.91929791686186 13  L 3.880695836846872 13  Z M 2.971922920765795 8.915793363915352  C 2.971922920765795 8.915793363915352  2.971922920765795 0  2.971922920765795 0  L 4.789468752927949 0  C 4.789468752927949 0  4.789468752927949 8.915793363915352  4.789468752927949 8.915793363915352  C 4.789468752927949 9.849126198413295  4.748537977450889 10.847950372137399  4.666666666666666 11.912277596875072  C 4.5847951118866925 12.976605065608318  4.429246111683688 14.05731342100195  4.200006246291264 15.154389243299557  C 3.9871406918548367 16.235090888814984  3.651459143399232 17.274853005449142  3.1929791686186326 18.27368327906252  C 2.7508737487897807 19.27251349167701  2.161402946297511 20.181286707971786  1.4245604172522566 21  C 1.3426889844701584 20.869005975753627  1.211692056864674 20.721638384713998  1.031575002342359 20.557895640909905  C 0.8514579478200442 20.41052725688467  0.6713253995674443 20.263159665845045  0.4912083450451295 20.115791281819813  C 0.3110912905228146 19.968422897794575  0.14736849360926327 19.861985990796764  0 19.796488917674687  C 0.6877196571762079 19.026898399988585  1.2280547780224242 18.19181288314276  1.6210375089790439 17.291228280211392  C 2.0140202399356633 16.39064355528224  2.3087712569099597 15.465499700141061  2.505262500390393 14.515792322867581  C 2.7017539878665793 13.549710646814132  2.8245460703020084 12.591809654268037  2.8736687591742403 11.642102276994553  C 2.9391660029982196 10.692394899721075  2.971922920765795 9.783629491284572  2.971922920765795 8.915793363915352  Z M 19.182454167837847 18.371929559733463  C 19.182454167837847 18.371929559733463  19.182454167837847 0  19.182454167837847 0  L 21 0  C 21 0  21 18.371929559733463  21 18.371929559733463  C 21 18.96140315683329  20.90993335988007 19.411695122805064  20.729816671351387 19.72280615913605  C 20.56607404978294 20.033917225966483  20.279528365970204 20.271343155301462  19.870170836066084 20.435085838106662  C 19.460814282144977 20.582454222131894  18.887721938536494 20.672512560427247  18.15087916549549 20.70526115798718  C 17.41403639245448 20.73800963354933  16.464331724913333 20.746198978899447  15.301758330990975 20.729824680119485  C 15.252635154127237 20.500584985191097  15.162568514007308 20.20584980311184  15.031575002342361 19.845615961939295  C 14.916954581654641 19.501756358547823  14.794163231206472 19.207013429609184  14.663168743558513 18.96139943590083  C 15.236268895031076 18.97777370036892  15.78480843405478 18.985962958033134  16.308785408663606 18.985962958033134  C 16.849136450232674 19.002337226313653  17.315784182828946 19.002337226313653  17.708766669789814 18.985962958033134  C 18.10174915675068 18.985962958033134  18.371948101127455 18.985962958033134  18.519316655735658 18.985962958033134  C 18.764931564071333 18.969588693565044  18.936858779162375 18.920468767108737  19.035104156906836 18.838597440955862  C 19.133349534651302 18.75672610717812  19.182454167837847 18.60116930041102  19.182454167837847 18.371929559733463  Z M 10.684218745120084 20.656141921580844  L 10.684218745120084 0.6631604425642792  L 12.550891658078015 0.6631604425642792  L 12.550891658078015 20.656141921580844  L 10.684218745120084 20.656141921580844  Z " fill-rule="evenodd" />
    </mask>
  </defs>
  <g transform="matrix(1 0 0 1 -1689 -329 )">
    <path d="M 4.028077079234205 2  L 4.028077079234205 0  L 19.91929791686186 0  L 19.91929791686186 2  L 4.028077079234205 2  Z M 4.028077079234205 7.466670483841823  L 4.028077079234205 6  L 19.870170836066084 6  L 19.870170836066084 7.466670483841823  L 4.028077079234205 7.466670483841823  Z M 3.880695836846872 13  L 3.880695836846872 11.592983040588221  L 19.91929791686186 11.592983040588221  L 19.91929791686186 13  L 3.880695836846872 13  Z M 2.971922920765795 8.915793363915352  C 2.971922920765795 8.915793363915352  2.971922920765795 0  2.971922920765795 0  L 4.789468752927949 0  C 4.789468752927949 0  4.789468752927949 8.915793363915352  4.789468752927949 8.915793363915352  C 4.789468752927949 9.849126198413295  4.748537977450889 10.847950372137399  4.666666666666666 11.912277596875072  C 4.5847951118866925 12.976605065608318  4.429246111683688 14.05731342100195  4.200006246291264 15.154389243299557  C 3.9871406918548367 16.235090888814984  3.651459143399232 17.274853005449142  3.1929791686186326 18.27368327906252  C 2.7508737487897807 19.27251349167701  2.161402946297511 20.181286707971786  1.4245604172522566 21  C 1.3426889844701584 20.869005975753627  1.211692056864674 20.721638384713998  1.031575002342359 20.557895640909905  C 0.8514579478200442 20.41052725688467  0.6713253995674443 20.263159665845045  0.4912083450451295 20.115791281819813  C 0.3110912905228146 19.968422897794575  0.14736849360926327 19.861985990796764  0 19.796488917674687  C 0.6877196571762079 19.026898399988585  1.2280547780224242 18.19181288314276  1.6210375089790439 17.291228280211392  C 2.0140202399356633 16.39064355528224  2.3087712569099597 15.465499700141061  2.505262500390393 14.515792322867581  C 2.7017539878665793 13.549710646814132  2.8245460703020084 12.591809654268037  2.8736687591742403 11.642102276994553  C 2.9391660029982196 10.692394899721075  2.971922920765795 9.783629491284572  2.971922920765795 8.915793363915352  Z M 19.182454167837847 18.371929559733463  C 19.182454167837847 18.371929559733463  19.182454167837847 0  19.182454167837847 0  L 21 0  C 21 0  21 18.371929559733463  21 18.371929559733463  C 21 18.96140315683329  20.90993335988007 19.411695122805064  20.729816671351387 19.72280615913605  C 20.56607404978294 20.033917225966483  20.279528365970204 20.271343155301462  19.870170836066084 20.435085838106662  C 19.460814282144977 20.582454222131894  18.887721938536494 20.672512560427247  18.15087916549549 20.70526115798718  C 17.41403639245448 20.73800963354933  16.464331724913333 20.746198978899447  15.301758330990975 20.729824680119485  C 15.252635154127237 20.500584985191097  15.162568514007308 20.20584980311184  15.031575002342361 19.845615961939295  C 14.916954581654641 19.501756358547823  14.794163231206472 19.207013429609184  14.663168743558513 18.96139943590083  C 15.236268895031076 18.97777370036892  15.78480843405478 18.985962958033134  16.308785408663606 18.985962958033134  C 16.849136450232674 19.002337226313653  17.315784182828946 19.002337226313653  17.708766669789814 18.985962958033134  C 18.10174915675068 18.985962958033134  18.371948101127455 18.985962958033134  18.519316655735658 18.985962958033134  C 18.764931564071333 18.969588693565044  18.936858779162375 18.920468767108737  19.035104156906836 18.838597440955862  C 19.133349534651302 18.75672610717812  19.182454167837847 18.60116930041102  19.182454167837847 18.371929559733463  Z M 10.684218745120084 20.656141921580844  L 10.684218745120084 0.6631604425642792  L 12.550891658078015 0.6631604425642792  L 12.550891658078015 20.656141921580844  L 10.684218745120084 20.656141921580844  Z " fill-rule="nonzero" fill="rgba(255, 255, 255, 1)" stroke="none" transform="matrix(1 0 0 1 1689 329 )" class="fill" />
    <path d="M 4.028077079234205 2  L 4.028077079234205 0  L 19.91929791686186 0  L 19.91929791686186 2  L 4.028077079234205 2  Z " stroke-width="0" stroke-dasharray="0" stroke="rgba(121, 121, 121, 1)" fill="none" transform="matrix(1 0 0 1 1689 329 )" class="stroke" mask="url(#Clip5081)" />
    <path d="M 4.028077079234205 7.466670483841823  L 4.028077079234205 6  L 19.870170836066084 6  L 19.870170836066084 7.466670483841823  L 4.028077079234205 7.466670483841823  Z " stroke-width="0" stroke-dasharray="0" stroke="rgba(121, 121, 121, 1)" fill="none" transform="matrix(1 0 0 1 1689 329 )" class="stroke" mask="url(#Clip5081)" />
    <path d="M 3.880695836846872 13  L 3.880695836846872 11.592983040588221  L 19.91929791686186 11.592983040588221  L 19.91929791686186 13  L 3.880695836846872 13  Z " stroke-width="0" stroke-dasharray="0" stroke="rgba(121, 121, 121, 1)" fill="none" transform="matrix(1 0 0 1 1689 329 )" class="stroke" mask="url(#Clip5081)" />
    <path d="M 2.971922920765795 8.915793363915352  C 2.971922920765795 8.915793363915352  2.971922920765795 0  2.971922920765795 0  L 4.789468752927949 0  C 4.789468752927949 0  4.789468752927949 8.915793363915352  4.789468752927949 8.915793363915352  C 4.789468752927949 9.849126198413295  4.748537977450889 10.847950372137399  4.666666666666666 11.912277596875072  C 4.5847951118866925 12.976605065608318  4.429246111683688 14.05731342100195  4.200006246291264 15.154389243299557  C 3.9871406918548367 16.235090888814984  3.651459143399232 17.274853005449142  3.1929791686186326 18.27368327906252  C 2.7508737487897807 19.27251349167701  2.161402946297511 20.181286707971786  1.4245604172522566 21  C 1.3426889844701584 20.869005975753627  1.211692056864674 20.721638384713998  1.031575002342359 20.557895640909905  C 0.8514579478200442 20.41052725688467  0.6713253995674443 20.263159665845045  0.4912083450451295 20.115791281819813  C 0.3110912905228146 19.968422897794575  0.14736849360926327 19.861985990796764  0 19.796488917674687  C 0.6877196571762079 19.026898399988585  1.2280547780224242 18.19181288314276  1.6210375089790439 17.291228280211392  C 2.0140202399356633 16.39064355528224  2.3087712569099597 15.465499700141061  2.505262500390393 14.515792322867581  C 2.7017539878665793 13.549710646814132  2.8245460703020084 12.591809654268037  2.8736687591742403 11.642102276994553  C 2.9391660029982196 10.692394899721075  2.971922920765795 9.783629491284572  2.971922920765795 8.915793363915352  Z " stroke-width="0" stroke-dasharray="0" stroke="rgba(121, 121, 121, 1)" fill="none" transform="matrix(1 0 0 1 1689 329 )" class="stroke" mask="url(#Clip5081)" />
    <path d="M 19.182454167837847 18.371929559733463  C 19.182454167837847 18.371929559733463  19.182454167837847 0  19.182454167837847 0  L 21 0  C 21 0  21 18.371929559733463  21 18.371929559733463  C 21 18.96140315683329  20.90993335988007 19.411695122805064  20.729816671351387 19.72280615913605  C 20.56607404978294 20.033917225966483  20.279528365970204 20.271343155301462  19.870170836066084 20.435085838106662  C 19.460814282144977 20.582454222131894  18.887721938536494 20.672512560427247  18.15087916549549 20.70526115798718  C 17.41403639245448 20.73800963354933  16.464331724913333 20.746198978899447  15.301758330990975 20.729824680119485  C 15.252635154127237 20.500584985191097  15.162568514007308 20.20584980311184  15.031575002342361 19.845615961939295  C 14.916954581654641 19.501756358547823  14.794163231206472 19.207013429609184  14.663168743558513 18.96139943590083  C 15.236268895031076 18.97777370036892  15.78480843405478 18.985962958033134  16.308785408663606 18.985962958033134  C 16.849136450232674 19.002337226313653  17.315784182828946 19.002337226313653  17.708766669789814 18.985962958033134  C 18.10174915675068 18.985962958033134  18.371948101127455 18.985962958033134  18.519316655735658 18.985962958033134  C 18.764931564071333 18.969588693565044  18.936858779162375 18.920468767108737  19.035104156906836 18.838597440955862  C 19.133349534651302 18.75672610717812  19.182454167837847 18.60116930041102  19.182454167837847 18.371929559733463  Z " stroke-width="0" stroke-dasharray="0" stroke="rgba(121, 121, 121, 1)" fill="none" transform="matrix(1 0 0 1 1689 329 )" class="stroke" mask="url(#Clip5081)" />
    <path d="M 10.684218745120084 20.656141921580844  L 10.684218745120084 0.6631604425642792  L 12.550891658078015 0.6631604425642792  L 12.550891658078015 20.656141921580844  L 10.684218745120084 20.656141921580844  Z " stroke-width="0" stroke-dasharray="0" stroke="rgba(121, 121, 121, 1)" fill="none" transform="matrix(1 0 0 1 1689 329 )" class="stroke" mask="url(#Clip5081)" />
  </g>
</svg>