<?xml version="1.0" encoding="utf-8"?>
<svg version="1.1" xmlns:xlink="http://www.w3.org/1999/xlink" width="22px" height="22px" xmlns="http://www.w3.org/2000/svg">
  <defs>
    <pattern id="BGPattern" patternUnits="userSpaceOnUse" alignment="0 0" imageRepeat="None" />
    <mask fill="white" id="Clip5070">
      <path d="M 4.164699026538322 22  L 4.164699026538322 0.07182337833046516  L 6 0.07182337833046516  L 6 22  L 4.164699026538322 22  Z M 0.3764657003674621 9.719260098411407  L 0.3764657003674621 8.043525861099821  L 9.670585627364636 8.043525861099821  L 9.670585627364636 9.719260098411407  L 0.3764657003674621 9.719260098411407  Z M 2.917644706887126 11.897712323910168  C 3.3411742296488303 10.844394095315513  3.6784266228441185 9.854914906128661  3.9294070288339404 8.929271426965418  C 3.9294070288339404 8.929271426965418  4.988232238200279 9.384114772953293  4.988232238200279 9.384114772953293  C 4.784310512243749 10.214001833323245  4.525487304573284 11.075802943694491  4.211761913957846 11.969528092219619  C 3.9137228279347327 12.84729312417306  3.5843078603154575 13.717083805356417  3.2235235559230477 14.57889014761711  C 2.862739251530639 15.440696252064651  2.4862684088022258 16.25462224461029  2.094111495225169 17.020671930264534  C 1.701954698519952 17.770762450599722  1.3098009404825692 18.417117088388665  0.9176440269055125 18.959735724724787  C 0.854898925408057 18.78418258753686  0.7686244254580357 18.59267379277394  0.6588205854913683 18.385201968228163  C 0.5647029332451851 18.177730203135674  0.4549004957405952 17.970257843510293  0.3294102927456842 17.762785959511227  C 0.21960639434309695 17.539354791286527  0.10980392762054715 17.35582010948053  0 17.212185719103747  C 0.5019606951078043 16.589770186013126  1.0039169490856967 15.80776371317139  1.5058777610653409 14.866160830875932  C 2.023524760765469 13.924557710767314  2.494115417869101 12.935071387185761  2.917644706887126 11.897712323910168  Z M 4.917645386868739 10.772578327006062  C 4.917645386868739 10.772578327006062  5.788234006152474 10.030464297759368  5.788234006152474 10.030464297759368  C 5.9137244428910645 10.17409868813615  6.094110985238959 10.40551609778877  6.329404852892777 10.724703684806766  C 6.5803852588825995 11.043891271824762  6.854891498733874 11.402971064624644  7.152930584756989 11.801955429490562  C 7.466656209116105 12.200939318730166  7.772543005437132 12.599928439859214  8.070582091460247 12.998912804725132  C 8.36862117748336 13.39789716959105  8.63529700406901 13.764958923182025  8.870591339210188 14.10010567551908  C 9.105885206864006 14.419293262537078  9.270588950774771 14.658685022959778  9.364706778328713 14.818278578655619  C 9.364706778328713 14.818278578655619  8.188224350413565 16.230683258818544  8.188224350413565 16.230683258818544  C 8.04704784282633 15.911495671800548  7.835287756319069 15.504532913340885  7.5529352086319586 15.009792367494834  C 7.270582193457488 14.49909265632972  6.956857971560448 13.972433779845552  6.6117597380166835 13.429815024602853  C 6.282348042808923 12.871237104041095  5.960777980563406 12.352559950534864  5.647052823691648 11.873778807821026  C 5.349013270181174 11.394997665107189  5.105880574489266 11.027928301495198  4.917645386868739 10.772578327006062  Z M 1.1058806169881166 3.662680283992148  C 0.9333316170880739 3.008345944637097  0.7450923973890745 2.4098663057671854  0.5411708467403041 1.8672480261507995  C 0.5411708467403041 1.8672480261507995  1.835288053811025 1.5081615745825299  1.835288053811025 1.5081615745825299  C 2.0705821552085233 2.0667390195179745  2.2745042317805724 2.6652186583878863  2.4470532316806155 3.3035938324238785  C 2.6352884193011423 3.9419680552072434  2.799999643009653 4.5643850151768035  2.9411761505968874 5.170841858574678  C 3.0823526581841225 5.777297750719925  3.1764646421460765 6.3278941861169  3.2235235559230477 6.82263496977611  C 3.2235235559230477 6.82263496977611  1.8117640898990093 7.181721421344379  1.8117640898990093 7.181721421344379  C 1.7960779021785251 6.702939803004229  1.7176411199841157 6.160317718377335  1.5764646123968806 5.5538618262320885  C 1.4509744094019696 4.931446768767782  1.2941159214804832 4.30105545802814  1.1058806169881166 3.662680283992148  Z M 7.7176403550048 3.231778064114427  C 7.905875542625328 2.5614845594403173  8.04705906252295 1.9630049205704059  8.141176422589535 1.4363458062730787  C 8.141176422589535 1.4363458062730787  9.694117071074398 1.8433145100616584  9.694117071074398 1.8433145100616584  C 9.50588188345387 2.4338112368878475  9.294107304838477 3.0642025476274894  9.0588129696973 3.734496052301599  C 8.839205172892125 4.38883039165665  8.611754808149987 5.027203663187388  8.376460940496168 5.649618720651695  C 8.156853143690995 6.256074612796943  7.945093524671092 6.790714736632738  7.7411717987145625 7.253537189653831  C 7.7411717987145625 7.253537189653831  6.588228294306921 6.870509611975406  6.588228294306921 6.870509611975406  C 6.776463481927449 6.391728944887881  6.964695397136461 5.833150548699811  7.152930584756989 5.194775374663818  C 7.356852310713519 4.540441035308768  7.545091238232918 3.8861124034694776  7.7176403550048 3.231778064114427  Z M 17 22  L 17 0  L 19 0  L 19 22  L 17 22  Z M 9.929401588981033 16.900973909734773  L 9.623522739945113 15.249180798533342  L 21.717637635078347 13.02284632081427  L 22 14.674647042036717  L 9.929401588981033 16.900973909734773  Z M 12.799998368044129 3.9020687150306568  C 12.329409697761774 3.5350031564291706  11.866664530391098 3.215816045037488  11.411762865932106 2.9445073808556086  C 11.411762865932106 2.9445073808556086  12.305882928925602 1.6996753634217423  12.305882928925602 1.6996753634217423  C 12.760784593384594 1.9709849788562486  13.22352976075527 2.282189178204208  13.694118431037625 2.633295571486635  C 14.180393172168625 2.968441848197376  14.635293901652899 3.3115738907097207  15.058822489439887 3.662680283992148  C 15.48235201220159 4.013786677274575  15.81960393790952 4.340954798204727  16.0705848113867 4.644182744277351  C 16.0705848113867 4.644182744277351  15.129401860973678 6.0087051722199645  15.129401860973678 6.0087051722199645  C 14.89410799331986 5.705477226147341  14.564700505498331 5.370334754447105  14.141170982736627 5.00326919584562  C 13.733327530823567 4.636203637244135  13.286272174200409 4.269134273632142  12.799998368044129 3.9020687150306568  Z M 11.64704738383874 9.886832761140464  C 11.1607731101951 9.53572636785804  10.682352156697684 9.232496043653848  10.211763953902686 8.977146069164714  C 10.211763953902686 8.977146069164714  11.035289685766896 7.708380535641706  11.035289685766896 7.708380535641706  C 11.505878356049251 7.947770869185468  11.992158707028564 8.227056262268997  12.494119519008207 8.546243849286993  C 12.996080330987851 8.849471795359618  13.47450128448527 9.168658431124985  13.929402948944261 9.50380518346204  C 14.384304613403252 9.822992770480036  14.745092657694535 10.126223570310541  15.011759602020362 10.413491875437792  C 15.011759602020362 10.413491875437792  14.141170982736627 11.84983768171087  14.141170982736627 11.84983768171087  C 13.858817967562157 11.562569376583621  13.498029923270874 11.25135661596202  13.058814329660526 10.916209863624964  C 12.619598736050179 10.565103470342537  12.149008195818386 10.22197951347752  11.64704738383874 9.886832761140464  Z " fill-rule="evenodd" />
    </mask>
  </defs>
  <g transform="matrix(1 0 0 1 -1491 -358 )">
    <path d="M 4.164699026538322 22  L 4.164699026538322 0.07182337833046516  L 6 0.07182337833046516  L 6 22  L 4.164699026538322 22  Z M 0.3764657003674621 9.719260098411407  L 0.3764657003674621 8.043525861099821  L 9.670585627364636 8.043525861099821  L 9.670585627364636 9.719260098411407  L 0.3764657003674621 9.719260098411407  Z M 2.917644706887126 11.897712323910168  C 3.3411742296488303 10.844394095315513  3.6784266228441185 9.854914906128661  3.9294070288339404 8.929271426965418  C 3.9294070288339404 8.929271426965418  4.988232238200279 9.384114772953293  4.988232238200279 9.384114772953293  C 4.784310512243749 10.214001833323245  4.525487304573284 11.075802943694491  4.211761913957846 11.969528092219619  C 3.9137228279347327 12.84729312417306  3.5843078603154575 13.717083805356417  3.2235235559230477 14.57889014761711  C 2.862739251530639 15.440696252064651  2.4862684088022258 16.25462224461029  2.094111495225169 17.020671930264534  C 1.701954698519952 17.770762450599722  1.3098009404825692 18.417117088388665  0.9176440269055125 18.959735724724787  C 0.854898925408057 18.78418258753686  0.7686244254580357 18.59267379277394  0.6588205854913683 18.385201968228163  C 0.5647029332451851 18.177730203135674  0.4549004957405952 17.970257843510293  0.3294102927456842 17.762785959511227  C 0.21960639434309695 17.539354791286527  0.10980392762054715 17.35582010948053  0 17.212185719103747  C 0.5019606951078043 16.589770186013126  1.0039169490856967 15.80776371317139  1.5058777610653409 14.866160830875932  C 2.023524760765469 13.924557710767314  2.494115417869101 12.935071387185761  2.917644706887126 11.897712323910168  Z M 4.917645386868739 10.772578327006062  C 4.917645386868739 10.772578327006062  5.788234006152474 10.030464297759368  5.788234006152474 10.030464297759368  C 5.9137244428910645 10.17409868813615  6.094110985238959 10.40551609778877  6.329404852892777 10.724703684806766  C 6.5803852588825995 11.043891271824762  6.854891498733874 11.402971064624644  7.152930584756989 11.801955429490562  C 7.466656209116105 12.200939318730166  7.772543005437132 12.599928439859214  8.070582091460247 12.998912804725132  C 8.36862117748336 13.39789716959105  8.63529700406901 13.764958923182025  8.870591339210188 14.10010567551908  C 9.105885206864006 14.419293262537078  9.270588950774771 14.658685022959778  9.364706778328713 14.818278578655619  C 9.364706778328713 14.818278578655619  8.188224350413565 16.230683258818544  8.188224350413565 16.230683258818544  C 8.04704784282633 15.911495671800548  7.835287756319069 15.504532913340885  7.5529352086319586 15.009792367494834  C 7.270582193457488 14.49909265632972  6.956857971560448 13.972433779845552  6.6117597380166835 13.429815024602853  C 6.282348042808923 12.871237104041095  5.960777980563406 12.352559950534864  5.647052823691648 11.873778807821026  C 5.349013270181174 11.394997665107189  5.105880574489266 11.027928301495198  4.917645386868739 10.772578327006062  Z M 1.1058806169881166 3.662680283992148  C 0.9333316170880739 3.008345944637097  0.7450923973890745 2.4098663057671854  0.5411708467403041 1.8672480261507995  C 0.5411708467403041 1.8672480261507995  1.835288053811025 1.5081615745825299  1.835288053811025 1.5081615745825299  C 2.0705821552085233 2.0667390195179745  2.2745042317805724 2.6652186583878863  2.4470532316806155 3.3035938324238785  C 2.6352884193011423 3.9419680552072434  2.799999643009653 4.5643850151768035  2.9411761505968874 5.170841858574678  C 3.0823526581841225 5.777297750719925  3.1764646421460765 6.3278941861169  3.2235235559230477 6.82263496977611  C 3.2235235559230477 6.82263496977611  1.8117640898990093 7.181721421344379  1.8117640898990093 7.181721421344379  C 1.7960779021785251 6.702939803004229  1.7176411199841157 6.160317718377335  1.5764646123968806 5.5538618262320885  C 1.4509744094019696 4.931446768767782  1.2941159214804832 4.30105545802814  1.1058806169881166 3.662680283992148  Z M 7.7176403550048 3.231778064114427  C 7.905875542625328 2.5614845594403173  8.04705906252295 1.9630049205704059  8.141176422589535 1.4363458062730787  C 8.141176422589535 1.4363458062730787  9.694117071074398 1.8433145100616584  9.694117071074398 1.8433145100616584  C 9.50588188345387 2.4338112368878475  9.294107304838477 3.0642025476274894  9.0588129696973 3.734496052301599  C 8.839205172892125 4.38883039165665  8.611754808149987 5.027203663187388  8.376460940496168 5.649618720651695  C 8.156853143690995 6.256074612796943  7.945093524671092 6.790714736632738  7.7411717987145625 7.253537189653831  C 7.7411717987145625 7.253537189653831  6.588228294306921 6.870509611975406  6.588228294306921 6.870509611975406  C 6.776463481927449 6.391728944887881  6.964695397136461 5.833150548699811  7.152930584756989 5.194775374663818  C 7.356852310713519 4.540441035308768  7.545091238232918 3.8861124034694776  7.7176403550048 3.231778064114427  Z M 17 22  L 17 0  L 19 0  L 19 22  L 17 22  Z M 9.929401588981033 16.900973909734773  L 9.623522739945113 15.249180798533342  L 21.717637635078347 13.02284632081427  L 22 14.674647042036717  L 9.929401588981033 16.900973909734773  Z M 12.799998368044129 3.9020687150306568  C 12.329409697761774 3.5350031564291706  11.866664530391098 3.215816045037488  11.411762865932106 2.9445073808556086  C 11.411762865932106 2.9445073808556086  12.305882928925602 1.6996753634217423  12.305882928925602 1.6996753634217423  C 12.760784593384594 1.9709849788562486  13.22352976075527 2.282189178204208  13.694118431037625 2.633295571486635  C 14.180393172168625 2.968441848197376  14.635293901652899 3.3115738907097207  15.058822489439887 3.662680283992148  C 15.48235201220159 4.013786677274575  15.81960393790952 4.340954798204727  16.0705848113867 4.644182744277351  C 16.0705848113867 4.644182744277351  15.129401860973678 6.0087051722199645  15.129401860973678 6.0087051722199645  C 14.89410799331986 5.705477226147341  14.564700505498331 5.370334754447105  14.141170982736627 5.00326919584562  C 13.733327530823567 4.636203637244135  13.286272174200409 4.269134273632142  12.799998368044129 3.9020687150306568  Z M 11.64704738383874 9.886832761140464  C 11.1607731101951 9.53572636785804  10.682352156697684 9.232496043653848  10.211763953902686 8.977146069164714  C 10.211763953902686 8.977146069164714  11.035289685766896 7.708380535641706  11.035289685766896 7.708380535641706  C 11.505878356049251 7.947770869185468  11.992158707028564 8.227056262268997  12.494119519008207 8.546243849286993  C 12.996080330987851 8.849471795359618  13.47450128448527 9.168658431124985  13.929402948944261 9.50380518346204  C 14.384304613403252 9.822992770480036  14.745092657694535 10.126223570310541  15.011759602020362 10.413491875437792  C 15.011759602020362 10.413491875437792  14.141170982736627 11.84983768171087  14.141170982736627 11.84983768171087  C 13.858817967562157 11.562569376583621  13.498029923270874 11.25135661596202  13.058814329660526 10.916209863624964  C 12.619598736050179 10.565103470342537  12.149008195818386 10.22197951347752  11.64704738383874 9.886832761140464  Z " fill-rule="nonzero" fill="rgba(255, 255, 255, 1)" stroke="none" transform="matrix(1 0 0 1 1491 358 )" class="fill" />
    <path d="M 4.164699026538322 22  L 4.164699026538322 0.07182337833046516  L 6 0.07182337833046516  L 6 22  L 4.164699026538322 22  Z " stroke-width="0" stroke-dasharray="0" stroke="rgba(121, 121, 121, 1)" fill="none" transform="matrix(1 0 0 1 1491 358 )" class="stroke" mask="url(#Clip5070)" />
    <path d="M 0.3764657003674621 9.719260098411407  L 0.3764657003674621 8.043525861099821  L 9.670585627364636 8.043525861099821  L 9.670585627364636 9.719260098411407  L 0.3764657003674621 9.719260098411407  Z " stroke-width="0" stroke-dasharray="0" stroke="rgba(121, 121, 121, 1)" fill="none" transform="matrix(1 0 0 1 1491 358 )" class="stroke" mask="url(#Clip5070)" />
    <path d="M 2.917644706887126 11.897712323910168  C 3.3411742296488303 10.844394095315513  3.6784266228441185 9.854914906128661  3.9294070288339404 8.929271426965418  C 3.9294070288339404 8.929271426965418  4.988232238200279 9.384114772953293  4.988232238200279 9.384114772953293  C 4.784310512243749 10.214001833323245  4.525487304573284 11.075802943694491  4.211761913957846 11.969528092219619  C 3.9137228279347327 12.84729312417306  3.5843078603154575 13.717083805356417  3.2235235559230477 14.57889014761711  C 2.862739251530639 15.440696252064651  2.4862684088022258 16.25462224461029  2.094111495225169 17.020671930264534  C 1.701954698519952 17.770762450599722  1.3098009404825692 18.417117088388665  0.9176440269055125 18.959735724724787  C 0.854898925408057 18.78418258753686  0.7686244254580357 18.59267379277394  0.6588205854913683 18.385201968228163  C 0.5647029332451851 18.177730203135674  0.4549004957405952 17.970257843510293  0.3294102927456842 17.762785959511227  C 0.21960639434309695 17.539354791286527  0.10980392762054715 17.35582010948053  0 17.212185719103747  C 0.5019606951078043 16.589770186013126  1.0039169490856967 15.80776371317139  1.5058777610653409 14.866160830875932  C 2.023524760765469 13.924557710767314  2.494115417869101 12.935071387185761  2.917644706887126 11.897712323910168  Z " stroke-width="0" stroke-dasharray="0" stroke="rgba(121, 121, 121, 1)" fill="none" transform="matrix(1 0 0 1 1491 358 )" class="stroke" mask="url(#Clip5070)" />
    <path d="M 4.917645386868739 10.772578327006062  C 4.917645386868739 10.772578327006062  5.788234006152474 10.030464297759368  5.788234006152474 10.030464297759368  C 5.9137244428910645 10.17409868813615  6.094110985238959 10.40551609778877  6.329404852892777 10.724703684806766  C 6.5803852588825995 11.043891271824762  6.854891498733874 11.402971064624644  7.152930584756989 11.801955429490562  C 7.466656209116105 12.200939318730166  7.772543005437132 12.599928439859214  8.070582091460247 12.998912804725132  C 8.36862117748336 13.39789716959105  8.63529700406901 13.764958923182025  8.870591339210188 14.10010567551908  C 9.105885206864006 14.419293262537078  9.270588950774771 14.658685022959778  9.364706778328713 14.818278578655619  C 9.364706778328713 14.818278578655619  8.188224350413565 16.230683258818544  8.188224350413565 16.230683258818544  C 8.04704784282633 15.911495671800548  7.835287756319069 15.504532913340885  7.5529352086319586 15.009792367494834  C 7.270582193457488 14.49909265632972  6.956857971560448 13.972433779845552  6.6117597380166835 13.429815024602853  C 6.282348042808923 12.871237104041095  5.960777980563406 12.352559950534864  5.647052823691648 11.873778807821026  C 5.349013270181174 11.394997665107189  5.105880574489266 11.027928301495198  4.917645386868739 10.772578327006062  Z " stroke-width="0" stroke-dasharray="0" stroke="rgba(121, 121, 121, 1)" fill="none" transform="matrix(1 0 0 1 1491 358 )" class="stroke" mask="url(#Clip5070)" />
    <path d="M 1.1058806169881166 3.662680283992148  C 0.9333316170880739 3.008345944637097  0.7450923973890745 2.4098663057671854  0.5411708467403041 1.8672480261507995  C 0.5411708467403041 1.8672480261507995  1.835288053811025 1.5081615745825299  1.835288053811025 1.5081615745825299  C 2.0705821552085233 2.0667390195179745  2.2745042317805724 2.6652186583878863  2.4470532316806155 3.3035938324238785  C 2.6352884193011423 3.9419680552072434  2.799999643009653 4.5643850151768035  2.9411761505968874 5.170841858574678  C 3.0823526581841225 5.777297750719925  3.1764646421460765 6.3278941861169  3.2235235559230477 6.82263496977611  C 3.2235235559230477 6.82263496977611  1.8117640898990093 7.181721421344379  1.8117640898990093 7.181721421344379  C 1.7960779021785251 6.702939803004229  1.7176411199841157 6.160317718377335  1.5764646123968806 5.5538618262320885  C 1.4509744094019696 4.931446768767782  1.2941159214804832 4.30105545802814  1.1058806169881166 3.662680283992148  Z " stroke-width="0" stroke-dasharray="0" stroke="rgba(121, 121, 121, 1)" fill="none" transform="matrix(1 0 0 1 1491 358 )" class="stroke" mask="url(#Clip5070)" />
    <path d="M 7.7176403550048 3.231778064114427  C 7.905875542625328 2.5614845594403173  8.04705906252295 1.9630049205704059  8.141176422589535 1.4363458062730787  C 8.141176422589535 1.4363458062730787  9.694117071074398 1.8433145100616584  9.694117071074398 1.8433145100616584  C 9.50588188345387 2.4338112368878475  9.294107304838477 3.0642025476274894  9.0588129696973 3.734496052301599  C 8.839205172892125 4.38883039165665  8.611754808149987 5.027203663187388  8.376460940496168 5.649618720651695  C 8.156853143690995 6.256074612796943  7.945093524671092 6.790714736632738  7.7411717987145625 7.253537189653831  C 7.7411717987145625 7.253537189653831  6.588228294306921 6.870509611975406  6.588228294306921 6.870509611975406  C 6.776463481927449 6.391728944887881  6.964695397136461 5.833150548699811  7.152930584756989 5.194775374663818  C 7.356852310713519 4.540441035308768  7.545091238232918 3.8861124034694776  7.7176403550048 3.231778064114427  Z " stroke-width="0" stroke-dasharray="0" stroke="rgba(121, 121, 121, 1)" fill="none" transform="matrix(1 0 0 1 1491 358 )" class="stroke" mask="url(#Clip5070)" />
    <path d="M 17 22  L 17 0  L 19 0  L 19 22  L 17 22  Z " stroke-width="0" stroke-dasharray="0" stroke="rgba(121, 121, 121, 1)" fill="none" transform="matrix(1 0 0 1 1491 358 )" class="stroke" mask="url(#Clip5070)" />
    <path d="M 9.929401588981033 16.900973909734773  L 9.623522739945113 15.249180798533342  L 21.717637635078347 13.02284632081427  L 22 14.674647042036717  L 9.929401588981033 16.900973909734773  Z " stroke-width="0" stroke-dasharray="0" stroke="rgba(121, 121, 121, 1)" fill="none" transform="matrix(1 0 0 1 1491 358 )" class="stroke" mask="url(#Clip5070)" />
    <path d="M 12.799998368044129 3.9020687150306568  C 12.329409697761774 3.5350031564291706  11.866664530391098 3.215816045037488  11.411762865932106 2.9445073808556086  C 11.411762865932106 2.9445073808556086  12.305882928925602 1.6996753634217423  12.305882928925602 1.6996753634217423  C 12.760784593384594 1.9709849788562486  13.22352976075527 2.282189178204208  13.694118431037625 2.633295571486635  C 14.180393172168625 2.968441848197376  14.635293901652899 3.3115738907097207  15.058822489439887 3.662680283992148  C 15.48235201220159 4.013786677274575  15.81960393790952 4.340954798204727  16.0705848113867 4.644182744277351  C 16.0705848113867 4.644182744277351  15.129401860973678 6.0087051722199645  15.129401860973678 6.0087051722199645  C 14.89410799331986 5.705477226147341  14.564700505498331 5.370334754447105  14.141170982736627 5.00326919584562  C 13.733327530823567 4.636203637244135  13.286272174200409 4.269134273632142  12.799998368044129 3.9020687150306568  Z " stroke-width="0" stroke-dasharray="0" stroke="rgba(121, 121, 121, 1)" fill="none" transform="matrix(1 0 0 1 1491 358 )" class="stroke" mask="url(#Clip5070)" />
    <path d="M 11.64704738383874 9.886832761140464  C 11.1607731101951 9.53572636785804  10.682352156697684 9.232496043653848  10.211763953902686 8.977146069164714  C 10.211763953902686 8.977146069164714  11.035289685766896 7.708380535641706  11.035289685766896 7.708380535641706  C 11.505878356049251 7.947770869185468  11.992158707028564 8.227056262268997  12.494119519008207 8.546243849286993  C 12.996080330987851 8.849471795359618  13.47450128448527 9.168658431124985  13.929402948944261 9.50380518346204  C 14.384304613403252 9.822992770480036  14.745092657694535 10.126223570310541  15.011759602020362 10.413491875437792  C 15.011759602020362 10.413491875437792  14.141170982736627 11.84983768171087  14.141170982736627 11.84983768171087  C 13.858817967562157 11.562569376583621  13.498029923270874 11.25135661596202  13.058814329660526 10.916209863624964  C 12.619598736050179 10.565103470342537  12.149008195818386 10.22197951347752  11.64704738383874 9.886832761140464  Z " stroke-width="0" stroke-dasharray="0" stroke="rgba(121, 121, 121, 1)" fill="none" transform="matrix(1 0 0 1 1491 358 )" class="stroke" mask="url(#Clip5070)" />
  </g>
</svg>