<?xml version="1.0" encoding="utf-8"?>
<svg version="1.1" xmlns:xlink="http://www.w3.org/1999/xlink" width="23px" height="25px" xmlns="http://www.w3.org/2000/svg">
  <defs>
    <pattern id="BGPattern" patternUnits="userSpaceOnUse" alignment="0 0" imageRepeat="None" />
    <mask fill="white" id="Clip5012">
      <path d="M 15 0  L 15 17  L 11.767443980887089 17  L 11.767443980887089 7.091290924892125  L 8.604654028225797 13.537921108458791  L 6.418603791532261 13.537921108458791  L 3.2325634119354656 7.091290924892125  L 3.2325634119354656 17  L 0 17  L 0 0  L 3.1860477724193506 0  L 7.511632606290306 9.192415778308241  L 11.81395222758065 0  L 15 0  Z " fill-rule="evenodd" />
    </mask>
  </defs>
  <g transform="matrix(1 0 0 1 -1536 -427 )">
    <path d="M 15 0  L 15 17  L 11.767443980887089 17  L 11.767443980887089 7.091290924892125  L 8.604654028225797 13.537921108458791  L 6.418603791532261 13.537921108458791  L 3.2325634119354656 7.091290924892125  L 3.2325634119354656 17  L 0 17  L 0 0  L 3.1860477724193506 0  L 7.511632606290306 9.192415778308241  L 11.81395222758065 0  L 15 0  Z " fill-rule="nonzero" fill="rgba(255, 255, 255, 1)" stroke="none" transform="matrix(1 0 0 1 1540 427 )" class="fill" />
    <path d="M 15 0  L 15 17  L 11.767443980887089 17  L 11.767443980887089 7.091290924892125  L 8.604654028225797 13.537921108458791  L 6.418603791532261 13.537921108458791  L 3.2325634119354656 7.091290924892125  L 3.2325634119354656 17  L 0 17  L 0 0  L 3.1860477724193506 0  L 7.511632606290306 9.192415778308241  L 11.81395222758065 0  L 15 0  Z " stroke-width="0" stroke-dasharray="0" stroke="rgba(121, 121, 121, 1)" fill="none" transform="matrix(1 0 0 1 1540 427 )" class="stroke" mask="url(#Clip5012)" />
  </g>
  <style>svg { filter: drop-shadow(0px 4px 2px rgba(0, 0, 0, 0.12941176470588237)); }</style>
</svg>