<?xml version="1.0" encoding="utf-8"?>
<svg version="1.1" xmlns:xlink="http://www.w3.org/1999/xlink" width="10px" height="17px" xmlns="http://www.w3.org/2000/svg">
  <defs>
    <pattern id="BGPattern" patternUnits="userSpaceOnUse" alignment="0 0" imageRepeat="None" />
    <mask fill="white" id="Clip5114">
      <path d="M 8.164704403992866 0  L 10 0  C 10 0  4.729412697480692 14.775248462940432  4.729412697480692 14.775248462940432  C 4.494118471211567 15.428164862907604  4.2352952547413505 15.863444264591072  3.9058831977183623 16.177811219941336  C 3.29411870028038 16.782363362057367  2.4705884408510665 17  1.6470589995246587 17  C 1.6470589995246587 17  0.9176477980035671 17  0.9176477980035671 17  L 0.9176477980035671 15.452347592401626  C 0.9176477980035671 15.452347592401626  1.4352946984313741 15.452347592401626  1.4352946984313741 15.452347592401626  C 2.611765245417782 15.452347592401626  2.964706526385548 15.06543376981989  3.3411771481699364 13.977240010101985  C 3.3411771481699364 13.977240010101985  4.164706647932266 11.655759476885379  4.164706647932266 11.655759476885379  L 0 0  L 1.8352955960071342 0  L 5.011763852305404 9.551921106841155  L 8.164704403992866 0  Z " fill-rule="evenodd" />
    </mask>
  </defs>
  <g transform="matrix(1 0 0 1 -1416 -304 )">
    <path d="M 8.164704403992866 0  L 10 0  C 10 0  4.729412697480692 14.775248462940432  4.729412697480692 14.775248462940432  C 4.494118471211567 15.428164862907604  4.2352952547413505 15.863444264591072  3.9058831977183623 16.177811219941336  C 3.29411870028038 16.782363362057367  2.4705884408510665 17  1.6470589995246587 17  C 1.6470589995246587 17  0.9176477980035671 17  0.9176477980035671 17  L 0.9176477980035671 15.452347592401626  C 0.9176477980035671 15.452347592401626  1.4352946984313741 15.452347592401626  1.4352946984313741 15.452347592401626  C 2.611765245417782 15.452347592401626  2.964706526385548 15.06543376981989  3.3411771481699364 13.977240010101985  C 3.3411771481699364 13.977240010101985  4.164706647932266 11.655759476885379  4.164706647932266 11.655759476885379  L 0 0  L 1.8352955960071342 0  L 5.011763852305404 9.551921106841155  L 8.164704403992866 0  Z " fill-rule="nonzero" fill="rgba(255, 255, 255, 1)" stroke="none" transform="matrix(1 0 0 1 1416 304 )" class="fill" />
    <path d="M 8.164704403992866 0  L 10 0  C 10 0  4.729412697480692 14.775248462940432  4.729412697480692 14.775248462940432  C 4.494118471211567 15.428164862907604  4.2352952547413505 15.863444264591072  3.9058831977183623 16.177811219941336  C 3.29411870028038 16.782363362057367  2.4705884408510665 17  1.6470589995246587 17  C 1.6470589995246587 17  0.9176477980035671 17  0.9176477980035671 17  L 0.9176477980035671 15.452347592401626  C 0.9176477980035671 15.452347592401626  1.4352946984313741 15.452347592401626  1.4352946984313741 15.452347592401626  C 2.611765245417782 15.452347592401626  2.964706526385548 15.06543376981989  3.3411771481699364 13.977240010101985  C 3.3411771481699364 13.977240010101985  4.164706647932266 11.655759476885379  4.164706647932266 11.655759476885379  L 0 0  L 1.8352955960071342 0  L 5.011763852305404 9.551921106841155  L 8.164704403992866 0  Z " stroke-width="0" stroke-dasharray="0" stroke="rgba(121, 121, 121, 1)" fill="none" transform="matrix(1 0 0 1 1416 304 )" class="stroke" mask="url(#Clip5114)" />
  </g>
</svg>