<?xml version="1.0" encoding="utf-8"?>
<svg version="1.1" xmlns:xlink="http://www.w3.org/1999/xlink" width="18px" height="25px" xmlns="http://www.w3.org/2000/svg">
  <defs>
    <pattern id="BGPattern" patternUnits="userSpaceOnUse" alignment="0 0" imageRepeat="None" />
    <mask fill="white" id="Clip5013">
      <path d="M 10 0  L 10 16.857941475649536  L 7.09382453991211 16.857941475649536  C 7.09382453991211 16.857941475649536  7.09382453991211 15.697772712028186  7.09382453991211 15.697772712028186  C 6.270025525884877 16.64484804411519  5.400459710529627 17  4.141878527631461 17  C 2.974830379076485 17  1.8764333986453605 16.57381778230301  1.2128177914471918 15.887188154779496  C 0.02288629905949226 14.65599024658726  0 12.525070984600195  0 10.678274298718362  C 0 8.831477260023489  0.02288629905949226 6.724234105149908  1.2128177914471918 5.4930365497707125  C 1.8764333986453605 4.806407333862415  2.951945102980105 4.3802228228806595  4.118993251535081 4.3802228228806595  C 5.331808087755504 4.3802228228806595  6.247143659665538 4.711699612486759  7.025175986027325 5.611420848677241  C 7.025175986027325 5.611420848677241  7.025175986027325 0  7.025175986027325 0  L 10 0  Z M 4.988560999153987 14.22980702925332  C 6.77345772625398 14.22980702925332  7.025175986027325 12.690809261798897  7.025175986027325 10.678274298718362  C 7.025175986027325 8.665739100429132  6.77345772625398 7.150418616131664  4.988560999153987 7.150418616131664  C 3.2036635900785853 7.150418616131664  2.9748312883770294 8.665739100429132  2.9748312883770294 10.678274298718362  C 2.9748312883770294 12.690809261798897  3.2036635900785853 14.22980702925332  4.988560999153987 14.22980702925332  Z " fill-rule="evenodd" />
    </mask>
  </defs>
  <g transform="matrix(1 0 0 1 -1516 -427 )">
    <path d="M 10 0  L 10 16.857941475649536  L 7.09382453991211 16.857941475649536  C 7.09382453991211 16.857941475649536  7.09382453991211 15.697772712028186  7.09382453991211 15.697772712028186  C 6.270025525884877 16.64484804411519  5.400459710529627 17  4.141878527631461 17  C 2.974830379076485 17  1.8764333986453605 16.57381778230301  1.2128177914471918 15.887188154779496  C 0.02288629905949226 14.65599024658726  0 12.525070984600195  0 10.678274298718362  C 0 8.831477260023489  0.02288629905949226 6.724234105149908  1.2128177914471918 5.4930365497707125  C 1.8764333986453605 4.806407333862415  2.951945102980105 4.3802228228806595  4.118993251535081 4.3802228228806595  C 5.331808087755504 4.3802228228806595  6.247143659665538 4.711699612486759  7.025175986027325 5.611420848677241  C 7.025175986027325 5.611420848677241  7.025175986027325 0  7.025175986027325 0  L 10 0  Z M 4.988560999153987 14.22980702925332  C 6.77345772625398 14.22980702925332  7.025175986027325 12.690809261798897  7.025175986027325 10.678274298718362  C 7.025175986027325 8.665739100429132  6.77345772625398 7.150418616131664  4.988560999153987 7.150418616131664  C 3.2036635900785853 7.150418616131664  2.9748312883770294 8.665739100429132  2.9748312883770294 10.678274298718362  C 2.9748312883770294 12.690809261798897  3.2036635900785853 14.22980702925332  4.988560999153987 14.22980702925332  Z " fill-rule="nonzero" fill="rgba(255, 255, 255, 1)" stroke="none" transform="matrix(1 0 0 1 1520 427 )" class="fill" />
    <path d="M 10 0  L 10 16.857941475649536  L 7.09382453991211 16.857941475649536  C 7.09382453991211 16.857941475649536  7.09382453991211 15.697772712028186  7.09382453991211 15.697772712028186  C 6.270025525884877 16.64484804411519  5.400459710529627 17  4.141878527631461 17  C 2.974830379076485 17  1.8764333986453605 16.57381778230301  1.2128177914471918 15.887188154779496  C 0.02288629905949226 14.65599024658726  0 12.525070984600195  0 10.678274298718362  C 0 8.831477260023489  0.02288629905949226 6.724234105149908  1.2128177914471918 5.4930365497707125  C 1.8764333986453605 4.806407333862415  2.951945102980105 4.3802228228806595  4.118993251535081 4.3802228228806595  C 5.331808087755504 4.3802228228806595  6.247143659665538 4.711699612486759  7.025175986027325 5.611420848677241  C 7.025175986027325 5.611420848677241  7.025175986027325 0  7.025175986027325 0  L 10 0  Z " stroke-width="0" stroke-dasharray="0" stroke="rgba(121, 121, 121, 1)" fill="none" transform="matrix(1 0 0 1 1520 427 )" class="stroke" mask="url(#Clip5013)" />
    <path d="M 4.988560999153987 14.22980702925332  C 6.77345772625398 14.22980702925332  7.025175986027325 12.690809261798897  7.025175986027325 10.678274298718362  C 7.025175986027325 8.665739100429132  6.77345772625398 7.150418616131664  4.988560999153987 7.150418616131664  C 3.2036635900785853 7.150418616131664  2.9748312883770294 8.665739100429132  2.9748312883770294 10.678274298718362  C 2.9748312883770294 12.690809261798897  3.2036635900785853 14.22980702925332  4.988560999153987 14.22980702925332  Z " stroke-width="0" stroke-dasharray="0" stroke="rgba(121, 121, 121, 1)" fill="none" transform="matrix(1 0 0 1 1520 427 )" class="stroke" mask="url(#Clip5013)" />
  </g>
  <style>svg { filter: drop-shadow(0px 4px 2px rgba(0, 0, 0, 0.12941176470588237)); }</style>
</svg>