<?xml version="1.0" encoding="utf-8"?>
<svg version="1.1" xmlns:xlink="http://www.w3.org/1999/xlink" width="22px" height="31px" xmlns="http://www.w3.org/2000/svg">
  <defs>
    <pattern id="BGPattern" patternUnits="userSpaceOnUse" alignment="0 0" imageRepeat="None" />
    <mask fill="white" id="Clip5052">
      <path d="M 11.156732899965059 11.11878380854859  C 12.732891675672603 11.97651881917616  14 13.53314781390115  14 16.265191978796555  C 14 20.776241723476307  10.785872174100284 23  7.015452798881907 23  C 3.4304637865959164 23  0.061810159354254116 21.062153867064865  0 16.32872895746386  C 0 16.32872895746386  4.017659552113895 16.32872895746386  4.017659552113895 16.32872895746386  C 4.079469826598524 18.361878191503113  5.439293562652865 19.283148287280518  7.015452798881907 19.283148287280518  C 8.746136800279523 19.283148287280518  9.982339526843107 18.171268675639304  9.982339526843107 16.13811991497942  C 9.982339526843107 14.26381028733222  8.869757349248781 13.024860978770704  6.891832249912649 13.024860978770704  C 6.891832249912649 13.024860978770704  6.304635102830174 13.024860978770704  6.304635102830174 13.024860978770704  L 6.304635102830174 9.43508322338583  C 6.304635102830174 9.43508322338583  6.891832249912649 9.43508322338583  6.891832249912649 9.43508322338583  C 8.838851751484968 9.43508322338583  9.67328907546296 8.19613296806558  9.67328907546296 6.607734063868838  C 9.67328907546296 4.701656893646722  8.437086348899378 3.7168517127194813  6.984547201118094 3.7168517127194813  C 5.470198699895178 3.7168517127194813  4.357616061779354 4.733426329739108  4.264900650052411 6.448894457476784  C 4.264900650052411 6.448894457476784  0.2472405222866419 6.448894457476784  0.2472405222866419 6.448894457476784  C 0.33995581888321036 2.4143654254906637  3.2759381003843444 0  6.984547201118094 0  C 10.87858712530573 0  13.690948627576857 2.6685095531249376  13.690948627576857 6.4806638935691705  C 13.690948627576857 8.926795914876015  12.609271126703346 10.324585776588318  11.156732899965059 11.11878380854859  Z " fill-rule="evenodd" />
    </mask>
  </defs>
  <g transform="matrix(1 0 0 1 -688 -994 )">
    <path d="M 11.156732899965059 11.11878380854859  C 12.732891675672603 11.97651881917616  14 13.53314781390115  14 16.265191978796555  C 14 20.776241723476307  10.785872174100284 23  7.015452798881907 23  C 3.4304637865959164 23  0.061810159354254116 21.062153867064865  0 16.32872895746386  C 0 16.32872895746386  4.017659552113895 16.32872895746386  4.017659552113895 16.32872895746386  C 4.079469826598524 18.361878191503113  5.439293562652865 19.283148287280518  7.015452798881907 19.283148287280518  C 8.746136800279523 19.283148287280518  9.982339526843107 18.171268675639304  9.982339526843107 16.13811991497942  C 9.982339526843107 14.26381028733222  8.869757349248781 13.024860978770704  6.891832249912649 13.024860978770704  C 6.891832249912649 13.024860978770704  6.304635102830174 13.024860978770704  6.304635102830174 13.024860978770704  L 6.304635102830174 9.43508322338583  C 6.304635102830174 9.43508322338583  6.891832249912649 9.43508322338583  6.891832249912649 9.43508322338583  C 8.838851751484968 9.43508322338583  9.67328907546296 8.19613296806558  9.67328907546296 6.607734063868838  C 9.67328907546296 4.701656893646722  8.437086348899378 3.7168517127194813  6.984547201118094 3.7168517127194813  C 5.470198699895178 3.7168517127194813  4.357616061779354 4.733426329739108  4.264900650052411 6.448894457476784  C 4.264900650052411 6.448894457476784  0.2472405222866419 6.448894457476784  0.2472405222866419 6.448894457476784  C 0.33995581888321036 2.4143654254906637  3.2759381003843444 0  6.984547201118094 0  C 10.87858712530573 0  13.690948627576857 2.6685095531249376  13.690948627576857 6.4806638935691705  C 13.690948627576857 8.926795914876015  12.609271126703346 10.324585776588318  11.156732899965059 11.11878380854859  Z " fill-rule="nonzero" fill="rgba(255, 255, 255, 1)" stroke="none" transform="matrix(1 0 0 1 692 994 )" class="fill" />
    <path d="M 11.156732899965059 11.11878380854859  C 12.732891675672603 11.97651881917616  14 13.53314781390115  14 16.265191978796555  C 14 20.776241723476307  10.785872174100284 23  7.015452798881907 23  C 3.4304637865959164 23  0.061810159354254116 21.062153867064865  0 16.32872895746386  C 0 16.32872895746386  4.017659552113895 16.32872895746386  4.017659552113895 16.32872895746386  C 4.079469826598524 18.361878191503113  5.439293562652865 19.283148287280518  7.015452798881907 19.283148287280518  C 8.746136800279523 19.283148287280518  9.982339526843107 18.171268675639304  9.982339526843107 16.13811991497942  C 9.982339526843107 14.26381028733222  8.869757349248781 13.024860978770704  6.891832249912649 13.024860978770704  C 6.891832249912649 13.024860978770704  6.304635102830174 13.024860978770704  6.304635102830174 13.024860978770704  L 6.304635102830174 9.43508322338583  C 6.304635102830174 9.43508322338583  6.891832249912649 9.43508322338583  6.891832249912649 9.43508322338583  C 8.838851751484968 9.43508322338583  9.67328907546296 8.19613296806558  9.67328907546296 6.607734063868838  C 9.67328907546296 4.701656893646722  8.437086348899378 3.7168517127194813  6.984547201118094 3.7168517127194813  C 5.470198699895178 3.7168517127194813  4.357616061779354 4.733426329739108  4.264900650052411 6.448894457476784  C 4.264900650052411 6.448894457476784  0.2472405222866419 6.448894457476784  0.2472405222866419 6.448894457476784  C 0.33995581888321036 2.4143654254906637  3.2759381003843444 0  6.984547201118094 0  C 10.87858712530573 0  13.690948627576857 2.6685095531249376  13.690948627576857 6.4806638935691705  C 13.690948627576857 8.926795914876015  12.609271126703346 10.324585776588318  11.156732899965059 11.11878380854859  Z " stroke-width="0" stroke-dasharray="0" stroke="rgba(121, 121, 121, 1)" fill="none" transform="matrix(1 0 0 1 692 994 )" class="stroke" mask="url(#Clip5052)" />
  </g>
  <style>svg { filter: drop-shadow(0px 4px 2px rgba(0, 0, 0, 0.12941176470588237)); }</style>
</svg>