<?xml version="1.0" encoding="utf-8"?>
<svg version="1.1" xmlns:xlink="http://www.w3.org/1999/xlink" width="22px" height="22px" xmlns="http://www.w3.org/2000/svg">
  <defs>
    <pattern id="BGPattern" patternUnits="userSpaceOnUse" alignment="0 0" imageRepeat="None" />
    <mask fill="white" id="Clip5082">
      <path d="M 11.331166655956334 9.244300045284852  L 11.331166655956334 8.193268986502906  L 20.46236640000219 8.193268986502906  L 20.46236640000219 9.244300045284852  L 11.331166655956334 9.244300045284852  Z M 11.331166655956334 11.609119927544237  L 11.331166655956334 10.558088868762288  L 20.46236640000219 10.558088868762288  L 20.46236640000219 11.609119927544237  L 11.331166655956334 11.609119927544237  Z M 10.645160319997375 14  L 10.645160319997375 13  L 21.455911487993262 13  L 21.455911487993262 14  L 10.645160319997375 14  Z M 15.660231808045328 4.825196326404383  C 15.88102054537922 4.3793043045461575  16.04661045337519 3.9891466497492765  16.157004352040865 3.654727158762067  C 16.157004352040865 3.654727158762067  17.76559686401479 4.108582860235481  17.76559686401479 4.108582860235481  C 17.529037704014733 4.5385503704245735  17.284605082713387 4.960550404250149  17.03227456004463 5.374593402770108  C 16.79571540004457 5.772710940433851  16.56702688133818 6.123054943090193  16.34623814400429 6.425624461552055  C 16.34623814400429 6.425624461552055  15.068827328027389 5.995657900550046  15.068827328027389 5.995657900550046  C 15.242304797362799 5.661239358749918  15.439443070711436 5.271088348262608  15.660231808045328 4.825196326404383  Z M 5.748393792018114 6.760042054165102  C 6.552695688020334 5.724935507052288  7.215053439999125 4.657983733349533  7.735483968000263 3.5591781903731032  C 7.735483968000263 3.5591781903731032  9.225801599986873 3.9891447513751133  9.225801599986873 3.9891447513751133  C 8.626517548651114 5.2312727977479065  7.893189134664423 6.433589090354326  7.025804607995012 7.596093629194372  C 6.1584205513268735 8.758597693440874  5.283149403320568 9.745928332578586  4.399993983983724 10.558088868762288  C 4.3211409306503725 10.462540849560407  4.2107479719872405 10.343104639074202  4.068812287986699 10.199782135677838  C 3.9268766039861576 10.056459632281474  3.777061818669066 9.91313807807219  3.6193557120023625 9.769815574675826  C 3.4774200280018213 9.610568559610329  3.351252416661084 9.491132349124126  3.240858047994137 9.411508841591376  C 4.124013232330345 8.678971812940423  4.95986255368269 7.795149075871457  5.748393792018114 6.760042054165102  Z M 10.26666265598915 6.545062570412424  C 10.944799760658261 5.557730507494091  11.49676408397265 4.546506456543109  11.922571135974275 3.5113999094302946  C 11.922571135974275 3.5113999094302946  13.436561792007176 3.941374063928958  13.436561792007176 3.941374063928958  C 12.9319016866722 5.087953141912788  12.30896576134737 6.2106411810510505  11.567746496012338 7.30944672402748  C 10.842298123344742 8.392327755334778  10.108969239356778 9.31596509373136  9.367749504020477 10.080351620314122  C 9.288896450687124 9.984803126518699  9.170600890643865 9.873323951338111  9.01289478397716 9.745926434204423  C 8.855188207309187 9.602603930808058  8.697471290613237 9.475211159609778  8.539765183946534 9.36373815414522  C 8.38205907727983 9.23634016241799  8.240146893342867 9.132825616039675  8.113981632008487 9.053202108506925  C 8.870971790010952 8.368439564050453  9.588525551320037 7.532395582517838  10.26666265598915 6.545062570412424  Z M 15.11614329603859 13.47231342088405  L 15.11614329603859 6.234526524774128  L 16.630103871990112 6.234526524774128  L 16.630103871990112 13.47231342088405  L 15.11614329603859 13.47231342088405  Z M 9.03656780802345 19.706839945658174  C 9.03656780802345 19.706839945658174  9.03656780802345 16.338759692063  9.03656780802345 16.338759692063  L 10.668803263962285 16.338759692063  C 10.668803263962285 16.338759692063  10.668803263962285 19.68295080518677  10.668803263962285 19.68295080518677  C 10.668803263962285 19.953671003689404  10.739774395971457 20.12088591780329  10.881710079971999 20.184584787602997  C 11.023645763972539 20.264208376706506  11.339079597364437 20.30401530296671  11.827969280033253 20.30401530296671  C 11.954133601365088 20.30401530296671  12.174919518691352 20.30401530296671  12.490332672027302 20.30401530296671  C 12.805744885360708 20.30401530296671  13.15269888402898 20.30401530296671  13.531193728029578 20.30401530296671  C 13.925459934698877 20.30401530296671  14.288188116043484 20.30401530296671  14.619370752043054 20.30401530296671  C 14.950554328045165 20.30401530296671  15.19498694934651 20.30401530296671  15.352693056013214 20.30401530296671  C 15.605022638679431 20.30401530296671  15.80216185203061 20.256243955538913  15.944097536031153 20.160695647131593  C 16.086033220031695 20.081072058028077  16.188523577314697 19.89793589507565  16.251606207981887 19.611290977269213  C 16.314688838649076 19.308721340158968  16.354110665303036 18.854870740566117  16.369881087969198 18.249731466345622  C 16.543358557304604 18.377129220776084  16.772046136008456 18.496565193965516  17.05591750400954 18.608038199430073  C 17.355559294676784 18.719511264218823  17.615767038657005 18.79913269540483  17.8365557759909 18.846906823654155  C 17.78924356798987 19.627217980554438  17.68675321070687 20.23235467417255  17.529047104040167 20.66232203605116  C 17.371340997373462 21.108214146895676  17.134780897370863 21.410786305284105  16.819367744034913 21.57003343899799  C 16.503955530701507 21.72928069136026  16.070255277345186 21.80890206322207  15.518283904011726 21.80890206322207  C 15.423659488009669 21.80890206322207  15.250167918636116 21.80890206322207  14.997838335969899 21.80890206322207  C 14.745507813301138 21.80890206322207  14.445879182669497 21.80890206322207  14.098925184001226 21.80890206322207  C 13.767742548001657 21.80890206322207  13.428661070632135 21.80890206322207  13.08170707196386 21.80890206322207  C 12.750524435964293 21.80890206322207  12.458767386628857 21.80890206322207  12.206436863960096 21.80890206322207  C 11.954107281293883 21.80890206322207  11.780645792001705 21.80890206322207  11.68602137599965 21.80890206322207  C 10.976343425998214 21.80890206322207  10.432250683980032 21.745201880874607  10.053755839979436 21.617804126444145  C 9.675260525977569 21.5063310616554  9.407150650618487 21.291352408441416  9.249444543951785 20.972858081689456  C 9.107508859951242 20.67028844457921  9.03656780802345 20.248280342663442  9.03656780802345 19.706839945658174  Z M 11.78065331202205 16.123780208310322  C 11.275993676688346 15.821210452551691  10.787097414001732 15.558452925152974  10.31397862400035 15.335506914223863  C 10.31397862400035 15.335506914223863  11.331166655956334 14.356135683359472  11.331166655956334 14.356135683359472  C 11.820056338625148 14.547232196356779  12.31685426268935 14.786104142735645  12.821514368024326 15.072749149528374  C 13.341944896025463 15.359393919024331  13.8308110786307 15.654001656245168  14.288158975964647 15.9565714120038  C 14.745507813301138 16.243216181499758  15.116138596025875 16.513938337700743  15.400009024024413 16.768733846561666  C 15.400009024024413 16.768733846561666  14.311832000010938 17.915306280235924  14.311832000010938 17.915306280235924  C 14.0279615720124 17.6445860224091  13.657360869369043 17.357942676693764  13.200012032032554 17.0553731582319  C 12.758434557364765 16.736878653507368  12.285313417357028 16.426349726772184  11.78065331202205 16.123780208310322  Z M 18.45163328005513 18.29750215379178  C 18.010055805387342 17.724212258854706  17.560581369354686 17.198696966760505  17.10323347202074 16.72095556561886  C 17.10323347202074 16.72095556561886  18.47527622402004 16.02823123992136  18.47527622402004 16.02823123992136  C 18.94839454402015 16.474123499076356  19.4136140226503 16.97575297285394  19.87096191998425 17.53311800017672  C 20.32831075732074 18.09048314614789  20.746234947995642 18.639884019261938  21.124729791996238 19.181324416267202  C 21.503224635996833 19.722764813272466  21.794981685332267 20.22439437603634  22 20.686211176522566  C 22 20.686211176522566  20.486039424048478 21.474484470609028  20.486039424048478 21.474484470609028  C 20.29679153204691 21.028592359764513  20.02080960539035 20.52696279700064  19.658085184055917 19.969597710353664  C 19.311132125390184 19.41223262370669  18.90898211739162 18.85486724043875  18.45163328005513 18.29750215379178  Z M 5.1333162879538845 18.631919746404826  C 5.6064353129559015 17.851608589504547  5.9533886066222665 17.063335770011626  6.17417734395616 16.267099864145443  C 6.17417734395616 16.267099864145443  7.640852031977862 16.792615393536416  7.640852031977862 16.792615393536416  C 7.37275108664294 17.636625427651925  7.010022905298333 18.48063397866262  6.5526750079643845 19.32464407210232  C 6.1110975332966 20.16865410621783  5.527583669626365 20.869348696515896  4.80213459195686 21.42671378316287  C 4.80213459195686 21.42671378316287  3.4537648640038503 20.519002380216044  3.4537648640038503 20.519002380216044  C 4.116131076005529 20.041260860426007  4.675968155619302 19.412230903305105  5.1333162879538845 18.631919746404826  Z M 10.787108224030977 7  L 11.63870540798845 5.709010995383155  L 21.053770880020128 5.709010995383155  L 21.053770880020128 7  L 10.787108224030977 7  Z M 10.645160319997375 13.735071185579535  L 10.645160319997375 7.046688959331993  L 12.182793919995186 5.732900135854559  L 12.182793919995186 13.735071185579535  L 10.645160319997375 13.735071185579535  Z M 10.929026047983198 2.7470157558152377  L 10.929026047983198 0  L 12.750525375966836 0  L 12.750525375966836 2.7470157558152377  L 10.929026047983198 2.7470157558152377  Z M 2.8386873599396214 3.3680802535951755  L 2.8386873599396214 2  L 21.834409152001488 2  L 21.834409152001488 3.3680802535951755  L 2.8386873599396214 3.3680802535951755  Z M 1.8924582399597476 9.053202108506925  C 1.8924582399597476 9.053202108506925  1.8924582399597476 1.8631934933398133  1.8924582399597476 1.8631934933398133  L 3.524723775979961 1.8631934933398133  C 3.524723775979961 1.8631934933398133  3.524723775979961 9.053202108506925  3.524723775979961 9.053202108506925  C 3.524723775979961 9.992760636417858  3.4931742356241138 11.019905402289647  3.43009183995756 12.13463545693521  C 3.382779866957167 13.23344099991164  3.288161795972277 14.372057347467361  3.1462261119717354 15.550486397976538  C 3.0042906629718296 16.7129908181682  2.791377031943679 17.851607165723923  2.507505663942596 18.96633733901787  C 2.223634413441831 20.065142881994298  1.8451615420006808 21.076366458351742  1.3720427519993 22  C 1.2931895811656304 21.888526994535443  1.167021969824893 21.761126511192124  0.9935450879910744 21.617804126444145  C 0.820068206157256 21.490406372013684  0.6465764017830652 21.355049209309904  0.4730995199492467 21.211726705913538  C 0.2996226381154282 21.084329010807274  0.14193565462546198 20.99674312879157  0 20.94896894121805  C 0.44157756279302446 20.07310952781912  0.7885310033347872 19.133550525314647  1.040861056002275 18.130293357485254  C 1.2931909911694452 17.111111322041573  1.4745251192606863 16.076002164664285  1.584919487927633 15.024970868585566  C 1.7110845142613766 13.958014586244175  1.7899580126500414 12.914948393561266  1.8214993279836365 11.895766832711127  C 1.868811183483711 10.876584797267446  1.8924582399597476 9.929061640554243  1.8924582399597476 9.053202108506925  Z M 6.197850368002451 14.714442416443923  L 6.197850368002451 7.213897755638516  L 7.711810943953973 5.709010995383155  L 7.735483968000263 5.732900135854559  L 7.735483968000263 14.714442416443923  L 6.197850368002451 14.714442416443923  Z " fill-rule="evenodd" />
    </mask>
  </defs>
  <g transform="matrix(1 0 0 1 -1659 -327 )">
    <path d="M 11.331166655956334 9.244300045284852  L 11.331166655956334 8.193268986502906  L 20.46236640000219 8.193268986502906  L 20.46236640000219 9.244300045284852  L 11.331166655956334 9.244300045284852  Z M 11.331166655956334 11.609119927544237  L 11.331166655956334 10.558088868762288  L 20.46236640000219 10.558088868762288  L 20.46236640000219 11.609119927544237  L 11.331166655956334 11.609119927544237  Z M 10.645160319997375 14  L 10.645160319997375 13  L 21.455911487993262 13  L 21.455911487993262 14  L 10.645160319997375 14  Z M 15.660231808045328 4.825196326404383  C 15.88102054537922 4.3793043045461575  16.04661045337519 3.9891466497492765  16.157004352040865 3.654727158762067  C 16.157004352040865 3.654727158762067  17.76559686401479 4.108582860235481  17.76559686401479 4.108582860235481  C 17.529037704014733 4.5385503704245735  17.284605082713387 4.960550404250149  17.03227456004463 5.374593402770108  C 16.79571540004457 5.772710940433851  16.56702688133818 6.123054943090193  16.34623814400429 6.425624461552055  C 16.34623814400429 6.425624461552055  15.068827328027389 5.995657900550046  15.068827328027389 5.995657900550046  C 15.242304797362799 5.661239358749918  15.439443070711436 5.271088348262608  15.660231808045328 4.825196326404383  Z M 5.748393792018114 6.760042054165102  C 6.552695688020334 5.724935507052288  7.215053439999125 4.657983733349533  7.735483968000263 3.5591781903731032  C 7.735483968000263 3.5591781903731032  9.225801599986873 3.9891447513751133  9.225801599986873 3.9891447513751133  C 8.626517548651114 5.2312727977479065  7.893189134664423 6.433589090354326  7.025804607995012 7.596093629194372  C 6.1584205513268735 8.758597693440874  5.283149403320568 9.745928332578586  4.399993983983724 10.558088868762288  C 4.3211409306503725 10.462540849560407  4.2107479719872405 10.343104639074202  4.068812287986699 10.199782135677838  C 3.9268766039861576 10.056459632281474  3.777061818669066 9.91313807807219  3.6193557120023625 9.769815574675826  C 3.4774200280018213 9.610568559610329  3.351252416661084 9.491132349124126  3.240858047994137 9.411508841591376  C 4.124013232330345 8.678971812940423  4.95986255368269 7.795149075871457  5.748393792018114 6.760042054165102  Z M 10.26666265598915 6.545062570412424  C 10.944799760658261 5.557730507494091  11.49676408397265 4.546506456543109  11.922571135974275 3.5113999094302946  C 11.922571135974275 3.5113999094302946  13.436561792007176 3.941374063928958  13.436561792007176 3.941374063928958  C 12.9319016866722 5.087953141912788  12.30896576134737 6.2106411810510505  11.567746496012338 7.30944672402748  C 10.842298123344742 8.392327755334778  10.108969239356778 9.31596509373136  9.367749504020477 10.080351620314122  C 9.288896450687124 9.984803126518699  9.170600890643865 9.873323951338111  9.01289478397716 9.745926434204423  C 8.855188207309187 9.602603930808058  8.697471290613237 9.475211159609778  8.539765183946534 9.36373815414522  C 8.38205907727983 9.23634016241799  8.240146893342867 9.132825616039675  8.113981632008487 9.053202108506925  C 8.870971790010952 8.368439564050453  9.588525551320037 7.532395582517838  10.26666265598915 6.545062570412424  Z M 15.11614329603859 13.47231342088405  L 15.11614329603859 6.234526524774128  L 16.630103871990112 6.234526524774128  L 16.630103871990112 13.47231342088405  L 15.11614329603859 13.47231342088405  Z M 9.03656780802345 19.706839945658174  C 9.03656780802345 19.706839945658174  9.03656780802345 16.338759692063  9.03656780802345 16.338759692063  L 10.668803263962285 16.338759692063  C 10.668803263962285 16.338759692063  10.668803263962285 19.68295080518677  10.668803263962285 19.68295080518677  C 10.668803263962285 19.953671003689404  10.739774395971457 20.12088591780329  10.881710079971999 20.184584787602997  C 11.023645763972539 20.264208376706506  11.339079597364437 20.30401530296671  11.827969280033253 20.30401530296671  C 11.954133601365088 20.30401530296671  12.174919518691352 20.30401530296671  12.490332672027302 20.30401530296671  C 12.805744885360708 20.30401530296671  13.15269888402898 20.30401530296671  13.531193728029578 20.30401530296671  C 13.925459934698877 20.30401530296671  14.288188116043484 20.30401530296671  14.619370752043054 20.30401530296671  C 14.950554328045165 20.30401530296671  15.19498694934651 20.30401530296671  15.352693056013214 20.30401530296671  C 15.605022638679431 20.30401530296671  15.80216185203061 20.256243955538913  15.944097536031153 20.160695647131593  C 16.086033220031695 20.081072058028077  16.188523577314697 19.89793589507565  16.251606207981887 19.611290977269213  C 16.314688838649076 19.308721340158968  16.354110665303036 18.854870740566117  16.369881087969198 18.249731466345622  C 16.543358557304604 18.377129220776084  16.772046136008456 18.496565193965516  17.05591750400954 18.608038199430073  C 17.355559294676784 18.719511264218823  17.615767038657005 18.79913269540483  17.8365557759909 18.846906823654155  C 17.78924356798987 19.627217980554438  17.68675321070687 20.23235467417255  17.529047104040167 20.66232203605116  C 17.371340997373462 21.108214146895676  17.134780897370863 21.410786305284105  16.819367744034913 21.57003343899799  C 16.503955530701507 21.72928069136026  16.070255277345186 21.80890206322207  15.518283904011726 21.80890206322207  C 15.423659488009669 21.80890206322207  15.250167918636116 21.80890206322207  14.997838335969899 21.80890206322207  C 14.745507813301138 21.80890206322207  14.445879182669497 21.80890206322207  14.098925184001226 21.80890206322207  C 13.767742548001657 21.80890206322207  13.428661070632135 21.80890206322207  13.08170707196386 21.80890206322207  C 12.750524435964293 21.80890206322207  12.458767386628857 21.80890206322207  12.206436863960096 21.80890206322207  C 11.954107281293883 21.80890206322207  11.780645792001705 21.80890206322207  11.68602137599965 21.80890206322207  C 10.976343425998214 21.80890206322207  10.432250683980032 21.745201880874607  10.053755839979436 21.617804126444145  C 9.675260525977569 21.5063310616554  9.407150650618487 21.291352408441416  9.249444543951785 20.972858081689456  C 9.107508859951242 20.67028844457921  9.03656780802345 20.248280342663442  9.03656780802345 19.706839945658174  Z M 11.78065331202205 16.123780208310322  C 11.275993676688346 15.821210452551691  10.787097414001732 15.558452925152974  10.31397862400035 15.335506914223863  C 10.31397862400035 15.335506914223863  11.331166655956334 14.356135683359472  11.331166655956334 14.356135683359472  C 11.820056338625148 14.547232196356779  12.31685426268935 14.786104142735645  12.821514368024326 15.072749149528374  C 13.341944896025463 15.359393919024331  13.8308110786307 15.654001656245168  14.288158975964647 15.9565714120038  C 14.745507813301138 16.243216181499758  15.116138596025875 16.513938337700743  15.400009024024413 16.768733846561666  C 15.400009024024413 16.768733846561666  14.311832000010938 17.915306280235924  14.311832000010938 17.915306280235924  C 14.0279615720124 17.6445860224091  13.657360869369043 17.357942676693764  13.200012032032554 17.0553731582319  C 12.758434557364765 16.736878653507368  12.285313417357028 16.426349726772184  11.78065331202205 16.123780208310322  Z M 18.45163328005513 18.29750215379178  C 18.010055805387342 17.724212258854706  17.560581369354686 17.198696966760505  17.10323347202074 16.72095556561886  C 17.10323347202074 16.72095556561886  18.47527622402004 16.02823123992136  18.47527622402004 16.02823123992136  C 18.94839454402015 16.474123499076356  19.4136140226503 16.97575297285394  19.87096191998425 17.53311800017672  C 20.32831075732074 18.09048314614789  20.746234947995642 18.639884019261938  21.124729791996238 19.181324416267202  C 21.503224635996833 19.722764813272466  21.794981685332267 20.22439437603634  22 20.686211176522566  C 22 20.686211176522566  20.486039424048478 21.474484470609028  20.486039424048478 21.474484470609028  C 20.29679153204691 21.028592359764513  20.02080960539035 20.52696279700064  19.658085184055917 19.969597710353664  C 19.311132125390184 19.41223262370669  18.90898211739162 18.85486724043875  18.45163328005513 18.29750215379178  Z M 5.1333162879538845 18.631919746404826  C 5.6064353129559015 17.851608589504547  5.9533886066222665 17.063335770011626  6.17417734395616 16.267099864145443  C 6.17417734395616 16.267099864145443  7.640852031977862 16.792615393536416  7.640852031977862 16.792615393536416  C 7.37275108664294 17.636625427651925  7.010022905298333 18.48063397866262  6.5526750079643845 19.32464407210232  C 6.1110975332966 20.16865410621783  5.527583669626365 20.869348696515896  4.80213459195686 21.42671378316287  C 4.80213459195686 21.42671378316287  3.4537648640038503 20.519002380216044  3.4537648640038503 20.519002380216044  C 4.116131076005529 20.041260860426007  4.675968155619302 19.412230903305105  5.1333162879538845 18.631919746404826  Z M 10.787108224030977 7  L 11.63870540798845 5.709010995383155  L 21.053770880020128 5.709010995383155  L 21.053770880020128 7  L 10.787108224030977 7  Z M 10.645160319997375 13.735071185579535  L 10.645160319997375 7.046688959331993  L 12.182793919995186 5.732900135854559  L 12.182793919995186 13.735071185579535  L 10.645160319997375 13.735071185579535  Z M 10.929026047983198 2.7470157558152377  L 10.929026047983198 0  L 12.750525375966836 0  L 12.750525375966836 2.7470157558152377  L 10.929026047983198 2.7470157558152377  Z M 2.8386873599396214 3.3680802535951755  L 2.8386873599396214 2  L 21.834409152001488 2  L 21.834409152001488 3.3680802535951755  L 2.8386873599396214 3.3680802535951755  Z M 1.8924582399597476 9.053202108506925  C 1.8924582399597476 9.053202108506925  1.8924582399597476 1.8631934933398133  1.8924582399597476 1.8631934933398133  L 3.524723775979961 1.8631934933398133  C 3.524723775979961 1.8631934933398133  3.524723775979961 9.053202108506925  3.524723775979961 9.053202108506925  C 3.524723775979961 9.992760636417858  3.4931742356241138 11.019905402289647  3.43009183995756 12.13463545693521  C 3.382779866957167 13.23344099991164  3.288161795972277 14.372057347467361  3.1462261119717354 15.550486397976538  C 3.0042906629718296 16.7129908181682  2.791377031943679 17.851607165723923  2.507505663942596 18.96633733901787  C 2.223634413441831 20.065142881994298  1.8451615420006808 21.076366458351742  1.3720427519993 22  C 1.2931895811656304 21.888526994535443  1.167021969824893 21.761126511192124  0.9935450879910744 21.617804126444145  C 0.820068206157256 21.490406372013684  0.6465764017830652 21.355049209309904  0.4730995199492467 21.211726705913538  C 0.2996226381154282 21.084329010807274  0.14193565462546198 20.99674312879157  0 20.94896894121805  C 0.44157756279302446 20.07310952781912  0.7885310033347872 19.133550525314647  1.040861056002275 18.130293357485254  C 1.2931909911694452 17.111111322041573  1.4745251192606863 16.076002164664285  1.584919487927633 15.024970868585566  C 1.7110845142613766 13.958014586244175  1.7899580126500414 12.914948393561266  1.8214993279836365 11.895766832711127  C 1.868811183483711 10.876584797267446  1.8924582399597476 9.929061640554243  1.8924582399597476 9.053202108506925  Z M 6.197850368002451 14.714442416443923  L 6.197850368002451 7.213897755638516  L 7.711810943953973 5.709010995383155  L 7.735483968000263 5.732900135854559  L 7.735483968000263 14.714442416443923  L 6.197850368002451 14.714442416443923  Z " fill-rule="nonzero" fill="rgba(255, 255, 255, 1)" stroke="none" transform="matrix(1 0 0 1 1659 327 )" class="fill" />
    <path d="M 11.331166655956334 9.244300045284852  L 11.331166655956334 8.193268986502906  L 20.46236640000219 8.193268986502906  L 20.46236640000219 9.244300045284852  L 11.331166655956334 9.244300045284852  Z " stroke-width="0" stroke-dasharray="0" stroke="rgba(121, 121, 121, 1)" fill="none" transform="matrix(1 0 0 1 1659 327 )" class="stroke" mask="url(#Clip5082)" />
    <path d="M 11.331166655956334 11.609119927544237  L 11.331166655956334 10.558088868762288  L 20.46236640000219 10.558088868762288  L 20.46236640000219 11.609119927544237  L 11.331166655956334 11.609119927544237  Z " stroke-width="0" stroke-dasharray="0" stroke="rgba(121, 121, 121, 1)" fill="none" transform="matrix(1 0 0 1 1659 327 )" class="stroke" mask="url(#Clip5082)" />
    <path d="M 10.645160319997375 14  L 10.645160319997375 13  L 21.455911487993262 13  L 21.455911487993262 14  L 10.645160319997375 14  Z " stroke-width="0" stroke-dasharray="0" stroke="rgba(121, 121, 121, 1)" fill="none" transform="matrix(1 0 0 1 1659 327 )" class="stroke" mask="url(#Clip5082)" />
    <path d="M 15.660231808045328 4.825196326404383  C 15.88102054537922 4.3793043045461575  16.04661045337519 3.9891466497492765  16.157004352040865 3.654727158762067  C 16.157004352040865 3.654727158762067  17.76559686401479 4.108582860235481  17.76559686401479 4.108582860235481  C 17.529037704014733 4.5385503704245735  17.284605082713387 4.960550404250149  17.03227456004463 5.374593402770108  C 16.79571540004457 5.772710940433851  16.56702688133818 6.123054943090193  16.34623814400429 6.425624461552055  C 16.34623814400429 6.425624461552055  15.068827328027389 5.995657900550046  15.068827328027389 5.995657900550046  C 15.242304797362799 5.661239358749918  15.439443070711436 5.271088348262608  15.660231808045328 4.825196326404383  Z " stroke-width="0" stroke-dasharray="0" stroke="rgba(121, 121, 121, 1)" fill="none" transform="matrix(1 0 0 1 1659 327 )" class="stroke" mask="url(#Clip5082)" />
    <path d="M 5.748393792018114 6.760042054165102  C 6.552695688020334 5.724935507052288  7.215053439999125 4.657983733349533  7.735483968000263 3.5591781903731032  C 7.735483968000263 3.5591781903731032  9.225801599986873 3.9891447513751133  9.225801599986873 3.9891447513751133  C 8.626517548651114 5.2312727977479065  7.893189134664423 6.433589090354326  7.025804607995012 7.596093629194372  C 6.1584205513268735 8.758597693440874  5.283149403320568 9.745928332578586  4.399993983983724 10.558088868762288  C 4.3211409306503725 10.462540849560407  4.2107479719872405 10.343104639074202  4.068812287986699 10.199782135677838  C 3.9268766039861576 10.056459632281474  3.777061818669066 9.91313807807219  3.6193557120023625 9.769815574675826  C 3.4774200280018213 9.610568559610329  3.351252416661084 9.491132349124126  3.240858047994137 9.411508841591376  C 4.124013232330345 8.678971812940423  4.95986255368269 7.795149075871457  5.748393792018114 6.760042054165102  Z " stroke-width="0" stroke-dasharray="0" stroke="rgba(121, 121, 121, 1)" fill="none" transform="matrix(1 0 0 1 1659 327 )" class="stroke" mask="url(#Clip5082)" />
    <path d="M 10.26666265598915 6.545062570412424  C 10.944799760658261 5.557730507494091  11.49676408397265 4.546506456543109  11.922571135974275 3.5113999094302946  C 11.922571135974275 3.5113999094302946  13.436561792007176 3.941374063928958  13.436561792007176 3.941374063928958  C 12.9319016866722 5.087953141912788  12.30896576134737 6.2106411810510505  11.567746496012338 7.30944672402748  C 10.842298123344742 8.392327755334778  10.108969239356778 9.31596509373136  9.367749504020477 10.080351620314122  C 9.288896450687124 9.984803126518699  9.170600890643865 9.873323951338111  9.01289478397716 9.745926434204423  C 8.855188207309187 9.602603930808058  8.697471290613237 9.475211159609778  8.539765183946534 9.36373815414522  C 8.38205907727983 9.23634016241799  8.240146893342867 9.132825616039675  8.113981632008487 9.053202108506925  C 8.870971790010952 8.368439564050453  9.588525551320037 7.532395582517838  10.26666265598915 6.545062570412424  Z " stroke-width="0" stroke-dasharray="0" stroke="rgba(121, 121, 121, 1)" fill="none" transform="matrix(1 0 0 1 1659 327 )" class="stroke" mask="url(#Clip5082)" />
    <path d="M 15.11614329603859 13.47231342088405  L 15.11614329603859 6.234526524774128  L 16.630103871990112 6.234526524774128  L 16.630103871990112 13.47231342088405  L 15.11614329603859 13.47231342088405  Z " stroke-width="0" stroke-dasharray="0" stroke="rgba(121, 121, 121, 1)" fill="none" transform="matrix(1 0 0 1 1659 327 )" class="stroke" mask="url(#Clip5082)" />
    <path d="M 9.03656780802345 19.706839945658174  C 9.03656780802345 19.706839945658174  9.03656780802345 16.338759692063  9.03656780802345 16.338759692063  L 10.668803263962285 16.338759692063  C 10.668803263962285 16.338759692063  10.668803263962285 19.68295080518677  10.668803263962285 19.68295080518677  C 10.668803263962285 19.953671003689404  10.739774395971457 20.12088591780329  10.881710079971999 20.184584787602997  C 11.023645763972539 20.264208376706506  11.339079597364437 20.30401530296671  11.827969280033253 20.30401530296671  C 11.954133601365088 20.30401530296671  12.174919518691352 20.30401530296671  12.490332672027302 20.30401530296671  C 12.805744885360708 20.30401530296671  13.15269888402898 20.30401530296671  13.531193728029578 20.30401530296671  C 13.925459934698877 20.30401530296671  14.288188116043484 20.30401530296671  14.619370752043054 20.30401530296671  C 14.950554328045165 20.30401530296671  15.19498694934651 20.30401530296671  15.352693056013214 20.30401530296671  C 15.605022638679431 20.30401530296671  15.80216185203061 20.256243955538913  15.944097536031153 20.160695647131593  C 16.086033220031695 20.081072058028077  16.188523577314697 19.89793589507565  16.251606207981887 19.611290977269213  C 16.314688838649076 19.308721340158968  16.354110665303036 18.854870740566117  16.369881087969198 18.249731466345622  C 16.543358557304604 18.377129220776084  16.772046136008456 18.496565193965516  17.05591750400954 18.608038199430073  C 17.355559294676784 18.719511264218823  17.615767038657005 18.79913269540483  17.8365557759909 18.846906823654155  C 17.78924356798987 19.627217980554438  17.68675321070687 20.23235467417255  17.529047104040167 20.66232203605116  C 17.371340997373462 21.108214146895676  17.134780897370863 21.410786305284105  16.819367744034913 21.57003343899799  C 16.503955530701507 21.72928069136026  16.070255277345186 21.80890206322207  15.518283904011726 21.80890206322207  C 15.423659488009669 21.80890206322207  15.250167918636116 21.80890206322207  14.997838335969899 21.80890206322207  C 14.745507813301138 21.80890206322207  14.445879182669497 21.80890206322207  14.098925184001226 21.80890206322207  C 13.767742548001657 21.80890206322207  13.428661070632135 21.80890206322207  13.08170707196386 21.80890206322207  C 12.750524435964293 21.80890206322207  12.458767386628857 21.80890206322207  12.206436863960096 21.80890206322207  C 11.954107281293883 21.80890206322207  11.780645792001705 21.80890206322207  11.68602137599965 21.80890206322207  C 10.976343425998214 21.80890206322207  10.432250683980032 21.745201880874607  10.053755839979436 21.617804126444145  C 9.675260525977569 21.5063310616554  9.407150650618487 21.291352408441416  9.249444543951785 20.972858081689456  C 9.107508859951242 20.67028844457921  9.03656780802345 20.248280342663442  9.03656780802345 19.706839945658174  Z " stroke-width="0" stroke-dasharray="0" stroke="rgba(121, 121, 121, 1)" fill="none" transform="matrix(1 0 0 1 1659 327 )" class="stroke" mask="url(#Clip5082)" />
    <path d="M 11.78065331202205 16.123780208310322  C 11.275993676688346 15.821210452551691  10.787097414001732 15.558452925152974  10.31397862400035 15.335506914223863  C 10.31397862400035 15.335506914223863  11.331166655956334 14.356135683359472  11.331166655956334 14.356135683359472  C 11.820056338625148 14.547232196356779  12.31685426268935 14.786104142735645  12.821514368024326 15.072749149528374  C 13.341944896025463 15.359393919024331  13.8308110786307 15.654001656245168  14.288158975964647 15.9565714120038  C 14.745507813301138 16.243216181499758  15.116138596025875 16.513938337700743  15.400009024024413 16.768733846561666  C 15.400009024024413 16.768733846561666  14.311832000010938 17.915306280235924  14.311832000010938 17.915306280235924  C 14.0279615720124 17.6445860224091  13.657360869369043 17.357942676693764  13.200012032032554 17.0553731582319  C 12.758434557364765 16.736878653507368  12.285313417357028 16.426349726772184  11.78065331202205 16.123780208310322  Z " stroke-width="0" stroke-dasharray="0" stroke="rgba(121, 121, 121, 1)" fill="none" transform="matrix(1 0 0 1 1659 327 )" class="stroke" mask="url(#Clip5082)" />
    <path d="M 18.45163328005513 18.29750215379178  C 18.010055805387342 17.724212258854706  17.560581369354686 17.198696966760505  17.10323347202074 16.72095556561886  C 17.10323347202074 16.72095556561886  18.47527622402004 16.02823123992136  18.47527622402004 16.02823123992136  C 18.94839454402015 16.474123499076356  19.4136140226503 16.97575297285394  19.87096191998425 17.53311800017672  C 20.32831075732074 18.09048314614789  20.746234947995642 18.639884019261938  21.124729791996238 19.181324416267202  C 21.503224635996833 19.722764813272466  21.794981685332267 20.22439437603634  22 20.686211176522566  C 22 20.686211176522566  20.486039424048478 21.474484470609028  20.486039424048478 21.474484470609028  C 20.29679153204691 21.028592359764513  20.02080960539035 20.52696279700064  19.658085184055917 19.969597710353664  C 19.311132125390184 19.41223262370669  18.90898211739162 18.85486724043875  18.45163328005513 18.29750215379178  Z " stroke-width="0" stroke-dasharray="0" stroke="rgba(121, 121, 121, 1)" fill="none" transform="matrix(1 0 0 1 1659 327 )" class="stroke" mask="url(#Clip5082)" />
    <path d="M 5.1333162879538845 18.631919746404826  C 5.6064353129559015 17.851608589504547  5.9533886066222665 17.063335770011626  6.17417734395616 16.267099864145443  C 6.17417734395616 16.267099864145443  7.640852031977862 16.792615393536416  7.640852031977862 16.792615393536416  C 7.37275108664294 17.636625427651925  7.010022905298333 18.48063397866262  6.5526750079643845 19.32464407210232  C 6.1110975332966 20.16865410621783  5.527583669626365 20.869348696515896  4.80213459195686 21.42671378316287  C 4.80213459195686 21.42671378316287  3.4537648640038503 20.519002380216044  3.4537648640038503 20.519002380216044  C 4.116131076005529 20.041260860426007  4.675968155619302 19.412230903305105  5.1333162879538845 18.631919746404826  Z " stroke-width="0" stroke-dasharray="0" stroke="rgba(121, 121, 121, 1)" fill="none" transform="matrix(1 0 0 1 1659 327 )" class="stroke" mask="url(#Clip5082)" />
    <path d="M 10.787108224030977 7  L 11.63870540798845 5.709010995383155  L 21.053770880020128 5.709010995383155  L 21.053770880020128 7  L 10.787108224030977 7  Z " stroke-width="0" stroke-dasharray="0" stroke="rgba(121, 121, 121, 1)" fill="none" transform="matrix(1 0 0 1 1659 327 )" class="stroke" mask="url(#Clip5082)" />
    <path d="M 10.645160319997375 13.735071185579535  L 10.645160319997375 7.046688959331993  L 12.182793919995186 5.732900135854559  L 12.182793919995186 13.735071185579535  L 10.645160319997375 13.735071185579535  Z " stroke-width="0" stroke-dasharray="0" stroke="rgba(121, 121, 121, 1)" fill="none" transform="matrix(1 0 0 1 1659 327 )" class="stroke" mask="url(#Clip5082)" />
    <path d="M 10.929026047983198 2.7470157558152377  L 10.929026047983198 0  L 12.750525375966836 0  L 12.750525375966836 2.7470157558152377  L 10.929026047983198 2.7470157558152377  Z " stroke-width="0" stroke-dasharray="0" stroke="rgba(121, 121, 121, 1)" fill="none" transform="matrix(1 0 0 1 1659 327 )" class="stroke" mask="url(#Clip5082)" />
    <path d="M 2.8386873599396214 3.3680802535951755  L 2.8386873599396214 2  L 21.834409152001488 2  L 21.834409152001488 3.3680802535951755  L 2.8386873599396214 3.3680802535951755  Z " stroke-width="0" stroke-dasharray="0" stroke="rgba(121, 121, 121, 1)" fill="none" transform="matrix(1 0 0 1 1659 327 )" class="stroke" mask="url(#Clip5082)" />
    <path d="M 1.8924582399597476 9.053202108506925  C 1.8924582399597476 9.053202108506925  1.8924582399597476 1.8631934933398133  1.8924582399597476 1.8631934933398133  L 3.524723775979961 1.8631934933398133  C 3.524723775979961 1.8631934933398133  3.524723775979961 9.053202108506925  3.524723775979961 9.053202108506925  C 3.524723775979961 9.992760636417858  3.4931742356241138 11.019905402289647  3.43009183995756 12.13463545693521  C 3.382779866957167 13.23344099991164  3.288161795972277 14.372057347467361  3.1462261119717354 15.550486397976538  C 3.0042906629718296 16.7129908181682  2.791377031943679 17.851607165723923  2.507505663942596 18.96633733901787  C 2.223634413441831 20.065142881994298  1.8451615420006808 21.076366458351742  1.3720427519993 22  C 1.2931895811656304 21.888526994535443  1.167021969824893 21.761126511192124  0.9935450879910744 21.617804126444145  C 0.820068206157256 21.490406372013684  0.6465764017830652 21.355049209309904  0.4730995199492467 21.211726705913538  C 0.2996226381154282 21.084329010807274  0.14193565462546198 20.99674312879157  0 20.94896894121805  C 0.44157756279302446 20.07310952781912  0.7885310033347872 19.133550525314647  1.040861056002275 18.130293357485254  C 1.2931909911694452 17.111111322041573  1.4745251192606863 16.076002164664285  1.584919487927633 15.024970868585566  C 1.7110845142613766 13.958014586244175  1.7899580126500414 12.914948393561266  1.8214993279836365 11.895766832711127  C 1.868811183483711 10.876584797267446  1.8924582399597476 9.929061640554243  1.8924582399597476 9.053202108506925  Z " stroke-width="0" stroke-dasharray="0" stroke="rgba(121, 121, 121, 1)" fill="none" transform="matrix(1 0 0 1 1659 327 )" class="stroke" mask="url(#Clip5082)" />
    <path d="M 6.197850368002451 14.714442416443923  L 6.197850368002451 7.213897755638516  L 7.711810943953973 5.709010995383155  L 7.735483968000263 5.732900135854559  L 7.735483968000263 14.714442416443923  L 6.197850368002451 14.714442416443923  Z " stroke-width="0" stroke-dasharray="0" stroke="rgba(121, 121, 121, 1)" fill="none" transform="matrix(1 0 0 1 1659 327 )" class="stroke" mask="url(#Clip5082)" />
  </g>
</svg>