<?xml version="1.0" encoding="utf-8"?>
<svg version="1.1" xmlns:xlink="http://www.w3.org/1999/xlink" width="20px" height="25px" xmlns="http://www.w3.org/2000/svg">
  <defs>
    <pattern id="BGPattern" patternUnits="userSpaceOnUse" alignment="0 0" imageRepeat="None" />
    <mask fill="white" id="Clip5049">
      <path d="M 8.125987622259908 0  C 9.732286627910614 0  10.866141436643867 0.4193542385404983  12 1.5806440083817475  C 12 1.5806440083817475  8.913384604794654 4.774193519199538  8.913384604794654 4.774193519199538  C 8.283464015068553 4.129031895044252  7.748030387414504 3.774192953690585  6.74015631746588 3.774192953690585  C 5.480314199357959 3.774192953690585  4.09449134246541 4.741934909240903  4.09449134246541 6.870967595997689  C 4.09449134246541 6.870967595997689  4.09449134246541 17  4.09449134246541 17  L 0 17  L 0 0.1935478142909315  L 4.0000025030819195 0.1935478142909315  C 4.0000025030819195 0.1935478142909315  4.0000025030819195 1.8064513939965343  4.0000025030819195 1.8064513939965343  C 4.787404178895265 0.8387084770809966  6.362207530521955 0  8.125987622259908 0  Z " fill-rule="evenodd" />
    </mask>
  </defs>
  <g transform="matrix(1 0 0 1 -755 -1000 )">
    <path d="M 8.125987622259908 0  C 9.732286627910614 0  10.866141436643867 0.4193542385404983  12 1.5806440083817475  C 12 1.5806440083817475  8.913384604794654 4.774193519199538  8.913384604794654 4.774193519199538  C 8.283464015068553 4.129031895044252  7.748030387414504 3.774192953690585  6.74015631746588 3.774192953690585  C 5.480314199357959 3.774192953690585  4.09449134246541 4.741934909240903  4.09449134246541 6.870967595997689  C 4.09449134246541 6.870967595997689  4.09449134246541 17  4.09449134246541 17  L 0 17  L 0 0.1935478142909315  L 4.0000025030819195 0.1935478142909315  C 4.0000025030819195 0.1935478142909315  4.0000025030819195 1.8064513939965343  4.0000025030819195 1.8064513939965343  C 4.787404178895265 0.8387084770809966  6.362207530521955 0  8.125987622259908 0  Z " fill-rule="nonzero" fill="rgba(255, 255, 255, 1)" stroke="none" transform="matrix(1 0 0 1 759 1000 )" class="fill" />
    <path d="M 8.125987622259908 0  C 9.732286627910614 0  10.866141436643867 0.4193542385404983  12 1.5806440083817475  C 12 1.5806440083817475  8.913384604794654 4.774193519199538  8.913384604794654 4.774193519199538  C 8.283464015068553 4.129031895044252  7.748030387414504 3.774192953690585  6.74015631746588 3.774192953690585  C 5.480314199357959 3.774192953690585  4.09449134246541 4.741934909240903  4.09449134246541 6.870967595997689  C 4.09449134246541 6.870967595997689  4.09449134246541 17  4.09449134246541 17  L 0 17  L 0 0.1935478142909315  L 4.0000025030819195 0.1935478142909315  C 4.0000025030819195 0.1935478142909315  4.0000025030819195 1.8064513939965343  4.0000025030819195 1.8064513939965343  C 4.787404178895265 0.8387084770809966  6.362207530521955 0  8.125987622259908 0  Z " stroke-width="0" stroke-dasharray="0" stroke="rgba(121, 121, 121, 1)" fill="none" transform="matrix(1 0 0 1 759 1000 )" class="stroke" mask="url(#Clip5049)" />
  </g>
  <style>svg { filter: drop-shadow(0px 4px 2px rgba(0, 0, 0, 0.12941176470588237)); }</style>
</svg>