<?xml version="1.0" encoding="utf-8"?>
<svg version="1.1" xmlns:xlink="http://www.w3.org/1999/xlink" width="9px" height="12px" xmlns="http://www.w3.org/2000/svg">
  <defs>
    <pattern id="BGPattern" patternUnits="userSpaceOnUse" alignment="0 0" imageRepeat="None" />
    <mask fill="white" id="Clip5115">
      <path d="M 7.839474843281594 9.142856241804362  C 7.839474843281594 9.142856241804362  9 10.261902163869243  9 10.261902163869243  C 7.7921051442788105 11.571425952743926  6.7736832025307505 12  5.163156963517352 12  C 2.226314209372528 12  0 9.999999842315763  0 6  C 0 1.9999996846315264  2.226314209372528 0  5.163156963517352 0  C 6.7736832025307505 0  7.7921051442788105 0.42857014457121556  9 1.7380940517090764  C 9 1.7380940517090764  7.839474843281594 2.8333321769822644  7.839474843281594 2.8333321769822644  C 6.963158939882121 1.8571415506163245  6.276314774048176 1.5238087428971137  5.163156963517352 1.5238087428971137  C 4.026314538766656 1.5238087428971137  3.07894596911517 1.9761914147871233  2.46315658706692 2.857143758195638  C 1.9184196359891632 3.619048602696905  1.7052639900483237 4.523809097686646  1.7052639900483237 6  C 1.7052639900483237 7.476190192734288  1.9184196359891632 8.380951397303095  2.46315658706692 9.142856241804362  C 3.07894596911517 10.023808585212876  4.026314538766656 10.476191257102887  5.163156963517352 10.476191257102887  C 6.276314774048176 10.476191257102887  6.963158939882121 10.119046690775535  7.839474843281594 9.142856241804362  Z " fill-rule="evenodd" />
    </mask>
  </defs>
  <g transform="matrix(1 0 0 1 -1405 -304 )">
    <path d="M 7.839474843281594 9.142856241804362  C 7.839474843281594 9.142856241804362  9 10.261902163869243  9 10.261902163869243  C 7.7921051442788105 11.571425952743926  6.7736832025307505 12  5.163156963517352 12  C 2.226314209372528 12  0 9.999999842315763  0 6  C 0 1.9999996846315264  2.226314209372528 0  5.163156963517352 0  C 6.7736832025307505 0  7.7921051442788105 0.42857014457121556  9 1.7380940517090764  C 9 1.7380940517090764  7.839474843281594 2.8333321769822644  7.839474843281594 2.8333321769822644  C 6.963158939882121 1.8571415506163245  6.276314774048176 1.5238087428971137  5.163156963517352 1.5238087428971137  C 4.026314538766656 1.5238087428971137  3.07894596911517 1.9761914147871233  2.46315658706692 2.857143758195638  C 1.9184196359891632 3.619048602696905  1.7052639900483237 4.523809097686646  1.7052639900483237 6  C 1.7052639900483237 7.476190192734288  1.9184196359891632 8.380951397303095  2.46315658706692 9.142856241804362  C 3.07894596911517 10.023808585212876  4.026314538766656 10.476191257102887  5.163156963517352 10.476191257102887  C 6.276314774048176 10.476191257102887  6.963158939882121 10.119046690775535  7.839474843281594 9.142856241804362  Z " fill-rule="nonzero" fill="rgba(255, 255, 255, 1)" stroke="none" transform="matrix(1 0 0 1 1405 304 )" class="fill" />
    <path d="M 7.839474843281594 9.142856241804362  C 7.839474843281594 9.142856241804362  9 10.261902163869243  9 10.261902163869243  C 7.7921051442788105 11.571425952743926  6.7736832025307505 12  5.163156963517352 12  C 2.226314209372528 12  0 9.999999842315763  0 6  C 0 1.9999996846315264  2.226314209372528 0  5.163156963517352 0  C 6.7736832025307505 0  7.7921051442788105 0.42857014457121556  9 1.7380940517090764  C 9 1.7380940517090764  7.839474843281594 2.8333321769822644  7.839474843281594 2.8333321769822644  C 6.963158939882121 1.8571415506163245  6.276314774048176 1.5238087428971137  5.163156963517352 1.5238087428971137  C 4.026314538766656 1.5238087428971137  3.07894596911517 1.9761914147871233  2.46315658706692 2.857143758195638  C 1.9184196359891632 3.619048602696905  1.7052639900483237 4.523809097686646  1.7052639900483237 6  C 1.7052639900483237 7.476190192734288  1.9184196359891632 8.380951397303095  2.46315658706692 9.142856241804362  C 3.07894596911517 10.023808585212876  4.026314538766656 10.476191257102887  5.163156963517352 10.476191257102887  C 6.276314774048176 10.476191257102887  6.963158939882121 10.119046690775535  7.839474843281594 9.142856241804362  Z " stroke-width="0" stroke-dasharray="0" stroke="rgba(121, 121, 121, 1)" fill="none" transform="matrix(1 0 0 1 1405 304 )" class="stroke" mask="url(#Clip5115)" />
  </g>
</svg>