<?xml version="1.0" encoding="utf-8"?>
<svg version="1.1" xmlns:xlink="http://www.w3.org/1999/xlink" width="22px" height="25px" xmlns="http://www.w3.org/2000/svg">
  <defs>
    <pattern id="BGPattern" patternUnits="userSpaceOnUse" alignment="0 0" imageRepeat="None" />
    <mask fill="white" id="Clip5047">
      <path d="M 14 6.258064581801039  C 14 6.258064581801039  14 17  14 17  L 9.796763895175134 17  C 9.796763895175134 17  9.796763895175134 6.838708024673834  9.796763895175134 6.838708024673834  C 9.796763895175134 4.548386133584751  8.341800219587322 3.774192953690585  7.016165106759743 3.774192953690585  C 5.6905299939321665 3.774192953690585  4.203236104824864 4.548386133584751  4.203236104824864 6.838708024673834  C 4.203236104824864 6.838708024673834  4.203236104824864 17  4.203236104824864 17  L 0 17  L 0 0.1935478142909315  L 4.106230046901826 0.1935478142909315  C 4.106230046901826 0.1935478142909315  4.106230046901826 1.7419341740792638  4.106230046901826 1.7419341740792638  C 5.20553728414313 0.5806444042380146  6.7575031633128395 0  8.30946615172669 0  C 9.990759630071349 0  11.348731701515417 0.5483848329141592  12.286375344550567 1.4838691398710617  C 13.644343561653491 2.8387086467336826  14 4.41935457784587  14 6.258064581801039  Z " fill-rule="evenodd" />
    </mask>
  </defs>
  <g transform="matrix(1 0 0 1 -817 -1000 )">
    <path d="M 14 6.258064581801039  C 14 6.258064581801039  14 17  14 17  L 9.796763895175134 17  C 9.796763895175134 17  9.796763895175134 6.838708024673834  9.796763895175134 6.838708024673834  C 9.796763895175134 4.548386133584751  8.341800219587322 3.774192953690585  7.016165106759743 3.774192953690585  C 5.6905299939321665 3.774192953690585  4.203236104824864 4.548386133584751  4.203236104824864 6.838708024673834  C 4.203236104824864 6.838708024673834  4.203236104824864 17  4.203236104824864 17  L 0 17  L 0 0.1935478142909315  L 4.106230046901826 0.1935478142909315  C 4.106230046901826 0.1935478142909315  4.106230046901826 1.7419341740792638  4.106230046901826 1.7419341740792638  C 5.20553728414313 0.5806444042380146  6.7575031633128395 0  8.30946615172669 0  C 9.990759630071349 0  11.348731701515417 0.5483848329141592  12.286375344550567 1.4838691398710617  C 13.644343561653491 2.8387086467336826  14 4.41935457784587  14 6.258064581801039  Z " fill-rule="nonzero" fill="rgba(255, 255, 255, 1)" stroke="none" transform="matrix(1 0 0 1 821 1000 )" class="fill" />
    <path d="M 14 6.258064581801039  C 14 6.258064581801039  14 17  14 17  L 9.796763895175134 17  C 9.796763895175134 17  9.796763895175134 6.838708024673834  9.796763895175134 6.838708024673834  C 9.796763895175134 4.548386133584751  8.341800219587322 3.774192953690585  7.016165106759743 3.774192953690585  C 5.6905299939321665 3.774192953690585  4.203236104824864 4.548386133584751  4.203236104824864 6.838708024673834  C 4.203236104824864 6.838708024673834  4.203236104824864 17  4.203236104824864 17  L 0 17  L 0 0.1935478142909315  L 4.106230046901826 0.1935478142909315  C 4.106230046901826 0.1935478142909315  4.106230046901826 1.7419341740792638  4.106230046901826 1.7419341740792638  C 5.20553728414313 0.5806444042380146  6.7575031633128395 0  8.30946615172669 0  C 9.990759630071349 0  11.348731701515417 0.5483848329141592  12.286375344550567 1.4838691398710617  C 13.644343561653491 2.8387086467336826  14 4.41935457784587  14 6.258064581801039  Z " stroke-width="0" stroke-dasharray="0" stroke="rgba(121, 121, 121, 1)" fill="none" transform="matrix(1 0 0 1 821 1000 )" class="stroke" mask="url(#Clip5047)" />
  </g>
  <style>svg { filter: drop-shadow(0px 4px 2px rgba(0, 0, 0, 0.12941176470588237)); }</style>
</svg>