<?xml version="1.0" encoding="utf-8"?>
<svg version="1.1" xmlns:xlink="http://www.w3.org/1999/xlink" width="18px" height="25px" xmlns="http://www.w3.org/2000/svg">
  <defs>
    <pattern id="BGPattern" patternUnits="userSpaceOnUse" alignment="0 0" imageRepeat="None" />
    <mask fill="white" id="Clip5004">
      <path d="M 10 0.1408840191397854  C 10 0.1408840191397854  10 11.928177177043016  10 11.928177177043016  C 10 14.863260053837369  7.935031176980811 17  4.686769808114423 17  C 2.830619960569638 17  1.5545366904827231 16.62430947667675  0.30163562982369185 15.403315071774195  C 0.30163562982369185 15.403315071774195  2.1809872784347046 13.47790045454301  2.1809872784347046 13.47790045454301  C 2.8538414685191418 14.135359016145832  3.526693814684675 14.417126004758051  4.54757605796691 14.417126004758051  C 6.357322072889376 14.417126004758051  6.983761712572871 13.125690639952957  6.983761712572871 11.881215526317206  C 6.983761712572871 11.881215526317206  6.983761712572871 10.636739246384396  6.983761712572871 10.636739246384396  C 6.1948979409326395 11.529004312170686  5.290041989721258 11.8577347009543  4.106746677995704 11.8577347009543  C 2.9234510205353557 11.8577347009543  1.9025563308005264 11.45856346889785  1.2297021407160895 10.777624198561826  C 0.0928105463679223 9.62707168659946  0 8.053866883958328  0 5.917126937795698  C 0 3.7803862918548337  0.0928105463679223 2.2306634808736616  1.2297021407160895 1.080110502392473  C 1.9025563308005264 0.39917099879704004  2.9466401446591255 0  4.1299358021194745 0  C 5.406038433354871 0  6.241310301679884 0.35220981459005235  7.076577214472845 1.291436064583329  C 7.076577214472845 1.291436064583329  7.076577214472845 0.1408840191397854  7.076577214472845 0.1408840191397854  L 10 0.1408840191397854  Z M 4.988405437938114 9.110496794247307  C 6.774949882284217 9.110496794247307  6.983761712572871 7.537292341495291  6.983761712572871 5.917126937795698  C 6.983761712572871 4.296961184206988  6.774949882284217 2.747237906706993  4.988405437938114 2.747237906706993  C 3.2018616850616017 2.747237906706993  3.0162382874271283 4.296961184206988  3.0162382874271283 5.917126937795698  C 3.0162382874271283 7.537292341495291  3.2018616850616017 9.110496794247307  4.988405437938114 9.110496794247307  Z " fill-rule="evenodd" />
    </mask>
  </defs>
  <g transform="matrix(1 0 0 1 -1702 -431 )">
    <path d="M 10 0.1408840191397854  C 10 0.1408840191397854  10 11.928177177043016  10 11.928177177043016  C 10 14.863260053837369  7.935031176980811 17  4.686769808114423 17  C 2.830619960569638 17  1.5545366904827231 16.62430947667675  0.30163562982369185 15.403315071774195  C 0.30163562982369185 15.403315071774195  2.1809872784347046 13.47790045454301  2.1809872784347046 13.47790045454301  C 2.8538414685191418 14.135359016145832  3.526693814684675 14.417126004758051  4.54757605796691 14.417126004758051  C 6.357322072889376 14.417126004758051  6.983761712572871 13.125690639952957  6.983761712572871 11.881215526317206  C 6.983761712572871 11.881215526317206  6.983761712572871 10.636739246384396  6.983761712572871 10.636739246384396  C 6.1948979409326395 11.529004312170686  5.290041989721258 11.8577347009543  4.106746677995704 11.8577347009543  C 2.9234510205353557 11.8577347009543  1.9025563308005264 11.45856346889785  1.2297021407160895 10.777624198561826  C 0.0928105463679223 9.62707168659946  0 8.053866883958328  0 5.917126937795698  C 0 3.7803862918548337  0.0928105463679223 2.2306634808736616  1.2297021407160895 1.080110502392473  C 1.9025563308005264 0.39917099879704004  2.9466401446591255 0  4.1299358021194745 0  C 5.406038433354871 0  6.241310301679884 0.35220981459005235  7.076577214472845 1.291436064583329  C 7.076577214472845 1.291436064583329  7.076577214472845 0.1408840191397854  7.076577214472845 0.1408840191397854  L 10 0.1408840191397854  Z M 4.988405437938114 9.110496794247307  C 6.774949882284217 9.110496794247307  6.983761712572871 7.537292341495291  6.983761712572871 5.917126937795698  C 6.983761712572871 4.296961184206988  6.774949882284217 2.747237906706993  4.988405437938114 2.747237906706993  C 3.2018616850616017 2.747237906706993  3.0162382874271283 4.296961184206988  3.0162382874271283 5.917126937795698  C 3.0162382874271283 7.537292341495291  3.2018616850616017 9.110496794247307  4.988405437938114 9.110496794247307  Z " fill-rule="nonzero" fill="rgba(255, 255, 255, 1)" stroke="none" transform="matrix(1 0 0 1 1706 431 )" class="fill" />
    <path d="M 10 0.1408840191397854  C 10 0.1408840191397854  10 11.928177177043016  10 11.928177177043016  C 10 14.863260053837369  7.935031176980811 17  4.686769808114423 17  C 2.830619960569638 17  1.5545366904827231 16.62430947667675  0.30163562982369185 15.403315071774195  C 0.30163562982369185 15.403315071774195  2.1809872784347046 13.47790045454301  2.1809872784347046 13.47790045454301  C 2.8538414685191418 14.135359016145832  3.526693814684675 14.417126004758051  4.54757605796691 14.417126004758051  C 6.357322072889376 14.417126004758051  6.983761712572871 13.125690639952957  6.983761712572871 11.881215526317206  C 6.983761712572871 11.881215526317206  6.983761712572871 10.636739246384396  6.983761712572871 10.636739246384396  C 6.1948979409326395 11.529004312170686  5.290041989721258 11.8577347009543  4.106746677995704 11.8577347009543  C 2.9234510205353557 11.8577347009543  1.9025563308005264 11.45856346889785  1.2297021407160895 10.777624198561826  C 0.0928105463679223 9.62707168659946  0 8.053866883958328  0 5.917126937795698  C 0 3.7803862918548337  0.0928105463679223 2.2306634808736616  1.2297021407160895 1.080110502392473  C 1.9025563308005264 0.39917099879704004  2.9466401446591255 0  4.1299358021194745 0  C 5.406038433354871 0  6.241310301679884 0.35220981459005235  7.076577214472845 1.291436064583329  C 7.076577214472845 1.291436064583329  7.076577214472845 0.1408840191397854  7.076577214472845 0.1408840191397854  L 10 0.1408840191397854  Z " stroke-width="0" stroke-dasharray="0" stroke="rgba(121, 121, 121, 1)" fill="none" transform="matrix(1 0 0 1 1706 431 )" class="stroke" mask="url(#Clip5004)" />
    <path d="M 4.988405437938114 9.110496794247307  C 6.774949882284217 9.110496794247307  6.983761712572871 7.537292341495291  6.983761712572871 5.917126937795698  C 6.983761712572871 4.296961184206988  6.774949882284217 2.747237906706993  4.988405437938114 2.747237906706993  C 3.2018616850616017 2.747237906706993  3.0162382874271283 4.296961184206988  3.0162382874271283 5.917126937795698  C 3.0162382874271283 7.537292341495291  3.2018616850616017 9.110496794247307  4.988405437938114 9.110496794247307  Z " stroke-width="0" stroke-dasharray="0" stroke="rgba(121, 121, 121, 1)" fill="none" transform="matrix(1 0 0 1 1706 431 )" class="stroke" mask="url(#Clip5004)" />
  </g>
  <style>svg { filter: drop-shadow(0px 4px 2px rgba(0, 0, 0, 0.12941176470588237)); }</style>
</svg>