<?xml version="1.0" encoding="utf-8"?>
<svg version="1.1" xmlns:xlink="http://www.w3.org/1999/xlink" width="18px" height="21px" xmlns="http://www.w3.org/2000/svg">
  <defs>
    <pattern id="BGPattern" patternUnits="userSpaceOnUse" alignment="0 0" imageRepeat="None" />
    <mask fill="white" id="Clip5003">
      <path d="M 10 0  L 10 12.851993332422989  L 7.066970119668159 12.851993332422989  C 7.066970119668159 12.851993332422989  7.066970119668159 11.667932150082462  7.066970119668159 11.667932150082462  C 6.28175037625725 12.555977730520498  5.173209910248881 13  4.0646648557374645 13  C 2.8637408459364218 13  1.893767780449306 12.580645100026851  1.2240217311504296 11.865275026995514  C 0.2540445360105719 10.829221860028385  0 9.620493063127617  0 8.214421021732962  C 0 8.214421021732962  0 0  0 0  L 3.0023052639306953 0  C 3.0023052639306953 0  3.0023052639306953 7.77039905857082  3.0023052639306953 7.77039905857082  C 3.0023052639306953 9.5218224823597  4.041561742896997 10.113853318583853  4.988444313927024 10.113853318583853  C 5.935326196681595 10.113853318583853  6.997694736069304 9.5218224823597  6.997694736069304 7.77039905857082  C 6.997694736069304 7.77039905857082  6.997694736069304 0  6.997694736069304 0  L 10 0  Z " fill-rule="evenodd" />
    </mask>
  </defs>
  <g transform="matrix(1 0 0 1 -1715 -431 )">
    <path d="M 10 0  L 10 12.851993332422989  L 7.066970119668159 12.851993332422989  C 7.066970119668159 12.851993332422989  7.066970119668159 11.667932150082462  7.066970119668159 11.667932150082462  C 6.28175037625725 12.555977730520498  5.173209910248881 13  4.0646648557374645 13  C 2.8637408459364218 13  1.893767780449306 12.580645100026851  1.2240217311504296 11.865275026995514  C 0.2540445360105719 10.829221860028385  0 9.620493063127617  0 8.214421021732962  C 0 8.214421021732962  0 0  0 0  L 3.0023052639306953 0  C 3.0023052639306953 0  3.0023052639306953 7.77039905857082  3.0023052639306953 7.77039905857082  C 3.0023052639306953 9.5218224823597  4.041561742896997 10.113853318583853  4.988444313927024 10.113853318583853  C 5.935326196681595 10.113853318583853  6.997694736069304 9.5218224823597  6.997694736069304 7.77039905857082  C 6.997694736069304 7.77039905857082  6.997694736069304 0  6.997694736069304 0  L 10 0  Z " fill-rule="nonzero" fill="rgba(255, 255, 255, 1)" stroke="none" transform="matrix(1 0 0 1 1719 431 )" class="fill" />
    <path d="M 10 0  L 10 12.851993332422989  L 7.066970119668159 12.851993332422989  C 7.066970119668159 12.851993332422989  7.066970119668159 11.667932150082462  7.066970119668159 11.667932150082462  C 6.28175037625725 12.555977730520498  5.173209910248881 13  4.0646648557374645 13  C 2.8637408459364218 13  1.893767780449306 12.580645100026851  1.2240217311504296 11.865275026995514  C 0.2540445360105719 10.829221860028385  0 9.620493063127617  0 8.214421021732962  C 0 8.214421021732962  0 0  0 0  L 3.0023052639306953 0  C 3.0023052639306953 0  3.0023052639306953 7.77039905857082  3.0023052639306953 7.77039905857082  C 3.0023052639306953 9.5218224823597  4.041561742896997 10.113853318583853  4.988444313927024 10.113853318583853  C 5.935326196681595 10.113853318583853  6.997694736069304 9.5218224823597  6.997694736069304 7.77039905857082  C 6.997694736069304 7.77039905857082  6.997694736069304 0  6.997694736069304 0  L 10 0  Z " stroke-width="0" stroke-dasharray="0" stroke="rgba(121, 121, 121, 1)" fill="none" transform="matrix(1 0 0 1 1719 431 )" class="stroke" mask="url(#Clip5003)" />
  </g>
  <style>svg { filter: drop-shadow(0px 4px 2px rgba(0, 0, 0, 0.12941176470588237)); }</style>
</svg>