<?xml version="1.0" encoding="utf-8"?>
<svg version="1.1" xmlns:xlink="http://www.w3.org/1999/xlink" width="18px" height="21px" xmlns="http://www.w3.org/2000/svg">
  <defs>
    <pattern id="BGPattern" patternUnits="userSpaceOnUse" alignment="0 0" imageRepeat="None" />
    <mask fill="white" id="Clip5016">
      <path d="M 10 4.496240426285197  C 10 4.496240426285197  10 12.877818709283236  10 12.877818709283236  L 7.053364448827232 12.877818709283236  C 7.053364448827232 12.877818709283236  7.053364448827232 11.778194860855288  7.053364448827232 11.778194860855288  C 6.241299705563247 12.633457948480082  5.475639913144108 13  4.083528727128969 13  C 2.7146194403120205 13  1.716938581503737 12.633458616044553  0.9976810892979764 11.8759398934287  C 0.34802917944194206 11.167293383661159  0 10.140977217285045  0 9.016917110713747  C 0 6.988721764357025  1.3225083695417275 5.3270673771419945  4.129932756015044 5.3270673771419945  C 4.129932756015044 5.3270673771419945  6.9837602494156625 5.3270673771419945  6.9837602494156625 5.3270673771419945  C 6.9837602494156625 5.3270673771419945  6.9837602494156625 4.691728549426287  6.9837602494156625 4.691728549426287  C 6.9837602494156625 3.298871302533122  6.334109376763246 2.6879699467143503  4.733181443698928 2.6879699467143503  C 3.5730889039311586 2.6879699467143503  3.0394449918830753 2.981203102428852  2.412994750735539 3.7387222498584576  C 2.412994750735539 3.7387222498584576  0.48724045938624094 1.7593989342870076  0.48724045938624094 1.7593989342870076  C 1.6705348983522015 0.3909774600357628  2.8306287058132815 0  4.849189671996571 0  C 8.236660731710735 0  10 1.5150375666070621  10 4.496240426285197  Z M 6.5429238189154955 9.798871545283838  C 6.867749716221089 9.481202131425984  6.9837602494156625 8.9680447158024  6.9837602494156625 8.186090159856949  C 6.9837602494156625 8.186090159856949  6.9837602494156625 7.501878815854535  6.9837602494156625 7.501878815854535  C 6.9837602494156625 7.501878815854535  4.593969357040704 7.501878815854535  4.593969357040704 7.501878815854535  C 3.5034821691329676 7.501878815854535  2.9002315222866937 8.039473096498265  2.9002315222866937 8.943608336283688  C 2.9002315222866937 9.823307803427193  3.4570786012262786 10.409774114856194  4.640373385926779 10.409774114856194  C 5.4756400283889555 10.409774114856194  6.009281174560723 10.336465461801494  6.5429238189154955 9.798871545283838  Z " fill-rule="evenodd" />
    </mask>
  </defs>
  <g transform="matrix(1 0 0 1 -1476 -431 )">
    <path d="M 10 4.496240426285197  C 10 4.496240426285197  10 12.877818709283236  10 12.877818709283236  L 7.053364448827232 12.877818709283236  C 7.053364448827232 12.877818709283236  7.053364448827232 11.778194860855288  7.053364448827232 11.778194860855288  C 6.241299705563247 12.633457948480082  5.475639913144108 13  4.083528727128969 13  C 2.7146194403120205 13  1.716938581503737 12.633458616044553  0.9976810892979764 11.8759398934287  C 0.34802917944194206 11.167293383661159  0 10.140977217285045  0 9.016917110713747  C 0 6.988721764357025  1.3225083695417275 5.3270673771419945  4.129932756015044 5.3270673771419945  C 4.129932756015044 5.3270673771419945  6.9837602494156625 5.3270673771419945  6.9837602494156625 5.3270673771419945  C 6.9837602494156625 5.3270673771419945  6.9837602494156625 4.691728549426287  6.9837602494156625 4.691728549426287  C 6.9837602494156625 3.298871302533122  6.334109376763246 2.6879699467143503  4.733181443698928 2.6879699467143503  C 3.5730889039311586 2.6879699467143503  3.0394449918830753 2.981203102428852  2.412994750735539 3.7387222498584576  C 2.412994750735539 3.7387222498584576  0.48724045938624094 1.7593989342870076  0.48724045938624094 1.7593989342870076  C 1.6705348983522015 0.3909774600357628  2.8306287058132815 0  4.849189671996571 0  C 8.236660731710735 0  10 1.5150375666070621  10 4.496240426285197  Z M 6.5429238189154955 9.798871545283838  C 6.867749716221089 9.481202131425984  6.9837602494156625 8.9680447158024  6.9837602494156625 8.186090159856949  C 6.9837602494156625 8.186090159856949  6.9837602494156625 7.501878815854535  6.9837602494156625 7.501878815854535  C 6.9837602494156625 7.501878815854535  4.593969357040704 7.501878815854535  4.593969357040704 7.501878815854535  C 3.5034821691329676 7.501878815854535  2.9002315222866937 8.039473096498265  2.9002315222866937 8.943608336283688  C 2.9002315222866937 9.823307803427193  3.4570786012262786 10.409774114856194  4.640373385926779 10.409774114856194  C 5.4756400283889555 10.409774114856194  6.009281174560723 10.336465461801494  6.5429238189154955 9.798871545283838  Z " fill-rule="nonzero" fill="rgba(255, 255, 255, 1)" stroke="none" transform="matrix(1 0 0 1 1480 431 )" class="fill" />
    <path d="M 10 4.496240426285197  C 10 4.496240426285197  10 12.877818709283236  10 12.877818709283236  L 7.053364448827232 12.877818709283236  C 7.053364448827232 12.877818709283236  7.053364448827232 11.778194860855288  7.053364448827232 11.778194860855288  C 6.241299705563247 12.633457948480082  5.475639913144108 13  4.083528727128969 13  C 2.7146194403120205 13  1.716938581503737 12.633458616044553  0.9976810892979764 11.8759398934287  C 0.34802917944194206 11.167293383661159  0 10.140977217285045  0 9.016917110713747  C 0 6.988721764357025  1.3225083695417275 5.3270673771419945  4.129932756015044 5.3270673771419945  C 4.129932756015044 5.3270673771419945  6.9837602494156625 5.3270673771419945  6.9837602494156625 5.3270673771419945  C 6.9837602494156625 5.3270673771419945  6.9837602494156625 4.691728549426287  6.9837602494156625 4.691728549426287  C 6.9837602494156625 3.298871302533122  6.334109376763246 2.6879699467143503  4.733181443698928 2.6879699467143503  C 3.5730889039311586 2.6879699467143503  3.0394449918830753 2.981203102428852  2.412994750735539 3.7387222498584576  C 2.412994750735539 3.7387222498584576  0.48724045938624094 1.7593989342870076  0.48724045938624094 1.7593989342870076  C 1.6705348983522015 0.3909774600357628  2.8306287058132815 0  4.849189671996571 0  C 8.236660731710735 0  10 1.5150375666070621  10 4.496240426285197  Z " stroke-width="0" stroke-dasharray="0" stroke="rgba(121, 121, 121, 1)" fill="none" transform="matrix(1 0 0 1 1480 431 )" class="stroke" mask="url(#Clip5016)" />
    <path d="M 6.5429238189154955 9.798871545283838  C 6.867749716221089 9.481202131425984  6.9837602494156625 8.9680447158024  6.9837602494156625 8.186090159856949  C 6.9837602494156625 8.186090159856949  6.9837602494156625 7.501878815854535  6.9837602494156625 7.501878815854535  C 6.9837602494156625 7.501878815854535  4.593969357040704 7.501878815854535  4.593969357040704 7.501878815854535  C 3.5034821691329676 7.501878815854535  2.9002315222866937 8.039473096498265  2.9002315222866937 8.943608336283688  C 2.9002315222866937 9.823307803427193  3.4570786012262786 10.409774114856194  4.640373385926779 10.409774114856194  C 5.4756400283889555 10.409774114856194  6.009281174560723 10.336465461801494  6.5429238189154955 9.798871545283838  Z " stroke-width="0" stroke-dasharray="0" stroke="rgba(121, 121, 121, 1)" fill="none" transform="matrix(1 0 0 1 1480 431 )" class="stroke" mask="url(#Clip5016)" />
  </g>
  <style>svg { filter: drop-shadow(0px 4px 2px rgba(0, 0, 0, 0.12941176470588237)); }</style>
</svg>