<?xml version="1.0" encoding="utf-8"?>
<svg version="1.1" xmlns:xlink="http://www.w3.org/1999/xlink" width="17px" height="21px" xmlns="http://www.w3.org/2000/svg">
  <defs>
    <pattern id="BGPattern" patternUnits="userSpaceOnUse" alignment="0 0" imageRepeat="None" />
    <mask fill="white" id="Clip5011">
      <path d="M 6.094491381885355 0  C 7.299216138710846 0  8.149605722715144 0.32068411123485285  9 1.2087291958689195  C 9 1.2087291958689195  6.685048751712526 3.6508537299838113  6.685048751712526 3.6508537299838113  C 6.212608112325014 3.157494859523811  5.811027092118459 2.886148424228212  5.05512122430794 2.886148424228212  C 4.110239241540831 2.886148424228212  3.0708622787066067 3.626186852445148  3.0708622787066067 5.254270610350019  C 3.0708622787066067 5.254270610350019  3.0708622787066067 13  3.0708622787066067 13  L 0 13  L 0 0.14800763663261296  L 3.0000050061659276 0.14800763663261296  C 3.0000050061659276 0.14800763663261296  3.0000050061659276 1.3814039550940669  3.0000050061659276 1.3814039550940669  C 3.590556509392402 0.6413652818232611  4.771655761220903 0  6.094491381885355 0  Z " fill-rule="evenodd" />
    </mask>
  </defs>
  <g transform="matrix(1 0 0 1 -1589 -431 )">
    <path d="M 6.094491381885355 0  C 7.299216138710846 0  8.149605722715144 0.32068411123485285  9 1.2087291958689195  C 9 1.2087291958689195  6.685048751712526 3.6508537299838113  6.685048751712526 3.6508537299838113  C 6.212608112325014 3.157494859523811  5.811027092118459 2.886148424228212  5.05512122430794 2.886148424228212  C 4.110239241540831 2.886148424228212  3.0708622787066067 3.626186852445148  3.0708622787066067 5.254270610350019  C 3.0708622787066067 5.254270610350019  3.0708622787066067 13  3.0708622787066067 13  L 0 13  L 0 0.14800763663261296  L 3.0000050061659276 0.14800763663261296  C 3.0000050061659276 0.14800763663261296  3.0000050061659276 1.3814039550940669  3.0000050061659276 1.3814039550940669  C 3.590556509392402 0.6413652818232611  4.771655761220903 0  6.094491381885355 0  Z " fill-rule="nonzero" fill="rgba(255, 255, 255, 1)" stroke="none" transform="matrix(1 0 0 1 1593 431 )" class="fill" />
    <path d="M 6.094491381885355 0  C 7.299216138710846 0  8.149605722715144 0.32068411123485285  9 1.2087291958689195  C 9 1.2087291958689195  6.685048751712526 3.6508537299838113  6.685048751712526 3.6508537299838113  C 6.212608112325014 3.157494859523811  5.811027092118459 2.886148424228212  5.05512122430794 2.886148424228212  C 4.110239241540831 2.886148424228212  3.0708622787066067 3.626186852445148  3.0708622787066067 5.254270610350019  C 3.0708622787066067 5.254270610350019  3.0708622787066067 13  3.0708622787066067 13  L 0 13  L 0 0.14800763663261296  L 3.0000050061659276 0.14800763663261296  C 3.0000050061659276 0.14800763663261296  3.0000050061659276 1.3814039550940669  3.0000050061659276 1.3814039550940669  C 3.590556509392402 0.6413652818232611  4.771655761220903 0  6.094491381885355 0  Z " stroke-width="0" stroke-dasharray="0" stroke="rgba(121, 121, 121, 1)" fill="none" transform="matrix(1 0 0 1 1593 431 )" class="stroke" mask="url(#Clip5011)" />
  </g>
  <style>svg { filter: drop-shadow(0px 4px 2px rgba(0, 0, 0, 0.12941176470588237)); }</style>
</svg>