<?xml version="1.0" encoding="utf-8"?>
<svg version="1.1" xmlns:xlink="http://www.w3.org/1999/xlink" width="10px" height="12px" xmlns="http://www.w3.org/2000/svg">
  <defs>
    <pattern id="BGPattern" patternUnits="userSpaceOnUse" alignment="0 0" imageRepeat="None" />
    <mask fill="white" id="Clip5100">
      <path d="M 10 5.666664353964529  C 10 5.666664353964529  10 6.4523784144156195  10 6.4523784144156195  C 10 6.4523784144156195  1.7821722969038678 6.4523784144156195  1.7821722969038678 6.4523784144156195  C 1.7821722969038678 9.023807087212628  3.0445579466446766 10.49999905389458  5.3712872066196855 10.49999905389458  C 6.782176477091392 10.49999905389458  7.599015118312094 10.095235523483282  8.564360330984297 9.166664038596055  C 8.564360330984297 9.166664038596055  9.777224528592876 10.190474989072483  9.777224528592876 10.190474989072483  C 8.539602309745405 11.380951042513562  7.400982668647452 12  5.321778049156645 12  C 2.1039604276892474 12  0 10.142857030225546  0 6  C 0 2.2142854664961993  1.9059289615981418 0  4.999984262823438 0  C 8.143544049537484 0  10 2.1904741218091806  10 5.666664353964529  Z M 1.7821722969038678 5.166666561543843  C 1.7821722969038678 5.166666561543843  8.217827703096132 5.166666561543843  8.217827703096132 5.166666561543843  C 8.168322725820614 4.2142858607067915  8.118801765475151 3.857140052616076  7.846524759299884 3.2142834166011225  C 7.3762285817027 2.1428545072777583  6.287110721266275 1.452381568100353  4.999984262823438 1.452381568100353  C 3.7128574355405246 1.452381568100353  2.6237717871373762 2.1428545072777583  2.1534752407001156 3.2142834166011225  C 1.881198603364923 3.857140052616076  1.831677274179385 4.2142858607067915  1.7821722969038678 5.166666561543843  Z " fill-rule="evenodd" />
    </mask>
  </defs>
  <g transform="matrix(1 0 0 1 -1700 -304 )">
    <path d="M 10 5.666664353964529  C 10 5.666664353964529  10 6.4523784144156195  10 6.4523784144156195  C 10 6.4523784144156195  1.7821722969038678 6.4523784144156195  1.7821722969038678 6.4523784144156195  C 1.7821722969038678 9.023807087212628  3.0445579466446766 10.49999905389458  5.3712872066196855 10.49999905389458  C 6.782176477091392 10.49999905389458  7.599015118312094 10.095235523483282  8.564360330984297 9.166664038596055  C 8.564360330984297 9.166664038596055  9.777224528592876 10.190474989072483  9.777224528592876 10.190474989072483  C 8.539602309745405 11.380951042513562  7.400982668647452 12  5.321778049156645 12  C 2.1039604276892474 12  0 10.142857030225546  0 6  C 0 2.2142854664961993  1.9059289615981418 0  4.999984262823438 0  C 8.143544049537484 0  10 2.1904741218091806  10 5.666664353964529  Z M 1.7821722969038678 5.166666561543843  C 1.7821722969038678 5.166666561543843  8.217827703096132 5.166666561543843  8.217827703096132 5.166666561543843  C 8.168322725820614 4.2142858607067915  8.118801765475151 3.857140052616076  7.846524759299884 3.2142834166011225  C 7.3762285817027 2.1428545072777583  6.287110721266275 1.452381568100353  4.999984262823438 1.452381568100353  C 3.7128574355405246 1.452381568100353  2.6237717871373762 2.1428545072777583  2.1534752407001156 3.2142834166011225  C 1.881198603364923 3.857140052616076  1.831677274179385 4.2142858607067915  1.7821722969038678 5.166666561543843  Z " fill-rule="nonzero" fill="rgba(255, 255, 255, 1)" stroke="none" transform="matrix(1 0 0 1 1700 304 )" class="fill" />
    <path d="M 10 5.666664353964529  C 10 5.666664353964529  10 6.4523784144156195  10 6.4523784144156195  C 10 6.4523784144156195  1.7821722969038678 6.4523784144156195  1.7821722969038678 6.4523784144156195  C 1.7821722969038678 9.023807087212628  3.0445579466446766 10.49999905389458  5.3712872066196855 10.49999905389458  C 6.782176477091392 10.49999905389458  7.599015118312094 10.095235523483282  8.564360330984297 9.166664038596055  C 8.564360330984297 9.166664038596055  9.777224528592876 10.190474989072483  9.777224528592876 10.190474989072483  C 8.539602309745405 11.380951042513562  7.400982668647452 12  5.321778049156645 12  C 2.1039604276892474 12  0 10.142857030225546  0 6  C 0 2.2142854664961993  1.9059289615981418 0  4.999984262823438 0  C 8.143544049537484 0  10 2.1904741218091806  10 5.666664353964529  Z " stroke-width="0" stroke-dasharray="0" stroke="rgba(121, 121, 121, 1)" fill="none" transform="matrix(1 0 0 1 1700 304 )" class="stroke" mask="url(#Clip5100)" />
    <path d="M 1.7821722969038678 5.166666561543843  C 1.7821722969038678 5.166666561543843  8.217827703096132 5.166666561543843  8.217827703096132 5.166666561543843  C 8.168322725820614 4.2142858607067915  8.118801765475151 3.857140052616076  7.846524759299884 3.2142834166011225  C 7.3762285817027 2.1428545072777583  6.287110721266275 1.452381568100353  4.999984262823438 1.452381568100353  C 3.7128574355405246 1.452381568100353  2.6237717871373762 2.1428545072777583  2.1534752407001156 3.2142834166011225  C 1.881198603364923 3.857140052616076  1.831677274179385 4.2142858607067915  1.7821722969038678 5.166666561543843  Z " stroke-width="0" stroke-dasharray="0" stroke="rgba(121, 121, 121, 1)" fill="none" transform="matrix(1 0 0 1 1700 304 )" class="stroke" mask="url(#Clip5100)" />
  </g>
</svg>