<?xml version="1.0" encoding="utf-8"?>
<svg version="1.1" xmlns:xlink="http://www.w3.org/1999/xlink" width="21px" height="25px" xmlns="http://www.w3.org/2000/svg">
  <defs>
    <pattern id="BGPattern" patternUnits="userSpaceOnUse" alignment="0 0" imageRepeat="None" />
    <mask fill="white" id="Clip5009">
      <path d="M 9.501906741358997 11.716851967963215  C 9.501906741358997 11.716851967963215  13 11.716851967963215  13 11.716851967963215  C 12.404580615483734 15.121548460114502  9.874037017505863 17  6.499992113382861 17  C 4.6144964099208785 17  3.0267090432047086 16.38950395514701  1.73663309394417 15.168509416216942  C 0.9675492909779526 14.440608765143203  0.4961772751525454 13.59530584044308  0.2977040237520642 12.65607948735174  C 0.09923077235158297 11.716852784371245  0 10.331492216599115  0 8.500000933037747  C 0 6.668508949698069  0.09923077235158297 5.283149431593404  0.2977040237520642 4.343922378723754  C 0.4961772751525454 3.3812163639892217  0.9675492909779526 2.5593934508214464  1.73663309394417 1.8314924498585514  C 3.0267090432047086 0.6104982608176396  4.6144964099208785 0  6.499992113382861 0  C 9.89884658982675 0  12.404580615483734 1.8784541057393018  13 5.283149898112278  C 13 5.283149898112278  9.501906741358997 5.283149898112278  9.501906741358997 5.283149898112278  C 9.129769071508564 3.8508296571646103  8.18701666032704 2.911603070813833  6.524803410901247 2.911603070813833  C 5.582055189485077 2.911603070813833  4.837779356870638 3.193371140022841  4.316787210576318 3.7803871733434846  C 3.597321812881515 4.508288174306379  3.4484706636042324 5.259669070171903  3.4484706636042324 8.500000933037747  C 3.4484706636042324 11.740332329384717  3.597321812881515 12.491714974696016  4.316787210576318 13.219615625769755  C 4.837779356870638 13.806632008979555  5.582055189485077 14.08839879526166  6.524803410901247 14.08839879526166  C 8.18701666032704 14.08839879526166  9.129769071508564 13.14917255880004  9.501906741358997 11.716851967963215  Z " fill-rule="evenodd" />
    </mask>
  </defs>
  <g transform="matrix(1 0 0 1 -1633 -427 )">
    <path d="M 9.501906741358997 11.716851967963215  C 9.501906741358997 11.716851967963215  13 11.716851967963215  13 11.716851967963215  C 12.404580615483734 15.121548460114502  9.874037017505863 17  6.499992113382861 17  C 4.6144964099208785 17  3.0267090432047086 16.38950395514701  1.73663309394417 15.168509416216942  C 0.9675492909779526 14.440608765143203  0.4961772751525454 13.59530584044308  0.2977040237520642 12.65607948735174  C 0.09923077235158297 11.716852784371245  0 10.331492216599115  0 8.500000933037747  C 0 6.668508949698069  0.09923077235158297 5.283149431593404  0.2977040237520642 4.343922378723754  C 0.4961772751525454 3.3812163639892217  0.9675492909779526 2.5593934508214464  1.73663309394417 1.8314924498585514  C 3.0267090432047086 0.6104982608176396  4.6144964099208785 0  6.499992113382861 0  C 9.89884658982675 0  12.404580615483734 1.8784541057393018  13 5.283149898112278  C 13 5.283149898112278  9.501906741358997 5.283149898112278  9.501906741358997 5.283149898112278  C 9.129769071508564 3.8508296571646103  8.18701666032704 2.911603070813833  6.524803410901247 2.911603070813833  C 5.582055189485077 2.911603070813833  4.837779356870638 3.193371140022841  4.316787210576318 3.7803871733434846  C 3.597321812881515 4.508288174306379  3.4484706636042324 5.259669070171903  3.4484706636042324 8.500000933037747  C 3.4484706636042324 11.740332329384717  3.597321812881515 12.491714974696016  4.316787210576318 13.219615625769755  C 4.837779356870638 13.806632008979555  5.582055189485077 14.08839879526166  6.524803410901247 14.08839879526166  C 8.18701666032704 14.08839879526166  9.129769071508564 13.14917255880004  9.501906741358997 11.716851967963215  Z " fill-rule="nonzero" fill="rgba(255, 255, 255, 1)" stroke="none" transform="matrix(1 0 0 1 1637 427 )" class="fill" />
    <path d="M 9.501906741358997 11.716851967963215  C 9.501906741358997 11.716851967963215  13 11.716851967963215  13 11.716851967963215  C 12.404580615483734 15.121548460114502  9.874037017505863 17  6.499992113382861 17  C 4.6144964099208785 17  3.0267090432047086 16.38950395514701  1.73663309394417 15.168509416216942  C 0.9675492909779526 14.440608765143203  0.4961772751525454 13.59530584044308  0.2977040237520642 12.65607948735174  C 0.09923077235158297 11.716852784371245  0 10.331492216599115  0 8.500000933037747  C 0 6.668508949698069  0.09923077235158297 5.283149431593404  0.2977040237520642 4.343922378723754  C 0.4961772751525454 3.3812163639892217  0.9675492909779526 2.5593934508214464  1.73663309394417 1.8314924498585514  C 3.0267090432047086 0.6104982608176396  4.6144964099208785 0  6.499992113382861 0  C 9.89884658982675 0  12.404580615483734 1.8784541057393018  13 5.283149898112278  C 13 5.283149898112278  9.501906741358997 5.283149898112278  9.501906741358997 5.283149898112278  C 9.129769071508564 3.8508296571646103  8.18701666032704 2.911603070813833  6.524803410901247 2.911603070813833  C 5.582055189485077 2.911603070813833  4.837779356870638 3.193371140022841  4.316787210576318 3.7803871733434846  C 3.597321812881515 4.508288174306379  3.4484706636042324 5.259669070171903  3.4484706636042324 8.500000933037747  C 3.4484706636042324 11.740332329384717  3.597321812881515 12.491714974696016  4.316787210576318 13.219615625769755  C 4.837779356870638 13.806632008979555  5.582055189485077 14.08839879526166  6.524803410901247 14.08839879526166  C 8.18701666032704 14.08839879526166  9.129769071508564 13.14917255880004  9.501906741358997 11.716851967963215  Z " stroke-width="0" stroke-dasharray="0" stroke="rgba(121, 121, 121, 1)" fill="none" transform="matrix(1 0 0 1 1637 427 )" class="stroke" mask="url(#Clip5009)" />
  </g>
  <style>svg { filter: drop-shadow(0px 4px 2px rgba(0, 0, 0, 0.12941176470588237)); }</style>
</svg>