<?xml version="1.0" encoding="utf-8"?>
<svg version="1.1" xmlns:xlink="http://www.w3.org/1999/xlink" width="25px" height="31px" xmlns="http://www.w3.org/2000/svg">
  <defs>
    <pattern id="BGPattern" patternUnits="userSpaceOnUse" alignment="0 0" imageRepeat="None" />
    <mask fill="white" id="Clip5051">
      <path d="M 14.62620804561288 2.196627850537672  C 17.255640158298156 4.78089885477044  16.99269655521392 7.946628813253126  16.99269655521392 11.403089211576226  C 16.99269655521392 14.859550572614781  17.255640158298156 18.21910066387183  14.62620804561288 20.80337022403142  C 13.081418785419707 22.321628692913695  10.879271497055218 23  8.447047086683117 23  C 8.447047086683117 23  0 23  0 23  L 0 0  C 0 0  8.447047086683117 0  8.447047086683117 0  C 10.879271497055218 0  13.081418785419707 0.6783697426736935  14.62620804561288 2.196627850537672  Z M 11.438023225221777 17.573034356886822  C 12.292587976167002 16.539326821637623  12.424058798169852 14.891853526945734  12.424058798169852 11.403089211576226  C 12.424058798169852 7.9143258589221706  12.292587976167002 6.460673659720102  11.438023225221777 5.426965643113177  C 10.64919339550834 4.490168414930026  9.597422901328475 4.005618323672972  8.01976422144087 4.005618323672972  C 8.01976422144087 4.005618323672972  4.568635797965531 4.005618323672972  4.568635797965531 4.005618323672972  L 4.568635797965531 18.994381676327027  C 4.568635797965531 18.994381676327027  8.01976422144087 18.994381676327027  8.01976422144087 18.994381676327027  C 9.597422901328475 18.994381676327027  10.64919339550834 18.509832066427702  11.438023225221777 17.573034356886822  Z " fill-rule="evenodd" />
    </mask>
  </defs>
  <g transform="matrix(1 0 0 1 -707 -994 )">
    <path d="M 14.62620804561288 2.196627850537672  C 17.255640158298156 4.78089885477044  16.99269655521392 7.946628813253126  16.99269655521392 11.403089211576226  C 16.99269655521392 14.859550572614781  17.255640158298156 18.21910066387183  14.62620804561288 20.80337022403142  C 13.081418785419707 22.321628692913695  10.879271497055218 23  8.447047086683117 23  C 8.447047086683117 23  0 23  0 23  L 0 0  C 0 0  8.447047086683117 0  8.447047086683117 0  C 10.879271497055218 0  13.081418785419707 0.6783697426736935  14.62620804561288 2.196627850537672  Z M 11.438023225221777 17.573034356886822  C 12.292587976167002 16.539326821637623  12.424058798169852 14.891853526945734  12.424058798169852 11.403089211576226  C 12.424058798169852 7.9143258589221706  12.292587976167002 6.460673659720102  11.438023225221777 5.426965643113177  C 10.64919339550834 4.490168414930026  9.597422901328475 4.005618323672972  8.01976422144087 4.005618323672972  C 8.01976422144087 4.005618323672972  4.568635797965531 4.005618323672972  4.568635797965531 4.005618323672972  L 4.568635797965531 18.994381676327027  C 4.568635797965531 18.994381676327027  8.01976422144087 18.994381676327027  8.01976422144087 18.994381676327027  C 9.597422901328475 18.994381676327027  10.64919339550834 18.509832066427702  11.438023225221777 17.573034356886822  Z " fill-rule="nonzero" fill="rgba(255, 255, 255, 1)" stroke="none" transform="matrix(1 0 0 1 711 994 )" class="fill" />
    <path d="M 14.62620804561288 2.196627850537672  C 17.255640158298156 4.78089885477044  16.99269655521392 7.946628813253126  16.99269655521392 11.403089211576226  C 16.99269655521392 14.859550572614781  17.255640158298156 18.21910066387183  14.62620804561288 20.80337022403142  C 13.081418785419707 22.321628692913695  10.879271497055218 23  8.447047086683117 23  C 8.447047086683117 23  0 23  0 23  L 0 0  C 0 0  8.447047086683117 0  8.447047086683117 0  C 10.879271497055218 0  13.081418785419707 0.6783697426736935  14.62620804561288 2.196627850537672  Z " stroke-width="0" stroke-dasharray="0" stroke="rgba(121, 121, 121, 1)" fill="none" transform="matrix(1 0 0 1 711 994 )" class="stroke" mask="url(#Clip5051)" />
    <path d="M 11.438023225221777 17.573034356886822  C 12.292587976167002 16.539326821637623  12.424058798169852 14.891853526945734  12.424058798169852 11.403089211576226  C 12.424058798169852 7.9143258589221706  12.292587976167002 6.460673659720102  11.438023225221777 5.426965643113177  C 10.64919339550834 4.490168414930026  9.597422901328475 4.005618323672972  8.01976422144087 4.005618323672972  C 8.01976422144087 4.005618323672972  4.568635797965531 4.005618323672972  4.568635797965531 4.005618323672972  L 4.568635797965531 18.994381676327027  C 4.568635797965531 18.994381676327027  8.01976422144087 18.994381676327027  8.01976422144087 18.994381676327027  C 9.597422901328475 18.994381676327027  10.64919339550834 18.509832066427702  11.438023225221777 17.573034356886822  Z " stroke-width="0" stroke-dasharray="0" stroke="rgba(121, 121, 121, 1)" fill="none" transform="matrix(1 0 0 1 711 994 )" class="stroke" mask="url(#Clip5051)" />
  </g>
  <style>svg { filter: drop-shadow(0px 4px 2px rgba(0, 0, 0, 0.12941176470588237)); }</style>
</svg>