<?xml version="1.0" encoding="utf-8"?>
<svg version="1.1" xmlns:xlink="http://www.w3.org/1999/xlink" width="6px" height="23px" xmlns="http://www.w3.org/2000/svg">
  <defs>
    <pattern id="BGPattern" patternUnits="userSpaceOnUse" alignment="0 0" imageRepeat="None" />
    <mask fill="white" id="Clip5069">
      <path d="M 5.420843847883507 7.078779310208956  C 5.806944113733884 8.447827089259711  6 9.921564919143043  6 11.499996159924773  C 6 13.062321165192357  5.806944113733884 14.536066435221436  5.420843847883507 15.921220689791042  C 5.050187850416818 17.290268468841795  4.51736381305048 18.56267703477238  3.822383472599982 19.738447467603958  C 3.1274031321494853 20.91421778043318  2.316603436171362 22.0014005578711  1.3899629822373654 23  C 1.3899629822373654 23  0 22.251047088338094  0 22.251047088338094  C 0.8803084542506603 21.284660417243373  1.6447787970822738 20.245794366309116  2.293427137849435 19.134449715550602  C 2.9420753635497774 18.02310518479444  3.4362940230305474 16.83123427656155  3.77606217413077 15.558825110619209  C 4.131274363481044 14.286416184681572  4.308867570672506 12.933469841050938  4.308867570672506 11.499996159924773  C 4.308867570672506 10.05041624328446  4.131274363481044 8.697477579804277  3.77606217413077 7.44117488938079  C 3.4362940230305474 6.168765963443152  2.9420753635497774 4.976887255057463  2.293427137849435 3.8655426042989474  C 1.6447787970822738 2.7380917180262814  0.8803084542506603 1.6992256070908491  0 0.7489452315114569  C 0 0.7489452315114569  1.3899629822373654 0  1.3899629822373654 0  C 2.316603436171362 0.9824938066265007  3.1274031321494853 2.069675744047967  3.822383472599982 3.261552532396043  C 4.51736381305048 4.437323085229969  5.050187850416818 5.709732011167607  5.420843847883507 7.078779310208956  Z " fill-rule="evenodd" />
    </mask>
  </defs>
  <g transform="matrix(1 0 0 1 -1515 -357 )">
    <path d="M 5.420843847883507 7.078779310208956  C 5.806944113733884 8.447827089259711  6 9.921564919143043  6 11.499996159924773  C 6 13.062321165192357  5.806944113733884 14.536066435221436  5.420843847883507 15.921220689791042  C 5.050187850416818 17.290268468841795  4.51736381305048 18.56267703477238  3.822383472599982 19.738447467603958  C 3.1274031321494853 20.91421778043318  2.316603436171362 22.0014005578711  1.3899629822373654 23  C 1.3899629822373654 23  0 22.251047088338094  0 22.251047088338094  C 0.8803084542506603 21.284660417243373  1.6447787970822738 20.245794366309116  2.293427137849435 19.134449715550602  C 2.9420753635497774 18.02310518479444  3.4362940230305474 16.83123427656155  3.77606217413077 15.558825110619209  C 4.131274363481044 14.286416184681572  4.308867570672506 12.933469841050938  4.308867570672506 11.499996159924773  C 4.308867570672506 10.05041624328446  4.131274363481044 8.697477579804277  3.77606217413077 7.44117488938079  C 3.4362940230305474 6.168765963443152  2.9420753635497774 4.976887255057463  2.293427137849435 3.8655426042989474  C 1.6447787970822738 2.7380917180262814  0.8803084542506603 1.6992256070908491  0 0.7489452315114569  C 0 0.7489452315114569  1.3899629822373654 0  1.3899629822373654 0  C 2.316603436171362 0.9824938066265007  3.1274031321494853 2.069675744047967  3.822383472599982 3.261552532396043  C 4.51736381305048 4.437323085229969  5.050187850416818 5.709732011167607  5.420843847883507 7.078779310208956  Z " fill-rule="nonzero" fill="rgba(255, 255, 255, 1)" stroke="none" transform="matrix(1 0 0 1 1515 357 )" class="fill" />
    <path d="M 5.420843847883507 7.078779310208956  C 5.806944113733884 8.447827089259711  6 9.921564919143043  6 11.499996159924773  C 6 13.062321165192357  5.806944113733884 14.536066435221436  5.420843847883507 15.921220689791042  C 5.050187850416818 17.290268468841795  4.51736381305048 18.56267703477238  3.822383472599982 19.738447467603958  C 3.1274031321494853 20.91421778043318  2.316603436171362 22.0014005578711  1.3899629822373654 23  C 1.3899629822373654 23  0 22.251047088338094  0 22.251047088338094  C 0.8803084542506603 21.284660417243373  1.6447787970822738 20.245794366309116  2.293427137849435 19.134449715550602  C 2.9420753635497774 18.02310518479444  3.4362940230305474 16.83123427656155  3.77606217413077 15.558825110619209  C 4.131274363481044 14.286416184681572  4.308867570672506 12.933469841050938  4.308867570672506 11.499996159924773  C 4.308867570672506 10.05041624328446  4.131274363481044 8.697477579804277  3.77606217413077 7.44117488938079  C 3.4362940230305474 6.168765963443152  2.9420753635497774 4.976887255057463  2.293427137849435 3.8655426042989474  C 1.6447787970822738 2.7380917180262814  0.8803084542506603 1.6992256070908491  0 0.7489452315114569  C 0 0.7489452315114569  1.3899629822373654 0  1.3899629822373654 0  C 2.316603436171362 0.9824938066265007  3.1274031321494853 2.069675744047967  3.822383472599982 3.261552532396043  C 4.51736381305048 4.437323085229969  5.050187850416818 5.709732011167607  5.420843847883507 7.078779310208956  Z " stroke-width="0" stroke-dasharray="0" stroke="rgba(121, 121, 121, 1)" fill="none" transform="matrix(1 0 0 1 1515 357 )" class="stroke" mask="url(#Clip5069)" />
  </g>
</svg>