<?xml version="1.0" encoding="utf-8"?>
<svg version="1.1" xmlns:xlink="http://www.w3.org/1999/xlink" width="21px" height="22px" xmlns="http://www.w3.org/2000/svg">
  <defs>
    <pattern id="BGPattern" patternUnits="userSpaceOnUse" alignment="0 0" imageRepeat="None" />
    <mask fill="white" id="Clip5073">
      <path d="M 7.824913373701855 13.615637776278254  L 7.824913373701855 12  L 19.750838790885258 12  L 19.750838790885258 13.615637776278254  L 7.824913373701855 13.615637776278254  Z M 6.64646534020445 18  L 6.64646534020445 16.816502744877408  L 20.434339549400537 16.816502744877408  L 20.434339549400537 18  L 6.64646534020445 18  Z M 14 22  L 14 10.175896507508073  L 16 10.175896507508073  L 16 22  L 14 22  Z M 9.521883486915433 17.437567457023384  L 9.521883486915433 12.707926060026612  L 11.10100954601826 12.707926060026612  L 11.10100954601826 17.437567457023384  L 9.521883486915433 17.437567457023384  Z M 0 22  L 0 1.051031421554838  L 5.538719243739573 1.051031421554838  L 5.538719243739573 2.6753492578217357  L 1.5791260591028256 2.6753492578217357  L 1.5791260591028256 22  L 0 22  Z M 5.020200910218335 1.5526579836152996  C 5.020200910218335 1.5526579836152996  5.020200910218335 1.051031421554838  5.020200910218335 1.051031421554838  L 5.326598447862243 1.051031421554838  L 5.585857614622862 0.9793715689032398  C 5.585857614622862 0.9793715689032398  6.740738335776091 1.6720961337008127  6.740738335776091 1.6720961337008127  C 6.505048354457116 2.3250098801780332  6.253647768124091 3.0256971781521216  5.986531894033345 3.7741589768104884  C 5.735128966328486 4.506696258303233  5.468011219140274 5.239233539795976  5.185183335212377 5.97177082128872  C 4.918067461121632 6.688383585615842  4.650953928402722 7.36518553162261  4.383838522586345 8.002173811746799  C 5.2480360573046525 8.98950669004544  5.813693229983545 9.913136753744544  6.080808635799924 10.77307207093709  C 6.363636988002186 11.617082396370307  6.505050227554583 12.413320119494065  6.505050227554583 13.161781918152434  C 6.505050227554583 13.79877114746403  6.426485495625158 14.35613660446325  6.269358373138141 14.833878051853246  C 6.127944665311376 15.311619736540091  5.892257025364237 15.669927779781618  5.562290302278686 15.90879862212504  C 5.405163648066035 16.020271666065515  5.216611101081615 16.115814260419057  4.996633597874159 16.19543803273143  C 4.792368572778221 16.25913681328448  4.57239013302203 16.306915822608953  4.336700151703056 16.338765331533903  C 3.849607008542038 16.38653935762448  3.323230562867573 16.402460552634167  2.7575740926002306 16.386536035468545  C 2.7418613803515286 16.163589710290744  2.69472628738881 15.900832092198888  2.616162726145301 15.598262469302416  C 2.5533121112876778 15.295692609109093  2.4511793646025253 15.032934991017235  2.3097651885013937 14.809988903136288  C 2.576880828454955 14.825913657598765  2.8282814147879796 14.833878051853246  3.0639716302441378 14.833878051853246  C 3.2996618457002955 14.833878051853246  3.5039271049334175 14.833878051853246  3.6767667055319526 14.833878051853246  C 3.991020013957252 14.81795329739077  4.242424346485213 14.746288698802125  4.430976893469634 14.618890900399178  C 4.619528972179686 14.475568584830604  4.7452292653461985 14.260589738766367  4.8080801143410055 13.973944633035519  C 4.88664344144733 13.671375010139048  4.9259241684517585 13.344917187713028  4.9259241684517585 12.994573064132279  C 4.9259241684517585 12.325734800489437  4.776656094666703 11.601161675954321  4.478115264352922 10.820850368371005  C 4.195286912150658 10.02461406902836  3.6296299736089486 9.156711747315956  2.781145151139343 8.217153369701592  C 3.0011226543467995 7.675712667164847  3.213242747812579 7.102425777859081  3.417507538771334 6.4972865320661395  C 3.63748504197879 5.876221819920165  3.8417505353490955 5.271077828190175  4.030302614059149 4.6818630995628565  C 4.234567639155086 4.076723853769914  4.415261605711913 3.5034364898704444  4.572388259924562 2.9619962619274025  C 4.745227860523097 2.4205550847969515  4.894499680503089 1.9507756586929172  5.020200910218335 1.5526579836152996  Z M 11.05387117513497 3.5591718253564197  L 11.05387117513497 2.102062843109676  L 17.676765456800307 2.102062843109676  L 17.676765456800307 3.5591718253564197  L 11.05387117513497 3.5591718253564197  Z M 17.252523865045646 2.3887022537160685  C 17.252523865045646 2.3887022537160685  17.252523865045646 2.102062843109676  17.252523865045646 2.102062843109676  L 17.58248871503373 2.102062843109676  L 17.888889998872575 2.030402990458078  C 17.888889998872575 2.030402990458078  18.996632349142512 2.555918701235497  18.996632349142512 2.555918701235497  C 18.493826493732794 3.8139716935056596  17.84174600869688 4.944623802513794  17.040399322973382 5.947881672571763  C 16.254765115361398 6.951138593442323  15.35129153638233 7.834962584758121  14.329967347451374 8.599349375175816  C 13.308643158520416 9.347811648427887  12.224464374399716 9.992762661728591  11.077438487479146 10.534203364265338  C 9.930413068832943 11.059719075042757  8.75196316223807 11.489684360670505  7.54208689459706 11.824103492491927  C 7.447810621104849 11.60115740461098  7.3142522157851095 11.354328337731234  7.141412615186574 11.083608223759715  C 6.968573482862407 10.796963118028867  6.795733882263871 10.566048127253241  6.622894281665337 10.390876065462868  C 7.754207222200022 10.120155951491345  8.861950040744329 9.753891107494612  9.946125078670093 9.292073939973388  C 11.046012594707376 8.814332255286542  12.067339593284535 8.241038247075208  13.010100455109166 7.57219950883866  C 13.968573795045318 6.887436728030194  14.809203080870716 6.115092424966735  15.531986439487891 5.25515710777419  C 16.27048321276532 4.3952227397690535  16.8439947514025 3.439734624458316  17.252523865045646 2.3887022537160685  Z M 9.781142653676051 3.8219296807451295  C 9.781142653676051 3.8219296807451295  11.195286287784835 3.3441922674016253  11.195286287784835 3.3441922674016253  C 11.74522957752911 4.442998189640742  12.499436019271853 5.446250364574255  13.457909359208005 6.3539592332636685  C 14.416383635692888 7.24574358478746  15.539843146818018 8.010130849798859  16.828282273290988 8.647120079110456  C 18.116722336312687 9.268184316662726  19.507294911882358 9.72204254775707  21 10.008687653487918  C 20.8271599311271 10.167934723518965  20.638603637947742 10.390877963837687  20.434339549400537 10.677523069568535  C 20.230074524304598 10.964168175299383  20.065093972408025 11.226926030688091  19.939392274418413 11.465796635734662  C 18.3838372738547 11.099528469581996  16.9539867809268 10.566048601846946  15.64983423979358 9.865360354685448  C 14.345681698660362 9.14874806495203  13.19079629476346 8.280852862145197  12.185184583944022 7.2616709495153104  C 11.195285351236102 6.242488562291718  10.3939372606895 5.0959081393683245  9.781142653676051 3.8219296807451295  Z M 9.922557766325918 3.057545263295958  C 10.81818025726726 1.9905893245754975  11.49382524500115 0.9714078865393144  11.949492729527579 0  C 11.949492729527579 0  13.646462842741158 0.2866394106063927  13.646462842741158 0.2866394106063927  C 13.049381182113597 1.4809943342140641  12.279458516064397 2.6673893722074475  11.336697654239764 3.8458188294620865  C 10.393936792415133 5.024248286716726  9.215487354094627 6.09120042868755  7.801346061357679 7.046683798061242  C 7.722782265976986 6.91928576236144  7.620649753429017 6.78392879023476  7.49494852371377 6.640606237369336  C 7.369247293998524 6.497283684503912  7.227834054446127 6.353962080825896  7.07070693195911 6.210639527960472  C 6.91358027774646 6.067316975095048  6.772167038194063 5.963802392987748  6.64646534020445 5.9001033751378476  C 7.950617881337671 5.0720180414639575  9.042647285221724 4.124502151203829  9.922557766325918 3.057545263295958  Z " fill-rule="evenodd" />
    </mask>
  </defs>
  <g transform="matrix(1 0 0 1 -1420 -358 )">
    <path d="M 7.824913373701855 13.615637776278254  L 7.824913373701855 12  L 19.750838790885258 12  L 19.750838790885258 13.615637776278254  L 7.824913373701855 13.615637776278254  Z M 6.64646534020445 18  L 6.64646534020445 16.816502744877408  L 20.434339549400537 16.816502744877408  L 20.434339549400537 18  L 6.64646534020445 18  Z M 14 22  L 14 10.175896507508073  L 16 10.175896507508073  L 16 22  L 14 22  Z M 9.521883486915433 17.437567457023384  L 9.521883486915433 12.707926060026612  L 11.10100954601826 12.707926060026612  L 11.10100954601826 17.437567457023384  L 9.521883486915433 17.437567457023384  Z M 0 22  L 0 1.051031421554838  L 5.538719243739573 1.051031421554838  L 5.538719243739573 2.6753492578217357  L 1.5791260591028256 2.6753492578217357  L 1.5791260591028256 22  L 0 22  Z M 5.020200910218335 1.5526579836152996  C 5.020200910218335 1.5526579836152996  5.020200910218335 1.051031421554838  5.020200910218335 1.051031421554838  L 5.326598447862243 1.051031421554838  L 5.585857614622862 0.9793715689032398  C 5.585857614622862 0.9793715689032398  6.740738335776091 1.6720961337008127  6.740738335776091 1.6720961337008127  C 6.505048354457116 2.3250098801780332  6.253647768124091 3.0256971781521216  5.986531894033345 3.7741589768104884  C 5.735128966328486 4.506696258303233  5.468011219140274 5.239233539795976  5.185183335212377 5.97177082128872  C 4.918067461121632 6.688383585615842  4.650953928402722 7.36518553162261  4.383838522586345 8.002173811746799  C 5.2480360573046525 8.98950669004544  5.813693229983545 9.913136753744544  6.080808635799924 10.77307207093709  C 6.363636988002186 11.617082396370307  6.505050227554583 12.413320119494065  6.505050227554583 13.161781918152434  C 6.505050227554583 13.79877114746403  6.426485495625158 14.35613660446325  6.269358373138141 14.833878051853246  C 6.127944665311376 15.311619736540091  5.892257025364237 15.669927779781618  5.562290302278686 15.90879862212504  C 5.405163648066035 16.020271666065515  5.216611101081615 16.115814260419057  4.996633597874159 16.19543803273143  C 4.792368572778221 16.25913681328448  4.57239013302203 16.306915822608953  4.336700151703056 16.338765331533903  C 3.849607008542038 16.38653935762448  3.323230562867573 16.402460552634167  2.7575740926002306 16.386536035468545  C 2.7418613803515286 16.163589710290744  2.69472628738881 15.900832092198888  2.616162726145301 15.598262469302416  C 2.5533121112876778 15.295692609109093  2.4511793646025253 15.032934991017235  2.3097651885013937 14.809988903136288  C 2.576880828454955 14.825913657598765  2.8282814147879796 14.833878051853246  3.0639716302441378 14.833878051853246  C 3.2996618457002955 14.833878051853246  3.5039271049334175 14.833878051853246  3.6767667055319526 14.833878051853246  C 3.991020013957252 14.81795329739077  4.242424346485213 14.746288698802125  4.430976893469634 14.618890900399178  C 4.619528972179686 14.475568584830604  4.7452292653461985 14.260589738766367  4.8080801143410055 13.973944633035519  C 4.88664344144733 13.671375010139048  4.9259241684517585 13.344917187713028  4.9259241684517585 12.994573064132279  C 4.9259241684517585 12.325734800489437  4.776656094666703 11.601161675954321  4.478115264352922 10.820850368371005  C 4.195286912150658 10.02461406902836  3.6296299736089486 9.156711747315956  2.781145151139343 8.217153369701592  C 3.0011226543467995 7.675712667164847  3.213242747812579 7.102425777859081  3.417507538771334 6.4972865320661395  C 3.63748504197879 5.876221819920165  3.8417505353490955 5.271077828190175  4.030302614059149 4.6818630995628565  C 4.234567639155086 4.076723853769914  4.415261605711913 3.5034364898704444  4.572388259924562 2.9619962619274025  C 4.745227860523097 2.4205550847969515  4.894499680503089 1.9507756586929172  5.020200910218335 1.5526579836152996  Z M 11.05387117513497 3.5591718253564197  L 11.05387117513497 2.102062843109676  L 17.676765456800307 2.102062843109676  L 17.676765456800307 3.5591718253564197  L 11.05387117513497 3.5591718253564197  Z M 17.252523865045646 2.3887022537160685  C 17.252523865045646 2.3887022537160685  17.252523865045646 2.102062843109676  17.252523865045646 2.102062843109676  L 17.58248871503373 2.102062843109676  L 17.888889998872575 2.030402990458078  C 17.888889998872575 2.030402990458078  18.996632349142512 2.555918701235497  18.996632349142512 2.555918701235497  C 18.493826493732794 3.8139716935056596  17.84174600869688 4.944623802513794  17.040399322973382 5.947881672571763  C 16.254765115361398 6.951138593442323  15.35129153638233 7.834962584758121  14.329967347451374 8.599349375175816  C 13.308643158520416 9.347811648427887  12.224464374399716 9.992762661728591  11.077438487479146 10.534203364265338  C 9.930413068832943 11.059719075042757  8.75196316223807 11.489684360670505  7.54208689459706 11.824103492491927  C 7.447810621104849 11.60115740461098  7.3142522157851095 11.354328337731234  7.141412615186574 11.083608223759715  C 6.968573482862407 10.796963118028867  6.795733882263871 10.566048127253241  6.622894281665337 10.390876065462868  C 7.754207222200022 10.120155951491345  8.861950040744329 9.753891107494612  9.946125078670093 9.292073939973388  C 11.046012594707376 8.814332255286542  12.067339593284535 8.241038247075208  13.010100455109166 7.57219950883866  C 13.968573795045318 6.887436728030194  14.809203080870716 6.115092424966735  15.531986439487891 5.25515710777419  C 16.27048321276532 4.3952227397690535  16.8439947514025 3.439734624458316  17.252523865045646 2.3887022537160685  Z M 9.781142653676051 3.8219296807451295  C 9.781142653676051 3.8219296807451295  11.195286287784835 3.3441922674016253  11.195286287784835 3.3441922674016253  C 11.74522957752911 4.442998189640742  12.499436019271853 5.446250364574255  13.457909359208005 6.3539592332636685  C 14.416383635692888 7.24574358478746  15.539843146818018 8.010130849798859  16.828282273290988 8.647120079110456  C 18.116722336312687 9.268184316662726  19.507294911882358 9.72204254775707  21 10.008687653487918  C 20.8271599311271 10.167934723518965  20.638603637947742 10.390877963837687  20.434339549400537 10.677523069568535  C 20.230074524304598 10.964168175299383  20.065093972408025 11.226926030688091  19.939392274418413 11.465796635734662  C 18.3838372738547 11.099528469581996  16.9539867809268 10.566048601846946  15.64983423979358 9.865360354685448  C 14.345681698660362 9.14874806495203  13.19079629476346 8.280852862145197  12.185184583944022 7.2616709495153104  C 11.195285351236102 6.242488562291718  10.3939372606895 5.0959081393683245  9.781142653676051 3.8219296807451295  Z M 9.922557766325918 3.057545263295958  C 10.81818025726726 1.9905893245754975  11.49382524500115 0.9714078865393144  11.949492729527579 0  C 11.949492729527579 0  13.646462842741158 0.2866394106063927  13.646462842741158 0.2866394106063927  C 13.049381182113597 1.4809943342140641  12.279458516064397 2.6673893722074475  11.336697654239764 3.8458188294620865  C 10.393936792415133 5.024248286716726  9.215487354094627 6.09120042868755  7.801346061357679 7.046683798061242  C 7.722782265976986 6.91928576236144  7.620649753429017 6.78392879023476  7.49494852371377 6.640606237369336  C 7.369247293998524 6.497283684503912  7.227834054446127 6.353962080825896  7.07070693195911 6.210639527960472  C 6.91358027774646 6.067316975095048  6.772167038194063 5.963802392987748  6.64646534020445 5.9001033751378476  C 7.950617881337671 5.0720180414639575  9.042647285221724 4.124502151203829  9.922557766325918 3.057545263295958  Z " fill-rule="nonzero" fill="rgba(255, 255, 255, 1)" stroke="none" transform="matrix(1 0 0 1 1420 358 )" class="fill" />
    <path d="M 7.824913373701855 13.615637776278254  L 7.824913373701855 12  L 19.750838790885258 12  L 19.750838790885258 13.615637776278254  L 7.824913373701855 13.615637776278254  Z " stroke-width="0" stroke-dasharray="0" stroke="rgba(121, 121, 121, 1)" fill="none" transform="matrix(1 0 0 1 1420 358 )" class="stroke" mask="url(#Clip5073)" />
    <path d="M 6.64646534020445 18  L 6.64646534020445 16.816502744877408  L 20.434339549400537 16.816502744877408  L 20.434339549400537 18  L 6.64646534020445 18  Z " stroke-width="0" stroke-dasharray="0" stroke="rgba(121, 121, 121, 1)" fill="none" transform="matrix(1 0 0 1 1420 358 )" class="stroke" mask="url(#Clip5073)" />
    <path d="M 14 22  L 14 10.175896507508073  L 16 10.175896507508073  L 16 22  L 14 22  Z " stroke-width="0" stroke-dasharray="0" stroke="rgba(121, 121, 121, 1)" fill="none" transform="matrix(1 0 0 1 1420 358 )" class="stroke" mask="url(#Clip5073)" />
    <path d="M 9.521883486915433 17.437567457023384  L 9.521883486915433 12.707926060026612  L 11.10100954601826 12.707926060026612  L 11.10100954601826 17.437567457023384  L 9.521883486915433 17.437567457023384  Z " stroke-width="0" stroke-dasharray="0" stroke="rgba(121, 121, 121, 1)" fill="none" transform="matrix(1 0 0 1 1420 358 )" class="stroke" mask="url(#Clip5073)" />
    <path d="M 0 22  L 0 1.051031421554838  L 5.538719243739573 1.051031421554838  L 5.538719243739573 2.6753492578217357  L 1.5791260591028256 2.6753492578217357  L 1.5791260591028256 22  L 0 22  Z " stroke-width="0" stroke-dasharray="0" stroke="rgba(121, 121, 121, 1)" fill="none" transform="matrix(1 0 0 1 1420 358 )" class="stroke" mask="url(#Clip5073)" />
    <path d="M 5.020200910218335 1.5526579836152996  C 5.020200910218335 1.5526579836152996  5.020200910218335 1.051031421554838  5.020200910218335 1.051031421554838  L 5.326598447862243 1.051031421554838  L 5.585857614622862 0.9793715689032398  C 5.585857614622862 0.9793715689032398  6.740738335776091 1.6720961337008127  6.740738335776091 1.6720961337008127  C 6.505048354457116 2.3250098801780332  6.253647768124091 3.0256971781521216  5.986531894033345 3.7741589768104884  C 5.735128966328486 4.506696258303233  5.468011219140274 5.239233539795976  5.185183335212377 5.97177082128872  C 4.918067461121632 6.688383585615842  4.650953928402722 7.36518553162261  4.383838522586345 8.002173811746799  C 5.2480360573046525 8.98950669004544  5.813693229983545 9.913136753744544  6.080808635799924 10.77307207093709  C 6.363636988002186 11.617082396370307  6.505050227554583 12.413320119494065  6.505050227554583 13.161781918152434  C 6.505050227554583 13.79877114746403  6.426485495625158 14.35613660446325  6.269358373138141 14.833878051853246  C 6.127944665311376 15.311619736540091  5.892257025364237 15.669927779781618  5.562290302278686 15.90879862212504  C 5.405163648066035 16.020271666065515  5.216611101081615 16.115814260419057  4.996633597874159 16.19543803273143  C 4.792368572778221 16.25913681328448  4.57239013302203 16.306915822608953  4.336700151703056 16.338765331533903  C 3.849607008542038 16.38653935762448  3.323230562867573 16.402460552634167  2.7575740926002306 16.386536035468545  C 2.7418613803515286 16.163589710290744  2.69472628738881 15.900832092198888  2.616162726145301 15.598262469302416  C 2.5533121112876778 15.295692609109093  2.4511793646025253 15.032934991017235  2.3097651885013937 14.809988903136288  C 2.576880828454955 14.825913657598765  2.8282814147879796 14.833878051853246  3.0639716302441378 14.833878051853246  C 3.2996618457002955 14.833878051853246  3.5039271049334175 14.833878051853246  3.6767667055319526 14.833878051853246  C 3.991020013957252 14.81795329739077  4.242424346485213 14.746288698802125  4.430976893469634 14.618890900399178  C 4.619528972179686 14.475568584830604  4.7452292653461985 14.260589738766367  4.8080801143410055 13.973944633035519  C 4.88664344144733 13.671375010139048  4.9259241684517585 13.344917187713028  4.9259241684517585 12.994573064132279  C 4.9259241684517585 12.325734800489437  4.776656094666703 11.601161675954321  4.478115264352922 10.820850368371005  C 4.195286912150658 10.02461406902836  3.6296299736089486 9.156711747315956  2.781145151139343 8.217153369701592  C 3.0011226543467995 7.675712667164847  3.213242747812579 7.102425777859081  3.417507538771334 6.4972865320661395  C 3.63748504197879 5.876221819920165  3.8417505353490955 5.271077828190175  4.030302614059149 4.6818630995628565  C 4.234567639155086 4.076723853769914  4.415261605711913 3.5034364898704444  4.572388259924562 2.9619962619274025  C 4.745227860523097 2.4205550847969515  4.894499680503089 1.9507756586929172  5.020200910218335 1.5526579836152996  Z " stroke-width="0" stroke-dasharray="0" stroke="rgba(121, 121, 121, 1)" fill="none" transform="matrix(1 0 0 1 1420 358 )" class="stroke" mask="url(#Clip5073)" />
    <path d="M 11.05387117513497 3.5591718253564197  L 11.05387117513497 2.102062843109676  L 17.676765456800307 2.102062843109676  L 17.676765456800307 3.5591718253564197  L 11.05387117513497 3.5591718253564197  Z " stroke-width="0" stroke-dasharray="0" stroke="rgba(121, 121, 121, 1)" fill="none" transform="matrix(1 0 0 1 1420 358 )" class="stroke" mask="url(#Clip5073)" />
    <path d="M 17.252523865045646 2.3887022537160685  C 17.252523865045646 2.3887022537160685  17.252523865045646 2.102062843109676  17.252523865045646 2.102062843109676  L 17.58248871503373 2.102062843109676  L 17.888889998872575 2.030402990458078  C 17.888889998872575 2.030402990458078  18.996632349142512 2.555918701235497  18.996632349142512 2.555918701235497  C 18.493826493732794 3.8139716935056596  17.84174600869688 4.944623802513794  17.040399322973382 5.947881672571763  C 16.254765115361398 6.951138593442323  15.35129153638233 7.834962584758121  14.329967347451374 8.599349375175816  C 13.308643158520416 9.347811648427887  12.224464374399716 9.992762661728591  11.077438487479146 10.534203364265338  C 9.930413068832943 11.059719075042757  8.75196316223807 11.489684360670505  7.54208689459706 11.824103492491927  C 7.447810621104849 11.60115740461098  7.3142522157851095 11.354328337731234  7.141412615186574 11.083608223759715  C 6.968573482862407 10.796963118028867  6.795733882263871 10.566048127253241  6.622894281665337 10.390876065462868  C 7.754207222200022 10.120155951491345  8.861950040744329 9.753891107494612  9.946125078670093 9.292073939973388  C 11.046012594707376 8.814332255286542  12.067339593284535 8.241038247075208  13.010100455109166 7.57219950883866  C 13.968573795045318 6.887436728030194  14.809203080870716 6.115092424966735  15.531986439487891 5.25515710777419  C 16.27048321276532 4.3952227397690535  16.8439947514025 3.439734624458316  17.252523865045646 2.3887022537160685  Z " stroke-width="0" stroke-dasharray="0" stroke="rgba(121, 121, 121, 1)" fill="none" transform="matrix(1 0 0 1 1420 358 )" class="stroke" mask="url(#Clip5073)" />
    <path d="M 9.781142653676051 3.8219296807451295  C 9.781142653676051 3.8219296807451295  11.195286287784835 3.3441922674016253  11.195286287784835 3.3441922674016253  C 11.74522957752911 4.442998189640742  12.499436019271853 5.446250364574255  13.457909359208005 6.3539592332636685  C 14.416383635692888 7.24574358478746  15.539843146818018 8.010130849798859  16.828282273290988 8.647120079110456  C 18.116722336312687 9.268184316662726  19.507294911882358 9.72204254775707  21 10.008687653487918  C 20.8271599311271 10.167934723518965  20.638603637947742 10.390877963837687  20.434339549400537 10.677523069568535  C 20.230074524304598 10.964168175299383  20.065093972408025 11.226926030688091  19.939392274418413 11.465796635734662  C 18.3838372738547 11.099528469581996  16.9539867809268 10.566048601846946  15.64983423979358 9.865360354685448  C 14.345681698660362 9.14874806495203  13.19079629476346 8.280852862145197  12.185184583944022 7.2616709495153104  C 11.195285351236102 6.242488562291718  10.3939372606895 5.0959081393683245  9.781142653676051 3.8219296807451295  Z " stroke-width="0" stroke-dasharray="0" stroke="rgba(121, 121, 121, 1)" fill="none" transform="matrix(1 0 0 1 1420 358 )" class="stroke" mask="url(#Clip5073)" />
    <path d="M 9.922557766325918 3.057545263295958  C 10.81818025726726 1.9905893245754975  11.49382524500115 0.9714078865393144  11.949492729527579 0  C 11.949492729527579 0  13.646462842741158 0.2866394106063927  13.646462842741158 0.2866394106063927  C 13.049381182113597 1.4809943342140641  12.279458516064397 2.6673893722074475  11.336697654239764 3.8458188294620865  C 10.393936792415133 5.024248286716726  9.215487354094627 6.09120042868755  7.801346061357679 7.046683798061242  C 7.722782265976986 6.91928576236144  7.620649753429017 6.78392879023476  7.49494852371377 6.640606237369336  C 7.369247293998524 6.497283684503912  7.227834054446127 6.353962080825896  7.07070693195911 6.210639527960472  C 6.91358027774646 6.067316975095048  6.772167038194063 5.963802392987748  6.64646534020445 5.9001033751378476  C 7.950617881337671 5.0720180414639575  9.042647285221724 4.124502151203829  9.922557766325918 3.057545263295958  Z " stroke-width="0" stroke-dasharray="0" stroke="rgba(121, 121, 121, 1)" fill="none" transform="matrix(1 0 0 1 1420 358 )" class="stroke" mask="url(#Clip5073)" />
  </g>
</svg>