<?xml version="1.0" encoding="utf-8"?>
<svg version="1.1" xmlns:xlink="http://www.w3.org/1999/xlink" width="15px" height="24px" xmlns="http://www.w3.org/2000/svg">
  <defs>
    <pattern id="BGPattern" patternUnits="userSpaceOnUse" alignment="0 0" imageRepeat="None" />
    <mask fill="white" id="Clip5008">
      <path d="M 7 13.333333975538254  L 7 16  C 7 16  5.205780349474274 16  5.205780349474274 16  C 2.527077815177549 16  1.389884388420021 14.181818006671385  1.389884388420021 12.387878606893764  C 1.389884388420021 12.387878606893764  1.389884388420021 6.133333782876778  1.389884388420021 6.133333782876778  L 0 6.133333782876778  L 0 3.7333324342464445  L 1.389884388420021 3.7333324342464445  L 1.389884388420021 0  L 4.675096342983316 0  L 4.675096342983316 3.7333324342464445  L 7 3.7333324342464445  L 7 6.133333782876778  L 4.675096342983316 6.133333782876778  C 4.675096342983316 6.133333782876778  4.675096342983316 12.193939785100573  4.675096342983316 12.193939785100573  C 4.675096342983316 12.92121253426665  5.028889069719268 13.333333975538254  5.812283242632832 13.333333975538254  C 5.812283242632832 13.333333975538254  7 13.333333975538254  7 13.333333975538254  Z " fill-rule="evenodd" />
    </mask>
  </defs>
  <g transform="matrix(1 0 0 1 -1660 -428 )">
    <path d="M 7 13.333333975538254  L 7 16  C 7 16  5.205780349474274 16  5.205780349474274 16  C 2.527077815177549 16  1.389884388420021 14.181818006671385  1.389884388420021 12.387878606893764  C 1.389884388420021 12.387878606893764  1.389884388420021 6.133333782876778  1.389884388420021 6.133333782876778  L 0 6.133333782876778  L 0 3.7333324342464445  L 1.389884388420021 3.7333324342464445  L 1.389884388420021 0  L 4.675096342983316 0  L 4.675096342983316 3.7333324342464445  L 7 3.7333324342464445  L 7 6.133333782876778  L 4.675096342983316 6.133333782876778  C 4.675096342983316 6.133333782876778  4.675096342983316 12.193939785100573  4.675096342983316 12.193939785100573  C 4.675096342983316 12.92121253426665  5.028889069719268 13.333333975538254  5.812283242632832 13.333333975538254  C 5.812283242632832 13.333333975538254  7 13.333333975538254  7 13.333333975538254  Z " fill-rule="nonzero" fill="rgba(255, 255, 255, 1)" stroke="none" transform="matrix(1 0 0 1 1664 428 )" class="fill" />
    <path d="M 7 13.333333975538254  L 7 16  C 7 16  5.205780349474274 16  5.205780349474274 16  C 2.527077815177549 16  1.389884388420021 14.181818006671385  1.389884388420021 12.387878606893764  C 1.389884388420021 12.387878606893764  1.389884388420021 6.133333782876778  1.389884388420021 6.133333782876778  L 0 6.133333782876778  L 0 3.7333324342464445  L 1.389884388420021 3.7333324342464445  L 1.389884388420021 0  L 4.675096342983316 0  L 4.675096342983316 3.7333324342464445  L 7 3.7333324342464445  L 7 6.133333782876778  L 4.675096342983316 6.133333782876778  C 4.675096342983316 6.133333782876778  4.675096342983316 12.193939785100573  4.675096342983316 12.193939785100573  C 4.675096342983316 12.92121253426665  5.028889069719268 13.333333975538254  5.812283242632832 13.333333975538254  C 5.812283242632832 13.333333975538254  7 13.333333975538254  7 13.333333975538254  Z " stroke-width="0" stroke-dasharray="0" stroke="rgba(121, 121, 121, 1)" fill="none" transform="matrix(1 0 0 1 1664 428 )" class="stroke" mask="url(#Clip5008)" />
  </g>
  <style>svg { filter: drop-shadow(0px 4px 2px rgba(0, 0, 0, 0.12941176470588237)); }</style>
</svg>