<?xml version="1.0" encoding="utf-8"?>
<svg version="1.1" xmlns:xlink="http://www.w3.org/1999/xlink" width="22px" height="22px" xmlns="http://www.w3.org/2000/svg">
  <defs>
    <pattern id="BGPattern" patternUnits="userSpaceOnUse" alignment="0 0" imageRepeat="None" />
    <mask fill="white" id="Clip5084">
      <path d="M 8.08405623937222 5.422371683712916  L 8.08405623937222 4  L 21.146538340853564 4  L 21.146538340853564 5.422371683712916  L 8.08405623937222 5.422371683712916  Z M 8.558189882558313 11  L 8.558189882558313 9  L 19.012914337861 9  L 19.012914337861 11  L 8.558189882558313 11  Z M 13.678884475253115 9.960913511453755  L 13.678884475253115 0  L 15.433180462285337 0  L 15.433180462285337 9.960913511453755  L 13.678884475253115 9.960913511453755  Z M 9.269397883555834 10.701416118094059  C 9.269397883555834 10.701416118094059  10.857761414287848 10.223671276149242  10.857761414287848 10.223671276149242  C 11.758623531978916 12.739776866826636  13.149427452936315 14.88961655344303  15.030173648173701 16.6731848781727  C 16.910920785438382 18.456753202902373  19.23419560802895 19.71480552364753  22 20.447342552298483  C 21.873562980177006 20.574740277066844  21.73131497419188 20.726018777595456  21.573269170426784 20.901190660275244  C 21.431027758632737 21.092287291920933  21.296698434110844 21.283387838963336  21.170262356315146 21.474484470609028  C 21.04382533649215 21.665581042930523  20.9331945926948 21.840752866286117  20.838367298841206 22  C 17.993540004987608 21.140065335566973  15.607045730458244 19.746655733469648  13.678884475253115 17.81976490534361  C 11.766528554046333 15.892874195865963  10.296696550056247 13.520091227233317  9.269397883555834 10.701416118094059  Z M 18.870690824585612 9.339849013673817  C 18.870690824585612 9.339849013673817  18.870690824585612 9.029320561532174  18.870690824585612 9.029320561532174  L 19.20258588205955 9.029320561532174  L 19.534480939533495 8.957653140117962  C 19.534480939533495 8.957653140117962  20.672419770104234 9.459287122534185  20.672419770104234 9.459287122534185  C 20.16667263283955 11.163232177027876  19.479160386484683 12.692006179380481  18.609907523749364 14.045607231217831  C 17.740654661014048 15.399208045758412  16.72916980675766 16.593560302804484  15.575434120434252 17.628666968565685  C 14.43750376810919 18.647848885360983  13.196837802767572 19.515743195364102  11.853446586709673 20.23235547504915  C 10.525860704650121 20.9489677547342  9.135056783692718 21.522261921013136  7.681034352823821 21.952229312553843  C 7.617815842912324 21.79298217883996  7.530883208825871 21.609846023303064  7.420251051987575 21.402824642691467  C 7.325423287120328 21.21172807036997  7.21479254332298 21.01267063633243  7.088355994513633 20.805649285382934  C 6.961918974690638 20.61455268339934  6.83549467223616 20.46326661903617  6.709058123426814 20.35179358390952  C 8.068253260442116 19.985525069584043  9.380028156339534 19.483895536482265  10.644395999501238 18.846906823654155  C 11.924568234633993 18.20991811082605  13.102014277023166 17.437566421523282  14.176727061464026 16.52985762884093  C 15.267244237875936 15.6062238498959  16.21550964019353 14.547229111498762  17.02154399301735 13.35287531202368  C 17.82757834584117 12.142596763582695  18.443966589203477 10.804923070975724  18.870690824585612 9.339849013673817  Z M 0.5215515292357316 14.380024823830876  C 0.5215515292357316 14.380024823830876  0 12.636269439351432  0 12.636269439351432  C 0.6637930587831885 12.477022424285934  1.4145101556537396 12.285921639946762  2.252153645679897 12.06297562901765  C 3.089797253459467 11.824104631825863  3.9748578052613768 11.577268531238266  4.907329177908192 11.322473022377343  C 5.855604942526059 11.051753001847292  6.795981337240291 10.781038201846187  7.728452238873459 10.510318181316132  C 7.728452238873459 10.510318181316132  7.965511524248125 12.158524597406615  7.965511524248125 12.158524597406615  C 6.669534426130673 12.556642609663898  5.365664081287021 12.94680026446078  4.053882591198519 13.32899376504893  C 2.757905728587891 13.71118679104354  1.580459332938481 14.06153031910634  0.5215515292357316 14.380024823830876  Z M 0.2844771714243042 6.521173429941019  L 0.2844771714243042 4.825196326404383  L 7.728452238873459 4.825196326404383  L 7.728452238873459 6.521173429941019  L 0.2844771714243042 6.521173429941019  Z M 3.3426745902009976 19.802388914047143  C 3.3426745902009976 19.802388914047143  3.3426745902009976 0  3.3426745902009976 0  L 5.096985649669982 0  C 5.096985649669982 0  5.096985649669982 19.802388914047143  5.096985649669982 19.802388914047143  C 5.096985649669982 20.311979872444788  5.033765726717538 20.702137883186825  4.907329177908192 20.972858081689456  C 4.780892393592022 21.24357828019209  4.5596311415041475 21.450600135397224  4.243539062960308 21.593922579469393  C 3.9274472199232946 21.73724508286576  3.508622354444793 21.824830964881457  2.987070589702237 21.856680344164882  C 2.48132368794438 21.90445447241421  1.817524270476933 21.920375661928556  0.9956851724218254 21.904451031611035  C 0.9640760352194889 21.681504902033538  0.8929520322269251 21.41078292380513  0.7823197576352169 21.092288597053173  C 0.6716876007969208 20.789718959942924  0.5610568569995711 20.511040065057283  0.4504247001612751 20.256244615520554  C 1.0035856021061675 20.272169334824362  1.5093432194245344 20.28013375599196  1.9676764742555928 20.28013375599196  C 2.4260097290866516 20.28013375599196  2.734188778331043 20.28013375599196  2.892234817602962 20.28013375599196  C 3.192522033162101 20.28013375599196  3.3426745902009976 20.120883270461196  3.3426745902009976 19.802388914047143  Z " fill-rule="evenodd" />
    </mask>
  </defs>
  <g transform="matrix(1 0 0 1 -1611 -327 )">
    <path d="M 8.08405623937222 5.422371683712916  L 8.08405623937222 4  L 21.146538340853564 4  L 21.146538340853564 5.422371683712916  L 8.08405623937222 5.422371683712916  Z M 8.558189882558313 11  L 8.558189882558313 9  L 19.012914337861 9  L 19.012914337861 11  L 8.558189882558313 11  Z M 13.678884475253115 9.960913511453755  L 13.678884475253115 0  L 15.433180462285337 0  L 15.433180462285337 9.960913511453755  L 13.678884475253115 9.960913511453755  Z M 9.269397883555834 10.701416118094059  C 9.269397883555834 10.701416118094059  10.857761414287848 10.223671276149242  10.857761414287848 10.223671276149242  C 11.758623531978916 12.739776866826636  13.149427452936315 14.88961655344303  15.030173648173701 16.6731848781727  C 16.910920785438382 18.456753202902373  19.23419560802895 19.71480552364753  22 20.447342552298483  C 21.873562980177006 20.574740277066844  21.73131497419188 20.726018777595456  21.573269170426784 20.901190660275244  C 21.431027758632737 21.092287291920933  21.296698434110844 21.283387838963336  21.170262356315146 21.474484470609028  C 21.04382533649215 21.665581042930523  20.9331945926948 21.840752866286117  20.838367298841206 22  C 17.993540004987608 21.140065335566973  15.607045730458244 19.746655733469648  13.678884475253115 17.81976490534361  C 11.766528554046333 15.892874195865963  10.296696550056247 13.520091227233317  9.269397883555834 10.701416118094059  Z M 18.870690824585612 9.339849013673817  C 18.870690824585612 9.339849013673817  18.870690824585612 9.029320561532174  18.870690824585612 9.029320561532174  L 19.20258588205955 9.029320561532174  L 19.534480939533495 8.957653140117962  C 19.534480939533495 8.957653140117962  20.672419770104234 9.459287122534185  20.672419770104234 9.459287122534185  C 20.16667263283955 11.163232177027876  19.479160386484683 12.692006179380481  18.609907523749364 14.045607231217831  C 17.740654661014048 15.399208045758412  16.72916980675766 16.593560302804484  15.575434120434252 17.628666968565685  C 14.43750376810919 18.647848885360983  13.196837802767572 19.515743195364102  11.853446586709673 20.23235547504915  C 10.525860704650121 20.9489677547342  9.135056783692718 21.522261921013136  7.681034352823821 21.952229312553843  C 7.617815842912324 21.79298217883996  7.530883208825871 21.609846023303064  7.420251051987575 21.402824642691467  C 7.325423287120328 21.21172807036997  7.21479254332298 21.01267063633243  7.088355994513633 20.805649285382934  C 6.961918974690638 20.61455268339934  6.83549467223616 20.46326661903617  6.709058123426814 20.35179358390952  C 8.068253260442116 19.985525069584043  9.380028156339534 19.483895536482265  10.644395999501238 18.846906823654155  C 11.924568234633993 18.20991811082605  13.102014277023166 17.437566421523282  14.176727061464026 16.52985762884093  C 15.267244237875936 15.6062238498959  16.21550964019353 14.547229111498762  17.02154399301735 13.35287531202368  C 17.82757834584117 12.142596763582695  18.443966589203477 10.804923070975724  18.870690824585612 9.339849013673817  Z M 0.5215515292357316 14.380024823830876  C 0.5215515292357316 14.380024823830876  0 12.636269439351432  0 12.636269439351432  C 0.6637930587831885 12.477022424285934  1.4145101556537396 12.285921639946762  2.252153645679897 12.06297562901765  C 3.089797253459467 11.824104631825863  3.9748578052613768 11.577268531238266  4.907329177908192 11.322473022377343  C 5.855604942526059 11.051753001847292  6.795981337240291 10.781038201846187  7.728452238873459 10.510318181316132  C 7.728452238873459 10.510318181316132  7.965511524248125 12.158524597406615  7.965511524248125 12.158524597406615  C 6.669534426130673 12.556642609663898  5.365664081287021 12.94680026446078  4.053882591198519 13.32899376504893  C 2.757905728587891 13.71118679104354  1.580459332938481 14.06153031910634  0.5215515292357316 14.380024823830876  Z M 0.2844771714243042 6.521173429941019  L 0.2844771714243042 4.825196326404383  L 7.728452238873459 4.825196326404383  L 7.728452238873459 6.521173429941019  L 0.2844771714243042 6.521173429941019  Z M 3.3426745902009976 19.802388914047143  C 3.3426745902009976 19.802388914047143  3.3426745902009976 0  3.3426745902009976 0  L 5.096985649669982 0  C 5.096985649669982 0  5.096985649669982 19.802388914047143  5.096985649669982 19.802388914047143  C 5.096985649669982 20.311979872444788  5.033765726717538 20.702137883186825  4.907329177908192 20.972858081689456  C 4.780892393592022 21.24357828019209  4.5596311415041475 21.450600135397224  4.243539062960308 21.593922579469393  C 3.9274472199232946 21.73724508286576  3.508622354444793 21.824830964881457  2.987070589702237 21.856680344164882  C 2.48132368794438 21.90445447241421  1.817524270476933 21.920375661928556  0.9956851724218254 21.904451031611035  C 0.9640760352194889 21.681504902033538  0.8929520322269251 21.41078292380513  0.7823197576352169 21.092288597053173  C 0.6716876007969208 20.789718959942924  0.5610568569995711 20.511040065057283  0.4504247001612751 20.256244615520554  C 1.0035856021061675 20.272169334824362  1.5093432194245344 20.28013375599196  1.9676764742555928 20.28013375599196  C 2.4260097290866516 20.28013375599196  2.734188778331043 20.28013375599196  2.892234817602962 20.28013375599196  C 3.192522033162101 20.28013375599196  3.3426745902009976 20.120883270461196  3.3426745902009976 19.802388914047143  Z " fill-rule="nonzero" fill="rgba(255, 255, 255, 1)" stroke="none" transform="matrix(1 0 0 1 1611 327 )" class="fill" />
    <path d="M 8.08405623937222 5.422371683712916  L 8.08405623937222 4  L 21.146538340853564 4  L 21.146538340853564 5.422371683712916  L 8.08405623937222 5.422371683712916  Z " stroke-width="0" stroke-dasharray="0" stroke="rgba(121, 121, 121, 1)" fill="none" transform="matrix(1 0 0 1 1611 327 )" class="stroke" mask="url(#Clip5084)" />
    <path d="M 8.558189882558313 11  L 8.558189882558313 9  L 19.012914337861 9  L 19.012914337861 11  L 8.558189882558313 11  Z " stroke-width="0" stroke-dasharray="0" stroke="rgba(121, 121, 121, 1)" fill="none" transform="matrix(1 0 0 1 1611 327 )" class="stroke" mask="url(#Clip5084)" />
    <path d="M 13.678884475253115 9.960913511453755  L 13.678884475253115 0  L 15.433180462285337 0  L 15.433180462285337 9.960913511453755  L 13.678884475253115 9.960913511453755  Z " stroke-width="0" stroke-dasharray="0" stroke="rgba(121, 121, 121, 1)" fill="none" transform="matrix(1 0 0 1 1611 327 )" class="stroke" mask="url(#Clip5084)" />
    <path d="M 9.269397883555834 10.701416118094059  C 9.269397883555834 10.701416118094059  10.857761414287848 10.223671276149242  10.857761414287848 10.223671276149242  C 11.758623531978916 12.739776866826636  13.149427452936315 14.88961655344303  15.030173648173701 16.6731848781727  C 16.910920785438382 18.456753202902373  19.23419560802895 19.71480552364753  22 20.447342552298483  C 21.873562980177006 20.574740277066844  21.73131497419188 20.726018777595456  21.573269170426784 20.901190660275244  C 21.431027758632737 21.092287291920933  21.296698434110844 21.283387838963336  21.170262356315146 21.474484470609028  C 21.04382533649215 21.665581042930523  20.9331945926948 21.840752866286117  20.838367298841206 22  C 17.993540004987608 21.140065335566973  15.607045730458244 19.746655733469648  13.678884475253115 17.81976490534361  C 11.766528554046333 15.892874195865963  10.296696550056247 13.520091227233317  9.269397883555834 10.701416118094059  Z " stroke-width="0" stroke-dasharray="0" stroke="rgba(121, 121, 121, 1)" fill="none" transform="matrix(1 0 0 1 1611 327 )" class="stroke" mask="url(#Clip5084)" />
    <path d="M 18.870690824585612 9.339849013673817  C 18.870690824585612 9.339849013673817  18.870690824585612 9.029320561532174  18.870690824585612 9.029320561532174  L 19.20258588205955 9.029320561532174  L 19.534480939533495 8.957653140117962  C 19.534480939533495 8.957653140117962  20.672419770104234 9.459287122534185  20.672419770104234 9.459287122534185  C 20.16667263283955 11.163232177027876  19.479160386484683 12.692006179380481  18.609907523749364 14.045607231217831  C 17.740654661014048 15.399208045758412  16.72916980675766 16.593560302804484  15.575434120434252 17.628666968565685  C 14.43750376810919 18.647848885360983  13.196837802767572 19.515743195364102  11.853446586709673 20.23235547504915  C 10.525860704650121 20.9489677547342  9.135056783692718 21.522261921013136  7.681034352823821 21.952229312553843  C 7.617815842912324 21.79298217883996  7.530883208825871 21.609846023303064  7.420251051987575 21.402824642691467  C 7.325423287120328 21.21172807036997  7.21479254332298 21.01267063633243  7.088355994513633 20.805649285382934  C 6.961918974690638 20.61455268339934  6.83549467223616 20.46326661903617  6.709058123426814 20.35179358390952  C 8.068253260442116 19.985525069584043  9.380028156339534 19.483895536482265  10.644395999501238 18.846906823654155  C 11.924568234633993 18.20991811082605  13.102014277023166 17.437566421523282  14.176727061464026 16.52985762884093  C 15.267244237875936 15.6062238498959  16.21550964019353 14.547229111498762  17.02154399301735 13.35287531202368  C 17.82757834584117 12.142596763582695  18.443966589203477 10.804923070975724  18.870690824585612 9.339849013673817  Z " stroke-width="0" stroke-dasharray="0" stroke="rgba(121, 121, 121, 1)" fill="none" transform="matrix(1 0 0 1 1611 327 )" class="stroke" mask="url(#Clip5084)" />
    <path d="M 0.5215515292357316 14.380024823830876  C 0.5215515292357316 14.380024823830876  0 12.636269439351432  0 12.636269439351432  C 0.6637930587831885 12.477022424285934  1.4145101556537396 12.285921639946762  2.252153645679897 12.06297562901765  C 3.089797253459467 11.824104631825863  3.9748578052613768 11.577268531238266  4.907329177908192 11.322473022377343  C 5.855604942526059 11.051753001847292  6.795981337240291 10.781038201846187  7.728452238873459 10.510318181316132  C 7.728452238873459 10.510318181316132  7.965511524248125 12.158524597406615  7.965511524248125 12.158524597406615  C 6.669534426130673 12.556642609663898  5.365664081287021 12.94680026446078  4.053882591198519 13.32899376504893  C 2.757905728587891 13.71118679104354  1.580459332938481 14.06153031910634  0.5215515292357316 14.380024823830876  Z " stroke-width="0" stroke-dasharray="0" stroke="rgba(121, 121, 121, 1)" fill="none" transform="matrix(1 0 0 1 1611 327 )" class="stroke" mask="url(#Clip5084)" />
    <path d="M 0.2844771714243042 6.521173429941019  L 0.2844771714243042 4.825196326404383  L 7.728452238873459 4.825196326404383  L 7.728452238873459 6.521173429941019  L 0.2844771714243042 6.521173429941019  Z " stroke-width="0" stroke-dasharray="0" stroke="rgba(121, 121, 121, 1)" fill="none" transform="matrix(1 0 0 1 1611 327 )" class="stroke" mask="url(#Clip5084)" />
    <path d="M 3.3426745902009976 19.802388914047143  C 3.3426745902009976 19.802388914047143  3.3426745902009976 0  3.3426745902009976 0  L 5.096985649669982 0  C 5.096985649669982 0  5.096985649669982 19.802388914047143  5.096985649669982 19.802388914047143  C 5.096985649669982 20.311979872444788  5.033765726717538 20.702137883186825  4.907329177908192 20.972858081689456  C 4.780892393592022 21.24357828019209  4.5596311415041475 21.450600135397224  4.243539062960308 21.593922579469393  C 3.9274472199232946 21.73724508286576  3.508622354444793 21.824830964881457  2.987070589702237 21.856680344164882  C 2.48132368794438 21.90445447241421  1.817524270476933 21.920375661928556  0.9956851724218254 21.904451031611035  C 0.9640760352194889 21.681504902033538  0.8929520322269251 21.41078292380513  0.7823197576352169 21.092288597053173  C 0.6716876007969208 20.789718959942924  0.5610568569995711 20.511040065057283  0.4504247001612751 20.256244615520554  C 1.0035856021061675 20.272169334824362  1.5093432194245344 20.28013375599196  1.9676764742555928 20.28013375599196  C 2.4260097290866516 20.28013375599196  2.734188778331043 20.28013375599196  2.892234817602962 20.28013375599196  C 3.192522033162101 20.28013375599196  3.3426745902009976 20.120883270461196  3.3426745902009976 19.802388914047143  Z " stroke-width="0" stroke-dasharray="0" stroke="rgba(121, 121, 121, 1)" fill="none" transform="matrix(1 0 0 1 1611 327 )" class="stroke" mask="url(#Clip5084)" />
  </g>
</svg>