<?xml version="1.0" encoding="utf-8"?>
<svg version="1.1" xmlns:xlink="http://www.w3.org/1999/xlink" width="9px" height="12px" xmlns="http://www.w3.org/2000/svg">
  <defs>
    <pattern id="BGPattern" patternUnits="userSpaceOnUse" alignment="0 0" imageRepeat="None" />
    <mask fill="white" id="Clip5117">
      <path d="M 9 0  L 9 11.855420671561642  L 7.348836939473825 11.855420671561642  C 7.348836939473825 11.855420671561642  7.348836939473825 10.530119735920296  7.348836939473825 10.530119735920296  C 6.534883627206616 11.493975222978827  5.395348296955338 12  4.116279202293828 12  C 2.883720784871408 12  1.8604652088087543 11.61445775730137  1.1627908421401196 10.891566142007472  C 0.34883735660361376 10.072289025882938  0 8.939758493462639  0 7.5662645680298874  C 0 7.5662645680298874  0 0  0 0  L 1.6744185724150145 0  C 1.6744185724150145 0  1.6744185724150145 7.301204380901618  1.6744185724150145 7.301204380901618  C 1.6744185724150145 9.397590041316313  2.7441859808454 10.457831986709838  4.465116039089553 10.457831986709838  C 6.186046097333707 10.457831986709838  7.325580965533528 9.373493725952677  7.325580965533528 7.301204380901618  C 7.325580965533528 7.301204380901618  7.325580965533528 0  7.325580965533528 0  L 9 0  Z " fill-rule="evenodd" />
    </mask>
  </defs>
  <g transform="matrix(1 0 0 1 -1379 -304 )">
    <path d="M 9 0  L 9 11.855420671561642  L 7.348836939473825 11.855420671561642  C 7.348836939473825 11.855420671561642  7.348836939473825 10.530119735920296  7.348836939473825 10.530119735920296  C 6.534883627206616 11.493975222978827  5.395348296955338 12  4.116279202293828 12  C 2.883720784871408 12  1.8604652088087543 11.61445775730137  1.1627908421401196 10.891566142007472  C 0.34883735660361376 10.072289025882938  0 8.939758493462639  0 7.5662645680298874  C 0 7.5662645680298874  0 0  0 0  L 1.6744185724150145 0  C 1.6744185724150145 0  1.6744185724150145 7.301204380901618  1.6744185724150145 7.301204380901618  C 1.6744185724150145 9.397590041316313  2.7441859808454 10.457831986709838  4.465116039089553 10.457831986709838  C 6.186046097333707 10.457831986709838  7.325580965533528 9.373493725952677  7.325580965533528 7.301204380901618  C 7.325580965533528 7.301204380901618  7.325580965533528 0  7.325580965533528 0  L 9 0  Z " fill-rule="nonzero" fill="rgba(255, 255, 255, 1)" stroke="none" transform="matrix(1 0 0 1 1379 304 )" class="fill" />
    <path d="M 9 0  L 9 11.855420671561642  L 7.348836939473825 11.855420671561642  C 7.348836939473825 11.855420671561642  7.348836939473825 10.530119735920296  7.348836939473825 10.530119735920296  C 6.534883627206616 11.493975222978827  5.395348296955338 12  4.116279202293828 12  C 2.883720784871408 12  1.8604652088087543 11.61445775730137  1.1627908421401196 10.891566142007472  C 0.34883735660361376 10.072289025882938  0 8.939758493462639  0 7.5662645680298874  C 0 7.5662645680298874  0 0  0 0  L 1.6744185724150145 0  C 1.6744185724150145 0  1.6744185724150145 7.301204380901618  1.6744185724150145 7.301204380901618  C 1.6744185724150145 9.397590041316313  2.7441859808454 10.457831986709838  4.465116039089553 10.457831986709838  C 6.186046097333707 10.457831986709838  7.325580965533528 9.373493725952677  7.325580965533528 7.301204380901618  C 7.325580965533528 7.301204380901618  7.325580965533528 0  7.325580965533528 0  L 9 0  Z " stroke-width="0" stroke-dasharray="0" stroke="rgba(121, 121, 121, 1)" fill="none" transform="matrix(1 0 0 1 1379 304 )" class="stroke" mask="url(#Clip5117)" />
  </g>
</svg>