<?xml version="1.0" encoding="utf-8"?>
<svg version="1.1" xmlns:xlink="http://www.w3.org/1999/xlink" width="57px" height="44px" xmlns="http://www.w3.org/2000/svg">
  <defs>
    <pattern id="BGPattern" patternUnits="userSpaceOnUse" alignment="0 0" imageRepeat="None" />
    <mask fill="white" id="Clip4441">
      <path d="M 28.650816379293197 34.99237392373924  C 28.650816379293197 34.99237392373924  28.650816379293197 14.485608856088561  28.650816379293197 14.485608856088561  C 28.650816379293197 10.100420894833947  31.6527727282332 8.552029520295203  34.20732653182984 8.552029520295203  C 34.20732653182984 8.552029520295203  34.452896605214484 8.556949569495695  34.452896605214484 8.556949569495695  C 37.00208194179538 8.651905640699473  39.6994576051916 10.242786650522754  39.69952071276575 14.678474784747847  C 39.69952071276575 14.678474784747847  39.69952071276575 34.99237392373924  39.69952071276575 34.99237392373924  L 48.00212795577034 34.99237392373924  C 48.00212795577034 34.99237392373924  48.00212795577034 13.518327183271833  48.00212795577034 13.518327183271833  C 48.00212795577034 9.842506534440345  47.043733950216776 6.681932272447725  44.361454169401185 3.9734317343173435  C 42.62508257461984 2.2201670366313038  39.878277698228025 1.1476369409690192  36.80530199073246 1.0204182041820418  C 36.80530199073246 1.0204182041820418  36.18650438517989 1.0076260762607625  36.18650438517989 1.0076260762607625  C 32.035602357842116 1.0077199058852366  29.034249113882613 2.2971419030596554  26.22435017799256 5.263468634686347  C 24.182684938793304 2.4521638126537515  21.301759744921867 1.093716862339522  17.75608058389515 1.0115621156211563  C 17.75608058389515 1.0115621156211563  17.411113099854823 1.0076260762607625  17.411113099854823 1.0076260762607625  C 14.345712961901265 1.0076260762607625  11.279868167849658 2.232059838176507  9.108505856850229 4.489052890528906  C 9.108505856850229 4.489052890528906  9.108505856850229 1.3943419434194344  9.108505856850229 1.3943419434194344  L 1 1.3943419434194344  L 1 34.99237392373924  L 9.300479287234255 34.99237392373924  C 9.300479287234255 34.99237392373924  9.300479287234255 14.678474784747847  9.300479287234255 14.678474784747847  C 9.300545875000779 10.100194591789668  12.237736151662839 8.552199008324049  14.856014955352704 8.552029520295203  C 17.474402008654454 8.552029520295203  20.349118483329004 10.099943784594096  20.3491836207068 14.678474784747847  C 20.3491836207068 14.678474784747847  20.3491836207068 34.99237392373924  20.3491836207068 34.99237392373924  L 28.650816379293197 34.99237392373924  Z M 10.106377901079888 1  C 10.106377901079888 1  10.106377901079888 2.3143911439114393  10.106377901079888 2.3143911439114393  C 12.243512160623993 0.8001660036131611  14.830185884223422 0  17.411113099854823 0  C 20.992817493805376 2.5812858145175382E-05  24.041204361439252 1.1948111258456335  26.30718135353897 3.766789667896679  C 29.091379214544116 1.1619253536285363  32.15896171225551 8.71355389903539E-05  36.18650438517989 0  C 39.70027655675906 0  42.98252945457616 1.1562660958640838  45.06698088817294 3.2610086100861007  C 47.97725957020762 6.199736940728782  49 9.639900205642682  49 13.518327183271833  C 49 13.518327183271833  49 36  49 36  L 38.70164866853609 36  C 38.70164866853609 36  38.70164866853609 14.678474784747847  38.70164866853609 14.678474784747847  C 38.70161652106 12.614101418357933  38.06208640831177 11.375839807714483  37.26428415170137 10.644034440344402  C 36.44614500481959 9.893641052621463  35.33487732869459 9.559684147072675  34.20732653182984 9.559655596555967  C 33.11352677439442 9.559655596555967  31.973880748780264 9.893303580008457  31.124057832667106 10.636162361623615  C 30.301277216025653 11.355455597036439  29.648688423522863 12.546091347632226  29.648688423522863 14.485608856088561  C 29.648688423522863 14.485608856088561  29.648688423522863 36  29.648688423522863 36  L 19.351311576477137 36  C 19.351311576477137 36  19.351311576477137 14.678474784747847  19.351311576477137 14.678474784747847  C 19.351279431651122 12.614186221940345  18.711703339906677 11.375851279020603  17.913947059642425 10.644034440344402  C 17.095761817458886 9.893532225361316  15.983672217495071 9.559655596555967  14.856014955352704 9.559655596555967  C 13.727616242846738 9.559740586129795  12.597412081456847 9.89436969076722  11.76202692758984 10.648954489544895  C 10.949167268921965 11.3833591587869  10.298384159834582 12.621185760685732  10.298351331463914 14.678474784747847  C 10.298351331463914 14.678474784747847  10.298351331463914 36  10.298351331463914 36  L 0 36  L 0 1  L 10.106377901079888 1  Z " fill-rule="evenodd" />
    </mask>
  </defs>
  <g transform="matrix(1 0 0 1 -617 -323 )">
    <path d="M 28.650816379293197 34.99237392373924  C 28.650816379293197 34.99237392373924  28.650816379293197 14.485608856088561  28.650816379293197 14.485608856088561  C 28.650816379293197 10.100420894833947  31.6527727282332 8.552029520295203  34.20732653182984 8.552029520295203  C 34.20732653182984 8.552029520295203  34.452896605214484 8.556949569495695  34.452896605214484 8.556949569495695  C 37.00208194179538 8.651905640699473  39.6994576051916 10.242786650522754  39.69952071276575 14.678474784747847  C 39.69952071276575 14.678474784747847  39.69952071276575 34.99237392373924  39.69952071276575 34.99237392373924  L 48.00212795577034 34.99237392373924  C 48.00212795577034 34.99237392373924  48.00212795577034 13.518327183271833  48.00212795577034 13.518327183271833  C 48.00212795577034 9.842506534440345  47.043733950216776 6.681932272447725  44.361454169401185 3.9734317343173435  C 42.62508257461984 2.2201670366313038  39.878277698228025 1.1476369409690192  36.80530199073246 1.0204182041820418  C 36.80530199073246 1.0204182041820418  36.18650438517989 1.0076260762607625  36.18650438517989 1.0076260762607625  C 32.035602357842116 1.0077199058852366  29.034249113882613 2.2971419030596554  26.22435017799256 5.263468634686347  C 24.182684938793304 2.4521638126537515  21.301759744921867 1.093716862339522  17.75608058389515 1.0115621156211563  C 17.75608058389515 1.0115621156211563  17.411113099854823 1.0076260762607625  17.411113099854823 1.0076260762607625  C 14.345712961901265 1.0076260762607625  11.279868167849658 2.232059838176507  9.108505856850229 4.489052890528906  C 9.108505856850229 4.489052890528906  9.108505856850229 1.3943419434194344  9.108505856850229 1.3943419434194344  L 1 1.3943419434194344  L 1 34.99237392373924  L 9.300479287234255 34.99237392373924  C 9.300479287234255 34.99237392373924  9.300479287234255 14.678474784747847  9.300479287234255 14.678474784747847  C 9.300545875000779 10.100194591789668  12.237736151662839 8.552199008324049  14.856014955352704 8.552029520295203  C 17.474402008654454 8.552029520295203  20.349118483329004 10.099943784594096  20.3491836207068 14.678474784747847  C 20.3491836207068 14.678474784747847  20.3491836207068 34.99237392373924  20.3491836207068 34.99237392373924  L 28.650816379293197 34.99237392373924  Z M 10.106377901079888 1  C 10.106377901079888 1  10.106377901079888 2.3143911439114393  10.106377901079888 2.3143911439114393  C 12.243512160623993 0.8001660036131611  14.830185884223422 0  17.411113099854823 0  C 20.992817493805376 2.5812858145175382E-05  24.041204361439252 1.1948111258456335  26.30718135353897 3.766789667896679  C 29.091379214544116 1.1619253536285363  32.15896171225551 8.71355389903539E-05  36.18650438517989 0  C 39.70027655675906 0  42.98252945457616 1.1562660958640838  45.06698088817294 3.2610086100861007  C 47.97725957020762 6.199736940728782  49 9.639900205642682  49 13.518327183271833  C 49 13.518327183271833  49 36  49 36  L 38.70164866853609 36  C 38.70164866853609 36  38.70164866853609 14.678474784747847  38.70164866853609 14.678474784747847  C 38.70161652106 12.614101418357933  38.06208640831177 11.375839807714483  37.26428415170137 10.644034440344402  C 36.44614500481959 9.893641052621463  35.33487732869459 9.559684147072675  34.20732653182984 9.559655596555967  C 33.11352677439442 9.559655596555967  31.973880748780264 9.893303580008457  31.124057832667106 10.636162361623615  C 30.301277216025653 11.355455597036439  29.648688423522863 12.546091347632226  29.648688423522863 14.485608856088561  C 29.648688423522863 14.485608856088561  29.648688423522863 36  29.648688423522863 36  L 19.351311576477137 36  C 19.351311576477137 36  19.351311576477137 14.678474784747847  19.351311576477137 14.678474784747847  C 19.351279431651122 12.614186221940345  18.711703339906677 11.375851279020603  17.913947059642425 10.644034440344402  C 17.095761817458886 9.893532225361316  15.983672217495071 9.559655596555967  14.856014955352704 9.559655596555967  C 13.727616242846738 9.559740586129795  12.597412081456847 9.89436969076722  11.76202692758984 10.648954489544895  C 10.949167268921965 11.3833591587869  10.298384159834582 12.621185760685732  10.298351331463914 14.678474784747847  C 10.298351331463914 14.678474784747847  10.298351331463914 36  10.298351331463914 36  L 0 36  L 0 1  L 10.106377901079888 1  Z " fill-rule="nonzero" fill="rgba(190, 190, 190, 0.058823529411764705)" stroke="none" transform="matrix(1 0 0 1 621 323 )" class="fill" />
    <path d="M 28.650816379293197 34.99237392373924  C 28.650816379293197 34.99237392373924  28.650816379293197 14.485608856088561  28.650816379293197 14.485608856088561  C 28.650816379293197 10.100420894833947  31.6527727282332 8.552029520295203  34.20732653182984 8.552029520295203  C 34.20732653182984 8.552029520295203  34.452896605214484 8.556949569495695  34.452896605214484 8.556949569495695  C 37.00208194179538 8.651905640699473  39.6994576051916 10.242786650522754  39.69952071276575 14.678474784747847  C 39.69952071276575 14.678474784747847  39.69952071276575 34.99237392373924  39.69952071276575 34.99237392373924  L 48.00212795577034 34.99237392373924  C 48.00212795577034 34.99237392373924  48.00212795577034 13.518327183271833  48.00212795577034 13.518327183271833  C 48.00212795577034 9.842506534440345  47.043733950216776 6.681932272447725  44.361454169401185 3.9734317343173435  C 42.62508257461984 2.2201670366313038  39.878277698228025 1.1476369409690192  36.80530199073246 1.0204182041820418  C 36.80530199073246 1.0204182041820418  36.18650438517989 1.0076260762607625  36.18650438517989 1.0076260762607625  C 32.035602357842116 1.0077199058852366  29.034249113882613 2.2971419030596554  26.22435017799256 5.263468634686347  C 24.182684938793304 2.4521638126537515  21.301759744921867 1.093716862339522  17.75608058389515 1.0115621156211563  C 17.75608058389515 1.0115621156211563  17.411113099854823 1.0076260762607625  17.411113099854823 1.0076260762607625  C 14.345712961901265 1.0076260762607625  11.279868167849658 2.232059838176507  9.108505856850229 4.489052890528906  C 9.108505856850229 4.489052890528906  9.108505856850229 1.3943419434194344  9.108505856850229 1.3943419434194344  L 1 1.3943419434194344  L 1 34.99237392373924  L 9.300479287234255 34.99237392373924  C 9.300479287234255 34.99237392373924  9.300479287234255 14.678474784747847  9.300479287234255 14.678474784747847  C 9.300545875000779 10.100194591789668  12.237736151662839 8.552199008324049  14.856014955352704 8.552029520295203  C 17.474402008654454 8.552029520295203  20.349118483329004 10.099943784594096  20.3491836207068 14.678474784747847  C 20.3491836207068 14.678474784747847  20.3491836207068 34.99237392373924  20.3491836207068 34.99237392373924  L 28.650816379293197 34.99237392373924  Z " stroke-width="0" stroke-dasharray="0" stroke="rgba(121, 121, 121, 1)" fill="none" transform="matrix(1 0 0 1 621 323 )" class="stroke" mask="url(#Clip4441)" />
    <path d="M 10.106377901079888 1  C 10.106377901079888 1  10.106377901079888 2.3143911439114393  10.106377901079888 2.3143911439114393  C 12.243512160623993 0.8001660036131611  14.830185884223422 0  17.411113099854823 0  C 20.992817493805376 2.5812858145175382E-05  24.041204361439252 1.1948111258456335  26.30718135353897 3.766789667896679  C 29.091379214544116 1.1619253536285363  32.15896171225551 8.71355389903539E-05  36.18650438517989 0  C 39.70027655675906 0  42.98252945457616 1.1562660958640838  45.06698088817294 3.2610086100861007  C 47.97725957020762 6.199736940728782  49 9.639900205642682  49 13.518327183271833  C 49 13.518327183271833  49 36  49 36  L 38.70164866853609 36  C 38.70164866853609 36  38.70164866853609 14.678474784747847  38.70164866853609 14.678474784747847  C 38.70161652106 12.614101418357933  38.06208640831177 11.375839807714483  37.26428415170137 10.644034440344402  C 36.44614500481959 9.893641052621463  35.33487732869459 9.559684147072675  34.20732653182984 9.559655596555967  C 33.11352677439442 9.559655596555967  31.973880748780264 9.893303580008457  31.124057832667106 10.636162361623615  C 30.301277216025653 11.355455597036439  29.648688423522863 12.546091347632226  29.648688423522863 14.485608856088561  C 29.648688423522863 14.485608856088561  29.648688423522863 36  29.648688423522863 36  L 19.351311576477137 36  C 19.351311576477137 36  19.351311576477137 14.678474784747847  19.351311576477137 14.678474784747847  C 19.351279431651122 12.614186221940345  18.711703339906677 11.375851279020603  17.913947059642425 10.644034440344402  C 17.095761817458886 9.893532225361316  15.983672217495071 9.559655596555967  14.856014955352704 9.559655596555967  C 13.727616242846738 9.559740586129795  12.597412081456847 9.89436969076722  11.76202692758984 10.648954489544895  C 10.949167268921965 11.3833591587869  10.298384159834582 12.621185760685732  10.298351331463914 14.678474784747847  C 10.298351331463914 14.678474784747847  10.298351331463914 36  10.298351331463914 36  L 0 36  L 0 1  L 10.106377901079888 1  Z " stroke-width="0" stroke-dasharray="0" stroke="rgba(121, 121, 121, 1)" fill="none" transform="matrix(1 0 0 1 621 323 )" class="stroke" mask="url(#Clip4441)" />
  </g>
  <style>svg { filter: drop-shadow(0px 4px 2px rgba(0, 0, 0, 0.12941176470588237)); }</style>
</svg>