<?xml version="1.0" encoding="utf-8"?>
<svg version="1.1" xmlns:xlink="http://www.w3.org/1999/xlink" width="38px" height="44px" xmlns="http://www.w3.org/2000/svg">
  <defs>
    <pattern id="BGPattern" patternUnits="userSpaceOnUse" alignment="0 0" imageRepeat="None" />
    <mask fill="white" id="Clip4444">
      <path d="M 28.98593780946722 34.68144014303904  C 28.98593780946722 34.68144014303904  28.98593780946722 12.758431988730258  28.98593780946722 12.758431988730258  C 28.985877885789588 5.204594566108146  24.357295573690337 1.2492345282319237  15.45355515943751 1.0094004822149378  C 15.45355515943751 1.0094004822149378  14.578134284016636 0.9986725543846342  14.578134284016636 0.9986725543846342  C 8.93217948479897 0.9987108550911895  5.687445408048005 2.021028885699144  2.3776985541691427 5.599978327418524  C 2.3776985541691427 5.599978327418524  7.763913646266587 10.77766640478964  7.763913646266587 10.77766640478964  C 9.516213761388393 8.796298898761954  11.00930896743167 8.028391081732723  14.254307783719549 8.028391081732723  C 14.254307783719549 8.028391081732723  14.666270548623489 8.033267412564678  14.666270548623489 8.033267412564678  C 18.84375986426768 8.130493812229304  20.549475729427115 9.740533219580499  20.549613784907905 13.26947145991927  C 20.549613784907905 13.26947145991927  20.549613784907905 14.93132500744995  20.549613784907905 14.93132500744995  L 12.566844919786096 14.93132500744995  L 12.566844919786096 13.932652453065316  L 19.53555159437512 13.932652453065316  C 19.53555159437512 13.932652453065316  19.53555159437512 13.26947145991927  19.53555159437512 13.26947145991927  C 19.535480704653626 11.598773014948156  19.120297053233777 10.631569699678128  18.421469597940188 10.042315715330643  C 17.68362080420473 9.420302276160754  16.40998198127104 9.027106804971874  14.254307783719549 9.027063636117356  C 12.707197854579807 9.027063636117356  11.680967557970948 9.211401650264431  10.863537334125569 9.571262156963671  C 10.052211290776174 9.928544494217189  9.354161674090012 10.499361132405081  8.52842146959794 11.433045268604557  C 8.52842146959794 11.433045268604557  7.823331352743118 12.229837726546203  7.823331352743118 12.229837726546203  L 0.967518320459497 5.640939506406957  C 0.967518320459497 5.640939506406957  1.62705486234898 4.928019938774957  1.62705486234898 4.928019938774957  C 3.367946274943058 3.045462538710109  5.137438019518098 1.7893765632725092  7.249950485244603 1.0201284100452415  C 9.342764878797162 0.2580585586696252  11.702665441176471 1.901752896185275E-05  14.578134284016636 0  C 19.436214550529808 0  23.309663201020623 1.01220222952449  25.981382451970685 3.1842440332674125  C 28.688371053519262 5.385053093591688  29.99996883769948 8.64193969392558  30 12.758431988730258  C 30 12.758431988730258  30 35  30 35  L 19.729649435531787 35  C 19.729649435531787 35  19.729649435531787 33.983149567902906  19.729649435531787 33.983149567902906  C 19.059599953657283 34.461571433590464  18.355773756541364 34.85911987030209  17.5787284610814 35.16809796006827  C 16.11505863146632 35.75005268670167  14.467094543783423 35.99997019427295  12.437116260645674 36  C 8.431622298737992 36  5.3465435702769115 34.991515734632785  3.087740146563676 32.766992658413024  C 3.087740146563676 32.766992658413024  3.081798375916023 32.761141061414676  3.081798375916023 32.761141061414676  C 3.081798375916023 32.761141061414676  3.07585660526837 32.754314198249936  3.07585660526837 32.754314198249936  C 1.0430075301111608 30.68081618328062  0 27.730347688314414  0 24.582558990057706  C 7.098189088986118E-05 21.69672426021151  1.0116067615493167 19.003235542864303  3.154089918795801 17.036924660688648  C 5.292908307183353 15.074034829362285  8.452260135825163 13.932652453065316  12.566844919786096 13.932652453065316  C 12.566844919786096 13.932652453065316  12.566844919786096 14.93132500744995  12.566844919786096 14.93132500744995  C 12.566844919786096 14.93132500744995  11.842939195880373 14.944003467613037  11.842939195880373 14.944003467613037  C 4.486336635348584 15.203786302103087  1.0141990151552192 19.443421546101643  1.0140621905327787 24.582558990057706  C 1.0140621905327787 27.522556231248135  1.9876276939121609 30.20736993699713  3.804713804713805 32.060899953945764  C 5.690893066309541 33.91845401529018  8.2619271568318 34.87705910688646  11.731035848682907 34.98962425161867  C 11.731035848682907 34.98962425161867  12.437116260645674 35.00132744561537  12.437116260645674 35.00132744561537  C 16.33078303330486 35.00126776439389  18.472349635679713 34.042211744084064  20.743711626064567 31.80538021835126  C 20.743711626064567 31.80538021835126  20.743711626064567 34.68144014303904  20.743711626064567 34.68144014303904  L 28.98593780946722 34.68144014303904  Z M 18.626460685284215 25.89624251618671  C 19.200240656701048 25.371367587246958  19.53555159437512 24.416186344199538  19.53555159437512 22.40966597133801  C 19.53555159437512 22.40966597133801  19.53555159437512 21.618725110394713  19.53555159437512 21.618725110394713  C 19.53555159437512 21.618725110394713  13.864131511190335 21.618725110394713  13.864131511190335 21.618725110394713  C 12.48186558349271 21.618790040605422  11.556178346249721 21.939334040884564  10.994256288373935 22.39211118034297  C 10.461158080015071 22.821675032604116  10.140621905327787 23.46149916299178  10.140621905327787 24.391406821445017  C 10.140685229175787 25.307744922658088  10.441662793490977 25.964178638263448  10.975440681323034 26.410207785874896  C 11.533244649215037 26.876246318941668  12.483320442089399 27.227404552762884  13.993860170330759 27.227480833310757  C 13.993860170330759 27.227480833310757  13.993860170330759 28.22615338769539  13.993860170330759 28.22615338769539  C 13.993860170330759 28.22615338769539  13.688849277084572 28.221277056863435  13.688849277084572 28.221277056863435  C 10.688745170377178 28.13200913031571  9.22313313173478 26.716163020776897  9.131511190334718 24.604990111884703  C 9.131511190334718 24.604990111884703  9.12655971479501 24.391406821445017  9.12655971479501 24.391406821445017  C 9.12655971479501 22.026658994840908  10.814097527821104 20.6201818350985  13.864131511190335 20.620052556010076  C 13.864131511190335 20.620052556010076  20.549613784907905 20.620052556010076  20.549613784907905 20.620052556010076  L 20.549613784907905 22.40966597133801  C 20.549613784907905 22.40966597133801  20.545652604476135 22.78514344539864  20.545652604476135 22.78514344539864  C 20.506665646663915 24.62085699715378  20.16750457334528 25.848739363185903  19.315706080411964 26.627692140980145  C 17.82300737924589 28.03382058986248  16.330257906113836 28.22615338769539  13.993860170330759 28.22615338769539  C 13.993860170330759 28.22615338769539  13.993860170330759 27.227480833310757  13.993860170330759 27.227480833310757  C 16.271486696004157 27.227480833310757  17.419468287926755 27.03272677531036  18.61556743909685 25.905995177850624  C 18.61556743909685 25.905995177850624  18.620518914636563 25.901118847018665  18.620518914636563 25.901118847018665  C 18.620518914636563 25.901118847018665  18.626460685284215 25.89624251618671  18.626460685284215 25.89624251618671  Z " fill-rule="evenodd" />
    </mask>
  </defs>
  <g transform="matrix(1 0 0 1 -510 -323 )">
    <path d="M 28.98593780946722 34.68144014303904  C 28.98593780946722 34.68144014303904  28.98593780946722 12.758431988730258  28.98593780946722 12.758431988730258  C 28.985877885789588 5.204594566108146  24.357295573690337 1.2492345282319237  15.45355515943751 1.0094004822149378  C 15.45355515943751 1.0094004822149378  14.578134284016636 0.9986725543846342  14.578134284016636 0.9986725543846342  C 8.93217948479897 0.9987108550911895  5.687445408048005 2.021028885699144  2.3776985541691427 5.599978327418524  C 2.3776985541691427 5.599978327418524  7.763913646266587 10.77766640478964  7.763913646266587 10.77766640478964  C 9.516213761388393 8.796298898761954  11.00930896743167 8.028391081732723  14.254307783719549 8.028391081732723  C 14.254307783719549 8.028391081732723  14.666270548623489 8.033267412564678  14.666270548623489 8.033267412564678  C 18.84375986426768 8.130493812229304  20.549475729427115 9.740533219580499  20.549613784907905 13.26947145991927  C 20.549613784907905 13.26947145991927  20.549613784907905 14.93132500744995  20.549613784907905 14.93132500744995  L 12.566844919786096 14.93132500744995  L 12.566844919786096 13.932652453065316  L 19.53555159437512 13.932652453065316  C 19.53555159437512 13.932652453065316  19.53555159437512 13.26947145991927  19.53555159437512 13.26947145991927  C 19.535480704653626 11.598773014948156  19.120297053233777 10.631569699678128  18.421469597940188 10.042315715330643  C 17.68362080420473 9.420302276160754  16.40998198127104 9.027106804971874  14.254307783719549 9.027063636117356  C 12.707197854579807 9.027063636117356  11.680967557970948 9.211401650264431  10.863537334125569 9.571262156963671  C 10.052211290776174 9.928544494217189  9.354161674090012 10.499361132405081  8.52842146959794 11.433045268604557  C 8.52842146959794 11.433045268604557  7.823331352743118 12.229837726546203  7.823331352743118 12.229837726546203  L 0.967518320459497 5.640939506406957  C 0.967518320459497 5.640939506406957  1.62705486234898 4.928019938774957  1.62705486234898 4.928019938774957  C 3.367946274943058 3.045462538710109  5.137438019518098 1.7893765632725092  7.249950485244603 1.0201284100452415  C 9.342764878797162 0.2580585586696252  11.702665441176471 1.901752896185275E-05  14.578134284016636 0  C 19.436214550529808 0  23.309663201020623 1.01220222952449  25.981382451970685 3.1842440332674125  C 28.688371053519262 5.385053093591688  29.99996883769948 8.64193969392558  30 12.758431988730258  C 30 12.758431988730258  30 35  30 35  L 19.729649435531787 35  C 19.729649435531787 35  19.729649435531787 33.983149567902906  19.729649435531787 33.983149567902906  C 19.059599953657283 34.461571433590464  18.355773756541364 34.85911987030209  17.5787284610814 35.16809796006827  C 16.11505863146632 35.75005268670167  14.467094543783423 35.99997019427295  12.437116260645674 36  C 8.431622298737992 36  5.3465435702769115 34.991515734632785  3.087740146563676 32.766992658413024  C 3.087740146563676 32.766992658413024  3.081798375916023 32.761141061414676  3.081798375916023 32.761141061414676  C 3.081798375916023 32.761141061414676  3.07585660526837 32.754314198249936  3.07585660526837 32.754314198249936  C 1.0430075301111608 30.68081618328062  0 27.730347688314414  0 24.582558990057706  C 7.098189088986118E-05 21.69672426021151  1.0116067615493167 19.003235542864303  3.154089918795801 17.036924660688648  C 5.292908307183353 15.074034829362285  8.452260135825163 13.932652453065316  12.566844919786096 13.932652453065316  C 12.566844919786096 13.932652453065316  12.566844919786096 14.93132500744995  12.566844919786096 14.93132500744995  C 12.566844919786096 14.93132500744995  11.842939195880373 14.944003467613037  11.842939195880373 14.944003467613037  C 4.486336635348584 15.203786302103087  1.0141990151552192 19.443421546101643  1.0140621905327787 24.582558990057706  C 1.0140621905327787 27.522556231248135  1.9876276939121609 30.20736993699713  3.804713804713805 32.060899953945764  C 5.690893066309541 33.91845401529018  8.2619271568318 34.87705910688646  11.731035848682907 34.98962425161867  C 11.731035848682907 34.98962425161867  12.437116260645674 35.00132744561537  12.437116260645674 35.00132744561537  C 16.33078303330486 35.00126776439389  18.472349635679713 34.042211744084064  20.743711626064567 31.80538021835126  C 20.743711626064567 31.80538021835126  20.743711626064567 34.68144014303904  20.743711626064567 34.68144014303904  L 28.98593780946722 34.68144014303904  Z M 18.626460685284215 25.89624251618671  C 19.200240656701048 25.371367587246958  19.53555159437512 24.416186344199538  19.53555159437512 22.40966597133801  C 19.53555159437512 22.40966597133801  19.53555159437512 21.618725110394713  19.53555159437512 21.618725110394713  C 19.53555159437512 21.618725110394713  13.864131511190335 21.618725110394713  13.864131511190335 21.618725110394713  C 12.48186558349271 21.618790040605422  11.556178346249721 21.939334040884564  10.994256288373935 22.39211118034297  C 10.461158080015071 22.821675032604116  10.140621905327787 23.46149916299178  10.140621905327787 24.391406821445017  C 10.140685229175787 25.307744922658088  10.441662793490977 25.964178638263448  10.975440681323034 26.410207785874896  C 11.533244649215037 26.876246318941668  12.483320442089399 27.227404552762884  13.993860170330759 27.227480833310757  C 13.993860170330759 27.227480833310757  13.993860170330759 28.22615338769539  13.993860170330759 28.22615338769539  C 13.993860170330759 28.22615338769539  13.688849277084572 28.221277056863435  13.688849277084572 28.221277056863435  C 10.688745170377178 28.13200913031571  9.22313313173478 26.716163020776897  9.131511190334718 24.604990111884703  C 9.131511190334718 24.604990111884703  9.12655971479501 24.391406821445017  9.12655971479501 24.391406821445017  C 9.12655971479501 22.026658994840908  10.814097527821104 20.6201818350985  13.864131511190335 20.620052556010076  C 13.864131511190335 20.620052556010076  20.549613784907905 20.620052556010076  20.549613784907905 20.620052556010076  L 20.549613784907905 22.40966597133801  C 20.549613784907905 22.40966597133801  20.545652604476135 22.78514344539864  20.545652604476135 22.78514344539864  C 20.506665646663915 24.62085699715378  20.16750457334528 25.848739363185903  19.315706080411964 26.627692140980145  C 17.82300737924589 28.03382058986248  16.330257906113836 28.22615338769539  13.993860170330759 28.22615338769539  C 13.993860170330759 28.22615338769539  13.993860170330759 27.227480833310757  13.993860170330759 27.227480833310757  C 16.271486696004157 27.227480833310757  17.419468287926755 27.03272677531036  18.61556743909685 25.905995177850624  C 18.61556743909685 25.905995177850624  18.620518914636563 25.901118847018665  18.620518914636563 25.901118847018665  C 18.620518914636563 25.901118847018665  18.626460685284215 25.89624251618671  18.626460685284215 25.89624251618671  Z " fill-rule="nonzero" fill="rgba(190, 190, 190, 0.058823529411764705)" stroke="none" transform="matrix(1 0 0 1 514 323 )" class="fill" />
    <path d="M 28.98593780946722 34.68144014303904  C 28.98593780946722 34.68144014303904  28.98593780946722 12.758431988730258  28.98593780946722 12.758431988730258  C 28.985877885789588 5.204594566108146  24.357295573690337 1.2492345282319237  15.45355515943751 1.0094004822149378  C 15.45355515943751 1.0094004822149378  14.578134284016636 0.9986725543846342  14.578134284016636 0.9986725543846342  C 8.93217948479897 0.9987108550911895  5.687445408048005 2.021028885699144  2.3776985541691427 5.599978327418524  C 2.3776985541691427 5.599978327418524  7.763913646266587 10.77766640478964  7.763913646266587 10.77766640478964  C 9.516213761388393 8.796298898761954  11.00930896743167 8.028391081732723  14.254307783719549 8.028391081732723  C 14.254307783719549 8.028391081732723  14.666270548623489 8.033267412564678  14.666270548623489 8.033267412564678  C 18.84375986426768 8.130493812229304  20.549475729427115 9.740533219580499  20.549613784907905 13.26947145991927  C 20.549613784907905 13.26947145991927  20.549613784907905 14.93132500744995  20.549613784907905 14.93132500744995  L 12.566844919786096 14.93132500744995  L 12.566844919786096 13.932652453065316  L 19.53555159437512 13.932652453065316  C 19.53555159437512 13.932652453065316  19.53555159437512 13.26947145991927  19.53555159437512 13.26947145991927  C 19.535480704653626 11.598773014948156  19.120297053233777 10.631569699678128  18.421469597940188 10.042315715330643  C 17.68362080420473 9.420302276160754  16.40998198127104 9.027106804971874  14.254307783719549 9.027063636117356  C 12.707197854579807 9.027063636117356  11.680967557970948 9.211401650264431  10.863537334125569 9.571262156963671  C 10.052211290776174 9.928544494217189  9.354161674090012 10.499361132405081  8.52842146959794 11.433045268604557  C 8.52842146959794 11.433045268604557  7.823331352743118 12.229837726546203  7.823331352743118 12.229837726546203  L 0.967518320459497 5.640939506406957  C 0.967518320459497 5.640939506406957  1.62705486234898 4.928019938774957  1.62705486234898 4.928019938774957  C 3.367946274943058 3.045462538710109  5.137438019518098 1.7893765632725092  7.249950485244603 1.0201284100452415  C 9.342764878797162 0.2580585586696252  11.702665441176471 1.901752896185275E-05  14.578134284016636 0  C 19.436214550529808 0  23.309663201020623 1.01220222952449  25.981382451970685 3.1842440332674125  C 28.688371053519262 5.385053093591688  29.99996883769948 8.64193969392558  30 12.758431988730258  C 30 12.758431988730258  30 35  30 35  L 19.729649435531787 35  C 19.729649435531787 35  19.729649435531787 33.983149567902906  19.729649435531787 33.983149567902906  C 19.059599953657283 34.461571433590464  18.355773756541364 34.85911987030209  17.5787284610814 35.16809796006827  C 16.11505863146632 35.75005268670167  14.467094543783423 35.99997019427295  12.437116260645674 36  C 8.431622298737992 36  5.3465435702769115 34.991515734632785  3.087740146563676 32.766992658413024  C 3.087740146563676 32.766992658413024  3.081798375916023 32.761141061414676  3.081798375916023 32.761141061414676  C 3.081798375916023 32.761141061414676  3.07585660526837 32.754314198249936  3.07585660526837 32.754314198249936  C 1.0430075301111608 30.68081618328062  0 27.730347688314414  0 24.582558990057706  C 7.098189088986118E-05 21.69672426021151  1.0116067615493167 19.003235542864303  3.154089918795801 17.036924660688648  C 5.292908307183353 15.074034829362285  8.452260135825163 13.932652453065316  12.566844919786096 13.932652453065316  C 12.566844919786096 13.932652453065316  12.566844919786096 14.93132500744995  12.566844919786096 14.93132500744995  C 12.566844919786096 14.93132500744995  11.842939195880373 14.944003467613037  11.842939195880373 14.944003467613037  C 4.486336635348584 15.203786302103087  1.0141990151552192 19.443421546101643  1.0140621905327787 24.582558990057706  C 1.0140621905327787 27.522556231248135  1.9876276939121609 30.20736993699713  3.804713804713805 32.060899953945764  C 5.690893066309541 33.91845401529018  8.2619271568318 34.87705910688646  11.731035848682907 34.98962425161867  C 11.731035848682907 34.98962425161867  12.437116260645674 35.00132744561537  12.437116260645674 35.00132744561537  C 16.33078303330486 35.00126776439389  18.472349635679713 34.042211744084064  20.743711626064567 31.80538021835126  C 20.743711626064567 31.80538021835126  20.743711626064567 34.68144014303904  20.743711626064567 34.68144014303904  L 28.98593780946722 34.68144014303904  Z " stroke-width="0" stroke-dasharray="0" stroke="rgba(121, 121, 121, 1)" fill="none" transform="matrix(1 0 0 1 514 323 )" class="stroke" mask="url(#Clip4444)" />
    <path d="M 18.626460685284215 25.89624251618671  C 19.200240656701048 25.371367587246958  19.53555159437512 24.416186344199538  19.53555159437512 22.40966597133801  C 19.53555159437512 22.40966597133801  19.53555159437512 21.618725110394713  19.53555159437512 21.618725110394713  C 19.53555159437512 21.618725110394713  13.864131511190335 21.618725110394713  13.864131511190335 21.618725110394713  C 12.48186558349271 21.618790040605422  11.556178346249721 21.939334040884564  10.994256288373935 22.39211118034297  C 10.461158080015071 22.821675032604116  10.140621905327787 23.46149916299178  10.140621905327787 24.391406821445017  C 10.140685229175787 25.307744922658088  10.441662793490977 25.964178638263448  10.975440681323034 26.410207785874896  C 11.533244649215037 26.876246318941668  12.483320442089399 27.227404552762884  13.993860170330759 27.227480833310757  C 13.993860170330759 27.227480833310757  13.993860170330759 28.22615338769539  13.993860170330759 28.22615338769539  C 13.993860170330759 28.22615338769539  13.688849277084572 28.221277056863435  13.688849277084572 28.221277056863435  C 10.688745170377178 28.13200913031571  9.22313313173478 26.716163020776897  9.131511190334718 24.604990111884703  C 9.131511190334718 24.604990111884703  9.12655971479501 24.391406821445017  9.12655971479501 24.391406821445017  C 9.12655971479501 22.026658994840908  10.814097527821104 20.6201818350985  13.864131511190335 20.620052556010076  C 13.864131511190335 20.620052556010076  20.549613784907905 20.620052556010076  20.549613784907905 20.620052556010076  L 20.549613784907905 22.40966597133801  C 20.549613784907905 22.40966597133801  20.545652604476135 22.78514344539864  20.545652604476135 22.78514344539864  C 20.506665646663915 24.62085699715378  20.16750457334528 25.848739363185903  19.315706080411964 26.627692140980145  C 17.82300737924589 28.03382058986248  16.330257906113836 28.22615338769539  13.993860170330759 28.22615338769539  C 13.993860170330759 28.22615338769539  13.993860170330759 27.227480833310757  13.993860170330759 27.227480833310757  C 16.271486696004157 27.227480833310757  17.419468287926755 27.03272677531036  18.61556743909685 25.905995177850624  C 18.61556743909685 25.905995177850624  18.620518914636563 25.901118847018665  18.620518914636563 25.901118847018665  C 18.620518914636563 25.901118847018665  18.626460685284215 25.89624251618671  18.626460685284215 25.89624251618671  Z " stroke-width="0" stroke-dasharray="0" stroke="rgba(121, 121, 121, 1)" fill="none" transform="matrix(1 0 0 1 514 323 )" class="stroke" mask="url(#Clip4444)" />
  </g>
  <style>svg { filter: drop-shadow(0px 4px 2px rgba(0, 0, 0, 0.12941176470588237)); }</style>
</svg>