<?xml version="1.0" encoding="utf-8"?>
<svg version="1.1" xmlns:xlink="http://www.w3.org/1999/xlink" width="57px" height="55px" xmlns="http://www.w3.org/2000/svg">
  <defs>
    <pattern id="BGPattern" patternUnits="userSpaceOnUse" alignment="0 0" imageRepeat="None" />
    <mask fill="white" id="Clip4435">
      <path d="M 47.99858297575093 44  L 47.99858297575093 39  L 37 39  L 37 21.367536616737894  L 46.8446063267139 21.367536616737894  L 46.8446063267139 15.807725820505373  L 37 15.807725820505373  L 37 1.4294427617111323  L 31 1.4294427617111323  L 31 15.807725820505373  L 22.61892026743838 15.807725820505373  L 22.61892026743838 21.367536616737894  L 31 21.367536616737894  L 31 39  L 20.647380500948007 39  L 20.647380500948007 44  L 47.99858297575093 44  Z M 15.985510428100987 0.9984647939919505  L 10.264524498553039 0.9984647939919505  L 10.264524498553039 9.864715157047426  L 3.3915178125935532 9.864715157047426  L 3.3915178125935532 15.04035102277914  C 3.3915178125935532 15.04035102277914  15.105358746632072 15.04035102277914  15.105358746632072 15.04035102277914  C 14.577398695649292 15.97467999430416  13.98996137530132 16.901645167042794  13.34114359844327 17.820256420895397  C 11.738875977634468 20.056817330906913  9.928486292067907 22.118030631509065  7.909629777467319 24.003132650097506  C 7.909629777467319 24.003132650097506  7.530186608122942 24.34635492303224  7.530186608122942 24.34635492303224  C 5.626236278327232 26.04251819754789  3.6376549139385417 27.429567488588877  1.5647141003891827 28.50792498236588  C 1.8851393975727146 28.891301544102085  2.205610148010467 29.418593731664892  2.526035325815787 30.089477615036724  C 2.8785342358196226 30.728494949882137  3.2148225396589036 31.415891229876355  3.53527592056681 32.150761379195885  C 3.8877456724423634 32.8536331583853  4.144701677928986 33.46099337144173  4.304919668695739 33.97217957761089  C 6.326249222336219 32.7092101830456  8.311195162034727 31.17232085218034  10.264524498553039 29.36695572797809  C 10.264524498553039 29.36695572797809  10.264524498553039 46.00153520600805  10.264524498553039 46.00153520600805  L 15.985510428100987 46.00153520600805  C 15.985510428100987 46.00153520600805  15.985510428100987 27.79320360151031  15.985510428100987 27.79320360151031  C 16.11292386817761 27.934453693337815  16.24153802923285 28.07636347343692  16.36984332900908 28.22028131612796  C 17.138923611977347 29.08294557695107  17.860114847687043 29.92960758778244  18.533060572797126 30.76032114850006  C 19.238003180381746 31.559031399497005  19.830306117894608 32.262348753560865  20.310966969364333 32.869383013152984  C 20.310966969364333 32.869383013152984  23.77191897016266 28.172503215634205  23.77191897016266 28.172503215634205  C 23.611759012129216 28.028786036370825  23.399447637622124 27.841359342629918  23.13527592056681 27.60989170573835  C 23.13527592056681 27.60989170573835  22.185690050893125 26.783038048213765  22.185690050893125 26.783038048213765  C 21.44864705992416 26.112069775210315  20.63124820689053 25.393018694439544  19.733978644845823 24.626198083067095  C 18.83677503926325 23.827490629187697  17.987507396576564 23.108332841358045  17.186428500149685 22.469358117920418  C 17.028626605015695 22.33169077659592  16.876971404484177 22.202807753181354  16.732661411036823 22.08128293431808  C 17.06477192512423 21.62650729877752  17.39412975671013 21.16566775044061  17.71549745534378 20.69571801999917  C 19.518031338291152 18.029802660710395  20.996722812270015 15.237602562158663  22.15146192994711 12.318949421185843  C 22.15146192994711 12.318949421185843  22.378345474503543 11.733911455956186  22.378345474503543 11.733911455956186  L 19.157968266640058 9.624849591303265  L 18.14774972557629 9.864715157047426  L 15.985510428100987 9.864715157047426  L 15.985510428100987 0.9984647939919505  Z M 16.986927452350066 0  L 16.986927452350066 8.866250363055475  L 18.0303961680471 8.866250363055475  L 19.345733958686758 8.55423011493299  L 19.8239497056182 8.866250363055475  L 20.11048797525197 8.866250363055475  L 20.11048797525197 9.053462511928965  L 23.598822472807104 11.338035766150782  C 23.598822472807104 11.338035766150782  23.315218042111564 12.086884361644746  23.315218042111564 12.086884361644746  C 22.966865107566104 13.00681543838908  22.586258299100212 13.913921076521072  22.175910587765692 14.809261026513422  C 22.175910587765692 14.809261026513422  30 14.809261026513422  30 14.809261026513422  L 30 0.4309779677191818  L 38 0.4309779677191818  L 38 14.809261026513422  L 47.84602335096297 14.809261026513422  L 47.84602335096297 22.366001410729844  L 38 22.366001410729844  L 38 38  L 49 38  L 49 45  L 19.645963476698935 45  L 19.645963476698935 38  L 30 38  L 30 22.366001410729844  L 21.6175032431893 22.366001410729844  C 21.6175032431893 22.366001410729844  21.6175032431893 15.980312020248123  21.6175032431893 15.980312020248123  C 20.72255552767898 17.789648694292865  19.699366722948216 19.548311358482273  18.54577387486279 21.25442927679349  C 18.54577387486279 21.25442927679349  18.54284003592456 21.258329529895025  18.54284003592456 21.258329529895025  C 18.392564489389176 21.47808387996616  18.237781594625407 21.694099376569728  18.08516116156072 21.910646861126093  C 18.816112879262143 22.501979293054003  19.58325702669901 23.15399263116919  20.385290889132822 23.867598854819303  C 21.28185247869123 24.633814396103816  22.10158075877571 25.354883388891086  22.84286997305658 26.02931413634289  C 23.5801431849074 26.668531554362858  24.11446543800987 27.13673891862306  24.441812194391776 27.43048006306792  C 24.441812194391776 27.43048006306792  25.11561720387187 28.035019293805238  25.11561720387187 28.035019293805238  L 20.340305358746633 34.51723994854985  C 20.340305358746633 34.51723994854985  19.525676080231513 33.48854819302104  19.525676080231513 33.48854819302104  C 19.059278955355865 32.89952088352021  18.47821070137477 32.210370096664334  17.781019858297576 31.420438985934194  C 17.781019858297576 31.420438985934194  17.76732860991917 31.40483797352807  17.76732860991917 31.40483797352807  C 17.76732860991917 31.40483797352807  17.753637361540765 31.38826189784656  17.753637361540765 31.38826189784656  C 17.505112427354703 31.08147151562877  17.249112477201198 30.772595763250997  16.986927452350066 30.46097672295755  C 16.986927452350066 30.46097672295755  16.986927452350066 47  16.986927452350066 47  L 9.263107474303961 47  C 9.263107474303961 47  9.263107474303961 31.583274552923115  9.263107474303961 31.583274552923115  C 7.809462384851187 32.80204663356406  6.33429937268455 33.881358837122775  4.835944516515318 34.81755943736774  C 4.835944516515318 34.81755943736774  3.7357549146791738 35.504979046512595  3.7357549146791738 35.504979046512595  C 3.7357549146791738 35.504979046512595  3.3484881748328514 34.26957387660263  3.3484881748328514 34.26957387660263  C 3.2098014174505995 33.82709434005631  2.9779287738912346 33.272258757436965  2.6394770980940025 32.597340359321194  C 2.6394770980940025 32.597340359321194  2.6277417423410836 32.57296377743663  2.6277417423410836 32.57296377743663  C 2.6277417423410836 32.57296377743663  2.616984332900908 32.54858719555205  2.616984332900908 32.54858719555205  C 2.307747490036548 31.83944552859094  1.9849490136874672 31.180530689755972  1.6488174832851012 30.57115887307581  C 1.6488174832851012 30.57115887307581  1.6341482885939524 30.544832164640475  1.6341482885939524 30.544832164640475  C 1.6341482885939524 30.544832164640475  1.6214349865282907 30.51850545620514  1.6214349865282907 30.51850545620514  C 1.32135158744761 29.89026862899029  1.042689146128092 29.443832867234867  0.7950703522602536 29.14756649101697  C 0.7950703522602536 29.14756649101697  0 28.195904734243392  0 28.195904734243392  C 0 28.195904734243392  1.1011675481488874 27.622567528318328  1.1011675481488874 27.622567528318328  C 3.2247209034854927 26.51789249112945  5.266385461137081 25.070818128697006  7.225067358547051 23.273785320111198  C 9.19574485621211 21.43364583539308  10.9628625662476 19.422751965361915  12.52651431992815 17.240093772042652  C 12.8084148952483 16.84080664030591  13.0783411793242 16.440398905911458  13.336253866879554 16.038815816771088  C 13.336253866879554 16.038815816771088  2.3901007883444763 16.038815816771088  2.3901007883444763 16.038815816771088  L 2.3901007883444763 8.866250363055475  L 9.263107474303961 8.866250363055475  L 9.263107474303961 0  L 16.986927452350066 0  Z " fill-rule="evenodd" />
    </mask>
  </defs>
  <g transform="matrix(1 0 0 1 -328 -375 )">
    <path d="M 47.99858297575093 44  L 47.99858297575093 39  L 37 39  L 37 21.367536616737894  L 46.8446063267139 21.367536616737894  L 46.8446063267139 15.807725820505373  L 37 15.807725820505373  L 37 1.4294427617111323  L 31 1.4294427617111323  L 31 15.807725820505373  L 22.61892026743838 15.807725820505373  L 22.61892026743838 21.367536616737894  L 31 21.367536616737894  L 31 39  L 20.647380500948007 39  L 20.647380500948007 44  L 47.99858297575093 44  Z M 15.985510428100987 0.9984647939919505  L 10.264524498553039 0.9984647939919505  L 10.264524498553039 9.864715157047426  L 3.3915178125935532 9.864715157047426  L 3.3915178125935532 15.04035102277914  C 3.3915178125935532 15.04035102277914  15.105358746632072 15.04035102277914  15.105358746632072 15.04035102277914  C 14.577398695649292 15.97467999430416  13.98996137530132 16.901645167042794  13.34114359844327 17.820256420895397  C 11.738875977634468 20.056817330906913  9.928486292067907 22.118030631509065  7.909629777467319 24.003132650097506  C 7.909629777467319 24.003132650097506  7.530186608122942 24.34635492303224  7.530186608122942 24.34635492303224  C 5.626236278327232 26.04251819754789  3.6376549139385417 27.429567488588877  1.5647141003891827 28.50792498236588  C 1.8851393975727146 28.891301544102085  2.205610148010467 29.418593731664892  2.526035325815787 30.089477615036724  C 2.8785342358196226 30.728494949882137  3.2148225396589036 31.415891229876355  3.53527592056681 32.150761379195885  C 3.8877456724423634 32.8536331583853  4.144701677928986 33.46099337144173  4.304919668695739 33.97217957761089  C 6.326249222336219 32.7092101830456  8.311195162034727 31.17232085218034  10.264524498553039 29.36695572797809  C 10.264524498553039 29.36695572797809  10.264524498553039 46.00153520600805  10.264524498553039 46.00153520600805  L 15.985510428100987 46.00153520600805  C 15.985510428100987 46.00153520600805  15.985510428100987 27.79320360151031  15.985510428100987 27.79320360151031  C 16.11292386817761 27.934453693337815  16.24153802923285 28.07636347343692  16.36984332900908 28.22028131612796  C 17.138923611977347 29.08294557695107  17.860114847687043 29.92960758778244  18.533060572797126 30.76032114850006  C 19.238003180381746 31.559031399497005  19.830306117894608 32.262348753560865  20.310966969364333 32.869383013152984  C 20.310966969364333 32.869383013152984  23.77191897016266 28.172503215634205  23.77191897016266 28.172503215634205  C 23.611759012129216 28.028786036370825  23.399447637622124 27.841359342629918  23.13527592056681 27.60989170573835  C 23.13527592056681 27.60989170573835  22.185690050893125 26.783038048213765  22.185690050893125 26.783038048213765  C 21.44864705992416 26.112069775210315  20.63124820689053 25.393018694439544  19.733978644845823 24.626198083067095  C 18.83677503926325 23.827490629187697  17.987507396576564 23.108332841358045  17.186428500149685 22.469358117920418  C 17.028626605015695 22.33169077659592  16.876971404484177 22.202807753181354  16.732661411036823 22.08128293431808  C 17.06477192512423 21.62650729877752  17.39412975671013 21.16566775044061  17.71549745534378 20.69571801999917  C 19.518031338291152 18.029802660710395  20.996722812270015 15.237602562158663  22.15146192994711 12.318949421185843  C 22.15146192994711 12.318949421185843  22.378345474503543 11.733911455956186  22.378345474503543 11.733911455956186  L 19.157968266640058 9.624849591303265  L 18.14774972557629 9.864715157047426  L 15.985510428100987 9.864715157047426  L 15.985510428100987 0.9984647939919505  Z M 16.986927452350066 0  L 16.986927452350066 8.866250363055475  L 18.0303961680471 8.866250363055475  L 19.345733958686758 8.55423011493299  L 19.8239497056182 8.866250363055475  L 20.11048797525197 8.866250363055475  L 20.11048797525197 9.053462511928965  L 23.598822472807104 11.338035766150782  C 23.598822472807104 11.338035766150782  23.315218042111564 12.086884361644746  23.315218042111564 12.086884361644746  C 22.966865107566104 13.00681543838908  22.586258299100212 13.913921076521072  22.175910587765692 14.809261026513422  C 22.175910587765692 14.809261026513422  30 14.809261026513422  30 14.809261026513422  L 30 0.4309779677191818  L 38 0.4309779677191818  L 38 14.809261026513422  L 47.84602335096297 14.809261026513422  L 47.84602335096297 22.366001410729844  L 38 22.366001410729844  L 38 38  L 49 38  L 49 45  L 19.645963476698935 45  L 19.645963476698935 38  L 30 38  L 30 22.366001410729844  L 21.6175032431893 22.366001410729844  C 21.6175032431893 22.366001410729844  21.6175032431893 15.980312020248123  21.6175032431893 15.980312020248123  C 20.72255552767898 17.789648694292865  19.699366722948216 19.548311358482273  18.54577387486279 21.25442927679349  C 18.54577387486279 21.25442927679349  18.54284003592456 21.258329529895025  18.54284003592456 21.258329529895025  C 18.392564489389176 21.47808387996616  18.237781594625407 21.694099376569728  18.08516116156072 21.910646861126093  C 18.816112879262143 22.501979293054003  19.58325702669901 23.15399263116919  20.385290889132822 23.867598854819303  C 21.28185247869123 24.633814396103816  22.10158075877571 25.354883388891086  22.84286997305658 26.02931413634289  C 23.5801431849074 26.668531554362858  24.11446543800987 27.13673891862306  24.441812194391776 27.43048006306792  C 24.441812194391776 27.43048006306792  25.11561720387187 28.035019293805238  25.11561720387187 28.035019293805238  L 20.340305358746633 34.51723994854985  C 20.340305358746633 34.51723994854985  19.525676080231513 33.48854819302104  19.525676080231513 33.48854819302104  C 19.059278955355865 32.89952088352021  18.47821070137477 32.210370096664334  17.781019858297576 31.420438985934194  C 17.781019858297576 31.420438985934194  17.76732860991917 31.40483797352807  17.76732860991917 31.40483797352807  C 17.76732860991917 31.40483797352807  17.753637361540765 31.38826189784656  17.753637361540765 31.38826189784656  C 17.505112427354703 31.08147151562877  17.249112477201198 30.772595763250997  16.986927452350066 30.46097672295755  C 16.986927452350066 30.46097672295755  16.986927452350066 47  16.986927452350066 47  L 9.263107474303961 47  C 9.263107474303961 47  9.263107474303961 31.583274552923115  9.263107474303961 31.583274552923115  C 7.809462384851187 32.80204663356406  6.33429937268455 33.881358837122775  4.835944516515318 34.81755943736774  C 4.835944516515318 34.81755943736774  3.7357549146791738 35.504979046512595  3.7357549146791738 35.504979046512595  C 3.7357549146791738 35.504979046512595  3.3484881748328514 34.26957387660263  3.3484881748328514 34.26957387660263  C 3.2098014174505995 33.82709434005631  2.9779287738912346 33.272258757436965  2.6394770980940025 32.597340359321194  C 2.6394770980940025 32.597340359321194  2.6277417423410836 32.57296377743663  2.6277417423410836 32.57296377743663  C 2.6277417423410836 32.57296377743663  2.616984332900908 32.54858719555205  2.616984332900908 32.54858719555205  C 2.307747490036548 31.83944552859094  1.9849490136874672 31.180530689755972  1.6488174832851012 30.57115887307581  C 1.6488174832851012 30.57115887307581  1.6341482885939524 30.544832164640475  1.6341482885939524 30.544832164640475  C 1.6341482885939524 30.544832164640475  1.6214349865282907 30.51850545620514  1.6214349865282907 30.51850545620514  C 1.32135158744761 29.89026862899029  1.042689146128092 29.443832867234867  0.7950703522602536 29.14756649101697  C 0.7950703522602536 29.14756649101697  0 28.195904734243392  0 28.195904734243392  C 0 28.195904734243392  1.1011675481488874 27.622567528318328  1.1011675481488874 27.622567528318328  C 3.2247209034854927 26.51789249112945  5.266385461137081 25.070818128697006  7.225067358547051 23.273785320111198  C 9.19574485621211 21.43364583539308  10.9628625662476 19.422751965361915  12.52651431992815 17.240093772042652  C 12.8084148952483 16.84080664030591  13.0783411793242 16.440398905911458  13.336253866879554 16.038815816771088  C 13.336253866879554 16.038815816771088  2.3901007883444763 16.038815816771088  2.3901007883444763 16.038815816771088  L 2.3901007883444763 8.866250363055475  L 9.263107474303961 8.866250363055475  L 9.263107474303961 0  L 16.986927452350066 0  Z " fill-rule="nonzero" fill="rgba(190, 190, 190, 0.058823529411764705)" stroke="none" transform="matrix(1 0 0 1 332 375 )" class="fill" />
    <path d="M 47.99858297575093 44  L 47.99858297575093 39  L 37 39  L 37 21.367536616737894  L 46.8446063267139 21.367536616737894  L 46.8446063267139 15.807725820505373  L 37 15.807725820505373  L 37 1.4294427617111323  L 31 1.4294427617111323  L 31 15.807725820505373  L 22.61892026743838 15.807725820505373  L 22.61892026743838 21.367536616737894  L 31 21.367536616737894  L 31 39  L 20.647380500948007 39  L 20.647380500948007 44  L 47.99858297575093 44  Z " stroke-width="0" stroke-dasharray="0" stroke="rgba(121, 121, 121, 1)" fill="none" transform="matrix(1 0 0 1 332 375 )" class="stroke" mask="url(#Clip4435)" />
    <path d="M 15.985510428100987 0.9984647939919505  L 10.264524498553039 0.9984647939919505  L 10.264524498553039 9.864715157047426  L 3.3915178125935532 9.864715157047426  L 3.3915178125935532 15.04035102277914  C 3.3915178125935532 15.04035102277914  15.105358746632072 15.04035102277914  15.105358746632072 15.04035102277914  C 14.577398695649292 15.97467999430416  13.98996137530132 16.901645167042794  13.34114359844327 17.820256420895397  C 11.738875977634468 20.056817330906913  9.928486292067907 22.118030631509065  7.909629777467319 24.003132650097506  C 7.909629777467319 24.003132650097506  7.530186608122942 24.34635492303224  7.530186608122942 24.34635492303224  C 5.626236278327232 26.04251819754789  3.6376549139385417 27.429567488588877  1.5647141003891827 28.50792498236588  C 1.8851393975727146 28.891301544102085  2.205610148010467 29.418593731664892  2.526035325815787 30.089477615036724  C 2.8785342358196226 30.728494949882137  3.2148225396589036 31.415891229876355  3.53527592056681 32.150761379195885  C 3.8877456724423634 32.8536331583853  4.144701677928986 33.46099337144173  4.304919668695739 33.97217957761089  C 6.326249222336219 32.7092101830456  8.311195162034727 31.17232085218034  10.264524498553039 29.36695572797809  C 10.264524498553039 29.36695572797809  10.264524498553039 46.00153520600805  10.264524498553039 46.00153520600805  L 15.985510428100987 46.00153520600805  C 15.985510428100987 46.00153520600805  15.985510428100987 27.79320360151031  15.985510428100987 27.79320360151031  C 16.11292386817761 27.934453693337815  16.24153802923285 28.07636347343692  16.36984332900908 28.22028131612796  C 17.138923611977347 29.08294557695107  17.860114847687043 29.92960758778244  18.533060572797126 30.76032114850006  C 19.238003180381746 31.559031399497005  19.830306117894608 32.262348753560865  20.310966969364333 32.869383013152984  C 20.310966969364333 32.869383013152984  23.77191897016266 28.172503215634205  23.77191897016266 28.172503215634205  C 23.611759012129216 28.028786036370825  23.399447637622124 27.841359342629918  23.13527592056681 27.60989170573835  C 23.13527592056681 27.60989170573835  22.185690050893125 26.783038048213765  22.185690050893125 26.783038048213765  C 21.44864705992416 26.112069775210315  20.63124820689053 25.393018694439544  19.733978644845823 24.626198083067095  C 18.83677503926325 23.827490629187697  17.987507396576564 23.108332841358045  17.186428500149685 22.469358117920418  C 17.028626605015695 22.33169077659592  16.876971404484177 22.202807753181354  16.732661411036823 22.08128293431808  C 17.06477192512423 21.62650729877752  17.39412975671013 21.16566775044061  17.71549745534378 20.69571801999917  C 19.518031338291152 18.029802660710395  20.996722812270015 15.237602562158663  22.15146192994711 12.318949421185843  C 22.15146192994711 12.318949421185843  22.378345474503543 11.733911455956186  22.378345474503543 11.733911455956186  L 19.157968266640058 9.624849591303265  L 18.14774972557629 9.864715157047426  L 15.985510428100987 9.864715157047426  L 15.985510428100987 0.9984647939919505  Z " stroke-width="0" stroke-dasharray="0" stroke="rgba(121, 121, 121, 1)" fill="none" transform="matrix(1 0 0 1 332 375 )" class="stroke" mask="url(#Clip4435)" />
    <path d="M 16.986927452350066 0  L 16.986927452350066 8.866250363055475  L 18.0303961680471 8.866250363055475  L 19.345733958686758 8.55423011493299  L 19.8239497056182 8.866250363055475  L 20.11048797525197 8.866250363055475  L 20.11048797525197 9.053462511928965  L 23.598822472807104 11.338035766150782  C 23.598822472807104 11.338035766150782  23.315218042111564 12.086884361644746  23.315218042111564 12.086884361644746  C 22.966865107566104 13.00681543838908  22.586258299100212 13.913921076521072  22.175910587765692 14.809261026513422  C 22.175910587765692 14.809261026513422  30 14.809261026513422  30 14.809261026513422  L 30 0.4309779677191818  L 38 0.4309779677191818  L 38 14.809261026513422  L 47.84602335096297 14.809261026513422  L 47.84602335096297 22.366001410729844  L 38 22.366001410729844  L 38 38  L 49 38  L 49 45  L 19.645963476698935 45  L 19.645963476698935 38  L 30 38  L 30 22.366001410729844  L 21.6175032431893 22.366001410729844  C 21.6175032431893 22.366001410729844  21.6175032431893 15.980312020248123  21.6175032431893 15.980312020248123  C 20.72255552767898 17.789648694292865  19.699366722948216 19.548311358482273  18.54577387486279 21.25442927679349  C 18.54577387486279 21.25442927679349  18.54284003592456 21.258329529895025  18.54284003592456 21.258329529895025  C 18.392564489389176 21.47808387996616  18.237781594625407 21.694099376569728  18.08516116156072 21.910646861126093  C 18.816112879262143 22.501979293054003  19.58325702669901 23.15399263116919  20.385290889132822 23.867598854819303  C 21.28185247869123 24.633814396103816  22.10158075877571 25.354883388891086  22.84286997305658 26.02931413634289  C 23.5801431849074 26.668531554362858  24.11446543800987 27.13673891862306  24.441812194391776 27.43048006306792  C 24.441812194391776 27.43048006306792  25.11561720387187 28.035019293805238  25.11561720387187 28.035019293805238  L 20.340305358746633 34.51723994854985  C 20.340305358746633 34.51723994854985  19.525676080231513 33.48854819302104  19.525676080231513 33.48854819302104  C 19.059278955355865 32.89952088352021  18.47821070137477 32.210370096664334  17.781019858297576 31.420438985934194  C 17.781019858297576 31.420438985934194  17.76732860991917 31.40483797352807  17.76732860991917 31.40483797352807  C 17.76732860991917 31.40483797352807  17.753637361540765 31.38826189784656  17.753637361540765 31.38826189784656  C 17.505112427354703 31.08147151562877  17.249112477201198 30.772595763250997  16.986927452350066 30.46097672295755  C 16.986927452350066 30.46097672295755  16.986927452350066 47  16.986927452350066 47  L 9.263107474303961 47  C 9.263107474303961 47  9.263107474303961 31.583274552923115  9.263107474303961 31.583274552923115  C 7.809462384851187 32.80204663356406  6.33429937268455 33.881358837122775  4.835944516515318 34.81755943736774  C 4.835944516515318 34.81755943736774  3.7357549146791738 35.504979046512595  3.7357549146791738 35.504979046512595  C 3.7357549146791738 35.504979046512595  3.3484881748328514 34.26957387660263  3.3484881748328514 34.26957387660263  C 3.2098014174505995 33.82709434005631  2.9779287738912346 33.272258757436965  2.6394770980940025 32.597340359321194  C 2.6394770980940025 32.597340359321194  2.6277417423410836 32.57296377743663  2.6277417423410836 32.57296377743663  C 2.6277417423410836 32.57296377743663  2.616984332900908 32.54858719555205  2.616984332900908 32.54858719555205  C 2.307747490036548 31.83944552859094  1.9849490136874672 31.180530689755972  1.6488174832851012 30.57115887307581  C 1.6488174832851012 30.57115887307581  1.6341482885939524 30.544832164640475  1.6341482885939524 30.544832164640475  C 1.6341482885939524 30.544832164640475  1.6214349865282907 30.51850545620514  1.6214349865282907 30.51850545620514  C 1.32135158744761 29.89026862899029  1.042689146128092 29.443832867234867  0.7950703522602536 29.14756649101697  C 0.7950703522602536 29.14756649101697  0 28.195904734243392  0 28.195904734243392  C 0 28.195904734243392  1.1011675481488874 27.622567528318328  1.1011675481488874 27.622567528318328  C 3.2247209034854927 26.51789249112945  5.266385461137081 25.070818128697006  7.225067358547051 23.273785320111198  C 9.19574485621211 21.43364583539308  10.9628625662476 19.422751965361915  12.52651431992815 17.240093772042652  C 12.8084148952483 16.84080664030591  13.0783411793242 16.440398905911458  13.336253866879554 16.038815816771088  C 13.336253866879554 16.038815816771088  2.3901007883444763 16.038815816771088  2.3901007883444763 16.038815816771088  L 2.3901007883444763 8.866250363055475  L 9.263107474303961 8.866250363055475  L 9.263107474303961 0  L 16.986927452350066 0  Z " stroke-width="0" stroke-dasharray="0" stroke="rgba(121, 121, 121, 1)" fill="none" transform="matrix(1 0 0 1 332 375 )" class="stroke" mask="url(#Clip4435)" />
  </g>
  <style>svg { filter: drop-shadow(0px 4px 2px rgba(0, 0, 0, 0.12941176470588237)); }</style>
</svg>