<?xml version="1.0" encoding="utf-8"?>
<svg version="1.1" xmlns:xlink="http://www.w3.org/1999/xlink" width="51px" height="56px" xmlns="http://www.w3.org/2000/svg">
  <defs>
    <pattern id="BGPattern" patternUnits="userSpaceOnUse" alignment="0 0" imageRepeat="None" />
    <mask fill="white" id="Clip4446">
      <path d="M 17.283108751871513 0  L 25.649584864570574 0  L 43 48  L 31.583276620842977 48  L 28.89784946236559 39  L 14.159702372850596 39  L 11.409895195317818 48  L 0 48  L 17.283108751871513 0  Z M 24.951159203302936 1.0090741120919728  L 17.983485322807496 1.0090741120919728  L 1.4261149675604556 46.99092588790803  L 10.694886801869243 46.99092588790803  L 13.44371852456785 38  L 29.617735129985025 38  L 32.30316228846241 46.99092588790803  L 41.5719341227712 46.99092588790803  L 24.951159203302936 1.0090741120919728  Z M 21.691189147497845 14.571463765140628  L 27.252257157116283 31  L 15.936981080713215 31  L 21.691189147497845 14.571463765140628  Z M 21.674606415316912 17.69131595154999  L 17.342611496756046 30.288975569698216  L 25.864184928088562 30.288975569698216  L 21.674606415316912 17.69131595154999  Z " fill-rule="evenodd" />
    </mask>
  </defs>
  <g transform="matrix(1 0 0 1 -436 -311 )">
    <path d="M 17.283108751871513 0  L 25.649584864570574 0  L 43 48  L 31.583276620842977 48  L 28.89784946236559 39  L 14.159702372850596 39  L 11.409895195317818 48  L 0 48  L 17.283108751871513 0  Z M 24.951159203302936 1.0090741120919728  L 17.983485322807496 1.0090741120919728  L 1.4261149675604556 46.99092588790803  L 10.694886801869243 46.99092588790803  L 13.44371852456785 38  L 29.617735129985025 38  L 32.30316228846241 46.99092588790803  L 41.5719341227712 46.99092588790803  L 24.951159203302936 1.0090741120919728  Z M 21.691189147497845 14.571463765140628  L 27.252257157116283 31  L 15.936981080713215 31  L 21.691189147497845 14.571463765140628  Z M 21.674606415316912 17.69131595154999  L 17.342611496756046 30.288975569698216  L 25.864184928088562 30.288975569698216  L 21.674606415316912 17.69131595154999  Z " fill-rule="nonzero" fill="rgba(190, 190, 190, 0.058823529411764705)" stroke="none" transform="matrix(1 0 0 1 440 311 )" class="fill" />
    <path d="M 17.283108751871513 0  L 25.649584864570574 0  L 43 48  L 31.583276620842977 48  L 28.89784946236559 39  L 14.159702372850596 39  L 11.409895195317818 48  L 0 48  L 17.283108751871513 0  Z " stroke-width="0" stroke-dasharray="0" stroke="rgba(121, 121, 121, 1)" fill="none" transform="matrix(1 0 0 1 440 311 )" class="stroke" mask="url(#Clip4446)" />
    <path d="M 24.951159203302936 1.0090741120919728  L 17.983485322807496 1.0090741120919728  L 1.4261149675604556 46.99092588790803  L 10.694886801869243 46.99092588790803  L 13.44371852456785 38  L 29.617735129985025 38  L 32.30316228846241 46.99092588790803  L 41.5719341227712 46.99092588790803  L 24.951159203302936 1.0090741120919728  Z " stroke-width="0" stroke-dasharray="0" stroke="rgba(121, 121, 121, 1)" fill="none" transform="matrix(1 0 0 1 440 311 )" class="stroke" mask="url(#Clip4446)" />
    <path d="M 21.691189147497845 14.571463765140628  L 27.252257157116283 31  L 15.936981080713215 31  L 21.691189147497845 14.571463765140628  Z " stroke-width="0" stroke-dasharray="0" stroke="rgba(121, 121, 121, 1)" fill="none" transform="matrix(1 0 0 1 440 311 )" class="stroke" mask="url(#Clip4446)" />
    <path d="M 21.674606415316912 17.69131595154999  L 17.342611496756046 30.288975569698216  L 25.864184928088562 30.288975569698216  L 21.674606415316912 17.69131595154999  Z " stroke-width="0" stroke-dasharray="0" stroke="rgba(121, 121, 121, 1)" fill="none" transform="matrix(1 0 0 1 440 311 )" class="stroke" mask="url(#Clip4446)" />
  </g>
  <style>svg { filter: drop-shadow(0px 4px 2px rgba(0, 0, 0, 0.12941176470588237)); }</style>
</svg>