<?xml version="1.0" encoding="utf-8"?>
<svg version="1.1" xmlns:xlink="http://www.w3.org/1999/xlink" width="12px" height="17px" xmlns="http://www.w3.org/2000/svg">
  <defs>
    <pattern id="BGPattern" patternUnits="userSpaceOnUse" alignment="0 0" imageRepeat="None" />
    <mask fill="white" id="Clip4509">
      <path d="M 10.161262536147174 12.022099612470834  C 10.161262536147174 12.022099612470834  12 12.022099612470834  12 12.022099612470834  C 11.443550806005046 15.16851024486873  9.09674728319387 17  6.024180151356672 17  C 4.330639439641912 17  2.7822784159078324 16.38950158775652  1.6209930474373961 15.262429165938531  C 3.2445933058512274E-05 13.689223966369353  0 12.045574152713538  0 8.499992535694746  C 0 4.954410218897338  3.2445933058512274E-05 3.310776733409264  1.6209930474373961 1.737570834061469  C 2.7822784159078324 0.6104989953923282  4.330639439641912 0  6.024180151356672 0  C 9.120940412923769 0  11.41935767627515 1.83148998839081  12 4.977900387529165  C 12 4.977900387529165  10.112902233433829 4.977900387529165  10.112902233433829 4.977900387529165  C 9.653227000399927 2.935081455328768  8.17739681712607 1.5966746081020204  6.024180151356672 1.5966746081020204  C 4.887088633636868 1.5966746081020204  3.798418585222728 2.019338560469215  3.048421829816034 2.7707202527677204  C 1.9597169320663876 3.850831347974495  1.8387374638528273 5.001372361916939  1.8387374638528273 8.499992535694746  C 1.8387374638528273 11.998612709472555  1.9597169320663876 13.149168652025505  3.048421829816034 14.22927974723228  C 3.798418585222728 14.980661264586132  4.887088633636868 15.403310463287472  6.024180151356672 15.403310463287472  C 8.17739681712607 15.403310463287472  9.701587303113271 14.064918544671233  10.161262536147174 12.022099612470834  Z " fill-rule="evenodd" />
    </mask>
  </defs>
  <g transform="matrix(1 0 0 1 -714 -615 )">
    <path d="M 10.161262536147174 12.022099612470834  C 10.161262536147174 12.022099612470834  12 12.022099612470834  12 12.022099612470834  C 11.443550806005046 15.16851024486873  9.09674728319387 17  6.024180151356672 17  C 4.330639439641912 17  2.7822784159078324 16.38950158775652  1.6209930474373961 15.262429165938531  C 3.2445933058512274E-05 13.689223966369353  0 12.045574152713538  0 8.499992535694746  C 0 4.954410218897338  3.2445933058512274E-05 3.310776733409264  1.6209930474373961 1.737570834061469  C 2.7822784159078324 0.6104989953923282  4.330639439641912 0  6.024180151356672 0  C 9.120940412923769 0  11.41935767627515 1.83148998839081  12 4.977900387529165  C 12 4.977900387529165  10.112902233433829 4.977900387529165  10.112902233433829 4.977900387529165  C 9.653227000399927 2.935081455328768  8.17739681712607 1.5966746081020204  6.024180151356672 1.5966746081020204  C 4.887088633636868 1.5966746081020204  3.798418585222728 2.019338560469215  3.048421829816034 2.7707202527677204  C 1.9597169320663876 3.850831347974495  1.8387374638528273 5.001372361916939  1.8387374638528273 8.499992535694746  C 1.8387374638528273 11.998612709472555  1.9597169320663876 13.149168652025505  3.048421829816034 14.22927974723228  C 3.798418585222728 14.980661264586132  4.887088633636868 15.403310463287472  6.024180151356672 15.403310463287472  C 8.17739681712607 15.403310463287472  9.701587303113271 14.064918544671233  10.161262536147174 12.022099612470834  Z " fill-rule="nonzero" fill="rgba(0, 0, 0, 1)" stroke="none" transform="matrix(1 0 0 1 714 615 )" class="fill" />
    <path d="M 10.161262536147174 12.022099612470834  C 10.161262536147174 12.022099612470834  12 12.022099612470834  12 12.022099612470834  C 11.443550806005046 15.16851024486873  9.09674728319387 17  6.024180151356672 17  C 4.330639439641912 17  2.7822784159078324 16.38950158775652  1.6209930474373961 15.262429165938531  C 3.2445933058512274E-05 13.689223966369353  0 12.045574152713538  0 8.499992535694746  C 0 4.954410218897338  3.2445933058512274E-05 3.310776733409264  1.6209930474373961 1.737570834061469  C 2.7822784159078324 0.6104989953923282  4.330639439641912 0  6.024180151356672 0  C 9.120940412923769 0  11.41935767627515 1.83148998839081  12 4.977900387529165  C 12 4.977900387529165  10.112902233433829 4.977900387529165  10.112902233433829 4.977900387529165  C 9.653227000399927 2.935081455328768  8.17739681712607 1.5966746081020204  6.024180151356672 1.5966746081020204  C 4.887088633636868 1.5966746081020204  3.798418585222728 2.019338560469215  3.048421829816034 2.7707202527677204  C 1.9597169320663876 3.850831347974495  1.8387374638528273 5.001372361916939  1.8387374638528273 8.499992535694746  C 1.8387374638528273 11.998612709472555  1.9597169320663876 13.149168652025505  3.048421829816034 14.22927974723228  C 3.798418585222728 14.980661264586132  4.887088633636868 15.403310463287472  6.024180151356672 15.403310463287472  C 8.17739681712607 15.403310463287472  9.701587303113271 14.064918544671233  10.161262536147174 12.022099612470834  Z " stroke-width="0" stroke-dasharray="0" stroke="rgba(121, 121, 121, 1)" fill="none" transform="matrix(1 0 0 1 714 615 )" class="stroke" mask="url(#Clip4509)" />
  </g>
</svg>