<?xml version="1.0" encoding="utf-8"?>
<svg version="1.1" xmlns:xlink="http://www.w3.org/1999/xlink" width="20px" height="20px" xmlns="http://www.w3.org/2000/svg">
  <defs>
    <pattern id="BGPattern" patternUnits="userSpaceOnUse" alignment="0 0" imageRepeat="None" />
    <mask fill="white" id="Clip4480">
      <path d="M 14.679694854242445 8.980963600378324  L 5.407164750092251 8.980963600378324  L 5.407164750092251 10.235163291606481  L 14.679694854242445 10.235163291606481  L 14.679694854242445 8.980963600378324  Z M 14.679694854242445 12.161253386111792  L 5.407164750092251 12.161253386111792  L 5.407164750092251 13.393057313079153  L 14.679694854242445 13.393057313079153  L 14.679694854242445 12.161253386111792  Z M 14.679694854242445 5.845463886878672  L 5.407164750092251 5.845463886878672  L 5.407164750092251 7.077267813846034  L 14.679694854242445 7.077267813846034  L 14.679694854242445 5.845463886878672  Z M 3 15.453527818300334  L 3 4  L 17.524433499762782 4  L 17.524433499762782 15.453527818300334  L 3 15.453527818300334  Z M 13.441911604123835 18.029116435256068  C 12.66015210220726 17.68570469449898  11.871159732263214 17.364688323591416  11.07492337467712 17.066069446286377  C 11.07492337467712 17.066069446286377  13.007598520961828 15.319149349301497  13.007598520961828 15.319149349301497  C 13.832789413562116 15.602837302461845  14.679699619791549 15.916386982554256  15.548321020566462 16.259798632293357  C 16.416942421341375 16.6032104337291  17.234902093264502 16.946623145344702  18.002183915836405 17.29003485576246  C 18.783943417752976 17.63344659651955  19.449873306994554 17.939529403760833  20 18.208286432776497  C 20 18.208286432776497  17.394136562516472 20  17.394136562516472 20  C 16.930871768369368 19.716312046839654  16.351796070740047 19.402762457765228  15.656899291356964 19.05935071700814  C 14.976479367643405 18.715939006590382  14.238147961709931 18.372528176013155  13.441911604123835 18.029116435256068  Z M 0.8251888334124062 2.4412101479568964  L 0.8251888334124062 0  L 19.06623289579709 0  L 19.06623289579709 2.4412101479568964  L 0.8251888334124062 2.4412101479568964  Z M 8.403903937826176 2.956327774262191  C 8.519719923089921 2.2993657769654496  8.592106376454728 1.7021274155688038  8.62106047940718 1.1646132361801689  C 8.62106047940718 1.1646132361801689  11.791533937299024 1.52295711465509  11.791533937299024 1.52295711465509  C 11.588855648693603 2.2247113686173092  11.378938108578271 2.8891378116188853  11.161782979011816 3.5162374145183346  C 10.94462784944536 4.143337017417784  10.741952149533283 4.688317189817014  10.553750687180415 5.151176748482208  C 10.553750687180415 5.151176748482208  8.034746854031583 4.703246900388557  8.034746854031583 4.703246900388557  C 8.165040099448184 4.195595085057885  8.288087526016367 3.6132888613790737  8.403903937826176 2.956327774262191  Z M 4.820851124716656 16.17021363353314  C 5.588133359126132 15.81187090795271  6.225111890386252 15.475924917491588  6.7318076045455575 15.162375116041865  C 6.7318076045455575 15.162375116041865  8.990232624690298 17.021277917764788  8.990232624690298 17.021277917764788  C 8.338766824153357 17.379620582666565  7.5931935485996584 17.74542781463049  6.7535262710013635 18.11870143401628  C 5.928335849072589 18.491975053402072  5.081440233660167 18.8353858839793  4.212818832885254 19.148935715768353  C 3.3586745231156194 19.477416502041425  2.5551984727650634 19.75364005500593  1.802393270526926 19.977604235739207  C 1.5852379203331979 19.678985419112827  1.3029343662690436 19.32810777636313  0.9554857706587141 18.924972248009304  C 0.6225142366366944 18.52183671965548  0.30401749909631065 18.178425919417577  0 17.89473796625723  C 0.7672822932434162 17.700635679322325  1.570758284760033 17.454275264068663  2.410425562358328 17.155656386763624  C 3.2645698721279626 16.84210652463524  4.068045922478519 16.513625343950903  4.820851124716656 16.17021363353314  Z " fill-rule="evenodd" />
    </mask>
  </defs>
  <g transform="matrix(1 0 0 1 -220 -72 )">
    <path d="M 14.679694854242445 8.980963600378324  L 5.407164750092251 8.980963600378324  L 5.407164750092251 10.235163291606481  L 14.679694854242445 10.235163291606481  L 14.679694854242445 8.980963600378324  Z M 14.679694854242445 12.161253386111792  L 5.407164750092251 12.161253386111792  L 5.407164750092251 13.393057313079153  L 14.679694854242445 13.393057313079153  L 14.679694854242445 12.161253386111792  Z M 14.679694854242445 5.845463886878672  L 5.407164750092251 5.845463886878672  L 5.407164750092251 7.077267813846034  L 14.679694854242445 7.077267813846034  L 14.679694854242445 5.845463886878672  Z M 3 15.453527818300334  L 3 4  L 17.524433499762782 4  L 17.524433499762782 15.453527818300334  L 3 15.453527818300334  Z M 13.441911604123835 18.029116435256068  C 12.66015210220726 17.68570469449898  11.871159732263214 17.364688323591416  11.07492337467712 17.066069446286377  C 11.07492337467712 17.066069446286377  13.007598520961828 15.319149349301497  13.007598520961828 15.319149349301497  C 13.832789413562116 15.602837302461845  14.679699619791549 15.916386982554256  15.548321020566462 16.259798632293357  C 16.416942421341375 16.6032104337291  17.234902093264502 16.946623145344702  18.002183915836405 17.29003485576246  C 18.783943417752976 17.63344659651955  19.449873306994554 17.939529403760833  20 18.208286432776497  C 20 18.208286432776497  17.394136562516472 20  17.394136562516472 20  C 16.930871768369368 19.716312046839654  16.351796070740047 19.402762457765228  15.656899291356964 19.05935071700814  C 14.976479367643405 18.715939006590382  14.238147961709931 18.372528176013155  13.441911604123835 18.029116435256068  Z M 0.8251888334124062 2.4412101479568964  L 0.8251888334124062 0  L 19.06623289579709 0  L 19.06623289579709 2.4412101479568964  L 0.8251888334124062 2.4412101479568964  Z M 8.403903937826176 2.956327774262191  C 8.519719923089921 2.2993657769654496  8.592106376454728 1.7021274155688038  8.62106047940718 1.1646132361801689  C 8.62106047940718 1.1646132361801689  11.791533937299024 1.52295711465509  11.791533937299024 1.52295711465509  C 11.588855648693603 2.2247113686173092  11.378938108578271 2.8891378116188853  11.161782979011816 3.5162374145183346  C 10.94462784944536 4.143337017417784  10.741952149533283 4.688317189817014  10.553750687180415 5.151176748482208  C 10.553750687180415 5.151176748482208  8.034746854031583 4.703246900388557  8.034746854031583 4.703246900388557  C 8.165040099448184 4.195595085057885  8.288087526016367 3.6132888613790737  8.403903937826176 2.956327774262191  Z M 4.820851124716656 16.17021363353314  C 5.588133359126132 15.81187090795271  6.225111890386252 15.475924917491588  6.7318076045455575 15.162375116041865  C 6.7318076045455575 15.162375116041865  8.990232624690298 17.021277917764788  8.990232624690298 17.021277917764788  C 8.338766824153357 17.379620582666565  7.5931935485996584 17.74542781463049  6.7535262710013635 18.11870143401628  C 5.928335849072589 18.491975053402072  5.081440233660167 18.8353858839793  4.212818832885254 19.148935715768353  C 3.3586745231156194 19.477416502041425  2.5551984727650634 19.75364005500593  1.802393270526926 19.977604235739207  C 1.5852379203331979 19.678985419112827  1.3029343662690436 19.32810777636313  0.9554857706587141 18.924972248009304  C 0.6225142366366944 18.52183671965548  0.30401749909631065 18.178425919417577  0 17.89473796625723  C 0.7672822932434162 17.700635679322325  1.570758284760033 17.454275264068663  2.410425562358328 17.155656386763624  C 3.2645698721279626 16.84210652463524  4.068045922478519 16.513625343950903  4.820851124716656 16.17021363353314  Z " fill-rule="nonzero" fill="rgba(87, 99, 118, 1)" stroke="none" transform="matrix(1 0 0 1 220 72 )" class="fill" />
    <path d="M 14.679694854242445 8.980963600378324  L 5.407164750092251 8.980963600378324  L 5.407164750092251 10.235163291606481  L 14.679694854242445 10.235163291606481  L 14.679694854242445 8.980963600378324  Z " stroke-width="0" stroke-dasharray="0" stroke="rgba(121, 121, 121, 1)" fill="none" transform="matrix(1 0 0 1 220 72 )" class="stroke" mask="url(#Clip4480)" />
    <path d="M 14.679694854242445 12.161253386111792  L 5.407164750092251 12.161253386111792  L 5.407164750092251 13.393057313079153  L 14.679694854242445 13.393057313079153  L 14.679694854242445 12.161253386111792  Z " stroke-width="0" stroke-dasharray="0" stroke="rgba(121, 121, 121, 1)" fill="none" transform="matrix(1 0 0 1 220 72 )" class="stroke" mask="url(#Clip4480)" />
    <path d="M 14.679694854242445 5.845463886878672  L 5.407164750092251 5.845463886878672  L 5.407164750092251 7.077267813846034  L 14.679694854242445 7.077267813846034  L 14.679694854242445 5.845463886878672  Z " stroke-width="0" stroke-dasharray="0" stroke="rgba(121, 121, 121, 1)" fill="none" transform="matrix(1 0 0 1 220 72 )" class="stroke" mask="url(#Clip4480)" />
    <path d="M 3 15.453527818300334  L 3 4  L 17.524433499762782 4  L 17.524433499762782 15.453527818300334  L 3 15.453527818300334  Z " stroke-width="0" stroke-dasharray="0" stroke="rgba(121, 121, 121, 1)" fill="none" transform="matrix(1 0 0 1 220 72 )" class="stroke" mask="url(#Clip4480)" />
    <path d="M 13.441911604123835 18.029116435256068  C 12.66015210220726 17.68570469449898  11.871159732263214 17.364688323591416  11.07492337467712 17.066069446286377  C 11.07492337467712 17.066069446286377  13.007598520961828 15.319149349301497  13.007598520961828 15.319149349301497  C 13.832789413562116 15.602837302461845  14.679699619791549 15.916386982554256  15.548321020566462 16.259798632293357  C 16.416942421341375 16.6032104337291  17.234902093264502 16.946623145344702  18.002183915836405 17.29003485576246  C 18.783943417752976 17.63344659651955  19.449873306994554 17.939529403760833  20 18.208286432776497  C 20 18.208286432776497  17.394136562516472 20  17.394136562516472 20  C 16.930871768369368 19.716312046839654  16.351796070740047 19.402762457765228  15.656899291356964 19.05935071700814  C 14.976479367643405 18.715939006590382  14.238147961709931 18.372528176013155  13.441911604123835 18.029116435256068  Z " stroke-width="0" stroke-dasharray="0" stroke="rgba(121, 121, 121, 1)" fill="none" transform="matrix(1 0 0 1 220 72 )" class="stroke" mask="url(#Clip4480)" />
    <path d="M 0.8251888334124062 2.4412101479568964  L 0.8251888334124062 0  L 19.06623289579709 0  L 19.06623289579709 2.4412101479568964  L 0.8251888334124062 2.4412101479568964  Z " stroke-width="0" stroke-dasharray="0" stroke="rgba(121, 121, 121, 1)" fill="none" transform="matrix(1 0 0 1 220 72 )" class="stroke" mask="url(#Clip4480)" />
    <path d="M 8.403903937826176 2.956327774262191  C 8.519719923089921 2.2993657769654496  8.592106376454728 1.7021274155688038  8.62106047940718 1.1646132361801689  C 8.62106047940718 1.1646132361801689  11.791533937299024 1.52295711465509  11.791533937299024 1.52295711465509  C 11.588855648693603 2.2247113686173092  11.378938108578271 2.8891378116188853  11.161782979011816 3.5162374145183346  C 10.94462784944536 4.143337017417784  10.741952149533283 4.688317189817014  10.553750687180415 5.151176748482208  C 10.553750687180415 5.151176748482208  8.034746854031583 4.703246900388557  8.034746854031583 4.703246900388557  C 8.165040099448184 4.195595085057885  8.288087526016367 3.6132888613790737  8.403903937826176 2.956327774262191  Z " stroke-width="0" stroke-dasharray="0" stroke="rgba(121, 121, 121, 1)" fill="none" transform="matrix(1 0 0 1 220 72 )" class="stroke" mask="url(#Clip4480)" />
    <path d="M 4.820851124716656 16.17021363353314  C 5.588133359126132 15.81187090795271  6.225111890386252 15.475924917491588  6.7318076045455575 15.162375116041865  C 6.7318076045455575 15.162375116041865  8.990232624690298 17.021277917764788  8.990232624690298 17.021277917764788  C 8.338766824153357 17.379620582666565  7.5931935485996584 17.74542781463049  6.7535262710013635 18.11870143401628  C 5.928335849072589 18.491975053402072  5.081440233660167 18.8353858839793  4.212818832885254 19.148935715768353  C 3.3586745231156194 19.477416502041425  2.5551984727650634 19.75364005500593  1.802393270526926 19.977604235739207  C 1.5852379203331979 19.678985419112827  1.3029343662690436 19.32810777636313  0.9554857706587141 18.924972248009304  C 0.6225142366366944 18.52183671965548  0.30401749909631065 18.178425919417577  0 17.89473796625723  C 0.7672822932434162 17.700635679322325  1.570758284760033 17.454275264068663  2.410425562358328 17.155656386763624  C 3.2645698721279626 16.84210652463524  4.068045922478519 16.513625343950903  4.820851124716656 16.17021363353314  Z " stroke-width="0" stroke-dasharray="0" stroke="rgba(121, 121, 121, 1)" fill="none" transform="matrix(1 0 0 1 220 72 )" class="stroke" mask="url(#Clip4480)" />
  </g>
</svg>