<?xml version="1.0" encoding="utf-8"?>
<svg version="1.1" xmlns:xlink="http://www.w3.org/1999/xlink" width="12px" height="17px" xmlns="http://www.w3.org/2000/svg">
  <defs>
    <pattern id="BGPattern" patternUnits="userSpaceOnUse" alignment="0 0" imageRepeat="None" />
    <mask fill="white" id="Clip4561">
      <path d="M 10.161262536147174 12.022099158839213  C 10.161262536147174 12.022099158839213  12 12.022099158839213  12 12.022099158839213  C 11.443550806005046 15.168507718964701  9.09674728319387 17  6.024180151356672 17  C 4.330639439641912 17  2.7822784159078324 16.38950198983977  1.6209930474373961 15.262430310328288  C 3.2445933058512274E-05 13.689226146895235  0 12.045581147921578  0 8.500001866075083  C 0 4.9544218844504355  3.2445933058512274E-05 3.3107745528829216  1.6209930474373961 1.7375696896717137  C 2.7822784159078324 0.6104985933086938  4.330639439641912 0  6.024180151356672 0  C 9.120940412923769 0  11.41935767627515 1.8314925142946838  12 4.977900841160786  C 12 4.977900841160786  10.112902233433829 4.977900841160786  10.112902233433829 4.977900841160786  C 9.653227000399927 2.9350832543910395  8.17739681712607 1.596684752959101  6.024180151356672 1.596684752959101  C 4.887088633636868 1.596684752959101  3.798418585222728 2.019337230503083  3.048421829816034 2.7707184279305337  C 1.9597169320663876 3.8508288117602247  1.8387374638528273 5.001383996540078  1.8387374638528273 8.500001866075083  C 1.8387374638528273 11.998619735610092  1.9597169320663876 13.149171188239775  3.048421829816034 14.229281572069468  C 3.798418585222728 14.980662594552378  4.887088633636868 15.403315247040899  6.024180151356672 15.403315247040899  C 8.17739681712607 15.403315247040899  9.701587303113271 14.064916745608961  10.161262536147174 12.022099158839213  Z " fill-rule="evenodd" />
    </mask>
  </defs>
  <g transform="matrix(1 0 0 1 -670 -522 )">
    <path d="M 10.161262536147174 12.022099158839213  C 10.161262536147174 12.022099158839213  12 12.022099158839213  12 12.022099158839213  C 11.443550806005046 15.168507718964701  9.09674728319387 17  6.024180151356672 17  C 4.330639439641912 17  2.7822784159078324 16.38950198983977  1.6209930474373961 15.262430310328288  C 3.2445933058512274E-05 13.689226146895235  0 12.045581147921578  0 8.500001866075083  C 0 4.9544218844504355  3.2445933058512274E-05 3.3107745528829216  1.6209930474373961 1.7375696896717137  C 2.7822784159078324 0.6104985933086938  4.330639439641912 0  6.024180151356672 0  C 9.120940412923769 0  11.41935767627515 1.8314925142946838  12 4.977900841160786  C 12 4.977900841160786  10.112902233433829 4.977900841160786  10.112902233433829 4.977900841160786  C 9.653227000399927 2.9350832543910395  8.17739681712607 1.596684752959101  6.024180151356672 1.596684752959101  C 4.887088633636868 1.596684752959101  3.798418585222728 2.019337230503083  3.048421829816034 2.7707184279305337  C 1.9597169320663876 3.8508288117602247  1.8387374638528273 5.001383996540078  1.8387374638528273 8.500001866075083  C 1.8387374638528273 11.998619735610092  1.9597169320663876 13.149171188239775  3.048421829816034 14.229281572069468  C 3.798418585222728 14.980662594552378  4.887088633636868 15.403315247040899  6.024180151356672 15.403315247040899  C 8.17739681712607 15.403315247040899  9.701587303113271 14.064916745608961  10.161262536147174 12.022099158839213  Z " fill-rule="nonzero" fill="rgba(0, 0, 0, 1)" stroke="none" transform="matrix(1 0 0 1 670 522 )" class="fill" />
    <path d="M 10.161262536147174 12.022099158839213  C 10.161262536147174 12.022099158839213  12 12.022099158839213  12 12.022099158839213  C 11.443550806005046 15.168507718964701  9.09674728319387 17  6.024180151356672 17  C 4.330639439641912 17  2.7822784159078324 16.38950198983977  1.6209930474373961 15.262430310328288  C 3.2445933058512274E-05 13.689226146895235  0 12.045581147921578  0 8.500001866075083  C 0 4.9544218844504355  3.2445933058512274E-05 3.3107745528829216  1.6209930474373961 1.7375696896717137  C 2.7822784159078324 0.6104985933086938  4.330639439641912 0  6.024180151356672 0  C 9.120940412923769 0  11.41935767627515 1.8314925142946838  12 4.977900841160786  C 12 4.977900841160786  10.112902233433829 4.977900841160786  10.112902233433829 4.977900841160786  C 9.653227000399927 2.9350832543910395  8.17739681712607 1.596684752959101  6.024180151356672 1.596684752959101  C 4.887088633636868 1.596684752959101  3.798418585222728 2.019337230503083  3.048421829816034 2.7707184279305337  C 1.9597169320663876 3.8508288117602247  1.8387374638528273 5.001383996540078  1.8387374638528273 8.500001866075083  C 1.8387374638528273 11.998619735610092  1.9597169320663876 13.149171188239775  3.048421829816034 14.229281572069468  C 3.798418585222728 14.980662594552378  4.887088633636868 15.403315247040899  6.024180151356672 15.403315247040899  C 8.17739681712607 15.403315247040899  9.701587303113271 14.064916745608961  10.161262536147174 12.022099158839213  Z " stroke-width="0" stroke-dasharray="0" stroke="rgba(121, 121, 121, 1)" fill="none" transform="matrix(1 0 0 1 670 522 )" class="stroke" mask="url(#Clip4561)" />
  </g>
</svg>