<?xml version="1.0" encoding="utf-8"?>
<svg version="1.1" xmlns:xlink="http://www.w3.org/1999/xlink" width="22px" height="22px" xmlns="http://www.w3.org/2000/svg">
  <defs>
    <pattern id="BGPattern" patternUnits="userSpaceOnUse" alignment="0 0" imageRepeat="None" />
    <mask fill="white" id="Clip4517">
      <path d="M 8.592262826503674 14.638809890503019  L 8.592262826503674 13  L 20.866945446855535 13  L 20.866945446855535 14.638809890503019  L 8.592262826503674 14.638809890503019  Z M 7.081553437796318 21  L 7.081553437796318 19.67761067128226  L 22 19.67761067128226  L 22 21  L 7.081553437796318 21  Z M 7.813300952991657 6.61493482277317  L 7.813300952991657 2.531349311409265  L 21.81114256673329 2.531349311409265  L 21.81114256673329 6.423888732315511  L 20.182382274491612 6.423888732315511  L 20.182382274491612 4  L 9.371254715500953 4  L 9.371254715500953 6.61493482277317  L 7.813300952991657 6.61493482277317  Z M 13.714585479326836 3.534329899157256  L 13.714585479326836 0  L 15.461366659617577 0  L 15.461366659617577 3.534329899157256  L 13.714585479326836 3.534329899157256  Z M 13.690993307911127 20.53731048690525  L 13.690993307911127 13.779110074880032  L 15.461366659617577 13.779110074880032  L 15.461366659617577 20.53731048690525  L 13.690993307911127 20.53731048690525  Z M 15.721030622616668 8.788059429560484  C 15.721030622616668 8.788059429560484  15.721030622616668 3.892539420906247  15.721030622616668 3.892539420906247  L 17.373383086274053 3.892539420906247  C 17.373383086274053 3.892539420906247  17.373383086274053 8.764176770394158  17.373383086274053 8.764176770394158  C 17.373383086274053 9.018903151300176  17.41272025567736 9.186079867605347  17.491403974323116 9.265682247141113  C 17.570087692968873 9.329363486519032  17.735322001350696 9.361197700933461  17.987109713420335 9.361197700933461  C 18.08153092618237 9.361197700933461  18.24676429658028 9.361197700933461  18.48281545251755 9.361197700933461  C 18.718866608454817 9.361197700933461  18.9628043331446 9.361197700933461  19.214592983198152 9.361197700933461  C 19.466380695267784 9.361197700933461  19.639470618932947 9.361197700933461  19.733890893711074 9.361197700933461  C 19.90699582511887 9.361197700933461  20.032892026113473 9.313439025107726  20.11157574475923 9.217916928808458  C 20.205996019537352 9.122394358044408  20.268959127777286 8.931345895262849  20.300433178025937 8.64477865743548  C 20.34764284642304 8.342291228379827  20.37909532304166 7.880600938111763  20.394831879174028 7.259705888772171  C 20.552200254449456 7.387068367528009  20.77251204030261 7.514434642002089  21.05577286463698 7.641798069687488  C 21.33903462695527 7.753241306144604  21.59871265971308 7.840796189858031  21.83476475363426 7.904476954771171  C 21.756081034988505 9.06666657177371  21.582962033821993 9.854732643841116  21.315436827636074 10.268662834889103  C 21.047911621450158 10.666672834708807  20.59154774167582 10.865668582555447  19.94634049839349 10.865668582555447  C 19.851920223615366 10.865668582555447  19.70242716128548 10.865668582555447  19.49784911761295 10.865668582555447  C 19.293271073940417 10.865668582555447  19.07295928808726 10.865668582555447  18.836908132149997 10.865668582555447  C 18.60085697621273 10.865668582555447  18.38054519035957 10.865668582555447  18.17596714668704 10.865668582555447  C 17.987125659146876 10.865668582555447  17.85334382738367 10.865668582555447  17.77466010873792 10.865668582555447  C 17.223874078217627 10.865668582555447  16.79899081457934 10.802001102656149  16.499992496128684 10.67463767497075  C 16.200993239694114 10.54727472175013  15.996422699892898 10.332339329619224  15.886265868982406 10.029851426098789  C 15.776108100087999 9.727363997043135  15.721030622616668 9.313432382600807  15.721030622616668 8.788059429560484  Z M 11.637333806304618 6.304475436483874  C 11.76322813133139 5.6198986733015825  11.841902470138002 4.831847784107138  11.87337558240274 3.940304739238902  C 11.87337558240274 3.940304739238902  13.50213587464442 3.940304739238902  13.50213587464442 3.940304739238902  C 13.4549252682634 4.991051594249107  13.352655006105422 5.922392744864156  13.195287568813912 6.734332935731848  C 13.0379201315224 7.546273126599539  12.786126791549277 8.262694542421421  12.4399178667176 8.883590066225795  C 12.093709879869843 9.504485590030168  11.605863507991621 10.037820536543752  10.976392820841662 10.48359158451309  C 10.362659158816026 10.913441966789364  9.560086354210013 11.28756219047104  8.568670655087965 11.605970285219758  C 8.505723492574578 11.414925618156438  8.387682437871357 11.192042940960448  8.21457797545552 10.93731656005443  C 8.041473513039682 10.682590179148411  7.868384527358433 10.48357924842881  7.695280064942596 10.340295629515126  C 8.560801908029823 10.085569248609106  9.253218350717303 9.783094155637732  9.772531737964814 9.432845678432445  C 10.307581212352737 9.066676535534091  10.716723229939083 8.628858940671975  10.99998499225737 8.119405704395158  C 11.298983310708024 7.594032751354834  11.511439481277842 6.989052199666166  11.637333806304618 6.304475436483874  Z M 0.4484913807805391 14.137319596629023  C 0.4484913807805391 14.137319596629023  0 12.41791996538305  0 12.41791996538305  C 0.9127320391002859 12.115432536327397  2.0143205734833654 11.741297604237541  3.304734942800035 11.295526081803422  C 4.610885985497063 10.849755033834084  5.932756231624043 10.3880652180308  7.2703808555777645 9.910453313140112  C 7.2703808555777645 9.910453313140112  7.577259176893534 11.534337490593735  7.577259176893534 11.534337490593735  C 6.318318740577525 11.996028729791359  5.067236967992578 12.457718545594641  3.824032853312959 12.919410259257045  C 2.5808288558813297 13.381101498454667  1.4556441050269118 13.787070644958954  0.4484913807805391 14.137319596629023  Z M 0.3304704927314774 6.51940418610786  L 0.3304704927314774 4.847769873194543  L 7.412023930527795 4.847769873194543  L 7.412023930527795 6.51940418610786  L 0.3304704927314774 6.51940418610786  Z M 3.2811127558990663 19.916422080072575  C 3.2811127558990663 19.916422080072575  3.2811127558990663 0.04776531833265485  3.2811127558990663 0.04776531833265485  L 4.933465219556453 0.04776531833265485  C 4.933465219556453 0.04776531833265485  4.933465219556453 19.916422080072575  4.933465219556453 19.916422080072575  C 4.933465219556453 20.39403398496326  4.870531892305803 20.768169213593605  4.744637801775006 21.0388159636522  C 4.634480501872557 21.309462713710797  4.429909727575363 21.516420870187385  4.130911174628729 21.659704370484874  C 3.8476494123104423 21.80298798939856  3.4699594023507583 21.898504747969053  2.9978566214842655 21.946265914734884  C 2.5257538406177735 21.994027081500715  1.9120110332489717 22.00995154291202  1.1566467245601708 21.99403123306754  C 1.1409099339318238 21.787066018927348  1.0779766066811742 21.51642502175421  0.9678193067787244 21.182096735777208  C 0.8733986802566324 20.863688759644685  0.7710982853654045 20.57712324175214  0.6609409854629548 20.32239692015422  C 1.164517347586141 20.338317318960847  1.620881579104447 20.346279579320548  2.0300373147055413 20.346279579320548  C 2.454929723686993 20.36219996330015  2.738204852276061 20.36219996330015  2.879835733435204 20.346279579320548  C 3.0214666145943476 20.346279579320548  3.1237371112483032 20.31443053788174  3.186684039265712 20.25074894265524  C 3.2496312017790996 20.20298775364887  3.2811127558990663 20.091546437291413  3.2811127558990663 19.916422080072575  Z " fill-rule="evenodd" />
    </mask>
  </defs>
  <g transform="matrix(1 0 0 1 -478 -612 )">
    <path d="M 8.592262826503674 14.638809890503019  L 8.592262826503674 13  L 20.866945446855535 13  L 20.866945446855535 14.638809890503019  L 8.592262826503674 14.638809890503019  Z M 7.081553437796318 21  L 7.081553437796318 19.67761067128226  L 22 19.67761067128226  L 22 21  L 7.081553437796318 21  Z M 7.813300952991657 6.61493482277317  L 7.813300952991657 2.531349311409265  L 21.81114256673329 2.531349311409265  L 21.81114256673329 6.423888732315511  L 20.182382274491612 6.423888732315511  L 20.182382274491612 4  L 9.371254715500953 4  L 9.371254715500953 6.61493482277317  L 7.813300952991657 6.61493482277317  Z M 13.714585479326836 3.534329899157256  L 13.714585479326836 0  L 15.461366659617577 0  L 15.461366659617577 3.534329899157256  L 13.714585479326836 3.534329899157256  Z M 13.690993307911127 20.53731048690525  L 13.690993307911127 13.779110074880032  L 15.461366659617577 13.779110074880032  L 15.461366659617577 20.53731048690525  L 13.690993307911127 20.53731048690525  Z M 15.721030622616668 8.788059429560484  C 15.721030622616668 8.788059429560484  15.721030622616668 3.892539420906247  15.721030622616668 3.892539420906247  L 17.373383086274053 3.892539420906247  C 17.373383086274053 3.892539420906247  17.373383086274053 8.764176770394158  17.373383086274053 8.764176770394158  C 17.373383086274053 9.018903151300176  17.41272025567736 9.186079867605347  17.491403974323116 9.265682247141113  C 17.570087692968873 9.329363486519032  17.735322001350696 9.361197700933461  17.987109713420335 9.361197700933461  C 18.08153092618237 9.361197700933461  18.24676429658028 9.361197700933461  18.48281545251755 9.361197700933461  C 18.718866608454817 9.361197700933461  18.9628043331446 9.361197700933461  19.214592983198152 9.361197700933461  C 19.466380695267784 9.361197700933461  19.639470618932947 9.361197700933461  19.733890893711074 9.361197700933461  C 19.90699582511887 9.361197700933461  20.032892026113473 9.313439025107726  20.11157574475923 9.217916928808458  C 20.205996019537352 9.122394358044408  20.268959127777286 8.931345895262849  20.300433178025937 8.64477865743548  C 20.34764284642304 8.342291228379827  20.37909532304166 7.880600938111763  20.394831879174028 7.259705888772171  C 20.552200254449456 7.387068367528009  20.77251204030261 7.514434642002089  21.05577286463698 7.641798069687488  C 21.33903462695527 7.753241306144604  21.59871265971308 7.840796189858031  21.83476475363426 7.904476954771171  C 21.756081034988505 9.06666657177371  21.582962033821993 9.854732643841116  21.315436827636074 10.268662834889103  C 21.047911621450158 10.666672834708807  20.59154774167582 10.865668582555447  19.94634049839349 10.865668582555447  C 19.851920223615366 10.865668582555447  19.70242716128548 10.865668582555447  19.49784911761295 10.865668582555447  C 19.293271073940417 10.865668582555447  19.07295928808726 10.865668582555447  18.836908132149997 10.865668582555447  C 18.60085697621273 10.865668582555447  18.38054519035957 10.865668582555447  18.17596714668704 10.865668582555447  C 17.987125659146876 10.865668582555447  17.85334382738367 10.865668582555447  17.77466010873792 10.865668582555447  C 17.223874078217627 10.865668582555447  16.79899081457934 10.802001102656149  16.499992496128684 10.67463767497075  C 16.200993239694114 10.54727472175013  15.996422699892898 10.332339329619224  15.886265868982406 10.029851426098789  C 15.776108100087999 9.727363997043135  15.721030622616668 9.313432382600807  15.721030622616668 8.788059429560484  Z M 11.637333806304618 6.304475436483874  C 11.76322813133139 5.6198986733015825  11.841902470138002 4.831847784107138  11.87337558240274 3.940304739238902  C 11.87337558240274 3.940304739238902  13.50213587464442 3.940304739238902  13.50213587464442 3.940304739238902  C 13.4549252682634 4.991051594249107  13.352655006105422 5.922392744864156  13.195287568813912 6.734332935731848  C 13.0379201315224 7.546273126599539  12.786126791549277 8.262694542421421  12.4399178667176 8.883590066225795  C 12.093709879869843 9.504485590030168  11.605863507991621 10.037820536543752  10.976392820841662 10.48359158451309  C 10.362659158816026 10.913441966789364  9.560086354210013 11.28756219047104  8.568670655087965 11.605970285219758  C 8.505723492574578 11.414925618156438  8.387682437871357 11.192042940960448  8.21457797545552 10.93731656005443  C 8.041473513039682 10.682590179148411  7.868384527358433 10.48357924842881  7.695280064942596 10.340295629515126  C 8.560801908029823 10.085569248609106  9.253218350717303 9.783094155637732  9.772531737964814 9.432845678432445  C 10.307581212352737 9.066676535534091  10.716723229939083 8.628858940671975  10.99998499225737 8.119405704395158  C 11.298983310708024 7.594032751354834  11.511439481277842 6.989052199666166  11.637333806304618 6.304475436483874  Z M 0.4484913807805391 14.137319596629023  C 0.4484913807805391 14.137319596629023  0 12.41791996538305  0 12.41791996538305  C 0.9127320391002859 12.115432536327397  2.0143205734833654 11.741297604237541  3.304734942800035 11.295526081803422  C 4.610885985497063 10.849755033834084  5.932756231624043 10.3880652180308  7.2703808555777645 9.910453313140112  C 7.2703808555777645 9.910453313140112  7.577259176893534 11.534337490593735  7.577259176893534 11.534337490593735  C 6.318318740577525 11.996028729791359  5.067236967992578 12.457718545594641  3.824032853312959 12.919410259257045  C 2.5808288558813297 13.381101498454667  1.4556441050269118 13.787070644958954  0.4484913807805391 14.137319596629023  Z M 0.3304704927314774 6.51940418610786  L 0.3304704927314774 4.847769873194543  L 7.412023930527795 4.847769873194543  L 7.412023930527795 6.51940418610786  L 0.3304704927314774 6.51940418610786  Z M 3.2811127558990663 19.916422080072575  C 3.2811127558990663 19.916422080072575  3.2811127558990663 0.04776531833265485  3.2811127558990663 0.04776531833265485  L 4.933465219556453 0.04776531833265485  C 4.933465219556453 0.04776531833265485  4.933465219556453 19.916422080072575  4.933465219556453 19.916422080072575  C 4.933465219556453 20.39403398496326  4.870531892305803 20.768169213593605  4.744637801775006 21.0388159636522  C 4.634480501872557 21.309462713710797  4.429909727575363 21.516420870187385  4.130911174628729 21.659704370484874  C 3.8476494123104423 21.80298798939856  3.4699594023507583 21.898504747969053  2.9978566214842655 21.946265914734884  C 2.5257538406177735 21.994027081500715  1.9120110332489717 22.00995154291202  1.1566467245601708 21.99403123306754  C 1.1409099339318238 21.787066018927348  1.0779766066811742 21.51642502175421  0.9678193067787244 21.182096735777208  C 0.8733986802566324 20.863688759644685  0.7710982853654045 20.57712324175214  0.6609409854629548 20.32239692015422  C 1.164517347586141 20.338317318960847  1.620881579104447 20.346279579320548  2.0300373147055413 20.346279579320548  C 2.454929723686993 20.36219996330015  2.738204852276061 20.36219996330015  2.879835733435204 20.346279579320548  C 3.0214666145943476 20.346279579320548  3.1237371112483032 20.31443053788174  3.186684039265712 20.25074894265524  C 3.2496312017790996 20.20298775364887  3.2811127558990663 20.091546437291413  3.2811127558990663 19.916422080072575  Z " fill-rule="nonzero" fill="rgba(0, 0, 0, 1)" stroke="none" transform="matrix(1 0 0 1 478 612 )" class="fill" />
    <path d="M 8.592262826503674 14.638809890503019  L 8.592262826503674 13  L 20.866945446855535 13  L 20.866945446855535 14.638809890503019  L 8.592262826503674 14.638809890503019  Z " stroke-width="0" stroke-dasharray="0" stroke="rgba(121, 121, 121, 1)" fill="none" transform="matrix(1 0 0 1 478 612 )" class="stroke" mask="url(#Clip4517)" />
    <path d="M 7.081553437796318 21  L 7.081553437796318 19.67761067128226  L 22 19.67761067128226  L 22 21  L 7.081553437796318 21  Z " stroke-width="0" stroke-dasharray="0" stroke="rgba(121, 121, 121, 1)" fill="none" transform="matrix(1 0 0 1 478 612 )" class="stroke" mask="url(#Clip4517)" />
    <path d="M 7.813300952991657 6.61493482277317  L 7.813300952991657 2.531349311409265  L 21.81114256673329 2.531349311409265  L 21.81114256673329 6.423888732315511  L 20.182382274491612 6.423888732315511  L 20.182382274491612 4  L 9.371254715500953 4  L 9.371254715500953 6.61493482277317  L 7.813300952991657 6.61493482277317  Z " stroke-width="0" stroke-dasharray="0" stroke="rgba(121, 121, 121, 1)" fill="none" transform="matrix(1 0 0 1 478 612 )" class="stroke" mask="url(#Clip4517)" />
    <path d="M 13.714585479326836 3.534329899157256  L 13.714585479326836 0  L 15.461366659617577 0  L 15.461366659617577 3.534329899157256  L 13.714585479326836 3.534329899157256  Z " stroke-width="0" stroke-dasharray="0" stroke="rgba(121, 121, 121, 1)" fill="none" transform="matrix(1 0 0 1 478 612 )" class="stroke" mask="url(#Clip4517)" />
    <path d="M 13.690993307911127 20.53731048690525  L 13.690993307911127 13.779110074880032  L 15.461366659617577 13.779110074880032  L 15.461366659617577 20.53731048690525  L 13.690993307911127 20.53731048690525  Z " stroke-width="0" stroke-dasharray="0" stroke="rgba(121, 121, 121, 1)" fill="none" transform="matrix(1 0 0 1 478 612 )" class="stroke" mask="url(#Clip4517)" />
    <path d="M 15.721030622616668 8.788059429560484  C 15.721030622616668 8.788059429560484  15.721030622616668 3.892539420906247  15.721030622616668 3.892539420906247  L 17.373383086274053 3.892539420906247  C 17.373383086274053 3.892539420906247  17.373383086274053 8.764176770394158  17.373383086274053 8.764176770394158  C 17.373383086274053 9.018903151300176  17.41272025567736 9.186079867605347  17.491403974323116 9.265682247141113  C 17.570087692968873 9.329363486519032  17.735322001350696 9.361197700933461  17.987109713420335 9.361197700933461  C 18.08153092618237 9.361197700933461  18.24676429658028 9.361197700933461  18.48281545251755 9.361197700933461  C 18.718866608454817 9.361197700933461  18.9628043331446 9.361197700933461  19.214592983198152 9.361197700933461  C 19.466380695267784 9.361197700933461  19.639470618932947 9.361197700933461  19.733890893711074 9.361197700933461  C 19.90699582511887 9.361197700933461  20.032892026113473 9.313439025107726  20.11157574475923 9.217916928808458  C 20.205996019537352 9.122394358044408  20.268959127777286 8.931345895262849  20.300433178025937 8.64477865743548  C 20.34764284642304 8.342291228379827  20.37909532304166 7.880600938111763  20.394831879174028 7.259705888772171  C 20.552200254449456 7.387068367528009  20.77251204030261 7.514434642002089  21.05577286463698 7.641798069687488  C 21.33903462695527 7.753241306144604  21.59871265971308 7.840796189858031  21.83476475363426 7.904476954771171  C 21.756081034988505 9.06666657177371  21.582962033821993 9.854732643841116  21.315436827636074 10.268662834889103  C 21.047911621450158 10.666672834708807  20.59154774167582 10.865668582555447  19.94634049839349 10.865668582555447  C 19.851920223615366 10.865668582555447  19.70242716128548 10.865668582555447  19.49784911761295 10.865668582555447  C 19.293271073940417 10.865668582555447  19.07295928808726 10.865668582555447  18.836908132149997 10.865668582555447  C 18.60085697621273 10.865668582555447  18.38054519035957 10.865668582555447  18.17596714668704 10.865668582555447  C 17.987125659146876 10.865668582555447  17.85334382738367 10.865668582555447  17.77466010873792 10.865668582555447  C 17.223874078217627 10.865668582555447  16.79899081457934 10.802001102656149  16.499992496128684 10.67463767497075  C 16.200993239694114 10.54727472175013  15.996422699892898 10.332339329619224  15.886265868982406 10.029851426098789  C 15.776108100087999 9.727363997043135  15.721030622616668 9.313432382600807  15.721030622616668 8.788059429560484  Z " stroke-width="0" stroke-dasharray="0" stroke="rgba(121, 121, 121, 1)" fill="none" transform="matrix(1 0 0 1 478 612 )" class="stroke" mask="url(#Clip4517)" />
    <path d="M 11.637333806304618 6.304475436483874  C 11.76322813133139 5.6198986733015825  11.841902470138002 4.831847784107138  11.87337558240274 3.940304739238902  C 11.87337558240274 3.940304739238902  13.50213587464442 3.940304739238902  13.50213587464442 3.940304739238902  C 13.4549252682634 4.991051594249107  13.352655006105422 5.922392744864156  13.195287568813912 6.734332935731848  C 13.0379201315224 7.546273126599539  12.786126791549277 8.262694542421421  12.4399178667176 8.883590066225795  C 12.093709879869843 9.504485590030168  11.605863507991621 10.037820536543752  10.976392820841662 10.48359158451309  C 10.362659158816026 10.913441966789364  9.560086354210013 11.28756219047104  8.568670655087965 11.605970285219758  C 8.505723492574578 11.414925618156438  8.387682437871357 11.192042940960448  8.21457797545552 10.93731656005443  C 8.041473513039682 10.682590179148411  7.868384527358433 10.48357924842881  7.695280064942596 10.340295629515126  C 8.560801908029823 10.085569248609106  9.253218350717303 9.783094155637732  9.772531737964814 9.432845678432445  C 10.307581212352737 9.066676535534091  10.716723229939083 8.628858940671975  10.99998499225737 8.119405704395158  C 11.298983310708024 7.594032751354834  11.511439481277842 6.989052199666166  11.637333806304618 6.304475436483874  Z " stroke-width="0" stroke-dasharray="0" stroke="rgba(121, 121, 121, 1)" fill="none" transform="matrix(1 0 0 1 478 612 )" class="stroke" mask="url(#Clip4517)" />
    <path d="M 0.4484913807805391 14.137319596629023  C 0.4484913807805391 14.137319596629023  0 12.41791996538305  0 12.41791996538305  C 0.9127320391002859 12.115432536327397  2.0143205734833654 11.741297604237541  3.304734942800035 11.295526081803422  C 4.610885985497063 10.849755033834084  5.932756231624043 10.3880652180308  7.2703808555777645 9.910453313140112  C 7.2703808555777645 9.910453313140112  7.577259176893534 11.534337490593735  7.577259176893534 11.534337490593735  C 6.318318740577525 11.996028729791359  5.067236967992578 12.457718545594641  3.824032853312959 12.919410259257045  C 2.5808288558813297 13.381101498454667  1.4556441050269118 13.787070644958954  0.4484913807805391 14.137319596629023  Z " stroke-width="0" stroke-dasharray="0" stroke="rgba(121, 121, 121, 1)" fill="none" transform="matrix(1 0 0 1 478 612 )" class="stroke" mask="url(#Clip4517)" />
    <path d="M 0.3304704927314774 6.51940418610786  L 0.3304704927314774 4.847769873194543  L 7.412023930527795 4.847769873194543  L 7.412023930527795 6.51940418610786  L 0.3304704927314774 6.51940418610786  Z " stroke-width="0" stroke-dasharray="0" stroke="rgba(121, 121, 121, 1)" fill="none" transform="matrix(1 0 0 1 478 612 )" class="stroke" mask="url(#Clip4517)" />
    <path d="M 3.2811127558990663 19.916422080072575  C 3.2811127558990663 19.916422080072575  3.2811127558990663 0.04776531833265485  3.2811127558990663 0.04776531833265485  L 4.933465219556453 0.04776531833265485  C 4.933465219556453 0.04776531833265485  4.933465219556453 19.916422080072575  4.933465219556453 19.916422080072575  C 4.933465219556453 20.39403398496326  4.870531892305803 20.768169213593605  4.744637801775006 21.0388159636522  C 4.634480501872557 21.309462713710797  4.429909727575363 21.516420870187385  4.130911174628729 21.659704370484874  C 3.8476494123104423 21.80298798939856  3.4699594023507583 21.898504747969053  2.9978566214842655 21.946265914734884  C 2.5257538406177735 21.994027081500715  1.9120110332489717 22.00995154291202  1.1566467245601708 21.99403123306754  C 1.1409099339318238 21.787066018927348  1.0779766066811742 21.51642502175421  0.9678193067787244 21.182096735777208  C 0.8733986802566324 20.863688759644685  0.7710982853654045 20.57712324175214  0.6609409854629548 20.32239692015422  C 1.164517347586141 20.338317318960847  1.620881579104447 20.346279579320548  2.0300373147055413 20.346279579320548  C 2.454929723686993 20.36219996330015  2.738204852276061 20.36219996330015  2.879835733435204 20.346279579320548  C 3.0214666145943476 20.346279579320548  3.1237371112483032 20.31443053788174  3.186684039265712 20.25074894265524  C 3.2496312017790996 20.20298775364887  3.2811127558990663 20.091546437291413  3.2811127558990663 19.916422080072575  Z " stroke-width="0" stroke-dasharray="0" stroke="rgba(121, 121, 121, 1)" fill="none" transform="matrix(1 0 0 1 478 612 )" class="stroke" mask="url(#Clip4517)" />
  </g>
</svg>