<?xml version="1.0" encoding="utf-8"?>
<svg version="1.1" xmlns:xlink="http://www.w3.org/1999/xlink" width="22px" height="22px" xmlns="http://www.w3.org/2000/svg">
  <defs>
    <pattern id="BGPattern" patternUnits="userSpaceOnUse" alignment="0 0" imageRepeat="None" />
    <mask fill="white" id="Clip4507">
      <path d="M 11.047726489125488 3.5152169781656974  C 11.461320189562676 2.3833323831144373  11.795371953826422 1.2115937071321703  12.049891737577404 0  C 12.049891737577404 0  13.696319077631742 0.31086601222499805  13.696319077631742 0.31086601222499805  C 13.39407754554607 1.6181116040731565  13.020261450302721 2.8855126171792667  12.57485277689666 4.113049096946515  C 12.12944315533244 5.324643754297581  11.628395612958393 6.456532150224424  11.071635245279895 7.508705732756982  C 10.51487440352232 8.544937492873359  9.894474608324483 9.46159845822665  9.210453874691417 10.258700031443606  C 9.130916679308775 10.163047671618171  9.003624075976775 10.051454914704896  8.828641961687515 9.923918910047096  C 8.653659847398254 9.780440607863666  8.478663036657519 9.644928940903295  8.303680922368258 9.517392461136048  C 8.128699282158077 9.389856456478247  7.9696438545559865 9.294209797966186  7.826476713235598 9.230441558082562  C 8.494589723344689 8.497108699858677  9.09910834344702 7.644202196215019  9.639961935759699 6.671737725763371  C 10.180815053993298 5.699274205530619  10.650040038133197 4.647100622998062  11.047726489125488 3.5152169781656974  Z M 20.282028437849096 4.423915109171513  C 20.282028437849096 4.423915109171513  20.282028437849096 4.017388660260464  20.282028437849096 4.017388660260464  C 20.282028437849096 4.017388660260464  22 4.017388660260464  22 4.017388660260464  C 22 4.017388660260464  21.992059175412706 4.073184563607653  21.976151925967812 4.184779220958719  C 21.976151925967812 4.296372928090889  21.976151925967812 4.43188459505126  21.976151925967812 4.591305669869768  C 21.976151925967812 4.7347830218343026  21.96821110138052 4.846375778747577  21.95230385193562 4.926086791266279  C 21.825043960060132 7.65217310742311  21.689811006219916 9.963773941197  21.54664386489953 11.860875514413959  C 21.403476723579143 13.742034790105285  21.252362120564342 15.288402016882799  21.09328772979906 16.499996199124418  C 20.950120588478672 17.711590381366033  20.783125284447447 18.652170672487188  20.592235446634213 19.32173582532558  C 20.401346556979135 19.991301037552653  20.186584941179717 20.469564262008173  19.947973355031788 20.756520747597673  C 19.693453571280806 21.09130335371121  19.438929046739023 21.322461857349683  19.184410211146204 21.449998099562208  C 18.945797676840115 21.577534341774733  18.64356941896868 21.66522303581116  18.277697940945263 21.713049096946513  C 17.9436419099698 21.744933098110963  17.538002782413216 21.760864111787207  17.060778661959205 21.760864111787207  C 16.58355548966335 21.760864111787207  16.082446317008923 21.744933098110963  15.557500448220221 21.713049096946513  C 15.525685001172269 21.442034611939242  15.47004044325532 21.139133572054234  15.39050324787268 20.8043509659407  C 15.310966052490036 20.469568359827164  15.19961530637576 20.174640398837106  15.056448165055372 19.919567944106397  C 15.59730128328897 19.96739402751251  16.09040800107573 19.99927114701355  16.53581762263995 20.015213177290114  C 16.981226296046007 20.031155203854887  17.315278534388835 20.039128286461626  17.537982871091867 20.039128286461626  C 17.744779010191838 20.039128286461626  17.91183594450344 20.01522424956733  18.039095836378934 19.967398162449424  C 18.18226297769932 19.903630048766747  18.317435249417315 19.79999520436401  18.444695141292804 19.65651694672209  C 18.635584030947882 19.433328552544513  18.81852166627591 19.002903831153013  18.99350425464425 18.36522267947907  C 19.16848589485443 17.727541587193812  19.327602004578743 16.818838348761435  19.47076914589913 15.639128286461625  C 19.629843536664414 14.459417986607097  19.772956632969702 12.95290127743973  19.90021652484519 11.119567944106397  C 20.02747641672068 9.286235085882511  20.154768545973603 7.054350015721804  20.282028437849096 4.423915109171513  Z M 11.119331393344273 5.691309470745352  L 11.88289453722986 4.017388660260464  L 20.997834751548083 4.017388660260464  L 20.997834751548083 5.691309470745352  L 11.119331393344273 5.691309470745352  Z M 13.338415920782248 7.699996199124416  C 13.736102845853617 6.631879843956781  14.062214259609153 5.579707211643118  14.316733095201974 4.543475451526742  C 14.316733095201974 4.543475451526742  15.676801500503386 5.213052897822099  15.676801500503386 5.213052897822099  C 15.342744521369761 6.615951324605141  14.873459329186721 8.05072579446938  14.268976265015377 9.517392461136048  C 13.68040045028893 10.968117305386532  12.98847444799956 12.315217928384593  12.193101546014976 13.558696230568023  C 11.413636367554373 14.80217429519673  10.570535080127984 15.822470409319747  9.663810009791888 16.619571744981982  C 9.488827895502627 16.444209560411462  9.266126403274077 16.260874326640337  8.995699844157278 16.069569844544187  C 8.741180534485375 15.86232354003186  8.494596360451805 15.694934404661947  8.25598477430388 15.567398162449422  C 8.955912757381842 15.009427251241332  9.616076409480202 14.323909407858139  10.236467197175523 13.510866012224998  C 10.856857510791764 12.697822616591857  11.429492416458647 11.79710774963978  11.954438759326429 10.808701931881398  C 12.479384628115131 9.804353816597388  12.940729943869037 8.768111604073155  13.338415920782248 7.699996199124416  Z M 16.559665696672138 9.42174722795233  C 17.03688886896799 7.843486379044045  17.41870647092085 6.257254143818221  17.705040753561626 4.663050997384307  C 17.705040753561626 4.663050997384307  19.160562137114013 5.332613240177328  19.160562137114013 5.332613240177328  C 18.858320605028343 6.942758209027425  18.460621353900894 8.544936542654462  17.967490932160146 10.139139689088378  C 17.49026681170613 11.717400537996662  16.92557320470562 13.231890771474085  16.27336744404143 14.682615140615122  C 15.621161683377235 16.117397687339974  14.873468810768319 17.424633301889727  14.030374160449048 18.604343364189532  C 13.203185811416514 19.78405342648934  12.28055681018908 20.78043015545581  11.26248051965963 21.59347355108895  C 11.087497931291288 21.41811124774107  10.856856088554524 21.22681810888299  10.57052227999283 21.01957174498198  C 10.284187997352053 20.812325381080967  10.013782297714766 20.6449362754054  9.759262988042863 20.517400062887212  C 10.79324747617537 19.768124728971657  11.73175717841923 18.8275444378505  12.57485277689666 17.69566043668605  C 13.433854676660827 16.547834375550696  14.189488373857037 15.272460907130787  14.841694134521234 13.869562242793021  C 15.509807144630322 12.46666381600998  16.082441576218123 10.984065779334985  16.559665696672138 9.42174722795233  Z M 0.6204140175702326 14.993481152840118  C 0.6204140175702326 14.993481152840118  0.14320980843757328 13.271745327514537  0.14320980843757328 13.271745327514537  C 0.9067676781933968 13.080441082973113  1.7657501999751755 12.849282282391234  2.720197492725041 12.578267975550004  C 3.6905522719593433 12.307253193599324  4.71659119471376 12.012325202914926  5.798298142299576 11.693484953715702  C 6.89591257636983 11.358702406990847  7.977596531120274 11.02390893274869  9.043395992221656 10.689126386023835  C 9.043395992221656 10.689126386023835  9.281998096787984 12.267386759822672  9.281998096787984 12.267386759822672  C 7.786697211725441 12.745647608730957  6.275491447613399 13.231883644832365  4.748376063661063 13.72608679126628  C 3.221260205629646 14.20434740261984  1.8452878694368975 14.626814486173451  0.6204140175702326 14.993481152840118  Z M 5 22  L 5 0.023915109171512784  L 6.275502351432236 0.023915109171512784  L 6.275502351432236 22  L 5 22  Z M 1.2885241832048435 4.3043547668162825  C 1.447598692489898 3.3318912465835315  1.5668900261519259 2.3594191743807165  1.6464273400543379 1.3869547039290686  C 1.6464273400543379 1.3869547039290686  3.1974017018577 1.6260905921418625  3.1974017018577 1.6260905921418625  C 3.086049533506185 2.6942059970906027  2.94287551803914 3.754352866378491  2.7678936407894192 4.8065264489110495  C 2.5929115265001585 5.842759159246321  2.386152128528872 6.823189314702132  2.1475403053414057 7.747826417467442  C 1.9248359686383758 8.656522172926017  1.6623707380290722 9.469563668121365  1.3601290874236303 10.18695470392907  C 1.2646844055565516 10.107244641629261  1.1294510961570288 10.019570794763085  0.9544691003875382 9.923918910047096  C 0.7953945318425989 9.812324727805478  0.6283381901298459 9.708705257647534  0.4533561351004703 9.613052897822099  C 0.2783741393309796 9.51740053799666  0.1272596252060089 9.43768477438348  0 9.373917009609304  C 0.3022416209754996 8.704351916159595  0.5567661751472232 7.939133987775001  0.7635631438855867 7.078264174674421  C 0.9703599941041802 6.201452539157657  1.1453570418844556 5.276818287049035  1.2885241832048435 4.3043547668162825  Z M 1.5271262877711733 6.62392271092268  L 1.8134852225241005 4.9021716820947665  L 8.733188983436538 4.9021716820947665  L 8.733188983436538 6.62392271092268  L 1.5271262877711733 6.62392271092268  Z " fill-rule="evenodd" />
    </mask>
  </defs>
  <g transform="matrix(1 0 0 1 -777 -612 )">
    <path d="M 11.047726489125488 3.5152169781656974  C 11.461320189562676 2.3833323831144373  11.795371953826422 1.2115937071321703  12.049891737577404 0  C 12.049891737577404 0  13.696319077631742 0.31086601222499805  13.696319077631742 0.31086601222499805  C 13.39407754554607 1.6181116040731565  13.020261450302721 2.8855126171792667  12.57485277689666 4.113049096946515  C 12.12944315533244 5.324643754297581  11.628395612958393 6.456532150224424  11.071635245279895 7.508705732756982  C 10.51487440352232 8.544937492873359  9.894474608324483 9.46159845822665  9.210453874691417 10.258700031443606  C 9.130916679308775 10.163047671618171  9.003624075976775 10.051454914704896  8.828641961687515 9.923918910047096  C 8.653659847398254 9.780440607863666  8.478663036657519 9.644928940903295  8.303680922368258 9.517392461136048  C 8.128699282158077 9.389856456478247  7.9696438545559865 9.294209797966186  7.826476713235598 9.230441558082562  C 8.494589723344689 8.497108699858677  9.09910834344702 7.644202196215019  9.639961935759699 6.671737725763371  C 10.180815053993298 5.699274205530619  10.650040038133197 4.647100622998062  11.047726489125488 3.5152169781656974  Z M 20.282028437849096 4.423915109171513  C 20.282028437849096 4.423915109171513  20.282028437849096 4.017388660260464  20.282028437849096 4.017388660260464  C 20.282028437849096 4.017388660260464  22 4.017388660260464  22 4.017388660260464  C 22 4.017388660260464  21.992059175412706 4.073184563607653  21.976151925967812 4.184779220958719  C 21.976151925967812 4.296372928090889  21.976151925967812 4.43188459505126  21.976151925967812 4.591305669869768  C 21.976151925967812 4.7347830218343026  21.96821110138052 4.846375778747577  21.95230385193562 4.926086791266279  C 21.825043960060132 7.65217310742311  21.689811006219916 9.963773941197  21.54664386489953 11.860875514413959  C 21.403476723579143 13.742034790105285  21.252362120564342 15.288402016882799  21.09328772979906 16.499996199124418  C 20.950120588478672 17.711590381366033  20.783125284447447 18.652170672487188  20.592235446634213 19.32173582532558  C 20.401346556979135 19.991301037552653  20.186584941179717 20.469564262008173  19.947973355031788 20.756520747597673  C 19.693453571280806 21.09130335371121  19.438929046739023 21.322461857349683  19.184410211146204 21.449998099562208  C 18.945797676840115 21.577534341774733  18.64356941896868 21.66522303581116  18.277697940945263 21.713049096946513  C 17.9436419099698 21.744933098110963  17.538002782413216 21.760864111787207  17.060778661959205 21.760864111787207  C 16.58355548966335 21.760864111787207  16.082446317008923 21.744933098110963  15.557500448220221 21.713049096946513  C 15.525685001172269 21.442034611939242  15.47004044325532 21.139133572054234  15.39050324787268 20.8043509659407  C 15.310966052490036 20.469568359827164  15.19961530637576 20.174640398837106  15.056448165055372 19.919567944106397  C 15.59730128328897 19.96739402751251  16.09040800107573 19.99927114701355  16.53581762263995 20.015213177290114  C 16.981226296046007 20.031155203854887  17.315278534388835 20.039128286461626  17.537982871091867 20.039128286461626  C 17.744779010191838 20.039128286461626  17.91183594450344 20.01522424956733  18.039095836378934 19.967398162449424  C 18.18226297769932 19.903630048766747  18.317435249417315 19.79999520436401  18.444695141292804 19.65651694672209  C 18.635584030947882 19.433328552544513  18.81852166627591 19.002903831153013  18.99350425464425 18.36522267947907  C 19.16848589485443 17.727541587193812  19.327602004578743 16.818838348761435  19.47076914589913 15.639128286461625  C 19.629843536664414 14.459417986607097  19.772956632969702 12.95290127743973  19.90021652484519 11.119567944106397  C 20.02747641672068 9.286235085882511  20.154768545973603 7.054350015721804  20.282028437849096 4.423915109171513  Z M 11.119331393344273 5.691309470745352  L 11.88289453722986 4.017388660260464  L 20.997834751548083 4.017388660260464  L 20.997834751548083 5.691309470745352  L 11.119331393344273 5.691309470745352  Z M 13.338415920782248 7.699996199124416  C 13.736102845853617 6.631879843956781  14.062214259609153 5.579707211643118  14.316733095201974 4.543475451526742  C 14.316733095201974 4.543475451526742  15.676801500503386 5.213052897822099  15.676801500503386 5.213052897822099  C 15.342744521369761 6.615951324605141  14.873459329186721 8.05072579446938  14.268976265015377 9.517392461136048  C 13.68040045028893 10.968117305386532  12.98847444799956 12.315217928384593  12.193101546014976 13.558696230568023  C 11.413636367554373 14.80217429519673  10.570535080127984 15.822470409319747  9.663810009791888 16.619571744981982  C 9.488827895502627 16.444209560411462  9.266126403274077 16.260874326640337  8.995699844157278 16.069569844544187  C 8.741180534485375 15.86232354003186  8.494596360451805 15.694934404661947  8.25598477430388 15.567398162449422  C 8.955912757381842 15.009427251241332  9.616076409480202 14.323909407858139  10.236467197175523 13.510866012224998  C 10.856857510791764 12.697822616591857  11.429492416458647 11.79710774963978  11.954438759326429 10.808701931881398  C 12.479384628115131 9.804353816597388  12.940729943869037 8.768111604073155  13.338415920782248 7.699996199124416  Z M 16.559665696672138 9.42174722795233  C 17.03688886896799 7.843486379044045  17.41870647092085 6.257254143818221  17.705040753561626 4.663050997384307  C 17.705040753561626 4.663050997384307  19.160562137114013 5.332613240177328  19.160562137114013 5.332613240177328  C 18.858320605028343 6.942758209027425  18.460621353900894 8.544936542654462  17.967490932160146 10.139139689088378  C 17.49026681170613 11.717400537996662  16.92557320470562 13.231890771474085  16.27336744404143 14.682615140615122  C 15.621161683377235 16.117397687339974  14.873468810768319 17.424633301889727  14.030374160449048 18.604343364189532  C 13.203185811416514 19.78405342648934  12.28055681018908 20.78043015545581  11.26248051965963 21.59347355108895  C 11.087497931291288 21.41811124774107  10.856856088554524 21.22681810888299  10.57052227999283 21.01957174498198  C 10.284187997352053 20.812325381080967  10.013782297714766 20.6449362754054  9.759262988042863 20.517400062887212  C 10.79324747617537 19.768124728971657  11.73175717841923 18.8275444378505  12.57485277689666 17.69566043668605  C 13.433854676660827 16.547834375550696  14.189488373857037 15.272460907130787  14.841694134521234 13.869562242793021  C 15.509807144630322 12.46666381600998  16.082441576218123 10.984065779334985  16.559665696672138 9.42174722795233  Z M 0.6204140175702326 14.993481152840118  C 0.6204140175702326 14.993481152840118  0.14320980843757328 13.271745327514537  0.14320980843757328 13.271745327514537  C 0.9067676781933968 13.080441082973113  1.7657501999751755 12.849282282391234  2.720197492725041 12.578267975550004  C 3.6905522719593433 12.307253193599324  4.71659119471376 12.012325202914926  5.798298142299576 11.693484953715702  C 6.89591257636983 11.358702406990847  7.977596531120274 11.02390893274869  9.043395992221656 10.689126386023835  C 9.043395992221656 10.689126386023835  9.281998096787984 12.267386759822672  9.281998096787984 12.267386759822672  C 7.786697211725441 12.745647608730957  6.275491447613399 13.231883644832365  4.748376063661063 13.72608679126628  C 3.221260205629646 14.20434740261984  1.8452878694368975 14.626814486173451  0.6204140175702326 14.993481152840118  Z M 5 22  L 5 0.023915109171512784  L 6.275502351432236 0.023915109171512784  L 6.275502351432236 22  L 5 22  Z M 1.2885241832048435 4.3043547668162825  C 1.447598692489898 3.3318912465835315  1.5668900261519259 2.3594191743807165  1.6464273400543379 1.3869547039290686  C 1.6464273400543379 1.3869547039290686  3.1974017018577 1.6260905921418625  3.1974017018577 1.6260905921418625  C 3.086049533506185 2.6942059970906027  2.94287551803914 3.754352866378491  2.7678936407894192 4.8065264489110495  C 2.5929115265001585 5.842759159246321  2.386152128528872 6.823189314702132  2.1475403053414057 7.747826417467442  C 1.9248359686383758 8.656522172926017  1.6623707380290722 9.469563668121365  1.3601290874236303 10.18695470392907  C 1.2646844055565516 10.107244641629261  1.1294510961570288 10.019570794763085  0.9544691003875382 9.923918910047096  C 0.7953945318425989 9.812324727805478  0.6283381901298459 9.708705257647534  0.4533561351004703 9.613052897822099  C 0.2783741393309796 9.51740053799666  0.1272596252060089 9.43768477438348  0 9.373917009609304  C 0.3022416209754996 8.704351916159595  0.5567661751472232 7.939133987775001  0.7635631438855867 7.078264174674421  C 0.9703599941041802 6.201452539157657  1.1453570418844556 5.276818287049035  1.2885241832048435 4.3043547668162825  Z M 1.5271262877711733 6.62392271092268  L 1.8134852225241005 4.9021716820947665  L 8.733188983436538 4.9021716820947665  L 8.733188983436538 6.62392271092268  L 1.5271262877711733 6.62392271092268  Z " fill-rule="nonzero" fill="rgba(0, 0, 0, 1)" stroke="none" transform="matrix(1 0 0 1 777 612 )" class="fill" />
    <path d="M 11.047726489125488 3.5152169781656974  C 11.461320189562676 2.3833323831144373  11.795371953826422 1.2115937071321703  12.049891737577404 0  C 12.049891737577404 0  13.696319077631742 0.31086601222499805  13.696319077631742 0.31086601222499805  C 13.39407754554607 1.6181116040731565  13.020261450302721 2.8855126171792667  12.57485277689666 4.113049096946515  C 12.12944315533244 5.324643754297581  11.628395612958393 6.456532150224424  11.071635245279895 7.508705732756982  C 10.51487440352232 8.544937492873359  9.894474608324483 9.46159845822665  9.210453874691417 10.258700031443606  C 9.130916679308775 10.163047671618171  9.003624075976775 10.051454914704896  8.828641961687515 9.923918910047096  C 8.653659847398254 9.780440607863666  8.478663036657519 9.644928940903295  8.303680922368258 9.517392461136048  C 8.128699282158077 9.389856456478247  7.9696438545559865 9.294209797966186  7.826476713235598 9.230441558082562  C 8.494589723344689 8.497108699858677  9.09910834344702 7.644202196215019  9.639961935759699 6.671737725763371  C 10.180815053993298 5.699274205530619  10.650040038133197 4.647100622998062  11.047726489125488 3.5152169781656974  Z " stroke-width="0" stroke-dasharray="0" stroke="rgba(121, 121, 121, 1)" fill="none" transform="matrix(1 0 0 1 777 612 )" class="stroke" mask="url(#Clip4507)" />
    <path d="M 20.282028437849096 4.423915109171513  C 20.282028437849096 4.423915109171513  20.282028437849096 4.017388660260464  20.282028437849096 4.017388660260464  C 20.282028437849096 4.017388660260464  22 4.017388660260464  22 4.017388660260464  C 22 4.017388660260464  21.992059175412706 4.073184563607653  21.976151925967812 4.184779220958719  C 21.976151925967812 4.296372928090889  21.976151925967812 4.43188459505126  21.976151925967812 4.591305669869768  C 21.976151925967812 4.7347830218343026  21.96821110138052 4.846375778747577  21.95230385193562 4.926086791266279  C 21.825043960060132 7.65217310742311  21.689811006219916 9.963773941197  21.54664386489953 11.860875514413959  C 21.403476723579143 13.742034790105285  21.252362120564342 15.288402016882799  21.09328772979906 16.499996199124418  C 20.950120588478672 17.711590381366033  20.783125284447447 18.652170672487188  20.592235446634213 19.32173582532558  C 20.401346556979135 19.991301037552653  20.186584941179717 20.469564262008173  19.947973355031788 20.756520747597673  C 19.693453571280806 21.09130335371121  19.438929046739023 21.322461857349683  19.184410211146204 21.449998099562208  C 18.945797676840115 21.577534341774733  18.64356941896868 21.66522303581116  18.277697940945263 21.713049096946513  C 17.9436419099698 21.744933098110963  17.538002782413216 21.760864111787207  17.060778661959205 21.760864111787207  C 16.58355548966335 21.760864111787207  16.082446317008923 21.744933098110963  15.557500448220221 21.713049096946513  C 15.525685001172269 21.442034611939242  15.47004044325532 21.139133572054234  15.39050324787268 20.8043509659407  C 15.310966052490036 20.469568359827164  15.19961530637576 20.174640398837106  15.056448165055372 19.919567944106397  C 15.59730128328897 19.96739402751251  16.09040800107573 19.99927114701355  16.53581762263995 20.015213177290114  C 16.981226296046007 20.031155203854887  17.315278534388835 20.039128286461626  17.537982871091867 20.039128286461626  C 17.744779010191838 20.039128286461626  17.91183594450344 20.01522424956733  18.039095836378934 19.967398162449424  C 18.18226297769932 19.903630048766747  18.317435249417315 19.79999520436401  18.444695141292804 19.65651694672209  C 18.635584030947882 19.433328552544513  18.81852166627591 19.002903831153013  18.99350425464425 18.36522267947907  C 19.16848589485443 17.727541587193812  19.327602004578743 16.818838348761435  19.47076914589913 15.639128286461625  C 19.629843536664414 14.459417986607097  19.772956632969702 12.95290127743973  19.90021652484519 11.119567944106397  C 20.02747641672068 9.286235085882511  20.154768545973603 7.054350015721804  20.282028437849096 4.423915109171513  Z " stroke-width="0" stroke-dasharray="0" stroke="rgba(121, 121, 121, 1)" fill="none" transform="matrix(1 0 0 1 777 612 )" class="stroke" mask="url(#Clip4507)" />
    <path d="M 11.119331393344273 5.691309470745352  L 11.88289453722986 4.017388660260464  L 20.997834751548083 4.017388660260464  L 20.997834751548083 5.691309470745352  L 11.119331393344273 5.691309470745352  Z " stroke-width="0" stroke-dasharray="0" stroke="rgba(121, 121, 121, 1)" fill="none" transform="matrix(1 0 0 1 777 612 )" class="stroke" mask="url(#Clip4507)" />
    <path d="M 13.338415920782248 7.699996199124416  C 13.736102845853617 6.631879843956781  14.062214259609153 5.579707211643118  14.316733095201974 4.543475451526742  C 14.316733095201974 4.543475451526742  15.676801500503386 5.213052897822099  15.676801500503386 5.213052897822099  C 15.342744521369761 6.615951324605141  14.873459329186721 8.05072579446938  14.268976265015377 9.517392461136048  C 13.68040045028893 10.968117305386532  12.98847444799956 12.315217928384593  12.193101546014976 13.558696230568023  C 11.413636367554373 14.80217429519673  10.570535080127984 15.822470409319747  9.663810009791888 16.619571744981982  C 9.488827895502627 16.444209560411462  9.266126403274077 16.260874326640337  8.995699844157278 16.069569844544187  C 8.741180534485375 15.86232354003186  8.494596360451805 15.694934404661947  8.25598477430388 15.567398162449422  C 8.955912757381842 15.009427251241332  9.616076409480202 14.323909407858139  10.236467197175523 13.510866012224998  C 10.856857510791764 12.697822616591857  11.429492416458647 11.79710774963978  11.954438759326429 10.808701931881398  C 12.479384628115131 9.804353816597388  12.940729943869037 8.768111604073155  13.338415920782248 7.699996199124416  Z " stroke-width="0" stroke-dasharray="0" stroke="rgba(121, 121, 121, 1)" fill="none" transform="matrix(1 0 0 1 777 612 )" class="stroke" mask="url(#Clip4507)" />
    <path d="M 16.559665696672138 9.42174722795233  C 17.03688886896799 7.843486379044045  17.41870647092085 6.257254143818221  17.705040753561626 4.663050997384307  C 17.705040753561626 4.663050997384307  19.160562137114013 5.332613240177328  19.160562137114013 5.332613240177328  C 18.858320605028343 6.942758209027425  18.460621353900894 8.544936542654462  17.967490932160146 10.139139689088378  C 17.49026681170613 11.717400537996662  16.92557320470562 13.231890771474085  16.27336744404143 14.682615140615122  C 15.621161683377235 16.117397687339974  14.873468810768319 17.424633301889727  14.030374160449048 18.604343364189532  C 13.203185811416514 19.78405342648934  12.28055681018908 20.78043015545581  11.26248051965963 21.59347355108895  C 11.087497931291288 21.41811124774107  10.856856088554524 21.22681810888299  10.57052227999283 21.01957174498198  C 10.284187997352053 20.812325381080967  10.013782297714766 20.6449362754054  9.759262988042863 20.517400062887212  C 10.79324747617537 19.768124728971657  11.73175717841923 18.8275444378505  12.57485277689666 17.69566043668605  C 13.433854676660827 16.547834375550696  14.189488373857037 15.272460907130787  14.841694134521234 13.869562242793021  C 15.509807144630322 12.46666381600998  16.082441576218123 10.984065779334985  16.559665696672138 9.42174722795233  Z " stroke-width="0" stroke-dasharray="0" stroke="rgba(121, 121, 121, 1)" fill="none" transform="matrix(1 0 0 1 777 612 )" class="stroke" mask="url(#Clip4507)" />
    <path d="M 0.6204140175702326 14.993481152840118  C 0.6204140175702326 14.993481152840118  0.14320980843757328 13.271745327514537  0.14320980843757328 13.271745327514537  C 0.9067676781933968 13.080441082973113  1.7657501999751755 12.849282282391234  2.720197492725041 12.578267975550004  C 3.6905522719593433 12.307253193599324  4.71659119471376 12.012325202914926  5.798298142299576 11.693484953715702  C 6.89591257636983 11.358702406990847  7.977596531120274 11.02390893274869  9.043395992221656 10.689126386023835  C 9.043395992221656 10.689126386023835  9.281998096787984 12.267386759822672  9.281998096787984 12.267386759822672  C 7.786697211725441 12.745647608730957  6.275491447613399 13.231883644832365  4.748376063661063 13.72608679126628  C 3.221260205629646 14.20434740261984  1.8452878694368975 14.626814486173451  0.6204140175702326 14.993481152840118  Z " stroke-width="0" stroke-dasharray="0" stroke="rgba(121, 121, 121, 1)" fill="none" transform="matrix(1 0 0 1 777 612 )" class="stroke" mask="url(#Clip4507)" />
    <path d="M 5 22  L 5 0.023915109171512784  L 6.275502351432236 0.023915109171512784  L 6.275502351432236 22  L 5 22  Z " stroke-width="0" stroke-dasharray="0" stroke="rgba(121, 121, 121, 1)" fill="none" transform="matrix(1 0 0 1 777 612 )" class="stroke" mask="url(#Clip4507)" />
    <path d="M 1.2885241832048435 4.3043547668162825  C 1.447598692489898 3.3318912465835315  1.5668900261519259 2.3594191743807165  1.6464273400543379 1.3869547039290686  C 1.6464273400543379 1.3869547039290686  3.1974017018577 1.6260905921418625  3.1974017018577 1.6260905921418625  C 3.086049533506185 2.6942059970906027  2.94287551803914 3.754352866378491  2.7678936407894192 4.8065264489110495  C 2.5929115265001585 5.842759159246321  2.386152128528872 6.823189314702132  2.1475403053414057 7.747826417467442  C 1.9248359686383758 8.656522172926017  1.6623707380290722 9.469563668121365  1.3601290874236303 10.18695470392907  C 1.2646844055565516 10.107244641629261  1.1294510961570288 10.019570794763085  0.9544691003875382 9.923918910047096  C 0.7953945318425989 9.812324727805478  0.6283381901298459 9.708705257647534  0.4533561351004703 9.613052897822099  C 0.2783741393309796 9.51740053799666  0.1272596252060089 9.43768477438348  0 9.373917009609304  C 0.3022416209754996 8.704351916159595  0.5567661751472232 7.939133987775001  0.7635631438855867 7.078264174674421  C 0.9703599941041802 6.201452539157657  1.1453570418844556 5.276818287049035  1.2885241832048435 4.3043547668162825  Z " stroke-width="0" stroke-dasharray="0" stroke="rgba(121, 121, 121, 1)" fill="none" transform="matrix(1 0 0 1 777 612 )" class="stroke" mask="url(#Clip4507)" />
    <path d="M 1.5271262877711733 6.62392271092268  L 1.8134852225241005 4.9021716820947665  L 8.733188983436538 4.9021716820947665  L 8.733188983436538 6.62392271092268  L 1.5271262877711733 6.62392271092268  Z " stroke-width="0" stroke-dasharray="0" stroke="rgba(121, 121, 121, 1)" fill="none" transform="matrix(1 0 0 1 777 612 )" class="stroke" mask="url(#Clip4507)" />
  </g>
</svg>