<?xml version="1.0" encoding="utf-8"?>
<svg version="1.1" xmlns:xlink="http://www.w3.org/1999/xlink" width="22px" height="22px" xmlns="http://www.w3.org/2000/svg">
  <defs>
    <pattern id="BGPattern" patternUnits="userSpaceOnUse" alignment="0 0" imageRepeat="None" />
    <mask fill="white" id="Clip4518">
      <path d="M 14.198914014708913 6.071420953439934  L 14.198914014708913 4.4285738859871175  L 21.881085985291087 4.4285738859871175  L 21.881085985291087 6.071420953439934  L 14.198914014708913 6.071420953439934  Z M 13.961085985291085 4.023807443197573  C 14.262346982610488 2.706347659542553  14.508100470822738 1.3650791425467221  14.698371022063373 0  C 14.698371022063373 0  16.434600316172933 0.261912150534601  16.434600316172933 0.261912150534601  C 16.21261847893326 1.7698484236513876  15.927198948381333 3.2381041052701836  15.578371022063372 4.666674464865787  C 15.245397793662793 6.0952457705664305  14.849019949824731 7.436514287562262  14.389200632345865 8.69048190806336  C 13.929381314867001 9.944449528564459  13.406123358993746 11.039683429813111  12.819457007354456 11.97619118064964  C 12.724321259193072 11.880952935918756  12.597472334868376 11.753966244348312  12.438914014708915 11.595236309516029  C 12.280355694549453 11.436506374683743  12.113870970513437 11.28571899166533  11.939457007354456 11.142861861095268  C 11.76504209911334 10.984131453210463  11.606503625678743 10.857144761640015  11.463800948518799 10.761906989961654  C 12.01875601415905 9.888891402279047  12.50234887277476 8.880951774789844  12.914600316172933 7.738094730229329  C 13.326852704653241 6.579365827511634  13.675680630971202 5.341267226852594  13.961085985291085 4.023807443197573  Z M 17.62377070589044 11.833336888394697  C 18.19458141453021 9.896829696620237  18.622709292734896 7.72222381817719  18.90811464705478 5.309526348853355  C 18.90811464705478 5.309526348853355  20.596742044126746 5.452380641108298  20.596742044126746 5.452380641108298  C 20.263769760808305 8.08729973536582  19.78017690219259 10.444447593349604  19.14594267647261 12.523811915694129  C 18.527565038834283 14.587302960723912  17.67133857997113 16.40476447532111  16.577285036772288 17.976192556802427  C 15.483231493573442 19.531747479232134  14.080003780328544 20.857139171019323  12.367571654409238 21.952376856688137  C 12.304149082411161 21.841265807695034  12.209019004742595 21.690463405259106  12.082171970582172 21.49998727058673  C 11.971180579421265 21.309511195045918  11.84433165509657 21.11904623623933  11.701628977936629 20.928570101566958  C 11.57478288885834 20.75396700768306  11.45584808234243 20.611103136114583  11.344856691181523 20.49999208712148  C 12.962153068939447 19.53173849123425  14.270281892226269 18.333333491017505  15.269200632345866 16.904762658369382  C 16.28397501546498 15.46031878493278  17.068816585332325 13.769844080169158  17.62377070589044 11.833336888394697  Z M 13.556772286755102 6.142855668407729  C 13.556772286755102 6.142855668407729  15.078914014708914 5.928566661184992  15.078914014708914 5.928566661184992  C 15.396030655027836 8.103168755207879  15.839988659014367 10.150787942080482  16.410799367654135 12.07142232959272  C 16.981610076293904 13.97618320326396  17.718931971269505 15.65871961368639  18.62271496322771 17.119036527911476  C 19.542354543267578 18.57935344213656  20.668108976561964 19.714280175117164  22 20.52380365877741  C 21.873152965839576 20.634914707770516  21.73044367310468 20.76984001890576  21.57188535294522 20.928570101566958  C 21.41332703278576 21.087300213793934  21.262702677159943 21.253964599415685  21.119999999999997 21.42856769329958  C 20.993152965839577 21.603170787183476  20.882163464842947 21.769835231936792  20.787028661763696 21.928565285032207  C 19.375858478245927 21.007930811510416  18.19460882191216 19.769832920430158  17.243257955873254 18.21427799800045  C 16.307762732833872 16.64285003478226  15.546666351639288 14.833326932789387  14.96 12.785708928548084  C 14.373333648360711 10.73809068778052  13.9056011581552 8.523807056154602  13.556772286755102 6.142855668407729  Z M 5.5178582720461895 12.500000344038197  L 5.5178582720461895 0  L 7 0  L 7 12.500000344038197  L 5.5178582720461895 12.500000344038197  Z M 9.632428345590762 2.7142921035665064  L 3.139457007354457 2.7142921035665064  L 3.139457007354457 6.690476403452218  L 9.632428345590762 6.690476403452218  L 9.632428345590762 2.7142921035665064  Z M 1.6410859852910853 7.928572165796135  L 1.6410859852910853 1.4523847695666563  L 11.22594267647261 1.4523847695666563  L 11.22594267647261 7.928572165796135  L 1.6410859852910853 7.928572165796135  Z M 10.203257955873257 10.238097826573098  L 2.5686576397003233 10.238097826573098  L 2.5686576397003233 11.809525316738767  L 10.203257955873257 11.809525316738767  L 10.203257955873257 10.238097826573098  Z M 1.0464856691181526 13  L 1.0464856691181526 9  L 11.772971338236305 9  L 11.772971338236305 13  L 1.0464856691181526 13  Z M 0.0713726029280363 15.952375480535352  C 0.0713726029280363 15.952375480535352  0.023800948518798545 14.523802282624626  0.023800948518798545 14.523802282624626  C 1.086142733177538 14.523802282624626  2.3228867856038216 14.515863751757175  3.7340573235273906 14.499990710968694  C 5.145227743315692 14.484117670180213  6.64361601312805 14.468255746125958  8.229200632345865 14.452382705337477  C 9.830641367104269 14.420636623760515  11.432074068664512 14.396821031158161  13.033514330881847 14.380947990369684  C 13.033514330881847 14.380947990369684  12.98594267647261 15.714274901656681  12.98594267647261 15.714274901656681  C 11.400358057254794 15.746020983233642  9.8227003144546 15.785713874097157  8.252971338236305 15.833332759936338  C 6.683242362018008 15.8650788415133  5.192799397724929 15.888879296435007  3.781628977936628 15.904752337223487  C 2.3863143192831124 15.920625378011968  1.1495703849920957 15.93650243974687  0.0713726029280363 15.952375480535352  Z M 3.7340573235273906 14.59523699759242  C 4.114597717197058 13.896824385530579  4.4555112894357 13.238089999704128  4.756772286755103 12.619043064637207  C 4.756772286755103 12.619043064637207  6.278914014708914 12.97618636411489  6.278914014708914 12.97618636411489  C 5.961796901848925 13.61110657649655  5.605053912640043 14.285717787531643  5.208657639700323 15.000003440381965  C 4.828117482301189 15.714288856706027  4.4396542288129766 16.404762110058506  4.043257955873256 17.071428522280257  C 3.6627175622035875 17.73809493450201  3.3138891633445597 18.333335738016977  2.9967722867551037 18.857145019668664  C 2.9967722867551037 18.857145019668664  1.5221719705821708 18.42856700522319  1.5221719705821708 18.42856700522319  C 1.8551447264416798 17.904757605308372  2.2118879519210943 17.309516801793404  2.592428345590762 16.642850507834783  C 2.97296873926043 15.976183977349901  3.3535169298577223 15.293649373128002  3.7340573235273906 14.59523699759242  Z M 5.589200632345865 19.095230460866688  C 4.701273283387174 18.682532228208103  3.7895523102962407 18.309525703781738  2.8540573235273903 17.976192556802427  C 2.8540573235273903 17.976192556802427  3.757858272046189 16.904762658369382  3.757858272046189 16.904762658369382  C 4.6774973795449855 17.222222882823342  5.597133179256305 17.579367246669193  6.516772286755104 17.976192556802427  C 7.4364113942539 18.357144707884046  8.300552443466906 18.76190547404335  9.109200632345866 19.190476747490415  C 9.917849293765896 19.603174980148996  10.607560313423603 19.99999715630928  11.178371022063372 20.38094936652247  C 11.178371022063372 20.38094936652247  10.036772286755102 21.52379884224266  10.036772286755102 21.52379884224266  C 9.497673809196508 21.126973591240993  8.839651866107637 20.722212884213256  8.062714963227714 20.309514651554675  C 7.301634648429446 19.89681641889609  6.477128453845625 19.492055711868353  5.589200632345865 19.095230460866688  Z M 7.563257955873256 17.8809462701787  C 8.26091522613238 17.13491477227768  8.760367508076158 16.20634531578234  9.061628977936628 15.095234589325045  C 9.061628977936628 15.095234589325045  10.5838009485188 15.357146739859646  10.5838009485188 15.357146739859646  C 10.282539951199396 16.658733482726184  9.743422099457007 17.746028912238952  8.966485669118153 18.619044440789995  C 8.189549238779296 19.476186928552554  7.166839000962265 20.17459877190405  5.898371022063372 20.71428109434422  C 4.629903043164479 21.253963416784384  3.0919105157570965 21.68253977554604  1.2843439411643411 22  C 1.2367764214894494 21.76190486122531  1.141616691868857 21.507931478084423  0.9989140147089147 21.238090257732775  C 0.8720672168190254 20.98412213730117  0.7373028751976081 20.76190293676165  0.5946003161729329 20.571426802089274  C 2.2277526913361743 20.38095069698268  3.6230661686370196 20.071422439792457  4.780542992645542 19.642851195911174  C 5.938019816654065 19.198406940807196  6.865600685614131 18.611104668159676  7.563257955873256 17.8809462701787  Z M 0 5.357149492165218  L 0 3.999995871541642  L 2.2594570073544573 3.999995871541642  L 2.2594570073544573 4.071430586509437  L 10.464856691181524 4.071430586509437  L 10.464856691181524 3.999995871541642  L 12.914600316172933 3.999995871541642  L 12.914600316172933 5.357149492165218  L 10.464856691181524 5.357149492165218  L 10.464856691181524 5.285714777197423  L 2.2594570073544573 5.285714777197423  L 2.2594570073544573 5.357149492165218  L 0 5.357149492165218  Z " fill-rule="evenodd" />
    </mask>
  </defs>
  <g transform="matrix(1 0 0 1 -454 -612 )">
    <path d="M 14.198914014708913 6.071420953439934  L 14.198914014708913 4.4285738859871175  L 21.881085985291087 4.4285738859871175  L 21.881085985291087 6.071420953439934  L 14.198914014708913 6.071420953439934  Z M 13.961085985291085 4.023807443197573  C 14.262346982610488 2.706347659542553  14.508100470822738 1.3650791425467221  14.698371022063373 0  C 14.698371022063373 0  16.434600316172933 0.261912150534601  16.434600316172933 0.261912150534601  C 16.21261847893326 1.7698484236513876  15.927198948381333 3.2381041052701836  15.578371022063372 4.666674464865787  C 15.245397793662793 6.0952457705664305  14.849019949824731 7.436514287562262  14.389200632345865 8.69048190806336  C 13.929381314867001 9.944449528564459  13.406123358993746 11.039683429813111  12.819457007354456 11.97619118064964  C 12.724321259193072 11.880952935918756  12.597472334868376 11.753966244348312  12.438914014708915 11.595236309516029  C 12.280355694549453 11.436506374683743  12.113870970513437 11.28571899166533  11.939457007354456 11.142861861095268  C 11.76504209911334 10.984131453210463  11.606503625678743 10.857144761640015  11.463800948518799 10.761906989961654  C 12.01875601415905 9.888891402279047  12.50234887277476 8.880951774789844  12.914600316172933 7.738094730229329  C 13.326852704653241 6.579365827511634  13.675680630971202 5.341267226852594  13.961085985291085 4.023807443197573  Z M 17.62377070589044 11.833336888394697  C 18.19458141453021 9.896829696620237  18.622709292734896 7.72222381817719  18.90811464705478 5.309526348853355  C 18.90811464705478 5.309526348853355  20.596742044126746 5.452380641108298  20.596742044126746 5.452380641108298  C 20.263769760808305 8.08729973536582  19.78017690219259 10.444447593349604  19.14594267647261 12.523811915694129  C 18.527565038834283 14.587302960723912  17.67133857997113 16.40476447532111  16.577285036772288 17.976192556802427  C 15.483231493573442 19.531747479232134  14.080003780328544 20.857139171019323  12.367571654409238 21.952376856688137  C 12.304149082411161 21.841265807695034  12.209019004742595 21.690463405259106  12.082171970582172 21.49998727058673  C 11.971180579421265 21.309511195045918  11.84433165509657 21.11904623623933  11.701628977936629 20.928570101566958  C 11.57478288885834 20.75396700768306  11.45584808234243 20.611103136114583  11.344856691181523 20.49999208712148  C 12.962153068939447 19.53173849123425  14.270281892226269 18.333333491017505  15.269200632345866 16.904762658369382  C 16.28397501546498 15.46031878493278  17.068816585332325 13.769844080169158  17.62377070589044 11.833336888394697  Z M 13.556772286755102 6.142855668407729  C 13.556772286755102 6.142855668407729  15.078914014708914 5.928566661184992  15.078914014708914 5.928566661184992  C 15.396030655027836 8.103168755207879  15.839988659014367 10.150787942080482  16.410799367654135 12.07142232959272  C 16.981610076293904 13.97618320326396  17.718931971269505 15.65871961368639  18.62271496322771 17.119036527911476  C 19.542354543267578 18.57935344213656  20.668108976561964 19.714280175117164  22 20.52380365877741  C 21.873152965839576 20.634914707770516  21.73044367310468 20.76984001890576  21.57188535294522 20.928570101566958  C 21.41332703278576 21.087300213793934  21.262702677159943 21.253964599415685  21.119999999999997 21.42856769329958  C 20.993152965839577 21.603170787183476  20.882163464842947 21.769835231936792  20.787028661763696 21.928565285032207  C 19.375858478245927 21.007930811510416  18.19460882191216 19.769832920430158  17.243257955873254 18.21427799800045  C 16.307762732833872 16.64285003478226  15.546666351639288 14.833326932789387  14.96 12.785708928548084  C 14.373333648360711 10.73809068778052  13.9056011581552 8.523807056154602  13.556772286755102 6.142855668407729  Z M 5.5178582720461895 12.500000344038197  L 5.5178582720461895 0  L 7 0  L 7 12.500000344038197  L 5.5178582720461895 12.500000344038197  Z M 9.632428345590762 2.7142921035665064  L 3.139457007354457 2.7142921035665064  L 3.139457007354457 6.690476403452218  L 9.632428345590762 6.690476403452218  L 9.632428345590762 2.7142921035665064  Z M 1.6410859852910853 7.928572165796135  L 1.6410859852910853 1.4523847695666563  L 11.22594267647261 1.4523847695666563  L 11.22594267647261 7.928572165796135  L 1.6410859852910853 7.928572165796135  Z M 10.203257955873257 10.238097826573098  L 2.5686576397003233 10.238097826573098  L 2.5686576397003233 11.809525316738767  L 10.203257955873257 11.809525316738767  L 10.203257955873257 10.238097826573098  Z M 1.0464856691181526 13  L 1.0464856691181526 9  L 11.772971338236305 9  L 11.772971338236305 13  L 1.0464856691181526 13  Z M 0.0713726029280363 15.952375480535352  C 0.0713726029280363 15.952375480535352  0.023800948518798545 14.523802282624626  0.023800948518798545 14.523802282624626  C 1.086142733177538 14.523802282624626  2.3228867856038216 14.515863751757175  3.7340573235273906 14.499990710968694  C 5.145227743315692 14.484117670180213  6.64361601312805 14.468255746125958  8.229200632345865 14.452382705337477  C 9.830641367104269 14.420636623760515  11.432074068664512 14.396821031158161  13.033514330881847 14.380947990369684  C 13.033514330881847 14.380947990369684  12.98594267647261 15.714274901656681  12.98594267647261 15.714274901656681  C 11.400358057254794 15.746020983233642  9.8227003144546 15.785713874097157  8.252971338236305 15.833332759936338  C 6.683242362018008 15.8650788415133  5.192799397724929 15.888879296435007  3.781628977936628 15.904752337223487  C 2.3863143192831124 15.920625378011968  1.1495703849920957 15.93650243974687  0.0713726029280363 15.952375480535352  Z M 3.7340573235273906 14.59523699759242  C 4.114597717197058 13.896824385530579  4.4555112894357 13.238089999704128  4.756772286755103 12.619043064637207  C 4.756772286755103 12.619043064637207  6.278914014708914 12.97618636411489  6.278914014708914 12.97618636411489  C 5.961796901848925 13.61110657649655  5.605053912640043 14.285717787531643  5.208657639700323 15.000003440381965  C 4.828117482301189 15.714288856706027  4.4396542288129766 16.404762110058506  4.043257955873256 17.071428522280257  C 3.6627175622035875 17.73809493450201  3.3138891633445597 18.333335738016977  2.9967722867551037 18.857145019668664  C 2.9967722867551037 18.857145019668664  1.5221719705821708 18.42856700522319  1.5221719705821708 18.42856700522319  C 1.8551447264416798 17.904757605308372  2.2118879519210943 17.309516801793404  2.592428345590762 16.642850507834783  C 2.97296873926043 15.976183977349901  3.3535169298577223 15.293649373128002  3.7340573235273906 14.59523699759242  Z M 5.589200632345865 19.095230460866688  C 4.701273283387174 18.682532228208103  3.7895523102962407 18.309525703781738  2.8540573235273903 17.976192556802427  C 2.8540573235273903 17.976192556802427  3.757858272046189 16.904762658369382  3.757858272046189 16.904762658369382  C 4.6774973795449855 17.222222882823342  5.597133179256305 17.579367246669193  6.516772286755104 17.976192556802427  C 7.4364113942539 18.357144707884046  8.300552443466906 18.76190547404335  9.109200632345866 19.190476747490415  C 9.917849293765896 19.603174980148996  10.607560313423603 19.99999715630928  11.178371022063372 20.38094936652247  C 11.178371022063372 20.38094936652247  10.036772286755102 21.52379884224266  10.036772286755102 21.52379884224266  C 9.497673809196508 21.126973591240993  8.839651866107637 20.722212884213256  8.062714963227714 20.309514651554675  C 7.301634648429446 19.89681641889609  6.477128453845625 19.492055711868353  5.589200632345865 19.095230460866688  Z M 7.563257955873256 17.8809462701787  C 8.26091522613238 17.13491477227768  8.760367508076158 16.20634531578234  9.061628977936628 15.095234589325045  C 9.061628977936628 15.095234589325045  10.5838009485188 15.357146739859646  10.5838009485188 15.357146739859646  C 10.282539951199396 16.658733482726184  9.743422099457007 17.746028912238952  8.966485669118153 18.619044440789995  C 8.189549238779296 19.476186928552554  7.166839000962265 20.17459877190405  5.898371022063372 20.71428109434422  C 4.629903043164479 21.253963416784384  3.0919105157570965 21.68253977554604  1.2843439411643411 22  C 1.2367764214894494 21.76190486122531  1.141616691868857 21.507931478084423  0.9989140147089147 21.238090257732775  C 0.8720672168190254 20.98412213730117  0.7373028751976081 20.76190293676165  0.5946003161729329 20.571426802089274  C 2.2277526913361743 20.38095069698268  3.6230661686370196 20.071422439792457  4.780542992645542 19.642851195911174  C 5.938019816654065 19.198406940807196  6.865600685614131 18.611104668159676  7.563257955873256 17.8809462701787  Z M 0 5.357149492165218  L 0 3.999995871541642  L 2.2594570073544573 3.999995871541642  L 2.2594570073544573 4.071430586509437  L 10.464856691181524 4.071430586509437  L 10.464856691181524 3.999995871541642  L 12.914600316172933 3.999995871541642  L 12.914600316172933 5.357149492165218  L 10.464856691181524 5.357149492165218  L 10.464856691181524 5.285714777197423  L 2.2594570073544573 5.285714777197423  L 2.2594570073544573 5.357149492165218  L 0 5.357149492165218  Z " fill-rule="nonzero" fill="rgba(0, 0, 0, 1)" stroke="none" transform="matrix(1 0 0 1 454 612 )" class="fill" />
    <path d="M 14.198914014708913 6.071420953439934  L 14.198914014708913 4.4285738859871175  L 21.881085985291087 4.4285738859871175  L 21.881085985291087 6.071420953439934  L 14.198914014708913 6.071420953439934  Z " stroke-width="0" stroke-dasharray="0" stroke="rgba(121, 121, 121, 1)" fill="none" transform="matrix(1 0 0 1 454 612 )" class="stroke" mask="url(#Clip4518)" />
    <path d="M 13.961085985291085 4.023807443197573  C 14.262346982610488 2.706347659542553  14.508100470822738 1.3650791425467221  14.698371022063373 0  C 14.698371022063373 0  16.434600316172933 0.261912150534601  16.434600316172933 0.261912150534601  C 16.21261847893326 1.7698484236513876  15.927198948381333 3.2381041052701836  15.578371022063372 4.666674464865787  C 15.245397793662793 6.0952457705664305  14.849019949824731 7.436514287562262  14.389200632345865 8.69048190806336  C 13.929381314867001 9.944449528564459  13.406123358993746 11.039683429813111  12.819457007354456 11.97619118064964  C 12.724321259193072 11.880952935918756  12.597472334868376 11.753966244348312  12.438914014708915 11.595236309516029  C 12.280355694549453 11.436506374683743  12.113870970513437 11.28571899166533  11.939457007354456 11.142861861095268  C 11.76504209911334 10.984131453210463  11.606503625678743 10.857144761640015  11.463800948518799 10.761906989961654  C 12.01875601415905 9.888891402279047  12.50234887277476 8.880951774789844  12.914600316172933 7.738094730229329  C 13.326852704653241 6.579365827511634  13.675680630971202 5.341267226852594  13.961085985291085 4.023807443197573  Z " stroke-width="0" stroke-dasharray="0" stroke="rgba(121, 121, 121, 1)" fill="none" transform="matrix(1 0 0 1 454 612 )" class="stroke" mask="url(#Clip4518)" />
    <path d="M 17.62377070589044 11.833336888394697  C 18.19458141453021 9.896829696620237  18.622709292734896 7.72222381817719  18.90811464705478 5.309526348853355  C 18.90811464705478 5.309526348853355  20.596742044126746 5.452380641108298  20.596742044126746 5.452380641108298  C 20.263769760808305 8.08729973536582  19.78017690219259 10.444447593349604  19.14594267647261 12.523811915694129  C 18.527565038834283 14.587302960723912  17.67133857997113 16.40476447532111  16.577285036772288 17.976192556802427  C 15.483231493573442 19.531747479232134  14.080003780328544 20.857139171019323  12.367571654409238 21.952376856688137  C 12.304149082411161 21.841265807695034  12.209019004742595 21.690463405259106  12.082171970582172 21.49998727058673  C 11.971180579421265 21.309511195045918  11.84433165509657 21.11904623623933  11.701628977936629 20.928570101566958  C 11.57478288885834 20.75396700768306  11.45584808234243 20.611103136114583  11.344856691181523 20.49999208712148  C 12.962153068939447 19.53173849123425  14.270281892226269 18.333333491017505  15.269200632345866 16.904762658369382  C 16.28397501546498 15.46031878493278  17.068816585332325 13.769844080169158  17.62377070589044 11.833336888394697  Z " stroke-width="0" stroke-dasharray="0" stroke="rgba(121, 121, 121, 1)" fill="none" transform="matrix(1 0 0 1 454 612 )" class="stroke" mask="url(#Clip4518)" />
    <path d="M 13.556772286755102 6.142855668407729  C 13.556772286755102 6.142855668407729  15.078914014708914 5.928566661184992  15.078914014708914 5.928566661184992  C 15.396030655027836 8.103168755207879  15.839988659014367 10.150787942080482  16.410799367654135 12.07142232959272  C 16.981610076293904 13.97618320326396  17.718931971269505 15.65871961368639  18.62271496322771 17.119036527911476  C 19.542354543267578 18.57935344213656  20.668108976561964 19.714280175117164  22 20.52380365877741  C 21.873152965839576 20.634914707770516  21.73044367310468 20.76984001890576  21.57188535294522 20.928570101566958  C 21.41332703278576 21.087300213793934  21.262702677159943 21.253964599415685  21.119999999999997 21.42856769329958  C 20.993152965839577 21.603170787183476  20.882163464842947 21.769835231936792  20.787028661763696 21.928565285032207  C 19.375858478245927 21.007930811510416  18.19460882191216 19.769832920430158  17.243257955873254 18.21427799800045  C 16.307762732833872 16.64285003478226  15.546666351639288 14.833326932789387  14.96 12.785708928548084  C 14.373333648360711 10.73809068778052  13.9056011581552 8.523807056154602  13.556772286755102 6.142855668407729  Z " stroke-width="0" stroke-dasharray="0" stroke="rgba(121, 121, 121, 1)" fill="none" transform="matrix(1 0 0 1 454 612 )" class="stroke" mask="url(#Clip4518)" />
    <path d="M 5.5178582720461895 12.500000344038197  L 5.5178582720461895 0  L 7 0  L 7 12.500000344038197  L 5.5178582720461895 12.500000344038197  Z " stroke-width="0" stroke-dasharray="0" stroke="rgba(121, 121, 121, 1)" fill="none" transform="matrix(1 0 0 1 454 612 )" class="stroke" mask="url(#Clip4518)" />
    <path d="M 9.632428345590762 2.7142921035665064  L 3.139457007354457 2.7142921035665064  L 3.139457007354457 6.690476403452218  L 9.632428345590762 6.690476403452218  L 9.632428345590762 2.7142921035665064  Z " stroke-width="0" stroke-dasharray="0" stroke="rgba(121, 121, 121, 1)" fill="none" transform="matrix(1 0 0 1 454 612 )" class="stroke" mask="url(#Clip4518)" />
    <path d="M 1.6410859852910853 7.928572165796135  L 1.6410859852910853 1.4523847695666563  L 11.22594267647261 1.4523847695666563  L 11.22594267647261 7.928572165796135  L 1.6410859852910853 7.928572165796135  Z " stroke-width="0" stroke-dasharray="0" stroke="rgba(121, 121, 121, 1)" fill="none" transform="matrix(1 0 0 1 454 612 )" class="stroke" mask="url(#Clip4518)" />
    <path d="M 10.203257955873257 10.238097826573098  L 2.5686576397003233 10.238097826573098  L 2.5686576397003233 11.809525316738767  L 10.203257955873257 11.809525316738767  L 10.203257955873257 10.238097826573098  Z " stroke-width="0" stroke-dasharray="0" stroke="rgba(121, 121, 121, 1)" fill="none" transform="matrix(1 0 0 1 454 612 )" class="stroke" mask="url(#Clip4518)" />
    <path d="M 1.0464856691181526 13  L 1.0464856691181526 9  L 11.772971338236305 9  L 11.772971338236305 13  L 1.0464856691181526 13  Z " stroke-width="0" stroke-dasharray="0" stroke="rgba(121, 121, 121, 1)" fill="none" transform="matrix(1 0 0 1 454 612 )" class="stroke" mask="url(#Clip4518)" />
    <path d="M 0.0713726029280363 15.952375480535352  C 0.0713726029280363 15.952375480535352  0.023800948518798545 14.523802282624626  0.023800948518798545 14.523802282624626  C 1.086142733177538 14.523802282624626  2.3228867856038216 14.515863751757175  3.7340573235273906 14.499990710968694  C 5.145227743315692 14.484117670180213  6.64361601312805 14.468255746125958  8.229200632345865 14.452382705337477  C 9.830641367104269 14.420636623760515  11.432074068664512 14.396821031158161  13.033514330881847 14.380947990369684  C 13.033514330881847 14.380947990369684  12.98594267647261 15.714274901656681  12.98594267647261 15.714274901656681  C 11.400358057254794 15.746020983233642  9.8227003144546 15.785713874097157  8.252971338236305 15.833332759936338  C 6.683242362018008 15.8650788415133  5.192799397724929 15.888879296435007  3.781628977936628 15.904752337223487  C 2.3863143192831124 15.920625378011968  1.1495703849920957 15.93650243974687  0.0713726029280363 15.952375480535352  Z " stroke-width="0" stroke-dasharray="0" stroke="rgba(121, 121, 121, 1)" fill="none" transform="matrix(1 0 0 1 454 612 )" class="stroke" mask="url(#Clip4518)" />
    <path d="M 3.7340573235273906 14.59523699759242  C 4.114597717197058 13.896824385530579  4.4555112894357 13.238089999704128  4.756772286755103 12.619043064637207  C 4.756772286755103 12.619043064637207  6.278914014708914 12.97618636411489  6.278914014708914 12.97618636411489  C 5.961796901848925 13.61110657649655  5.605053912640043 14.285717787531643  5.208657639700323 15.000003440381965  C 4.828117482301189 15.714288856706027  4.4396542288129766 16.404762110058506  4.043257955873256 17.071428522280257  C 3.6627175622035875 17.73809493450201  3.3138891633445597 18.333335738016977  2.9967722867551037 18.857145019668664  C 2.9967722867551037 18.857145019668664  1.5221719705821708 18.42856700522319  1.5221719705821708 18.42856700522319  C 1.8551447264416798 17.904757605308372  2.2118879519210943 17.309516801793404  2.592428345590762 16.642850507834783  C 2.97296873926043 15.976183977349901  3.3535169298577223 15.293649373128002  3.7340573235273906 14.59523699759242  Z " stroke-width="0" stroke-dasharray="0" stroke="rgba(121, 121, 121, 1)" fill="none" transform="matrix(1 0 0 1 454 612 )" class="stroke" mask="url(#Clip4518)" />
    <path d="M 5.589200632345865 19.095230460866688  C 4.701273283387174 18.682532228208103  3.7895523102962407 18.309525703781738  2.8540573235273903 17.976192556802427  C 2.8540573235273903 17.976192556802427  3.757858272046189 16.904762658369382  3.757858272046189 16.904762658369382  C 4.6774973795449855 17.222222882823342  5.597133179256305 17.579367246669193  6.516772286755104 17.976192556802427  C 7.4364113942539 18.357144707884046  8.300552443466906 18.76190547404335  9.109200632345866 19.190476747490415  C 9.917849293765896 19.603174980148996  10.607560313423603 19.99999715630928  11.178371022063372 20.38094936652247  C 11.178371022063372 20.38094936652247  10.036772286755102 21.52379884224266  10.036772286755102 21.52379884224266  C 9.497673809196508 21.126973591240993  8.839651866107637 20.722212884213256  8.062714963227714 20.309514651554675  C 7.301634648429446 19.89681641889609  6.477128453845625 19.492055711868353  5.589200632345865 19.095230460866688  Z " stroke-width="0" stroke-dasharray="0" stroke="rgba(121, 121, 121, 1)" fill="none" transform="matrix(1 0 0 1 454 612 )" class="stroke" mask="url(#Clip4518)" />
    <path d="M 7.563257955873256 17.8809462701787  C 8.26091522613238 17.13491477227768  8.760367508076158 16.20634531578234  9.061628977936628 15.095234589325045  C 9.061628977936628 15.095234589325045  10.5838009485188 15.357146739859646  10.5838009485188 15.357146739859646  C 10.282539951199396 16.658733482726184  9.743422099457007 17.746028912238952  8.966485669118153 18.619044440789995  C 8.189549238779296 19.476186928552554  7.166839000962265 20.17459877190405  5.898371022063372 20.71428109434422  C 4.629903043164479 21.253963416784384  3.0919105157570965 21.68253977554604  1.2843439411643411 22  C 1.2367764214894494 21.76190486122531  1.141616691868857 21.507931478084423  0.9989140147089147 21.238090257732775  C 0.8720672168190254 20.98412213730117  0.7373028751976081 20.76190293676165  0.5946003161729329 20.571426802089274  C 2.2277526913361743 20.38095069698268  3.6230661686370196 20.071422439792457  4.780542992645542 19.642851195911174  C 5.938019816654065 19.198406940807196  6.865600685614131 18.611104668159676  7.563257955873256 17.8809462701787  Z " stroke-width="0" stroke-dasharray="0" stroke="rgba(121, 121, 121, 1)" fill="none" transform="matrix(1 0 0 1 454 612 )" class="stroke" mask="url(#Clip4518)" />
    <path d="M 0 5.357149492165218  L 0 3.999995871541642  L 2.2594570073544573 3.999995871541642  L 2.2594570073544573 4.071430586509437  L 10.464856691181524 4.071430586509437  L 10.464856691181524 3.999995871541642  L 12.914600316172933 3.999995871541642  L 12.914600316172933 5.357149492165218  L 10.464856691181524 5.357149492165218  L 10.464856691181524 5.285714777197423  L 2.2594570073544573 5.285714777197423  L 2.2594570073544573 5.357149492165218  L 0 5.357149492165218  Z " stroke-width="0" stroke-dasharray="0" stroke="rgba(121, 121, 121, 1)" fill="none" transform="matrix(1 0 0 1 454 612 )" class="stroke" mask="url(#Clip4518)" />
  </g>
</svg>