<?xml version="1.0" encoding="utf-8"?>
<svg version="1.1" xmlns:xlink="http://www.w3.org/1999/xlink" width="6px" height="17px" xmlns="http://www.w3.org/2000/svg">
  <defs>
    <pattern id="BGPattern" patternUnits="userSpaceOnUse" alignment="0 0" imageRepeat="None" />
    <mask fill="white" id="Clip4597">
      <path d="M 6 5.357143401749739  L 6 6.666666787248726  L 3.37500198682865 6.666666787248726  L 3.37500198682865 17  L 1.5749988079028099 17  L 1.5749988079028099 6.666666787248726  L 0 6.666666787248726  L 0 5.357143401749739  L 1.5749988079028099 5.357143401749739  C 1.5749988079028099 5.357143401749739  1.5749988079028099 3.142857544355646  1.5749988079028099 3.142857544355646  C 1.5749988079028099 1.404762137975557  2.6000022186253267 0  4.700010066598496 0  C 4.700010066598496 0  6 0  6 0  L 6 1.476190729280292  C 6 1.476190729280292  5.024991655319667 1.476190729280292  5.024991655319667 1.476190729280292  C 3.874987416751879 1.476190729280292  3.37500198682865 2.1190485240755996  3.37500198682865 3.190475974488547  C 3.37500198682865 3.190475974488547  3.37500198682865 5.357143401749739  3.37500198682865 5.357143401749739  L 6 5.357143401749739  Z " fill-rule="evenodd" />
    </mask>
  </defs>
  <g transform="matrix(1 0 0 1 -617 -491 )">
    <path d="M 6 5.357143401749739  L 6 6.666666787248726  L 3.37500198682865 6.666666787248726  L 3.37500198682865 17  L 1.5749988079028099 17  L 1.5749988079028099 6.666666787248726  L 0 6.666666787248726  L 0 5.357143401749739  L 1.5749988079028099 5.357143401749739  C 1.5749988079028099 5.357143401749739  1.5749988079028099 3.142857544355646  1.5749988079028099 3.142857544355646  C 1.5749988079028099 1.404762137975557  2.6000022186253267 0  4.700010066598496 0  C 4.700010066598496 0  6 0  6 0  L 6 1.476190729280292  C 6 1.476190729280292  5.024991655319667 1.476190729280292  5.024991655319667 1.476190729280292  C 3.874987416751879 1.476190729280292  3.37500198682865 2.1190485240755996  3.37500198682865 3.190475974488547  C 3.37500198682865 3.190475974488547  3.37500198682865 5.357143401749739  3.37500198682865 5.357143401749739  L 6 5.357143401749739  Z " fill-rule="nonzero" fill="rgba(0, 0, 0, 1)" stroke="none" transform="matrix(1 0 0 1 617 491 )" class="fill" />
    <path d="M 6 5.357143401749739  L 6 6.666666787248726  L 3.37500198682865 6.666666787248726  L 3.37500198682865 17  L 1.5749988079028099 17  L 1.5749988079028099 6.666666787248726  L 0 6.666666787248726  L 0 5.357143401749739  L 1.5749988079028099 5.357143401749739  C 1.5749988079028099 5.357143401749739  1.5749988079028099 3.142857544355646  1.5749988079028099 3.142857544355646  C 1.5749988079028099 1.404762137975557  2.6000022186253267 0  4.700010066598496 0  C 4.700010066598496 0  6 0  6 0  L 6 1.476190729280292  C 6 1.476190729280292  5.024991655319667 1.476190729280292  5.024991655319667 1.476190729280292  C 3.874987416751879 1.476190729280292  3.37500198682865 2.1190485240755996  3.37500198682865 3.190475974488547  C 3.37500198682865 3.190475974488547  3.37500198682865 5.357143401749739  3.37500198682865 5.357143401749739  L 6 5.357143401749739  Z " stroke-width="0" stroke-dasharray="0" stroke="rgba(121, 121, 121, 1)" fill="none" transform="matrix(1 0 0 1 617 491 )" class="stroke" mask="url(#Clip4597)" />
  </g>
</svg>