<?xml version="1.0" encoding="utf-8"?>
<svg version="1.1" xmlns:xlink="http://www.w3.org/1999/xlink" width="10px" height="12px" xmlns="http://www.w3.org/2000/svg">
  <defs>
    <pattern id="BGPattern" patternUnits="userSpaceOnUse" alignment="0 0" imageRepeat="None" />
    <mask fill="white" id="Clip4591">
      <path d="M 8.507461742359542 1.3333332282105006  C 9.751241811536442 2.5476189481277953  10 4.190477093406236  10 6.000001419158242  C 10 7.809525390120687  9.751241811536442 9.452380933609017  8.507461742359542 10.6666667717895  C 7.6616912656652305 11.476190585067696  6.492504155516755 12  4.999968369044682 12  C 3.507432582572609 12  2.3383085489971407 11.476190585067696  1.4925382576404571 10.6666667717895  C 0.2487584355803964 9.452380933609017  0 7.809525390120687  0 6.000001419158242  C 0 4.190477093406236  0.2487584355803964 2.5476189481277953  1.4925382576404571 1.3333332282105006  C 2.3383085489971407 0.5238098879850515  3.507432582572609 0  4.999968369044682 0  C 6.492504155516755 0  7.6616912656652305 0.5238098879850515  8.507461742359542 1.3333332282105006  Z M 7.238807386460686 9.61904794192489  C 8.134329154884135 8.761904924281994  8.208928786067197 7.309525074752189  8.208928786067197 6.000001419158242  C 8.208928786067197 4.690477053985173  8.134329154884135 3.238095253112786  7.238807386460686 2.380952058075109  C 6.6666686436013745 1.8333329522630644  5.870614120928305 1.5238098091429269  4.999968369044682 1.5238098091429269  C 4.129322246485801 1.5238098091429269  3.358193287278662 1.8333329522630644  2.7860545444193505 2.380952058075109  C 1.8905327759959007 3.238095253112786  1.791007952022167 4.690477053985173  1.791007952022167 6.000001419158242  C 1.791007952022167 7.309525074752189  1.8905327759959007 8.761904924281994  2.7860545444193505 9.61904794192489  C 3.358193287278662 10.166667047736935  4.129322246485801 10.476191136962568  4.999968369044682 10.476191136962568  C 5.870614120928305 10.476191136962568  6.6666686436013745 10.166667047736935  7.238807386460686 9.61904794192489  Z " fill-rule="evenodd" />
    </mask>
  </defs>
  <g transform="matrix(1 0 0 1 -694 -496 )">
    <path d="M 8.507461742359542 1.3333332282105006  C 9.751241811536442 2.5476189481277953  10 4.190477093406236  10 6.000001419158242  C 10 7.809525390120687  9.751241811536442 9.452380933609017  8.507461742359542 10.6666667717895  C 7.6616912656652305 11.476190585067696  6.492504155516755 12  4.999968369044682 12  C 3.507432582572609 12  2.3383085489971407 11.476190585067696  1.4925382576404571 10.6666667717895  C 0.2487584355803964 9.452380933609017  0 7.809525390120687  0 6.000001419158242  C 0 4.190477093406236  0.2487584355803964 2.5476189481277953  1.4925382576404571 1.3333332282105006  C 2.3383085489971407 0.5238098879850515  3.507432582572609 0  4.999968369044682 0  C 6.492504155516755 0  7.6616912656652305 0.5238098879850515  8.507461742359542 1.3333332282105006  Z M 7.238807386460686 9.61904794192489  C 8.134329154884135 8.761904924281994  8.208928786067197 7.309525074752189  8.208928786067197 6.000001419158242  C 8.208928786067197 4.690477053985173  8.134329154884135 3.238095253112786  7.238807386460686 2.380952058075109  C 6.6666686436013745 1.8333329522630644  5.870614120928305 1.5238098091429269  4.999968369044682 1.5238098091429269  C 4.129322246485801 1.5238098091429269  3.358193287278662 1.8333329522630644  2.7860545444193505 2.380952058075109  C 1.8905327759959007 3.238095253112786  1.791007952022167 4.690477053985173  1.791007952022167 6.000001419158242  C 1.791007952022167 7.309525074752189  1.8905327759959007 8.761904924281994  2.7860545444193505 9.61904794192489  C 3.358193287278662 10.166667047736935  4.129322246485801 10.476191136962568  4.999968369044682 10.476191136962568  C 5.870614120928305 10.476191136962568  6.6666686436013745 10.166667047736935  7.238807386460686 9.61904794192489  Z " fill-rule="nonzero" fill="rgba(0, 0, 0, 1)" stroke="none" transform="matrix(1 0 0 1 694 496 )" class="fill" />
    <path d="M 8.507461742359542 1.3333332282105006  C 9.751241811536442 2.5476189481277953  10 4.190477093406236  10 6.000001419158242  C 10 7.809525390120687  9.751241811536442 9.452380933609017  8.507461742359542 10.6666667717895  C 7.6616912656652305 11.476190585067696  6.492504155516755 12  4.999968369044682 12  C 3.507432582572609 12  2.3383085489971407 11.476190585067696  1.4925382576404571 10.6666667717895  C 0.2487584355803964 9.452380933609017  0 7.809525390120687  0 6.000001419158242  C 0 4.190477093406236  0.2487584355803964 2.5476189481277953  1.4925382576404571 1.3333332282105006  C 2.3383085489971407 0.5238098879850515  3.507432582572609 0  4.999968369044682 0  C 6.492504155516755 0  7.6616912656652305 0.5238098879850515  8.507461742359542 1.3333332282105006  Z " stroke-width="0" stroke-dasharray="0" stroke="rgba(121, 121, 121, 1)" fill="none" transform="matrix(1 0 0 1 694 496 )" class="stroke" mask="url(#Clip4591)" />
    <path d="M 7.238807386460686 9.61904794192489  C 8.134329154884135 8.761904924281994  8.208928786067197 7.309525074752189  8.208928786067197 6.000001419158242  C 8.208928786067197 4.690477053985173  8.134329154884135 3.238095253112786  7.238807386460686 2.380952058075109  C 6.6666686436013745 1.8333329522630644  5.870614120928305 1.5238098091429269  4.999968369044682 1.5238098091429269  C 4.129322246485801 1.5238098091429269  3.358193287278662 1.8333329522630644  2.7860545444193505 2.380952058075109  C 1.8905327759959007 3.238095253112786  1.791007952022167 4.690477053985173  1.791007952022167 6.000001419158242  C 1.791007952022167 7.309525074752189  1.8905327759959007 8.761904924281994  2.7860545444193505 9.61904794192489  C 3.358193287278662 10.166667047736935  4.129322246485801 10.476191136962568  4.999968369044682 10.476191136962568  C 5.870614120928305 10.476191136962568  6.6666686436013745 10.166667047736935  7.238807386460686 9.61904794192489  Z " stroke-width="0" stroke-dasharray="0" stroke="rgba(121, 121, 121, 1)" fill="none" transform="matrix(1 0 0 1 694 496 )" class="stroke" mask="url(#Clip4591)" />
  </g>
</svg>