<?xml version="1.0" encoding="utf-8"?>
<svg version="1.1" xmlns:xlink="http://www.w3.org/1999/xlink" width="53px" height="53px" xmlns="http://www.w3.org/2000/svg">
  <defs>
    <pattern id="BGPattern" patternUnits="userSpaceOnUse" alignment="0 0" imageRepeat="None" />
    <mask fill="white" id="Clip4415">
      <path d="M 3.6305831788871505 30  L 3.6305831788871505 25  L 31.528667933732798 25  L 31.528667933732798 30  L 3.6305831788871505 30  Z M 28.37580265894908 37.190480915998435  C 28.37580265894908 37.190480915998435  28.37580265894908 25.23810156548943  28.37580265894908 25.23810156548943  L 34.39489942887534 25.23810156548943  C 34.39489942887534 25.23810156548943  34.39489942887534 37.142865312404076  34.39489942887534 37.142865312404076  C 34.39489942887534 37.90477019882935  34.47452287603315 38.38095556404715  34.633758380927055 38.57143181521926  C 34.79299388582096 38.761908066391385  35.111472488556586 38.85714814332029  35.58917900323831 38.85714814332029  C 35.71656778680082 38.85714814332029  35.89172570324195 38.85714814332029  36.114656549035594 38.85714814332029  C 36.33758549659228 38.85714814332029  36.5764406521701 38.85714814332029  36.83121821929513 38.85714814332029  C 37.117842507751554 38.85714814332029  37.37261058369184 38.85714814332029  37.59553953124852 38.85714814332029  C 37.85031709837356 38.85714814332029  38.041403121072754 38.85714814332029  38.16879190463527 38.85714814332029  C 38.51910963575448 38.85714814332029  38.78980391971588 38.71429187148101  38.98088804417814 38.42857743559124  C 39.17197027040343 38.11111713523424  39.29936285043985 37.46032100049618  39.36305629310264 36.47619388016836  C 39.45859835533376 35.492066641577345  39.53821990425462 34.0000020236148  39.60191524515435 32.00000168196554  C 40.01592641893634 32.34920784678976  40.541403964733625 32.68254450901323  41.17834788254621 33.000005045896636  C 41.81528990212184 33.31746558278004  42.484071050081056 33.60317812645858  43.184708410556425 33.85714646135474  C 43.885345771031794 34.111114796250895  44.49044676398689 34.31746468923584  45 34.47619472115114  C 44.84076449510609 37.079369799047164  44.52230107826608 39.11111328510998  44.04459456358436 40.57143097423649  C 43.598734770234024 42.031748781626206  42.961779462999736 43.04762034726281  42.13375331896185 43.619049100779165  C 41.30572717492397 44.19047773603233  40.19109192832527 44.476190516237274  38.78981910561149 44.476190516237274  C 38.53504153848646 44.476190516237274  38.216562935750844 44.476190516237274  37.83439848330024 44.476190516237274  C 37.452232132612686 44.476190516237274  37.05414716685182 44.476190516237274  36.64013409483288 44.476190516237274  C 36.22612102281394 44.476190516237274  35.82803415881612 44.476190516237274  35.44586970636552 44.476190516237274  C 35.06370335567797 44.476190516237274  34.76115285920043 44.476190516237274  34.53822391164373 44.476190516237274  C 32.977713685799095 44.476190516237274  31.735672571505322 44.25397112065159  30.812106263473265 43.809526652846515  C 29.9203866767726 43.365082066778236  29.28344655543392 42.61905354221944  28.901280204746367 41.571434338167585  C 28.55096247362716 40.52381501585252  28.37580265894908 39.063497090199604  28.37580265894908 37.190480915998435  Z M 19.299359897626815 7.571425928339858  L 19.299359897626815 0  L 25.222937384165363 0  L 25.222937384165363 7.571425928339858  L 19.299359897626815 7.571425928339858  Z M 12.707010754313806 12.000002522948318  C 13.08917615588288 10.825399151448382  13.359871388962757 9.507937615897939  13.519106893856666 8.047619808508223  C 13.519106893856666 8.047619808508223  19.538218849678533 8.047619808508223  19.538218849678533 8.047619808508223  C 19.315288953003364 10.0793664876775  18.949043115626086 11.92063750699067  18.43948893049449 13.571430974236494  C 17.929934745362903 15.190478813541505  17.117834809346142 16.63491907643272  16.00318532597031 17.90476122396633  C 14.88853584259448 19.174602425394315  13.343959417718768 20.285714541012627  11.369437068973664 21.238095678610023  C 9.394914720228558 22.15873118826661  6.8312090444832005 22.920636666007898  3.6783428205810056 23.52381116572827  C 3.4235657280152103 22.82539883607984  3.009551944157412 22.015876808638573  2.436303604524182 21.095241298981993  C 1.8630552648909515 20.174606735431023  1.2898101285325767 19.444447831736166  0.7165616702595371 18.904764587897418  C 3.423568100811399 18.46032012009234  5.5732450440829675 17.920634037936733  7.16560151669976 17.285712964169928  C 8.78980565976642 16.650792836508746  10.031847248619433 15.90476395716034  10.891719164870231 15.047620649490996  C 11.751592030239504 14.158731713880842  12.356692074076124 13.142860266507439  12.707010754313806 12.000002522948318  Z M 24.69745983836808 15.761907685321066  C 24.69745983836808 15.761907685321066  24.69745983836808 8.285712964169928  24.69745983836808 8.285712964169928  L 30.3821631869593 8.285712964169928  C 30.3821631869593 8.285712964169928  30.3821631869593 15.714284512881754  30.3821631869593 15.714284512881754  C 30.3821631869593 16.349204640542936  30.47771474037518 16.746034450859273  30.66879696660048 16.90476542888019  C 30.859879192825776 17.031749832854675  31.30573329146526 17.095242980947535  32.00637065194062 17.095242980947535  C 32.16560615683453 17.095242980947535  32.404461312412344 17.095242980947535  32.72293232220016 17.095242980947535  C 33.07325195155632 17.095242980947535  33.45542399695472 17.095242980947535  33.86943706897366 17.095242980947535  C 34.283448242755654 17.095242980947535  34.6656070004954 17.095242980947535  35.015926629851556 17.095242980947535  C 35.39809108230216 17.095242980947535  35.68471347252163 17.095242980947535  35.87579759698388 17.095242980947535  C 36.257962049434475 17.095242980947535  36.54458443965395 17.031749832854675  36.735668564116196 16.90476542888019  C 36.9267507903415 16.746034450859273  37.070071476635995 16.428567764289348  37.16561164063017 15.952377668543459  C 37.26115370286129 15.476187572797572  37.340760065886535 14.761906213601215  37.404455406786276 13.809524129898199  C 37.75477313790548 14.09523856578798  38.21657052869864 14.38095110946652  38.78981910561149 14.666665545356302  C 39.394914403855736 14.920634353305271  40.01592831717329 15.158729401178217  40.652870336748926 15.380952581186374  C 41.289814254561506 15.571428241042483  41.863059035000454 15.714286405092992  42.372612271013566 15.809523288915427  C 42.18153004478827 17.4920642763133  41.86306662794826 18.793654890104577  41.41720683459793 19.71429039976116  C 41.00319376257899 20.603179335371316  40.39809276962389 21.23809851692688  39.60191524515435 21.619050782744715  C 38.80573582244786 21.96825742062174  37.770695549452704 22.14286026650744  36.49680961206448 22.14286026650744  C 36.21018532360806 22.14286026650744  35.81209845961025 22.14286026650744  35.30254522359713 22.14286026650744  C 34.82483870891541 22.14286026650744  34.315289269376194 22.14286026650744  33.77388741379473 22.14286026650744  C 33.23248555821328 22.14286026650744  32.72293611867406 22.14286026650744  32.245229603992335 22.14286026650744  C 31.767523089310615 22.14286026650744  31.38534914567526 22.14286026650744  31.098724857218834 22.14286026650744  C 29.37897912648029 22.14286026650744  28.04140164466624 21.952380822228857  27.085988615302792 21.571427610305403  C 26.162420409033786 21.158729716546755  25.525480287695103 20.492063960944762  25.1751625565759 19.571428451288174  C 24.85669154678808 18.61904731369078  24.69745983836808 17.349209896685267  24.69745983836808 15.761907685321066  Z M 1.6719822925707897 13.952378509526232  L 1.6719822925707897 5  L 43.13694876886257 5  L 43.13694876886257 13.523807801797181  L 37.117836813040704 13.523807801797181  L 37.117836813040704 10  L 7.452235296340941 10  L 7.452235296340941 13.952378509526232  L 1.6719822925707897 13.952378509526232  Z M 16.242044278022025 26.095242980947532  C 16.242044278022025 26.095242980947532  16.242044278022025 19.99999915901723  16.242044278022025 19.99999915901723  L 21.974522454202713 19.99999915901723  C 21.974522454202713 19.99999915901723  21.974522454202713 26.23809736057557  21.974522454202713 26.23809736057557  C 21.974522454202713 27.603177338037234  21.84713082328477 28.98413249473335  21.592354205278212 30.38095762708301  C 21.33757663815318 31.777783232485483  20.84395530487204 33.17460741872953  20.111471223065283 34.57143349718481  C 19.378987141258527 35.96825910258728  18.343944970026417 37.31746756697377  17.00636558997542 38.61905498765858  C 15.668786209924424 39.88889654387617  13.917195656091435 41.06350168932415  11.751590132002555 42.14286699436962  C 9.61783227836354 43.25397840040872  6.974518104076367 44.2063491308443  3.8216521174537914 45  C 3.407639519994088 44.30158719729876  2.818481819192677 43.50794235956639  2.0541505414952907 42.619053305693036  C 1.321666459688534 41.73016419268808  0.6369426127746791 40.96825859668358  0 40.33333781857478  C 2.8343947395551408 39.63492501587355  5.207013918042059 38.841272609296226  7.117841875005905 37.95238355542287  C 9.060517027860381 37.06349450154951  10.636948716133766 36.142862894578606  11.847139787181485 35.19048175698121  C 13.05733133278844 34.20635451839019  13.964966687206996 33.20635257361753  14.570061985451236 32.19047923403289  C 15.207004954145345 31.14286026650744  15.63694613242236 30.111111274635537  15.859876029097526 29.095237935050903  C 16.114652647104084 28.047618967525448  16.242044278022025 27.04762411854493  16.242044278022025 26.095242980947532  Z " fill-rule="evenodd" />
    </mask>
  </defs>
  <g transform="matrix(1 0 0 1 -283 -376 )">
    <path d="M 3.6305831788871505 30  L 3.6305831788871505 25  L 31.528667933732798 25  L 31.528667933732798 30  L 3.6305831788871505 30  Z M 28.37580265894908 37.190480915998435  C 28.37580265894908 37.190480915998435  28.37580265894908 25.23810156548943  28.37580265894908 25.23810156548943  L 34.39489942887534 25.23810156548943  C 34.39489942887534 25.23810156548943  34.39489942887534 37.142865312404076  34.39489942887534 37.142865312404076  C 34.39489942887534 37.90477019882935  34.47452287603315 38.38095556404715  34.633758380927055 38.57143181521926  C 34.79299388582096 38.761908066391385  35.111472488556586 38.85714814332029  35.58917900323831 38.85714814332029  C 35.71656778680082 38.85714814332029  35.89172570324195 38.85714814332029  36.114656549035594 38.85714814332029  C 36.33758549659228 38.85714814332029  36.5764406521701 38.85714814332029  36.83121821929513 38.85714814332029  C 37.117842507751554 38.85714814332029  37.37261058369184 38.85714814332029  37.59553953124852 38.85714814332029  C 37.85031709837356 38.85714814332029  38.041403121072754 38.85714814332029  38.16879190463527 38.85714814332029  C 38.51910963575448 38.85714814332029  38.78980391971588 38.71429187148101  38.98088804417814 38.42857743559124  C 39.17197027040343 38.11111713523424  39.29936285043985 37.46032100049618  39.36305629310264 36.47619388016836  C 39.45859835533376 35.492066641577345  39.53821990425462 34.0000020236148  39.60191524515435 32.00000168196554  C 40.01592641893634 32.34920784678976  40.541403964733625 32.68254450901323  41.17834788254621 33.000005045896636  C 41.81528990212184 33.31746558278004  42.484071050081056 33.60317812645858  43.184708410556425 33.85714646135474  C 43.885345771031794 34.111114796250895  44.49044676398689 34.31746468923584  45 34.47619472115114  C 44.84076449510609 37.079369799047164  44.52230107826608 39.11111328510998  44.04459456358436 40.57143097423649  C 43.598734770234024 42.031748781626206  42.961779462999736 43.04762034726281  42.13375331896185 43.619049100779165  C 41.30572717492397 44.19047773603233  40.19109192832527 44.476190516237274  38.78981910561149 44.476190516237274  C 38.53504153848646 44.476190516237274  38.216562935750844 44.476190516237274  37.83439848330024 44.476190516237274  C 37.452232132612686 44.476190516237274  37.05414716685182 44.476190516237274  36.64013409483288 44.476190516237274  C 36.22612102281394 44.476190516237274  35.82803415881612 44.476190516237274  35.44586970636552 44.476190516237274  C 35.06370335567797 44.476190516237274  34.76115285920043 44.476190516237274  34.53822391164373 44.476190516237274  C 32.977713685799095 44.476190516237274  31.735672571505322 44.25397112065159  30.812106263473265 43.809526652846515  C 29.9203866767726 43.365082066778236  29.28344655543392 42.61905354221944  28.901280204746367 41.571434338167585  C 28.55096247362716 40.52381501585252  28.37580265894908 39.063497090199604  28.37580265894908 37.190480915998435  Z M 19.299359897626815 7.571425928339858  L 19.299359897626815 0  L 25.222937384165363 0  L 25.222937384165363 7.571425928339858  L 19.299359897626815 7.571425928339858  Z M 12.707010754313806 12.000002522948318  C 13.08917615588288 10.825399151448382  13.359871388962757 9.507937615897939  13.519106893856666 8.047619808508223  C 13.519106893856666 8.047619808508223  19.538218849678533 8.047619808508223  19.538218849678533 8.047619808508223  C 19.315288953003364 10.0793664876775  18.949043115626086 11.92063750699067  18.43948893049449 13.571430974236494  C 17.929934745362903 15.190478813541505  17.117834809346142 16.63491907643272  16.00318532597031 17.90476122396633  C 14.88853584259448 19.174602425394315  13.343959417718768 20.285714541012627  11.369437068973664 21.238095678610023  C 9.394914720228558 22.15873118826661  6.8312090444832005 22.920636666007898  3.6783428205810056 23.52381116572827  C 3.4235657280152103 22.82539883607984  3.009551944157412 22.015876808638573  2.436303604524182 21.095241298981993  C 1.8630552648909515 20.174606735431023  1.2898101285325767 19.444447831736166  0.7165616702595371 18.904764587897418  C 3.423568100811399 18.46032012009234  5.5732450440829675 17.920634037936733  7.16560151669976 17.285712964169928  C 8.78980565976642 16.650792836508746  10.031847248619433 15.90476395716034  10.891719164870231 15.047620649490996  C 11.751592030239504 14.158731713880842  12.356692074076124 13.142860266507439  12.707010754313806 12.000002522948318  Z M 24.69745983836808 15.761907685321066  C 24.69745983836808 15.761907685321066  24.69745983836808 8.285712964169928  24.69745983836808 8.285712964169928  L 30.3821631869593 8.285712964169928  C 30.3821631869593 8.285712964169928  30.3821631869593 15.714284512881754  30.3821631869593 15.714284512881754  C 30.3821631869593 16.349204640542936  30.47771474037518 16.746034450859273  30.66879696660048 16.90476542888019  C 30.859879192825776 17.031749832854675  31.30573329146526 17.095242980947535  32.00637065194062 17.095242980947535  C 32.16560615683453 17.095242980947535  32.404461312412344 17.095242980947535  32.72293232220016 17.095242980947535  C 33.07325195155632 17.095242980947535  33.45542399695472 17.095242980947535  33.86943706897366 17.095242980947535  C 34.283448242755654 17.095242980947535  34.6656070004954 17.095242980947535  35.015926629851556 17.095242980947535  C 35.39809108230216 17.095242980947535  35.68471347252163 17.095242980947535  35.87579759698388 17.095242980947535  C 36.257962049434475 17.095242980947535  36.54458443965395 17.031749832854675  36.735668564116196 16.90476542888019  C 36.9267507903415 16.746034450859273  37.070071476635995 16.428567764289348  37.16561164063017 15.952377668543459  C 37.26115370286129 15.476187572797572  37.340760065886535 14.761906213601215  37.404455406786276 13.809524129898199  C 37.75477313790548 14.09523856578798  38.21657052869864 14.38095110946652  38.78981910561149 14.666665545356302  C 39.394914403855736 14.920634353305271  40.01592831717329 15.158729401178217  40.652870336748926 15.380952581186374  C 41.289814254561506 15.571428241042483  41.863059035000454 15.714286405092992  42.372612271013566 15.809523288915427  C 42.18153004478827 17.4920642763133  41.86306662794826 18.793654890104577  41.41720683459793 19.71429039976116  C 41.00319376257899 20.603179335371316  40.39809276962389 21.23809851692688  39.60191524515435 21.619050782744715  C 38.80573582244786 21.96825742062174  37.770695549452704 22.14286026650744  36.49680961206448 22.14286026650744  C 36.21018532360806 22.14286026650744  35.81209845961025 22.14286026650744  35.30254522359713 22.14286026650744  C 34.82483870891541 22.14286026650744  34.315289269376194 22.14286026650744  33.77388741379473 22.14286026650744  C 33.23248555821328 22.14286026650744  32.72293611867406 22.14286026650744  32.245229603992335 22.14286026650744  C 31.767523089310615 22.14286026650744  31.38534914567526 22.14286026650744  31.098724857218834 22.14286026650744  C 29.37897912648029 22.14286026650744  28.04140164466624 21.952380822228857  27.085988615302792 21.571427610305403  C 26.162420409033786 21.158729716546755  25.525480287695103 20.492063960944762  25.1751625565759 19.571428451288174  C 24.85669154678808 18.61904731369078  24.69745983836808 17.349209896685267  24.69745983836808 15.761907685321066  Z M 1.6719822925707897 13.952378509526232  L 1.6719822925707897 5  L 43.13694876886257 5  L 43.13694876886257 13.523807801797181  L 37.117836813040704 13.523807801797181  L 37.117836813040704 10  L 7.452235296340941 10  L 7.452235296340941 13.952378509526232  L 1.6719822925707897 13.952378509526232  Z M 16.242044278022025 26.095242980947532  C 16.242044278022025 26.095242980947532  16.242044278022025 19.99999915901723  16.242044278022025 19.99999915901723  L 21.974522454202713 19.99999915901723  C 21.974522454202713 19.99999915901723  21.974522454202713 26.23809736057557  21.974522454202713 26.23809736057557  C 21.974522454202713 27.603177338037234  21.84713082328477 28.98413249473335  21.592354205278212 30.38095762708301  C 21.33757663815318 31.777783232485483  20.84395530487204 33.17460741872953  20.111471223065283 34.57143349718481  C 19.378987141258527 35.96825910258728  18.343944970026417 37.31746756697377  17.00636558997542 38.61905498765858  C 15.668786209924424 39.88889654387617  13.917195656091435 41.06350168932415  11.751590132002555 42.14286699436962  C 9.61783227836354 43.25397840040872  6.974518104076367 44.2063491308443  3.8216521174537914 45  C 3.407639519994088 44.30158719729876  2.818481819192677 43.50794235956639  2.0541505414952907 42.619053305693036  C 1.321666459688534 41.73016419268808  0.6369426127746791 40.96825859668358  0 40.33333781857478  C 2.8343947395551408 39.63492501587355  5.207013918042059 38.841272609296226  7.117841875005905 37.95238355542287  C 9.060517027860381 37.06349450154951  10.636948716133766 36.142862894578606  11.847139787181485 35.19048175698121  C 13.05733133278844 34.20635451839019  13.964966687206996 33.20635257361753  14.570061985451236 32.19047923403289  C 15.207004954145345 31.14286026650744  15.63694613242236 30.111111274635537  15.859876029097526 29.095237935050903  C 16.114652647104084 28.047618967525448  16.242044278022025 27.04762411854493  16.242044278022025 26.095242980947532  Z " fill-rule="nonzero" fill="rgba(63, 66, 124, 1)" stroke="none" transform="matrix(1 0 0 1 287 376 )" class="fill" />
    <path d="M 3.6305831788871505 30  L 3.6305831788871505 25  L 31.528667933732798 25  L 31.528667933732798 30  L 3.6305831788871505 30  Z " stroke-width="0" stroke-dasharray="0" stroke="rgba(121, 121, 121, 1)" fill="none" transform="matrix(1 0 0 1 287 376 )" class="stroke" mask="url(#Clip4415)" />
    <path d="M 28.37580265894908 37.190480915998435  C 28.37580265894908 37.190480915998435  28.37580265894908 25.23810156548943  28.37580265894908 25.23810156548943  L 34.39489942887534 25.23810156548943  C 34.39489942887534 25.23810156548943  34.39489942887534 37.142865312404076  34.39489942887534 37.142865312404076  C 34.39489942887534 37.90477019882935  34.47452287603315 38.38095556404715  34.633758380927055 38.57143181521926  C 34.79299388582096 38.761908066391385  35.111472488556586 38.85714814332029  35.58917900323831 38.85714814332029  C 35.71656778680082 38.85714814332029  35.89172570324195 38.85714814332029  36.114656549035594 38.85714814332029  C 36.33758549659228 38.85714814332029  36.5764406521701 38.85714814332029  36.83121821929513 38.85714814332029  C 37.117842507751554 38.85714814332029  37.37261058369184 38.85714814332029  37.59553953124852 38.85714814332029  C 37.85031709837356 38.85714814332029  38.041403121072754 38.85714814332029  38.16879190463527 38.85714814332029  C 38.51910963575448 38.85714814332029  38.78980391971588 38.71429187148101  38.98088804417814 38.42857743559124  C 39.17197027040343 38.11111713523424  39.29936285043985 37.46032100049618  39.36305629310264 36.47619388016836  C 39.45859835533376 35.492066641577345  39.53821990425462 34.0000020236148  39.60191524515435 32.00000168196554  C 40.01592641893634 32.34920784678976  40.541403964733625 32.68254450901323  41.17834788254621 33.000005045896636  C 41.81528990212184 33.31746558278004  42.484071050081056 33.60317812645858  43.184708410556425 33.85714646135474  C 43.885345771031794 34.111114796250895  44.49044676398689 34.31746468923584  45 34.47619472115114  C 44.84076449510609 37.079369799047164  44.52230107826608 39.11111328510998  44.04459456358436 40.57143097423649  C 43.598734770234024 42.031748781626206  42.961779462999736 43.04762034726281  42.13375331896185 43.619049100779165  C 41.30572717492397 44.19047773603233  40.19109192832527 44.476190516237274  38.78981910561149 44.476190516237274  C 38.53504153848646 44.476190516237274  38.216562935750844 44.476190516237274  37.83439848330024 44.476190516237274  C 37.452232132612686 44.476190516237274  37.05414716685182 44.476190516237274  36.64013409483288 44.476190516237274  C 36.22612102281394 44.476190516237274  35.82803415881612 44.476190516237274  35.44586970636552 44.476190516237274  C 35.06370335567797 44.476190516237274  34.76115285920043 44.476190516237274  34.53822391164373 44.476190516237274  C 32.977713685799095 44.476190516237274  31.735672571505322 44.25397112065159  30.812106263473265 43.809526652846515  C 29.9203866767726 43.365082066778236  29.28344655543392 42.61905354221944  28.901280204746367 41.571434338167585  C 28.55096247362716 40.52381501585252  28.37580265894908 39.063497090199604  28.37580265894908 37.190480915998435  Z " stroke-width="0" stroke-dasharray="0" stroke="rgba(121, 121, 121, 1)" fill="none" transform="matrix(1 0 0 1 287 376 )" class="stroke" mask="url(#Clip4415)" />
    <path d="M 19.299359897626815 7.571425928339858  L 19.299359897626815 0  L 25.222937384165363 0  L 25.222937384165363 7.571425928339858  L 19.299359897626815 7.571425928339858  Z " stroke-width="0" stroke-dasharray="0" stroke="rgba(121, 121, 121, 1)" fill="none" transform="matrix(1 0 0 1 287 376 )" class="stroke" mask="url(#Clip4415)" />
    <path d="M 12.707010754313806 12.000002522948318  C 13.08917615588288 10.825399151448382  13.359871388962757 9.507937615897939  13.519106893856666 8.047619808508223  C 13.519106893856666 8.047619808508223  19.538218849678533 8.047619808508223  19.538218849678533 8.047619808508223  C 19.315288953003364 10.0793664876775  18.949043115626086 11.92063750699067  18.43948893049449 13.571430974236494  C 17.929934745362903 15.190478813541505  17.117834809346142 16.63491907643272  16.00318532597031 17.90476122396633  C 14.88853584259448 19.174602425394315  13.343959417718768 20.285714541012627  11.369437068973664 21.238095678610023  C 9.394914720228558 22.15873118826661  6.8312090444832005 22.920636666007898  3.6783428205810056 23.52381116572827  C 3.4235657280152103 22.82539883607984  3.009551944157412 22.015876808638573  2.436303604524182 21.095241298981993  C 1.8630552648909515 20.174606735431023  1.2898101285325767 19.444447831736166  0.7165616702595371 18.904764587897418  C 3.423568100811399 18.46032012009234  5.5732450440829675 17.920634037936733  7.16560151669976 17.285712964169928  C 8.78980565976642 16.650792836508746  10.031847248619433 15.90476395716034  10.891719164870231 15.047620649490996  C 11.751592030239504 14.158731713880842  12.356692074076124 13.142860266507439  12.707010754313806 12.000002522948318  Z " stroke-width="0" stroke-dasharray="0" stroke="rgba(121, 121, 121, 1)" fill="none" transform="matrix(1 0 0 1 287 376 )" class="stroke" mask="url(#Clip4415)" />
    <path d="M 24.69745983836808 15.761907685321066  C 24.69745983836808 15.761907685321066  24.69745983836808 8.285712964169928  24.69745983836808 8.285712964169928  L 30.3821631869593 8.285712964169928  C 30.3821631869593 8.285712964169928  30.3821631869593 15.714284512881754  30.3821631869593 15.714284512881754  C 30.3821631869593 16.349204640542936  30.47771474037518 16.746034450859273  30.66879696660048 16.90476542888019  C 30.859879192825776 17.031749832854675  31.30573329146526 17.095242980947535  32.00637065194062 17.095242980947535  C 32.16560615683453 17.095242980947535  32.404461312412344 17.095242980947535  32.72293232220016 17.095242980947535  C 33.07325195155632 17.095242980947535  33.45542399695472 17.095242980947535  33.86943706897366 17.095242980947535  C 34.283448242755654 17.095242980947535  34.6656070004954 17.095242980947535  35.015926629851556 17.095242980947535  C 35.39809108230216 17.095242980947535  35.68471347252163 17.095242980947535  35.87579759698388 17.095242980947535  C 36.257962049434475 17.095242980947535  36.54458443965395 17.031749832854675  36.735668564116196 16.90476542888019  C 36.9267507903415 16.746034450859273  37.070071476635995 16.428567764289348  37.16561164063017 15.952377668543459  C 37.26115370286129 15.476187572797572  37.340760065886535 14.761906213601215  37.404455406786276 13.809524129898199  C 37.75477313790548 14.09523856578798  38.21657052869864 14.38095110946652  38.78981910561149 14.666665545356302  C 39.394914403855736 14.920634353305271  40.01592831717329 15.158729401178217  40.652870336748926 15.380952581186374  C 41.289814254561506 15.571428241042483  41.863059035000454 15.714286405092992  42.372612271013566 15.809523288915427  C 42.18153004478827 17.4920642763133  41.86306662794826 18.793654890104577  41.41720683459793 19.71429039976116  C 41.00319376257899 20.603179335371316  40.39809276962389 21.23809851692688  39.60191524515435 21.619050782744715  C 38.80573582244786 21.96825742062174  37.770695549452704 22.14286026650744  36.49680961206448 22.14286026650744  C 36.21018532360806 22.14286026650744  35.81209845961025 22.14286026650744  35.30254522359713 22.14286026650744  C 34.82483870891541 22.14286026650744  34.315289269376194 22.14286026650744  33.77388741379473 22.14286026650744  C 33.23248555821328 22.14286026650744  32.72293611867406 22.14286026650744  32.245229603992335 22.14286026650744  C 31.767523089310615 22.14286026650744  31.38534914567526 22.14286026650744  31.098724857218834 22.14286026650744  C 29.37897912648029 22.14286026650744  28.04140164466624 21.952380822228857  27.085988615302792 21.571427610305403  C 26.162420409033786 21.158729716546755  25.525480287695103 20.492063960944762  25.1751625565759 19.571428451288174  C 24.85669154678808 18.61904731369078  24.69745983836808 17.349209896685267  24.69745983836808 15.761907685321066  Z " stroke-width="0" stroke-dasharray="0" stroke="rgba(121, 121, 121, 1)" fill="none" transform="matrix(1 0 0 1 287 376 )" class="stroke" mask="url(#Clip4415)" />
    <path d="M 1.6719822925707897 13.952378509526232  L 1.6719822925707897 5  L 43.13694876886257 5  L 43.13694876886257 13.523807801797181  L 37.117836813040704 13.523807801797181  L 37.117836813040704 10  L 7.452235296340941 10  L 7.452235296340941 13.952378509526232  L 1.6719822925707897 13.952378509526232  Z " stroke-width="0" stroke-dasharray="0" stroke="rgba(121, 121, 121, 1)" fill="none" transform="matrix(1 0 0 1 287 376 )" class="stroke" mask="url(#Clip4415)" />
    <path d="M 16.242044278022025 26.095242980947532  C 16.242044278022025 26.095242980947532  16.242044278022025 19.99999915901723  16.242044278022025 19.99999915901723  L 21.974522454202713 19.99999915901723  C 21.974522454202713 19.99999915901723  21.974522454202713 26.23809736057557  21.974522454202713 26.23809736057557  C 21.974522454202713 27.603177338037234  21.84713082328477 28.98413249473335  21.592354205278212 30.38095762708301  C 21.33757663815318 31.777783232485483  20.84395530487204 33.17460741872953  20.111471223065283 34.57143349718481  C 19.378987141258527 35.96825910258728  18.343944970026417 37.31746756697377  17.00636558997542 38.61905498765858  C 15.668786209924424 39.88889654387617  13.917195656091435 41.06350168932415  11.751590132002555 42.14286699436962  C 9.61783227836354 43.25397840040872  6.974518104076367 44.2063491308443  3.8216521174537914 45  C 3.407639519994088 44.30158719729876  2.818481819192677 43.50794235956639  2.0541505414952907 42.619053305693036  C 1.321666459688534 41.73016419268808  0.6369426127746791 40.96825859668358  0 40.33333781857478  C 2.8343947395551408 39.63492501587355  5.207013918042059 38.841272609296226  7.117841875005905 37.95238355542287  C 9.060517027860381 37.06349450154951  10.636948716133766 36.142862894578606  11.847139787181485 35.19048175698121  C 13.05733133278844 34.20635451839019  13.964966687206996 33.20635257361753  14.570061985451236 32.19047923403289  C 15.207004954145345 31.14286026650744  15.63694613242236 30.111111274635537  15.859876029097526 29.095237935050903  C 16.114652647104084 28.047618967525448  16.242044278022025 27.04762411854493  16.242044278022025 26.095242980947532  Z " stroke-width="0" stroke-dasharray="0" stroke="rgba(121, 121, 121, 1)" fill="none" transform="matrix(1 0 0 1 287 376 )" class="stroke" mask="url(#Clip4415)" />
  </g>
  <style>svg { filter: drop-shadow(0px 4px 2px rgba(0, 0, 0, 0.12941176470588237)); }</style>
</svg>