<?xml version="1.0" encoding="utf-8"?>
<svg version="1.1" xmlns:xlink="http://www.w3.org/1999/xlink" width="9px" height="12px" xmlns="http://www.w3.org/2000/svg">
  <defs>
    <pattern id="BGPattern" patternUnits="userSpaceOnUse" alignment="0 0" imageRepeat="None" />
    <mask fill="white" id="Clip4616">
      <path d="M 7.839474843281594 9.142857908752067  C 7.839474843281594 9.142857908752067  9 10.261905811255895  9 10.261905811255895  C 7.7921051442788105 11.571429703376216  6.7736832025307505 12  5.163156963517352 12  C 2.226314209372528 12  0 10.000001576842491  0 6.000001419158242  C 0 2.0000007884212456  2.226314209372528 0  5.163156963517352 0  C 6.7736832025307505 0  7.7921051442788105 0.42857112446609097  9 1.738095134849599  C 9 1.738095134849599  7.839474843281594 2.8333333464736876  7.839474843281594 2.8333333464736876  C 6.963158939882121 1.8571426431428049  6.276314774048176 1.5238098091429269  5.163156963517352 1.5238098091429269  C 4.026314538766656 1.5238098091429269  3.07894596911517 1.9761906244887582  2.46315658706692 2.8571430373534277  C 1.9184196359891632 3.619047941924891  1.7052639900483237 4.523810400458861  1.7052639900483237 6.000001419158242  C 1.7052639900483237 7.4761917282785015  1.9184196359891632 8.380953004180604  2.46315658706692 9.142857908752067  C 3.07894596911517 10.023810321616736  4.026314538766656 10.476191136962568  5.163156963517352 10.476191136962568  C 6.276314774048176 10.476191136962568  6.963158939882121 10.119048434688171  7.839474843281594 9.142857908752067  Z " fill-rule="evenodd" />
    </mask>
  </defs>
  <g transform="matrix(1 0 0 1 -183 -496 )">
    <path d="M 7.839474843281594 9.142857908752067  C 7.839474843281594 9.142857908752067  9 10.261905811255895  9 10.261905811255895  C 7.7921051442788105 11.571429703376216  6.7736832025307505 12  5.163156963517352 12  C 2.226314209372528 12  0 10.000001576842491  0 6.000001419158242  C 0 2.0000007884212456  2.226314209372528 0  5.163156963517352 0  C 6.7736832025307505 0  7.7921051442788105 0.42857112446609097  9 1.738095134849599  C 9 1.738095134849599  7.839474843281594 2.8333333464736876  7.839474843281594 2.8333333464736876  C 6.963158939882121 1.8571426431428049  6.276314774048176 1.5238098091429269  5.163156963517352 1.5238098091429269  C 4.026314538766656 1.5238098091429269  3.07894596911517 1.9761906244887582  2.46315658706692 2.8571430373534277  C 1.9184196359891632 3.619047941924891  1.7052639900483237 4.523810400458861  1.7052639900483237 6.000001419158242  C 1.7052639900483237 7.4761917282785015  1.9184196359891632 8.380953004180604  2.46315658706692 9.142857908752067  C 3.07894596911517 10.023810321616736  4.026314538766656 10.476191136962568  5.163156963517352 10.476191136962568  C 6.276314774048176 10.476191136962568  6.963158939882121 10.119048434688171  7.839474843281594 9.142857908752067  Z " fill-rule="nonzero" fill="rgba(0, 0, 0, 1)" stroke="none" transform="matrix(1 0 0 1 183 496 )" class="fill" />
    <path d="M 7.839474843281594 9.142857908752067  C 7.839474843281594 9.142857908752067  9 10.261905811255895  9 10.261905811255895  C 7.7921051442788105 11.571429703376216  6.7736832025307505 12  5.163156963517352 12  C 2.226314209372528 12  0 10.000001576842491  0 6.000001419158242  C 0 2.0000007884212456  2.226314209372528 0  5.163156963517352 0  C 6.7736832025307505 0  7.7921051442788105 0.42857112446609097  9 1.738095134849599  C 9 1.738095134849599  7.839474843281594 2.8333333464736876  7.839474843281594 2.8333333464736876  C 6.963158939882121 1.8571426431428049  6.276314774048176 1.5238098091429269  5.163156963517352 1.5238098091429269  C 4.026314538766656 1.5238098091429269  3.07894596911517 1.9761906244887582  2.46315658706692 2.8571430373534277  C 1.9184196359891632 3.619047941924891  1.7052639900483237 4.523810400458861  1.7052639900483237 6.000001419158242  C 1.7052639900483237 7.4761917282785015  1.9184196359891632 8.380953004180604  2.46315658706692 9.142857908752067  C 3.07894596911517 10.023810321616736  4.026314538766656 10.476191136962568  5.163156963517352 10.476191136962568  C 6.276314774048176 10.476191136962568  6.963158939882121 10.119048434688171  7.839474843281594 9.142857908752067  Z " stroke-width="0" stroke-dasharray="0" stroke="rgba(121, 121, 121, 1)" fill="none" transform="matrix(1 0 0 1 183 496 )" class="stroke" mask="url(#Clip4616)" />
  </g>
</svg>