<?xml version="1.0" encoding="utf-8"?>
<svg version="1.1" xmlns:xlink="http://www.w3.org/1999/xlink" width="9px" height="12px" xmlns="http://www.w3.org/2000/svg">
  <defs>
    <pattern id="BGPattern" patternUnits="userSpaceOnUse" alignment="0 0" imageRepeat="None" />
    <mask fill="white" id="Clip4544">
      <path d="M 9 3.904766289885439  C 9 3.904766289885439  9 11.857145650406478  9 11.857145650406478  L 7.338464698565576 11.857145650406478  C 7.338464698565576 11.857145650406478  7.338464698565576 10.738099728341597  7.338464698565576 10.738099728341597  C 6.415388028249951 11.690480665705003  5.584614073195722 12  4.061537257689304 12  C 2.492306505505227 12  1.5692310387448505 11.690481966599956  0.8538465676693017 10.928577240361866  C 0.3000003591561695 10.357148725249093  0 9.476195140077216  0 8.547623477795222  C 0 6.500004651684982  1.384616954086698 5.166666561543843  3.9230784278883695 5.166666561543843  C 3.9230784278883695 5.166666561543843  7.338464698565576 5.166666561543843  7.338464698565576 5.166666561543843  C 7.338464698565576 5.166666561543843  7.338464698565576 4.047620639478961  7.338464698565576 4.047620639478961  C 7.338464698565576 2.3333350941406428  6.507693379870464 1.476196933735407  4.430770585099532 1.476196933735407  C 2.9769243307366766 1.476196933735407  2.2384650118720217 1.8333337538246313  1.5692343055376685 2.8095243801905707  C 1.5692343055376685 2.8095243801905707  0.438455406354894 1.7381016205524373  0.438455406354894 1.7381016205524373  C 1.4538401792744575 0.38095857193586413  2.607695473674515 0  4.4538495020516224 0  C 7.500003133064457 0  9 1.3571475426173185  9 3.904766289885439  Z M 6.761535790498144 9.738096574656863  C 7.153843908385323 9.35714415240623  7.338464698565576 8.690476881283324  7.338464698565576 7.714286254917383  C 7.338464698565576 7.714286254917383  7.338464698565576 6.45238598325898  7.338464698565576 6.45238598325898  C 7.338464698565576 6.45238598325898  4.153852925497663 6.45238598325898  4.153852925497663 6.45238598325898  C 2.4461607071535347 6.45238598325898  1.6153921394418478 7.166668847965274  1.6153921394418478 8.523811896581847  C 1.6153921394418478 9.880954590408887  2.423074912742881 10.523810635107955  4.223075004442329 10.523810635107955  C 5.192305955308543 10.523810635107955  6.046151491359059 10.45238215941624  6.761535790498144 9.738096574656863  Z " fill-rule="evenodd" />
    </mask>
  </defs>
  <g transform="matrix(1 0 0 1 -376 -558 )">
    <path d="M 9 3.904766289885439  C 9 3.904766289885439  9 11.857145650406478  9 11.857145650406478  L 7.338464698565576 11.857145650406478  C 7.338464698565576 11.857145650406478  7.338464698565576 10.738099728341597  7.338464698565576 10.738099728341597  C 6.415388028249951 11.690480665705003  5.584614073195722 12  4.061537257689304 12  C 2.492306505505227 12  1.5692310387448505 11.690481966599956  0.8538465676693017 10.928577240361866  C 0.3000003591561695 10.357148725249093  0 9.476195140077216  0 8.547623477795222  C 0 6.500004651684982  1.384616954086698 5.166666561543843  3.9230784278883695 5.166666561543843  C 3.9230784278883695 5.166666561543843  7.338464698565576 5.166666561543843  7.338464698565576 5.166666561543843  C 7.338464698565576 5.166666561543843  7.338464698565576 4.047620639478961  7.338464698565576 4.047620639478961  C 7.338464698565576 2.3333350941406428  6.507693379870464 1.476196933735407  4.430770585099532 1.476196933735407  C 2.9769243307366766 1.476196933735407  2.2384650118720217 1.8333337538246313  1.5692343055376685 2.8095243801905707  C 1.5692343055376685 2.8095243801905707  0.438455406354894 1.7381016205524373  0.438455406354894 1.7381016205524373  C 1.4538401792744575 0.38095857193586413  2.607695473674515 0  4.4538495020516224 0  C 7.500003133064457 0  9 1.3571475426173185  9 3.904766289885439  Z M 6.761535790498144 9.738096574656863  C 7.153843908385323 9.35714415240623  7.338464698565576 8.690476881283324  7.338464698565576 7.714286254917383  C 7.338464698565576 7.714286254917383  7.338464698565576 6.45238598325898  7.338464698565576 6.45238598325898  C 7.338464698565576 6.45238598325898  4.153852925497663 6.45238598325898  4.153852925497663 6.45238598325898  C 2.4461607071535347 6.45238598325898  1.6153921394418478 7.166668847965274  1.6153921394418478 8.523811896581847  C 1.6153921394418478 9.880954590408887  2.423074912742881 10.523810635107955  4.223075004442329 10.523810635107955  C 5.192305955308543 10.523810635107955  6.046151491359059 10.45238215941624  6.761535790498144 9.738096574656863  Z " fill-rule="nonzero" fill="rgba(0, 0, 0, 1)" stroke="none" transform="matrix(1 0 0 1 376 558 )" class="fill" />
    <path d="M 9 3.904766289885439  C 9 3.904766289885439  9 11.857145650406478  9 11.857145650406478  L 7.338464698565576 11.857145650406478  C 7.338464698565576 11.857145650406478  7.338464698565576 10.738099728341597  7.338464698565576 10.738099728341597  C 6.415388028249951 11.690480665705003  5.584614073195722 12  4.061537257689304 12  C 2.492306505505227 12  1.5692310387448505 11.690481966599956  0.8538465676693017 10.928577240361866  C 0.3000003591561695 10.357148725249093  0 9.476195140077216  0 8.547623477795222  C 0 6.500004651684982  1.384616954086698 5.166666561543843  3.9230784278883695 5.166666561543843  C 3.9230784278883695 5.166666561543843  7.338464698565576 5.166666561543843  7.338464698565576 5.166666561543843  C 7.338464698565576 5.166666561543843  7.338464698565576 4.047620639478961  7.338464698565576 4.047620639478961  C 7.338464698565576 2.3333350941406428  6.507693379870464 1.476196933735407  4.430770585099532 1.476196933735407  C 2.9769243307366766 1.476196933735407  2.2384650118720217 1.8333337538246313  1.5692343055376685 2.8095243801905707  C 1.5692343055376685 2.8095243801905707  0.438455406354894 1.7381016205524373  0.438455406354894 1.7381016205524373  C 1.4538401792744575 0.38095857193586413  2.607695473674515 0  4.4538495020516224 0  C 7.500003133064457 0  9 1.3571475426173185  9 3.904766289885439  Z " stroke-width="0" stroke-dasharray="0" stroke="rgba(121, 121, 121, 1)" fill="none" transform="matrix(1 0 0 1 376 558 )" class="stroke" mask="url(#Clip4544)" />
    <path d="M 6.761535790498144 9.738096574656863  C 7.153843908385323 9.35714415240623  7.338464698565576 8.690476881283324  7.338464698565576 7.714286254917383  C 7.338464698565576 7.714286254917383  7.338464698565576 6.45238598325898  7.338464698565576 6.45238598325898  C 7.338464698565576 6.45238598325898  4.153852925497663 6.45238598325898  4.153852925497663 6.45238598325898  C 2.4461607071535347 6.45238598325898  1.6153921394418478 7.166668847965274  1.6153921394418478 8.523811896581847  C 1.6153921394418478 9.880954590408887  2.423074912742881 10.523810635107955  4.223075004442329 10.523810635107955  C 5.192305955308543 10.523810635107955  6.046151491359059 10.45238215941624  6.761535790498144 9.738096574656863  Z " stroke-width="0" stroke-dasharray="0" stroke="rgba(121, 121, 121, 1)" fill="none" transform="matrix(1 0 0 1 376 558 )" class="stroke" mask="url(#Clip4544)" />
  </g>
</svg>