<?xml version="1.0" encoding="utf-8"?>
<svg version="1.1" xmlns:xlink="http://www.w3.org/1999/xlink" width="10px" height="12px" xmlns="http://www.w3.org/2000/svg">
  <defs>
    <pattern id="BGPattern" patternUnits="userSpaceOnUse" alignment="0 0" imageRepeat="None" />
    <mask fill="white" id="Clip4607">
      <path d="M 10 5.66666763905287  C 10 5.66666763905287  10 6.452381761451326  10 6.452381761451326  C 10 6.452381761451326  1.7821722969038678 6.452381761451326  1.7821722969038678 6.452381761451326  C 1.7821722969038678 9.023810636985235  3.0445579466446766 10.500000827842308  5.3712872066196855 10.500000827842308  C 6.782176477091392 10.500000827842308  7.599015118312094 10.095239157729583  8.564360330984297 9.166667599631808  C 8.564360330984297 9.166667599631808  9.777224528592876 10.190476738616676  9.777224528592876 10.190476738616676  C 8.539602309745405 11.380952885917416  7.400982668647452 12  5.321778049156645 12  C 2.1039604276892474 12  0 10.142858776015437  0 6.000001419158242  C 0 2.2142865871806645  1.9059289615981418 0  4.999984262823438 0  C 8.143544049537484 0  10 2.190477132827298  10 5.66666763905287  Z M 1.7821722969038678 5.166667915000305  C 1.7821722969038678 5.166667915000305  8.217827703096132 5.166667915000305  8.217827703096132 5.166667915000305  C 8.168322725820614 4.2142871390755365  8.118801765475151 3.857143195037677  7.846524759299884 3.2142865083385406  C 7.3762285817027 2.1428575145414444  6.287110721266275 1.4523816826092013  4.999984262823438 1.4523816826092013  C 3.7128574355405246 1.4523816826092013  2.6237717871373762 2.1428575145414444  2.1534752407001156 3.2142865083385406  C 1.881198603364923 3.857143195037677  1.831677274179385 4.2142871390755365  1.7821722969038678 5.166667915000305  Z " fill-rule="evenodd" />
    </mask>
  </defs>
  <g transform="matrix(1 0 0 1 -429 -496 )">
    <path d="M 10 5.66666763905287  C 10 5.66666763905287  10 6.452381761451326  10 6.452381761451326  C 10 6.452381761451326  1.7821722969038678 6.452381761451326  1.7821722969038678 6.452381761451326  C 1.7821722969038678 9.023810636985235  3.0445579466446766 10.500000827842308  5.3712872066196855 10.500000827842308  C 6.782176477091392 10.500000827842308  7.599015118312094 10.095239157729583  8.564360330984297 9.166667599631808  C 8.564360330984297 9.166667599631808  9.777224528592876 10.190476738616676  9.777224528592876 10.190476738616676  C 8.539602309745405 11.380952885917416  7.400982668647452 12  5.321778049156645 12  C 2.1039604276892474 12  0 10.142858776015437  0 6.000001419158242  C 0 2.2142865871806645  1.9059289615981418 0  4.999984262823438 0  C 8.143544049537484 0  10 2.190477132827298  10 5.66666763905287  Z M 1.7821722969038678 5.166667915000305  C 1.7821722969038678 5.166667915000305  8.217827703096132 5.166667915000305  8.217827703096132 5.166667915000305  C 8.168322725820614 4.2142871390755365  8.118801765475151 3.857143195037677  7.846524759299884 3.2142865083385406  C 7.3762285817027 2.1428575145414444  6.287110721266275 1.4523816826092013  4.999984262823438 1.4523816826092013  C 3.7128574355405246 1.4523816826092013  2.6237717871373762 2.1428575145414444  2.1534752407001156 3.2142865083385406  C 1.881198603364923 3.857143195037677  1.831677274179385 4.2142871390755365  1.7821722969038678 5.166667915000305  Z " fill-rule="nonzero" fill="rgba(0, 0, 0, 1)" stroke="none" transform="matrix(1 0 0 1 429 496 )" class="fill" />
    <path d="M 10 5.66666763905287  C 10 5.66666763905287  10 6.452381761451326  10 6.452381761451326  C 10 6.452381761451326  1.7821722969038678 6.452381761451326  1.7821722969038678 6.452381761451326  C 1.7821722969038678 9.023810636985235  3.0445579466446766 10.500000827842308  5.3712872066196855 10.500000827842308  C 6.782176477091392 10.500000827842308  7.599015118312094 10.095239157729583  8.564360330984297 9.166667599631808  C 8.564360330984297 9.166667599631808  9.777224528592876 10.190476738616676  9.777224528592876 10.190476738616676  C 8.539602309745405 11.380952885917416  7.400982668647452 12  5.321778049156645 12  C 2.1039604276892474 12  0 10.142858776015437  0 6.000001419158242  C 0 2.2142865871806645  1.9059289615981418 0  4.999984262823438 0  C 8.143544049537484 0  10 2.190477132827298  10 5.66666763905287  Z " stroke-width="0" stroke-dasharray="0" stroke="rgba(121, 121, 121, 1)" fill="none" transform="matrix(1 0 0 1 429 496 )" class="stroke" mask="url(#Clip4607)" />
    <path d="M 1.7821722969038678 5.166667915000305  C 1.7821722969038678 5.166667915000305  8.217827703096132 5.166667915000305  8.217827703096132 5.166667915000305  C 8.168322725820614 4.2142871390755365  8.118801765475151 3.857143195037677  7.846524759299884 3.2142865083385406  C 7.3762285817027 2.1428575145414444  6.287110721266275 1.4523816826092013  4.999984262823438 1.4523816826092013  C 3.7128574355405246 1.4523816826092013  2.6237717871373762 2.1428575145414444  2.1534752407001156 3.2142865083385406  C 1.881198603364923 3.857143195037677  1.831677274179385 4.2142871390755365  1.7821722969038678 5.166667915000305  Z " stroke-width="0" stroke-dasharray="0" stroke="rgba(121, 121, 121, 1)" fill="none" transform="matrix(1 0 0 1 429 496 )" class="stroke" mask="url(#Clip4607)" />
  </g>
</svg>