<?xml version="1.0" encoding="utf-8"?>
<svg version="1.1" xmlns:xlink="http://www.w3.org/1999/xlink" width="9px" height="12px" xmlns="http://www.w3.org/2000/svg">
  <defs>
    <pattern id="BGPattern" patternUnits="userSpaceOnUse" alignment="0 0" imageRepeat="None" />
    <mask fill="white" id="Clip4611">
      <path d="M 9 3.904761867218036  C 9 3.904761867218036  9 11.857143746932548  9 11.857143746932548  L 7.338464698565576 11.857143746932548  C 7.338464698565576 11.857143746932548  7.338464698565576 10.73809584442872  7.338464698565576 10.73809584442872  C 6.415388028249951 11.690476856879862  5.584614073195722 12  4.061537257689304 12  C 2.492306505505227 12  1.5692310387448505 11.690476265563927  0.8538465676693017 10.928571479255652  C 0.3000003591561695 10.35714291909024  0 9.4761911566731  0 8.547619421180542  C 0 6.500000433631685  1.384616954086698 5.166667915000305  3.9230784278883695 5.166667915000305  C 3.9230784278883695 5.166667915000305  7.338464698565576 5.166667915000305  7.338464698565576 5.166667915000305  C 7.338464698565576 5.166667915000305  7.338464698565576 4.047620012496477  7.338464698565576 4.047620012496477  C 7.338464698565576 2.3333343320002444  6.507693379870464 1.4761904273834467  4.430770585099532 1.4761904273834467  C 2.9769243307366766 1.4761904273834467  2.2384650118720217 1.8333329522630644  1.5692343055376685 2.8095236555939476  C 1.5692343055376685 2.8095236555939476  0.438455406354894 1.738095134849599  0.438455406354894 1.738095134849599  C 1.4538401792744575 0.38095197923298435  2.607695473674515 0  4.4538495020516224 0  C 7.500003133064457 0  9 1.3571429190902407  9 3.904761867218036  Z M 6.761535790498144 9.738096396323591  C 7.153843908385323 9.35714394403786  7.338464698565576 8.690476620353488  7.338464698565576 7.714285917022606  C 7.338464698565576 7.714285917022606  7.338464698565576 6.452381761451326  7.338464698565576 6.452381761451326  C 7.338464698565576 6.452381761451326  4.153852925497663 6.452381761451326  4.153852925497663 6.452381761451326  C 2.4461607071535347 6.452381761451326  1.6153921394418478 7.1666665746841876  1.6153921394418478 8.523809730300803  C 1.6153921394418478 9.880952531127857  2.423074912742881 10.523810518722048  4.223075004442329 10.523810518722048  C 5.192305955308543 10.523810518722048  6.046151491359059 10.452382037398761  6.761535790498144 9.738096396323591  Z " fill-rule="evenodd" />
    </mask>
  </defs>
  <g transform="matrix(1 0 0 1 -311 -496 )">
    <path d="M 9 3.904761867218036  C 9 3.904761867218036  9 11.857143746932548  9 11.857143746932548  L 7.338464698565576 11.857143746932548  C 7.338464698565576 11.857143746932548  7.338464698565576 10.73809584442872  7.338464698565576 10.73809584442872  C 6.415388028249951 11.690476856879862  5.584614073195722 12  4.061537257689304 12  C 2.492306505505227 12  1.5692310387448505 11.690476265563927  0.8538465676693017 10.928571479255652  C 0.3000003591561695 10.35714291909024  0 9.4761911566731  0 8.547619421180542  C 0 6.500000433631685  1.384616954086698 5.166667915000305  3.9230784278883695 5.166667915000305  C 3.9230784278883695 5.166667915000305  7.338464698565576 5.166667915000305  7.338464698565576 5.166667915000305  C 7.338464698565576 5.166667915000305  7.338464698565576 4.047620012496477  7.338464698565576 4.047620012496477  C 7.338464698565576 2.3333343320002444  6.507693379870464 1.4761904273834467  4.430770585099532 1.4761904273834467  C 2.9769243307366766 1.4761904273834467  2.2384650118720217 1.8333329522630644  1.5692343055376685 2.8095236555939476  C 1.5692343055376685 2.8095236555939476  0.438455406354894 1.738095134849599  0.438455406354894 1.738095134849599  C 1.4538401792744575 0.38095197923298435  2.607695473674515 0  4.4538495020516224 0  C 7.500003133064457 0  9 1.3571429190902407  9 3.904761867218036  Z M 6.761535790498144 9.738096396323591  C 7.153843908385323 9.35714394403786  7.338464698565576 8.690476620353488  7.338464698565576 7.714285917022606  C 7.338464698565576 7.714285917022606  7.338464698565576 6.452381761451326  7.338464698565576 6.452381761451326  C 7.338464698565576 6.452381761451326  4.153852925497663 6.452381761451326  4.153852925497663 6.452381761451326  C 2.4461607071535347 6.452381761451326  1.6153921394418478 7.1666665746841876  1.6153921394418478 8.523809730300803  C 1.6153921394418478 9.880952531127857  2.423074912742881 10.523810518722048  4.223075004442329 10.523810518722048  C 5.192305955308543 10.523810518722048  6.046151491359059 10.452382037398761  6.761535790498144 9.738096396323591  Z " fill-rule="nonzero" fill="rgba(0, 0, 0, 1)" stroke="none" transform="matrix(1 0 0 1 311 496 )" class="fill" />
    <path d="M 9 3.904761867218036  C 9 3.904761867218036  9 11.857143746932548  9 11.857143746932548  L 7.338464698565576 11.857143746932548  C 7.338464698565576 11.857143746932548  7.338464698565576 10.73809584442872  7.338464698565576 10.73809584442872  C 6.415388028249951 11.690476856879862  5.584614073195722 12  4.061537257689304 12  C 2.492306505505227 12  1.5692310387448505 11.690476265563927  0.8538465676693017 10.928571479255652  C 0.3000003591561695 10.35714291909024  0 9.4761911566731  0 8.547619421180542  C 0 6.500000433631685  1.384616954086698 5.166667915000305  3.9230784278883695 5.166667915000305  C 3.9230784278883695 5.166667915000305  7.338464698565576 5.166667915000305  7.338464698565576 5.166667915000305  C 7.338464698565576 5.166667915000305  7.338464698565576 4.047620012496477  7.338464698565576 4.047620012496477  C 7.338464698565576 2.3333343320002444  6.507693379870464 1.4761904273834467  4.430770585099532 1.4761904273834467  C 2.9769243307366766 1.4761904273834467  2.2384650118720217 1.8333329522630644  1.5692343055376685 2.8095236555939476  C 1.5692343055376685 2.8095236555939476  0.438455406354894 1.738095134849599  0.438455406354894 1.738095134849599  C 1.4538401792744575 0.38095197923298435  2.607695473674515 0  4.4538495020516224 0  C 7.500003133064457 0  9 1.3571429190902407  9 3.904761867218036  Z " stroke-width="0" stroke-dasharray="0" stroke="rgba(121, 121, 121, 1)" fill="none" transform="matrix(1 0 0 1 311 496 )" class="stroke" mask="url(#Clip4611)" />
    <path d="M 6.761535790498144 9.738096396323591  C 7.153843908385323 9.35714394403786  7.338464698565576 8.690476620353488  7.338464698565576 7.714285917022606  C 7.338464698565576 7.714285917022606  7.338464698565576 6.452381761451326  7.338464698565576 6.452381761451326  C 7.338464698565576 6.452381761451326  4.153852925497663 6.452381761451326  4.153852925497663 6.452381761451326  C 2.4461607071535347 6.452381761451326  1.6153921394418478 7.1666665746841876  1.6153921394418478 8.523809730300803  C 1.6153921394418478 9.880952531127857  2.423074912742881 10.523810518722048  4.223075004442329 10.523810518722048  C 5.192305955308543 10.523810518722048  6.046151491359059 10.452382037398761  6.761535790498144 9.738096396323591  Z " stroke-width="0" stroke-dasharray="0" stroke="rgba(121, 121, 121, 1)" fill="none" transform="matrix(1 0 0 1 311 496 )" class="stroke" mask="url(#Clip4611)" />
  </g>
</svg>