<?xml version="1.0" encoding="utf-8"?>
<svg version="1.1" xmlns:xlink="http://www.w3.org/1999/xlink" width="7px" height="7px" xmlns="http://www.w3.org/2000/svg">
  <defs>
    <pattern id="BGPattern" patternUnits="userSpaceOnUse" alignment="0 0" imageRepeat="None" />
    <mask fill="white" id="Clip4504">
      <path d="M 7 5.55000204358745  C 7 5.55000204358745  5.352930306230201 7  5.352930306230201 7  C 4.836208744445178 6.333333469335971  4.271051641972457 5.666668801316751  3.6574445617740228 5.000002270652722  C 3.0438374815755895 4.333335677900532  2.4221341104584653 3.691677575260784  1.7923794438577965 3.075011012665701  C 1.1787724839680132 2.4583443258942967  0.5813120277026135 1.908344925488531  0 1.4250116938615174  C 0 1.4250116938615174  1.5743840197113692 0  1.5743840197113692 0  C 2.155696047413983 0.4833332316270135  2.7693390998988034 1.0416682159140966  3.4152411122844066 1.675001475924269  C 4.061143365287311 2.3083347359344417  4.690906934728089 2.958344254936399  5.304514255543823 3.6250107856004288  C 5.934268440909891 4.2916773783526185  6.499425543382612 4.933335480992366  7 5.55000204358745  Z " fill-rule="evenodd" />
    </mask>
  </defs>
  <g transform="matrix(1 0 0 1 -849 -627 )">
    <path d="M 7 5.55000204358745  C 7 5.55000204358745  5.352930306230201 7  5.352930306230201 7  C 4.836208744445178 6.333333469335971  4.271051641972457 5.666668801316751  3.6574445617740228 5.000002270652722  C 3.0438374815755895 4.333335677900532  2.4221341104584653 3.691677575260784  1.7923794438577965 3.075011012665701  C 1.1787724839680132 2.4583443258942967  0.5813120277026135 1.908344925488531  0 1.4250116938615174  C 0 1.4250116938615174  1.5743840197113692 0  1.5743840197113692 0  C 2.155696047413983 0.4833332316270135  2.7693390998988034 1.0416682159140966  3.4152411122844066 1.675001475924269  C 4.061143365287311 2.3083347359344417  4.690906934728089 2.958344254936399  5.304514255543823 3.6250107856004288  C 5.934268440909891 4.2916773783526185  6.499425543382612 4.933335480992366  7 5.55000204358745  Z " fill-rule="nonzero" fill="rgba(0, 0, 0, 1)" stroke="none" transform="matrix(1 0 0 1 849 627 )" class="fill" />
    <path d="M 7 5.55000204358745  C 7 5.55000204358745  5.352930306230201 7  5.352930306230201 7  C 4.836208744445178 6.333333469335971  4.271051641972457 5.666668801316751  3.6574445617740228 5.000002270652722  C 3.0438374815755895 4.333335677900532  2.4221341104584653 3.691677575260784  1.7923794438577965 3.075011012665701  C 1.1787724839680132 2.4583443258942967  0.5813120277026135 1.908344925488531  0 1.4250116938615174  C 0 1.4250116938615174  1.5743840197113692 0  1.5743840197113692 0  C 2.155696047413983 0.4833332316270135  2.7693390998988034 1.0416682159140966  3.4152411122844066 1.675001475924269  C 4.061143365287311 2.3083347359344417  4.690906934728089 2.958344254936399  5.304514255543823 3.6250107856004288  C 5.934268440909891 4.2916773783526185  6.499425543382612 4.933335480992366  7 5.55000204358745  Z " stroke-width="0" stroke-dasharray="0" stroke="rgba(121, 121, 121, 1)" fill="none" transform="matrix(1 0 0 1 849 627 )" class="stroke" mask="url(#Clip4504)" />
  </g>
</svg>