<?xml version="1.0" encoding="utf-8"?>
<svg version="1.1" xmlns:xlink="http://www.w3.org/1999/xlink" width="12px" height="17px" xmlns="http://www.w3.org/2000/svg">
  <defs>
    <pattern id="BGPattern" patternUnits="userSpaceOnUse" alignment="0 0" imageRepeat="None" />
    <mask fill="white" id="Clip4563">
      <path d="M 10.161283872125516 12.022099158839213  C 10.161283872125516 12.022099158839213  12 12.022099158839213  12 12.022099158839213  C 11.443547952931524 15.168507718964701  9.09676316109929 17  6.024180275335196 17  C 4.330630880354808 17  2.782261917732715 16.38950198983977  1.6209705950214062 15.262430310328288  C 0 13.689226146895235  0 12.045581147921578  0 8.500001866075083  C 0 4.9544218844504355  0 3.3107745528829216  1.6209705950214062 1.7375696896717137  C 2.782261917732715 0.6104985933086938  4.330630880354808 0  6.024180275335196 0  C 9.120956414874254 0  11.419354699156562 1.8314925142946838  12 4.977900841160786  C 12 4.977900841160786  10.112892557746047 4.977900841160786  10.112892557746047 4.977900841160786  C 9.653214967826287 2.9350832543910395  8.177407981259774 1.596684752959101  6.024180275335196 1.596684752959101  C 4.8870829274232825 1.596684752959101  3.7983765333786246 2.019337230503083  3.048375932524931 2.7707184279305337  C 1.9596654526751607 3.8508288117602247  1.838716127874484 5.001383996540078  1.838716127874484 8.500001866075083  C 1.838716127874484 11.998619735610092  1.9596654526751607 13.149171188239775  3.048375932524931 14.229281572069468  C 3.7983765333786246 14.980662594552378  4.8870829274232825 15.403315247040899  6.024180275335196 15.403315247040899  C 8.177407981259774 15.403315247040899  9.70160628220576 14.064916745608961  10.161283872125516 12.022099158839213  Z " fill-rule="evenodd" />
    </mask>
  </defs>
  <g transform="matrix(1 0 0 1 -637 -522 )">
    <path d="M 10.161283872125516 12.022099158839213  C 10.161283872125516 12.022099158839213  12 12.022099158839213  12 12.022099158839213  C 11.443547952931524 15.168507718964701  9.09676316109929 17  6.024180275335196 17  C 4.330630880354808 17  2.782261917732715 16.38950198983977  1.6209705950214062 15.262430310328288  C 0 13.689226146895235  0 12.045581147921578  0 8.500001866075083  C 0 4.9544218844504355  0 3.3107745528829216  1.6209705950214062 1.7375696896717137  C 2.782261917732715 0.6104985933086938  4.330630880354808 0  6.024180275335196 0  C 9.120956414874254 0  11.419354699156562 1.8314925142946838  12 4.977900841160786  C 12 4.977900841160786  10.112892557746047 4.977900841160786  10.112892557746047 4.977900841160786  C 9.653214967826287 2.9350832543910395  8.177407981259774 1.596684752959101  6.024180275335196 1.596684752959101  C 4.8870829274232825 1.596684752959101  3.7983765333786246 2.019337230503083  3.048375932524931 2.7707184279305337  C 1.9596654526751607 3.8508288117602247  1.838716127874484 5.001383996540078  1.838716127874484 8.500001866075083  C 1.838716127874484 11.998619735610092  1.9596654526751607 13.149171188239775  3.048375932524931 14.229281572069468  C 3.7983765333786246 14.980662594552378  4.8870829274232825 15.403315247040899  6.024180275335196 15.403315247040899  C 8.177407981259774 15.403315247040899  9.70160628220576 14.064916745608961  10.161283872125516 12.022099158839213  Z " fill-rule="nonzero" fill="rgba(0, 0, 0, 1)" stroke="none" transform="matrix(1 0 0 1 637 522 )" class="fill" />
    <path d="M 10.161283872125516 12.022099158839213  C 10.161283872125516 12.022099158839213  12 12.022099158839213  12 12.022099158839213  C 11.443547952931524 15.168507718964701  9.09676316109929 17  6.024180275335196 17  C 4.330630880354808 17  2.782261917732715 16.38950198983977  1.6209705950214062 15.262430310328288  C 0 13.689226146895235  0 12.045581147921578  0 8.500001866075083  C 0 4.9544218844504355  0 3.3107745528829216  1.6209705950214062 1.7375696896717137  C 2.782261917732715 0.6104985933086938  4.330630880354808 0  6.024180275335196 0  C 9.120956414874254 0  11.419354699156562 1.8314925142946838  12 4.977900841160786  C 12 4.977900841160786  10.112892557746047 4.977900841160786  10.112892557746047 4.977900841160786  C 9.653214967826287 2.9350832543910395  8.177407981259774 1.596684752959101  6.024180275335196 1.596684752959101  C 4.8870829274232825 1.596684752959101  3.7983765333786246 2.019337230503083  3.048375932524931 2.7707184279305337  C 1.9596654526751607 3.8508288117602247  1.838716127874484 5.001383996540078  1.838716127874484 8.500001866075083  C 1.838716127874484 11.998619735610092  1.9596654526751607 13.149171188239775  3.048375932524931 14.229281572069468  C 3.7983765333786246 14.980662594552378  4.8870829274232825 15.403315247040899  6.024180275335196 15.403315247040899  C 8.177407981259774 15.403315247040899  9.70160628220576 14.064916745608961  10.161283872125516 12.022099158839213  Z " stroke-width="0" stroke-dasharray="0" stroke="rgba(121, 121, 121, 1)" fill="none" transform="matrix(1 0 0 1 637 522 )" class="stroke" mask="url(#Clip4563)" />
  </g>
</svg>