<?xml version="1.0" encoding="utf-8"?>
<svg version="1.1" xmlns:xlink="http://www.w3.org/1999/xlink" width="54px" height="53px" xmlns="http://www.w3.org/2000/svg">
  <defs>
    <pattern id="BGPattern" patternUnits="userSpaceOnUse" alignment="0 0" imageRepeat="None" />
    <mask fill="white" id="Clip4414">
      <path d="M 18.904772121914956 43  L 18.904772121914956 38  L 46 38  L 46 43  L 18.904772121914956 43  Z M 20.85713975438779 21  L 20.85713975438779 15  L 44.857135147266625 15  L 44.857135147266625 21  L 20.85713975438779 21  Z M 30 40.68689424169699  L 30 0.43130905238911127  L 35 0.43130905238911127  L 35 40.68689424169699  L 30 40.68689424169699  Z M 1.8095284479859313 14  L 1.8095284479859313 9  L 17.38095231827046 9  L 17.38095231827046 14  L 1.8095284479859313 14  Z M 9 45  L 9 25.207665346689513  L 15 18.40255257649452  L 15 45  L 9 45  Z M 9 11.261978056353104  L 9 0  L 15 0  L 15 11.261978056353104  L 9 11.261978056353104  Z M 10.571431768206521 22.859417862652638  C 10.571431768206521 22.859417862652638  13.666664253412725 20.031941483608282  13.666664253412725 20.031941483608282  C 14.111108542458242 20.31948148663485  14.714287530102599 20.798717046697533  15.476192701398658 21.469643403042618  C 16.269842541761907 22.108621293340633  17.11111837372572 22.827474157359283  18.000007897921993 23.626196282194122  C 18.888896476013024 24.392968988831143  19.698418177857253 25.111815187794598  20.428576787875635 25.782741544139675  C 21.15873539789402 26.42171943443769  21.68254467097586 26.884976000723128  22.000004607121163 27.172516003749696  C 22.000004607121163 27.172516003749696  18.57142518660486 31.8690033546175  18.57142518660486 31.8690033546175  C 18.09523433628167 31.261974882517293  17.5079470783283 30.559100060125143  16.80953502958759 29.760377935290315  C 16.142868596019316 28.929707344408413  15.428579955271434 28.083063472653723  14.66667478397538 27.220443463574014  C 13.904770558784561 26.357823454494305  13.158741979495678 25.543121383731478  12.428583369477295 24.776348677094454  C 11.698424759458913 24.009575970457426  11.079368233702144 23.3705999844609  10.571431768206521 22.859417862652638  Z M 15.33333837922794 9.872203596743086  C 15.33333837922794 9.872203596743086  15.33333837922794 8.865810729697861  15.33333837922794 8.865810729697861  L 16.428580078676468 8.865810729697861  L 17.428575471555305 8.62619628219412  C 17.428575471555305 8.62619628219412  20.6190542633312 10.734821701521309  20.6190542633312 10.734821701521309  C 19.4444513642673 13.865811364465024  17.90476348356278 16.853030073744712  16.000001974480497 19.696479733661853  C 14.095240465398216 22.507980927531932  12.000004319176089 25.047920160001947  9.7142906974984 27.3162907660167  C 7.4285770758207095 29.584661372031448  5.095244794858058 31.46964657687843  2.7142926719788965 32.97124352410541  C 2.5555627039062463 32.46006187837252  2.301589149316468 31.85302816944322  1.9523827701566485 31.15015239490033  C 1.6349225974850383 30.415328154310373  1.3015937564376292 29.728431849620105  0.9523873772778101 29.089454435397464  C 0.6349272046061998 28.41852807905238  0.31746029093476513 27.89137172422058  0 27.507985370902073  C 2.1904758300551475 26.357825358795793  4.2857266409084716 24.85622745941807  6.285726414665914 23.003192624919638  C 8.285725715370738 21.118208372223403  10.079371894718067 19.05750469981607  11.666673467655047 16.82108351199913  C 13.253975040592028 14.552713858135126  14.476196362414578 12.236420553049777  15.33333837922794 9.872203596743086  Z " fill-rule="evenodd" />
    </mask>
  </defs>
  <g transform="matrix(1 0 0 1 -330 -376 )">
    <path d="M 18.904772121914956 43  L 18.904772121914956 38  L 46 38  L 46 43  L 18.904772121914956 43  Z M 20.85713975438779 21  L 20.85713975438779 15  L 44.857135147266625 15  L 44.857135147266625 21  L 20.85713975438779 21  Z M 30 40.68689424169699  L 30 0.43130905238911127  L 35 0.43130905238911127  L 35 40.68689424169699  L 30 40.68689424169699  Z M 1.8095284479859313 14  L 1.8095284479859313 9  L 17.38095231827046 9  L 17.38095231827046 14  L 1.8095284479859313 14  Z M 9 45  L 9 25.207665346689513  L 15 18.40255257649452  L 15 45  L 9 45  Z M 9 11.261978056353104  L 9 0  L 15 0  L 15 11.261978056353104  L 9 11.261978056353104  Z M 10.571431768206521 22.859417862652638  C 10.571431768206521 22.859417862652638  13.666664253412725 20.031941483608282  13.666664253412725 20.031941483608282  C 14.111108542458242 20.31948148663485  14.714287530102599 20.798717046697533  15.476192701398658 21.469643403042618  C 16.269842541761907 22.108621293340633  17.11111837372572 22.827474157359283  18.000007897921993 23.626196282194122  C 18.888896476013024 24.392968988831143  19.698418177857253 25.111815187794598  20.428576787875635 25.782741544139675  C 21.15873539789402 26.42171943443769  21.68254467097586 26.884976000723128  22.000004607121163 27.172516003749696  C 22.000004607121163 27.172516003749696  18.57142518660486 31.8690033546175  18.57142518660486 31.8690033546175  C 18.09523433628167 31.261974882517293  17.5079470783283 30.559100060125143  16.80953502958759 29.760377935290315  C 16.142868596019316 28.929707344408413  15.428579955271434 28.083063472653723  14.66667478397538 27.220443463574014  C 13.904770558784561 26.357823454494305  13.158741979495678 25.543121383731478  12.428583369477295 24.776348677094454  C 11.698424759458913 24.009575970457426  11.079368233702144 23.3705999844609  10.571431768206521 22.859417862652638  Z M 15.33333837922794 9.872203596743086  C 15.33333837922794 9.872203596743086  15.33333837922794 8.865810729697861  15.33333837922794 8.865810729697861  L 16.428580078676468 8.865810729697861  L 17.428575471555305 8.62619628219412  C 17.428575471555305 8.62619628219412  20.6190542633312 10.734821701521309  20.6190542633312 10.734821701521309  C 19.4444513642673 13.865811364465024  17.90476348356278 16.853030073744712  16.000001974480497 19.696479733661853  C 14.095240465398216 22.507980927531932  12.000004319176089 25.047920160001947  9.7142906974984 27.3162907660167  C 7.4285770758207095 29.584661372031448  5.095244794858058 31.46964657687843  2.7142926719788965 32.97124352410541  C 2.5555627039062463 32.46006187837252  2.301589149316468 31.85302816944322  1.9523827701566485 31.15015239490033  C 1.6349225974850383 30.415328154310373  1.3015937564376292 29.728431849620105  0.9523873772778101 29.089454435397464  C 0.6349272046061998 28.41852807905238  0.31746029093476513 27.89137172422058  0 27.507985370902073  C 2.1904758300551475 26.357825358795793  4.2857266409084716 24.85622745941807  6.285726414665914 23.003192624919638  C 8.285725715370738 21.118208372223403  10.079371894718067 19.05750469981607  11.666673467655047 16.82108351199913  C 13.253975040592028 14.552713858135126  14.476196362414578 12.236420553049777  15.33333837922794 9.872203596743086  Z " fill-rule="nonzero" fill="rgba(63, 66, 124, 1)" stroke="none" transform="matrix(1 0 0 1 334 376 )" class="fill" />
    <path d="M 18.904772121914956 43  L 18.904772121914956 38  L 46 38  L 46 43  L 18.904772121914956 43  Z " stroke-width="0" stroke-dasharray="0" stroke="rgba(121, 121, 121, 1)" fill="none" transform="matrix(1 0 0 1 334 376 )" class="stroke" mask="url(#Clip4414)" />
    <path d="M 20.85713975438779 21  L 20.85713975438779 15  L 44.857135147266625 15  L 44.857135147266625 21  L 20.85713975438779 21  Z " stroke-width="0" stroke-dasharray="0" stroke="rgba(121, 121, 121, 1)" fill="none" transform="matrix(1 0 0 1 334 376 )" class="stroke" mask="url(#Clip4414)" />
    <path d="M 30 40.68689424169699  L 30 0.43130905238911127  L 35 0.43130905238911127  L 35 40.68689424169699  L 30 40.68689424169699  Z " stroke-width="0" stroke-dasharray="0" stroke="rgba(121, 121, 121, 1)" fill="none" transform="matrix(1 0 0 1 334 376 )" class="stroke" mask="url(#Clip4414)" />
    <path d="M 1.8095284479859313 14  L 1.8095284479859313 9  L 17.38095231827046 9  L 17.38095231827046 14  L 1.8095284479859313 14  Z " stroke-width="0" stroke-dasharray="0" stroke="rgba(121, 121, 121, 1)" fill="none" transform="matrix(1 0 0 1 334 376 )" class="stroke" mask="url(#Clip4414)" />
    <path d="M 9 45  L 9 25.207665346689513  L 15 18.40255257649452  L 15 45  L 9 45  Z " stroke-width="0" stroke-dasharray="0" stroke="rgba(121, 121, 121, 1)" fill="none" transform="matrix(1 0 0 1 334 376 )" class="stroke" mask="url(#Clip4414)" />
    <path d="M 9 11.261978056353104  L 9 0  L 15 0  L 15 11.261978056353104  L 9 11.261978056353104  Z " stroke-width="0" stroke-dasharray="0" stroke="rgba(121, 121, 121, 1)" fill="none" transform="matrix(1 0 0 1 334 376 )" class="stroke" mask="url(#Clip4414)" />
    <path d="M 10.571431768206521 22.859417862652638  C 10.571431768206521 22.859417862652638  13.666664253412725 20.031941483608282  13.666664253412725 20.031941483608282  C 14.111108542458242 20.31948148663485  14.714287530102599 20.798717046697533  15.476192701398658 21.469643403042618  C 16.269842541761907 22.108621293340633  17.11111837372572 22.827474157359283  18.000007897921993 23.626196282194122  C 18.888896476013024 24.392968988831143  19.698418177857253 25.111815187794598  20.428576787875635 25.782741544139675  C 21.15873539789402 26.42171943443769  21.68254467097586 26.884976000723128  22.000004607121163 27.172516003749696  C 22.000004607121163 27.172516003749696  18.57142518660486 31.8690033546175  18.57142518660486 31.8690033546175  C 18.09523433628167 31.261974882517293  17.5079470783283 30.559100060125143  16.80953502958759 29.760377935290315  C 16.142868596019316 28.929707344408413  15.428579955271434 28.083063472653723  14.66667478397538 27.220443463574014  C 13.904770558784561 26.357823454494305  13.158741979495678 25.543121383731478  12.428583369477295 24.776348677094454  C 11.698424759458913 24.009575970457426  11.079368233702144 23.3705999844609  10.571431768206521 22.859417862652638  Z " stroke-width="0" stroke-dasharray="0" stroke="rgba(121, 121, 121, 1)" fill="none" transform="matrix(1 0 0 1 334 376 )" class="stroke" mask="url(#Clip4414)" />
    <path d="M 15.33333837922794 9.872203596743086  C 15.33333837922794 9.872203596743086  15.33333837922794 8.865810729697861  15.33333837922794 8.865810729697861  L 16.428580078676468 8.865810729697861  L 17.428575471555305 8.62619628219412  C 17.428575471555305 8.62619628219412  20.6190542633312 10.734821701521309  20.6190542633312 10.734821701521309  C 19.4444513642673 13.865811364465024  17.90476348356278 16.853030073744712  16.000001974480497 19.696479733661853  C 14.095240465398216 22.507980927531932  12.000004319176089 25.047920160001947  9.7142906974984 27.3162907660167  C 7.4285770758207095 29.584661372031448  5.095244794858058 31.46964657687843  2.7142926719788965 32.97124352410541  C 2.5555627039062463 32.46006187837252  2.301589149316468 31.85302816944322  1.9523827701566485 31.15015239490033  C 1.6349225974850383 30.415328154310373  1.3015937564376292 29.728431849620105  0.9523873772778101 29.089454435397464  C 0.6349272046061998 28.41852807905238  0.31746029093476513 27.89137172422058  0 27.507985370902073  C 2.1904758300551475 26.357825358795793  4.2857266409084716 24.85622745941807  6.285726414665914 23.003192624919638  C 8.285725715370738 21.118208372223403  10.079371894718067 19.05750469981607  11.666673467655047 16.82108351199913  C 13.253975040592028 14.552713858135126  14.476196362414578 12.236420553049777  15.33333837922794 9.872203596743086  Z " stroke-width="0" stroke-dasharray="0" stroke="rgba(121, 121, 121, 1)" fill="none" transform="matrix(1 0 0 1 334 376 )" class="stroke" mask="url(#Clip4414)" />
  </g>
  <style>svg { filter: drop-shadow(0px 4px 2px rgba(0, 0, 0, 0.12941176470588237)); }</style>
</svg>