<?xml version="1.0" encoding="utf-8"?>
<svg version="1.1" xmlns:xlink="http://www.w3.org/1999/xlink" width="9px" height="17px" xmlns="http://www.w3.org/2000/svg">
  <defs>
    <pattern id="BGPattern" patternUnits="userSpaceOnUse" alignment="0 0" imageRepeat="None" />
    <mask fill="white" id="Clip4569">
      <path d="M 9 0  L 9 16.857937743759166  L 7.365719767801103 16.857937743759166  C 7.365719767801103 16.857937743759166  7.365719767801103 15.461001632403317  7.365719767801103 15.461001632403317  C 6.4450041108392 16.692199385646095  5.386165247605652 17  4.143199076407747 17  C 2.992303990715296 17  1.9795414292813704 16.597491626434  1.3810761150587816 15.981892808614768  C 0.23018125802858586 14.798048905576957  0 12.856545986554698  0 11.033426634605977  C 0 9.210306929844291  0.23018125802858586 7.268800129879446  1.3810761150587816 6.084956697258917  C 1.9795414292813704 5.4693573502202435  2.992303990715296 5.066853269211953  4.143199076407747 5.066853269211953  C 5.386165247605652 5.066853269211953  6.421969589952682 5.350973077520783  7.342685246914583 6.558493788056758  C 7.342685246914583 6.558493788056758  7.342685246914583 0  7.342685246914583 0  L 9 0  Z M 4.511487991674661 15.484680556779256  C 6.9744027341908 15.484680556779256  7.342685246914583 13.30640674027166  7.342685246914583 11.033426634605977  C 7.342685246914583 8.760446528940292  6.9744027341908 6.582172712432698  4.511487991674661 6.582172712432698  C 2.0485727918340135 6.582172712432698  1.657285484316818 8.760446528940292  1.657285484316818 11.033426634605977  C 1.657285484316818 13.30640674027166  2.0485727918340135 15.484680556779256  4.511487991674661 15.484680556779256  Z " fill-rule="evenodd" />
    </mask>
  </defs>
  <g transform="matrix(1 0 0 1 -455 -522 )">
    <path d="M 9 0  L 9 16.857937743759166  L 7.365719767801103 16.857937743759166  C 7.365719767801103 16.857937743759166  7.365719767801103 15.461001632403317  7.365719767801103 15.461001632403317  C 6.4450041108392 16.692199385646095  5.386165247605652 17  4.143199076407747 17  C 2.992303990715296 17  1.9795414292813704 16.597491626434  1.3810761150587816 15.981892808614768  C 0.23018125802858586 14.798048905576957  0 12.856545986554698  0 11.033426634605977  C 0 9.210306929844291  0.23018125802858586 7.268800129879446  1.3810761150587816 6.084956697258917  C 1.9795414292813704 5.4693573502202435  2.992303990715296 5.066853269211953  4.143199076407747 5.066853269211953  C 5.386165247605652 5.066853269211953  6.421969589952682 5.350973077520783  7.342685246914583 6.558493788056758  C 7.342685246914583 6.558493788056758  7.342685246914583 0  7.342685246914583 0  L 9 0  Z M 4.511487991674661 15.484680556779256  C 6.9744027341908 15.484680556779256  7.342685246914583 13.30640674027166  7.342685246914583 11.033426634605977  C 7.342685246914583 8.760446528940292  6.9744027341908 6.582172712432698  4.511487991674661 6.582172712432698  C 2.0485727918340135 6.582172712432698  1.657285484316818 8.760446528940292  1.657285484316818 11.033426634605977  C 1.657285484316818 13.30640674027166  2.0485727918340135 15.484680556779256  4.511487991674661 15.484680556779256  Z " fill-rule="nonzero" fill="rgba(0, 0, 0, 1)" stroke="none" transform="matrix(1 0 0 1 455 522 )" class="fill" />
    <path d="M 9 0  L 9 16.857937743759166  L 7.365719767801103 16.857937743759166  C 7.365719767801103 16.857937743759166  7.365719767801103 15.461001632403317  7.365719767801103 15.461001632403317  C 6.4450041108392 16.692199385646095  5.386165247605652 17  4.143199076407747 17  C 2.992303990715296 17  1.9795414292813704 16.597491626434  1.3810761150587816 15.981892808614768  C 0.23018125802858586 14.798048905576957  0 12.856545986554698  0 11.033426634605977  C 0 9.210306929844291  0.23018125802858586 7.268800129879446  1.3810761150587816 6.084956697258917  C 1.9795414292813704 5.4693573502202435  2.992303990715296 5.066853269211953  4.143199076407747 5.066853269211953  C 5.386165247605652 5.066853269211953  6.421969589952682 5.350973077520783  7.342685246914583 6.558493788056758  C 7.342685246914583 6.558493788056758  7.342685246914583 0  7.342685246914583 0  L 9 0  Z " stroke-width="0" stroke-dasharray="0" stroke="rgba(121, 121, 121, 1)" fill="none" transform="matrix(1 0 0 1 455 522 )" class="stroke" mask="url(#Clip4569)" />
    <path d="M 4.511487991674661 15.484680556779256  C 6.9744027341908 15.484680556779256  7.342685246914583 13.30640674027166  7.342685246914583 11.033426634605977  C 7.342685246914583 8.760446528940292  6.9744027341908 6.582172712432698  4.511487991674661 6.582172712432698  C 2.0485727918340135 6.582172712432698  1.657285484316818 8.760446528940292  1.657285484316818 11.033426634605977  C 1.657285484316818 13.30640674027166  2.0485727918340135 15.484680556779256  4.511487991674661 15.484680556779256  Z " stroke-width="0" stroke-dasharray="0" stroke="rgba(121, 121, 121, 1)" fill="none" transform="matrix(1 0 0 1 455 522 )" class="stroke" mask="url(#Clip4569)" />
  </g>
</svg>