<?xml version="1.0" encoding="utf-8"?>
<svg version="1.1" xmlns:xlink="http://www.w3.org/1999/xlink" width="32px" height="42px" xmlns="http://www.w3.org/2000/svg">
  <defs>
    <pattern id="BGPattern" patternUnits="userSpaceOnUse" alignment="0 0" imageRepeat="None" />
    <mask fill="white" id="Clip4432">
      <path d="M 16.251975244519816 0  C 19.46457325582123 0  21.732282873287733 0.8387084770809966  24 3.161288016763495  C 24 3.161288016763495  17.826769209589308 9.548387038399076  17.826769209589308 9.548387038399076  C 16.566928030137106 8.258063790088505  15.496060774829008 7.54838590738117  13.48031263493176 7.54838590738117  C 10.960628398715919 7.54838590738117  8.18898268493082 9.483869818481805  8.18898268493082 13.741935191995378  C 8.18898268493082 13.741935191995378  8.18898268493082 34  8.18898268493082 34  L 0 34  L 0 0.387095628581863  L 8.000005006163839 0.387095628581863  C 8.000005006163839 0.387095628581863  8.000005006163839 3.6129027879930686  8.000005006163839 3.6129027879930686  C 9.57480835779053 1.6774169541619932  12.72441506104391 0  16.251975244519816 0  Z " fill-rule="evenodd" />
    </mask>
  </defs>
  <g transform="matrix(1 0 0 1 -207 -324 )">
    <path d="M 16.251975244519816 0  C 19.46457325582123 0  21.732282873287733 0.8387084770809966  24 3.161288016763495  C 24 3.161288016763495  17.826769209589308 9.548387038399076  17.826769209589308 9.548387038399076  C 16.566928030137106 8.258063790088505  15.496060774829008 7.54838590738117  13.48031263493176 7.54838590738117  C 10.960628398715919 7.54838590738117  8.18898268493082 9.483869818481805  8.18898268493082 13.741935191995378  C 8.18898268493082 13.741935191995378  8.18898268493082 34  8.18898268493082 34  L 0 34  L 0 0.387095628581863  L 8.000005006163839 0.387095628581863  C 8.000005006163839 0.387095628581863  8.000005006163839 3.6129027879930686  8.000005006163839 3.6129027879930686  C 9.57480835779053 1.6774169541619932  12.72441506104391 0  16.251975244519816 0  Z " fill-rule="nonzero" fill="rgba(63, 66, 124, 1)" stroke="none" transform="matrix(1 0 0 1 211 324 )" class="fill" />
    <path d="M 16.251975244519816 0  C 19.46457325582123 0  21.732282873287733 0.8387084770809966  24 3.161288016763495  C 24 3.161288016763495  17.826769209589308 9.548387038399076  17.826769209589308 9.548387038399076  C 16.566928030137106 8.258063790088505  15.496060774829008 7.54838590738117  13.48031263493176 7.54838590738117  C 10.960628398715919 7.54838590738117  8.18898268493082 9.483869818481805  8.18898268493082 13.741935191995378  C 8.18898268493082 13.741935191995378  8.18898268493082 34  8.18898268493082 34  L 0 34  L 0 0.387095628581863  L 8.000005006163839 0.387095628581863  C 8.000005006163839 0.387095628581863  8.000005006163839 3.6129027879930686  8.000005006163839 3.6129027879930686  C 9.57480835779053 1.6774169541619932  12.72441506104391 0  16.251975244519816 0  Z " stroke-width="0" stroke-dasharray="0" stroke="rgba(121, 121, 121, 1)" fill="none" transform="matrix(1 0 0 1 211 324 )" class="stroke" mask="url(#Clip4432)" />
  </g>
  <style>svg { filter: drop-shadow(0px 4px 2px rgba(0, 0, 0, 0.12941176470588237)); }</style>
</svg>