<?xml version="1.0" encoding="utf-8"?>
<svg version="1.1" xmlns:xlink="http://www.w3.org/1999/xlink" width="36px" height="54px" xmlns="http://www.w3.org/2000/svg">
  <defs>
    <pattern id="BGPattern" patternUnits="userSpaceOnUse" alignment="0 0" imageRepeat="None" />
    <mask fill="white" id="Clip4422">
      <path d="M 28 0  L 28 45.61559622654479  L 19.862705752055476 45.61559622654479  C 19.862705752055476 45.61559622654479  19.862705752055476 42.476319109629536  19.862705752055476 42.476319109629536  C 17.556067673808315 45.03899319170563  15.121272321063227 46  11.597243727187914 46  C 8.32950772269233 46  5.254005243028845 44.846793572320266  3.39588086703657 42.988854928448696  C 0.06407147650457469 39.657378788817105  0 33.89136037380577  0 28.894146641693595  C 0 23.896931954911  0.06407147650457469 18.19498338126332  3.39588086703657 14.863508196302154  C 5.254005243028845 13.005570626434807  8.265439110485513 11.85236694343254  11.533175114981095 11.85236694343254  C 14.929057891549505 11.85236694343254  17.491978056751286 12.749302717025227  19.670469362925623 15.183842128393707  C 19.670469362925623 15.183842128393707  19.670469362925623 0  19.670469362925623 0  L 28 0  Z M 13.96796569389659 38.504176060485264  C 18.96567834754571 38.504176060485264  19.670469362925623 34.33982826060211  19.670469362925623 28.894146641693595  C 19.670469362925623 23.448464068114653  18.96567834754571 19.34818706426559  13.96796569389659 19.34818706426559  C 8.970251130715639 19.34818706426559  8.329530637074377 23.448464068114653  8.329530637074377 28.894146641693595  C 8.329530637074377 34.33982826060211  8.970251130715639 38.504176060485264  13.96796569389659 38.504176060485264  Z " fill-rule="evenodd" />
    </mask>
  </defs>
  <g transform="matrix(1 0 0 1 -546 -312 )">
    <path d="M 28 0  L 28 45.61559622654479  L 19.862705752055476 45.61559622654479  C 19.862705752055476 45.61559622654479  19.862705752055476 42.476319109629536  19.862705752055476 42.476319109629536  C 17.556067673808315 45.03899319170563  15.121272321063227 46  11.597243727187914 46  C 8.32950772269233 46  5.254005243028845 44.846793572320266  3.39588086703657 42.988854928448696  C 0.06407147650457469 39.657378788817105  0 33.89136037380577  0 28.894146641693595  C 0 23.896931954911  0.06407147650457469 18.19498338126332  3.39588086703657 14.863508196302154  C 5.254005243028845 13.005570626434807  8.265439110485513 11.85236694343254  11.533175114981095 11.85236694343254  C 14.929057891549505 11.85236694343254  17.491978056751286 12.749302717025227  19.670469362925623 15.183842128393707  C 19.670469362925623 15.183842128393707  19.670469362925623 0  19.670469362925623 0  L 28 0  Z M 13.96796569389659 38.504176060485264  C 18.96567834754571 38.504176060485264  19.670469362925623 34.33982826060211  19.670469362925623 28.894146641693595  C 19.670469362925623 23.448464068114653  18.96567834754571 19.34818706426559  13.96796569389659 19.34818706426559  C 8.970251130715639 19.34818706426559  8.329530637074377 23.448464068114653  8.329530637074377 28.894146641693595  C 8.329530637074377 34.33982826060211  8.970251130715639 38.504176060485264  13.96796569389659 38.504176060485264  Z " fill-rule="nonzero" fill="rgba(63, 66, 124, 1)" stroke="none" transform="matrix(1 0 0 1 550 312 )" class="fill" />
    <path d="M 28 0  L 28 45.61559622654479  L 19.862705752055476 45.61559622654479  C 19.862705752055476 45.61559622654479  19.862705752055476 42.476319109629536  19.862705752055476 42.476319109629536  C 17.556067673808315 45.03899319170563  15.121272321063227 46  11.597243727187914 46  C 8.32950772269233 46  5.254005243028845 44.846793572320266  3.39588086703657 42.988854928448696  C 0.06407147650457469 39.657378788817105  0 33.89136037380577  0 28.894146641693595  C 0 23.896931954911  0.06407147650457469 18.19498338126332  3.39588086703657 14.863508196302154  C 5.254005243028845 13.005570626434807  8.265439110485513 11.85236694343254  11.533175114981095 11.85236694343254  C 14.929057891549505 11.85236694343254  17.491978056751286 12.749302717025227  19.670469362925623 15.183842128393707  C 19.670469362925623 15.183842128393707  19.670469362925623 0  19.670469362925623 0  L 28 0  Z " stroke-width="0" stroke-dasharray="0" stroke="rgba(121, 121, 121, 1)" fill="none" transform="matrix(1 0 0 1 550 312 )" class="stroke" mask="url(#Clip4422)" />
    <path d="M 13.96796569389659 38.504176060485264  C 18.96567834754571 38.504176060485264  19.670469362925623 34.33982826060211  19.670469362925623 28.894146641693595  C 19.670469362925623 23.448464068114653  18.96567834754571 19.34818706426559  13.96796569389659 19.34818706426559  C 8.970251130715639 19.34818706426559  8.329530637074377 23.448464068114653  8.329530637074377 28.894146641693595  C 8.329530637074377 34.33982826060211  8.970251130715639 38.504176060485264  13.96796569389659 38.504176060485264  Z " stroke-width="0" stroke-dasharray="0" stroke="rgba(121, 121, 121, 1)" fill="none" transform="matrix(1 0 0 1 550 312 )" class="stroke" mask="url(#Clip4422)" />
  </g>
  <style>svg { filter: drop-shadow(0px 4px 2px rgba(0, 0, 0, 0.12941176470588237)); }</style>
</svg>