<?xml version="1.0" encoding="utf-8"?>
<svg version="1.1" xmlns:xlink="http://www.w3.org/1999/xlink" width="23px" height="22px" xmlns="http://www.w3.org/2000/svg">
  <defs>
    <pattern id="BGPattern" patternUnits="userSpaceOnUse" alignment="0 0" imageRepeat="None" />
    <mask fill="white" id="Clip4530">
      <path d="M 12.232484354518812 9.019526528067876  L 12.232484354518812 7.3731003233389485  L 20.143313442901828 7.3731003233389485  L 20.143313442901828 9.019526528067876  L 12.232484354518812 9.019526528067876  Z M 12.232484354518812 15.056392271033754  L 12.232484354518812 13.40998123682492  L 20.143313442901828 13.40998123682492  L 20.143313442901828 15.056392271033754  L 12.232484354518812 15.056392271033754  Z M 11 20.639917362039636  L 11 1.3362345803730706  L 21 1.3362345803730706  L 21 20.639917362039636  L 19 20.639917362039636  L 19 2.9826456145819042  L 13 2.9826456145819042  L 13 20.639917362039636  L 11 20.639917362039636  Z M 8.692145086396364 21  L 8.692145086396364 19.63773763412981  L 23 19.63773763412981  L 23 21  L 8.692145086396364 21  Z M 3.393843367428765 1.765727174745773  C 3.703114566286988 1.113521863822516  3.955414059086469 0.5249455068022543  4.150743058589805 0  C 4.150743058589805 0  5.786623975173421 0.6203984192318062  5.786623975173421 0.6203984192318062  C 5.493630233365896 1.1930656414613072  5.168082790219573 1.7975388072247533  4.809979462761777 2.4338368796722616  C 4.451875892751459 3.0701349521197696  4.101909959780152 3.682578329877443  3.760084089373053 4.271153738740199  C 3.418258218965953 4.843821909127206  3.084571683465503 5.352855436666182  2.7590232701091013 5.798263802932186  C 2.7590232701091013 5.798263802932186  1.4893830754697737 5.249455068022543  1.4893830754697737 5.249455068022543  C 1.7986541530517368 4.7881385151232845  2.1160648080928683 4.255237966846897  2.4416132214492694 3.6507553195083924  C 2.7671618773581907 3.030365433694139  3.084572411123062 2.4020252471932815  3.393843367428765 1.765727174745773  Z M 5.957538123139569 4.772236017435065  C 6.397028250745817 4.040493565975558  6.779546187188283 3.356477570730826  7.105094843097204 2.720180446440824  C 7.105094843097204 2.720180446440824  8.716559452828513 3.388290151367312  8.716559452828513 3.388290151367312  C 8.146849183711641 4.295014122375068  7.512031997022214 5.249465497755108  6.812103041709838 6.25163479593237  C 6.128451300895639 7.237895907476377  5.436659982622272 8.20028810196796  4.736730542204855 9.138827498084723  C 4.036801344339959 10.077366420122729  3.377565425273027 10.888644115803475  2.7590232701091013 11.572664377756983  C 2.7590232701091013 11.572664377756983  1.5870483028790014 10.97614435715266  1.5870483028790014 10.97614435715266  C 2.059093587139165 10.435291137795902  2.5474168135550666 9.822847285959476  3.052017011916626 9.138827498084723  C 3.556617210278186 8.454807710209966  4.053079286495697 7.73896965275369  4.5414020278065586 6.991319014660928  C 5.0460022261681186 6.243669324725673  5.518047510428282 5.503978468894573  5.957538123139569 4.772236017435065  Z M 1.6602972234359221 6.299346081627053  C 1.2045293962264565 5.8380304768853  0.7569005400948595 5.416494820301742  0.31741004865983197 5.034716356096239  C 0.31741004865983197 5.034716356096239  1.2208056405145555 3.841645973847403  1.2208056405145555 3.841645973847403  C 1.676573589000281 4.207517199577157  2.1404802660113558 4.6131560474175295  2.6125254289952595 5.058564413683533  C 3.0845709558079437 5.503972779949538  3.515923931480221 5.949390627790599  3.9065819304868943 6.394798994056604  C 4.297240172046088 6.82430012184686  4.598372763655221 7.214026990423955  4.809979462761777 7.563990977677959  C 4.809979462761777 7.563990977677959  3.833333009929974 8.947936843745712  3.833333009929974 8.947936843745712  C 3.6054490963252404 8.566158379540209  3.296177412361978 8.144607552436558  2.9055191708027848 7.683291947694806  C 2.5311383862942893 7.221975394795547  2.116065171921648 6.760661686368805  1.6602972234359221 6.299346081627053  Z M 7.30042529791566 9.950116571655538  C 6.991154341609956 9.34563345023828  6.665604715490956 8.780909417514088  6.323778845083857 8.255963910711834  C 6.323778845083857 8.255963910711834  7.691082326712254 7.683291947694806  7.691082326712254 7.683291947694806  C 8.049185896722571 8.208237454497059  8.391010796919591 8.765005971668364  8.716559452828513 9.35358138053112  C 9.042107623632395 9.942156789393875  9.32696275819083 10.514821641229613  9.571124371398781 11.071582099062116  C 9.83156319910491 11.628342556894621  10.018755531779314 12.129435739400806  10.132697488581682 12.57484410566681  C 10.132697488581682 12.57484410566681  8.692145086396364 13.2429538105933  8.692145086396364 13.2429538105933  C 8.56192591509582 12.797545444327294  8.374733582421413 12.288496272189473  8.130571969213463 11.715828575881217  C 7.886410841110552 11.14316040549421  7.609696739326402 10.554599218994042  7.30042529791566 9.950116571655538  Z M 0.41507333564890136 12.288500538898248  C 0.41507333564890136 12.288500538898248  0.268577434955218 10.665937562276708  0.268577434955218 10.665937562276708  C 1.359164874379308 10.634122611246458  2.669497741435302 10.594359255844616  4.1995756722944195 10.546636592259862  C 5.729653481877277 10.483007164278114  7.300424812810619 10.411419850349715  8.911889907646968 10.331882709813465  C 8.911889907646968 10.331882709813465  8.911889907646968 11.811281488310769  8.911889907646968 11.811281488310769  C 7.365534641013412 11.906726341401521  5.851733560823693 11.9942095159156  4.37048787984041 12.073746656451851  C 2.889242198857126 12.153283796988099  1.5707704819995238 12.224870636837746  0.41507333564890136 12.288500538898248  Z M 7.88641278153071 16.392626851406824  C 7.593419039723184 15.517717594389943  7.284147598312442 14.714395651301459  6.958598942403521 13.98265319984195  C 6.958598942403521 13.98265319984195  8.325902424031918 13.529282206841767  8.325902424031918 13.529282206841767  C 8.684005508937195 14.261024421261897  9.017694227410324 15.056405782278212  9.326965183716027 15.915407800819345  C 9.652513839624948 16.77440981936048  9.88039823833472 17.51410055667189  10.010617894740305 18.13449079804521  C 10.010617894740305 18.13449079804521  8.496814631577909 18.635573076740076  8.496814631577909 18.635573076740076  C 8.382872674775543 17.999275300591787  8.179406523338235 17.251628869947957  7.88641278153071 16.392626851406824  Z M 1.0010608192639514 16.726681703870067  C 1.2614996469700803 15.708605404256433  1.4649677388275457 14.682566951987372  1.6114646097313083 13.648583176858613  C 1.6114646097313083 13.648583176858613  3.174096605758003 13.911063515519787  3.174096605758003 13.911063515519787  C 3.011322520356062 15.040491906699922  2.7834395769614084 16.15401365200275  2.4904458351538836 17.25162721067232  C 2.197452214622618 18.33333341234646  1.8556269505968184 19.255961599577915  1.464968709037625 20.019518942807828  C 1.3510267522352586 19.939981728196774  1.204528789845157 19.86043906168006  1.0254771261162583 19.780901832254045  C 0.8627029194380577 19.701364617642987  0.6836513769854189 19.62183712164637  0.48832225620582226 19.54229989222035  C 0.30927059247692357 19.44685524653905  0.14649684058469753 19.37526834742956  0 19.327546009773954  C 0.4232130647033946 18.595803558314444  0.7568995092466505 17.728850765007955  1.0010608192639514 16.726681703870067  Z M 4.419320493545023 22  L 4.419320493545023 11.357910495310584  L 6 11.357910495310584  L 6 22  L 4.419320493545023 22  Z " fill-rule="evenodd" />
    </mask>
  </defs>
  <g transform="matrix(1 0 0 1 -166 -612 )">
    <path d="M 12.232484354518812 9.019526528067876  L 12.232484354518812 7.3731003233389485  L 20.143313442901828 7.3731003233389485  L 20.143313442901828 9.019526528067876  L 12.232484354518812 9.019526528067876  Z M 12.232484354518812 15.056392271033754  L 12.232484354518812 13.40998123682492  L 20.143313442901828 13.40998123682492  L 20.143313442901828 15.056392271033754  L 12.232484354518812 15.056392271033754  Z M 11 20.639917362039636  L 11 1.3362345803730706  L 21 1.3362345803730706  L 21 20.639917362039636  L 19 20.639917362039636  L 19 2.9826456145819042  L 13 2.9826456145819042  L 13 20.639917362039636  L 11 20.639917362039636  Z M 8.692145086396364 21  L 8.692145086396364 19.63773763412981  L 23 19.63773763412981  L 23 21  L 8.692145086396364 21  Z M 3.393843367428765 1.765727174745773  C 3.703114566286988 1.113521863822516  3.955414059086469 0.5249455068022543  4.150743058589805 0  C 4.150743058589805 0  5.786623975173421 0.6203984192318062  5.786623975173421 0.6203984192318062  C 5.493630233365896 1.1930656414613072  5.168082790219573 1.7975388072247533  4.809979462761777 2.4338368796722616  C 4.451875892751459 3.0701349521197696  4.101909959780152 3.682578329877443  3.760084089373053 4.271153738740199  C 3.418258218965953 4.843821909127206  3.084571683465503 5.352855436666182  2.7590232701091013 5.798263802932186  C 2.7590232701091013 5.798263802932186  1.4893830754697737 5.249455068022543  1.4893830754697737 5.249455068022543  C 1.7986541530517368 4.7881385151232845  2.1160648080928683 4.255237966846897  2.4416132214492694 3.6507553195083924  C 2.7671618773581907 3.030365433694139  3.084572411123062 2.4020252471932815  3.393843367428765 1.765727174745773  Z M 5.957538123139569 4.772236017435065  C 6.397028250745817 4.040493565975558  6.779546187188283 3.356477570730826  7.105094843097204 2.720180446440824  C 7.105094843097204 2.720180446440824  8.716559452828513 3.388290151367312  8.716559452828513 3.388290151367312  C 8.146849183711641 4.295014122375068  7.512031997022214 5.249465497755108  6.812103041709838 6.25163479593237  C 6.128451300895639 7.237895907476377  5.436659982622272 8.20028810196796  4.736730542204855 9.138827498084723  C 4.036801344339959 10.077366420122729  3.377565425273027 10.888644115803475  2.7590232701091013 11.572664377756983  C 2.7590232701091013 11.572664377756983  1.5870483028790014 10.97614435715266  1.5870483028790014 10.97614435715266  C 2.059093587139165 10.435291137795902  2.5474168135550666 9.822847285959476  3.052017011916626 9.138827498084723  C 3.556617210278186 8.454807710209966  4.053079286495697 7.73896965275369  4.5414020278065586 6.991319014660928  C 5.0460022261681186 6.243669324725673  5.518047510428282 5.503978468894573  5.957538123139569 4.772236017435065  Z M 1.6602972234359221 6.299346081627053  C 1.2045293962264565 5.8380304768853  0.7569005400948595 5.416494820301742  0.31741004865983197 5.034716356096239  C 0.31741004865983197 5.034716356096239  1.2208056405145555 3.841645973847403  1.2208056405145555 3.841645973847403  C 1.676573589000281 4.207517199577157  2.1404802660113558 4.6131560474175295  2.6125254289952595 5.058564413683533  C 3.0845709558079437 5.503972779949538  3.515923931480221 5.949390627790599  3.9065819304868943 6.394798994056604  C 4.297240172046088 6.82430012184686  4.598372763655221 7.214026990423955  4.809979462761777 7.563990977677959  C 4.809979462761777 7.563990977677959  3.833333009929974 8.947936843745712  3.833333009929974 8.947936843745712  C 3.6054490963252404 8.566158379540209  3.296177412361978 8.144607552436558  2.9055191708027848 7.683291947694806  C 2.5311383862942893 7.221975394795547  2.116065171921648 6.760661686368805  1.6602972234359221 6.299346081627053  Z M 7.30042529791566 9.950116571655538  C 6.991154341609956 9.34563345023828  6.665604715490956 8.780909417514088  6.323778845083857 8.255963910711834  C 6.323778845083857 8.255963910711834  7.691082326712254 7.683291947694806  7.691082326712254 7.683291947694806  C 8.049185896722571 8.208237454497059  8.391010796919591 8.765005971668364  8.716559452828513 9.35358138053112  C 9.042107623632395 9.942156789393875  9.32696275819083 10.514821641229613  9.571124371398781 11.071582099062116  C 9.83156319910491 11.628342556894621  10.018755531779314 12.129435739400806  10.132697488581682 12.57484410566681  C 10.132697488581682 12.57484410566681  8.692145086396364 13.2429538105933  8.692145086396364 13.2429538105933  C 8.56192591509582 12.797545444327294  8.374733582421413 12.288496272189473  8.130571969213463 11.715828575881217  C 7.886410841110552 11.14316040549421  7.609696739326402 10.554599218994042  7.30042529791566 9.950116571655538  Z M 0.41507333564890136 12.288500538898248  C 0.41507333564890136 12.288500538898248  0.268577434955218 10.665937562276708  0.268577434955218 10.665937562276708  C 1.359164874379308 10.634122611246458  2.669497741435302 10.594359255844616  4.1995756722944195 10.546636592259862  C 5.729653481877277 10.483007164278114  7.300424812810619 10.411419850349715  8.911889907646968 10.331882709813465  C 8.911889907646968 10.331882709813465  8.911889907646968 11.811281488310769  8.911889907646968 11.811281488310769  C 7.365534641013412 11.906726341401521  5.851733560823693 11.9942095159156  4.37048787984041 12.073746656451851  C 2.889242198857126 12.153283796988099  1.5707704819995238 12.224870636837746  0.41507333564890136 12.288500538898248  Z M 7.88641278153071 16.392626851406824  C 7.593419039723184 15.517717594389943  7.284147598312442 14.714395651301459  6.958598942403521 13.98265319984195  C 6.958598942403521 13.98265319984195  8.325902424031918 13.529282206841767  8.325902424031918 13.529282206841767  C 8.684005508937195 14.261024421261897  9.017694227410324 15.056405782278212  9.326965183716027 15.915407800819345  C 9.652513839624948 16.77440981936048  9.88039823833472 17.51410055667189  10.010617894740305 18.13449079804521  C 10.010617894740305 18.13449079804521  8.496814631577909 18.635573076740076  8.496814631577909 18.635573076740076  C 8.382872674775543 17.999275300591787  8.179406523338235 17.251628869947957  7.88641278153071 16.392626851406824  Z M 1.0010608192639514 16.726681703870067  C 1.2614996469700803 15.708605404256433  1.4649677388275457 14.682566951987372  1.6114646097313083 13.648583176858613  C 1.6114646097313083 13.648583176858613  3.174096605758003 13.911063515519787  3.174096605758003 13.911063515519787  C 3.011322520356062 15.040491906699922  2.7834395769614084 16.15401365200275  2.4904458351538836 17.25162721067232  C 2.197452214622618 18.33333341234646  1.8556269505968184 19.255961599577915  1.464968709037625 20.019518942807828  C 1.3510267522352586 19.939981728196774  1.204528789845157 19.86043906168006  1.0254771261162583 19.780901832254045  C 0.8627029194380577 19.701364617642987  0.6836513769854189 19.62183712164637  0.48832225620582226 19.54229989222035  C 0.30927059247692357 19.44685524653905  0.14649684058469753 19.37526834742956  0 19.327546009773954  C 0.4232130647033946 18.595803558314444  0.7568995092466505 17.728850765007955  1.0010608192639514 16.726681703870067  Z M 4.419320493545023 22  L 4.419320493545023 11.357910495310584  L 6 11.357910495310584  L 6 22  L 4.419320493545023 22  Z " fill-rule="nonzero" fill="rgba(0, 0, 0, 1)" stroke="none" transform="matrix(1 0 0 1 166 612 )" class="fill" />
    <path d="M 12.232484354518812 9.019526528067876  L 12.232484354518812 7.3731003233389485  L 20.143313442901828 7.3731003233389485  L 20.143313442901828 9.019526528067876  L 12.232484354518812 9.019526528067876  Z " stroke-width="0" stroke-dasharray="0" stroke="rgba(121, 121, 121, 1)" fill="none" transform="matrix(1 0 0 1 166 612 )" class="stroke" mask="url(#Clip4530)" />
    <path d="M 12.232484354518812 15.056392271033754  L 12.232484354518812 13.40998123682492  L 20.143313442901828 13.40998123682492  L 20.143313442901828 15.056392271033754  L 12.232484354518812 15.056392271033754  Z " stroke-width="0" stroke-dasharray="0" stroke="rgba(121, 121, 121, 1)" fill="none" transform="matrix(1 0 0 1 166 612 )" class="stroke" mask="url(#Clip4530)" />
    <path d="M 11 20.639917362039636  L 11 1.3362345803730706  L 21 1.3362345803730706  L 21 20.639917362039636  L 19 20.639917362039636  L 19 2.9826456145819042  L 13 2.9826456145819042  L 13 20.639917362039636  L 11 20.639917362039636  Z " stroke-width="0" stroke-dasharray="0" stroke="rgba(121, 121, 121, 1)" fill="none" transform="matrix(1 0 0 1 166 612 )" class="stroke" mask="url(#Clip4530)" />
    <path d="M 8.692145086396364 21  L 8.692145086396364 19.63773763412981  L 23 19.63773763412981  L 23 21  L 8.692145086396364 21  Z " stroke-width="0" stroke-dasharray="0" stroke="rgba(121, 121, 121, 1)" fill="none" transform="matrix(1 0 0 1 166 612 )" class="stroke" mask="url(#Clip4530)" />
    <path d="M 3.393843367428765 1.765727174745773  C 3.703114566286988 1.113521863822516  3.955414059086469 0.5249455068022543  4.150743058589805 0  C 4.150743058589805 0  5.786623975173421 0.6203984192318062  5.786623975173421 0.6203984192318062  C 5.493630233365896 1.1930656414613072  5.168082790219573 1.7975388072247533  4.809979462761777 2.4338368796722616  C 4.451875892751459 3.0701349521197696  4.101909959780152 3.682578329877443  3.760084089373053 4.271153738740199  C 3.418258218965953 4.843821909127206  3.084571683465503 5.352855436666182  2.7590232701091013 5.798263802932186  C 2.7590232701091013 5.798263802932186  1.4893830754697737 5.249455068022543  1.4893830754697737 5.249455068022543  C 1.7986541530517368 4.7881385151232845  2.1160648080928683 4.255237966846897  2.4416132214492694 3.6507553195083924  C 2.7671618773581907 3.030365433694139  3.084572411123062 2.4020252471932815  3.393843367428765 1.765727174745773  Z " stroke-width="0" stroke-dasharray="0" stroke="rgba(121, 121, 121, 1)" fill="none" transform="matrix(1 0 0 1 166 612 )" class="stroke" mask="url(#Clip4530)" />
    <path d="M 5.957538123139569 4.772236017435065  C 6.397028250745817 4.040493565975558  6.779546187188283 3.356477570730826  7.105094843097204 2.720180446440824  C 7.105094843097204 2.720180446440824  8.716559452828513 3.388290151367312  8.716559452828513 3.388290151367312  C 8.146849183711641 4.295014122375068  7.512031997022214 5.249465497755108  6.812103041709838 6.25163479593237  C 6.128451300895639 7.237895907476377  5.436659982622272 8.20028810196796  4.736730542204855 9.138827498084723  C 4.036801344339959 10.077366420122729  3.377565425273027 10.888644115803475  2.7590232701091013 11.572664377756983  C 2.7590232701091013 11.572664377756983  1.5870483028790014 10.97614435715266  1.5870483028790014 10.97614435715266  C 2.059093587139165 10.435291137795902  2.5474168135550666 9.822847285959476  3.052017011916626 9.138827498084723  C 3.556617210278186 8.454807710209966  4.053079286495697 7.73896965275369  4.5414020278065586 6.991319014660928  C 5.0460022261681186 6.243669324725673  5.518047510428282 5.503978468894573  5.957538123139569 4.772236017435065  Z " stroke-width="0" stroke-dasharray="0" stroke="rgba(121, 121, 121, 1)" fill="none" transform="matrix(1 0 0 1 166 612 )" class="stroke" mask="url(#Clip4530)" />
    <path d="M 1.6602972234359221 6.299346081627053  C 1.2045293962264565 5.8380304768853  0.7569005400948595 5.416494820301742  0.31741004865983197 5.034716356096239  C 0.31741004865983197 5.034716356096239  1.2208056405145555 3.841645973847403  1.2208056405145555 3.841645973847403  C 1.676573589000281 4.207517199577157  2.1404802660113558 4.6131560474175295  2.6125254289952595 5.058564413683533  C 3.0845709558079437 5.503972779949538  3.515923931480221 5.949390627790599  3.9065819304868943 6.394798994056604  C 4.297240172046088 6.82430012184686  4.598372763655221 7.214026990423955  4.809979462761777 7.563990977677959  C 4.809979462761777 7.563990977677959  3.833333009929974 8.947936843745712  3.833333009929974 8.947936843745712  C 3.6054490963252404 8.566158379540209  3.296177412361978 8.144607552436558  2.9055191708027848 7.683291947694806  C 2.5311383862942893 7.221975394795547  2.116065171921648 6.760661686368805  1.6602972234359221 6.299346081627053  Z " stroke-width="0" stroke-dasharray="0" stroke="rgba(121, 121, 121, 1)" fill="none" transform="matrix(1 0 0 1 166 612 )" class="stroke" mask="url(#Clip4530)" />
    <path d="M 7.30042529791566 9.950116571655538  C 6.991154341609956 9.34563345023828  6.665604715490956 8.780909417514088  6.323778845083857 8.255963910711834  C 6.323778845083857 8.255963910711834  7.691082326712254 7.683291947694806  7.691082326712254 7.683291947694806  C 8.049185896722571 8.208237454497059  8.391010796919591 8.765005971668364  8.716559452828513 9.35358138053112  C 9.042107623632395 9.942156789393875  9.32696275819083 10.514821641229613  9.571124371398781 11.071582099062116  C 9.83156319910491 11.628342556894621  10.018755531779314 12.129435739400806  10.132697488581682 12.57484410566681  C 10.132697488581682 12.57484410566681  8.692145086396364 13.2429538105933  8.692145086396364 13.2429538105933  C 8.56192591509582 12.797545444327294  8.374733582421413 12.288496272189473  8.130571969213463 11.715828575881217  C 7.886410841110552 11.14316040549421  7.609696739326402 10.554599218994042  7.30042529791566 9.950116571655538  Z " stroke-width="0" stroke-dasharray="0" stroke="rgba(121, 121, 121, 1)" fill="none" transform="matrix(1 0 0 1 166 612 )" class="stroke" mask="url(#Clip4530)" />
    <path d="M 0.41507333564890136 12.288500538898248  C 0.41507333564890136 12.288500538898248  0.268577434955218 10.665937562276708  0.268577434955218 10.665937562276708  C 1.359164874379308 10.634122611246458  2.669497741435302 10.594359255844616  4.1995756722944195 10.546636592259862  C 5.729653481877277 10.483007164278114  7.300424812810619 10.411419850349715  8.911889907646968 10.331882709813465  C 8.911889907646968 10.331882709813465  8.911889907646968 11.811281488310769  8.911889907646968 11.811281488310769  C 7.365534641013412 11.906726341401521  5.851733560823693 11.9942095159156  4.37048787984041 12.073746656451851  C 2.889242198857126 12.153283796988099  1.5707704819995238 12.224870636837746  0.41507333564890136 12.288500538898248  Z " stroke-width="0" stroke-dasharray="0" stroke="rgba(121, 121, 121, 1)" fill="none" transform="matrix(1 0 0 1 166 612 )" class="stroke" mask="url(#Clip4530)" />
    <path d="M 7.88641278153071 16.392626851406824  C 7.593419039723184 15.517717594389943  7.284147598312442 14.714395651301459  6.958598942403521 13.98265319984195  C 6.958598942403521 13.98265319984195  8.325902424031918 13.529282206841767  8.325902424031918 13.529282206841767  C 8.684005508937195 14.261024421261897  9.017694227410324 15.056405782278212  9.326965183716027 15.915407800819345  C 9.652513839624948 16.77440981936048  9.88039823833472 17.51410055667189  10.010617894740305 18.13449079804521  C 10.010617894740305 18.13449079804521  8.496814631577909 18.635573076740076  8.496814631577909 18.635573076740076  C 8.382872674775543 17.999275300591787  8.179406523338235 17.251628869947957  7.88641278153071 16.392626851406824  Z " stroke-width="0" stroke-dasharray="0" stroke="rgba(121, 121, 121, 1)" fill="none" transform="matrix(1 0 0 1 166 612 )" class="stroke" mask="url(#Clip4530)" />
    <path d="M 1.0010608192639514 16.726681703870067  C 1.2614996469700803 15.708605404256433  1.4649677388275457 14.682566951987372  1.6114646097313083 13.648583176858613  C 1.6114646097313083 13.648583176858613  3.174096605758003 13.911063515519787  3.174096605758003 13.911063515519787  C 3.011322520356062 15.040491906699922  2.7834395769614084 16.15401365200275  2.4904458351538836 17.25162721067232  C 2.197452214622618 18.33333341234646  1.8556269505968184 19.255961599577915  1.464968709037625 20.019518942807828  C 1.3510267522352586 19.939981728196774  1.204528789845157 19.86043906168006  1.0254771261162583 19.780901832254045  C 0.8627029194380577 19.701364617642987  0.6836513769854189 19.62183712164637  0.48832225620582226 19.54229989222035  C 0.30927059247692357 19.44685524653905  0.14649684058469753 19.37526834742956  0 19.327546009773954  C 0.4232130647033946 18.595803558314444  0.7568995092466505 17.728850765007955  1.0010608192639514 16.726681703870067  Z " stroke-width="0" stroke-dasharray="0" stroke="rgba(121, 121, 121, 1)" fill="none" transform="matrix(1 0 0 1 166 612 )" class="stroke" mask="url(#Clip4530)" />
    <path d="M 4.419320493545023 22  L 4.419320493545023 11.357910495310584  L 6 11.357910495310584  L 6 22  L 4.419320493545023 22  Z " stroke-width="0" stroke-dasharray="0" stroke="rgba(121, 121, 121, 1)" fill="none" transform="matrix(1 0 0 1 166 612 )" class="stroke" mask="url(#Clip4530)" />
  </g>
</svg>