<?xml version="1.0" encoding="utf-8"?>
<svg version="1.1" xmlns:xlink="http://www.w3.org/1999/xlink" width="6px" height="15px" xmlns="http://www.w3.org/2000/svg">
  <defs>
    <pattern id="BGPattern" patternUnits="userSpaceOnUse" alignment="0 0" imageRepeat="None" />
    <mask fill="white" id="Clip4596">
      <path d="M 6 13.553655677575996  L 6 15  C 6 15  4.719671415954629 15  4.719671415954629 15  C 2.6108929587993064 15  1.556486023473329 13.623639691541468  1.556486023473329 11.92068484597096  C 1.556486023473329 11.92068484597096  1.556486023473329 4.875582327212646  1.556486023473329 4.875582327212646  L 0 4.875582327212646  L 0 3.592534346367213  L 1.556486023473329 3.592534346367213  L 1.556486023473329 0  L 3.364006852594729 0  L 3.364006852594729 3.592534346367213  L 6 3.592534346367213  L 6 4.875582327212646  L 3.364006852594729 4.875582327212646  C 3.364006852594729 4.875582327212646  3.364006852594729 11.874028218675702  3.364006852594729 11.874028218675702  C 3.364006852594729 12.923795032871855  3.8912030879238975 13.553655677575996  5.046010278892092 13.553655677575996  C 5.046010278892092 13.553655677575996  6 13.553655677575996  6 13.553655677575996  Z " fill-rule="evenodd" />
    </mask>
  </defs>
  <g transform="matrix(1 0 0 1 -624 -493 )">
    <path d="M 6 13.553655677575996  L 6 15  C 6 15  4.719671415954629 15  4.719671415954629 15  C 2.6108929587993064 15  1.556486023473329 13.623639691541468  1.556486023473329 11.92068484597096  C 1.556486023473329 11.92068484597096  1.556486023473329 4.875582327212646  1.556486023473329 4.875582327212646  L 0 4.875582327212646  L 0 3.592534346367213  L 1.556486023473329 3.592534346367213  L 1.556486023473329 0  L 3.364006852594729 0  L 3.364006852594729 3.592534346367213  L 6 3.592534346367213  L 6 4.875582327212646  L 3.364006852594729 4.875582327212646  C 3.364006852594729 4.875582327212646  3.364006852594729 11.874028218675702  3.364006852594729 11.874028218675702  C 3.364006852594729 12.923795032871855  3.8912030879238975 13.553655677575996  5.046010278892092 13.553655677575996  C 5.046010278892092 13.553655677575996  6 13.553655677575996  6 13.553655677575996  Z " fill-rule="nonzero" fill="rgba(0, 0, 0, 1)" stroke="none" transform="matrix(1 0 0 1 624 493 )" class="fill" />
    <path d="M 6 13.553655677575996  L 6 15  C 6 15  4.719671415954629 15  4.719671415954629 15  C 2.6108929587993064 15  1.556486023473329 13.623639691541468  1.556486023473329 11.92068484597096  C 1.556486023473329 11.92068484597096  1.556486023473329 4.875582327212646  1.556486023473329 4.875582327212646  L 0 4.875582327212646  L 0 3.592534346367213  L 1.556486023473329 3.592534346367213  L 1.556486023473329 0  L 3.364006852594729 0  L 3.364006852594729 3.592534346367213  L 6 3.592534346367213  L 6 4.875582327212646  L 3.364006852594729 4.875582327212646  C 3.364006852594729 4.875582327212646  3.364006852594729 11.874028218675702  3.364006852594729 11.874028218675702  C 3.364006852594729 12.923795032871855  3.8912030879238975 13.553655677575996  5.046010278892092 13.553655677575996  C 5.046010278892092 13.553655677575996  6 13.553655677575996  6 13.553655677575996  Z " stroke-width="0" stroke-dasharray="0" stroke="rgba(121, 121, 121, 1)" fill="none" transform="matrix(1 0 0 1 624 493 )" class="stroke" mask="url(#Clip4596)" />
  </g>
</svg>