<?xml version="1.0" encoding="utf-8"?>
<svg version="1.1" xmlns:xlink="http://www.w3.org/1999/xlink" width="10px" height="12px" xmlns="http://www.w3.org/2000/svg">
  <defs>
    <pattern id="BGPattern" patternUnits="userSpaceOnUse" alignment="0 0" imageRepeat="None" />
    <mask fill="white" id="Clip4556">
      <path d="M 6.393058903164993 5.261905317553977  C 8.532359999414826 5.452381173889761  10 6.238093105603657  10 8.428569356150032  C 10 10.6904742006513  7.98508985959019 12  5.024893561835354 12  C 2.9602190325039697 12  1.343282158401498 11.54761685505728  0 10.309521541874311  C 0 10.309521541874311  1.1940685632587476 9.166664038596055  1.1940685632587476 9.166664038596055  C 2.1642168986006465 10.142854487567227  3.482620198618676 10.523806850686274  5.000031630955318 10.523806850686274  C 7.014954868557565 10.523806850686274  8.258715909737905 9.833333438456158  8.258715909737905 8.452380937363406  C 8.258715909737905 7.4285715243082855  7.63680808273709 6.857142181353272  6.218898863183466 6.7380946824460235  C 6.218898863183466 6.7380946824460235  4.204007009419699 6.571428751639128  4.204007009419699 6.571428751639128  C 1.815949701641014 6.380952895303344  0.5472787889139827 5.357143837037757  0.5472787889139827 3.428572509834766  C 0.5472787889139827 1.2857146911880373  2.4378179899476824 0  5.049755492715391 0  C 6.791047367157895 0  8.35819501709653 0.404760928621392  9.452721211086017 1.2619040560800834  C 9.452721211086017 1.2619040560800834  8.283577840617943 2.380949978144965  8.283577840617943 2.380949978144965  C 7.412932088734319 1.7380933421300115  6.293548906201565 1.452381568100353  5.024893561835354 1.452381568100353  C 3.23385076633897 1.452381568100353  2.2885628791760766 2.190476723599086  2.2885628791760766 3.3809531318296986  C 2.2885628791760766 4.380952974145462  2.885603832960088 4.976188103418153  4.427890911161299 5.095235602325401  C 4.427890911161299 5.095235602325401  6.393058903164993 5.261905317553977  6.393058903164993 5.261905317553977  Z " fill-rule="evenodd" />
    </mask>
  </defs>
  <g transform="matrix(1 0 0 1 -777 -527 )">
    <path d="M 6.393058903164993 5.261905317553977  C 8.532359999414826 5.452381173889761  10 6.238093105603657  10 8.428569356150032  C 10 10.6904742006513  7.98508985959019 12  5.024893561835354 12  C 2.9602190325039697 12  1.343282158401498 11.54761685505728  0 10.309521541874311  C 0 10.309521541874311  1.1940685632587476 9.166664038596055  1.1940685632587476 9.166664038596055  C 2.1642168986006465 10.142854487567227  3.482620198618676 10.523806850686274  5.000031630955318 10.523806850686274  C 7.014954868557565 10.523806850686274  8.258715909737905 9.833333438456158  8.258715909737905 8.452380937363406  C 8.258715909737905 7.4285715243082855  7.63680808273709 6.857142181353272  6.218898863183466 6.7380946824460235  C 6.218898863183466 6.7380946824460235  4.204007009419699 6.571428751639128  4.204007009419699 6.571428751639128  C 1.815949701641014 6.380952895303344  0.5472787889139827 5.357143837037757  0.5472787889139827 3.428572509834766  C 0.5472787889139827 1.2857146911880373  2.4378179899476824 0  5.049755492715391 0  C 6.791047367157895 0  8.35819501709653 0.404760928621392  9.452721211086017 1.2619040560800834  C 9.452721211086017 1.2619040560800834  8.283577840617943 2.380949978144965  8.283577840617943 2.380949978144965  C 7.412932088734319 1.7380933421300115  6.293548906201565 1.452381568100353  5.024893561835354 1.452381568100353  C 3.23385076633897 1.452381568100353  2.2885628791760766 2.190476723599086  2.2885628791760766 3.3809531318296986  C 2.2885628791760766 4.380952974145462  2.885603832960088 4.976188103418153  4.427890911161299 5.095235602325401  C 4.427890911161299 5.095235602325401  6.393058903164993 5.261905317553977  6.393058903164993 5.261905317553977  Z " fill-rule="nonzero" fill="rgba(0, 0, 0, 1)" stroke="none" transform="matrix(1 0 0 1 777 527 )" class="fill" />
    <path d="M 6.393058903164993 5.261905317553977  C 8.532359999414826 5.452381173889761  10 6.238093105603657  10 8.428569356150032  C 10 10.6904742006513  7.98508985959019 12  5.024893561835354 12  C 2.9602190325039697 12  1.343282158401498 11.54761685505728  0 10.309521541874311  C 0 10.309521541874311  1.1940685632587476 9.166664038596055  1.1940685632587476 9.166664038596055  C 2.1642168986006465 10.142854487567227  3.482620198618676 10.523806850686274  5.000031630955318 10.523806850686274  C 7.014954868557565 10.523806850686274  8.258715909737905 9.833333438456158  8.258715909737905 8.452380937363406  C 8.258715909737905 7.4285715243082855  7.63680808273709 6.857142181353272  6.218898863183466 6.7380946824460235  C 6.218898863183466 6.7380946824460235  4.204007009419699 6.571428751639128  4.204007009419699 6.571428751639128  C 1.815949701641014 6.380952895303344  0.5472787889139827 5.357143837037757  0.5472787889139827 3.428572509834766  C 0.5472787889139827 1.2857146911880373  2.4378179899476824 0  5.049755492715391 0  C 6.791047367157895 0  8.35819501709653 0.404760928621392  9.452721211086017 1.2619040560800834  C 9.452721211086017 1.2619040560800834  8.283577840617943 2.380949978144965  8.283577840617943 2.380949978144965  C 7.412932088734319 1.7380933421300115  6.293548906201565 1.452381568100353  5.024893561835354 1.452381568100353  C 3.23385076633897 1.452381568100353  2.2885628791760766 2.190476723599086  2.2885628791760766 3.3809531318296986  C 2.2885628791760766 4.380952974145462  2.885603832960088 4.976188103418153  4.427890911161299 5.095235602325401  C 4.427890911161299 5.095235602325401  6.393058903164993 5.261905317553977  6.393058903164993 5.261905317553977  Z " stroke-width="0" stroke-dasharray="0" stroke="rgba(121, 121, 121, 1)" fill="none" transform="matrix(1 0 0 1 777 527 )" class="stroke" mask="url(#Clip4556)" />
  </g>
</svg>