<?xml version="1.0" encoding="utf-8"?>
<svg version="1.1" xmlns:xlink="http://www.w3.org/1999/xlink" width="12px" height="17px" xmlns="http://www.w3.org/2000/svg">
  <defs>
    <pattern id="BGPattern" patternUnits="userSpaceOnUse" alignment="0 0" imageRepeat="None" />
    <mask fill="white" id="Clip4586">
      <path d="M 10.298811523688691 1.575842216917583  C 12.096241148681877 3.342696042899268  11.999075356067543 5.945224353987272  11.999075356067543 8.308988390935898  C 11.999075356067543 10.672752427884523  12.096241148681877 13.65730300833773  10.298811523688691 15.424156834319414  C 9.254359604449295 16.45084209832221  7.724108401471129 17  5.926678052591778 17  C 5.926678052591778 17  0 17  0 17  L 0 0  C 0 0  5.926678052591778 0  5.926678052591778 0  C 7.724108401471129 0  9.254359604449295 0.5491573087009157  10.298811523688691 1.575842216917583  Z M 9.011429197417753 14.134829659090478  C 10.201618223399958 12.917133141809709  10.153092272804708 10.386235725860624  10.153092272804708 8.308988390935898  C 10.153092272804708 6.231741056011173  10.201618223399958 4.082864960664286  9.011429197417753 2.8651684433835167  C 8.112713661034993 1.9578640119012831  6.946829113157403 1.6235944076113564  5.610901532660055 1.6235944076113564  C 5.610901532660055 1.6235944076113564  2 1.6235944076113564  2 1.6235944076113564  L 2 15.376403694862638  C 2 15.376403694862638  5.610901532660055 15.376403694862638  5.610901532660055 15.376403694862638  C 6.946829113157403 15.376403694862638  8.112713661034993 15.042133023214333  9.011429197417753 14.134829659090478  Z " fill-rule="evenodd" />
    </mask>
  </defs>
  <g transform="matrix(1 0 0 1 -793 -491 )">
    <path d="M 10.298811523688691 1.575842216917583  C 12.096241148681877 3.342696042899268  11.999075356067543 5.945224353987272  11.999075356067543 8.308988390935898  C 11.999075356067543 10.672752427884523  12.096241148681877 13.65730300833773  10.298811523688691 15.424156834319414  C 9.254359604449295 16.45084209832221  7.724108401471129 17  5.926678052591778 17  C 5.926678052591778 17  0 17  0 17  L 0 0  C 0 0  5.926678052591778 0  5.926678052591778 0  C 7.724108401471129 0  9.254359604449295 0.5491573087009157  10.298811523688691 1.575842216917583  Z M 9.011429197417753 14.134829659090478  C 10.201618223399958 12.917133141809709  10.153092272804708 10.386235725860624  10.153092272804708 8.308988390935898  C 10.153092272804708 6.231741056011173  10.201618223399958 4.082864960664286  9.011429197417753 2.8651684433835167  C 8.112713661034993 1.9578640119012831  6.946829113157403 1.6235944076113564  5.610901532660055 1.6235944076113564  C 5.610901532660055 1.6235944076113564  2 1.6235944076113564  2 1.6235944076113564  L 2 15.376403694862638  C 2 15.376403694862638  5.610901532660055 15.376403694862638  5.610901532660055 15.376403694862638  C 6.946829113157403 15.376403694862638  8.112713661034993 15.042133023214333  9.011429197417753 14.134829659090478  Z " fill-rule="nonzero" fill="rgba(0, 0, 0, 1)" stroke="none" transform="matrix(1 0 0 1 793 491 )" class="fill" />
    <path d="M 10.298811523688691 1.575842216917583  C 12.096241148681877 3.342696042899268  11.999075356067543 5.945224353987272  11.999075356067543 8.308988390935898  C 11.999075356067543 10.672752427884523  12.096241148681877 13.65730300833773  10.298811523688691 15.424156834319414  C 9.254359604449295 16.45084209832221  7.724108401471129 17  5.926678052591778 17  C 5.926678052591778 17  0 17  0 17  L 0 0  C 0 0  5.926678052591778 0  5.926678052591778 0  C 7.724108401471129 0  9.254359604449295 0.5491573087009157  10.298811523688691 1.575842216917583  Z " stroke-width="0" stroke-dasharray="0" stroke="rgba(121, 121, 121, 1)" fill="none" transform="matrix(1 0 0 1 793 491 )" class="stroke" mask="url(#Clip4586)" />
    <path d="M 9.011429197417753 14.134829659090478  C 10.201618223399958 12.917133141809709  10.153092272804708 10.386235725860624  10.153092272804708 8.308988390935898  C 10.153092272804708 6.231741056011173  10.201618223399958 4.082864960664286  9.011429197417753 2.8651684433835167  C 8.112713661034993 1.9578640119012831  6.946829113157403 1.6235944076113564  5.610901532660055 1.6235944076113564  C 5.610901532660055 1.6235944076113564  2 1.6235944076113564  2 1.6235944076113564  L 2 15.376403694862638  C 2 15.376403694862638  5.610901532660055 15.376403694862638  5.610901532660055 15.376403694862638  C 6.946829113157403 15.376403694862638  8.112713661034993 15.042133023214333  9.011429197417753 14.134829659090478  Z " stroke-width="0" stroke-dasharray="0" stroke="rgba(121, 121, 121, 1)" fill="none" transform="matrix(1 0 0 1 793 491 )" class="stroke" mask="url(#Clip4586)" />
  </g>
</svg>