<?xml version="1.0" encoding="utf-8"?>
<svg version="1.1" xmlns:xlink="http://www.w3.org/1999/xlink" width="23px" height="22px" xmlns="http://www.w3.org/2000/svg">
  <defs>
    <pattern id="BGPattern" patternUnits="userSpaceOnUse" alignment="0 0" imageRepeat="None" />
    <mask fill="white" id="Clip4523">
      <path d="M 19.880118518993925 8.252997262735766  L 9.96424641361043 8.252997262735766  L 9.96424641361043 9.764441356817784  L 19.880118518993925 9.764441356817784  L 19.880118518993925 8.252997262735766  Z M 19.880118518993925 5.637950352072639  L 9.96424641361043 5.637950352072639  L 9.96424641361043 7.149394446154657  L 19.880118518993925 7.149394446154657  L 19.880118518993925 5.637950352072639  Z M 8.295471167821237 11  L 8.295471167821237 4.510354180359921  L 21.621439850674626 4.510354180359921  L 21.621439850674626 11  L 8.295471167821237 11  Z M 7.27970295374898 13.914940969940014  C 7.27970295374898 13.914940969940014  7.110408251403602 12.475461688007343  7.110408251403602 12.475461688007343  C 8.271291701932219 12.459467706799343  9.601461205553706 12.44346943561605  11.100935021801131 12.427474977744128  C 12.600408838048555 12.411480996536127  14.196637036918187 12.387498604674704  15.889591748596397 12.35551016559478  C 17.58254646027461 12.307527745306853  19.27549444475643 12.267531829016665  20.968448195406587 12.23554338993674  C 20.968448195406587 12.23554338993674  20.895886733066185 13.555071149456845  20.895886733066185 13.555071149456845  C 19.267425653198234 13.603054046408692  17.630909236164875 13.651033606713092  15.986324988601373 13.699016027001017  C 14.341740741037869 13.746998447288945  12.777768007325875 13.78697911033366  11.294416878259975 13.818967549413582  C 9.81106671022213 13.850955988493507  8.472833220182725 13.88295253086009  7.27970295374898 13.914940969940014  Z M 19.34804725784433 12.259536745068349  C 18.864345499781386 11.843687990357175  18.38870580608025 11.467833721944428  17.921128176740915 11.131955826601105  C 17.921128176740915 11.131955826601105  19.130378247272017 10.436209540766379  19.130378247272017 10.436209540766379  C 19.614079044306905 10.7560934549017  20.097782724425958 11.115948975467234  20.581484482488897 11.515803748970406  C 21.065185279523785 11.899664064601655  21.516649351448127 12.291531857443166  21.935857477700807 12.69138663094634  C 22.371188771649035 13.09124140444951  22.725902305063396 13.45111265492444  23 13.770996092395842  C 23 13.770996092395842  21.66981415890156 14.586693900643132  21.66981415890156 14.586693900643132  C 21.42796279935606 14.266810224839771  21.097440264167393 13.90693897436484  20.67823309894277 13.50708443919363  C 20.275148140385642 13.091235207818537  19.831748054879217 12.675385499779523  19.34804725784433 12.259536745068349  Z M 14 13.147214618710464  L 14 0.09595816728095646  L 15.744468823915591 0.09595816728095646  L 15.744468823915591 12.979276386034684  L 14 13.147214618710464  Z M 6.6508830761455116 16.649939403015704  L 6.6508830761455116 15  L 22.854877075319195 15  L 22.854877075319195 16.649939403015704  L 6.6508830761455116 16.649939403015704  Z M 17.679272012055137 20.032712664908384  C 17.679272012055137 20.032712664908384  17.679272012055137 13.147214618710464  17.679272012055137 13.147214618710464  L 19.42060872018473 13.147214618710464  C 19.42060872018473 13.147214618710464  19.42060872018473 20.080699375171598  19.42060872018473 20.080699375171598  C 19.42060872018473 20.560525008042617  19.356114127346412 20.928395185568732  19.227126863725886 21.184302191752707  C 19.098139600105362 21.44020916814519  18.848224254141947 21.624129048350014  18.47738659200398 21.73608834679779  C 18.106548929866012 21.864041864785527  17.606717276911127 21.93601907019682  16.97790604856016 21.952013289736783  C 16.349093859181142 21.98400160965073  15.567122628517028 22  14.63196736983836 22  C 14.599720073419201 21.76008718356449  14.527161494162966 21.496175649528258  14.414298359266049 21.208280293638843  C 14.301434263341076 20.920384937749425  14.188572089472212 20.66448782234181  14.075708954575296 20.440569195654767  C 14.575532919305733 20.456563385403232  15.035045601199096 20.464562550786376  15.454253727451775 20.464562550786376  C 15.873461853704454 20.48055674053484  16.23623937353673 20.48055674053484  16.542583403864437 20.464562550786376  C 16.84892743419214 20.464562550786376  17.06658779551195 20.464562550786376  17.195575059132473 20.464562550786376  C 17.389054993535208 20.448568361037907  17.5180451402399 20.408572534122204  17.58253877205016 20.344595775128333  C 17.647032403860425 20.29661322077868  17.679272012055137 20.192654547497305  17.679272012055137 20.032712664908384  Z M 10.931640319455754 19.169028146397874  C 10.367322242401025 18.545254775999158  9.803011373056718 17.985465672051063  9.23869329600199 17.489645819640078  C 9.23869329600199 17.489645819640078  10.568863760651535 16.649939403015704  10.568863760651535 16.649939403015704  C 11.13318231822029 17.097776596806803  11.705571589403354 17.62558441163379  12.286013314667661 18.233363562492546  C 12.882578207627521 18.82514855339433  13.350154875938799 19.344957113463693  13.688745241657609 19.792794366837782  C 13.688745241657609 19.792794366837782  12.261826160554195 20.776445661006328  12.261826160554195 20.776445661006328  C 11.955482130226489 20.31261421788377  11.512081564206033 19.776807237673644  10.931640319455754 19.169028146397874  Z M 7.303890107862447 3.142854963822075  L 7.303890107862447 2  L 22.588849132968843 2  L 22.588849132968843 3.142854963822075  L 7.303890107862447 3.142854963822075  Z M 4.377490483315216 3.574689596454591  C 5.006302192180207 2.391119733817  5.546437199490705 1.1995638438455927  5.997891420877474 0  C 5.997891420877474 0  7.715025598444706 0.5038146980273394  7.715025598444706 0.5038146980273394  C 7.19907750499066 1.8633212139364743  6.5863995351298374 3.206829935326239  5.876971026759033 4.534347535491529  C 5.1675425183882275 5.845871154448816  4.401683403597019 7.085421857970098  3.5793912798152685 8.252997262735766  C 2.757099156033518 9.420572667501435  1.9025539096000184 10.452190652048511  1.0157682140722586 11.347865516294625  C 0.9673981103430686 11.203917778766929  0.8787272950854195 11.019982704899618  0.7497402717219083 10.796064108004071  C 0.6368766563109626 10.572145511108523  0.5078869600881706 10.348230250860421  0.36277655880422033 10.124311177300951  C 0.2337895654728358 9.884398599197402  0.11286364544307238 9.700463048666172  0 9.572509769010397  C 0.806168715829185 8.788794203212056  1.5800915767812949 7.885132358304283  2.3217669010572313 6.861504691066312  C 3.0634422253331675 5.837876547164422  3.748678774450225 4.742265477884181  4.377490483315216 3.574689596454591  Z M 3.482642663361399 21.928019934605178  L 3.482642663361399 6.1657584052315855  L 5.199792217377526 4.462367470096705  L 5.223963995042098 4.486360825228314  L 5.223963995042098 21.928019934605178  L 3.482642663361399 21.928019934605178  Z " fill-rule="evenodd" />
    </mask>
  </defs>
  <g transform="matrix(1 0 0 1 -333 -612 )">
    <path d="M 19.880118518993925 8.252997262735766  L 9.96424641361043 8.252997262735766  L 9.96424641361043 9.764441356817784  L 19.880118518993925 9.764441356817784  L 19.880118518993925 8.252997262735766  Z M 19.880118518993925 5.637950352072639  L 9.96424641361043 5.637950352072639  L 9.96424641361043 7.149394446154657  L 19.880118518993925 7.149394446154657  L 19.880118518993925 5.637950352072639  Z M 8.295471167821237 11  L 8.295471167821237 4.510354180359921  L 21.621439850674626 4.510354180359921  L 21.621439850674626 11  L 8.295471167821237 11  Z M 7.27970295374898 13.914940969940014  C 7.27970295374898 13.914940969940014  7.110408251403602 12.475461688007343  7.110408251403602 12.475461688007343  C 8.271291701932219 12.459467706799343  9.601461205553706 12.44346943561605  11.100935021801131 12.427474977744128  C 12.600408838048555 12.411480996536127  14.196637036918187 12.387498604674704  15.889591748596397 12.35551016559478  C 17.58254646027461 12.307527745306853  19.27549444475643 12.267531829016665  20.968448195406587 12.23554338993674  C 20.968448195406587 12.23554338993674  20.895886733066185 13.555071149456845  20.895886733066185 13.555071149456845  C 19.267425653198234 13.603054046408692  17.630909236164875 13.651033606713092  15.986324988601373 13.699016027001017  C 14.341740741037869 13.746998447288945  12.777768007325875 13.78697911033366  11.294416878259975 13.818967549413582  C 9.81106671022213 13.850955988493507  8.472833220182725 13.88295253086009  7.27970295374898 13.914940969940014  Z M 19.34804725784433 12.259536745068349  C 18.864345499781386 11.843687990357175  18.38870580608025 11.467833721944428  17.921128176740915 11.131955826601105  C 17.921128176740915 11.131955826601105  19.130378247272017 10.436209540766379  19.130378247272017 10.436209540766379  C 19.614079044306905 10.7560934549017  20.097782724425958 11.115948975467234  20.581484482488897 11.515803748970406  C 21.065185279523785 11.899664064601655  21.516649351448127 12.291531857443166  21.935857477700807 12.69138663094634  C 22.371188771649035 13.09124140444951  22.725902305063396 13.45111265492444  23 13.770996092395842  C 23 13.770996092395842  21.66981415890156 14.586693900643132  21.66981415890156 14.586693900643132  C 21.42796279935606 14.266810224839771  21.097440264167393 13.90693897436484  20.67823309894277 13.50708443919363  C 20.275148140385642 13.091235207818537  19.831748054879217 12.675385499779523  19.34804725784433 12.259536745068349  Z M 14 13.147214618710464  L 14 0.09595816728095646  L 15.744468823915591 0.09595816728095646  L 15.744468823915591 12.979276386034684  L 14 13.147214618710464  Z M 6.6508830761455116 16.649939403015704  L 6.6508830761455116 15  L 22.854877075319195 15  L 22.854877075319195 16.649939403015704  L 6.6508830761455116 16.649939403015704  Z M 17.679272012055137 20.032712664908384  C 17.679272012055137 20.032712664908384  17.679272012055137 13.147214618710464  17.679272012055137 13.147214618710464  L 19.42060872018473 13.147214618710464  C 19.42060872018473 13.147214618710464  19.42060872018473 20.080699375171598  19.42060872018473 20.080699375171598  C 19.42060872018473 20.560525008042617  19.356114127346412 20.928395185568732  19.227126863725886 21.184302191752707  C 19.098139600105362 21.44020916814519  18.848224254141947 21.624129048350014  18.47738659200398 21.73608834679779  C 18.106548929866012 21.864041864785527  17.606717276911127 21.93601907019682  16.97790604856016 21.952013289736783  C 16.349093859181142 21.98400160965073  15.567122628517028 22  14.63196736983836 22  C 14.599720073419201 21.76008718356449  14.527161494162966 21.496175649528258  14.414298359266049 21.208280293638843  C 14.301434263341076 20.920384937749425  14.188572089472212 20.66448782234181  14.075708954575296 20.440569195654767  C 14.575532919305733 20.456563385403232  15.035045601199096 20.464562550786376  15.454253727451775 20.464562550786376  C 15.873461853704454 20.48055674053484  16.23623937353673 20.48055674053484  16.542583403864437 20.464562550786376  C 16.84892743419214 20.464562550786376  17.06658779551195 20.464562550786376  17.195575059132473 20.464562550786376  C 17.389054993535208 20.448568361037907  17.5180451402399 20.408572534122204  17.58253877205016 20.344595775128333  C 17.647032403860425 20.29661322077868  17.679272012055137 20.192654547497305  17.679272012055137 20.032712664908384  Z M 10.931640319455754 19.169028146397874  C 10.367322242401025 18.545254775999158  9.803011373056718 17.985465672051063  9.23869329600199 17.489645819640078  C 9.23869329600199 17.489645819640078  10.568863760651535 16.649939403015704  10.568863760651535 16.649939403015704  C 11.13318231822029 17.097776596806803  11.705571589403354 17.62558441163379  12.286013314667661 18.233363562492546  C 12.882578207627521 18.82514855339433  13.350154875938799 19.344957113463693  13.688745241657609 19.792794366837782  C 13.688745241657609 19.792794366837782  12.261826160554195 20.776445661006328  12.261826160554195 20.776445661006328  C 11.955482130226489 20.31261421788377  11.512081564206033 19.776807237673644  10.931640319455754 19.169028146397874  Z M 7.303890107862447 3.142854963822075  L 7.303890107862447 2  L 22.588849132968843 2  L 22.588849132968843 3.142854963822075  L 7.303890107862447 3.142854963822075  Z M 4.377490483315216 3.574689596454591  C 5.006302192180207 2.391119733817  5.546437199490705 1.1995638438455927  5.997891420877474 0  C 5.997891420877474 0  7.715025598444706 0.5038146980273394  7.715025598444706 0.5038146980273394  C 7.19907750499066 1.8633212139364743  6.5863995351298374 3.206829935326239  5.876971026759033 4.534347535491529  C 5.1675425183882275 5.845871154448816  4.401683403597019 7.085421857970098  3.5793912798152685 8.252997262735766  C 2.757099156033518 9.420572667501435  1.9025539096000184 10.452190652048511  1.0157682140722586 11.347865516294625  C 0.9673981103430686 11.203917778766929  0.8787272950854195 11.019982704899618  0.7497402717219083 10.796064108004071  C 0.6368766563109626 10.572145511108523  0.5078869600881706 10.348230250860421  0.36277655880422033 10.124311177300951  C 0.2337895654728358 9.884398599197402  0.11286364544307238 9.700463048666172  0 9.572509769010397  C 0.806168715829185 8.788794203212056  1.5800915767812949 7.885132358304283  2.3217669010572313 6.861504691066312  C 3.0634422253331675 5.837876547164422  3.748678774450225 4.742265477884181  4.377490483315216 3.574689596454591  Z M 3.482642663361399 21.928019934605178  L 3.482642663361399 6.1657584052315855  L 5.199792217377526 4.462367470096705  L 5.223963995042098 4.486360825228314  L 5.223963995042098 21.928019934605178  L 3.482642663361399 21.928019934605178  Z " fill-rule="nonzero" fill="rgba(0, 0, 0, 1)" stroke="none" transform="matrix(1 0 0 1 333 612 )" class="fill" />
    <path d="M 19.880118518993925 8.252997262735766  L 9.96424641361043 8.252997262735766  L 9.96424641361043 9.764441356817784  L 19.880118518993925 9.764441356817784  L 19.880118518993925 8.252997262735766  Z " stroke-width="0" stroke-dasharray="0" stroke="rgba(121, 121, 121, 1)" fill="none" transform="matrix(1 0 0 1 333 612 )" class="stroke" mask="url(#Clip4523)" />
    <path d="M 19.880118518993925 5.637950352072639  L 9.96424641361043 5.637950352072639  L 9.96424641361043 7.149394446154657  L 19.880118518993925 7.149394446154657  L 19.880118518993925 5.637950352072639  Z " stroke-width="0" stroke-dasharray="0" stroke="rgba(121, 121, 121, 1)" fill="none" transform="matrix(1 0 0 1 333 612 )" class="stroke" mask="url(#Clip4523)" />
    <path d="M 8.295471167821237 11  L 8.295471167821237 4.510354180359921  L 21.621439850674626 4.510354180359921  L 21.621439850674626 11  L 8.295471167821237 11  Z " stroke-width="0" stroke-dasharray="0" stroke="rgba(121, 121, 121, 1)" fill="none" transform="matrix(1 0 0 1 333 612 )" class="stroke" mask="url(#Clip4523)" />
    <path d="M 7.27970295374898 13.914940969940014  C 7.27970295374898 13.914940969940014  7.110408251403602 12.475461688007343  7.110408251403602 12.475461688007343  C 8.271291701932219 12.459467706799343  9.601461205553706 12.44346943561605  11.100935021801131 12.427474977744128  C 12.600408838048555 12.411480996536127  14.196637036918187 12.387498604674704  15.889591748596397 12.35551016559478  C 17.58254646027461 12.307527745306853  19.27549444475643 12.267531829016665  20.968448195406587 12.23554338993674  C 20.968448195406587 12.23554338993674  20.895886733066185 13.555071149456845  20.895886733066185 13.555071149456845  C 19.267425653198234 13.603054046408692  17.630909236164875 13.651033606713092  15.986324988601373 13.699016027001017  C 14.341740741037869 13.746998447288945  12.777768007325875 13.78697911033366  11.294416878259975 13.818967549413582  C 9.81106671022213 13.850955988493507  8.472833220182725 13.88295253086009  7.27970295374898 13.914940969940014  Z " stroke-width="0" stroke-dasharray="0" stroke="rgba(121, 121, 121, 1)" fill="none" transform="matrix(1 0 0 1 333 612 )" class="stroke" mask="url(#Clip4523)" />
    <path d="M 19.34804725784433 12.259536745068349  C 18.864345499781386 11.843687990357175  18.38870580608025 11.467833721944428  17.921128176740915 11.131955826601105  C 17.921128176740915 11.131955826601105  19.130378247272017 10.436209540766379  19.130378247272017 10.436209540766379  C 19.614079044306905 10.7560934549017  20.097782724425958 11.115948975467234  20.581484482488897 11.515803748970406  C 21.065185279523785 11.899664064601655  21.516649351448127 12.291531857443166  21.935857477700807 12.69138663094634  C 22.371188771649035 13.09124140444951  22.725902305063396 13.45111265492444  23 13.770996092395842  C 23 13.770996092395842  21.66981415890156 14.586693900643132  21.66981415890156 14.586693900643132  C 21.42796279935606 14.266810224839771  21.097440264167393 13.90693897436484  20.67823309894277 13.50708443919363  C 20.275148140385642 13.091235207818537  19.831748054879217 12.675385499779523  19.34804725784433 12.259536745068349  Z " stroke-width="0" stroke-dasharray="0" stroke="rgba(121, 121, 121, 1)" fill="none" transform="matrix(1 0 0 1 333 612 )" class="stroke" mask="url(#Clip4523)" />
    <path d="M 14 13.147214618710464  L 14 0.09595816728095646  L 15.744468823915591 0.09595816728095646  L 15.744468823915591 12.979276386034684  L 14 13.147214618710464  Z " stroke-width="0" stroke-dasharray="0" stroke="rgba(121, 121, 121, 1)" fill="none" transform="matrix(1 0 0 1 333 612 )" class="stroke" mask="url(#Clip4523)" />
    <path d="M 6.6508830761455116 16.649939403015704  L 6.6508830761455116 15  L 22.854877075319195 15  L 22.854877075319195 16.649939403015704  L 6.6508830761455116 16.649939403015704  Z " stroke-width="0" stroke-dasharray="0" stroke="rgba(121, 121, 121, 1)" fill="none" transform="matrix(1 0 0 1 333 612 )" class="stroke" mask="url(#Clip4523)" />
    <path d="M 17.679272012055137 20.032712664908384  C 17.679272012055137 20.032712664908384  17.679272012055137 13.147214618710464  17.679272012055137 13.147214618710464  L 19.42060872018473 13.147214618710464  C 19.42060872018473 13.147214618710464  19.42060872018473 20.080699375171598  19.42060872018473 20.080699375171598  C 19.42060872018473 20.560525008042617  19.356114127346412 20.928395185568732  19.227126863725886 21.184302191752707  C 19.098139600105362 21.44020916814519  18.848224254141947 21.624129048350014  18.47738659200398 21.73608834679779  C 18.106548929866012 21.864041864785527  17.606717276911127 21.93601907019682  16.97790604856016 21.952013289736783  C 16.349093859181142 21.98400160965073  15.567122628517028 22  14.63196736983836 22  C 14.599720073419201 21.76008718356449  14.527161494162966 21.496175649528258  14.414298359266049 21.208280293638843  C 14.301434263341076 20.920384937749425  14.188572089472212 20.66448782234181  14.075708954575296 20.440569195654767  C 14.575532919305733 20.456563385403232  15.035045601199096 20.464562550786376  15.454253727451775 20.464562550786376  C 15.873461853704454 20.48055674053484  16.23623937353673 20.48055674053484  16.542583403864437 20.464562550786376  C 16.84892743419214 20.464562550786376  17.06658779551195 20.464562550786376  17.195575059132473 20.464562550786376  C 17.389054993535208 20.448568361037907  17.5180451402399 20.408572534122204  17.58253877205016 20.344595775128333  C 17.647032403860425 20.29661322077868  17.679272012055137 20.192654547497305  17.679272012055137 20.032712664908384  Z " stroke-width="0" stroke-dasharray="0" stroke="rgba(121, 121, 121, 1)" fill="none" transform="matrix(1 0 0 1 333 612 )" class="stroke" mask="url(#Clip4523)" />
    <path d="M 10.931640319455754 19.169028146397874  C 10.367322242401025 18.545254775999158  9.803011373056718 17.985465672051063  9.23869329600199 17.489645819640078  C 9.23869329600199 17.489645819640078  10.568863760651535 16.649939403015704  10.568863760651535 16.649939403015704  C 11.13318231822029 17.097776596806803  11.705571589403354 17.62558441163379  12.286013314667661 18.233363562492546  C 12.882578207627521 18.82514855339433  13.350154875938799 19.344957113463693  13.688745241657609 19.792794366837782  C 13.688745241657609 19.792794366837782  12.261826160554195 20.776445661006328  12.261826160554195 20.776445661006328  C 11.955482130226489 20.31261421788377  11.512081564206033 19.776807237673644  10.931640319455754 19.169028146397874  Z " stroke-width="0" stroke-dasharray="0" stroke="rgba(121, 121, 121, 1)" fill="none" transform="matrix(1 0 0 1 333 612 )" class="stroke" mask="url(#Clip4523)" />
    <path d="M 7.303890107862447 3.142854963822075  L 7.303890107862447 2  L 22.588849132968843 2  L 22.588849132968843 3.142854963822075  L 7.303890107862447 3.142854963822075  Z " stroke-width="0" stroke-dasharray="0" stroke="rgba(121, 121, 121, 1)" fill="none" transform="matrix(1 0 0 1 333 612 )" class="stroke" mask="url(#Clip4523)" />
    <path d="M 4.377490483315216 3.574689596454591  C 5.006302192180207 2.391119733817  5.546437199490705 1.1995638438455927  5.997891420877474 0  C 5.997891420877474 0  7.715025598444706 0.5038146980273394  7.715025598444706 0.5038146980273394  C 7.19907750499066 1.8633212139364743  6.5863995351298374 3.206829935326239  5.876971026759033 4.534347535491529  C 5.1675425183882275 5.845871154448816  4.401683403597019 7.085421857970098  3.5793912798152685 8.252997262735766  C 2.757099156033518 9.420572667501435  1.9025539096000184 10.452190652048511  1.0157682140722586 11.347865516294625  C 0.9673981103430686 11.203917778766929  0.8787272950854195 11.019982704899618  0.7497402717219083 10.796064108004071  C 0.6368766563109626 10.572145511108523  0.5078869600881706 10.348230250860421  0.36277655880422033 10.124311177300951  C 0.2337895654728358 9.884398599197402  0.11286364544307238 9.700463048666172  0 9.572509769010397  C 0.806168715829185 8.788794203212056  1.5800915767812949 7.885132358304283  2.3217669010572313 6.861504691066312  C 3.0634422253331675 5.837876547164422  3.748678774450225 4.742265477884181  4.377490483315216 3.574689596454591  Z " stroke-width="0" stroke-dasharray="0" stroke="rgba(121, 121, 121, 1)" fill="none" transform="matrix(1 0 0 1 333 612 )" class="stroke" mask="url(#Clip4523)" />
    <path d="M 3.482642663361399 21.928019934605178  L 3.482642663361399 6.1657584052315855  L 5.199792217377526 4.462367470096705  L 5.223963995042098 4.486360825228314  L 5.223963995042098 21.928019934605178  L 3.482642663361399 21.928019934605178  Z " stroke-width="0" stroke-dasharray="0" stroke="rgba(121, 121, 121, 1)" fill="none" transform="matrix(1 0 0 1 333 612 )" class="stroke" mask="url(#Clip4523)" />
  </g>
</svg>