<?xml version="1.0" encoding="utf-8"?>
<svg version="1.1" xmlns:xlink="http://www.w3.org/1999/xlink" width="22px" height="22px" xmlns="http://www.w3.org/2000/svg">
  <defs>
    <pattern id="BGPattern" patternUnits="userSpaceOnUse" alignment="0 0" imageRepeat="None" />
    <mask fill="white" id="Clip4521">
      <path d="M 14.861563461726668 0.7691939391723867  C 16.16093491361314 0.544847298830818  17.28165473488996 0.2884458168891921  18.223699690980126 0  C 18.223699690980126 0  19.56368421534369 1.4662702156460032  19.56368421534369 1.4662702156460032  C 18.4754598862069 1.7867660983841203  17.224799724987097 2.0752100049728592  15.811733743012905 2.3316057560131265  C 14.414908730357102 2.5719769517040443  12.928754514020659 2.7802913954944524  11.353266253466703 2.9565643697879733  C 9.794019930338512 3.132836388931268  8.21852586114031 3.2770659834274487  6.626795663160592 3.3892397811733463  C 5.051307160579794 3.501412623769018  3.5245524571621285 3.581542086567349  2.046517031296975 3.629616707765623  C 2.0140326723917603 3.4052700674240546  1.949062744447112 3.140853919932188  1.8516099097583112 2.8363835476936465  C 1.7703992545221177 2.5158876649555295  1.6891829116550974 2.2594861830139035  1.6079721354054821 2.06718960852126  C 3.053523323378843 1.9870658766242872  4.555923954637657 1.890923320279324  6.115170277765847 1.7787495225334264  C 7.6744161168403515 1.6665766799377555  9.2011867940297 1.530361750991815  10.695464399347461 1.3701133320476433  C 12.18974200466522 1.1938413129043488  13.578433947265959 0.9935405795139554  14.861563461726668 0.7691939391723867  Z M 1.6323374618125646 8.53318986398053  L 1.6323374618125646 7  L 20.611284822822267 7  L 20.611284822822267 8.53318986398053  L 1.6323374618125646 8.53318986398053  Z M 0 14  L 0 12  L 22 12  L 22 14  L 0 14  Z M 10.062012381917304 19.56622946546407  C 10.062012381917304 19.56622946546407  10.062012381917304 2.5719674002017796  10.062012381917304 2.5719674002017796  L 11.937987618082696 2.5719674002017796  C 11.937987618082696 2.5719674002017796  11.937987618082696 19.56622946546407  11.937987618082696 19.56622946546407  C 11.937987618082696 20.20721991760874  11.832401955365672 20.679950747678575  11.621253864508619 20.98442123931089  C 11.426348679184704 21.304916465383226  11.101514287152616 21.5372746670368  10.646733746533297 21.681497515784507  C 10.175711752541897 21.825720424229104  9.526027962813412 21.913864194396343  8.69767802086465 21.945913663276375  C 7.885570984449028 21.993988045687093  6.837943754017645 22.010016899212463  5.554814239556938 21.993992105075556  C 5.506087459172271 21.817719727750926  5.441117773254467 21.617404129835133  5.359907118018274 21.393057429796677  C 5.27869646278208 21.184735523895124  5.181249194710684 20.968406295160694  5.067554180569275 20.744059595122238  C 4.970101103853631 20.53573770414491  4.872654077809077 20.359465446214056  4.775201243120277 20.21524258254213  C 5.457371569995572 20.231267343099532  6.107055601750901 20.239281803441717  6.724256968788922 20.239281803441717  C 7.34145881988063 20.239281803441717  7.8774490476287715 20.239281803441717  8.332229104194404 20.239281803441717  C 8.78700916076004 20.239281803441717  9.111843552792127 20.239281803441717  9.30674922216973 20.239281803441717  C 9.582866030837213 20.223257042884313  9.777775572644313 20.167171110354758  9.891470586785722 20.071022539548213  C 10.00516560092713 19.974873961279556  10.062012381917304 19.80660088501832  10.062012381917304 19.56622946546407  Z " fill-rule="evenodd" />
    </mask>
  </defs>
  <g transform="matrix(1 0 0 1 -382 -612 )">
    <path d="M 14.861563461726668 0.7691939391723867  C 16.16093491361314 0.544847298830818  17.28165473488996 0.2884458168891921  18.223699690980126 0  C 18.223699690980126 0  19.56368421534369 1.4662702156460032  19.56368421534369 1.4662702156460032  C 18.4754598862069 1.7867660983841203  17.224799724987097 2.0752100049728592  15.811733743012905 2.3316057560131265  C 14.414908730357102 2.5719769517040443  12.928754514020659 2.7802913954944524  11.353266253466703 2.9565643697879733  C 9.794019930338512 3.132836388931268  8.21852586114031 3.2770659834274487  6.626795663160592 3.3892397811733463  C 5.051307160579794 3.501412623769018  3.5245524571621285 3.581542086567349  2.046517031296975 3.629616707765623  C 2.0140326723917603 3.4052700674240546  1.949062744447112 3.140853919932188  1.8516099097583112 2.8363835476936465  C 1.7703992545221177 2.5158876649555295  1.6891829116550974 2.2594861830139035  1.6079721354054821 2.06718960852126  C 3.053523323378843 1.9870658766242872  4.555923954637657 1.890923320279324  6.115170277765847 1.7787495225334264  C 7.6744161168403515 1.6665766799377555  9.2011867940297 1.530361750991815  10.695464399347461 1.3701133320476433  C 12.18974200466522 1.1938413129043488  13.578433947265959 0.9935405795139554  14.861563461726668 0.7691939391723867  Z M 1.6323374618125646 8.53318986398053  L 1.6323374618125646 7  L 20.611284822822267 7  L 20.611284822822267 8.53318986398053  L 1.6323374618125646 8.53318986398053  Z M 0 14  L 0 12  L 22 12  L 22 14  L 0 14  Z M 10.062012381917304 19.56622946546407  C 10.062012381917304 19.56622946546407  10.062012381917304 2.5719674002017796  10.062012381917304 2.5719674002017796  L 11.937987618082696 2.5719674002017796  C 11.937987618082696 2.5719674002017796  11.937987618082696 19.56622946546407  11.937987618082696 19.56622946546407  C 11.937987618082696 20.20721991760874  11.832401955365672 20.679950747678575  11.621253864508619 20.98442123931089  C 11.426348679184704 21.304916465383226  11.101514287152616 21.5372746670368  10.646733746533297 21.681497515784507  C 10.175711752541897 21.825720424229104  9.526027962813412 21.913864194396343  8.69767802086465 21.945913663276375  C 7.885570984449028 21.993988045687093  6.837943754017645 22.010016899212463  5.554814239556938 21.993992105075556  C 5.506087459172271 21.817719727750926  5.441117773254467 21.617404129835133  5.359907118018274 21.393057429796677  C 5.27869646278208 21.184735523895124  5.181249194710684 20.968406295160694  5.067554180569275 20.744059595122238  C 4.970101103853631 20.53573770414491  4.872654077809077 20.359465446214056  4.775201243120277 20.21524258254213  C 5.457371569995572 20.231267343099532  6.107055601750901 20.239281803441717  6.724256968788922 20.239281803441717  C 7.34145881988063 20.239281803441717  7.8774490476287715 20.239281803441717  8.332229104194404 20.239281803441717  C 8.78700916076004 20.239281803441717  9.111843552792127 20.239281803441717  9.30674922216973 20.239281803441717  C 9.582866030837213 20.223257042884313  9.777775572644313 20.167171110354758  9.891470586785722 20.071022539548213  C 10.00516560092713 19.974873961279556  10.062012381917304 19.80660088501832  10.062012381917304 19.56622946546407  Z " fill-rule="nonzero" fill="rgba(0, 0, 0, 1)" stroke="none" transform="matrix(1 0 0 1 382 612 )" class="fill" />
    <path d="M 14.861563461726668 0.7691939391723867  C 16.16093491361314 0.544847298830818  17.28165473488996 0.2884458168891921  18.223699690980126 0  C 18.223699690980126 0  19.56368421534369 1.4662702156460032  19.56368421534369 1.4662702156460032  C 18.4754598862069 1.7867660983841203  17.224799724987097 2.0752100049728592  15.811733743012905 2.3316057560131265  C 14.414908730357102 2.5719769517040443  12.928754514020659 2.7802913954944524  11.353266253466703 2.9565643697879733  C 9.794019930338512 3.132836388931268  8.21852586114031 3.2770659834274487  6.626795663160592 3.3892397811733463  C 5.051307160579794 3.501412623769018  3.5245524571621285 3.581542086567349  2.046517031296975 3.629616707765623  C 2.0140326723917603 3.4052700674240546  1.949062744447112 3.140853919932188  1.8516099097583112 2.8363835476936465  C 1.7703992545221177 2.5158876649555295  1.6891829116550974 2.2594861830139035  1.6079721354054821 2.06718960852126  C 3.053523323378843 1.9870658766242872  4.555923954637657 1.890923320279324  6.115170277765847 1.7787495225334264  C 7.6744161168403515 1.6665766799377555  9.2011867940297 1.530361750991815  10.695464399347461 1.3701133320476433  C 12.18974200466522 1.1938413129043488  13.578433947265959 0.9935405795139554  14.861563461726668 0.7691939391723867  Z " stroke-width="0" stroke-dasharray="0" stroke="rgba(121, 121, 121, 1)" fill="none" transform="matrix(1 0 0 1 382 612 )" class="stroke" mask="url(#Clip4521)" />
    <path d="M 1.6323374618125646 8.53318986398053  L 1.6323374618125646 7  L 20.611284822822267 7  L 20.611284822822267 8.53318986398053  L 1.6323374618125646 8.53318986398053  Z " stroke-width="0" stroke-dasharray="0" stroke="rgba(121, 121, 121, 1)" fill="none" transform="matrix(1 0 0 1 382 612 )" class="stroke" mask="url(#Clip4521)" />
    <path d="M 0 14  L 0 12  L 22 12  L 22 14  L 0 14  Z " stroke-width="0" stroke-dasharray="0" stroke="rgba(121, 121, 121, 1)" fill="none" transform="matrix(1 0 0 1 382 612 )" class="stroke" mask="url(#Clip4521)" />
    <path d="M 10.062012381917304 19.56622946546407  C 10.062012381917304 19.56622946546407  10.062012381917304 2.5719674002017796  10.062012381917304 2.5719674002017796  L 11.937987618082696 2.5719674002017796  C 11.937987618082696 2.5719674002017796  11.937987618082696 19.56622946546407  11.937987618082696 19.56622946546407  C 11.937987618082696 20.20721991760874  11.832401955365672 20.679950747678575  11.621253864508619 20.98442123931089  C 11.426348679184704 21.304916465383226  11.101514287152616 21.5372746670368  10.646733746533297 21.681497515784507  C 10.175711752541897 21.825720424229104  9.526027962813412 21.913864194396343  8.69767802086465 21.945913663276375  C 7.885570984449028 21.993988045687093  6.837943754017645 22.010016899212463  5.554814239556938 21.993992105075556  C 5.506087459172271 21.817719727750926  5.441117773254467 21.617404129835133  5.359907118018274 21.393057429796677  C 5.27869646278208 21.184735523895124  5.181249194710684 20.968406295160694  5.067554180569275 20.744059595122238  C 4.970101103853631 20.53573770414491  4.872654077809077 20.359465446214056  4.775201243120277 20.21524258254213  C 5.457371569995572 20.231267343099532  6.107055601750901 20.239281803441717  6.724256968788922 20.239281803441717  C 7.34145881988063 20.239281803441717  7.8774490476287715 20.239281803441717  8.332229104194404 20.239281803441717  C 8.78700916076004 20.239281803441717  9.111843552792127 20.239281803441717  9.30674922216973 20.239281803441717  C 9.582866030837213 20.223257042884313  9.777775572644313 20.167171110354758  9.891470586785722 20.071022539548213  C 10.00516560092713 19.974873961279556  10.062012381917304 19.80660088501832  10.062012381917304 19.56622946546407  Z " stroke-width="0" stroke-dasharray="0" stroke="rgba(121, 121, 121, 1)" fill="none" transform="matrix(1 0 0 1 382 612 )" class="stroke" mask="url(#Clip4521)" />
  </g>
</svg>