<?xml version="1.0" encoding="utf-8"?>
<svg version="1.1" xmlns:xlink="http://www.w3.org/1999/xlink" width="17px" height="23px" xmlns="http://www.w3.org/2000/svg">
  <defs>
    <pattern id="BGPattern" patternUnits="userSpaceOnUse" alignment="0 0" imageRepeat="None" />
    <mask fill="white" id="Clip4462">
      <path d="M 11.985145506097588 13.082867867387703  C 11.985145506097588 13.082867867387703  17 23  17 23  L 11.92207030472458 23  L 7.538027982111973 13.825845444154217  L 4.384042322612608 13.825845444154217  L 4.384042322612608 23  L 0 23  L 0 0  C 0 0  8.799622245911719 0  8.799622245911719 0  C 13.372906151995153 0  16.085334383141728 3.1980348382445496  16.085334383141728 7.042136464831836  C 16.085334383141728 10.272473294691888  14.16139692709877 12.275283419243827  11.985145506097588 13.082867867387703  Z M 8.515768800343253 10.078652680559795  C 10.439702496538729 10.078652680559795  11.70129206052912 8.818822058205274  11.70129206052912 7.042136464831836  C 11.70129206052912 5.2654508714584  10.439702496538729 4.005616398242065  8.515768800343253 4.005616398242065  C 8.515768800343253 4.005616398242065  4.384042322612608 4.005616398242065  4.384042322612608 4.005616398242065  L 4.384042322612608 10.078652680559795  C 4.384042322612608 10.078652680559795  8.515768800343253 10.078652680559795  8.515768800343253 10.078652680559795  Z " fill-rule="evenodd" />
    </mask>
  </defs>
  <g transform="matrix(1 0 0 1 -1298 -409 )">
    <path d="M 11.985145506097588 13.082867867387703  C 11.985145506097588 13.082867867387703  17 23  17 23  L 11.92207030472458 23  L 7.538027982111973 13.825845444154217  L 4.384042322612608 13.825845444154217  L 4.384042322612608 23  L 0 23  L 0 0  C 0 0  8.799622245911719 0  8.799622245911719 0  C 13.372906151995153 0  16.085334383141728 3.1980348382445496  16.085334383141728 7.042136464831836  C 16.085334383141728 10.272473294691888  14.16139692709877 12.275283419243827  11.985145506097588 13.082867867387703  Z M 8.515768800343253 10.078652680559795  C 10.439702496538729 10.078652680559795  11.70129206052912 8.818822058205274  11.70129206052912 7.042136464831836  C 11.70129206052912 5.2654508714584  10.439702496538729 4.005616398242065  8.515768800343253 4.005616398242065  C 8.515768800343253 4.005616398242065  4.384042322612608 4.005616398242065  4.384042322612608 4.005616398242065  L 4.384042322612608 10.078652680559795  C 4.384042322612608 10.078652680559795  8.515768800343253 10.078652680559795  8.515768800343253 10.078652680559795  Z " fill-rule="nonzero" fill="rgba(255, 255, 255, 1)" stroke="none" transform="matrix(1 0 0 1 1298 409 )" class="fill" />
    <path d="M 11.985145506097588 13.082867867387703  C 11.985145506097588 13.082867867387703  17 23  17 23  L 11.92207030472458 23  L 7.538027982111973 13.825845444154217  L 4.384042322612608 13.825845444154217  L 4.384042322612608 23  L 0 23  L 0 0  C 0 0  8.799622245911719 0  8.799622245911719 0  C 13.372906151995153 0  16.085334383141728 3.1980348382445496  16.085334383141728 7.042136464831836  C 16.085334383141728 10.272473294691888  14.16139692709877 12.275283419243827  11.985145506097588 13.082867867387703  Z " stroke-width="0" stroke-dasharray="0" stroke="rgba(121, 121, 121, 1)" fill="none" transform="matrix(1 0 0 1 1298 409 )" class="stroke" mask="url(#Clip4462)" />
    <path d="M 8.515768800343253 10.078652680559795  C 10.439702496538729 10.078652680559795  11.70129206052912 8.818822058205274  11.70129206052912 7.042136464831836  C 11.70129206052912 5.2654508714584  10.439702496538729 4.005616398242065  8.515768800343253 4.005616398242065  C 8.515768800343253 4.005616398242065  4.384042322612608 4.005616398242065  4.384042322612608 4.005616398242065  L 4.384042322612608 10.078652680559795  C 4.384042322612608 10.078652680559795  8.515768800343253 10.078652680559795  8.515768800343253 10.078652680559795  Z " stroke-width="0" stroke-dasharray="0" stroke="rgba(121, 121, 121, 1)" fill="none" transform="matrix(1 0 0 1 1298 409 )" class="stroke" mask="url(#Clip4462)" />
  </g>
</svg>