<?xml version="1.0" encoding="utf-8"?>
<svg version="1.1" xmlns:xlink="http://www.w3.org/1999/xlink" width="3px" height="22px" xmlns="http://www.w3.org/2000/svg">
  <defs>
    <pattern id="BGPattern" patternUnits="userSpaceOnUse" alignment="0 0" imageRepeat="None" />
    <mask fill="white" id="Clip4575">
      <path d="M 1.8591560646797687 19.2133335664537  C 2.1338041101494762 19.84888906777639  2.5140840577309245 20.2400015371374  3 20.80222368570006  C 3 20.80222368570006  1.9647923741809252 22  1.9647923741809252 22  C 1.2887356710873017 21.217777853865677  0.823942562341474 20.70444541658874  0.4436604110653178 19.897778839770545  C 0.06337841719592652 19.091112262952354  0 18.235556764057996  0 17.380001204455212  C 0 17.380001204455212  0 4.619998795544787  0 4.619998795544787  C 0 3.764444146568424  0.06337841719592652 2.908891440261759  0.4436604110653178 2.10222504556885  C 0.823942562341474 1.295558650875941  1.2887356710873017 0.7822222675511818  1.9647923741809252 0  C 1.9647923741809252 0  3 1.1977801996393347  3 1.1977801996393347  C 2.5140840577309245 1.7600024089104254  2.1338041101494762 2.1511103858477574  1.8591560646797687 2.7866664335463027  C 1.647888167880401 3.2755548043899387  1.5211252470936414 3.9599986207045146  1.5211252470936414 4.766666472399697  C 1.5211252470936414 4.766666472399697  1.5211252470936414 17.2333335276003  1.5211252470936414 17.2333335276003  C 1.5211252470936414 18.040000104418496  1.647888167880401 18.724444709942638  1.8591560646797687 19.2133335664537  Z " fill-rule="evenodd" />
    </mask>
  </defs>
  <g transform="matrix(1 0 0 1 -268 -520 )">
    <path d="M 1.8591560646797687 19.2133335664537  C 2.1338041101494762 19.84888906777639  2.5140840577309245 20.2400015371374  3 20.80222368570006  C 3 20.80222368570006  1.9647923741809252 22  1.9647923741809252 22  C 1.2887356710873017 21.217777853865677  0.823942562341474 20.70444541658874  0.4436604110653178 19.897778839770545  C 0.06337841719592652 19.091112262952354  0 18.235556764057996  0 17.380001204455212  C 0 17.380001204455212  0 4.619998795544787  0 4.619998795544787  C 0 3.764444146568424  0.06337841719592652 2.908891440261759  0.4436604110653178 2.10222504556885  C 0.823942562341474 1.295558650875941  1.2887356710873017 0.7822222675511818  1.9647923741809252 0  C 1.9647923741809252 0  3 1.1977801996393347  3 1.1977801996393347  C 2.5140840577309245 1.7600024089104254  2.1338041101494762 2.1511103858477574  1.8591560646797687 2.7866664335463027  C 1.647888167880401 3.2755548043899387  1.5211252470936414 3.9599986207045146  1.5211252470936414 4.766666472399697  C 1.5211252470936414 4.766666472399697  1.5211252470936414 17.2333335276003  1.5211252470936414 17.2333335276003  C 1.5211252470936414 18.040000104418496  1.647888167880401 18.724444709942638  1.8591560646797687 19.2133335664537  Z " fill-rule="nonzero" fill="rgba(0, 0, 0, 1)" stroke="none" transform="matrix(1 0 0 1 268 520 )" class="fill" />
    <path d="M 1.8591560646797687 19.2133335664537  C 2.1338041101494762 19.84888906777639  2.5140840577309245 20.2400015371374  3 20.80222368570006  C 3 20.80222368570006  1.9647923741809252 22  1.9647923741809252 22  C 1.2887356710873017 21.217777853865677  0.823942562341474 20.70444541658874  0.4436604110653178 19.897778839770545  C 0.06337841719592652 19.091112262952354  0 18.235556764057996  0 17.380001204455212  C 0 17.380001204455212  0 4.619998795544787  0 4.619998795544787  C 0 3.764444146568424  0.06337841719592652 2.908891440261759  0.4436604110653178 2.10222504556885  C 0.823942562341474 1.295558650875941  1.2887356710873017 0.7822222675511818  1.9647923741809252 0  C 1.9647923741809252 0  3 1.1977801996393347  3 1.1977801996393347  C 2.5140840577309245 1.7600024089104254  2.1338041101494762 2.1511103858477574  1.8591560646797687 2.7866664335463027  C 1.647888167880401 3.2755548043899387  1.5211252470936414 3.9599986207045146  1.5211252470936414 4.766666472399697  C 1.5211252470936414 4.766666472399697  1.5211252470936414 17.2333335276003  1.5211252470936414 17.2333335276003  C 1.5211252470936414 18.040000104418496  1.647888167880401 18.724444709942638  1.8591560646797687 19.2133335664537  Z " stroke-width="0" stroke-dasharray="0" stroke="rgba(121, 121, 121, 1)" fill="none" transform="matrix(1 0 0 1 268 520 )" class="stroke" mask="url(#Clip4575)" />
  </g>
</svg>