<?xml version="1.0" encoding="utf-8"?>
<svg version="1.1" xmlns:xlink="http://www.w3.org/1999/xlink" width="2px" height="17px" xmlns="http://www.w3.org/2000/svg">
  <defs>
    <pattern id="BGPattern" patternUnits="userSpaceOnUse" alignment="0 0" imageRepeat="None" />
    <mask fill="white" id="Clip4542">
      <path d="M 1.8765482488500966 5.269285711737997  L 1.8765482488500966 17  L 0.09877395959247108 17  L 0.09877395959247108 5.269285711737997  L 1.8765482488500966 5.269285711737997  Z M 2 0  L 2 1.9312765949857862  L 0 1.9312765949857862  L 0 0  L 2 0  Z " fill-rule="evenodd" />
    </mask>
  </defs>
  <g transform="matrix(1 0 0 1 -425 -553 )">
    <path d="M 1.8765482488500966 5.269285711737997  L 1.8765482488500966 17  L 0.09877395959247108 17  L 0.09877395959247108 5.269285711737997  L 1.8765482488500966 5.269285711737997  Z M 2 0  L 2 1.9312765949857862  L 0 1.9312765949857862  L 0 0  L 2 0  Z " fill-rule="nonzero" fill="rgba(0, 0, 0, 1)" stroke="none" transform="matrix(1 0 0 1 425 553 )" class="fill" />
    <path d="M 1.8765482488500966 5.269285711737997  L 1.8765482488500966 17  L 0.09877395959247108 17  L 0.09877395959247108 5.269285711737997  L 1.8765482488500966 5.269285711737997  Z " stroke-width="0" stroke-dasharray="0" stroke="rgba(121, 121, 121, 1)" fill="none" transform="matrix(1 0 0 1 425 553 )" class="stroke" mask="url(#Clip4542)" />
    <path d="M 2 0  L 2 1.9312765949857862  L 0 1.9312765949857862  L 0 0  L 2 0  Z " stroke-width="0" stroke-dasharray="0" stroke="rgba(121, 121, 121, 1)" fill="none" transform="matrix(1 0 0 1 425 553 )" class="stroke" mask="url(#Clip4542)" />
  </g>
</svg>