<?xml version="1.0" encoding="utf-8"?>
<svg version="1.1" xmlns:xlink="http://www.w3.org/1999/xlink" width="23px" height="22px" xmlns="http://www.w3.org/2000/svg">
  <defs>
    <pattern id="BGPattern" patternUnits="userSpaceOnUse" alignment="0 0" imageRepeat="None" />
    <mask fill="white" id="Clip4501">
      <path d="M 16.608419108297305 19.401951984945097  L 16.608419108297305 9.224266111383962  L 18 9.224266111383962  L 18 19.401951984945097  L 16.608419108297305 19.401951984945097  Z M 8.885251167833385 2.669545025910055  C 8.546303652574588 2.1928379862139082  8.199303378183936 1.7558649784088616  7.844215711207186 1.358609901271084  C 7.844215711207186 1.358609901271084  9.151605519936822 0.5958740915293442  9.151605519936822 0.5958740915293442  C 9.522833819651725 0.9772391550077735  9.885947308629252 1.3983335147232345  10.2410354566262 1.8591495936292195  C 10.59612312360295 2.319965672535204  10.918952614072893 2.780779857179562  11.209479193157634 3.24159688321636  C 11.516146404980525 3.6865229484629958  11.742108048011673 4.091722558865041  11.887371337554043 4.457197608684122  C 11.887371337554043 4.457197608684122  10.48319256869805 5.339105205913127  10.48319256869805 5.339105205913127  C 10.337929279155679 4.973630156094046  10.120024243417971 4.560483171035293  9.829497664333232 4.099667092129308  C 9.555111717986641 3.6229600524331618  9.240339315830333 3.146251118475388  8.885251167833385 2.669545025910055  Z M 13.146305095635181 11.798476738122808  L 13.146305095635181 10.535216390115949  L 21.571623991112418 10.535216390115949  L 21.571623991112418 11.798476738122808  L 13.146305095635181 11.798476738122808  Z M 15.083192568698049 3.3369464364805856  L 15.083192568698049 1.954483992800428  L 20.361084713094456 1.954483992800428  L 20.361084713094456 3.3369464364805856  L 15.083192568698049 3.3369464364805856  Z M 12.54106624191886 17.209094108984104  L 12.54106624191886 15.92199637266119  L 22.225257324891917 15.92199637266119  L 22.225257324891917 17.209094108984104  L 12.54106624191886 17.209094108984104  Z M 13.388462207707029 14.420362141493767  L 13.388462207707029 13.157101793486909  L 21.402120169720657 13.157101793486909  L 21.402120169720657 14.420362141493767  L 13.388462207707029 14.420362141493767  Z M 13.77580275996841 2.955578531609716  C 14.679663762698935 2.0657264011164433  15.3817820083388 1.080535135797894  15.88213248383772 0  C 15.88213248383772 0  17.38316178340539 0.3813527507778527  17.38316178340539 0.3813527507778527  C 16.80210862523591 1.5890089429813474  16.027355367683473 2.701325053228752  15.058933758081139 3.718299187258439  C 14.106652300196759 4.735273321288125  13.097879830279343 5.577461093588234  12.032616348328894 6.244850191458188  C 11.951914627698732 6.149509162371285  11.838933565673061 6.038279066755846  11.69367027613069 5.911157063219432  C 11.564547138306274 5.768145046023669  11.419338685066455 5.63307377356892  11.257935243806132 5.505951770032505  C 11.112671954263762 5.378830713626905  10.97545901875226 5.275547045537361  10.846335880927843 5.196096030109805  C 11.911600324918687 4.592266986877244  12.888083833036633 3.845430662102989  13.77580275996841 2.955578531609716  Z M 19.85263481950449 2.2405174985000893  C 19.85263481950449 2.2405174985000893  19.85263481950449 1.954483992800428  19.85263481950449 1.954483992800428  L 20.167383651671106 1.954483992800428  L 20.457935243806133 1.9068243702613323  C 20.457935243806133 1.9068243702613323  21.547365180495508 2.4073640626194677  21.547365180495508 2.4073640626194677  C 20.982452174043985 3.7421422583593764  20.20776048707687 4.9180203175058015  19.223198725756582 5.934994451535488  C 18.238636964436296 6.951968585565176  17.12494052080684 7.817982380611578  15.88213248383772 8.533042466590391  C 14.65546556062695 9.232212065344449  13.388442004858721 9.788362543421643  12.081072398977392 10.201508107784177  C 11.984230526629277 10.01082557604496  11.847016629077377 9.788365384814083  11.669473036099102 9.534121851306661  C 11.491928481080429 9.263988304139891  11.322488154354781 9.057422388657024  11.161084713094457 8.914410371461262  C 12.355471332869325 8.596605836185633  13.525628003239149 8.127843803319161  14.67159320581976 7.508125693558064  C 15.833699522158717 6.888406636666154  16.866703865561963 6.133622937235192  17.770563906252093 5.243770806741918  C 18.690565060700564 4.338028662589297  19.384564647441472 3.3369426479573314  19.85263481950449 2.2405174985000893  Z M 13.824197240031587 3.718299187258439  C 13.824197240031587 3.718299187258439  15.155784288792816 3.2654342715324165  15.155784288792816 3.2654342715324165  C 15.639994612573785 4.044055359279437  16.277534934614717 4.77499788187109  17.068412951238773 5.458276993400393  C 17.875431119580785 6.141556104929696  18.78739827468512 6.7374425091596155  19.804240339441314 7.245929576174459  C 20.821083366237904 7.738526629529955  21.886315100855295 8.11195236896359  23 8.366195902471013  C 22.838596558739678 8.509207919666775  22.652980484801436 8.715773835149642  22.443155626346858 8.985907382316412  C 22.249470919610232 9.256040929483182  22.088086719157822 9.494395396462071  21.9589645433738 9.70096841542604  C 20.79685822703484 9.383163880150411  19.69933753061798 8.930296596597355  18.66635435210344 8.342358514154956  C 17.633371173588895 7.754420431712557  16.697233715584048 7.071146055837322  15.857935243806132 6.2925249680903015  C 15.034776923746168 5.498014813814747  14.356828981006814 4.639932292201221  13.824197240031587 3.718299187258439  Z M 10.337885987337875 17.352118438880446  C 10.337885987337875 17.352118438880446  11.74212632677919 17.352118438880446  11.74212632677919 17.352118438880446  C 12.113354626494091 18.13073917145341  12.629856798195716 18.766346051764657  13.291611676995355 19.258942809141775  C 13.96950670751295 19.75153956651889  14.800720191805757 20.021667586289432  15.785281953126045 20.069338241422614  C 16.221071821753156 20.08522846041696  16.737573993454777 20.093175629738667  17.33476730334221 20.093175629738667  C 17.931960613229645 20.109065848733017  18.56144384695694 20.109065848733017  19.223198725756582 20.093175629738667  C 19.901093756274175 20.093175629738667  20.554747292901983 20.077281291095254  21.184221868265716 20.045500853106553  C 21.813695481589058 20.013720415117856  22.370543703403783 19.981946888224314  22.854754989225146 19.950166453935346  C 22.757912154836635 20.140849074468075  22.661045269438237 20.395082751895465  22.564203397090118 20.71288710958407  C 22.467361524742007 21.030691526468345  22.402845171728394 21.31672899827829  22.37056390625209 21.570972472590036  C 21.918633885907028 21.58686266383641  21.40213075216501 21.602741844687078  20.821078556035925 21.61863209512913  C 20.240025397866447 21.63452234557118  19.642832087979013 21.642469483445186  19.02949766433323 21.642469483445186  C 18.416164202727845 21.642469483445186  17.818969930800016 21.642469483445186  17.237916772630538 21.642469483445186  C 16.673004728219407 21.642469483445186  16.172615771104656 21.63452234557118  15.736825902477547 21.61863209512913  C 14.607000851614888 21.5391810205059  13.662806305296408 21.245211564914968  12.904209554148654 20.736724497900124  C 12.145611840960502 20.24412771092517  11.516129088253402 19.58469448229141  11.015778131734283 18.75840311678364  C 10.57998874412737 19.266890124602806  10.128064496024683 19.775372574354936  9.659993842941468 20.283859582174102  C 9.191923670878452 20.79234658999327  8.707710460976294 21.31672343388476  8.207359023436977 21.85699082419668  C 8.207359023436977 21.85699082419668  7.2631740975224535 20.331534358806216  7.2631740975224535 20.331534358806216  C 7.731244750605667 19.93427886729871  8.239628263408333 19.47346426828462  8.788400637121708 18.949087069219075  C 9.337172529814886 18.40881961971148  9.853675182536708 17.876495637945986  10.337885987337875 17.352118438880446  Z M 8.037916772630536 9.629471404570888  L 11.790520806842366 9.629471404570888  L 11.790520806842366 18.21018864779339  L 10.2410354566262 18.21018864779339  L 10.2410354566262 11.25026226913256  L 8.037916772630536 11.25026226913256  L 8.037916772630536 9.629471404570888  Z M 3.0505146497838336 1.8353122053131627  C 3.3410409883584746 1.1838131211025567  3.5751215307986777 0.5958740915293442  3.752665604797152 0.07149701085515235  C 3.752665604797152 0.07149701085515235  5.253694904364819 0.6673862564775137  5.253694904364819 0.6673862564775137  C 4.963168565790178 1.2553243389199127  4.648457493709093 1.8670893912394186  4.309509978450295 2.5026984617906765  C 3.9867026149094507 3.1383075323419343  3.663873364949606 3.7500877387544578  3.3410662419188606 4.338025821196856  C 3.0182591188881154 4.925963903639255  2.711605135120665 5.442393609656739  2.421078556035925 5.887319674903375  C 2.421078556035925 5.887319674903375  1.2347365180495509 5.3629425942291835  1.2347365180495509 5.3629425942291835  C 1.5414033691072933 4.902126515323198  1.848057352874744 4.361855632466404  2.1547242039324863 3.742136575574495  C 2.461391054990229 3.1224184658133995  2.759988070699094 2.486811289523769  3.0505146497838336 1.8353122053131627  Z M 4.81789830145494 5.553626546664619  C 5.350530282940263 4.552542426294281  5.802454290532854 3.6309131098747516  6.173682590247754 2.788731967490338  C 6.173682590247754 2.788731967490338  7.650514649783833 3.408443447335738  7.650514649783833 3.408443447335738  C 7.198584629438771 4.282405564169663  6.682082457737147 5.219928682771794  6.101029299567667 6.221012803142132  C 5.536116774136339 7.222095976381658  4.955097768400905 8.183461218953914  4.357904458513472 9.105094323896695  C 3.7607111486260387 10.026726955274071  3.1958058384976775 10.837126176078161  2.6631740975224534 11.53629577483222  C 2.6631740975224534 11.53629577483222  1.5252881101845777 10.964243917525915  1.5252881101845777 10.964243917525915  C 2.0417795791868 10.265074318771857  2.5905093826126673 9.438780822219758  3.171562420527098 8.485367689958279  C 3.752615338186479 7.5319540841313914  4.301406712197668 6.554709719904143  4.81789830145494 5.553626546664619  Z M 1.4768320595360789 6.2925249680903015  C 1.0571827033920709 5.79992886186562  0.6456045054024842 5.347045950654141  0.2420955414865281 4.933899912726201  C 0.2420955414865281 4.933899912726201  1.0894915072746985 3.742136575574495  1.0894915072746985 3.742136575574495  C 1.5091408634187067 4.123501639052924  1.9287760294668792 4.552542426294281  2.348425265355838 5.029249465990427  C 2.7842151339829475 5.490065544896412  3.171560977466504 5.950879729540769  3.510508492725301 6.411696755577568  C 3.865596400212151 6.856622820824204  4.140022752255358 7.261822431226248  4.333707218481884 7.627297481045329  C 4.333707218481884 7.627297481045329  3.4137195325989476 9.033582158948526  3.4137195325989476 9.033582158948526  C 3.236175458600474 8.636326608245342  2.9698059543608033 8.199354074005702  2.6147180468739544 7.722647034309556  C 2.2757704113601074 7.245940941744223  1.8964814156800873 6.769232007786448  1.4768320595360789 6.2925249680903015  Z M 6.125288110184578 9.796317968690266  C 5.883182467273896 9.176599385363764  5.6249313814230835 8.60455463153856  5.350545435076494 8.080177550864368  C 5.350545435076494 8.080177550864368  6.609479193157634 7.6749722576774415  6.609479193157634 7.6749722576774415  C 6.900005291222176 8.183459324692286  7.174370553700259 8.739609802769479  7.432616348328895 9.343437898871226  C 7.6908621429575295 9.94726646853838  7.916824267008874 10.535205024546187  8.110508492725302 11.107253093329238  C 8.304193199461928 11.663410674887531  8.44140613497343 12.163961259250025  8.522107855603592 12.60888732449666  C 8.522107855603592 12.60888732449666  7.142126326779189 13.109427016854797  7.142126326779189 13.109427016854797  C 7.0775647578669805 12.648610464383404  6.948408429648914 12.132180758365921  6.754724203932486 11.560133163148276  C 6.577180129934012 10.988085094365227  6.367393272075063 10.400146064792013  6.125288110184578 9.796317968690266  Z M 0.41159936287829096 12.275194196257903  C 0.41159936287829096 12.275194196257903  0.21789830145493969 10.702062954235329  0.21789830145493969 10.702062954235329  C 1.1540392468562193 10.670282453351223  2.2515604242932765 10.630546527198497  3.510508492725301 10.582876012655046  C 4.785596833130328 10.519315010886839  6.101084616890418 10.45575258842241  7.456875158945805 10.39219206021961  C 7.456875158945805 10.39219206021961  7.456875158945805 11.84615151475492  7.456875158945805 11.84615151475492  C 6.19792697025873 11.925602530182475  4.955074198411211 12.005059228394913  3.7284067941802412 12.08451024382247  C 2.517879782177323 12.148071245590675  1.4123017569367295 12.211633194489696  0.41159936287829096 12.275194196257903  Z M 6.633676433189223 16.041168160148455  C 6.439992207472795 15.26254730918414  6.21403008342145 14.539536770373472  5.955784288792815 13.87214767250352  C 5.955784288792815 13.87214767250352  7.214718046873955 13.562291932580816  7.214718046873955 13.562291932580816  C 7.489104474240741 14.19790076634937  7.73124186448448 14.905016792629324  7.94106624191886 15.683637643593642  C 8.150891100373439 16.446368007333206  8.296161124198578 17.105816478853495  8.37686284482874 17.661974178803145  C 8.37686284482874 17.661974178803145  7.045275796067513 18.06717947199007  7.045275796067513 18.06717947199007  C 6.980714708175503 17.49513152159837  6.843501291643801 16.819788774330068  6.633676433189223 16.041168160148455  Z M 0.9199876858829356 16.78006658157414  C 1.1459528163105164 15.763092684327155  1.3235119221901728 14.738165256073176  1.4526348195044905 13.705301108384141  C 1.4526348195044905 13.705301108384141  2.881072398977393 13.943659837451687  2.881072398977393 13.943659837451687  C 2.735809349945122 15.055975237350983  2.52596092150085 16.15239659828497  2.251574734644162 17.23293149730016  C 1.9933289400155265 18.313466396315352  1.6866749562480758 19.235110748436544  1.3315870487612267 19.99784123056746  C 1.1863237592188567 19.902499912901636  0.9684186032260979 19.791254700190475  0.6778921443964075 19.664132948235686  C 0.4035060176672444 19.53701121107981  0.17754395374342466 19.441675480005898  0 19.37811459662904  C 0.3873686318154288 18.64716449699088  0.6940226757104041 17.781150465161776  0.9199876858829356 16.78006658157414  Z M 4 22  L 4 11.32177443408073  L 5.277892144396407 11.32177443408073  L 5.277892144396407 22  L 4 22  Z " fill-rule="evenodd" />
    </mask>
  </defs>
  <g transform="matrix(1 0 0 1 -920 -612 )">
    <path d="M 16.608419108297305 19.401951984945097  L 16.608419108297305 9.224266111383962  L 18 9.224266111383962  L 18 19.401951984945097  L 16.608419108297305 19.401951984945097  Z M 8.885251167833385 2.669545025910055  C 8.546303652574588 2.1928379862139082  8.199303378183936 1.7558649784088616  7.844215711207186 1.358609901271084  C 7.844215711207186 1.358609901271084  9.151605519936822 0.5958740915293442  9.151605519936822 0.5958740915293442  C 9.522833819651725 0.9772391550077735  9.885947308629252 1.3983335147232345  10.2410354566262 1.8591495936292195  C 10.59612312360295 2.319965672535204  10.918952614072893 2.780779857179562  11.209479193157634 3.24159688321636  C 11.516146404980525 3.6865229484629958  11.742108048011673 4.091722558865041  11.887371337554043 4.457197608684122  C 11.887371337554043 4.457197608684122  10.48319256869805 5.339105205913127  10.48319256869805 5.339105205913127  C 10.337929279155679 4.973630156094046  10.120024243417971 4.560483171035293  9.829497664333232 4.099667092129308  C 9.555111717986641 3.6229600524331618  9.240339315830333 3.146251118475388  8.885251167833385 2.669545025910055  Z M 13.146305095635181 11.798476738122808  L 13.146305095635181 10.535216390115949  L 21.571623991112418 10.535216390115949  L 21.571623991112418 11.798476738122808  L 13.146305095635181 11.798476738122808  Z M 15.083192568698049 3.3369464364805856  L 15.083192568698049 1.954483992800428  L 20.361084713094456 1.954483992800428  L 20.361084713094456 3.3369464364805856  L 15.083192568698049 3.3369464364805856  Z M 12.54106624191886 17.209094108984104  L 12.54106624191886 15.92199637266119  L 22.225257324891917 15.92199637266119  L 22.225257324891917 17.209094108984104  L 12.54106624191886 17.209094108984104  Z M 13.388462207707029 14.420362141493767  L 13.388462207707029 13.157101793486909  L 21.402120169720657 13.157101793486909  L 21.402120169720657 14.420362141493767  L 13.388462207707029 14.420362141493767  Z M 13.77580275996841 2.955578531609716  C 14.679663762698935 2.0657264011164433  15.3817820083388 1.080535135797894  15.88213248383772 0  C 15.88213248383772 0  17.38316178340539 0.3813527507778527  17.38316178340539 0.3813527507778527  C 16.80210862523591 1.5890089429813474  16.027355367683473 2.701325053228752  15.058933758081139 3.718299187258439  C 14.106652300196759 4.735273321288125  13.097879830279343 5.577461093588234  12.032616348328894 6.244850191458188  C 11.951914627698732 6.149509162371285  11.838933565673061 6.038279066755846  11.69367027613069 5.911157063219432  C 11.564547138306274 5.768145046023669  11.419338685066455 5.63307377356892  11.257935243806132 5.505951770032505  C 11.112671954263762 5.378830713626905  10.97545901875226 5.275547045537361  10.846335880927843 5.196096030109805  C 11.911600324918687 4.592266986877244  12.888083833036633 3.845430662102989  13.77580275996841 2.955578531609716  Z M 19.85263481950449 2.2405174985000893  C 19.85263481950449 2.2405174985000893  19.85263481950449 1.954483992800428  19.85263481950449 1.954483992800428  L 20.167383651671106 1.954483992800428  L 20.457935243806133 1.9068243702613323  C 20.457935243806133 1.9068243702613323  21.547365180495508 2.4073640626194677  21.547365180495508 2.4073640626194677  C 20.982452174043985 3.7421422583593764  20.20776048707687 4.9180203175058015  19.223198725756582 5.934994451535488  C 18.238636964436296 6.951968585565176  17.12494052080684 7.817982380611578  15.88213248383772 8.533042466590391  C 14.65546556062695 9.232212065344449  13.388442004858721 9.788362543421643  12.081072398977392 10.201508107784177  C 11.984230526629277 10.01082557604496  11.847016629077377 9.788365384814083  11.669473036099102 9.534121851306661  C 11.491928481080429 9.263988304139891  11.322488154354781 9.057422388657024  11.161084713094457 8.914410371461262  C 12.355471332869325 8.596605836185633  13.525628003239149 8.127843803319161  14.67159320581976 7.508125693558064  C 15.833699522158717 6.888406636666154  16.866703865561963 6.133622937235192  17.770563906252093 5.243770806741918  C 18.690565060700564 4.338028662589297  19.384564647441472 3.3369426479573314  19.85263481950449 2.2405174985000893  Z M 13.824197240031587 3.718299187258439  C 13.824197240031587 3.718299187258439  15.155784288792816 3.2654342715324165  15.155784288792816 3.2654342715324165  C 15.639994612573785 4.044055359279437  16.277534934614717 4.77499788187109  17.068412951238773 5.458276993400393  C 17.875431119580785 6.141556104929696  18.78739827468512 6.7374425091596155  19.804240339441314 7.245929576174459  C 20.821083366237904 7.738526629529955  21.886315100855295 8.11195236896359  23 8.366195902471013  C 22.838596558739678 8.509207919666775  22.652980484801436 8.715773835149642  22.443155626346858 8.985907382316412  C 22.249470919610232 9.256040929483182  22.088086719157822 9.494395396462071  21.9589645433738 9.70096841542604  C 20.79685822703484 9.383163880150411  19.69933753061798 8.930296596597355  18.66635435210344 8.342358514154956  C 17.633371173588895 7.754420431712557  16.697233715584048 7.071146055837322  15.857935243806132 6.2925249680903015  C 15.034776923746168 5.498014813814747  14.356828981006814 4.639932292201221  13.824197240031587 3.718299187258439  Z M 10.337885987337875 17.352118438880446  C 10.337885987337875 17.352118438880446  11.74212632677919 17.352118438880446  11.74212632677919 17.352118438880446  C 12.113354626494091 18.13073917145341  12.629856798195716 18.766346051764657  13.291611676995355 19.258942809141775  C 13.96950670751295 19.75153956651889  14.800720191805757 20.021667586289432  15.785281953126045 20.069338241422614  C 16.221071821753156 20.08522846041696  16.737573993454777 20.093175629738667  17.33476730334221 20.093175629738667  C 17.931960613229645 20.109065848733017  18.56144384695694 20.109065848733017  19.223198725756582 20.093175629738667  C 19.901093756274175 20.093175629738667  20.554747292901983 20.077281291095254  21.184221868265716 20.045500853106553  C 21.813695481589058 20.013720415117856  22.370543703403783 19.981946888224314  22.854754989225146 19.950166453935346  C 22.757912154836635 20.140849074468075  22.661045269438237 20.395082751895465  22.564203397090118 20.71288710958407  C 22.467361524742007 21.030691526468345  22.402845171728394 21.31672899827829  22.37056390625209 21.570972472590036  C 21.918633885907028 21.58686266383641  21.40213075216501 21.602741844687078  20.821078556035925 21.61863209512913  C 20.240025397866447 21.63452234557118  19.642832087979013 21.642469483445186  19.02949766433323 21.642469483445186  C 18.416164202727845 21.642469483445186  17.818969930800016 21.642469483445186  17.237916772630538 21.642469483445186  C 16.673004728219407 21.642469483445186  16.172615771104656 21.63452234557118  15.736825902477547 21.61863209512913  C 14.607000851614888 21.5391810205059  13.662806305296408 21.245211564914968  12.904209554148654 20.736724497900124  C 12.145611840960502 20.24412771092517  11.516129088253402 19.58469448229141  11.015778131734283 18.75840311678364  C 10.57998874412737 19.266890124602806  10.128064496024683 19.775372574354936  9.659993842941468 20.283859582174102  C 9.191923670878452 20.79234658999327  8.707710460976294 21.31672343388476  8.207359023436977 21.85699082419668  C 8.207359023436977 21.85699082419668  7.2631740975224535 20.331534358806216  7.2631740975224535 20.331534358806216  C 7.731244750605667 19.93427886729871  8.239628263408333 19.47346426828462  8.788400637121708 18.949087069219075  C 9.337172529814886 18.40881961971148  9.853675182536708 17.876495637945986  10.337885987337875 17.352118438880446  Z M 8.037916772630536 9.629471404570888  L 11.790520806842366 9.629471404570888  L 11.790520806842366 18.21018864779339  L 10.2410354566262 18.21018864779339  L 10.2410354566262 11.25026226913256  L 8.037916772630536 11.25026226913256  L 8.037916772630536 9.629471404570888  Z M 3.0505146497838336 1.8353122053131627  C 3.3410409883584746 1.1838131211025567  3.5751215307986777 0.5958740915293442  3.752665604797152 0.07149701085515235  C 3.752665604797152 0.07149701085515235  5.253694904364819 0.6673862564775137  5.253694904364819 0.6673862564775137  C 4.963168565790178 1.2553243389199127  4.648457493709093 1.8670893912394186  4.309509978450295 2.5026984617906765  C 3.9867026149094507 3.1383075323419343  3.663873364949606 3.7500877387544578  3.3410662419188606 4.338025821196856  C 3.0182591188881154 4.925963903639255  2.711605135120665 5.442393609656739  2.421078556035925 5.887319674903375  C 2.421078556035925 5.887319674903375  1.2347365180495509 5.3629425942291835  1.2347365180495509 5.3629425942291835  C 1.5414033691072933 4.902126515323198  1.848057352874744 4.361855632466404  2.1547242039324863 3.742136575574495  C 2.461391054990229 3.1224184658133995  2.759988070699094 2.486811289523769  3.0505146497838336 1.8353122053131627  Z M 4.81789830145494 5.553626546664619  C 5.350530282940263 4.552542426294281  5.802454290532854 3.6309131098747516  6.173682590247754 2.788731967490338  C 6.173682590247754 2.788731967490338  7.650514649783833 3.408443447335738  7.650514649783833 3.408443447335738  C 7.198584629438771 4.282405564169663  6.682082457737147 5.219928682771794  6.101029299567667 6.221012803142132  C 5.536116774136339 7.222095976381658  4.955097768400905 8.183461218953914  4.357904458513472 9.105094323896695  C 3.7607111486260387 10.026726955274071  3.1958058384976775 10.837126176078161  2.6631740975224534 11.53629577483222  C 2.6631740975224534 11.53629577483222  1.5252881101845777 10.964243917525915  1.5252881101845777 10.964243917525915  C 2.0417795791868 10.265074318771857  2.5905093826126673 9.438780822219758  3.171562420527098 8.485367689958279  C 3.752615338186479 7.5319540841313914  4.301406712197668 6.554709719904143  4.81789830145494 5.553626546664619  Z M 1.4768320595360789 6.2925249680903015  C 1.0571827033920709 5.79992886186562  0.6456045054024842 5.347045950654141  0.2420955414865281 4.933899912726201  C 0.2420955414865281 4.933899912726201  1.0894915072746985 3.742136575574495  1.0894915072746985 3.742136575574495  C 1.5091408634187067 4.123501639052924  1.9287760294668792 4.552542426294281  2.348425265355838 5.029249465990427  C 2.7842151339829475 5.490065544896412  3.171560977466504 5.950879729540769  3.510508492725301 6.411696755577568  C 3.865596400212151 6.856622820824204  4.140022752255358 7.261822431226248  4.333707218481884 7.627297481045329  C 4.333707218481884 7.627297481045329  3.4137195325989476 9.033582158948526  3.4137195325989476 9.033582158948526  C 3.236175458600474 8.636326608245342  2.9698059543608033 8.199354074005702  2.6147180468739544 7.722647034309556  C 2.2757704113601074 7.245940941744223  1.8964814156800873 6.769232007786448  1.4768320595360789 6.2925249680903015  Z M 6.125288110184578 9.796317968690266  C 5.883182467273896 9.176599385363764  5.6249313814230835 8.60455463153856  5.350545435076494 8.080177550864368  C 5.350545435076494 8.080177550864368  6.609479193157634 7.6749722576774415  6.609479193157634 7.6749722576774415  C 6.900005291222176 8.183459324692286  7.174370553700259 8.739609802769479  7.432616348328895 9.343437898871226  C 7.6908621429575295 9.94726646853838  7.916824267008874 10.535205024546187  8.110508492725302 11.107253093329238  C 8.304193199461928 11.663410674887531  8.44140613497343 12.163961259250025  8.522107855603592 12.60888732449666  C 8.522107855603592 12.60888732449666  7.142126326779189 13.109427016854797  7.142126326779189 13.109427016854797  C 7.0775647578669805 12.648610464383404  6.948408429648914 12.132180758365921  6.754724203932486 11.560133163148276  C 6.577180129934012 10.988085094365227  6.367393272075063 10.400146064792013  6.125288110184578 9.796317968690266  Z M 0.41159936287829096 12.275194196257903  C 0.41159936287829096 12.275194196257903  0.21789830145493969 10.702062954235329  0.21789830145493969 10.702062954235329  C 1.1540392468562193 10.670282453351223  2.2515604242932765 10.630546527198497  3.510508492725301 10.582876012655046  C 4.785596833130328 10.519315010886839  6.101084616890418 10.45575258842241  7.456875158945805 10.39219206021961  C 7.456875158945805 10.39219206021961  7.456875158945805 11.84615151475492  7.456875158945805 11.84615151475492  C 6.19792697025873 11.925602530182475  4.955074198411211 12.005059228394913  3.7284067941802412 12.08451024382247  C 2.517879782177323 12.148071245590675  1.4123017569367295 12.211633194489696  0.41159936287829096 12.275194196257903  Z M 6.633676433189223 16.041168160148455  C 6.439992207472795 15.26254730918414  6.21403008342145 14.539536770373472  5.955784288792815 13.87214767250352  C 5.955784288792815 13.87214767250352  7.214718046873955 13.562291932580816  7.214718046873955 13.562291932580816  C 7.489104474240741 14.19790076634937  7.73124186448448 14.905016792629324  7.94106624191886 15.683637643593642  C 8.150891100373439 16.446368007333206  8.296161124198578 17.105816478853495  8.37686284482874 17.661974178803145  C 8.37686284482874 17.661974178803145  7.045275796067513 18.06717947199007  7.045275796067513 18.06717947199007  C 6.980714708175503 17.49513152159837  6.843501291643801 16.819788774330068  6.633676433189223 16.041168160148455  Z M 0.9199876858829356 16.78006658157414  C 1.1459528163105164 15.763092684327155  1.3235119221901728 14.738165256073176  1.4526348195044905 13.705301108384141  C 1.4526348195044905 13.705301108384141  2.881072398977393 13.943659837451687  2.881072398977393 13.943659837451687  C 2.735809349945122 15.055975237350983  2.52596092150085 16.15239659828497  2.251574734644162 17.23293149730016  C 1.9933289400155265 18.313466396315352  1.6866749562480758 19.235110748436544  1.3315870487612267 19.99784123056746  C 1.1863237592188567 19.902499912901636  0.9684186032260979 19.791254700190475  0.6778921443964075 19.664132948235686  C 0.4035060176672444 19.53701121107981  0.17754395374342466 19.441675480005898  0 19.37811459662904  C 0.3873686318154288 18.64716449699088  0.6940226757104041 17.781150465161776  0.9199876858829356 16.78006658157414  Z M 4 22  L 4 11.32177443408073  L 5.277892144396407 11.32177443408073  L 5.277892144396407 22  L 4 22  Z " fill-rule="nonzero" fill="rgba(0, 0, 0, 1)" stroke="none" transform="matrix(1 0 0 1 920 612 )" class="fill" />
    <path d="M 16.608419108297305 19.401951984945097  L 16.608419108297305 9.224266111383962  L 18 9.224266111383962  L 18 19.401951984945097  L 16.608419108297305 19.401951984945097  Z " stroke-width="0" stroke-dasharray="0" stroke="rgba(121, 121, 121, 1)" fill="none" transform="matrix(1 0 0 1 920 612 )" class="stroke" mask="url(#Clip4501)" />
    <path d="M 8.885251167833385 2.669545025910055  C 8.546303652574588 2.1928379862139082  8.199303378183936 1.7558649784088616  7.844215711207186 1.358609901271084  C 7.844215711207186 1.358609901271084  9.151605519936822 0.5958740915293442  9.151605519936822 0.5958740915293442  C 9.522833819651725 0.9772391550077735  9.885947308629252 1.3983335147232345  10.2410354566262 1.8591495936292195  C 10.59612312360295 2.319965672535204  10.918952614072893 2.780779857179562  11.209479193157634 3.24159688321636  C 11.516146404980525 3.6865229484629958  11.742108048011673 4.091722558865041  11.887371337554043 4.457197608684122  C 11.887371337554043 4.457197608684122  10.48319256869805 5.339105205913127  10.48319256869805 5.339105205913127  C 10.337929279155679 4.973630156094046  10.120024243417971 4.560483171035293  9.829497664333232 4.099667092129308  C 9.555111717986641 3.6229600524331618  9.240339315830333 3.146251118475388  8.885251167833385 2.669545025910055  Z " stroke-width="0" stroke-dasharray="0" stroke="rgba(121, 121, 121, 1)" fill="none" transform="matrix(1 0 0 1 920 612 )" class="stroke" mask="url(#Clip4501)" />
    <path d="M 13.146305095635181 11.798476738122808  L 13.146305095635181 10.535216390115949  L 21.571623991112418 10.535216390115949  L 21.571623991112418 11.798476738122808  L 13.146305095635181 11.798476738122808  Z " stroke-width="0" stroke-dasharray="0" stroke="rgba(121, 121, 121, 1)" fill="none" transform="matrix(1 0 0 1 920 612 )" class="stroke" mask="url(#Clip4501)" />
    <path d="M 15.083192568698049 3.3369464364805856  L 15.083192568698049 1.954483992800428  L 20.361084713094456 1.954483992800428  L 20.361084713094456 3.3369464364805856  L 15.083192568698049 3.3369464364805856  Z " stroke-width="0" stroke-dasharray="0" stroke="rgba(121, 121, 121, 1)" fill="none" transform="matrix(1 0 0 1 920 612 )" class="stroke" mask="url(#Clip4501)" />
    <path d="M 12.54106624191886 17.209094108984104  L 12.54106624191886 15.92199637266119  L 22.225257324891917 15.92199637266119  L 22.225257324891917 17.209094108984104  L 12.54106624191886 17.209094108984104  Z " stroke-width="0" stroke-dasharray="0" stroke="rgba(121, 121, 121, 1)" fill="none" transform="matrix(1 0 0 1 920 612 )" class="stroke" mask="url(#Clip4501)" />
    <path d="M 13.388462207707029 14.420362141493767  L 13.388462207707029 13.157101793486909  L 21.402120169720657 13.157101793486909  L 21.402120169720657 14.420362141493767  L 13.388462207707029 14.420362141493767  Z " stroke-width="0" stroke-dasharray="0" stroke="rgba(121, 121, 121, 1)" fill="none" transform="matrix(1 0 0 1 920 612 )" class="stroke" mask="url(#Clip4501)" />
    <path d="M 13.77580275996841 2.955578531609716  C 14.679663762698935 2.0657264011164433  15.3817820083388 1.080535135797894  15.88213248383772 0  C 15.88213248383772 0  17.38316178340539 0.3813527507778527  17.38316178340539 0.3813527507778527  C 16.80210862523591 1.5890089429813474  16.027355367683473 2.701325053228752  15.058933758081139 3.718299187258439  C 14.106652300196759 4.735273321288125  13.097879830279343 5.577461093588234  12.032616348328894 6.244850191458188  C 11.951914627698732 6.149509162371285  11.838933565673061 6.038279066755846  11.69367027613069 5.911157063219432  C 11.564547138306274 5.768145046023669  11.419338685066455 5.63307377356892  11.257935243806132 5.505951770032505  C 11.112671954263762 5.378830713626905  10.97545901875226 5.275547045537361  10.846335880927843 5.196096030109805  C 11.911600324918687 4.592266986877244  12.888083833036633 3.845430662102989  13.77580275996841 2.955578531609716  Z " stroke-width="0" stroke-dasharray="0" stroke="rgba(121, 121, 121, 1)" fill="none" transform="matrix(1 0 0 1 920 612 )" class="stroke" mask="url(#Clip4501)" />
    <path d="M 19.85263481950449 2.2405174985000893  C 19.85263481950449 2.2405174985000893  19.85263481950449 1.954483992800428  19.85263481950449 1.954483992800428  L 20.167383651671106 1.954483992800428  L 20.457935243806133 1.9068243702613323  C 20.457935243806133 1.9068243702613323  21.547365180495508 2.4073640626194677  21.547365180495508 2.4073640626194677  C 20.982452174043985 3.7421422583593764  20.20776048707687 4.9180203175058015  19.223198725756582 5.934994451535488  C 18.238636964436296 6.951968585565176  17.12494052080684 7.817982380611578  15.88213248383772 8.533042466590391  C 14.65546556062695 9.232212065344449  13.388442004858721 9.788362543421643  12.081072398977392 10.201508107784177  C 11.984230526629277 10.01082557604496  11.847016629077377 9.788365384814083  11.669473036099102 9.534121851306661  C 11.491928481080429 9.263988304139891  11.322488154354781 9.057422388657024  11.161084713094457 8.914410371461262  C 12.355471332869325 8.596605836185633  13.525628003239149 8.127843803319161  14.67159320581976 7.508125693558064  C 15.833699522158717 6.888406636666154  16.866703865561963 6.133622937235192  17.770563906252093 5.243770806741918  C 18.690565060700564 4.338028662589297  19.384564647441472 3.3369426479573314  19.85263481950449 2.2405174985000893  Z " stroke-width="0" stroke-dasharray="0" stroke="rgba(121, 121, 121, 1)" fill="none" transform="matrix(1 0 0 1 920 612 )" class="stroke" mask="url(#Clip4501)" />
    <path d="M 13.824197240031587 3.718299187258439  C 13.824197240031587 3.718299187258439  15.155784288792816 3.2654342715324165  15.155784288792816 3.2654342715324165  C 15.639994612573785 4.044055359279437  16.277534934614717 4.77499788187109  17.068412951238773 5.458276993400393  C 17.875431119580785 6.141556104929696  18.78739827468512 6.7374425091596155  19.804240339441314 7.245929576174459  C 20.821083366237904 7.738526629529955  21.886315100855295 8.11195236896359  23 8.366195902471013  C 22.838596558739678 8.509207919666775  22.652980484801436 8.715773835149642  22.443155626346858 8.985907382316412  C 22.249470919610232 9.256040929483182  22.088086719157822 9.494395396462071  21.9589645433738 9.70096841542604  C 20.79685822703484 9.383163880150411  19.69933753061798 8.930296596597355  18.66635435210344 8.342358514154956  C 17.633371173588895 7.754420431712557  16.697233715584048 7.071146055837322  15.857935243806132 6.2925249680903015  C 15.034776923746168 5.498014813814747  14.356828981006814 4.639932292201221  13.824197240031587 3.718299187258439  Z " stroke-width="0" stroke-dasharray="0" stroke="rgba(121, 121, 121, 1)" fill="none" transform="matrix(1 0 0 1 920 612 )" class="stroke" mask="url(#Clip4501)" />
    <path d="M 10.337885987337875 17.352118438880446  C 10.337885987337875 17.352118438880446  11.74212632677919 17.352118438880446  11.74212632677919 17.352118438880446  C 12.113354626494091 18.13073917145341  12.629856798195716 18.766346051764657  13.291611676995355 19.258942809141775  C 13.96950670751295 19.75153956651889  14.800720191805757 20.021667586289432  15.785281953126045 20.069338241422614  C 16.221071821753156 20.08522846041696  16.737573993454777 20.093175629738667  17.33476730334221 20.093175629738667  C 17.931960613229645 20.109065848733017  18.56144384695694 20.109065848733017  19.223198725756582 20.093175629738667  C 19.901093756274175 20.093175629738667  20.554747292901983 20.077281291095254  21.184221868265716 20.045500853106553  C 21.813695481589058 20.013720415117856  22.370543703403783 19.981946888224314  22.854754989225146 19.950166453935346  C 22.757912154836635 20.140849074468075  22.661045269438237 20.395082751895465  22.564203397090118 20.71288710958407  C 22.467361524742007 21.030691526468345  22.402845171728394 21.31672899827829  22.37056390625209 21.570972472590036  C 21.918633885907028 21.58686266383641  21.40213075216501 21.602741844687078  20.821078556035925 21.61863209512913  C 20.240025397866447 21.63452234557118  19.642832087979013 21.642469483445186  19.02949766433323 21.642469483445186  C 18.416164202727845 21.642469483445186  17.818969930800016 21.642469483445186  17.237916772630538 21.642469483445186  C 16.673004728219407 21.642469483445186  16.172615771104656 21.63452234557118  15.736825902477547 21.61863209512913  C 14.607000851614888 21.5391810205059  13.662806305296408 21.245211564914968  12.904209554148654 20.736724497900124  C 12.145611840960502 20.24412771092517  11.516129088253402 19.58469448229141  11.015778131734283 18.75840311678364  C 10.57998874412737 19.266890124602806  10.128064496024683 19.775372574354936  9.659993842941468 20.283859582174102  C 9.191923670878452 20.79234658999327  8.707710460976294 21.31672343388476  8.207359023436977 21.85699082419668  C 8.207359023436977 21.85699082419668  7.2631740975224535 20.331534358806216  7.2631740975224535 20.331534358806216  C 7.731244750605667 19.93427886729871  8.239628263408333 19.47346426828462  8.788400637121708 18.949087069219075  C 9.337172529814886 18.40881961971148  9.853675182536708 17.876495637945986  10.337885987337875 17.352118438880446  Z " stroke-width="0" stroke-dasharray="0" stroke="rgba(121, 121, 121, 1)" fill="none" transform="matrix(1 0 0 1 920 612 )" class="stroke" mask="url(#Clip4501)" />
    <path d="M 8.037916772630536 9.629471404570888  L 11.790520806842366 9.629471404570888  L 11.790520806842366 18.21018864779339  L 10.2410354566262 18.21018864779339  L 10.2410354566262 11.25026226913256  L 8.037916772630536 11.25026226913256  L 8.037916772630536 9.629471404570888  Z " stroke-width="0" stroke-dasharray="0" stroke="rgba(121, 121, 121, 1)" fill="none" transform="matrix(1 0 0 1 920 612 )" class="stroke" mask="url(#Clip4501)" />
    <path d="M 3.0505146497838336 1.8353122053131627  C 3.3410409883584746 1.1838131211025567  3.5751215307986777 0.5958740915293442  3.752665604797152 0.07149701085515235  C 3.752665604797152 0.07149701085515235  5.253694904364819 0.6673862564775137  5.253694904364819 0.6673862564775137  C 4.963168565790178 1.2553243389199127  4.648457493709093 1.8670893912394186  4.309509978450295 2.5026984617906765  C 3.9867026149094507 3.1383075323419343  3.663873364949606 3.7500877387544578  3.3410662419188606 4.338025821196856  C 3.0182591188881154 4.925963903639255  2.711605135120665 5.442393609656739  2.421078556035925 5.887319674903375  C 2.421078556035925 5.887319674903375  1.2347365180495509 5.3629425942291835  1.2347365180495509 5.3629425942291835  C 1.5414033691072933 4.902126515323198  1.848057352874744 4.361855632466404  2.1547242039324863 3.742136575574495  C 2.461391054990229 3.1224184658133995  2.759988070699094 2.486811289523769  3.0505146497838336 1.8353122053131627  Z " stroke-width="0" stroke-dasharray="0" stroke="rgba(121, 121, 121, 1)" fill="none" transform="matrix(1 0 0 1 920 612 )" class="stroke" mask="url(#Clip4501)" />
    <path d="M 4.81789830145494 5.553626546664619  C 5.350530282940263 4.552542426294281  5.802454290532854 3.6309131098747516  6.173682590247754 2.788731967490338  C 6.173682590247754 2.788731967490338  7.650514649783833 3.408443447335738  7.650514649783833 3.408443447335738  C 7.198584629438771 4.282405564169663  6.682082457737147 5.219928682771794  6.101029299567667 6.221012803142132  C 5.536116774136339 7.222095976381658  4.955097768400905 8.183461218953914  4.357904458513472 9.105094323896695  C 3.7607111486260387 10.026726955274071  3.1958058384976775 10.837126176078161  2.6631740975224534 11.53629577483222  C 2.6631740975224534 11.53629577483222  1.5252881101845777 10.964243917525915  1.5252881101845777 10.964243917525915  C 2.0417795791868 10.265074318771857  2.5905093826126673 9.438780822219758  3.171562420527098 8.485367689958279  C 3.752615338186479 7.5319540841313914  4.301406712197668 6.554709719904143  4.81789830145494 5.553626546664619  Z " stroke-width="0" stroke-dasharray="0" stroke="rgba(121, 121, 121, 1)" fill="none" transform="matrix(1 0 0 1 920 612 )" class="stroke" mask="url(#Clip4501)" />
    <path d="M 1.4768320595360789 6.2925249680903015  C 1.0571827033920709 5.79992886186562  0.6456045054024842 5.347045950654141  0.2420955414865281 4.933899912726201  C 0.2420955414865281 4.933899912726201  1.0894915072746985 3.742136575574495  1.0894915072746985 3.742136575574495  C 1.5091408634187067 4.123501639052924  1.9287760294668792 4.552542426294281  2.348425265355838 5.029249465990427  C 2.7842151339829475 5.490065544896412  3.171560977466504 5.950879729540769  3.510508492725301 6.411696755577568  C 3.865596400212151 6.856622820824204  4.140022752255358 7.261822431226248  4.333707218481884 7.627297481045329  C 4.333707218481884 7.627297481045329  3.4137195325989476 9.033582158948526  3.4137195325989476 9.033582158948526  C 3.236175458600474 8.636326608245342  2.9698059543608033 8.199354074005702  2.6147180468739544 7.722647034309556  C 2.2757704113601074 7.245940941744223  1.8964814156800873 6.769232007786448  1.4768320595360789 6.2925249680903015  Z " stroke-width="0" stroke-dasharray="0" stroke="rgba(121, 121, 121, 1)" fill="none" transform="matrix(1 0 0 1 920 612 )" class="stroke" mask="url(#Clip4501)" />
    <path d="M 6.125288110184578 9.796317968690266  C 5.883182467273896 9.176599385363764  5.6249313814230835 8.60455463153856  5.350545435076494 8.080177550864368  C 5.350545435076494 8.080177550864368  6.609479193157634 7.6749722576774415  6.609479193157634 7.6749722576774415  C 6.900005291222176 8.183459324692286  7.174370553700259 8.739609802769479  7.432616348328895 9.343437898871226  C 7.6908621429575295 9.94726646853838  7.916824267008874 10.535205024546187  8.110508492725302 11.107253093329238  C 8.304193199461928 11.663410674887531  8.44140613497343 12.163961259250025  8.522107855603592 12.60888732449666  C 8.522107855603592 12.60888732449666  7.142126326779189 13.109427016854797  7.142126326779189 13.109427016854797  C 7.0775647578669805 12.648610464383404  6.948408429648914 12.132180758365921  6.754724203932486 11.560133163148276  C 6.577180129934012 10.988085094365227  6.367393272075063 10.400146064792013  6.125288110184578 9.796317968690266  Z " stroke-width="0" stroke-dasharray="0" stroke="rgba(121, 121, 121, 1)" fill="none" transform="matrix(1 0 0 1 920 612 )" class="stroke" mask="url(#Clip4501)" />
    <path d="M 0.41159936287829096 12.275194196257903  C 0.41159936287829096 12.275194196257903  0.21789830145493969 10.702062954235329  0.21789830145493969 10.702062954235329  C 1.1540392468562193 10.670282453351223  2.2515604242932765 10.630546527198497  3.510508492725301 10.582876012655046  C 4.785596833130328 10.519315010886839  6.101084616890418 10.45575258842241  7.456875158945805 10.39219206021961  C 7.456875158945805 10.39219206021961  7.456875158945805 11.84615151475492  7.456875158945805 11.84615151475492  C 6.19792697025873 11.925602530182475  4.955074198411211 12.005059228394913  3.7284067941802412 12.08451024382247  C 2.517879782177323 12.148071245590675  1.4123017569367295 12.211633194489696  0.41159936287829096 12.275194196257903  Z " stroke-width="0" stroke-dasharray="0" stroke="rgba(121, 121, 121, 1)" fill="none" transform="matrix(1 0 0 1 920 612 )" class="stroke" mask="url(#Clip4501)" />
    <path d="M 6.633676433189223 16.041168160148455  C 6.439992207472795 15.26254730918414  6.21403008342145 14.539536770373472  5.955784288792815 13.87214767250352  C 5.955784288792815 13.87214767250352  7.214718046873955 13.562291932580816  7.214718046873955 13.562291932580816  C 7.489104474240741 14.19790076634937  7.73124186448448 14.905016792629324  7.94106624191886 15.683637643593642  C 8.150891100373439 16.446368007333206  8.296161124198578 17.105816478853495  8.37686284482874 17.661974178803145  C 8.37686284482874 17.661974178803145  7.045275796067513 18.06717947199007  7.045275796067513 18.06717947199007  C 6.980714708175503 17.49513152159837  6.843501291643801 16.819788774330068  6.633676433189223 16.041168160148455  Z " stroke-width="0" stroke-dasharray="0" stroke="rgba(121, 121, 121, 1)" fill="none" transform="matrix(1 0 0 1 920 612 )" class="stroke" mask="url(#Clip4501)" />
    <path d="M 0.9199876858829356 16.78006658157414  C 1.1459528163105164 15.763092684327155  1.3235119221901728 14.738165256073176  1.4526348195044905 13.705301108384141  C 1.4526348195044905 13.705301108384141  2.881072398977393 13.943659837451687  2.881072398977393 13.943659837451687  C 2.735809349945122 15.055975237350983  2.52596092150085 16.15239659828497  2.251574734644162 17.23293149730016  C 1.9933289400155265 18.313466396315352  1.6866749562480758 19.235110748436544  1.3315870487612267 19.99784123056746  C 1.1863237592188567 19.902499912901636  0.9684186032260979 19.791254700190475  0.6778921443964075 19.664132948235686  C 0.4035060176672444 19.53701121107981  0.17754395374342466 19.441675480005898  0 19.37811459662904  C 0.3873686318154288 18.64716449699088  0.6940226757104041 17.781150465161776  0.9199876858829356 16.78006658157414  Z " stroke-width="0" stroke-dasharray="0" stroke="rgba(121, 121, 121, 1)" fill="none" transform="matrix(1 0 0 1 920 612 )" class="stroke" mask="url(#Clip4501)" />
    <path d="M 4 22  L 4 11.32177443408073  L 5.277892144396407 11.32177443408073  L 5.277892144396407 22  L 4 22  Z " stroke-width="0" stroke-dasharray="0" stroke="rgba(121, 121, 121, 1)" fill="none" transform="matrix(1 0 0 1 920 612 )" class="stroke" mask="url(#Clip4501)" />
  </g>
</svg>