<?xml version="1.0" encoding="utf-8"?>
<svg version="1.1" xmlns:xlink="http://www.w3.org/1999/xlink" width="39px" height="54px" xmlns="http://www.w3.org/2000/svg">
  <defs>
    <pattern id="BGPattern" patternUnits="userSpaceOnUse" alignment="0 0" imageRepeat="None" />
    <mask fill="white" id="Clip4419">
      <path d="M 22.261312616756406 0  L 31 0  C 31 0  16.77574920330921 39.087079203353795  16.77574920330921 39.087079203353795  C 16.07410272945087 40.960674622435555  15.308638760086184 42.38202483002212  14.288062589284314 43.41573284662905  C 12.374482506652171 45.353935137088165  9.88686005039658 46  7.144061710177234 46  C 7.144061710177234 46  3.890937740380842 46  3.890937740380842 46  L 3.890937740380842 38.44101241501106  C 3.890937740380842 38.44101241501106  5.804561545344657 38.44101241501106  5.804561545344657 38.44101241501106  C 8.164643108649196 38.44101241501106  9.121406061129338 37.85954864718387  9.950624793959278 35.404492348421286  C 9.950624793959278 35.404492348421286  11.353936751385378 31.26966798371722  11.353936751385378 31.26966798371722  L 0 0  L 8.73868738324359 0  L 15.627562754116889 20.803372149462326  L 22.261312616756406 0  Z " fill-rule="evenodd" />
    </mask>
  </defs>
  <g transform="matrix(1 0 0 1 -670 -325 )">
    <path d="M 22.261312616756406 0  L 31 0  C 31 0  16.77574920330921 39.087079203353795  16.77574920330921 39.087079203353795  C 16.07410272945087 40.960674622435555  15.308638760086184 42.38202483002212  14.288062589284314 43.41573284662905  C 12.374482506652171 45.353935137088165  9.88686005039658 46  7.144061710177234 46  C 7.144061710177234 46  3.890937740380842 46  3.890937740380842 46  L 3.890937740380842 38.44101241501106  C 3.890937740380842 38.44101241501106  5.804561545344657 38.44101241501106  5.804561545344657 38.44101241501106  C 8.164643108649196 38.44101241501106  9.121406061129338 37.85954864718387  9.950624793959278 35.404492348421286  C 9.950624793959278 35.404492348421286  11.353936751385378 31.26966798371722  11.353936751385378 31.26966798371722  L 0 0  L 8.73868738324359 0  L 15.627562754116889 20.803372149462326  L 22.261312616756406 0  Z " fill-rule="nonzero" fill="rgba(63, 66, 124, 1)" stroke="none" transform="matrix(1 0 0 1 674 325 )" class="fill" />
    <path d="M 22.261312616756406 0  L 31 0  C 31 0  16.77574920330921 39.087079203353795  16.77574920330921 39.087079203353795  C 16.07410272945087 40.960674622435555  15.308638760086184 42.38202483002212  14.288062589284314 43.41573284662905  C 12.374482506652171 45.353935137088165  9.88686005039658 46  7.144061710177234 46  C 7.144061710177234 46  3.890937740380842 46  3.890937740380842 46  L 3.890937740380842 38.44101241501106  C 3.890937740380842 38.44101241501106  5.804561545344657 38.44101241501106  5.804561545344657 38.44101241501106  C 8.164643108649196 38.44101241501106  9.121406061129338 37.85954864718387  9.950624793959278 35.404492348421286  C 9.950624793959278 35.404492348421286  11.353936751385378 31.26966798371722  11.353936751385378 31.26966798371722  L 0 0  L 8.73868738324359 0  L 15.627562754116889 20.803372149462326  L 22.261312616756406 0  Z " stroke-width="0" stroke-dasharray="0" stroke="rgba(121, 121, 121, 1)" fill="none" transform="matrix(1 0 0 1 674 325 )" class="stroke" mask="url(#Clip4419)" />
  </g>
  <style>svg { filter: drop-shadow(0px 4px 2px rgba(0, 0, 0, 0.12941176470588237)); }</style>
</svg>