<?xml version="1.0" encoding="utf-8"?>
<svg version="1.1" xmlns:xlink="http://www.w3.org/1999/xlink" width="9px" height="17px" xmlns="http://www.w3.org/2000/svg">
  <defs>
    <pattern id="BGPattern" patternUnits="userSpaceOnUse" alignment="0 0" imageRepeat="None" />
    <mask fill="white" id="Clip4541">
      <path d="M 9 0.14088863793233655  C 9 0.14088863793233655  9 12.04557920323441  9 12.04557920323441  C 9 14.910219127111738  7.241631751721027 17  4.2570557200855115 17  C 2.544973167179869 17  1.5963911833531097 16.553868080540223  0.3933061368584149 15.450277232835187  C 0.3933061368584149 15.450277232835187  1.480700962990566 14.370163353981633  1.480700962990566 14.370163353981633  C 2.3136059421396626 15.12154438645221  2.8920130299757782 15.520717819652004  4.210779218232099 15.520717819652004  C 6.408723210082962 15.520717819652004  7.334193029595779 13.947513535078691  7.334193029595779 11.975138616417594  C 7.334193029595779 11.975138616417594  7.334193029595779 10.167128721391977  7.334193029595779 10.167128721391977  C 6.408743205988781 11.364642139841003  5.3676001741252675 11.669886121146446  4.141379175083845 11.669886121146446  C 2.984566378439602 11.669886121146446  1.9897199017948202 11.24723461111333  1.388177378547473 10.636737609703236  C 0.2545009941259537 9.486185476626208  0 7.701657682157428  0 5.8232054508699855  C 0 3.9447528696935423  0.2545009941259537 2.16022519185443  1.388177378547473 1.0096732920367348  C 1.9897199017948202 0.3991757657931388  3.007689919734442 0  4.164502716378685 0  C 5.413860012723831 0  6.431866057769627 0.28177051134397774  7.357316570890619 1.502764864053167  C 7.357316570890619 1.502764864053167  7.357316570890619 0.14088863793233655  7.357316570890619 0.14088863793233655  L 9 0.14088863793233655  Z M 4.511561770647419 10.143646037686805  C 6.98714110030498 10.143646037686805  7.334193029595779 7.983425277759727  7.334193029595779 5.8232054508699855  C 7.334193029595779 3.6629851574615766  6.98714110030498 1.502764864053167  4.511561770647419 1.502764864053167  C 2.035983130503854 1.502764864053167  1.6658069704042209 3.6629851574615766  1.6658069704042209 5.8232054508699855  C 1.6658069704042209 7.983425277759727  2.035983130503854 10.143646037686805  4.511561770647419 10.143646037686805  Z " fill-rule="evenodd" />
    </mask>
  </defs>
  <g transform="matrix(1 0 0 1 -444 -558 )">
    <path d="M 9 0.14088863793233655  C 9 0.14088863793233655  9 12.04557920323441  9 12.04557920323441  C 9 14.910219127111738  7.241631751721027 17  4.2570557200855115 17  C 2.544973167179869 17  1.5963911833531097 16.553868080540223  0.3933061368584149 15.450277232835187  C 0.3933061368584149 15.450277232835187  1.480700962990566 14.370163353981633  1.480700962990566 14.370163353981633  C 2.3136059421396626 15.12154438645221  2.8920130299757782 15.520717819652004  4.210779218232099 15.520717819652004  C 6.408723210082962 15.520717819652004  7.334193029595779 13.947513535078691  7.334193029595779 11.975138616417594  C 7.334193029595779 11.975138616417594  7.334193029595779 10.167128721391977  7.334193029595779 10.167128721391977  C 6.408743205988781 11.364642139841003  5.3676001741252675 11.669886121146446  4.141379175083845 11.669886121146446  C 2.984566378439602 11.669886121146446  1.9897199017948202 11.24723461111333  1.388177378547473 10.636737609703236  C 0.2545009941259537 9.486185476626208  0 7.701657682157428  0 5.8232054508699855  C 0 3.9447528696935423  0.2545009941259537 2.16022519185443  1.388177378547473 1.0096732920367348  C 1.9897199017948202 0.3991757657931388  3.007689919734442 0  4.164502716378685 0  C 5.413860012723831 0  6.431866057769627 0.28177051134397774  7.357316570890619 1.502764864053167  C 7.357316570890619 1.502764864053167  7.357316570890619 0.14088863793233655  7.357316570890619 0.14088863793233655  L 9 0.14088863793233655  Z M 4.511561770647419 10.143646037686805  C 6.98714110030498 10.143646037686805  7.334193029595779 7.983425277759727  7.334193029595779 5.8232054508699855  C 7.334193029595779 3.6629851574615766  6.98714110030498 1.502764864053167  4.511561770647419 1.502764864053167  C 2.035983130503854 1.502764864053167  1.6658069704042209 3.6629851574615766  1.6658069704042209 5.8232054508699855  C 1.6658069704042209 7.983425277759727  2.035983130503854 10.143646037686805  4.511561770647419 10.143646037686805  Z " fill-rule="nonzero" fill="rgba(0, 0, 0, 1)" stroke="none" transform="matrix(1 0 0 1 444 558 )" class="fill" />
    <path d="M 9 0.14088863793233655  C 9 0.14088863793233655  9 12.04557920323441  9 12.04557920323441  C 9 14.910219127111738  7.241631751721027 17  4.2570557200855115 17  C 2.544973167179869 17  1.5963911833531097 16.553868080540223  0.3933061368584149 15.450277232835187  C 0.3933061368584149 15.450277232835187  1.480700962990566 14.370163353981633  1.480700962990566 14.370163353981633  C 2.3136059421396626 15.12154438645221  2.8920130299757782 15.520717819652004  4.210779218232099 15.520717819652004  C 6.408723210082962 15.520717819652004  7.334193029595779 13.947513535078691  7.334193029595779 11.975138616417594  C 7.334193029595779 11.975138616417594  7.334193029595779 10.167128721391977  7.334193029595779 10.167128721391977  C 6.408743205988781 11.364642139841003  5.3676001741252675 11.669886121146446  4.141379175083845 11.669886121146446  C 2.984566378439602 11.669886121146446  1.9897199017948202 11.24723461111333  1.388177378547473 10.636737609703236  C 0.2545009941259537 9.486185476626208  0 7.701657682157428  0 5.8232054508699855  C 0 3.9447528696935423  0.2545009941259537 2.16022519185443  1.388177378547473 1.0096732920367348  C 1.9897199017948202 0.3991757657931388  3.007689919734442 0  4.164502716378685 0  C 5.413860012723831 0  6.431866057769627 0.28177051134397774  7.357316570890619 1.502764864053167  C 7.357316570890619 1.502764864053167  7.357316570890619 0.14088863793233655  7.357316570890619 0.14088863793233655  L 9 0.14088863793233655  Z " stroke-width="0" stroke-dasharray="0" stroke="rgba(121, 121, 121, 1)" fill="none" transform="matrix(1 0 0 1 444 558 )" class="stroke" mask="url(#Clip4541)" />
    <path d="M 4.511561770647419 10.143646037686805  C 6.98714110030498 10.143646037686805  7.334193029595779 7.983425277759727  7.334193029595779 5.8232054508699855  C 7.334193029595779 3.6629851574615766  6.98714110030498 1.502764864053167  4.511561770647419 1.502764864053167  C 2.035983130503854 1.502764864053167  1.6658069704042209 3.6629851574615766  1.6658069704042209 5.8232054508699855  C 1.6658069704042209 7.983425277759727  2.035983130503854 10.143646037686805  4.511561770647419 10.143646037686805  Z " stroke-width="0" stroke-dasharray="0" stroke="rgba(121, 121, 121, 1)" fill="none" transform="matrix(1 0 0 1 444 558 )" class="stroke" mask="url(#Clip4541)" />
  </g>
</svg>