<?xml version="1.0" encoding="utf-8"?>
<svg version="1.1" xmlns:xlink="http://www.w3.org/1999/xlink" width="1826px" height="878px" xmlns="http://www.w3.org/2000/svg">
  <defs>
    <pattern id="BGPattern" patternUnits="userSpaceOnUse" alignment="0 0" imageRepeat="None" />
    <mask fill="white" id="Clip4622">
      <path d="M 29.999999999999996 869  L 1788 869  L 1788 870  L 29.999999999999996 870  L 29.999999999999996 869  Z M 1788 869  C 1804.0162353515625 869  1817 856.0162353515625  1817 840  C 1817 840  1817 30  1817 30  C 1817 13.983743667602539  1804.0162353515625 1  1788 1  C 1788 1  29.999999999999996 1  29.999999999999996 1  C 13.983749389648438 1  1.0000082465294327 13.983749389648438  1 30  C 1 30  1 840  1 840  C 1 856.0162258148193  13.983753204345703 868.9999855685564  29.999999999999996 869  C 29.999999999999996 869  29.999999999999996 870  29.999999999999996 870  C 13.43147087097168 869.9999855685801  0 856.5685329437256  0 840  C 0 840  0 30  0 30  C 0 13.431465148925781  13.431463241577148 0  29.999999999999996 0  C 29.999999999999996 0  1788 0  1788 0  C 1804.5684814453125 0  1818 13.43145751953125  1818 30  C 1818 30  1818 840  1818 840  C 1818 856.5685424804688  1804.5684814453125 870  1788 870  C 1788 870  1788 869  1788 869  Z " fill-rule="evenodd" />
    </mask>
  </defs>
  <g transform="matrix(1 0 0 1 -51 -144 )">
    <path d="M 29.999999999999996 869  L 1788 869  L 1788 870  L 29.999999999999996 870  L 29.999999999999996 869  Z M 1788 869  C 1804.0162353515625 869  1817 856.0162353515625  1817 840  C 1817 840  1817 30  1817 30  C 1817 13.983743667602539  1804.0162353515625 1  1788 1  C 1788 1  29.999999999999996 1  29.999999999999996 1  C 13.983749389648438 1  1.0000082465294327 13.983749389648438  1 30  C 1 30  1 840  1 840  C 1 856.0162258148193  13.983753204345703 868.9999855685564  29.999999999999996 869  C 29.999999999999996 869  29.999999999999996 870  29.999999999999996 870  C 13.43147087097168 869.9999855685801  0 856.5685329437256  0 840  C 0 840  0 30  0 30  C 0 13.431465148925781  13.431463241577148 0  29.999999999999996 0  C 29.999999999999996 0  1788 0  1788 0  C 1804.5684814453125 0  1818 13.43145751953125  1818 30  C 1818 30  1818 840  1818 840  C 1818 856.5685424804688  1804.5684814453125 870  1788 870  C 1788 870  1788 869  1788 869  Z " fill-rule="nonzero" fill="rgba(255, 255, 255, 1)" stroke="none" transform="matrix(1 0 0 1 51 144 )" class="fill" />
    <path d="M 29.999999999999996 869  L 1788 869  L 1788 870  L 29.999999999999996 870  L 29.999999999999996 869  Z " stroke-width="0" stroke-dasharray="0" stroke="rgba(121, 121, 121, 1)" fill="none" transform="matrix(1 0 0 1 51 144 )" class="stroke" mask="url(#Clip4622)" />
    <path d="M 1788 869  C 1804.0162353515625 869  1817 856.0162353515625  1817 840  C 1817 840  1817 30  1817 30  C 1817 13.983743667602539  1804.0162353515625 1  1788 1  C 1788 1  29.999999999999996 1  29.999999999999996 1  C 13.983749389648438 1  1.0000082465294327 13.983749389648438  1 30  C 1 30  1 840  1 840  C 1 856.0162258148193  13.983753204345703 868.9999855685564  29.999999999999996 869  C 29.999999999999996 869  29.999999999999996 870  29.999999999999996 870  C 13.43147087097168 869.9999855685801  0 856.5685329437256  0 840  C 0 840  0 30  0 30  C 0 13.431465148925781  13.431463241577148 0  29.999999999999996 0  C 29.999999999999996 0  1788 0  1788 0  C 1804.5684814453125 0  1818 13.43145751953125  1818 30  C 1818 30  1818 840  1818 840  C 1818 856.5685424804688  1804.5684814453125 870  1788 870  C 1788 870  1788 869  1788 869  Z " stroke-width="0" stroke-dasharray="0" stroke="rgba(121, 121, 121, 1)" fill="none" transform="matrix(1 0 0 1 51 144 )" class="stroke" mask="url(#Clip4622)" />
  </g>
  <style>svg { filter: drop-shadow(4px 4px 2px rgba(0, 0, 0, 0.25098039215686274)); }</style>
</svg>