<?xml version="1.0" encoding="utf-8"?>
<svg version="1.1" xmlns:xlink="http://www.w3.org/1999/xlink" width="22px" height="21px" xmlns="http://www.w3.org/2000/svg">
  <defs>
    <pattern id="BGPattern" patternUnits="userSpaceOnUse" alignment="0 0" imageRepeat="None" />
    <mask fill="white" id="Clip4710">
      <path d="M 16.59734574890813 5  L 5.426977149809757 5  L 5.426977149809757 7.318913810894477  L 16.59734574890813 7.318913810894477  L 16.59734574890813 5  Z M 16.59734574890813 9  L 5.426977149809757 9  L 5.426977149809757 11  L 16.59734574890813 11  L 16.59734574890813 9  Z M 16.59734574890813 1.4350817357301906  L 5.426977149809757 1.4350817357301906  L 5.426977149809757 4  L 16.59734574890813 4  L 16.59734574890813 1.4350817357301906  Z M 4 12  L 4 0  L 18.471230140589505 0  L 18.471230140589505 12  L 4 12  Z M 0.14603022779860325 15.738043773420953  L 0.14603022779860325 14  L 21.756616287002327 14  L 21.756616287002327 15.738043773420953  L 0.14603022779860325 15.738043773420953  Z M 15.69690337372615 18.77563243360669  C 14.788349497492737 18.392944616235813  13.879776280531976 18.034172994283928  12.971222404298564 17.69932113180905  C 12.971222404298564 17.69932113180905  14.285401618994705 16.503424754249714  14.285401618994705 16.503424754249714  C 15.210180431403714 16.83827655732363  16.14304947006407 17.197048179275512  17.084051284575946 17.579736056047356  C 18.04127803526342 17.946478515518926  18.941721377481766 18.321184417089828  19.785378410121883 18.70387226416119  C 20.645260378937596 19.070614783033726  21.38348143641824 19.42141164700212  22 19.756263509476998  C 22 19.756263509476998  20.247761047071812 21  20.247761047071812 21  C 19.696139327083348 20.66514813752512  19.022862497978014 20.306376574974205  18.227877372755596 19.92368869820236  C 17.44911718370878 19.54100088083148  16.60545724995956 19.15832025097757  15.69690337372615 18.77563243360669  Z M 5.256624023293269 17.555815999565525  C 6.084057086794151 17.141237525796992  6.765494735805664 16.750566990713086  7.300892486654899 16.383824471840548  C 7.300892486654899 16.383824471840548  8.980069907938137 17.555815999565525  8.980069907938137 17.555815999565525  C 8.29865450076308 17.970394473334057  7.511809887683121 18.392933508255037  6.619479980588943 18.823457339922882  C 5.743374526152181 19.253981171590723  4.842931183933834 19.65262643495764  3.918152855043007 20.019368924129694  C 2.99337452615218 20.386111443002225  2.109159625616266 20.705009393838594  1.2655024720966053 20.97607994351817  C 1.1357090266691048 20.784736005132242  0.9409993969209562 20.553529681814478  0.6814125060659554 20.282459132134903  C 0.4380498261092786 20.011388582455332  0.21091431859980167 19.7801821997366  0 19.58883832075164  C 0.8436573348389798 19.349658412619483  1.719773487115559 19.054669425134414  2.628327484228516 18.70387226416119  C 3.553105571360251 18.337129774989137  4.429190718033294 17.954449174835712  5.256624023293269 17.555815999565525  Z " fill-rule="evenodd" />
    </mask>
  </defs>
  <g transform="matrix(1 0 0 1 -600 -613 )">
    <path d="M 16.59734574890813 5  L 5.426977149809757 5  L 5.426977149809757 7.318913810894477  L 16.59734574890813 7.318913810894477  L 16.59734574890813 5  Z M 16.59734574890813 9  L 5.426977149809757 9  L 5.426977149809757 11  L 16.59734574890813 11  L 16.59734574890813 9  Z M 16.59734574890813 1.4350817357301906  L 5.426977149809757 1.4350817357301906  L 5.426977149809757 4  L 16.59734574890813 4  L 16.59734574890813 1.4350817357301906  Z M 4 12  L 4 0  L 18.471230140589505 0  L 18.471230140589505 12  L 4 12  Z M 0.14603022779860325 15.738043773420953  L 0.14603022779860325 14  L 21.756616287002327 14  L 21.756616287002327 15.738043773420953  L 0.14603022779860325 15.738043773420953  Z M 15.69690337372615 18.77563243360669  C 14.788349497492737 18.392944616235813  13.879776280531976 18.034172994283928  12.971222404298564 17.69932113180905  C 12.971222404298564 17.69932113180905  14.285401618994705 16.503424754249714  14.285401618994705 16.503424754249714  C 15.210180431403714 16.83827655732363  16.14304947006407 17.197048179275512  17.084051284575946 17.579736056047356  C 18.04127803526342 17.946478515518926  18.941721377481766 18.321184417089828  19.785378410121883 18.70387226416119  C 20.645260378937596 19.070614783033726  21.38348143641824 19.42141164700212  22 19.756263509476998  C 22 19.756263509476998  20.247761047071812 21  20.247761047071812 21  C 19.696139327083348 20.66514813752512  19.022862497978014 20.306376574974205  18.227877372755596 19.92368869820236  C 17.44911718370878 19.54100088083148  16.60545724995956 19.15832025097757  15.69690337372615 18.77563243360669  Z M 5.256624023293269 17.555815999565525  C 6.084057086794151 17.141237525796992  6.765494735805664 16.750566990713086  7.300892486654899 16.383824471840548  C 7.300892486654899 16.383824471840548  8.980069907938137 17.555815999565525  8.980069907938137 17.555815999565525  C 8.29865450076308 17.970394473334057  7.511809887683121 18.392933508255037  6.619479980588943 18.823457339922882  C 5.743374526152181 19.253981171590723  4.842931183933834 19.65262643495764  3.918152855043007 20.019368924129694  C 2.99337452615218 20.386111443002225  2.109159625616266 20.705009393838594  1.2655024720966053 20.97607994351817  C 1.1357090266691048 20.784736005132242  0.9409993969209562 20.553529681814478  0.6814125060659554 20.282459132134903  C 0.4380498261092786 20.011388582455332  0.21091431859980167 19.7801821997366  0 19.58883832075164  C 0.8436573348389798 19.349658412619483  1.719773487115559 19.054669425134414  2.628327484228516 18.70387226416119  C 3.553105571360251 18.337129774989137  4.429190718033294 17.954449174835712  5.256624023293269 17.555815999565525  Z " fill-rule="nonzero" fill="rgba(0, 0, 0, 1)" stroke="none" transform="matrix(1 0 0 1 600 613 )" class="fill" />
    <path d="M 16.59734574890813 5  L 5.426977149809757 5  L 5.426977149809757 7.318913810894477  L 16.59734574890813 7.318913810894477  L 16.59734574890813 5  Z " stroke-width="0" stroke-dasharray="0" stroke="rgba(121, 121, 121, 1)" fill="none" transform="matrix(1 0 0 1 600 613 )" class="stroke" mask="url(#Clip4710)" />
    <path d="M 16.59734574890813 9  L 5.426977149809757 9  L 5.426977149809757 11  L 16.59734574890813 11  L 16.59734574890813 9  Z " stroke-width="0" stroke-dasharray="0" stroke="rgba(121, 121, 121, 1)" fill="none" transform="matrix(1 0 0 1 600 613 )" class="stroke" mask="url(#Clip4710)" />
    <path d="M 16.59734574890813 1.4350817357301906  L 5.426977149809757 1.4350817357301906  L 5.426977149809757 4  L 16.59734574890813 4  L 16.59734574890813 1.4350817357301906  Z " stroke-width="0" stroke-dasharray="0" stroke="rgba(121, 121, 121, 1)" fill="none" transform="matrix(1 0 0 1 600 613 )" class="stroke" mask="url(#Clip4710)" />
    <path d="M 4 12  L 4 0  L 18.471230140589505 0  L 18.471230140589505 12  L 4 12  Z " stroke-width="0" stroke-dasharray="0" stroke="rgba(121, 121, 121, 1)" fill="none" transform="matrix(1 0 0 1 600 613 )" class="stroke" mask="url(#Clip4710)" />
    <path d="M 0.14603022779860325 15.738043773420953  L 0.14603022779860325 14  L 21.756616287002327 14  L 21.756616287002327 15.738043773420953  L 0.14603022779860325 15.738043773420953  Z " stroke-width="0" stroke-dasharray="0" stroke="rgba(121, 121, 121, 1)" fill="none" transform="matrix(1 0 0 1 600 613 )" class="stroke" mask="url(#Clip4710)" />
    <path d="M 15.69690337372615 18.77563243360669  C 14.788349497492737 18.392944616235813  13.879776280531976 18.034172994283928  12.971222404298564 17.69932113180905  C 12.971222404298564 17.69932113180905  14.285401618994705 16.503424754249714  14.285401618994705 16.503424754249714  C 15.210180431403714 16.83827655732363  16.14304947006407 17.197048179275512  17.084051284575946 17.579736056047356  C 18.04127803526342 17.946478515518926  18.941721377481766 18.321184417089828  19.785378410121883 18.70387226416119  C 20.645260378937596 19.070614783033726  21.38348143641824 19.42141164700212  22 19.756263509476998  C 22 19.756263509476998  20.247761047071812 21  20.247761047071812 21  C 19.696139327083348 20.66514813752512  19.022862497978014 20.306376574974205  18.227877372755596 19.92368869820236  C 17.44911718370878 19.54100088083148  16.60545724995956 19.15832025097757  15.69690337372615 18.77563243360669  Z " stroke-width="0" stroke-dasharray="0" stroke="rgba(121, 121, 121, 1)" fill="none" transform="matrix(1 0 0 1 600 613 )" class="stroke" mask="url(#Clip4710)" />
    <path d="M 5.256624023293269 17.555815999565525  C 6.084057086794151 17.141237525796992  6.765494735805664 16.750566990713086  7.300892486654899 16.383824471840548  C 7.300892486654899 16.383824471840548  8.980069907938137 17.555815999565525  8.980069907938137 17.555815999565525  C 8.29865450076308 17.970394473334057  7.511809887683121 18.392933508255037  6.619479980588943 18.823457339922882  C 5.743374526152181 19.253981171590723  4.842931183933834 19.65262643495764  3.918152855043007 20.019368924129694  C 2.99337452615218 20.386111443002225  2.109159625616266 20.705009393838594  1.2655024720966053 20.97607994351817  C 1.1357090266691048 20.784736005132242  0.9409993969209562 20.553529681814478  0.6814125060659554 20.282459132134903  C 0.4380498261092786 20.011388582455332  0.21091431859980167 19.7801821997366  0 19.58883832075164  C 0.8436573348389798 19.349658412619483  1.719773487115559 19.054669425134414  2.628327484228516 18.70387226416119  C 3.553105571360251 18.337129774989137  4.429190718033294 17.954449174835712  5.256624023293269 17.555815999565525  Z " stroke-width="0" stroke-dasharray="0" stroke="rgba(121, 121, 121, 1)" fill="none" transform="matrix(1 0 0 1 600 613 )" class="stroke" mask="url(#Clip4710)" />
  </g>
</svg>