<?xml version="1.0" encoding="utf-8"?>
<svg version="1.1" xmlns:xlink="http://www.w3.org/1999/xlink" width="5px" height="8px" xmlns="http://www.w3.org/2000/svg">
  <defs>
    <pattern id="BGPattern" patternUnits="userSpaceOnUse" alignment="0 0" imageRepeat="None" />
    <mask fill="white" id="Clip4725">
      <path d="M 3.7948798205459267 5.964912932988052  C 2.9914596599208365 6.884991745969189  1.9145329698768863 7.563352358812386  0.564103316509514 8  C 0.564103316509514 8  0 6.760244572138184  0 6.760244572138184  C 1.0427367500195626 6.3703806648863495  1.8376038854545693 5.871344419420025  2.384613378196852 5.263156720621506  C 2.948716694706366 4.654969021822988  3.2307765040364123 3.906429569321775  3.2307765040364123 3.017539815474077  C 3.2307765040364123 3.017539815474077  2.769230016823819 1.0526343185498188  2.769230016823819 1.0526343185498188  C 2.769230016823819 1.0526343185498188  4.153853176311019 2.830403834034492  4.153853176311019 2.830403834034492  C 3.965818567660446 3.03313312506158  3.7521366006103523 3.173490688189114  3.51282001121588 3.251463510305455  C 3.2735034218214065 3.3138416285723316  3.0341898890801673 3.345024064961453  2.7948732996856944 3.345024064961453  C 2.264957885431746 3.345024064961453  1.8119623856404137 3.2046812577730104  1.4358934230603702 2.9239792608180784  C 1.0598244604803266 2.6432772638631468  0.8717901065508561 2.2300183670775713  0.8717901065508561 1.684208960828675  C 0.8717901065508561 1.1228047345418177  1.0598244604803266 0.7017466849098098  1.4358934230603702 0.42104480414337475  C 1.829056464128748 0.1403426909999461  2.290601423014724 0  2.8205165825475698 0  C 3.5384663507309884 0  4.076921289956571 0.24951805011535194  4.435896683490486 0.7485439257583391  C 4.811965391349427 1.2319752137403588  5 1.8791386342553433  5 2.6900555659867007  C 5 3.9532147265666393  4.5982997264499135 5.044834120006915  3.7948798205459267 5.964912932988052  Z " fill-rule="evenodd" />
    </mask>
  </defs>
  <g transform="matrix(1 0 0 1 -287 -626 )">
    <path d="M 3.7948798205459267 5.964912932988052  C 2.9914596599208365 6.884991745969189  1.9145329698768863 7.563352358812386  0.564103316509514 8  C 0.564103316509514 8  0 6.760244572138184  0 6.760244572138184  C 1.0427367500195626 6.3703806648863495  1.8376038854545693 5.871344419420025  2.384613378196852 5.263156720621506  C 2.948716694706366 4.654969021822988  3.2307765040364123 3.906429569321775  3.2307765040364123 3.017539815474077  C 3.2307765040364123 3.017539815474077  2.769230016823819 1.0526343185498188  2.769230016823819 1.0526343185498188  C 2.769230016823819 1.0526343185498188  4.153853176311019 2.830403834034492  4.153853176311019 2.830403834034492  C 3.965818567660446 3.03313312506158  3.7521366006103523 3.173490688189114  3.51282001121588 3.251463510305455  C 3.2735034218214065 3.3138416285723316  3.0341898890801673 3.345024064961453  2.7948732996856944 3.345024064961453  C 2.264957885431746 3.345024064961453  1.8119623856404137 3.2046812577730104  1.4358934230603702 2.9239792608180784  C 1.0598244604803266 2.6432772638631468  0.8717901065508561 2.2300183670775713  0.8717901065508561 1.684208960828675  C 0.8717901065508561 1.1228047345418177  1.0598244604803266 0.7017466849098098  1.4358934230603702 0.42104480414337475  C 1.829056464128748 0.1403426909999461  2.290601423014724 0  2.8205165825475698 0  C 3.5384663507309884 0  4.076921289956571 0.24951805011535194  4.435896683490486 0.7485439257583391  C 4.811965391349427 1.2319752137403588  5 1.8791386342553433  5 2.6900555659867007  C 5 3.9532147265666393  4.5982997264499135 5.044834120006915  3.7948798205459267 5.964912932988052  Z " fill-rule="nonzero" fill="rgba(0, 0, 0, 1)" stroke="none" transform="matrix(1 0 0 1 287 626 )" class="fill" />
    <path d="M 3.7948798205459267 5.964912932988052  C 2.9914596599208365 6.884991745969189  1.9145329698768863 7.563352358812386  0.564103316509514 8  C 0.564103316509514 8  0 6.760244572138184  0 6.760244572138184  C 1.0427367500195626 6.3703806648863495  1.8376038854545693 5.871344419420025  2.384613378196852 5.263156720621506  C 2.948716694706366 4.654969021822988  3.2307765040364123 3.906429569321775  3.2307765040364123 3.017539815474077  C 3.2307765040364123 3.017539815474077  2.769230016823819 1.0526343185498188  2.769230016823819 1.0526343185498188  C 2.769230016823819 1.0526343185498188  4.153853176311019 2.830403834034492  4.153853176311019 2.830403834034492  C 3.965818567660446 3.03313312506158  3.7521366006103523 3.173490688189114  3.51282001121588 3.251463510305455  C 3.2735034218214065 3.3138416285723316  3.0341898890801673 3.345024064961453  2.7948732996856944 3.345024064961453  C 2.264957885431746 3.345024064961453  1.8119623856404137 3.2046812577730104  1.4358934230603702 2.9239792608180784  C 1.0598244604803266 2.6432772638631468  0.8717901065508561 2.2300183670775713  0.8717901065508561 1.684208960828675  C 0.8717901065508561 1.1228047345418177  1.0598244604803266 0.7017466849098098  1.4358934230603702 0.42104480414337475  C 1.829056464128748 0.1403426909999461  2.290601423014724 0  2.8205165825475698 0  C 3.5384663507309884 0  4.076921289956571 0.24951805011535194  4.435896683490486 0.7485439257583391  C 4.811965391349427 1.2319752137403588  5 1.8791386342553433  5 2.6900555659867007  C 5 3.9532147265666393  4.5982997264499135 5.044834120006915  3.7948798205459267 5.964912932988052  Z " stroke-width="0" stroke-dasharray="0" stroke="rgba(121, 121, 121, 1)" fill="none" transform="matrix(1 0 0 1 287 626 )" class="stroke" mask="url(#Clip4725)" />
  </g>
</svg>