<?xml version="1.0" encoding="utf-8"?>
<svg version="1.1" xmlns:xlink="http://www.w3.org/1999/xlink" width="22px" height="18px" xmlns="http://www.w3.org/2000/svg">
  <defs>
    <pattern id="BGPattern" patternUnits="userSpaceOnUse" alignment="0 0" imageRepeat="None" />
    <mask fill="white" id="Clip4711">
      <path d="M 1.2725405691347844 2  L 1.2725405691347844 0  L 20.751948718746597 0  L 20.751948718746597 2  L 1.2725405691347844 2  Z M 0 18  L 0 16  L 22 16  L 22 18  L 0 18  Z M 10 16.915069008553456  L 10 0.9616483668657915  L 12 0.9616483668657915  L 12 16.915069008553456  L 10 16.915069008553456  Z " fill-rule="evenodd" />
    </mask>
  </defs>
  <g transform="matrix(1 0 0 1 -576 -615 )">
    <path d="M 1.2725405691347844 2  L 1.2725405691347844 0  L 20.751948718746597 0  L 20.751948718746597 2  L 1.2725405691347844 2  Z M 0 18  L 0 16  L 22 16  L 22 18  L 0 18  Z M 10 16.915069008553456  L 10 0.9616483668657915  L 12 0.9616483668657915  L 12 16.915069008553456  L 10 16.915069008553456  Z " fill-rule="nonzero" fill="rgba(0, 0, 0, 1)" stroke="none" transform="matrix(1 0 0 1 576 615 )" class="fill" />
    <path d="M 1.2725405691347844 2  L 1.2725405691347844 0  L 20.751948718746597 0  L 20.751948718746597 2  L 1.2725405691347844 2  Z " stroke-width="0" stroke-dasharray="0" stroke="rgba(121, 121, 121, 1)" fill="none" transform="matrix(1 0 0 1 576 615 )" class="stroke" mask="url(#Clip4711)" />
    <path d="M 0 18  L 0 16  L 22 16  L 22 18  L 0 18  Z " stroke-width="0" stroke-dasharray="0" stroke="rgba(121, 121, 121, 1)" fill="none" transform="matrix(1 0 0 1 576 615 )" class="stroke" mask="url(#Clip4711)" />
    <path d="M 10 16.915069008553456  L 10 0.9616483668657915  L 12 0.9616483668657915  L 12 16.915069008553456  L 10 16.915069008553456  Z " stroke-width="0" stroke-dasharray="0" stroke="rgba(121, 121, 121, 1)" fill="none" transform="matrix(1 0 0 1 576 615 )" class="stroke" mask="url(#Clip4711)" />
  </g>
</svg>