<?xml version="1.0" encoding="utf-8"?>
<svg version="1.1" xmlns:xlink="http://www.w3.org/1999/xlink" width="10px" height="12px" xmlns="http://www.w3.org/2000/svg">
  <defs>
    <pattern id="BGPattern" patternUnits="userSpaceOnUse" alignment="0 0" imageRepeat="None" />
    <mask fill="white" id="Clip4755">
      <path d="M 8.50746209643676 1.3333312308768441  C 9.751243517994721 2.5476168550572806  10 4.190475816914725  10 6  C 10 7.8095238282957435  9.751243517994721 9.452379242257862  8.50746209643676 10.666664984701475  C 7.661690700123291 11.4761887341551  6.492537903563242 12  5.000000494234214 12  C 3.5074630849051873 12  2.3383081260704492 11.4761887341551  1.4925369150948122 10.666664984701475  C 0.24875574065395686 9.452379242257862  0 7.8095238282957435  0 6  C 0 4.190475816914725  0.24875574065395686 2.5476168550572806  1.4925369150948122 1.3333312308768441  C 2.3383081260704492 0.5238079544759301  3.5074630849051873 0  5.000000494234214 0  C 6.492537903563242 0  7.661690700123291 0.5238079544759301  8.50746209643676 1.3333312308768441  Z M 7.238806361110647 9.619046237433356  C 8.134329103248593 8.761903287369428  8.208956492660969 7.3095235523483275  8.208956492660969 6  C 8.208956492660969 4.690475738072607  8.134329103248593 3.2380931056036557  7.238806361110647 2.380949978144965  C 6.6666669961561436 1.833330915508371  5.87064719278426 1.5238087428971137  5.000000494234214 1.5238087428971137  C 4.129353425008508 1.5238087428971137  3.3582088003146495 1.833330915508371  2.786069435360145 2.380949978144965  C 1.8905466932222004 3.2380931056036557  1.7910444958074607 4.690475738072607  1.7910444958074607 6  C 1.7910444958074607 7.3095235523483275  1.8905466932222004 8.761903287369428  2.786069435360145 9.619046237433356  C 3.3582088003146495 10.166665300069948  4.129353425008508 10.476191257102887  5.000000494234214 10.476191257102887  C 5.87064719278426 10.476191257102887  6.6666669961561436 10.166665300069948  7.238806361110647 9.619046237433356  Z " fill-rule="evenodd" />
    </mask>
  </defs>
  <g transform="matrix(1 0 0 1 -153 -527 )">
    <path d="M 8.50746209643676 1.3333312308768441  C 9.751243517994721 2.5476168550572806  10 4.190475816914725  10 6  C 10 7.8095238282957435  9.751243517994721 9.452379242257862  8.50746209643676 10.666664984701475  C 7.661690700123291 11.4761887341551  6.492537903563242 12  5.000000494234214 12  C 3.5074630849051873 12  2.3383081260704492 11.4761887341551  1.4925369150948122 10.666664984701475  C 0.24875574065395686 9.452379242257862  0 7.8095238282957435  0 6  C 0 4.190475816914725  0.24875574065395686 2.5476168550572806  1.4925369150948122 1.3333312308768441  C 2.3383081260704492 0.5238079544759301  3.5074630849051873 0  5.000000494234214 0  C 6.492537903563242 0  7.661690700123291 0.5238079544759301  8.50746209643676 1.3333312308768441  Z M 7.238806361110647 9.619046237433356  C 8.134329103248593 8.761903287369428  8.208956492660969 7.3095235523483275  8.208956492660969 6  C 8.208956492660969 4.690475738072607  8.134329103248593 3.2380931056036557  7.238806361110647 2.380949978144965  C 6.6666669961561436 1.833330915508371  5.87064719278426 1.5238087428971137  5.000000494234214 1.5238087428971137  C 4.129353425008508 1.5238087428971137  3.3582088003146495 1.833330915508371  2.786069435360145 2.380949978144965  C 1.8905466932222004 3.2380931056036557  1.7910444958074607 4.690475738072607  1.7910444958074607 6  C 1.7910444958074607 7.3095235523483275  1.8905466932222004 8.761903287369428  2.786069435360145 9.619046237433356  C 3.3582088003146495 10.166665300069948  4.129353425008508 10.476191257102887  5.000000494234214 10.476191257102887  C 5.87064719278426 10.476191257102887  6.6666669961561436 10.166665300069948  7.238806361110647 9.619046237433356  Z " fill-rule="nonzero" fill="rgba(0, 0, 0, 1)" stroke="none" transform="matrix(1 0 0 1 153 527 )" class="fill" />
    <path d="M 8.50746209643676 1.3333312308768441  C 9.751243517994721 2.5476168550572806  10 4.190475816914725  10 6  C 10 7.8095238282957435  9.751243517994721 9.452379242257862  8.50746209643676 10.666664984701475  C 7.661690700123291 11.4761887341551  6.492537903563242 12  5.000000494234214 12  C 3.5074630849051873 12  2.3383081260704492 11.4761887341551  1.4925369150948122 10.666664984701475  C 0.24875574065395686 9.452379242257862  0 7.8095238282957435  0 6  C 0 4.190475816914725  0.24875574065395686 2.5476168550572806  1.4925369150948122 1.3333312308768441  C 2.3383081260704492 0.5238079544759301  3.5074630849051873 0  5.000000494234214 0  C 6.492537903563242 0  7.661690700123291 0.5238079544759301  8.50746209643676 1.3333312308768441  Z " stroke-width="0" stroke-dasharray="0" stroke="rgba(121, 121, 121, 1)" fill="none" transform="matrix(1 0 0 1 153 527 )" class="stroke" mask="url(#Clip4755)" />
    <path d="M 7.238806361110647 9.619046237433356  C 8.134329103248593 8.761903287369428  8.208956492660969 7.3095235523483275  8.208956492660969 6  C 8.208956492660969 4.690475738072607  8.134329103248593 3.2380931056036557  7.238806361110647 2.380949978144965  C 6.6666669961561436 1.833330915508371  5.87064719278426 1.5238087428971137  5.000000494234214 1.5238087428971137  C 4.129353425008508 1.5238087428971137  3.3582088003146495 1.833330915508371  2.786069435360145 2.380949978144965  C 1.8905466932222004 3.2380931056036557  1.7910444958074607 4.690475738072607  1.7910444958074607 6  C 1.7910444958074607 7.3095235523483275  1.8905466932222004 8.761903287369428  2.786069435360145 9.619046237433356  C 3.3582088003146495 10.166665300069948  4.129353425008508 10.476191257102887  5.000000494234214 10.476191257102887  C 5.87064719278426 10.476191257102887  6.6666669961561436 10.166665300069948  7.238806361110647 9.619046237433356  Z " stroke-width="0" stroke-dasharray="0" stroke="rgba(121, 121, 121, 1)" fill="none" transform="matrix(1 0 0 1 153 527 )" class="stroke" mask="url(#Clip4755)" />
  </g>
</svg>