<?xml version="1.0" encoding="utf-8"?>
<svg version="1.1" xmlns:xlink="http://www.w3.org/1999/xlink" width="9px" height="17px" xmlns="http://www.w3.org/2000/svg">
  <defs>
    <pattern id="BGPattern" patternUnits="userSpaceOnUse" alignment="0 0" imageRepeat="None" />
    <mask fill="white" id="Clip4760">
      <path d="M 9 0.14206131540626565  L 9 17  L 7.34273839489551 17  C 7.34273839489551 17  7.34273839489551 10.417826346732737  7.34273839489551 10.417826346732737  C 6.422019743677925 11.625347174873031  5.386212032795762 11.93314578995348  4.143241819352572 11.93314578995348  C 2.9923429908388455 11.93314578995348  1.9795478669400866 11.530639298056613  1.3810806064508574 10.915040480237383  C 0.23018200660012877 9.731196577199572  0 7.789693658177313  0 5.9665743062285905  C 0 4.143454601466905  0.23018200660012877 2.2019496831711924  1.3810806064508574 1.0181062505506648  C 1.9795478669400866 0.4025069035119916  2.9923429908388455 0  4.143241819352572 0  C 5.386212032795762 0  6.445025070611133 0.28412239560388963  7.365743721828718 1.5153203840553113  C 7.365743721828718 1.5153203840553113  7.365743721828718 0.14206131540626565  7.365743721828718 0.14206131540626565  L 9 0.14206131540626565  Z M 4.5115026634666044 10.417826346732737  C 6.9744254156178656 10.417826346732737  7.34273839489551 8.239554411894273  7.34273839489551 5.9665743062285905  C 7.34273839489551 3.693594200562907  6.9744254156178656 1.5153203840553113  4.5115026634666044 1.5153203840553113  C 2.0485794539893463 1.5153203840553113  1.6572616051044897 3.693594200562907  1.6572616051044897 5.9665743062285905  C 1.6572616051044897 8.239554411894273  2.0485794539893463 10.417826346732737  4.5115026634666044 10.417826346732737  Z " fill-rule="evenodd" />
    </mask>
  </defs>
  <g transform="matrix(1 0 0 1 -661 -496 )">
    <path d="M 9 0.14206131540626565  L 9 17  L 7.34273839489551 17  C 7.34273839489551 17  7.34273839489551 10.417826346732737  7.34273839489551 10.417826346732737  C 6.422019743677925 11.625347174873031  5.386212032795762 11.93314578995348  4.143241819352572 11.93314578995348  C 2.9923429908388455 11.93314578995348  1.9795478669400866 11.530639298056613  1.3810806064508574 10.915040480237383  C 0.23018200660012877 9.731196577199572  0 7.789693658177313  0 5.9665743062285905  C 0 4.143454601466905  0.23018200660012877 2.2019496831711924  1.3810806064508574 1.0181062505506648  C 1.9795478669400866 0.4025069035119916  2.9923429908388455 0  4.143241819352572 0  C 5.386212032795762 0  6.445025070611133 0.28412239560388963  7.365743721828718 1.5153203840553113  C 7.365743721828718 1.5153203840553113  7.365743721828718 0.14206131540626565  7.365743721828718 0.14206131540626565  L 9 0.14206131540626565  Z M 4.5115026634666044 10.417826346732737  C 6.9744254156178656 10.417826346732737  7.34273839489551 8.239554411894273  7.34273839489551 5.9665743062285905  C 7.34273839489551 3.693594200562907  6.9744254156178656 1.5153203840553113  4.5115026634666044 1.5153203840553113  C 2.0485794539893463 1.5153203840553113  1.6572616051044897 3.693594200562907  1.6572616051044897 5.9665743062285905  C 1.6572616051044897 8.239554411894273  2.0485794539893463 10.417826346732737  4.5115026634666044 10.417826346732737  Z " fill-rule="nonzero" fill="rgba(0, 0, 0, 1)" stroke="none" transform="matrix(1 0 0 1 661 496 )" class="fill" />
    <path d="M 9 0.14206131540626565  L 9 17  L 7.34273839489551 17  C 7.34273839489551 17  7.34273839489551 10.417826346732737  7.34273839489551 10.417826346732737  C 6.422019743677925 11.625347174873031  5.386212032795762 11.93314578995348  4.143241819352572 11.93314578995348  C 2.9923429908388455 11.93314578995348  1.9795478669400866 11.530639298056613  1.3810806064508574 10.915040480237383  C 0.23018200660012877 9.731196577199572  0 7.789693658177313  0 5.9665743062285905  C 0 4.143454601466905  0.23018200660012877 2.2019496831711924  1.3810806064508574 1.0181062505506648  C 1.9795478669400866 0.4025069035119916  2.9923429908388455 0  4.143241819352572 0  C 5.386212032795762 0  6.445025070611133 0.28412239560388963  7.365743721828718 1.5153203840553113  C 7.365743721828718 1.5153203840553113  7.365743721828718 0.14206131540626565  7.365743721828718 0.14206131540626565  L 9 0.14206131540626565  Z " stroke-width="0" stroke-dasharray="0" stroke="rgba(121, 121, 121, 1)" fill="none" transform="matrix(1 0 0 1 661 496 )" class="stroke" mask="url(#Clip4760)" />
    <path d="M 4.5115026634666044 10.417826346732737  C 6.9744254156178656 10.417826346732737  7.34273839489551 8.239554411894273  7.34273839489551 5.9665743062285905  C 7.34273839489551 3.693594200562907  6.9744254156178656 1.5153203840553113  4.5115026634666044 1.5153203840553113  C 2.0485794539893463 1.5153203840553113  1.6572616051044897 3.693594200562907  1.6572616051044897 5.9665743062285905  C 1.6572616051044897 8.239554411894273  2.0485794539893463 10.417826346732737  4.5115026634666044 10.417826346732737  Z " stroke-width="0" stroke-dasharray="0" stroke="rgba(121, 121, 121, 1)" fill="none" transform="matrix(1 0 0 1 661 496 )" class="stroke" mask="url(#Clip4760)" />
  </g>
</svg>