<?xml version="1.0" encoding="utf-8"?>
<svg version="1.1" xmlns:xlink="http://www.w3.org/1999/xlink" width="22px" height="22px" xmlns="http://www.w3.org/2000/svg">
  <defs>
    <pattern id="BGPattern" patternUnits="userSpaceOnUse" alignment="0 0" imageRepeat="None" />
    <mask fill="white" id="Clip4696">
      <path d="M 9.924444712101181 4.456889405310156  L 9.924444712101181 0  L 11.88000031082718 0  L 11.88000031082718 4.456889405310156  L 9.924444712101181 4.456889405310156  Z M 10 22  L 10 5.002149877570707  L 11.85555569585949 5.002149877570707  L 11.85555569585949 22  L 10 22  Z M 0 5.144388463282859  L 0 3.4137863468386933  L 22 3.4137863468386933  L 22 5.144388463282859  L 0 5.144388463282859  Z M 2.4933337283428734 18.989220467272943  L 2.4933337283428734 8.368533410796523  L 18.553334544264217 8.368533410796523  L 18.553334544264217 10  L 4.326666737897895 10  L 4.326666737897895 18.989220467272943  L 2.4933337283428734 18.989220467272943  Z M 17.84444265287112 16.713357878568228  C 17.84444265287112 16.713357878568228  17.84444265287112 8.368533410796523  17.84444265287112 8.368533410796523  L 19.72666634936392 8.368533410796523  C 19.72666634936392 8.368533410796523  19.72666634936392 16.737066821593046  19.72666634936392 16.737066821593046  C 19.72666634936392 17.242813958857727  19.65333347579579 17.637925642188574  19.506666757324595 17.922408465776662  C 19.376296125053546 18.20689117161134  19.0992587743113 18.428152659206038  18.675555676432793 18.586198580724545  C 18.268147693419497 18.72843999251859  17.7059254345024 18.815372685481748  16.9888888996815 18.846981881560794  C 16.28814747972581 18.878591077639832  15.41629666900111 18.89439976761043  14.373334524837519 18.89439976761043  C 14.34074138110229 18.625721571500215  14.251111449999076 18.33333608091295  14.104444731527881 18.017244237875936  C 13.974074099256832 17.685347649607635  13.851851995753323 17.392962276773787  13.737778421017357 17.140088708141445  C 14.291852151166914 17.155893335619318  14.813333708916174 17.171686894276448  15.302223094265143 17.18749152175432  C 15.791111508279174 17.18749152175432  16.206665106055205 17.18749152175432  16.548887772932975 17.18749152175432  C 16.907406526010895 17.18749152175432  17.160000233120385 17.18749152175432  17.30666695159158 17.18749152175432  C 17.518518014863368 17.171686894276448  17.65703620456702 17.132180153471662  17.722221520702547 17.06896187906699  C 17.80370292303822 16.989938741677616  17.84444265287112 16.871403682333323  17.84444265287112 16.713357878568228  Z " fill-rule="evenodd" />
    </mask>
  </defs>
  <g transform="matrix(1 0 0 1 -141 -643 )">
    <path d="M 9.924444712101181 4.456889405310156  L 9.924444712101181 0  L 11.88000031082718 0  L 11.88000031082718 4.456889405310156  L 9.924444712101181 4.456889405310156  Z M 10 22  L 10 5.002149877570707  L 11.85555569585949 5.002149877570707  L 11.85555569585949 22  L 10 22  Z M 0 5.144388463282859  L 0 3.4137863468386933  L 22 3.4137863468386933  L 22 5.144388463282859  L 0 5.144388463282859  Z M 2.4933337283428734 18.989220467272943  L 2.4933337283428734 8.368533410796523  L 18.553334544264217 8.368533410796523  L 18.553334544264217 10  L 4.326666737897895 10  L 4.326666737897895 18.989220467272943  L 2.4933337283428734 18.989220467272943  Z M 17.84444265287112 16.713357878568228  C 17.84444265287112 16.713357878568228  17.84444265287112 8.368533410796523  17.84444265287112 8.368533410796523  L 19.72666634936392 8.368533410796523  C 19.72666634936392 8.368533410796523  19.72666634936392 16.737066821593046  19.72666634936392 16.737066821593046  C 19.72666634936392 17.242813958857727  19.65333347579579 17.637925642188574  19.506666757324595 17.922408465776662  C 19.376296125053546 18.20689117161134  19.0992587743113 18.428152659206038  18.675555676432793 18.586198580724545  C 18.268147693419497 18.72843999251859  17.7059254345024 18.815372685481748  16.9888888996815 18.846981881560794  C 16.28814747972581 18.878591077639832  15.41629666900111 18.89439976761043  14.373334524837519 18.89439976761043  C 14.34074138110229 18.625721571500215  14.251111449999076 18.33333608091295  14.104444731527881 18.017244237875936  C 13.974074099256832 17.685347649607635  13.851851995753323 17.392962276773787  13.737778421017357 17.140088708141445  C 14.291852151166914 17.155893335619318  14.813333708916174 17.171686894276448  15.302223094265143 17.18749152175432  C 15.791111508279174 17.18749152175432  16.206665106055205 17.18749152175432  16.548887772932975 17.18749152175432  C 16.907406526010895 17.18749152175432  17.160000233120385 17.18749152175432  17.30666695159158 17.18749152175432  C 17.518518014863368 17.171686894276448  17.65703620456702 17.132180153471662  17.722221520702547 17.06896187906699  C 17.80370292303822 16.989938741677616  17.84444265287112 16.871403682333323  17.84444265287112 16.713357878568228  Z " fill-rule="nonzero" fill="rgba(0, 0, 0, 1)" stroke="none" transform="matrix(1 0 0 1 141 643 )" class="fill" />
    <path d="M 9.924444712101181 4.456889405310156  L 9.924444712101181 0  L 11.88000031082718 0  L 11.88000031082718 4.456889405310156  L 9.924444712101181 4.456889405310156  Z " stroke-width="0" stroke-dasharray="0" stroke="rgba(121, 121, 121, 1)" fill="none" transform="matrix(1 0 0 1 141 643 )" class="stroke" mask="url(#Clip4696)" />
    <path d="M 10 22  L 10 5.002149877570707  L 11.85555569585949 5.002149877570707  L 11.85555569585949 22  L 10 22  Z " stroke-width="0" stroke-dasharray="0" stroke="rgba(121, 121, 121, 1)" fill="none" transform="matrix(1 0 0 1 141 643 )" class="stroke" mask="url(#Clip4696)" />
    <path d="M 0 5.144388463282859  L 0 3.4137863468386933  L 22 3.4137863468386933  L 22 5.144388463282859  L 0 5.144388463282859  Z " stroke-width="0" stroke-dasharray="0" stroke="rgba(121, 121, 121, 1)" fill="none" transform="matrix(1 0 0 1 141 643 )" class="stroke" mask="url(#Clip4696)" />
    <path d="M 2.4933337283428734 18.989220467272943  L 2.4933337283428734 8.368533410796523  L 18.553334544264217 8.368533410796523  L 18.553334544264217 10  L 4.326666737897895 10  L 4.326666737897895 18.989220467272943  L 2.4933337283428734 18.989220467272943  Z " stroke-width="0" stroke-dasharray="0" stroke="rgba(121, 121, 121, 1)" fill="none" transform="matrix(1 0 0 1 141 643 )" class="stroke" mask="url(#Clip4696)" />
    <path d="M 17.84444265287112 16.713357878568228  C 17.84444265287112 16.713357878568228  17.84444265287112 8.368533410796523  17.84444265287112 8.368533410796523  L 19.72666634936392 8.368533410796523  C 19.72666634936392 8.368533410796523  19.72666634936392 16.737066821593046  19.72666634936392 16.737066821593046  C 19.72666634936392 17.242813958857727  19.65333347579579 17.637925642188574  19.506666757324595 17.922408465776662  C 19.376296125053546 18.20689117161134  19.0992587743113 18.428152659206038  18.675555676432793 18.586198580724545  C 18.268147693419497 18.72843999251859  17.7059254345024 18.815372685481748  16.9888888996815 18.846981881560794  C 16.28814747972581 18.878591077639832  15.41629666900111 18.89439976761043  14.373334524837519 18.89439976761043  C 14.34074138110229 18.625721571500215  14.251111449999076 18.33333608091295  14.104444731527881 18.017244237875936  C 13.974074099256832 17.685347649607635  13.851851995753323 17.392962276773787  13.737778421017357 17.140088708141445  C 14.291852151166914 17.155893335619318  14.813333708916174 17.171686894276448  15.302223094265143 17.18749152175432  C 15.791111508279174 17.18749152175432  16.206665106055205 17.18749152175432  16.548887772932975 17.18749152175432  C 16.907406526010895 17.18749152175432  17.160000233120385 17.18749152175432  17.30666695159158 17.18749152175432  C 17.518518014863368 17.171686894276448  17.65703620456702 17.132180153471662  17.722221520702547 17.06896187906699  C 17.80370292303822 16.989938741677616  17.84444265287112 16.871403682333323  17.84444265287112 16.713357878568228  Z " stroke-width="0" stroke-dasharray="0" stroke="rgba(121, 121, 121, 1)" fill="none" transform="matrix(1 0 0 1 141 643 )" class="stroke" mask="url(#Clip4696)" />
  </g>
</svg>