<?xml version="1.0" encoding="utf-8"?>
<svg version="1.1" xmlns:xlink="http://www.w3.org/1999/xlink" width="22px" height="22px" xmlns="http://www.w3.org/2000/svg">
  <defs>
    <pattern id="BGPattern" patternUnits="userSpaceOnUse" alignment="0 0" imageRepeat="None" />
    <mask fill="white" id="Clip4698">
      <path d="M 9.361203256730567 10  L 9.361203256730567 8.133045740323203  L 22 8.133045740323203  L 22 10  L 9.361203256730567 10  Z M 15 22  L 15 0  L 16.6709497343753 0  L 16.6709497343753 22  L 15 22  Z M 1.1318692401416302 8.612867083218934  L 1.1318692401416302 7.1973811564178725  L 8.48874945144206 7.1973811564178725  L 8.48874945144206 8.612867083218934  L 1.1318692401416302 8.612867083218934  Z M 1.2497635408631371 2.207190379916745  L 1.2497635408631371 0.7677110979840757  L 8.512316318269908 0.7677110979840757  L 8.512316318269908 2.207190379916745  L 1.2497635408631371 2.207190379916745  Z M 1.1318692401416302 11.827702112435833  L 1.1318692401416302 10.388222830503164  L 8.48874945144206 10.388222830503164  L 8.48874945144206 11.827702112435833  L 1.1318692401416302 11.827702112435833  Z M 0 5.422025409133643  L 0 3.9105813150516258  L 9.384770123558416 3.9105813150516258  L 9.384770123558416 5.422025409133643  L 0 5.422025409133643  Z M 1.9571293451921794 15.138495308933688  L 1.9571293451921794 13.62705121485167  L 8.417988884376252 13.62705121485167  L 8.417988884376252 20.632500783462156  L 1.9571293451921794 20.632500783462156  L 1.9571293451921794 19.14503479126627  L 6.838169274758703 19.14503479126627  L 6.838169274758703 15.138495308933688  L 1.9571293451921794 15.138495308933688  Z M 1.0846755399036718 21.736103600043265  L 1.0846755399036718 13.62705121485167  L 2.6645551161034806 13.62705121485167  L 2.6645551161034806 21.736103600043265  L 1.0846755399036718 21.736103600043265  Z " fill-rule="evenodd" />
    </mask>
  </defs>
  <g transform="matrix(1 0 0 1 -894 -612 )">
    <path d="M 9.361203256730567 10  L 9.361203256730567 8.133045740323203  L 22 8.133045740323203  L 22 10  L 9.361203256730567 10  Z M 15 22  L 15 0  L 16.6709497343753 0  L 16.6709497343753 22  L 15 22  Z M 1.1318692401416302 8.612867083218934  L 1.1318692401416302 7.1973811564178725  L 8.48874945144206 7.1973811564178725  L 8.48874945144206 8.612867083218934  L 1.1318692401416302 8.612867083218934  Z M 1.2497635408631371 2.207190379916745  L 1.2497635408631371 0.7677110979840757  L 8.512316318269908 0.7677110979840757  L 8.512316318269908 2.207190379916745  L 1.2497635408631371 2.207190379916745  Z M 1.1318692401416302 11.827702112435833  L 1.1318692401416302 10.388222830503164  L 8.48874945144206 10.388222830503164  L 8.48874945144206 11.827702112435833  L 1.1318692401416302 11.827702112435833  Z M 0 5.422025409133643  L 0 3.9105813150516258  L 9.384770123558416 3.9105813150516258  L 9.384770123558416 5.422025409133643  L 0 5.422025409133643  Z M 1.9571293451921794 15.138495308933688  L 1.9571293451921794 13.62705121485167  L 8.417988884376252 13.62705121485167  L 8.417988884376252 20.632500783462156  L 1.9571293451921794 20.632500783462156  L 1.9571293451921794 19.14503479126627  L 6.838169274758703 19.14503479126627  L 6.838169274758703 15.138495308933688  L 1.9571293451921794 15.138495308933688  Z M 1.0846755399036718 21.736103600043265  L 1.0846755399036718 13.62705121485167  L 2.6645551161034806 13.62705121485167  L 2.6645551161034806 21.736103600043265  L 1.0846755399036718 21.736103600043265  Z " fill-rule="nonzero" fill="rgba(0, 0, 0, 1)" stroke="none" transform="matrix(1 0 0 1 894 612 )" class="fill" />
    <path d="M 9.361203256730567 10  L 9.361203256730567 8.133045740323203  L 22 8.133045740323203  L 22 10  L 9.361203256730567 10  Z " stroke-width="0" stroke-dasharray="0" stroke="rgba(121, 121, 121, 1)" fill="none" transform="matrix(1 0 0 1 894 612 )" class="stroke" mask="url(#Clip4698)" />
    <path d="M 15 22  L 15 0  L 16.6709497343753 0  L 16.6709497343753 22  L 15 22  Z " stroke-width="0" stroke-dasharray="0" stroke="rgba(121, 121, 121, 1)" fill="none" transform="matrix(1 0 0 1 894 612 )" class="stroke" mask="url(#Clip4698)" />
    <path d="M 1.1318692401416302 8.612867083218934  L 1.1318692401416302 7.1973811564178725  L 8.48874945144206 7.1973811564178725  L 8.48874945144206 8.612867083218934  L 1.1318692401416302 8.612867083218934  Z " stroke-width="0" stroke-dasharray="0" stroke="rgba(121, 121, 121, 1)" fill="none" transform="matrix(1 0 0 1 894 612 )" class="stroke" mask="url(#Clip4698)" />
    <path d="M 1.2497635408631371 2.207190379916745  L 1.2497635408631371 0.7677110979840757  L 8.512316318269908 0.7677110979840757  L 8.512316318269908 2.207190379916745  L 1.2497635408631371 2.207190379916745  Z " stroke-width="0" stroke-dasharray="0" stroke="rgba(121, 121, 121, 1)" fill="none" transform="matrix(1 0 0 1 894 612 )" class="stroke" mask="url(#Clip4698)" />
    <path d="M 1.1318692401416302 11.827702112435833  L 1.1318692401416302 10.388222830503164  L 8.48874945144206 10.388222830503164  L 8.48874945144206 11.827702112435833  L 1.1318692401416302 11.827702112435833  Z " stroke-width="0" stroke-dasharray="0" stroke="rgba(121, 121, 121, 1)" fill="none" transform="matrix(1 0 0 1 894 612 )" class="stroke" mask="url(#Clip4698)" />
    <path d="M 0 5.422025409133643  L 0 3.9105813150516258  L 9.384770123558416 3.9105813150516258  L 9.384770123558416 5.422025409133643  L 0 5.422025409133643  Z " stroke-width="0" stroke-dasharray="0" stroke="rgba(121, 121, 121, 1)" fill="none" transform="matrix(1 0 0 1 894 612 )" class="stroke" mask="url(#Clip4698)" />
    <path d="M 1.9571293451921794 15.138495308933688  L 1.9571293451921794 13.62705121485167  L 8.417988884376252 13.62705121485167  L 8.417988884376252 20.632500783462156  L 1.9571293451921794 20.632500783462156  L 1.9571293451921794 19.14503479126627  L 6.838169274758703 19.14503479126627  L 6.838169274758703 15.138495308933688  L 1.9571293451921794 15.138495308933688  Z " stroke-width="0" stroke-dasharray="0" stroke="rgba(121, 121, 121, 1)" fill="none" transform="matrix(1 0 0 1 894 612 )" class="stroke" mask="url(#Clip4698)" />
    <path d="M 1.0846755399036718 21.736103600043265  L 1.0846755399036718 13.62705121485167  L 2.6645551161034806 13.62705121485167  L 2.6645551161034806 21.736103600043265  L 1.0846755399036718 21.736103600043265  Z " stroke-width="0" stroke-dasharray="0" stroke="rgba(121, 121, 121, 1)" fill="none" transform="matrix(1 0 0 1 894 612 )" class="stroke" mask="url(#Clip4698)" />
  </g>
</svg>