<?xml version="1.0" encoding="utf-8"?>
<svg version="1.1" xmlns:xlink="http://www.w3.org/1999/xlink" width="9px" height="12px" xmlns="http://www.w3.org/2000/svg">
  <defs>
    <pattern id="BGPattern" patternUnits="userSpaceOnUse" alignment="0 0" imageRepeat="None" />
    <mask fill="white" id="Clip4734">
      <path d="M 9 0  L 9 11.85542445543518  L 7.348829224296409 11.85542445543518  C 7.348829224296409 11.85542445543518  7.348829224296409 10.53012309679989  7.348829224296409 10.53012309679989  C 6.534876664205132 11.493978891490464  5.395343773153891 12  4.116275860482768 12  C 2.88371858207012 12  1.8604750408247754 11.614461464267203  1.1628013188784605 10.891569618249273  C 0.34884858551804754 10.07229224063752  0 8.939757516730799  0 7.566263152922432  C 0 7.566263152922432  0 0  0 0  L 1.6744285763571156 0  C 1.6744285763571156 0  1.6744285763571156 7.301202881195374  1.6744285763571156 7.301202881195374  C 1.6744285763571156 9.397589210709754  2.7441848310905717 10.45783532451748  4.465113299019713 10.45783532451748  C 6.186041766948854 10.45783532451748  7.3255862092758495 9.37349288765534  7.3255862092758495 7.301202881195374  C 7.3255862092758495 7.301202881195374  7.3255862092758495 0  7.3255862092758495 0  L 9 0  Z " fill-rule="evenodd" />
    </mask>
  </defs>
  <g transform="matrix(1 0 0 1 -344 -558 )">
    <path d="M 9 0  L 9 11.85542445543518  L 7.348829224296409 11.85542445543518  C 7.348829224296409 11.85542445543518  7.348829224296409 10.53012309679989  7.348829224296409 10.53012309679989  C 6.534876664205132 11.493978891490464  5.395343773153891 12  4.116275860482768 12  C 2.88371858207012 12  1.8604750408247754 11.614461464267203  1.1628013188784605 10.891569618249273  C 0.34884858551804754 10.07229224063752  0 8.939757516730799  0 7.566263152922432  C 0 7.566263152922432  0 0  0 0  L 1.6744285763571156 0  C 1.6744285763571156 0  1.6744285763571156 7.301202881195374  1.6744285763571156 7.301202881195374  C 1.6744285763571156 9.397589210709754  2.7441848310905717 10.45783532451748  4.465113299019713 10.45783532451748  C 6.186041766948854 10.45783532451748  7.3255862092758495 9.37349288765534  7.3255862092758495 7.301202881195374  C 7.3255862092758495 7.301202881195374  7.3255862092758495 0  7.3255862092758495 0  L 9 0  Z " fill-rule="nonzero" fill="rgba(0, 0, 0, 1)" stroke="none" transform="matrix(1 0 0 1 344 558 )" class="fill" />
    <path d="M 9 0  L 9 11.85542445543518  L 7.348829224296409 11.85542445543518  C 7.348829224296409 11.85542445543518  7.348829224296409 10.53012309679989  7.348829224296409 10.53012309679989  C 6.534876664205132 11.493978891490464  5.395343773153891 12  4.116275860482768 12  C 2.88371858207012 12  1.8604750408247754 11.614461464267203  1.1628013188784605 10.891569618249273  C 0.34884858551804754 10.07229224063752  0 8.939757516730799  0 7.566263152922432  C 0 7.566263152922432  0 0  0 0  L 1.6744285763571156 0  C 1.6744285763571156 0  1.6744285763571156 7.301202881195374  1.6744285763571156 7.301202881195374  C 1.6744285763571156 9.397589210709754  2.7441848310905717 10.45783532451748  4.465113299019713 10.45783532451748  C 6.186041766948854 10.45783532451748  7.3255862092758495 9.37349288765534  7.3255862092758495 7.301202881195374  C 7.3255862092758495 7.301202881195374  7.3255862092758495 0  7.3255862092758495 0  L 9 0  Z " stroke-width="0" stroke-dasharray="0" stroke="rgba(121, 121, 121, 1)" fill="none" transform="matrix(1 0 0 1 344 558 )" class="stroke" mask="url(#Clip4734)" />
  </g>
</svg>