<?xml version="1.0" encoding="utf-8"?>
<svg version="1.1" xmlns:xlink="http://www.w3.org/1999/xlink" width="22px" height="21px" xmlns="http://www.w3.org/2000/svg">
  <defs>
    <pattern id="BGPattern" patternUnits="userSpaceOnUse" alignment="0 0" imageRepeat="None" />
    <mask fill="white" id="Clip4699">
      <path d="M 10.834734963626738 2.837843120548893  C 10.834734963626738 2.837843120548893  10.834734963626738 0  10.834734963626738 0  L 12.510737343032869 0  C 12.510737343032869 0  12.510737343032869 2.885129479925224  12.510737343032869 2.885129479925224  C 12.510737343032869 3.5472916844168014  12.432063111564677 4.256754343980074  12.2746958889756 5.013511820336894  C 12.117328666386523 5.77026835698069  11.826198554210622 6.503371377093054  11.401306490430532 7.2128312175172535  C 10.976414426650441 7.92229058808494  10.339046315535994 8.560804444466719  9.48926265696713 9.128372316806077  C 9.410579045672591 9.002246383984282  9.284712562895999 8.868247535445976  9.111608336653223 8.726355567361136  C 8.954241114064144 8.568697564013252  8.788977484664837 8.418914355807928  8.615873258422061 8.277022387723088  C 8.458505566841666 8.119364854231716  8.316868313036526 8.00900589638599  8.190974628763527 7.945942695046835  C 8.946338141375472 7.441438493903141  9.512887625587346 6.905398463381262  9.890569147397661 6.337830591041904  C 10.268251138199291 5.754497153296012  10.520044134641097 5.163292679259657  10.645937818914096 4.564193676107233  C 10.771831503187094 3.9650937332417846  10.834734963626738 3.3896444877686953  10.834734963626738 2.837843120548893  Z M 16.57080643312832 5.817560354635166  C 16.57080643312832 5.817560354635166  16.57080643312832 0  16.57080643312832 0  L 18.27034092087383 0  C 18.27034092087383 0  18.27034092087383 5.793924692651194  18.27034092087383 5.793924692651194  C 18.27034092087383 6.061943063414341  18.293966827476684 6.2353661623122445  18.34117736944646 6.314194929057932  C 18.40412444607862 6.3772581303970854  18.53005142873515 6.4087826832189805  18.718891720648987 6.4087826832189805  C 18.781838797281146 6.4087826832189805  18.891994539917814 6.4087826832189805  19.04936176250689 6.4087826832189805  C 19.206728985095967 6.4087826832189805  19.37193211461534 6.4087826832189805  19.54503680984943 6.4087826832189805  C 19.718140567100892 6.4087826832189805  19.84406754975742 6.4087826832189805  19.92275116105196 6.4087826832189805  C 20.048645314316275 6.4087826832189805  20.143029816933076 6.353603674152629  20.205976893565236 6.243242836880855  C 20.284660504859772 6.132882939322103  20.339768860613734 5.896394759658997  20.371241929938495 5.533782056743631  C 20.41845247190827 5.155402848708709  20.442018347622504 4.587838735221446  20.442018347622504 3.8310821985776506  C 20.61512210487396 3.9729741666624903  20.85120483016716 4.09910338847987  21.150202740682936 4.209463286038621  C 21.449201589181342 4.319824123310395  21.716704856771756 4.406527685198643  21.952755690655373 4.469590886537796  C 21.905545148685597 5.399771461792521  21.811160646068796 6.117119253341619  21.6695299581421 6.621623924341825  C 21.543636742860418 7.126128125485518  21.35474673786694 7.480859925123667  21.102958431338305 7.68581509454766  C 20.86690759745469 7.875004228708609  20.536440369544692 7.969593392439194  20.111548305764604 7.969593392439194  C 20.001390687162665 7.969593392439194  19.8361875576433 7.969593392439194  19.61587325842206 7.969593392439194  C 19.395558959200823 7.969593392439194  19.16733183847325 7.969593392439194  18.931281004589636 7.969593392439194  C 18.7109667053684 7.969593392439194  18.553618242432016 7.969593392439194  18.459198096475095 7.969593392439194  C 17.971358956062847 7.969593392439194  17.585844341270143 7.906529251387016  17.30258296541675 7.780402848708709  C 17.03505812422574 7.654276915886914  16.84616811923226 7.441444132181287  16.73601143861296 7.141894160748563  C 16.625853820011024 6.826579093765818  16.57080643312832 6.385128226974525  16.57080643312832 5.817560354635166  Z M 10.527917091885461 11.658786442071078  C 10.527917091885461 11.658786442071078  12.10943085260234 11.138516205664338  12.10943085260234 11.138516205664338  C 12.912005376175378 13.188066020478226  14.163054722930163 14.938069035390845  15.86262204006789 16.388519964516437  C 17.577926829850632 17.83897065871377  19.623753250536186 18.863740750091466  22 19.462839988172146  C 21.874106784718318 19.57320038495344  21.73246953091318 19.72296891014276  21.575101370341464 19.912158132401807  C 21.433470682414768 20.101347384026884  21.291833428609632 20.29054057070025  21.150202740682936 20.479729763593262  C 21.02430952540125 20.668918956486277  20.914153782764586 20.8344573345228  20.81973269882503 20.97634930260764  C 18.38053887272906 20.266889697111697  16.28751973174379 19.115990853773134  14.540741872636284 17.523648191490963  C 12.809700548191161 15.91553961140987  11.472121365402563 13.960588827313323  10.527917091885461 11.658786442071078  Z M 18.718891720648987 9.79054673756697  C 18.718891720648987 9.79054673756697  18.718891720648987 9.48310270687469  18.718891720648987 9.48310270687469  L 19.04936176250689 9.48310270687469  L 19.356179634248168 9.412165650106  C 19.356179634248168 9.412165650106  20.512854796195136 9.86148379433566  20.512854796195136 9.86148379433566  C 20.103699267077424 11.422294973412386  19.52143904272562 12.80968117416516  18.766075999104995 14.023645685589564  C 18.026448552164116 15.221843926822668  17.16091382020203 16.27815372389477  16.169499942697787 17.19256849881471  C 15.17808512721091 18.106983038806387  14.092238909975496 18.871625647149035  12.911983802574778 19.486490685564505  C 11.747465229836443 20.117121406850632  10.512126154230268 20.621621496749846  9.205976893565234 21  C 9.158766351595457 20.84234223158037  9.080092589118584 20.66103400069664  8.969935439507966 20.456079066200903  C 8.859778289897347 20.266889814575826  8.741766942695058 20.07771172204291  8.615873258422061 19.888522470417836  C 8.489979105157744 19.699333277524822  8.364112622381153 19.549549687561083  8.238218938108153 19.439189290779787  C 9.434211049162569 19.12387393013672  10.58296025784631 18.690323113275515  11.684532222943806 18.138521217467133  C 12.786103719049983 17.586719262926692  13.801131309382827 16.9166657008505  14.729599048237548 16.128377328608874  C 15.673803321754649 15.324323156032458  16.484230635945405 14.394142345849476  17.160910068271495 13.337835602844699  C 17.83758950059758 12.281529094768178  18.356946733501054 11.099105581143592  18.718891720648987 9.79054673756697  Z M 9.300405481365868 11  L 9.300405481365868 9.48310270687469  L 19.403423943592795 9.48310270687469  L 19.403423943592795 11  L 9.300405481365868 11  Z M 11.542919356687168 1.5844614066125726  L 11.542919356687168 0  L 17.444195831673387 0  L 17.444195831673387 1.5844614066125726  L 11.542919356687168 1.5844614066125726  Z M 1.1330830227189626 7.804053546101068  L 1.1330830227189626 6.4087826832189805  L 8.167382489535525 6.4087826832189805  L 8.167382489535525 7.804053546101068  L 1.1330830227189626 7.804053546101068  Z M 1.2274515796309737 1.4898586170431365  L 1.2274515796309737 0.07093705676869026  L 8.120198211079519 0.07093705676869026  L 8.120198211079519 1.4898586170431365  L 1.2274515796309737 1.4898586170431365  Z M 1.1330830227189626 10.972976359326212  L 1.1330830227189626 9.554054799051768  L 8.167382489535525 9.554054799051768  L 8.167382489535525 10.972976359326212  L 1.1330830227189626 10.972976359326212  Z M 0 4.658781430268282  L 0 3.1689228132251452  L 8.993587609624589 3.1689228132251452  L 8.993587609624589 4.658781430268282  L 0 4.658781430268282  Z M 1.959228111919406 14.236486926712407  L 1.959228111919406 12.746628309669271  L 8.143790350307523 12.746628309669271  L 8.143790350307523 19.65203053190263  L 1.959228111919406 19.65203053190263  L 1.959228111919406 18.185807576843466  L 6.585808697930026 18.185807576843466  L 6.585808697930026 14.236486926712407  L 1.959228111919406 14.236486926712407  Z M 1.0858387133743364 20.739872399500825  L 1.0858387133743364 12.746628309669271  L 2.6437603348632117 12.746628309669271  L 2.6437603348632117 20.739872399500825  L 1.0858387133743364 20.739872399500825  Z " fill-rule="evenodd" />
    </mask>
  </defs>
  <g transform="matrix(1 0 0 1 -870 -613 )">
    <path d="M 10.834734963626738 2.837843120548893  C 10.834734963626738 2.837843120548893  10.834734963626738 0  10.834734963626738 0  L 12.510737343032869 0  C 12.510737343032869 0  12.510737343032869 2.885129479925224  12.510737343032869 2.885129479925224  C 12.510737343032869 3.5472916844168014  12.432063111564677 4.256754343980074  12.2746958889756 5.013511820336894  C 12.117328666386523 5.77026835698069  11.826198554210622 6.503371377093054  11.401306490430532 7.2128312175172535  C 10.976414426650441 7.92229058808494  10.339046315535994 8.560804444466719  9.48926265696713 9.128372316806077  C 9.410579045672591 9.002246383984282  9.284712562895999 8.868247535445976  9.111608336653223 8.726355567361136  C 8.954241114064144 8.568697564013252  8.788977484664837 8.418914355807928  8.615873258422061 8.277022387723088  C 8.458505566841666 8.119364854231716  8.316868313036526 8.00900589638599  8.190974628763527 7.945942695046835  C 8.946338141375472 7.441438493903141  9.512887625587346 6.905398463381262  9.890569147397661 6.337830591041904  C 10.268251138199291 5.754497153296012  10.520044134641097 5.163292679259657  10.645937818914096 4.564193676107233  C 10.771831503187094 3.9650937332417846  10.834734963626738 3.3896444877686953  10.834734963626738 2.837843120548893  Z M 16.57080643312832 5.817560354635166  C 16.57080643312832 5.817560354635166  16.57080643312832 0  16.57080643312832 0  L 18.27034092087383 0  C 18.27034092087383 0  18.27034092087383 5.793924692651194  18.27034092087383 5.793924692651194  C 18.27034092087383 6.061943063414341  18.293966827476684 6.2353661623122445  18.34117736944646 6.314194929057932  C 18.40412444607862 6.3772581303970854  18.53005142873515 6.4087826832189805  18.718891720648987 6.4087826832189805  C 18.781838797281146 6.4087826832189805  18.891994539917814 6.4087826832189805  19.04936176250689 6.4087826832189805  C 19.206728985095967 6.4087826832189805  19.37193211461534 6.4087826832189805  19.54503680984943 6.4087826832189805  C 19.718140567100892 6.4087826832189805  19.84406754975742 6.4087826832189805  19.92275116105196 6.4087826832189805  C 20.048645314316275 6.4087826832189805  20.143029816933076 6.353603674152629  20.205976893565236 6.243242836880855  C 20.284660504859772 6.132882939322103  20.339768860613734 5.896394759658997  20.371241929938495 5.533782056743631  C 20.41845247190827 5.155402848708709  20.442018347622504 4.587838735221446  20.442018347622504 3.8310821985776506  C 20.61512210487396 3.9729741666624903  20.85120483016716 4.09910338847987  21.150202740682936 4.209463286038621  C 21.449201589181342 4.319824123310395  21.716704856771756 4.406527685198643  21.952755690655373 4.469590886537796  C 21.905545148685597 5.399771461792521  21.811160646068796 6.117119253341619  21.6695299581421 6.621623924341825  C 21.543636742860418 7.126128125485518  21.35474673786694 7.480859925123667  21.102958431338305 7.68581509454766  C 20.86690759745469 7.875004228708609  20.536440369544692 7.969593392439194  20.111548305764604 7.969593392439194  C 20.001390687162665 7.969593392439194  19.8361875576433 7.969593392439194  19.61587325842206 7.969593392439194  C 19.395558959200823 7.969593392439194  19.16733183847325 7.969593392439194  18.931281004589636 7.969593392439194  C 18.7109667053684 7.969593392439194  18.553618242432016 7.969593392439194  18.459198096475095 7.969593392439194  C 17.971358956062847 7.969593392439194  17.585844341270143 7.906529251387016  17.30258296541675 7.780402848708709  C 17.03505812422574 7.654276915886914  16.84616811923226 7.441444132181287  16.73601143861296 7.141894160748563  C 16.625853820011024 6.826579093765818  16.57080643312832 6.385128226974525  16.57080643312832 5.817560354635166  Z M 10.527917091885461 11.658786442071078  C 10.527917091885461 11.658786442071078  12.10943085260234 11.138516205664338  12.10943085260234 11.138516205664338  C 12.912005376175378 13.188066020478226  14.163054722930163 14.938069035390845  15.86262204006789 16.388519964516437  C 17.577926829850632 17.83897065871377  19.623753250536186 18.863740750091466  22 19.462839988172146  C 21.874106784718318 19.57320038495344  21.73246953091318 19.72296891014276  21.575101370341464 19.912158132401807  C 21.433470682414768 20.101347384026884  21.291833428609632 20.29054057070025  21.150202740682936 20.479729763593262  C 21.02430952540125 20.668918956486277  20.914153782764586 20.8344573345228  20.81973269882503 20.97634930260764  C 18.38053887272906 20.266889697111697  16.28751973174379 19.115990853773134  14.540741872636284 17.523648191490963  C 12.809700548191161 15.91553961140987  11.472121365402563 13.960588827313323  10.527917091885461 11.658786442071078  Z M 18.718891720648987 9.79054673756697  C 18.718891720648987 9.79054673756697  18.718891720648987 9.48310270687469  18.718891720648987 9.48310270687469  L 19.04936176250689 9.48310270687469  L 19.356179634248168 9.412165650106  C 19.356179634248168 9.412165650106  20.512854796195136 9.86148379433566  20.512854796195136 9.86148379433566  C 20.103699267077424 11.422294973412386  19.52143904272562 12.80968117416516  18.766075999104995 14.023645685589564  C 18.026448552164116 15.221843926822668  17.16091382020203 16.27815372389477  16.169499942697787 17.19256849881471  C 15.17808512721091 18.106983038806387  14.092238909975496 18.871625647149035  12.911983802574778 19.486490685564505  C 11.747465229836443 20.117121406850632  10.512126154230268 20.621621496749846  9.205976893565234 21  C 9.158766351595457 20.84234223158037  9.080092589118584 20.66103400069664  8.969935439507966 20.456079066200903  C 8.859778289897347 20.266889814575826  8.741766942695058 20.07771172204291  8.615873258422061 19.888522470417836  C 8.489979105157744 19.699333277524822  8.364112622381153 19.549549687561083  8.238218938108153 19.439189290779787  C 9.434211049162569 19.12387393013672  10.58296025784631 18.690323113275515  11.684532222943806 18.138521217467133  C 12.786103719049983 17.586719262926692  13.801131309382827 16.9166657008505  14.729599048237548 16.128377328608874  C 15.673803321754649 15.324323156032458  16.484230635945405 14.394142345849476  17.160910068271495 13.337835602844699  C 17.83758950059758 12.281529094768178  18.356946733501054 11.099105581143592  18.718891720648987 9.79054673756697  Z M 9.300405481365868 11  L 9.300405481365868 9.48310270687469  L 19.403423943592795 9.48310270687469  L 19.403423943592795 11  L 9.300405481365868 11  Z M 11.542919356687168 1.5844614066125726  L 11.542919356687168 0  L 17.444195831673387 0  L 17.444195831673387 1.5844614066125726  L 11.542919356687168 1.5844614066125726  Z M 1.1330830227189626 7.804053546101068  L 1.1330830227189626 6.4087826832189805  L 8.167382489535525 6.4087826832189805  L 8.167382489535525 7.804053546101068  L 1.1330830227189626 7.804053546101068  Z M 1.2274515796309737 1.4898586170431365  L 1.2274515796309737 0.07093705676869026  L 8.120198211079519 0.07093705676869026  L 8.120198211079519 1.4898586170431365  L 1.2274515796309737 1.4898586170431365  Z M 1.1330830227189626 10.972976359326212  L 1.1330830227189626 9.554054799051768  L 8.167382489535525 9.554054799051768  L 8.167382489535525 10.972976359326212  L 1.1330830227189626 10.972976359326212  Z M 0 4.658781430268282  L 0 3.1689228132251452  L 8.993587609624589 3.1689228132251452  L 8.993587609624589 4.658781430268282  L 0 4.658781430268282  Z M 1.959228111919406 14.236486926712407  L 1.959228111919406 12.746628309669271  L 8.143790350307523 12.746628309669271  L 8.143790350307523 19.65203053190263  L 1.959228111919406 19.65203053190263  L 1.959228111919406 18.185807576843466  L 6.585808697930026 18.185807576843466  L 6.585808697930026 14.236486926712407  L 1.959228111919406 14.236486926712407  Z M 1.0858387133743364 20.739872399500825  L 1.0858387133743364 12.746628309669271  L 2.6437603348632117 12.746628309669271  L 2.6437603348632117 20.739872399500825  L 1.0858387133743364 20.739872399500825  Z " fill-rule="nonzero" fill="rgba(0, 0, 0, 1)" stroke="none" transform="matrix(1 0 0 1 870 613 )" class="fill" />
    <path d="M 10.834734963626738 2.837843120548893  C 10.834734963626738 2.837843120548893  10.834734963626738 0  10.834734963626738 0  L 12.510737343032869 0  C 12.510737343032869 0  12.510737343032869 2.885129479925224  12.510737343032869 2.885129479925224  C 12.510737343032869 3.5472916844168014  12.432063111564677 4.256754343980074  12.2746958889756 5.013511820336894  C 12.117328666386523 5.77026835698069  11.826198554210622 6.503371377093054  11.401306490430532 7.2128312175172535  C 10.976414426650441 7.92229058808494  10.339046315535994 8.560804444466719  9.48926265696713 9.128372316806077  C 9.410579045672591 9.002246383984282  9.284712562895999 8.868247535445976  9.111608336653223 8.726355567361136  C 8.954241114064144 8.568697564013252  8.788977484664837 8.418914355807928  8.615873258422061 8.277022387723088  C 8.458505566841666 8.119364854231716  8.316868313036526 8.00900589638599  8.190974628763527 7.945942695046835  C 8.946338141375472 7.441438493903141  9.512887625587346 6.905398463381262  9.890569147397661 6.337830591041904  C 10.268251138199291 5.754497153296012  10.520044134641097 5.163292679259657  10.645937818914096 4.564193676107233  C 10.771831503187094 3.9650937332417846  10.834734963626738 3.3896444877686953  10.834734963626738 2.837843120548893  Z " stroke-width="0" stroke-dasharray="0" stroke="rgba(121, 121, 121, 1)" fill="none" transform="matrix(1 0 0 1 870 613 )" class="stroke" mask="url(#Clip4699)" />
    <path d="M 16.57080643312832 5.817560354635166  C 16.57080643312832 5.817560354635166  16.57080643312832 0  16.57080643312832 0  L 18.27034092087383 0  C 18.27034092087383 0  18.27034092087383 5.793924692651194  18.27034092087383 5.793924692651194  C 18.27034092087383 6.061943063414341  18.293966827476684 6.2353661623122445  18.34117736944646 6.314194929057932  C 18.40412444607862 6.3772581303970854  18.53005142873515 6.4087826832189805  18.718891720648987 6.4087826832189805  C 18.781838797281146 6.4087826832189805  18.891994539917814 6.4087826832189805  19.04936176250689 6.4087826832189805  C 19.206728985095967 6.4087826832189805  19.37193211461534 6.4087826832189805  19.54503680984943 6.4087826832189805  C 19.718140567100892 6.4087826832189805  19.84406754975742 6.4087826832189805  19.92275116105196 6.4087826832189805  C 20.048645314316275 6.4087826832189805  20.143029816933076 6.353603674152629  20.205976893565236 6.243242836880855  C 20.284660504859772 6.132882939322103  20.339768860613734 5.896394759658997  20.371241929938495 5.533782056743631  C 20.41845247190827 5.155402848708709  20.442018347622504 4.587838735221446  20.442018347622504 3.8310821985776506  C 20.61512210487396 3.9729741666624903  20.85120483016716 4.09910338847987  21.150202740682936 4.209463286038621  C 21.449201589181342 4.319824123310395  21.716704856771756 4.406527685198643  21.952755690655373 4.469590886537796  C 21.905545148685597 5.399771461792521  21.811160646068796 6.117119253341619  21.6695299581421 6.621623924341825  C 21.543636742860418 7.126128125485518  21.35474673786694 7.480859925123667  21.102958431338305 7.68581509454766  C 20.86690759745469 7.875004228708609  20.536440369544692 7.969593392439194  20.111548305764604 7.969593392439194  C 20.001390687162665 7.969593392439194  19.8361875576433 7.969593392439194  19.61587325842206 7.969593392439194  C 19.395558959200823 7.969593392439194  19.16733183847325 7.969593392439194  18.931281004589636 7.969593392439194  C 18.7109667053684 7.969593392439194  18.553618242432016 7.969593392439194  18.459198096475095 7.969593392439194  C 17.971358956062847 7.969593392439194  17.585844341270143 7.906529251387016  17.30258296541675 7.780402848708709  C 17.03505812422574 7.654276915886914  16.84616811923226 7.441444132181287  16.73601143861296 7.141894160748563  C 16.625853820011024 6.826579093765818  16.57080643312832 6.385128226974525  16.57080643312832 5.817560354635166  Z " stroke-width="0" stroke-dasharray="0" stroke="rgba(121, 121, 121, 1)" fill="none" transform="matrix(1 0 0 1 870 613 )" class="stroke" mask="url(#Clip4699)" />
    <path d="M 10.527917091885461 11.658786442071078  C 10.527917091885461 11.658786442071078  12.10943085260234 11.138516205664338  12.10943085260234 11.138516205664338  C 12.912005376175378 13.188066020478226  14.163054722930163 14.938069035390845  15.86262204006789 16.388519964516437  C 17.577926829850632 17.83897065871377  19.623753250536186 18.863740750091466  22 19.462839988172146  C 21.874106784718318 19.57320038495344  21.73246953091318 19.72296891014276  21.575101370341464 19.912158132401807  C 21.433470682414768 20.101347384026884  21.291833428609632 20.29054057070025  21.150202740682936 20.479729763593262  C 21.02430952540125 20.668918956486277  20.914153782764586 20.8344573345228  20.81973269882503 20.97634930260764  C 18.38053887272906 20.266889697111697  16.28751973174379 19.115990853773134  14.540741872636284 17.523648191490963  C 12.809700548191161 15.91553961140987  11.472121365402563 13.960588827313323  10.527917091885461 11.658786442071078  Z " stroke-width="0" stroke-dasharray="0" stroke="rgba(121, 121, 121, 1)" fill="none" transform="matrix(1 0 0 1 870 613 )" class="stroke" mask="url(#Clip4699)" />
    <path d="M 18.718891720648987 9.79054673756697  C 18.718891720648987 9.79054673756697  18.718891720648987 9.48310270687469  18.718891720648987 9.48310270687469  L 19.04936176250689 9.48310270687469  L 19.356179634248168 9.412165650106  C 19.356179634248168 9.412165650106  20.512854796195136 9.86148379433566  20.512854796195136 9.86148379433566  C 20.103699267077424 11.422294973412386  19.52143904272562 12.80968117416516  18.766075999104995 14.023645685589564  C 18.026448552164116 15.221843926822668  17.16091382020203 16.27815372389477  16.169499942697787 17.19256849881471  C 15.17808512721091 18.106983038806387  14.092238909975496 18.871625647149035  12.911983802574778 19.486490685564505  C 11.747465229836443 20.117121406850632  10.512126154230268 20.621621496749846  9.205976893565234 21  C 9.158766351595457 20.84234223158037  9.080092589118584 20.66103400069664  8.969935439507966 20.456079066200903  C 8.859778289897347 20.266889814575826  8.741766942695058 20.07771172204291  8.615873258422061 19.888522470417836  C 8.489979105157744 19.699333277524822  8.364112622381153 19.549549687561083  8.238218938108153 19.439189290779787  C 9.434211049162569 19.12387393013672  10.58296025784631 18.690323113275515  11.684532222943806 18.138521217467133  C 12.786103719049983 17.586719262926692  13.801131309382827 16.9166657008505  14.729599048237548 16.128377328608874  C 15.673803321754649 15.324323156032458  16.484230635945405 14.394142345849476  17.160910068271495 13.337835602844699  C 17.83758950059758 12.281529094768178  18.356946733501054 11.099105581143592  18.718891720648987 9.79054673756697  Z " stroke-width="0" stroke-dasharray="0" stroke="rgba(121, 121, 121, 1)" fill="none" transform="matrix(1 0 0 1 870 613 )" class="stroke" mask="url(#Clip4699)" />
    <path d="M 9.300405481365868 11  L 9.300405481365868 9.48310270687469  L 19.403423943592795 9.48310270687469  L 19.403423943592795 11  L 9.300405481365868 11  Z " stroke-width="0" stroke-dasharray="0" stroke="rgba(121, 121, 121, 1)" fill="none" transform="matrix(1 0 0 1 870 613 )" class="stroke" mask="url(#Clip4699)" />
    <path d="M 11.542919356687168 1.5844614066125726  L 11.542919356687168 0  L 17.444195831673387 0  L 17.444195831673387 1.5844614066125726  L 11.542919356687168 1.5844614066125726  Z " stroke-width="0" stroke-dasharray="0" stroke="rgba(121, 121, 121, 1)" fill="none" transform="matrix(1 0 0 1 870 613 )" class="stroke" mask="url(#Clip4699)" />
    <path d="M 1.1330830227189626 7.804053546101068  L 1.1330830227189626 6.4087826832189805  L 8.167382489535525 6.4087826832189805  L 8.167382489535525 7.804053546101068  L 1.1330830227189626 7.804053546101068  Z " stroke-width="0" stroke-dasharray="0" stroke="rgba(121, 121, 121, 1)" fill="none" transform="matrix(1 0 0 1 870 613 )" class="stroke" mask="url(#Clip4699)" />
    <path d="M 1.2274515796309737 1.4898586170431365  L 1.2274515796309737 0.07093705676869026  L 8.120198211079519 0.07093705676869026  L 8.120198211079519 1.4898586170431365  L 1.2274515796309737 1.4898586170431365  Z " stroke-width="0" stroke-dasharray="0" stroke="rgba(121, 121, 121, 1)" fill="none" transform="matrix(1 0 0 1 870 613 )" class="stroke" mask="url(#Clip4699)" />
    <path d="M 1.1330830227189626 10.972976359326212  L 1.1330830227189626 9.554054799051768  L 8.167382489535525 9.554054799051768  L 8.167382489535525 10.972976359326212  L 1.1330830227189626 10.972976359326212  Z " stroke-width="0" stroke-dasharray="0" stroke="rgba(121, 121, 121, 1)" fill="none" transform="matrix(1 0 0 1 870 613 )" class="stroke" mask="url(#Clip4699)" />
    <path d="M 0 4.658781430268282  L 0 3.1689228132251452  L 8.993587609624589 3.1689228132251452  L 8.993587609624589 4.658781430268282  L 0 4.658781430268282  Z " stroke-width="0" stroke-dasharray="0" stroke="rgba(121, 121, 121, 1)" fill="none" transform="matrix(1 0 0 1 870 613 )" class="stroke" mask="url(#Clip4699)" />
    <path d="M 1.959228111919406 14.236486926712407  L 1.959228111919406 12.746628309669271  L 8.143790350307523 12.746628309669271  L 8.143790350307523 19.65203053190263  L 1.959228111919406 19.65203053190263  L 1.959228111919406 18.185807576843466  L 6.585808697930026 18.185807576843466  L 6.585808697930026 14.236486926712407  L 1.959228111919406 14.236486926712407  Z " stroke-width="0" stroke-dasharray="0" stroke="rgba(121, 121, 121, 1)" fill="none" transform="matrix(1 0 0 1 870 613 )" class="stroke" mask="url(#Clip4699)" />
    <path d="M 1.0858387133743364 20.739872399500825  L 1.0858387133743364 12.746628309669271  L 2.6437603348632117 12.746628309669271  L 2.6437603348632117 20.739872399500825  L 1.0858387133743364 20.739872399500825  Z " stroke-width="0" stroke-dasharray="0" stroke="rgba(121, 121, 121, 1)" fill="none" transform="matrix(1 0 0 1 870 613 )" class="stroke" mask="url(#Clip4699)" />
  </g>
</svg>