<?xml version="1.0" encoding="utf-8"?>
<svg version="1.1" xmlns:xlink="http://www.w3.org/1999/xlink" width="22px" height="22px" xmlns="http://www.w3.org/2000/svg">
  <defs>
    <pattern id="BGPattern" patternUnits="userSpaceOnUse" alignment="0 0" imageRepeat="None" />
    <mask fill="white" id="Clip4714">
      <path d="M 0.236042098139856 9.582961013865763  L 4.673807633221185 9.582961013865763  L 4.673807633221185 18.085149120974386  L 2.997860711586266 18.085149120974386  L 2.997860711586266 11.264192156408187  L 0.236042098139856 11.264192156408187  L 0.236042098139856 9.582961013865763  Z M 3.163096183389408 17.364623669870337  C 3.163096183389408 17.364623669870337  4.673807633221185 17.364623669870337  4.673807633221185 17.364623669870337  C 5.256068742888367 18.261276072051018  6.058642407981948 18.925763857173003  7.081533083931597 19.358078435918134  C 8.120160337483663 19.790393014663266  9.347647626931568 20.038576829368594  10.763957901860143 20.10262343804551  C 11.424902603028293 20.118635090214735  12.243216832161364 20.13465089537894  13.218897775303772 20.15066254009216  C 14.2103143580634 20.15066254009216  15.241055970088164 20.15066254009216  16.31115731683025 20.15066254009216  C 17.38125866357234 20.13465089537894  18.412029353138124 20.11062719136064  19.403446873882945 20.078603887022183  C 20.410600034244986 20.030568930514498  21.276108050437 19.982536792376834  22 19.93450185078116  C 21.937053689590343 20.06259505322297  21.866234869446103 20.230715164198262  21.787550105463644 20.438866612574206  C 21.708866279466378 20.64701807586216  21.63807653686316 20.85517771093196  21.575130226453503 21.063329129483886  C 21.51218297805865 21.287492259853074  21.464961051443883 21.487628681433815  21.43348695825386 21.663756825471303  C 20.756805679483296 21.695780129809755  19.954231779893416 21.71980379654803  19.025761507543447 21.73581547854128  C 18.097291235193477 21.751827100886487  17.129483739770844 21.75983502956461  16.122329641423608 21.75983502956461  C 15.115176481061567 21.775846651909813  14.14736804765374 21.775846651909813  13.218897775303772 21.75983502956461  C 12.290427502953799 21.75983502956461  11.47996843082922 21.74381923185641  10.787550105463644 21.711795927517954  C 9.213872178540536 21.647749318841043  7.868373688867241 21.391557575457593  6.751062140325313 20.943231374367254  C 5.633750591783386 20.494905173276912  4.69742469343233 19.790393133959352  3.942059119671903 18.82969412310176  C 3.469955694695711 19.342066932869013  2.982108891724447 19.862443078415097  2.478532077047127 20.390827510527554  C 1.9749550278735093 20.919212002288056  1.455656760605031 21.45560388589429  0.9206062044821366 22  C 0.9206062044821366 22  0 20.294764576333183  0 20.294764576333183  C 0.48784023707490515 19.89447333175053  1.0071386215915323 19.438145136962316  1.5579258725649905 18.925772327195062  C 2.1244500528853107 18.41339945777977  2.65951913421579 17.893008101982797  3.163096183389408 17.364623669870337  Z M 1.6051402952982041 2.9541451875872378  C 1.1802471893700015 2.4417723181719433  0.7553640495344864 1.9774366420659342  0.3304709436062836 1.5611333874257936  C 0.3304709436062836 1.5611333874257936  1.7231613443681324 0.6724863490573961  1.7231613443681324 0.6724863490573961  C 2.1637911451468987 1.0727781602964581  2.596559926509713 1.5210985755266555  3.021452915189766 2.017459047172188  C 3.4620829504648314 2.4978090297853264  3.8555142742586845 2.9861690287580784  4.201723436941473 3.482529500403611  C 4.563669411722973 3.962879483016749  4.839059519765224 4.403207060523632  5.027900795957182 4.8034979173940116  C 5.027900795957182 4.8034979173940116  3.5407815497289055 5.788207889956779  3.5407815497289055 5.788207889956779  C 3.3676768511393624 5.3879170330864  3.1079977606029847 4.939596617856203  2.761788597920197 4.443235191841987  C 2.4155794352374094 3.9468737658277706  2.030033401226407 3.4505056592327707  1.6051402952982041 2.9541451875872378  Z M 5.6652204640400345 4.899560851588381  L 5.6652204640400345 3.3624470151859143  L 13.76181861344641 3.3624470151859143  L 13.76181861344641 4.899560851588381  L 5.6652204640400345 4.899560851588381  Z M 8.663081175626301 8.958513766855019  L 8.663081175626301 7.445419481475878  L 12.274669351691921 7.445419481475878  L 12.274669351691921 8.958513766855019  L 8.663081175626301 8.958513766855019  Z M 8.89915328929237 4.251094053554312  L 8.89915328929237 0.09606293419437054  L 10.551508007323788 0.09606293419437054  L 10.551508007323788 4.251094053554312  L 8.89915328929237 4.251094053554312  Z M 11.637349683609067 7.757643104981249  C 11.637349683609067 7.757643104981249  11.637349683609067 7.445419481475878  11.637349683609067 7.445419481475878  C 11.637349683609067 7.445419481475878  13.171683352570557 7.445419481475878  13.171683352570557 7.445419481475878  C 13.171683352570557 7.445419481475878  13.171683352570557 7.5414833700389305  13.171683352570557 7.733623553957923  C 13.171683352570557 7.925762783508231  13.171683352570557 8.077867201159401  13.171683352570557 8.189949213704317  C 13.124473619763315 9.903195608099432  13.077250755163352 11.3602670202111  13.030040084370917 12.56114102237526  C 12.982829413578479 13.746003103954003  12.927750922977431 14.714699485786154  12.864804612567774 15.467247107915846  C 12.801857364172921 16.219794491453367  12.723183856012792 16.804218617581345  12.628762514427917 17.220521633629314  C 12.534342110828238 17.62081284838795  12.424186067611338 17.91702884596698  12.298291570821634 18.10916867199771  C 12.140923918827102 18.333331742718862  11.967803743481856 18.501451898430183  11.778962936282495 18.61353343379076  C 11.590121191097941 18.70960340645417  11.354068775120949 18.773651327388023  11.070806626336713 18.805674572078434  C 10.850491725947332 18.83769787641689  10.559360819369292 18.853713674125085  10.197414844587792 18.853713674125085  C 9.851205916401302 18.837702051779882  9.489256189679026 18.82969412310176  9.111573168302513 18.82969412310176  C 9.095836590700099 18.589519370387364  9.04864374162635 18.32533496822473  8.969959915629085 18.037125288826665  C 8.907012667234232 17.74891549013252  8.820453048554207 17.50873954445727  8.710295598359515 17.31659983772262  C 9.072241573141016 17.348623082413035  9.402709702791718 17.372631538900414  9.701708429178366 17.388643220893663  C 10.000707155565015 17.388643220893663  10.221019241998816 17.388643220893663  10.362650316390933 17.388643220893663  C 10.504281390783051 17.388643220893663  10.622322606534652 17.372642752732446  10.71674347912693 17.340619388745946  C 10.81116388272661 17.30859614405553  10.889838328871933 17.236540354091602  10.952785577266786 17.124458699434943  C 11.07868007405649 16.932318992700292  11.180980491272305 16.524022891313717  11.259664317269571 15.899568486537849  C 11.338348143266836 15.27511408176198  11.401281321883774 14.31441029906097  11.448491992676212 13.017466682121656  C 11.51143830308587 11.704511621781261  11.574402435214214 9.951239481989502  11.637349683609067 7.757643104981249  Z M 14.847630274205475 4.251094053554312  L 14.847630274205475 2.7139649472529106  L 21.6223146336605 2.7139649472529106  L 21.6223146336605 4.251094053554312  L 14.847630274205475 4.251094053554312  Z M 13.809003020653412 12.969427580075003  L 13.809003020653412 11.480352845719187  L 21.763957901860145 11.480352845719187  L 21.763957901860145 12.969427580075003  L 13.809003020653412 12.969427580075003  Z M 14.587995972462119 7.781662656004575  L 14.587995972462119 6.364631304819804  L 20.253216436502154 6.364631304819804  L 20.253216436502154 7.781662656004575  L 14.587995972462119 7.781662656004575  Z M 14.46997492339219 3.242349260069284  C 14.910604724170959 2.217603521238694  15.24892754183755 1.1368267970068222  15.484979957814542 0  C 15.484979957814542 0  17.019313626776032 0.33624317452869806  17.019313626776032 0.33624317452869806  C 16.736051477991797 1.6011634274815147  16.34265016972416 2.810035516396748  15.83907312055054 3.962874711173332  C 15.335496071376921 5.099701508180154  14.768945510223014 6.068413398503411  14.139473964259695 6.868996066612851  C 14.045053560660014 6.788937895238776  13.919186265440942 6.684865899053475  13.76181861344641 6.556772443107479  C 13.620187539054292 6.428678987161486  13.462809569222625 6.300582668109441  13.289704401640485 6.172490166532129  C 13.132336749645953 6.044396710586136  12.990698171372284 5.948317552124147  12.864804612567774 5.88427082415115  C 13.494275220545902 5.147734884014707  14.029345122613424 4.267094998899873  14.46997492339219 3.242349260069284  Z M 16.99572142317253 17.052400046364966  C 16.99572142317253 17.052400046364966  16.99572142317253 9.438858977624738  16.99572142317253 9.438858977624738  L 18.53005509213402 9.438858977624738  C 18.53005509213402 9.438858977624738  18.53005509213402 17.052400046364966  18.53005509213402 17.052400046364966  C 18.53005509213402 17.4526912611236  18.482833165519256 17.772930985088944  18.38841182393438 18.01310573780334  C 18.309727997937117 18.25328049051774  18.11301186704759 18.437416384289218  17.798276563058526 18.56550960164304  C 17.530750991876708 18.693602818996865  17.168831280680642 18.773651327388023  16.712464902299462 18.805674572078434  C 16.25609852391828 18.83769787641689  15.689547962764376 18.853713674125085  15.012865746008618 18.853713674125085  C 14.981392590803788 18.629550543755897  14.910603786185764 18.381366669402524  14.800445866998475 18.10916867199771  C 14.706025463398793 17.820958992599653  14.603725046182982 17.56478257876318  14.493567126995691 17.340619388745946  C 14.981407598566895 17.356631070739194  15.422030833449302 17.364623669870337  15.815450901420824 17.364623669870337  C 16.22460660900957 17.364623669870337  16.499997186044418 17.356631070739194  16.641628260436537 17.340619388745946  C 16.877679738428334 17.340619388745946  16.99572142317253 17.244539753099616  16.99572142317253 17.052400046364966  Z M 19.78113224022244 6.652835377301851  C 19.78113224022244 6.652835377301851  19.78113224022244 6.364631304819804  19.78113224022244 6.364631304819804  L 20.135195387432226 6.364631304819804  L 20.44207412743501 6.2685531007265  C 20.44207412743501 6.2685531007265  21.40989475465036 6.989078551830548  21.40989475465036 6.989078551830548  C 21.000738109076423 7.677579207395073  20.497150742065667 8.374083198738429  19.89915328929237 9.078596252072716  C 19.301155836519072 9.767097384821582  18.72674964936408 10.351521272357388  18.175961929398024 10.831870777786184  C 18.081541525798347 10.68776587843911  17.93993390103608 10.527653830350035  17.751092155851527 10.351525567016463  C 17.562251348652165 10.159385860281812  17.404872440835305 10.015289550252891  17.278977944045604 9.919219458293394  C 17.735344322426783 9.486904760252175  18.19956445083866 8.966513285159115  18.67166834480745 8.358070800968667  C 19.143771300791045 7.733616396192798  19.513606669040623 7.165208246717146  19.78113224022244 6.652835377301851  Z M 7.860526035740306 8.478168556085297  C 7.860526035740306 8.478168556085297  7.860526035740306 4.082972466289963  7.860526035740306 4.082972466289963  L 9.347645281968582 4.082972466289963  C 9.347645281968582 4.082972466289963  9.347645281968582 8.502188107108624  9.347645281968582 8.502188107108624  C 9.347645281968582 9.302770298033723  9.30830805889592 10.151378707028249  9.229624232898654 11.048031467097186  C 9.1666774534964 11.928671829396361  9.032894970216413 12.825327929755689  8.828316647429443 13.737992133225703  C 8.639475371237486 14.634644654702468  8.356230106186747 15.507276670787226  7.978547084810234 16.355894146284243  C 7.6008645324263195 17.204511502485175  7.105162337950268 17.997095248770947  6.4914278385819575 18.73363118890739  C 6.381270388387266 18.557503044869904  6.208151151027213 18.36535928206835  5.972099204042818 18.157207774044366  C 5.7517843036534355 17.949056385316464  5.547213015755423 17.788944098635216  5.358371739563465 17.676862563274643  C 6.113737313323893 16.764198479100713  6.664517060415797 15.779470970013389  7.010726457594884 14.722702105788473  C 7.356935385781372 13.665933002971382  7.585133113742472 12.601157224085073  7.695290563937164 11.528376677866907  C 7.805448014131856 10.439584688247662  7.860526035740306 9.422856123541813  7.860526035740306 8.478168556085297  Z " fill-rule="evenodd" />
    </mask>
  </defs>
  <g transform="matrix(1 0 0 1 -504 -612 )">
    <path d="M 0.236042098139856 9.582961013865763  L 4.673807633221185 9.582961013865763  L 4.673807633221185 18.085149120974386  L 2.997860711586266 18.085149120974386  L 2.997860711586266 11.264192156408187  L 0.236042098139856 11.264192156408187  L 0.236042098139856 9.582961013865763  Z M 3.163096183389408 17.364623669870337  C 3.163096183389408 17.364623669870337  4.673807633221185 17.364623669870337  4.673807633221185 17.364623669870337  C 5.256068742888367 18.261276072051018  6.058642407981948 18.925763857173003  7.081533083931597 19.358078435918134  C 8.120160337483663 19.790393014663266  9.347647626931568 20.038576829368594  10.763957901860143 20.10262343804551  C 11.424902603028293 20.118635090214735  12.243216832161364 20.13465089537894  13.218897775303772 20.15066254009216  C 14.2103143580634 20.15066254009216  15.241055970088164 20.15066254009216  16.31115731683025 20.15066254009216  C 17.38125866357234 20.13465089537894  18.412029353138124 20.11062719136064  19.403446873882945 20.078603887022183  C 20.410600034244986 20.030568930514498  21.276108050437 19.982536792376834  22 19.93450185078116  C 21.937053689590343 20.06259505322297  21.866234869446103 20.230715164198262  21.787550105463644 20.438866612574206  C 21.708866279466378 20.64701807586216  21.63807653686316 20.85517771093196  21.575130226453503 21.063329129483886  C 21.51218297805865 21.287492259853074  21.464961051443883 21.487628681433815  21.43348695825386 21.663756825471303  C 20.756805679483296 21.695780129809755  19.954231779893416 21.71980379654803  19.025761507543447 21.73581547854128  C 18.097291235193477 21.751827100886487  17.129483739770844 21.75983502956461  16.122329641423608 21.75983502956461  C 15.115176481061567 21.775846651909813  14.14736804765374 21.775846651909813  13.218897775303772 21.75983502956461  C 12.290427502953799 21.75983502956461  11.47996843082922 21.74381923185641  10.787550105463644 21.711795927517954  C 9.213872178540536 21.647749318841043  7.868373688867241 21.391557575457593  6.751062140325313 20.943231374367254  C 5.633750591783386 20.494905173276912  4.69742469343233 19.790393133959352  3.942059119671903 18.82969412310176  C 3.469955694695711 19.342066932869013  2.982108891724447 19.862443078415097  2.478532077047127 20.390827510527554  C 1.9749550278735093 20.919212002288056  1.455656760605031 21.45560388589429  0.9206062044821366 22  C 0.9206062044821366 22  0 20.294764576333183  0 20.294764576333183  C 0.48784023707490515 19.89447333175053  1.0071386215915323 19.438145136962316  1.5579258725649905 18.925772327195062  C 2.1244500528853107 18.41339945777977  2.65951913421579 17.893008101982797  3.163096183389408 17.364623669870337  Z M 1.6051402952982041 2.9541451875872378  C 1.1802471893700015 2.4417723181719433  0.7553640495344864 1.9774366420659342  0.3304709436062836 1.5611333874257936  C 0.3304709436062836 1.5611333874257936  1.7231613443681324 0.6724863490573961  1.7231613443681324 0.6724863490573961  C 2.1637911451468987 1.0727781602964581  2.596559926509713 1.5210985755266555  3.021452915189766 2.017459047172188  C 3.4620829504648314 2.4978090297853264  3.8555142742586845 2.9861690287580784  4.201723436941473 3.482529500403611  C 4.563669411722973 3.962879483016749  4.839059519765224 4.403207060523632  5.027900795957182 4.8034979173940116  C 5.027900795957182 4.8034979173940116  3.5407815497289055 5.788207889956779  3.5407815497289055 5.788207889956779  C 3.3676768511393624 5.3879170330864  3.1079977606029847 4.939596617856203  2.761788597920197 4.443235191841987  C 2.4155794352374094 3.9468737658277706  2.030033401226407 3.4505056592327707  1.6051402952982041 2.9541451875872378  Z M 5.6652204640400345 4.899560851588381  L 5.6652204640400345 3.3624470151859143  L 13.76181861344641 3.3624470151859143  L 13.76181861344641 4.899560851588381  L 5.6652204640400345 4.899560851588381  Z M 8.663081175626301 8.958513766855019  L 8.663081175626301 7.445419481475878  L 12.274669351691921 7.445419481475878  L 12.274669351691921 8.958513766855019  L 8.663081175626301 8.958513766855019  Z M 8.89915328929237 4.251094053554312  L 8.89915328929237 0.09606293419437054  L 10.551508007323788 0.09606293419437054  L 10.551508007323788 4.251094053554312  L 8.89915328929237 4.251094053554312  Z M 11.637349683609067 7.757643104981249  C 11.637349683609067 7.757643104981249  11.637349683609067 7.445419481475878  11.637349683609067 7.445419481475878  C 11.637349683609067 7.445419481475878  13.171683352570557 7.445419481475878  13.171683352570557 7.445419481475878  C 13.171683352570557 7.445419481475878  13.171683352570557 7.5414833700389305  13.171683352570557 7.733623553957923  C 13.171683352570557 7.925762783508231  13.171683352570557 8.077867201159401  13.171683352570557 8.189949213704317  C 13.124473619763315 9.903195608099432  13.077250755163352 11.3602670202111  13.030040084370917 12.56114102237526  C 12.982829413578479 13.746003103954003  12.927750922977431 14.714699485786154  12.864804612567774 15.467247107915846  C 12.801857364172921 16.219794491453367  12.723183856012792 16.804218617581345  12.628762514427917 17.220521633629314  C 12.534342110828238 17.62081284838795  12.424186067611338 17.91702884596698  12.298291570821634 18.10916867199771  C 12.140923918827102 18.333331742718862  11.967803743481856 18.501451898430183  11.778962936282495 18.61353343379076  C 11.590121191097941 18.70960340645417  11.354068775120949 18.773651327388023  11.070806626336713 18.805674572078434  C 10.850491725947332 18.83769787641689  10.559360819369292 18.853713674125085  10.197414844587792 18.853713674125085  C 9.851205916401302 18.837702051779882  9.489256189679026 18.82969412310176  9.111573168302513 18.82969412310176  C 9.095836590700099 18.589519370387364  9.04864374162635 18.32533496822473  8.969959915629085 18.037125288826665  C 8.907012667234232 17.74891549013252  8.820453048554207 17.50873954445727  8.710295598359515 17.31659983772262  C 9.072241573141016 17.348623082413035  9.402709702791718 17.372631538900414  9.701708429178366 17.388643220893663  C 10.000707155565015 17.388643220893663  10.221019241998816 17.388643220893663  10.362650316390933 17.388643220893663  C 10.504281390783051 17.388643220893663  10.622322606534652 17.372642752732446  10.71674347912693 17.340619388745946  C 10.81116388272661 17.30859614405553  10.889838328871933 17.236540354091602  10.952785577266786 17.124458699434943  C 11.07868007405649 16.932318992700292  11.180980491272305 16.524022891313717  11.259664317269571 15.899568486537849  C 11.338348143266836 15.27511408176198  11.401281321883774 14.31441029906097  11.448491992676212 13.017466682121656  C 11.51143830308587 11.704511621781261  11.574402435214214 9.951239481989502  11.637349683609067 7.757643104981249  Z M 14.847630274205475 4.251094053554312  L 14.847630274205475 2.7139649472529106  L 21.6223146336605 2.7139649472529106  L 21.6223146336605 4.251094053554312  L 14.847630274205475 4.251094053554312  Z M 13.809003020653412 12.969427580075003  L 13.809003020653412 11.480352845719187  L 21.763957901860145 11.480352845719187  L 21.763957901860145 12.969427580075003  L 13.809003020653412 12.969427580075003  Z M 14.587995972462119 7.781662656004575  L 14.587995972462119 6.364631304819804  L 20.253216436502154 6.364631304819804  L 20.253216436502154 7.781662656004575  L 14.587995972462119 7.781662656004575  Z M 14.46997492339219 3.242349260069284  C 14.910604724170959 2.217603521238694  15.24892754183755 1.1368267970068222  15.484979957814542 0  C 15.484979957814542 0  17.019313626776032 0.33624317452869806  17.019313626776032 0.33624317452869806  C 16.736051477991797 1.6011634274815147  16.34265016972416 2.810035516396748  15.83907312055054 3.962874711173332  C 15.335496071376921 5.099701508180154  14.768945510223014 6.068413398503411  14.139473964259695 6.868996066612851  C 14.045053560660014 6.788937895238776  13.919186265440942 6.684865899053475  13.76181861344641 6.556772443107479  C 13.620187539054292 6.428678987161486  13.462809569222625 6.300582668109441  13.289704401640485 6.172490166532129  C 13.132336749645953 6.044396710586136  12.990698171372284 5.948317552124147  12.864804612567774 5.88427082415115  C 13.494275220545902 5.147734884014707  14.029345122613424 4.267094998899873  14.46997492339219 3.242349260069284  Z M 16.99572142317253 17.052400046364966  C 16.99572142317253 17.052400046364966  16.99572142317253 9.438858977624738  16.99572142317253 9.438858977624738  L 18.53005509213402 9.438858977624738  C 18.53005509213402 9.438858977624738  18.53005509213402 17.052400046364966  18.53005509213402 17.052400046364966  C 18.53005509213402 17.4526912611236  18.482833165519256 17.772930985088944  18.38841182393438 18.01310573780334  C 18.309727997937117 18.25328049051774  18.11301186704759 18.437416384289218  17.798276563058526 18.56550960164304  C 17.530750991876708 18.693602818996865  17.168831280680642 18.773651327388023  16.712464902299462 18.805674572078434  C 16.25609852391828 18.83769787641689  15.689547962764376 18.853713674125085  15.012865746008618 18.853713674125085  C 14.981392590803788 18.629550543755897  14.910603786185764 18.381366669402524  14.800445866998475 18.10916867199771  C 14.706025463398793 17.820958992599653  14.603725046182982 17.56478257876318  14.493567126995691 17.340619388745946  C 14.981407598566895 17.356631070739194  15.422030833449302 17.364623669870337  15.815450901420824 17.364623669870337  C 16.22460660900957 17.364623669870337  16.499997186044418 17.356631070739194  16.641628260436537 17.340619388745946  C 16.877679738428334 17.340619388745946  16.99572142317253 17.244539753099616  16.99572142317253 17.052400046364966  Z M 19.78113224022244 6.652835377301851  C 19.78113224022244 6.652835377301851  19.78113224022244 6.364631304819804  19.78113224022244 6.364631304819804  L 20.135195387432226 6.364631304819804  L 20.44207412743501 6.2685531007265  C 20.44207412743501 6.2685531007265  21.40989475465036 6.989078551830548  21.40989475465036 6.989078551830548  C 21.000738109076423 7.677579207395073  20.497150742065667 8.374083198738429  19.89915328929237 9.078596252072716  C 19.301155836519072 9.767097384821582  18.72674964936408 10.351521272357388  18.175961929398024 10.831870777786184  C 18.081541525798347 10.68776587843911  17.93993390103608 10.527653830350035  17.751092155851527 10.351525567016463  C 17.562251348652165 10.159385860281812  17.404872440835305 10.015289550252891  17.278977944045604 9.919219458293394  C 17.735344322426783 9.486904760252175  18.19956445083866 8.966513285159115  18.67166834480745 8.358070800968667  C 19.143771300791045 7.733616396192798  19.513606669040623 7.165208246717146  19.78113224022244 6.652835377301851  Z M 7.860526035740306 8.478168556085297  C 7.860526035740306 8.478168556085297  7.860526035740306 4.082972466289963  7.860526035740306 4.082972466289963  L 9.347645281968582 4.082972466289963  C 9.347645281968582 4.082972466289963  9.347645281968582 8.502188107108624  9.347645281968582 8.502188107108624  C 9.347645281968582 9.302770298033723  9.30830805889592 10.151378707028249  9.229624232898654 11.048031467097186  C 9.1666774534964 11.928671829396361  9.032894970216413 12.825327929755689  8.828316647429443 13.737992133225703  C 8.639475371237486 14.634644654702468  8.356230106186747 15.507276670787226  7.978547084810234 16.355894146284243  C 7.6008645324263195 17.204511502485175  7.105162337950268 17.997095248770947  6.4914278385819575 18.73363118890739  C 6.381270388387266 18.557503044869904  6.208151151027213 18.36535928206835  5.972099204042818 18.157207774044366  C 5.7517843036534355 17.949056385316464  5.547213015755423 17.788944098635216  5.358371739563465 17.676862563274643  C 6.113737313323893 16.764198479100713  6.664517060415797 15.779470970013389  7.010726457594884 14.722702105788473  C 7.356935385781372 13.665933002971382  7.585133113742472 12.601157224085073  7.695290563937164 11.528376677866907  C 7.805448014131856 10.439584688247662  7.860526035740306 9.422856123541813  7.860526035740306 8.478168556085297  Z " fill-rule="nonzero" fill="rgba(0, 0, 0, 1)" stroke="none" transform="matrix(1 0 0 1 504 612 )" class="fill" />
    <path d="M 0.236042098139856 9.582961013865763  L 4.673807633221185 9.582961013865763  L 4.673807633221185 18.085149120974386  L 2.997860711586266 18.085149120974386  L 2.997860711586266 11.264192156408187  L 0.236042098139856 11.264192156408187  L 0.236042098139856 9.582961013865763  Z " stroke-width="0" stroke-dasharray="0" stroke="rgba(121, 121, 121, 1)" fill="none" transform="matrix(1 0 0 1 504 612 )" class="stroke" mask="url(#Clip4714)" />
    <path d="M 3.163096183389408 17.364623669870337  C 3.163096183389408 17.364623669870337  4.673807633221185 17.364623669870337  4.673807633221185 17.364623669870337  C 5.256068742888367 18.261276072051018  6.058642407981948 18.925763857173003  7.081533083931597 19.358078435918134  C 8.120160337483663 19.790393014663266  9.347647626931568 20.038576829368594  10.763957901860143 20.10262343804551  C 11.424902603028293 20.118635090214735  12.243216832161364 20.13465089537894  13.218897775303772 20.15066254009216  C 14.2103143580634 20.15066254009216  15.241055970088164 20.15066254009216  16.31115731683025 20.15066254009216  C 17.38125866357234 20.13465089537894  18.412029353138124 20.11062719136064  19.403446873882945 20.078603887022183  C 20.410600034244986 20.030568930514498  21.276108050437 19.982536792376834  22 19.93450185078116  C 21.937053689590343 20.06259505322297  21.866234869446103 20.230715164198262  21.787550105463644 20.438866612574206  C 21.708866279466378 20.64701807586216  21.63807653686316 20.85517771093196  21.575130226453503 21.063329129483886  C 21.51218297805865 21.287492259853074  21.464961051443883 21.487628681433815  21.43348695825386 21.663756825471303  C 20.756805679483296 21.695780129809755  19.954231779893416 21.71980379654803  19.025761507543447 21.73581547854128  C 18.097291235193477 21.751827100886487  17.129483739770844 21.75983502956461  16.122329641423608 21.75983502956461  C 15.115176481061567 21.775846651909813  14.14736804765374 21.775846651909813  13.218897775303772 21.75983502956461  C 12.290427502953799 21.75983502956461  11.47996843082922 21.74381923185641  10.787550105463644 21.711795927517954  C 9.213872178540536 21.647749318841043  7.868373688867241 21.391557575457593  6.751062140325313 20.943231374367254  C 5.633750591783386 20.494905173276912  4.69742469343233 19.790393133959352  3.942059119671903 18.82969412310176  C 3.469955694695711 19.342066932869013  2.982108891724447 19.862443078415097  2.478532077047127 20.390827510527554  C 1.9749550278735093 20.919212002288056  1.455656760605031 21.45560388589429  0.9206062044821366 22  C 0.9206062044821366 22  0 20.294764576333183  0 20.294764576333183  C 0.48784023707490515 19.89447333175053  1.0071386215915323 19.438145136962316  1.5579258725649905 18.925772327195062  C 2.1244500528853107 18.41339945777977  2.65951913421579 17.893008101982797  3.163096183389408 17.364623669870337  Z " stroke-width="0" stroke-dasharray="0" stroke="rgba(121, 121, 121, 1)" fill="none" transform="matrix(1 0 0 1 504 612 )" class="stroke" mask="url(#Clip4714)" />
    <path d="M 1.6051402952982041 2.9541451875872378  C 1.1802471893700015 2.4417723181719433  0.7553640495344864 1.9774366420659342  0.3304709436062836 1.5611333874257936  C 0.3304709436062836 1.5611333874257936  1.7231613443681324 0.6724863490573961  1.7231613443681324 0.6724863490573961  C 2.1637911451468987 1.0727781602964581  2.596559926509713 1.5210985755266555  3.021452915189766 2.017459047172188  C 3.4620829504648314 2.4978090297853264  3.8555142742586845 2.9861690287580784  4.201723436941473 3.482529500403611  C 4.563669411722973 3.962879483016749  4.839059519765224 4.403207060523632  5.027900795957182 4.8034979173940116  C 5.027900795957182 4.8034979173940116  3.5407815497289055 5.788207889956779  3.5407815497289055 5.788207889956779  C 3.3676768511393624 5.3879170330864  3.1079977606029847 4.939596617856203  2.761788597920197 4.443235191841987  C 2.4155794352374094 3.9468737658277706  2.030033401226407 3.4505056592327707  1.6051402952982041 2.9541451875872378  Z " stroke-width="0" stroke-dasharray="0" stroke="rgba(121, 121, 121, 1)" fill="none" transform="matrix(1 0 0 1 504 612 )" class="stroke" mask="url(#Clip4714)" />
    <path d="M 5.6652204640400345 4.899560851588381  L 5.6652204640400345 3.3624470151859143  L 13.76181861344641 3.3624470151859143  L 13.76181861344641 4.899560851588381  L 5.6652204640400345 4.899560851588381  Z " stroke-width="0" stroke-dasharray="0" stroke="rgba(121, 121, 121, 1)" fill="none" transform="matrix(1 0 0 1 504 612 )" class="stroke" mask="url(#Clip4714)" />
    <path d="M 8.663081175626301 8.958513766855019  L 8.663081175626301 7.445419481475878  L 12.274669351691921 7.445419481475878  L 12.274669351691921 8.958513766855019  L 8.663081175626301 8.958513766855019  Z " stroke-width="0" stroke-dasharray="0" stroke="rgba(121, 121, 121, 1)" fill="none" transform="matrix(1 0 0 1 504 612 )" class="stroke" mask="url(#Clip4714)" />
    <path d="M 8.89915328929237 4.251094053554312  L 8.89915328929237 0.09606293419437054  L 10.551508007323788 0.09606293419437054  L 10.551508007323788 4.251094053554312  L 8.89915328929237 4.251094053554312  Z " stroke-width="0" stroke-dasharray="0" stroke="rgba(121, 121, 121, 1)" fill="none" transform="matrix(1 0 0 1 504 612 )" class="stroke" mask="url(#Clip4714)" />
    <path d="M 11.637349683609067 7.757643104981249  C 11.637349683609067 7.757643104981249  11.637349683609067 7.445419481475878  11.637349683609067 7.445419481475878  C 11.637349683609067 7.445419481475878  13.171683352570557 7.445419481475878  13.171683352570557 7.445419481475878  C 13.171683352570557 7.445419481475878  13.171683352570557 7.5414833700389305  13.171683352570557 7.733623553957923  C 13.171683352570557 7.925762783508231  13.171683352570557 8.077867201159401  13.171683352570557 8.189949213704317  C 13.124473619763315 9.903195608099432  13.077250755163352 11.3602670202111  13.030040084370917 12.56114102237526  C 12.982829413578479 13.746003103954003  12.927750922977431 14.714699485786154  12.864804612567774 15.467247107915846  C 12.801857364172921 16.219794491453367  12.723183856012792 16.804218617581345  12.628762514427917 17.220521633629314  C 12.534342110828238 17.62081284838795  12.424186067611338 17.91702884596698  12.298291570821634 18.10916867199771  C 12.140923918827102 18.333331742718862  11.967803743481856 18.501451898430183  11.778962936282495 18.61353343379076  C 11.590121191097941 18.70960340645417  11.354068775120949 18.773651327388023  11.070806626336713 18.805674572078434  C 10.850491725947332 18.83769787641689  10.559360819369292 18.853713674125085  10.197414844587792 18.853713674125085  C 9.851205916401302 18.837702051779882  9.489256189679026 18.82969412310176  9.111573168302513 18.82969412310176  C 9.095836590700099 18.589519370387364  9.04864374162635 18.32533496822473  8.969959915629085 18.037125288826665  C 8.907012667234232 17.74891549013252  8.820453048554207 17.50873954445727  8.710295598359515 17.31659983772262  C 9.072241573141016 17.348623082413035  9.402709702791718 17.372631538900414  9.701708429178366 17.388643220893663  C 10.000707155565015 17.388643220893663  10.221019241998816 17.388643220893663  10.362650316390933 17.388643220893663  C 10.504281390783051 17.388643220893663  10.622322606534652 17.372642752732446  10.71674347912693 17.340619388745946  C 10.81116388272661 17.30859614405553  10.889838328871933 17.236540354091602  10.952785577266786 17.124458699434943  C 11.07868007405649 16.932318992700292  11.180980491272305 16.524022891313717  11.259664317269571 15.899568486537849  C 11.338348143266836 15.27511408176198  11.401281321883774 14.31441029906097  11.448491992676212 13.017466682121656  C 11.51143830308587 11.704511621781261  11.574402435214214 9.951239481989502  11.637349683609067 7.757643104981249  Z " stroke-width="0" stroke-dasharray="0" stroke="rgba(121, 121, 121, 1)" fill="none" transform="matrix(1 0 0 1 504 612 )" class="stroke" mask="url(#Clip4714)" />
    <path d="M 14.847630274205475 4.251094053554312  L 14.847630274205475 2.7139649472529106  L 21.6223146336605 2.7139649472529106  L 21.6223146336605 4.251094053554312  L 14.847630274205475 4.251094053554312  Z " stroke-width="0" stroke-dasharray="0" stroke="rgba(121, 121, 121, 1)" fill="none" transform="matrix(1 0 0 1 504 612 )" class="stroke" mask="url(#Clip4714)" />
    <path d="M 13.809003020653412 12.969427580075003  L 13.809003020653412 11.480352845719187  L 21.763957901860145 11.480352845719187  L 21.763957901860145 12.969427580075003  L 13.809003020653412 12.969427580075003  Z " stroke-width="0" stroke-dasharray="0" stroke="rgba(121, 121, 121, 1)" fill="none" transform="matrix(1 0 0 1 504 612 )" class="stroke" mask="url(#Clip4714)" />
    <path d="M 14.587995972462119 7.781662656004575  L 14.587995972462119 6.364631304819804  L 20.253216436502154 6.364631304819804  L 20.253216436502154 7.781662656004575  L 14.587995972462119 7.781662656004575  Z " stroke-width="0" stroke-dasharray="0" stroke="rgba(121, 121, 121, 1)" fill="none" transform="matrix(1 0 0 1 504 612 )" class="stroke" mask="url(#Clip4714)" />
    <path d="M 14.46997492339219 3.242349260069284  C 14.910604724170959 2.217603521238694  15.24892754183755 1.1368267970068222  15.484979957814542 0  C 15.484979957814542 0  17.019313626776032 0.33624317452869806  17.019313626776032 0.33624317452869806  C 16.736051477991797 1.6011634274815147  16.34265016972416 2.810035516396748  15.83907312055054 3.962874711173332  C 15.335496071376921 5.099701508180154  14.768945510223014 6.068413398503411  14.139473964259695 6.868996066612851  C 14.045053560660014 6.788937895238776  13.919186265440942 6.684865899053475  13.76181861344641 6.556772443107479  C 13.620187539054292 6.428678987161486  13.462809569222625 6.300582668109441  13.289704401640485 6.172490166532129  C 13.132336749645953 6.044396710586136  12.990698171372284 5.948317552124147  12.864804612567774 5.88427082415115  C 13.494275220545902 5.147734884014707  14.029345122613424 4.267094998899873  14.46997492339219 3.242349260069284  Z " stroke-width="0" stroke-dasharray="0" stroke="rgba(121, 121, 121, 1)" fill="none" transform="matrix(1 0 0 1 504 612 )" class="stroke" mask="url(#Clip4714)" />
    <path d="M 16.99572142317253 17.052400046364966  C 16.99572142317253 17.052400046364966  16.99572142317253 9.438858977624738  16.99572142317253 9.438858977624738  L 18.53005509213402 9.438858977624738  C 18.53005509213402 9.438858977624738  18.53005509213402 17.052400046364966  18.53005509213402 17.052400046364966  C 18.53005509213402 17.4526912611236  18.482833165519256 17.772930985088944  18.38841182393438 18.01310573780334  C 18.309727997937117 18.25328049051774  18.11301186704759 18.437416384289218  17.798276563058526 18.56550960164304  C 17.530750991876708 18.693602818996865  17.168831280680642 18.773651327388023  16.712464902299462 18.805674572078434  C 16.25609852391828 18.83769787641689  15.689547962764376 18.853713674125085  15.012865746008618 18.853713674125085  C 14.981392590803788 18.629550543755897  14.910603786185764 18.381366669402524  14.800445866998475 18.10916867199771  C 14.706025463398793 17.820958992599653  14.603725046182982 17.56478257876318  14.493567126995691 17.340619388745946  C 14.981407598566895 17.356631070739194  15.422030833449302 17.364623669870337  15.815450901420824 17.364623669870337  C 16.22460660900957 17.364623669870337  16.499997186044418 17.356631070739194  16.641628260436537 17.340619388745946  C 16.877679738428334 17.340619388745946  16.99572142317253 17.244539753099616  16.99572142317253 17.052400046364966  Z " stroke-width="0" stroke-dasharray="0" stroke="rgba(121, 121, 121, 1)" fill="none" transform="matrix(1 0 0 1 504 612 )" class="stroke" mask="url(#Clip4714)" />
    <path d="M 19.78113224022244 6.652835377301851  C 19.78113224022244 6.652835377301851  19.78113224022244 6.364631304819804  19.78113224022244 6.364631304819804  L 20.135195387432226 6.364631304819804  L 20.44207412743501 6.2685531007265  C 20.44207412743501 6.2685531007265  21.40989475465036 6.989078551830548  21.40989475465036 6.989078551830548  C 21.000738109076423 7.677579207395073  20.497150742065667 8.374083198738429  19.89915328929237 9.078596252072716  C 19.301155836519072 9.767097384821582  18.72674964936408 10.351521272357388  18.175961929398024 10.831870777786184  C 18.081541525798347 10.68776587843911  17.93993390103608 10.527653830350035  17.751092155851527 10.351525567016463  C 17.562251348652165 10.159385860281812  17.404872440835305 10.015289550252891  17.278977944045604 9.919219458293394  C 17.735344322426783 9.486904760252175  18.19956445083866 8.966513285159115  18.67166834480745 8.358070800968667  C 19.143771300791045 7.733616396192798  19.513606669040623 7.165208246717146  19.78113224022244 6.652835377301851  Z " stroke-width="0" stroke-dasharray="0" stroke="rgba(121, 121, 121, 1)" fill="none" transform="matrix(1 0 0 1 504 612 )" class="stroke" mask="url(#Clip4714)" />
    <path d="M 7.860526035740306 8.478168556085297  C 7.860526035740306 8.478168556085297  7.860526035740306 4.082972466289963  7.860526035740306 4.082972466289963  L 9.347645281968582 4.082972466289963  C 9.347645281968582 4.082972466289963  9.347645281968582 8.502188107108624  9.347645281968582 8.502188107108624  C 9.347645281968582 9.302770298033723  9.30830805889592 10.151378707028249  9.229624232898654 11.048031467097186  C 9.1666774534964 11.928671829396361  9.032894970216413 12.825327929755689  8.828316647429443 13.737992133225703  C 8.639475371237486 14.634644654702468  8.356230106186747 15.507276670787226  7.978547084810234 16.355894146284243  C 7.6008645324263195 17.204511502485175  7.105162337950268 17.997095248770947  6.4914278385819575 18.73363118890739  C 6.381270388387266 18.557503044869904  6.208151151027213 18.36535928206835  5.972099204042818 18.157207774044366  C 5.7517843036534355 17.949056385316464  5.547213015755423 17.788944098635216  5.358371739563465 17.676862563274643  C 6.113737313323893 16.764198479100713  6.664517060415797 15.779470970013389  7.010726457594884 14.722702105788473  C 7.356935385781372 13.665933002971382  7.585133113742472 12.601157224085073  7.695290563937164 11.528376677866907  C 7.805448014131856 10.439584688247662  7.860526035740306 9.422856123541813  7.860526035740306 8.478168556085297  Z " stroke-width="0" stroke-dasharray="0" stroke="rgba(121, 121, 121, 1)" fill="none" transform="matrix(1 0 0 1 504 612 )" class="stroke" mask="url(#Clip4714)" />
  </g>
</svg>