<?xml version="1.0" encoding="utf-8"?>
<svg version="1.1" xmlns:xlink="http://www.w3.org/1999/xlink" width="22px" height="22px" xmlns="http://www.w3.org/2000/svg">
  <defs>
    <pattern id="BGPattern" patternUnits="userSpaceOnUse" alignment="0 0" imageRepeat="None" />
    <mask fill="white" id="Clip4701">
      <path d="M 6 13.484649190073979  L 6 0  L 7.486781630120911 0  L 7.486781630120911 13.484649190073979  L 6 13.484649190073979  Z M 14 13.484649190073979  L 14 0  L 16 0  L 16 13.484649190073979  L 14 13.484649190073979  Z M 0 14  L 0 12  L 22 12  L 22 14  L 0 14  Z M 0.9933985172571218 7  L 0.9933985172571218 5  L 21.127741631913423 5  L 21.127741631913423 7  L 0.9933985172571218 7  Z M 15.482339563243437 18.28508866103571  C 14.64240057514403 17.609650148628187  13.834804073621799 16.990490869945457  13.059474962259237 16.42762532311991  C 13.059474962259237 16.42762532311991  14.658574225369076 15.486846544882646  14.658574225369076 15.486846544882646  C 15.401597435588629 16.017548404373237  16.201131662750218 16.61257847726867  17.057223120033832 17.271935205918357  C 17.929468009276246 17.91521003099093  18.753252602642274 18.558482998864722  19.52858075123025 19.201757883846934  C 20.320062331777024 19.828950865252025  20.974276326108207 20.38376593465658  21.491162079425052 20.866222083415828  C 21.491162079425052 20.866222083415828  19.77092266714467 21.975875107706635  19.77092266714467 21.975875107706635  C 19.28634281497083 21.49341889903775  18.664441461204735 20.9225178522007  17.90526578180097 20.263161123551015  C 17.146089139622617 19.619886238568807  16.338431020527054 18.96052735317215  15.482339563243437 18.28508866103571  Z M 5.06391702913671 17.392544330517854  C 5.774635300987842 16.749269505445284  6.356097233931117 16.130110226762554  6.808372147736535 15.535080992602053  C 6.808372147736535 15.535080992602053  8.698244739399676 16.25876641393368  8.698244739399676 16.25876641393368  C 8.116748627958694 16.950286829918323  7.438344922221817 17.649860898534772  6.663016292246549 18.357463337915803  C 5.903840612842783 19.06506565747756  5.104245249495156 19.732452374452055  4.264305780008458 20.35964535585715  C 3.4243665512154067 20.986838337262242  2.5925189614077935 21.53362575481787  1.768732442492599 22  C 1.6556637140412447 21.85526322726379  1.51028270606527 21.702491793251014  1.3326032584493097 21.54167305702805  C 1.1549238108333497 21.396936224382202  0.9772291995177024 21.24414951341174  0.7995496315549194 21.08333077718878  C 0.6380228938168165 20.938593944542934  0.4845788292258452 20.817979308256742  0.339204741192188 20.721488066522966  C 1.1306860208719027 20.287277538630605  1.938344561181349 19.78070521443032  2.7621309597497206 19.201757883846934  C 3.585917719358561 18.62281049335391  4.353199479366515 18.01973737183259  5.06391702913671 17.392544330517854  Z " fill-rule="evenodd" />
    </mask>
  </defs>
  <g transform="matrix(1 0 0 1 -822 -612 )">
    <path d="M 6 13.484649190073979  L 6 0  L 7.486781630120911 0  L 7.486781630120911 13.484649190073979  L 6 13.484649190073979  Z M 14 13.484649190073979  L 14 0  L 16 0  L 16 13.484649190073979  L 14 13.484649190073979  Z M 0 14  L 0 12  L 22 12  L 22 14  L 0 14  Z M 0.9933985172571218 7  L 0.9933985172571218 5  L 21.127741631913423 5  L 21.127741631913423 7  L 0.9933985172571218 7  Z M 15.482339563243437 18.28508866103571  C 14.64240057514403 17.609650148628187  13.834804073621799 16.990490869945457  13.059474962259237 16.42762532311991  C 13.059474962259237 16.42762532311991  14.658574225369076 15.486846544882646  14.658574225369076 15.486846544882646  C 15.401597435588629 16.017548404373237  16.201131662750218 16.61257847726867  17.057223120033832 17.271935205918357  C 17.929468009276246 17.91521003099093  18.753252602642274 18.558482998864722  19.52858075123025 19.201757883846934  C 20.320062331777024 19.828950865252025  20.974276326108207 20.38376593465658  21.491162079425052 20.866222083415828  C 21.491162079425052 20.866222083415828  19.77092266714467 21.975875107706635  19.77092266714467 21.975875107706635  C 19.28634281497083 21.49341889903775  18.664441461204735 20.9225178522007  17.90526578180097 20.263161123551015  C 17.146089139622617 19.619886238568807  16.338431020527054 18.96052735317215  15.482339563243437 18.28508866103571  Z M 5.06391702913671 17.392544330517854  C 5.774635300987842 16.749269505445284  6.356097233931117 16.130110226762554  6.808372147736535 15.535080992602053  C 6.808372147736535 15.535080992602053  8.698244739399676 16.25876641393368  8.698244739399676 16.25876641393368  C 8.116748627958694 16.950286829918323  7.438344922221817 17.649860898534772  6.663016292246549 18.357463337915803  C 5.903840612842783 19.06506565747756  5.104245249495156 19.732452374452055  4.264305780008458 20.35964535585715  C 3.4243665512154067 20.986838337262242  2.5925189614077935 21.53362575481787  1.768732442492599 22  C 1.6556637140412447 21.85526322726379  1.51028270606527 21.702491793251014  1.3326032584493097 21.54167305702805  C 1.1549238108333497 21.396936224382202  0.9772291995177024 21.24414951341174  0.7995496315549194 21.08333077718878  C 0.6380228938168165 20.938593944542934  0.4845788292258452 20.817979308256742  0.339204741192188 20.721488066522966  C 1.1306860208719027 20.287277538630605  1.938344561181349 19.78070521443032  2.7621309597497206 19.201757883846934  C 3.585917719358561 18.62281049335391  4.353199479366515 18.01973737183259  5.06391702913671 17.392544330517854  Z " fill-rule="nonzero" fill="rgba(0, 0, 0, 1)" stroke="none" transform="matrix(1 0 0 1 822 612 )" class="fill" />
    <path d="M 6 13.484649190073979  L 6 0  L 7.486781630120911 0  L 7.486781630120911 13.484649190073979  L 6 13.484649190073979  Z " stroke-width="0" stroke-dasharray="0" stroke="rgba(121, 121, 121, 1)" fill="none" transform="matrix(1 0 0 1 822 612 )" class="stroke" mask="url(#Clip4701)" />
    <path d="M 14 13.484649190073979  L 14 0  L 16 0  L 16 13.484649190073979  L 14 13.484649190073979  Z " stroke-width="0" stroke-dasharray="0" stroke="rgba(121, 121, 121, 1)" fill="none" transform="matrix(1 0 0 1 822 612 )" class="stroke" mask="url(#Clip4701)" />
    <path d="M 0 14  L 0 12  L 22 12  L 22 14  L 0 14  Z " stroke-width="0" stroke-dasharray="0" stroke="rgba(121, 121, 121, 1)" fill="none" transform="matrix(1 0 0 1 822 612 )" class="stroke" mask="url(#Clip4701)" />
    <path d="M 0.9933985172571218 7  L 0.9933985172571218 5  L 21.127741631913423 5  L 21.127741631913423 7  L 0.9933985172571218 7  Z " stroke-width="0" stroke-dasharray="0" stroke="rgba(121, 121, 121, 1)" fill="none" transform="matrix(1 0 0 1 822 612 )" class="stroke" mask="url(#Clip4701)" />
    <path d="M 15.482339563243437 18.28508866103571  C 14.64240057514403 17.609650148628187  13.834804073621799 16.990490869945457  13.059474962259237 16.42762532311991  C 13.059474962259237 16.42762532311991  14.658574225369076 15.486846544882646  14.658574225369076 15.486846544882646  C 15.401597435588629 16.017548404373237  16.201131662750218 16.61257847726867  17.057223120033832 17.271935205918357  C 17.929468009276246 17.91521003099093  18.753252602642274 18.558482998864722  19.52858075123025 19.201757883846934  C 20.320062331777024 19.828950865252025  20.974276326108207 20.38376593465658  21.491162079425052 20.866222083415828  C 21.491162079425052 20.866222083415828  19.77092266714467 21.975875107706635  19.77092266714467 21.975875107706635  C 19.28634281497083 21.49341889903775  18.664441461204735 20.9225178522007  17.90526578180097 20.263161123551015  C 17.146089139622617 19.619886238568807  16.338431020527054 18.96052735317215  15.482339563243437 18.28508866103571  Z " stroke-width="0" stroke-dasharray="0" stroke="rgba(121, 121, 121, 1)" fill="none" transform="matrix(1 0 0 1 822 612 )" class="stroke" mask="url(#Clip4701)" />
    <path d="M 5.06391702913671 17.392544330517854  C 5.774635300987842 16.749269505445284  6.356097233931117 16.130110226762554  6.808372147736535 15.535080992602053  C 6.808372147736535 15.535080992602053  8.698244739399676 16.25876641393368  8.698244739399676 16.25876641393368  C 8.116748627958694 16.950286829918323  7.438344922221817 17.649860898534772  6.663016292246549 18.357463337915803  C 5.903840612842783 19.06506565747756  5.104245249495156 19.732452374452055  4.264305780008458 20.35964535585715  C 3.4243665512154067 20.986838337262242  2.5925189614077935 21.53362575481787  1.768732442492599 22  C 1.6556637140412447 21.85526322726379  1.51028270606527 21.702491793251014  1.3326032584493097 21.54167305702805  C 1.1549238108333497 21.396936224382202  0.9772291995177024 21.24414951341174  0.7995496315549194 21.08333077718878  C 0.6380228938168165 20.938593944542934  0.4845788292258452 20.817979308256742  0.339204741192188 20.721488066522966  C 1.1306860208719027 20.287277538630605  1.938344561181349 19.78070521443032  2.7621309597497206 19.201757883846934  C 3.585917719358561 18.62281049335391  4.353199479366515 18.01973737183259  5.06391702913671 17.392544330517854  Z " stroke-width="0" stroke-dasharray="0" stroke="rgba(121, 121, 121, 1)" fill="none" transform="matrix(1 0 0 1 822 612 )" class="stroke" mask="url(#Clip4701)" />
  </g>
</svg>