<?xml version="1.0" encoding="utf-8"?>
<svg version="1.1" xmlns:xlink="http://www.w3.org/1999/xlink" width="9px" height="12px" xmlns="http://www.w3.org/2000/svg">
  <defs>
    <pattern id="BGPattern" patternUnits="userSpaceOnUse" alignment="0 0" imageRepeat="None" />
    <mask fill="white" id="Clip4743">
      <path d="M 9 0  L 9 11.855420671561642  L 7.348861508132084 11.855420671561642  C 7.348861508132084 11.855420671561642  7.348861508132084 10.530119735920296  7.348861508132084 10.530119735920296  C 6.534910285239034 11.493975222978827  5.395379266264169 12  4.116313454903893 12  C 2.8837582013923115 12  1.8604719843518973 11.61445775730137  1.162799408575653 10.891566142007472  C 0.34884801241375063 10.072289025882938  0 8.939758493462639  0 7.5662645680298874  C 0 7.5662645680298874  0 0  0 0  L 1.674440611138492 0  C 1.674440611138492 0  1.674440611138492 7.301204380901618  1.674440611138492 7.301204380901618  C 1.674440611138492 9.397590041316313  2.744209894036471 10.457831986709838  4.46513553474618 10.457831986709838  C 6.186061175455889 10.457831986709838  7.325559388861508 9.373493725952677  7.325559388861508 7.301204380901618  C 7.325559388861508 7.301204380901618  7.325559388861508 0  7.325559388861508 0  L 9 0  Z " fill-rule="evenodd" />
    </mask>
  </defs>
  <g transform="matrix(1 0 0 1 -867 -527 )">
    <path d="M 9 0  L 9 11.855420671561642  L 7.348861508132084 11.855420671561642  C 7.348861508132084 11.855420671561642  7.348861508132084 10.530119735920296  7.348861508132084 10.530119735920296  C 6.534910285239034 11.493975222978827  5.395379266264169 12  4.116313454903893 12  C 2.8837582013923115 12  1.8604719843518973 11.61445775730137  1.162799408575653 10.891566142007472  C 0.34884801241375063 10.072289025882938  0 8.939758493462639  0 7.5662645680298874  C 0 7.5662645680298874  0 0  0 0  L 1.674440611138492 0  C 1.674440611138492 0  1.674440611138492 7.301204380901618  1.674440611138492 7.301204380901618  C 1.674440611138492 9.397590041316313  2.744209894036471 10.457831986709838  4.46513553474618 10.457831986709838  C 6.186061175455889 10.457831986709838  7.325559388861508 9.373493725952677  7.325559388861508 7.301204380901618  C 7.325559388861508 7.301204380901618  7.325559388861508 0  7.325559388861508 0  L 9 0  Z " fill-rule="nonzero" fill="rgba(0, 0, 0, 1)" stroke="none" transform="matrix(1 0 0 1 867 527 )" class="fill" />
    <path d="M 9 0  L 9 11.855420671561642  L 7.348861508132084 11.855420671561642  C 7.348861508132084 11.855420671561642  7.348861508132084 10.530119735920296  7.348861508132084 10.530119735920296  C 6.534910285239034 11.493975222978827  5.395379266264169 12  4.116313454903893 12  C 2.8837582013923115 12  1.8604719843518973 11.61445775730137  1.162799408575653 10.891566142007472  C 0.34884801241375063 10.072289025882938  0 8.939758493462639  0 7.5662645680298874  C 0 7.5662645680298874  0 0  0 0  L 1.674440611138492 0  C 1.674440611138492 0  1.674440611138492 7.301204380901618  1.674440611138492 7.301204380901618  C 1.674440611138492 9.397590041316313  2.744209894036471 10.457831986709838  4.46513553474618 10.457831986709838  C 6.186061175455889 10.457831986709838  7.325559388861508 9.373493725952677  7.325559388861508 7.301204380901618  C 7.325559388861508 7.301204380901618  7.325559388861508 0  7.325559388861508 0  L 9 0  Z " stroke-width="0" stroke-dasharray="0" stroke="rgba(121, 121, 121, 1)" fill="none" transform="matrix(1 0 0 1 867 527 )" class="stroke" mask="url(#Clip4743)" />
  </g>
</svg>