<?xml version="1.0" encoding="utf-8"?>
<svg version="1.1" xmlns:xlink="http://www.w3.org/1999/xlink" width="11px" height="16px" xmlns="http://www.w3.org/2000/svg">
  <defs>
    <pattern id="BGPattern" patternUnits="userSpaceOnUse" alignment="0 0" imageRepeat="None" />
    <mask fill="white" id="Clip4678">
      <path d="M 9.520082505469956 1.6353592324622854  C 11.000000359063835 3.116022780887238  11 4.662984171690101  11 8.000000957985165  C 11 11.337017025791356  11.000000359063835 12.883977937601637  9.520082505469956 14.364640767537715  C 8.45984217033675 15.425414148961904  7.06826443253813 16  5.49999233997156 16  C 3.931720247404991 16  2.540157829663251 15.425414148961904  1.4799174945300433 14.364640767537715  C 0 12.883977937601637  0 11.337017025791356  0 8.000000957985165  C 0 4.662984171690101  0 3.116022780887238  1.4799174945300433 1.6353592324622854  C 2.540157829663251 0.5745863300306795  3.931720247404991 0  5.49999233997156 0  C 7.06826443253813 0  8.45984217033675 0.5745863300306795  9.520082505469956 1.6353592324622854  Z M 8.216866546984525 13.370165946980311  C 9.210842010781839 12.353591366637687  9.32127412734867 11.29281822470979  9.32127412734867 8.000000957985165  C 9.32127412734867 4.707183691260541  9.210842010781839 3.646409591347478  8.216866546984525 2.6298350110048547  C 7.532128406144805 1.9226526369739165  6.538143905907692 1.5027625897212982  5.49999233997156 1.5027625897212982  C 4.461840774035428 1.5027625897212982  3.467871893075056 1.9226526369739165  2.7831334530154748 2.6298350110048547  C 1.7891583482819948 3.646409591347478  1.6787105525944517 4.707183691260541  1.6787105525944517 8.000000957985165  C 1.6787105525944517 11.29281822470979  1.7891583482819948 12.353591366637687  2.7831334530154748 13.370165946980311  C 3.467871893075056 14.077348321011248  4.461840774035428 14.497237410278702  5.49999233997156 14.497237410278702  C 6.538143905907692 14.497237410278702  7.532128406144805 14.077348321011248  8.216866546984525 13.370165946980311  Z " fill-rule="evenodd" />
    </mask>
  </defs>
  <g transform="matrix(1 0 0 1 -1701 -74 )">
    <path d="M 9.520082505469956 1.6353592324622854  C 11.000000359063835 3.116022780887238  11 4.662984171690101  11 8.000000957985165  C 11 11.337017025791356  11.000000359063835 12.883977937601637  9.520082505469956 14.364640767537715  C 8.45984217033675 15.425414148961904  7.06826443253813 16  5.49999233997156 16  C 3.931720247404991 16  2.540157829663251 15.425414148961904  1.4799174945300433 14.364640767537715  C 0 12.883977937601637  0 11.337017025791356  0 8.000000957985165  C 0 4.662984171690101  0 3.116022780887238  1.4799174945300433 1.6353592324622854  C 2.540157829663251 0.5745863300306795  3.931720247404991 0  5.49999233997156 0  C 7.06826443253813 0  8.45984217033675 0.5745863300306795  9.520082505469956 1.6353592324622854  Z M 8.216866546984525 13.370165946980311  C 9.210842010781839 12.353591366637687  9.32127412734867 11.29281822470979  9.32127412734867 8.000000957985165  C 9.32127412734867 4.707183691260541  9.210842010781839 3.646409591347478  8.216866546984525 2.6298350110048547  C 7.532128406144805 1.9226526369739165  6.538143905907692 1.5027625897212982  5.49999233997156 1.5027625897212982  C 4.461840774035428 1.5027625897212982  3.467871893075056 1.9226526369739165  2.7831334530154748 2.6298350110048547  C 1.7891583482819948 3.646409591347478  1.6787105525944517 4.707183691260541  1.6787105525944517 8.000000957985165  C 1.6787105525944517 11.29281822470979  1.7891583482819948 12.353591366637687  2.7831334530154748 13.370165946980311  C 3.467871893075056 14.077348321011248  4.461840774035428 14.497237410278702  5.49999233997156 14.497237410278702  C 6.538143905907692 14.497237410278702  7.532128406144805 14.077348321011248  8.216866546984525 13.370165946980311  Z " fill-rule="nonzero" fill="rgba(212, 208, 208, 0.5019607843137255)" stroke="none" transform="matrix(1 0 0 1 1701 74 )" class="fill" />
    <path d="M 9.520082505469956 1.6353592324622854  C 11.000000359063835 3.116022780887238  11 4.662984171690101  11 8.000000957985165  C 11 11.337017025791356  11.000000359063835 12.883977937601637  9.520082505469956 14.364640767537715  C 8.45984217033675 15.425414148961904  7.06826443253813 16  5.49999233997156 16  C 3.931720247404991 16  2.540157829663251 15.425414148961904  1.4799174945300433 14.364640767537715  C 0 12.883977937601637  0 11.337017025791356  0 8.000000957985165  C 0 4.662984171690101  0 3.116022780887238  1.4799174945300433 1.6353592324622854  C 2.540157829663251 0.5745863300306795  3.931720247404991 0  5.49999233997156 0  C 7.06826443253813 0  8.45984217033675 0.5745863300306795  9.520082505469956 1.6353592324622854  Z " stroke-width="0" stroke-dasharray="0" stroke="rgba(121, 121, 121, 1)" fill="none" transform="matrix(1 0 0 1 1701 74 )" class="stroke" mask="url(#Clip4678)" />
    <path d="M 8.216866546984525 13.370165946980311  C 9.210842010781839 12.353591366637687  9.32127412734867 11.29281822470979  9.32127412734867 8.000000957985165  C 9.32127412734867 4.707183691260541  9.210842010781839 3.646409591347478  8.216866546984525 2.6298350110048547  C 7.532128406144805 1.9226526369739165  6.538143905907692 1.5027625897212982  5.49999233997156 1.5027625897212982  C 4.461840774035428 1.5027625897212982  3.467871893075056 1.9226526369739165  2.7831334530154748 2.6298350110048547  C 1.7891583482819948 3.646409591347478  1.6787105525944517 4.707183691260541  1.6787105525944517 8.000000957985165  C 1.6787105525944517 11.29281822470979  1.7891583482819948 12.353591366637687  2.7831334530154748 13.370165946980311  C 3.467871893075056 14.077348321011248  4.461840774035428 14.497237410278702  5.49999233997156 14.497237410278702  C 6.538143905907692 14.497237410278702  7.532128406144805 14.077348321011248  8.216866546984525 13.370165946980311  Z " stroke-width="0" stroke-dasharray="0" stroke="rgba(121, 121, 121, 1)" fill="none" transform="matrix(1 0 0 1 1701 74 )" class="stroke" mask="url(#Clip4678)" />
  </g>
</svg>