<?xml version="1.0" encoding="utf-8"?>
<svg version="1.1" xmlns:xlink="http://www.w3.org/1999/xlink" width="9px" height="17px" xmlns="http://www.w3.org/2000/svg">
  <defs>
    <pattern id="BGPattern" patternUnits="userSpaceOnUse" alignment="0 0" imageRepeat="None" />
    <mask fill="white" id="Clip4764">
      <path d="M 9 0  L 9 16.857941475649536  L 7.365733073491498 16.857941475649536  C 7.365733073491498 16.857941475649536  7.365733073491498 15.461004114215129  7.365733073491498 15.461004114215129  C 6.445016667967502 16.69220214001171  5.386191578270848 17  4.1432243965140865 17  C 2.9923283751186 17  1.9795357214940255 16.59749530066866  1.3810699207059633 15.981896346572539  C 0.23017412797291661 14.798052181463785  0 12.856547891810642  0 11.033428136272722  C 0 9.210308027921762  0.23017412797291661 7.2688026798294985  1.3810699207059633 6.084958985138131  C 1.9795357214940255 5.469359501822452  2.9923283751186 5.0668525092063454  4.1432243965140865 5.0668525092063454  C 5.386191578270848 5.0668525092063454  6.4219967627496075 5.350975202915923  7.342713168273605 6.558496180764245  C 7.342713168273605 6.558496180764245  7.342713168273605 0  7.342713168273605 0  L 9 0  Z M 4.511506294009898 15.484681162163389  C 6.974423038929933 15.484681162163389  7.342713168273605 13.306408745114577  7.342713168273605 11.033428136272722  C 7.342713168273605 8.760447527430868  6.974423038929933 6.582173228712507  4.511506294009898 6.582173228712507  C 2.048589091764981 6.582173228712507  1.6572868317263951 8.760447527430868  1.6572868317263951 11.033428136272722  C 1.6572868317263951 13.306408745114577  2.048589091764981 15.484681162163389  4.511506294009898 15.484681162163389  Z " fill-rule="evenodd" />
    </mask>
  </defs>
  <g transform="matrix(1 0 0 1 -216 -491 )">
    <path d="M 9 0  L 9 16.857941475649536  L 7.365733073491498 16.857941475649536  C 7.365733073491498 16.857941475649536  7.365733073491498 15.461004114215129  7.365733073491498 15.461004114215129  C 6.445016667967502 16.69220214001171  5.386191578270848 17  4.1432243965140865 17  C 2.9923283751186 17  1.9795357214940255 16.59749530066866  1.3810699207059633 15.981896346572539  C 0.23017412797291661 14.798052181463785  0 12.856547891810642  0 11.033428136272722  C 0 9.210308027921762  0.23017412797291661 7.2688026798294985  1.3810699207059633 6.084958985138131  C 1.9795357214940255 5.469359501822452  2.9923283751186 5.0668525092063454  4.1432243965140865 5.0668525092063454  C 5.386191578270848 5.0668525092063454  6.4219967627496075 5.350975202915923  7.342713168273605 6.558496180764245  C 7.342713168273605 6.558496180764245  7.342713168273605 0  7.342713168273605 0  L 9 0  Z M 4.511506294009898 15.484681162163389  C 6.974423038929933 15.484681162163389  7.342713168273605 13.306408745114577  7.342713168273605 11.033428136272722  C 7.342713168273605 8.760447527430868  6.974423038929933 6.582173228712507  4.511506294009898 6.582173228712507  C 2.048589091764981 6.582173228712507  1.6572868317263951 8.760447527430868  1.6572868317263951 11.033428136272722  C 1.6572868317263951 13.306408745114577  2.048589091764981 15.484681162163389  4.511506294009898 15.484681162163389  Z " fill-rule="nonzero" fill="rgba(0, 0, 0, 1)" stroke="none" transform="matrix(1 0 0 1 216 491 )" class="fill" />
    <path d="M 9 0  L 9 16.857941475649536  L 7.365733073491498 16.857941475649536  C 7.365733073491498 16.857941475649536  7.365733073491498 15.461004114215129  7.365733073491498 15.461004114215129  C 6.445016667967502 16.69220214001171  5.386191578270848 17  4.1432243965140865 17  C 2.9923283751186 17  1.9795357214940255 16.59749530066866  1.3810699207059633 15.981896346572539  C 0.23017412797291661 14.798052181463785  0 12.856547891810642  0 11.033428136272722  C 0 9.210308027921762  0.23017412797291661 7.2688026798294985  1.3810699207059633 6.084958985138131  C 1.9795357214940255 5.469359501822452  2.9923283751186 5.0668525092063454  4.1432243965140865 5.0668525092063454  C 5.386191578270848 5.0668525092063454  6.4219967627496075 5.350975202915923  7.342713168273605 6.558496180764245  C 7.342713168273605 6.558496180764245  7.342713168273605 0  7.342713168273605 0  L 9 0  Z " stroke-width="0" stroke-dasharray="0" stroke="rgba(121, 121, 121, 1)" fill="none" transform="matrix(1 0 0 1 216 491 )" class="stroke" mask="url(#Clip4764)" />
    <path d="M 4.511506294009898 15.484681162163389  C 6.974423038929933 15.484681162163389  7.342713168273605 13.306408745114577  7.342713168273605 11.033428136272722  C 7.342713168273605 8.760447527430868  6.974423038929933 6.582173228712507  4.511506294009898 6.582173228712507  C 2.048589091764981 6.582173228712507  1.6572868317263951 8.760447527430868  1.6572868317263951 11.033428136272722  C 1.6572868317263951 13.306408745114577  2.048589091764981 15.484681162163389  4.511506294009898 15.484681162163389  Z " stroke-width="0" stroke-dasharray="0" stroke="rgba(121, 121, 121, 1)" fill="none" transform="matrix(1 0 0 1 216 491 )" class="stroke" mask="url(#Clip4764)" />
  </g>
</svg>