<?xml version="1.0" encoding="utf-8"?>
<svg version="1.1" xmlns:xlink="http://www.w3.org/1999/xlink" width="20px" height="21px" xmlns="http://www.w3.org/2000/svg">
  <defs>
    <pattern id="BGPattern" patternUnits="userSpaceOnUse" alignment="0 0" imageRepeat="None" />
    <mask fill="white" id="Clip4723">
      <path d="M 0.8515779329163876 5.0034265281004435  L 0.8515779329163876 3.632296028723118  L 7.615566318661855 3.632296028723118  L 7.615566318661855 5.0034265281004435  L 0.8515779329163876 5.0034265281004435  Z M 12.04378703899933 5.0034265281004435  L 12.04378703899933 3.632296028723118  L 18.92944046457018 3.632296028723118  L 18.92944046457018 5.0034265281004435  L 12.04378703899933 5.0034265281004435  Z M 18.150846086376763 18.52233615660799  C 18.150846086376763 18.52233615660799  18.150846086376763 0  18.150846086376763 0  L 20 0  C 20 0  20 18.52233615660799  20 18.52233615660799  C 20 19.1317292155217  19.910778648520296 19.596790562914663  19.732352381556414 19.917523723518144  C 19.570146508530474 20.238256943862837  19.286290098028147 20.478807964333704  18.88077444864003 20.639174574506047  C 18.459039372137237 20.783504434049348  17.87510035625504 20.87171364184224  17.128952566877096 20.90378702361792  C 16.3990251714371 20.95189697679902  15.48255599453629 20.975942932467174  14.379554704407322 20.975942932467174  C 14.34711391653144 20.799539691148198  14.290342054337016 20.59909067338469  14.209239117824044 20.374577419143407  C 14.144356575249015 20.15006422464333  14.063248804619715 19.917533550946846  13.965924507345537 19.676983635688327  C 13.884821570832566 19.45247042625295  13.795615688525123 19.260026491385204  13.69829235807421 19.09965989614816  C 14.266013880488268 19.115696555298484  14.809405295407048 19.123716963680987  15.328464669184017 19.123716963680987  C 15.847523076137719 19.139753620964395  16.30169410640006 19.139753620964395  16.690989361850235 19.123716963680987  C 17.096504044415088 19.123716963680987  17.372264276885808 19.123716963680987  17.518249755973805 19.123716963680987  C 17.76155856551272 19.123716963680987  17.923760571245595 19.083614916167722  18.004863507758564 19.00343162601685  C 18.10218780503274 18.907211667381095  18.150846086376763 18.746849395913976  18.150846086376763 18.52233615660799  Z M 0.9975605115345882 1.5154576108250615  L 0.9975605115345882 0  L 8.71045886205675 0  L 8.71045886205675 8.828179097086178  L 0.9975605115345882 8.828179097086178  L 0.9975605115345882 7.312706192511889  L 6.982954519086638 7.312706192511889  L 6.982954519086638 1.5154576108250615  L 0.9975605115345882 1.5154576108250615  Z M 10.997560511534587 0  L 19.124089059118536 0  L 19.124089059118536 1.5154576108250615  L 12.72504938533244 1.5154576108250615  L 12.72504938533244 7.336763260044716  L 19.124089059118536 7.336763260044716  L 19.124089059118536 8.852236164619004  L 10.997560511534587 8.852236164619004  L 10.997560511534587 0  Z M 0 21  L 0 0  L 2 0  L 2 21  L 0 21  Z " fill-rule="evenodd" />
    </mask>
  </defs>
  <g transform="matrix(1 0 0 1 -334 -613 )">
    <path d="M 0.8515779329163876 5.0034265281004435  L 0.8515779329163876 3.632296028723118  L 7.615566318661855 3.632296028723118  L 7.615566318661855 5.0034265281004435  L 0.8515779329163876 5.0034265281004435  Z M 12.04378703899933 5.0034265281004435  L 12.04378703899933 3.632296028723118  L 18.92944046457018 3.632296028723118  L 18.92944046457018 5.0034265281004435  L 12.04378703899933 5.0034265281004435  Z M 18.150846086376763 18.52233615660799  C 18.150846086376763 18.52233615660799  18.150846086376763 0  18.150846086376763 0  L 20 0  C 20 0  20 18.52233615660799  20 18.52233615660799  C 20 19.1317292155217  19.910778648520296 19.596790562914663  19.732352381556414 19.917523723518144  C 19.570146508530474 20.238256943862837  19.286290098028147 20.478807964333704  18.88077444864003 20.639174574506047  C 18.459039372137237 20.783504434049348  17.87510035625504 20.87171364184224  17.128952566877096 20.90378702361792  C 16.3990251714371 20.95189697679902  15.48255599453629 20.975942932467174  14.379554704407322 20.975942932467174  C 14.34711391653144 20.799539691148198  14.290342054337016 20.59909067338469  14.209239117824044 20.374577419143407  C 14.144356575249015 20.15006422464333  14.063248804619715 19.917533550946846  13.965924507345537 19.676983635688327  C 13.884821570832566 19.45247042625295  13.795615688525123 19.260026491385204  13.69829235807421 19.09965989614816  C 14.266013880488268 19.115696555298484  14.809405295407048 19.123716963680987  15.328464669184017 19.123716963680987  C 15.847523076137719 19.139753620964395  16.30169410640006 19.139753620964395  16.690989361850235 19.123716963680987  C 17.096504044415088 19.123716963680987  17.372264276885808 19.123716963680987  17.518249755973805 19.123716963680987  C 17.76155856551272 19.123716963680987  17.923760571245595 19.083614916167722  18.004863507758564 19.00343162601685  C 18.10218780503274 18.907211667381095  18.150846086376763 18.746849395913976  18.150846086376763 18.52233615660799  Z M 0.9975605115345882 1.5154576108250615  L 0.9975605115345882 0  L 8.71045886205675 0  L 8.71045886205675 8.828179097086178  L 0.9975605115345882 8.828179097086178  L 0.9975605115345882 7.312706192511889  L 6.982954519086638 7.312706192511889  L 6.982954519086638 1.5154576108250615  L 0.9975605115345882 1.5154576108250615  Z M 10.997560511534587 0  L 19.124089059118536 0  L 19.124089059118536 1.5154576108250615  L 12.72504938533244 1.5154576108250615  L 12.72504938533244 7.336763260044716  L 19.124089059118536 7.336763260044716  L 19.124089059118536 8.852236164619004  L 10.997560511534587 8.852236164619004  L 10.997560511534587 0  Z M 0 21  L 0 0  L 2 0  L 2 21  L 0 21  Z " fill-rule="nonzero" fill="rgba(0, 0, 0, 1)" stroke="none" transform="matrix(1 0 0 1 334 613 )" class="fill" />
    <path d="M 0.8515779329163876 5.0034265281004435  L 0.8515779329163876 3.632296028723118  L 7.615566318661855 3.632296028723118  L 7.615566318661855 5.0034265281004435  L 0.8515779329163876 5.0034265281004435  Z " stroke-width="0" stroke-dasharray="0" stroke="rgba(121, 121, 121, 1)" fill="none" transform="matrix(1 0 0 1 334 613 )" class="stroke" mask="url(#Clip4723)" />
    <path d="M 12.04378703899933 5.0034265281004435  L 12.04378703899933 3.632296028723118  L 18.92944046457018 3.632296028723118  L 18.92944046457018 5.0034265281004435  L 12.04378703899933 5.0034265281004435  Z " stroke-width="0" stroke-dasharray="0" stroke="rgba(121, 121, 121, 1)" fill="none" transform="matrix(1 0 0 1 334 613 )" class="stroke" mask="url(#Clip4723)" />
    <path d="M 18.150846086376763 18.52233615660799  C 18.150846086376763 18.52233615660799  18.150846086376763 0  18.150846086376763 0  L 20 0  C 20 0  20 18.52233615660799  20 18.52233615660799  C 20 19.1317292155217  19.910778648520296 19.596790562914663  19.732352381556414 19.917523723518144  C 19.570146508530474 20.238256943862837  19.286290098028147 20.478807964333704  18.88077444864003 20.639174574506047  C 18.459039372137237 20.783504434049348  17.87510035625504 20.87171364184224  17.128952566877096 20.90378702361792  C 16.3990251714371 20.95189697679902  15.48255599453629 20.975942932467174  14.379554704407322 20.975942932467174  C 14.34711391653144 20.799539691148198  14.290342054337016 20.59909067338469  14.209239117824044 20.374577419143407  C 14.144356575249015 20.15006422464333  14.063248804619715 19.917533550946846  13.965924507345537 19.676983635688327  C 13.884821570832566 19.45247042625295  13.795615688525123 19.260026491385204  13.69829235807421 19.09965989614816  C 14.266013880488268 19.115696555298484  14.809405295407048 19.123716963680987  15.328464669184017 19.123716963680987  C 15.847523076137719 19.139753620964395  16.30169410640006 19.139753620964395  16.690989361850235 19.123716963680987  C 17.096504044415088 19.123716963680987  17.372264276885808 19.123716963680987  17.518249755973805 19.123716963680987  C 17.76155856551272 19.123716963680987  17.923760571245595 19.083614916167722  18.004863507758564 19.00343162601685  C 18.10218780503274 18.907211667381095  18.150846086376763 18.746849395913976  18.150846086376763 18.52233615660799  Z " stroke-width="0" stroke-dasharray="0" stroke="rgba(121, 121, 121, 1)" fill="none" transform="matrix(1 0 0 1 334 613 )" class="stroke" mask="url(#Clip4723)" />
    <path d="M 0.9975605115345882 1.5154576108250615  L 0.9975605115345882 0  L 8.71045886205675 0  L 8.71045886205675 8.828179097086178  L 0.9975605115345882 8.828179097086178  L 0.9975605115345882 7.312706192511889  L 6.982954519086638 7.312706192511889  L 6.982954519086638 1.5154576108250615  L 0.9975605115345882 1.5154576108250615  Z " stroke-width="0" stroke-dasharray="0" stroke="rgba(121, 121, 121, 1)" fill="none" transform="matrix(1 0 0 1 334 613 )" class="stroke" mask="url(#Clip4723)" />
    <path d="M 10.997560511534587 0  L 19.124089059118536 0  L 19.124089059118536 1.5154576108250615  L 12.72504938533244 1.5154576108250615  L 12.72504938533244 7.336763260044716  L 19.124089059118536 7.336763260044716  L 19.124089059118536 8.852236164619004  L 10.997560511534587 8.852236164619004  L 10.997560511534587 0  Z " stroke-width="0" stroke-dasharray="0" stroke="rgba(121, 121, 121, 1)" fill="none" transform="matrix(1 0 0 1 334 613 )" class="stroke" mask="url(#Clip4723)" />
    <path d="M 0 21  L 0 0  L 2 0  L 2 21  L 0 21  Z " stroke-width="0" stroke-dasharray="0" stroke="rgba(121, 121, 121, 1)" fill="none" transform="matrix(1 0 0 1 334 613 )" class="stroke" mask="url(#Clip4723)" />
  </g>
</svg>