<?xml version="1.0" encoding="utf-8"?>
<svg version="1.1" xmlns:xlink="http://www.w3.org/1999/xlink" width="22px" height="22px" xmlns="http://www.w3.org/2000/svg">
  <defs>
    <pattern id="BGPattern" patternUnits="userSpaceOnUse" alignment="0 0" imageRepeat="None" />
    <mask fill="white" id="Clip4697">
      <path d="M 0.28414061943947133 7.500009289031306  L 0.28414061943947133 5.833335512241911  L 6.725484399038592 5.833335512241911  L 6.725484399038592 7.500009289031306  L 0.28414061943947133 7.500009289031306  Z M 3 16.26189563670117  L 3 0.3095201561658181  L 4.452058319509003 0.3095201561658181  L 4.452058319509003 16.26189563670117  L 3 16.26189563670117  Z M 0.5683414636817065 18.714275589733074  C 0.5683414636817065 18.714275589733074  0 16.952385801681245  0 16.952385801681245  C 0.8525288984952012 16.66667177706738  1.8787161333863038 16.301588764090944  3.0785714676784433 15.85714433159227  C 4.294214522287283 15.412700135619856  5.517722324478918 14.960323085410234  6.7491527465247545 14.50000584864934  C 6.7491527465247545 14.50000584864934  7.080690285739314 16.119041344446224  7.080690285739314 16.119041344446224  C 5.943985244581136 16.57935858120712  4.807286320004489 17.031750769097386  3.6705812788463117 17.4761949650698  C 2.5496636051251307 17.920639279305345  1.5155956254379985 18.33332337951989  0.5683414636817065 18.714275589733074  Z M 8.383172095111389 5.333337920509287  L 8.383172095111389 4  L 21.59739719352419 4  L 21.59739719352419 5.333337920509287  L 8.383172095111389 5.333337920509287  Z M 8.691041286839786 10.04762039100629  L 8.691041286839786 8.547627615808418  L 13.048426216404142 8.547627615808418  L 13.048426216404142 10.04762039100629  L 8.691041286839786 10.04762039100629  Z M 7.696428669196108 11.095238717783403  C 7.696428669196108 11.095238717783403  7.696428669196108 3.666664143719893  7.696428669196108 3.666664143719893  L 9.354116365268904 3.666664143719893  C 9.354116365268904 3.666664143719893  9.354116365268904 11.095238717783403  9.354116365268904 11.095238717783403  C 9.354116365268904 11.93650822388905  9.314652181232857 12.841261851255773  9.235714403035331 13.809515683669265  C 9.172563992274801 14.761896238768012  9.038349725771836 15.730158822653127  8.833111596559522 16.714285222802577  C 8.627872996840935 17.682538936952938  8.327921955157159 18.61904698344729  7.933232593663256 19.523808475312162  C 7.55433107011262 20.428570026308602  7.041237393853786 21.253968561230543  6.393946859824034 22  C 6.315009081626507 21.873015910218417  6.196617000024638 21.73809068778052  6.038740973123312 21.595233557210456  C 5.88086541672826 21.452376544903522  5.715067946238413 21.317451204202495  5.541404551900093 21.190467114420912  C 5.367741157561771 21.06348302463933  5.217765401466748 20.9603119848028  5.09146505045196 20.88094695825509  C 5.896631140876764 19.960312366470177  6.480772205158528 18.936510341874197  6.843886361272167 17.809526692891552  C 7.207000517385805 16.682543043908908  7.435964395849416 15.53967783919242  7.530690011990211 14.380947990369684  C 7.641202995568002 13.206345337284727  7.696428669196108 12.111111436036076  7.696428669196108 11.095238717783403  Z M 12.361682790488862 8.833336200318303  C 12.361682790488862 8.833336200318303  12.361682790488862 8.547627615808418  12.361682790488862 8.547627615808418  C 12.361682790488862 8.547627615808418  13.900968524328082 8.547627615808418  13.900968524328082 8.547627615808418  C 13.900968524328082 8.547627615808418  13.900968524328082 8.634921416515347  13.900968524328082 8.809524628662373  C 13.900968524328082 8.984127840809398  13.893027319476154 9.126991594114745  13.877239952039158 9.23810264310785  C 13.861452584602162 11.063498312836684  13.829929605418041 12.531738856774833  13.782566562094509 13.642849819758387  C 13.750991827220517 14.738087268900943  13.695705458283372 15.5714243938219  13.616767680085848 16.142852916102157  C 13.553617269325317 16.698408161067675  13.443105697266342 17.07936835404214  13.285230140871288 17.285717529502996  C 13.127353643463692 17.49206658670072  12.953675663430953 17.642853851456003  12.764225372161906 17.738091977923755  C 12.574774139880319 17.83332998612838  12.337989976676576 17.896823450176733  12.053813598760463 17.928569413490564  C 11.817000264167884 17.944442454279045  11.501226567076744 17.960319516013946  11.106537676089111 17.976192556802427  C 10.727635682032204 17.976192556802427  10.332935028387782 17.960315495067526  9.922457828950611 17.928569413490564  C 9.890883094076617 17.690474274715875  9.835657420448511 17.428562242444407  9.756719171744713 17.142848099567406  C 9.693569231490454 16.857133838427277  9.60669965856643 16.619052654701935  9.496186674988639 16.42857663829269  C 9.90666340391954 16.46032271986965  10.27772252893528 16.48412317479136  10.609261479668653 16.499996215579838  C 10.956588268345296 16.499996215579838  11.201253411598202 16.499996215579838  11.343341600556258 16.499996215579838  C 11.643305345909368 16.499996215579838  11.848567470941534 16.420625808059715  11.959079984013053 16.26189563670117  C 12.038017762210579 16.119038506131105  12.101184170184343 15.801586914885638  12.148547213507875 15.309523596547784  C 12.211697624268407 14.817460278209927  12.259042788353618 14.055554793415384  12.290617523227612 13.023809507426751  C 12.32219319911415 11.97619070759712  12.345895423051864 10.579367375683518  12.361682790488862 8.833336200318303  Z M 14.966586184430245 5.595234933363242  C 14.88764840623272 3.7857115948441065  14.840303242147506 1.920633914459719  14.82451587471051 0  C 14.82451587471051 0  16.529600490558394 0  16.529600490558394 0  C 16.5138131231214 1.8730145555680175  16.53745512225635 3.6666754969803765  16.60060553301688 5.380961063821149  C 16.679543311214406 7.079372880294662  16.782173903224216 8.674600588855778  16.908474724745275 10.166663111605303  C 17.050562913703335 11.658726107407347  17.216360854699452 13.00793339179689  17.405811145968496 14.214282126458807  C 17.611049745687083 15.404757820332243  17.839952928841658 16.436498375795676  18.092554571883777 17.30951396347828  C 18.345155273913353 18.16665651037241  18.621404562165683 18.825390630106817  18.92136830751879 19.285707896433493  C 19.2371194203089 19.74602516276017  19.560773156436664 19.976182923732924  19.892312577676307 19.976182923732924  C 20.129125912268886 19.976182923732924  20.302803892301625 19.666669804223343  20.41331734638569 19.04762245523547  C 20.53961816790675 18.42857504711603  20.62642751602801 17.436512126572342  20.673789618339 16.07143333881501  C 20.847453483183592 16.24603655096203  21.06059564725238 16.4206395265828  21.313196349281956 16.595242502203565  C 21.56579705131153 16.76984571435059  21.794761400281416 16.896817268240387  22 16.97618223565653  C 21.921062221802472 18.16665792952997  21.794728464842404 19.1111046251549  21.621065541010353 19.80951705982205  C 21.4631899846153 20.492056453700716  21.22640582141156 20.976187686511707  20.91065376760891 21.261901829388705  C 20.610690022255802 21.547615972265703  20.200166713204016 21.690464706153538  19.679177000695322 21.690464706153538  C 19.06346214255211 21.690464706153538  18.51878526230639 21.420629221563697  18.04515765210869 20.88094695825509  C 17.57153098292353 20.357137617471842  17.15318691862534 19.61110954920159  16.790072762511702 18.642856012445925  C 16.442745973835063 17.65872943490178  16.142795402657555 16.50000212873634  15.890193759615437 15.166669304292839  C 15.653380425022856 13.833336479849338  15.455999280039858 12.357142267363091  15.298123723644803 10.738095418305722  C 15.156035534686747 9.119048569248353  15.045523962627772 7.404757798829857  14.966586184430245 5.595234933363242  Z M 18.56616242081807 2.3571488040888253  C 18.02938439985984 1.8174668364380486  17.508409743551837 1.3492129610197843  17.003208339492687 0.9523871778340319  C 17.003208339492687 0.9523871778340319  18.18728818663119 0.1428542922549433  18.18728818663119 0.1428542922549433  C 18.708278840152424 0.5396791293356554  19.237133535497044 0.9920715537521838  19.773910615442734 1.5000079128785195  C 20.32647600383796 2.0079442720048553  20.752760331975537 2.4523827913470266  21.052724077328648 2.833334824165518  C 21.052724077328648 2.833334824165518  19.773910615442734 3.738098858687687  19.773910615442734 3.738098858687687  C 19.50552160496362 3.3412730755019346  19.10293950076376 2.8809579674773813  18.56616242081807 2.3571488040888253  Z M 16.529600490558394 15.452377888802726  C 17.87154460194143 13.30952140330428  18.87402878950884 10.817464170142026  19.537106690975587 7.9761953091079985  C 19.537106690975587 7.9761953091079985  21.17112603956222 8.285715465273817  21.17112603956222 8.285715465273817  C 20.413322051448407 11.33333314697931  19.33184927100614 13.992055061421139  17.926755689875115 16.26189563670117  C 16.521662108744096 18.53173597545494  14.761357935849636 20.38889026265252  12.645823409928333 21.833334136089125  C 12.566885631730806 21.72222308709602  12.44849402063521 21.58729780552656  12.290617523227612 21.42856769329958  C 12.132741966832558 21.2698375810726  11.96694402583644 21.111111785449868  11.793281102004391 20.952381673222888  C 11.635405545609338 20.80952460178439  11.493370994366243 20.690476441081394  11.367070172845185 20.595238373745207  C 13.482604698766487 19.293651630878667  15.203444687624899 17.579361096986432  16.529600490558394 15.452377888802726  Z " fill-rule="evenodd" />
    </mask>
  </defs>
  <g transform="matrix(1 0 0 1 -918 -612 )">
    <path d="M 0.28414061943947133 7.500009289031306  L 0.28414061943947133 5.833335512241911  L 6.725484399038592 5.833335512241911  L 6.725484399038592 7.500009289031306  L 0.28414061943947133 7.500009289031306  Z M 3 16.26189563670117  L 3 0.3095201561658181  L 4.452058319509003 0.3095201561658181  L 4.452058319509003 16.26189563670117  L 3 16.26189563670117  Z M 0.5683414636817065 18.714275589733074  C 0.5683414636817065 18.714275589733074  0 16.952385801681245  0 16.952385801681245  C 0.8525288984952012 16.66667177706738  1.8787161333863038 16.301588764090944  3.0785714676784433 15.85714433159227  C 4.294214522287283 15.412700135619856  5.517722324478918 14.960323085410234  6.7491527465247545 14.50000584864934  C 6.7491527465247545 14.50000584864934  7.080690285739314 16.119041344446224  7.080690285739314 16.119041344446224  C 5.943985244581136 16.57935858120712  4.807286320004489 17.031750769097386  3.6705812788463117 17.4761949650698  C 2.5496636051251307 17.920639279305345  1.5155956254379985 18.33332337951989  0.5683414636817065 18.714275589733074  Z M 8.383172095111389 5.333337920509287  L 8.383172095111389 4  L 21.59739719352419 4  L 21.59739719352419 5.333337920509287  L 8.383172095111389 5.333337920509287  Z M 8.691041286839786 10.04762039100629  L 8.691041286839786 8.547627615808418  L 13.048426216404142 8.547627615808418  L 13.048426216404142 10.04762039100629  L 8.691041286839786 10.04762039100629  Z M 7.696428669196108 11.095238717783403  C 7.696428669196108 11.095238717783403  7.696428669196108 3.666664143719893  7.696428669196108 3.666664143719893  L 9.354116365268904 3.666664143719893  C 9.354116365268904 3.666664143719893  9.354116365268904 11.095238717783403  9.354116365268904 11.095238717783403  C 9.354116365268904 11.93650822388905  9.314652181232857 12.841261851255773  9.235714403035331 13.809515683669265  C 9.172563992274801 14.761896238768012  9.038349725771836 15.730158822653127  8.833111596559522 16.714285222802577  C 8.627872996840935 17.682538936952938  8.327921955157159 18.61904698344729  7.933232593663256 19.523808475312162  C 7.55433107011262 20.428570026308602  7.041237393853786 21.253968561230543  6.393946859824034 22  C 6.315009081626507 21.873015910218417  6.196617000024638 21.73809068778052  6.038740973123312 21.595233557210456  C 5.88086541672826 21.452376544903522  5.715067946238413 21.317451204202495  5.541404551900093 21.190467114420912  C 5.367741157561771 21.06348302463933  5.217765401466748 20.9603119848028  5.09146505045196 20.88094695825509  C 5.896631140876764 19.960312366470177  6.480772205158528 18.936510341874197  6.843886361272167 17.809526692891552  C 7.207000517385805 16.682543043908908  7.435964395849416 15.53967783919242  7.530690011990211 14.380947990369684  C 7.641202995568002 13.206345337284727  7.696428669196108 12.111111436036076  7.696428669196108 11.095238717783403  Z M 12.361682790488862 8.833336200318303  C 12.361682790488862 8.833336200318303  12.361682790488862 8.547627615808418  12.361682790488862 8.547627615808418  C 12.361682790488862 8.547627615808418  13.900968524328082 8.547627615808418  13.900968524328082 8.547627615808418  C 13.900968524328082 8.547627615808418  13.900968524328082 8.634921416515347  13.900968524328082 8.809524628662373  C 13.900968524328082 8.984127840809398  13.893027319476154 9.126991594114745  13.877239952039158 9.23810264310785  C 13.861452584602162 11.063498312836684  13.829929605418041 12.531738856774833  13.782566562094509 13.642849819758387  C 13.750991827220517 14.738087268900943  13.695705458283372 15.5714243938219  13.616767680085848 16.142852916102157  C 13.553617269325317 16.698408161067675  13.443105697266342 17.07936835404214  13.285230140871288 17.285717529502996  C 13.127353643463692 17.49206658670072  12.953675663430953 17.642853851456003  12.764225372161906 17.738091977923755  C 12.574774139880319 17.83332998612838  12.337989976676576 17.896823450176733  12.053813598760463 17.928569413490564  C 11.817000264167884 17.944442454279045  11.501226567076744 17.960319516013946  11.106537676089111 17.976192556802427  C 10.727635682032204 17.976192556802427  10.332935028387782 17.960315495067526  9.922457828950611 17.928569413490564  C 9.890883094076617 17.690474274715875  9.835657420448511 17.428562242444407  9.756719171744713 17.142848099567406  C 9.693569231490454 16.857133838427277  9.60669965856643 16.619052654701935  9.496186674988639 16.42857663829269  C 9.90666340391954 16.46032271986965  10.27772252893528 16.48412317479136  10.609261479668653 16.499996215579838  C 10.956588268345296 16.499996215579838  11.201253411598202 16.499996215579838  11.343341600556258 16.499996215579838  C 11.643305345909368 16.499996215579838  11.848567470941534 16.420625808059715  11.959079984013053 16.26189563670117  C 12.038017762210579 16.119038506131105  12.101184170184343 15.801586914885638  12.148547213507875 15.309523596547784  C 12.211697624268407 14.817460278209927  12.259042788353618 14.055554793415384  12.290617523227612 13.023809507426751  C 12.32219319911415 11.97619070759712  12.345895423051864 10.579367375683518  12.361682790488862 8.833336200318303  Z M 14.966586184430245 5.595234933363242  C 14.88764840623272 3.7857115948441065  14.840303242147506 1.920633914459719  14.82451587471051 0  C 14.82451587471051 0  16.529600490558394 0  16.529600490558394 0  C 16.5138131231214 1.8730145555680175  16.53745512225635 3.6666754969803765  16.60060553301688 5.380961063821149  C 16.679543311214406 7.079372880294662  16.782173903224216 8.674600588855778  16.908474724745275 10.166663111605303  C 17.050562913703335 11.658726107407347  17.216360854699452 13.00793339179689  17.405811145968496 14.214282126458807  C 17.611049745687083 15.404757820332243  17.839952928841658 16.436498375795676  18.092554571883777 17.30951396347828  C 18.345155273913353 18.16665651037241  18.621404562165683 18.825390630106817  18.92136830751879 19.285707896433493  C 19.2371194203089 19.74602516276017  19.560773156436664 19.976182923732924  19.892312577676307 19.976182923732924  C 20.129125912268886 19.976182923732924  20.302803892301625 19.666669804223343  20.41331734638569 19.04762245523547  C 20.53961816790675 18.42857504711603  20.62642751602801 17.436512126572342  20.673789618339 16.07143333881501  C 20.847453483183592 16.24603655096203  21.06059564725238 16.4206395265828  21.313196349281956 16.595242502203565  C 21.56579705131153 16.76984571435059  21.794761400281416 16.896817268240387  22 16.97618223565653  C 21.921062221802472 18.16665792952997  21.794728464842404 19.1111046251549  21.621065541010353 19.80951705982205  C 21.4631899846153 20.492056453700716  21.22640582141156 20.976187686511707  20.91065376760891 21.261901829388705  C 20.610690022255802 21.547615972265703  20.200166713204016 21.690464706153538  19.679177000695322 21.690464706153538  C 19.06346214255211 21.690464706153538  18.51878526230639 21.420629221563697  18.04515765210869 20.88094695825509  C 17.57153098292353 20.357137617471842  17.15318691862534 19.61110954920159  16.790072762511702 18.642856012445925  C 16.442745973835063 17.65872943490178  16.142795402657555 16.50000212873634  15.890193759615437 15.166669304292839  C 15.653380425022856 13.833336479849338  15.455999280039858 12.357142267363091  15.298123723644803 10.738095418305722  C 15.156035534686747 9.119048569248353  15.045523962627772 7.404757798829857  14.966586184430245 5.595234933363242  Z M 18.56616242081807 2.3571488040888253  C 18.02938439985984 1.8174668364380486  17.508409743551837 1.3492129610197843  17.003208339492687 0.9523871778340319  C 17.003208339492687 0.9523871778340319  18.18728818663119 0.1428542922549433  18.18728818663119 0.1428542922549433  C 18.708278840152424 0.5396791293356554  19.237133535497044 0.9920715537521838  19.773910615442734 1.5000079128785195  C 20.32647600383796 2.0079442720048553  20.752760331975537 2.4523827913470266  21.052724077328648 2.833334824165518  C 21.052724077328648 2.833334824165518  19.773910615442734 3.738098858687687  19.773910615442734 3.738098858687687  C 19.50552160496362 3.3412730755019346  19.10293950076376 2.8809579674773813  18.56616242081807 2.3571488040888253  Z M 16.529600490558394 15.452377888802726  C 17.87154460194143 13.30952140330428  18.87402878950884 10.817464170142026  19.537106690975587 7.9761953091079985  C 19.537106690975587 7.9761953091079985  21.17112603956222 8.285715465273817  21.17112603956222 8.285715465273817  C 20.413322051448407 11.33333314697931  19.33184927100614 13.992055061421139  17.926755689875115 16.26189563670117  C 16.521662108744096 18.53173597545494  14.761357935849636 20.38889026265252  12.645823409928333 21.833334136089125  C 12.566885631730806 21.72222308709602  12.44849402063521 21.58729780552656  12.290617523227612 21.42856769329958  C 12.132741966832558 21.2698375810726  11.96694402583644 21.111111785449868  11.793281102004391 20.952381673222888  C 11.635405545609338 20.80952460178439  11.493370994366243 20.690476441081394  11.367070172845185 20.595238373745207  C 13.482604698766487 19.293651630878667  15.203444687624899 17.579361096986432  16.529600490558394 15.452377888802726  Z " fill-rule="nonzero" fill="rgba(0, 0, 0, 1)" stroke="none" transform="matrix(1 0 0 1 918 612 )" class="fill" />
    <path d="M 0.28414061943947133 7.500009289031306  L 0.28414061943947133 5.833335512241911  L 6.725484399038592 5.833335512241911  L 6.725484399038592 7.500009289031306  L 0.28414061943947133 7.500009289031306  Z " stroke-width="0" stroke-dasharray="0" stroke="rgba(121, 121, 121, 1)" fill="none" transform="matrix(1 0 0 1 918 612 )" class="stroke" mask="url(#Clip4697)" />
    <path d="M 3 16.26189563670117  L 3 0.3095201561658181  L 4.452058319509003 0.3095201561658181  L 4.452058319509003 16.26189563670117  L 3 16.26189563670117  Z " stroke-width="0" stroke-dasharray="0" stroke="rgba(121, 121, 121, 1)" fill="none" transform="matrix(1 0 0 1 918 612 )" class="stroke" mask="url(#Clip4697)" />
    <path d="M 0.5683414636817065 18.714275589733074  C 0.5683414636817065 18.714275589733074  0 16.952385801681245  0 16.952385801681245  C 0.8525288984952012 16.66667177706738  1.8787161333863038 16.301588764090944  3.0785714676784433 15.85714433159227  C 4.294214522287283 15.412700135619856  5.517722324478918 14.960323085410234  6.7491527465247545 14.50000584864934  C 6.7491527465247545 14.50000584864934  7.080690285739314 16.119041344446224  7.080690285739314 16.119041344446224  C 5.943985244581136 16.57935858120712  4.807286320004489 17.031750769097386  3.6705812788463117 17.4761949650698  C 2.5496636051251307 17.920639279305345  1.5155956254379985 18.33332337951989  0.5683414636817065 18.714275589733074  Z " stroke-width="0" stroke-dasharray="0" stroke="rgba(121, 121, 121, 1)" fill="none" transform="matrix(1 0 0 1 918 612 )" class="stroke" mask="url(#Clip4697)" />
    <path d="M 8.383172095111389 5.333337920509287  L 8.383172095111389 4  L 21.59739719352419 4  L 21.59739719352419 5.333337920509287  L 8.383172095111389 5.333337920509287  Z " stroke-width="0" stroke-dasharray="0" stroke="rgba(121, 121, 121, 1)" fill="none" transform="matrix(1 0 0 1 918 612 )" class="stroke" mask="url(#Clip4697)" />
    <path d="M 8.691041286839786 10.04762039100629  L 8.691041286839786 8.547627615808418  L 13.048426216404142 8.547627615808418  L 13.048426216404142 10.04762039100629  L 8.691041286839786 10.04762039100629  Z " stroke-width="0" stroke-dasharray="0" stroke="rgba(121, 121, 121, 1)" fill="none" transform="matrix(1 0 0 1 918 612 )" class="stroke" mask="url(#Clip4697)" />
    <path d="M 7.696428669196108 11.095238717783403  C 7.696428669196108 11.095238717783403  7.696428669196108 3.666664143719893  7.696428669196108 3.666664143719893  L 9.354116365268904 3.666664143719893  C 9.354116365268904 3.666664143719893  9.354116365268904 11.095238717783403  9.354116365268904 11.095238717783403  C 9.354116365268904 11.93650822388905  9.314652181232857 12.841261851255773  9.235714403035331 13.809515683669265  C 9.172563992274801 14.761896238768012  9.038349725771836 15.730158822653127  8.833111596559522 16.714285222802577  C 8.627872996840935 17.682538936952938  8.327921955157159 18.61904698344729  7.933232593663256 19.523808475312162  C 7.55433107011262 20.428570026308602  7.041237393853786 21.253968561230543  6.393946859824034 22  C 6.315009081626507 21.873015910218417  6.196617000024638 21.73809068778052  6.038740973123312 21.595233557210456  C 5.88086541672826 21.452376544903522  5.715067946238413 21.317451204202495  5.541404551900093 21.190467114420912  C 5.367741157561771 21.06348302463933  5.217765401466748 20.9603119848028  5.09146505045196 20.88094695825509  C 5.896631140876764 19.960312366470177  6.480772205158528 18.936510341874197  6.843886361272167 17.809526692891552  C 7.207000517385805 16.682543043908908  7.435964395849416 15.53967783919242  7.530690011990211 14.380947990369684  C 7.641202995568002 13.206345337284727  7.696428669196108 12.111111436036076  7.696428669196108 11.095238717783403  Z " stroke-width="0" stroke-dasharray="0" stroke="rgba(121, 121, 121, 1)" fill="none" transform="matrix(1 0 0 1 918 612 )" class="stroke" mask="url(#Clip4697)" />
    <path d="M 12.361682790488862 8.833336200318303  C 12.361682790488862 8.833336200318303  12.361682790488862 8.547627615808418  12.361682790488862 8.547627615808418  C 12.361682790488862 8.547627615808418  13.900968524328082 8.547627615808418  13.900968524328082 8.547627615808418  C 13.900968524328082 8.547627615808418  13.900968524328082 8.634921416515347  13.900968524328082 8.809524628662373  C 13.900968524328082 8.984127840809398  13.893027319476154 9.126991594114745  13.877239952039158 9.23810264310785  C 13.861452584602162 11.063498312836684  13.829929605418041 12.531738856774833  13.782566562094509 13.642849819758387  C 13.750991827220517 14.738087268900943  13.695705458283372 15.5714243938219  13.616767680085848 16.142852916102157  C 13.553617269325317 16.698408161067675  13.443105697266342 17.07936835404214  13.285230140871288 17.285717529502996  C 13.127353643463692 17.49206658670072  12.953675663430953 17.642853851456003  12.764225372161906 17.738091977923755  C 12.574774139880319 17.83332998612838  12.337989976676576 17.896823450176733  12.053813598760463 17.928569413490564  C 11.817000264167884 17.944442454279045  11.501226567076744 17.960319516013946  11.106537676089111 17.976192556802427  C 10.727635682032204 17.976192556802427  10.332935028387782 17.960315495067526  9.922457828950611 17.928569413490564  C 9.890883094076617 17.690474274715875  9.835657420448511 17.428562242444407  9.756719171744713 17.142848099567406  C 9.693569231490454 16.857133838427277  9.60669965856643 16.619052654701935  9.496186674988639 16.42857663829269  C 9.90666340391954 16.46032271986965  10.27772252893528 16.48412317479136  10.609261479668653 16.499996215579838  C 10.956588268345296 16.499996215579838  11.201253411598202 16.499996215579838  11.343341600556258 16.499996215579838  C 11.643305345909368 16.499996215579838  11.848567470941534 16.420625808059715  11.959079984013053 16.26189563670117  C 12.038017762210579 16.119038506131105  12.101184170184343 15.801586914885638  12.148547213507875 15.309523596547784  C 12.211697624268407 14.817460278209927  12.259042788353618 14.055554793415384  12.290617523227612 13.023809507426751  C 12.32219319911415 11.97619070759712  12.345895423051864 10.579367375683518  12.361682790488862 8.833336200318303  Z " stroke-width="0" stroke-dasharray="0" stroke="rgba(121, 121, 121, 1)" fill="none" transform="matrix(1 0 0 1 918 612 )" class="stroke" mask="url(#Clip4697)" />
    <path d="M 14.966586184430245 5.595234933363242  C 14.88764840623272 3.7857115948441065  14.840303242147506 1.920633914459719  14.82451587471051 0  C 14.82451587471051 0  16.529600490558394 0  16.529600490558394 0  C 16.5138131231214 1.8730145555680175  16.53745512225635 3.6666754969803765  16.60060553301688 5.380961063821149  C 16.679543311214406 7.079372880294662  16.782173903224216 8.674600588855778  16.908474724745275 10.166663111605303  C 17.050562913703335 11.658726107407347  17.216360854699452 13.00793339179689  17.405811145968496 14.214282126458807  C 17.611049745687083 15.404757820332243  17.839952928841658 16.436498375795676  18.092554571883777 17.30951396347828  C 18.345155273913353 18.16665651037241  18.621404562165683 18.825390630106817  18.92136830751879 19.285707896433493  C 19.2371194203089 19.74602516276017  19.560773156436664 19.976182923732924  19.892312577676307 19.976182923732924  C 20.129125912268886 19.976182923732924  20.302803892301625 19.666669804223343  20.41331734638569 19.04762245523547  C 20.53961816790675 18.42857504711603  20.62642751602801 17.436512126572342  20.673789618339 16.07143333881501  C 20.847453483183592 16.24603655096203  21.06059564725238 16.4206395265828  21.313196349281956 16.595242502203565  C 21.56579705131153 16.76984571435059  21.794761400281416 16.896817268240387  22 16.97618223565653  C 21.921062221802472 18.16665792952997  21.794728464842404 19.1111046251549  21.621065541010353 19.80951705982205  C 21.4631899846153 20.492056453700716  21.22640582141156 20.976187686511707  20.91065376760891 21.261901829388705  C 20.610690022255802 21.547615972265703  20.200166713204016 21.690464706153538  19.679177000695322 21.690464706153538  C 19.06346214255211 21.690464706153538  18.51878526230639 21.420629221563697  18.04515765210869 20.88094695825509  C 17.57153098292353 20.357137617471842  17.15318691862534 19.61110954920159  16.790072762511702 18.642856012445925  C 16.442745973835063 17.65872943490178  16.142795402657555 16.50000212873634  15.890193759615437 15.166669304292839  C 15.653380425022856 13.833336479849338  15.455999280039858 12.357142267363091  15.298123723644803 10.738095418305722  C 15.156035534686747 9.119048569248353  15.045523962627772 7.404757798829857  14.966586184430245 5.595234933363242  Z " stroke-width="0" stroke-dasharray="0" stroke="rgba(121, 121, 121, 1)" fill="none" transform="matrix(1 0 0 1 918 612 )" class="stroke" mask="url(#Clip4697)" />
    <path d="M 18.56616242081807 2.3571488040888253  C 18.02938439985984 1.8174668364380486  17.508409743551837 1.3492129610197843  17.003208339492687 0.9523871778340319  C 17.003208339492687 0.9523871778340319  18.18728818663119 0.1428542922549433  18.18728818663119 0.1428542922549433  C 18.708278840152424 0.5396791293356554  19.237133535497044 0.9920715537521838  19.773910615442734 1.5000079128785195  C 20.32647600383796 2.0079442720048553  20.752760331975537 2.4523827913470266  21.052724077328648 2.833334824165518  C 21.052724077328648 2.833334824165518  19.773910615442734 3.738098858687687  19.773910615442734 3.738098858687687  C 19.50552160496362 3.3412730755019346  19.10293950076376 2.8809579674773813  18.56616242081807 2.3571488040888253  Z " stroke-width="0" stroke-dasharray="0" stroke="rgba(121, 121, 121, 1)" fill="none" transform="matrix(1 0 0 1 918 612 )" class="stroke" mask="url(#Clip4697)" />
    <path d="M 16.529600490558394 15.452377888802726  C 17.87154460194143 13.30952140330428  18.87402878950884 10.817464170142026  19.537106690975587 7.9761953091079985  C 19.537106690975587 7.9761953091079985  21.17112603956222 8.285715465273817  21.17112603956222 8.285715465273817  C 20.413322051448407 11.33333314697931  19.33184927100614 13.992055061421139  17.926755689875115 16.26189563670117  C 16.521662108744096 18.53173597545494  14.761357935849636 20.38889026265252  12.645823409928333 21.833334136089125  C 12.566885631730806 21.72222308709602  12.44849402063521 21.58729780552656  12.290617523227612 21.42856769329958  C 12.132741966832558 21.2698375810726  11.96694402583644 21.111111785449868  11.793281102004391 20.952381673222888  C 11.635405545609338 20.80952460178439  11.493370994366243 20.690476441081394  11.367070172845185 20.595238373745207  C 13.482604698766487 19.293651630878667  15.203444687624899 17.579361096986432  16.529600490558394 15.452377888802726  Z " stroke-width="0" stroke-dasharray="0" stroke="rgba(121, 121, 121, 1)" fill="none" transform="matrix(1 0 0 1 918 612 )" class="stroke" mask="url(#Clip4697)" />
  </g>
</svg>