<?xml version="1.0" encoding="utf-8"?>
<svg version="1.1" xmlns:xlink="http://www.w3.org/1999/xlink" width="10px" height="12px" xmlns="http://www.w3.org/2000/svg">
  <defs>
    <pattern id="BGPattern" patternUnits="userSpaceOnUse" alignment="0 0" imageRepeat="None" />
    <mask fill="white" id="Clip4750">
      <path d="M 8.164723411512329 0  L 10 0  L 5.741174569836013 12  L 4.235308901275458 12  L 0 0  L 1.8352765884876718 0  L 4.98822677593176 9.634146971825253  L 8.164723411512329 0  Z " fill-rule="evenodd" />
    </mask>
  </defs>
  <g transform="matrix(1 0 0 1 -447 -527 )">
    <path d="M 8.164723411512329 0  L 10 0  L 5.741174569836013 12  L 4.235308901275458 12  L 0 0  L 1.8352765884876718 0  L 4.98822677593176 9.634146971825253  L 8.164723411512329 0  Z " fill-rule="nonzero" fill="rgba(0, 0, 0, 1)" stroke="none" transform="matrix(1 0 0 1 447 527 )" class="fill" />
    <path d="M 8.164723411512329 0  L 10 0  L 5.741174569836013 12  L 4.235308901275458 12  L 0 0  L 1.8352765884876718 0  L 4.98822677593176 9.634146971825253  L 8.164723411512329 0  Z " stroke-width="0" stroke-dasharray="0" stroke="rgba(121, 121, 121, 1)" fill="none" transform="matrix(1 0 0 1 447 527 )" class="stroke" mask="url(#Clip4750)" />
  </g>
</svg>