<?xml version="1.0" encoding="utf-8"?>
<svg version="1.1" xmlns:xlink="http://www.w3.org/1999/xlink" width="11px" height="16px" xmlns="http://www.w3.org/2000/svg">
  <defs>
    <pattern id="BGPattern" patternUnits="userSpaceOnUse" alignment="0 0" imageRepeat="None" />
    <mask fill="white" id="Clip4658">
      <path d="M 5.941295354228537 0  C 9.105677880465175 0  11 2.2696629719702925  11 4.988763702903428  C 11 7.707864433836563  9.105677880465175 9.977528379937892  5.941295354228537 9.977528379937892  C 5.941295354228537 9.977528379937892  2.992177192991981 9.977528379937892  2.992177192991981 9.977528379937892  L 2.992177192991981 16  L 0 16  L 0 0  C 0 0  5.941295354228537 0  5.941295354228537 0  Z M 5.790611138558763 7.168539707559774  C 7.146774911741472 7.168539707559774  8.00783027216609 6.29213447026602  8.00783027216609 4.988763702903428  C 8.00783027216609 3.685392326708938  7.146774911741472 2.786517417615151  5.790611138558763 2.786517417615151  C 5.790611138558763 2.786517417615151  2.992177192991981 2.786517417615151  2.992177192991981 2.786517417615151  L 2.992177192991981 7.168539707559774  C 2.992177192991981 7.168539707559774  5.790611138558763 7.168539707559774  5.790611138558763 7.168539707559774  Z " fill-rule="evenodd" />
    </mask>
  </defs>
  <g transform="matrix(1 0 0 1 -139 -74 )">
    <path d="M 5.941295354228537 0  C 9.105677880465175 0  11 2.2696629719702925  11 4.988763702903428  C 11 7.707864433836563  9.105677880465175 9.977528379937892  5.941295354228537 9.977528379937892  C 5.941295354228537 9.977528379937892  2.992177192991981 9.977528379937892  2.992177192991981 9.977528379937892  L 2.992177192991981 16  L 0 16  L 0 0  C 0 0  5.941295354228537 0  5.941295354228537 0  Z M 5.790611138558763 7.168539707559774  C 7.146774911741472 7.168539707559774  8.00783027216609 6.29213447026602  8.00783027216609 4.988763702903428  C 8.00783027216609 3.685392326708938  7.146774911741472 2.786517417615151  5.790611138558763 2.786517417615151  C 5.790611138558763 2.786517417615151  2.992177192991981 2.786517417615151  2.992177192991981 2.786517417615151  L 2.992177192991981 7.168539707559774  C 2.992177192991981 7.168539707559774  5.790611138558763 7.168539707559774  5.790611138558763 7.168539707559774  Z " fill-rule="nonzero" fill="rgba(142, 108, 135, 1)" stroke="none" transform="matrix(1 0 0 1 139 74 )" class="fill" />
    <path d="M 5.941295354228537 0  C 9.105677880465175 0  11 2.2696629719702925  11 4.988763702903428  C 11 7.707864433836563  9.105677880465175 9.977528379937892  5.941295354228537 9.977528379937892  C 5.941295354228537 9.977528379937892  2.992177192991981 9.977528379937892  2.992177192991981 9.977528379937892  L 2.992177192991981 16  L 0 16  L 0 0  C 0 0  5.941295354228537 0  5.941295354228537 0  Z " stroke-width="0" stroke-dasharray="0" stroke="rgba(121, 121, 121, 1)" fill="none" transform="matrix(1 0 0 1 139 74 )" class="stroke" mask="url(#Clip4658)" />
    <path d="M 5.790611138558763 7.168539707559774  C 7.146774911741472 7.168539707559774  8.00783027216609 6.29213447026602  8.00783027216609 4.988763702903428  C 8.00783027216609 3.685392326708938  7.146774911741472 2.786517417615151  5.790611138558763 2.786517417615151  C 5.790611138558763 2.786517417615151  2.992177192991981 2.786517417615151  2.992177192991981 2.786517417615151  L 2.992177192991981 7.168539707559774  C 2.992177192991981 7.168539707559774  5.790611138558763 7.168539707559774  5.790611138558763 7.168539707559774  Z " stroke-width="0" stroke-dasharray="0" stroke="rgba(121, 121, 121, 1)" fill="none" transform="matrix(1 0 0 1 139 74 )" class="stroke" mask="url(#Clip4658)" />
  </g>
</svg>