<?xml version="1.0" encoding="utf-8"?>
<svg version="1.1" xmlns:xlink="http://www.w3.org/1999/xlink" width="22px" height="22px" xmlns="http://www.w3.org/2000/svg">
  <defs>
    <pattern id="BGPattern" patternUnits="userSpaceOnUse" alignment="0 0" imageRepeat="None" />
    <mask fill="white" id="Clip4690">
      <path d="M 3.1086905292546483 9.231929055687582  L 3.1086905292546483 8  L 22 8  L 22 9.231929055687582  L 3.1086905292546483 9.231929055687582  Z M 1.8652112768523221 3.3937498499703374  L 1.8652112768523221 2  L 20.804335762438367 2  L 20.804335762438367 3.3937498499703374  L 1.8652112768523221 3.3937498499703374  Z M 7.4369452017401105 13  L 7.4369452017401105 11.676373500132026  L 20.44563953187034 11.676373500132026  L 20.44563953187034 13  L 7.4369452017401105 13  Z M 6.910858410473831 17  L 6.910858410473831 15.5210339872912  L 19.87173772576337 15.5210339872912  L 19.87173772576337 17  L 6.910858410473831 17  Z M 4.758696230568024 21  L 4.758696230568024 19.816620200336754  L 21.80869433013023 19.816620200336754  L 21.80869433013023 21  L 4.758696230568024 21  Z M 10.258684827941273 2.966558645309301  L 10.258684827941273 0  L 12.052165980781393 0  L 12.052165980781393 2.966558645309301  L 10.258684827941273 2.966558645309301  Z M 12 20.43365739740543  L 12 9.754043256552439  L 14 9.754043256552439  L 14 20.43365739740543  L 12 20.43365739740543  Z M 2.199992398248833 11.581450503928204  C 2.199992398248833 11.581450503928204  2.199992398248833 7.760524537994369  2.199992398248833 7.760524537994369  L 3.9456433327459255 7.760524537994369  C 3.9456433327459255 7.760524537994369  3.9456433327459255 11.605185025153544  3.9456433327459255 11.605185025153544  C 3.9456433327459255 12.34880272042358  3.9137663394458326 13.171515132420467  3.849998099562208 14.07334890212579  C 3.7862300972333083 14.959360993659319  3.6586912419188202 15.86911538652785  3.4673867598226717 16.802592512576773  C 3.2920245752521535 17.736069756506144  3.036946627068454 18.65372166796978  2.702164080343599 19.555555555555554  C 2.3833233560349263 20.44156776496953  1.9528986643377666 21.256382540490865  1.4108698131005815 22  C 1.3311596320234134 21.88924837067786  1.2036207767089255 21.75475974464094  1.0282584733610451 21.596543316564304  C 0.8528961700131649 21.45414850771924  0.6695609362420397 21.311762009445868  0.4782565729232534 21.169367200600803  C 0.3028942695753731 21.042794010987315  0.14347824279474924 20.947854629401014  0 20.88456803459427  C 0.6536232116448462 19.951090908545346  1.1318863767116898 18.938514586312493  1.4347849222720943 17.846820914306488  C 1.7536254090260428 16.739305682009128  1.960864705674016 15.647615664297055  2.0565169467220903 14.571743670462846  C 2.1521690689928024 13.480050234217737  2.199992398248833 12.48328450939443  2.199992398248833 11.581450503928204  Z M 6.408686728379064 12.29342578589824  C 6.9347735196453435 11.45487849311921  7.365213652399562 10.58468878704018  7.699996199124416 9.682854781573957  C 7.699996199124416 9.682854781573957  9.278256572923253 10.062561855086777  9.278256572923253 10.062561855086777  C 8.911589906256587 11.07514737199469  8.441299493446945 12.048189656354914  7.867386759822671 12.981666546642934  C 7.293473551088951 13.915143908452755  6.687671471318938 14.706219801172116  6.0499904978110415 15.354907427411362  C 5.954338137985605 15.25997735838057  5.818841674527569 15.157140340318714  5.643479252402326 15.046388828877024  C 5.468116830277084 14.919815639263536  5.292754645706565 14.801152699333697  5.117392461136047 14.690401187892006  C 4.957972336536435 14.579649676450314  4.806514096065403 14.4847252656811  4.663035793881972 14.405617110583005  C 5.300717004944594 13.820215961270057  5.882599937112786 13.116151164744572  6.408686728379064 12.29342578589824  Z M 8.441303769431977 5.0312809275433885  C 7.4050720093156 4.730669749561913  6.400722468703245 4.469620193478254  5.428258473361045 4.248117170594872  C 5.428258473361045 4.248117170594872  6.57607728907732 3.2988117650689794  6.57607728907732 3.2988117650689794  C 7.516657164477708 3.520314787952361  8.50506060668885 3.7813794327335573  9.541292366805225 4.0819906107150326  C 10.577524126921602 4.382602731740104  11.59782024104462 4.699026864740114  12.60216788121918 5.0312809275433885  C 13.622457818919376 5.363535933390259  14.586957554585755 5.695786224019148  15.495652834934884 6.028040286822423  C 16.404349065502906 6.344473850258393  17.19347070043226 6.645087857370657  17.863035793881973 6.929876649897637  C 17.863035793881973 6.929876649897637  16.73913208733721 7.950385619099547  16.73913208733721 7.950385619099547  C 16.085508816303683 7.665595883528972  15.312317601163759 7.357069740645865  14.419564143230813 7.024814734798994  C 13.526810685297868 6.67673922958482  12.570284236386819 6.336575860141491  11.549994298686626 6.004320854294621  C 10.52970436098643 5.656244406036851  9.493477827073983 5.331892105524864  8.441303769431977 5.0312809275433885  Z M 13.558696230568023 4.176913606918854  C 14.451449688500968 3.7813728314283854  15.184775420083136 3.3700087274398256  15.758688628816856 2.9428241240839617  C 15.758688628816856 2.9428241240839617  17.04999809956221 3.6310648848286577  17.04999809956221 3.6310648848286577  C 16.348548411061238 4.121536200871715  15.527534579329457 4.588274881776625  14.58695470392907 5.0312809275433885  C 13.64637482852868 5.458465530899252  12.634051526051547 5.854003477258932  11.549994298686626 6.217901367927602  C 10.481877943518988 6.581799258596271  9.389855031149903 6.906151559108259  8.27391320873372 7.190941294678835  C 7.173913208733722 7.475731030249409  6.097820953708791 7.7130573816308825  5.045647133621509 7.9029165766488685  C 4.981878893737885 7.744700266452681  4.878259423579941 7.554836356216716  4.7347811213965105 7.333333333333333  C 4.591303056767805 7.0960088680390525  4.463763963898593 6.906144957803085  4.352169781656975 6.763750090017798  C 5.340575599415356 6.5897123374107105  6.376802608437253 6.376125222472558  7.460860310911623 6.122978371723781  C 8.560860310911623 5.854010078564104  9.628979516735946 5.561309150266281  10.665211276852322 5.244876529873906  C 11.717385334494328 4.912621524027037  12.681884595051262 4.556632939998423  13.558696230568023 4.176913606918854  Z " fill-rule="evenodd" />
    </mask>
  </defs>
  <g transform="matrix(1 0 0 1 -285 -643 )">
    <path d="M 3.1086905292546483 9.231929055687582  L 3.1086905292546483 8  L 22 8  L 22 9.231929055687582  L 3.1086905292546483 9.231929055687582  Z M 1.8652112768523221 3.3937498499703374  L 1.8652112768523221 2  L 20.804335762438367 2  L 20.804335762438367 3.3937498499703374  L 1.8652112768523221 3.3937498499703374  Z M 7.4369452017401105 13  L 7.4369452017401105 11.676373500132026  L 20.44563953187034 11.676373500132026  L 20.44563953187034 13  L 7.4369452017401105 13  Z M 6.910858410473831 17  L 6.910858410473831 15.5210339872912  L 19.87173772576337 15.5210339872912  L 19.87173772576337 17  L 6.910858410473831 17  Z M 4.758696230568024 21  L 4.758696230568024 19.816620200336754  L 21.80869433013023 19.816620200336754  L 21.80869433013023 21  L 4.758696230568024 21  Z M 10.258684827941273 2.966558645309301  L 10.258684827941273 0  L 12.052165980781393 0  L 12.052165980781393 2.966558645309301  L 10.258684827941273 2.966558645309301  Z M 12 20.43365739740543  L 12 9.754043256552439  L 14 9.754043256552439  L 14 20.43365739740543  L 12 20.43365739740543  Z M 2.199992398248833 11.581450503928204  C 2.199992398248833 11.581450503928204  2.199992398248833 7.760524537994369  2.199992398248833 7.760524537994369  L 3.9456433327459255 7.760524537994369  C 3.9456433327459255 7.760524537994369  3.9456433327459255 11.605185025153544  3.9456433327459255 11.605185025153544  C 3.9456433327459255 12.34880272042358  3.9137663394458326 13.171515132420467  3.849998099562208 14.07334890212579  C 3.7862300972333083 14.959360993659319  3.6586912419188202 15.86911538652785  3.4673867598226717 16.802592512576773  C 3.2920245752521535 17.736069756506144  3.036946627068454 18.65372166796978  2.702164080343599 19.555555555555554  C 2.3833233560349263 20.44156776496953  1.9528986643377666 21.256382540490865  1.4108698131005815 22  C 1.3311596320234134 21.88924837067786  1.2036207767089255 21.75475974464094  1.0282584733610451 21.596543316564304  C 0.8528961700131649 21.45414850771924  0.6695609362420397 21.311762009445868  0.4782565729232534 21.169367200600803  C 0.3028942695753731 21.042794010987315  0.14347824279474924 20.947854629401014  0 20.88456803459427  C 0.6536232116448462 19.951090908545346  1.1318863767116898 18.938514586312493  1.4347849222720943 17.846820914306488  C 1.7536254090260428 16.739305682009128  1.960864705674016 15.647615664297055  2.0565169467220903 14.571743670462846  C 2.1521690689928024 13.480050234217737  2.199992398248833 12.48328450939443  2.199992398248833 11.581450503928204  Z M 6.408686728379064 12.29342578589824  C 6.9347735196453435 11.45487849311921  7.365213652399562 10.58468878704018  7.699996199124416 9.682854781573957  C 7.699996199124416 9.682854781573957  9.278256572923253 10.062561855086777  9.278256572923253 10.062561855086777  C 8.911589906256587 11.07514737199469  8.441299493446945 12.048189656354914  7.867386759822671 12.981666546642934  C 7.293473551088951 13.915143908452755  6.687671471318938 14.706219801172116  6.0499904978110415 15.354907427411362  C 5.954338137985605 15.25997735838057  5.818841674527569 15.157140340318714  5.643479252402326 15.046388828877024  C 5.468116830277084 14.919815639263536  5.292754645706565 14.801152699333697  5.117392461136047 14.690401187892006  C 4.957972336536435 14.579649676450314  4.806514096065403 14.4847252656811  4.663035793881972 14.405617110583005  C 5.300717004944594 13.820215961270057  5.882599937112786 13.116151164744572  6.408686728379064 12.29342578589824  Z M 8.441303769431977 5.0312809275433885  C 7.4050720093156 4.730669749561913  6.400722468703245 4.469620193478254  5.428258473361045 4.248117170594872  C 5.428258473361045 4.248117170594872  6.57607728907732 3.2988117650689794  6.57607728907732 3.2988117650689794  C 7.516657164477708 3.520314787952361  8.50506060668885 3.7813794327335573  9.541292366805225 4.0819906107150326  C 10.577524126921602 4.382602731740104  11.59782024104462 4.699026864740114  12.60216788121918 5.0312809275433885  C 13.622457818919376 5.363535933390259  14.586957554585755 5.695786224019148  15.495652834934884 6.028040286822423  C 16.404349065502906 6.344473850258393  17.19347070043226 6.645087857370657  17.863035793881973 6.929876649897637  C 17.863035793881973 6.929876649897637  16.73913208733721 7.950385619099547  16.73913208733721 7.950385619099547  C 16.085508816303683 7.665595883528972  15.312317601163759 7.357069740645865  14.419564143230813 7.024814734798994  C 13.526810685297868 6.67673922958482  12.570284236386819 6.336575860141491  11.549994298686626 6.004320854294621  C 10.52970436098643 5.656244406036851  9.493477827073983 5.331892105524864  8.441303769431977 5.0312809275433885  Z M 13.558696230568023 4.176913606918854  C 14.451449688500968 3.7813728314283854  15.184775420083136 3.3700087274398256  15.758688628816856 2.9428241240839617  C 15.758688628816856 2.9428241240839617  17.04999809956221 3.6310648848286577  17.04999809956221 3.6310648848286577  C 16.348548411061238 4.121536200871715  15.527534579329457 4.588274881776625  14.58695470392907 5.0312809275433885  C 13.64637482852868 5.458465530899252  12.634051526051547 5.854003477258932  11.549994298686626 6.217901367927602  C 10.481877943518988 6.581799258596271  9.389855031149903 6.906151559108259  8.27391320873372 7.190941294678835  C 7.173913208733722 7.475731030249409  6.097820953708791 7.7130573816308825  5.045647133621509 7.9029165766488685  C 4.981878893737885 7.744700266452681  4.878259423579941 7.554836356216716  4.7347811213965105 7.333333333333333  C 4.591303056767805 7.0960088680390525  4.463763963898593 6.906144957803085  4.352169781656975 6.763750090017798  C 5.340575599415356 6.5897123374107105  6.376802608437253 6.376125222472558  7.460860310911623 6.122978371723781  C 8.560860310911623 5.854010078564104  9.628979516735946 5.561309150266281  10.665211276852322 5.244876529873906  C 11.717385334494328 4.912621524027037  12.681884595051262 4.556632939998423  13.558696230568023 4.176913606918854  Z " fill-rule="nonzero" fill="rgba(0, 0, 0, 1)" stroke="none" transform="matrix(1 0 0 1 285 643 )" class="fill" />
    <path d="M 3.1086905292546483 9.231929055687582  L 3.1086905292546483 8  L 22 8  L 22 9.231929055687582  L 3.1086905292546483 9.231929055687582  Z " stroke-width="0" stroke-dasharray="0" stroke="rgba(121, 121, 121, 1)" fill="none" transform="matrix(1 0 0 1 285 643 )" class="stroke" mask="url(#Clip4690)" />
    <path d="M 1.8652112768523221 3.3937498499703374  L 1.8652112768523221 2  L 20.804335762438367 2  L 20.804335762438367 3.3937498499703374  L 1.8652112768523221 3.3937498499703374  Z " stroke-width="0" stroke-dasharray="0" stroke="rgba(121, 121, 121, 1)" fill="none" transform="matrix(1 0 0 1 285 643 )" class="stroke" mask="url(#Clip4690)" />
    <path d="M 7.4369452017401105 13  L 7.4369452017401105 11.676373500132026  L 20.44563953187034 11.676373500132026  L 20.44563953187034 13  L 7.4369452017401105 13  Z " stroke-width="0" stroke-dasharray="0" stroke="rgba(121, 121, 121, 1)" fill="none" transform="matrix(1 0 0 1 285 643 )" class="stroke" mask="url(#Clip4690)" />
    <path d="M 6.910858410473831 17  L 6.910858410473831 15.5210339872912  L 19.87173772576337 15.5210339872912  L 19.87173772576337 17  L 6.910858410473831 17  Z " stroke-width="0" stroke-dasharray="0" stroke="rgba(121, 121, 121, 1)" fill="none" transform="matrix(1 0 0 1 285 643 )" class="stroke" mask="url(#Clip4690)" />
    <path d="M 4.758696230568024 21  L 4.758696230568024 19.816620200336754  L 21.80869433013023 19.816620200336754  L 21.80869433013023 21  L 4.758696230568024 21  Z " stroke-width="0" stroke-dasharray="0" stroke="rgba(121, 121, 121, 1)" fill="none" transform="matrix(1 0 0 1 285 643 )" class="stroke" mask="url(#Clip4690)" />
    <path d="M 10.258684827941273 2.966558645309301  L 10.258684827941273 0  L 12.052165980781393 0  L 12.052165980781393 2.966558645309301  L 10.258684827941273 2.966558645309301  Z " stroke-width="0" stroke-dasharray="0" stroke="rgba(121, 121, 121, 1)" fill="none" transform="matrix(1 0 0 1 285 643 )" class="stroke" mask="url(#Clip4690)" />
    <path d="M 12 20.43365739740543  L 12 9.754043256552439  L 14 9.754043256552439  L 14 20.43365739740543  L 12 20.43365739740543  Z " stroke-width="0" stroke-dasharray="0" stroke="rgba(121, 121, 121, 1)" fill="none" transform="matrix(1 0 0 1 285 643 )" class="stroke" mask="url(#Clip4690)" />
    <path d="M 2.199992398248833 11.581450503928204  C 2.199992398248833 11.581450503928204  2.199992398248833 7.760524537994369  2.199992398248833 7.760524537994369  L 3.9456433327459255 7.760524537994369  C 3.9456433327459255 7.760524537994369  3.9456433327459255 11.605185025153544  3.9456433327459255 11.605185025153544  C 3.9456433327459255 12.34880272042358  3.9137663394458326 13.171515132420467  3.849998099562208 14.07334890212579  C 3.7862300972333083 14.959360993659319  3.6586912419188202 15.86911538652785  3.4673867598226717 16.802592512576773  C 3.2920245752521535 17.736069756506144  3.036946627068454 18.65372166796978  2.702164080343599 19.555555555555554  C 2.3833233560349263 20.44156776496953  1.9528986643377666 21.256382540490865  1.4108698131005815 22  C 1.3311596320234134 21.88924837067786  1.2036207767089255 21.75475974464094  1.0282584733610451 21.596543316564304  C 0.8528961700131649 21.45414850771924  0.6695609362420397 21.311762009445868  0.4782565729232534 21.169367200600803  C 0.3028942695753731 21.042794010987315  0.14347824279474924 20.947854629401014  0 20.88456803459427  C 0.6536232116448462 19.951090908545346  1.1318863767116898 18.938514586312493  1.4347849222720943 17.846820914306488  C 1.7536254090260428 16.739305682009128  1.960864705674016 15.647615664297055  2.0565169467220903 14.571743670462846  C 2.1521690689928024 13.480050234217737  2.199992398248833 12.48328450939443  2.199992398248833 11.581450503928204  Z " stroke-width="0" stroke-dasharray="0" stroke="rgba(121, 121, 121, 1)" fill="none" transform="matrix(1 0 0 1 285 643 )" class="stroke" mask="url(#Clip4690)" />
    <path d="M 6.408686728379064 12.29342578589824  C 6.9347735196453435 11.45487849311921  7.365213652399562 10.58468878704018  7.699996199124416 9.682854781573957  C 7.699996199124416 9.682854781573957  9.278256572923253 10.062561855086777  9.278256572923253 10.062561855086777  C 8.911589906256587 11.07514737199469  8.441299493446945 12.048189656354914  7.867386759822671 12.981666546642934  C 7.293473551088951 13.915143908452755  6.687671471318938 14.706219801172116  6.0499904978110415 15.354907427411362  C 5.954338137985605 15.25997735838057  5.818841674527569 15.157140340318714  5.643479252402326 15.046388828877024  C 5.468116830277084 14.919815639263536  5.292754645706565 14.801152699333697  5.117392461136047 14.690401187892006  C 4.957972336536435 14.579649676450314  4.806514096065403 14.4847252656811  4.663035793881972 14.405617110583005  C 5.300717004944594 13.820215961270057  5.882599937112786 13.116151164744572  6.408686728379064 12.29342578589824  Z " stroke-width="0" stroke-dasharray="0" stroke="rgba(121, 121, 121, 1)" fill="none" transform="matrix(1 0 0 1 285 643 )" class="stroke" mask="url(#Clip4690)" />
    <path d="M 8.441303769431977 5.0312809275433885  C 7.4050720093156 4.730669749561913  6.400722468703245 4.469620193478254  5.428258473361045 4.248117170594872  C 5.428258473361045 4.248117170594872  6.57607728907732 3.2988117650689794  6.57607728907732 3.2988117650689794  C 7.516657164477708 3.520314787952361  8.50506060668885 3.7813794327335573  9.541292366805225 4.0819906107150326  C 10.577524126921602 4.382602731740104  11.59782024104462 4.699026864740114  12.60216788121918 5.0312809275433885  C 13.622457818919376 5.363535933390259  14.586957554585755 5.695786224019148  15.495652834934884 6.028040286822423  C 16.404349065502906 6.344473850258393  17.19347070043226 6.645087857370657  17.863035793881973 6.929876649897637  C 17.863035793881973 6.929876649897637  16.73913208733721 7.950385619099547  16.73913208733721 7.950385619099547  C 16.085508816303683 7.665595883528972  15.312317601163759 7.357069740645865  14.419564143230813 7.024814734798994  C 13.526810685297868 6.67673922958482  12.570284236386819 6.336575860141491  11.549994298686626 6.004320854294621  C 10.52970436098643 5.656244406036851  9.493477827073983 5.331892105524864  8.441303769431977 5.0312809275433885  Z " stroke-width="0" stroke-dasharray="0" stroke="rgba(121, 121, 121, 1)" fill="none" transform="matrix(1 0 0 1 285 643 )" class="stroke" mask="url(#Clip4690)" />
    <path d="M 13.558696230568023 4.176913606918854  C 14.451449688500968 3.7813728314283854  15.184775420083136 3.3700087274398256  15.758688628816856 2.9428241240839617  C 15.758688628816856 2.9428241240839617  17.04999809956221 3.6310648848286577  17.04999809956221 3.6310648848286577  C 16.348548411061238 4.121536200871715  15.527534579329457 4.588274881776625  14.58695470392907 5.0312809275433885  C 13.64637482852868 5.458465530899252  12.634051526051547 5.854003477258932  11.549994298686626 6.217901367927602  C 10.481877943518988 6.581799258596271  9.389855031149903 6.906151559108259  8.27391320873372 7.190941294678835  C 7.173913208733722 7.475731030249409  6.097820953708791 7.7130573816308825  5.045647133621509 7.9029165766488685  C 4.981878893737885 7.744700266452681  4.878259423579941 7.554836356216716  4.7347811213965105 7.333333333333333  C 4.591303056767805 7.0960088680390525  4.463763963898593 6.906144957803085  4.352169781656975 6.763750090017798  C 5.340575599415356 6.5897123374107105  6.376802608437253 6.376125222472558  7.460860310911623 6.122978371723781  C 8.560860310911623 5.854010078564104  9.628979516735946 5.561309150266281  10.665211276852322 5.244876529873906  C 11.717385334494328 4.912621524027037  12.681884595051262 4.556632939998423  13.558696230568023 4.176913606918854  Z " stroke-width="0" stroke-dasharray="0" stroke="rgba(121, 121, 121, 1)" fill="none" transform="matrix(1 0 0 1 285 643 )" class="stroke" mask="url(#Clip4690)" />
  </g>
</svg>