<?xml version="1.0" encoding="utf-8"?>
<svg version="1.1" xmlns:xlink="http://www.w3.org/1999/xlink" width="21px" height="20px" xmlns="http://www.w3.org/2000/svg">
  <defs>
    <pattern id="BGPattern" patternUnits="userSpaceOnUse" alignment="0 0" imageRepeat="None" />
    <mask fill="white" id="Clip4728">
      <path d="M 0 2  L 0 0  L 21 0  L 21 2  L 0 2  Z M 9 20  L 9 1.3964501493525547  L 11 1.3964501493525547  L 11 20  L 9 20  Z M 12.373734321282239 8.26036250912292  C 11.58810011367026 7.8027690415102295  10.833890862281311 7.384619978631674  10.111107503664135 7.0059214337845255  C 10.111107503664135 7.0059214337845255  11.289563029551413 5.656812658475475  11.289563029551413 5.656812658475475  C 11.99663391005707 5.988173121054572  12.742985517567158 6.366864612097181  13.528618788630403 6.79290029870511  C 14.314252996242388 7.218935985313038  15.092029559975511 7.660759497242433  15.861951289475975 8.11835343510876  C 16.631872082427705 8.560168012219071  17.34679686061729 8.994085620020014  18.00673030678839 9.420120836374307  C 18.68237529452228 9.846156522982236  19.255887769708195 10.240630666556314  19.727267732346146 10.603549850647445  C 19.727267732346146 10.603549850647445  18.478114015621276 12.213021135079416  18.478114015621276 12.213021135079416  C 18.022446531094843 11.850101950988286  17.46464466092298 11.447736481148471  16.804711214751872 11.005921433784527  C 16.160492119789758 10.548327966171836  15.453424985479035 10.090735909320049  14.683503255978572 9.633141971453723  C 13.929294941138359 9.159769143085015  13.159368528894223 8.702177086233231  12.373734321282239 8.26036250912292  Z " fill-rule="evenodd" />
    </mask>
  </defs>
  <g transform="matrix(1 0 0 1 -213 -614 )">
    <path d="M 0 2  L 0 0  L 21 0  L 21 2  L 0 2  Z M 9 20  L 9 1.3964501493525547  L 11 1.3964501493525547  L 11 20  L 9 20  Z M 12.373734321282239 8.26036250912292  C 11.58810011367026 7.8027690415102295  10.833890862281311 7.384619978631674  10.111107503664135 7.0059214337845255  C 10.111107503664135 7.0059214337845255  11.289563029551413 5.656812658475475  11.289563029551413 5.656812658475475  C 11.99663391005707 5.988173121054572  12.742985517567158 6.366864612097181  13.528618788630403 6.79290029870511  C 14.314252996242388 7.218935985313038  15.092029559975511 7.660759497242433  15.861951289475975 8.11835343510876  C 16.631872082427705 8.560168012219071  17.34679686061729 8.994085620020014  18.00673030678839 9.420120836374307  C 18.68237529452228 9.846156522982236  19.255887769708195 10.240630666556314  19.727267732346146 10.603549850647445  C 19.727267732346146 10.603549850647445  18.478114015621276 12.213021135079416  18.478114015621276 12.213021135079416  C 18.022446531094843 11.850101950988286  17.46464466092298 11.447736481148471  16.804711214751872 11.005921433784527  C 16.160492119789758 10.548327966171836  15.453424985479035 10.090735909320049  14.683503255978572 9.633141971453723  C 13.929294941138359 9.159769143085015  13.159368528894223 8.702177086233231  12.373734321282239 8.26036250912292  Z " fill-rule="nonzero" fill="rgba(0, 0, 0, 1)" stroke="none" transform="matrix(1 0 0 1 213 614 )" class="fill" />
    <path d="M 0 2  L 0 0  L 21 0  L 21 2  L 0 2  Z " stroke-width="0" stroke-dasharray="0" stroke="rgba(121, 121, 121, 1)" fill="none" transform="matrix(1 0 0 1 213 614 )" class="stroke" mask="url(#Clip4728)" />
    <path d="M 9 20  L 9 1.3964501493525547  L 11 1.3964501493525547  L 11 20  L 9 20  Z " stroke-width="0" stroke-dasharray="0" stroke="rgba(121, 121, 121, 1)" fill="none" transform="matrix(1 0 0 1 213 614 )" class="stroke" mask="url(#Clip4728)" />
    <path d="M 12.373734321282239 8.26036250912292  C 11.58810011367026 7.8027690415102295  10.833890862281311 7.384619978631674  10.111107503664135 7.0059214337845255  C 10.111107503664135 7.0059214337845255  11.289563029551413 5.656812658475475  11.289563029551413 5.656812658475475  C 11.99663391005707 5.988173121054572  12.742985517567158 6.366864612097181  13.528618788630403 6.79290029870511  C 14.314252996242388 7.218935985313038  15.092029559975511 7.660759497242433  15.861951289475975 8.11835343510876  C 16.631872082427705 8.560168012219071  17.34679686061729 8.994085620020014  18.00673030678839 9.420120836374307  C 18.68237529452228 9.846156522982236  19.255887769708195 10.240630666556314  19.727267732346146 10.603549850647445  C 19.727267732346146 10.603549850647445  18.478114015621276 12.213021135079416  18.478114015621276 12.213021135079416  C 18.022446531094843 11.850101950988286  17.46464466092298 11.447736481148471  16.804711214751872 11.005921433784527  C 16.160492119789758 10.548327966171836  15.453424985479035 10.090735909320049  14.683503255978572 9.633141971453723  C 13.929294941138359 9.159769143085015  13.159368528894223 8.702177086233231  12.373734321282239 8.26036250912292  Z " stroke-width="0" stroke-dasharray="0" stroke="rgba(121, 121, 121, 1)" fill="none" transform="matrix(1 0 0 1 213 614 )" class="stroke" mask="url(#Clip4728)" />
  </g>
</svg>