<?xml version="1.0" encoding="utf-8"?>
<svg version="1.1" xmlns:xlink="http://www.w3.org/1999/xlink" width="10px" height="10px" xmlns="http://www.w3.org/2000/svg">
  <defs>
    <pattern id="BGPattern" patternUnits="userSpaceOnUse" alignment="0 0" imageRepeat="None" />
    <mask fill="white" id="Clip4716">
      <path d="M 10 4.172658579870831  L 10 5.779375621298888  L 5.813390361057285 5.779375621298888  L 5.813390361057285 10  L 4.210550331732217 10  L 4.210550331732217 5.779375621298888  L 0 5.779375621298888  L 0 4.172658579870831  L 4.210550331732217 4.172658579870831  L 4.210550331732217 0  L 5.813390361057285 0  L 5.813390361057285 4.172658579870831  L 10 4.172658579870831  Z " fill-rule="evenodd" />
    </mask>
  </defs>
  <g transform="matrix(1 0 0 1 -444 -621 )">
    <path d="M 10 4.172658579870831  L 10 5.779375621298888  L 5.813390361057285 5.779375621298888  L 5.813390361057285 10  L 4.210550331732217 10  L 4.210550331732217 5.779375621298888  L 0 5.779375621298888  L 0 4.172658579870831  L 4.210550331732217 4.172658579870831  L 4.210550331732217 0  L 5.813390361057285 0  L 5.813390361057285 4.172658579870831  L 10 4.172658579870831  Z " fill-rule="nonzero" fill="rgba(0, 0, 0, 1)" stroke="none" transform="matrix(1 0 0 1 444 621 )" class="fill" />
    <path d="M 10 4.172658579870831  L 10 5.779375621298888  L 5.813390361057285 5.779375621298888  L 5.813390361057285 10  L 4.210550331732217 10  L 4.210550331732217 5.779375621298888  L 0 5.779375621298888  L 0 4.172658579870831  L 4.210550331732217 4.172658579870831  L 4.210550331732217 0  L 5.813390361057285 0  L 5.813390361057285 4.172658579870831  L 10 4.172658579870831  Z " stroke-width="0" stroke-dasharray="0" stroke="rgba(121, 121, 121, 1)" fill="none" transform="matrix(1 0 0 1 444 621 )" class="stroke" mask="url(#Clip4716)" />
  </g>
</svg>