<?xml version="1.0" encoding="utf-8"?>
<svg version="1.1" xmlns:xlink="http://www.w3.org/1999/xlink" width="10px" height="12px" xmlns="http://www.w3.org/2000/svg">
  <defs>
    <pattern id="BGPattern" patternUnits="userSpaceOnUse" alignment="0 0" imageRepeat="None" />
    <mask fill="white" id="Clip4739">
      <path d="M 10 5.66667192280789  C 10 5.66667192280789  10 6.45238598325898  10 6.45238598325898  C 10 6.45238598325898  1.7821786852633137 6.45238598325898  1.7821786852633137 6.45238598325898  C 1.7821786852633137 9.02381465605599  3.0445542704166053 10.49999905389458  5.371286734309079 10.49999905389458  C 6.782177947582147 10.49999905389458  7.599011812144277 10.095243092326644  8.564358354101516 9.166671607439415  C 8.564358354101516 9.166671607439415  9.77722815612953 10.190478773494164  9.77722815612953 10.190478773494164  C 8.539604233070266 11.380954826935243  7.400990892686669 12  5.321783410121025 12  C 2.1039613577031715 12  0 10.142860814647225  0 6.00000378442168  C 0 2.2142892509178798  1.9059414218204516 0  5.000000983574889 0  C 8.143565098985993 0  10 2.1904816906525415  10 5.66667192280789  Z M 1.7821786852633137 5.166666561543843  C 1.7821786852633137 5.166666561543843  8.217821314736685 5.166666561543843  8.217821314736685 5.166666561543843  C 8.168316269292577 4.2142858607067915  8.118810977954743 3.8571476214594367  7.8465335968527175 3.2142909854444834  C 7.376236771655417 2.1428620761211192  6.287129214397097 1.4523853525220332  5.000000983574889 1.4523853525220332  C 3.712872383912098 1.4523853525220332  2.6237635971851656 2.1428620761211192  2.153466403147282 3.2142909854444834  C 1.881189390885841 3.8571476214594367  1.8316837307074243 4.2142858607067915  1.7821786852633137 5.166666561543843  Z " fill-rule="evenodd" />
    </mask>
  </defs>
  <g transform="matrix(1 0 0 1 -165 -558 )">
    <path d="M 10 5.66667192280789  C 10 5.66667192280789  10 6.45238598325898  10 6.45238598325898  C 10 6.45238598325898  1.7821786852633137 6.45238598325898  1.7821786852633137 6.45238598325898  C 1.7821786852633137 9.02381465605599  3.0445542704166053 10.49999905389458  5.371286734309079 10.49999905389458  C 6.782177947582147 10.49999905389458  7.599011812144277 10.095243092326644  8.564358354101516 9.166671607439415  C 8.564358354101516 9.166671607439415  9.77722815612953 10.190478773494164  9.77722815612953 10.190478773494164  C 8.539604233070266 11.380954826935243  7.400990892686669 12  5.321783410121025 12  C 2.1039613577031715 12  0 10.142860814647225  0 6.00000378442168  C 0 2.2142892509178798  1.9059414218204516 0  5.000000983574889 0  C 8.143565098985993 0  10 2.1904816906525415  10 5.66667192280789  Z M 1.7821786852633137 5.166666561543843  C 1.7821786852633137 5.166666561543843  8.217821314736685 5.166666561543843  8.217821314736685 5.166666561543843  C 8.168316269292577 4.2142858607067915  8.118810977954743 3.8571476214594367  7.8465335968527175 3.2142909854444834  C 7.376236771655417 2.1428620761211192  6.287129214397097 1.4523853525220332  5.000000983574889 1.4523853525220332  C 3.712872383912098 1.4523853525220332  2.6237635971851656 2.1428620761211192  2.153466403147282 3.2142909854444834  C 1.881189390885841 3.8571476214594367  1.8316837307074243 4.2142858607067915  1.7821786852633137 5.166666561543843  Z " fill-rule="nonzero" fill="rgba(0, 0, 0, 1)" stroke="none" transform="matrix(1 0 0 1 165 558 )" class="fill" />
    <path d="M 10 5.66667192280789  C 10 5.66667192280789  10 6.45238598325898  10 6.45238598325898  C 10 6.45238598325898  1.7821786852633137 6.45238598325898  1.7821786852633137 6.45238598325898  C 1.7821786852633137 9.02381465605599  3.0445542704166053 10.49999905389458  5.371286734309079 10.49999905389458  C 6.782177947582147 10.49999905389458  7.599011812144277 10.095243092326644  8.564358354101516 9.166671607439415  C 8.564358354101516 9.166671607439415  9.77722815612953 10.190478773494164  9.77722815612953 10.190478773494164  C 8.539604233070266 11.380954826935243  7.400990892686669 12  5.321783410121025 12  C 2.1039613577031715 12  0 10.142860814647225  0 6.00000378442168  C 0 2.2142892509178798  1.9059414218204516 0  5.000000983574889 0  C 8.143565098985993 0  10 2.1904816906525415  10 5.66667192280789  Z " stroke-width="0" stroke-dasharray="0" stroke="rgba(121, 121, 121, 1)" fill="none" transform="matrix(1 0 0 1 165 558 )" class="stroke" mask="url(#Clip4739)" />
    <path d="M 1.7821786852633137 5.166666561543843  C 1.7821786852633137 5.166666561543843  8.217821314736685 5.166666561543843  8.217821314736685 5.166666561543843  C 8.168316269292577 4.2142858607067915  8.118810977954743 3.8571476214594367  7.8465335968527175 3.2142909854444834  C 7.376236771655417 2.1428620761211192  6.287129214397097 1.4523853525220332  5.000000983574889 1.4523853525220332  C 3.712872383912098 1.4523853525220332  2.6237635971851656 2.1428620761211192  2.153466403147282 3.2142909854444834  C 1.881189390885841 3.8571476214594367  1.8316837307074243 4.2142858607067915  1.7821786852633137 5.166666561543843  Z " stroke-width="0" stroke-dasharray="0" stroke="rgba(121, 121, 121, 1)" fill="none" transform="matrix(1 0 0 1 165 558 )" class="stroke" mask="url(#Clip4739)" />
  </g>
</svg>