<?xml version="1.0" encoding="utf-8"?>
<svg version="1.1" xmlns:xlink="http://www.w3.org/1999/xlink" width="10px" height="12px" xmlns="http://www.w3.org/2000/svg">
  <defs>
    <pattern id="BGPattern" patternUnits="userSpaceOnUse" alignment="0 0" imageRepeat="None" />
    <mask fill="white" id="Clip4741">
      <path d="M 6.393034579983002 5.261905317553977  C 8.532337790864219 5.452381173889761  10 6.238096890025337  10 8.428573140571713  C 10 10.69047798507298  7.985074523592861 12  5.024875299777733 12  C 2.9601987295809624 12  1.343283486193371 11.547624423900642  0 10.309529110717671  C 0 10.309529110717671  1.1940297105903115 9.166671607439415  1.1940297105903115 9.166671607439415  C 2.164179004893116 10.14286205641059  3.482587067750212 10.523810635107955  5 10.523810635107955  C 7.014925229290057 10.523810635107955  8.258706775021247 9.833337222877837  8.258706775021247 8.452384721785085  C 8.258706775021247 7.428575308729967  7.636816125714193 6.857142181353272  6.21890550460221 6.7380946824460235  C 6.21890550460221 6.7380946824460235  4.203980028195071 6.571428751639128  4.203980028195071 6.571428751639128  C 1.8159203598973652 6.380952895303344  0.5472637615055242 5.357143837037757  0.5472637615055242 3.428572509834766  C 0.5472637615055242 1.2857146911880373  2.4378110092044194 0  5.049751093789632 0  C 6.791044689444008 0  8.358209209717593 0.40476471304307243  9.452736485611558 1.2619078405017639  C 9.452736485611558 1.2619078405017639  8.283581580564816 2.3809537625666453  8.283581580564816 2.3809537625666453  C 7.412934968075438 1.7380971265516918  6.293531898169574 1.4523853525220332  5.024875299777733 1.4523853525220332  C 3.2338307338922663 1.4523853525220332  2.28855723360136 2.1904805080207668  2.28855723360136 3.3809569162513786  C 2.28855723360136 4.380956758567142  2.8855720888965153 4.976191887839834  4.42786069159966 5.095239386747082  C 4.42786069159966 5.095239386747082  6.393034579983002 5.261905317553977  6.393034579983002 5.261905317553977  Z " fill-rule="evenodd" />
    </mask>
  </defs>
  <g transform="matrix(1 0 0 1 -141 -558 )">
    <path d="M 6.393034579983002 5.261905317553977  C 8.532337790864219 5.452381173889761  10 6.238096890025337  10 8.428573140571713  C 10 10.69047798507298  7.985074523592861 12  5.024875299777733 12  C 2.9601987295809624 12  1.343283486193371 11.547624423900642  0 10.309529110717671  C 0 10.309529110717671  1.1940297105903115 9.166671607439415  1.1940297105903115 9.166671607439415  C 2.164179004893116 10.14286205641059  3.482587067750212 10.523810635107955  5 10.523810635107955  C 7.014925229290057 10.523810635107955  8.258706775021247 9.833337222877837  8.258706775021247 8.452384721785085  C 8.258706775021247 7.428575308729967  7.636816125714193 6.857142181353272  6.21890550460221 6.7380946824460235  C 6.21890550460221 6.7380946824460235  4.203980028195071 6.571428751639128  4.203980028195071 6.571428751639128  C 1.8159203598973652 6.380952895303344  0.5472637615055242 5.357143837037757  0.5472637615055242 3.428572509834766  C 0.5472637615055242 1.2857146911880373  2.4378110092044194 0  5.049751093789632 0  C 6.791044689444008 0  8.358209209717593 0.40476471304307243  9.452736485611558 1.2619078405017639  C 9.452736485611558 1.2619078405017639  8.283581580564816 2.3809537625666453  8.283581580564816 2.3809537625666453  C 7.412934968075438 1.7380971265516918  6.293531898169574 1.4523853525220332  5.024875299777733 1.4523853525220332  C 3.2338307338922663 1.4523853525220332  2.28855723360136 2.1904805080207668  2.28855723360136 3.3809569162513786  C 2.28855723360136 4.380956758567142  2.8855720888965153 4.976191887839834  4.42786069159966 5.095239386747082  C 4.42786069159966 5.095239386747082  6.393034579983002 5.261905317553977  6.393034579983002 5.261905317553977  Z " fill-rule="nonzero" fill="rgba(0, 0, 0, 1)" stroke="none" transform="matrix(1 0 0 1 141 558 )" class="fill" />
    <path d="M 6.393034579983002 5.261905317553977  C 8.532337790864219 5.452381173889761  10 6.238096890025337  10 8.428573140571713  C 10 10.69047798507298  7.985074523592861 12  5.024875299777733 12  C 2.9601987295809624 12  1.343283486193371 11.547624423900642  0 10.309529110717671  C 0 10.309529110717671  1.1940297105903115 9.166671607439415  1.1940297105903115 9.166671607439415  C 2.164179004893116 10.14286205641059  3.482587067750212 10.523810635107955  5 10.523810635107955  C 7.014925229290057 10.523810635107955  8.258706775021247 9.833337222877837  8.258706775021247 8.452384721785085  C 8.258706775021247 7.428575308729967  7.636816125714193 6.857142181353272  6.21890550460221 6.7380946824460235  C 6.21890550460221 6.7380946824460235  4.203980028195071 6.571428751639128  4.203980028195071 6.571428751639128  C 1.8159203598973652 6.380952895303344  0.5472637615055242 5.357143837037757  0.5472637615055242 3.428572509834766  C 0.5472637615055242 1.2857146911880373  2.4378110092044194 0  5.049751093789632 0  C 6.791044689444008 0  8.358209209717593 0.40476471304307243  9.452736485611558 1.2619078405017639  C 9.452736485611558 1.2619078405017639  8.283581580564816 2.3809537625666453  8.283581580564816 2.3809537625666453  C 7.412934968075438 1.7380971265516918  6.293531898169574 1.4523853525220332  5.024875299777733 1.4523853525220332  C 3.2338307338922663 1.4523853525220332  2.28855723360136 2.1904805080207668  2.28855723360136 3.3809569162513786  C 2.28855723360136 4.380956758567142  2.8855720888965153 4.976191887839834  4.42786069159966 5.095239386747082  C 4.42786069159966 5.095239386747082  6.393034579983002 5.261905317553977  6.393034579983002 5.261905317553977  Z " stroke-width="0" stroke-dasharray="0" stroke="rgba(121, 121, 121, 1)" fill="none" transform="matrix(1 0 0 1 141 558 )" class="stroke" mask="url(#Clip4741)" />
  </g>
</svg>