<?xml version="1.0" encoding="utf-8"?>
<svg version="1.1" xmlns:xlink="http://www.w3.org/1999/xlink" width="58px" height="55px" xmlns="http://www.w3.org/2000/svg">
  <defs>
    <pattern id="BGPattern" patternUnits="userSpaceOnUse" alignment="0 0" imageRepeat="None" />
    <mask fill="white" id="Clip4785">
      <path d="M 23.547774158523342 22.30110457313926  L 23.547774158523342 24.35247238567152  L 14.494144563362804 24.35247238567152  L 14.494144563362804 22.30110457313926  L 23.547774158523342 22.30110457313926  Z M 15.486854350860865 23.294766181480334  L 15.486854350860865 23.358810777330444  L 22.55506437102528 23.358810777330444  L 22.55506437102528 23.294766181480334  L 15.486854350860865 23.294766181480334  Z M 23.547774158523342 16.530298337978735  L 23.547774158523342 18.533147517291216  L 14.494144563362804 18.533147517291216  L 14.494144563362804 16.530298337978735  L 23.547774158523342 16.530298337978735  Z M 15.486854350860865 17.52395994631981  L 15.486854350860865 17.53948590895014  L 22.55506437102528 17.53948590895014  L 22.55506437102528 17.52395994631981  L 15.486854350860865 17.52395994631981  Z M 23.547774158523342 10.854588623928976  L 23.547774158523342 12.809889542686074  L 14.494144563362804 12.809889542686074  L 14.494144563362804 10.854588623928976  L 23.547774158523342 10.854588623928976  Z M 44.03695517294866 6.4180448023123775  C 44.03695517294866 6.4180448023123775  29.77256863657515 6.4180448023123775  29.77256863657515 6.4180448023123775  C 29.840576598787372 6.307948963696513  29.91106326365186 6.197449760637848  29.980029471071816 6.084236605760297  C 30.80595184226766 4.7805692415777905  31.584793796128075 3.429076553648737  32.31541802388708 2.030019613915557  C 32.31541802388708 2.030019613915557  25.882193268186754 1.2197584391452463  25.882193268186754 1.2197584391452463  C 25.56455300651966 2.300708456424364  25.104183186962565 3.508853813825875  24.50073677679541 4.844100340662743  C 24.50073677679541 4.844100340662743  24.05091515433535 5.819324868380304  24.05091515433535 5.819324868380304  C 23.95494633984229 6.0229728880664  23.857165196523642 6.2218260206575176  23.762021095082982 6.4180448023123775  C 23.762021095082982 6.4180448023123775  16.98949123623391 6.4180448023123775  16.98949123623391 6.4180448023123775  C 17.919123966009355 5.059747305002032  18.78659920080773 3.692276516691184  19.592446098960757 2.3162795499122533  C 19.592446098960757 2.3162795499122533  13.683690088413217 1.1236915453700838  13.683690088413217 1.1236915453700838  C 12.984822875162383 2.5227680299628368  12.080115141823475 4.002175071939196  10.968279820071352 5.560235366986683  C 9.856461420971902 7.086467272806822  8.569194639267174 8.596470667135238  7.107957189390414 10.090905337049653  C 5.678504031444494 11.553505813505696  4.0744984447632495 12.9208362341887  2.2956413835892664 14.192670589449778  C 2.70859319072408 14.447037075527486  3.168852924283612 14.813229179520153  3.677097874980611 15.290162072881182  C 4.217042208494503 15.73524851282647  4.725599814075194 16.211832560057537  5.202031952846285 16.72049138020027  C 5.678424802661515 17.197340526799366  6.060095944292918 17.642438812114094  6.345974872033504 18.055724166408588  C 7.313256776294025 17.290517505792636  8.234522615234223 16.506125374112052  9.109857297968048 15.702570455249303  C 9.109857297968048 15.702570455249303  9.109857297968048 28  9.109857297968048 28  L 22.213820381572823 28  L 22.213820381572823 30  L 3.6295951605397856 30  L 3.6295951605397856 35.13137194177764  C 3.6295951605397856 35.13137194177764  17.925003877772607 35.13137194177764  17.925003877772607 35.13137194177764  C 16.43196864517896 35.98989588978786  14.795649904085717 36.8009642080317  13.016713199937954 37.564096211417365  C 13.016713199937954 37.564096211417365  12.358461299829377 37.83483018478373  12.358461299829377 37.83483018478373  C 10.815882102193546 38.460793520794624  9.224776073779472 39.0383487408826  7.584923220102373 39.56694539072984  C 7.584923220102373 39.56694539072984  6.883046378160385 39.77751625890369  6.883046378160385 39.77751625890369  C 5.2502158336423435 40.257388906438514  3.6413562858088064 40.6644099555592  2.057158368233287 40.998245070713324  C 2.660707438548665 41.5705860776282  3.3127135780775885 42.31772156108259  4.011555762370095 43.239805925467124  C 4.535457302807689 43.954912063001636  4.987703598209438 44.59870747739198  5.3687761749651 45.17084752761433  C 5.3687761749651 45.17084752761433  5.726500697999069 45.72007845566223  5.726500697999069 45.72007845566223  C 7.310854232975063 45.274921121180846  8.919392960449143 44.73170533096063  10.552388707926168 44.09179312480644  C 10.552388707926168 44.09179312480644  11.254265549868157 43.81232579746052  11.254265549868157 43.81232579746052  C 13.128426375639831 43.04921825476275  14.97042954605976 42.18986199186894  16.78106095858539 41.23598637349024  C 18.59172680811751 40.250294211253646  20.275317736886464 39.20097310718053  21.831859779742516 38.08809745019098  C 21.96074687400973 37.99520979434624  22.08744337230722 37.90075678033357  22.213820381572823 37.807659750180655  C 22.213820381572823 37.807659750180655  22.213820381572823 46.00633839165892  22.213820381572823 46.00633839165892  L 27.884093376764383 46.00633839165892  C 27.884093376764383 46.00633839165892  27.884093376764383 37.598059254671206  27.884093376764383 37.598059254671206  C 28.041452005775984 37.71366668445992  28.199343506043984 37.83052345276667  28.36008996432449 37.94545266852483  C 29.916659698794014 39.02655655715295  31.568715796833796 40.04432982957387  33.31588335659997 40.998245070713324  C 35.094702193880146 41.95208894350192  36.90533242300349 42.81052730871795  38.747673336435554 43.5736141220192  C 40.38762050727476 44.241350686396316  42.003584965746846 44.81139991045909  43.59488909570343 45.28438112934861  C 43.59488909570343 45.28438112934861  44.27543818830464 45.48136678022092  44.27543818830464 45.48136678022092  C 44.46604499266613 45.14748576426021  44.70123644852908 44.77766009319231  44.98119280285404 44.37223082481677  C 44.98119280285404 44.37223082481677  45.27590352101753 43.954970579126666  45.27590352101753 43.954970579126666  C 45.68877296335331 43.38275744297488  46.11773392535447 42.810594353508975  46.562354583527224 42.23838133581088  C 47.00706171882195 41.69786196626277  47.43586096890087 41.251937525656565  47.848805646036915 40.902178176938165  C 46.07002325754711 40.48884067340472  44.25931729067753 39.99659541903776  42.41701566620134 39.42430060906369  C 40.574568956605 38.82016201088201  38.77987678945573 38.15180510450741  37.032728400806576 37.42048105708682  C 35.41382484441952 36.700278093990335  33.90865157292909 35.936536231759135  32.51609275632077 35.13137194177764  C 32.51609275632077 35.13137194177764  46.70583217000155 35.13137194177764  46.70583217000155 35.13137194177764  L 46.70583217000155 30  L 27.884093376764383 30  L 27.884093376764383 28  L 45.41938110749186 28  L 45.41938110749186 24  L 29.027066852799756 24  L 29.027066852799756 23  L 41.750038777726076 23  L 41.750038777726076 19  L 29.027066852799756 19  L 29.027066852799756 17  L 41.65503334884442 17  L 41.65503334884442 13  L 29.027066852799756 13  L 29.027066852799756 11  L 44.03695517294866 11  L 44.03695517294866 6.4180448023123775  Z M 45.029664960446716 5.424383193971302  L 45.029664960446716 11.848250232270052  L 42.647743136342484 11.848250232270052  L 42.647743136342484 18  L 30.019776640297813 18  L 42.74274856522414 18  L 42.74274856522414 23  L 30.019776640297813 23  L 46.412090894989916 23  L 46.412090894989916 29.606069990709198  L 47.698541957499614 29.606069990709198  L 47.698541957499614 36.125033550118715  C 47.698541957499614 36.125033550118715  36.58678455095393 36.125033550118715  36.58678455095393 36.125033550118715  C 36.86268251589773 36.25362901290873  37.14210068844854 36.38127724592489  37.425352877307276 36.50736037989058  C 39.14467095774016 37.2267334564042  40.911572578989926 37.88411870779016  42.726268031642626 38.4791576339424  C 44.54216227081 39.04289973182084  46.324020913539606 39.528148252208176  48.07371645726695 39.93471663053577  C 48.07371645726695 39.93471663053577  50 40.382058428822134  50 40.382058428822134  C 50 40.382058428822134  48.49057701256398 41.661009600495504  48.49057701256398 41.661009600495504  C 48.13717359421844 41.96032973740681  47.75281219458754 42.3548861115614  47.33984799131379 42.85553835036647  C 46.904310241528805 43.41623725438249  46.48456422602536 43.977241887383705  46.080541337056 44.537194177764015  C 45.6812579446529 45.090600894673194  45.36877517203166 45.56879996918692  45.13727315030246 45.97431609373387  C 45.13727315030246 45.97431609373387  44.75337366216845 46.6477547228244  44.75337366216845 46.6477547228244  C 44.75337366216845 46.6477547228244  44.006902435241194 46.43815422731496  44.006902435241194 46.43815422731496  C 42.157750923318865 45.91859085620145  40.27963043350165 45.26965863812729  38.373468279820074 44.49352740786621  C 38.373468279820074 44.49352740786621  38.368621064060804 44.49158666253742  38.368621064060804 44.49158666253742  C 36.495367197800334 43.715703415085535  34.65427891568692 42.8428091386874  32.84667287110284 41.873521213998146  C 32.84667287110284 41.873521213998146  32.84085621219172 41.87061009600495  32.84085621219172 41.87061009600495  C 31.462274796651723 41.11793482939845  30.141304954551295 40.32351192042372  28.876803164262448 39.49125632290699  C 28.876803164262448 39.49125632290699  28.876803164262448 47  28.876803164262448 47  L 21.221110594074762 47  C 21.221110594074762 47  21.221110594074762 39.71735315371116  21.221110594074762 39.71735315371116  C 19.971051991993612 40.552905376769445  18.648851293176573 41.35060015446361  17.255118659841788 42.10932177144627  C 17.255118659841788 42.10932177144627  17.243485342019543 42.11611438009704  17.243485342019543 42.11611438009704  C 17.243485342019543 42.11611438009704  17.24251589886769 42.11514400743264  17.24251589886769 42.11514400743264  C 15.403617857703317 43.08388467605384  13.53192182221079 43.95681691686103  11.627501163331782 44.732239083307526  C 9.721461373446468 45.50830611166625  7.844073646324114 46.15733481027448  5.99503645106251 46.67686590275627  C 5.99503645106251 46.67686590275627  5.284434620753839 46.875792298957364  5.284434620753839 46.875792298957364  C 5.284434620753839 46.875792298957364  4.88890181479758 46.252813048415405  4.88890181479758 46.252813048415405  C 4.461722819957139 45.58090869080138  3.906756022817057 44.77761342243672  3.220490150457577 43.840466604727986  C 3.220490150457577 43.840466604727986  2.723165813556693 43.20487250954888  2.723165813556693 43.20487250954888  C 2.2383885881374543 42.60554088073901  1.7889203591847467 42.112056896863024  1.3746703893283698 41.719231960359245  C 1.3746703893283698 41.719231960359245  0 40.41602147207598  0 40.41602147207598  C 0 40.41602147207598  1.8526058631921825 40.02593166098895  1.8526058631921825 40.02593166098895  C 3.62829898001705 39.651743133062915  5.437743558391076 39.183129834926966  7.280518070420351 38.62083204294415  C 9.12635108565515 38.025839372959574  10.908097660188362 37.368832699580864  12.626027609740964 36.65000516155673  C 12.626027609740964 36.65000516155673  13.274585078331006 36.367626716217615  13.274585078331006 36.367626716217615  C 13.45444388291217 36.28765826437438  13.632126706541833 36.20597404038142  13.808748255002326 36.125033550118715  C 13.808748255002326 36.125033550118715  2.636885373041725 36.125033550118715  2.636885373041725 36.125033550118715  L 2.636885373041725 29.606069990709198  L 8.117147510469987 29.606069990709198  C 8.117147510469987 29.606069990709198  8.117147510469987 17.890760813461338  8.117147510469987 17.890760813461338  C 7.7385850778860465 18.208258439724915  7.354707867300046 18.52490121528954  6.961571273460525 18.835903788582637  C 6.961571273460525 18.835903788582637  6.131727935473863 19.491875709714048  6.131727935473863 19.491875709714048  C 6.131727935473863 19.491875709714048  5.529703738172794 18.621451429751215  5.529703738172794 18.621451429751215  C 5.286938448515866 18.270492707763747  4.947710162967938 17.871024917692324  4.500155110904296 17.42304118922267  C 4.500155110904296 17.42304118922267  4.477857918411664 17.40072261794157  4.477857918411664 17.40072261794157  C 4.030619870235111 16.923212144366726  3.5532703875977623 16.474917089974802  3.0459903831239337 16.05675647775369  C 3.0459903831239337 16.05675647775369  3.0217543043275943 16.036378651801382  3.0217543043275943 16.036378651801382  C 3.0217543043275943 16.036378651801382  2.998487668683109 16.015030453184682  2.998487668683109 16.015030453184682  C 2.5197445227597988 15.565777138018616  2.1124952353857203 15.246691906502633  1.7750504110438965 15.038835552802725  C 1.7750504110438965 15.038835552802725  0.5012021095082985 14.254774439971094  0.5012021095082985 14.254774439971094  C 0.5012021095082985 14.254774439971094  1.718822708236389 13.384350160008259  1.718822708236389 13.384350160008259  C 3.4535409943048245 12.144073764190248  5.013293607560021 10.81427764719308  6.399294245385451 9.396118509342417  C 7.830531855636888 7.93235505451491  9.08478514545737 6.457786845954145  10.16558089033659 4.974130277691752  C 11.250910012689102 3.452498758000413  12.125661633117117 2.0214698631622925  12.79568016131534 0.6802312377413028  C 12.79568016131534 0.6802312377413028  13.135954707615946 0  13.135954707615946 0  L 21.15228013029316 1.6176112315474347  C 21.15228013029316 1.6176112315474347  20.449433845199316 2.818932590069165  20.449433845199316 2.818932590069165  C 19.93851913894741 3.6913279395065555  19.40252612649294 4.559728556554532  18.843066542577944 5.424383193971302  C 18.843066542577944 5.424383193971302  23.13963859159299 5.424383193971302  23.13963859159299 5.424383193971302  C 23.29063165533611 5.104402363685504  23.442752812099915 4.774229392560382  23.596246316116023 4.434603076287808  C 24.186089931208162 3.1294601344343578  24.628694426908 1.9653954241388265  24.930200093066542 0.9393207391349231  C 24.930200093066542 0.9393207391349231  25.168683108422524 0.1280891917002168  25.168683108422524 0.1280891917002168  L 33.856832635334264 1.2236399298028284  C 33.856832635334264 1.2236399298028284  33.19470296261827 2.4909466295034584  33.19470296261827 2.4909466295034584  C 32.671516197160805 3.4927715926467173  32.12223180194261 4.469853888880151  31.550527377074612 5.424383193971302  C 31.550527377074612 5.424383193971302  45.029664960446716 5.424383193971302  45.029664960446716 5.424383193971302  Z " fill-rule="evenodd" />
    </mask>
  </defs>
  <g transform="matrix(1 0 0 1 -279 -375 )">
    <path d="M 23.547774158523342 22.30110457313926  L 23.547774158523342 24.35247238567152  L 14.494144563362804 24.35247238567152  L 14.494144563362804 22.30110457313926  L 23.547774158523342 22.30110457313926  Z M 15.486854350860865 23.294766181480334  L 15.486854350860865 23.358810777330444  L 22.55506437102528 23.358810777330444  L 22.55506437102528 23.294766181480334  L 15.486854350860865 23.294766181480334  Z M 23.547774158523342 16.530298337978735  L 23.547774158523342 18.533147517291216  L 14.494144563362804 18.533147517291216  L 14.494144563362804 16.530298337978735  L 23.547774158523342 16.530298337978735  Z M 15.486854350860865 17.52395994631981  L 15.486854350860865 17.53948590895014  L 22.55506437102528 17.53948590895014  L 22.55506437102528 17.52395994631981  L 15.486854350860865 17.52395994631981  Z M 23.547774158523342 10.854588623928976  L 23.547774158523342 12.809889542686074  L 14.494144563362804 12.809889542686074  L 14.494144563362804 10.854588623928976  L 23.547774158523342 10.854588623928976  Z M 44.03695517294866 6.4180448023123775  C 44.03695517294866 6.4180448023123775  29.77256863657515 6.4180448023123775  29.77256863657515 6.4180448023123775  C 29.840576598787372 6.307948963696513  29.91106326365186 6.197449760637848  29.980029471071816 6.084236605760297  C 30.80595184226766 4.7805692415777905  31.584793796128075 3.429076553648737  32.31541802388708 2.030019613915557  C 32.31541802388708 2.030019613915557  25.882193268186754 1.2197584391452463  25.882193268186754 1.2197584391452463  C 25.56455300651966 2.300708456424364  25.104183186962565 3.508853813825875  24.50073677679541 4.844100340662743  C 24.50073677679541 4.844100340662743  24.05091515433535 5.819324868380304  24.05091515433535 5.819324868380304  C 23.95494633984229 6.0229728880664  23.857165196523642 6.2218260206575176  23.762021095082982 6.4180448023123775  C 23.762021095082982 6.4180448023123775  16.98949123623391 6.4180448023123775  16.98949123623391 6.4180448023123775  C 17.919123966009355 5.059747305002032  18.78659920080773 3.692276516691184  19.592446098960757 2.3162795499122533  C 19.592446098960757 2.3162795499122533  13.683690088413217 1.1236915453700838  13.683690088413217 1.1236915453700838  C 12.984822875162383 2.5227680299628368  12.080115141823475 4.002175071939196  10.968279820071352 5.560235366986683  C 9.856461420971902 7.086467272806822  8.569194639267174 8.596470667135238  7.107957189390414 10.090905337049653  C 5.678504031444494 11.553505813505696  4.0744984447632495 12.9208362341887  2.2956413835892664 14.192670589449778  C 2.70859319072408 14.447037075527486  3.168852924283612 14.813229179520153  3.677097874980611 15.290162072881182  C 4.217042208494503 15.73524851282647  4.725599814075194 16.211832560057537  5.202031952846285 16.72049138020027  C 5.678424802661515 17.197340526799366  6.060095944292918 17.642438812114094  6.345974872033504 18.055724166408588  C 7.313256776294025 17.290517505792636  8.234522615234223 16.506125374112052  9.109857297968048 15.702570455249303  C 9.109857297968048 15.702570455249303  9.109857297968048 28  9.109857297968048 28  L 22.213820381572823 28  L 22.213820381572823 30  L 3.6295951605397856 30  L 3.6295951605397856 35.13137194177764  C 3.6295951605397856 35.13137194177764  17.925003877772607 35.13137194177764  17.925003877772607 35.13137194177764  C 16.43196864517896 35.98989588978786  14.795649904085717 36.8009642080317  13.016713199937954 37.564096211417365  C 13.016713199937954 37.564096211417365  12.358461299829377 37.83483018478373  12.358461299829377 37.83483018478373  C 10.815882102193546 38.460793520794624  9.224776073779472 39.0383487408826  7.584923220102373 39.56694539072984  C 7.584923220102373 39.56694539072984  6.883046378160385 39.77751625890369  6.883046378160385 39.77751625890369  C 5.2502158336423435 40.257388906438514  3.6413562858088064 40.6644099555592  2.057158368233287 40.998245070713324  C 2.660707438548665 41.5705860776282  3.3127135780775885 42.31772156108259  4.011555762370095 43.239805925467124  C 4.535457302807689 43.954912063001636  4.987703598209438 44.59870747739198  5.3687761749651 45.17084752761433  C 5.3687761749651 45.17084752761433  5.726500697999069 45.72007845566223  5.726500697999069 45.72007845566223  C 7.310854232975063 45.274921121180846  8.919392960449143 44.73170533096063  10.552388707926168 44.09179312480644  C 10.552388707926168 44.09179312480644  11.254265549868157 43.81232579746052  11.254265549868157 43.81232579746052  C 13.128426375639831 43.04921825476275  14.97042954605976 42.18986199186894  16.78106095858539 41.23598637349024  C 18.59172680811751 40.250294211253646  20.275317736886464 39.20097310718053  21.831859779742516 38.08809745019098  C 21.96074687400973 37.99520979434624  22.08744337230722 37.90075678033357  22.213820381572823 37.807659750180655  C 22.213820381572823 37.807659750180655  22.213820381572823 46.00633839165892  22.213820381572823 46.00633839165892  L 27.884093376764383 46.00633839165892  C 27.884093376764383 46.00633839165892  27.884093376764383 37.598059254671206  27.884093376764383 37.598059254671206  C 28.041452005775984 37.71366668445992  28.199343506043984 37.83052345276667  28.36008996432449 37.94545266852483  C 29.916659698794014 39.02655655715295  31.568715796833796 40.04432982957387  33.31588335659997 40.998245070713324  C 35.094702193880146 41.95208894350192  36.90533242300349 42.81052730871795  38.747673336435554 43.5736141220192  C 40.38762050727476 44.241350686396316  42.003584965746846 44.81139991045909  43.59488909570343 45.28438112934861  C 43.59488909570343 45.28438112934861  44.27543818830464 45.48136678022092  44.27543818830464 45.48136678022092  C 44.46604499266613 45.14748576426021  44.70123644852908 44.77766009319231  44.98119280285404 44.37223082481677  C 44.98119280285404 44.37223082481677  45.27590352101753 43.954970579126666  45.27590352101753 43.954970579126666  C 45.68877296335331 43.38275744297488  46.11773392535447 42.810594353508975  46.562354583527224 42.23838133581088  C 47.00706171882195 41.69786196626277  47.43586096890087 41.251937525656565  47.848805646036915 40.902178176938165  C 46.07002325754711 40.48884067340472  44.25931729067753 39.99659541903776  42.41701566620134 39.42430060906369  C 40.574568956605 38.82016201088201  38.77987678945573 38.15180510450741  37.032728400806576 37.42048105708682  C 35.41382484441952 36.700278093990335  33.90865157292909 35.936536231759135  32.51609275632077 35.13137194177764  C 32.51609275632077 35.13137194177764  46.70583217000155 35.13137194177764  46.70583217000155 35.13137194177764  L 46.70583217000155 30  L 27.884093376764383 30  L 27.884093376764383 28  L 45.41938110749186 28  L 45.41938110749186 24  L 29.027066852799756 24  L 29.027066852799756 23  L 41.750038777726076 23  L 41.750038777726076 19  L 29.027066852799756 19  L 29.027066852799756 17  L 41.65503334884442 17  L 41.65503334884442 13  L 29.027066852799756 13  L 29.027066852799756 11  L 44.03695517294866 11  L 44.03695517294866 6.4180448023123775  Z M 45.029664960446716 5.424383193971302  L 45.029664960446716 11.848250232270052  L 42.647743136342484 11.848250232270052  L 42.647743136342484 18  L 30.019776640297813 18  L 42.74274856522414 18  L 42.74274856522414 23  L 30.019776640297813 23  L 46.412090894989916 23  L 46.412090894989916 29.606069990709198  L 47.698541957499614 29.606069990709198  L 47.698541957499614 36.125033550118715  C 47.698541957499614 36.125033550118715  36.58678455095393 36.125033550118715  36.58678455095393 36.125033550118715  C 36.86268251589773 36.25362901290873  37.14210068844854 36.38127724592489  37.425352877307276 36.50736037989058  C 39.14467095774016 37.2267334564042  40.911572578989926 37.88411870779016  42.726268031642626 38.4791576339424  C 44.54216227081 39.04289973182084  46.324020913539606 39.528148252208176  48.07371645726695 39.93471663053577  C 48.07371645726695 39.93471663053577  50 40.382058428822134  50 40.382058428822134  C 50 40.382058428822134  48.49057701256398 41.661009600495504  48.49057701256398 41.661009600495504  C 48.13717359421844 41.96032973740681  47.75281219458754 42.3548861115614  47.33984799131379 42.85553835036647  C 46.904310241528805 43.41623725438249  46.48456422602536 43.977241887383705  46.080541337056 44.537194177764015  C 45.6812579446529 45.090600894673194  45.36877517203166 45.56879996918692  45.13727315030246 45.97431609373387  C 45.13727315030246 45.97431609373387  44.75337366216845 46.6477547228244  44.75337366216845 46.6477547228244  C 44.75337366216845 46.6477547228244  44.006902435241194 46.43815422731496  44.006902435241194 46.43815422731496  C 42.157750923318865 45.91859085620145  40.27963043350165 45.26965863812729  38.373468279820074 44.49352740786621  C 38.373468279820074 44.49352740786621  38.368621064060804 44.49158666253742  38.368621064060804 44.49158666253742  C 36.495367197800334 43.715703415085535  34.65427891568692 42.8428091386874  32.84667287110284 41.873521213998146  C 32.84667287110284 41.873521213998146  32.84085621219172 41.87061009600495  32.84085621219172 41.87061009600495  C 31.462274796651723 41.11793482939845  30.141304954551295 40.32351192042372  28.876803164262448 39.49125632290699  C 28.876803164262448 39.49125632290699  28.876803164262448 47  28.876803164262448 47  L 21.221110594074762 47  C 21.221110594074762 47  21.221110594074762 39.71735315371116  21.221110594074762 39.71735315371116  C 19.971051991993612 40.552905376769445  18.648851293176573 41.35060015446361  17.255118659841788 42.10932177144627  C 17.255118659841788 42.10932177144627  17.243485342019543 42.11611438009704  17.243485342019543 42.11611438009704  C 17.243485342019543 42.11611438009704  17.24251589886769 42.11514400743264  17.24251589886769 42.11514400743264  C 15.403617857703317 43.08388467605384  13.53192182221079 43.95681691686103  11.627501163331782 44.732239083307526  C 9.721461373446468 45.50830611166625  7.844073646324114 46.15733481027448  5.99503645106251 46.67686590275627  C 5.99503645106251 46.67686590275627  5.284434620753839 46.875792298957364  5.284434620753839 46.875792298957364  C 5.284434620753839 46.875792298957364  4.88890181479758 46.252813048415405  4.88890181479758 46.252813048415405  C 4.461722819957139 45.58090869080138  3.906756022817057 44.77761342243672  3.220490150457577 43.840466604727986  C 3.220490150457577 43.840466604727986  2.723165813556693 43.20487250954888  2.723165813556693 43.20487250954888  C 2.2383885881374543 42.60554088073901  1.7889203591847467 42.112056896863024  1.3746703893283698 41.719231960359245  C 1.3746703893283698 41.719231960359245  0 40.41602147207598  0 40.41602147207598  C 0 40.41602147207598  1.8526058631921825 40.02593166098895  1.8526058631921825 40.02593166098895  C 3.62829898001705 39.651743133062915  5.437743558391076 39.183129834926966  7.280518070420351 38.62083204294415  C 9.12635108565515 38.025839372959574  10.908097660188362 37.368832699580864  12.626027609740964 36.65000516155673  C 12.626027609740964 36.65000516155673  13.274585078331006 36.367626716217615  13.274585078331006 36.367626716217615  C 13.45444388291217 36.28765826437438  13.632126706541833 36.20597404038142  13.808748255002326 36.125033550118715  C 13.808748255002326 36.125033550118715  2.636885373041725 36.125033550118715  2.636885373041725 36.125033550118715  L 2.636885373041725 29.606069990709198  L 8.117147510469987 29.606069990709198  C 8.117147510469987 29.606069990709198  8.117147510469987 17.890760813461338  8.117147510469987 17.890760813461338  C 7.7385850778860465 18.208258439724915  7.354707867300046 18.52490121528954  6.961571273460525 18.835903788582637  C 6.961571273460525 18.835903788582637  6.131727935473863 19.491875709714048  6.131727935473863 19.491875709714048  C 6.131727935473863 19.491875709714048  5.529703738172794 18.621451429751215  5.529703738172794 18.621451429751215  C 5.286938448515866 18.270492707763747  4.947710162967938 17.871024917692324  4.500155110904296 17.42304118922267  C 4.500155110904296 17.42304118922267  4.477857918411664 17.40072261794157  4.477857918411664 17.40072261794157  C 4.030619870235111 16.923212144366726  3.5532703875977623 16.474917089974802  3.0459903831239337 16.05675647775369  C 3.0459903831239337 16.05675647775369  3.0217543043275943 16.036378651801382  3.0217543043275943 16.036378651801382  C 3.0217543043275943 16.036378651801382  2.998487668683109 16.015030453184682  2.998487668683109 16.015030453184682  C 2.5197445227597988 15.565777138018616  2.1124952353857203 15.246691906502633  1.7750504110438965 15.038835552802725  C 1.7750504110438965 15.038835552802725  0.5012021095082985 14.254774439971094  0.5012021095082985 14.254774439971094  C 0.5012021095082985 14.254774439971094  1.718822708236389 13.384350160008259  1.718822708236389 13.384350160008259  C 3.4535409943048245 12.144073764190248  5.013293607560021 10.81427764719308  6.399294245385451 9.396118509342417  C 7.830531855636888 7.93235505451491  9.08478514545737 6.457786845954145  10.16558089033659 4.974130277691752  C 11.250910012689102 3.452498758000413  12.125661633117117 2.0214698631622925  12.79568016131534 0.6802312377413028  C 12.79568016131534 0.6802312377413028  13.135954707615946 0  13.135954707615946 0  L 21.15228013029316 1.6176112315474347  C 21.15228013029316 1.6176112315474347  20.449433845199316 2.818932590069165  20.449433845199316 2.818932590069165  C 19.93851913894741 3.6913279395065555  19.40252612649294 4.559728556554532  18.843066542577944 5.424383193971302  C 18.843066542577944 5.424383193971302  23.13963859159299 5.424383193971302  23.13963859159299 5.424383193971302  C 23.29063165533611 5.104402363685504  23.442752812099915 4.774229392560382  23.596246316116023 4.434603076287808  C 24.186089931208162 3.1294601344343578  24.628694426908 1.9653954241388265  24.930200093066542 0.9393207391349231  C 24.930200093066542 0.9393207391349231  25.168683108422524 0.1280891917002168  25.168683108422524 0.1280891917002168  L 33.856832635334264 1.2236399298028284  C 33.856832635334264 1.2236399298028284  33.19470296261827 2.4909466295034584  33.19470296261827 2.4909466295034584  C 32.671516197160805 3.4927715926467173  32.12223180194261 4.469853888880151  31.550527377074612 5.424383193971302  C 31.550527377074612 5.424383193971302  45.029664960446716 5.424383193971302  45.029664960446716 5.424383193971302  Z " fill-rule="nonzero" fill="rgba(127, 140, 159, 0.058823529411764705)" stroke="none" transform="matrix(1 0 0 1 283 375 )" class="fill" />
    <path d="M 23.547774158523342 22.30110457313926  L 23.547774158523342 24.35247238567152  L 14.494144563362804 24.35247238567152  L 14.494144563362804 22.30110457313926  L 23.547774158523342 22.30110457313926  Z " stroke-width="0" stroke-dasharray="0" stroke="rgba(121, 121, 121, 1)" fill="none" transform="matrix(1 0 0 1 283 375 )" class="stroke" mask="url(#Clip4785)" />
    <path d="M 15.486854350860865 23.294766181480334  L 15.486854350860865 23.358810777330444  L 22.55506437102528 23.358810777330444  L 22.55506437102528 23.294766181480334  L 15.486854350860865 23.294766181480334  Z " stroke-width="0" stroke-dasharray="0" stroke="rgba(121, 121, 121, 1)" fill="none" transform="matrix(1 0 0 1 283 375 )" class="stroke" mask="url(#Clip4785)" />
    <path d="M 23.547774158523342 16.530298337978735  L 23.547774158523342 18.533147517291216  L 14.494144563362804 18.533147517291216  L 14.494144563362804 16.530298337978735  L 23.547774158523342 16.530298337978735  Z " stroke-width="0" stroke-dasharray="0" stroke="rgba(121, 121, 121, 1)" fill="none" transform="matrix(1 0 0 1 283 375 )" class="stroke" mask="url(#Clip4785)" />
    <path d="M 15.486854350860865 17.52395994631981  L 15.486854350860865 17.53948590895014  L 22.55506437102528 17.53948590895014  L 22.55506437102528 17.52395994631981  L 15.486854350860865 17.52395994631981  Z " stroke-width="0" stroke-dasharray="0" stroke="rgba(121, 121, 121, 1)" fill="none" transform="matrix(1 0 0 1 283 375 )" class="stroke" mask="url(#Clip4785)" />
    <path d="M 23.547774158523342 10.854588623928976  L 23.547774158523342 12.809889542686074  L 14.494144563362804 12.809889542686074  L 14.494144563362804 10.854588623928976  L 23.547774158523342 10.854588623928976  Z " stroke-width="0" stroke-dasharray="0" stroke="rgba(121, 121, 121, 1)" fill="none" transform="matrix(1 0 0 1 283 375 )" class="stroke" mask="url(#Clip4785)" />
    <path d="M 44.03695517294866 6.4180448023123775  C 44.03695517294866 6.4180448023123775  29.77256863657515 6.4180448023123775  29.77256863657515 6.4180448023123775  C 29.840576598787372 6.307948963696513  29.91106326365186 6.197449760637848  29.980029471071816 6.084236605760297  C 30.80595184226766 4.7805692415777905  31.584793796128075 3.429076553648737  32.31541802388708 2.030019613915557  C 32.31541802388708 2.030019613915557  25.882193268186754 1.2197584391452463  25.882193268186754 1.2197584391452463  C 25.56455300651966 2.300708456424364  25.104183186962565 3.508853813825875  24.50073677679541 4.844100340662743  C 24.50073677679541 4.844100340662743  24.05091515433535 5.819324868380304  24.05091515433535 5.819324868380304  C 23.95494633984229 6.0229728880664  23.857165196523642 6.2218260206575176  23.762021095082982 6.4180448023123775  C 23.762021095082982 6.4180448023123775  16.98949123623391 6.4180448023123775  16.98949123623391 6.4180448023123775  C 17.919123966009355 5.059747305002032  18.78659920080773 3.692276516691184  19.592446098960757 2.3162795499122533  C 19.592446098960757 2.3162795499122533  13.683690088413217 1.1236915453700838  13.683690088413217 1.1236915453700838  C 12.984822875162383 2.5227680299628368  12.080115141823475 4.002175071939196  10.968279820071352 5.560235366986683  C 9.856461420971902 7.086467272806822  8.569194639267174 8.596470667135238  7.107957189390414 10.090905337049653  C 5.678504031444494 11.553505813505696  4.0744984447632495 12.9208362341887  2.2956413835892664 14.192670589449778  C 2.70859319072408 14.447037075527486  3.168852924283612 14.813229179520153  3.677097874980611 15.290162072881182  C 4.217042208494503 15.73524851282647  4.725599814075194 16.211832560057537  5.202031952846285 16.72049138020027  C 5.678424802661515 17.197340526799366  6.060095944292918 17.642438812114094  6.345974872033504 18.055724166408588  C 7.313256776294025 17.290517505792636  8.234522615234223 16.506125374112052  9.109857297968048 15.702570455249303  C 9.109857297968048 15.702570455249303  9.109857297968048 28  9.109857297968048 28  L 22.213820381572823 28  L 22.213820381572823 30  L 3.6295951605397856 30  L 3.6295951605397856 35.13137194177764  C 3.6295951605397856 35.13137194177764  17.925003877772607 35.13137194177764  17.925003877772607 35.13137194177764  C 16.43196864517896 35.98989588978786  14.795649904085717 36.8009642080317  13.016713199937954 37.564096211417365  C 13.016713199937954 37.564096211417365  12.358461299829377 37.83483018478373  12.358461299829377 37.83483018478373  C 10.815882102193546 38.460793520794624  9.224776073779472 39.0383487408826  7.584923220102373 39.56694539072984  C 7.584923220102373 39.56694539072984  6.883046378160385 39.77751625890369  6.883046378160385 39.77751625890369  C 5.2502158336423435 40.257388906438514  3.6413562858088064 40.6644099555592  2.057158368233287 40.998245070713324  C 2.660707438548665 41.5705860776282  3.3127135780775885 42.31772156108259  4.011555762370095 43.239805925467124  C 4.535457302807689 43.954912063001636  4.987703598209438 44.59870747739198  5.3687761749651 45.17084752761433  C 5.3687761749651 45.17084752761433  5.726500697999069 45.72007845566223  5.726500697999069 45.72007845566223  C 7.310854232975063 45.274921121180846  8.919392960449143 44.73170533096063  10.552388707926168 44.09179312480644  C 10.552388707926168 44.09179312480644  11.254265549868157 43.81232579746052  11.254265549868157 43.81232579746052  C 13.128426375639831 43.04921825476275  14.97042954605976 42.18986199186894  16.78106095858539 41.23598637349024  C 18.59172680811751 40.250294211253646  20.275317736886464 39.20097310718053  21.831859779742516 38.08809745019098  C 21.96074687400973 37.99520979434624  22.08744337230722 37.90075678033357  22.213820381572823 37.807659750180655  C 22.213820381572823 37.807659750180655  22.213820381572823 46.00633839165892  22.213820381572823 46.00633839165892  L 27.884093376764383 46.00633839165892  C 27.884093376764383 46.00633839165892  27.884093376764383 37.598059254671206  27.884093376764383 37.598059254671206  C 28.041452005775984 37.71366668445992  28.199343506043984 37.83052345276667  28.36008996432449 37.94545266852483  C 29.916659698794014 39.02655655715295  31.568715796833796 40.04432982957387  33.31588335659997 40.998245070713324  C 35.094702193880146 41.95208894350192  36.90533242300349 42.81052730871795  38.747673336435554 43.5736141220192  C 40.38762050727476 44.241350686396316  42.003584965746846 44.81139991045909  43.59488909570343 45.28438112934861  C 43.59488909570343 45.28438112934861  44.27543818830464 45.48136678022092  44.27543818830464 45.48136678022092  C 44.46604499266613 45.14748576426021  44.70123644852908 44.77766009319231  44.98119280285404 44.37223082481677  C 44.98119280285404 44.37223082481677  45.27590352101753 43.954970579126666  45.27590352101753 43.954970579126666  C 45.68877296335331 43.38275744297488  46.11773392535447 42.810594353508975  46.562354583527224 42.23838133581088  C 47.00706171882195 41.69786196626277  47.43586096890087 41.251937525656565  47.848805646036915 40.902178176938165  C 46.07002325754711 40.48884067340472  44.25931729067753 39.99659541903776  42.41701566620134 39.42430060906369  C 40.574568956605 38.82016201088201  38.77987678945573 38.15180510450741  37.032728400806576 37.42048105708682  C 35.41382484441952 36.700278093990335  33.90865157292909 35.936536231759135  32.51609275632077 35.13137194177764  C 32.51609275632077 35.13137194177764  46.70583217000155 35.13137194177764  46.70583217000155 35.13137194177764  L 46.70583217000155 30  L 27.884093376764383 30  L 27.884093376764383 28  L 45.41938110749186 28  L 45.41938110749186 24  L 29.027066852799756 24  L 29.027066852799756 23  L 41.750038777726076 23  L 41.750038777726076 19  L 29.027066852799756 19  L 29.027066852799756 17  L 41.65503334884442 17  L 41.65503334884442 13  L 29.027066852799756 13  L 29.027066852799756 11  L 44.03695517294866 11  L 44.03695517294866 6.4180448023123775  Z " stroke-width="0" stroke-dasharray="0" stroke="rgba(121, 121, 121, 1)" fill="none" transform="matrix(1 0 0 1 283 375 )" class="stroke" mask="url(#Clip4785)" />
    <path d="M 45.029664960446716 5.424383193971302  L 45.029664960446716 11.848250232270052  L 42.647743136342484 11.848250232270052  L 42.647743136342484 18  L 30.019776640297813 18  L 42.74274856522414 18  L 42.74274856522414 23  L 30.019776640297813 23  L 46.412090894989916 23  L 46.412090894989916 29.606069990709198  L 47.698541957499614 29.606069990709198  L 47.698541957499614 36.125033550118715  C 47.698541957499614 36.125033550118715  36.58678455095393 36.125033550118715  36.58678455095393 36.125033550118715  C 36.86268251589773 36.25362901290873  37.14210068844854 36.38127724592489  37.425352877307276 36.50736037989058  C 39.14467095774016 37.2267334564042  40.911572578989926 37.88411870779016  42.726268031642626 38.4791576339424  C 44.54216227081 39.04289973182084  46.324020913539606 39.528148252208176  48.07371645726695 39.93471663053577  C 48.07371645726695 39.93471663053577  50 40.382058428822134  50 40.382058428822134  C 50 40.382058428822134  48.49057701256398 41.661009600495504  48.49057701256398 41.661009600495504  C 48.13717359421844 41.96032973740681  47.75281219458754 42.3548861115614  47.33984799131379 42.85553835036647  C 46.904310241528805 43.41623725438249  46.48456422602536 43.977241887383705  46.080541337056 44.537194177764015  C 45.6812579446529 45.090600894673194  45.36877517203166 45.56879996918692  45.13727315030246 45.97431609373387  C 45.13727315030246 45.97431609373387  44.75337366216845 46.6477547228244  44.75337366216845 46.6477547228244  C 44.75337366216845 46.6477547228244  44.006902435241194 46.43815422731496  44.006902435241194 46.43815422731496  C 42.157750923318865 45.91859085620145  40.27963043350165 45.26965863812729  38.373468279820074 44.49352740786621  C 38.373468279820074 44.49352740786621  38.368621064060804 44.49158666253742  38.368621064060804 44.49158666253742  C 36.495367197800334 43.715703415085535  34.65427891568692 42.8428091386874  32.84667287110284 41.873521213998146  C 32.84667287110284 41.873521213998146  32.84085621219172 41.87061009600495  32.84085621219172 41.87061009600495  C 31.462274796651723 41.11793482939845  30.141304954551295 40.32351192042372  28.876803164262448 39.49125632290699  C 28.876803164262448 39.49125632290699  28.876803164262448 47  28.876803164262448 47  L 21.221110594074762 47  C 21.221110594074762 47  21.221110594074762 39.71735315371116  21.221110594074762 39.71735315371116  C 19.971051991993612 40.552905376769445  18.648851293176573 41.35060015446361  17.255118659841788 42.10932177144627  C 17.255118659841788 42.10932177144627  17.243485342019543 42.11611438009704  17.243485342019543 42.11611438009704  C 17.243485342019543 42.11611438009704  17.24251589886769 42.11514400743264  17.24251589886769 42.11514400743264  C 15.403617857703317 43.08388467605384  13.53192182221079 43.95681691686103  11.627501163331782 44.732239083307526  C 9.721461373446468 45.50830611166625  7.844073646324114 46.15733481027448  5.99503645106251 46.67686590275627  C 5.99503645106251 46.67686590275627  5.284434620753839 46.875792298957364  5.284434620753839 46.875792298957364  C 5.284434620753839 46.875792298957364  4.88890181479758 46.252813048415405  4.88890181479758 46.252813048415405  C 4.461722819957139 45.58090869080138  3.906756022817057 44.77761342243672  3.220490150457577 43.840466604727986  C 3.220490150457577 43.840466604727986  2.723165813556693 43.20487250954888  2.723165813556693 43.20487250954888  C 2.2383885881374543 42.60554088073901  1.7889203591847467 42.112056896863024  1.3746703893283698 41.719231960359245  C 1.3746703893283698 41.719231960359245  0 40.41602147207598  0 40.41602147207598  C 0 40.41602147207598  1.8526058631921825 40.02593166098895  1.8526058631921825 40.02593166098895  C 3.62829898001705 39.651743133062915  5.437743558391076 39.183129834926966  7.280518070420351 38.62083204294415  C 9.12635108565515 38.025839372959574  10.908097660188362 37.368832699580864  12.626027609740964 36.65000516155673  C 12.626027609740964 36.65000516155673  13.274585078331006 36.367626716217615  13.274585078331006 36.367626716217615  C 13.45444388291217 36.28765826437438  13.632126706541833 36.20597404038142  13.808748255002326 36.125033550118715  C 13.808748255002326 36.125033550118715  2.636885373041725 36.125033550118715  2.636885373041725 36.125033550118715  L 2.636885373041725 29.606069990709198  L 8.117147510469987 29.606069990709198  C 8.117147510469987 29.606069990709198  8.117147510469987 17.890760813461338  8.117147510469987 17.890760813461338  C 7.7385850778860465 18.208258439724915  7.354707867300046 18.52490121528954  6.961571273460525 18.835903788582637  C 6.961571273460525 18.835903788582637  6.131727935473863 19.491875709714048  6.131727935473863 19.491875709714048  C 6.131727935473863 19.491875709714048  5.529703738172794 18.621451429751215  5.529703738172794 18.621451429751215  C 5.286938448515866 18.270492707763747  4.947710162967938 17.871024917692324  4.500155110904296 17.42304118922267  C 4.500155110904296 17.42304118922267  4.477857918411664 17.40072261794157  4.477857918411664 17.40072261794157  C 4.030619870235111 16.923212144366726  3.5532703875977623 16.474917089974802  3.0459903831239337 16.05675647775369  C 3.0459903831239337 16.05675647775369  3.0217543043275943 16.036378651801382  3.0217543043275943 16.036378651801382  C 3.0217543043275943 16.036378651801382  2.998487668683109 16.015030453184682  2.998487668683109 16.015030453184682  C 2.5197445227597988 15.565777138018616  2.1124952353857203 15.246691906502633  1.7750504110438965 15.038835552802725  C 1.7750504110438965 15.038835552802725  0.5012021095082985 14.254774439971094  0.5012021095082985 14.254774439971094  C 0.5012021095082985 14.254774439971094  1.718822708236389 13.384350160008259  1.718822708236389 13.384350160008259  C 3.4535409943048245 12.144073764190248  5.013293607560021 10.81427764719308  6.399294245385451 9.396118509342417  C 7.830531855636888 7.93235505451491  9.08478514545737 6.457786845954145  10.16558089033659 4.974130277691752  C 11.250910012689102 3.452498758000413  12.125661633117117 2.0214698631622925  12.79568016131534 0.6802312377413028  C 12.79568016131534 0.6802312377413028  13.135954707615946 0  13.135954707615946 0  L 21.15228013029316 1.6176112315474347  C 21.15228013029316 1.6176112315474347  20.449433845199316 2.818932590069165  20.449433845199316 2.818932590069165  C 19.93851913894741 3.6913279395065555  19.40252612649294 4.559728556554532  18.843066542577944 5.424383193971302  C 18.843066542577944 5.424383193971302  23.13963859159299 5.424383193971302  23.13963859159299 5.424383193971302  C 23.29063165533611 5.104402363685504  23.442752812099915 4.774229392560382  23.596246316116023 4.434603076287808  C 24.186089931208162 3.1294601344343578  24.628694426908 1.9653954241388265  24.930200093066542 0.9393207391349231  C 24.930200093066542 0.9393207391349231  25.168683108422524 0.1280891917002168  25.168683108422524 0.1280891917002168  L 33.856832635334264 1.2236399298028284  C 33.856832635334264 1.2236399298028284  33.19470296261827 2.4909466295034584  33.19470296261827 2.4909466295034584  C 32.671516197160805 3.4927715926467173  32.12223180194261 4.469853888880151  31.550527377074612 5.424383193971302  C 31.550527377074612 5.424383193971302  45.029664960446716 5.424383193971302  45.029664960446716 5.424383193971302  Z " stroke-width="0" stroke-dasharray="0" stroke="rgba(121, 121, 121, 1)" fill="none" transform="matrix(1 0 0 1 283 375 )" class="stroke" mask="url(#Clip4785)" />
  </g>
  <style>svg { filter: drop-shadow(0px 4px 2px rgba(0, 0, 0, 0.12941176470588237)); }</style>
</svg>