<?xml version="1.0" encoding="utf-8"?>
<svg version="1.1" xmlns:xlink="http://www.w3.org/1999/xlink" width="22px" height="22px" xmlns="http://www.w3.org/2000/svg">
  <defs>
    <pattern id="BGPattern" patternUnits="userSpaceOnUse" alignment="0 0" imageRepeat="None" />
    <mask fill="white" id="Clip4818">
      <path d="M 4.195017094844269 9  L 4.195017094844269 7.277848153033303  L 18.114844221143603 7.277848153033303  L 18.114844221143603 9  L 4.195017094844269 9  Z M 11.059589661743539 14.627038715402236  L 11.059589661743539 12.962165758585304  L 19.09208966949279 12.962165758585304  L 19.09208966949279 14.627038715402236  L 11.059589661743539 14.627038715402236  Z M 10.130011396562846 19.930813066748964  L 10.130011396562846 8.134062914332885  L 12 8.134062914332885  L 12 20.192442224511804  L 10.130011396562846 19.930813066748964  Z M 3.027085865472341 16.743782214435505  C 3.742145705176533 15.078917054551553  4.218852343906868 13.168289495525118  4.4572055448807255 11.0118929217767  C 4.4572055448807255 11.0118929217767  6.316360180981138 11.22595039243274  6.316360180981138 11.22595039243274  C 5.982665746974263 13.620185318705973  5.4265081201801815 15.721086749406659  4.647887537381518 17.528654566399453  C 3.8692671913654766 19.336222501527597  2.8125667296479744 20.826666490251213  1.4777887568378514 22  C 1.3824475238048333 21.88900900509245  1.2394363846031713 21.75424457084306  1.0487538001458236 21.595686023565897  C 0.8739614606577494 21.45298330738938  0.6912239986850384 21.302343845045257  0.5005414142276909 21.143785238700417  C 0.30985888896599867 21.001082522523898  0.14301196794083845 20.88216299185545  0 20.787027828048544  C 1.318887727840849 19.756396975408602  2.327916625911355 18.408647374319454  3.027085865472341 16.743782214435505  Z M 4.147346123153827 14.650809437631064  C 4.147346123153827 14.650809437631064  5.601299394146459 14.080009677647727  5.601299394146459 14.080009677647727  C 6.014444816217078 15.300910857901478  6.5547117244766415 16.28397191360019  7.222101066055635 17.029197215751747  C 7.889489934069386 17.774422517903304  8.660168117383565 18.345230192954975  9.534129933215246 18.74162673835091  C 10.408091275481684 19.138023195145333  11.36944813633995 19.40756709636717  12.418202883616262 19.55026981254369  C 13.482846691948737 19.692972543487127  14.62694338260593 19.764327283199727  15.850490114196385 19.764327283199727  C 16.025282098510527 19.764327283199727  16.311304140131227 19.764327283199727  16.70856002758044 19.764327283199727  C 17.105814967899164 19.764327283199727  17.550742774169308 19.764327283199727  18.043339657868916 19.764327283199727  C 18.551826549755177 19.764327283199727  19.068256077908543 19.764327283199727  19.592632977981456 19.764327283199727  C 20.11700987805437 19.764327283199727  20.593718647828297 19.764327283199727  21.022754551650813 19.764327283199727  C 21.45179045547333 19.764327283199727  21.777537043995416 19.75639730028081  22 19.740541439646325  C 21.920549011936256 19.883244170589762  21.833153493344426 20.0655884580519  21.737811549963546 20.287570477400838  C 21.642470553713146 20.509552496749773  21.555074087990832 20.731531592248842  21.475623099927088 20.95351361159778  C 21.412062120049995 21.175495660480554  21.364390201229067 21.373699958081282  21.332610184855763 21.548114336459093  C 21.332610184855763 21.548114336459093  20.140847258160562 21.548114336459093  20.140847258160562 21.548114336459093  C 20.140847258160562 21.548114336459093  15.7551481708155 21.548114336459093  15.7551481708155 21.548114336459093  C 14.340919446724254 21.548114336459093  13.029974355150514 21.452984725013557  11.82231763174671 21.262714456467425  C 10.630551863660049 21.088300019021936  9.55001757357568 20.75531625444876  8.580714287928357 20.263784633847436  C 7.62730148403293 19.772253013246107  6.777176101176956 19.07459582460707  6.030336245099461 18.170811857043  C 5.283496152239344 17.267028007614275  4.655833015040088 16.093692607699914  4.147346123153827 14.650809437631064  Z M 10.10617401645665 3.852973986510404  L 10.10617401645665 0  L 11.989167926924233 0  L 11.989167926924233 3.852973986510404  L 10.10617401645665 3.852973986510404  Z M 1.1202602576814864 7.920005443676846  L 1.1202602576814864 3  L 21.046588143235063 3  L 21.046588143235063 7.920005443676846  L 19.211268992979868 7.920005443676846  L 19.211268992979868 4.4475747113717174  L 2.884072950401015 4.4475747113717174  L 2.884072950401015 7.920005443676846  L 1.1202602576814864 7.920005443676846  Z " fill-rule="evenodd" />
    </mask>
  </defs>
  <g transform="matrix(1 0 0 1 -165 -612 )">
    <path d="M 4.195017094844269 9  L 4.195017094844269 7.277848153033303  L 18.114844221143603 7.277848153033303  L 18.114844221143603 9  L 4.195017094844269 9  Z M 11.059589661743539 14.627038715402236  L 11.059589661743539 12.962165758585304  L 19.09208966949279 12.962165758585304  L 19.09208966949279 14.627038715402236  L 11.059589661743539 14.627038715402236  Z M 10.130011396562846 19.930813066748964  L 10.130011396562846 8.134062914332885  L 12 8.134062914332885  L 12 20.192442224511804  L 10.130011396562846 19.930813066748964  Z M 3.027085865472341 16.743782214435505  C 3.742145705176533 15.078917054551553  4.218852343906868 13.168289495525118  4.4572055448807255 11.0118929217767  C 4.4572055448807255 11.0118929217767  6.316360180981138 11.22595039243274  6.316360180981138 11.22595039243274  C 5.982665746974263 13.620185318705973  5.4265081201801815 15.721086749406659  4.647887537381518 17.528654566399453  C 3.8692671913654766 19.336222501527597  2.8125667296479744 20.826666490251213  1.4777887568378514 22  C 1.3824475238048333 21.88900900509245  1.2394363846031713 21.75424457084306  1.0487538001458236 21.595686023565897  C 0.8739614606577494 21.45298330738938  0.6912239986850384 21.302343845045257  0.5005414142276909 21.143785238700417  C 0.30985888896599867 21.001082522523898  0.14301196794083845 20.88216299185545  0 20.787027828048544  C 1.318887727840849 19.756396975408602  2.327916625911355 18.408647374319454  3.027085865472341 16.743782214435505  Z M 4.147346123153827 14.650809437631064  C 4.147346123153827 14.650809437631064  5.601299394146459 14.080009677647727  5.601299394146459 14.080009677647727  C 6.014444816217078 15.300910857901478  6.5547117244766415 16.28397191360019  7.222101066055635 17.029197215751747  C 7.889489934069386 17.774422517903304  8.660168117383565 18.345230192954975  9.534129933215246 18.74162673835091  C 10.408091275481684 19.138023195145333  11.36944813633995 19.40756709636717  12.418202883616262 19.55026981254369  C 13.482846691948737 19.692972543487127  14.62694338260593 19.764327283199727  15.850490114196385 19.764327283199727  C 16.025282098510527 19.764327283199727  16.311304140131227 19.764327283199727  16.70856002758044 19.764327283199727  C 17.105814967899164 19.764327283199727  17.550742774169308 19.764327283199727  18.043339657868916 19.764327283199727  C 18.551826549755177 19.764327283199727  19.068256077908543 19.764327283199727  19.592632977981456 19.764327283199727  C 20.11700987805437 19.764327283199727  20.593718647828297 19.764327283199727  21.022754551650813 19.764327283199727  C 21.45179045547333 19.764327283199727  21.777537043995416 19.75639730028081  22 19.740541439646325  C 21.920549011936256 19.883244170589762  21.833153493344426 20.0655884580519  21.737811549963546 20.287570477400838  C 21.642470553713146 20.509552496749773  21.555074087990832 20.731531592248842  21.475623099927088 20.95351361159778  C 21.412062120049995 21.175495660480554  21.364390201229067 21.373699958081282  21.332610184855763 21.548114336459093  C 21.332610184855763 21.548114336459093  20.140847258160562 21.548114336459093  20.140847258160562 21.548114336459093  C 20.140847258160562 21.548114336459093  15.7551481708155 21.548114336459093  15.7551481708155 21.548114336459093  C 14.340919446724254 21.548114336459093  13.029974355150514 21.452984725013557  11.82231763174671 21.262714456467425  C 10.630551863660049 21.088300019021936  9.55001757357568 20.75531625444876  8.580714287928357 20.263784633847436  C 7.62730148403293 19.772253013246107  6.777176101176956 19.07459582460707  6.030336245099461 18.170811857043  C 5.283496152239344 17.267028007614275  4.655833015040088 16.093692607699914  4.147346123153827 14.650809437631064  Z M 10.10617401645665 3.852973986510404  L 10.10617401645665 0  L 11.989167926924233 0  L 11.989167926924233 3.852973986510404  L 10.10617401645665 3.852973986510404  Z M 1.1202602576814864 7.920005443676846  L 1.1202602576814864 3  L 21.046588143235063 3  L 21.046588143235063 7.920005443676846  L 19.211268992979868 7.920005443676846  L 19.211268992979868 4.4475747113717174  L 2.884072950401015 4.4475747113717174  L 2.884072950401015 7.920005443676846  L 1.1202602576814864 7.920005443676846  Z " fill-rule="nonzero" fill="rgba(0, 0, 0, 1)" stroke="none" transform="matrix(1 0 0 1 165 612 )" class="fill" />
    <path d="M 4.195017094844269 9  L 4.195017094844269 7.277848153033303  L 18.114844221143603 7.277848153033303  L 18.114844221143603 9  L 4.195017094844269 9  Z " stroke-width="0" stroke-dasharray="0" stroke="rgba(121, 121, 121, 1)" fill="none" transform="matrix(1 0 0 1 165 612 )" class="stroke" mask="url(#Clip4818)" />
    <path d="M 11.059589661743539 14.627038715402236  L 11.059589661743539 12.962165758585304  L 19.09208966949279 12.962165758585304  L 19.09208966949279 14.627038715402236  L 11.059589661743539 14.627038715402236  Z " stroke-width="0" stroke-dasharray="0" stroke="rgba(121, 121, 121, 1)" fill="none" transform="matrix(1 0 0 1 165 612 )" class="stroke" mask="url(#Clip4818)" />
    <path d="M 10.130011396562846 19.930813066748964  L 10.130011396562846 8.134062914332885  L 12 8.134062914332885  L 12 20.192442224511804  L 10.130011396562846 19.930813066748964  Z " stroke-width="0" stroke-dasharray="0" stroke="rgba(121, 121, 121, 1)" fill="none" transform="matrix(1 0 0 1 165 612 )" class="stroke" mask="url(#Clip4818)" />
    <path d="M 3.027085865472341 16.743782214435505  C 3.742145705176533 15.078917054551553  4.218852343906868 13.168289495525118  4.4572055448807255 11.0118929217767  C 4.4572055448807255 11.0118929217767  6.316360180981138 11.22595039243274  6.316360180981138 11.22595039243274  C 5.982665746974263 13.620185318705973  5.4265081201801815 15.721086749406659  4.647887537381518 17.528654566399453  C 3.8692671913654766 19.336222501527597  2.8125667296479744 20.826666490251213  1.4777887568378514 22  C 1.3824475238048333 21.88900900509245  1.2394363846031713 21.75424457084306  1.0487538001458236 21.595686023565897  C 0.8739614606577494 21.45298330738938  0.6912239986850384 21.302343845045257  0.5005414142276909 21.143785238700417  C 0.30985888896599867 21.001082522523898  0.14301196794083845 20.88216299185545  0 20.787027828048544  C 1.318887727840849 19.756396975408602  2.327916625911355 18.408647374319454  3.027085865472341 16.743782214435505  Z " stroke-width="0" stroke-dasharray="0" stroke="rgba(121, 121, 121, 1)" fill="none" transform="matrix(1 0 0 1 165 612 )" class="stroke" mask="url(#Clip4818)" />
    <path d="M 4.147346123153827 14.650809437631064  C 4.147346123153827 14.650809437631064  5.601299394146459 14.080009677647727  5.601299394146459 14.080009677647727  C 6.014444816217078 15.300910857901478  6.5547117244766415 16.28397191360019  7.222101066055635 17.029197215751747  C 7.889489934069386 17.774422517903304  8.660168117383565 18.345230192954975  9.534129933215246 18.74162673835091  C 10.408091275481684 19.138023195145333  11.36944813633995 19.40756709636717  12.418202883616262 19.55026981254369  C 13.482846691948737 19.692972543487127  14.62694338260593 19.764327283199727  15.850490114196385 19.764327283199727  C 16.025282098510527 19.764327283199727  16.311304140131227 19.764327283199727  16.70856002758044 19.764327283199727  C 17.105814967899164 19.764327283199727  17.550742774169308 19.764327283199727  18.043339657868916 19.764327283199727  C 18.551826549755177 19.764327283199727  19.068256077908543 19.764327283199727  19.592632977981456 19.764327283199727  C 20.11700987805437 19.764327283199727  20.593718647828297 19.764327283199727  21.022754551650813 19.764327283199727  C 21.45179045547333 19.764327283199727  21.777537043995416 19.75639730028081  22 19.740541439646325  C 21.920549011936256 19.883244170589762  21.833153493344426 20.0655884580519  21.737811549963546 20.287570477400838  C 21.642470553713146 20.509552496749773  21.555074087990832 20.731531592248842  21.475623099927088 20.95351361159778  C 21.412062120049995 21.175495660480554  21.364390201229067 21.373699958081282  21.332610184855763 21.548114336459093  C 21.332610184855763 21.548114336459093  20.140847258160562 21.548114336459093  20.140847258160562 21.548114336459093  C 20.140847258160562 21.548114336459093  15.7551481708155 21.548114336459093  15.7551481708155 21.548114336459093  C 14.340919446724254 21.548114336459093  13.029974355150514 21.452984725013557  11.82231763174671 21.262714456467425  C 10.630551863660049 21.088300019021936  9.55001757357568 20.75531625444876  8.580714287928357 20.263784633847436  C 7.62730148403293 19.772253013246107  6.777176101176956 19.07459582460707  6.030336245099461 18.170811857043  C 5.283496152239344 17.267028007614275  4.655833015040088 16.093692607699914  4.147346123153827 14.650809437631064  Z " stroke-width="0" stroke-dasharray="0" stroke="rgba(121, 121, 121, 1)" fill="none" transform="matrix(1 0 0 1 165 612 )" class="stroke" mask="url(#Clip4818)" />
    <path d="M 10.10617401645665 3.852973986510404  L 10.10617401645665 0  L 11.989167926924233 0  L 11.989167926924233 3.852973986510404  L 10.10617401645665 3.852973986510404  Z " stroke-width="0" stroke-dasharray="0" stroke="rgba(121, 121, 121, 1)" fill="none" transform="matrix(1 0 0 1 165 612 )" class="stroke" mask="url(#Clip4818)" />
    <path d="M 1.1202602576814864 7.920005443676846  L 1.1202602576814864 3  L 21.046588143235063 3  L 21.046588143235063 7.920005443676846  L 19.211268992979868 7.920005443676846  L 19.211268992979868 4.4475747113717174  L 2.884072950401015 4.4475747113717174  L 2.884072950401015 7.920005443676846  L 1.1202602576814864 7.920005443676846  Z " stroke-width="0" stroke-dasharray="0" stroke="rgba(121, 121, 121, 1)" fill="none" transform="matrix(1 0 0 1 165 612 )" class="stroke" mask="url(#Clip4818)" />
  </g>
</svg>