<?xml version="1.0" encoding="utf-8"?>
<svg version="1.1" xmlns:xlink="http://www.w3.org/1999/xlink" width="22px" height="22px" xmlns="http://www.w3.org/2000/svg">
  <defs>
    <pattern id="BGPattern" patternUnits="userSpaceOnUse" alignment="0 0" imageRepeat="None" />
    <mask fill="white" id="Clip4822">
      <path d="M 10.095251725694407 13.887200287412398  L 10.095251725694407 11.596527605864372  L 11.904748274305595 11.596527605864372  L 11.904748274305595 13.887200287412398  L 10.095251725694407 13.887200287412398  Z M 8.119059152510651 14.889372430062178  C 8.89683643334471 14.459871302271925  9.547646505124789 14.022417266361922  10.071455308092872 13.577008663056544  C 10.071455308092872 13.577008663056544  11.500027523036781 14.221255139875643  11.500027523036781 14.221255139875643  C 10.880980540868958 14.7621083592324  10.16666179279557 15.279105224623684  9.357138925280461 15.772236017435064  C 8.54761605776535 16.24945933473132  7.674586879217905 16.6948618935326  6.738079772769809 17.108455427288042  C 5.801573139373906 17.506141485528357  4.849188509063336 17.864060751295874  3.880935342881992 18.18220966899994  C 2.9126824132267455 18.484451051929035  1.9602977829161756 18.738967934218213  1.023790912994176 18.945764701095932  C 0.9126799404539099 18.738967934218213  0.7539692734537558 18.500362675633248  0.5476203582398468 18.229936125214714  C 0.3571443546295124 17.959509634056026  0.17460297374371098 17.744756581247444  0 17.585682063135568  C 0.9206338400553763 17.42660766354338  1.857171694896128 17.211854610734797  2.809551594684751 16.941428001056423  C 3.777804524339998 16.671001628417418  4.70635844076492 16.368765282575072  5.59524622108705 16.034708770836193  C 6.5000072678019 15.684745020621564  7.341282344728787 15.302965845297932  8.119059152510651 14.889372430062178  Z M 10.595218698050267 13.863337059305012  C 10.595218698050267 13.863337059305012  12.095240716479694 13.505418978734378  12.095240716479694 13.505418978734378  C 12.841272410632701 15.382497533928523  14.055552927487806 16.925525147809136  15.738090781984521 18.13449079804521  C 17.420628636481236 19.327549091285846  19.507939277988175 20.138826668446903  22 20.56832767771747  C 21.80952364160052 20.727402106939582  21.6190595825581 20.950103415970144  21.428583224158622 21.23643738264396  C 21.23810781186353 21.538678884092743  21.087320532598284 21.793203292382124  20.976209087005824 22  C 19.230179113042617 21.650036249785373  17.68250843925115 21.10917947483797  16.333303975427434 20.377437023378462  C 14.999972304944237 19.66160204743408  13.85712266948686 18.762833591979206  12.904742769698238 17.681127390305072  C 11.952362869909615 16.58351371311581  11.182520093537041 15.310914249669525  10.595218698050267 13.863337059305012  Z M 17.66662996928429 15.67679069026556  C 18.238058098378342 15.32682694005093  18.722234588475555 15.00072309939242  19.11905915251065 14.69848177572317  C 19.11905915251065 14.69848177572317  20.428588728765977 15.652927462158173  20.428588728765977 15.652927462158173  C 19.68255798071736 16.177873205999802  18.84128290379047 16.686914318798827  17.904775797342378 17.180045111610205  C 16.984142430339194 17.673175904421587  16.12695955420937 18.086762919594175  15.333309480034789 18.420819194293678  C 15.333309480034789 18.420819194293678  14.214272345953564 17.53796319218084  14.214272345953564 17.53796319218084  C 14.738081148921648 17.283444058017587  15.301613090781984 16.99710404683967  15.904786806557087 16.678955247655292  C 16.50796052233219 16.34489897295579  17.09520184019024 16.01084720200444  17.66662996928429 15.67679069026556  Z M 3.619053647903295 21.761382889446214  C 3.619053647903295 21.761382889446214  3.3095185670406133 20.258136053361614  3.3095185670406133 20.258136053361614  C 4.103168641215197 20.146783946980154  5.023798933379113 20.019521742835465  6.07141677584138 19.876354744683592  C 7.119034854829742 19.71728030064652  8.230190466295289 19.542298558873856  9.404792311164444 19.351409237881338  C 10.595266949374126 19.160519916888823  11.785717934974073 18.977582378079013  12.976192573183756 18.8026005029717  C 12.976192573183756 18.8026005029717  13.047642376669272 20.234272825254227  13.047642376669272 20.234272825254227  C 11.365104522172558 20.50469937567276  9.690477519527594 20.77512773351654  8.0238129314236 21.045554313564995  C 6.357147870267414 21.33188828023881  4.888893435446093 21.570493538823772  3.619053647903295 21.761382889446214  Z M 0.4047813019497319 14.507591121384158  L 0.4047813019497319 13  L 21.619015115651802 13  L 21.619015115651802 14.507591121384158  L 0.4047813019497319 14.507591121384158  Z M 13.59526273490912 8.9718000718531  L 13.59526273490912 0.9305900435876624  L 15.238063258947738 0.9305900435876624  L 15.238063258947738 8.9718000718531  L 13.59526273490912 8.9718000718531  Z M 19.047609349025134 10.188718511689231  C 19.047609349025134 10.188718511689231  19.047609349025134 0.23861711055378604  19.047609349025134 0.23861711055378604  L 20.690470423744674 0.23861711055378604  C 20.690470423744674 0.23861711055378604  20.690470423744674 10.188718511689231  20.690470423744674 10.188718511689231  C 20.690470423744674 10.650034590509737  20.62696222050356 10.999998103684987  20.499977981570574 11.23860952529374  C 20.388866535978114 11.477221420981245  20.158723804949744 11.660158930161133  19.809518567040612 11.787418260203381  C 19.47618517636762 11.914677590245631  19.023824284676273 11.99421283446687  18.45239615558222 12.02602778549712  C 17.896841765933086 12.041935498051622  17.198430344010436 12.049891013604508  16.357160943709886 12.049891013604508  C 16.325415357028835 11.827186830471506  16.253983529526714 11.580618471073612  16.142872083934254 11.310191624355857  C 16.03176158444618 11.023858013241107  15.912667856120573 10.769341249471617  15.785683617187585 10.546636592259862  C 16.436476659088658 10.562544304814365  17.023778527627623 10.578455809998891  17.54758733059571 10.594363048474639  C 18.07139613356379 10.594363048474639  18.420631646813383 10.586407058843  18.59523521187234 10.57049982036725  C 18.7698378308269 10.57049982036725  18.888871008471593 10.546639910811134  18.952363127938085 10.498917721305133  C 19.01585524740458 10.435287819244632  19.047609349025134 10.331885554285982  19.047609349025134 10.188718511689231  Z M 6 12.121473112666626  L 6 0  L 7.261903713408122 0  L 7.261903713408122 12.121473112666626  L 6 12.121473112666626  Z M 10.14284456089747 9.926245758288104  C 10.14284456089747 9.926245758288104  10.14284456089747 6.991326599920975  10.14284456089747 6.991326599920975  L 11.642866579326896 6.991326599920975  C 11.642866579326896 6.991326599920975  11.642866579326896 9.926245758288104  11.642866579326896 9.926245758288104  C 11.642866579326896 10.260302032987607  11.603188853445333 10.522774786388734  11.523823940638314 10.713664018491485  C 11.444459027831295 10.888646012118487  11.277763949363116 11.02386370218614  11.023796417601531 11.119308555276891  C 10.785701206128278 11.230660646843393  10.484127120649983 11.294284385880108  10.119048143295938 11.310191624355857  C 9.753969165941893 11.326099336910358  9.301607801198353 11.334054852463245  8.761925731837549 11.334054852463245  C 8.730179672104303 11.159072858836241  8.666670995810993 10.968187419363515  8.571433289663448 10.76139047470626  C 8.476195110463708 10.554594004127761  8.38093280560204 10.363700505316233  8.285694626402298 10.188718511689231  C 8.682519663489591 10.204625750164979  9.015847850588441 10.212581739796619  9.285689121794942 10.212581739796619  C 9.571402713289775 10.212581739796619  9.769851893378508 10.204625750164979  9.880962865918773 10.188718511689231  C 10.055565957925534 10.188718511689231  10.14284456089747 10.101227751915106  10.14284456089747 9.926245758288104  Z M 1.5000220184294255 11.477226635847526  L 1.5000220184294255 6.991326599920975  L 10.833364526108353 6.991326599920975  L 10.833364526108353 8.208245039757106  L 2.9285942333733335 8.208245039757106  L 2.9285942333733335 11.477226635847526  L 1.5000220184294255 11.477226635847526  Z M 0.30953508086268205 6  L 0.30953508086268205 4.438181164971821  L 12.333325993856858 4.438181164971821  L 12.333325993856858 6  L 0.30953508086268205 6  Z M 2.285727654046437 2.958789971734563  L 2.7856946264022984 1.694145075683656  L 11.500027523036781 1.694145075683656  L 11.500027523036781 2.958789971734563  L 2.285727654046437 2.958789971734563  Z M 1.7619037134081226 2.0281999281469  C 2.0952366310289214 1.3759946172236432  2.36511716556758 0.7237940470879152  2.5714663173075865 0.07158968432216392  C 2.5714663173075865 0.07158968432216392  3.976181563969042 0.4056445367854081  3.976181563969042 0.4056445367854081  C 3.722213559155263 1.1373869882449157  3.412715849415961 1.8611743982302897  3.047636872061916 2.5770086630565427  C 2.698430924574494 3.292843876040301  2.333348162802891 3.9052796685379274  1.9523961555822222 4.414317936864433  C 1.809539241571758 4.302965371219179  1.6031670285372608 4.183658712257298  1.3333259938568582 4.0563998562938  C 1.0634850774395044 3.913232813697049  0.833342582937231 3.793927102892673  0.6428665793268966 3.698481775723168  C 1.0714375578843867 3.2212589325056666  1.4444438256539474 2.6644980005944086  1.7619037134081226 2.0281999281469  Z M 5.761881694978697 20.87851930207333  L 5.761881694978697 16.965291229163807  L 6.690486937566743 16.034708770836193  L 7.499988990785287 16.29718152423732  L 7.499988990785287 20.87851930207333  L 5.761881694978697 20.87851930207333  Z " fill-rule="evenodd" />
    </mask>
  </defs>
  <g transform="matrix(1 0 0 1 -873 -581 )">
    <path d="M 10.095251725694407 13.887200287412398  L 10.095251725694407 11.596527605864372  L 11.904748274305595 11.596527605864372  L 11.904748274305595 13.887200287412398  L 10.095251725694407 13.887200287412398  Z M 8.119059152510651 14.889372430062178  C 8.89683643334471 14.459871302271925  9.547646505124789 14.022417266361922  10.071455308092872 13.577008663056544  C 10.071455308092872 13.577008663056544  11.500027523036781 14.221255139875643  11.500027523036781 14.221255139875643  C 10.880980540868958 14.7621083592324  10.16666179279557 15.279105224623684  9.357138925280461 15.772236017435064  C 8.54761605776535 16.24945933473132  7.674586879217905 16.6948618935326  6.738079772769809 17.108455427288042  C 5.801573139373906 17.506141485528357  4.849188509063336 17.864060751295874  3.880935342881992 18.18220966899994  C 2.9126824132267455 18.484451051929035  1.9602977829161756 18.738967934218213  1.023790912994176 18.945764701095932  C 0.9126799404539099 18.738967934218213  0.7539692734537558 18.500362675633248  0.5476203582398468 18.229936125214714  C 0.3571443546295124 17.959509634056026  0.17460297374371098 17.744756581247444  0 17.585682063135568  C 0.9206338400553763 17.42660766354338  1.857171694896128 17.211854610734797  2.809551594684751 16.941428001056423  C 3.777804524339998 16.671001628417418  4.70635844076492 16.368765282575072  5.59524622108705 16.034708770836193  C 6.5000072678019 15.684745020621564  7.341282344728787 15.302965845297932  8.119059152510651 14.889372430062178  Z M 10.595218698050267 13.863337059305012  C 10.595218698050267 13.863337059305012  12.095240716479694 13.505418978734378  12.095240716479694 13.505418978734378  C 12.841272410632701 15.382497533928523  14.055552927487806 16.925525147809136  15.738090781984521 18.13449079804521  C 17.420628636481236 19.327549091285846  19.507939277988175 20.138826668446903  22 20.56832767771747  C 21.80952364160052 20.727402106939582  21.6190595825581 20.950103415970144  21.428583224158622 21.23643738264396  C 21.23810781186353 21.538678884092743  21.087320532598284 21.793203292382124  20.976209087005824 22  C 19.230179113042617 21.650036249785373  17.68250843925115 21.10917947483797  16.333303975427434 20.377437023378462  C 14.999972304944237 19.66160204743408  13.85712266948686 18.762833591979206  12.904742769698238 17.681127390305072  C 11.952362869909615 16.58351371311581  11.182520093537041 15.310914249669525  10.595218698050267 13.863337059305012  Z M 17.66662996928429 15.67679069026556  C 18.238058098378342 15.32682694005093  18.722234588475555 15.00072309939242  19.11905915251065 14.69848177572317  C 19.11905915251065 14.69848177572317  20.428588728765977 15.652927462158173  20.428588728765977 15.652927462158173  C 19.68255798071736 16.177873205999802  18.84128290379047 16.686914318798827  17.904775797342378 17.180045111610205  C 16.984142430339194 17.673175904421587  16.12695955420937 18.086762919594175  15.333309480034789 18.420819194293678  C 15.333309480034789 18.420819194293678  14.214272345953564 17.53796319218084  14.214272345953564 17.53796319218084  C 14.738081148921648 17.283444058017587  15.301613090781984 16.99710404683967  15.904786806557087 16.678955247655292  C 16.50796052233219 16.34489897295579  17.09520184019024 16.01084720200444  17.66662996928429 15.67679069026556  Z M 3.619053647903295 21.761382889446214  C 3.619053647903295 21.761382889446214  3.3095185670406133 20.258136053361614  3.3095185670406133 20.258136053361614  C 4.103168641215197 20.146783946980154  5.023798933379113 20.019521742835465  6.07141677584138 19.876354744683592  C 7.119034854829742 19.71728030064652  8.230190466295289 19.542298558873856  9.404792311164444 19.351409237881338  C 10.595266949374126 19.160519916888823  11.785717934974073 18.977582378079013  12.976192573183756 18.8026005029717  C 12.976192573183756 18.8026005029717  13.047642376669272 20.234272825254227  13.047642376669272 20.234272825254227  C 11.365104522172558 20.50469937567276  9.690477519527594 20.77512773351654  8.0238129314236 21.045554313564995  C 6.357147870267414 21.33188828023881  4.888893435446093 21.570493538823772  3.619053647903295 21.761382889446214  Z M 0.4047813019497319 14.507591121384158  L 0.4047813019497319 13  L 21.619015115651802 13  L 21.619015115651802 14.507591121384158  L 0.4047813019497319 14.507591121384158  Z M 13.59526273490912 8.9718000718531  L 13.59526273490912 0.9305900435876624  L 15.238063258947738 0.9305900435876624  L 15.238063258947738 8.9718000718531  L 13.59526273490912 8.9718000718531  Z M 19.047609349025134 10.188718511689231  C 19.047609349025134 10.188718511689231  19.047609349025134 0.23861711055378604  19.047609349025134 0.23861711055378604  L 20.690470423744674 0.23861711055378604  C 20.690470423744674 0.23861711055378604  20.690470423744674 10.188718511689231  20.690470423744674 10.188718511689231  C 20.690470423744674 10.650034590509737  20.62696222050356 10.999998103684987  20.499977981570574 11.23860952529374  C 20.388866535978114 11.477221420981245  20.158723804949744 11.660158930161133  19.809518567040612 11.787418260203381  C 19.47618517636762 11.914677590245631  19.023824284676273 11.99421283446687  18.45239615558222 12.02602778549712  C 17.896841765933086 12.041935498051622  17.198430344010436 12.049891013604508  16.357160943709886 12.049891013604508  C 16.325415357028835 11.827186830471506  16.253983529526714 11.580618471073612  16.142872083934254 11.310191624355857  C 16.03176158444618 11.023858013241107  15.912667856120573 10.769341249471617  15.785683617187585 10.546636592259862  C 16.436476659088658 10.562544304814365  17.023778527627623 10.578455809998891  17.54758733059571 10.594363048474639  C 18.07139613356379 10.594363048474639  18.420631646813383 10.586407058843  18.59523521187234 10.57049982036725  C 18.7698378308269 10.57049982036725  18.888871008471593 10.546639910811134  18.952363127938085 10.498917721305133  C 19.01585524740458 10.435287819244632  19.047609349025134 10.331885554285982  19.047609349025134 10.188718511689231  Z M 6 12.121473112666626  L 6 0  L 7.261903713408122 0  L 7.261903713408122 12.121473112666626  L 6 12.121473112666626  Z M 10.14284456089747 9.926245758288104  C 10.14284456089747 9.926245758288104  10.14284456089747 6.991326599920975  10.14284456089747 6.991326599920975  L 11.642866579326896 6.991326599920975  C 11.642866579326896 6.991326599920975  11.642866579326896 9.926245758288104  11.642866579326896 9.926245758288104  C 11.642866579326896 10.260302032987607  11.603188853445333 10.522774786388734  11.523823940638314 10.713664018491485  C 11.444459027831295 10.888646012118487  11.277763949363116 11.02386370218614  11.023796417601531 11.119308555276891  C 10.785701206128278 11.230660646843393  10.484127120649983 11.294284385880108  10.119048143295938 11.310191624355857  C 9.753969165941893 11.326099336910358  9.301607801198353 11.334054852463245  8.761925731837549 11.334054852463245  C 8.730179672104303 11.159072858836241  8.666670995810993 10.968187419363515  8.571433289663448 10.76139047470626  C 8.476195110463708 10.554594004127761  8.38093280560204 10.363700505316233  8.285694626402298 10.188718511689231  C 8.682519663489591 10.204625750164979  9.015847850588441 10.212581739796619  9.285689121794942 10.212581739796619  C 9.571402713289775 10.212581739796619  9.769851893378508 10.204625750164979  9.880962865918773 10.188718511689231  C 10.055565957925534 10.188718511689231  10.14284456089747 10.101227751915106  10.14284456089747 9.926245758288104  Z M 1.5000220184294255 11.477226635847526  L 1.5000220184294255 6.991326599920975  L 10.833364526108353 6.991326599920975  L 10.833364526108353 8.208245039757106  L 2.9285942333733335 8.208245039757106  L 2.9285942333733335 11.477226635847526  L 1.5000220184294255 11.477226635847526  Z M 0.30953508086268205 6  L 0.30953508086268205 4.438181164971821  L 12.333325993856858 4.438181164971821  L 12.333325993856858 6  L 0.30953508086268205 6  Z M 2.285727654046437 2.958789971734563  L 2.7856946264022984 1.694145075683656  L 11.500027523036781 1.694145075683656  L 11.500027523036781 2.958789971734563  L 2.285727654046437 2.958789971734563  Z M 1.7619037134081226 2.0281999281469  C 2.0952366310289214 1.3759946172236432  2.36511716556758 0.7237940470879152  2.5714663173075865 0.07158968432216392  C 2.5714663173075865 0.07158968432216392  3.976181563969042 0.4056445367854081  3.976181563969042 0.4056445367854081  C 3.722213559155263 1.1373869882449157  3.412715849415961 1.8611743982302897  3.047636872061916 2.5770086630565427  C 2.698430924574494 3.292843876040301  2.333348162802891 3.9052796685379274  1.9523961555822222 4.414317936864433  C 1.809539241571758 4.302965371219179  1.6031670285372608 4.183658712257298  1.3333259938568582 4.0563998562938  C 1.0634850774395044 3.913232813697049  0.833342582937231 3.793927102892673  0.6428665793268966 3.698481775723168  C 1.0714375578843867 3.2212589325056666  1.4444438256539474 2.6644980005944086  1.7619037134081226 2.0281999281469  Z M 5.761881694978697 20.87851930207333  L 5.761881694978697 16.965291229163807  L 6.690486937566743 16.034708770836193  L 7.499988990785287 16.29718152423732  L 7.499988990785287 20.87851930207333  L 5.761881694978697 20.87851930207333  Z " fill-rule="nonzero" fill="rgba(0, 0, 0, 1)" stroke="none" transform="matrix(1 0 0 1 873 581 )" class="fill" />
    <path d="M 10.095251725694407 13.887200287412398  L 10.095251725694407 11.596527605864372  L 11.904748274305595 11.596527605864372  L 11.904748274305595 13.887200287412398  L 10.095251725694407 13.887200287412398  Z " stroke-width="0" stroke-dasharray="0" stroke="rgba(121, 121, 121, 1)" fill="none" transform="matrix(1 0 0 1 873 581 )" class="stroke" mask="url(#Clip4822)" />
    <path d="M 8.119059152510651 14.889372430062178  C 8.89683643334471 14.459871302271925  9.547646505124789 14.022417266361922  10.071455308092872 13.577008663056544  C 10.071455308092872 13.577008663056544  11.500027523036781 14.221255139875643  11.500027523036781 14.221255139875643  C 10.880980540868958 14.7621083592324  10.16666179279557 15.279105224623684  9.357138925280461 15.772236017435064  C 8.54761605776535 16.24945933473132  7.674586879217905 16.6948618935326  6.738079772769809 17.108455427288042  C 5.801573139373906 17.506141485528357  4.849188509063336 17.864060751295874  3.880935342881992 18.18220966899994  C 2.9126824132267455 18.484451051929035  1.9602977829161756 18.738967934218213  1.023790912994176 18.945764701095932  C 0.9126799404539099 18.738967934218213  0.7539692734537558 18.500362675633248  0.5476203582398468 18.229936125214714  C 0.3571443546295124 17.959509634056026  0.17460297374371098 17.744756581247444  0 17.585682063135568  C 0.9206338400553763 17.42660766354338  1.857171694896128 17.211854610734797  2.809551594684751 16.941428001056423  C 3.777804524339998 16.671001628417418  4.70635844076492 16.368765282575072  5.59524622108705 16.034708770836193  C 6.5000072678019 15.684745020621564  7.341282344728787 15.302965845297932  8.119059152510651 14.889372430062178  Z " stroke-width="0" stroke-dasharray="0" stroke="rgba(121, 121, 121, 1)" fill="none" transform="matrix(1 0 0 1 873 581 )" class="stroke" mask="url(#Clip4822)" />
    <path d="M 10.595218698050267 13.863337059305012  C 10.595218698050267 13.863337059305012  12.095240716479694 13.505418978734378  12.095240716479694 13.505418978734378  C 12.841272410632701 15.382497533928523  14.055552927487806 16.925525147809136  15.738090781984521 18.13449079804521  C 17.420628636481236 19.327549091285846  19.507939277988175 20.138826668446903  22 20.56832767771747  C 21.80952364160052 20.727402106939582  21.6190595825581 20.950103415970144  21.428583224158622 21.23643738264396  C 21.23810781186353 21.538678884092743  21.087320532598284 21.793203292382124  20.976209087005824 22  C 19.230179113042617 21.650036249785373  17.68250843925115 21.10917947483797  16.333303975427434 20.377437023378462  C 14.999972304944237 19.66160204743408  13.85712266948686 18.762833591979206  12.904742769698238 17.681127390305072  C 11.952362869909615 16.58351371311581  11.182520093537041 15.310914249669525  10.595218698050267 13.863337059305012  Z " stroke-width="0" stroke-dasharray="0" stroke="rgba(121, 121, 121, 1)" fill="none" transform="matrix(1 0 0 1 873 581 )" class="stroke" mask="url(#Clip4822)" />
    <path d="M 17.66662996928429 15.67679069026556  C 18.238058098378342 15.32682694005093  18.722234588475555 15.00072309939242  19.11905915251065 14.69848177572317  C 19.11905915251065 14.69848177572317  20.428588728765977 15.652927462158173  20.428588728765977 15.652927462158173  C 19.68255798071736 16.177873205999802  18.84128290379047 16.686914318798827  17.904775797342378 17.180045111610205  C 16.984142430339194 17.673175904421587  16.12695955420937 18.086762919594175  15.333309480034789 18.420819194293678  C 15.333309480034789 18.420819194293678  14.214272345953564 17.53796319218084  14.214272345953564 17.53796319218084  C 14.738081148921648 17.283444058017587  15.301613090781984 16.99710404683967  15.904786806557087 16.678955247655292  C 16.50796052233219 16.34489897295579  17.09520184019024 16.01084720200444  17.66662996928429 15.67679069026556  Z " stroke-width="0" stroke-dasharray="0" stroke="rgba(121, 121, 121, 1)" fill="none" transform="matrix(1 0 0 1 873 581 )" class="stroke" mask="url(#Clip4822)" />
    <path d="M 3.619053647903295 21.761382889446214  C 3.619053647903295 21.761382889446214  3.3095185670406133 20.258136053361614  3.3095185670406133 20.258136053361614  C 4.103168641215197 20.146783946980154  5.023798933379113 20.019521742835465  6.07141677584138 19.876354744683592  C 7.119034854829742 19.71728030064652  8.230190466295289 19.542298558873856  9.404792311164444 19.351409237881338  C 10.595266949374126 19.160519916888823  11.785717934974073 18.977582378079013  12.976192573183756 18.8026005029717  C 12.976192573183756 18.8026005029717  13.047642376669272 20.234272825254227  13.047642376669272 20.234272825254227  C 11.365104522172558 20.50469937567276  9.690477519527594 20.77512773351654  8.0238129314236 21.045554313564995  C 6.357147870267414 21.33188828023881  4.888893435446093 21.570493538823772  3.619053647903295 21.761382889446214  Z " stroke-width="0" stroke-dasharray="0" stroke="rgba(121, 121, 121, 1)" fill="none" transform="matrix(1 0 0 1 873 581 )" class="stroke" mask="url(#Clip4822)" />
    <path d="M 0.4047813019497319 14.507591121384158  L 0.4047813019497319 13  L 21.619015115651802 13  L 21.619015115651802 14.507591121384158  L 0.4047813019497319 14.507591121384158  Z " stroke-width="0" stroke-dasharray="0" stroke="rgba(121, 121, 121, 1)" fill="none" transform="matrix(1 0 0 1 873 581 )" class="stroke" mask="url(#Clip4822)" />
    <path d="M 13.59526273490912 8.9718000718531  L 13.59526273490912 0.9305900435876624  L 15.238063258947738 0.9305900435876624  L 15.238063258947738 8.9718000718531  L 13.59526273490912 8.9718000718531  Z " stroke-width="0" stroke-dasharray="0" stroke="rgba(121, 121, 121, 1)" fill="none" transform="matrix(1 0 0 1 873 581 )" class="stroke" mask="url(#Clip4822)" />
    <path d="M 19.047609349025134 10.188718511689231  C 19.047609349025134 10.188718511689231  19.047609349025134 0.23861711055378604  19.047609349025134 0.23861711055378604  L 20.690470423744674 0.23861711055378604  C 20.690470423744674 0.23861711055378604  20.690470423744674 10.188718511689231  20.690470423744674 10.188718511689231  C 20.690470423744674 10.650034590509737  20.62696222050356 10.999998103684987  20.499977981570574 11.23860952529374  C 20.388866535978114 11.477221420981245  20.158723804949744 11.660158930161133  19.809518567040612 11.787418260203381  C 19.47618517636762 11.914677590245631  19.023824284676273 11.99421283446687  18.45239615558222 12.02602778549712  C 17.896841765933086 12.041935498051622  17.198430344010436 12.049891013604508  16.357160943709886 12.049891013604508  C 16.325415357028835 11.827186830471506  16.253983529526714 11.580618471073612  16.142872083934254 11.310191624355857  C 16.03176158444618 11.023858013241107  15.912667856120573 10.769341249471617  15.785683617187585 10.546636592259862  C 16.436476659088658 10.562544304814365  17.023778527627623 10.578455809998891  17.54758733059571 10.594363048474639  C 18.07139613356379 10.594363048474639  18.420631646813383 10.586407058843  18.59523521187234 10.57049982036725  C 18.7698378308269 10.57049982036725  18.888871008471593 10.546639910811134  18.952363127938085 10.498917721305133  C 19.01585524740458 10.435287819244632  19.047609349025134 10.331885554285982  19.047609349025134 10.188718511689231  Z " stroke-width="0" stroke-dasharray="0" stroke="rgba(121, 121, 121, 1)" fill="none" transform="matrix(1 0 0 1 873 581 )" class="stroke" mask="url(#Clip4822)" />
    <path d="M 6 12.121473112666626  L 6 0  L 7.261903713408122 0  L 7.261903713408122 12.121473112666626  L 6 12.121473112666626  Z " stroke-width="0" stroke-dasharray="0" stroke="rgba(121, 121, 121, 1)" fill="none" transform="matrix(1 0 0 1 873 581 )" class="stroke" mask="url(#Clip4822)" />
    <path d="M 10.14284456089747 9.926245758288104  C 10.14284456089747 9.926245758288104  10.14284456089747 6.991326599920975  10.14284456089747 6.991326599920975  L 11.642866579326896 6.991326599920975  C 11.642866579326896 6.991326599920975  11.642866579326896 9.926245758288104  11.642866579326896 9.926245758288104  C 11.642866579326896 10.260302032987607  11.603188853445333 10.522774786388734  11.523823940638314 10.713664018491485  C 11.444459027831295 10.888646012118487  11.277763949363116 11.02386370218614  11.023796417601531 11.119308555276891  C 10.785701206128278 11.230660646843393  10.484127120649983 11.294284385880108  10.119048143295938 11.310191624355857  C 9.753969165941893 11.326099336910358  9.301607801198353 11.334054852463245  8.761925731837549 11.334054852463245  C 8.730179672104303 11.159072858836241  8.666670995810993 10.968187419363515  8.571433289663448 10.76139047470626  C 8.476195110463708 10.554594004127761  8.38093280560204 10.363700505316233  8.285694626402298 10.188718511689231  C 8.682519663489591 10.204625750164979  9.015847850588441 10.212581739796619  9.285689121794942 10.212581739796619  C 9.571402713289775 10.212581739796619  9.769851893378508 10.204625750164979  9.880962865918773 10.188718511689231  C 10.055565957925534 10.188718511689231  10.14284456089747 10.101227751915106  10.14284456089747 9.926245758288104  Z " stroke-width="0" stroke-dasharray="0" stroke="rgba(121, 121, 121, 1)" fill="none" transform="matrix(1 0 0 1 873 581 )" class="stroke" mask="url(#Clip4822)" />
    <path d="M 1.5000220184294255 11.477226635847526  L 1.5000220184294255 6.991326599920975  L 10.833364526108353 6.991326599920975  L 10.833364526108353 8.208245039757106  L 2.9285942333733335 8.208245039757106  L 2.9285942333733335 11.477226635847526  L 1.5000220184294255 11.477226635847526  Z " stroke-width="0" stroke-dasharray="0" stroke="rgba(121, 121, 121, 1)" fill="none" transform="matrix(1 0 0 1 873 581 )" class="stroke" mask="url(#Clip4822)" />
    <path d="M 0.30953508086268205 6  L 0.30953508086268205 4.438181164971821  L 12.333325993856858 4.438181164971821  L 12.333325993856858 6  L 0.30953508086268205 6  Z " stroke-width="0" stroke-dasharray="0" stroke="rgba(121, 121, 121, 1)" fill="none" transform="matrix(1 0 0 1 873 581 )" class="stroke" mask="url(#Clip4822)" />
    <path d="M 2.285727654046437 2.958789971734563  L 2.7856946264022984 1.694145075683656  L 11.500027523036781 1.694145075683656  L 11.500027523036781 2.958789971734563  L 2.285727654046437 2.958789971734563  Z " stroke-width="0" stroke-dasharray="0" stroke="rgba(121, 121, 121, 1)" fill="none" transform="matrix(1 0 0 1 873 581 )" class="stroke" mask="url(#Clip4822)" />
    <path d="M 1.7619037134081226 2.0281999281469  C 2.0952366310289214 1.3759946172236432  2.36511716556758 0.7237940470879152  2.5714663173075865 0.07158968432216392  C 2.5714663173075865 0.07158968432216392  3.976181563969042 0.4056445367854081  3.976181563969042 0.4056445367854081  C 3.722213559155263 1.1373869882449157  3.412715849415961 1.8611743982302897  3.047636872061916 2.5770086630565427  C 2.698430924574494 3.292843876040301  2.333348162802891 3.9052796685379274  1.9523961555822222 4.414317936864433  C 1.809539241571758 4.302965371219179  1.6031670285372608 4.183658712257298  1.3333259938568582 4.0563998562938  C 1.0634850774395044 3.913232813697049  0.833342582937231 3.793927102892673  0.6428665793268966 3.698481775723168  C 1.0714375578843867 3.2212589325056666  1.4444438256539474 2.6644980005944086  1.7619037134081226 2.0281999281469  Z " stroke-width="0" stroke-dasharray="0" stroke="rgba(121, 121, 121, 1)" fill="none" transform="matrix(1 0 0 1 873 581 )" class="stroke" mask="url(#Clip4822)" />
    <path d="M 5.761881694978697 20.87851930207333  L 5.761881694978697 16.965291229163807  L 6.690486937566743 16.034708770836193  L 7.499988990785287 16.29718152423732  L 7.499988990785287 20.87851930207333  L 5.761881694978697 20.87851930207333  Z " stroke-width="0" stroke-dasharray="0" stroke="rgba(121, 121, 121, 1)" fill="none" transform="matrix(1 0 0 1 873 581 )" class="stroke" mask="url(#Clip4822)" />
  </g>
</svg>