<?xml version="1.0" encoding="utf-8"?>
<svg version="1.1" xmlns:xlink="http://www.w3.org/1999/xlink" width="9px" height="17px" xmlns="http://www.w3.org/2000/svg">
  <defs>
    <pattern id="BGPattern" patternUnits="userSpaceOnUse" alignment="0 0" imageRepeat="None" />
    <mask fill="white" id="Clip4870">
      <path d="M 9 0  L 9 16.857941475649536  L 7.36573373783872 16.857941475649536  C 7.36573373783872 16.857941475649536  7.36573373783872 15.461004114215129  7.36573373783872 15.461004114215129  C 6.445017706595923 16.69220214001171  5.386189388725584 17  4.143222712248456 17  C 2.9923271587046774 17  1.9795422339864202 16.59749530066866  1.3810766764811933 15.981896346572539  C 0.23018135159976244 14.798052181463785  0 12.856547891810642  0 11.033428136272722  C 0 9.210308027921762  0.23018135159976244 7.2688026798294985  1.3810766764811933 6.084958985138131  C 1.9795422339864202 5.469359501822452  2.9923271587046774 5.0668525092063454  4.143222712248456 5.0668525092063454  C 5.386189388725584 5.0668525092063454  6.42199781073587 5.350975202915923  7.342713841978667 6.558496180764245  C 7.342713841978667 6.558496180764245  7.342713841978667 0  7.342713841978667 0  L 9 0  Z M 4.511511777228808 15.484681162163389  C 6.974427520946487 15.484681162163389  7.342713841978667 13.306408745114577  7.342713841978667 11.033428136272722  C 7.342713841978667 8.760447527430868  6.974427520946487 6.582173228712507  4.511511777228808 6.582173228712507  C 2.0485955761864325 6.582173228712507  1.657289816618895 8.760447527430868  1.657289816618895 11.033428136272722  C 1.657289816618895 13.306408745114577  2.0485955761864325 15.484681162163389  4.511511777228808 15.484681162163389  Z " fill-rule="evenodd" />
    </mask>
  </defs>
  <g transform="matrix(1 0 0 1 -197 -491 )">
    <path d="M 9 0  L 9 16.857941475649536  L 7.36573373783872 16.857941475649536  C 7.36573373783872 16.857941475649536  7.36573373783872 15.461004114215129  7.36573373783872 15.461004114215129  C 6.445017706595923 16.69220214001171  5.386189388725584 17  4.143222712248456 17  C 2.9923271587046774 17  1.9795422339864202 16.59749530066866  1.3810766764811933 15.981896346572539  C 0.23018135159976244 14.798052181463785  0 12.856547891810642  0 11.033428136272722  C 0 9.210308027921762  0.23018135159976244 7.2688026798294985  1.3810766764811933 6.084958985138131  C 1.9795422339864202 5.469359501822452  2.9923271587046774 5.0668525092063454  4.143222712248456 5.0668525092063454  C 5.386189388725584 5.0668525092063454  6.42199781073587 5.350975202915923  7.342713841978667 6.558496180764245  C 7.342713841978667 6.558496180764245  7.342713841978667 0  7.342713841978667 0  L 9 0  Z M 4.511511777228808 15.484681162163389  C 6.974427520946487 15.484681162163389  7.342713841978667 13.306408745114577  7.342713841978667 11.033428136272722  C 7.342713841978667 8.760447527430868  6.974427520946487 6.582173228712507  4.511511777228808 6.582173228712507  C 2.0485955761864325 6.582173228712507  1.657289816618895 8.760447527430868  1.657289816618895 11.033428136272722  C 1.657289816618895 13.306408745114577  2.0485955761864325 15.484681162163389  4.511511777228808 15.484681162163389  Z " fill-rule="nonzero" fill="rgba(0, 0, 0, 1)" stroke="none" transform="matrix(1 0 0 1 197 491 )" class="fill" />
    <path d="M 9 0  L 9 16.857941475649536  L 7.36573373783872 16.857941475649536  C 7.36573373783872 16.857941475649536  7.36573373783872 15.461004114215129  7.36573373783872 15.461004114215129  C 6.445017706595923 16.69220214001171  5.386189388725584 17  4.143222712248456 17  C 2.9923271587046774 17  1.9795422339864202 16.59749530066866  1.3810766764811933 15.981896346572539  C 0.23018135159976244 14.798052181463785  0 12.856547891810642  0 11.033428136272722  C 0 9.210308027921762  0.23018135159976244 7.2688026798294985  1.3810766764811933 6.084958985138131  C 1.9795422339864202 5.469359501822452  2.9923271587046774 5.0668525092063454  4.143222712248456 5.0668525092063454  C 5.386189388725584 5.0668525092063454  6.42199781073587 5.350975202915923  7.342713841978667 6.558496180764245  C 7.342713841978667 6.558496180764245  7.342713841978667 0  7.342713841978667 0  L 9 0  Z " stroke-width="0" stroke-dasharray="0" stroke="rgba(121, 121, 121, 1)" fill="none" transform="matrix(1 0 0 1 197 491 )" class="stroke" mask="url(#Clip4870)" />
    <path d="M 4.511511777228808 15.484681162163389  C 6.974427520946487 15.484681162163389  7.342713841978667 13.306408745114577  7.342713841978667 11.033428136272722  C 7.342713841978667 8.760447527430868  6.974427520946487 6.582173228712507  4.511511777228808 6.582173228712507  C 2.0485955761864325 6.582173228712507  1.657289816618895 8.760447527430868  1.657289816618895 11.033428136272722  C 1.657289816618895 13.306408745114577  2.0485955761864325 15.484681162163389  4.511511777228808 15.484681162163389  Z " stroke-width="0" stroke-dasharray="0" stroke="rgba(121, 121, 121, 1)" fill="none" transform="matrix(1 0 0 1 197 491 )" class="stroke" mask="url(#Clip4870)" />
  </g>
</svg>