<?xml version="1.0" encoding="utf-8"?>
<svg version="1.1" xmlns:xlink="http://www.w3.org/1999/xlink" width="52px" height="53px" xmlns="http://www.w3.org/2000/svg">
  <defs>
    <pattern id="BGPattern" patternUnits="userSpaceOnUse" alignment="0 0" imageRepeat="None" />
    <mask fill="white" id="Clip4770">
      <path d="M 18.692810407723446 9.666669806335156  L 18.692810407723446 0  L 24.875810246526875 0  L 24.875810246526875 9.666669806335156  L 18.692810407723446 9.666669806335156  Z M 19 45  L 19 11.476191108929788  L 24 11.476191108929788  L 24 45  L 19 45  Z M 0 12  L 0 7  L 44 7  L 44 12  L 0 12  Z M 5 39.190481052156734  L 5 17  L 36.13942482084412 17  L 36.13942482084412 22  L 11 22  L 11 39.190481052156734  L 5 39.190481052156734  Z M 33.98257380197269 32.85714513981  C 33.98257380197269 32.85714513981  33.98257380197269 16.809523825542527  33.98257380197269 16.809523825542527  L 39.97385879838083 16.809523825542527  C 39.97385879838083 16.809523825542527  39.97385879838083 33.0000070642541  39.97385879838083 33.0000070642541  C 39.97385879838083 34.36508657558769  39.7821325285163 35.47619046242439  39.398691416256476 36.333333389398845  C 39.047201508010396 37.15873022071926  38.37617289553198 37.79365650953775  37.38561319713406 38.23810102085199  C 36.36310039014418 38.682545532166245  35.14887083618082 38.95238107727688  33.74291691693113 39.04761912771263  C 32.36891610627339 39.14285723727997  30.739282808567207 39.190481052156734  28.854024642125427 39.190481052156734  C 28.726210303179418 38.36508416170473  28.470585434443812 37.41269851289882  28.087142417605783 36.333333389398845  C 27.70370130534596 35.25396850242523  27.32025828850793 34.33333693203818  26.936815271669904 33.57143205549947  C 27.735654413937915 33.60317815115351  28.53449355620592 33.63492471986027  29.333330793895726 33.66667081551431  C 30.164123044755684 33.69841643811562  30.899046446948756 33.7142864110999  31.538116237100592 33.7142864110999  C 32.209141040422594 33.7142864110999  32.65649979733556 33.7142864110999  32.88017346205742 33.7142864110999  C 33.29556958748741 33.682540788498585  33.58314946939317 33.619054746876  33.74291691693113 33.52381645991389  C 33.90268436446909 33.396832077297745  33.98257380197269 33.174605150244915  33.98257380197269 32.85714513981  Z " fill-rule="evenodd" />
    </mask>
  </defs>
  <g transform="matrix(1 0 0 1 -234 -376 )">
    <path d="M 18.692810407723446 9.666669806335156  L 18.692810407723446 0  L 24.875810246526875 0  L 24.875810246526875 9.666669806335156  L 18.692810407723446 9.666669806335156  Z M 19 45  L 19 11.476191108929788  L 24 11.476191108929788  L 24 45  L 19 45  Z M 0 12  L 0 7  L 44 7  L 44 12  L 0 12  Z M 5 39.190481052156734  L 5 17  L 36.13942482084412 17  L 36.13942482084412 22  L 11 22  L 11 39.190481052156734  L 5 39.190481052156734  Z M 33.98257380197269 32.85714513981  C 33.98257380197269 32.85714513981  33.98257380197269 16.809523825542527  33.98257380197269 16.809523825542527  L 39.97385879838083 16.809523825542527  C 39.97385879838083 16.809523825542527  39.97385879838083 33.0000070642541  39.97385879838083 33.0000070642541  C 39.97385879838083 34.36508657558769  39.7821325285163 35.47619046242439  39.398691416256476 36.333333389398845  C 39.047201508010396 37.15873022071926  38.37617289553198 37.79365650953775  37.38561319713406 38.23810102085199  C 36.36310039014418 38.682545532166245  35.14887083618082 38.95238107727688  33.74291691693113 39.04761912771263  C 32.36891610627339 39.14285723727997  30.739282808567207 39.190481052156734  28.854024642125427 39.190481052156734  C 28.726210303179418 38.36508416170473  28.470585434443812 37.41269851289882  28.087142417605783 36.333333389398845  C 27.70370130534596 35.25396850242523  27.32025828850793 34.33333693203818  26.936815271669904 33.57143205549947  C 27.735654413937915 33.60317815115351  28.53449355620592 33.63492471986027  29.333330793895726 33.66667081551431  C 30.164123044755684 33.69841643811562  30.899046446948756 33.7142864110999  31.538116237100592 33.7142864110999  C 32.209141040422594 33.7142864110999  32.65649979733556 33.7142864110999  32.88017346205742 33.7142864110999  C 33.29556958748741 33.682540788498585  33.58314946939317 33.619054746876  33.74291691693113 33.52381645991389  C 33.90268436446909 33.396832077297745  33.98257380197269 33.174605150244915  33.98257380197269 32.85714513981  Z " fill-rule="nonzero" fill="rgba(61, 63, 148, 1)" stroke="none" transform="matrix(1 0 0 1 238 376 )" class="fill" />
    <path d="M 18.692810407723446 9.666669806335156  L 18.692810407723446 0  L 24.875810246526875 0  L 24.875810246526875 9.666669806335156  L 18.692810407723446 9.666669806335156  Z " stroke-width="0" stroke-dasharray="0" stroke="rgba(121, 121, 121, 1)" fill="none" transform="matrix(1 0 0 1 238 376 )" class="stroke" mask="url(#Clip4770)" />
    <path d="M 19 45  L 19 11.476191108929788  L 24 11.476191108929788  L 24 45  L 19 45  Z " stroke-width="0" stroke-dasharray="0" stroke="rgba(121, 121, 121, 1)" fill="none" transform="matrix(1 0 0 1 238 376 )" class="stroke" mask="url(#Clip4770)" />
    <path d="M 0 12  L 0 7  L 44 7  L 44 12  L 0 12  Z " stroke-width="0" stroke-dasharray="0" stroke="rgba(121, 121, 121, 1)" fill="none" transform="matrix(1 0 0 1 238 376 )" class="stroke" mask="url(#Clip4770)" />
    <path d="M 5 39.190481052156734  L 5 17  L 36.13942482084412 17  L 36.13942482084412 22  L 11 22  L 11 39.190481052156734  L 5 39.190481052156734  Z " stroke-width="0" stroke-dasharray="0" stroke="rgba(121, 121, 121, 1)" fill="none" transform="matrix(1 0 0 1 238 376 )" class="stroke" mask="url(#Clip4770)" />
    <path d="M 33.98257380197269 32.85714513981  C 33.98257380197269 32.85714513981  33.98257380197269 16.809523825542527  33.98257380197269 16.809523825542527  L 39.97385879838083 16.809523825542527  C 39.97385879838083 16.809523825542527  39.97385879838083 33.0000070642541  39.97385879838083 33.0000070642541  C 39.97385879838083 34.36508657558769  39.7821325285163 35.47619046242439  39.398691416256476 36.333333389398845  C 39.047201508010396 37.15873022071926  38.37617289553198 37.79365650953775  37.38561319713406 38.23810102085199  C 36.36310039014418 38.682545532166245  35.14887083618082 38.95238107727688  33.74291691693113 39.04761912771263  C 32.36891610627339 39.14285723727997  30.739282808567207 39.190481052156734  28.854024642125427 39.190481052156734  C 28.726210303179418 38.36508416170473  28.470585434443812 37.41269851289882  28.087142417605783 36.333333389398845  C 27.70370130534596 35.25396850242523  27.32025828850793 34.33333693203818  26.936815271669904 33.57143205549947  C 27.735654413937915 33.60317815115351  28.53449355620592 33.63492471986027  29.333330793895726 33.66667081551431  C 30.164123044755684 33.69841643811562  30.899046446948756 33.7142864110999  31.538116237100592 33.7142864110999  C 32.209141040422594 33.7142864110999  32.65649979733556 33.7142864110999  32.88017346205742 33.7142864110999  C 33.29556958748741 33.682540788498585  33.58314946939317 33.619054746876  33.74291691693113 33.52381645991389  C 33.90268436446909 33.396832077297745  33.98257380197269 33.174605150244915  33.98257380197269 32.85714513981  Z " stroke-width="0" stroke-dasharray="0" stroke="rgba(121, 121, 121, 1)" fill="none" transform="matrix(1 0 0 1 238 376 )" class="stroke" mask="url(#Clip4770)" />
  </g>
  <style>svg { filter: drop-shadow(0px 4px 2px rgba(0, 0, 0, 0.12941176470588237)); }</style>
</svg>