<?xml version="1.0" encoding="utf-8"?>
<svg version="1.1" xmlns:xlink="http://www.w3.org/1999/xlink" width="22px" height="22px" xmlns="http://www.w3.org/2000/svg">
  <defs>
    <pattern id="BGPattern" patternUnits="userSpaceOnUse" alignment="0 0" imageRepeat="None" />
    <mask fill="white" id="Clip4844">
      <path d="M 14.674694382061594 2.9124723714391543  L 14.674694382061594 1.2997789715132364  L 19.156626103306 1.2997789715132364  L 19.156626103306 2.9124723714391543  L 14.674694382061594 2.9124723714391543  Z M 9.108423599867692 3.9956253401943176  L 9.108423599867692 2.455140607854424  L 14.192771017217668 2.455140607854424  L 14.192771017217668 3.9956253401943176  L 9.108423599867692 3.9956253401943176  Z M 14.939762190769658 7.269148701218526  L 14.939762190769658 5.7286639688786325  L 19.108429170801344 5.7286639688786325  L 19.108429170801344 7.269148701218526  L 14.939762190769658 7.269148701218526  Z M 14.867466792012674 11.770242366169946  L 14.867466792012674 10.229757633830053  L 18.96385369335492 10.229757633830053  L 18.96385369335492 11.770242366169946  L 14.867466792012674 11.770242366169946  Z M 3.012047840392751 7.269148701218526  L 3.012047840392751 5.7286639688786325  L 7.108434741734998 5.7286639688786325  L 7.108434741734998 7.269148701218526  L 3.012047840392751 7.269148701218526  Z M 3.0843279190821886 11.746170259756296  L 3.0843279190821886 10.229757633830053  L 7.1325332079873265 10.229757633830053  L 7.1325332079873265 11.746170259756296  L 3.0843279190821886 11.746170259756296  Z M 2.5060260092964954 15.452953277951583  L 2.0240873243850213 1.4682684130989379  C 2.0240873243850213 1.4682684130989379  4.192765446284013 2.1181617246830213  4.192765446284013 2.1181617246830213  C 4.144572583172298 2.2625819292256697  3.983934254278303 2.3508389865730845  3.710842081440086 2.3829319402683993  C 3.710842081440086 2.3829319402683993  4.144583833846903 15.452953277951583  4.144583833846903 15.452953277951583  L 2.5060260092964954 15.452953277951583  Z M 18.144582441113492 4.862144654536475  C 18.16064648944134 3.59445672380482  18.16866558729827 2.4070002208545858  18.16866558729827 1.2997789715132364  C 18.16866558729827 1.2997789715132364  19.831321878101008 1.2997789715132364  19.831321878101008 1.2997789715132364  C 19.831321878101008 2.423046697702243  19.81525304225205 3.626546808129535  19.78312494559635 4.910281215708848  C 19.7670608972685 6.1779691464405015  19.742973921066834 7.453682228509718  19.710844866906914 8.737417114317463  C 19.678716770251214 10.021152000125209  19.63854563813304 11.232676783661631  19.59035253564527 12.371991464926728  C 19.5421594331575 13.511305907077608  19.485935742762138 14.514223622223883  19.42167859194652 15.380744610365559  C 19.42167859194652 15.380744610365559  17.734939154959 15.380744610365559  17.734939154959 15.380744610365559  C 17.799196305774622 14.498176906262009  17.85541999616998 13.479216061867108  17.903613098657754 12.323854903754354  C 17.96787024947337 11.168493267413167  18.016060479448477 9.956968483876746  18.048188576104177 8.689280553145093  C 18.096381678591946 7.405546145565779  18.12851839278564 6.1298325852681295  18.144582441113492 4.862144654536475  Z M 4.650605664943159 1.1072174235138834  C 5.373497414738601 0.7060497635812528  5.975894439511847 0.3369798396282687  6.457822113124771 0  C 6.457822113124771 0  7.879509061471771 1.2997789715132364  7.879509061471771 1.2997789715132364  C 7.15661779042844 1.6848991981413435  6.361445483191448 2.0700203812263167  5.493975383436918 2.455140607854424  C 4.642570050138403 2.8242143576348737  3.8313291464285095 3.1531723935246134  3.060244772897408 3.44201280260991  C 3.028116197489598 3.281546121219604  2.947789492696854 3.0729390528294602  2.81927543044167 2.8161915974394782  C 2.7068256558903916 2.5594450985063624  2.5943773175954457 2.3428124005502236  2.4819275430441667 2.1662982858553943  C 3.204819053463554 1.8453649230747826  3.927714154523772 1.4923376501419903  4.650605664943159 1.1072174235138834  Z M 8.313250813878588 15.28446383636588  L 8.313250813878588 9.050331542730145  L 9.807233160982573 9.050331542730145  L 9.807233160982573 15.28446383636588  L 8.313250813878588 15.28446383636588  Z M 8.337349280130917 7.991250680388635  L 8.337349280130917 0  L 9.927710172176667 0  L 9.927710172176667 6.522974615634765  L 13.036136557511186 6.522974615634765  L 13.036136557511186 7.991250680388635  L 8.337349280130917 7.991250680388635  Z M 12.14456990651277 15.26039938160716  L 12.14456990651277 6.522974615634765  L 13.734930798558521 6.522974615634765  L 13.734930798558521 15.26039938160716  L 12.14456990651277 15.26039938160716  Z M 0 16  L 0 14.682714737609102  L 22 14.682714737609102  L 22 16  L 0 16  Z M 15.783131909263417 19.256017070146548  C 14.931725857836737 18.77461651785792  14.072279643460247 18.31728992511812  13.204810501209938 17.884029431047285  C 13.204810501209938 17.884029431047285  14.506020438362842 16.680531233533724  14.506020438362842 16.680531233533724  C 15.389554586445222 17.097745131199797  16.28112219494786 17.547046243819985  17.18072039135809 18.028446766219336  C 18.09638359360039 18.509847288618687  18.955813530405113 18.98322481170842  19.759026479344023 19.4485786181459  C 20.562238470778713 19.91393248436193  21.261047074389374 20.347198119388423  21.855424522553577 20.74836524131407  C 21.855424522553577 20.74836524131407  20.144571299246184 22  20.144571299246184 22  C 19.6144510018976 21.598832878074358  18.97188236625407 21.157549444472462  18.216862519802927 20.676148922073114  C 17.461841715847566 20.21079508574636  16.650601051513725 19.737417592545896  15.783131909263417 19.256017070146548  Z M 5.012052018592991 18.14879964663266  C 5.783136392124092 17.651352527828546  6.417670609843142 17.177975004738812  6.915662331783917 16.728667794706098  C 6.915662331783917 16.728667794706098  8.602401768771434 17.835885218219982  8.602401768771434 17.835885218219982  C 7.975895745199422 18.33333239680265  7.253015964206751 18.838803889823126  6.43373896693999 19.35229784414622  C 5.63052649675319 19.84974505261817  4.803217235946449 20.32312254581863  3.9518114238958235 20.772429696072788  C 3.116470138925158 21.23778356228882  2.321282391932592 21.638955227384578  1.5662624257934228 21.975935545241278  C 1.4056197881304295 21.78337531237012  1.1887574097769886 21.558717044626537  0.9156651172507442 21.301970127243546  C 0.6425727050364722 21.06126986604387  0.40160767134973274 20.860687859323452  0.19277240995108022 20.700221028486762  C 0.963856663794154 20.36324065085151  1.7670631495795686 19.97811988621641  2.602404554238262 19.544859392145575  C 3.453810126912832 19.09555224189142  4.257031932765795 18.63020022881057  5.012052018592991 18.14879964663266  Z " fill-rule="evenodd" />
    </mask>
  </defs>
  <g transform="matrix(1 0 0 1 -285 -581 )">
    <path d="M 14.674694382061594 2.9124723714391543  L 14.674694382061594 1.2997789715132364  L 19.156626103306 1.2997789715132364  L 19.156626103306 2.9124723714391543  L 14.674694382061594 2.9124723714391543  Z M 9.108423599867692 3.9956253401943176  L 9.108423599867692 2.455140607854424  L 14.192771017217668 2.455140607854424  L 14.192771017217668 3.9956253401943176  L 9.108423599867692 3.9956253401943176  Z M 14.939762190769658 7.269148701218526  L 14.939762190769658 5.7286639688786325  L 19.108429170801344 5.7286639688786325  L 19.108429170801344 7.269148701218526  L 14.939762190769658 7.269148701218526  Z M 14.867466792012674 11.770242366169946  L 14.867466792012674 10.229757633830053  L 18.96385369335492 10.229757633830053  L 18.96385369335492 11.770242366169946  L 14.867466792012674 11.770242366169946  Z M 3.012047840392751 7.269148701218526  L 3.012047840392751 5.7286639688786325  L 7.108434741734998 5.7286639688786325  L 7.108434741734998 7.269148701218526  L 3.012047840392751 7.269148701218526  Z M 3.0843279190821886 11.746170259756296  L 3.0843279190821886 10.229757633830053  L 7.1325332079873265 10.229757633830053  L 7.1325332079873265 11.746170259756296  L 3.0843279190821886 11.746170259756296  Z M 2.5060260092964954 15.452953277951583  L 2.0240873243850213 1.4682684130989379  C 2.0240873243850213 1.4682684130989379  4.192765446284013 2.1181617246830213  4.192765446284013 2.1181617246830213  C 4.144572583172298 2.2625819292256697  3.983934254278303 2.3508389865730845  3.710842081440086 2.3829319402683993  C 3.710842081440086 2.3829319402683993  4.144583833846903 15.452953277951583  4.144583833846903 15.452953277951583  L 2.5060260092964954 15.452953277951583  Z M 18.144582441113492 4.862144654536475  C 18.16064648944134 3.59445672380482  18.16866558729827 2.4070002208545858  18.16866558729827 1.2997789715132364  C 18.16866558729827 1.2997789715132364  19.831321878101008 1.2997789715132364  19.831321878101008 1.2997789715132364  C 19.831321878101008 2.423046697702243  19.81525304225205 3.626546808129535  19.78312494559635 4.910281215708848  C 19.7670608972685 6.1779691464405015  19.742973921066834 7.453682228509718  19.710844866906914 8.737417114317463  C 19.678716770251214 10.021152000125209  19.63854563813304 11.232676783661631  19.59035253564527 12.371991464926728  C 19.5421594331575 13.511305907077608  19.485935742762138 14.514223622223883  19.42167859194652 15.380744610365559  C 19.42167859194652 15.380744610365559  17.734939154959 15.380744610365559  17.734939154959 15.380744610365559  C 17.799196305774622 14.498176906262009  17.85541999616998 13.479216061867108  17.903613098657754 12.323854903754354  C 17.96787024947337 11.168493267413167  18.016060479448477 9.956968483876746  18.048188576104177 8.689280553145093  C 18.096381678591946 7.405546145565779  18.12851839278564 6.1298325852681295  18.144582441113492 4.862144654536475  Z M 4.650605664943159 1.1072174235138834  C 5.373497414738601 0.7060497635812528  5.975894439511847 0.3369798396282687  6.457822113124771 0  C 6.457822113124771 0  7.879509061471771 1.2997789715132364  7.879509061471771 1.2997789715132364  C 7.15661779042844 1.6848991981413435  6.361445483191448 2.0700203812263167  5.493975383436918 2.455140607854424  C 4.642570050138403 2.8242143576348737  3.8313291464285095 3.1531723935246134  3.060244772897408 3.44201280260991  C 3.028116197489598 3.281546121219604  2.947789492696854 3.0729390528294602  2.81927543044167 2.8161915974394782  C 2.7068256558903916 2.5594450985063624  2.5943773175954457 2.3428124005502236  2.4819275430441667 2.1662982858553943  C 3.204819053463554 1.8453649230747826  3.927714154523772 1.4923376501419903  4.650605664943159 1.1072174235138834  Z M 8.313250813878588 15.28446383636588  L 8.313250813878588 9.050331542730145  L 9.807233160982573 9.050331542730145  L 9.807233160982573 15.28446383636588  L 8.313250813878588 15.28446383636588  Z M 8.337349280130917 7.991250680388635  L 8.337349280130917 0  L 9.927710172176667 0  L 9.927710172176667 6.522974615634765  L 13.036136557511186 6.522974615634765  L 13.036136557511186 7.991250680388635  L 8.337349280130917 7.991250680388635  Z M 12.14456990651277 15.26039938160716  L 12.14456990651277 6.522974615634765  L 13.734930798558521 6.522974615634765  L 13.734930798558521 15.26039938160716  L 12.14456990651277 15.26039938160716  Z M 0 16  L 0 14.682714737609102  L 22 14.682714737609102  L 22 16  L 0 16  Z M 15.783131909263417 19.256017070146548  C 14.931725857836737 18.77461651785792  14.072279643460247 18.31728992511812  13.204810501209938 17.884029431047285  C 13.204810501209938 17.884029431047285  14.506020438362842 16.680531233533724  14.506020438362842 16.680531233533724  C 15.389554586445222 17.097745131199797  16.28112219494786 17.547046243819985  17.18072039135809 18.028446766219336  C 18.09638359360039 18.509847288618687  18.955813530405113 18.98322481170842  19.759026479344023 19.4485786181459  C 20.562238470778713 19.91393248436193  21.261047074389374 20.347198119388423  21.855424522553577 20.74836524131407  C 21.855424522553577 20.74836524131407  20.144571299246184 22  20.144571299246184 22  C 19.6144510018976 21.598832878074358  18.97188236625407 21.157549444472462  18.216862519802927 20.676148922073114  C 17.461841715847566 20.21079508574636  16.650601051513725 19.737417592545896  15.783131909263417 19.256017070146548  Z M 5.012052018592991 18.14879964663266  C 5.783136392124092 17.651352527828546  6.417670609843142 17.177975004738812  6.915662331783917 16.728667794706098  C 6.915662331783917 16.728667794706098  8.602401768771434 17.835885218219982  8.602401768771434 17.835885218219982  C 7.975895745199422 18.33333239680265  7.253015964206751 18.838803889823126  6.43373896693999 19.35229784414622  C 5.63052649675319 19.84974505261817  4.803217235946449 20.32312254581863  3.9518114238958235 20.772429696072788  C 3.116470138925158 21.23778356228882  2.321282391932592 21.638955227384578  1.5662624257934228 21.975935545241278  C 1.4056197881304295 21.78337531237012  1.1887574097769886 21.558717044626537  0.9156651172507442 21.301970127243546  C 0.6425727050364722 21.06126986604387  0.40160767134973274 20.860687859323452  0.19277240995108022 20.700221028486762  C 0.963856663794154 20.36324065085151  1.7670631495795686 19.97811988621641  2.602404554238262 19.544859392145575  C 3.453810126912832 19.09555224189142  4.257031932765795 18.63020022881057  5.012052018592991 18.14879964663266  Z " fill-rule="nonzero" fill="rgba(0, 0, 0, 1)" stroke="none" transform="matrix(1 0 0 1 285 581 )" class="fill" />
    <path d="M 14.674694382061594 2.9124723714391543  L 14.674694382061594 1.2997789715132364  L 19.156626103306 1.2997789715132364  L 19.156626103306 2.9124723714391543  L 14.674694382061594 2.9124723714391543  Z " stroke-width="0" stroke-dasharray="0" stroke="rgba(121, 121, 121, 1)" fill="none" transform="matrix(1 0 0 1 285 581 )" class="stroke" mask="url(#Clip4844)" />
    <path d="M 9.108423599867692 3.9956253401943176  L 9.108423599867692 2.455140607854424  L 14.192771017217668 2.455140607854424  L 14.192771017217668 3.9956253401943176  L 9.108423599867692 3.9956253401943176  Z " stroke-width="0" stroke-dasharray="0" stroke="rgba(121, 121, 121, 1)" fill="none" transform="matrix(1 0 0 1 285 581 )" class="stroke" mask="url(#Clip4844)" />
    <path d="M 14.939762190769658 7.269148701218526  L 14.939762190769658 5.7286639688786325  L 19.108429170801344 5.7286639688786325  L 19.108429170801344 7.269148701218526  L 14.939762190769658 7.269148701218526  Z " stroke-width="0" stroke-dasharray="0" stroke="rgba(121, 121, 121, 1)" fill="none" transform="matrix(1 0 0 1 285 581 )" class="stroke" mask="url(#Clip4844)" />
    <path d="M 14.867466792012674 11.770242366169946  L 14.867466792012674 10.229757633830053  L 18.96385369335492 10.229757633830053  L 18.96385369335492 11.770242366169946  L 14.867466792012674 11.770242366169946  Z " stroke-width="0" stroke-dasharray="0" stroke="rgba(121, 121, 121, 1)" fill="none" transform="matrix(1 0 0 1 285 581 )" class="stroke" mask="url(#Clip4844)" />
    <path d="M 3.012047840392751 7.269148701218526  L 3.012047840392751 5.7286639688786325  L 7.108434741734998 5.7286639688786325  L 7.108434741734998 7.269148701218526  L 3.012047840392751 7.269148701218526  Z " stroke-width="0" stroke-dasharray="0" stroke="rgba(121, 121, 121, 1)" fill="none" transform="matrix(1 0 0 1 285 581 )" class="stroke" mask="url(#Clip4844)" />
    <path d="M 3.0843279190821886 11.746170259756296  L 3.0843279190821886 10.229757633830053  L 7.1325332079873265 10.229757633830053  L 7.1325332079873265 11.746170259756296  L 3.0843279190821886 11.746170259756296  Z " stroke-width="0" stroke-dasharray="0" stroke="rgba(121, 121, 121, 1)" fill="none" transform="matrix(1 0 0 1 285 581 )" class="stroke" mask="url(#Clip4844)" />
    <path d="M 2.5060260092964954 15.452953277951583  L 2.0240873243850213 1.4682684130989379  C 2.0240873243850213 1.4682684130989379  4.192765446284013 2.1181617246830213  4.192765446284013 2.1181617246830213  C 4.144572583172298 2.2625819292256697  3.983934254278303 2.3508389865730845  3.710842081440086 2.3829319402683993  C 3.710842081440086 2.3829319402683993  4.144583833846903 15.452953277951583  4.144583833846903 15.452953277951583  L 2.5060260092964954 15.452953277951583  Z " stroke-width="0" stroke-dasharray="0" stroke="rgba(121, 121, 121, 1)" fill="none" transform="matrix(1 0 0 1 285 581 )" class="stroke" mask="url(#Clip4844)" />
    <path d="M 18.144582441113492 4.862144654536475  C 18.16064648944134 3.59445672380482  18.16866558729827 2.4070002208545858  18.16866558729827 1.2997789715132364  C 18.16866558729827 1.2997789715132364  19.831321878101008 1.2997789715132364  19.831321878101008 1.2997789715132364  C 19.831321878101008 2.423046697702243  19.81525304225205 3.626546808129535  19.78312494559635 4.910281215708848  C 19.7670608972685 6.1779691464405015  19.742973921066834 7.453682228509718  19.710844866906914 8.737417114317463  C 19.678716770251214 10.021152000125209  19.63854563813304 11.232676783661631  19.59035253564527 12.371991464926728  C 19.5421594331575 13.511305907077608  19.485935742762138 14.514223622223883  19.42167859194652 15.380744610365559  C 19.42167859194652 15.380744610365559  17.734939154959 15.380744610365559  17.734939154959 15.380744610365559  C 17.799196305774622 14.498176906262009  17.85541999616998 13.479216061867108  17.903613098657754 12.323854903754354  C 17.96787024947337 11.168493267413167  18.016060479448477 9.956968483876746  18.048188576104177 8.689280553145093  C 18.096381678591946 7.405546145565779  18.12851839278564 6.1298325852681295  18.144582441113492 4.862144654536475  Z " stroke-width="0" stroke-dasharray="0" stroke="rgba(121, 121, 121, 1)" fill="none" transform="matrix(1 0 0 1 285 581 )" class="stroke" mask="url(#Clip4844)" />
    <path d="M 4.650605664943159 1.1072174235138834  C 5.373497414738601 0.7060497635812528  5.975894439511847 0.3369798396282687  6.457822113124771 0  C 6.457822113124771 0  7.879509061471771 1.2997789715132364  7.879509061471771 1.2997789715132364  C 7.15661779042844 1.6848991981413435  6.361445483191448 2.0700203812263167  5.493975383436918 2.455140607854424  C 4.642570050138403 2.8242143576348737  3.8313291464285095 3.1531723935246134  3.060244772897408 3.44201280260991  C 3.028116197489598 3.281546121219604  2.947789492696854 3.0729390528294602  2.81927543044167 2.8161915974394782  C 2.7068256558903916 2.5594450985063624  2.5943773175954457 2.3428124005502236  2.4819275430441667 2.1662982858553943  C 3.204819053463554 1.8453649230747826  3.927714154523772 1.4923376501419903  4.650605664943159 1.1072174235138834  Z " stroke-width="0" stroke-dasharray="0" stroke="rgba(121, 121, 121, 1)" fill="none" transform="matrix(1 0 0 1 285 581 )" class="stroke" mask="url(#Clip4844)" />
    <path d="M 8.313250813878588 15.28446383636588  L 8.313250813878588 9.050331542730145  L 9.807233160982573 9.050331542730145  L 9.807233160982573 15.28446383636588  L 8.313250813878588 15.28446383636588  Z " stroke-width="0" stroke-dasharray="0" stroke="rgba(121, 121, 121, 1)" fill="none" transform="matrix(1 0 0 1 285 581 )" class="stroke" mask="url(#Clip4844)" />
    <path d="M 8.337349280130917 7.991250680388635  L 8.337349280130917 0  L 9.927710172176667 0  L 9.927710172176667 6.522974615634765  L 13.036136557511186 6.522974615634765  L 13.036136557511186 7.991250680388635  L 8.337349280130917 7.991250680388635  Z " stroke-width="0" stroke-dasharray="0" stroke="rgba(121, 121, 121, 1)" fill="none" transform="matrix(1 0 0 1 285 581 )" class="stroke" mask="url(#Clip4844)" />
    <path d="M 12.14456990651277 15.26039938160716  L 12.14456990651277 6.522974615634765  L 13.734930798558521 6.522974615634765  L 13.734930798558521 15.26039938160716  L 12.14456990651277 15.26039938160716  Z " stroke-width="0" stroke-dasharray="0" stroke="rgba(121, 121, 121, 1)" fill="none" transform="matrix(1 0 0 1 285 581 )" class="stroke" mask="url(#Clip4844)" />
    <path d="M 0 16  L 0 14.682714737609102  L 22 14.682714737609102  L 22 16  L 0 16  Z " stroke-width="0" stroke-dasharray="0" stroke="rgba(121, 121, 121, 1)" fill="none" transform="matrix(1 0 0 1 285 581 )" class="stroke" mask="url(#Clip4844)" />
    <path d="M 15.783131909263417 19.256017070146548  C 14.931725857836737 18.77461651785792  14.072279643460247 18.31728992511812  13.204810501209938 17.884029431047285  C 13.204810501209938 17.884029431047285  14.506020438362842 16.680531233533724  14.506020438362842 16.680531233533724  C 15.389554586445222 17.097745131199797  16.28112219494786 17.547046243819985  17.18072039135809 18.028446766219336  C 18.09638359360039 18.509847288618687  18.955813530405113 18.98322481170842  19.759026479344023 19.4485786181459  C 20.562238470778713 19.91393248436193  21.261047074389374 20.347198119388423  21.855424522553577 20.74836524131407  C 21.855424522553577 20.74836524131407  20.144571299246184 22  20.144571299246184 22  C 19.6144510018976 21.598832878074358  18.97188236625407 21.157549444472462  18.216862519802927 20.676148922073114  C 17.461841715847566 20.21079508574636  16.650601051513725 19.737417592545896  15.783131909263417 19.256017070146548  Z " stroke-width="0" stroke-dasharray="0" stroke="rgba(121, 121, 121, 1)" fill="none" transform="matrix(1 0 0 1 285 581 )" class="stroke" mask="url(#Clip4844)" />
    <path d="M 5.012052018592991 18.14879964663266  C 5.783136392124092 17.651352527828546  6.417670609843142 17.177975004738812  6.915662331783917 16.728667794706098  C 6.915662331783917 16.728667794706098  8.602401768771434 17.835885218219982  8.602401768771434 17.835885218219982  C 7.975895745199422 18.33333239680265  7.253015964206751 18.838803889823126  6.43373896693999 19.35229784414622  C 5.63052649675319 19.84974505261817  4.803217235946449 20.32312254581863  3.9518114238958235 20.772429696072788  C 3.116470138925158 21.23778356228882  2.321282391932592 21.638955227384578  1.5662624257934228 21.975935545241278  C 1.4056197881304295 21.78337531237012  1.1887574097769886 21.558717044626537  0.9156651172507442 21.301970127243546  C 0.6425727050364722 21.06126986604387  0.40160767134973274 20.860687859323452  0.19277240995108022 20.700221028486762  C 0.963856663794154 20.36324065085151  1.7670631495795686 19.97811988621641  2.602404554238262 19.544859392145575  C 3.453810126912832 19.09555224189142  4.257031932765795 18.63020022881057  5.012052018592991 18.14879964663266  Z " stroke-width="0" stroke-dasharray="0" stroke="rgba(121, 121, 121, 1)" fill="none" transform="matrix(1 0 0 1 285 581 )" class="stroke" mask="url(#Clip4844)" />
  </g>
</svg>