<?xml version="1.0" encoding="utf-8"?>
<svg version="1.1" xmlns:xlink="http://www.w3.org/1999/xlink" width="22px" height="22px" xmlns="http://www.w3.org/2000/svg">
  <defs>
    <pattern id="BGPattern" patternUnits="userSpaceOnUse" alignment="0 0" imageRepeat="None" />
    <mask fill="white" id="Clip4845">
      <path d="M 6.173351054431761 19.724976018257948  C 6.173351054431761 19.724976018257948  6.173351054431761 16.554454379085335  6.173351054431761 16.554454379085335  L 7.937158064368365 16.554454379085335  C 7.937158064368365 16.554454379085335  7.937158064368365 19.70077150741729  7.937158064368365 19.70077150741729  C 7.937158064368365 19.9912005126305  8.024561633569334 20.184823931730545  8.19935409144872 20.281633605143895  C 8.390036557514758 20.36230833048388  8.811130298635408 20.402640771864128  9.462629158462507 20.402640771864128  C 9.605641126403345 20.402640771864128  9.867821999395902 20.402640771864128  10.249186931527976 20.402640771864128  C 10.646442345411945 20.402640771864128  11.083429883241198 20.402640771864128  11.560136758754156 20.402640771864128  C 12.052732695323277 20.402640771864128  12.505600296469064 20.402640771864128  12.918746192104926 20.402640771864128  C 13.347782095927442 20.402640771864128  13.657646253306778 20.402640771864128  13.84832824580757 20.402640771864128  C 14.182023153379689 20.402640771864128  14.428309282533156 20.354238767716588  14.587211258660648 20.25742909430324  C 14.762004190105275 20.16061941337647  14.889128044120437 19.958934162817755  14.968579032184183 19.652370179477504  C 15.048030020247928 19.329671278117566  15.10364552246645 18.845620551837108  15.135425538839755 18.20022262890252  C 15.262547498593943 18.28089739932302  15.42146084028728 18.36963953859233  15.612142832788074 18.466449166925166  C 15.802825772419354 18.547123937345667  15.993496399354298 18.619726890973038  16.184179338985576 18.684266683266497  C 16.374861331486372 18.748806475559956  16.549654262931 18.79721615842218  16.70855623905849 18.82948605456891  C 16.644996206311884 19.684638212296207  16.525818777085778 20.338103684401673  16.35102584564115 20.78988217034853  C 16.17623386132701 21.25779557431507  15.906105616414907 21.57242398124371  15.540630692469486 21.733773461977353  C 15.175155768524064 21.911257920838043  14.66667361229024 22  14.015174752463142 22  C 13.903942800895607 22  13.68941490411423 22  13.371610951859251 22  C 13.053806999604271 22  12.6883434412247 22  12.275197545588835 22  C 11.87794260527011 22  11.464795762503757 22  11.035759858681244 22  C 10.62261396304538 22  10.257135250578008 22  9.939331298323028 22  C 9.637416880689456 22  9.430851509915424 22  9.319620031913132 22  C 8.49332918777189 22  7.849775332038119 21.935458885344715  7.388958938277057 21.806379300757797  C 6.928143018081237 21.677299716170882  6.610331962347603 21.443343915797943  6.435539504468217 21.104510036310963  C 6.260747046588832 20.781811104897347  6.173351054431761 20.321969006811408  6.173351054431761 19.724976018257948  Z M 10.58287994483912 17.42574752567524  C 9.883710586886824 16.94169914358165  9.18454170249977 16.538320843534827  8.485372344547473 16.21562200228224  C 8.485372344547473 16.21562200228224  9.629475665118079 15.199124871872975  9.629475665118079 15.199124871872975  C 10.328645023070377 15.489553997300895  11.02781390745743 15.860653926063843  11.726983265409727 16.312432351903347  C 12.442043105113918 16.764210777742846  12.998193391646723 17.207921474089403  13.395448331965447 17.643565042016572  C 13.395448331965447 17.643565042016572  12.227522785376443 18.781077032887598  12.227522785376443 18.781077032887598  C 11.846156906113883 18.34543346496043  11.29793931097807 17.893660929641783  10.58287994483912 17.42574752567524  Z M 18.01950606628467 18.684266683266497  C 17.495129166211758 18.18408332304587  16.954857522299758 17.732310787727226  16.39870060585354 17.328937176054136  C 16.39870060585354 17.328937176054136  17.804984799416705 16.45764402946423  17.804984799416705 16.45764402946423  C 18.345252654806757 16.844882783224985  18.88552335158827 17.288601053098358  19.425790259847833 17.788784413318986  C 19.981948123424534 18.272832795412572  20.482482907738813 18.764945480879827  20.92740881974798 19.265128780993102  C 21.388224739943798 19.76531214121373  21.745756080491624 20.241293334780572  22 20.69307182072743  C 22 20.69307182072743  20.474544059993658 21.636963112356252  20.474544059993658 21.636963112356252  C 20.236190148671934 21.201319574482763  19.902499976752253 20.72533835086224  19.473465020060225 20.209020072621925  C 19.04442911623771 19.69270179438161  18.55977392167472 19.184450043487125  18.01950606628467 18.684266683266497  Z M 1.9783358538484666 18.902091893349354  C 2.5186029988906515 18.176019380316333  2.931749604874381 17.42574223622794  3.217773540756058 16.651264728706433  C 3.217773540756058 16.651264728706433  4.743229480762402 17.23212682643304  4.743229480762402 17.23212682643304  C 4.4254252917248005 18.07114400603329  3.9963917557285034 18.89402416385641  3.456124610686318 19.70077150741729  C 2.9317474738307845 20.507518790870815  2.256412654593221 21.177123388510864  1.430121573669359 21.709576644878222  C 1.430121573669359 21.709576644878222  0 20.66886730988677  0 20.66886730988677  C 0.7786205236030084 20.217088823939914  1.4380685904149706 19.628164466489732  1.9783358538484666 18.902091893349354  Z M 2.5265501340275742 10.140812955701184  L 2.5265501340275742 9  L 19.09209724653669 9  L 19.09209724653669 15.513752737835409  L 2.3835334304342988 15.513752737835409  L 2.3835334304342988 14  L 17.35212003966238 14  L 17.35212003966238 10.140812955701184  L 2.5265501340275742 10.140812955701184  Z M 3.289278104030746 12.754677007987853  L 3.289278104030746 11.544559178336383  L 17.94799392596608 11.544559178336383  L 17.94799392596608 12.754677007987853  L 3.289278104030746 12.754677007987853  Z M 0.9534194338088389 2.4686523747257794  L 0.9534194338088389 1.2585268513327834  L 10.130015185084796 1.2585268513327834  L 10.130015185084796 2.4686523747257794  L 0.9534194338088389 2.4686523747257794  Z M 1.4539589537755548 4.840486706088932  L 1.4539589537755548 3.654565693536593  L 9.796322171773651 3.654565693536593  L 9.796322171773651 4.840486706088932  L 1.4539589537755548 4.840486706088932  Z M 4.7670668608685975 8.519256910466181  L 4.7670668608685975 0  L 6.435539504468217 0  L 6.435539504468217 8.519256910466181  L 4.7670668608685975 8.519256910466181  Z M 11.107256844912031 2.4686523747257794  L 11.107256844912031 1.2585268513327834  L 20.90358659372958 1.2585268513327834  L 20.90358659372958 2.4686523747257794  L 11.107256844912031 2.4686523747257794  Z M 10.845075971919476 7.260730059133398  L 10.845075971919476 6  L 21.33261397337771 6  L 21.33261397337771 7.260730059133398  L 10.845075971919476 7.260730059133398  Z M 11.631633744984944 4.840486706088932  L 11.631633744984944 3.654565693536593  L 20.52221882020605 3.654565693536593  L 20.52221882020605 4.840486706088932  L 11.631633744984944 4.840486706088932  Z M 15.04009117250277 8.519256910466181  L 15.04009117250277 0  L 16.732393619164686 0  L 16.732393619164686 8.519256910466181  L 15.04009117250277 8.519256910466181  Z M 0.7388981669408752 7.696372785557588  C 0.7388981669408752 7.696372785557588  0.6435562235599914 6.365240095444362  0.6435562235599914 6.365240095444362  C 1.453957177905891 6.31683492063381  2.375593517167343 6.268432630976333  3.408457427517826 6.220028417883473  C 4.457211464446271 6.155488505375303  5.569519140990533 6.0828778580064045  6.745395137673166 6.002203207800615  C 7.9212708975731765 5.921528557594825  9.105095923653705 5.840856792542106  10.296861691740368 5.760181180618625  C 10.296861691740368 5.760181180618625  10.296861691740368 6.970299010270097  10.296861691740368 6.970299010270097  C 8.548938533642247 7.099378835286436  6.832797286178405 7.228460583738158  5.1484346343921334 7.357540408754498  C 3.4640717458232406 7.486620233770839  1.9942250332959417 7.599563397654178  0.7388981669408752 7.696372785557588  Z " fill-rule="evenodd" />
    </mask>
  </defs>
  <g transform="matrix(1 0 0 1 -261 -581 )">
    <path d="M 6.173351054431761 19.724976018257948  C 6.173351054431761 19.724976018257948  6.173351054431761 16.554454379085335  6.173351054431761 16.554454379085335  L 7.937158064368365 16.554454379085335  C 7.937158064368365 16.554454379085335  7.937158064368365 19.70077150741729  7.937158064368365 19.70077150741729  C 7.937158064368365 19.9912005126305  8.024561633569334 20.184823931730545  8.19935409144872 20.281633605143895  C 8.390036557514758 20.36230833048388  8.811130298635408 20.402640771864128  9.462629158462507 20.402640771864128  C 9.605641126403345 20.402640771864128  9.867821999395902 20.402640771864128  10.249186931527976 20.402640771864128  C 10.646442345411945 20.402640771864128  11.083429883241198 20.402640771864128  11.560136758754156 20.402640771864128  C 12.052732695323277 20.402640771864128  12.505600296469064 20.402640771864128  12.918746192104926 20.402640771864128  C 13.347782095927442 20.402640771864128  13.657646253306778 20.402640771864128  13.84832824580757 20.402640771864128  C 14.182023153379689 20.402640771864128  14.428309282533156 20.354238767716588  14.587211258660648 20.25742909430324  C 14.762004190105275 20.16061941337647  14.889128044120437 19.958934162817755  14.968579032184183 19.652370179477504  C 15.048030020247928 19.329671278117566  15.10364552246645 18.845620551837108  15.135425538839755 18.20022262890252  C 15.262547498593943 18.28089739932302  15.42146084028728 18.36963953859233  15.612142832788074 18.466449166925166  C 15.802825772419354 18.547123937345667  15.993496399354298 18.619726890973038  16.184179338985576 18.684266683266497  C 16.374861331486372 18.748806475559956  16.549654262931 18.79721615842218  16.70855623905849 18.82948605456891  C 16.644996206311884 19.684638212296207  16.525818777085778 20.338103684401673  16.35102584564115 20.78988217034853  C 16.17623386132701 21.25779557431507  15.906105616414907 21.57242398124371  15.540630692469486 21.733773461977353  C 15.175155768524064 21.911257920838043  14.66667361229024 22  14.015174752463142 22  C 13.903942800895607 22  13.68941490411423 22  13.371610951859251 22  C 13.053806999604271 22  12.6883434412247 22  12.275197545588835 22  C 11.87794260527011 22  11.464795762503757 22  11.035759858681244 22  C 10.62261396304538 22  10.257135250578008 22  9.939331298323028 22  C 9.637416880689456 22  9.430851509915424 22  9.319620031913132 22  C 8.49332918777189 22  7.849775332038119 21.935458885344715  7.388958938277057 21.806379300757797  C 6.928143018081237 21.677299716170882  6.610331962347603 21.443343915797943  6.435539504468217 21.104510036310963  C 6.260747046588832 20.781811104897347  6.173351054431761 20.321969006811408  6.173351054431761 19.724976018257948  Z M 10.58287994483912 17.42574752567524  C 9.883710586886824 16.94169914358165  9.18454170249977 16.538320843534827  8.485372344547473 16.21562200228224  C 8.485372344547473 16.21562200228224  9.629475665118079 15.199124871872975  9.629475665118079 15.199124871872975  C 10.328645023070377 15.489553997300895  11.02781390745743 15.860653926063843  11.726983265409727 16.312432351903347  C 12.442043105113918 16.764210777742846  12.998193391646723 17.207921474089403  13.395448331965447 17.643565042016572  C 13.395448331965447 17.643565042016572  12.227522785376443 18.781077032887598  12.227522785376443 18.781077032887598  C 11.846156906113883 18.34543346496043  11.29793931097807 17.893660929641783  10.58287994483912 17.42574752567524  Z M 18.01950606628467 18.684266683266497  C 17.495129166211758 18.18408332304587  16.954857522299758 17.732310787727226  16.39870060585354 17.328937176054136  C 16.39870060585354 17.328937176054136  17.804984799416705 16.45764402946423  17.804984799416705 16.45764402946423  C 18.345252654806757 16.844882783224985  18.88552335158827 17.288601053098358  19.425790259847833 17.788784413318986  C 19.981948123424534 18.272832795412572  20.482482907738813 18.764945480879827  20.92740881974798 19.265128780993102  C 21.388224739943798 19.76531214121373  21.745756080491624 20.241293334780572  22 20.69307182072743  C 22 20.69307182072743  20.474544059993658 21.636963112356252  20.474544059993658 21.636963112356252  C 20.236190148671934 21.201319574482763  19.902499976752253 20.72533835086224  19.473465020060225 20.209020072621925  C 19.04442911623771 19.69270179438161  18.55977392167472 19.184450043487125  18.01950606628467 18.684266683266497  Z M 1.9783358538484666 18.902091893349354  C 2.5186029988906515 18.176019380316333  2.931749604874381 17.42574223622794  3.217773540756058 16.651264728706433  C 3.217773540756058 16.651264728706433  4.743229480762402 17.23212682643304  4.743229480762402 17.23212682643304  C 4.4254252917248005 18.07114400603329  3.9963917557285034 18.89402416385641  3.456124610686318 19.70077150741729  C 2.9317474738307845 20.507518790870815  2.256412654593221 21.177123388510864  1.430121573669359 21.709576644878222  C 1.430121573669359 21.709576644878222  0 20.66886730988677  0 20.66886730988677  C 0.7786205236030084 20.217088823939914  1.4380685904149706 19.628164466489732  1.9783358538484666 18.902091893349354  Z M 2.5265501340275742 10.140812955701184  L 2.5265501340275742 9  L 19.09209724653669 9  L 19.09209724653669 15.513752737835409  L 2.3835334304342988 15.513752737835409  L 2.3835334304342988 14  L 17.35212003966238 14  L 17.35212003966238 10.140812955701184  L 2.5265501340275742 10.140812955701184  Z M 3.289278104030746 12.754677007987853  L 3.289278104030746 11.544559178336383  L 17.94799392596608 11.544559178336383  L 17.94799392596608 12.754677007987853  L 3.289278104030746 12.754677007987853  Z M 0.9534194338088389 2.4686523747257794  L 0.9534194338088389 1.2585268513327834  L 10.130015185084796 1.2585268513327834  L 10.130015185084796 2.4686523747257794  L 0.9534194338088389 2.4686523747257794  Z M 1.4539589537755548 4.840486706088932  L 1.4539589537755548 3.654565693536593  L 9.796322171773651 3.654565693536593  L 9.796322171773651 4.840486706088932  L 1.4539589537755548 4.840486706088932  Z M 4.7670668608685975 8.519256910466181  L 4.7670668608685975 0  L 6.435539504468217 0  L 6.435539504468217 8.519256910466181  L 4.7670668608685975 8.519256910466181  Z M 11.107256844912031 2.4686523747257794  L 11.107256844912031 1.2585268513327834  L 20.90358659372958 1.2585268513327834  L 20.90358659372958 2.4686523747257794  L 11.107256844912031 2.4686523747257794  Z M 10.845075971919476 7.260730059133398  L 10.845075971919476 6  L 21.33261397337771 6  L 21.33261397337771 7.260730059133398  L 10.845075971919476 7.260730059133398  Z M 11.631633744984944 4.840486706088932  L 11.631633744984944 3.654565693536593  L 20.52221882020605 3.654565693536593  L 20.52221882020605 4.840486706088932  L 11.631633744984944 4.840486706088932  Z M 15.04009117250277 8.519256910466181  L 15.04009117250277 0  L 16.732393619164686 0  L 16.732393619164686 8.519256910466181  L 15.04009117250277 8.519256910466181  Z M 0.7388981669408752 7.696372785557588  C 0.7388981669408752 7.696372785557588  0.6435562235599914 6.365240095444362  0.6435562235599914 6.365240095444362  C 1.453957177905891 6.31683492063381  2.375593517167343 6.268432630976333  3.408457427517826 6.220028417883473  C 4.457211464446271 6.155488505375303  5.569519140990533 6.0828778580064045  6.745395137673166 6.002203207800615  C 7.9212708975731765 5.921528557594825  9.105095923653705 5.840856792542106  10.296861691740368 5.760181180618625  C 10.296861691740368 5.760181180618625  10.296861691740368 6.970299010270097  10.296861691740368 6.970299010270097  C 8.548938533642247 7.099378835286436  6.832797286178405 7.228460583738158  5.1484346343921334 7.357540408754498  C 3.4640717458232406 7.486620233770839  1.9942250332959417 7.599563397654178  0.7388981669408752 7.696372785557588  Z " fill-rule="nonzero" fill="rgba(0, 0, 0, 1)" stroke="none" transform="matrix(1 0 0 1 261 581 )" class="fill" />
    <path d="M 6.173351054431761 19.724976018257948  C 6.173351054431761 19.724976018257948  6.173351054431761 16.554454379085335  6.173351054431761 16.554454379085335  L 7.937158064368365 16.554454379085335  C 7.937158064368365 16.554454379085335  7.937158064368365 19.70077150741729  7.937158064368365 19.70077150741729  C 7.937158064368365 19.9912005126305  8.024561633569334 20.184823931730545  8.19935409144872 20.281633605143895  C 8.390036557514758 20.36230833048388  8.811130298635408 20.402640771864128  9.462629158462507 20.402640771864128  C 9.605641126403345 20.402640771864128  9.867821999395902 20.402640771864128  10.249186931527976 20.402640771864128  C 10.646442345411945 20.402640771864128  11.083429883241198 20.402640771864128  11.560136758754156 20.402640771864128  C 12.052732695323277 20.402640771864128  12.505600296469064 20.402640771864128  12.918746192104926 20.402640771864128  C 13.347782095927442 20.402640771864128  13.657646253306778 20.402640771864128  13.84832824580757 20.402640771864128  C 14.182023153379689 20.402640771864128  14.428309282533156 20.354238767716588  14.587211258660648 20.25742909430324  C 14.762004190105275 20.16061941337647  14.889128044120437 19.958934162817755  14.968579032184183 19.652370179477504  C 15.048030020247928 19.329671278117566  15.10364552246645 18.845620551837108  15.135425538839755 18.20022262890252  C 15.262547498593943 18.28089739932302  15.42146084028728 18.36963953859233  15.612142832788074 18.466449166925166  C 15.802825772419354 18.547123937345667  15.993496399354298 18.619726890973038  16.184179338985576 18.684266683266497  C 16.374861331486372 18.748806475559956  16.549654262931 18.79721615842218  16.70855623905849 18.82948605456891  C 16.644996206311884 19.684638212296207  16.525818777085778 20.338103684401673  16.35102584564115 20.78988217034853  C 16.17623386132701 21.25779557431507  15.906105616414907 21.57242398124371  15.540630692469486 21.733773461977353  C 15.175155768524064 21.911257920838043  14.66667361229024 22  14.015174752463142 22  C 13.903942800895607 22  13.68941490411423 22  13.371610951859251 22  C 13.053806999604271 22  12.6883434412247 22  12.275197545588835 22  C 11.87794260527011 22  11.464795762503757 22  11.035759858681244 22  C 10.62261396304538 22  10.257135250578008 22  9.939331298323028 22  C 9.637416880689456 22  9.430851509915424 22  9.319620031913132 22  C 8.49332918777189 22  7.849775332038119 21.935458885344715  7.388958938277057 21.806379300757797  C 6.928143018081237 21.677299716170882  6.610331962347603 21.443343915797943  6.435539504468217 21.104510036310963  C 6.260747046588832 20.781811104897347  6.173351054431761 20.321969006811408  6.173351054431761 19.724976018257948  Z " stroke-width="0" stroke-dasharray="0" stroke="rgba(121, 121, 121, 1)" fill="none" transform="matrix(1 0 0 1 261 581 )" class="stroke" mask="url(#Clip4845)" />
    <path d="M 10.58287994483912 17.42574752567524  C 9.883710586886824 16.94169914358165  9.18454170249977 16.538320843534827  8.485372344547473 16.21562200228224  C 8.485372344547473 16.21562200228224  9.629475665118079 15.199124871872975  9.629475665118079 15.199124871872975  C 10.328645023070377 15.489553997300895  11.02781390745743 15.860653926063843  11.726983265409727 16.312432351903347  C 12.442043105113918 16.764210777742846  12.998193391646723 17.207921474089403  13.395448331965447 17.643565042016572  C 13.395448331965447 17.643565042016572  12.227522785376443 18.781077032887598  12.227522785376443 18.781077032887598  C 11.846156906113883 18.34543346496043  11.29793931097807 17.893660929641783  10.58287994483912 17.42574752567524  Z " stroke-width="0" stroke-dasharray="0" stroke="rgba(121, 121, 121, 1)" fill="none" transform="matrix(1 0 0 1 261 581 )" class="stroke" mask="url(#Clip4845)" />
    <path d="M 18.01950606628467 18.684266683266497  C 17.495129166211758 18.18408332304587  16.954857522299758 17.732310787727226  16.39870060585354 17.328937176054136  C 16.39870060585354 17.328937176054136  17.804984799416705 16.45764402946423  17.804984799416705 16.45764402946423  C 18.345252654806757 16.844882783224985  18.88552335158827 17.288601053098358  19.425790259847833 17.788784413318986  C 19.981948123424534 18.272832795412572  20.482482907738813 18.764945480879827  20.92740881974798 19.265128780993102  C 21.388224739943798 19.76531214121373  21.745756080491624 20.241293334780572  22 20.69307182072743  C 22 20.69307182072743  20.474544059993658 21.636963112356252  20.474544059993658 21.636963112356252  C 20.236190148671934 21.201319574482763  19.902499976752253 20.72533835086224  19.473465020060225 20.209020072621925  C 19.04442911623771 19.69270179438161  18.55977392167472 19.184450043487125  18.01950606628467 18.684266683266497  Z " stroke-width="0" stroke-dasharray="0" stroke="rgba(121, 121, 121, 1)" fill="none" transform="matrix(1 0 0 1 261 581 )" class="stroke" mask="url(#Clip4845)" />
    <path d="M 1.9783358538484666 18.902091893349354  C 2.5186029988906515 18.176019380316333  2.931749604874381 17.42574223622794  3.217773540756058 16.651264728706433  C 3.217773540756058 16.651264728706433  4.743229480762402 17.23212682643304  4.743229480762402 17.23212682643304  C 4.4254252917248005 18.07114400603329  3.9963917557285034 18.89402416385641  3.456124610686318 19.70077150741729  C 2.9317474738307845 20.507518790870815  2.256412654593221 21.177123388510864  1.430121573669359 21.709576644878222  C 1.430121573669359 21.709576644878222  0 20.66886730988677  0 20.66886730988677  C 0.7786205236030084 20.217088823939914  1.4380685904149706 19.628164466489732  1.9783358538484666 18.902091893349354  Z " stroke-width="0" stroke-dasharray="0" stroke="rgba(121, 121, 121, 1)" fill="none" transform="matrix(1 0 0 1 261 581 )" class="stroke" mask="url(#Clip4845)" />
    <path d="M 2.5265501340275742 10.140812955701184  L 2.5265501340275742 9  L 19.09209724653669 9  L 19.09209724653669 15.513752737835409  L 2.3835334304342988 15.513752737835409  L 2.3835334304342988 14  L 17.35212003966238 14  L 17.35212003966238 10.140812955701184  L 2.5265501340275742 10.140812955701184  Z " stroke-width="0" stroke-dasharray="0" stroke="rgba(121, 121, 121, 1)" fill="none" transform="matrix(1 0 0 1 261 581 )" class="stroke" mask="url(#Clip4845)" />
    <path d="M 3.289278104030746 12.754677007987853  L 3.289278104030746 11.544559178336383  L 17.94799392596608 11.544559178336383  L 17.94799392596608 12.754677007987853  L 3.289278104030746 12.754677007987853  Z " stroke-width="0" stroke-dasharray="0" stroke="rgba(121, 121, 121, 1)" fill="none" transform="matrix(1 0 0 1 261 581 )" class="stroke" mask="url(#Clip4845)" />
    <path d="M 0.9534194338088389 2.4686523747257794  L 0.9534194338088389 1.2585268513327834  L 10.130015185084796 1.2585268513327834  L 10.130015185084796 2.4686523747257794  L 0.9534194338088389 2.4686523747257794  Z " stroke-width="0" stroke-dasharray="0" stroke="rgba(121, 121, 121, 1)" fill="none" transform="matrix(1 0 0 1 261 581 )" class="stroke" mask="url(#Clip4845)" />
    <path d="M 1.4539589537755548 4.840486706088932  L 1.4539589537755548 3.654565693536593  L 9.796322171773651 3.654565693536593  L 9.796322171773651 4.840486706088932  L 1.4539589537755548 4.840486706088932  Z " stroke-width="0" stroke-dasharray="0" stroke="rgba(121, 121, 121, 1)" fill="none" transform="matrix(1 0 0 1 261 581 )" class="stroke" mask="url(#Clip4845)" />
    <path d="M 4.7670668608685975 8.519256910466181  L 4.7670668608685975 0  L 6.435539504468217 0  L 6.435539504468217 8.519256910466181  L 4.7670668608685975 8.519256910466181  Z " stroke-width="0" stroke-dasharray="0" stroke="rgba(121, 121, 121, 1)" fill="none" transform="matrix(1 0 0 1 261 581 )" class="stroke" mask="url(#Clip4845)" />
    <path d="M 11.107256844912031 2.4686523747257794  L 11.107256844912031 1.2585268513327834  L 20.90358659372958 1.2585268513327834  L 20.90358659372958 2.4686523747257794  L 11.107256844912031 2.4686523747257794  Z " stroke-width="0" stroke-dasharray="0" stroke="rgba(121, 121, 121, 1)" fill="none" transform="matrix(1 0 0 1 261 581 )" class="stroke" mask="url(#Clip4845)" />
    <path d="M 10.845075971919476 7.260730059133398  L 10.845075971919476 6  L 21.33261397337771 6  L 21.33261397337771 7.260730059133398  L 10.845075971919476 7.260730059133398  Z " stroke-width="0" stroke-dasharray="0" stroke="rgba(121, 121, 121, 1)" fill="none" transform="matrix(1 0 0 1 261 581 )" class="stroke" mask="url(#Clip4845)" />
    <path d="M 11.631633744984944 4.840486706088932  L 11.631633744984944 3.654565693536593  L 20.52221882020605 3.654565693536593  L 20.52221882020605 4.840486706088932  L 11.631633744984944 4.840486706088932  Z " stroke-width="0" stroke-dasharray="0" stroke="rgba(121, 121, 121, 1)" fill="none" transform="matrix(1 0 0 1 261 581 )" class="stroke" mask="url(#Clip4845)" />
    <path d="M 15.04009117250277 8.519256910466181  L 15.04009117250277 0  L 16.732393619164686 0  L 16.732393619164686 8.519256910466181  L 15.04009117250277 8.519256910466181  Z " stroke-width="0" stroke-dasharray="0" stroke="rgba(121, 121, 121, 1)" fill="none" transform="matrix(1 0 0 1 261 581 )" class="stroke" mask="url(#Clip4845)" />
    <path d="M 0.7388981669408752 7.696372785557588  C 0.7388981669408752 7.696372785557588  0.6435562235599914 6.365240095444362  0.6435562235599914 6.365240095444362  C 1.453957177905891 6.31683492063381  2.375593517167343 6.268432630976333  3.408457427517826 6.220028417883473  C 4.457211464446271 6.155488505375303  5.569519140990533 6.0828778580064045  6.745395137673166 6.002203207800615  C 7.9212708975731765 5.921528557594825  9.105095923653705 5.840856792542106  10.296861691740368 5.760181180618625  C 10.296861691740368 5.760181180618625  10.296861691740368 6.970299010270097  10.296861691740368 6.970299010270097  C 8.548938533642247 7.099378835286436  6.832797286178405 7.228460583738158  5.1484346343921334 7.357540408754498  C 3.4640717458232406 7.486620233770839  1.9942250332959417 7.599563397654178  0.7388981669408752 7.696372785557588  Z " stroke-width="0" stroke-dasharray="0" stroke="rgba(121, 121, 121, 1)" fill="none" transform="matrix(1 0 0 1 261 581 )" class="stroke" mask="url(#Clip4845)" />
  </g>
</svg>