<?xml version="1.0" encoding="utf-8"?>
<svg version="1.1" xmlns:xlink="http://www.w3.org/1999/xlink" width="23px" height="22px" xmlns="http://www.w3.org/2000/svg">
  <defs>
    <pattern id="BGPattern" patternUnits="userSpaceOnUse" alignment="0 0" imageRepeat="None" />
    <mask fill="white" id="Clip4831">
      <path d="M 11.305495554226342 18.272421286682043  C 11.305495554226342 18.272421286682043  11.305495554226342 0.219272525138237  11.305495554226342 0.219272525138237  L 13.153280060217886 0.219272525138237  C 13.153280060217886 0.219272525138237  13.153280060217886 18.321151956651303  13.153280060217886 18.321151956651303  C 13.153280060217886 18.775932294330797  13.193796667181923 19.125136129146274  13.274839542182763 19.368768422649776  C 13.355882417183604 19.596158561236155  13.50985769659863 19.758583483657723  13.736777939822439 19.85603639803379  C 13.97990656482496 19.93724716505607  14.328404646051897 19.9778475832335  14.782245132499513 19.9778475832335  C 14.944331848608469 19.9778475832335  15.236069195123427 19.9778475832335  15.657491951906339 19.9778475832335  C 16.09512405657524 19.9778475832335  16.57329305646099 19.9778475832335  17.09196803613073 19.9778475832335  C 17.626851397579188 19.9778475832335  18.12120269434718 19.9778475832335  18.575043180794797 19.9778475832335  C 19.02888366724241 19.9778475832335  19.35304647228028 19.9778475832335  19.547549951946664 19.9778475832335  C 20.00139043839428 19.9778475832335  20.333675307306123 19.856030831414426  20.544387168751218 19.61239853791092  C 20.771307411975027 19.352524089490295  20.933404755264025 18.89774983273739  21.030656012043575 18.248063696559132  C 21.14411661670912 17.59837762088761  21.225149830637193 16.688813557151622  21.273774975973332 15.519378524132108  C 21.50069521919714 15.681800133810087  21.776250268829852 15.844225131865072  22.100422734940487 16.006646499516123  C 22.44080261672256 16.15282592402361  22.74066202711149 16.250272984373332  23 16.298999539884804  C 22.91895712499916 17.630856061568835  22.773072994025256 18.6947218525322  22.56236113258016 19.490587352711213  C 22.36785765291378 20.27021066771973  22.04369484787591 20.830563091271788  21.589854361428294 21.17164831427804  C 21.15222225675939 21.51273353728429  20.503864765143522 21.683273879784963  19.644809903691705 21.683273879784963  C 19.51514091724745 21.683273879784963  19.280133390011628 21.683273879784963  18.939752542122278 21.683273879784963  C 18.61558104211892 21.683273879784963  18.22656635392794 21.683273879784963  17.772725867480325 21.683273879784963  C 17.33509376281142 21.683273879784963  16.897472285322564 21.683273879784963  16.45984018065366 21.683273879784963  C 16.022208075984757 21.683273879784963  15.63319338779378 21.683273879784963  15.292813506011708 21.683273879784963  C 14.968642006008347 21.683273879784963  14.749815809547492 21.683273879784963  14.63635520488195 21.683273879784963  C 13.793508725208847 21.683273879784963  13.12896990281801 21.585826698421773  12.642711686705692 21.390920839416278  C 12.15645443670065 21.19601498041078  11.80795635547371 20.846803340226845  11.597244494028617 20.34329662855608  C 11.402741497415873 19.85603204154907  11.305495554226342 19.16573965585707  11.305495554226342 18.272421286682043  Z M 17.991545301190243 6.261348950729654  C 18.94785238552889 5.5629366825870505  19.766366487334754 4.897014109377866  20.447127217006177 4.263569613809511  C 20.447127217006177 4.263569613809511  21.76004381926569 5.822811645314905  21.76004381926569 5.822811645314905  C 20.94961410315001 6.504981970313945  20.033823625775405 7.179035680225924  19.012682048214636 7.844964062081403  C 17.991540470653863 8.494650016739463  16.921774713864227 9.128095480415533  15.8033818795239 9.745297548786468  C 14.701198393069566 10.362499133103546  13.615219423964838 10.947213442756494  12.54545173496065 11.499446770445466  C 12.480618207845799 11.288298605256015  12.36715953539481 11.052788493458937  12.205072819285855 10.792914014784941  C 12.059195451062886 10.516797592967384  11.921432417855678 10.273164089329235  11.7917643975187 10.062015924139784  C 12.829114356858186 9.509783080504668  13.88266786744 8.908822471223438  14.952434590336912 8.25913603251152  C 16.022201313233822 7.609450077853462  17.0352382168516 6.943519275728695  17.991545301190243 6.261348950729654  Z M 5.178644156647154 3.7763016384254975  C 5.924239138013886 2.541897501683627  6.5644743242289625 1.2831299661725561  7.099358168731055 0  C 7.099358168731055 0  8.874213168630245 0.6090869054454475  8.874213168630245 0.6090869054454475  C 8.25828693218095 2.0221533848742146  7.536987375078129 3.4108535612106343  6.710349277183739 4.775195179316432  C 5.883710937762529 6.1395358293145135  4.992254770469713 7.422665795487069  4.035947927657888 8.6245850778341  C 3.0958497081515928 9.81026193298371  2.115238504583549 10.85788130330533  1.0940971685495957 11.767442220691242  C 1.0454714193964099 11.605020368986334  0.948194621155733 11.41011075856344  0.8023173133144705 11.182720650230427  C 0.6726486287787397 10.955330541897414  0.5348862597702849 10.727943337887547  0.3890088915473174 10.500553229554534  C 0.24313158370605473 10.256921178077958  0.11346012161190379 10.06201882846293  0 9.915839403955442  C 0.9400982798879988 9.136215967933456  1.847767478350796 8.226652146224398  2.723031325398372 7.187154231528417  C 3.61450391651489 6.131414373688874  4.433048933753604 4.99446286391609  5.178644156647154 3.7763016384254975  Z M 4.303397337240327 22  L 4.303397337240327 6.383167880791088  L 6.102551867359351 4.580287989162826  L 6.126851397579188 4.62901865913209  L 6.126851397579188 22  L 4.303397337240327 22  Z " fill-rule="evenodd" />
    </mask>
  </defs>
  <g transform="matrix(1 0 0 1 -621 -581 )">
    <path d="M 11.305495554226342 18.272421286682043  C 11.305495554226342 18.272421286682043  11.305495554226342 0.219272525138237  11.305495554226342 0.219272525138237  L 13.153280060217886 0.219272525138237  C 13.153280060217886 0.219272525138237  13.153280060217886 18.321151956651303  13.153280060217886 18.321151956651303  C 13.153280060217886 18.775932294330797  13.193796667181923 19.125136129146274  13.274839542182763 19.368768422649776  C 13.355882417183604 19.596158561236155  13.50985769659863 19.758583483657723  13.736777939822439 19.85603639803379  C 13.97990656482496 19.93724716505607  14.328404646051897 19.9778475832335  14.782245132499513 19.9778475832335  C 14.944331848608469 19.9778475832335  15.236069195123427 19.9778475832335  15.657491951906339 19.9778475832335  C 16.09512405657524 19.9778475832335  16.57329305646099 19.9778475832335  17.09196803613073 19.9778475832335  C 17.626851397579188 19.9778475832335  18.12120269434718 19.9778475832335  18.575043180794797 19.9778475832335  C 19.02888366724241 19.9778475832335  19.35304647228028 19.9778475832335  19.547549951946664 19.9778475832335  C 20.00139043839428 19.9778475832335  20.333675307306123 19.856030831414426  20.544387168751218 19.61239853791092  C 20.771307411975027 19.352524089490295  20.933404755264025 18.89774983273739  21.030656012043575 18.248063696559132  C 21.14411661670912 17.59837762088761  21.225149830637193 16.688813557151622  21.273774975973332 15.519378524132108  C 21.50069521919714 15.681800133810087  21.776250268829852 15.844225131865072  22.100422734940487 16.006646499516123  C 22.44080261672256 16.15282592402361  22.74066202711149 16.250272984373332  23 16.298999539884804  C 22.91895712499916 17.630856061568835  22.773072994025256 18.6947218525322  22.56236113258016 19.490587352711213  C 22.36785765291378 20.27021066771973  22.04369484787591 20.830563091271788  21.589854361428294 21.17164831427804  C 21.15222225675939 21.51273353728429  20.503864765143522 21.683273879784963  19.644809903691705 21.683273879784963  C 19.51514091724745 21.683273879784963  19.280133390011628 21.683273879784963  18.939752542122278 21.683273879784963  C 18.61558104211892 21.683273879784963  18.22656635392794 21.683273879784963  17.772725867480325 21.683273879784963  C 17.33509376281142 21.683273879784963  16.897472285322564 21.683273879784963  16.45984018065366 21.683273879784963  C 16.022208075984757 21.683273879784963  15.63319338779378 21.683273879784963  15.292813506011708 21.683273879784963  C 14.968642006008347 21.683273879784963  14.749815809547492 21.683273879784963  14.63635520488195 21.683273879784963  C 13.793508725208847 21.683273879784963  13.12896990281801 21.585826698421773  12.642711686705692 21.390920839416278  C 12.15645443670065 21.19601498041078  11.80795635547371 20.846803340226845  11.597244494028617 20.34329662855608  C 11.402741497415873 19.85603204154907  11.305495554226342 19.16573965585707  11.305495554226342 18.272421286682043  Z M 17.991545301190243 6.261348950729654  C 18.94785238552889 5.5629366825870505  19.766366487334754 4.897014109377866  20.447127217006177 4.263569613809511  C 20.447127217006177 4.263569613809511  21.76004381926569 5.822811645314905  21.76004381926569 5.822811645314905  C 20.94961410315001 6.504981970313945  20.033823625775405 7.179035680225924  19.012682048214636 7.844964062081403  C 17.991540470653863 8.494650016739463  16.921774713864227 9.128095480415533  15.8033818795239 9.745297548786468  C 14.701198393069566 10.362499133103546  13.615219423964838 10.947213442756494  12.54545173496065 11.499446770445466  C 12.480618207845799 11.288298605256015  12.36715953539481 11.052788493458937  12.205072819285855 10.792914014784941  C 12.059195451062886 10.516797592967384  11.921432417855678 10.273164089329235  11.7917643975187 10.062015924139784  C 12.829114356858186 9.509783080504668  13.88266786744 8.908822471223438  14.952434590336912 8.25913603251152  C 16.022201313233822 7.609450077853462  17.0352382168516 6.943519275728695  17.991545301190243 6.261348950729654  Z M 5.178644156647154 3.7763016384254975  C 5.924239138013886 2.541897501683627  6.5644743242289625 1.2831299661725561  7.099358168731055 0  C 7.099358168731055 0  8.874213168630245 0.6090869054454475  8.874213168630245 0.6090869054454475  C 8.25828693218095 2.0221533848742146  7.536987375078129 3.4108535612106343  6.710349277183739 4.775195179316432  C 5.883710937762529 6.1395358293145135  4.992254770469713 7.422665795487069  4.035947927657888 8.6245850778341  C 3.0958497081515928 9.81026193298371  2.115238504583549 10.85788130330533  1.0940971685495957 11.767442220691242  C 1.0454714193964099 11.605020368986334  0.948194621155733 11.41011075856344  0.8023173133144705 11.182720650230427  C 0.6726486287787397 10.955330541897414  0.5348862597702849 10.727943337887547  0.3890088915473174 10.500553229554534  C 0.24313158370605473 10.256921178077958  0.11346012161190379 10.06201882846293  0 9.915839403955442  C 0.9400982798879988 9.136215967933456  1.847767478350796 8.226652146224398  2.723031325398372 7.187154231528417  C 3.61450391651489 6.131414373688874  4.433048933753604 4.99446286391609  5.178644156647154 3.7763016384254975  Z M 4.303397337240327 22  L 4.303397337240327 6.383167880791088  L 6.102551867359351 4.580287989162826  L 6.126851397579188 4.62901865913209  L 6.126851397579188 22  L 4.303397337240327 22  Z " fill-rule="nonzero" fill="rgba(0, 0, 0, 1)" stroke="none" transform="matrix(1 0 0 1 621 581 )" class="fill" />
    <path d="M 11.305495554226342 18.272421286682043  C 11.305495554226342 18.272421286682043  11.305495554226342 0.219272525138237  11.305495554226342 0.219272525138237  L 13.153280060217886 0.219272525138237  C 13.153280060217886 0.219272525138237  13.153280060217886 18.321151956651303  13.153280060217886 18.321151956651303  C 13.153280060217886 18.775932294330797  13.193796667181923 19.125136129146274  13.274839542182763 19.368768422649776  C 13.355882417183604 19.596158561236155  13.50985769659863 19.758583483657723  13.736777939822439 19.85603639803379  C 13.97990656482496 19.93724716505607  14.328404646051897 19.9778475832335  14.782245132499513 19.9778475832335  C 14.944331848608469 19.9778475832335  15.236069195123427 19.9778475832335  15.657491951906339 19.9778475832335  C 16.09512405657524 19.9778475832335  16.57329305646099 19.9778475832335  17.09196803613073 19.9778475832335  C 17.626851397579188 19.9778475832335  18.12120269434718 19.9778475832335  18.575043180794797 19.9778475832335  C 19.02888366724241 19.9778475832335  19.35304647228028 19.9778475832335  19.547549951946664 19.9778475832335  C 20.00139043839428 19.9778475832335  20.333675307306123 19.856030831414426  20.544387168751218 19.61239853791092  C 20.771307411975027 19.352524089490295  20.933404755264025 18.89774983273739  21.030656012043575 18.248063696559132  C 21.14411661670912 17.59837762088761  21.225149830637193 16.688813557151622  21.273774975973332 15.519378524132108  C 21.50069521919714 15.681800133810087  21.776250268829852 15.844225131865072  22.100422734940487 16.006646499516123  C 22.44080261672256 16.15282592402361  22.74066202711149 16.250272984373332  23 16.298999539884804  C 22.91895712499916 17.630856061568835  22.773072994025256 18.6947218525322  22.56236113258016 19.490587352711213  C 22.36785765291378 20.27021066771973  22.04369484787591 20.830563091271788  21.589854361428294 21.17164831427804  C 21.15222225675939 21.51273353728429  20.503864765143522 21.683273879784963  19.644809903691705 21.683273879784963  C 19.51514091724745 21.683273879784963  19.280133390011628 21.683273879784963  18.939752542122278 21.683273879784963  C 18.61558104211892 21.683273879784963  18.22656635392794 21.683273879784963  17.772725867480325 21.683273879784963  C 17.33509376281142 21.683273879784963  16.897472285322564 21.683273879784963  16.45984018065366 21.683273879784963  C 16.022208075984757 21.683273879784963  15.63319338779378 21.683273879784963  15.292813506011708 21.683273879784963  C 14.968642006008347 21.683273879784963  14.749815809547492 21.683273879784963  14.63635520488195 21.683273879784963  C 13.793508725208847 21.683273879784963  13.12896990281801 21.585826698421773  12.642711686705692 21.390920839416278  C 12.15645443670065 21.19601498041078  11.80795635547371 20.846803340226845  11.597244494028617 20.34329662855608  C 11.402741497415873 19.85603204154907  11.305495554226342 19.16573965585707  11.305495554226342 18.272421286682043  Z " stroke-width="0" stroke-dasharray="0" stroke="rgba(121, 121, 121, 1)" fill="none" transform="matrix(1 0 0 1 621 581 )" class="stroke" mask="url(#Clip4831)" />
    <path d="M 17.991545301190243 6.261348950729654  C 18.94785238552889 5.5629366825870505  19.766366487334754 4.897014109377866  20.447127217006177 4.263569613809511  C 20.447127217006177 4.263569613809511  21.76004381926569 5.822811645314905  21.76004381926569 5.822811645314905  C 20.94961410315001 6.504981970313945  20.033823625775405 7.179035680225924  19.012682048214636 7.844964062081403  C 17.991540470653863 8.494650016739463  16.921774713864227 9.128095480415533  15.8033818795239 9.745297548786468  C 14.701198393069566 10.362499133103546  13.615219423964838 10.947213442756494  12.54545173496065 11.499446770445466  C 12.480618207845799 11.288298605256015  12.36715953539481 11.052788493458937  12.205072819285855 10.792914014784941  C 12.059195451062886 10.516797592967384  11.921432417855678 10.273164089329235  11.7917643975187 10.062015924139784  C 12.829114356858186 9.509783080504668  13.88266786744 8.908822471223438  14.952434590336912 8.25913603251152  C 16.022201313233822 7.609450077853462  17.0352382168516 6.943519275728695  17.991545301190243 6.261348950729654  Z " stroke-width="0" stroke-dasharray="0" stroke="rgba(121, 121, 121, 1)" fill="none" transform="matrix(1 0 0 1 621 581 )" class="stroke" mask="url(#Clip4831)" />
    <path d="M 5.178644156647154 3.7763016384254975  C 5.924239138013886 2.541897501683627  6.5644743242289625 1.2831299661725561  7.099358168731055 0  C 7.099358168731055 0  8.874213168630245 0.6090869054454475  8.874213168630245 0.6090869054454475  C 8.25828693218095 2.0221533848742146  7.536987375078129 3.4108535612106343  6.710349277183739 4.775195179316432  C 5.883710937762529 6.1395358293145135  4.992254770469713 7.422665795487069  4.035947927657888 8.6245850778341  C 3.0958497081515928 9.81026193298371  2.115238504583549 10.85788130330533  1.0940971685495957 11.767442220691242  C 1.0454714193964099 11.605020368986334  0.948194621155733 11.41011075856344  0.8023173133144705 11.182720650230427  C 0.6726486287787397 10.955330541897414  0.5348862597702849 10.727943337887547  0.3890088915473174 10.500553229554534  C 0.24313158370605473 10.256921178077958  0.11346012161190379 10.06201882846293  0 9.915839403955442  C 0.9400982798879988 9.136215967933456  1.847767478350796 8.226652146224398  2.723031325398372 7.187154231528417  C 3.61450391651489 6.131414373688874  4.433048933753604 4.99446286391609  5.178644156647154 3.7763016384254975  Z " stroke-width="0" stroke-dasharray="0" stroke="rgba(121, 121, 121, 1)" fill="none" transform="matrix(1 0 0 1 621 581 )" class="stroke" mask="url(#Clip4831)" />
    <path d="M 4.303397337240327 22  L 4.303397337240327 6.383167880791088  L 6.102551867359351 4.580287989162826  L 6.126851397579188 4.62901865913209  L 6.126851397579188 22  L 4.303397337240327 22  Z " stroke-width="0" stroke-dasharray="0" stroke="rgba(121, 121, 121, 1)" fill="none" transform="matrix(1 0 0 1 621 581 )" class="stroke" mask="url(#Clip4831)" />
  </g>
</svg>