<?xml version="1.0" encoding="utf-8"?>
<svg version="1.1" xmlns:xlink="http://www.w3.org/1999/xlink" width="32px" height="42px" xmlns="http://www.w3.org/2000/svg">
  <defs>
    <pattern id="BGPattern" patternUnits="userSpaceOnUse" alignment="0 0" imageRepeat="None" />
    <mask fill="white" id="Clip4776">
      <path d="M 16.2519602260283 0  C 19.46455823732971 0  21.732282873287733 0.8387084770809966  24 3.161288016763495  C 24 3.161288016763495  17.826769209589308 9.548387038399076  17.826769209589308 9.548387038399076  C 16.566928030137106 8.258063790088505  15.496075793320525 7.54838590738117  13.480327653423277 7.54838590738117  C 10.960643417207438 7.54838590738117  8.18898268493082 9.483869818481805  8.18898268493082 13.741935191995378  C 8.18898268493082 13.741935191995378  8.18898268493082 34  8.18898268493082 34  L 0 34  L 0 0.387095628581863  L 7.999989987672322 0.387095628581863  C 7.999989987672322 0.387095628581863  7.999989987672322 3.6129027879930686  7.999989987672322 3.6129027879930686  C 9.574793339299013 1.6774169541619932  12.724400042552393 0  16.2519602260283 0  Z " fill-rule="evenodd" />
    </mask>
  </defs>
  <g transform="matrix(1 0 0 1 -446 -324 )">
    <path d="M 16.2519602260283 0  C 19.46455823732971 0  21.732282873287733 0.8387084770809966  24 3.161288016763495  C 24 3.161288016763495  17.826769209589308 9.548387038399076  17.826769209589308 9.548387038399076  C 16.566928030137106 8.258063790088505  15.496075793320525 7.54838590738117  13.480327653423277 7.54838590738117  C 10.960643417207438 7.54838590738117  8.18898268493082 9.483869818481805  8.18898268493082 13.741935191995378  C 8.18898268493082 13.741935191995378  8.18898268493082 34  8.18898268493082 34  L 0 34  L 0 0.387095628581863  L 7.999989987672322 0.387095628581863  C 7.999989987672322 0.387095628581863  7.999989987672322 3.6129027879930686  7.999989987672322 3.6129027879930686  C 9.574793339299013 1.6774169541619932  12.724400042552393 0  16.2519602260283 0  Z " fill-rule="nonzero" fill="rgba(61, 63, 148, 1)" stroke="none" transform="matrix(1 0 0 1 450 324 )" class="fill" />
    <path d="M 16.2519602260283 0  C 19.46455823732971 0  21.732282873287733 0.8387084770809966  24 3.161288016763495  C 24 3.161288016763495  17.826769209589308 9.548387038399076  17.826769209589308 9.548387038399076  C 16.566928030137106 8.258063790088505  15.496075793320525 7.54838590738117  13.480327653423277 7.54838590738117  C 10.960643417207438 7.54838590738117  8.18898268493082 9.483869818481805  8.18898268493082 13.741935191995378  C 8.18898268493082 13.741935191995378  8.18898268493082 34  8.18898268493082 34  L 0 34  L 0 0.387095628581863  L 7.999989987672322 0.387095628581863  C 7.999989987672322 0.387095628581863  7.999989987672322 3.6129027879930686  7.999989987672322 3.6129027879930686  C 9.574793339299013 1.6774169541619932  12.724400042552393 0  16.2519602260283 0  Z " stroke-width="0" stroke-dasharray="0" stroke="rgba(121, 121, 121, 1)" fill="none" transform="matrix(1 0 0 1 450 324 )" class="stroke" mask="url(#Clip4776)" />
  </g>
  <style>svg { filter: drop-shadow(0px 4px 2px rgba(0, 0, 0, 0.12941176470588237)); }</style>
</svg>