<?xml version="1.0" encoding="utf-8"?>
<svg version="1.1" xmlns:xlink="http://www.w3.org/1999/xlink" width="37px" height="42px" xmlns="http://www.w3.org/2000/svg">
  <defs>
    <pattern id="BGPattern" patternUnits="userSpaceOnUse" alignment="0 0" imageRepeat="None" />
    <mask fill="white" id="Clip4783">
      <path d="M 29 15.88367657069127  C 29 15.88367657069127  29 19.583486585098147  29 19.583486585098147  C 29 19.583486585098147  8.176211789193363 19.583486585098147  8.176211789193363 19.583486585098147  C 8.176211789193363 23.85740747554001  10.795155698735055 26.983114218256084  15.458150651902745 26.983114218256084  C 19.099120083257436 26.983114218256084  20.88766403255306 25.96247530125784  22.995592801597823 23.857409376626055  C 22.995592801597823 23.857409376626055  28.041851251769593 28.769230184281216  28.041851251769593 28.769230184281216  C 24.656388914745282 32.15009309171052  21.398676317541476 34  15.39427102281164 34  C 7.537443101531249 34  0 30.42776331523462  0 16.968101677238753  C 0 6.123823996559258  5.876654603073158 0  14.500001903672343 0  C 23.7621159882613 0  29 6.761725814858598  29 15.88367657069127  Z M 8.176211789193363 13.906189678959127  C 8.176211789193363 13.906189678959127  20.823788210806637 13.906189678959127  20.823788210806637 13.906189678959127  C 20.75991048538787 12.439022720997617  20.5682830201486 11.545964737985052  20.057270735160184 10.333957746908862  C 19.162995905003864 8.356470855176719  17.310574230289475 6.8893038972152105  14.500001903672343 6.8893038972152105  C 11.689428625219037 6.8893038972152105  9.83700599866848 8.356470855176719  8.942733072184499 10.333957746908862  C 8.431719835359912 11.545964737985052  8.24008856277596 12.439022720997617  8.176211789193363 13.906189678959127  Z " fill-rule="evenodd" />
    </mask>
  </defs>
  <g transform="matrix(1 0 0 1 -176 -324 )">
    <path d="M 29 15.88367657069127  C 29 15.88367657069127  29 19.583486585098147  29 19.583486585098147  C 29 19.583486585098147  8.176211789193363 19.583486585098147  8.176211789193363 19.583486585098147  C 8.176211789193363 23.85740747554001  10.795155698735055 26.983114218256084  15.458150651902745 26.983114218256084  C 19.099120083257436 26.983114218256084  20.88766403255306 25.96247530125784  22.995592801597823 23.857409376626055  C 22.995592801597823 23.857409376626055  28.041851251769593 28.769230184281216  28.041851251769593 28.769230184281216  C 24.656388914745282 32.15009309171052  21.398676317541476 34  15.39427102281164 34  C 7.537443101531249 34  0 30.42776331523462  0 16.968101677238753  C 0 6.123823996559258  5.876654603073158 0  14.500001903672343 0  C 23.7621159882613 0  29 6.761725814858598  29 15.88367657069127  Z M 8.176211789193363 13.906189678959127  C 8.176211789193363 13.906189678959127  20.823788210806637 13.906189678959127  20.823788210806637 13.906189678959127  C 20.75991048538787 12.439022720997617  20.5682830201486 11.545964737985052  20.057270735160184 10.333957746908862  C 19.162995905003864 8.356470855176719  17.310574230289475 6.8893038972152105  14.500001903672343 6.8893038972152105  C 11.689428625219037 6.8893038972152105  9.83700599866848 8.356470855176719  8.942733072184499 10.333957746908862  C 8.431719835359912 11.545964737985052  8.24008856277596 12.439022720997617  8.176211789193363 13.906189678959127  Z " fill-rule="nonzero" fill="rgba(61, 63, 148, 1)" stroke="none" transform="matrix(1 0 0 1 180 324 )" class="fill" />
    <path d="M 29 15.88367657069127  C 29 15.88367657069127  29 19.583486585098147  29 19.583486585098147  C 29 19.583486585098147  8.176211789193363 19.583486585098147  8.176211789193363 19.583486585098147  C 8.176211789193363 23.85740747554001  10.795155698735055 26.983114218256084  15.458150651902745 26.983114218256084  C 19.099120083257436 26.983114218256084  20.88766403255306 25.96247530125784  22.995592801597823 23.857409376626055  C 22.995592801597823 23.857409376626055  28.041851251769593 28.769230184281216  28.041851251769593 28.769230184281216  C 24.656388914745282 32.15009309171052  21.398676317541476 34  15.39427102281164 34  C 7.537443101531249 34  0 30.42776331523462  0 16.968101677238753  C 0 6.123823996559258  5.876654603073158 0  14.500001903672343 0  C 23.7621159882613 0  29 6.761725814858598  29 15.88367657069127  Z " stroke-width="0" stroke-dasharray="0" stroke="rgba(121, 121, 121, 1)" fill="none" transform="matrix(1 0 0 1 180 324 )" class="stroke" mask="url(#Clip4783)" />
    <path d="M 8.176211789193363 13.906189678959127  C 8.176211789193363 13.906189678959127  20.823788210806637 13.906189678959127  20.823788210806637 13.906189678959127  C 20.75991048538787 12.439022720997617  20.5682830201486 11.545964737985052  20.057270735160184 10.333957746908862  C 19.162995905003864 8.356470855176719  17.310574230289475 6.8893038972152105  14.500001903672343 6.8893038972152105  C 11.689428625219037 6.8893038972152105  9.83700599866848 8.356470855176719  8.942733072184499 10.333957746908862  C 8.431719835359912 11.545964737985052  8.24008856277596 12.439022720997617  8.176211789193363 13.906189678959127  Z " stroke-width="0" stroke-dasharray="0" stroke="rgba(121, 121, 121, 1)" fill="none" transform="matrix(1 0 0 1 180 324 )" class="stroke" mask="url(#Clip4783)" />
  </g>
  <style>svg { filter: drop-shadow(0px 4px 2px rgba(0, 0, 0, 0.12941176470588237)); }</style>
</svg>