<?xml version="1.0" encoding="utf-8"?>
<svg version="1.1" xmlns:xlink="http://www.w3.org/1999/xlink" width="21px" height="16px" xmlns="http://www.w3.org/2000/svg">
  <defs>
    <pattern id="BGPattern" patternUnits="userSpaceOnUse" alignment="0 0" imageRepeat="None" />
    <mask fill="white" id="Clip4834">
      <path d="M 1.9864795783209304 2  L 1.9864795783209304 0  L 18.989884742772617 0  L 18.989884742772617 2  L 1.9864795783209304 2  Z M 0 16  L 0 14  L 21 14  L 21 16  L 0 16  Z " fill-rule="evenodd" />
    </mask>
  </defs>
  <g transform="matrix(1 0 0 1 -549 -584 )">
    <path d="M 1.9864795783209304 2  L 1.9864795783209304 0  L 18.989884742772617 0  L 18.989884742772617 2  L 1.9864795783209304 2  Z M 0 16  L 0 14  L 21 14  L 21 16  L 0 16  Z " fill-rule="nonzero" fill="rgba(0, 0, 0, 1)" stroke="none" transform="matrix(1 0 0 1 549 584 )" class="fill" />
    <path d="M 1.9864795783209304 2  L 1.9864795783209304 0  L 18.989884742772617 0  L 18.989884742772617 2  L 1.9864795783209304 2  Z " stroke-width="0" stroke-dasharray="0" stroke="rgba(121, 121, 121, 1)" fill="none" transform="matrix(1 0 0 1 549 584 )" class="stroke" mask="url(#Clip4834)" />
    <path d="M 0 16  L 0 14  L 21 14  L 21 16  L 0 16  Z " stroke-width="0" stroke-dasharray="0" stroke="rgba(121, 121, 121, 1)" fill="none" transform="matrix(1 0 0 1 549 584 )" class="stroke" mask="url(#Clip4834)" />
  </g>
</svg>