<?xml version="1.0" encoding="utf-8"?>
<svg version="1.1" xmlns:xlink="http://www.w3.org/1999/xlink" width="23px" height="22px" xmlns="http://www.w3.org/2000/svg">
  <defs>
    <pattern id="BGPattern" patternUnits="userSpaceOnUse" alignment="0 0" imageRepeat="None" />
    <mask fill="white" id="Clip4843">
      <path d="M 19.884650861132286 12.336226995113023  C 20.322746108438285 11.90672586732277  20.695942117203337 11.509035423853987  21.004231150389845 11.143164198124234  C 21.004231150389845 11.143164198124234  22.367203168552372 12.216918439836132  22.367203168552372 12.216918439836132  C 21.750625102179356 12.821401087174635  21.077252344154196 13.433837353751013  20.347093598644204 14.054227713644021  C 19.616934853134207 14.658710598021901  18.94356209510905 15.175707463413188  18.326984028736028 15.605208591203441  C 18.326984028736028 15.605208591203441  17.23174445977649 14.650755319508391  17.23174445977649 14.650755319508391  C 17.62116213500525 14.34851399583914  18.051147032644245 13.998550482663887  18.52169431704496 13.600864305903883  C 18.992240634315984 13.187270890668131  19.446555613826288 12.765728122903278  19.884650861132286 12.336226995113023  Z M 11.36614151243611 13.934926743627175  C 10.830691604540498 13.33044409628867  10.30335736552524 12.78958708430189  9.784133959741839 12.312363767005635  C 9.784133959741839 12.312363767005635  11.025402376414279 11.35791808057063  11.025402376414279 11.35791808057063  C 11.560851800745043 11.803326446836637  12.104416410391314 12.312367559635659  12.656091369704587 12.885035730022667  C 13.207767296147562 13.457703900409673  13.621522790285242 13.966737664988027  13.897359786377029 14.412145794214652  C 13.897359786377029 14.412145794214652  12.583069208810535 15.50976326403394  12.583069208810535 15.50976326403394  C 12.323456780571558 15.04844742225281  11.917816471749385 14.52350215248993  11.36614151243611 13.934926743627175  Z M 12.461381081395652 3.316708052305195  L 12.461381081395652 1.9088989581300542  L 19.519586478887643 1.9088989581300542  L 19.519586478887643 3.316708052305195  L 12.461381081395652 3.316708052305195  Z M 11.706880648457942 6.8242991736893535  L 11.706880648457942 5.416490079514213  L 18.984121580481673 5.416490079514213  L 18.984121580481673 6.8242991736893535  L 11.706880648457942 6.8242991736893535  Z M 9.102655687698178 10.1409996407345  L 9.102655687698178 9  L 22.488891295967253 9  L 22.488891295967253 10.1409996407345  L 9.102655687698178 10.1409996407345  Z M 14.91957719444252 20.091101041869944  C 14.91957719444252 20.091101041869944  14.91957719444252 9.114964269977333  14.91957719444252 9.114964269977333  L 16.59894762832886 9.114964269977333  C 16.59894762832886 9.114964269977333  16.59894762832886 20.114964269977335  16.59894762832886 20.114964269977335  C 16.59894762832886 20.560372695503183  16.542157772325222 20.90238795245645  16.428578060317946 21.1409996407345  C 16.33122388329318 21.39551871563791  16.120281290093832 21.586404510669702  15.795765754795113 21.713664018491485  C 15.503702256591115 21.840923585573112  15.106176165954746 21.920458592754972  14.603178778718707 21.952273543785225  C 14.116405959335475 21.984088376295787  13.516052460815267 22  12.802120217417485 22  C 12.769668180322762 21.761388341351875  12.696648920817811 21.498915706470434  12.583069208810535 21.21258173979662  C 12.485714064656069 20.926247743492883  12.380250505093997 20.671723335203502  12.266670793086723 20.44901912244058  C 12.785894682434973 20.464926568325783  13.256440032576293 20.472882350547966  13.678308777770077 20.472882350547966  C 14.116404025076076 20.472882350547966  14.408465589020672 20.472882350547966  14.554497338122673 20.472882350547966  C 14.70052908722467 20.456974904662765  14.79789293554644 20.42515936103407  14.846570507623674 20.377437023378462  C 14.895248079700906 20.329714700537814  14.91957719444252 20.234268040021814  14.91957719444252 20.091101041869944  Z M 9.29736597600711 20.75921833205648  C 9.29736597600711 20.75921833205648  8.348155254760465 19.18438181164972  8.348155254760465 19.18438181164972  C 9.045862446740587 18.802603169664685  9.881488136766604 18.30947350279034  10.855032808403365 17.70499061841246  C 11.844803498587487 17.084600258519455  12.850797789494719 16.456252486758547  13.87301906607901 15.819954888389795  C 13.87301906607901 15.819954888389795  14.432809210707791 17.156181883502818  14.432809210707791 17.156181883502818  C 13.556618716095796 17.79247971891095  12.672317871816796 18.420819786892118  11.779902809351993 19.04121002826544  C 10.903712314739998 19.661600388158444  10.076201810029488 20.234272706734536  9.29736597600711 20.75921833205648  Z M 15.406345178177249 10.546636592259862  C 15.406345178177249 10.546636592259862  16.452918780615963 9.258136053361616  16.452918780615963 9.258136053361616  C 16.61517606470047 10.164860498448125  16.842333554455625 11.111355884196525  17.134397052659622 12.097617469819284  C 17.442686085846134 13.067971342887544  17.84832639466831 14.014459617454648  18.35132474903405 14.937091301016906  C 18.85432310339979 15.859723221618543  19.487120901977114 16.710772095000554  20.249730717452135 17.49023673596606  C 21.012340532927148 18.253794079195977  21.929100184208774 18.882141673177347  23 19.37527246598873  C 22.886419320863023 19.48662455755523  22.756611172484135 19.6297907556992  22.610579423382138 19.804772645621476  C 22.464547674280137 19.97975453554375  22.31852462934544 20.154736277316417  22.17249288024344 20.32971815242373  C 22.042686666123952 20.52060747341625  21.937207632486675 20.695589200373952  21.856078990444423 20.854663659225984  C 20.801405676765405 20.281995666618513  19.900875428985096 19.582068699527852  19.15449114849259 18.754881632016968  C 18.408106868000083 17.92769450524624  17.783423287608564 17.03687427638343  17.28042590037252 16.08242764179092  C 16.77742754600678 15.127981007198413  16.379902422500113 14.17353721707842  16.087838924296115 13.21909058248591  C 15.795775426092117 12.2646439478934  15.568602462261758 11.373823896810121  15.406345178177249 10.546636592259862  Z M 11.682539928159922 2.5054265639944253  C 11.909700319304179 1.5987016448291627  12.104413509002212 0.7635569284110053  12.266670793086723 0  C 12.266670793086723 0  14.019047913791908 0.2147538824463981  14.019047913791908 0.2147538824463981  C 13.840564127595187 1.010126235966407  13.629637008471047 1.8611753463877956  13.386251082344282 2.7678993173955524  C 13.159090691200028 3.6746232884033097  12.931933201444876 4.549531834302063  12.704772810300621 5.392626851406824  C 12.477612419156369 6.235720920354081  12.258554640641515 6.975419361445226  12.047619784479771 7.611717433892736  C 12.047619784479771 7.611717433892736  10.319583384072603 7.3492446804916085  10.319583384072603 7.3492446804916085  C 10.530518240234345 6.712946608044099  10.749560544673992 5.973248166952953  10.976720935818244 5.130154098005697  C 11.22010686194501 4.271151842425187  11.45537905345082 3.3962432965264333  11.682539928159922 2.5054265639944253  Z M 18.81375201247076 2.123645255316405  C 18.81375201247076 2.123645255316405  18.81375201247076 1.9088989581300542  18.81375201247076 1.9088989581300542  L 19.00846230077969 1.9088989581300542  L 19.300535470280693 1.813453630960549  C 19.300535470280693 1.813453630960549  20.56614460725115 2.004344285299559  20.56614460725115 2.004344285299559  C 20.452563928114174 2.7201794982833176  20.314640594419778 3.515545214700786  20.15238331033527 4.390454708757044  C 19.99012602625076 5.249456016180049  19.81164320718374 6.116417105864716  19.616933886004507 6.991326599920975  C 19.438451066937485 7.850328855501486  19.259967280740764 8.653650087471839  19.081484461673742 9.40130025148585  C 19.081484461673742 9.40130025148585  17.402114027787402 9.210409597146839  17.402114027787402 9.210409597146839  C 17.580596846854423 8.44685219465708  17.759080633051145 7.619670579051856  17.937563452118166 6.728853846519848  C 18.116047238314884 5.83803711398784  18.286414872066402 4.986988003566451  18.448672156150913 4.175708411570693  C 18.610929440235424 3.3485215810991873  18.732623370428506 2.6644989487519144  18.81375201247076 2.123645255316405  Z M 3.383081588070699 1.765727174745773  C 3.691370863039633 1.113521863822516  3.9428577093188246 0.5249455068022543  4.137566546933207 0  C 4.137566546933207 0  5.743914819925496 0.5965351911244182  5.743914819925496 0.5965351911244182  C 5.451851321721498 1.185110599987174  5.127345215937356 1.7975463924848  4.770378852456039 2.4338444649323083  C 4.429638023957232 3.0701425373798163  4.080787087573847 3.690526734249035  3.7238207240925294 4.29500938158754  C 3.3830801373761483 4.883584790450295  3.058558315734376 5.4005818928809575  2.750269282547867 5.845990259146962  C 2.750269282547867 5.845990259146962  1.4846601455774084 5.2971815242373195  1.4846601455774084 5.2971815242373195  C 1.7929492996551297 4.835865919495567  2.109356056872609 4.29500938158754  2.4338708668240536 3.674618547615781  C 2.7746114535404347 3.054228661801527  3.091018089866701 2.4179324856690303  3.383081588070699 1.765727174745773  Z M 5.719589573702684 4.772236017435065  C 6.157684821008681 4.040493565975558  6.538980057449185 3.3564699854707793  6.863495109183056 2.7201728611807767  C 6.863495109183056 2.7201728611807767  8.3968366953565 3.436009022322041  8.3968366953565 3.436009022322041  C 7.845161252478375 4.3109185163783  7.228577866892005 5.24945791249506  6.547096693459244 6.251627210672323  C 5.865615520026481 7.23788832221633  5.17601287493516 8.192332586415075  4.478305682955037 9.114964269977333  C 3.796824509522275 10.037596427618345  3.147796582096361 10.8409257189275  2.531218273940917 11.524945506802254  C 2.531218273940917 11.524945506802254  1.411653458758562 10.904554672830496  1.411653458758562 10.904554672830496  C 1.86597424104707 10.37960916602824  2.34463405115662 9.783077293455092  2.8476321637399358 9.114964269977333  C 3.3506302763232525 8.430944008023825  3.845504499423759 7.723069051380483  4.332276835242139 6.991326599920975  C 4.819049171060519 6.2436769099857194  5.281494568179112 5.503978468894573  5.719589573702684 4.772236017435065  Z M 1.55768230647146 6.299353666887099  C 1.1195871800566755 5.822130823669596  0.6896017988528328 5.38467655072022  0.2677324492029842 4.986989899881463  C 0.2677324492029842 4.986989899881463  1.2169431704496296 3.8416535591074497  1.2169431704496296 3.8416535591074497  C 1.6550382968644142 4.223432023312951  2.0931231475261325 4.644975265156556  2.531218273940917 5.106290869898309  C 2.9855390562294257 5.567607422797568  3.3992945503671055 6.020972726852716  3.7724866906133587 6.466381093118721  C 4.145678830859612 6.911789459384725  4.43775611066184 7.317428307225098  4.648690725041158 7.683299532954853  C 4.648690725041158 7.683299532954853  3.6264578429004604 9.019526528067876  3.6264578429004604 9.019526528067876  C 3.415522986738718 8.63774758978362  3.1234611810116952 8.208241721205836  2.750269282547867 7.73101840390958  C 2.3933027981753376 7.253795560692079  1.9957774328862445 6.776577458262107  1.55768230647146 6.299353666887099  Z M 6.863495109183056 9.902390115440761  C 6.571431610979058 9.281999755547755  6.255024974652792 8.709327318451972  5.91428438793641 8.184381811649718  C 5.91428438793641 8.184381811649718  7.252915685800921 7.659436304847463  7.252915685800921 7.659436304847463  C 7.593656756082153 8.168475047252722  7.9181780941590745 8.725235505085227  8.226467127345582 9.329718152423732  C 8.534756160532094 9.93420127384099  8.810587837410528 10.52277763086125  9.053974247102143 11.095445327169505  C 9.313586191776269 11.652206259080764  9.500184196158797 12.145335866695262  9.613764391730923 12.574836520406762  C 9.613764391730923 12.574836520406762  8.153444966451532 13.242946225333252  8.153444966451532 13.242946225333252  C 8.056090305861916 12.7816306205915  7.8857226721104015 12.264641103420884  7.6423362624187865 11.691972933033878  C 7.415175871274532 11.10339752417112  7.155558123822205 10.506872762779267  6.863495109183056 9.902390115440761  Z M 0.2677324492029842 12.145336340774014  C 0.2677324492029842 12.145336340774014  0.04868144059603447 10.546636592259862  0.04868144059603447 10.546636592259862  C 1.103354875166262 10.498914402753863  2.3527360593299593 10.443239068088742  3.796827410911376 10.37960916602824  C 5.257144418366516 10.300072025491989  6.749912979351529 10.220536781270752  8.275133093866414 10.1409996407345  C 8.275133093866414 10.1409996407345  8.275133093866414 11.644254062079145  8.275133093866414 11.644254062079145  C 6.847267639941145 11.7396989151699  5.427518338461083 11.835137605236865  4.015878419518326 11.930582458327617  C 2.6204642773405045 12.010119598863866  1.3710830931768074 12.081706912792265  0.2677324492029842 12.145336340774014  Z M 7.3502630929177855 16.225591839915154  C 7.12310270177353 15.398404772404271  6.863500911961259 14.642802648428024  6.571437413757261 13.958782386474514  C 6.571437413757261 13.958782386474514  7.910053237546565 13.577008663056544  7.910053237546565 13.577008663056544  C 8.218342270733075 14.26102892501005  8.494189421686714 15.00867505935466  8.73757583137833 15.819954888389795  C 8.980961757505096 16.615327004870426  9.143214689505953 17.307298278628668  9.224343815113059 17.895873687491424  C 9.224343815113059 17.895873687491424  7.788365110131685 18.34923709523156  7.788365110131685 18.34923709523156  C 7.739688021619301 17.74475421085368  7.5936495026094 17.036871550430604  7.3502630929177855 16.225591839915154  Z M 0.9735514415446626 16.726681703870067  C 1.2169376094538527 15.708605404256433  1.4035356138363797 14.682574537247419  1.5333415861734427 13.64859076211866  C 1.5333415861734427 13.64859076211866  3.0666676982716807 13.887200287412398  3.0666676982716807 13.887200287412398  C 2.9044101724047455 15.01662891563191  2.6772528035408047 16.130150423895362  2.3851894262280195 17.227763982564937  C 2.1093518256801698 18.30947030275876  1.784845599004815 19.232106015990418  1.411653458758562 19.995663299960487  C 1.3142989190601584 19.932033531234634  1.1763753435833384 19.860446646940108  0.9978921618426798 19.780909417514092  C 0.8194089801020212 19.685464757017833  0.6409259192525752 19.597973893538978  0.4624427375119167 19.51843666411296  C 0.2839595557712582 19.43889946431687  0.12980597233706304 19.37526834742956  0 19.327546009773954  C 0.4056436333305188 18.595803558314444  0.7301653340810788 17.728850765007955  0.9735514415446626 16.726681703870067  Z M 4.1132258266351895 21.952273543785225  L 4.1132258266351895 11.262472753401125  L 6 11.262472753401125  L 6 21.952273543785225  L 4.1132258266351895 21.952273543785225  Z " fill-rule="evenodd" />
    </mask>
  </defs>
  <g transform="matrix(1 0 0 1 -309 -581 )">
    <path d="M 19.884650861132286 12.336226995113023  C 20.322746108438285 11.90672586732277  20.695942117203337 11.509035423853987  21.004231150389845 11.143164198124234  C 21.004231150389845 11.143164198124234  22.367203168552372 12.216918439836132  22.367203168552372 12.216918439836132  C 21.750625102179356 12.821401087174635  21.077252344154196 13.433837353751013  20.347093598644204 14.054227713644021  C 19.616934853134207 14.658710598021901  18.94356209510905 15.175707463413188  18.326984028736028 15.605208591203441  C 18.326984028736028 15.605208591203441  17.23174445977649 14.650755319508391  17.23174445977649 14.650755319508391  C 17.62116213500525 14.34851399583914  18.051147032644245 13.998550482663887  18.52169431704496 13.600864305903883  C 18.992240634315984 13.187270890668131  19.446555613826288 12.765728122903278  19.884650861132286 12.336226995113023  Z M 11.36614151243611 13.934926743627175  C 10.830691604540498 13.33044409628867  10.30335736552524 12.78958708430189  9.784133959741839 12.312363767005635  C 9.784133959741839 12.312363767005635  11.025402376414279 11.35791808057063  11.025402376414279 11.35791808057063  C 11.560851800745043 11.803326446836637  12.104416410391314 12.312367559635659  12.656091369704587 12.885035730022667  C 13.207767296147562 13.457703900409673  13.621522790285242 13.966737664988027  13.897359786377029 14.412145794214652  C 13.897359786377029 14.412145794214652  12.583069208810535 15.50976326403394  12.583069208810535 15.50976326403394  C 12.323456780571558 15.04844742225281  11.917816471749385 14.52350215248993  11.36614151243611 13.934926743627175  Z M 12.461381081395652 3.316708052305195  L 12.461381081395652 1.9088989581300542  L 19.519586478887643 1.9088989581300542  L 19.519586478887643 3.316708052305195  L 12.461381081395652 3.316708052305195  Z M 11.706880648457942 6.8242991736893535  L 11.706880648457942 5.416490079514213  L 18.984121580481673 5.416490079514213  L 18.984121580481673 6.8242991736893535  L 11.706880648457942 6.8242991736893535  Z M 9.102655687698178 10.1409996407345  L 9.102655687698178 9  L 22.488891295967253 9  L 22.488891295967253 10.1409996407345  L 9.102655687698178 10.1409996407345  Z M 14.91957719444252 20.091101041869944  C 14.91957719444252 20.091101041869944  14.91957719444252 9.114964269977333  14.91957719444252 9.114964269977333  L 16.59894762832886 9.114964269977333  C 16.59894762832886 9.114964269977333  16.59894762832886 20.114964269977335  16.59894762832886 20.114964269977335  C 16.59894762832886 20.560372695503183  16.542157772325222 20.90238795245645  16.428578060317946 21.1409996407345  C 16.33122388329318 21.39551871563791  16.120281290093832 21.586404510669702  15.795765754795113 21.713664018491485  C 15.503702256591115 21.840923585573112  15.106176165954746 21.920458592754972  14.603178778718707 21.952273543785225  C 14.116405959335475 21.984088376295787  13.516052460815267 22  12.802120217417485 22  C 12.769668180322762 21.761388341351875  12.696648920817811 21.498915706470434  12.583069208810535 21.21258173979662  C 12.485714064656069 20.926247743492883  12.380250505093997 20.671723335203502  12.266670793086723 20.44901912244058  C 12.785894682434973 20.464926568325783  13.256440032576293 20.472882350547966  13.678308777770077 20.472882350547966  C 14.116404025076076 20.472882350547966  14.408465589020672 20.472882350547966  14.554497338122673 20.472882350547966  C 14.70052908722467 20.456974904662765  14.79789293554644 20.42515936103407  14.846570507623674 20.377437023378462  C 14.895248079700906 20.329714700537814  14.91957719444252 20.234268040021814  14.91957719444252 20.091101041869944  Z M 9.29736597600711 20.75921833205648  C 9.29736597600711 20.75921833205648  8.348155254760465 19.18438181164972  8.348155254760465 19.18438181164972  C 9.045862446740587 18.802603169664685  9.881488136766604 18.30947350279034  10.855032808403365 17.70499061841246  C 11.844803498587487 17.084600258519455  12.850797789494719 16.456252486758547  13.87301906607901 15.819954888389795  C 13.87301906607901 15.819954888389795  14.432809210707791 17.156181883502818  14.432809210707791 17.156181883502818  C 13.556618716095796 17.79247971891095  12.672317871816796 18.420819786892118  11.779902809351993 19.04121002826544  C 10.903712314739998 19.661600388158444  10.076201810029488 20.234272706734536  9.29736597600711 20.75921833205648  Z M 15.406345178177249 10.546636592259862  C 15.406345178177249 10.546636592259862  16.452918780615963 9.258136053361616  16.452918780615963 9.258136053361616  C 16.61517606470047 10.164860498448125  16.842333554455625 11.111355884196525  17.134397052659622 12.097617469819284  C 17.442686085846134 13.067971342887544  17.84832639466831 14.014459617454648  18.35132474903405 14.937091301016906  C 18.85432310339979 15.859723221618543  19.487120901977114 16.710772095000554  20.249730717452135 17.49023673596606  C 21.012340532927148 18.253794079195977  21.929100184208774 18.882141673177347  23 19.37527246598873  C 22.886419320863023 19.48662455755523  22.756611172484135 19.6297907556992  22.610579423382138 19.804772645621476  C 22.464547674280137 19.97975453554375  22.31852462934544 20.154736277316417  22.17249288024344 20.32971815242373  C 22.042686666123952 20.52060747341625  21.937207632486675 20.695589200373952  21.856078990444423 20.854663659225984  C 20.801405676765405 20.281995666618513  19.900875428985096 19.582068699527852  19.15449114849259 18.754881632016968  C 18.408106868000083 17.92769450524624  17.783423287608564 17.03687427638343  17.28042590037252 16.08242764179092  C 16.77742754600678 15.127981007198413  16.379902422500113 14.17353721707842  16.087838924296115 13.21909058248591  C 15.795775426092117 12.2646439478934  15.568602462261758 11.373823896810121  15.406345178177249 10.546636592259862  Z M 11.682539928159922 2.5054265639944253  C 11.909700319304179 1.5987016448291627  12.104413509002212 0.7635569284110053  12.266670793086723 0  C 12.266670793086723 0  14.019047913791908 0.2147538824463981  14.019047913791908 0.2147538824463981  C 13.840564127595187 1.010126235966407  13.629637008471047 1.8611753463877956  13.386251082344282 2.7678993173955524  C 13.159090691200028 3.6746232884033097  12.931933201444876 4.549531834302063  12.704772810300621 5.392626851406824  C 12.477612419156369 6.235720920354081  12.258554640641515 6.975419361445226  12.047619784479771 7.611717433892736  C 12.047619784479771 7.611717433892736  10.319583384072603 7.3492446804916085  10.319583384072603 7.3492446804916085  C 10.530518240234345 6.712946608044099  10.749560544673992 5.973248166952953  10.976720935818244 5.130154098005697  C 11.22010686194501 4.271151842425187  11.45537905345082 3.3962432965264333  11.682539928159922 2.5054265639944253  Z M 18.81375201247076 2.123645255316405  C 18.81375201247076 2.123645255316405  18.81375201247076 1.9088989581300542  18.81375201247076 1.9088989581300542  L 19.00846230077969 1.9088989581300542  L 19.300535470280693 1.813453630960549  C 19.300535470280693 1.813453630960549  20.56614460725115 2.004344285299559  20.56614460725115 2.004344285299559  C 20.452563928114174 2.7201794982833176  20.314640594419778 3.515545214700786  20.15238331033527 4.390454708757044  C 19.99012602625076 5.249456016180049  19.81164320718374 6.116417105864716  19.616933886004507 6.991326599920975  C 19.438451066937485 7.850328855501486  19.259967280740764 8.653650087471839  19.081484461673742 9.40130025148585  C 19.081484461673742 9.40130025148585  17.402114027787402 9.210409597146839  17.402114027787402 9.210409597146839  C 17.580596846854423 8.44685219465708  17.759080633051145 7.619670579051856  17.937563452118166 6.728853846519848  C 18.116047238314884 5.83803711398784  18.286414872066402 4.986988003566451  18.448672156150913 4.175708411570693  C 18.610929440235424 3.3485215810991873  18.732623370428506 2.6644989487519144  18.81375201247076 2.123645255316405  Z M 3.383081588070699 1.765727174745773  C 3.691370863039633 1.113521863822516  3.9428577093188246 0.5249455068022543  4.137566546933207 0  C 4.137566546933207 0  5.743914819925496 0.5965351911244182  5.743914819925496 0.5965351911244182  C 5.451851321721498 1.185110599987174  5.127345215937356 1.7975463924848  4.770378852456039 2.4338444649323083  C 4.429638023957232 3.0701425373798163  4.080787087573847 3.690526734249035  3.7238207240925294 4.29500938158754  C 3.3830801373761483 4.883584790450295  3.058558315734376 5.4005818928809575  2.750269282547867 5.845990259146962  C 2.750269282547867 5.845990259146962  1.4846601455774084 5.2971815242373195  1.4846601455774084 5.2971815242373195  C 1.7929492996551297 4.835865919495567  2.109356056872609 4.29500938158754  2.4338708668240536 3.674618547615781  C 2.7746114535404347 3.054228661801527  3.091018089866701 2.4179324856690303  3.383081588070699 1.765727174745773  Z M 5.719589573702684 4.772236017435065  C 6.157684821008681 4.040493565975558  6.538980057449185 3.3564699854707793  6.863495109183056 2.7201728611807767  C 6.863495109183056 2.7201728611807767  8.3968366953565 3.436009022322041  8.3968366953565 3.436009022322041  C 7.845161252478375 4.3109185163783  7.228577866892005 5.24945791249506  6.547096693459244 6.251627210672323  C 5.865615520026481 7.23788832221633  5.17601287493516 8.192332586415075  4.478305682955037 9.114964269977333  C 3.796824509522275 10.037596427618345  3.147796582096361 10.8409257189275  2.531218273940917 11.524945506802254  C 2.531218273940917 11.524945506802254  1.411653458758562 10.904554672830496  1.411653458758562 10.904554672830496  C 1.86597424104707 10.37960916602824  2.34463405115662 9.783077293455092  2.8476321637399358 9.114964269977333  C 3.3506302763232525 8.430944008023825  3.845504499423759 7.723069051380483  4.332276835242139 6.991326599920975  C 4.819049171060519 6.2436769099857194  5.281494568179112 5.503978468894573  5.719589573702684 4.772236017435065  Z M 1.55768230647146 6.299353666887099  C 1.1195871800566755 5.822130823669596  0.6896017988528328 5.38467655072022  0.2677324492029842 4.986989899881463  C 0.2677324492029842 4.986989899881463  1.2169431704496296 3.8416535591074497  1.2169431704496296 3.8416535591074497  C 1.6550382968644142 4.223432023312951  2.0931231475261325 4.644975265156556  2.531218273940917 5.106290869898309  C 2.9855390562294257 5.567607422797568  3.3992945503671055 6.020972726852716  3.7724866906133587 6.466381093118721  C 4.145678830859612 6.911789459384725  4.43775611066184 7.317428307225098  4.648690725041158 7.683299532954853  C 4.648690725041158 7.683299532954853  3.6264578429004604 9.019526528067876  3.6264578429004604 9.019526528067876  C 3.415522986738718 8.63774758978362  3.1234611810116952 8.208241721205836  2.750269282547867 7.73101840390958  C 2.3933027981753376 7.253795560692079  1.9957774328862445 6.776577458262107  1.55768230647146 6.299353666887099  Z M 6.863495109183056 9.902390115440761  C 6.571431610979058 9.281999755547755  6.255024974652792 8.709327318451972  5.91428438793641 8.184381811649718  C 5.91428438793641 8.184381811649718  7.252915685800921 7.659436304847463  7.252915685800921 7.659436304847463  C 7.593656756082153 8.168475047252722  7.9181780941590745 8.725235505085227  8.226467127345582 9.329718152423732  C 8.534756160532094 9.93420127384099  8.810587837410528 10.52277763086125  9.053974247102143 11.095445327169505  C 9.313586191776269 11.652206259080764  9.500184196158797 12.145335866695262  9.613764391730923 12.574836520406762  C 9.613764391730923 12.574836520406762  8.153444966451532 13.242946225333252  8.153444966451532 13.242946225333252  C 8.056090305861916 12.7816306205915  7.8857226721104015 12.264641103420884  7.6423362624187865 11.691972933033878  C 7.415175871274532 11.10339752417112  7.155558123822205 10.506872762779267  6.863495109183056 9.902390115440761  Z M 0.2677324492029842 12.145336340774014  C 0.2677324492029842 12.145336340774014  0.04868144059603447 10.546636592259862  0.04868144059603447 10.546636592259862  C 1.103354875166262 10.498914402753863  2.3527360593299593 10.443239068088742  3.796827410911376 10.37960916602824  C 5.257144418366516 10.300072025491989  6.749912979351529 10.220536781270752  8.275133093866414 10.1409996407345  C 8.275133093866414 10.1409996407345  8.275133093866414 11.644254062079145  8.275133093866414 11.644254062079145  C 6.847267639941145 11.7396989151699  5.427518338461083 11.835137605236865  4.015878419518326 11.930582458327617  C 2.6204642773405045 12.010119598863866  1.3710830931768074 12.081706912792265  0.2677324492029842 12.145336340774014  Z M 7.3502630929177855 16.225591839915154  C 7.12310270177353 15.398404772404271  6.863500911961259 14.642802648428024  6.571437413757261 13.958782386474514  C 6.571437413757261 13.958782386474514  7.910053237546565 13.577008663056544  7.910053237546565 13.577008663056544  C 8.218342270733075 14.26102892501005  8.494189421686714 15.00867505935466  8.73757583137833 15.819954888389795  C 8.980961757505096 16.615327004870426  9.143214689505953 17.307298278628668  9.224343815113059 17.895873687491424  C 9.224343815113059 17.895873687491424  7.788365110131685 18.34923709523156  7.788365110131685 18.34923709523156  C 7.739688021619301 17.74475421085368  7.5936495026094 17.036871550430604  7.3502630929177855 16.225591839915154  Z M 0.9735514415446626 16.726681703870067  C 1.2169376094538527 15.708605404256433  1.4035356138363797 14.682574537247419  1.5333415861734427 13.64859076211866  C 1.5333415861734427 13.64859076211866  3.0666676982716807 13.887200287412398  3.0666676982716807 13.887200287412398  C 2.9044101724047455 15.01662891563191  2.6772528035408047 16.130150423895362  2.3851894262280195 17.227763982564937  C 2.1093518256801698 18.30947030275876  1.784845599004815 19.232106015990418  1.411653458758562 19.995663299960487  C 1.3142989190601584 19.932033531234634  1.1763753435833384 19.860446646940108  0.9978921618426798 19.780909417514092  C 0.8194089801020212 19.685464757017833  0.6409259192525752 19.597973893538978  0.4624427375119167 19.51843666411296  C 0.2839595557712582 19.43889946431687  0.12980597233706304 19.37526834742956  0 19.327546009773954  C 0.4056436333305188 18.595803558314444  0.7301653340810788 17.728850765007955  0.9735514415446626 16.726681703870067  Z M 4.1132258266351895 21.952273543785225  L 4.1132258266351895 11.262472753401125  L 6 11.262472753401125  L 6 21.952273543785225  L 4.1132258266351895 21.952273543785225  Z " fill-rule="nonzero" fill="rgba(0, 0, 0, 1)" stroke="none" transform="matrix(1 0 0 1 309 581 )" class="fill" />
    <path d="M 19.884650861132286 12.336226995113023  C 20.322746108438285 11.90672586732277  20.695942117203337 11.509035423853987  21.004231150389845 11.143164198124234  C 21.004231150389845 11.143164198124234  22.367203168552372 12.216918439836132  22.367203168552372 12.216918439836132  C 21.750625102179356 12.821401087174635  21.077252344154196 13.433837353751013  20.347093598644204 14.054227713644021  C 19.616934853134207 14.658710598021901  18.94356209510905 15.175707463413188  18.326984028736028 15.605208591203441  C 18.326984028736028 15.605208591203441  17.23174445977649 14.650755319508391  17.23174445977649 14.650755319508391  C 17.62116213500525 14.34851399583914  18.051147032644245 13.998550482663887  18.52169431704496 13.600864305903883  C 18.992240634315984 13.187270890668131  19.446555613826288 12.765728122903278  19.884650861132286 12.336226995113023  Z " stroke-width="0" stroke-dasharray="0" stroke="rgba(121, 121, 121, 1)" fill="none" transform="matrix(1 0 0 1 309 581 )" class="stroke" mask="url(#Clip4843)" />
    <path d="M 11.36614151243611 13.934926743627175  C 10.830691604540498 13.33044409628867  10.30335736552524 12.78958708430189  9.784133959741839 12.312363767005635  C 9.784133959741839 12.312363767005635  11.025402376414279 11.35791808057063  11.025402376414279 11.35791808057063  C 11.560851800745043 11.803326446836637  12.104416410391314 12.312367559635659  12.656091369704587 12.885035730022667  C 13.207767296147562 13.457703900409673  13.621522790285242 13.966737664988027  13.897359786377029 14.412145794214652  C 13.897359786377029 14.412145794214652  12.583069208810535 15.50976326403394  12.583069208810535 15.50976326403394  C 12.323456780571558 15.04844742225281  11.917816471749385 14.52350215248993  11.36614151243611 13.934926743627175  Z " stroke-width="0" stroke-dasharray="0" stroke="rgba(121, 121, 121, 1)" fill="none" transform="matrix(1 0 0 1 309 581 )" class="stroke" mask="url(#Clip4843)" />
    <path d="M 12.461381081395652 3.316708052305195  L 12.461381081395652 1.9088989581300542  L 19.519586478887643 1.9088989581300542  L 19.519586478887643 3.316708052305195  L 12.461381081395652 3.316708052305195  Z " stroke-width="0" stroke-dasharray="0" stroke="rgba(121, 121, 121, 1)" fill="none" transform="matrix(1 0 0 1 309 581 )" class="stroke" mask="url(#Clip4843)" />
    <path d="M 11.706880648457942 6.8242991736893535  L 11.706880648457942 5.416490079514213  L 18.984121580481673 5.416490079514213  L 18.984121580481673 6.8242991736893535  L 11.706880648457942 6.8242991736893535  Z " stroke-width="0" stroke-dasharray="0" stroke="rgba(121, 121, 121, 1)" fill="none" transform="matrix(1 0 0 1 309 581 )" class="stroke" mask="url(#Clip4843)" />
    <path d="M 9.102655687698178 10.1409996407345  L 9.102655687698178 9  L 22.488891295967253 9  L 22.488891295967253 10.1409996407345  L 9.102655687698178 10.1409996407345  Z " stroke-width="0" stroke-dasharray="0" stroke="rgba(121, 121, 121, 1)" fill="none" transform="matrix(1 0 0 1 309 581 )" class="stroke" mask="url(#Clip4843)" />
    <path d="M 14.91957719444252 20.091101041869944  C 14.91957719444252 20.091101041869944  14.91957719444252 9.114964269977333  14.91957719444252 9.114964269977333  L 16.59894762832886 9.114964269977333  C 16.59894762832886 9.114964269977333  16.59894762832886 20.114964269977335  16.59894762832886 20.114964269977335  C 16.59894762832886 20.560372695503183  16.542157772325222 20.90238795245645  16.428578060317946 21.1409996407345  C 16.33122388329318 21.39551871563791  16.120281290093832 21.586404510669702  15.795765754795113 21.713664018491485  C 15.503702256591115 21.840923585573112  15.106176165954746 21.920458592754972  14.603178778718707 21.952273543785225  C 14.116405959335475 21.984088376295787  13.516052460815267 22  12.802120217417485 22  C 12.769668180322762 21.761388341351875  12.696648920817811 21.498915706470434  12.583069208810535 21.21258173979662  C 12.485714064656069 20.926247743492883  12.380250505093997 20.671723335203502  12.266670793086723 20.44901912244058  C 12.785894682434973 20.464926568325783  13.256440032576293 20.472882350547966  13.678308777770077 20.472882350547966  C 14.116404025076076 20.472882350547966  14.408465589020672 20.472882350547966  14.554497338122673 20.472882350547966  C 14.70052908722467 20.456974904662765  14.79789293554644 20.42515936103407  14.846570507623674 20.377437023378462  C 14.895248079700906 20.329714700537814  14.91957719444252 20.234268040021814  14.91957719444252 20.091101041869944  Z " stroke-width="0" stroke-dasharray="0" stroke="rgba(121, 121, 121, 1)" fill="none" transform="matrix(1 0 0 1 309 581 )" class="stroke" mask="url(#Clip4843)" />
    <path d="M 9.29736597600711 20.75921833205648  C 9.29736597600711 20.75921833205648  8.348155254760465 19.18438181164972  8.348155254760465 19.18438181164972  C 9.045862446740587 18.802603169664685  9.881488136766604 18.30947350279034  10.855032808403365 17.70499061841246  C 11.844803498587487 17.084600258519455  12.850797789494719 16.456252486758547  13.87301906607901 15.819954888389795  C 13.87301906607901 15.819954888389795  14.432809210707791 17.156181883502818  14.432809210707791 17.156181883502818  C 13.556618716095796 17.79247971891095  12.672317871816796 18.420819786892118  11.779902809351993 19.04121002826544  C 10.903712314739998 19.661600388158444  10.076201810029488 20.234272706734536  9.29736597600711 20.75921833205648  Z " stroke-width="0" stroke-dasharray="0" stroke="rgba(121, 121, 121, 1)" fill="none" transform="matrix(1 0 0 1 309 581 )" class="stroke" mask="url(#Clip4843)" />
    <path d="M 15.406345178177249 10.546636592259862  C 15.406345178177249 10.546636592259862  16.452918780615963 9.258136053361616  16.452918780615963 9.258136053361616  C 16.61517606470047 10.164860498448125  16.842333554455625 11.111355884196525  17.134397052659622 12.097617469819284  C 17.442686085846134 13.067971342887544  17.84832639466831 14.014459617454648  18.35132474903405 14.937091301016906  C 18.85432310339979 15.859723221618543  19.487120901977114 16.710772095000554  20.249730717452135 17.49023673596606  C 21.012340532927148 18.253794079195977  21.929100184208774 18.882141673177347  23 19.37527246598873  C 22.886419320863023 19.48662455755523  22.756611172484135 19.6297907556992  22.610579423382138 19.804772645621476  C 22.464547674280137 19.97975453554375  22.31852462934544 20.154736277316417  22.17249288024344 20.32971815242373  C 22.042686666123952 20.52060747341625  21.937207632486675 20.695589200373952  21.856078990444423 20.854663659225984  C 20.801405676765405 20.281995666618513  19.900875428985096 19.582068699527852  19.15449114849259 18.754881632016968  C 18.408106868000083 17.92769450524624  17.783423287608564 17.03687427638343  17.28042590037252 16.08242764179092  C 16.77742754600678 15.127981007198413  16.379902422500113 14.17353721707842  16.087838924296115 13.21909058248591  C 15.795775426092117 12.2646439478934  15.568602462261758 11.373823896810121  15.406345178177249 10.546636592259862  Z " stroke-width="0" stroke-dasharray="0" stroke="rgba(121, 121, 121, 1)" fill="none" transform="matrix(1 0 0 1 309 581 )" class="stroke" mask="url(#Clip4843)" />
    <path d="M 11.682539928159922 2.5054265639944253  C 11.909700319304179 1.5987016448291627  12.104413509002212 0.7635569284110053  12.266670793086723 0  C 12.266670793086723 0  14.019047913791908 0.2147538824463981  14.019047913791908 0.2147538824463981  C 13.840564127595187 1.010126235966407  13.629637008471047 1.8611753463877956  13.386251082344282 2.7678993173955524  C 13.159090691200028 3.6746232884033097  12.931933201444876 4.549531834302063  12.704772810300621 5.392626851406824  C 12.477612419156369 6.235720920354081  12.258554640641515 6.975419361445226  12.047619784479771 7.611717433892736  C 12.047619784479771 7.611717433892736  10.319583384072603 7.3492446804916085  10.319583384072603 7.3492446804916085  C 10.530518240234345 6.712946608044099  10.749560544673992 5.973248166952953  10.976720935818244 5.130154098005697  C 11.22010686194501 4.271151842425187  11.45537905345082 3.3962432965264333  11.682539928159922 2.5054265639944253  Z " stroke-width="0" stroke-dasharray="0" stroke="rgba(121, 121, 121, 1)" fill="none" transform="matrix(1 0 0 1 309 581 )" class="stroke" mask="url(#Clip4843)" />
    <path d="M 18.81375201247076 2.123645255316405  C 18.81375201247076 2.123645255316405  18.81375201247076 1.9088989581300542  18.81375201247076 1.9088989581300542  L 19.00846230077969 1.9088989581300542  L 19.300535470280693 1.813453630960549  C 19.300535470280693 1.813453630960549  20.56614460725115 2.004344285299559  20.56614460725115 2.004344285299559  C 20.452563928114174 2.7201794982833176  20.314640594419778 3.515545214700786  20.15238331033527 4.390454708757044  C 19.99012602625076 5.249456016180049  19.81164320718374 6.116417105864716  19.616933886004507 6.991326599920975  C 19.438451066937485 7.850328855501486  19.259967280740764 8.653650087471839  19.081484461673742 9.40130025148585  C 19.081484461673742 9.40130025148585  17.402114027787402 9.210409597146839  17.402114027787402 9.210409597146839  C 17.580596846854423 8.44685219465708  17.759080633051145 7.619670579051856  17.937563452118166 6.728853846519848  C 18.116047238314884 5.83803711398784  18.286414872066402 4.986988003566451  18.448672156150913 4.175708411570693  C 18.610929440235424 3.3485215810991873  18.732623370428506 2.6644989487519144  18.81375201247076 2.123645255316405  Z " stroke-width="0" stroke-dasharray="0" stroke="rgba(121, 121, 121, 1)" fill="none" transform="matrix(1 0 0 1 309 581 )" class="stroke" mask="url(#Clip4843)" />
    <path d="M 3.383081588070699 1.765727174745773  C 3.691370863039633 1.113521863822516  3.9428577093188246 0.5249455068022543  4.137566546933207 0  C 4.137566546933207 0  5.743914819925496 0.5965351911244182  5.743914819925496 0.5965351911244182  C 5.451851321721498 1.185110599987174  5.127345215937356 1.7975463924848  4.770378852456039 2.4338444649323083  C 4.429638023957232 3.0701425373798163  4.080787087573847 3.690526734249035  3.7238207240925294 4.29500938158754  C 3.3830801373761483 4.883584790450295  3.058558315734376 5.4005818928809575  2.750269282547867 5.845990259146962  C 2.750269282547867 5.845990259146962  1.4846601455774084 5.2971815242373195  1.4846601455774084 5.2971815242373195  C 1.7929492996551297 4.835865919495567  2.109356056872609 4.29500938158754  2.4338708668240536 3.674618547615781  C 2.7746114535404347 3.054228661801527  3.091018089866701 2.4179324856690303  3.383081588070699 1.765727174745773  Z " stroke-width="0" stroke-dasharray="0" stroke="rgba(121, 121, 121, 1)" fill="none" transform="matrix(1 0 0 1 309 581 )" class="stroke" mask="url(#Clip4843)" />
    <path d="M 5.719589573702684 4.772236017435065  C 6.157684821008681 4.040493565975558  6.538980057449185 3.3564699854707793  6.863495109183056 2.7201728611807767  C 6.863495109183056 2.7201728611807767  8.3968366953565 3.436009022322041  8.3968366953565 3.436009022322041  C 7.845161252478375 4.3109185163783  7.228577866892005 5.24945791249506  6.547096693459244 6.251627210672323  C 5.865615520026481 7.23788832221633  5.17601287493516 8.192332586415075  4.478305682955037 9.114964269977333  C 3.796824509522275 10.037596427618345  3.147796582096361 10.8409257189275  2.531218273940917 11.524945506802254  C 2.531218273940917 11.524945506802254  1.411653458758562 10.904554672830496  1.411653458758562 10.904554672830496  C 1.86597424104707 10.37960916602824  2.34463405115662 9.783077293455092  2.8476321637399358 9.114964269977333  C 3.3506302763232525 8.430944008023825  3.845504499423759 7.723069051380483  4.332276835242139 6.991326599920975  C 4.819049171060519 6.2436769099857194  5.281494568179112 5.503978468894573  5.719589573702684 4.772236017435065  Z " stroke-width="0" stroke-dasharray="0" stroke="rgba(121, 121, 121, 1)" fill="none" transform="matrix(1 0 0 1 309 581 )" class="stroke" mask="url(#Clip4843)" />
    <path d="M 1.55768230647146 6.299353666887099  C 1.1195871800566755 5.822130823669596  0.6896017988528328 5.38467655072022  0.2677324492029842 4.986989899881463  C 0.2677324492029842 4.986989899881463  1.2169431704496296 3.8416535591074497  1.2169431704496296 3.8416535591074497  C 1.6550382968644142 4.223432023312951  2.0931231475261325 4.644975265156556  2.531218273940917 5.106290869898309  C 2.9855390562294257 5.567607422797568  3.3992945503671055 6.020972726852716  3.7724866906133587 6.466381093118721  C 4.145678830859612 6.911789459384725  4.43775611066184 7.317428307225098  4.648690725041158 7.683299532954853  C 4.648690725041158 7.683299532954853  3.6264578429004604 9.019526528067876  3.6264578429004604 9.019526528067876  C 3.415522986738718 8.63774758978362  3.1234611810116952 8.208241721205836  2.750269282547867 7.73101840390958  C 2.3933027981753376 7.253795560692079  1.9957774328862445 6.776577458262107  1.55768230647146 6.299353666887099  Z " stroke-width="0" stroke-dasharray="0" stroke="rgba(121, 121, 121, 1)" fill="none" transform="matrix(1 0 0 1 309 581 )" class="stroke" mask="url(#Clip4843)" />
    <path d="M 6.863495109183056 9.902390115440761  C 6.571431610979058 9.281999755547755  6.255024974652792 8.709327318451972  5.91428438793641 8.184381811649718  C 5.91428438793641 8.184381811649718  7.252915685800921 7.659436304847463  7.252915685800921 7.659436304847463  C 7.593656756082153 8.168475047252722  7.9181780941590745 8.725235505085227  8.226467127345582 9.329718152423732  C 8.534756160532094 9.93420127384099  8.810587837410528 10.52277763086125  9.053974247102143 11.095445327169505  C 9.313586191776269 11.652206259080764  9.500184196158797 12.145335866695262  9.613764391730923 12.574836520406762  C 9.613764391730923 12.574836520406762  8.153444966451532 13.242946225333252  8.153444966451532 13.242946225333252  C 8.056090305861916 12.7816306205915  7.8857226721104015 12.264641103420884  7.6423362624187865 11.691972933033878  C 7.415175871274532 11.10339752417112  7.155558123822205 10.506872762779267  6.863495109183056 9.902390115440761  Z " stroke-width="0" stroke-dasharray="0" stroke="rgba(121, 121, 121, 1)" fill="none" transform="matrix(1 0 0 1 309 581 )" class="stroke" mask="url(#Clip4843)" />
    <path d="M 0.2677324492029842 12.145336340774014  C 0.2677324492029842 12.145336340774014  0.04868144059603447 10.546636592259862  0.04868144059603447 10.546636592259862  C 1.103354875166262 10.498914402753863  2.3527360593299593 10.443239068088742  3.796827410911376 10.37960916602824  C 5.257144418366516 10.300072025491989  6.749912979351529 10.220536781270752  8.275133093866414 10.1409996407345  C 8.275133093866414 10.1409996407345  8.275133093866414 11.644254062079145  8.275133093866414 11.644254062079145  C 6.847267639941145 11.7396989151699  5.427518338461083 11.835137605236865  4.015878419518326 11.930582458327617  C 2.6204642773405045 12.010119598863866  1.3710830931768074 12.081706912792265  0.2677324492029842 12.145336340774014  Z " stroke-width="0" stroke-dasharray="0" stroke="rgba(121, 121, 121, 1)" fill="none" transform="matrix(1 0 0 1 309 581 )" class="stroke" mask="url(#Clip4843)" />
    <path d="M 7.3502630929177855 16.225591839915154  C 7.12310270177353 15.398404772404271  6.863500911961259 14.642802648428024  6.571437413757261 13.958782386474514  C 6.571437413757261 13.958782386474514  7.910053237546565 13.577008663056544  7.910053237546565 13.577008663056544  C 8.218342270733075 14.26102892501005  8.494189421686714 15.00867505935466  8.73757583137833 15.819954888389795  C 8.980961757505096 16.615327004870426  9.143214689505953 17.307298278628668  9.224343815113059 17.895873687491424  C 9.224343815113059 17.895873687491424  7.788365110131685 18.34923709523156  7.788365110131685 18.34923709523156  C 7.739688021619301 17.74475421085368  7.5936495026094 17.036871550430604  7.3502630929177855 16.225591839915154  Z " stroke-width="0" stroke-dasharray="0" stroke="rgba(121, 121, 121, 1)" fill="none" transform="matrix(1 0 0 1 309 581 )" class="stroke" mask="url(#Clip4843)" />
    <path d="M 0.9735514415446626 16.726681703870067  C 1.2169376094538527 15.708605404256433  1.4035356138363797 14.682574537247419  1.5333415861734427 13.64859076211866  C 1.5333415861734427 13.64859076211866  3.0666676982716807 13.887200287412398  3.0666676982716807 13.887200287412398  C 2.9044101724047455 15.01662891563191  2.6772528035408047 16.130150423895362  2.3851894262280195 17.227763982564937  C 2.1093518256801698 18.30947030275876  1.784845599004815 19.232106015990418  1.411653458758562 19.995663299960487  C 1.3142989190601584 19.932033531234634  1.1763753435833384 19.860446646940108  0.9978921618426798 19.780909417514092  C 0.8194089801020212 19.685464757017833  0.6409259192525752 19.597973893538978  0.4624427375119167 19.51843666411296  C 0.2839595557712582 19.43889946431687  0.12980597233706304 19.37526834742956  0 19.327546009773954  C 0.4056436333305188 18.595803558314444  0.7301653340810788 17.728850765007955  0.9735514415446626 16.726681703870067  Z " stroke-width="0" stroke-dasharray="0" stroke="rgba(121, 121, 121, 1)" fill="none" transform="matrix(1 0 0 1 309 581 )" class="stroke" mask="url(#Clip4843)" />
    <path d="M 4.1132258266351895 21.952273543785225  L 4.1132258266351895 11.262472753401125  L 6 11.262472753401125  L 6 21.952273543785225  L 4.1132258266351895 21.952273543785225  Z " stroke-width="0" stroke-dasharray="0" stroke="rgba(121, 121, 121, 1)" fill="none" transform="matrix(1 0 0 1 309 581 )" class="stroke" mask="url(#Clip4843)" />
  </g>
</svg>