<?xml version="1.0" encoding="utf-8"?>
<svg version="1.1" xmlns:xlink="http://www.w3.org/1999/xlink" width="34px" height="42px" xmlns="http://www.w3.org/2000/svg">
  <defs>
    <pattern id="BGPattern" patternUnits="userSpaceOnUse" alignment="0 0" imageRepeat="None" />
    <mask fill="white" id="Clip4780">
      <path d="M 20.350616414728023 23.921198417804362  C 20.350616414728023 23.921198417804362  26 29.470917241586772  26 29.470917241586772  C 23.046914865184664 32.53283090331669  19.58024105577579 34  14.958019513814731 34  C 8.281480581552652 34  0 30.42776331523462  0 16.968101677238753  C 0 3.508439088699866  8.281480581552652 0  14.958019513814731 0  C 19.58024105577579 0  23.046914865184664 1.4033779167832015  26 4.46528991506283  C 26 4.46528991506283  20.350616414728023 10.078797780023544  20.350616414728023 10.078797780023544  C 18.617283336492623 8.228890871734059  17.140735029381396 7.463412872164152  14.958019513814731 7.463412872164152  C 12.967897837986122 7.463412872164152  11.427164339192345 8.165099929469708  10.207412282612408 9.632266887431216  C 8.923461641708277 11.227013828835382  8.345682035728625 13.459658786366798  8.345682035728625 16.968101677238753  C 8.345682035728625 20.47654361756769  8.923461641708277 22.772983319535548  10.207412282612408 24.367729310396694  C 11.427164339192345 25.8348962683582  12.967897837986122 26.536583325663756  14.958019513814731 26.536583325663756  C 17.140735029381396 26.536583325663756  18.617283336492623 25.771104850822336  20.350616414728023 23.921198417804362  Z " fill-rule="evenodd" />
    </mask>
  </defs>
  <g transform="matrix(1 0 0 1 -281 -324 )">
    <path d="M 20.350616414728023 23.921198417804362  C 20.350616414728023 23.921198417804362  26 29.470917241586772  26 29.470917241586772  C 23.046914865184664 32.53283090331669  19.58024105577579 34  14.958019513814731 34  C 8.281480581552652 34  0 30.42776331523462  0 16.968101677238753  C 0 3.508439088699866  8.281480581552652 0  14.958019513814731 0  C 19.58024105577579 0  23.046914865184664 1.4033779167832015  26 4.46528991506283  C 26 4.46528991506283  20.350616414728023 10.078797780023544  20.350616414728023 10.078797780023544  C 18.617283336492623 8.228890871734059  17.140735029381396 7.463412872164152  14.958019513814731 7.463412872164152  C 12.967897837986122 7.463412872164152  11.427164339192345 8.165099929469708  10.207412282612408 9.632266887431216  C 8.923461641708277 11.227013828835382  8.345682035728625 13.459658786366798  8.345682035728625 16.968101677238753  C 8.345682035728625 20.47654361756769  8.923461641708277 22.772983319535548  10.207412282612408 24.367729310396694  C 11.427164339192345 25.8348962683582  12.967897837986122 26.536583325663756  14.958019513814731 26.536583325663756  C 17.140735029381396 26.536583325663756  18.617283336492623 25.771104850822336  20.350616414728023 23.921198417804362  Z " fill-rule="nonzero" fill="rgba(61, 63, 148, 1)" stroke="none" transform="matrix(1 0 0 1 285 324 )" class="fill" />
    <path d="M 20.350616414728023 23.921198417804362  C 20.350616414728023 23.921198417804362  26 29.470917241586772  26 29.470917241586772  C 23.046914865184664 32.53283090331669  19.58024105577579 34  14.958019513814731 34  C 8.281480581552652 34  0 30.42776331523462  0 16.968101677238753  C 0 3.508439088699866  8.281480581552652 0  14.958019513814731 0  C 19.58024105577579 0  23.046914865184664 1.4033779167832015  26 4.46528991506283  C 26 4.46528991506283  20.350616414728023 10.078797780023544  20.350616414728023 10.078797780023544  C 18.617283336492623 8.228890871734059  17.140735029381396 7.463412872164152  14.958019513814731 7.463412872164152  C 12.967897837986122 7.463412872164152  11.427164339192345 8.165099929469708  10.207412282612408 9.632266887431216  C 8.923461641708277 11.227013828835382  8.345682035728625 13.459658786366798  8.345682035728625 16.968101677238753  C 8.345682035728625 20.47654361756769  8.923461641708277 22.772983319535548  10.207412282612408 24.367729310396694  C 11.427164339192345 25.8348962683582  12.967897837986122 26.536583325663756  14.958019513814731 26.536583325663756  C 17.140735029381396 26.536583325663756  18.617283336492623 25.771104850822336  20.350616414728023 23.921198417804362  Z " stroke-width="0" stroke-dasharray="0" stroke="rgba(121, 121, 121, 1)" fill="none" transform="matrix(1 0 0 1 285 324 )" class="stroke" mask="url(#Clip4780)" />
  </g>
  <style>svg { filter: drop-shadow(0px 4px 2px rgba(0, 0, 0, 0.12941176470588237)); }</style>
</svg>