<?xml version="1.0" encoding="utf-8"?>
<svg version="1.1" xmlns:xlink="http://www.w3.org/1999/xlink" width="36px" height="54px" xmlns="http://www.w3.org/2000/svg">
  <defs>
    <pattern id="BGPattern" patternUnits="userSpaceOnUse" alignment="0 0" imageRepeat="None" />
    <mask fill="white" id="Clip4782">
      <path d="M 28 0.3812143293181155  C 28 0.3812143293181155  28 32.27623870012485  28 32.27623870012485  C 28 40.21822724763629  22.218098238413052 46  13.122971436790035 46  C 7.925754738638469 46  4.3526693477232685 44.983420565494924  0.8445483184851845 41.67955326156353  C 0.8445483184851845 41.67955326156353  6.106727442200089 36.46961525780036  6.106727442200089 36.46961525780036  C 7.9907181322586975 38.24862074735494  9.874708822317306 39.01104916930147  12.733177522272223 39.01104916930147  C 17.800463560955777 39.01104916930147  19.554524559603262 35.516571860434574  19.554524559603262 32.1491685193639  C 19.554524559603262 32.1491685193639  19.554524559603262 28.781767071810833  19.554524559603262 28.781767071810833  C 17.345707220874626 31.196131512620088  14.812068073760402 32.08563721601867  11.498843033724336 32.08563721601867  C 8.18561702563138 32.08563721601867  5.32714445344891 31.005522927822813  3.4431537633903013 29.16298140112895  C 0.25985914080802325 26.04972173523602  0 21.792818134629925  0 16.011051062819092  C 0 10.229282097490636  0.25985914080802325 6.035909326850368  3.4431537633903013 2.922648240819218  C 5.32714445344891 1.080106004056244  8.250577515080943 0  11.563803523173899 0  C 15.1368889140891 0  17.47563594422886 0.9530396103305381  19.81438200631173 3.4944754153492656  C 19.81438200631173 3.4944754153492656  19.81438200631173 0.3812143293181155  19.81438200631173 0.3812143293181155  L 28 0.3812143293181155  Z M 13.96751975527522 24.651933178586294  C 18.969841432281655 24.651933178586294  19.554524559603262 20.395028157841985  19.554524559603262 16.011051062819092  C 19.554524559603262 11.627073021037392  18.969841432281655 7.4337002503971235  13.96751975527522 7.4337002503971235  C 8.96520001438256 7.4337002503971235  8.445475440396738 11.627073021037392  8.445475440396738 16.011051062819092  C 8.445475440396738 20.395028157841985  8.96520001438256 24.651933178586294  13.96751975527522 24.651933178586294  Z " fill-rule="evenodd" />
    </mask>
  </defs>
  <g transform="matrix(1 0 0 1 -211 -324 )">
    <path d="M 28 0.3812143293181155  C 28 0.3812143293181155  28 32.27623870012485  28 32.27623870012485  C 28 40.21822724763629  22.218098238413052 46  13.122971436790035 46  C 7.925754738638469 46  4.3526693477232685 44.983420565494924  0.8445483184851845 41.67955326156353  C 0.8445483184851845 41.67955326156353  6.106727442200089 36.46961525780036  6.106727442200089 36.46961525780036  C 7.9907181322586975 38.24862074735494  9.874708822317306 39.01104916930147  12.733177522272223 39.01104916930147  C 17.800463560955777 39.01104916930147  19.554524559603262 35.516571860434574  19.554524559603262 32.1491685193639  C 19.554524559603262 32.1491685193639  19.554524559603262 28.781767071810833  19.554524559603262 28.781767071810833  C 17.345707220874626 31.196131512620088  14.812068073760402 32.08563721601867  11.498843033724336 32.08563721601867  C 8.18561702563138 32.08563721601867  5.32714445344891 31.005522927822813  3.4431537633903013 29.16298140112895  C 0.25985914080802325 26.04972173523602  0 21.792818134629925  0 16.011051062819092  C 0 10.229282097490636  0.25985914080802325 6.035909326850368  3.4431537633903013 2.922648240819218  C 5.32714445344891 1.080106004056244  8.250577515080943 0  11.563803523173899 0  C 15.1368889140891 0  17.47563594422886 0.9530396103305381  19.81438200631173 3.4944754153492656  C 19.81438200631173 3.4944754153492656  19.81438200631173 0.3812143293181155  19.81438200631173 0.3812143293181155  L 28 0.3812143293181155  Z M 13.96751975527522 24.651933178586294  C 18.969841432281655 24.651933178586294  19.554524559603262 20.395028157841985  19.554524559603262 16.011051062819092  C 19.554524559603262 11.627073021037392  18.969841432281655 7.4337002503971235  13.96751975527522 7.4337002503971235  C 8.96520001438256 7.4337002503971235  8.445475440396738 11.627073021037392  8.445475440396738 16.011051062819092  C 8.445475440396738 20.395028157841985  8.96520001438256 24.651933178586294  13.96751975527522 24.651933178586294  Z " fill-rule="nonzero" fill="rgba(61, 63, 148, 1)" stroke="none" transform="matrix(1 0 0 1 215 324 )" class="fill" />
    <path d="M 28 0.3812143293181155  C 28 0.3812143293181155  28 32.27623870012485  28 32.27623870012485  C 28 40.21822724763629  22.218098238413052 46  13.122971436790035 46  C 7.925754738638469 46  4.3526693477232685 44.983420565494924  0.8445483184851845 41.67955326156353  C 0.8445483184851845 41.67955326156353  6.106727442200089 36.46961525780036  6.106727442200089 36.46961525780036  C 7.9907181322586975 38.24862074735494  9.874708822317306 39.01104916930147  12.733177522272223 39.01104916930147  C 17.800463560955777 39.01104916930147  19.554524559603262 35.516571860434574  19.554524559603262 32.1491685193639  C 19.554524559603262 32.1491685193639  19.554524559603262 28.781767071810833  19.554524559603262 28.781767071810833  C 17.345707220874626 31.196131512620088  14.812068073760402 32.08563721601867  11.498843033724336 32.08563721601867  C 8.18561702563138 32.08563721601867  5.32714445344891 31.005522927822813  3.4431537633903013 29.16298140112895  C 0.25985914080802325 26.04972173523602  0 21.792818134629925  0 16.011051062819092  C 0 10.229282097490636  0.25985914080802325 6.035909326850368  3.4431537633903013 2.922648240819218  C 5.32714445344891 1.080106004056244  8.250577515080943 0  11.563803523173899 0  C 15.1368889140891 0  17.47563594422886 0.9530396103305381  19.81438200631173 3.4944754153492656  C 19.81438200631173 3.4944754153492656  19.81438200631173 0.3812143293181155  19.81438200631173 0.3812143293181155  L 28 0.3812143293181155  Z " stroke-width="0" stroke-dasharray="0" stroke="rgba(121, 121, 121, 1)" fill="none" transform="matrix(1 0 0 1 215 324 )" class="stroke" mask="url(#Clip4782)" />
    <path d="M 13.96751975527522 24.651933178586294  C 18.969841432281655 24.651933178586294  19.554524559603262 20.395028157841985  19.554524559603262 16.011051062819092  C 19.554524559603262 11.627073021037392  18.969841432281655 7.4337002503971235  13.96751975527522 7.4337002503971235  C 8.96520001438256 7.4337002503971235  8.445475440396738 11.627073021037392  8.445475440396738 16.011051062819092  C 8.445475440396738 20.395028157841985  8.96520001438256 24.651933178586294  13.96751975527522 24.651933178586294  Z " stroke-width="0" stroke-dasharray="0" stroke="rgba(121, 121, 121, 1)" fill="none" transform="matrix(1 0 0 1 215 324 )" class="stroke" mask="url(#Clip4782)" />
  </g>
  <style>svg { filter: drop-shadow(0px 4px 2px rgba(0, 0, 0, 0.12941176470588237)); }</style>
</svg>