<?xml version="1.0" encoding="utf-8"?>
<svg version="1.1" xmlns:xlink="http://www.w3.org/1999/xlink" width="6px" height="15px" xmlns="http://www.w3.org/2000/svg">
  <defs>
    <pattern id="BGPattern" patternUnits="userSpaceOnUse" alignment="0 0" imageRepeat="None" />
    <mask fill="white" id="Clip4867">
      <path d="M 6 13.553655677575996  L 6 15  C 6 15  4.71966460413818 15  4.71966460413818 15  C 2.610874927510016 15  1.5564783434508958 13.623639691541468  1.5564783434508958 11.92068484597096  C 1.5564783434508958 11.92068484597096  1.5564783434508958 4.875582327212646  1.5564783434508958 4.875582327212646  L 0 4.875582327212646  L 0 3.592534346367213  L 1.5564783434508958 3.592534346367213  L 1.5564783434508958 0  L 3.364008789244348 0  L 3.364008789244348 3.592534346367213  L 6 3.592534346367213  L 6 4.875582327212646  L 3.364008789244348 4.875582327212646  C 3.364008789244348 4.875582327212646  3.364008789244348 11.87402451076604  3.364008789244348 11.87402451076604  C 3.364008789244348 12.923791324962192  3.8912078294503534 13.553655677575996  5.046021164415265 13.553655677575996  C 5.046021164415265 13.553655677575996  6 13.553655677575996  6 13.553655677575996  Z " fill-rule="evenodd" />
    </mask>
  </defs>
  <g transform="matrix(1 0 0 1 -320 -493 )">
    <path d="M 6 13.553655677575996  L 6 15  C 6 15  4.71966460413818 15  4.71966460413818 15  C 2.610874927510016 15  1.5564783434508958 13.623639691541468  1.5564783434508958 11.92068484597096  C 1.5564783434508958 11.92068484597096  1.5564783434508958 4.875582327212646  1.5564783434508958 4.875582327212646  L 0 4.875582327212646  L 0 3.592534346367213  L 1.5564783434508958 3.592534346367213  L 1.5564783434508958 0  L 3.364008789244348 0  L 3.364008789244348 3.592534346367213  L 6 3.592534346367213  L 6 4.875582327212646  L 3.364008789244348 4.875582327212646  C 3.364008789244348 4.875582327212646  3.364008789244348 11.87402451076604  3.364008789244348 11.87402451076604  C 3.364008789244348 12.923791324962192  3.8912078294503534 13.553655677575996  5.046021164415265 13.553655677575996  C 5.046021164415265 13.553655677575996  6 13.553655677575996  6 13.553655677575996  Z " fill-rule="nonzero" fill="rgba(0, 0, 0, 1)" stroke="none" transform="matrix(1 0 0 1 320 493 )" class="fill" />
    <path d="M 6 13.553655677575996  L 6 15  C 6 15  4.71966460413818 15  4.71966460413818 15  C 2.610874927510016 15  1.5564783434508958 13.623639691541468  1.5564783434508958 11.92068484597096  C 1.5564783434508958 11.92068484597096  1.5564783434508958 4.875582327212646  1.5564783434508958 4.875582327212646  L 0 4.875582327212646  L 0 3.592534346367213  L 1.5564783434508958 3.592534346367213  L 1.5564783434508958 0  L 3.364008789244348 0  L 3.364008789244348 3.592534346367213  L 6 3.592534346367213  L 6 4.875582327212646  L 3.364008789244348 4.875582327212646  C 3.364008789244348 4.875582327212646  3.364008789244348 11.87402451076604  3.364008789244348 11.87402451076604  C 3.364008789244348 12.923791324962192  3.8912078294503534 13.553655677575996  5.046021164415265 13.553655677575996  C 5.046021164415265 13.553655677575996  6 13.553655677575996  6 13.553655677575996  Z " stroke-width="0" stroke-dasharray="0" stroke="rgba(121, 121, 121, 1)" fill="none" transform="matrix(1 0 0 1 320 493 )" class="stroke" mask="url(#Clip4867)" />
  </g>
</svg>