<?xml version="1.0" encoding="utf-8"?>
<svg version="1.1" xmlns:xlink="http://www.w3.org/1999/xlink" width="10px" height="17px" xmlns="http://www.w3.org/2000/svg">
  <defs>
    <pattern id="BGPattern" patternUnits="userSpaceOnUse" alignment="0 0" imageRepeat="None" />
    <mask fill="white" id="Clip4866">
      <path d="M 5.254251899653937 9.741571189483151  L 10 17  L 7.845047352799911 17  L 4.067784086010912 10.983145225255312  L 1.7433404352270347 13.60954892011795  L 1.7433404352270347 17  L 0 17  L 0 0  L 1.7433404352270347 0  L 1.7433404352270347 11.365168443383517  L 7.118652939075605 5.252808338488279  L 9.297836180248526 5.252808338488279  L 5.254251899653937 9.741571189483151  Z " fill-rule="evenodd" />
    </mask>
  </defs>
  <g transform="matrix(1 0 0 1 -413 -491 )">
    <path d="M 5.254251899653937 9.741571189483151  L 10 17  L 7.845047352799911 17  L 4.067784086010912 10.983145225255312  L 1.7433404352270347 13.60954892011795  L 1.7433404352270347 17  L 0 17  L 0 0  L 1.7433404352270347 0  L 1.7433404352270347 11.365168443383517  L 7.118652939075605 5.252808338488279  L 9.297836180248526 5.252808338488279  L 5.254251899653937 9.741571189483151  Z " fill-rule="nonzero" fill="rgba(0, 0, 0, 1)" stroke="none" transform="matrix(1 0 0 1 413 491 )" class="fill" />
    <path d="M 5.254251899653937 9.741571189483151  L 10 17  L 7.845047352799911 17  L 4.067784086010912 10.983145225255312  L 1.7433404352270347 13.60954892011795  L 1.7433404352270347 17  L 0 17  L 0 0  L 1.7433404352270347 0  L 1.7433404352270347 11.365168443383517  L 7.118652939075605 5.252808338488279  L 9.297836180248526 5.252808338488279  L 5.254251899653937 9.741571189483151  Z " stroke-width="0" stroke-dasharray="0" stroke="rgba(121, 121, 121, 1)" fill="none" transform="matrix(1 0 0 1 413 491 )" class="stroke" mask="url(#Clip4866)" />
  </g>
</svg>