<?xml version="1.0" encoding="utf-8"?>
<svg version="1.1" xmlns:xlink="http://www.w3.org/1999/xlink" width="9px" height="17px" xmlns="http://www.w3.org/2000/svg">
  <defs>
    <pattern id="BGPattern" patternUnits="userSpaceOnUse" alignment="0 0" imageRepeat="None" />
    <mask fill="white" id="Clip4865">
      <path d="M 9 0.14206131540626565  L 9 17  L 7.342685246914583 17  C 7.342685246914583 17  7.342685246914583 10.417826346732737  7.342685246914583 10.417826346732737  C 6.421969589952682 11.625347174873031  5.386165247605652 11.93314578995348  4.143199076407747 11.93314578995348  C 2.992303990715296 11.93314578995348  1.9795414292813704 11.530639298056613  1.3810761150587816 10.915040480237383  C 0.23018125802858586 9.731196577199572  0 7.789693658177313  0 5.9665743062285905  C 0 4.143454601466905  0.23018125802858586 2.2019496831711924  1.3810761150587816 1.0181062505506648  C 1.9795414292813704 0.4025069035119916  2.992303990715296 0  4.143199076407747 0  C 5.386165247605652 0  6.4450041108392 0.28412239560388963  7.365719767801103 1.5153203840553113  C 7.365719767801103 1.5153203840553113  7.365719767801103 0.14206131540626565  7.365719767801103 0.14206131540626565  L 9 0.14206131540626565  Z M 4.511487991674661 10.417826346732737  C 6.9744027341908 10.417826346732737  7.342685246914583 8.239554411894273  7.342685246914583 5.9665743062285905  C 7.342685246914583 3.693594200562907  6.9744027341908 1.5153203840553113  4.511487991674661 1.5153203840553113  C 2.0485727918340135 1.5153203840553113  1.657285484316818 3.693594200562907  1.657285484316818 5.9665743062285905  C 1.657285484316818 8.239554411894273  2.0485727918340135 10.417826346732737  4.511487991674661 10.417826346732737  Z " fill-rule="evenodd" />
    </mask>
  </defs>
  <g transform="matrix(1 0 0 1 -517 -496 )">
    <path d="M 9 0.14206131540626565  L 9 17  L 7.342685246914583 17  C 7.342685246914583 17  7.342685246914583 10.417826346732737  7.342685246914583 10.417826346732737  C 6.421969589952682 11.625347174873031  5.386165247605652 11.93314578995348  4.143199076407747 11.93314578995348  C 2.992303990715296 11.93314578995348  1.9795414292813704 11.530639298056613  1.3810761150587816 10.915040480237383  C 0.23018125802858586 9.731196577199572  0 7.789693658177313  0 5.9665743062285905  C 0 4.143454601466905  0.23018125802858586 2.2019496831711924  1.3810761150587816 1.0181062505506648  C 1.9795414292813704 0.4025069035119916  2.992303990715296 0  4.143199076407747 0  C 5.386165247605652 0  6.4450041108392 0.28412239560388963  7.365719767801103 1.5153203840553113  C 7.365719767801103 1.5153203840553113  7.365719767801103 0.14206131540626565  7.365719767801103 0.14206131540626565  L 9 0.14206131540626565  Z M 4.511487991674661 10.417826346732737  C 6.9744027341908 10.417826346732737  7.342685246914583 8.239554411894273  7.342685246914583 5.9665743062285905  C 7.342685246914583 3.693594200562907  6.9744027341908 1.5153203840553113  4.511487991674661 1.5153203840553113  C 2.0485727918340135 1.5153203840553113  1.657285484316818 3.693594200562907  1.657285484316818 5.9665743062285905  C 1.657285484316818 8.239554411894273  2.0485727918340135 10.417826346732737  4.511487991674661 10.417826346732737  Z " fill-rule="nonzero" fill="rgba(0, 0, 0, 1)" stroke="none" transform="matrix(1 0 0 1 517 496 )" class="fill" />
    <path d="M 9 0.14206131540626565  L 9 17  L 7.342685246914583 17  C 7.342685246914583 17  7.342685246914583 10.417826346732737  7.342685246914583 10.417826346732737  C 6.421969589952682 11.625347174873031  5.386165247605652 11.93314578995348  4.143199076407747 11.93314578995348  C 2.992303990715296 11.93314578995348  1.9795414292813704 11.530639298056613  1.3810761150587816 10.915040480237383  C 0.23018125802858586 9.731196577199572  0 7.789693658177313  0 5.9665743062285905  C 0 4.143454601466905  0.23018125802858586 2.2019496831711924  1.3810761150587816 1.0181062505506648  C 1.9795414292813704 0.4025069035119916  2.992303990715296 0  4.143199076407747 0  C 5.386165247605652 0  6.4450041108392 0.28412239560388963  7.365719767801103 1.5153203840553113  C 7.365719767801103 1.5153203840553113  7.365719767801103 0.14206131540626565  7.365719767801103 0.14206131540626565  L 9 0.14206131540626565  Z " stroke-width="0" stroke-dasharray="0" stroke="rgba(121, 121, 121, 1)" fill="none" transform="matrix(1 0 0 1 517 496 )" class="stroke" mask="url(#Clip4865)" />
    <path d="M 4.511487991674661 10.417826346732737  C 6.9744027341908 10.417826346732737  7.342685246914583 8.239554411894273  7.342685246914583 5.9665743062285905  C 7.342685246914583 3.693594200562907  6.9744027341908 1.5153203840553113  4.511487991674661 1.5153203840553113  C 2.0485727918340135 1.5153203840553113  1.657285484316818 3.693594200562907  1.657285484316818 5.9665743062285905  C 1.657285484316818 8.239554411894273  2.0485727918340135 10.417826346732737  4.511487991674661 10.417826346732737  Z " stroke-width="0" stroke-dasharray="0" stroke="rgba(121, 121, 121, 1)" fill="none" transform="matrix(1 0 0 1 517 496 )" class="stroke" mask="url(#Clip4865)" />
  </g>
</svg>