<?xml version="1.0" encoding="utf-8"?>
<svg version="1.1" xmlns:xlink="http://www.w3.org/1999/xlink" width="22px" height="22px" xmlns="http://www.w3.org/2000/svg">
  <defs>
    <pattern id="BGPattern" patternUnits="userSpaceOnUse" alignment="0 0" imageRepeat="None" />
    <mask fill="white" id="Clip4819">
      <path d="M 13.19527931214023 9.66086791266279  L 13.19527931214023 7.9869471021779015  L 22 7.9869471021779015  L 22 9.66086791266279  L 13.19527931214023 9.66086791266279  Z M 0.7789700104218593 4  L 0.7789700104218593 2.4152131772901138  L 11.212446899424368 2.4152131772901138  L 11.212446899424368 4  L 0.7789700104218593 4  Z M 0.5193133011985565 13.463035793881971  L 0.5193133011985565 11.884775420083136  L 11.306868160494929 11.884775420083136  L 11.306868160494929 13.463035793881971  L 0.5193133011985565 13.463035793881971  Z M 0.448497824387833 9.397816915278483  L 0.448497824387833 8  L 11.495708806667261 8  L 11.495708806667261 9.397816915278483  L 0.448497824387833 9.397816915278483  Z M 17.60944137571954 21.78477922095872  L 17.60944137571954 8.656509344970923  L 19 8.656509344970923  L 19 21.78477922095872  L 17.60944137571954 21.78477922095872  Z M 5.16952840020622 3.1804358567691864  L 5.16952840020622 0  L 6.892704220946829 0  L 6.892704220946829 3.1804358567691864  L 5.16952840020622 3.1804358567691864  Z M 5.16952840020622 21.856509344970924  L 5.16952840020622 9.13478112139651  L 7 9.13478112139651  L 7 21.856509344970924  L 5.16952840020622 21.856509344970924  Z M 12.345493590411548 10.23476971876976  C 12.345493590411548 10.23476971876976  12.345493590411548 1.8652112768523221  12.345493590411548 1.8652112768523221  C 12.345493590411548 1.8652112768523221  14.517167587284138 2.5347735196453436  14.517167587284138 2.5347735196453436  C 14.501431023100508 2.710135466661138  14.344063505295434 2.8217282235744126  14.04506503386891 2.869554641041854  C 14.04506503386891 2.869554641041854  14.04506503386891 10.258684827941273  14.04506503386891 10.258684827941273  C 14.04506503386891 11.15143828587422  13.99785440333363 12.107964734785266  13.903434080247463 13.128254672485461  C 13.824750321344927 14.148544372630932  13.659514990440233 15.184771381652826  13.407726211564597 16.23694520174011  C 13.155938370673354 17.273176961856485  12.7782552023599 18.285499789224172  12.27467858259302 19.273905606982552  C 11.771101962826144 20.262311365352254  11.110158294246387 21.171014485007273  10.291846169877159 22  C 10.213162410974622 21.87246375778748  10.095136772620815 21.728978804071776  9.93776925481574 21.569558441917437  C 9.796138301194292 21.410138198540462  9.63877031439702 21.250722112371157  9.46566576341612 21.091301868994183  C 9.308298245611043 20.947823566810754  9.158798540905584 20.84420397787545  9.017167587284138 20.780435856769184  C 9.772532516934456 20.031160582242308  10.370529928779698 19.21810400232199  10.811159353827668 18.341292366805224  C 11.267525812051463 17.464480850065822  11.59799788083744 16.563765983113747  11.8025750911934 15.639128286461625  C 12.022890741701781 14.714490708586869  12.164521695323227 13.797814539731243  12.22746795205774 12.889118784272666  C 12.306151710960279 11.96448120639791  12.345493590411548 11.079697234344712  12.345493590411548 10.23476971876976  Z M 18.152361750906476 1.0282584733610451  C 18.986409970467136 0.7413018689941846  19.686694111521568 0.4543471650651159  20.253217926007355 0.1673905606982554  C 20.253217926007355 0.1673905606982554  21.693132777489467 1.4825999371127856  21.693132777489467 1.4825999371127856  C 20.953504881014975 1.8173829589470882  20.11158697238591 2.136229859678584  19.16738092757106 2.4391282864616266  C 18.223174882756215 2.726084890828487  17.24749570957411 2.9891206847104597  16.240342470040353 3.2282508716098786  C 15.248926732674617 3.4514392360931145  14.281117248560918 3.650721043374901  13.336911203746071 3.8260829903906957  C 13.28970057321079 3.6347792209587193  13.211016814308252 3.4036204203768397  13.100858989054064 3.1326056384261616  C 12.990702101784267 2.8456490340593006  12.88054427653008 2.614490233477421  12.77038645127589 2.4391282864616266  C 13.651645301371827 2.2478235668107547  14.556509466735406 2.0325961362372023  15.484978947366626 1.7934659493377838  C 16.429184992181472 1.5543357624383654  17.318312593361423 1.2992732553117237  18.152361750906476 1.0282584733610451  Z M 5.7596570609674504 14.730430155455812  C 5.7596570609674504 14.730430155455812  6.703862636790102 13.893477351964535  6.703862636790102 13.893477351964535  C 6.892703751954632 14.021013831731784  7.168097377105711 14.236226058803  7.530043043251142 14.539124485586044  C 7.9077257425724 14.826081089952904  8.309013757161297 15.144928228239124  8.733906618025639 15.495652834934884  C 9.158799009897782 15.846377441630645  9.544349522318656 16.17318242561514  9.890558624280459 16.476081089952903  C 10.236767257250065 16.76303745676504  10.488555098141306 16.970276872190375  10.64592308493858 17.0978131144029  C 10.64592308493858 17.0978131144029  9.583691401769926 18.436952803491277  9.583691401769926 18.436952803491277  C 9.394850286605395 18.213764439008038  9.135193694630141 17.934782546724854  8.804721625844165 17.6  C 8.474249557058187 17.265217334497784  8.112303890912756 16.91449308413411  7.71888462740787 16.54782641746744  C 7.341202397078809 16.16521769082987  6.971388448841563 15.814493321688833  6.6094427826961315 15.495652834934884  C 6.26323368073433 15.160870288210031  5.979971773491436 14.905792577581053  5.7596570609674504 14.730430155455812  Z M 2.8090128191769033 6.169566043668604  C 2.6359085026921005 5.5159427726350785  2.431330823343942 4.918114454729844  2.19527931214023 4.376084890828487  C 2.19527931214023 4.376084890828487  3.611588379362501 4.041303769431976  3.611588379362501 4.041303769431976  C 3.8476398905662137 4.567391510917151  4.060086086502285 5.149274205530619  4.248927201666815 5.786954703929069  C 4.437768551327444 6.424636152546414  4.563662940765262 6.974626650357456  4.626609900988073 7.4369452017401105  C 4.626609900988073 7.4369452017401105  3.1158800416874373 7.843471650651159  3.1158800416874373 7.843471650651159  C 3.084406444327983 7.365210326633426  2.982117370157805 6.8072465420670545  2.8090128191769033 6.169566043668604  Z M 7.9313305888478425 5.141292366805226  C 8.07296154246929 4.710858410473831  8.18311936772348 4.328256572923253  8.261803126626017 3.9934735510889507  C 8.261803126626017 3.9934735510889507  9.86695330901282 4.352169781656975  9.86695330901282 4.352169781656975  C 9.646638596488835 4.95796663522306  9.418455132880839 5.5717263231366205  9.182403856173226 6.193465949337784  C 8.946352110473414 6.8152046253200504  8.718169115857615 7.34926470334166  8.49785440333363 7.795641432308134  C 8.49785440333363 7.795641432308134  7.057940489835915 7.4369452017401105  7.057940489835915 7.4369452017401105  C 7.199571443457362 7.118104952540886  7.341202397078809 6.759407771753966  7.482833350700256 6.36085651003604  C 7.640200868505332 5.962306198537008  7.789699635226396 5.555785450939335  7.9313305888478425 5.141292366805226  Z M 3.7768241792593913 15.04129616768081  C 4.34334775924908 14.2441950695733  4.807582734060789 13.463030567678043  5.16952840020622 12.697813114402898  C 5.16952840020622 12.697813114402898  6.444206982799242 13.2  6.444206982799242 13.2  C 6.050787719294356 14.060869575545858  5.562947429215007 14.93768049839845  4.980686816049492 15.830433956331394  C 4.398426437380076 16.70724559184816  3.7768241792593913 17.52826001746675  3.1158800416874373 18.293477351964533  C 2.470672468299112 19.042752685880092  1.8333334114986994 19.664485779326345  1.2038627540381508 20.158688628816858  C 1.0622318004167037 19.951442264915844  0.8733905093800998 19.728256825325147  0.6373390568004125 19.489126386023834  C 0.41702428565240307 19.234053960987467  0.20457797246828205 19.02679946083716  0 18.867379158071504  C 0.6452075147643007 18.4528863708808  1.2904149122805522 17.910868862881685  1.9356223684208282 17.241303769431976  C 2.5965666232408315 16.571738557204906  3.2103005992697025 15.838397740897765  3.7768241792593913 15.04129616768081  Z " fill-rule="evenodd" />
    </mask>
  </defs>
  <g transform="matrix(1 0 0 1 -141 -612 )">
    <path d="M 13.19527931214023 9.66086791266279  L 13.19527931214023 7.9869471021779015  L 22 7.9869471021779015  L 22 9.66086791266279  L 13.19527931214023 9.66086791266279  Z M 0.7789700104218593 4  L 0.7789700104218593 2.4152131772901138  L 11.212446899424368 2.4152131772901138  L 11.212446899424368 4  L 0.7789700104218593 4  Z M 0.5193133011985565 13.463035793881971  L 0.5193133011985565 11.884775420083136  L 11.306868160494929 11.884775420083136  L 11.306868160494929 13.463035793881971  L 0.5193133011985565 13.463035793881971  Z M 0.448497824387833 9.397816915278483  L 0.448497824387833 8  L 11.495708806667261 8  L 11.495708806667261 9.397816915278483  L 0.448497824387833 9.397816915278483  Z M 17.60944137571954 21.78477922095872  L 17.60944137571954 8.656509344970923  L 19 8.656509344970923  L 19 21.78477922095872  L 17.60944137571954 21.78477922095872  Z M 5.16952840020622 3.1804358567691864  L 5.16952840020622 0  L 6.892704220946829 0  L 6.892704220946829 3.1804358567691864  L 5.16952840020622 3.1804358567691864  Z M 5.16952840020622 21.856509344970924  L 5.16952840020622 9.13478112139651  L 7 9.13478112139651  L 7 21.856509344970924  L 5.16952840020622 21.856509344970924  Z M 12.345493590411548 10.23476971876976  C 12.345493590411548 10.23476971876976  12.345493590411548 1.8652112768523221  12.345493590411548 1.8652112768523221  C 12.345493590411548 1.8652112768523221  14.517167587284138 2.5347735196453436  14.517167587284138 2.5347735196453436  C 14.501431023100508 2.710135466661138  14.344063505295434 2.8217282235744126  14.04506503386891 2.869554641041854  C 14.04506503386891 2.869554641041854  14.04506503386891 10.258684827941273  14.04506503386891 10.258684827941273  C 14.04506503386891 11.15143828587422  13.99785440333363 12.107964734785266  13.903434080247463 13.128254672485461  C 13.824750321344927 14.148544372630932  13.659514990440233 15.184771381652826  13.407726211564597 16.23694520174011  C 13.155938370673354 17.273176961856485  12.7782552023599 18.285499789224172  12.27467858259302 19.273905606982552  C 11.771101962826144 20.262311365352254  11.110158294246387 21.171014485007273  10.291846169877159 22  C 10.213162410974622 21.87246375778748  10.095136772620815 21.728978804071776  9.93776925481574 21.569558441917437  C 9.796138301194292 21.410138198540462  9.63877031439702 21.250722112371157  9.46566576341612 21.091301868994183  C 9.308298245611043 20.947823566810754  9.158798540905584 20.84420397787545  9.017167587284138 20.780435856769184  C 9.772532516934456 20.031160582242308  10.370529928779698 19.21810400232199  10.811159353827668 18.341292366805224  C 11.267525812051463 17.464480850065822  11.59799788083744 16.563765983113747  11.8025750911934 15.639128286461625  C 12.022890741701781 14.714490708586869  12.164521695323227 13.797814539731243  12.22746795205774 12.889118784272666  C 12.306151710960279 11.96448120639791  12.345493590411548 11.079697234344712  12.345493590411548 10.23476971876976  Z M 18.152361750906476 1.0282584733610451  C 18.986409970467136 0.7413018689941846  19.686694111521568 0.4543471650651159  20.253217926007355 0.1673905606982554  C 20.253217926007355 0.1673905606982554  21.693132777489467 1.4825999371127856  21.693132777489467 1.4825999371127856  C 20.953504881014975 1.8173829589470882  20.11158697238591 2.136229859678584  19.16738092757106 2.4391282864616266  C 18.223174882756215 2.726084890828487  17.24749570957411 2.9891206847104597  16.240342470040353 3.2282508716098786  C 15.248926732674617 3.4514392360931145  14.281117248560918 3.650721043374901  13.336911203746071 3.8260829903906957  C 13.28970057321079 3.6347792209587193  13.211016814308252 3.4036204203768397  13.100858989054064 3.1326056384261616  C 12.990702101784267 2.8456490340593006  12.88054427653008 2.614490233477421  12.77038645127589 2.4391282864616266  C 13.651645301371827 2.2478235668107547  14.556509466735406 2.0325961362372023  15.484978947366626 1.7934659493377838  C 16.429184992181472 1.5543357624383654  17.318312593361423 1.2992732553117237  18.152361750906476 1.0282584733610451  Z M 5.7596570609674504 14.730430155455812  C 5.7596570609674504 14.730430155455812  6.703862636790102 13.893477351964535  6.703862636790102 13.893477351964535  C 6.892703751954632 14.021013831731784  7.168097377105711 14.236226058803  7.530043043251142 14.539124485586044  C 7.9077257425724 14.826081089952904  8.309013757161297 15.144928228239124  8.733906618025639 15.495652834934884  C 9.158799009897782 15.846377441630645  9.544349522318656 16.17318242561514  9.890558624280459 16.476081089952903  C 10.236767257250065 16.76303745676504  10.488555098141306 16.970276872190375  10.64592308493858 17.0978131144029  C 10.64592308493858 17.0978131144029  9.583691401769926 18.436952803491277  9.583691401769926 18.436952803491277  C 9.394850286605395 18.213764439008038  9.135193694630141 17.934782546724854  8.804721625844165 17.6  C 8.474249557058187 17.265217334497784  8.112303890912756 16.91449308413411  7.71888462740787 16.54782641746744  C 7.341202397078809 16.16521769082987  6.971388448841563 15.814493321688833  6.6094427826961315 15.495652834934884  C 6.26323368073433 15.160870288210031  5.979971773491436 14.905792577581053  5.7596570609674504 14.730430155455812  Z M 2.8090128191769033 6.169566043668604  C 2.6359085026921005 5.5159427726350785  2.431330823343942 4.918114454729844  2.19527931214023 4.376084890828487  C 2.19527931214023 4.376084890828487  3.611588379362501 4.041303769431976  3.611588379362501 4.041303769431976  C 3.8476398905662137 4.567391510917151  4.060086086502285 5.149274205530619  4.248927201666815 5.786954703929069  C 4.437768551327444 6.424636152546414  4.563662940765262 6.974626650357456  4.626609900988073 7.4369452017401105  C 4.626609900988073 7.4369452017401105  3.1158800416874373 7.843471650651159  3.1158800416874373 7.843471650651159  C 3.084406444327983 7.365210326633426  2.982117370157805 6.8072465420670545  2.8090128191769033 6.169566043668604  Z M 7.9313305888478425 5.141292366805226  C 8.07296154246929 4.710858410473831  8.18311936772348 4.328256572923253  8.261803126626017 3.9934735510889507  C 8.261803126626017 3.9934735510889507  9.86695330901282 4.352169781656975  9.86695330901282 4.352169781656975  C 9.646638596488835 4.95796663522306  9.418455132880839 5.5717263231366205  9.182403856173226 6.193465949337784  C 8.946352110473414 6.8152046253200504  8.718169115857615 7.34926470334166  8.49785440333363 7.795641432308134  C 8.49785440333363 7.795641432308134  7.057940489835915 7.4369452017401105  7.057940489835915 7.4369452017401105  C 7.199571443457362 7.118104952540886  7.341202397078809 6.759407771753966  7.482833350700256 6.36085651003604  C 7.640200868505332 5.962306198537008  7.789699635226396 5.555785450939335  7.9313305888478425 5.141292366805226  Z M 3.7768241792593913 15.04129616768081  C 4.34334775924908 14.2441950695733  4.807582734060789 13.463030567678043  5.16952840020622 12.697813114402898  C 5.16952840020622 12.697813114402898  6.444206982799242 13.2  6.444206982799242 13.2  C 6.050787719294356 14.060869575545858  5.562947429215007 14.93768049839845  4.980686816049492 15.830433956331394  C 4.398426437380076 16.70724559184816  3.7768241792593913 17.52826001746675  3.1158800416874373 18.293477351964533  C 2.470672468299112 19.042752685880092  1.8333334114986994 19.664485779326345  1.2038627540381508 20.158688628816858  C 1.0622318004167037 19.951442264915844  0.8733905093800998 19.728256825325147  0.6373390568004125 19.489126386023834  C 0.41702428565240307 19.234053960987467  0.20457797246828205 19.02679946083716  0 18.867379158071504  C 0.6452075147643007 18.4528863708808  1.2904149122805522 17.910868862881685  1.9356223684208282 17.241303769431976  C 2.5965666232408315 16.571738557204906  3.2103005992697025 15.838397740897765  3.7768241792593913 15.04129616768081  Z " fill-rule="nonzero" fill="rgba(0, 0, 0, 1)" stroke="none" transform="matrix(1 0 0 1 141 612 )" class="fill" />
    <path d="M 13.19527931214023 9.66086791266279  L 13.19527931214023 7.9869471021779015  L 22 7.9869471021779015  L 22 9.66086791266279  L 13.19527931214023 9.66086791266279  Z " stroke-width="0" stroke-dasharray="0" stroke="rgba(121, 121, 121, 1)" fill="none" transform="matrix(1 0 0 1 141 612 )" class="stroke" mask="url(#Clip4819)" />
    <path d="M 0.7789700104218593 4  L 0.7789700104218593 2.4152131772901138  L 11.212446899424368 2.4152131772901138  L 11.212446899424368 4  L 0.7789700104218593 4  Z " stroke-width="0" stroke-dasharray="0" stroke="rgba(121, 121, 121, 1)" fill="none" transform="matrix(1 0 0 1 141 612 )" class="stroke" mask="url(#Clip4819)" />
    <path d="M 0.5193133011985565 13.463035793881971  L 0.5193133011985565 11.884775420083136  L 11.306868160494929 11.884775420083136  L 11.306868160494929 13.463035793881971  L 0.5193133011985565 13.463035793881971  Z " stroke-width="0" stroke-dasharray="0" stroke="rgba(121, 121, 121, 1)" fill="none" transform="matrix(1 0 0 1 141 612 )" class="stroke" mask="url(#Clip4819)" />
    <path d="M 0.448497824387833 9.397816915278483  L 0.448497824387833 8  L 11.495708806667261 8  L 11.495708806667261 9.397816915278483  L 0.448497824387833 9.397816915278483  Z " stroke-width="0" stroke-dasharray="0" stroke="rgba(121, 121, 121, 1)" fill="none" transform="matrix(1 0 0 1 141 612 )" class="stroke" mask="url(#Clip4819)" />
    <path d="M 17.60944137571954 21.78477922095872  L 17.60944137571954 8.656509344970923  L 19 8.656509344970923  L 19 21.78477922095872  L 17.60944137571954 21.78477922095872  Z " stroke-width="0" stroke-dasharray="0" stroke="rgba(121, 121, 121, 1)" fill="none" transform="matrix(1 0 0 1 141 612 )" class="stroke" mask="url(#Clip4819)" />
    <path d="M 5.16952840020622 3.1804358567691864  L 5.16952840020622 0  L 6.892704220946829 0  L 6.892704220946829 3.1804358567691864  L 5.16952840020622 3.1804358567691864  Z " stroke-width="0" stroke-dasharray="0" stroke="rgba(121, 121, 121, 1)" fill="none" transform="matrix(1 0 0 1 141 612 )" class="stroke" mask="url(#Clip4819)" />
    <path d="M 5.16952840020622 21.856509344970924  L 5.16952840020622 9.13478112139651  L 7 9.13478112139651  L 7 21.856509344970924  L 5.16952840020622 21.856509344970924  Z " stroke-width="0" stroke-dasharray="0" stroke="rgba(121, 121, 121, 1)" fill="none" transform="matrix(1 0 0 1 141 612 )" class="stroke" mask="url(#Clip4819)" />
    <path d="M 12.345493590411548 10.23476971876976  C 12.345493590411548 10.23476971876976  12.345493590411548 1.8652112768523221  12.345493590411548 1.8652112768523221  C 12.345493590411548 1.8652112768523221  14.517167587284138 2.5347735196453436  14.517167587284138 2.5347735196453436  C 14.501431023100508 2.710135466661138  14.344063505295434 2.8217282235744126  14.04506503386891 2.869554641041854  C 14.04506503386891 2.869554641041854  14.04506503386891 10.258684827941273  14.04506503386891 10.258684827941273  C 14.04506503386891 11.15143828587422  13.99785440333363 12.107964734785266  13.903434080247463 13.128254672485461  C 13.824750321344927 14.148544372630932  13.659514990440233 15.184771381652826  13.407726211564597 16.23694520174011  C 13.155938370673354 17.273176961856485  12.7782552023599 18.285499789224172  12.27467858259302 19.273905606982552  C 11.771101962826144 20.262311365352254  11.110158294246387 21.171014485007273  10.291846169877159 22  C 10.213162410974622 21.87246375778748  10.095136772620815 21.728978804071776  9.93776925481574 21.569558441917437  C 9.796138301194292 21.410138198540462  9.63877031439702 21.250722112371157  9.46566576341612 21.091301868994183  C 9.308298245611043 20.947823566810754  9.158798540905584 20.84420397787545  9.017167587284138 20.780435856769184  C 9.772532516934456 20.031160582242308  10.370529928779698 19.21810400232199  10.811159353827668 18.341292366805224  C 11.267525812051463 17.464480850065822  11.59799788083744 16.563765983113747  11.8025750911934 15.639128286461625  C 12.022890741701781 14.714490708586869  12.164521695323227 13.797814539731243  12.22746795205774 12.889118784272666  C 12.306151710960279 11.96448120639791  12.345493590411548 11.079697234344712  12.345493590411548 10.23476971876976  Z " stroke-width="0" stroke-dasharray="0" stroke="rgba(121, 121, 121, 1)" fill="none" transform="matrix(1 0 0 1 141 612 )" class="stroke" mask="url(#Clip4819)" />
    <path d="M 18.152361750906476 1.0282584733610451  C 18.986409970467136 0.7413018689941846  19.686694111521568 0.4543471650651159  20.253217926007355 0.1673905606982554  C 20.253217926007355 0.1673905606982554  21.693132777489467 1.4825999371127856  21.693132777489467 1.4825999371127856  C 20.953504881014975 1.8173829589470882  20.11158697238591 2.136229859678584  19.16738092757106 2.4391282864616266  C 18.223174882756215 2.726084890828487  17.24749570957411 2.9891206847104597  16.240342470040353 3.2282508716098786  C 15.248926732674617 3.4514392360931145  14.281117248560918 3.650721043374901  13.336911203746071 3.8260829903906957  C 13.28970057321079 3.6347792209587193  13.211016814308252 3.4036204203768397  13.100858989054064 3.1326056384261616  C 12.990702101784267 2.8456490340593006  12.88054427653008 2.614490233477421  12.77038645127589 2.4391282864616266  C 13.651645301371827 2.2478235668107547  14.556509466735406 2.0325961362372023  15.484978947366626 1.7934659493377838  C 16.429184992181472 1.5543357624383654  17.318312593361423 1.2992732553117237  18.152361750906476 1.0282584733610451  Z " stroke-width="0" stroke-dasharray="0" stroke="rgba(121, 121, 121, 1)" fill="none" transform="matrix(1 0 0 1 141 612 )" class="stroke" mask="url(#Clip4819)" />
    <path d="M 5.7596570609674504 14.730430155455812  C 5.7596570609674504 14.730430155455812  6.703862636790102 13.893477351964535  6.703862636790102 13.893477351964535  C 6.892703751954632 14.021013831731784  7.168097377105711 14.236226058803  7.530043043251142 14.539124485586044  C 7.9077257425724 14.826081089952904  8.309013757161297 15.144928228239124  8.733906618025639 15.495652834934884  C 9.158799009897782 15.846377441630645  9.544349522318656 16.17318242561514  9.890558624280459 16.476081089952903  C 10.236767257250065 16.76303745676504  10.488555098141306 16.970276872190375  10.64592308493858 17.0978131144029  C 10.64592308493858 17.0978131144029  9.583691401769926 18.436952803491277  9.583691401769926 18.436952803491277  C 9.394850286605395 18.213764439008038  9.135193694630141 17.934782546724854  8.804721625844165 17.6  C 8.474249557058187 17.265217334497784  8.112303890912756 16.91449308413411  7.71888462740787 16.54782641746744  C 7.341202397078809 16.16521769082987  6.971388448841563 15.814493321688833  6.6094427826961315 15.495652834934884  C 6.26323368073433 15.160870288210031  5.979971773491436 14.905792577581053  5.7596570609674504 14.730430155455812  Z " stroke-width="0" stroke-dasharray="0" stroke="rgba(121, 121, 121, 1)" fill="none" transform="matrix(1 0 0 1 141 612 )" class="stroke" mask="url(#Clip4819)" />
    <path d="M 2.8090128191769033 6.169566043668604  C 2.6359085026921005 5.5159427726350785  2.431330823343942 4.918114454729844  2.19527931214023 4.376084890828487  C 2.19527931214023 4.376084890828487  3.611588379362501 4.041303769431976  3.611588379362501 4.041303769431976  C 3.8476398905662137 4.567391510917151  4.060086086502285 5.149274205530619  4.248927201666815 5.786954703929069  C 4.437768551327444 6.424636152546414  4.563662940765262 6.974626650357456  4.626609900988073 7.4369452017401105  C 4.626609900988073 7.4369452017401105  3.1158800416874373 7.843471650651159  3.1158800416874373 7.843471650651159  C 3.084406444327983 7.365210326633426  2.982117370157805 6.8072465420670545  2.8090128191769033 6.169566043668604  Z " stroke-width="0" stroke-dasharray="0" stroke="rgba(121, 121, 121, 1)" fill="none" transform="matrix(1 0 0 1 141 612 )" class="stroke" mask="url(#Clip4819)" />
    <path d="M 7.9313305888478425 5.141292366805226  C 8.07296154246929 4.710858410473831  8.18311936772348 4.328256572923253  8.261803126626017 3.9934735510889507  C 8.261803126626017 3.9934735510889507  9.86695330901282 4.352169781656975  9.86695330901282 4.352169781656975  C 9.646638596488835 4.95796663522306  9.418455132880839 5.5717263231366205  9.182403856173226 6.193465949337784  C 8.946352110473414 6.8152046253200504  8.718169115857615 7.34926470334166  8.49785440333363 7.795641432308134  C 8.49785440333363 7.795641432308134  7.057940489835915 7.4369452017401105  7.057940489835915 7.4369452017401105  C 7.199571443457362 7.118104952540886  7.341202397078809 6.759407771753966  7.482833350700256 6.36085651003604  C 7.640200868505332 5.962306198537008  7.789699635226396 5.555785450939335  7.9313305888478425 5.141292366805226  Z " stroke-width="0" stroke-dasharray="0" stroke="rgba(121, 121, 121, 1)" fill="none" transform="matrix(1 0 0 1 141 612 )" class="stroke" mask="url(#Clip4819)" />
    <path d="M 3.7768241792593913 15.04129616768081  C 4.34334775924908 14.2441950695733  4.807582734060789 13.463030567678043  5.16952840020622 12.697813114402898  C 5.16952840020622 12.697813114402898  6.444206982799242 13.2  6.444206982799242 13.2  C 6.050787719294356 14.060869575545858  5.562947429215007 14.93768049839845  4.980686816049492 15.830433956331394  C 4.398426437380076 16.70724559184816  3.7768241792593913 17.52826001746675  3.1158800416874373 18.293477351964533  C 2.470672468299112 19.042752685880092  1.8333334114986994 19.664485779326345  1.2038627540381508 20.158688628816858  C 1.0622318004167037 19.951442264915844  0.8733905093800998 19.728256825325147  0.6373390568004125 19.489126386023834  C 0.41702428565240307 19.234053960987467  0.20457797246828205 19.02679946083716  0 18.867379158071504  C 0.6452075147643007 18.4528863708808  1.2904149122805522 17.910868862881685  1.9356223684208282 17.241303769431976  C 2.5965666232408315 16.571738557204906  3.2103005992697025 15.838397740897765  3.7768241792593913 15.04129616768081  Z " stroke-width="0" stroke-dasharray="0" stroke="rgba(121, 121, 121, 1)" fill="none" transform="matrix(1 0 0 1 141 612 )" class="stroke" mask="url(#Clip4819)" />
  </g>
</svg>