<?xml version="1.0" encoding="utf-8"?>
<svg version="1.1" xmlns:xlink="http://www.w3.org/1999/xlink" width="54px" height="53px" xmlns="http://www.w3.org/2000/svg">
  <defs>
    <pattern id="BGPattern" patternUnits="userSpaceOnUse" alignment="0 0" imageRepeat="None" />
    <mask fill="white" id="Clip4772">
      <path d="M 16.554292491492006 21.532258974195077  L 15.74560308430278 15.967738462164252  L 44.668047647878886 12.048383077647205  L 45.47672854892515 17.516128718005337  L 16.554292491492006 21.532258974195077  Z M 36.10547683012953 5.370970768685437  C 35.280934807851985 4.40322782015001  34.45639278557444 3.5161318798288304  33.6318488730429 2.709681024991395  C 33.6318488730429 2.709681024991395  37.91313428191758 0  37.91313428191758 0  C 38.737676304195126 0.7419355555426425  39.59392922741128 1.5806459827579782  40.48189872232802 2.5161312816460075  C 41.36987010749875 3.4516146578035345  42.19441402003028 4.387096111230558  42.95553045992263 5.322579487388085  C 43.716646899814975 6.225805213898213  44.319199383744326 7.06451564111355  44.76318413120269 7.838710769034092  C 44.76318413120269 7.838710769034092  40.148911579424734 10.790325127746215  40.148911579424734 10.790325127746215  C 39.76835241435157 10.048389572203572  39.213371952592105 9.209677222257733  38.483968303892354 8.274193846100207  C 37.7545646551926 7.306450897564781  36.96173353385367 6.33871179449036  36.10547683012953 5.370970768685437  Z M 9.56152941107822 7.2096779486225895  C 10.95691018096552 4.854838760674573  12.130298577123638 2.467738077618152  13.081694599552568 0.04838359037534092  C 13.081694599552568 0.04838359037534092  18.55222290992767 1.8387071799371533  18.55222290992767 1.8387071799371533  C 17.347121722576954 4.709674530435029  15.920027216370059 7.564515940204961  14.270940336433979 10.40322564105544  C 12.653567192817494 13.241935341905918  10.89348459858032 15.903223162869459  8.990692553722456 18.387094872137567  C 7.11961377262069 20.870965620040423  5.185108464006729 23.04838869629301  3.1871766278805724 24.919356409973314  C 3.028610545381834 24.43548589707085  2.7590483941593784 23.82257709465679  2.37849005607233 23.08064153911415  C 1.9979315998444076 22.338705983571504  1.5856599980012618 21.596778118950876  1.141675132402019 20.854842563408234  C 0.7294035896293105 20.11290700786559  0.34884522200704376 19.49999916681678  0 19.01612769254907  C 1.7442260805 17.532256581463784  3.425025397206057 15.774189680184119  5.042398540822542 13.741931795536328  C 6.659771920720775 11.709672949523283  8.166148641190919 9.532257564192708  9.56152941107822 7.2096779486225895  Z M 9 45  L 9 13.935481538881714  L 13.985521435192602 7.983869231082126  L 14 8.08064410275482  L 14 45  L 9 45  Z M 25.449844781382676 15.048388717656682  C 25.101000297756094 10.532260085106035  24.831438737238013 5.645157906592555  24.64115820957443 0.3870917957687624  C 24.64115820957443 0.3870917957687624  30.444674607979813 0.3870917957687624  30.444674607979813 0.3870917957687624  C 30.508100190365017 5.548383034919862  30.7300916189672 10.370967991408044  31.110650784040374 14.854838974311296  C 31.522922740306143 19.30645230756715  32.0937605427889 23.225808653449445  32.82316419148865 26.61290512786243  C 33.552567840188395 30.000002563640667  34.45639467582843 32.69354899561686  35.53464280815476 34.69354923061725  C 36.61289094048108 36.661291094946314  37.86556225974769 37.741939782879285  39.29265676595458 37.93548820434746  C 39.83178177724474 37.967746214506825  40.25991107423381 37.35483777260473  40.57704276666779 36.096773333488294  C 40.89417445910177 34.83870865403054  41.147878678896554 32.870971836869046  41.338157316306145 30.19355230698606  C 41.687003690186714 30.580648909581075  42.162703119091674 30.99999691294936  42.76525371276703 31.45161025688705  C 43.36780430644239 31.903223120142112  43.97035300986376 32.322579295115034  44.57290360353912 32.709675897710056  C 45.17545419721447 33.06451485065767  45.65115362611943 33.338710160169434  46 33.532258461466945  C 45.58772804373423 36.661290854605  45.03274758197477 39.06451699770674  44.33505672446762 40.74193641008953  C 43.669078658153076 42.419355822472326  42.92381766873003 43.54838870163393  42.09927564645248 44.12903384586777  C 41.274731733920945 44.741937120431636  40.41847313994282 45.01612473902138  39.53050364502608 44.951608718702644  C 37.27886711654164 44.72580228707512  35.34436606099916 43.88709822890457  33.72699291738267 42.43548512797865  C 32.109619773766184 40.98387214722339  30.74595084994449 38.96774332774061  29.63598803617157 36.38709794850637  C 28.557739903845246 33.80645280961345  27.669770408928507 30.72580881367699  26.972079551421363 27.145163076601243  C 26.30610148510681 23.564517820208117  25.798689265009255 19.532259700559933  25.449844781382676 15.048388717656682  Z " fill-rule="evenodd" />
    </mask>
  </defs>
  <g transform="matrix(1 0 0 1 -136 -377 )">
    <path d="M 16.554292491492006 21.532258974195077  L 15.74560308430278 15.967738462164252  L 44.668047647878886 12.048383077647205  L 45.47672854892515 17.516128718005337  L 16.554292491492006 21.532258974195077  Z M 36.10547683012953 5.370970768685437  C 35.280934807851985 4.40322782015001  34.45639278557444 3.5161318798288304  33.6318488730429 2.709681024991395  C 33.6318488730429 2.709681024991395  37.91313428191758 0  37.91313428191758 0  C 38.737676304195126 0.7419355555426425  39.59392922741128 1.5806459827579782  40.48189872232802 2.5161312816460075  C 41.36987010749875 3.4516146578035345  42.19441402003028 4.387096111230558  42.95553045992263 5.322579487388085  C 43.716646899814975 6.225805213898213  44.319199383744326 7.06451564111355  44.76318413120269 7.838710769034092  C 44.76318413120269 7.838710769034092  40.148911579424734 10.790325127746215  40.148911579424734 10.790325127746215  C 39.76835241435157 10.048389572203572  39.213371952592105 9.209677222257733  38.483968303892354 8.274193846100207  C 37.7545646551926 7.306450897564781  36.96173353385367 6.33871179449036  36.10547683012953 5.370970768685437  Z M 9.56152941107822 7.2096779486225895  C 10.95691018096552 4.854838760674573  12.130298577123638 2.467738077618152  13.081694599552568 0.04838359037534092  C 13.081694599552568 0.04838359037534092  18.55222290992767 1.8387071799371533  18.55222290992767 1.8387071799371533  C 17.347121722576954 4.709674530435029  15.920027216370059 7.564515940204961  14.270940336433979 10.40322564105544  C 12.653567192817494 13.241935341905918  10.89348459858032 15.903223162869459  8.990692553722456 18.387094872137567  C 7.11961377262069 20.870965620040423  5.185108464006729 23.04838869629301  3.1871766278805724 24.919356409973314  C 3.028610545381834 24.43548589707085  2.7590483941593784 23.82257709465679  2.37849005607233 23.08064153911415  C 1.9979315998444076 22.338705983571504  1.5856599980012618 21.596778118950876  1.141675132402019 20.854842563408234  C 0.7294035896293105 20.11290700786559  0.34884522200704376 19.49999916681678  0 19.01612769254907  C 1.7442260805 17.532256581463784  3.425025397206057 15.774189680184119  5.042398540822542 13.741931795536328  C 6.659771920720775 11.709672949523283  8.166148641190919 9.532257564192708  9.56152941107822 7.2096779486225895  Z M 9 45  L 9 13.935481538881714  L 13.985521435192602 7.983869231082126  L 14 8.08064410275482  L 14 45  L 9 45  Z M 25.449844781382676 15.048388717656682  C 25.101000297756094 10.532260085106035  24.831438737238013 5.645157906592555  24.64115820957443 0.3870917957687624  C 24.64115820957443 0.3870917957687624  30.444674607979813 0.3870917957687624  30.444674607979813 0.3870917957687624  C 30.508100190365017 5.548383034919862  30.7300916189672 10.370967991408044  31.110650784040374 14.854838974311296  C 31.522922740306143 19.30645230756715  32.0937605427889 23.225808653449445  32.82316419148865 26.61290512786243  C 33.552567840188395 30.000002563640667  34.45639467582843 32.69354899561686  35.53464280815476 34.69354923061725  C 36.61289094048108 36.661291094946314  37.86556225974769 37.741939782879285  39.29265676595458 37.93548820434746  C 39.83178177724474 37.967746214506825  40.25991107423381 37.35483777260473  40.57704276666779 36.096773333488294  C 40.89417445910177 34.83870865403054  41.147878678896554 32.870971836869046  41.338157316306145 30.19355230698606  C 41.687003690186714 30.580648909581075  42.162703119091674 30.99999691294936  42.76525371276703 31.45161025688705  C 43.36780430644239 31.903223120142112  43.97035300986376 32.322579295115034  44.57290360353912 32.709675897710056  C 45.17545419721447 33.06451485065767  45.65115362611943 33.338710160169434  46 33.532258461466945  C 45.58772804373423 36.661290854605  45.03274758197477 39.06451699770674  44.33505672446762 40.74193641008953  C 43.669078658153076 42.419355822472326  42.92381766873003 43.54838870163393  42.09927564645248 44.12903384586777  C 41.274731733920945 44.741937120431636  40.41847313994282 45.01612473902138  39.53050364502608 44.951608718702644  C 37.27886711654164 44.72580228707512  35.34436606099916 43.88709822890457  33.72699291738267 42.43548512797865  C 32.109619773766184 40.98387214722339  30.74595084994449 38.96774332774061  29.63598803617157 36.38709794850637  C 28.557739903845246 33.80645280961345  27.669770408928507 30.72580881367699  26.972079551421363 27.145163076601243  C 26.30610148510681 23.564517820208117  25.798689265009255 19.532259700559933  25.449844781382676 15.048388717656682  Z " fill-rule="nonzero" fill="rgba(61, 63, 148, 1)" stroke="none" transform="matrix(1 0 0 1 140 377 )" class="fill" />
    <path d="M 16.554292491492006 21.532258974195077  L 15.74560308430278 15.967738462164252  L 44.668047647878886 12.048383077647205  L 45.47672854892515 17.516128718005337  L 16.554292491492006 21.532258974195077  Z " stroke-width="0" stroke-dasharray="0" stroke="rgba(121, 121, 121, 1)" fill="none" transform="matrix(1 0 0 1 140 377 )" class="stroke" mask="url(#Clip4772)" />
    <path d="M 36.10547683012953 5.370970768685437  C 35.280934807851985 4.40322782015001  34.45639278557444 3.5161318798288304  33.6318488730429 2.709681024991395  C 33.6318488730429 2.709681024991395  37.91313428191758 0  37.91313428191758 0  C 38.737676304195126 0.7419355555426425  39.59392922741128 1.5806459827579782  40.48189872232802 2.5161312816460075  C 41.36987010749875 3.4516146578035345  42.19441402003028 4.387096111230558  42.95553045992263 5.322579487388085  C 43.716646899814975 6.225805213898213  44.319199383744326 7.06451564111355  44.76318413120269 7.838710769034092  C 44.76318413120269 7.838710769034092  40.148911579424734 10.790325127746215  40.148911579424734 10.790325127746215  C 39.76835241435157 10.048389572203572  39.213371952592105 9.209677222257733  38.483968303892354 8.274193846100207  C 37.7545646551926 7.306450897564781  36.96173353385367 6.33871179449036  36.10547683012953 5.370970768685437  Z " stroke-width="0" stroke-dasharray="0" stroke="rgba(121, 121, 121, 1)" fill="none" transform="matrix(1 0 0 1 140 377 )" class="stroke" mask="url(#Clip4772)" />
    <path d="M 9.56152941107822 7.2096779486225895  C 10.95691018096552 4.854838760674573  12.130298577123638 2.467738077618152  13.081694599552568 0.04838359037534092  C 13.081694599552568 0.04838359037534092  18.55222290992767 1.8387071799371533  18.55222290992767 1.8387071799371533  C 17.347121722576954 4.709674530435029  15.920027216370059 7.564515940204961  14.270940336433979 10.40322564105544  C 12.653567192817494 13.241935341905918  10.89348459858032 15.903223162869459  8.990692553722456 18.387094872137567  C 7.11961377262069 20.870965620040423  5.185108464006729 23.04838869629301  3.1871766278805724 24.919356409973314  C 3.028610545381834 24.43548589707085  2.7590483941593784 23.82257709465679  2.37849005607233 23.08064153911415  C 1.9979315998444076 22.338705983571504  1.5856599980012618 21.596778118950876  1.141675132402019 20.854842563408234  C 0.7294035896293105 20.11290700786559  0.34884522200704376 19.49999916681678  0 19.01612769254907  C 1.7442260805 17.532256581463784  3.425025397206057 15.774189680184119  5.042398540822542 13.741931795536328  C 6.659771920720775 11.709672949523283  8.166148641190919 9.532257564192708  9.56152941107822 7.2096779486225895  Z " stroke-width="0" stroke-dasharray="0" stroke="rgba(121, 121, 121, 1)" fill="none" transform="matrix(1 0 0 1 140 377 )" class="stroke" mask="url(#Clip4772)" />
    <path d="M 9 45  L 9 13.935481538881714  L 13.985521435192602 7.983869231082126  L 14 8.08064410275482  L 14 45  L 9 45  Z " stroke-width="0" stroke-dasharray="0" stroke="rgba(121, 121, 121, 1)" fill="none" transform="matrix(1 0 0 1 140 377 )" class="stroke" mask="url(#Clip4772)" />
    <path d="M 25.449844781382676 15.048388717656682  C 25.101000297756094 10.532260085106035  24.831438737238013 5.645157906592555  24.64115820957443 0.3870917957687624  C 24.64115820957443 0.3870917957687624  30.444674607979813 0.3870917957687624  30.444674607979813 0.3870917957687624  C 30.508100190365017 5.548383034919862  30.7300916189672 10.370967991408044  31.110650784040374 14.854838974311296  C 31.522922740306143 19.30645230756715  32.0937605427889 23.225808653449445  32.82316419148865 26.61290512786243  C 33.552567840188395 30.000002563640667  34.45639467582843 32.69354899561686  35.53464280815476 34.69354923061725  C 36.61289094048108 36.661291094946314  37.86556225974769 37.741939782879285  39.29265676595458 37.93548820434746  C 39.83178177724474 37.967746214506825  40.25991107423381 37.35483777260473  40.57704276666779 36.096773333488294  C 40.89417445910177 34.83870865403054  41.147878678896554 32.870971836869046  41.338157316306145 30.19355230698606  C 41.687003690186714 30.580648909581075  42.162703119091674 30.99999691294936  42.76525371276703 31.45161025688705  C 43.36780430644239 31.903223120142112  43.97035300986376 32.322579295115034  44.57290360353912 32.709675897710056  C 45.17545419721447 33.06451485065767  45.65115362611943 33.338710160169434  46 33.532258461466945  C 45.58772804373423 36.661290854605  45.03274758197477 39.06451699770674  44.33505672446762 40.74193641008953  C 43.669078658153076 42.419355822472326  42.92381766873003 43.54838870163393  42.09927564645248 44.12903384586777  C 41.274731733920945 44.741937120431636  40.41847313994282 45.01612473902138  39.53050364502608 44.951608718702644  C 37.27886711654164 44.72580228707512  35.34436606099916 43.88709822890457  33.72699291738267 42.43548512797865  C 32.109619773766184 40.98387214722339  30.74595084994449 38.96774332774061  29.63598803617157 36.38709794850637  C 28.557739903845246 33.80645280961345  27.669770408928507 30.72580881367699  26.972079551421363 27.145163076601243  C 26.30610148510681 23.564517820208117  25.798689265009255 19.532259700559933  25.449844781382676 15.048388717656682  Z " stroke-width="0" stroke-dasharray="0" stroke="rgba(121, 121, 121, 1)" fill="none" transform="matrix(1 0 0 1 140 377 )" class="stroke" mask="url(#Clip4772)" />
  </g>
  <style>svg { filter: drop-shadow(0px 4px 2px rgba(0, 0, 0, 0.12941176470588237)); }</style>
</svg>