<?xml version="1.0" encoding="utf-8"?>
<svg version="1.1" xmlns:xlink="http://www.w3.org/1999/xlink" width="8px" height="16px" xmlns="http://www.w3.org/2000/svg">
  <defs>
    <pattern id="BGPattern" patternUnits="userSpaceOnUse" alignment="0 0" imageRepeat="None" />
    <mask fill="white" id="Clip4820">
      <path d="M 8 0  L 8 16  L 0 16  L 0 14.293657847762994  L 6 14.293657847762994  L 6 0  L 8 0  Z " fill-rule="evenodd" />
    </mask>
  </defs>
  <g transform="matrix(1 0 0 1 -921 -588 )">
    <path d="M 8 0  L 8 16  L 0 16  L 0 14.293657847762994  L 6 14.293657847762994  L 6 0  L 8 0  Z " fill-rule="nonzero" fill="rgba(0, 0, 0, 1)" stroke="none" transform="matrix(1 0 0 1 921 588 )" class="fill" />
    <path d="M 8 0  L 8 16  L 0 16  L 0 14.293657847762994  L 6 14.293657847762994  L 6 0  L 8 0  Z " stroke-width="0" stroke-dasharray="0" stroke="rgba(121, 121, 121, 1)" fill="none" transform="matrix(1 0 0 1 921 588 )" class="stroke" mask="url(#Clip4820)" />
  </g>
</svg>