<?xml version="1.0" encoding="utf-8"?>
<svg version="1.1" xmlns:xlink="http://www.w3.org/1999/xlink" width="12px" height="17px" xmlns="http://www.w3.org/2000/svg">
  <defs>
    <pattern id="BGPattern" patternUnits="userSpaceOnUse" alignment="0 0" imageRepeat="None" />
    <mask fill="white" id="Clip4854">
      <path d="M 12 8.100829744797766  C 12 8.100829744797766  12 10.75414219272604  12 10.75414219272604  C 12 12.679556598606153  11.592010021209717 13.970992754689062  10.5360107421875 15.074583728044804  C 9.336010456085205 16.342539411231357  7.727982997894287 17  5.975982666015625 17  C 4.295982837677002 17  2.7600018978118896 16.38950198983977  1.608001708984375 15.262430310328288  C 0 13.689226146895235  0 12.045581147921578  0 8.500001866075083  C 0 4.9544218844504355  0 3.3107745528829216  1.608001708984375 1.7375696896717137  C 2.7600018978118896 0.6104985933086938  4.271982431411743 0  5.975982666015625 0  C 9.239982843399048 0  11.447996616363525 2.066299809111496  11.951995849609375 5.0013835300213065  C 11.951995849609375 5.0013835300213065  10.12799072265625 5.0013835300213065  10.12799072265625 5.0013835300213065  C 9.647990465164185 2.8881234748952527  8.111983060836792 1.596684752959101  5.975982666015625 1.596684752959101  C 4.847982883453369 1.596684752959101  3.7679868936538696 2.0428199193636023  3.02398681640625 2.7942011167910534  C 1.9439867734909058 3.8743115006207445  1.824005126953125 5.001383996540078  1.824005126953125 8.500001866075083  C 1.824005126953125 11.998619735610092  1.9439867734909058 13.149171188239775  3.02398681640625 14.229281572069468  C 3.7679868936538696 14.980662594552378  4.847982883453369 15.403315247040899  5.975982666015625 15.403315247040899  C 7.223982334136963 15.403315247040899  8.424003601074219 14.910220709344536  9.21600341796875 13.97099438750476  C 9.912003755569458 13.149171246554621  10.175994873046875 12.23342481446274  10.175994873046875 10.941988775009523  C 10.175994873046875 10.941988775009523  10.175994873046875 9.674031808896348  10.175994873046875 9.674031808896348  L 5.975982666015625 9.674031808896348  L 5.975982666015625 8.100829744797766  L 12 8.100829744797766  Z " fill-rule="evenodd" />
    </mask>
  </defs>
  <g transform="matrix(1 0 0 1 -529 -522 )">
    <path d="M 12 8.100829744797766  C 12 8.100829744797766  12 10.75414219272604  12 10.75414219272604  C 12 12.679556598606153  11.592010021209717 13.970992754689062  10.5360107421875 15.074583728044804  C 9.336010456085205 16.342539411231357  7.727982997894287 17  5.975982666015625 17  C 4.295982837677002 17  2.7600018978118896 16.38950198983977  1.608001708984375 15.262430310328288  C 0 13.689226146895235  0 12.045581147921578  0 8.500001866075083  C 0 4.9544218844504355  0 3.3107745528829216  1.608001708984375 1.7375696896717137  C 2.7600018978118896 0.6104985933086938  4.271982431411743 0  5.975982666015625 0  C 9.239982843399048 0  11.447996616363525 2.066299809111496  11.951995849609375 5.0013835300213065  C 11.951995849609375 5.0013835300213065  10.12799072265625 5.0013835300213065  10.12799072265625 5.0013835300213065  C 9.647990465164185 2.8881234748952527  8.111983060836792 1.596684752959101  5.975982666015625 1.596684752959101  C 4.847982883453369 1.596684752959101  3.7679868936538696 2.0428199193636023  3.02398681640625 2.7942011167910534  C 1.9439867734909058 3.8743115006207445  1.824005126953125 5.001383996540078  1.824005126953125 8.500001866075083  C 1.824005126953125 11.998619735610092  1.9439867734909058 13.149171188239775  3.02398681640625 14.229281572069468  C 3.7679868936538696 14.980662594552378  4.847982883453369 15.403315247040899  5.975982666015625 15.403315247040899  C 7.223982334136963 15.403315247040899  8.424003601074219 14.910220709344536  9.21600341796875 13.97099438750476  C 9.912003755569458 13.149171246554621  10.175994873046875 12.23342481446274  10.175994873046875 10.941988775009523  C 10.175994873046875 10.941988775009523  10.175994873046875 9.674031808896348  10.175994873046875 9.674031808896348  L 5.975982666015625 9.674031808896348  L 5.975982666015625 8.100829744797766  L 12 8.100829744797766  Z " fill-rule="nonzero" fill="rgba(0, 0, 0, 1)" stroke="none" transform="matrix(1 0 0 1 529 522 )" class="fill" />
    <path d="M 12 8.100829744797766  C 12 8.100829744797766  12 10.75414219272604  12 10.75414219272604  C 12 12.679556598606153  11.592010021209717 13.970992754689062  10.5360107421875 15.074583728044804  C 9.336010456085205 16.342539411231357  7.727982997894287 17  5.975982666015625 17  C 4.295982837677002 17  2.7600018978118896 16.38950198983977  1.608001708984375 15.262430310328288  C 0 13.689226146895235  0 12.045581147921578  0 8.500001866075083  C 0 4.9544218844504355  0 3.3107745528829216  1.608001708984375 1.7375696896717137  C 2.7600018978118896 0.6104985933086938  4.271982431411743 0  5.975982666015625 0  C 9.239982843399048 0  11.447996616363525 2.066299809111496  11.951995849609375 5.0013835300213065  C 11.951995849609375 5.0013835300213065  10.12799072265625 5.0013835300213065  10.12799072265625 5.0013835300213065  C 9.647990465164185 2.8881234748952527  8.111983060836792 1.596684752959101  5.975982666015625 1.596684752959101  C 4.847982883453369 1.596684752959101  3.7679868936538696 2.0428199193636023  3.02398681640625 2.7942011167910534  C 1.9439867734909058 3.8743115006207445  1.824005126953125 5.001383996540078  1.824005126953125 8.500001866075083  C 1.824005126953125 11.998619735610092  1.9439867734909058 13.149171188239775  3.02398681640625 14.229281572069468  C 3.7679868936538696 14.980662594552378  4.847982883453369 15.403315247040899  5.975982666015625 15.403315247040899  C 7.223982334136963 15.403315247040899  8.424003601074219 14.910220709344536  9.21600341796875 13.97099438750476  C 9.912003755569458 13.149171246554621  10.175994873046875 12.23342481446274  10.175994873046875 10.941988775009523  C 10.175994873046875 10.941988775009523  10.175994873046875 9.674031808896348  10.175994873046875 9.674031808896348  L 5.975982666015625 9.674031808896348  L 5.975982666015625 8.100829744797766  L 12 8.100829744797766  Z " stroke-width="0" stroke-dasharray="0" stroke="rgba(121, 121, 121, 1)" fill="none" transform="matrix(1 0 0 1 529 522 )" class="stroke" mask="url(#Clip4854)" />
  </g>
</svg>