<?xml version="1.0" encoding="utf-8"?>
<svg version="1.1" xmlns:xlink="http://www.w3.org/1999/xlink" width="21px" height="21px" xmlns="http://www.w3.org/2000/svg">
  <defs>
    <pattern id="BGPattern" patternUnits="userSpaceOnUse" alignment="0 0" imageRepeat="None" />
    <mask fill="white" id="Clip4849">
      <path d="M 9.939675171767849 4.949657484671011  L 10.475636914531925 4.949657484671011  L 19.660091286834216 4.949657484671011  L 19.660091286834216 6.343248588947415  L 10.475636914531925 6.343248588947415  L 10.475636914531925 17.107550613486893  L 9 17.107550613486893  L 9 6.126998006085767  L 9.939675171767849 4.949657484671011  Z M 14.154291474157816 3.9645303680921344  C 14.414152769135693 3.3077795935499315  14.617168800801661 2.723112664883468  14.76334053721252 2.21052671779603  C 14.76334053721252 2.21052671779603  16.468677139320246 2.6670421471713843  16.468677139320246 2.6670421471713843  C 16.208815844342368 3.2597195589819616  15.932712492385773 3.860409363467796  15.640369019564059 4.469104877269887  C 15.348025546742345 5.07780134583755  15.071925098956148 5.598393957006816  14.81206477203507 6.030887484605542  C 14.81206477203507 6.030887484605542  13.399070674692258 5.646453036809214  13.399070674692258 5.646453036809214  C 13.642690880748217 5.181922350461888  13.894431147236737 4.621281142634339  14.154291474157816 3.9645303680921344  Z M 4.238979387858041 17.13158015338809  C 4.238979387858041 17.13158015338809  2.972157268940285 16.05034251532899  2.972157268940285 16.05034251532899  C 3.3944311472367374 15.441646762835504  3.865428776327342 14.69679332435187  4.385150156212099 13.81578625763176  C 4.921113351061373 12.918760850228743  5.4245934000100124 12.037754499582812  5.895590787086418 11.172766012237004  C 5.895590787086418 11.172766012237004  6.9918792941962415 12.18192266871708  6.9918792941962415 12.18192266871708  C 6.585846746835906 12.982838032022656  6.139210509113978 13.823795786010301  5.651971549087256 14.704802852730413  C 5.180973677982451 15.585809919450522  4.7099767749344466 16.394738033468442  4.238979387858041 17.13158015338809  Z M 3.727378068405844 8.337524723881796  C 3.1102087029043823 7.953085024874826  2.5092806683390387 7.632720120747838  1.924593964709812 7.37642714720412  C 1.924593964709812 7.37642714720412  2.899071884763256 6.343248588947415  2.899071884763256 6.343248588947415  C 3.4837585883924826 6.567504881125321  4.0846863809436265 6.855832626503711  4.701855746445088 7.208235644144868  C 5.31902486993235 7.560638661786027  5.806264313987471 7.897026441732385  6.163573110553654 8.217392300624944  C 6.163573110553654 8.217392300624944  5.164733073088934 9.370710920263072  5.164733073088934 9.370710920263072  C 4.823665849473068 9.050345061370512  4.344547433907305 8.705945843514469  3.727378068405844 8.337524723881796  Z M 4.969837101855525 4.2288323926316105  C 4.385150156212099 3.844393171007425  3.808584481072231 3.5240273121148658  3.240139108379122 3.2677348159539323  C 3.240139108379122 3.2677348159539323  4.238979387858041 2.2585781594738568  4.238979387858041 2.2585781594738568  C 4.791183671629233 2.498853508408848  5.367749104754901 2.803203174841036  5.968677139320245 3.1716242944737076  C 6.569605173885589 3.5400454141063795  7.032482500529435 3.884436993837852  7.357308151194983 4.2048028527304115  C 7.357308151194983 4.2048028527304115  6.30974484696451 5.310070030690712  6.30974484696451 5.310070030690712  C 6.00115980119248 4.973685115041068  5.5545235634705525 4.613271614255796  4.969837101855525 4.2288323926316105  Z M 8.551044159893111 5.790614999967265  C 9.31438501979123 4.589242074354597  9.931554627306891 3.3318072239199874  10.402552498411696 2.01830567483558  C 10.402552498411696 2.01830567483558  11.93735427864049 2.4267696625331077  11.93735427864049 2.4267696625331077  C 11.385150478897698 3.9004541410637943  10.69489500317661 5.310064302097284  9.866588819534021 6.655602055164718  C 9.038282635891434 8.001140285614937  8.161252701454695 9.138444622323837  7.235498532195402 10.067506472401273  C 7.154292119529016 9.95537832631232  7.040602560961994 9.82722921393514  6.894430824551137 9.683064386480373  C 6.764500661090598 9.522881457034094  6.626450437197499 9.362695185908315  6.480278700786643 9.202511779079249  C 6.334106964375787 9.04232884963297  6.204175832858447 8.914187375380362  6.090486758319826 8.818077331282922  C 6.983758265706883 8.00114362729444  7.803944388916911 6.991988402962719  8.551044159893111 5.790614999967265  Z M 9.988398438533602 9.514872883421123  L 9.988398438533602 8.241414202401572  L 19.099766458602065 8.241414202401572  L 19.099766458602065 9.514872883421123  L 9.988398438533602 9.514872883421123  Z M 9.988398438533602 12.782607699375056  L 9.988398438533602 11.509149018355503  L 19.099766458602065 11.509149018355503  L 19.099766458602065 12.782607699375056  L 9.988398438533602 12.782607699375056  Z M 9.842226702122746 16  L 9.842226702122746 14.872994355789663  L 19.95243475965593 14.872994355789663  L 19.95243475965593 16  L 9.842226702122746 16  Z M 13.61832876333694 15.834091932467338  L 13.61832876333694 5.766585460066066  L 15 5.766585460066066  L 15 15.834091932467338  L 13.61832876333694 15.834091932467338  Z M 0 21  L 0 0  L 20.36658881953402 0  L 20.36658881953402 2  L 2 2  L 2 21  L 0 21  Z M 1.1937352826555292 19.822651840460676  L 1.1937352826555292 18  L 21 18  L 21 19.822651840460676  L 1.1937352826555292 19.822651840460676  Z " fill-rule="evenodd" />
    </mask>
  </defs>
  <g transform="matrix(1 0 0 1 -142 -582 )">
    <path d="M 9.939675171767849 4.949657484671011  L 10.475636914531925 4.949657484671011  L 19.660091286834216 4.949657484671011  L 19.660091286834216 6.343248588947415  L 10.475636914531925 6.343248588947415  L 10.475636914531925 17.107550613486893  L 9 17.107550613486893  L 9 6.126998006085767  L 9.939675171767849 4.949657484671011  Z M 14.154291474157816 3.9645303680921344  C 14.414152769135693 3.3077795935499315  14.617168800801661 2.723112664883468  14.76334053721252 2.21052671779603  C 14.76334053721252 2.21052671779603  16.468677139320246 2.6670421471713843  16.468677139320246 2.6670421471713843  C 16.208815844342368 3.2597195589819616  15.932712492385773 3.860409363467796  15.640369019564059 4.469104877269887  C 15.348025546742345 5.07780134583755  15.071925098956148 5.598393957006816  14.81206477203507 6.030887484605542  C 14.81206477203507 6.030887484605542  13.399070674692258 5.646453036809214  13.399070674692258 5.646453036809214  C 13.642690880748217 5.181922350461888  13.894431147236737 4.621281142634339  14.154291474157816 3.9645303680921344  Z M 4.238979387858041 17.13158015338809  C 4.238979387858041 17.13158015338809  2.972157268940285 16.05034251532899  2.972157268940285 16.05034251532899  C 3.3944311472367374 15.441646762835504  3.865428776327342 14.69679332435187  4.385150156212099 13.81578625763176  C 4.921113351061373 12.918760850228743  5.4245934000100124 12.037754499582812  5.895590787086418 11.172766012237004  C 5.895590787086418 11.172766012237004  6.9918792941962415 12.18192266871708  6.9918792941962415 12.18192266871708  C 6.585846746835906 12.982838032022656  6.139210509113978 13.823795786010301  5.651971549087256 14.704802852730413  C 5.180973677982451 15.585809919450522  4.7099767749344466 16.394738033468442  4.238979387858041 17.13158015338809  Z M 3.727378068405844 8.337524723881796  C 3.1102087029043823 7.953085024874826  2.5092806683390387 7.632720120747838  1.924593964709812 7.37642714720412  C 1.924593964709812 7.37642714720412  2.899071884763256 6.343248588947415  2.899071884763256 6.343248588947415  C 3.4837585883924826 6.567504881125321  4.0846863809436265 6.855832626503711  4.701855746445088 7.208235644144868  C 5.31902486993235 7.560638661786027  5.806264313987471 7.897026441732385  6.163573110553654 8.217392300624944  C 6.163573110553654 8.217392300624944  5.164733073088934 9.370710920263072  5.164733073088934 9.370710920263072  C 4.823665849473068 9.050345061370512  4.344547433907305 8.705945843514469  3.727378068405844 8.337524723881796  Z M 4.969837101855525 4.2288323926316105  C 4.385150156212099 3.844393171007425  3.808584481072231 3.5240273121148658  3.240139108379122 3.2677348159539323  C 3.240139108379122 3.2677348159539323  4.238979387858041 2.2585781594738568  4.238979387858041 2.2585781594738568  C 4.791183671629233 2.498853508408848  5.367749104754901 2.803203174841036  5.968677139320245 3.1716242944737076  C 6.569605173885589 3.5400454141063795  7.032482500529435 3.884436993837852  7.357308151194983 4.2048028527304115  C 7.357308151194983 4.2048028527304115  6.30974484696451 5.310070030690712  6.30974484696451 5.310070030690712  C 6.00115980119248 4.973685115041068  5.5545235634705525 4.613271614255796  4.969837101855525 4.2288323926316105  Z M 8.551044159893111 5.790614999967265  C 9.31438501979123 4.589242074354597  9.931554627306891 3.3318072239199874  10.402552498411696 2.01830567483558  C 10.402552498411696 2.01830567483558  11.93735427864049 2.4267696625331077  11.93735427864049 2.4267696625331077  C 11.385150478897698 3.9004541410637943  10.69489500317661 5.310064302097284  9.866588819534021 6.655602055164718  C 9.038282635891434 8.001140285614937  8.161252701454695 9.138444622323837  7.235498532195402 10.067506472401273  C 7.154292119529016 9.95537832631232  7.040602560961994 9.82722921393514  6.894430824551137 9.683064386480373  C 6.764500661090598 9.522881457034094  6.626450437197499 9.362695185908315  6.480278700786643 9.202511779079249  C 6.334106964375787 9.04232884963297  6.204175832858447 8.914187375380362  6.090486758319826 8.818077331282922  C 6.983758265706883 8.00114362729444  7.803944388916911 6.991988402962719  8.551044159893111 5.790614999967265  Z M 9.988398438533602 9.514872883421123  L 9.988398438533602 8.241414202401572  L 19.099766458602065 8.241414202401572  L 19.099766458602065 9.514872883421123  L 9.988398438533602 9.514872883421123  Z M 9.988398438533602 12.782607699375056  L 9.988398438533602 11.509149018355503  L 19.099766458602065 11.509149018355503  L 19.099766458602065 12.782607699375056  L 9.988398438533602 12.782607699375056  Z M 9.842226702122746 16  L 9.842226702122746 14.872994355789663  L 19.95243475965593 14.872994355789663  L 19.95243475965593 16  L 9.842226702122746 16  Z M 13.61832876333694 15.834091932467338  L 13.61832876333694 5.766585460066066  L 15 5.766585460066066  L 15 15.834091932467338  L 13.61832876333694 15.834091932467338  Z M 0 21  L 0 0  L 20.36658881953402 0  L 20.36658881953402 2  L 2 2  L 2 21  L 0 21  Z M 1.1937352826555292 19.822651840460676  L 1.1937352826555292 18  L 21 18  L 21 19.822651840460676  L 1.1937352826555292 19.822651840460676  Z " fill-rule="nonzero" fill="rgba(0, 0, 0, 1)" stroke="none" transform="matrix(1 0 0 1 142 582 )" class="fill" />
    <path d="M 9.939675171767849 4.949657484671011  L 10.475636914531925 4.949657484671011  L 19.660091286834216 4.949657484671011  L 19.660091286834216 6.343248588947415  L 10.475636914531925 6.343248588947415  L 10.475636914531925 17.107550613486893  L 9 17.107550613486893  L 9 6.126998006085767  L 9.939675171767849 4.949657484671011  Z " stroke-width="0" stroke-dasharray="0" stroke="rgba(121, 121, 121, 1)" fill="none" transform="matrix(1 0 0 1 142 582 )" class="stroke" mask="url(#Clip4849)" />
    <path d="M 14.154291474157816 3.9645303680921344  C 14.414152769135693 3.3077795935499315  14.617168800801661 2.723112664883468  14.76334053721252 2.21052671779603  C 14.76334053721252 2.21052671779603  16.468677139320246 2.6670421471713843  16.468677139320246 2.6670421471713843  C 16.208815844342368 3.2597195589819616  15.932712492385773 3.860409363467796  15.640369019564059 4.469104877269887  C 15.348025546742345 5.07780134583755  15.071925098956148 5.598393957006816  14.81206477203507 6.030887484605542  C 14.81206477203507 6.030887484605542  13.399070674692258 5.646453036809214  13.399070674692258 5.646453036809214  C 13.642690880748217 5.181922350461888  13.894431147236737 4.621281142634339  14.154291474157816 3.9645303680921344  Z " stroke-width="0" stroke-dasharray="0" stroke="rgba(121, 121, 121, 1)" fill="none" transform="matrix(1 0 0 1 142 582 )" class="stroke" mask="url(#Clip4849)" />
    <path d="M 4.238979387858041 17.13158015338809  C 4.238979387858041 17.13158015338809  2.972157268940285 16.05034251532899  2.972157268940285 16.05034251532899  C 3.3944311472367374 15.441646762835504  3.865428776327342 14.69679332435187  4.385150156212099 13.81578625763176  C 4.921113351061373 12.918760850228743  5.4245934000100124 12.037754499582812  5.895590787086418 11.172766012237004  C 5.895590787086418 11.172766012237004  6.9918792941962415 12.18192266871708  6.9918792941962415 12.18192266871708  C 6.585846746835906 12.982838032022656  6.139210509113978 13.823795786010301  5.651971549087256 14.704802852730413  C 5.180973677982451 15.585809919450522  4.7099767749344466 16.394738033468442  4.238979387858041 17.13158015338809  Z " stroke-width="0" stroke-dasharray="0" stroke="rgba(121, 121, 121, 1)" fill="none" transform="matrix(1 0 0 1 142 582 )" class="stroke" mask="url(#Clip4849)" />
    <path d="M 3.727378068405844 8.337524723881796  C 3.1102087029043823 7.953085024874826  2.5092806683390387 7.632720120747838  1.924593964709812 7.37642714720412  C 1.924593964709812 7.37642714720412  2.899071884763256 6.343248588947415  2.899071884763256 6.343248588947415  C 3.4837585883924826 6.567504881125321  4.0846863809436265 6.855832626503711  4.701855746445088 7.208235644144868  C 5.31902486993235 7.560638661786027  5.806264313987471 7.897026441732385  6.163573110553654 8.217392300624944  C 6.163573110553654 8.217392300624944  5.164733073088934 9.370710920263072  5.164733073088934 9.370710920263072  C 4.823665849473068 9.050345061370512  4.344547433907305 8.705945843514469  3.727378068405844 8.337524723881796  Z " stroke-width="0" stroke-dasharray="0" stroke="rgba(121, 121, 121, 1)" fill="none" transform="matrix(1 0 0 1 142 582 )" class="stroke" mask="url(#Clip4849)" />
    <path d="M 4.969837101855525 4.2288323926316105  C 4.385150156212099 3.844393171007425  3.808584481072231 3.5240273121148658  3.240139108379122 3.2677348159539323  C 3.240139108379122 3.2677348159539323  4.238979387858041 2.2585781594738568  4.238979387858041 2.2585781594738568  C 4.791183671629233 2.498853508408848  5.367749104754901 2.803203174841036  5.968677139320245 3.1716242944737076  C 6.569605173885589 3.5400454141063795  7.032482500529435 3.884436993837852  7.357308151194983 4.2048028527304115  C 7.357308151194983 4.2048028527304115  6.30974484696451 5.310070030690712  6.30974484696451 5.310070030690712  C 6.00115980119248 4.973685115041068  5.5545235634705525 4.613271614255796  4.969837101855525 4.2288323926316105  Z " stroke-width="0" stroke-dasharray="0" stroke="rgba(121, 121, 121, 1)" fill="none" transform="matrix(1 0 0 1 142 582 )" class="stroke" mask="url(#Clip4849)" />
    <path d="M 8.551044159893111 5.790614999967265  C 9.31438501979123 4.589242074354597  9.931554627306891 3.3318072239199874  10.402552498411696 2.01830567483558  C 10.402552498411696 2.01830567483558  11.93735427864049 2.4267696625331077  11.93735427864049 2.4267696625331077  C 11.385150478897698 3.9004541410637943  10.69489500317661 5.310064302097284  9.866588819534021 6.655602055164718  C 9.038282635891434 8.001140285614937  8.161252701454695 9.138444622323837  7.235498532195402 10.067506472401273  C 7.154292119529016 9.95537832631232  7.040602560961994 9.82722921393514  6.894430824551137 9.683064386480373  C 6.764500661090598 9.522881457034094  6.626450437197499 9.362695185908315  6.480278700786643 9.202511779079249  C 6.334106964375787 9.04232884963297  6.204175832858447 8.914187375380362  6.090486758319826 8.818077331282922  C 6.983758265706883 8.00114362729444  7.803944388916911 6.991988402962719  8.551044159893111 5.790614999967265  Z " stroke-width="0" stroke-dasharray="0" stroke="rgba(121, 121, 121, 1)" fill="none" transform="matrix(1 0 0 1 142 582 )" class="stroke" mask="url(#Clip4849)" />
    <path d="M 9.988398438533602 9.514872883421123  L 9.988398438533602 8.241414202401572  L 19.099766458602065 8.241414202401572  L 19.099766458602065 9.514872883421123  L 9.988398438533602 9.514872883421123  Z " stroke-width="0" stroke-dasharray="0" stroke="rgba(121, 121, 121, 1)" fill="none" transform="matrix(1 0 0 1 142 582 )" class="stroke" mask="url(#Clip4849)" />
    <path d="M 9.988398438533602 12.782607699375056  L 9.988398438533602 11.509149018355503  L 19.099766458602065 11.509149018355503  L 19.099766458602065 12.782607699375056  L 9.988398438533602 12.782607699375056  Z " stroke-width="0" stroke-dasharray="0" stroke="rgba(121, 121, 121, 1)" fill="none" transform="matrix(1 0 0 1 142 582 )" class="stroke" mask="url(#Clip4849)" />
    <path d="M 9.842226702122746 16  L 9.842226702122746 14.872994355789663  L 19.95243475965593 14.872994355789663  L 19.95243475965593 16  L 9.842226702122746 16  Z " stroke-width="0" stroke-dasharray="0" stroke="rgba(121, 121, 121, 1)" fill="none" transform="matrix(1 0 0 1 142 582 )" class="stroke" mask="url(#Clip4849)" />
    <path d="M 13.61832876333694 15.834091932467338  L 13.61832876333694 5.766585460066066  L 15 5.766585460066066  L 15 15.834091932467338  L 13.61832876333694 15.834091932467338  Z " stroke-width="0" stroke-dasharray="0" stroke="rgba(121, 121, 121, 1)" fill="none" transform="matrix(1 0 0 1 142 582 )" class="stroke" mask="url(#Clip4849)" />
    <path d="M 0 21  L 0 0  L 20.36658881953402 0  L 20.36658881953402 2  L 2 2  L 2 21  L 0 21  Z " stroke-width="0" stroke-dasharray="0" stroke="rgba(121, 121, 121, 1)" fill="none" transform="matrix(1 0 0 1 142 582 )" class="stroke" mask="url(#Clip4849)" />
    <path d="M 1.1937352826555292 19.822651840460676  L 1.1937352826555292 18  L 21 18  L 21 19.822651840460676  L 1.1937352826555292 19.822651840460676  Z " stroke-width="0" stroke-dasharray="0" stroke="rgba(121, 121, 121, 1)" fill="none" transform="matrix(1 0 0 1 142 582 )" class="stroke" mask="url(#Clip4849)" />
  </g>
</svg>