<?xml version="1.0" encoding="utf-8"?>
<svg version="1.1" xmlns:xlink="http://www.w3.org/1999/xlink" width="5px" height="8px" xmlns="http://www.w3.org/2000/svg">
  <defs>
    <pattern id="BGPattern" patternUnits="userSpaceOnUse" alignment="0 0" imageRepeat="None" />
    <mask fill="white" id="Clip4839">
      <path d="M 3.7948550748263834 5.964914824615951  C 2.991440153157706 6.884992782377289  1.9145367876006651 7.563352764679474  0.5641159401388934 8  C 0.5641159401388934 8  0 6.760230852385905  0 6.760230852385905  C 1.0427299505232956 6.370367307515344  1.8376245068631605 5.871346398020521  2.3846304326562553 5.263159264536794  C 2.948730070750872 4.654972131053066  3.230771738776043 3.906433374324597  3.230771738776043 3.017544446706245  C 3.230771738776043 3.017544446706245  2.7692282612239576 1.0526333401187353  2.7692282612239576 1.0526333401187353  C 2.7692282612239576 1.0526333401187353  4.15382608979166 2.830408639210886  4.15382608979166 2.830408639210886  C 3.965792707280493 3.033137741799656  3.7521447377001076 3.173487738406955  3.512829708845489 3.2514604880470035  C 3.273514679990871 3.3138385483329755  3.0341701036810016 3.345028391794683  2.7948550748263834 3.345028391794683  C 2.264943116054253 3.345028391794683  1.8119831742525514 3.2046782789989954  1.4359166639496592 2.9239765429585654  C 1.0598501536467673 2.6432748069181353  0.8718007238107659 2.230016294259643  0.8718007238107659 1.6842073953444707  C 0.8718007238107659 1.1228036908868335  1.0598501536467673 0.7017534686881587  1.4359166639496592 0.4210518488361177  C 1.8290771412735158 0.14034999660729905  2.2906027884646734 0  2.8205144925173613 0  C 3.5384595790812168 0  4.076911007140295 0.2495103821296681  4.435884059861107 0.7485357939245556  C 4.811950315444557 1.2319666325537557  5 1.8791443236395038  5 2.690060501617807  C 5 3.9532184880823245  4.598269741775619 5.044836866854613  3.7948550748263834 5.964914824615951  Z " fill-rule="evenodd" />
    </mask>
  </defs>
  <g transform="matrix(1 0 0 1 -407 -595 )">
    <path d="M 3.7948550748263834 5.964914824615951  C 2.991440153157706 6.884992782377289  1.9145367876006651 7.563352764679474  0.5641159401388934 8  C 0.5641159401388934 8  0 6.760230852385905  0 6.760230852385905  C 1.0427299505232956 6.370367307515344  1.8376245068631605 5.871346398020521  2.3846304326562553 5.263159264536794  C 2.948730070750872 4.654972131053066  3.230771738776043 3.906433374324597  3.230771738776043 3.017544446706245  C 3.230771738776043 3.017544446706245  2.7692282612239576 1.0526333401187353  2.7692282612239576 1.0526333401187353  C 2.7692282612239576 1.0526333401187353  4.15382608979166 2.830408639210886  4.15382608979166 2.830408639210886  C 3.965792707280493 3.033137741799656  3.7521447377001076 3.173487738406955  3.512829708845489 3.2514604880470035  C 3.273514679990871 3.3138385483329755  3.0341701036810016 3.345028391794683  2.7948550748263834 3.345028391794683  C 2.264943116054253 3.345028391794683  1.8119831742525514 3.2046782789989954  1.4359166639496592 2.9239765429585654  C 1.0598501536467673 2.6432748069181353  0.8718007238107659 2.230016294259643  0.8718007238107659 1.6842073953444707  C 0.8718007238107659 1.1228036908868335  1.0598501536467673 0.7017534686881587  1.4359166639496592 0.4210518488361177  C 1.8290771412735158 0.14034999660729905  2.2906027884646734 0  2.8205144925173613 0  C 3.5384595790812168 0  4.076911007140295 0.2495103821296681  4.435884059861107 0.7485357939245556  C 4.811950315444557 1.2319666325537557  5 1.8791443236395038  5 2.690060501617807  C 5 3.9532184880823245  4.598269741775619 5.044836866854613  3.7948550748263834 5.964914824615951  Z " fill-rule="nonzero" fill="rgba(0, 0, 0, 1)" stroke="none" transform="matrix(1 0 0 1 407 595 )" class="fill" />
    <path d="M 3.7948550748263834 5.964914824615951  C 2.991440153157706 6.884992782377289  1.9145367876006651 7.563352764679474  0.5641159401388934 8  C 0.5641159401388934 8  0 6.760230852385905  0 6.760230852385905  C 1.0427299505232956 6.370367307515344  1.8376245068631605 5.871346398020521  2.3846304326562553 5.263159264536794  C 2.948730070750872 4.654972131053066  3.230771738776043 3.906433374324597  3.230771738776043 3.017544446706245  C 3.230771738776043 3.017544446706245  2.7692282612239576 1.0526333401187353  2.7692282612239576 1.0526333401187353  C 2.7692282612239576 1.0526333401187353  4.15382608979166 2.830408639210886  4.15382608979166 2.830408639210886  C 3.965792707280493 3.033137741799656  3.7521447377001076 3.173487738406955  3.512829708845489 3.2514604880470035  C 3.273514679990871 3.3138385483329755  3.0341701036810016 3.345028391794683  2.7948550748263834 3.345028391794683  C 2.264943116054253 3.345028391794683  1.8119831742525514 3.2046782789989954  1.4359166639496592 2.9239765429585654  C 1.0598501536467673 2.6432748069181353  0.8718007238107659 2.230016294259643  0.8718007238107659 1.6842073953444707  C 0.8718007238107659 1.1228036908868335  1.0598501536467673 0.7017534686881587  1.4359166639496592 0.4210518488361177  C 1.8290771412735158 0.14034999660729905  2.2906027884646734 0  2.8205144925173613 0  C 3.5384595790812168 0  4.076911007140295 0.2495103821296681  4.435884059861107 0.7485357939245556  C 4.811950315444557 1.2319666325537557  5 1.8791443236395038  5 2.690060501617807  C 5 3.9532184880823245  4.598269741775619 5.044836866854613  3.7948550748263834 5.964914824615951  Z " stroke-width="0" stroke-dasharray="0" stroke="rgba(121, 121, 121, 1)" fill="none" transform="matrix(1 0 0 1 407 595 )" class="stroke" mask="url(#Clip4839)" />
  </g>
</svg>