<?xml version="1.0" encoding="utf-8"?>
<svg version="1.1" xmlns:xlink="http://www.w3.org/1999/xlink" width="12px" height="17px" xmlns="http://www.w3.org/2000/svg">
  <defs>
    <pattern id="BGPattern" patternUnits="userSpaceOnUse" alignment="0 0" imageRepeat="None" />
    <mask fill="white" id="Clip4853">
      <path d="M 9.153375892241884 8.261236200242124  C 10.822089081169633 8.858146411209066  12 10.266853825981684  12 12.296348021449635  C 12 15.376404169244138  9.889556625667963 17  6.797529676387606 17  C 6.797529676387606 17  0 17  0 17  L 0 0  C 0 0  6.576667143395785 0  6.576667143395785 0  C 9.619614206961112 0  11.730053437000247 1.695225539941025  11.730053437000247 4.536517887977655  C 11.730053437000247 6.327247809306226  10.62576953830952 7.735955698460347  9.153375892241884 8.261236200242124  Z M 6.6257511734037156 15.37640464362564  C 8.78526175679014 15.37640464362564  10.134962880137298 14.158707414772618  10.134962880137298 12.248594881992856  C 10.134962880137298 10.338482704999223  8.78526175679014 9.144663587614469  6.6257511734037156 9.144663587614469  C 6.6257511734037156 9.144663587614469  1.8650059157749665 9.144663587614469  1.8650059157749665 9.144663587614469  L 1.8650059157749665 15.37640464362564  C 1.8650059157749665 15.37640464362564  6.6257511734037156 15.37640464362564  6.6257511734037156 15.37640464362564  Z M 6.429446257459727 7.5210682312401085  C 8.368098452147231 7.5210682312401085  9.865016317137545 6.589886992838737  9.865016317137545 4.560392560180038  C 9.865016317137545 2.53089883909359  8.368098452147231 1.6235953563743593  6.429446257459727 1.6235953563743593  C 6.429446257459727 1.6235953563743593  1.8650059157749665 1.6235953563743593  1.8650059157749665 1.6235953563743593  L 1.8650059157749665 7.5210682312401085  C 1.8650059157749665 7.5210682312401085  6.429446257459727 7.5210682312401085  6.429446257459727 7.5210682312401085  Z " fill-rule="evenodd" />
    </mask>
  </defs>
  <g transform="matrix(1 0 0 1 -545 -522 )">
    <path d="M 9.153375892241884 8.261236200242124  C 10.822089081169633 8.858146411209066  12 10.266853825981684  12 12.296348021449635  C 12 15.376404169244138  9.889556625667963 17  6.797529676387606 17  C 6.797529676387606 17  0 17  0 17  L 0 0  C 0 0  6.576667143395785 0  6.576667143395785 0  C 9.619614206961112 0  11.730053437000247 1.695225539941025  11.730053437000247 4.536517887977655  C 11.730053437000247 6.327247809306226  10.62576953830952 7.735955698460347  9.153375892241884 8.261236200242124  Z M 6.6257511734037156 15.37640464362564  C 8.78526175679014 15.37640464362564  10.134962880137298 14.158707414772618  10.134962880137298 12.248594881992856  C 10.134962880137298 10.338482704999223  8.78526175679014 9.144663587614469  6.6257511734037156 9.144663587614469  C 6.6257511734037156 9.144663587614469  1.8650059157749665 9.144663587614469  1.8650059157749665 9.144663587614469  L 1.8650059157749665 15.37640464362564  C 1.8650059157749665 15.37640464362564  6.6257511734037156 15.37640464362564  6.6257511734037156 15.37640464362564  Z M 6.429446257459727 7.5210682312401085  C 8.368098452147231 7.5210682312401085  9.865016317137545 6.589886992838737  9.865016317137545 4.560392560180038  C 9.865016317137545 2.53089883909359  8.368098452147231 1.6235953563743593  6.429446257459727 1.6235953563743593  C 6.429446257459727 1.6235953563743593  1.8650059157749665 1.6235953563743593  1.8650059157749665 1.6235953563743593  L 1.8650059157749665 7.5210682312401085  C 1.8650059157749665 7.5210682312401085  6.429446257459727 7.5210682312401085  6.429446257459727 7.5210682312401085  Z " fill-rule="nonzero" fill="rgba(0, 0, 0, 1)" stroke="none" transform="matrix(1 0 0 1 545 522 )" class="fill" />
    <path d="M 9.153375892241884 8.261236200242124  C 10.822089081169633 8.858146411209066  12 10.266853825981684  12 12.296348021449635  C 12 15.376404169244138  9.889556625667963 17  6.797529676387606 17  C 6.797529676387606 17  0 17  0 17  L 0 0  C 0 0  6.576667143395785 0  6.576667143395785 0  C 9.619614206961112 0  11.730053437000247 1.695225539941025  11.730053437000247 4.536517887977655  C 11.730053437000247 6.327247809306226  10.62576953830952 7.735955698460347  9.153375892241884 8.261236200242124  Z " stroke-width="0" stroke-dasharray="0" stroke="rgba(121, 121, 121, 1)" fill="none" transform="matrix(1 0 0 1 545 522 )" class="stroke" mask="url(#Clip4853)" />
    <path d="M 6.6257511734037156 15.37640464362564  C 8.78526175679014 15.37640464362564  10.134962880137298 14.158707414772618  10.134962880137298 12.248594881992856  C 10.134962880137298 10.338482704999223  8.78526175679014 9.144663587614469  6.6257511734037156 9.144663587614469  C 6.6257511734037156 9.144663587614469  1.8650059157749665 9.144663587614469  1.8650059157749665 9.144663587614469  L 1.8650059157749665 15.37640464362564  C 1.8650059157749665 15.37640464362564  6.6257511734037156 15.37640464362564  6.6257511734037156 15.37640464362564  Z " stroke-width="0" stroke-dasharray="0" stroke="rgba(121, 121, 121, 1)" fill="none" transform="matrix(1 0 0 1 545 522 )" class="stroke" mask="url(#Clip4853)" />
    <path d="M 6.429446257459727 7.5210682312401085  C 8.368098452147231 7.5210682312401085  9.865016317137545 6.589886992838737  9.865016317137545 4.560392560180038  C 9.865016317137545 2.53089883909359  8.368098452147231 1.6235953563743593  6.429446257459727 1.6235953563743593  C 6.429446257459727 1.6235953563743593  1.8650059157749665 1.6235953563743593  1.8650059157749665 1.6235953563743593  L 1.8650059157749665 7.5210682312401085  C 1.8650059157749665 7.5210682312401085  6.429446257459727 7.5210682312401085  6.429446257459727 7.5210682312401085  Z " stroke-width="0" stroke-dasharray="0" stroke="rgba(121, 121, 121, 1)" fill="none" transform="matrix(1 0 0 1 545 522 )" class="stroke" mask="url(#Clip4853)" />
  </g>
</svg>