<?xml version="1.0" encoding="utf-8"?>
<svg version="1.1" xmlns:xlink="http://www.w3.org/1999/xlink" width="22px" height="22px" xmlns="http://www.w3.org/2000/svg">
  <defs>
    <pattern id="BGPattern" patternUnits="userSpaceOnUse" alignment="0 0" imageRepeat="None" />
    <mask fill="white" id="Clip4830">
      <path d="M 3.108688380938691 9.231929055687582  L 3.108688380938691 8  L 22 8  L 22 9.231929055687582  L 3.108688380938691 9.231929055687582  Z M 1.8652251913566766 3.3937423056215685  L 1.8652251913566766 2  L 20.80433658872343 2  L 20.80433658872343 3.3937423056215685  L 1.8652251913566766 3.3937423056215685  Z M 7.4369400623066735 13  L 7.4369400623066735 11.676373500132026  L 20.445655809530656 11.676373500132026  L 20.445655809530656 13  L 7.4369400623066735 13  Z M 6.910868838093869 17  L 6.910868838093869 15.5210339872912  L 19.87169358606144 15.5210339872912  L 19.87169358606144 17  L 6.910868838093869 17  Z M 4.758692941986239 21  L 4.758692941986239 19.816612655987985  L 21.808679258843593 19.816612655987985  L 21.808679258843593 21  L 4.758692941986239 21  Z M 10.258708145478067 2.966558645309301  L 10.258708145478067 0  L 12.052172855409264 0  L 12.052172855409264 2.966558645309301  L 10.258708145478067 2.966558645309301  Z M 12 20.43365739740543  L 12 9.754043256552439  L 14 9.754043256552439  L 14 20.43365739740543  L 12 20.43365739740543  Z M 2.2000060813967313 11.581442959579435  C 2.2000060813967313 11.581442959579435  2.2000060813967313 7.7605169936456  2.2000060813967313 7.7605169936456  L 3.945640606038827 7.7605169936456  C 3.945640606038827 7.7605169936456  3.945640606038827 11.605177480804777  3.945640606038827 11.605177480804777  C 3.945640606038827 12.348795176074812  3.9137484312760704 13.171522676769236  3.8499802354606243 14.07335644647456  C 3.7862122771997377 14.959368538008086  3.6586735100232475 15.86911538652785  3.4673691601314687 16.802592512576773  C 3.292007096748111 17.736069756506144  3.0369597318242256 18.65372166796978  2.7021774164568124 19.555555555555554  C 2.3833369124887014 20.44156776496953  1.9528821112605352 21.256382540490865  1.4108536346020415 22  C 1.3311435086100138 21.88924837067786  1.2036047414335234 21.754767288989708  1.028242559272886 21.596550860913073  C 0.8528803771122487 21.454156052068008  0.6695452700382022 21.311762009445868  0.47824103892370334 21.169367200600803  C 0.30287885676306603 21.042794010987315  0.14347814364155417 20.94786217374978  0 20.884575578943036  C 0.6536227599468845 19.951098452894115  1.1318855945014499 18.938514586312493  1.4347839307384196 17.846820914306488  C 1.7536241971519715 16.739305682009128  1.9608633505835376 15.647608119948288  2.056515525529427 14.571736126114077  C 2.152167581698037 13.480042689868966  2.2000060813967313 12.483276965045661  2.2000060813967313 11.581442959579435  Z M 6.408697503033787 12.293418241549471  C 6.93478393073842 11.454870948770441  7.365178155553836 10.584681242691412  7.699960470921249 9.68284723722519  C 7.699960470921249 9.68284723722519  9.278265364510627 10.062569399435546  9.278265364510627 10.062569399435546  C 8.911598951235492 11.07515491634346  8.441293659936587 12.048182112006145  7.867381322924931 12.981659002294167  C 7.293468510804154 13.915136364103988  6.687666849684458 14.706219801172116  6.049986316857355 15.354907427411362  C 5.9543340231341855 15.25997735838057  5.818837653313394 15.157140340318714  5.643475352375476 15.046388828877024  C 5.468113051437559 14.919815639263536  5.292735784562375 14.801152699333697  5.117373721179017 14.690401187892006  C 4.957953706749521 14.579649676450314  4.806510774438231 14.48471772133233  4.663032571408037 14.405609566234238  C 5.3007133417897 13.82020841692129  5.882611075329156 13.116143620395803  6.408697503033787 12.293418241549471  Z M 8.441282732426837 5.0312809275433885  C 7.405051688416874 4.730669749561913  6.400718045369985 4.469612649129485  5.428254722066348 4.248109626246103  C 5.428254722066348 4.248109626246103  6.576087948053814 3.2988117650689794  6.576087948053814 3.2988117650689794  C 7.5166671734497275 3.520314787952361  8.50505472911524 3.7813718883847893  9.541285773125201 4.081983066366265  C 10.577516817135164 4.382595187391336  11.597827429656208 4.699026864740114  12.602174375758448 5.0312809275433885  C 13.622463608369108 5.363535933390259  14.58694747400894 5.695793768367918  15.49564212638801 6.028047831171191  C 16.40433772898532 6.344481394607163  17.193443615086288 6.645095401719425  17.863008245821113 6.929884194246405  C 17.863008245821113 6.929884194246405  16.739105315970026 7.9503780747507795  16.739105315970026 7.9503780747507795  C 16.0854824966345 7.665588339180204  15.312291815822137 7.357069740645865  14.419538974842368 7.024814734798994  C 13.526786133862599 6.67673922958482  12.570260345976187 6.3365683157927215  11.549971113365528 6.004313309945852  C 10.529681880754868 5.6562368616880825  9.49345606294522 5.331892105524864  8.441282732426837 5.0312809275433885  Z M 13.558656453605854 4.176913606918854  C 14.451409294585623 3.7813728314283854  15.184749722881808 3.3700087274398256  15.758662535002584 2.9428241240839617  C 15.758662535002584 2.9428241240839617  17.049986316857353 3.6310648848286577  17.049986316857353 3.6310648848286577  C 16.34853711310569 4.121536200871715  15.527539052241963 4.588274881776625  14.58695982684605 5.0312809275433885  C 13.646380601450137 5.458465530899252  12.634027591573394 5.8540110216077  11.549971113365528 6.2179089122763695  C 10.481855496338722 6.581806802945039  9.389863745615175 6.906151559108259  8.273922694390464 7.190941294678835  C 7.173923454565055 7.475731030249409  6.097816739701016 7.7130573816308825  5.045643646737192 7.9029165766488685  C 4.981875450921746 7.744700266452681  4.878240848880056 7.554836356216716  4.7347626458498615 7.333333333333333  C 4.591284680374227 7.0960088680390525  4.463745675643176 6.906152502151855  4.352151570520706 6.763757634366566  C 5.340556705223643 6.589719881759479  6.376782998142409 6.376125222472558  7.460839951459397 6.122978371723781  C 8.560839191284806 5.854010078564104  9.628957658966328 5.561309150266281  10.665188702976291 5.244876529873906  C 11.717362033494675 4.912621524027037  12.681845424025388 4.556632939998423  13.558656453605854 4.176913606918854  Z " fill-rule="evenodd" />
    </mask>
  </defs>
  <g transform="matrix(1 0 0 1 -645 -581 )">
    <path d="M 3.108688380938691 9.231929055687582  L 3.108688380938691 8  L 22 8  L 22 9.231929055687582  L 3.108688380938691 9.231929055687582  Z M 1.8652251913566766 3.3937423056215685  L 1.8652251913566766 2  L 20.80433658872343 2  L 20.80433658872343 3.3937423056215685  L 1.8652251913566766 3.3937423056215685  Z M 7.4369400623066735 13  L 7.4369400623066735 11.676373500132026  L 20.445655809530656 11.676373500132026  L 20.445655809530656 13  L 7.4369400623066735 13  Z M 6.910868838093869 17  L 6.910868838093869 15.5210339872912  L 19.87169358606144 15.5210339872912  L 19.87169358606144 17  L 6.910868838093869 17  Z M 4.758692941986239 21  L 4.758692941986239 19.816612655987985  L 21.808679258843593 19.816612655987985  L 21.808679258843593 21  L 4.758692941986239 21  Z M 10.258708145478067 2.966558645309301  L 10.258708145478067 0  L 12.052172855409264 0  L 12.052172855409264 2.966558645309301  L 10.258708145478067 2.966558645309301  Z M 12 20.43365739740543  L 12 9.754043256552439  L 14 9.754043256552439  L 14 20.43365739740543  L 12 20.43365739740543  Z M 2.2000060813967313 11.581442959579435  C 2.2000060813967313 11.581442959579435  2.2000060813967313 7.7605169936456  2.2000060813967313 7.7605169936456  L 3.945640606038827 7.7605169936456  C 3.945640606038827 7.7605169936456  3.945640606038827 11.605177480804777  3.945640606038827 11.605177480804777  C 3.945640606038827 12.348795176074812  3.9137484312760704 13.171522676769236  3.8499802354606243 14.07335644647456  C 3.7862122771997377 14.959368538008086  3.6586735100232475 15.86911538652785  3.4673691601314687 16.802592512576773  C 3.292007096748111 17.736069756506144  3.0369597318242256 18.65372166796978  2.7021774164568124 19.555555555555554  C 2.3833369124887014 20.44156776496953  1.9528821112605352 21.256382540490865  1.4108536346020415 22  C 1.3311435086100138 21.88924837067786  1.2036047414335234 21.754767288989708  1.028242559272886 21.596550860913073  C 0.8528803771122487 21.454156052068008  0.6695452700382022 21.311762009445868  0.47824103892370334 21.169367200600803  C 0.30287885676306603 21.042794010987315  0.14347814364155417 20.94786217374978  0 20.884575578943036  C 0.6536227599468845 19.951098452894115  1.1318855945014499 18.938514586312493  1.4347839307384196 17.846820914306488  C 1.7536241971519715 16.739305682009128  1.9608633505835376 15.647608119948288  2.056515525529427 14.571736126114077  C 2.152167581698037 13.480042689868966  2.2000060813967313 12.483276965045661  2.2000060813967313 11.581442959579435  Z M 6.408697503033787 12.293418241549471  C 6.93478393073842 11.454870948770441  7.365178155553836 10.584681242691412  7.699960470921249 9.68284723722519  C 7.699960470921249 9.68284723722519  9.278265364510627 10.062569399435546  9.278265364510627 10.062569399435546  C 8.911598951235492 11.07515491634346  8.441293659936587 12.048182112006145  7.867381322924931 12.981659002294167  C 7.293468510804154 13.915136364103988  6.687666849684458 14.706219801172116  6.049986316857355 15.354907427411362  C 5.9543340231341855 15.25997735838057  5.818837653313394 15.157140340318714  5.643475352375476 15.046388828877024  C 5.468113051437559 14.919815639263536  5.292735784562375 14.801152699333697  5.117373721179017 14.690401187892006  C 4.957953706749521 14.579649676450314  4.806510774438231 14.48471772133233  4.663032571408037 14.405609566234238  C 5.3007133417897 13.82020841692129  5.882611075329156 13.116143620395803  6.408697503033787 12.293418241549471  Z M 8.441282732426837 5.0312809275433885  C 7.405051688416874 4.730669749561913  6.400718045369985 4.469612649129485  5.428254722066348 4.248109626246103  C 5.428254722066348 4.248109626246103  6.576087948053814 3.2988117650689794  6.576087948053814 3.2988117650689794  C 7.5166671734497275 3.520314787952361  8.50505472911524 3.7813718883847893  9.541285773125201 4.081983066366265  C 10.577516817135164 4.382595187391336  11.597827429656208 4.699026864740114  12.602174375758448 5.0312809275433885  C 13.622463608369108 5.363535933390259  14.58694747400894 5.695793768367918  15.49564212638801 6.028047831171191  C 16.40433772898532 6.344481394607163  17.193443615086288 6.645095401719425  17.863008245821113 6.929884194246405  C 17.863008245821113 6.929884194246405  16.739105315970026 7.9503780747507795  16.739105315970026 7.9503780747507795  C 16.0854824966345 7.665588339180204  15.312291815822137 7.357069740645865  14.419538974842368 7.024814734798994  C 13.526786133862599 6.67673922958482  12.570260345976187 6.3365683157927215  11.549971113365528 6.004313309945852  C 10.529681880754868 5.6562368616880825  9.49345606294522 5.331892105524864  8.441282732426837 5.0312809275433885  Z M 13.558656453605854 4.176913606918854  C 14.451409294585623 3.7813728314283854  15.184749722881808 3.3700087274398256  15.758662535002584 2.9428241240839617  C 15.758662535002584 2.9428241240839617  17.049986316857353 3.6310648848286577  17.049986316857353 3.6310648848286577  C 16.34853711310569 4.121536200871715  15.527539052241963 4.588274881776625  14.58695982684605 5.0312809275433885  C 13.646380601450137 5.458465530899252  12.634027591573394 5.8540110216077  11.549971113365528 6.2179089122763695  C 10.481855496338722 6.581806802945039  9.389863745615175 6.906151559108259  8.273922694390464 7.190941294678835  C 7.173923454565055 7.475731030249409  6.097816739701016 7.7130573816308825  5.045643646737192 7.9029165766488685  C 4.981875450921746 7.744700266452681  4.878240848880056 7.554836356216716  4.7347626458498615 7.333333333333333  C 4.591284680374227 7.0960088680390525  4.463745675643176 6.906152502151855  4.352151570520706 6.763757634366566  C 5.340556705223643 6.589719881759479  6.376782998142409 6.376125222472558  7.460839951459397 6.122978371723781  C 8.560839191284806 5.854010078564104  9.628957658966328 5.561309150266281  10.665188702976291 5.244876529873906  C 11.717362033494675 4.912621524027037  12.681845424025388 4.556632939998423  13.558656453605854 4.176913606918854  Z " fill-rule="nonzero" fill="rgba(0, 0, 0, 1)" stroke="none" transform="matrix(1 0 0 1 645 581 )" class="fill" />
    <path d="M 3.108688380938691 9.231929055687582  L 3.108688380938691 8  L 22 8  L 22 9.231929055687582  L 3.108688380938691 9.231929055687582  Z " stroke-width="0" stroke-dasharray="0" stroke="rgba(121, 121, 121, 1)" fill="none" transform="matrix(1 0 0 1 645 581 )" class="stroke" mask="url(#Clip4830)" />
    <path d="M 1.8652251913566766 3.3937423056215685  L 1.8652251913566766 2  L 20.80433658872343 2  L 20.80433658872343 3.3937423056215685  L 1.8652251913566766 3.3937423056215685  Z " stroke-width="0" stroke-dasharray="0" stroke="rgba(121, 121, 121, 1)" fill="none" transform="matrix(1 0 0 1 645 581 )" class="stroke" mask="url(#Clip4830)" />
    <path d="M 7.4369400623066735 13  L 7.4369400623066735 11.676373500132026  L 20.445655809530656 11.676373500132026  L 20.445655809530656 13  L 7.4369400623066735 13  Z " stroke-width="0" stroke-dasharray="0" stroke="rgba(121, 121, 121, 1)" fill="none" transform="matrix(1 0 0 1 645 581 )" class="stroke" mask="url(#Clip4830)" />
    <path d="M 6.910868838093869 17  L 6.910868838093869 15.5210339872912  L 19.87169358606144 15.5210339872912  L 19.87169358606144 17  L 6.910868838093869 17  Z " stroke-width="0" stroke-dasharray="0" stroke="rgba(121, 121, 121, 1)" fill="none" transform="matrix(1 0 0 1 645 581 )" class="stroke" mask="url(#Clip4830)" />
    <path d="M 4.758692941986239 21  L 4.758692941986239 19.816612655987985  L 21.808679258843593 19.816612655987985  L 21.808679258843593 21  L 4.758692941986239 21  Z " stroke-width="0" stroke-dasharray="0" stroke="rgba(121, 121, 121, 1)" fill="none" transform="matrix(1 0 0 1 645 581 )" class="stroke" mask="url(#Clip4830)" />
    <path d="M 10.258708145478067 2.966558645309301  L 10.258708145478067 0  L 12.052172855409264 0  L 12.052172855409264 2.966558645309301  L 10.258708145478067 2.966558645309301  Z " stroke-width="0" stroke-dasharray="0" stroke="rgba(121, 121, 121, 1)" fill="none" transform="matrix(1 0 0 1 645 581 )" class="stroke" mask="url(#Clip4830)" />
    <path d="M 12 20.43365739740543  L 12 9.754043256552439  L 14 9.754043256552439  L 14 20.43365739740543  L 12 20.43365739740543  Z " stroke-width="0" stroke-dasharray="0" stroke="rgba(121, 121, 121, 1)" fill="none" transform="matrix(1 0 0 1 645 581 )" class="stroke" mask="url(#Clip4830)" />
    <path d="M 2.2000060813967313 11.581442959579435  C 2.2000060813967313 11.581442959579435  2.2000060813967313 7.7605169936456  2.2000060813967313 7.7605169936456  L 3.945640606038827 7.7605169936456  C 3.945640606038827 7.7605169936456  3.945640606038827 11.605177480804777  3.945640606038827 11.605177480804777  C 3.945640606038827 12.348795176074812  3.9137484312760704 13.171522676769236  3.8499802354606243 14.07335644647456  C 3.7862122771997377 14.959368538008086  3.6586735100232475 15.86911538652785  3.4673691601314687 16.802592512576773  C 3.292007096748111 17.736069756506144  3.0369597318242256 18.65372166796978  2.7021774164568124 19.555555555555554  C 2.3833369124887014 20.44156776496953  1.9528821112605352 21.256382540490865  1.4108536346020415 22  C 1.3311435086100138 21.88924837067786  1.2036047414335234 21.754767288989708  1.028242559272886 21.596550860913073  C 0.8528803771122487 21.454156052068008  0.6695452700382022 21.311762009445868  0.47824103892370334 21.169367200600803  C 0.30287885676306603 21.042794010987315  0.14347814364155417 20.94786217374978  0 20.884575578943036  C 0.6536227599468845 19.951098452894115  1.1318855945014499 18.938514586312493  1.4347839307384196 17.846820914306488  C 1.7536241971519715 16.739305682009128  1.9608633505835376 15.647608119948288  2.056515525529427 14.571736126114077  C 2.152167581698037 13.480042689868966  2.2000060813967313 12.483276965045661  2.2000060813967313 11.581442959579435  Z " stroke-width="0" stroke-dasharray="0" stroke="rgba(121, 121, 121, 1)" fill="none" transform="matrix(1 0 0 1 645 581 )" class="stroke" mask="url(#Clip4830)" />
    <path d="M 6.408697503033787 12.293418241549471  C 6.93478393073842 11.454870948770441  7.365178155553836 10.584681242691412  7.699960470921249 9.68284723722519  C 7.699960470921249 9.68284723722519  9.278265364510627 10.062569399435546  9.278265364510627 10.062569399435546  C 8.911598951235492 11.07515491634346  8.441293659936587 12.048182112006145  7.867381322924931 12.981659002294167  C 7.293468510804154 13.915136364103988  6.687666849684458 14.706219801172116  6.049986316857355 15.354907427411362  C 5.9543340231341855 15.25997735838057  5.818837653313394 15.157140340318714  5.643475352375476 15.046388828877024  C 5.468113051437559 14.919815639263536  5.292735784562375 14.801152699333697  5.117373721179017 14.690401187892006  C 4.957953706749521 14.579649676450314  4.806510774438231 14.48471772133233  4.663032571408037 14.405609566234238  C 5.3007133417897 13.82020841692129  5.882611075329156 13.116143620395803  6.408697503033787 12.293418241549471  Z " stroke-width="0" stroke-dasharray="0" stroke="rgba(121, 121, 121, 1)" fill="none" transform="matrix(1 0 0 1 645 581 )" class="stroke" mask="url(#Clip4830)" />
    <path d="M 8.441282732426837 5.0312809275433885  C 7.405051688416874 4.730669749561913  6.400718045369985 4.469612649129485  5.428254722066348 4.248109626246103  C 5.428254722066348 4.248109626246103  6.576087948053814 3.2988117650689794  6.576087948053814 3.2988117650689794  C 7.5166671734497275 3.520314787952361  8.50505472911524 3.7813718883847893  9.541285773125201 4.081983066366265  C 10.577516817135164 4.382595187391336  11.597827429656208 4.699026864740114  12.602174375758448 5.0312809275433885  C 13.622463608369108 5.363535933390259  14.58694747400894 5.695793768367918  15.49564212638801 6.028047831171191  C 16.40433772898532 6.344481394607163  17.193443615086288 6.645095401719425  17.863008245821113 6.929884194246405  C 17.863008245821113 6.929884194246405  16.739105315970026 7.9503780747507795  16.739105315970026 7.9503780747507795  C 16.0854824966345 7.665588339180204  15.312291815822137 7.357069740645865  14.419538974842368 7.024814734798994  C 13.526786133862599 6.67673922958482  12.570260345976187 6.3365683157927215  11.549971113365528 6.004313309945852  C 10.529681880754868 5.6562368616880825  9.49345606294522 5.331892105524864  8.441282732426837 5.0312809275433885  Z " stroke-width="0" stroke-dasharray="0" stroke="rgba(121, 121, 121, 1)" fill="none" transform="matrix(1 0 0 1 645 581 )" class="stroke" mask="url(#Clip4830)" />
    <path d="M 13.558656453605854 4.176913606918854  C 14.451409294585623 3.7813728314283854  15.184749722881808 3.3700087274398256  15.758662535002584 2.9428241240839617  C 15.758662535002584 2.9428241240839617  17.049986316857353 3.6310648848286577  17.049986316857353 3.6310648848286577  C 16.34853711310569 4.121536200871715  15.527539052241963 4.588274881776625  14.58695982684605 5.0312809275433885  C 13.646380601450137 5.458465530899252  12.634027591573394 5.8540110216077  11.549971113365528 6.2179089122763695  C 10.481855496338722 6.581806802945039  9.389863745615175 6.906151559108259  8.273922694390464 7.190941294678835  C 7.173923454565055 7.475731030249409  6.097816739701016 7.7130573816308825  5.045643646737192 7.9029165766488685  C 4.981875450921746 7.744700266452681  4.878240848880056 7.554836356216716  4.7347626458498615 7.333333333333333  C 4.591284680374227 7.0960088680390525  4.463745675643176 6.906152502151855  4.352151570520706 6.763757634366566  C 5.340556705223643 6.589719881759479  6.376782998142409 6.376125222472558  7.460839951459397 6.122978371723781  C 8.560839191284806 5.854010078564104  9.628957658966328 5.561309150266281  10.665188702976291 5.244876529873906  C 11.717362033494675 4.912621524027037  12.681845424025388 4.556632939998423  13.558656453605854 4.176913606918854  Z " stroke-width="0" stroke-dasharray="0" stroke="rgba(121, 121, 121, 1)" fill="none" transform="matrix(1 0 0 1 645 581 )" class="stroke" mask="url(#Clip4830)" />
  </g>
</svg>