<?xml version="1.0" encoding="utf-8"?>
<svg version="1.1" xmlns:xlink="http://www.w3.org/1999/xlink" width="9px" height="17px" xmlns="http://www.w3.org/2000/svg">
  <defs>
    <pattern id="BGPattern" patternUnits="userSpaceOnUse" alignment="0 0" imageRepeat="None" />
    <mask fill="white" id="Clip4859">
      <path d="M 9 0  L 9 16.857937743759166  L 7.365733073491498 16.857937743759166  C 7.365733073491498 16.857937743759166  7.365733073491498 15.461001632403317  7.365733073491498 15.461001632403317  C 6.445016667967502 16.692199385646095  5.386191578270848 17  4.1432243965140865 17  C 2.9923283751186 17  1.9795357214940255 16.597491626434  1.3810699207059633 15.981892808614768  C 0.23017412797291661 14.798048905576957  0 12.856545986554698  0 11.033426634605977  C 0 9.210306929844291  0.23017412797291661 7.268800129879446  1.3810699207059633 6.084956697258917  C 1.9795357214940255 5.4693573502202435  2.9923283751186 5.066853269211953  4.1432243965140865 5.066853269211953  C 5.386191578270848 5.066853269211953  6.4219967627496075 5.350973077520783  7.342713168273605 6.558493788056758  C 7.342713168273605 6.558493788056758  7.342713168273605 0  7.342713168273605 0  L 9 0  Z M 4.511506294009898 15.484680556779256  C 6.974423038929933 15.484680556779256  7.342713168273605 13.30640674027166  7.342713168273605 11.033426634605977  C 7.342713168273605 8.760446528940292  6.974423038929933 6.582172712432698  4.511506294009898 6.582172712432698  C 2.048589091764981 6.582172712432698  1.6572868317263951 8.760446528940292  1.6572868317263951 11.033426634605977  C 1.6572868317263951 13.30640674027166  2.048589091764981 15.484680556779256  4.511506294009898 15.484680556779256  Z " fill-rule="evenodd" />
    </mask>
  </defs>
  <g transform="matrix(1 0 0 1 -245 -522 )">
    <path d="M 9 0  L 9 16.857937743759166  L 7.365733073491498 16.857937743759166  C 7.365733073491498 16.857937743759166  7.365733073491498 15.461001632403317  7.365733073491498 15.461001632403317  C 6.445016667967502 16.692199385646095  5.386191578270848 17  4.1432243965140865 17  C 2.9923283751186 17  1.9795357214940255 16.597491626434  1.3810699207059633 15.981892808614768  C 0.23017412797291661 14.798048905576957  0 12.856545986554698  0 11.033426634605977  C 0 9.210306929844291  0.23017412797291661 7.268800129879446  1.3810699207059633 6.084956697258917  C 1.9795357214940255 5.4693573502202435  2.9923283751186 5.066853269211953  4.1432243965140865 5.066853269211953  C 5.386191578270848 5.066853269211953  6.4219967627496075 5.350973077520783  7.342713168273605 6.558493788056758  C 7.342713168273605 6.558493788056758  7.342713168273605 0  7.342713168273605 0  L 9 0  Z M 4.511506294009898 15.484680556779256  C 6.974423038929933 15.484680556779256  7.342713168273605 13.30640674027166  7.342713168273605 11.033426634605977  C 7.342713168273605 8.760446528940292  6.974423038929933 6.582172712432698  4.511506294009898 6.582172712432698  C 2.048589091764981 6.582172712432698  1.6572868317263951 8.760446528940292  1.6572868317263951 11.033426634605977  C 1.6572868317263951 13.30640674027166  2.048589091764981 15.484680556779256  4.511506294009898 15.484680556779256  Z " fill-rule="nonzero" fill="rgba(0, 0, 0, 1)" stroke="none" transform="matrix(1 0 0 1 245 522 )" class="fill" />
    <path d="M 9 0  L 9 16.857937743759166  L 7.365733073491498 16.857937743759166  C 7.365733073491498 16.857937743759166  7.365733073491498 15.461001632403317  7.365733073491498 15.461001632403317  C 6.445016667967502 16.692199385646095  5.386191578270848 17  4.1432243965140865 17  C 2.9923283751186 17  1.9795357214940255 16.597491626434  1.3810699207059633 15.981892808614768  C 0.23017412797291661 14.798048905576957  0 12.856545986554698  0 11.033426634605977  C 0 9.210306929844291  0.23017412797291661 7.268800129879446  1.3810699207059633 6.084956697258917  C 1.9795357214940255 5.4693573502202435  2.9923283751186 5.066853269211953  4.1432243965140865 5.066853269211953  C 5.386191578270848 5.066853269211953  6.4219967627496075 5.350973077520783  7.342713168273605 6.558493788056758  C 7.342713168273605 6.558493788056758  7.342713168273605 0  7.342713168273605 0  L 9 0  Z " stroke-width="0" stroke-dasharray="0" stroke="rgba(121, 121, 121, 1)" fill="none" transform="matrix(1 0 0 1 245 522 )" class="stroke" mask="url(#Clip4859)" />
    <path d="M 4.511506294009898 15.484680556779256  C 6.974423038929933 15.484680556779256  7.342713168273605 13.30640674027166  7.342713168273605 11.033426634605977  C 7.342713168273605 8.760446528940292  6.974423038929933 6.582172712432698  4.511506294009898 6.582172712432698  C 2.048589091764981 6.582172712432698  1.6572868317263951 8.760446528940292  1.6572868317263951 11.033426634605977  C 1.6572868317263951 13.30640674027166  2.048589091764981 15.484680556779256  4.511506294009898 15.484680556779256  Z " stroke-width="0" stroke-dasharray="0" stroke="rgba(121, 121, 121, 1)" fill="none" transform="matrix(1 0 0 1 245 522 )" class="stroke" mask="url(#Clip4859)" />
  </g>
</svg>