<?xml version="1.0" encoding="utf-8"?>
<svg version="1.1" xmlns:xlink="http://www.w3.org/1999/xlink" width="8px" height="12px" xmlns="http://www.w3.org/2000/svg">
  <defs>
    <pattern id="BGPattern" patternUnits="userSpaceOnUse" alignment="0 0" imageRepeat="None" />
    <mask fill="white" id="Clip4857">
      <path d="M 5.121948288327754 0  C 6.268290401803454 0  7.1463409019982596 0.26506042650435907  8 1.1084338579925284  C 8 1.1084338579925284  6.707312865502744 2.409636323885425  6.707312865502744 2.409636323885425  C 6.0487762624079515 1.759034372810706  5.5609777785961985 1.5421680132901605  4.634147381561119 1.5421680132901605  C 2.878048561830901 1.5421680132901605  1.7560956698888737 2.9156615796587775  1.7560956698888737 4.722890258829388  C 1.7560956698888737 4.722890258829388  1.7560956698888737 12  1.7560956698888737 12  L 0 12  L 0 0.14457932843835825  L 1.7560956698888737 0.14457932843835825  C 1.7560956698888737 0.14457932843835825  1.7560956698888737 1.5903611227696133  1.7560956698888737 1.5903611227696133  C 2.4146329998701295 0.6024090809713563  3.7317034196616006 0  5.121948288327754 0  Z " fill-rule="evenodd" />
    </mask>
  </defs>
  <g transform="matrix(1 0 0 1 -316 -527 )">
    <path d="M 5.121948288327754 0  C 6.268290401803454 0  7.1463409019982596 0.26506042650435907  8 1.1084338579925284  C 8 1.1084338579925284  6.707312865502744 2.409636323885425  6.707312865502744 2.409636323885425  C 6.0487762624079515 1.759034372810706  5.5609777785961985 1.5421680132901605  4.634147381561119 1.5421680132901605  C 2.878048561830901 1.5421680132901605  1.7560956698888737 2.9156615796587775  1.7560956698888737 4.722890258829388  C 1.7560956698888737 4.722890258829388  1.7560956698888737 12  1.7560956698888737 12  L 0 12  L 0 0.14457932843835825  L 1.7560956698888737 0.14457932843835825  C 1.7560956698888737 0.14457932843835825  1.7560956698888737 1.5903611227696133  1.7560956698888737 1.5903611227696133  C 2.4146329998701295 0.6024090809713563  3.7317034196616006 0  5.121948288327754 0  Z " fill-rule="nonzero" fill="rgba(0, 0, 0, 1)" stroke="none" transform="matrix(1 0 0 1 316 527 )" class="fill" />
    <path d="M 5.121948288327754 0  C 6.268290401803454 0  7.1463409019982596 0.26506042650435907  8 1.1084338579925284  C 8 1.1084338579925284  6.707312865502744 2.409636323885425  6.707312865502744 2.409636323885425  C 6.0487762624079515 1.759034372810706  5.5609777785961985 1.5421680132901605  4.634147381561119 1.5421680132901605  C 2.878048561830901 1.5421680132901605  1.7560956698888737 2.9156615796587775  1.7560956698888737 4.722890258829388  C 1.7560956698888737 4.722890258829388  1.7560956698888737 12  1.7560956698888737 12  L 0 12  L 0 0.14457932843835825  L 1.7560956698888737 0.14457932843835825  C 1.7560956698888737 0.14457932843835825  1.7560956698888737 1.5903611227696133  1.7560956698888737 1.5903611227696133  C 2.4146329998701295 0.6024090809713563  3.7317034196616006 0  5.121948288327754 0  Z " stroke-width="0" stroke-dasharray="0" stroke="rgba(121, 121, 121, 1)" fill="none" transform="matrix(1 0 0 1 316 527 )" class="stroke" mask="url(#Clip4857)" />
  </g>
</svg>