<?xml version="1.0" encoding="utf-8"?>
<svg version="1.1" xmlns:xlink="http://www.w3.org/1999/xlink" width="27px" height="33px" xmlns="http://www.w3.org/2000/svg">
  <defs>
    <pattern id="BGPattern" patternUnits="userSpaceOnUse" alignment="0 0" imageRepeat="None" />
    <mask fill="white" id="Clip5064">
      <path d="M 17.97141751031634 13.69242286930139  C 17.97141751031634 13.69242286930139  17.965417370921653 12.40297096024272  17.965417370921653 12.40297096024272  C 17.965431232147353 9.057242256223773  18.21115745493265 5.984141739356358  15.843368071667783 3.447732377162221  C 15.843368071667783 3.447732377162221  15.606362565577694 3.2034359115804407  15.606362565577694 3.2034359115804407  C 14.066232058845117 1.6863393916968756  11.870108773086216 1.0087079869183182  9.445219430467855 1.0087079869183182  C 9.445219430467855 1.0087079869183182  9.445219430467855 0  9.445219430467855 0  C 12.051880574116957 0  14.542862882865084 0.7294652328512254  16.33037938586978 2.490247842704598  C 19.31430979225052 5.4295890414595975  18.989459695657118 9.099786975544495  18.989441160948022 12.40297096024272  C 18.989441160948022 15.695235522448431  19.316488797951102 19.568178686503234  16.33037938586978 22.509752157295402  C 14.542863004938232 24.2705350076435  12.051881062409551 25  9.445219430467855 25  C 9.445219430467855 25  0 25  0 25  L 0 0  L 9.445219430467855 0  L 9.445219430467855 1.0087079869183182  L 1 1.0087079869183182  L 1 23.99129201308168  C 1 23.99129201308168  9.445219430467855 23.99129201308168  9.445219430467855 23.99129201308168  C 11.71840944804022 23.99129201308168  13.790267639852653 23.39574193892465  15.30935566554075 22.07139761219906  C 15.30935566554075 22.07139761219906  15.606362565577694 21.796564088419558  15.606362565577694 21.796564088419558  C 17.900082601117173 19.537042074956165  17.985757208460377 16.68405724105375  17.97141751031634 13.69242286930139  Z M 12.224283993439814 16.26541628905788  C 12.352252718045388 15.36816492106617  12.386287757096332 14.151339833629981  12.386287757096332 12.40297096024272  C 12.386284058355695 10.652699533086226  12.35196686850905 9.489097431377811  12.225284016672264 8.644942669135899  C 12.10284287104442 7.829128947634333  11.9054482171358 7.399041889698268  11.632270239830818 7.0678513731825525  C 11.632270239830818 7.0678513731825525  11.63127021659837 7.0678513731825525  11.63127021659837 7.0678513731825525  C 11.068456238035546 6.401702328923982  10.3293823052427 6.019740730525237  9.019209533445164 6.019740730525237  C 9.019209533445164 6.019740730525237  6.602153380619245 6.019740730525237  6.602153380619245 6.019740730525237  L 6.602153380619245 18.98025926947476  L 9.019209533445164 18.98025926947476  L 9.019209533445164 19.98896725639308  L 5.578129590592874 19.98896725639308  L 5.578129590592874 5.011032743606919  C 5.578129590592874 5.011032743606919  9.019209533445164 5.011032743606919  9.019209533445164 5.011032743606919  C 10.592040140683778 5.011032743606919  11.640849540706846 5.49550004788731  12.427288709626684 6.431498482997753  C 13.27925326557237 7.464387733522301  13.410304457467925 8.91708096853267  13.410311547122703 12.40297096024272  C 13.410311547122703 15.889066093953168  13.27927627636086 17.535584850079054  12.427288709626684 18.568501517002247  C 12.427288709626684 18.568501517002247  12.276285201527092 18.738918003073408  12.276285201527092 18.738918003073408  C 11.507344058748693 19.563203031014663  10.493608044348068 19.98896725639308  9.019209533445164 19.98896725639308  C 9.019209533445164 19.98896725639308  9.019209533445164 18.98025926947476  9.019209533445164 18.98025926947476  C 10.330150877785607 18.98025926947476  11.069333333607462 18.59803919937036  11.632270239830818 17.931163560423975  C 11.893543979396005 17.614124805689883  12.098231420527835 17.14919490206208  12.224283993439814 16.26541628905788  Z " fill-rule="evenodd" />
    </mask>
  </defs>
  <g transform="matrix(1 0 0 1 -706 -993 )">
    <path d="M 17.97141751031634 13.69242286930139  C 17.97141751031634 13.69242286930139  17.965417370921653 12.40297096024272  17.965417370921653 12.40297096024272  C 17.965431232147353 9.057242256223773  18.21115745493265 5.984141739356358  15.843368071667783 3.447732377162221  C 15.843368071667783 3.447732377162221  15.606362565577694 3.2034359115804407  15.606362565577694 3.2034359115804407  C 14.066232058845117 1.6863393916968756  11.870108773086216 1.0087079869183182  9.445219430467855 1.0087079869183182  C 9.445219430467855 1.0087079869183182  9.445219430467855 0  9.445219430467855 0  C 12.051880574116957 0  14.542862882865084 0.7294652328512254  16.33037938586978 2.490247842704598  C 19.31430979225052 5.4295890414595975  18.989459695657118 9.099786975544495  18.989441160948022 12.40297096024272  C 18.989441160948022 15.695235522448431  19.316488797951102 19.568178686503234  16.33037938586978 22.509752157295402  C 14.542863004938232 24.2705350076435  12.051881062409551 25  9.445219430467855 25  C 9.445219430467855 25  0 25  0 25  L 0 0  L 9.445219430467855 0  L 9.445219430467855 1.0087079869183182  L 1 1.0087079869183182  L 1 23.99129201308168  C 1 23.99129201308168  9.445219430467855 23.99129201308168  9.445219430467855 23.99129201308168  C 11.71840944804022 23.99129201308168  13.790267639852653 23.39574193892465  15.30935566554075 22.07139761219906  C 15.30935566554075 22.07139761219906  15.606362565577694 21.796564088419558  15.606362565577694 21.796564088419558  C 17.900082601117173 19.537042074956165  17.985757208460377 16.68405724105375  17.97141751031634 13.69242286930139  Z M 12.224283993439814 16.26541628905788  C 12.352252718045388 15.36816492106617  12.386287757096332 14.151339833629981  12.386287757096332 12.40297096024272  C 12.386284058355695 10.652699533086226  12.35196686850905 9.489097431377811  12.225284016672264 8.644942669135899  C 12.10284287104442 7.829128947634333  11.9054482171358 7.399041889698268  11.632270239830818 7.0678513731825525  C 11.632270239830818 7.0678513731825525  11.63127021659837 7.0678513731825525  11.63127021659837 7.0678513731825525  C 11.068456238035546 6.401702328923982  10.3293823052427 6.019740730525237  9.019209533445164 6.019740730525237  C 9.019209533445164 6.019740730525237  6.602153380619245 6.019740730525237  6.602153380619245 6.019740730525237  L 6.602153380619245 18.98025926947476  L 9.019209533445164 18.98025926947476  L 9.019209533445164 19.98896725639308  L 5.578129590592874 19.98896725639308  L 5.578129590592874 5.011032743606919  C 5.578129590592874 5.011032743606919  9.019209533445164 5.011032743606919  9.019209533445164 5.011032743606919  C 10.592040140683778 5.011032743606919  11.640849540706846 5.49550004788731  12.427288709626684 6.431498482997753  C 13.27925326557237 7.464387733522301  13.410304457467925 8.91708096853267  13.410311547122703 12.40297096024272  C 13.410311547122703 15.889066093953168  13.27927627636086 17.535584850079054  12.427288709626684 18.568501517002247  C 12.427288709626684 18.568501517002247  12.276285201527092 18.738918003073408  12.276285201527092 18.738918003073408  C 11.507344058748693 19.563203031014663  10.493608044348068 19.98896725639308  9.019209533445164 19.98896725639308  C 9.019209533445164 19.98896725639308  9.019209533445164 18.98025926947476  9.019209533445164 18.98025926947476  C 10.330150877785607 18.98025926947476  11.069333333607462 18.59803919937036  11.632270239830818 17.931163560423975  C 11.893543979396005 17.614124805689883  12.098231420527835 17.14919490206208  12.224283993439814 16.26541628905788  Z " fill-rule="nonzero" fill="rgba(190, 190, 190, 0.058823529411764705)" stroke="none" transform="matrix(1 0 0 1 710 993 )" class="fill" />
    <path d="M 17.97141751031634 13.69242286930139  C 17.97141751031634 13.69242286930139  17.965417370921653 12.40297096024272  17.965417370921653 12.40297096024272  C 17.965431232147353 9.057242256223773  18.21115745493265 5.984141739356358  15.843368071667783 3.447732377162221  C 15.843368071667783 3.447732377162221  15.606362565577694 3.2034359115804407  15.606362565577694 3.2034359115804407  C 14.066232058845117 1.6863393916968756  11.870108773086216 1.0087079869183182  9.445219430467855 1.0087079869183182  C 9.445219430467855 1.0087079869183182  9.445219430467855 0  9.445219430467855 0  C 12.051880574116957 0  14.542862882865084 0.7294652328512254  16.33037938586978 2.490247842704598  C 19.31430979225052 5.4295890414595975  18.989459695657118 9.099786975544495  18.989441160948022 12.40297096024272  C 18.989441160948022 15.695235522448431  19.316488797951102 19.568178686503234  16.33037938586978 22.509752157295402  C 14.542863004938232 24.2705350076435  12.051881062409551 25  9.445219430467855 25  C 9.445219430467855 25  0 25  0 25  L 0 0  L 9.445219430467855 0  L 9.445219430467855 1.0087079869183182  L 1 1.0087079869183182  L 1 23.99129201308168  C 1 23.99129201308168  9.445219430467855 23.99129201308168  9.445219430467855 23.99129201308168  C 11.71840944804022 23.99129201308168  13.790267639852653 23.39574193892465  15.30935566554075 22.07139761219906  C 15.30935566554075 22.07139761219906  15.606362565577694 21.796564088419558  15.606362565577694 21.796564088419558  C 17.900082601117173 19.537042074956165  17.985757208460377 16.68405724105375  17.97141751031634 13.69242286930139  Z " stroke-width="0" stroke-dasharray="0" stroke="rgba(121, 121, 121, 1)" fill="none" transform="matrix(1 0 0 1 710 993 )" class="stroke" mask="url(#Clip5064)" />
    <path d="M 12.224283993439814 16.26541628905788  C 12.352252718045388 15.36816492106617  12.386287757096332 14.151339833629981  12.386287757096332 12.40297096024272  C 12.386284058355695 10.652699533086226  12.35196686850905 9.489097431377811  12.225284016672264 8.644942669135899  C 12.10284287104442 7.829128947634333  11.9054482171358 7.399041889698268  11.632270239830818 7.0678513731825525  C 11.632270239830818 7.0678513731825525  11.63127021659837 7.0678513731825525  11.63127021659837 7.0678513731825525  C 11.068456238035546 6.401702328923982  10.3293823052427 6.019740730525237  9.019209533445164 6.019740730525237  C 9.019209533445164 6.019740730525237  6.602153380619245 6.019740730525237  6.602153380619245 6.019740730525237  L 6.602153380619245 18.98025926947476  L 9.019209533445164 18.98025926947476  L 9.019209533445164 19.98896725639308  L 5.578129590592874 19.98896725639308  L 5.578129590592874 5.011032743606919  C 5.578129590592874 5.011032743606919  9.019209533445164 5.011032743606919  9.019209533445164 5.011032743606919  C 10.592040140683778 5.011032743606919  11.640849540706846 5.49550004788731  12.427288709626684 6.431498482997753  C 13.27925326557237 7.464387733522301  13.410304457467925 8.91708096853267  13.410311547122703 12.40297096024272  C 13.410311547122703 15.889066093953168  13.27927627636086 17.535584850079054  12.427288709626684 18.568501517002247  C 12.427288709626684 18.568501517002247  12.276285201527092 18.738918003073408  12.276285201527092 18.738918003073408  C 11.507344058748693 19.563203031014663  10.493608044348068 19.98896725639308  9.019209533445164 19.98896725639308  C 9.019209533445164 19.98896725639308  9.019209533445164 18.98025926947476  9.019209533445164 18.98025926947476  C 10.330150877785607 18.98025926947476  11.069333333607462 18.59803919937036  11.632270239830818 17.931163560423975  C 11.893543979396005 17.614124805689883  12.098231420527835 17.14919490206208  12.224283993439814 16.26541628905788  Z " stroke-width="0" stroke-dasharray="0" stroke="rgba(121, 121, 121, 1)" fill="none" transform="matrix(1 0 0 1 710 993 )" class="stroke" mask="url(#Clip5064)" />
  </g>
  <style>svg { filter: drop-shadow(0px 4px 2px rgba(0, 0, 0, 0.12941176470588237)); }</style>
</svg>