<?xml version="1.0" encoding="utf-8"?>
<svg version="1.1" xmlns:xlink="http://www.w3.org/1999/xlink" width="24px" height="33px" xmlns="http://www.w3.org/2000/svg">
  <defs>
    <pattern id="BGPattern" patternUnits="userSpaceOnUse" alignment="0 0" imageRepeat="None" />
    <mask fill="white" id="Clip5058">
      <path d="M 14.982739351794363 23.99129201308168  C 14.982739351794363 23.99129201308168  14.982739351794363 13.113203829938138  14.982739351794363 13.113203829938138  C 14.982675106054979 9.673628071867983  13.149265753057866 7.1429170217491125  9.660995902148267 6.988060995311083  C 9.660995902148267 6.988060995311083  9.318266484539922 6.980180464163284  9.318266484539922 6.980180464163284  C 7.820858686203899 6.980180464163284  6.388555701291444 7.561716910696344  5.249223891717373 8.723747980613894  C 5.249223891717373 8.723747980613894  5.249223891717373 1.0087079869183182  5.249223891717373 1.0087079869183182  L 1 1.0087079869183182  L 1 23.99129201308168  L 5.249223891717373 23.99129201308168  C 5.249223891717373 23.99129201308168  5.249223891717373 13.726900193073014  5.249223891717373 13.726900193073014  C 5.249223891717373 11.53217852127374  6.648590417585061 10.757084924057892  7.9831118837700235 10.756925016746129  C 9.317758133614802 10.756925016746129  10.750776108282627 11.499672773257418  10.750776108282627 13.726900193073014  C 10.750776108282627 13.726900193073014  10.750776108282627 23.99129201308168  10.750776108282627 23.99129201308168  L 14.982739351794363 23.99129201308168  Z M 6.2664845399230105 0  C 6.2664845399230105 0  6.2664845399230105 6.718152803498956  6.2664845399230105 6.718152803498956  C 7.213062702758289 6.223941975683791  8.250448081266299 5.9714724772449665  9.318266484539922 5.9714724772449665  C 11.428951167266858 5.971494830164717  13.140265807385447 6.716395147801517  14.310194958400595 8.054887899444422  C 15.462785486581089 9.373618478052412  15.99996682919361 11.163927948011274  16 13.113203829938138  C 16 13.113203829938138  16 25  16 25  L 9.73351546007699 25  C 9.73351546007699 25  9.73351546007699 13.726900193073014  9.73351546007699 13.726900193073014  C 9.73351546007699 12.840520930236673  9.456868297577378 12.395463120764022  9.190115484912456 12.159659561054415  C 8.900263325051611 11.903558231526464  8.474676799407053 11.765633003664448  7.9831118837700235 11.765633003664448  C 7.502177923551394 11.765713110609294  7.086568482097122 11.905808240049598  6.801937166273438 12.163599826628314  C 6.536657776993046 12.403865179753838  6.2664845399230105 12.85344301242769  6.2664845399230105 13.726900193073014  C 6.2664845399230105 13.726900193073014  6.2664845399230105 25  6.2664845399230105 25  L 0 25  L 0 0  L 6.2664845399230105 0  Z " fill-rule="evenodd" />
    </mask>
  </defs>
  <g transform="matrix(1 0 0 1 -896 -993 )">
    <path d="M 14.982739351794363 23.99129201308168  C 14.982739351794363 23.99129201308168  14.982739351794363 13.113203829938138  14.982739351794363 13.113203829938138  C 14.982675106054979 9.673628071867983  13.149265753057866 7.1429170217491125  9.660995902148267 6.988060995311083  C 9.660995902148267 6.988060995311083  9.318266484539922 6.980180464163284  9.318266484539922 6.980180464163284  C 7.820858686203899 6.980180464163284  6.388555701291444 7.561716910696344  5.249223891717373 8.723747980613894  C 5.249223891717373 8.723747980613894  5.249223891717373 1.0087079869183182  5.249223891717373 1.0087079869183182  L 1 1.0087079869183182  L 1 23.99129201308168  L 5.249223891717373 23.99129201308168  C 5.249223891717373 23.99129201308168  5.249223891717373 13.726900193073014  5.249223891717373 13.726900193073014  C 5.249223891717373 11.53217852127374  6.648590417585061 10.757084924057892  7.9831118837700235 10.756925016746129  C 9.317758133614802 10.756925016746129  10.750776108282627 11.499672773257418  10.750776108282627 13.726900193073014  C 10.750776108282627 13.726900193073014  10.750776108282627 23.99129201308168  10.750776108282627 23.99129201308168  L 14.982739351794363 23.99129201308168  Z M 6.2664845399230105 0  C 6.2664845399230105 0  6.2664845399230105 6.718152803498956  6.2664845399230105 6.718152803498956  C 7.213062702758289 6.223941975683791  8.250448081266299 5.9714724772449665  9.318266484539922 5.9714724772449665  C 11.428951167266858 5.971494830164717  13.140265807385447 6.716395147801517  14.310194958400595 8.054887899444422  C 15.462785486581089 9.373618478052412  15.99996682919361 11.163927948011274  16 13.113203829938138  C 16 13.113203829938138  16 25  16 25  L 9.73351546007699 25  C 9.73351546007699 25  9.73351546007699 13.726900193073014  9.73351546007699 13.726900193073014  C 9.73351546007699 12.840520930236673  9.456868297577378 12.395463120764022  9.190115484912456 12.159659561054415  C 8.900263325051611 11.903558231526464  8.474676799407053 11.765633003664448  7.9831118837700235 11.765633003664448  C 7.502177923551394 11.765713110609294  7.086568482097122 11.905808240049598  6.801937166273438 12.163599826628314  C 6.536657776993046 12.403865179753838  6.2664845399230105 12.85344301242769  6.2664845399230105 13.726900193073014  C 6.2664845399230105 13.726900193073014  6.2664845399230105 25  6.2664845399230105 25  L 0 25  L 0 0  L 6.2664845399230105 0  Z " fill-rule="nonzero" fill="rgba(190, 190, 190, 0.058823529411764705)" stroke="none" transform="matrix(1 0 0 1 900 993 )" class="fill" />
    <path d="M 14.982739351794363 23.99129201308168  C 14.982739351794363 23.99129201308168  14.982739351794363 13.113203829938138  14.982739351794363 13.113203829938138  C 14.982675106054979 9.673628071867983  13.149265753057866 7.1429170217491125  9.660995902148267 6.988060995311083  C 9.660995902148267 6.988060995311083  9.318266484539922 6.980180464163284  9.318266484539922 6.980180464163284  C 7.820858686203899 6.980180464163284  6.388555701291444 7.561716910696344  5.249223891717373 8.723747980613894  C 5.249223891717373 8.723747980613894  5.249223891717373 1.0087079869183182  5.249223891717373 1.0087079869183182  L 1 1.0087079869183182  L 1 23.99129201308168  L 5.249223891717373 23.99129201308168  C 5.249223891717373 23.99129201308168  5.249223891717373 13.726900193073014  5.249223891717373 13.726900193073014  C 5.249223891717373 11.53217852127374  6.648590417585061 10.757084924057892  7.9831118837700235 10.756925016746129  C 9.317758133614802 10.756925016746129  10.750776108282627 11.499672773257418  10.750776108282627 13.726900193073014  C 10.750776108282627 13.726900193073014  10.750776108282627 23.99129201308168  10.750776108282627 23.99129201308168  L 14.982739351794363 23.99129201308168  Z " stroke-width="0" stroke-dasharray="0" stroke="rgba(121, 121, 121, 1)" fill="none" transform="matrix(1 0 0 1 900 993 )" class="stroke" mask="url(#Clip5058)" />
    <path d="M 6.2664845399230105 0  C 6.2664845399230105 0  6.2664845399230105 6.718152803498956  6.2664845399230105 6.718152803498956  C 7.213062702758289 6.223941975683791  8.250448081266299 5.9714724772449665  9.318266484539922 5.9714724772449665  C 11.428951167266858 5.971494830164717  13.140265807385447 6.716395147801517  14.310194958400595 8.054887899444422  C 15.462785486581089 9.373618478052412  15.99996682919361 11.163927948011274  16 13.113203829938138  C 16 13.113203829938138  16 25  16 25  L 9.73351546007699 25  C 9.73351546007699 25  9.73351546007699 13.726900193073014  9.73351546007699 13.726900193073014  C 9.73351546007699 12.840520930236673  9.456868297577378 12.395463120764022  9.190115484912456 12.159659561054415  C 8.900263325051611 11.903558231526464  8.474676799407053 11.765633003664448  7.9831118837700235 11.765633003664448  C 7.502177923551394 11.765713110609294  7.086568482097122 11.905808240049598  6.801937166273438 12.163599826628314  C 6.536657776993046 12.403865179753838  6.2664845399230105 12.85344301242769  6.2664845399230105 13.726900193073014  C 6.2664845399230105 13.726900193073014  6.2664845399230105 25  6.2664845399230105 25  L 0 25  L 0 0  L 6.2664845399230105 0  Z " stroke-width="0" stroke-dasharray="0" stroke="rgba(121, 121, 121, 1)" fill="none" transform="matrix(1 0 0 1 900 993 )" class="stroke" mask="url(#Clip5058)" />
  </g>
  <style>svg { filter: drop-shadow(0px 4px 2px rgba(0, 0, 0, 0.12941176470588237)); }</style>
</svg>