<?xml version="1.0" encoding="utf-8"?>
<svg version="1.1" xmlns:xlink="http://www.w3.org/1999/xlink" width="28px" height="27px" xmlns="http://www.w3.org/2000/svg">
  <defs>
    <pattern id="BGPattern" patternUnits="userSpaceOnUse" alignment="0 0" imageRepeat="None" />
    <mask fill="white" id="Clip5059">
      <path d="M 0.22221129737967651 0  L 7.723317437687429 0  L 9.98770955213608 3.876516736401674  L 12.279632269799912 0  L 19.77680546679121 0  L 13.519492650312177 9.322123430962343  L 20 19  L 12.514625632958065 19  L 9.98770955213608 14.851202928870293  L 7.783294823263359 18.51208158995816  L 7.488324074529276 19  L 0 19  L 6.479524113858709 9.32112970711297  L 0.22221129737967651 0  Z M 7.148124477655966 1.0175732217573221  L 2.1228061550562902 1.0175732217573221  L 7.695786834472248 9.32112970711297  L 1.8966619143601593 17.98242677824268  L 6.922963472788949 17.98242677824268  L 9.983776608819625 12.902510460251046  L 13.077036527211053 17.98242677824268  L 18.10333808563984 17.98242677824268  L 12.303229929698638 9.32112970711297  L 17.87719384494371 1.0175732217573221  L 12.85089228651492 1.0175732217573221  L 9.983776608819625 5.868933054393305  L 7.148124477655966 1.0175732217573221  Z " fill-rule="evenodd" />
    </mask>
  </defs>
  <g transform="matrix(1 0 0 1 -876 -999 )">
    <path d="M 0.22221129737967651 0  L 7.723317437687429 0  L 9.98770955213608 3.876516736401674  L 12.279632269799912 0  L 19.77680546679121 0  L 13.519492650312177 9.322123430962343  L 20 19  L 12.514625632958065 19  L 9.98770955213608 14.851202928870293  L 7.783294823263359 18.51208158995816  L 7.488324074529276 19  L 0 19  L 6.479524113858709 9.32112970711297  L 0.22221129737967651 0  Z M 7.148124477655966 1.0175732217573221  L 2.1228061550562902 1.0175732217573221  L 7.695786834472248 9.32112970711297  L 1.8966619143601593 17.98242677824268  L 6.922963472788949 17.98242677824268  L 9.983776608819625 12.902510460251046  L 13.077036527211053 17.98242677824268  L 18.10333808563984 17.98242677824268  L 12.303229929698638 9.32112970711297  L 17.87719384494371 1.0175732217573221  L 12.85089228651492 1.0175732217573221  L 9.983776608819625 5.868933054393305  L 7.148124477655966 1.0175732217573221  Z " fill-rule="nonzero" fill="rgba(190, 190, 190, 0.058823529411764705)" stroke="none" transform="matrix(1 0 0 1 880 999 )" class="fill" />
    <path d="M 0.22221129737967651 0  L 7.723317437687429 0  L 9.98770955213608 3.876516736401674  L 12.279632269799912 0  L 19.77680546679121 0  L 13.519492650312177 9.322123430962343  L 20 19  L 12.514625632958065 19  L 9.98770955213608 14.851202928870293  L 7.783294823263359 18.51208158995816  L 7.488324074529276 19  L 0 19  L 6.479524113858709 9.32112970711297  L 0.22221129737967651 0  Z " stroke-width="0" stroke-dasharray="0" stroke="rgba(121, 121, 121, 1)" fill="none" transform="matrix(1 0 0 1 880 999 )" class="stroke" mask="url(#Clip5059)" />
    <path d="M 7.148124477655966 1.0175732217573221  L 2.1228061550562902 1.0175732217573221  L 7.695786834472248 9.32112970711297  L 1.8966619143601593 17.98242677824268  L 6.922963472788949 17.98242677824268  L 9.983776608819625 12.902510460251046  L 13.077036527211053 17.98242677824268  L 18.10333808563984 17.98242677824268  L 12.303229929698638 9.32112970711297  L 17.87719384494371 1.0175732217573221  L 12.85089228651492 1.0175732217573221  L 9.983776608819625 5.868933054393305  L 7.148124477655966 1.0175732217573221  Z " stroke-width="0" stroke-dasharray="0" stroke="rgba(121, 121, 121, 1)" fill="none" transform="matrix(1 0 0 1 880 999 )" class="stroke" mask="url(#Clip5059)" />
  </g>
  <style>svg { filter: drop-shadow(0px 4px 2px rgba(0, 0, 0, 0.12941176470588237)); }</style>
</svg>