<?xml version="1.0" encoding="utf-8"?>
<svg version="1.1" xmlns:xlink="http://www.w3.org/1999/xlink" width="24px" height="27px" xmlns="http://www.w3.org/2000/svg">
  <defs>
    <pattern id="BGPattern" patternUnits="userSpaceOnUse" alignment="0 0" imageRepeat="None" />
    <mask fill="white" id="Clip5054">
      <path d="M 15.002121340687314 10.039407604796555  C 15.002121340687314 10.039407604796555  15.006970119401176 9.484421441016705  15.006970119401176 9.484421441016705  C 15.006970119401176 6.485368414884025  14.625940279524517 4.602129913639726  13.13243226862234 3.038792661678795  C 12.115569504212376 1.9540270967318336  10.430824406024607 0.997027774930819  7.983999030244258 0.997027774930819  C 5.537241366901024 0.997060374073601  3.8844129757864114 1.9540455192526038  2.867567731377659 3.038792661678795  C 1.3740689539896358 4.602127536540272  0.9930298805988241 6.4853762593122255  0.9930298805988241 9.484421441016705  C 0.9930298805988241 9.484421441016705  0.9978786593126856 10.039407604796555  0.9978786593126856 10.039407604796555  C 1.045268923436174 12.748875481825548  1.4678145739893327 14.494765889733813  2.867567731377659 15.960233678384748  C 3.82093008004273 16.97725939674921  5.333415566852537 17.882244016274548  7.535002121340687 17.99128830583171  C 7.535002121340687 17.99128830583171  7.983999030244258 18.00297222506918  7.983999030244258 18.00297222506918  C 10.430824406024607 18.00297222506918  12.115569504212376 17.044999956461545  13.13243226862234 15.960233678384748  C 14.532194186011273 14.494763393779387  14.954730921192194 12.748882850833857  15.002121340687314 10.039407604796555  Z M 9.745075459118734 11.645946499948755  C 9.856960243684277 11.056946241795755  9.882772164856986 10.342470194675936  9.8827807745924 9.484421441016705  C 9.8827807745924 8.625742161727239  9.85750041905949 7.919314497939579  9.746045214861507 7.339448601004408  C 9.636338637000728 6.768921317557667  9.458781060121067 6.408471817778212  9.220437602278926 6.169109357384442  C 8.95664856227082 5.904258849228139  8.587057833050489 5.727067746233474  7.983999030244258 5.727067746233474  C 7.393753918324595 5.727091580950066  7.0513921712584855 5.896185476637966  6.779562397721074 6.169109357384442  C 6.541224562852294 6.408472560621791  6.363659476343737 6.7689284488560295  6.253954785138493 7.339448601004408  C 6.1424995217513185 7.919314557367066  6.1172192254076005 8.62574228058221  6.1172192254076005 9.484421441016705  C 6.117227835155659 10.342467936431456  6.143040414795499 11.056947073780563  6.254924540881266 11.645946499948755  C 6.365631238540972 12.228654397563929  6.543999973719998 12.594344881649473  6.779562397721074 12.83089064261556  C 7.051391579366553 13.103814196510859  7.393753267243469 13.272908420081862  7.983999030244258 13.272932253766527  C 7.983999030244258 13.272932253766527  7.983999030244258 14.269960028697346  7.983999030244258 14.269960028697346  C 7.983999030244258 14.269960028697346  7.68434450572762 14.258276109459874  7.68434450572762 14.258276109459874  C 7.008850264125856 14.202853422838363  6.494499666646464 13.954539849595163  6.077459239953937 13.535820436609614  C 5.3267663712573485 12.78204332879299  5.159978068332267 11.564179389486796  5.13000787926541 10.117300399713027  C 5.13000787926541 10.117300399713027  5.1241893448087765 9.484421441016705  5.1241893448087765 9.484421441016705  C 5.1241893448087765 7.86947177372055  5.2080722695314865 6.506478424869845  5.925207588338687 5.6326227323972535  C 5.925207588338687 5.6326227323972535  6.077459239953937 5.464179563390386  6.077459239953937 5.464179563390386  C 6.554089570769441 4.985630815386148  7.157861544165556 4.730065715379335  7.983999030244258 4.730039971302655  C 8.810199671192194 4.730039971302655  9.44588592490454 4.985606687826689  9.922540760046063 5.464179563390386  C 10.780411052374387 6.325624895032292  10.875810655191223 7.7616347758340165  10.875810655191223 9.484421441016705  C 10.875810655191223 9.484421441016705  10.86999212073459 10.117300399713027  10.86999212073459 10.117300399713027  C 10.840021826236983 11.564186877350076  10.673244223608249 12.78204433906026  9.922540760046063 13.535820436609614  C 9.922540760046063 13.535820436609614  9.736347657433784 13.705237265552936  9.736347657433784 13.705237265552936  C 9.284105730602992 14.07462292102635  8.706848592149525 14.269960028697346  7.983999030244258 14.269960028697346  C 7.983999030244258 14.269960028697346  7.983999030244258 13.272932253766527  7.983999030244258 13.272932253766527  C 8.587058484131614 13.272932253766527  8.956649124568155 13.09574085363443  9.220437602278926 12.83089064261556  C 9.456006152361507 12.59434531249875  9.634366904398089 12.228664440809123  9.745075459118734 11.645946499948755  Z M 13.849081762531062 2.349441426668033  C 15.617890430859447 4.201227574193528  16 6.419393683501268  16 9.484421441016705  C 15.999964152580247 12.579381397149964  15.618531568201103 14.798143564145855  13.849081762531062 16.650558573331967  C 13.849081762531062 16.650558573331967  13.84811200678829 16.64958491339551  13.84811200678829 16.64958491339551  C 12.647403701550093 17.927114346140513  10.706241902918359 19  7.983999030244258 19  C 5.25659391288866 18.99996713751409  3.3480362446208862 17.923656022999513  2.1509182374689377 16.64958491339551  C 0.381478020448209 14.79814606010028  3.584718131984362E-05 12.579374503561546  0 9.484421441016705  C 0 6.610798206976401  0.3361140021743742 4.481686800782451  1.8357476210679435 2.7009326637286053  C 1.8357476210679435 2.7009326637286053  2.1509182374689377 2.349441426668033  2.1509182374689377 2.349441426668033  C 3.3480627613794773 1.0755673786087872  5.256913771289169 3.2858568569840965E-05  7.983999030244258 0  C 10.705923465058488 0  12.647370910737015 1.0721106005824343  13.84811200678829 2.349441426668033  Z " fill-rule="evenodd" />
    </mask>
  </defs>
  <g transform="matrix(1 0 0 1 -969 -999 )">
    <path d="M 15.002121340687314 10.039407604796555  C 15.002121340687314 10.039407604796555  15.006970119401176 9.484421441016705  15.006970119401176 9.484421441016705  C 15.006970119401176 6.485368414884025  14.625940279524517 4.602129913639726  13.13243226862234 3.038792661678795  C 12.115569504212376 1.9540270967318336  10.430824406024607 0.997027774930819  7.983999030244258 0.997027774930819  C 5.537241366901024 0.997060374073601  3.8844129757864114 1.9540455192526038  2.867567731377659 3.038792661678795  C 1.3740689539896358 4.602127536540272  0.9930298805988241 6.4853762593122255  0.9930298805988241 9.484421441016705  C 0.9930298805988241 9.484421441016705  0.9978786593126856 10.039407604796555  0.9978786593126856 10.039407604796555  C 1.045268923436174 12.748875481825548  1.4678145739893327 14.494765889733813  2.867567731377659 15.960233678384748  C 3.82093008004273 16.97725939674921  5.333415566852537 17.882244016274548  7.535002121340687 17.99128830583171  C 7.535002121340687 17.99128830583171  7.983999030244258 18.00297222506918  7.983999030244258 18.00297222506918  C 10.430824406024607 18.00297222506918  12.115569504212376 17.044999956461545  13.13243226862234 15.960233678384748  C 14.532194186011273 14.494763393779387  14.954730921192194 12.748882850833857  15.002121340687314 10.039407604796555  Z M 9.745075459118734 11.645946499948755  C 9.856960243684277 11.056946241795755  9.882772164856986 10.342470194675936  9.8827807745924 9.484421441016705  C 9.8827807745924 8.625742161727239  9.85750041905949 7.919314497939579  9.746045214861507 7.339448601004408  C 9.636338637000728 6.768921317557667  9.458781060121067 6.408471817778212  9.220437602278926 6.169109357384442  C 8.95664856227082 5.904258849228139  8.587057833050489 5.727067746233474  7.983999030244258 5.727067746233474  C 7.393753918324595 5.727091580950066  7.0513921712584855 5.896185476637966  6.779562397721074 6.169109357384442  C 6.541224562852294 6.408472560621791  6.363659476343737 6.7689284488560295  6.253954785138493 7.339448601004408  C 6.1424995217513185 7.919314557367066  6.1172192254076005 8.62574228058221  6.1172192254076005 9.484421441016705  C 6.117227835155659 10.342467936431456  6.143040414795499 11.056947073780563  6.254924540881266 11.645946499948755  C 6.365631238540972 12.228654397563929  6.543999973719998 12.594344881649473  6.779562397721074 12.83089064261556  C 7.051391579366553 13.103814196510859  7.393753267243469 13.272908420081862  7.983999030244258 13.272932253766527  C 7.983999030244258 13.272932253766527  7.983999030244258 14.269960028697346  7.983999030244258 14.269960028697346  C 7.983999030244258 14.269960028697346  7.68434450572762 14.258276109459874  7.68434450572762 14.258276109459874  C 7.008850264125856 14.202853422838363  6.494499666646464 13.954539849595163  6.077459239953937 13.535820436609614  C 5.3267663712573485 12.78204332879299  5.159978068332267 11.564179389486796  5.13000787926541 10.117300399713027  C 5.13000787926541 10.117300399713027  5.1241893448087765 9.484421441016705  5.1241893448087765 9.484421441016705  C 5.1241893448087765 7.86947177372055  5.2080722695314865 6.506478424869845  5.925207588338687 5.6326227323972535  C 5.925207588338687 5.6326227323972535  6.077459239953937 5.464179563390386  6.077459239953937 5.464179563390386  C 6.554089570769441 4.985630815386148  7.157861544165556 4.730065715379335  7.983999030244258 4.730039971302655  C 8.810199671192194 4.730039971302655  9.44588592490454 4.985606687826689  9.922540760046063 5.464179563390386  C 10.780411052374387 6.325624895032292  10.875810655191223 7.7616347758340165  10.875810655191223 9.484421441016705  C 10.875810655191223 9.484421441016705  10.86999212073459 10.117300399713027  10.86999212073459 10.117300399713027  C 10.840021826236983 11.564186877350076  10.673244223608249 12.78204433906026  9.922540760046063 13.535820436609614  C 9.922540760046063 13.535820436609614  9.736347657433784 13.705237265552936  9.736347657433784 13.705237265552936  C 9.284105730602992 14.07462292102635  8.706848592149525 14.269960028697346  7.983999030244258 14.269960028697346  C 7.983999030244258 14.269960028697346  7.983999030244258 13.272932253766527  7.983999030244258 13.272932253766527  C 8.587058484131614 13.272932253766527  8.956649124568155 13.09574085363443  9.220437602278926 12.83089064261556  C 9.456006152361507 12.59434531249875  9.634366904398089 12.228664440809123  9.745075459118734 11.645946499948755  Z M 13.849081762531062 2.349441426668033  C 15.617890430859447 4.201227574193528  16 6.419393683501268  16 9.484421441016705  C 15.999964152580247 12.579381397149964  15.618531568201103 14.798143564145855  13.849081762531062 16.650558573331967  C 13.849081762531062 16.650558573331967  13.84811200678829 16.64958491339551  13.84811200678829 16.64958491339551  C 12.647403701550093 17.927114346140513  10.706241902918359 19  7.983999030244258 19  C 5.25659391288866 18.99996713751409  3.3480362446208862 17.923656022999513  2.1509182374689377 16.64958491339551  C 0.381478020448209 14.79814606010028  3.584718131984362E-05 12.579374503561546  0 9.484421441016705  C 0 6.610798206976401  0.3361140021743742 4.481686800782451  1.8357476210679435 2.7009326637286053  C 1.8357476210679435 2.7009326637286053  2.1509182374689377 2.349441426668033  2.1509182374689377 2.349441426668033  C 3.3480627613794773 1.0755673786087872  5.256913771289169 3.2858568569840965E-05  7.983999030244258 0  C 10.705923465058488 0  12.647370910737015 1.0721106005824343  13.84811200678829 2.349441426668033  Z " fill-rule="nonzero" fill="rgba(190, 190, 190, 0.058823529411764705)" stroke="none" transform="matrix(1 0 0 1 973 999 )" class="fill" />
    <path d="M 15.002121340687314 10.039407604796555  C 15.002121340687314 10.039407604796555  15.006970119401176 9.484421441016705  15.006970119401176 9.484421441016705  C 15.006970119401176 6.485368414884025  14.625940279524517 4.602129913639726  13.13243226862234 3.038792661678795  C 12.115569504212376 1.9540270967318336  10.430824406024607 0.997027774930819  7.983999030244258 0.997027774930819  C 5.537241366901024 0.997060374073601  3.8844129757864114 1.9540455192526038  2.867567731377659 3.038792661678795  C 1.3740689539896358 4.602127536540272  0.9930298805988241 6.4853762593122255  0.9930298805988241 9.484421441016705  C 0.9930298805988241 9.484421441016705  0.9978786593126856 10.039407604796555  0.9978786593126856 10.039407604796555  C 1.045268923436174 12.748875481825548  1.4678145739893327 14.494765889733813  2.867567731377659 15.960233678384748  C 3.82093008004273 16.97725939674921  5.333415566852537 17.882244016274548  7.535002121340687 17.99128830583171  C 7.535002121340687 17.99128830583171  7.983999030244258 18.00297222506918  7.983999030244258 18.00297222506918  C 10.430824406024607 18.00297222506918  12.115569504212376 17.044999956461545  13.13243226862234 15.960233678384748  C 14.532194186011273 14.494763393779387  14.954730921192194 12.748882850833857  15.002121340687314 10.039407604796555  Z " stroke-width="0" stroke-dasharray="0" stroke="rgba(121, 121, 121, 1)" fill="none" transform="matrix(1 0 0 1 973 999 )" class="stroke" mask="url(#Clip5054)" />
    <path d="M 9.745075459118734 11.645946499948755  C 9.856960243684277 11.056946241795755  9.882772164856986 10.342470194675936  9.8827807745924 9.484421441016705  C 9.8827807745924 8.625742161727239  9.85750041905949 7.919314497939579  9.746045214861507 7.339448601004408  C 9.636338637000728 6.768921317557667  9.458781060121067 6.408471817778212  9.220437602278926 6.169109357384442  C 8.95664856227082 5.904258849228139  8.587057833050489 5.727067746233474  7.983999030244258 5.727067746233474  C 7.393753918324595 5.727091580950066  7.0513921712584855 5.896185476637966  6.779562397721074 6.169109357384442  C 6.541224562852294 6.408472560621791  6.363659476343737 6.7689284488560295  6.253954785138493 7.339448601004408  C 6.1424995217513185 7.919314557367066  6.1172192254076005 8.62574228058221  6.1172192254076005 9.484421441016705  C 6.117227835155659 10.342467936431456  6.143040414795499 11.056947073780563  6.254924540881266 11.645946499948755  C 6.365631238540972 12.228654397563929  6.543999973719998 12.594344881649473  6.779562397721074 12.83089064261556  C 7.051391579366553 13.103814196510859  7.393753267243469 13.272908420081862  7.983999030244258 13.272932253766527  C 7.983999030244258 13.272932253766527  7.983999030244258 14.269960028697346  7.983999030244258 14.269960028697346  C 7.983999030244258 14.269960028697346  7.68434450572762 14.258276109459874  7.68434450572762 14.258276109459874  C 7.008850264125856 14.202853422838363  6.494499666646464 13.954539849595163  6.077459239953937 13.535820436609614  C 5.3267663712573485 12.78204332879299  5.159978068332267 11.564179389486796  5.13000787926541 10.117300399713027  C 5.13000787926541 10.117300399713027  5.1241893448087765 9.484421441016705  5.1241893448087765 9.484421441016705  C 5.1241893448087765 7.86947177372055  5.2080722695314865 6.506478424869845  5.925207588338687 5.6326227323972535  C 5.925207588338687 5.6326227323972535  6.077459239953937 5.464179563390386  6.077459239953937 5.464179563390386  C 6.554089570769441 4.985630815386148  7.157861544165556 4.730065715379335  7.983999030244258 4.730039971302655  C 8.810199671192194 4.730039971302655  9.44588592490454 4.985606687826689  9.922540760046063 5.464179563390386  C 10.780411052374387 6.325624895032292  10.875810655191223 7.7616347758340165  10.875810655191223 9.484421441016705  C 10.875810655191223 9.484421441016705  10.86999212073459 10.117300399713027  10.86999212073459 10.117300399713027  C 10.840021826236983 11.564186877350076  10.673244223608249 12.78204433906026  9.922540760046063 13.535820436609614  C 9.922540760046063 13.535820436609614  9.736347657433784 13.705237265552936  9.736347657433784 13.705237265552936  C 9.284105730602992 14.07462292102635  8.706848592149525 14.269960028697346  7.983999030244258 14.269960028697346  C 7.983999030244258 14.269960028697346  7.983999030244258 13.272932253766527  7.983999030244258 13.272932253766527  C 8.587058484131614 13.272932253766527  8.956649124568155 13.09574085363443  9.220437602278926 12.83089064261556  C 9.456006152361507 12.59434531249875  9.634366904398089 12.228664440809123  9.745075459118734 11.645946499948755  Z " stroke-width="0" stroke-dasharray="0" stroke="rgba(121, 121, 121, 1)" fill="none" transform="matrix(1 0 0 1 973 999 )" class="stroke" mask="url(#Clip5054)" />
    <path d="M 13.849081762531062 2.349441426668033  C 15.617890430859447 4.201227574193528  16 6.419393683501268  16 9.484421441016705  C 15.999964152580247 12.579381397149964  15.618531568201103 14.798143564145855  13.849081762531062 16.650558573331967  C 13.849081762531062 16.650558573331967  13.84811200678829 16.64958491339551  13.84811200678829 16.64958491339551  C 12.647403701550093 17.927114346140513  10.706241902918359 19  7.983999030244258 19  C 5.25659391288866 18.99996713751409  3.3480362446208862 17.923656022999513  2.1509182374689377 16.64958491339551  C 0.381478020448209 14.79814606010028  3.584718131984362E-05 12.579374503561546  0 9.484421441016705  C 0 6.610798206976401  0.3361140021743742 4.481686800782451  1.8357476210679435 2.7009326637286053  C 1.8357476210679435 2.7009326637286053  2.1509182374689377 2.349441426668033  2.1509182374689377 2.349441426668033  C 3.3480627613794773 1.0755673786087872  5.256913771289169 3.2858568569840965E-05  7.983999030244258 0  C 10.705923465058488 0  12.647370910737015 1.0721106005824343  13.84811200678829 2.349441426668033  Z " stroke-width="0" stroke-dasharray="0" stroke="rgba(121, 121, 121, 1)" fill="none" transform="matrix(1 0 0 1 973 999 )" class="stroke" mask="url(#Clip5054)" />
  </g>
  <style>svg { filter: drop-shadow(0px 4px 2px rgba(0, 0, 0, 0.12941176470588237)); }</style>
</svg>