<?xml version="1.0" encoding="utf-8"?>
<svg version="1.1" xmlns:xlink="http://www.w3.org/1999/xlink" width="17px" height="26px" xmlns="http://www.w3.org/2000/svg">
  <defs>
    <pattern id="BGPattern" patternUnits="userSpaceOnUse" alignment="0 0" imageRepeat="None" />
    <mask fill="white" id="Clip5027">
      <path d="M 5.665650406504065 13.321655353623823  C 5.665650406504065 13.321655353623823  5.661585365853658 13.189621195533174  5.661585365853658 13.189621195533174  L 5.661585365853658 7.135756514123057  L 7.959349593495935 7.135756514123057  L 7.959349593495935 4.738449748193562  L 5.661585365853658 4.738449748193562  L 5.661585365853658 1.0089774469016861  L 2.414634146341464 1.0089774469016861  L 2.414634146341464 4.738449748193562  L 1.040650406504065 4.738449748193562  L 1.040650406504065 7.135756514123057  L 2.414634146341464 7.135756514123057  L 2.414634146341464 13.3827457849792  C 2.414634146341464 13.3827457849792  2.4278455284552845 13.718743157433764  2.4278455284552845 13.718743157433764  C 2.556575410734347 15.338902763498673  3.6288459591749236 16.88482490190406  5.942073170731707 16.986095905408366  C 5.942073170731707 16.986095905408366  6.185975609756097 16.991022553098315  6.185975609756097 16.991022553098315  L 7.959349593495935 16.991022553098315  L 7.959349593495935 14.32767681191154  L 6.785569105691057 14.32767681191154  L 6.785569105691057 13.318699365009852  L 9 13.318699365009852  L 9 18  C 9 18  6.185975609756097 18  6.185975609756097 18  C 4.595694193025915 18  3.354945981405615 17.443307694914775  2.524390243902439 16.5229910225531  C 1.714538884356739 15.625518010329282  1.3739837398373984 14.471290155706871  1.3739837398373984 13.3827457849792  C 1.3739837398373984 13.3827457849792  1.3739837398373984 8.144733961024743  1.3739837398373984 8.144733961024743  L 0 8.144733961024743  L 0 3.7294723012918767  L 1.3739837398373984 3.7294723012918767  L 1.3739837398373984 0  L 6.7022357723577235 0  L 6.7022357723577235 3.7294723012918767  L 9 3.7294723012918767  L 9 8.144733961024743  L 6.7022357723577235 8.144733961024743  C 6.7022357723577235 8.144733961024743  6.7022357723577235 13.189621195533174  6.7022357723577235 13.189621195533174  C 6.702253281411419 13.242517741107044  6.705179675323207 13.283362455223958  6.709349593495935 13.313772717319903  C 6.72969828194719 13.31555830773259  6.754984597849652 13.318699365009852  6.785569105691057 13.318699365009852  C 6.785569105691057 13.318699365009852  6.785569105691057 14.32767681191154  6.785569105691057 14.32767681191154  C 6.785569105691057 14.32767681191154  6.645325203252033 14.32275016422159  6.645325203252033 14.32275016422159  C 6.0138792332594955 14.278124494575582  5.704146020780734 13.922640999897789  5.665650406504065 13.321655353623823  Z " fill-rule="evenodd" />
    </mask>
  </defs>
  <g transform="matrix(1 0 0 1 -1659 -427 )">
    <path d="M 5.665650406504065 13.321655353623823  C 5.665650406504065 13.321655353623823  5.661585365853658 13.189621195533174  5.661585365853658 13.189621195533174  L 5.661585365853658 7.135756514123057  L 7.959349593495935 7.135756514123057  L 7.959349593495935 4.738449748193562  L 5.661585365853658 4.738449748193562  L 5.661585365853658 1.0089774469016861  L 2.414634146341464 1.0089774469016861  L 2.414634146341464 4.738449748193562  L 1.040650406504065 4.738449748193562  L 1.040650406504065 7.135756514123057  L 2.414634146341464 7.135756514123057  L 2.414634146341464 13.3827457849792  C 2.414634146341464 13.3827457849792  2.4278455284552845 13.718743157433764  2.4278455284552845 13.718743157433764  C 2.556575410734347 15.338902763498673  3.6288459591749236 16.88482490190406  5.942073170731707 16.986095905408366  C 5.942073170731707 16.986095905408366  6.185975609756097 16.991022553098315  6.185975609756097 16.991022553098315  L 7.959349593495935 16.991022553098315  L 7.959349593495935 14.32767681191154  L 6.785569105691057 14.32767681191154  L 6.785569105691057 13.318699365009852  L 9 13.318699365009852  L 9 18  C 9 18  6.185975609756097 18  6.185975609756097 18  C 4.595694193025915 18  3.354945981405615 17.443307694914775  2.524390243902439 16.5229910225531  C 1.714538884356739 15.625518010329282  1.3739837398373984 14.471290155706871  1.3739837398373984 13.3827457849792  C 1.3739837398373984 13.3827457849792  1.3739837398373984 8.144733961024743  1.3739837398373984 8.144733961024743  L 0 8.144733961024743  L 0 3.7294723012918767  L 1.3739837398373984 3.7294723012918767  L 1.3739837398373984 0  L 6.7022357723577235 0  L 6.7022357723577235 3.7294723012918767  L 9 3.7294723012918767  L 9 8.144733961024743  L 6.7022357723577235 8.144733961024743  C 6.7022357723577235 8.144733961024743  6.7022357723577235 13.189621195533174  6.7022357723577235 13.189621195533174  C 6.702253281411419 13.242517741107044  6.705179675323207 13.283362455223958  6.709349593495935 13.313772717319903  C 6.72969828194719 13.31555830773259  6.754984597849652 13.318699365009852  6.785569105691057 13.318699365009852  C 6.785569105691057 13.318699365009852  6.785569105691057 14.32767681191154  6.785569105691057 14.32767681191154  C 6.785569105691057 14.32767681191154  6.645325203252033 14.32275016422159  6.645325203252033 14.32275016422159  C 6.0138792332594955 14.278124494575582  5.704146020780734 13.922640999897789  5.665650406504065 13.321655353623823  Z " fill-rule="nonzero" fill="rgba(190, 190, 190, 0.058823529411764705)" stroke="none" transform="matrix(1 0 0 1 1663 427 )" class="fill" />
    <path d="M 5.665650406504065 13.321655353623823  C 5.665650406504065 13.321655353623823  5.661585365853658 13.189621195533174  5.661585365853658 13.189621195533174  L 5.661585365853658 7.135756514123057  L 7.959349593495935 7.135756514123057  L 7.959349593495935 4.738449748193562  L 5.661585365853658 4.738449748193562  L 5.661585365853658 1.0089774469016861  L 2.414634146341464 1.0089774469016861  L 2.414634146341464 4.738449748193562  L 1.040650406504065 4.738449748193562  L 1.040650406504065 7.135756514123057  L 2.414634146341464 7.135756514123057  L 2.414634146341464 13.3827457849792  C 2.414634146341464 13.3827457849792  2.4278455284552845 13.718743157433764  2.4278455284552845 13.718743157433764  C 2.556575410734347 15.338902763498673  3.6288459591749236 16.88482490190406  5.942073170731707 16.986095905408366  C 5.942073170731707 16.986095905408366  6.185975609756097 16.991022553098315  6.185975609756097 16.991022553098315  L 7.959349593495935 16.991022553098315  L 7.959349593495935 14.32767681191154  L 6.785569105691057 14.32767681191154  L 6.785569105691057 13.318699365009852  L 9 13.318699365009852  L 9 18  C 9 18  6.185975609756097 18  6.185975609756097 18  C 4.595694193025915 18  3.354945981405615 17.443307694914775  2.524390243902439 16.5229910225531  C 1.714538884356739 15.625518010329282  1.3739837398373984 14.471290155706871  1.3739837398373984 13.3827457849792  C 1.3739837398373984 13.3827457849792  1.3739837398373984 8.144733961024743  1.3739837398373984 8.144733961024743  L 0 8.144733961024743  L 0 3.7294723012918767  L 1.3739837398373984 3.7294723012918767  L 1.3739837398373984 0  L 6.7022357723577235 0  L 6.7022357723577235 3.7294723012918767  L 9 3.7294723012918767  L 9 8.144733961024743  L 6.7022357723577235 8.144733961024743  C 6.7022357723577235 8.144733961024743  6.7022357723577235 13.189621195533174  6.7022357723577235 13.189621195533174  C 6.702253281411419 13.242517741107044  6.705179675323207 13.283362455223958  6.709349593495935 13.313772717319903  C 6.72969828194719 13.31555830773259  6.754984597849652 13.318699365009852  6.785569105691057 13.318699365009852  C 6.785569105691057 13.318699365009852  6.785569105691057 14.32767681191154  6.785569105691057 14.32767681191154  C 6.785569105691057 14.32767681191154  6.645325203252033 14.32275016422159  6.645325203252033 14.32275016422159  C 6.0138792332594955 14.278124494575582  5.704146020780734 13.922640999897789  5.665650406504065 13.321655353623823  Z " stroke-width="0" stroke-dasharray="0" stroke="rgba(121, 121, 121, 1)" fill="none" transform="matrix(1 0 0 1 1663 427 )" class="stroke" mask="url(#Clip5027)" />
  </g>
  <style>svg { filter: drop-shadow(0px 4px 2px rgba(0, 0, 0, 0.12941176470588237)); }</style>
</svg>