<?xml version="1.0" encoding="utf-8"?>
<svg version="1.1" xmlns:xlink="http://www.w3.org/1999/xlink" width="20px" height="27px" xmlns="http://www.w3.org/2000/svg">
  <defs>
    <pattern id="BGPattern" patternUnits="userSpaceOnUse" alignment="0 0" imageRepeat="None" />
    <mask fill="white" id="Clip5023">
      <path d="M 11 1.1223224635855047  L 8.122628195076054 1.1223224635855047  C 8.122628195076054 1.1223224635855047  8.122628195076054 2.2752885439241974  8.122628195076054 2.2752885439241974  C 7.342255945132409 1.39282546488726  6.5618340784018745 1.0276162875382975  5.419476242747374 0.9853838012196966  C 5.419476242747374 0.9853838012196966  5.18613768229575 0.980595736102011  5.18613768229575 0.980595736102011  C 4.006870125610103 0.980595736102011  2.9663208256662124 1.3811724997174804  2.2957503528304843 2.0636560657224936  C 2.2957503528304843 2.0636560657224936  2.095342637603889 2.2848646741595684  2.095342637603889 2.2848646741595684  C 1.1516673001484827 3.413534714013517  1.0697820291673201 4.904337481020992  1.0697820291673201 6.912050803890933  C 1.0697820291673201 6.912050803890933  1.0763681982123257 7.688674965979537  1.0763681982123257 7.688674965979537  C 1.109568041507888 9.440919180778202  1.3043665222675238 10.774414487017493  2.2957503528304843 11.783428254624264  C 2.9662630542685138 12.465786332643344  3.983541392038772 12.865461099754103  5.162615649992159 12.865530971221208  C 6.341893658362083 12.865530971221208  7.24423625982535 12.536004780485326  8.030421828445977 11.64170152714077  C 8.030421828445977 11.64170152714077  8.030421828445977 12.889471296809635  8.030421828445977 12.889471296809635  C 8.030391142305039 14.136760857213282  7.405564782984751 15.430976261277152  5.60200721342324 15.430976261277152  C 5.60200721342324 15.430976261277152  5.60200721342324 14.450380525175142  5.60200721342324 14.450380525175142  C 6.253837873779795 14.450380525175142  6.56980137722571 14.23006830541821  6.74423710208562 14.010836147371604  C 6.8426544108098435 13.887080313547637  6.920384279478114 13.7297047169529  6.975693899952956 13.5463938309561  C 6.415719474803248 13.755321800501486  5.812942588630282 13.846126707323219  5.162615649992159 13.846126707323219  C 4.697759476653158 13.84610322803739  4.245283151058001 13.791548733989783  3.8152736396424656 13.687162945416059  C 3.8152736396424656 13.687162945416059  3.9131252940254035 13.783881860793306  3.9131252940254035 13.783881860793306  C 4.179621305999588 14.045764065408868  4.411330236393362 14.200551508823763  4.6479535831895875 14.296204828385667  C 4.886588893565561 14.392614816539044  5.182507071540669 14.450356942053391  5.60200721342324 14.450380525175142  C 5.60200721342324 14.450380525175142  5.60200721342324 15.430976261277152  5.60200721342324 15.430976261277152  C 4.584835517288694 15.430928870944701  3.914605700448144 15.148407534602237  3.244158695311275 14.489642659140165  C 3.244158695311275 14.489642659140165  1.3708640426532852 16.41923290156746  1.3708640426532852 16.41923290156746  C 2.5414407367296534 17.56650029600559  3.7322049164110274 17.969706042424175  5.400658616904501 18.01557381180384  C 5.400658616904501 18.01557381180384  5.741257644660498 18.01940426389799  5.741257644660498 18.01940426389799  C 8.877023185740747 18.019295129075786  10.905996048957068 16.010113077186286  11.029951387799905 13.210271659694572  C 11.029951387799905 13.210271659694572  11 12.936394334962955  11 12.936394334962955  L 11 1.1223224635855047  Z M 6.8307981809628355 8.705659996975958  C 7.005062228294493 8.326663426265176  7.066940131746915 7.727703775286969  7.06695938529089 6.912050803890933  C 7.06695938529089 6.0954345500094895  7.005129862751392 5.504161958726662  6.832679943547122 5.132805806158964  C 6.758538380001189 4.973232986237168  6.678162882091372 4.8879607837831385  6.594636976634781 4.83498815583892  C 6.508779354971817 4.78059222994898  6.347269240976484 4.7152865278967795  6.0413987768543205 4.7152865278967795  C 5.735700593242194 4.715315557306484  5.5778359204825145 4.780665483633829  5.495687627411009 4.833072929791845  C 5.41599574574337 4.883971331046357  5.337523143493739 4.966949249862825  5.2651717108358165 5.126102514994204  C 5.096033295811915 5.498421424014765  5.039360200721342 6.0893222856326945  5.039360200721342 6.912050803890933  C 5.039377740575113 7.733890619388986  5.096088669639182 8.332412903530331  5.267053473420104 8.71236328814072  C 5.34070853834076 8.875996304870547  5.420316131768862 8.961250198469617  5.5003920338717265 9.013053777531374  C 5.582048114347705 9.065834144233522  5.738236074221812 9.131768387273182  6.0413987768543205 9.131797792449976  C 6.0413987768543205 9.131797792449976  6.0413987768543205 10.112393528551989  6.0413987768543205 10.112393528551989  C 6.0413987768543205 10.112393528551989  5.879567194605613 10.107605463434304  5.879567194605613 10.107605463434304  C 4.460022537353478 10.025832834950824  4.1447968826186266 8.855504108000401  4.087188333071977 7.515347008719318  C 4.087188333071977 7.515347008719318  4.0758977575662545 6.912050803890933  4.0758977575662545 6.912050803890933  C 4.0758977575662545 5.2882459682897  4.261109527831954 3.734809027027083  6.0413987768543205 3.7346907917947685  C 6.0413987768543205 3.7346907917947685  6.204171240395171 3.739478856912454  6.204171240395171 3.739478856912454  C 7.834880348505861 3.8322542158924433  8.030421828445977 5.3390063554083085  8.030421828445977 6.912050803890933  C 8.030421828445977 6.912050803890933  8.01819037164811 7.515347008719318  8.01819037164811 7.515347008719318  C 7.954026627656488 8.90506011438396  7.599353940430453 10.112393528551989  6.0413987768543205 10.112393528551989  C 6.0413987768543205 10.112393528551989  6.0413987768543205 9.131797792449976  6.0413987768543205 9.131797792449976  C 6.344679750056967 9.131797792449976  6.50455922902481 9.065925571612187  6.589932570174063 9.0111385514843  C 6.673779477290979 8.957267372281697  6.755370966932403 8.869577173564014  6.8307981809628355 8.705659996975958  Z M 12 0.14172672748349377  C 12 0.14172672748349377  12 12.936394334962955  12 12.936394334962955  C 12 14.647078121160884  11.396601640600498 16.181431005645273  10.271601066332131 17.286830300892092  C 9.147838384955211 18.39096676734335  7.572221253197526 18.999943327220837  5.741257644660498 19  C 4.7560640825304805 19  3.858776420939019 18.900596009946554  3.0164654226125136 18.605463434302706  C 2.1634522441488944 18.306512183848902  1.415558832798779 17.82442124176756  0.7028383252313 17.125951312937858  C 0.7028383252313 17.125951312937858  0 16.437427549014668  0 16.437427549014668  C 0 16.437427549014668  2.9506037321624587 13.395090973237236  2.9506037321624587 13.395090973237236  C 2.447400903484936 13.17028266564894  1.9943012670044693 12.863208654432622  1.6145522973184885 12.476740083665138  C 0.15920602727575664 10.995513213100793  0.10632601827315862 8.98973604068359  0.10631958601223146 6.912050803890933  C 0.10631958601223146 4.831259637162316  0.1598865352903991 2.8508791991055453  1.6145522973184885 1.3703442366816188  C 2.5012687693873 0.46787076274940465  3.8062910487028576 0  5.18613768229575 0  C 5.89443477291438 0  6.5455006226600485 0.09775365061664057  7.159165751920966 0.3581472708028829  C 7.159165751920966 0.3581472708028829  7.159165751920966 0.14172672748349377  7.159165751920966 0.14172672748349377  L 12 0.14172672748349377  Z " fill-rule="evenodd" />
    </mask>
  </defs>
  <g transform="matrix(1 0 0 1 -1701 -430 )">
    <path d="M 11 1.1223224635855047  L 8.122628195076054 1.1223224635855047  C 8.122628195076054 1.1223224635855047  8.122628195076054 2.2752885439241974  8.122628195076054 2.2752885439241974  C 7.342255945132409 1.39282546488726  6.5618340784018745 1.0276162875382975  5.419476242747374 0.9853838012196966  C 5.419476242747374 0.9853838012196966  5.18613768229575 0.980595736102011  5.18613768229575 0.980595736102011  C 4.006870125610103 0.980595736102011  2.9663208256662124 1.3811724997174804  2.2957503528304843 2.0636560657224936  C 2.2957503528304843 2.0636560657224936  2.095342637603889 2.2848646741595684  2.095342637603889 2.2848646741595684  C 1.1516673001484827 3.413534714013517  1.0697820291673201 4.904337481020992  1.0697820291673201 6.912050803890933  C 1.0697820291673201 6.912050803890933  1.0763681982123257 7.688674965979537  1.0763681982123257 7.688674965979537  C 1.109568041507888 9.440919180778202  1.3043665222675238 10.774414487017493  2.2957503528304843 11.783428254624264  C 2.9662630542685138 12.465786332643344  3.983541392038772 12.865461099754103  5.162615649992159 12.865530971221208  C 6.341893658362083 12.865530971221208  7.24423625982535 12.536004780485326  8.030421828445977 11.64170152714077  C 8.030421828445977 11.64170152714077  8.030421828445977 12.889471296809635  8.030421828445977 12.889471296809635  C 8.030391142305039 14.136760857213282  7.405564782984751 15.430976261277152  5.60200721342324 15.430976261277152  C 5.60200721342324 15.430976261277152  5.60200721342324 14.450380525175142  5.60200721342324 14.450380525175142  C 6.253837873779795 14.450380525175142  6.56980137722571 14.23006830541821  6.74423710208562 14.010836147371604  C 6.8426544108098435 13.887080313547637  6.920384279478114 13.7297047169529  6.975693899952956 13.5463938309561  C 6.415719474803248 13.755321800501486  5.812942588630282 13.846126707323219  5.162615649992159 13.846126707323219  C 4.697759476653158 13.84610322803739  4.245283151058001 13.791548733989783  3.8152736396424656 13.687162945416059  C 3.8152736396424656 13.687162945416059  3.9131252940254035 13.783881860793306  3.9131252940254035 13.783881860793306  C 4.179621305999588 14.045764065408868  4.411330236393362 14.200551508823763  4.6479535831895875 14.296204828385667  C 4.886588893565561 14.392614816539044  5.182507071540669 14.450356942053391  5.60200721342324 14.450380525175142  C 5.60200721342324 14.450380525175142  5.60200721342324 15.430976261277152  5.60200721342324 15.430976261277152  C 4.584835517288694 15.430928870944701  3.914605700448144 15.148407534602237  3.244158695311275 14.489642659140165  C 3.244158695311275 14.489642659140165  1.3708640426532852 16.41923290156746  1.3708640426532852 16.41923290156746  C 2.5414407367296534 17.56650029600559  3.7322049164110274 17.969706042424175  5.400658616904501 18.01557381180384  C 5.400658616904501 18.01557381180384  5.741257644660498 18.01940426389799  5.741257644660498 18.01940426389799  C 8.877023185740747 18.019295129075786  10.905996048957068 16.010113077186286  11.029951387799905 13.210271659694572  C 11.029951387799905 13.210271659694572  11 12.936394334962955  11 12.936394334962955  L 11 1.1223224635855047  Z M 6.8307981809628355 8.705659996975958  C 7.005062228294493 8.326663426265176  7.066940131746915 7.727703775286969  7.06695938529089 6.912050803890933  C 7.06695938529089 6.0954345500094895  7.005129862751392 5.504161958726662  6.832679943547122 5.132805806158964  C 6.758538380001189 4.973232986237168  6.678162882091372 4.8879607837831385  6.594636976634781 4.83498815583892  C 6.508779354971817 4.78059222994898  6.347269240976484 4.7152865278967795  6.0413987768543205 4.7152865278967795  C 5.735700593242194 4.715315557306484  5.5778359204825145 4.780665483633829  5.495687627411009 4.833072929791845  C 5.41599574574337 4.883971331046357  5.337523143493739 4.966949249862825  5.2651717108358165 5.126102514994204  C 5.096033295811915 5.498421424014765  5.039360200721342 6.0893222856326945  5.039360200721342 6.912050803890933  C 5.039377740575113 7.733890619388986  5.096088669639182 8.332412903530331  5.267053473420104 8.71236328814072  C 5.34070853834076 8.875996304870547  5.420316131768862 8.961250198469617  5.5003920338717265 9.013053777531374  C 5.582048114347705 9.065834144233522  5.738236074221812 9.131768387273182  6.0413987768543205 9.131797792449976  C 6.0413987768543205 9.131797792449976  6.0413987768543205 10.112393528551989  6.0413987768543205 10.112393528551989  C 6.0413987768543205 10.112393528551989  5.879567194605613 10.107605463434304  5.879567194605613 10.107605463434304  C 4.460022537353478 10.025832834950824  4.1447968826186266 8.855504108000401  4.087188333071977 7.515347008719318  C 4.087188333071977 7.515347008719318  4.0758977575662545 6.912050803890933  4.0758977575662545 6.912050803890933  C 4.0758977575662545 5.2882459682897  4.261109527831954 3.734809027027083  6.0413987768543205 3.7346907917947685  C 6.0413987768543205 3.7346907917947685  6.204171240395171 3.739478856912454  6.204171240395171 3.739478856912454  C 7.834880348505861 3.8322542158924433  8.030421828445977 5.3390063554083085  8.030421828445977 6.912050803890933  C 8.030421828445977 6.912050803890933  8.01819037164811 7.515347008719318  8.01819037164811 7.515347008719318  C 7.954026627656488 8.90506011438396  7.599353940430453 10.112393528551989  6.0413987768543205 10.112393528551989  C 6.0413987768543205 10.112393528551989  6.0413987768543205 9.131797792449976  6.0413987768543205 9.131797792449976  C 6.344679750056967 9.131797792449976  6.50455922902481 9.065925571612187  6.589932570174063 9.0111385514843  C 6.673779477290979 8.957267372281697  6.755370966932403 8.869577173564014  6.8307981809628355 8.705659996975958  Z M 12 0.14172672748349377  C 12 0.14172672748349377  12 12.936394334962955  12 12.936394334962955  C 12 14.647078121160884  11.396601640600498 16.181431005645273  10.271601066332131 17.286830300892092  C 9.147838384955211 18.39096676734335  7.572221253197526 18.999943327220837  5.741257644660498 19  C 4.7560640825304805 19  3.858776420939019 18.900596009946554  3.0164654226125136 18.605463434302706  C 2.1634522441488944 18.306512183848902  1.415558832798779 17.82442124176756  0.7028383252313 17.125951312937858  C 0.7028383252313 17.125951312937858  0 16.437427549014668  0 16.437427549014668  C 0 16.437427549014668  2.9506037321624587 13.395090973237236  2.9506037321624587 13.395090973237236  C 2.447400903484936 13.17028266564894  1.9943012670044693 12.863208654432622  1.6145522973184885 12.476740083665138  C 0.15920602727575664 10.995513213100793  0.10632601827315862 8.98973604068359  0.10631958601223146 6.912050803890933  C 0.10631958601223146 4.831259637162316  0.1598865352903991 2.8508791991055453  1.6145522973184885 1.3703442366816188  C 2.5012687693873 0.46787076274940465  3.8062910487028576 0  5.18613768229575 0  C 5.89443477291438 0  6.5455006226600485 0.09775365061664057  7.159165751920966 0.3581472708028829  C 7.159165751920966 0.3581472708028829  7.159165751920966 0.14172672748349377  7.159165751920966 0.14172672748349377  L 12 0.14172672748349377  Z " fill-rule="nonzero" fill="rgba(190, 190, 190, 0.058823529411764705)" stroke="none" transform="matrix(1 0 0 1 1705 430 )" class="fill" />
    <path d="M 11 1.1223224635855047  L 8.122628195076054 1.1223224635855047  C 8.122628195076054 1.1223224635855047  8.122628195076054 2.2752885439241974  8.122628195076054 2.2752885439241974  C 7.342255945132409 1.39282546488726  6.5618340784018745 1.0276162875382975  5.419476242747374 0.9853838012196966  C 5.419476242747374 0.9853838012196966  5.18613768229575 0.980595736102011  5.18613768229575 0.980595736102011  C 4.006870125610103 0.980595736102011  2.9663208256662124 1.3811724997174804  2.2957503528304843 2.0636560657224936  C 2.2957503528304843 2.0636560657224936  2.095342637603889 2.2848646741595684  2.095342637603889 2.2848646741595684  C 1.1516673001484827 3.413534714013517  1.0697820291673201 4.904337481020992  1.0697820291673201 6.912050803890933  C 1.0697820291673201 6.912050803890933  1.0763681982123257 7.688674965979537  1.0763681982123257 7.688674965979537  C 1.109568041507888 9.440919180778202  1.3043665222675238 10.774414487017493  2.2957503528304843 11.783428254624264  C 2.9662630542685138 12.465786332643344  3.983541392038772 12.865461099754103  5.162615649992159 12.865530971221208  C 6.341893658362083 12.865530971221208  7.24423625982535 12.536004780485326  8.030421828445977 11.64170152714077  C 8.030421828445977 11.64170152714077  8.030421828445977 12.889471296809635  8.030421828445977 12.889471296809635  C 8.030391142305039 14.136760857213282  7.405564782984751 15.430976261277152  5.60200721342324 15.430976261277152  C 5.60200721342324 15.430976261277152  5.60200721342324 14.450380525175142  5.60200721342324 14.450380525175142  C 6.253837873779795 14.450380525175142  6.56980137722571 14.23006830541821  6.74423710208562 14.010836147371604  C 6.8426544108098435 13.887080313547637  6.920384279478114 13.7297047169529  6.975693899952956 13.5463938309561  C 6.415719474803248 13.755321800501486  5.812942588630282 13.846126707323219  5.162615649992159 13.846126707323219  C 4.697759476653158 13.84610322803739  4.245283151058001 13.791548733989783  3.8152736396424656 13.687162945416059  C 3.8152736396424656 13.687162945416059  3.9131252940254035 13.783881860793306  3.9131252940254035 13.783881860793306  C 4.179621305999588 14.045764065408868  4.411330236393362 14.200551508823763  4.6479535831895875 14.296204828385667  C 4.886588893565561 14.392614816539044  5.182507071540669 14.450356942053391  5.60200721342324 14.450380525175142  C 5.60200721342324 14.450380525175142  5.60200721342324 15.430976261277152  5.60200721342324 15.430976261277152  C 4.584835517288694 15.430928870944701  3.914605700448144 15.148407534602237  3.244158695311275 14.489642659140165  C 3.244158695311275 14.489642659140165  1.3708640426532852 16.41923290156746  1.3708640426532852 16.41923290156746  C 2.5414407367296534 17.56650029600559  3.7322049164110274 17.969706042424175  5.400658616904501 18.01557381180384  C 5.400658616904501 18.01557381180384  5.741257644660498 18.01940426389799  5.741257644660498 18.01940426389799  C 8.877023185740747 18.019295129075786  10.905996048957068 16.010113077186286  11.029951387799905 13.210271659694572  C 11.029951387799905 13.210271659694572  11 12.936394334962955  11 12.936394334962955  L 11 1.1223224635855047  Z " stroke-width="0" stroke-dasharray="0" stroke="rgba(121, 121, 121, 1)" fill="none" transform="matrix(1 0 0 1 1705 430 )" class="stroke" mask="url(#Clip5023)" />
    <path d="M 6.8307981809628355 8.705659996975958  C 7.005062228294493 8.326663426265176  7.066940131746915 7.727703775286969  7.06695938529089 6.912050803890933  C 7.06695938529089 6.0954345500094895  7.005129862751392 5.504161958726662  6.832679943547122 5.132805806158964  C 6.758538380001189 4.973232986237168  6.678162882091372 4.8879607837831385  6.594636976634781 4.83498815583892  C 6.508779354971817 4.78059222994898  6.347269240976484 4.7152865278967795  6.0413987768543205 4.7152865278967795  C 5.735700593242194 4.715315557306484  5.5778359204825145 4.780665483633829  5.495687627411009 4.833072929791845  C 5.41599574574337 4.883971331046357  5.337523143493739 4.966949249862825  5.2651717108358165 5.126102514994204  C 5.096033295811915 5.498421424014765  5.039360200721342 6.0893222856326945  5.039360200721342 6.912050803890933  C 5.039377740575113 7.733890619388986  5.096088669639182 8.332412903530331  5.267053473420104 8.71236328814072  C 5.34070853834076 8.875996304870547  5.420316131768862 8.961250198469617  5.5003920338717265 9.013053777531374  C 5.582048114347705 9.065834144233522  5.738236074221812 9.131768387273182  6.0413987768543205 9.131797792449976  C 6.0413987768543205 9.131797792449976  6.0413987768543205 10.112393528551989  6.0413987768543205 10.112393528551989  C 6.0413987768543205 10.112393528551989  5.879567194605613 10.107605463434304  5.879567194605613 10.107605463434304  C 4.460022537353478 10.025832834950824  4.1447968826186266 8.855504108000401  4.087188333071977 7.515347008719318  C 4.087188333071977 7.515347008719318  4.0758977575662545 6.912050803890933  4.0758977575662545 6.912050803890933  C 4.0758977575662545 5.2882459682897  4.261109527831954 3.734809027027083  6.0413987768543205 3.7346907917947685  C 6.0413987768543205 3.7346907917947685  6.204171240395171 3.739478856912454  6.204171240395171 3.739478856912454  C 7.834880348505861 3.8322542158924433  8.030421828445977 5.3390063554083085  8.030421828445977 6.912050803890933  C 8.030421828445977 6.912050803890933  8.01819037164811 7.515347008719318  8.01819037164811 7.515347008719318  C 7.954026627656488 8.90506011438396  7.599353940430453 10.112393528551989  6.0413987768543205 10.112393528551989  C 6.0413987768543205 10.112393528551989  6.0413987768543205 9.131797792449976  6.0413987768543205 9.131797792449976  C 6.344679750056967 9.131797792449976  6.50455922902481 9.065925571612187  6.589932570174063 9.0111385514843  C 6.673779477290979 8.957267372281697  6.755370966932403 8.869577173564014  6.8307981809628355 8.705659996975958  Z " stroke-width="0" stroke-dasharray="0" stroke="rgba(121, 121, 121, 1)" fill="none" transform="matrix(1 0 0 1 1705 430 )" class="stroke" mask="url(#Clip5023)" />
    <path d="M 12 0.14172672748349377  C 12 0.14172672748349377  12 12.936394334962955  12 12.936394334962955  C 12 14.647078121160884  11.396601640600498 16.181431005645273  10.271601066332131 17.286830300892092  C 9.147838384955211 18.39096676734335  7.572221253197526 18.999943327220837  5.741257644660498 19  C 4.7560640825304805 19  3.858776420939019 18.900596009946554  3.0164654226125136 18.605463434302706  C 2.1634522441488944 18.306512183848902  1.415558832798779 17.82442124176756  0.7028383252313 17.125951312937858  C 0.7028383252313 17.125951312937858  0 16.437427549014668  0 16.437427549014668  C 0 16.437427549014668  2.9506037321624587 13.395090973237236  2.9506037321624587 13.395090973237236  C 2.447400903484936 13.17028266564894  1.9943012670044693 12.863208654432622  1.6145522973184885 12.476740083665138  C 0.15920602727575664 10.995513213100793  0.10632601827315862 8.98973604068359  0.10631958601223146 6.912050803890933  C 0.10631958601223146 4.831259637162316  0.1598865352903991 2.8508791991055453  1.6145522973184885 1.3703442366816188  C 2.5012687693873 0.46787076274940465  3.8062910487028576 0  5.18613768229575 0  C 5.89443477291438 0  6.5455006226600485 0.09775365061664057  7.159165751920966 0.3581472708028829  C 7.159165751920966 0.3581472708028829  7.159165751920966 0.14172672748349377  7.159165751920966 0.14172672748349377  L 12 0.14172672748349377  Z " stroke-width="0" stroke-dasharray="0" stroke="rgba(121, 121, 121, 1)" fill="none" transform="matrix(1 0 0 1 1705 430 )" class="stroke" mask="url(#Clip5023)" />
  </g>
  <style>svg { filter: drop-shadow(0px 4px 2px rgba(0, 0, 0, 0.12941176470588237)); }</style>
</svg>