<?xml version="1.0" encoding="utf-8"?>
<svg version="1.1" xmlns:xlink="http://www.w3.org/1999/xlink" width="11px" height="25px" xmlns="http://www.w3.org/2000/svg">
  <defs>
    <pattern id="BGPattern" patternUnits="userSpaceOnUse" alignment="0 0" imageRepeat="None" />
    <mask fill="white" id="Clip5010">
      <path d="M 3 4.629888094221957  L 3 17  L 0 17  L 0 4.629888094221957  L 3 4.629888094221957  Z M 3 0  L 3 2.5167599214817025  L 0 2.5167599214817025  L 0 0  L 3 0  Z " fill-rule="evenodd" />
    </mask>
  </defs>
  <g transform="matrix(1 0 0 1 -1600 -427 )">
    <path d="M 3 4.629888094221957  L 3 17  L 0 17  L 0 4.629888094221957  L 3 4.629888094221957  Z M 3 0  L 3 2.5167599214817025  L 0 2.5167599214817025  L 0 0  L 3 0  Z " fill-rule="nonzero" fill="rgba(255, 255, 255, 1)" stroke="none" transform="matrix(1 0 0 1 1604 427 )" class="fill" />
    <path d="M 3 4.629888094221957  L 3 17  L 0 17  L 0 4.629888094221957  L 3 4.629888094221957  Z " stroke-width="0" stroke-dasharray="0" stroke="rgba(121, 121, 121, 1)" fill="none" transform="matrix(1 0 0 1 1604 427 )" class="stroke" mask="url(#Clip5010)" />
    <path d="M 3 0  L 3 2.5167599214817025  L 0 2.5167599214817025  L 0 0  L 3 0  Z " stroke-width="0" stroke-dasharray="0" stroke="rgba(121, 121, 121, 1)" fill="none" transform="matrix(1 0 0 1 1604 427 )" class="stroke" mask="url(#Clip5010)" />
  </g>
  <style>svg { filter: drop-shadow(0px 4px 2px rgba(0, 0, 0, 0.12941176470588237)); }</style>
</svg>