<?xml version="1.0" encoding="utf-8"?>
<svg version="1.1" xmlns:xlink="http://www.w3.org/1999/xlink" width="10px" height="12px" xmlns="http://www.w3.org/2000/svg">
  <defs>
    <pattern id="BGPattern" patternUnits="userSpaceOnUse" alignment="0 0" imageRepeat="None" />
    <mask fill="white" id="Clip5123">
      <path d="M 8.507457021303516 1.3333332282105006  C 9.751241024688039 2.5476189481277953  10 4.190477093406236  10 6.000001419158242  C 10 7.809525390120687  9.751241024688039 9.452380933609017  8.507457021303516 10.6666667717895  C 7.661683869347926 11.476190585067696  6.492524691992598 12  4.999984184472314 12  C 3.5074436769520316 12  2.338315945313859 11.476190585067696  1.4925429786964841 10.6666667717895  C 0.24875922242958137 9.452380933609017  0 7.809525390120687  0 6.000001419158242  C 0 4.190477093406236  0.24875922242958137 2.5476189481277953  1.4925429786964841 1.3333332282105006  C 2.338315945313859 0.5238098879850515  3.5074436769520316 0  4.999984184472314 0  C 6.492524691992598 0  7.661683869347926 0.5238098879850515  8.507457021303516 1.3333332282105006  Z M 7.238798652517041 9.61904794192489  C 8.134323253570356 8.761904924281994  8.208954751775293 7.309525074752189  8.208954751775293 6.000001419158242  C 8.208954751775293 4.690477053985173  8.134323253570356 3.238095253112786  7.238798652517041 2.380952058075109  C 6.666658099922504 1.8333329522630644  5.8706326903003365 1.5238098091429269  4.999984184472314 1.5238098091429269  C 4.129335307967863 1.5238098091429269  3.358203909598444 1.8333329522630644  2.786063357003906 2.380952058075109  C 1.8905387559505924 3.238095253112786  1.791045248224707 4.690477053985173  1.791045248224707 6.000001419158242  C 1.791045248224707 7.309525074752189  1.8905387559505924 8.761904924281994  2.786063357003906 9.61904794192489  C 3.358203909598444 10.166667047736935  4.129335307967863 10.476191136962568  4.999984184472314 10.476191136962568  C 5.8706326903003365 10.476191136962568  6.666658099922504 10.166667047736935  7.238798652517041 9.61904794192489  Z " fill-rule="evenodd" />
    </mask>
  </defs>
  <g transform="matrix(1 0 0 1 -1773 -273 )">
    <path d="M 8.507457021303516 1.3333332282105006  C 9.751241024688039 2.5476189481277953  10 4.190477093406236  10 6.000001419158242  C 10 7.809525390120687  9.751241024688039 9.452380933609017  8.507457021303516 10.6666667717895  C 7.661683869347926 11.476190585067696  6.492524691992598 12  4.999984184472314 12  C 3.5074436769520316 12  2.338315945313859 11.476190585067696  1.4925429786964841 10.6666667717895  C 0.24875922242958137 9.452380933609017  0 7.809525390120687  0 6.000001419158242  C 0 4.190477093406236  0.24875922242958137 2.5476189481277953  1.4925429786964841 1.3333332282105006  C 2.338315945313859 0.5238098879850515  3.5074436769520316 0  4.999984184472314 0  C 6.492524691992598 0  7.661683869347926 0.5238098879850515  8.507457021303516 1.3333332282105006  Z M 7.238798652517041 9.61904794192489  C 8.134323253570356 8.761904924281994  8.208954751775293 7.309525074752189  8.208954751775293 6.000001419158242  C 8.208954751775293 4.690477053985173  8.134323253570356 3.238095253112786  7.238798652517041 2.380952058075109  C 6.666658099922504 1.8333329522630644  5.8706326903003365 1.5238098091429269  4.999984184472314 1.5238098091429269  C 4.129335307967863 1.5238098091429269  3.358203909598444 1.8333329522630644  2.786063357003906 2.380952058075109  C 1.8905387559505924 3.238095253112786  1.791045248224707 4.690477053985173  1.791045248224707 6.000001419158242  C 1.791045248224707 7.309525074752189  1.8905387559505924 8.761904924281994  2.786063357003906 9.61904794192489  C 3.358203909598444 10.166667047736935  4.129335307967863 10.476191136962568  4.999984184472314 10.476191136962568  C 5.8706326903003365 10.476191136962568  6.666658099922504 10.166667047736935  7.238798652517041 9.61904794192489  Z " fill-rule="nonzero" fill="rgba(255, 255, 255, 1)" stroke="none" transform="matrix(1 0 0 1 1773 273 )" class="fill" />
    <path d="M 8.507457021303516 1.3333332282105006  C 9.751241024688039 2.5476189481277953  10 4.190477093406236  10 6.000001419158242  C 10 7.809525390120687  9.751241024688039 9.452380933609017  8.507457021303516 10.6666667717895  C 7.661683869347926 11.476190585067696  6.492524691992598 12  4.999984184472314 12  C 3.5074436769520316 12  2.338315945313859 11.476190585067696  1.4925429786964841 10.6666667717895  C 0.24875922242958137 9.452380933609017  0 7.809525390120687  0 6.000001419158242  C 0 4.190477093406236  0.24875922242958137 2.5476189481277953  1.4925429786964841 1.3333332282105006  C 2.338315945313859 0.5238098879850515  3.5074436769520316 0  4.999984184472314 0  C 6.492524691992598 0  7.661683869347926 0.5238098879850515  8.507457021303516 1.3333332282105006  Z " stroke-width="0" stroke-dasharray="0" stroke="rgba(121, 121, 121, 1)" fill="none" transform="matrix(1 0 0 1 1773 273 )" class="stroke" mask="url(#Clip5123)" />
    <path d="M 7.238798652517041 9.61904794192489  C 8.134323253570356 8.761904924281994  8.208954751775293 7.309525074752189  8.208954751775293 6.000001419158242  C 8.208954751775293 4.690477053985173  8.134323253570356 3.238095253112786  7.238798652517041 2.380952058075109  C 6.666658099922504 1.8333329522630644  5.8706326903003365 1.5238098091429269  4.999984184472314 1.5238098091429269  C 4.129335307967863 1.5238098091429269  3.358203909598444 1.8333329522630644  2.786063357003906 2.380952058075109  C 1.8905387559505924 3.238095253112786  1.791045248224707 4.690477053985173  1.791045248224707 6.000001419158242  C 1.791045248224707 7.309525074752189  1.8905387559505924 8.761904924281994  2.786063357003906 9.61904794192489  C 3.358203909598444 10.166667047736935  4.129335307967863 10.476191136962568  4.999984184472314 10.476191136962568  C 5.8706326903003365 10.476191136962568  6.666658099922504 10.166667047736935  7.238798652517041 9.61904794192489  Z " stroke-width="0" stroke-dasharray="0" stroke="rgba(121, 121, 121, 1)" fill="none" transform="matrix(1 0 0 1 1773 273 )" class="stroke" mask="url(#Clip5123)" />
  </g>
</svg>