<?xml version="1.0" encoding="utf-8"?>
<svg version="1.1" xmlns:xlink="http://www.w3.org/1999/xlink" width="19px" height="21px" xmlns="http://www.w3.org/2000/svg">
  <defs>
    <pattern id="BGPattern" patternUnits="userSpaceOnUse" alignment="0 0" imageRepeat="None" />
    <mask fill="white" id="Clip5002">
      <path d="M 11 6.073170648063158  C 11 6.073170648063158  11 7.4878050162434775  11 7.4878050162434775  C 11 7.4878050162434775  3.101344387183509 7.4878050162434775  3.101344387183509 7.4878050162434775  C 3.101344387183509 9.121951421803775  4.094729199196869 10.317073752604115  5.863452274254985 10.317073752604115  C 7.244510309594163 10.317073752604115  7.922925302487116 9.926829417170195  8.722484875644186 9.121951179508466  C 8.722484875644186 9.121951179508466  10.63657853461797 11.000001491048046  10.63657853461797 11.000001491048046  C 9.352437029989638 12.292684511976994  8.116739830446168 13  5.839205691239076 13  C 2.8590282688914406 13  0 11.63414743065583  0 6.4878057617675005  C 0 2.341463831945764  2.2290734669084697 0  5.5 0  C 9.013217378480002 0  11 2.5853655572672785  11 6.073170648063158  Z M 3.101344387183509 5.317073603499311  C 3.101344387183509 5.317073603499311  7.898686421689447 5.317073603499311  7.898686421689447 5.317073603499311  C 7.874456927970256 4.756097939192675  7.8017754269479616 4.414634554561324  7.607943087609231 3.95122006497391  C 7.268735230121274 3.1951220512288323  6.566079671570412 2.6341463869221964  5.5 2.6341463869221964  C 4.433919967388108 2.6341463869221964  3.7312948566687205 3.1951220512288323  3.3920877212637244 3.95122006497391  C 3.1982550208835145 4.414634554561324  3.12557351986122 4.756097939192675  3.101344387183509 5.317073603499311  Z " fill-rule="evenodd" />
    </mask>
  </defs>
  <g transform="matrix(1 0 0 1 -1729 -431 )">
    <path d="M 11 6.073170648063158  C 11 6.073170648063158  11 7.4878050162434775  11 7.4878050162434775  C 11 7.4878050162434775  3.101344387183509 7.4878050162434775  3.101344387183509 7.4878050162434775  C 3.101344387183509 9.121951421803775  4.094729199196869 10.317073752604115  5.863452274254985 10.317073752604115  C 7.244510309594163 10.317073752604115  7.922925302487116 9.926829417170195  8.722484875644186 9.121951179508466  C 8.722484875644186 9.121951179508466  10.63657853461797 11.000001491048046  10.63657853461797 11.000001491048046  C 9.352437029989638 12.292684511976994  8.116739830446168 13  5.839205691239076 13  C 2.8590282688914406 13  0 11.63414743065583  0 6.4878057617675005  C 0 2.341463831945764  2.2290734669084697 0  5.5 0  C 9.013217378480002 0  11 2.5853655572672785  11 6.073170648063158  Z M 3.101344387183509 5.317073603499311  C 3.101344387183509 5.317073603499311  7.898686421689447 5.317073603499311  7.898686421689447 5.317073603499311  C 7.874456927970256 4.756097939192675  7.8017754269479616 4.414634554561324  7.607943087609231 3.95122006497391  C 7.268735230121274 3.1951220512288323  6.566079671570412 2.6341463869221964  5.5 2.6341463869221964  C 4.433919967388108 2.6341463869221964  3.7312948566687205 3.1951220512288323  3.3920877212637244 3.95122006497391  C 3.1982550208835145 4.414634554561324  3.12557351986122 4.756097939192675  3.101344387183509 5.317073603499311  Z " fill-rule="nonzero" fill="rgba(255, 255, 255, 1)" stroke="none" transform="matrix(1 0 0 1 1733 431 )" class="fill" />
    <path d="M 11 6.073170648063158  C 11 6.073170648063158  11 7.4878050162434775  11 7.4878050162434775  C 11 7.4878050162434775  3.101344387183509 7.4878050162434775  3.101344387183509 7.4878050162434775  C 3.101344387183509 9.121951421803775  4.094729199196869 10.317073752604115  5.863452274254985 10.317073752604115  C 7.244510309594163 10.317073752604115  7.922925302487116 9.926829417170195  8.722484875644186 9.121951179508466  C 8.722484875644186 9.121951179508466  10.63657853461797 11.000001491048046  10.63657853461797 11.000001491048046  C 9.352437029989638 12.292684511976994  8.116739830446168 13  5.839205691239076 13  C 2.8590282688914406 13  0 11.63414743065583  0 6.4878057617675005  C 0 2.341463831945764  2.2290734669084697 0  5.5 0  C 9.013217378480002 0  11 2.5853655572672785  11 6.073170648063158  Z " stroke-width="0" stroke-dasharray="0" stroke="rgba(121, 121, 121, 1)" fill="none" transform="matrix(1 0 0 1 1733 431 )" class="stroke" mask="url(#Clip5002)" />
    <path d="M 3.101344387183509 5.317073603499311  C 3.101344387183509 5.317073603499311  7.898686421689447 5.317073603499311  7.898686421689447 5.317073603499311  C 7.874456927970256 4.756097939192675  7.8017754269479616 4.414634554561324  7.607943087609231 3.95122006497391  C 7.268735230121274 3.1951220512288323  6.566079671570412 2.6341463869221964  5.5 2.6341463869221964  C 4.433919967388108 2.6341463869221964  3.7312948566687205 3.1951220512288323  3.3920877212637244 3.95122006497391  C 3.1982550208835145 4.414634554561324  3.12557351986122 4.756097939192675  3.101344387183509 5.317073603499311  Z " stroke-width="0" stroke-dasharray="0" stroke="rgba(121, 121, 121, 1)" fill="none" transform="matrix(1 0 0 1 1733 431 )" class="stroke" mask="url(#Clip5002)" />
  </g>
  <style>svg { filter: drop-shadow(0px 4px 2px rgba(0, 0, 0, 0.12941176470588237)); }</style>
</svg>