<?xml version="1.0" encoding="utf-8"?>
<svg version="1.1" xmlns:xlink="http://www.w3.org/1999/xlink" width="6px" height="23px" xmlns="http://www.w3.org/2000/svg">
  <defs>
    <pattern id="BGPattern" patternUnits="userSpaceOnUse" alignment="0 0" imageRepeat="None" />
    <mask fill="white" id="Clip5080">
      <path d="M 0.5560028671582731 15.921220689791042  C 0.18534686969158412 14.536066435221436  0 13.062321165192357  0 11.499996159924773  C 0 9.921564919143043  0.18534686969158412 8.447827089259711  0.5560028671582731 7.078779310208956  C 0.9421026727413764 5.709732011167607  1.4826359568158833 4.437323085229969  2.1776165274000174 3.261552532396043  C 2.872597097984152 2.069675744047967  3.683396563828638 0.9824938066265007  4.610037017762634 0  C 4.610037017762634 0  6 0.7489452315114569  6 0.7489452315114569  C 5.119690970415247 1.6992256070908491  4.355206359298135 2.7380917180262814  3.7065581335977926 3.8655426042989474  C 3.05790990789745 4.976887255057463  2.555982001708512 6.168765963443152  2.2007698123582378 7.44117488938079  C 1.8610014311243779 8.697477579804277  1.6911324293274943 10.05041624328446  1.6911324293274943 11.499996159924773  C 1.6911324293274943 12.933469841050938  1.8610014311243779 14.286416184681572  2.2007698123582378 15.558825110619209  C 2.555982001708512 16.83123427656155  3.05790990789745 18.02310518479444  3.7065581335977926 19.134449715550602  C 4.355206359298135 20.245794366309116  5.119690970415247 21.284660417243373  6 22.251047088338094  C 6 22.251047088338094  4.610037017762634 23  4.610037017762634 23  C 3.683396563828638 22.0014005578711  2.872597097984152 20.91421778043318  2.1776165274000174 19.738447467603958  C 1.4826359568158833 18.56267703477238  0.9421026727413764 17.290268468841795  0.5560028671582731 15.921220689791042  Z " fill-rule="evenodd" />
    </mask>
  </defs>
  <g transform="matrix(1 0 0 1 -1729 -326 )">
    <path d="M 0.5560028671582731 15.921220689791042  C 0.18534686969158412 14.536066435221436  0 13.062321165192357  0 11.499996159924773  C 0 9.921564919143043  0.18534686969158412 8.447827089259711  0.5560028671582731 7.078779310208956  C 0.9421026727413764 5.709732011167607  1.4826359568158833 4.437323085229969  2.1776165274000174 3.261552532396043  C 2.872597097984152 2.069675744047967  3.683396563828638 0.9824938066265007  4.610037017762634 0  C 4.610037017762634 0  6 0.7489452315114569  6 0.7489452315114569  C 5.119690970415247 1.6992256070908491  4.355206359298135 2.7380917180262814  3.7065581335977926 3.8655426042989474  C 3.05790990789745 4.976887255057463  2.555982001708512 6.168765963443152  2.2007698123582378 7.44117488938079  C 1.8610014311243779 8.697477579804277  1.6911324293274943 10.05041624328446  1.6911324293274943 11.499996159924773  C 1.6911324293274943 12.933469841050938  1.8610014311243779 14.286416184681572  2.2007698123582378 15.558825110619209  C 2.555982001708512 16.83123427656155  3.05790990789745 18.02310518479444  3.7065581335977926 19.134449715550602  C 4.355206359298135 20.245794366309116  5.119690970415247 21.284660417243373  6 22.251047088338094  C 6 22.251047088338094  4.610037017762634 23  4.610037017762634 23  C 3.683396563828638 22.0014005578711  2.872597097984152 20.91421778043318  2.1776165274000174 19.738447467603958  C 1.4826359568158833 18.56267703477238  0.9421026727413764 17.290268468841795  0.5560028671582731 15.921220689791042  Z " fill-rule="nonzero" fill="rgba(255, 255, 255, 1)" stroke="none" transform="matrix(1 0 0 1 1729 326 )" class="fill" />
    <path d="M 0.5560028671582731 15.921220689791042  C 0.18534686969158412 14.536066435221436  0 13.062321165192357  0 11.499996159924773  C 0 9.921564919143043  0.18534686969158412 8.447827089259711  0.5560028671582731 7.078779310208956  C 0.9421026727413764 5.709732011167607  1.4826359568158833 4.437323085229969  2.1776165274000174 3.261552532396043  C 2.872597097984152 2.069675744047967  3.683396563828638 0.9824938066265007  4.610037017762634 0  C 4.610037017762634 0  6 0.7489452315114569  6 0.7489452315114569  C 5.119690970415247 1.6992256070908491  4.355206359298135 2.7380917180262814  3.7065581335977926 3.8655426042989474  C 3.05790990789745 4.976887255057463  2.555982001708512 6.168765963443152  2.2007698123582378 7.44117488938079  C 1.8610014311243779 8.697477579804277  1.6911324293274943 10.05041624328446  1.6911324293274943 11.499996159924773  C 1.6911324293274943 12.933469841050938  1.8610014311243779 14.286416184681572  2.2007698123582378 15.558825110619209  C 2.555982001708512 16.83123427656155  3.05790990789745 18.02310518479444  3.7065581335977926 19.134449715550602  C 4.355206359298135 20.245794366309116  5.119690970415247 21.284660417243373  6 22.251047088338094  C 6 22.251047088338094  4.610037017762634 23  4.610037017762634 23  C 3.683396563828638 22.0014005578711  2.872597097984152 20.91421778043318  2.1776165274000174 19.738447467603958  C 1.4826359568158833 18.56267703477238  0.9421026727413764 17.290268468841795  0.5560028671582731 15.921220689791042  Z " stroke-width="0" stroke-dasharray="0" stroke="rgba(121, 121, 121, 1)" fill="none" transform="matrix(1 0 0 1 1729 326 )" class="stroke" mask="url(#Clip5080)" />
  </g>
</svg>