<?xml version="1.0" encoding="utf-8"?>
<svg version="1.1" xmlns:xlink="http://www.w3.org/1999/xlink" width="24px" height="31px" xmlns="http://www.w3.org/2000/svg">
  <defs>
    <pattern id="BGPattern" patternUnits="userSpaceOnUse" alignment="0 0" imageRepeat="None" />
    <mask fill="white" id="Clip5050">
      <path d="M 8.641876740898338 0  C 13.244615520998092 0  16 3.2626407469064604  16 7.171348282155659  C 16 11.080055817404858  13.244615520998092 14.342696564311318  8.641876740898338 14.342696564311318  C 8.641876740898338 14.342696564311318  4.352250978635649 14.342696564311318  4.352250978635649 14.342696564311318  L 4.352250978635649 23  L 0 23  L 0 0  C 0 0  8.641876740898338 0  8.641876740898338 0  Z M 8.422699681331038 10.304775286307391  C 10.395301615740287 10.304775286307391  11.647749021364351 9.044943701237417  11.647749021364351 7.171348282155659  C 11.647749021364351 5.297751900358448  10.395301615740287 4.005618323672972  8.422699681331038 4.005618323672972  C 8.422699681331038 4.005618323672972  4.352250978635649 4.005618323672972  4.352250978635649 4.005618323672972  L 4.352250978635649 10.304775286307391  C 4.352250978635649 10.304775286307391  8.422699681331038 10.304775286307391  8.422699681331038 10.304775286307391  Z " fill-rule="evenodd" />
    </mask>
  </defs>
  <g transform="matrix(1 0 0 1 -736 -994 )">
    <path d="M 8.641876740898338 0  C 13.244615520998092 0  16 3.2626407469064604  16 7.171348282155659  C 16 11.080055817404858  13.244615520998092 14.342696564311318  8.641876740898338 14.342696564311318  C 8.641876740898338 14.342696564311318  4.352250978635649 14.342696564311318  4.352250978635649 14.342696564311318  L 4.352250978635649 23  L 0 23  L 0 0  C 0 0  8.641876740898338 0  8.641876740898338 0  Z M 8.422699681331038 10.304775286307391  C 10.395301615740287 10.304775286307391  11.647749021364351 9.044943701237417  11.647749021364351 7.171348282155659  C 11.647749021364351 5.297751900358448  10.395301615740287 4.005618323672972  8.422699681331038 4.005618323672972  C 8.422699681331038 4.005618323672972  4.352250978635649 4.005618323672972  4.352250978635649 4.005618323672972  L 4.352250978635649 10.304775286307391  C 4.352250978635649 10.304775286307391  8.422699681331038 10.304775286307391  8.422699681331038 10.304775286307391  Z " fill-rule="nonzero" fill="rgba(255, 255, 255, 1)" stroke="none" transform="matrix(1 0 0 1 740 994 )" class="fill" />
    <path d="M 8.641876740898338 0  C 13.244615520998092 0  16 3.2626407469064604  16 7.171348282155659  C 16 11.080055817404858  13.244615520998092 14.342696564311318  8.641876740898338 14.342696564311318  C 8.641876740898338 14.342696564311318  4.352250978635649 14.342696564311318  4.352250978635649 14.342696564311318  L 4.352250978635649 23  L 0 23  L 0 0  C 0 0  8.641876740898338 0  8.641876740898338 0  Z " stroke-width="0" stroke-dasharray="0" stroke="rgba(121, 121, 121, 1)" fill="none" transform="matrix(1 0 0 1 740 994 )" class="stroke" mask="url(#Clip5050)" />
    <path d="M 8.422699681331038 10.304775286307391  C 10.395301615740287 10.304775286307391  11.647749021364351 9.044943701237417  11.647749021364351 7.171348282155659  C 11.647749021364351 5.297751900358448  10.395301615740287 4.005618323672972  8.422699681331038 4.005618323672972  C 8.422699681331038 4.005618323672972  4.352250978635649 4.005618323672972  4.352250978635649 4.005618323672972  L 4.352250978635649 10.304775286307391  C 4.352250978635649 10.304775286307391  8.422699681331038 10.304775286307391  8.422699681331038 10.304775286307391  Z " stroke-width="0" stroke-dasharray="0" stroke="rgba(121, 121, 121, 1)" fill="none" transform="matrix(1 0 0 1 740 994 )" class="stroke" mask="url(#Clip5050)" />
  </g>
  <style>svg { filter: drop-shadow(0px 4px 2px rgba(0, 0, 0, 0.12941176470588237)); }</style>
</svg>