<?xml version="1.0" encoding="utf-8"?>
<svg version="1.1" xmlns:xlink="http://www.w3.org/1999/xlink" width="23px" height="22px" xmlns="http://www.w3.org/2000/svg">
  <defs>
    <pattern id="BGPattern" patternUnits="userSpaceOnUse" alignment="0 0" imageRepeat="None" />
    <mask fill="white" id="Clip5083">
      <path d="M 7.33368355262449 12.89902720404692  C 7.463627285180875 11.895770154865911  7.561078791595275 10.876582424299743  7.626050657873469 9.841475402593385  C 7.626050657873469 9.841475402593385  9.185383193784416 10.056462479842718  9.185383193784416 10.056462479842718  C 9.104168602975248 11.171193009081822  8.982330258138557 12.269994755309925  8.819901076520221 13.35287531202368  C 8.657471894901885 14.435756106034205  8.454460105813371 15.446979682391646  8.210815849308721 16.38653797300581  C 7.9834148014121915 17.310171751950836  7.691028333077404 18.1382589947988  7.33368355262449 18.87079596412556  C 7.236226237284345 18.791172337944428  7.106279600265089 18.70358651525292  6.943850418646753 18.608038199430073  C 6.797663961559392 18.496565193965516  6.635223646166716 18.393050410290428  6.456551255940258 18.29750215379178  C 6.294122074321921 18.186029148327222  6.139820547971961 18.098443266311524  5.9936340908846 18.03474438909629  C 6.35097838726037 17.365906237660568  6.635226066552441 16.593554726330378  6.846384389917995 15.717695194283062  C 7.057542229206403 14.841835662235747  7.219983028676225 13.902284253227927  7.33368355262449 12.89902720404692  Z M 6.992583433011132 6.927258443968278  L 6.992583433011132 5.255162887406392  L 16.129233612431168 5.255162887406392  L 16.129233612431168 6.927258443968278  L 6.992583433011132 6.927258443968278  Z M 11 21.617804126444145  L 11 0.3344251861096998  L 12 0.3344251861096998  L 12 21.617804126444145  L 11 21.617804126444145  Z M 14.131334928178106 12.56460201793722  C 13.96890574655977 11.704666997559038  13.782141038696537 10.900472988551769  13.570982715330985 10.152011448231683  C 13.570982715330985 10.152011448231683  15.008467224862338 9.889253683536195  15.008467224862338 9.889253683536195  C 15.203382823696916 10.637715698449822  15.390178512497442 11.44190970745709  15.568850418646752 12.301844253241732  C 15.76376601748133 13.145854287357242  15.926206816951153 13.973941708177781  16.05614958135325 14.786102244361484  C 16.20233603844061 15.598263017841957  16.299787544855008 16.33080004649291  16.348516686602224 16.983713330314345  C 16.348516686602224 16.983713330314345  14.8622681817692 17.270360235481235  14.8622681817692 17.270360235481235  C 14.813539040021983 16.617446833011417  14.724226806727442 15.884909685712078  14.594283074171058 15.072749149528374  C 14.464340309768962 14.244663864378769  14.310007802481707 13.40861205205273  14.131334928178106 12.56460201793722  Z M 16.835784868371427 3.0097735205107248  L 16.835784868371427 1.4093377918663987  L 22.65889988038664 1.4093377918663987  L 22.65889988038664 3.0097735205107248  L 16.835784868371427 3.0097735205107248  Z M 16.25105065787347 9.626495918840709  L 16.25105065787347 8.002171049724979  L 23 8.002171049724979  L 23 9.626495918840709  L 16.25105065787347 9.626495918840709  Z M 14.277533971271243 2.8903354116503563  C 13.887702773602086 2.2533464022012857  13.48975650667033 1.6800592361770748  13.083683552624489 1.1704691676423158  C 13.083683552624489 1.1704691676423158  14.32626698563562 0.5971829508051868  14.32626698563562 0.5971829508051868  C 14.748583632366728 1.090849456857894  15.154669172418346 1.648207365277563  15.54449940193321 2.269270913870419  C 15.950572355979052 2.8744108999812235  16.242927843376545 3.399933073681769  16.421600717680146 3.845825095539994  C 16.421600717680146 3.845825095539994  15.130284270304637 4.490771140294683  15.130284270304637 4.490771140294683  C 14.951612364155325 4.044879118436458  14.667364200786109 3.5113999094302946  14.277533971271243 2.8903354116503563  Z M 19.05296662679555 19.850159601493296  C 19.05296662679555 19.850159601493296  19.05296662679555 8.479915891669796  19.05296662679555 8.479915891669796  L 20.807200239226713 8.479915891669796  C 20.807200239226713 8.479915891669796  20.807200239226713 19.850159601493296  20.807200239226713 19.850159601493296  C 20.807200239226713 20.343825870249233  20.742211914325587 20.72601945982367  20.612268181769203 20.99673962866421  C 20.49856717374379 21.283384576132743  20.263060738127567 21.50633527367307  19.905716925828944 21.665582407386953  C 19.564614869907004 21.792980161817415  19.10981955119398 21.87260153367923  18.54131644737551 21.904451031611035  C 17.972814311711332 21.95222515986036  17.258125718959796 21.976110859528596  16.397249700966604 21.976110859528596  C 16.38100697643563 21.73724009963358  16.31601768338021 21.450596813242434  16.20231764350909 21.116177737524577  C 16.104859360014657 20.781758661806712  15.999299561417688 20.48715098391007  15.885599521546569 20.23235547504915  C 16.502830798957962 20.248280194352958  17.063186884422247 20.256244615520554  17.56671812196252 20.256244615520554  C 18.08649208403377 20.272169334824362  18.435728572304118 20.272169334824362  18.614400478453433 20.256244615520554  C 18.793072384602745 20.240319896216747  18.90677145631957 20.200505376459894  18.955500598066788 20.13680650666019  C 19.020472464344984 20.08903235616429  19.05296662679555 19.993482060396516  19.05296662679555 19.850159601493296  Z M 3.581551255940258 1.69598469703329  C 4.052596318302864 1.1067701717787006  4.4261876959039155 0.5414400410601073  4.702317643509089 0  C 4.702317643509089 0  6.383467224862337 0.5971829508051868  6.383467224862337 0.5971829508051868  C 5.993636511270326 1.2500964719233914  5.522593385216301 1.918932606336566  4.970333732044526 2.603696099980119  C 4.418073836834179 3.2725341327674564  3.833331639063325 3.9095212438423648  3.216100119613358 4.514660280766087  C 2.615111687752225 5.11979931768981  1.9978749644729468 5.661243155498244  1.3644004784534316 6.138985149881817  C 1.2994287331945253 6.0275116698237206  1.2019768637222654 5.892147150920056  1.0720333732044527 5.732900135854559  C 0.958332849256188 5.557728609119928  0.8364947464580706 5.390521711187567  0.706551255940258 5.231273746934988  C 0.5766077654224453 5.0561022202003585  0.46290872396043803 4.912780665991075  0.3654511363269001 4.801307185932979  C 0.917710971027604 4.387265136600101  1.4699899267755443 3.917484923457554  2.022249700966605 3.39196939406658  C 2.590752320707928 2.8505284038193905  3.1105061935776517 2.285199222287879  3.581551255940258 1.69598469703329  Z M 3.264833133977737 22  L 3.264833133977737 9.530946950451744  L 4.726699641159926 8.073830877642537  L 5 8.145498299056749  L 5 22  L 3.264833133977737 22  Z M 3.0455500598066787 8.599346407033511  C 4.020126117670988 7.389067383998984  4.816019377650218 6.1230587398385214  5.4332508971001845 4.801307185932979  C 5.4332508971001845 4.801307185932979  7.065667464089053 5.350704262298703  7.065667464089053 5.350704262298703  C 6.594622159687874 6.338037274404117  6.034235093286296 7.317410403642669  5.384517882735805 8.288817954891869  C 4.734800430146742 9.244300994471935  4.044498191740347 10.144045395648789  3.313566148342116 10.988055429764298  C 2.582634104943884 11.832065463879806  1.8435593998857747 12.580531275541762  1.0963843899179948 13.233444796659965  C 1.0314126446590886 13.106047279526276  0.9339607751868285 12.946796942305994  0.8040172846690159 12.755699954715148  C 0.6740737941512032 12.548678930048709  0.5360195305554545 12.34962158499746  0.38983313397773683 12.158524597406615  C 0.2436467374000191 11.951503572740176  0.1137005542030861 11.792252760926353  0 11.680779755461796  C 1.055790648673477 10.836769721346286  2.0709740019423704 9.809624955474497  3.0455500598066787 8.599346407033511  Z " fill-rule="evenodd" />
    </mask>
  </defs>
  <g transform="matrix(1 0 0 1 -1634 -327 )">
    <path d="M 7.33368355262449 12.89902720404692  C 7.463627285180875 11.895770154865911  7.561078791595275 10.876582424299743  7.626050657873469 9.841475402593385  C 7.626050657873469 9.841475402593385  9.185383193784416 10.056462479842718  9.185383193784416 10.056462479842718  C 9.104168602975248 11.171193009081822  8.982330258138557 12.269994755309925  8.819901076520221 13.35287531202368  C 8.657471894901885 14.435756106034205  8.454460105813371 15.446979682391646  8.210815849308721 16.38653797300581  C 7.9834148014121915 17.310171751950836  7.691028333077404 18.1382589947988  7.33368355262449 18.87079596412556  C 7.236226237284345 18.791172337944428  7.106279600265089 18.70358651525292  6.943850418646753 18.608038199430073  C 6.797663961559392 18.496565193965516  6.635223646166716 18.393050410290428  6.456551255940258 18.29750215379178  C 6.294122074321921 18.186029148327222  6.139820547971961 18.098443266311524  5.9936340908846 18.03474438909629  C 6.35097838726037 17.365906237660568  6.635226066552441 16.593554726330378  6.846384389917995 15.717695194283062  C 7.057542229206403 14.841835662235747  7.219983028676225 13.902284253227927  7.33368355262449 12.89902720404692  Z M 6.992583433011132 6.927258443968278  L 6.992583433011132 5.255162887406392  L 16.129233612431168 5.255162887406392  L 16.129233612431168 6.927258443968278  L 6.992583433011132 6.927258443968278  Z M 11 21.617804126444145  L 11 0.3344251861096998  L 12 0.3344251861096998  L 12 21.617804126444145  L 11 21.617804126444145  Z M 14.131334928178106 12.56460201793722  C 13.96890574655977 11.704666997559038  13.782141038696537 10.900472988551769  13.570982715330985 10.152011448231683  C 13.570982715330985 10.152011448231683  15.008467224862338 9.889253683536195  15.008467224862338 9.889253683536195  C 15.203382823696916 10.637715698449822  15.390178512497442 11.44190970745709  15.568850418646752 12.301844253241732  C 15.76376601748133 13.145854287357242  15.926206816951153 13.973941708177781  16.05614958135325 14.786102244361484  C 16.20233603844061 15.598263017841957  16.299787544855008 16.33080004649291  16.348516686602224 16.983713330314345  C 16.348516686602224 16.983713330314345  14.8622681817692 17.270360235481235  14.8622681817692 17.270360235481235  C 14.813539040021983 16.617446833011417  14.724226806727442 15.884909685712078  14.594283074171058 15.072749149528374  C 14.464340309768962 14.244663864378769  14.310007802481707 13.40861205205273  14.131334928178106 12.56460201793722  Z M 16.835784868371427 3.0097735205107248  L 16.835784868371427 1.4093377918663987  L 22.65889988038664 1.4093377918663987  L 22.65889988038664 3.0097735205107248  L 16.835784868371427 3.0097735205107248  Z M 16.25105065787347 9.626495918840709  L 16.25105065787347 8.002171049724979  L 23 8.002171049724979  L 23 9.626495918840709  L 16.25105065787347 9.626495918840709  Z M 14.277533971271243 2.8903354116503563  C 13.887702773602086 2.2533464022012857  13.48975650667033 1.6800592361770748  13.083683552624489 1.1704691676423158  C 13.083683552624489 1.1704691676423158  14.32626698563562 0.5971829508051868  14.32626698563562 0.5971829508051868  C 14.748583632366728 1.090849456857894  15.154669172418346 1.648207365277563  15.54449940193321 2.269270913870419  C 15.950572355979052 2.8744108999812235  16.242927843376545 3.399933073681769  16.421600717680146 3.845825095539994  C 16.421600717680146 3.845825095539994  15.130284270304637 4.490771140294683  15.130284270304637 4.490771140294683  C 14.951612364155325 4.044879118436458  14.667364200786109 3.5113999094302946  14.277533971271243 2.8903354116503563  Z M 19.05296662679555 19.850159601493296  C 19.05296662679555 19.850159601493296  19.05296662679555 8.479915891669796  19.05296662679555 8.479915891669796  L 20.807200239226713 8.479915891669796  C 20.807200239226713 8.479915891669796  20.807200239226713 19.850159601493296  20.807200239226713 19.850159601493296  C 20.807200239226713 20.343825870249233  20.742211914325587 20.72601945982367  20.612268181769203 20.99673962866421  C 20.49856717374379 21.283384576132743  20.263060738127567 21.50633527367307  19.905716925828944 21.665582407386953  C 19.564614869907004 21.792980161817415  19.10981955119398 21.87260153367923  18.54131644737551 21.904451031611035  C 17.972814311711332 21.95222515986036  17.258125718959796 21.976110859528596  16.397249700966604 21.976110859528596  C 16.38100697643563 21.73724009963358  16.31601768338021 21.450596813242434  16.20231764350909 21.116177737524577  C 16.104859360014657 20.781758661806712  15.999299561417688 20.48715098391007  15.885599521546569 20.23235547504915  C 16.502830798957962 20.248280194352958  17.063186884422247 20.256244615520554  17.56671812196252 20.256244615520554  C 18.08649208403377 20.272169334824362  18.435728572304118 20.272169334824362  18.614400478453433 20.256244615520554  C 18.793072384602745 20.240319896216747  18.90677145631957 20.200505376459894  18.955500598066788 20.13680650666019  C 19.020472464344984 20.08903235616429  19.05296662679555 19.993482060396516  19.05296662679555 19.850159601493296  Z M 3.581551255940258 1.69598469703329  C 4.052596318302864 1.1067701717787006  4.4261876959039155 0.5414400410601073  4.702317643509089 0  C 4.702317643509089 0  6.383467224862337 0.5971829508051868  6.383467224862337 0.5971829508051868  C 5.993636511270326 1.2500964719233914  5.522593385216301 1.918932606336566  4.970333732044526 2.603696099980119  C 4.418073836834179 3.2725341327674564  3.833331639063325 3.9095212438423648  3.216100119613358 4.514660280766087  C 2.615111687752225 5.11979931768981  1.9978749644729468 5.661243155498244  1.3644004784534316 6.138985149881817  C 1.2994287331945253 6.0275116698237206  1.2019768637222654 5.892147150920056  1.0720333732044527 5.732900135854559  C 0.958332849256188 5.557728609119928  0.8364947464580706 5.390521711187567  0.706551255940258 5.231273746934988  C 0.5766077654224453 5.0561022202003585  0.46290872396043803 4.912780665991075  0.3654511363269001 4.801307185932979  C 0.917710971027604 4.387265136600101  1.4699899267755443 3.917484923457554  2.022249700966605 3.39196939406658  C 2.590752320707928 2.8505284038193905  3.1105061935776517 2.285199222287879  3.581551255940258 1.69598469703329  Z M 3.264833133977737 22  L 3.264833133977737 9.530946950451744  L 4.726699641159926 8.073830877642537  L 5 8.145498299056749  L 5 22  L 3.264833133977737 22  Z M 3.0455500598066787 8.599346407033511  C 4.020126117670988 7.389067383998984  4.816019377650218 6.1230587398385214  5.4332508971001845 4.801307185932979  C 5.4332508971001845 4.801307185932979  7.065667464089053 5.350704262298703  7.065667464089053 5.350704262298703  C 6.594622159687874 6.338037274404117  6.034235093286296 7.317410403642669  5.384517882735805 8.288817954891869  C 4.734800430146742 9.244300994471935  4.044498191740347 10.144045395648789  3.313566148342116 10.988055429764298  C 2.582634104943884 11.832065463879806  1.8435593998857747 12.580531275541762  1.0963843899179948 13.233444796659965  C 1.0314126446590886 13.106047279526276  0.9339607751868285 12.946796942305994  0.8040172846690159 12.755699954715148  C 0.6740737941512032 12.548678930048709  0.5360195305554545 12.34962158499746  0.38983313397773683 12.158524597406615  C 0.2436467374000191 11.951503572740176  0.1137005542030861 11.792252760926353  0 11.680779755461796  C 1.055790648673477 10.836769721346286  2.0709740019423704 9.809624955474497  3.0455500598066787 8.599346407033511  Z " fill-rule="nonzero" fill="rgba(255, 255, 255, 1)" stroke="none" transform="matrix(1 0 0 1 1634 327 )" class="fill" />
    <path d="M 7.33368355262449 12.89902720404692  C 7.463627285180875 11.895770154865911  7.561078791595275 10.876582424299743  7.626050657873469 9.841475402593385  C 7.626050657873469 9.841475402593385  9.185383193784416 10.056462479842718  9.185383193784416 10.056462479842718  C 9.104168602975248 11.171193009081822  8.982330258138557 12.269994755309925  8.819901076520221 13.35287531202368  C 8.657471894901885 14.435756106034205  8.454460105813371 15.446979682391646  8.210815849308721 16.38653797300581  C 7.9834148014121915 17.310171751950836  7.691028333077404 18.1382589947988  7.33368355262449 18.87079596412556  C 7.236226237284345 18.791172337944428  7.106279600265089 18.70358651525292  6.943850418646753 18.608038199430073  C 6.797663961559392 18.496565193965516  6.635223646166716 18.393050410290428  6.456551255940258 18.29750215379178  C 6.294122074321921 18.186029148327222  6.139820547971961 18.098443266311524  5.9936340908846 18.03474438909629  C 6.35097838726037 17.365906237660568  6.635226066552441 16.593554726330378  6.846384389917995 15.717695194283062  C 7.057542229206403 14.841835662235747  7.219983028676225 13.902284253227927  7.33368355262449 12.89902720404692  Z " stroke-width="0" stroke-dasharray="0" stroke="rgba(121, 121, 121, 1)" fill="none" transform="matrix(1 0 0 1 1634 327 )" class="stroke" mask="url(#Clip5083)" />
    <path d="M 6.992583433011132 6.927258443968278  L 6.992583433011132 5.255162887406392  L 16.129233612431168 5.255162887406392  L 16.129233612431168 6.927258443968278  L 6.992583433011132 6.927258443968278  Z " stroke-width="0" stroke-dasharray="0" stroke="rgba(121, 121, 121, 1)" fill="none" transform="matrix(1 0 0 1 1634 327 )" class="stroke" mask="url(#Clip5083)" />
    <path d="M 11 21.617804126444145  L 11 0.3344251861096998  L 12 0.3344251861096998  L 12 21.617804126444145  L 11 21.617804126444145  Z " stroke-width="0" stroke-dasharray="0" stroke="rgba(121, 121, 121, 1)" fill="none" transform="matrix(1 0 0 1 1634 327 )" class="stroke" mask="url(#Clip5083)" />
    <path d="M 14.131334928178106 12.56460201793722  C 13.96890574655977 11.704666997559038  13.782141038696537 10.900472988551769  13.570982715330985 10.152011448231683  C 13.570982715330985 10.152011448231683  15.008467224862338 9.889253683536195  15.008467224862338 9.889253683536195  C 15.203382823696916 10.637715698449822  15.390178512497442 11.44190970745709  15.568850418646752 12.301844253241732  C 15.76376601748133 13.145854287357242  15.926206816951153 13.973941708177781  16.05614958135325 14.786102244361484  C 16.20233603844061 15.598263017841957  16.299787544855008 16.33080004649291  16.348516686602224 16.983713330314345  C 16.348516686602224 16.983713330314345  14.8622681817692 17.270360235481235  14.8622681817692 17.270360235481235  C 14.813539040021983 16.617446833011417  14.724226806727442 15.884909685712078  14.594283074171058 15.072749149528374  C 14.464340309768962 14.244663864378769  14.310007802481707 13.40861205205273  14.131334928178106 12.56460201793722  Z " stroke-width="0" stroke-dasharray="0" stroke="rgba(121, 121, 121, 1)" fill="none" transform="matrix(1 0 0 1 1634 327 )" class="stroke" mask="url(#Clip5083)" />
    <path d="M 16.835784868371427 3.0097735205107248  L 16.835784868371427 1.4093377918663987  L 22.65889988038664 1.4093377918663987  L 22.65889988038664 3.0097735205107248  L 16.835784868371427 3.0097735205107248  Z " stroke-width="0" stroke-dasharray="0" stroke="rgba(121, 121, 121, 1)" fill="none" transform="matrix(1 0 0 1 1634 327 )" class="stroke" mask="url(#Clip5083)" />
    <path d="M 16.25105065787347 9.626495918840709  L 16.25105065787347 8.002171049724979  L 23 8.002171049724979  L 23 9.626495918840709  L 16.25105065787347 9.626495918840709  Z " stroke-width="0" stroke-dasharray="0" stroke="rgba(121, 121, 121, 1)" fill="none" transform="matrix(1 0 0 1 1634 327 )" class="stroke" mask="url(#Clip5083)" />
    <path d="M 14.277533971271243 2.8903354116503563  C 13.887702773602086 2.2533464022012857  13.48975650667033 1.6800592361770748  13.083683552624489 1.1704691676423158  C 13.083683552624489 1.1704691676423158  14.32626698563562 0.5971829508051868  14.32626698563562 0.5971829508051868  C 14.748583632366728 1.090849456857894  15.154669172418346 1.648207365277563  15.54449940193321 2.269270913870419  C 15.950572355979052 2.8744108999812235  16.242927843376545 3.399933073681769  16.421600717680146 3.845825095539994  C 16.421600717680146 3.845825095539994  15.130284270304637 4.490771140294683  15.130284270304637 4.490771140294683  C 14.951612364155325 4.044879118436458  14.667364200786109 3.5113999094302946  14.277533971271243 2.8903354116503563  Z " stroke-width="0" stroke-dasharray="0" stroke="rgba(121, 121, 121, 1)" fill="none" transform="matrix(1 0 0 1 1634 327 )" class="stroke" mask="url(#Clip5083)" />
    <path d="M 19.05296662679555 19.850159601493296  C 19.05296662679555 19.850159601493296  19.05296662679555 8.479915891669796  19.05296662679555 8.479915891669796  L 20.807200239226713 8.479915891669796  C 20.807200239226713 8.479915891669796  20.807200239226713 19.850159601493296  20.807200239226713 19.850159601493296  C 20.807200239226713 20.343825870249233  20.742211914325587 20.72601945982367  20.612268181769203 20.99673962866421  C 20.49856717374379 21.283384576132743  20.263060738127567 21.50633527367307  19.905716925828944 21.665582407386953  C 19.564614869907004 21.792980161817415  19.10981955119398 21.87260153367923  18.54131644737551 21.904451031611035  C 17.972814311711332 21.95222515986036  17.258125718959796 21.976110859528596  16.397249700966604 21.976110859528596  C 16.38100697643563 21.73724009963358  16.31601768338021 21.450596813242434  16.20231764350909 21.116177737524577  C 16.104859360014657 20.781758661806712  15.999299561417688 20.48715098391007  15.885599521546569 20.23235547504915  C 16.502830798957962 20.248280194352958  17.063186884422247 20.256244615520554  17.56671812196252 20.256244615520554  C 18.08649208403377 20.272169334824362  18.435728572304118 20.272169334824362  18.614400478453433 20.256244615520554  C 18.793072384602745 20.240319896216747  18.90677145631957 20.200505376459894  18.955500598066788 20.13680650666019  C 19.020472464344984 20.08903235616429  19.05296662679555 19.993482060396516  19.05296662679555 19.850159601493296  Z " stroke-width="0" stroke-dasharray="0" stroke="rgba(121, 121, 121, 1)" fill="none" transform="matrix(1 0 0 1 1634 327 )" class="stroke" mask="url(#Clip5083)" />
    <path d="M 3.581551255940258 1.69598469703329  C 4.052596318302864 1.1067701717787006  4.4261876959039155 0.5414400410601073  4.702317643509089 0  C 4.702317643509089 0  6.383467224862337 0.5971829508051868  6.383467224862337 0.5971829508051868  C 5.993636511270326 1.2500964719233914  5.522593385216301 1.918932606336566  4.970333732044526 2.603696099980119  C 4.418073836834179 3.2725341327674564  3.833331639063325 3.9095212438423648  3.216100119613358 4.514660280766087  C 2.615111687752225 5.11979931768981  1.9978749644729468 5.661243155498244  1.3644004784534316 6.138985149881817  C 1.2994287331945253 6.0275116698237206  1.2019768637222654 5.892147150920056  1.0720333732044527 5.732900135854559  C 0.958332849256188 5.557728609119928  0.8364947464580706 5.390521711187567  0.706551255940258 5.231273746934988  C 0.5766077654224453 5.0561022202003585  0.46290872396043803 4.912780665991075  0.3654511363269001 4.801307185932979  C 0.917710971027604 4.387265136600101  1.4699899267755443 3.917484923457554  2.022249700966605 3.39196939406658  C 2.590752320707928 2.8505284038193905  3.1105061935776517 2.285199222287879  3.581551255940258 1.69598469703329  Z " stroke-width="0" stroke-dasharray="0" stroke="rgba(121, 121, 121, 1)" fill="none" transform="matrix(1 0 0 1 1634 327 )" class="stroke" mask="url(#Clip5083)" />
    <path d="M 3.264833133977737 22  L 3.264833133977737 9.530946950451744  L 4.726699641159926 8.073830877642537  L 5 8.145498299056749  L 5 22  L 3.264833133977737 22  Z " stroke-width="0" stroke-dasharray="0" stroke="rgba(121, 121, 121, 1)" fill="none" transform="matrix(1 0 0 1 1634 327 )" class="stroke" mask="url(#Clip5083)" />
    <path d="M 3.0455500598066787 8.599346407033511  C 4.020126117670988 7.389067383998984  4.816019377650218 6.1230587398385214  5.4332508971001845 4.801307185932979  C 5.4332508971001845 4.801307185932979  7.065667464089053 5.350704262298703  7.065667464089053 5.350704262298703  C 6.594622159687874 6.338037274404117  6.034235093286296 7.317410403642669  5.384517882735805 8.288817954891869  C 4.734800430146742 9.244300994471935  4.044498191740347 10.144045395648789  3.313566148342116 10.988055429764298  C 2.582634104943884 11.832065463879806  1.8435593998857747 12.580531275541762  1.0963843899179948 13.233444796659965  C 1.0314126446590886 13.106047279526276  0.9339607751868285 12.946796942305994  0.8040172846690159 12.755699954715148  C 0.6740737941512032 12.548678930048709  0.5360195305554545 12.34962158499746  0.38983313397773683 12.158524597406615  C 0.2436467374000191 11.951503572740176  0.1137005542030861 11.792252760926353  0 11.680779755461796  C 1.055790648673477 10.836769721346286  2.0709740019423704 9.809624955474497  3.0455500598066787 8.599346407033511  Z " stroke-width="0" stroke-dasharray="0" stroke="rgba(121, 121, 121, 1)" fill="none" transform="matrix(1 0 0 1 1634 327 )" class="stroke" mask="url(#Clip5083)" />
  </g>
</svg>