<?xml version="1.0" encoding="utf-8"?>
<svg version="1.1" xmlns:xlink="http://www.w3.org/1999/xlink" width="22px" height="21px" xmlns="http://www.w3.org/2000/svg">
  <defs>
    <pattern id="BGPattern" patternUnits="userSpaceOnUse" alignment="0 0" imageRepeat="None" />
    <mask fill="white" id="Clip5091">
      <path d="M 16.59734968551955 5  L 5.426996439193765 5  L 5.426996439193765 7.318908857477093  L 16.59734968551955 7.318908857477093  L 16.59734968551955 5  Z M 16.59734968551955 9  L 5.426996439193765 9  L 5.426996439193765 11  L 16.59734968551955 11  L 16.59734968551955 9  Z M 16.59734968551955 1.4350822553204277  L 5.426996439193765 1.4350822553204277  L 5.426996439193765 4  L 16.59734968551955 4  L 16.59734968551955 1.4350822553204277  Z M 4 12  L 4 0  L 18.471243131399586 0  L 18.471243131399586 12  L 4 12  Z M 0.1460225942052327 15.738041868260419  L 0.1460225942052327 14  L 21.75663932471979 14  L 21.75663932471979 15.738041868260419  L 0.1460225942052327 15.738041868260419  Z M 15.696906677056749 18.77563162824513  C 14.788352161837693 18.392943672317084  13.87979377847045 18.034171920467216  12.971239263251396 17.699319936754808  C 12.971239263251396 17.699319936754808  14.285396193320201 16.503415522878953  14.285396193320201 16.503415522878953  C 15.210175656125845 16.838267447190372  16.143068559761836 17.19703919904024  17.084071036079976 17.579727214369274  C 18.04129845998471 17.946469806624776  18.941742435484564 18.321183447189377  19.78540006146839 18.703871432817913  C 20.64528263503881 19.070614084474403  21.383481002820936 19.42141107545342  22 19.75626305916583  C 22 19.75626305916583  20.247790759908263 21  20.247790759908263 21  C 19.69616865196442 20.665148016287592  19.022860404158187 20.30637632383871  18.227874719822996 19.92368830850968  C 17.44911398307439 19.541000352581637  16.6054611922758 19.158319584173167  15.696906677056749 18.77563162824513  Z M 5.256635456571597 17.55580714922687  C 6.084069102005881 17.14122852535474  6.765491757679505 16.750573055476405  7.300889885073801 16.38383040381991  C 7.300889885073801 16.38383040381991  8.980091696211113 17.55580714922687  8.980091696211113 17.55580714922687  C 8.298675809796823 17.970385773098997  7.511799698143782 18.39294016765878  6.619469163474272 18.823464155203446  C 5.743363092872832 19.25398814274811  4.842919117372979 19.652618343796806  3.918140138085857 20.019360965752806  C 2.993361158798736 20.3861036174093  2.1091456363947736 20.70501689035985  1.265487889531314 20.976087538184085  C 1.1356943528201262 20.78474353051957  0.9410077950219042 20.55352952016402  0.6814207215995285 20.282458872339788  C 0.43805787048595896 20.01138822451555  0.2109144669357726 19.780181758085504  0 19.588837809821978  C 0.8436579281829057 19.34965781509158  1.7197669603353052 19.054668720801867  2.6283215964339894 18.703871432817913  C 3.5531003339618485 18.337128810861913  4.429201569378051 17.954440468827446  5.256635456571597 17.55580714922687  Z " fill-rule="evenodd" />
    </mask>
  </defs>
  <g transform="matrix(1 0 0 1 -1443 -328 )">
    <path d="M 16.59734968551955 5  L 5.426996439193765 5  L 5.426996439193765 7.318908857477093  L 16.59734968551955 7.318908857477093  L 16.59734968551955 5  Z M 16.59734968551955 9  L 5.426996439193765 9  L 5.426996439193765 11  L 16.59734968551955 11  L 16.59734968551955 9  Z M 16.59734968551955 1.4350822553204277  L 5.426996439193765 1.4350822553204277  L 5.426996439193765 4  L 16.59734968551955 4  L 16.59734968551955 1.4350822553204277  Z M 4 12  L 4 0  L 18.471243131399586 0  L 18.471243131399586 12  L 4 12  Z M 0.1460225942052327 15.738041868260419  L 0.1460225942052327 14  L 21.75663932471979 14  L 21.75663932471979 15.738041868260419  L 0.1460225942052327 15.738041868260419  Z M 15.696906677056749 18.77563162824513  C 14.788352161837693 18.392943672317084  13.87979377847045 18.034171920467216  12.971239263251396 17.699319936754808  C 12.971239263251396 17.699319936754808  14.285396193320201 16.503415522878953  14.285396193320201 16.503415522878953  C 15.210175656125845 16.838267447190372  16.143068559761836 17.19703919904024  17.084071036079976 17.579727214369274  C 18.04129845998471 17.946469806624776  18.941742435484564 18.321183447189377  19.78540006146839 18.703871432817913  C 20.64528263503881 19.070614084474403  21.383481002820936 19.42141107545342  22 19.75626305916583  C 22 19.75626305916583  20.247790759908263 21  20.247790759908263 21  C 19.69616865196442 20.665148016287592  19.022860404158187 20.30637632383871  18.227874719822996 19.92368830850968  C 17.44911398307439 19.541000352581637  16.6054611922758 19.158319584173167  15.696906677056749 18.77563162824513  Z M 5.256635456571597 17.55580714922687  C 6.084069102005881 17.14122852535474  6.765491757679505 16.750573055476405  7.300889885073801 16.38383040381991  C 7.300889885073801 16.38383040381991  8.980091696211113 17.55580714922687  8.980091696211113 17.55580714922687  C 8.298675809796823 17.970385773098997  7.511799698143782 18.39294016765878  6.619469163474272 18.823464155203446  C 5.743363092872832 19.25398814274811  4.842919117372979 19.652618343796806  3.918140138085857 20.019360965752806  C 2.993361158798736 20.3861036174093  2.1091456363947736 20.70501689035985  1.265487889531314 20.976087538184085  C 1.1356943528201262 20.78474353051957  0.9410077950219042 20.55352952016402  0.6814207215995285 20.282458872339788  C 0.43805787048595896 20.01138822451555  0.2109144669357726 19.780181758085504  0 19.588837809821978  C 0.8436579281829057 19.34965781509158  1.7197669603353052 19.054668720801867  2.6283215964339894 18.703871432817913  C 3.5531003339618485 18.337128810861913  4.429201569378051 17.954440468827446  5.256635456571597 17.55580714922687  Z " fill-rule="nonzero" fill="rgba(255, 255, 255, 1)" stroke="none" transform="matrix(1 0 0 1 1443 328 )" class="fill" />
    <path d="M 16.59734968551955 5  L 5.426996439193765 5  L 5.426996439193765 7.318908857477093  L 16.59734968551955 7.318908857477093  L 16.59734968551955 5  Z " stroke-width="0" stroke-dasharray="0" stroke="rgba(121, 121, 121, 1)" fill="none" transform="matrix(1 0 0 1 1443 328 )" class="stroke" mask="url(#Clip5091)" />
    <path d="M 16.59734968551955 9  L 5.426996439193765 9  L 5.426996439193765 11  L 16.59734968551955 11  L 16.59734968551955 9  Z " stroke-width="0" stroke-dasharray="0" stroke="rgba(121, 121, 121, 1)" fill="none" transform="matrix(1 0 0 1 1443 328 )" class="stroke" mask="url(#Clip5091)" />
    <path d="M 16.59734968551955 1.4350822553204277  L 5.426996439193765 1.4350822553204277  L 5.426996439193765 4  L 16.59734968551955 4  L 16.59734968551955 1.4350822553204277  Z " stroke-width="0" stroke-dasharray="0" stroke="rgba(121, 121, 121, 1)" fill="none" transform="matrix(1 0 0 1 1443 328 )" class="stroke" mask="url(#Clip5091)" />
    <path d="M 4 12  L 4 0  L 18.471243131399586 0  L 18.471243131399586 12  L 4 12  Z " stroke-width="0" stroke-dasharray="0" stroke="rgba(121, 121, 121, 1)" fill="none" transform="matrix(1 0 0 1 1443 328 )" class="stroke" mask="url(#Clip5091)" />
    <path d="M 0.1460225942052327 15.738041868260419  L 0.1460225942052327 14  L 21.75663932471979 14  L 21.75663932471979 15.738041868260419  L 0.1460225942052327 15.738041868260419  Z " stroke-width="0" stroke-dasharray="0" stroke="rgba(121, 121, 121, 1)" fill="none" transform="matrix(1 0 0 1 1443 328 )" class="stroke" mask="url(#Clip5091)" />
    <path d="M 15.696906677056749 18.77563162824513  C 14.788352161837693 18.392943672317084  13.87979377847045 18.034171920467216  12.971239263251396 17.699319936754808  C 12.971239263251396 17.699319936754808  14.285396193320201 16.503415522878953  14.285396193320201 16.503415522878953  C 15.210175656125845 16.838267447190372  16.143068559761836 17.19703919904024  17.084071036079976 17.579727214369274  C 18.04129845998471 17.946469806624776  18.941742435484564 18.321183447189377  19.78540006146839 18.703871432817913  C 20.64528263503881 19.070614084474403  21.383481002820936 19.42141107545342  22 19.75626305916583  C 22 19.75626305916583  20.247790759908263 21  20.247790759908263 21  C 19.69616865196442 20.665148016287592  19.022860404158187 20.30637632383871  18.227874719822996 19.92368830850968  C 17.44911398307439 19.541000352581637  16.6054611922758 19.158319584173167  15.696906677056749 18.77563162824513  Z " stroke-width="0" stroke-dasharray="0" stroke="rgba(121, 121, 121, 1)" fill="none" transform="matrix(1 0 0 1 1443 328 )" class="stroke" mask="url(#Clip5091)" />
    <path d="M 5.256635456571597 17.55580714922687  C 6.084069102005881 17.14122852535474  6.765491757679505 16.750573055476405  7.300889885073801 16.38383040381991  C 7.300889885073801 16.38383040381991  8.980091696211113 17.55580714922687  8.980091696211113 17.55580714922687  C 8.298675809796823 17.970385773098997  7.511799698143782 18.39294016765878  6.619469163474272 18.823464155203446  C 5.743363092872832 19.25398814274811  4.842919117372979 19.652618343796806  3.918140138085857 20.019360965752806  C 2.993361158798736 20.3861036174093  2.1091456363947736 20.70501689035985  1.265487889531314 20.976087538184085  C 1.1356943528201262 20.78474353051957  0.9410077950219042 20.55352952016402  0.6814207215995285 20.282458872339788  C 0.43805787048595896 20.01138822451555  0.2109144669357726 19.780181758085504  0 19.588837809821978  C 0.8436579281829057 19.34965781509158  1.7197669603353052 19.054668720801867  2.6283215964339894 18.703871432817913  C 3.5531003339618485 18.337128810861913  4.429201569378051 17.954440468827446  5.256635456571597 17.55580714922687  Z " stroke-width="0" stroke-dasharray="0" stroke="rgba(121, 121, 121, 1)" fill="none" transform="matrix(1 0 0 1 1443 328 )" class="stroke" mask="url(#Clip5091)" />
  </g>
</svg>