<?xml version="1.0" encoding="utf-8"?>
<svg version="1.1" xmlns:xlink="http://www.w3.org/1999/xlink" width="23px" height="31px" xmlns="http://www.w3.org/2000/svg">
  <defs>
    <pattern id="BGPattern" patternUnits="userSpaceOnUse" alignment="0 0" imageRepeat="None" />
    <mask fill="white" id="Clip5045">
      <path d="M 15 19  L 15 23  L 0 23  L 0 0  L 15 0  L 15 4  L 4.445628347519836 4  L 4.445628347519836 9.400281012455194  L 13.432842194305607 9.400281012455194  L 13.432842194305607 13.405901261559073  L 4.445628347519836 13.405901261559073  L 4.445628347519836 19  L 15 19  Z " fill-rule="evenodd" />
    </mask>
  </defs>
  <g transform="matrix(1 0 0 1 -861 -994 )">
    <path d="M 15 19  L 15 23  L 0 23  L 0 0  L 15 0  L 15 4  L 4.445628347519836 4  L 4.445628347519836 9.400281012455194  L 13.432842194305607 9.400281012455194  L 13.432842194305607 13.405901261559073  L 4.445628347519836 13.405901261559073  L 4.445628347519836 19  L 15 19  Z " fill-rule="nonzero" fill="rgba(255, 255, 255, 1)" stroke="none" transform="matrix(1 0 0 1 865 994 )" class="fill" />
    <path d="M 15 19  L 15 23  L 0 23  L 0 0  L 15 0  L 15 4  L 4.445628347519836 4  L 4.445628347519836 9.400281012455194  L 13.432842194305607 9.400281012455194  L 13.432842194305607 13.405901261559073  L 4.445628347519836 13.405901261559073  L 4.445628347519836 19  L 15 19  Z " stroke-width="0" stroke-dasharray="0" stroke="rgba(121, 121, 121, 1)" fill="none" transform="matrix(1 0 0 1 865 994 )" class="stroke" mask="url(#Clip5045)" />
  </g>
  <style>svg { filter: drop-shadow(0px 4px 2px rgba(0, 0, 0, 0.12941176470588237)); }</style>
</svg>