<?xml version="1.0" encoding="utf-8"?>
<svg version="1.1" xmlns:xlink="http://www.w3.org/1999/xlink" width="9px" height="12px" xmlns="http://www.w3.org/2000/svg">
  <defs>
    <pattern id="BGPattern" patternUnits="userSpaceOnUse" alignment="0 0" imageRepeat="None" />
    <mask fill="white" id="Clip5140">
      <path d="M 7.839471564201085 9.142857908752067  C 7.839471564201085 9.142857908752067  9 10.261905811255895  9 10.261905811255895  C 7.792105649514755 11.571429703376216  6.773680369247526 12  5.163154803881955 12  C 2.2263132781540884 12  0 10.000001576842491  0 6.000001419158242  C 0 2.0000007884212456  2.2263132781540884 0  5.163154803881955 0  C 6.773680369247526 0  7.792105649514755 0.42857112446609097  9 1.738095134849599  C 9 1.738095134849599  7.839471564201085 2.8333333464736876  7.839471564201085 2.8333333464736876  C 6.963156027345349 1.8571426431428049  6.276312148803265 1.5238098091429269  5.163154803881955 1.5238098091429269  C 4.0263128546475295 1.5238098091429269  3.0789446812595522 1.9761906244887582  2.4631555567825045 2.8571430373534277  C 1.9184188335562757 3.619047941924891  1.705263276773771 4.523810400458861  1.705263276773771 6.000001419158242  C 1.705263276773771 7.4761917282785015  1.9184188335562757 8.380953004180604  2.4631555567825045 9.142857908752067  C 3.0789446812595522 10.023810321616736  4.0263128546475295 10.476191136962568  5.163154803881955 10.476191136962568  C 6.276312148803265 10.476191136962568  6.963156027345349 10.119048434688171  7.839471564201085 9.142857908752067  Z " fill-rule="evenodd" />
    </mask>
  </defs>
  <g transform="matrix(1 0 0 1 -1426 -273 )">
    <path d="M 7.839471564201085 9.142857908752067  C 7.839471564201085 9.142857908752067  9 10.261905811255895  9 10.261905811255895  C 7.792105649514755 11.571429703376216  6.773680369247526 12  5.163154803881955 12  C 2.2263132781540884 12  0 10.000001576842491  0 6.000001419158242  C 0 2.0000007884212456  2.2263132781540884 0  5.163154803881955 0  C 6.773680369247526 0  7.792105649514755 0.42857112446609097  9 1.738095134849599  C 9 1.738095134849599  7.839471564201085 2.8333333464736876  7.839471564201085 2.8333333464736876  C 6.963156027345349 1.8571426431428049  6.276312148803265 1.5238098091429269  5.163154803881955 1.5238098091429269  C 4.0263128546475295 1.5238098091429269  3.0789446812595522 1.9761906244887582  2.4631555567825045 2.8571430373534277  C 1.9184188335562757 3.619047941924891  1.705263276773771 4.523810400458861  1.705263276773771 6.000001419158242  C 1.705263276773771 7.4761917282785015  1.9184188335562757 8.380953004180604  2.4631555567825045 9.142857908752067  C 3.0789446812595522 10.023810321616736  4.0263128546475295 10.476191136962568  5.163154803881955 10.476191136962568  C 6.276312148803265 10.476191136962568  6.963156027345349 10.119048434688171  7.839471564201085 9.142857908752067  Z " fill-rule="nonzero" fill="rgba(255, 255, 255, 1)" stroke="none" transform="matrix(1 0 0 1 1426 273 )" class="fill" />
    <path d="M 7.839471564201085 9.142857908752067  C 7.839471564201085 9.142857908752067  9 10.261905811255895  9 10.261905811255895  C 7.792105649514755 11.571429703376216  6.773680369247526 12  5.163154803881955 12  C 2.2263132781540884 12  0 10.000001576842491  0 6.000001419158242  C 0 2.0000007884212456  2.2263132781540884 0  5.163154803881955 0  C 6.773680369247526 0  7.792105649514755 0.42857112446609097  9 1.738095134849599  C 9 1.738095134849599  7.839471564201085 2.8333333464736876  7.839471564201085 2.8333333464736876  C 6.963156027345349 1.8571426431428049  6.276312148803265 1.5238098091429269  5.163154803881955 1.5238098091429269  C 4.0263128546475295 1.5238098091429269  3.0789446812595522 1.9761906244887582  2.4631555567825045 2.8571430373534277  C 1.9184188335562757 3.619047941924891  1.705263276773771 4.523810400458861  1.705263276773771 6.000001419158242  C 1.705263276773771 7.4761917282785015  1.9184188335562757 8.380953004180604  2.4631555567825045 9.142857908752067  C 3.0789446812595522 10.023810321616736  4.0263128546475295 10.476191136962568  5.163154803881955 10.476191136962568  C 6.276312148803265 10.476191136962568  6.963156027345349 10.119048434688171  7.839471564201085 9.142857908752067  Z " stroke-width="0" stroke-dasharray="0" stroke="rgba(121, 121, 121, 1)" fill="none" transform="matrix(1 0 0 1 1426 273 )" class="stroke" mask="url(#Clip5140)" />
  </g>
</svg>