<?xml version="1.0" encoding="utf-8"?>
<svg version="1.1" xmlns:xlink="http://www.w3.org/1999/xlink" width="9px" height="12px" xmlns="http://www.w3.org/2000/svg">
  <defs>
    <pattern id="BGPattern" patternUnits="userSpaceOnUse" alignment="0 0" imageRepeat="None" />
    <mask fill="white" id="Clip5120">
      <path d="M 7.839478122364846 9.142857908752067  C 7.839478122364846 9.142857908752067  9 10.261905811255895  9 10.261905811255895  C 7.792104639042444 11.571429703376216  6.77368227131045 12  5.16315535864866 12  C 2.226311376085851 12  0 10.000001576842491  0 6.000001419158242  C 0 2.0000007884212456  2.226311376085851 0  5.16315535864866 0  C 6.77368227131045 0  7.792104639042444 0.42857112446609097  9 1.738095134849599  C 9 1.738095134849599  7.839478122364846 2.8333333464736876  7.839478122364846 2.8333333464736876  C 6.9631618524213295 1.8571426431428049  6.276313634789389 1.5238098091429269  5.16315535864866 1.5238098091429269  C 4.0263124583812955 1.5238098091429269  3.078951021477761 1.9761906244887582  2.463161381858093 2.8571430373534277  C 1.9184242029286185 3.619047941924891  1.705260938817577 4.523810400458861  1.705260938817577 6.000001419158242  C 1.705260938817577 7.4761917282785015  1.9184242029286185 8.380953004180604  2.463161381858093 9.142857908752067  C 3.078951021477761 10.023810321616736  4.0263124583812955 10.476191136962568  5.16315535864866 10.476191136962568  C 6.276313634789389 10.476191136962568  6.9631618524213295 10.119048434688171  7.839478122364846 9.142857908752067  Z " fill-rule="evenodd" />
    </mask>
  </defs>
  <g transform="matrix(1 0 0 1 -1800 -273 )">
    <path d="M 7.839478122364846 9.142857908752067  C 7.839478122364846 9.142857908752067  9 10.261905811255895  9 10.261905811255895  C 7.792104639042444 11.571429703376216  6.77368227131045 12  5.16315535864866 12  C 2.226311376085851 12  0 10.000001576842491  0 6.000001419158242  C 0 2.0000007884212456  2.226311376085851 0  5.16315535864866 0  C 6.77368227131045 0  7.792104639042444 0.42857112446609097  9 1.738095134849599  C 9 1.738095134849599  7.839478122364846 2.8333333464736876  7.839478122364846 2.8333333464736876  C 6.9631618524213295 1.8571426431428049  6.276313634789389 1.5238098091429269  5.16315535864866 1.5238098091429269  C 4.0263124583812955 1.5238098091429269  3.078951021477761 1.9761906244887582  2.463161381858093 2.8571430373534277  C 1.9184242029286185 3.619047941924891  1.705260938817577 4.523810400458861  1.705260938817577 6.000001419158242  C 1.705260938817577 7.4761917282785015  1.9184242029286185 8.380953004180604  2.463161381858093 9.142857908752067  C 3.078951021477761 10.023810321616736  4.0263124583812955 10.476191136962568  5.16315535864866 10.476191136962568  C 6.276313634789389 10.476191136962568  6.9631618524213295 10.119048434688171  7.839478122364846 9.142857908752067  Z " fill-rule="nonzero" fill="rgba(255, 255, 255, 1)" stroke="none" transform="matrix(1 0 0 1 1800 273 )" class="fill" />
    <path d="M 7.839478122364846 9.142857908752067  C 7.839478122364846 9.142857908752067  9 10.261905811255895  9 10.261905811255895  C 7.792104639042444 11.571429703376216  6.77368227131045 12  5.16315535864866 12  C 2.226311376085851 12  0 10.000001576842491  0 6.000001419158242  C 0 2.0000007884212456  2.226311376085851 0  5.16315535864866 0  C 6.77368227131045 0  7.792104639042444 0.42857112446609097  9 1.738095134849599  C 9 1.738095134849599  7.839478122364846 2.8333333464736876  7.839478122364846 2.8333333464736876  C 6.9631618524213295 1.8571426431428049  6.276313634789389 1.5238098091429269  5.16315535864866 1.5238098091429269  C 4.0263124583812955 1.5238098091429269  3.078951021477761 1.9761906244887582  2.463161381858093 2.8571430373534277  C 1.9184242029286185 3.619047941924891  1.705260938817577 4.523810400458861  1.705260938817577 6.000001419158242  C 1.705260938817577 7.4761917282785015  1.9184242029286185 8.380953004180604  2.463161381858093 9.142857908752067  C 3.078951021477761 10.023810321616736  4.0263124583812955 10.476191136962568  5.16315535864866 10.476191136962568  C 6.276313634789389 10.476191136962568  6.9631618524213295 10.119048434688171  7.839478122364846 9.142857908752067  Z " stroke-width="0" stroke-dasharray="0" stroke="rgba(121, 121, 121, 1)" fill="none" transform="matrix(1 0 0 1 1800 273 )" class="stroke" mask="url(#Clip5120)" />
  </g>
</svg>