<?xml version="1.0" encoding="utf-8"?>
<svg version="1.1" xmlns:xlink="http://www.w3.org/1999/xlink" width="23px" height="22px" xmlns="http://www.w3.org/2000/svg">
  <defs>
    <pattern id="BGPattern" patternUnits="userSpaceOnUse" alignment="0 0" imageRepeat="None" />
    <mask fill="white" id="Clip5078">
      <path d="M 8.719111488269235 3.173536268920914  L 8.719111488269235 1.503254421344646  L 18.069683692938984 1.503254421344646  L 18.069683692938984 3.173536268920914  L 8.719111488269235 3.173536268920914  Z M 17.341065671613734 1.718008303791044  C 17.341065671613734 1.718008303791044  17.341065671613734 1.503254421344646  17.341065671613734 1.503254421344646  L 17.5353802814632 1.503254421344646  L 17.826821313432276 1.4078090941751407  C 17.826821313432276 1.4078090941751407  19.065468861404682 1.598699748514151  19.065468861404682 1.598699748514151  C 18.935936725831855 2.4258875271431632  18.77401142294539 3.3405674877825597  18.579713219586143 4.342735837802316  C 18.38541598131456 5.344905135979578  18.183046749853307 6.3629797763175775  17.972557270819372 7.396963551446336  C 17.762067791785444 8.415040088099348  17.551555150647665 9.36948387821934  17.341065671613734 10.260300610751347  C 17.341065671613734 10.260300610751347  15.66524113428515 10.093273184519726  15.66524113428515 10.093273184519726  C 15.827155821207358 9.425160635120719  15.989081124093824 8.709329688845736  16.15099677610369 7.94577228635598  C 16.3129114630259 7.166307171311719  16.466724239040968 6.394793305111569  16.612447650288484 5.631236376700563  C 16.774362337210693 4.851771261656303  16.91201086000556 4.127984799828435  17.02535075481604 3.459872250429429  C 17.15488289038887 2.775852462554674  17.260108328152633 2.1952311470085455  17.341065671613734 1.718008303791044  Z M 16.612447650288484 9.16269072619211  L 17.098203292107026 7.516272106723229  L 21.178470388089444 7.516272106723229  L 21.178470388089444 9.16269072619211  L 16.612447650288484 9.16269072619211  Z M 20.546978788883802 7.8980458301412035  C 20.546978788883802 7.8980458301412035  20.546978788883802 7.516272106723229  20.546978788883802 7.516272106723229  L 20.91130324094899 7.516272106723229  L 21.227018157746684 7.444690007661112  C 21.227018157746684 7.444690007661112  22.319960631137118 7.8980458301412035  22.319960631137118 7.8980458301412035  C 21.83421560528284 10.300069655098225  21.10559565378227 12.415762476373638  20.134106567161375 14.245118367983032  C 19.162617480540476 16.058567021116673  18.02111469135322 17.60158704973724  16.70960495521322 18.874182602033816  C 15.39809425398556 20.14677815433039  13.96516297896881 21.16486061696781  12.410780247357842 21.928417900937884  C 12.329822903896737 21.801158333856254  12.216483974173919 21.65003636830506  12.070760562926402 21.475054493197746  C 11.925037151678882 21.300072618090432  11.771193492858686 21.125090861502805  11.60927880593648 20.95010898639549  C 11.447364119014274 20.79103452754346  11.301664834958261 20.671728105620954  11.172132699385433 20.59219090582486  C 12.694132879647023 19.89226334613576  14.078477781500126 18.96167928779235  15.325221449853709 17.800435945581967  C 16.588157358969642 16.639192484851893  17.67299020075166 15.239330965410524  18.579713219586143 13.600864305903883  C 19.486436238420627 11.946490170882118  20.142191106490625 10.045550520934972  20.546978788883802 7.8980458301412035  Z M 11.317837773967407 4.318872609694927  C 11.317837773967407 4.318872609694927  12.677916511693171 4.104126312508576  12.677916511693171 4.104126312508576  C 13.001745885537582 6.028926820169345  13.438937351208658 7.866234671740975  13.989447479761692 9.616054133932247  C 14.539958573402386 11.349965409490265  15.219991186651647 12.940705375742752  16.029565586350337 14.388282566107266  C 16.855331261723716 15.819952755035406  17.834907782936845 17.060736319293934  18.96831155647995 18.110627569937822  C 20.117906605697744 19.160518820581707  21.46180854406372 19.963848230410548  23 20.52060880676274  C 22.87046786442717 20.631960898329243  22.72473769756603 20.76717132906599  22.56282301064383 20.926245758288104  C 22.41709959939631 21.101227633395418  22.279482924494225 21.2762093307232  22.149950788921398 21.45119126509036  C 22.03661089411092 21.642080556452953  21.93135457354203 21.817062372300423  21.834204989318575 21.976136771892612  C 20.247439706358232 21.32393163874889  18.871177413659062 20.433111291366387  17.70539012367892 19.303682781666563  C 16.53960379878644 18.174254271966742  15.543831176460321 16.845987296154757  14.71806550108694 15.318872609694926  C 13.90849110138825 13.791758278794164  13.228426640246203 12.097616047583024  12.677916511693171 10.236444967904006  C 12.127405418052476 8.37527436230374  11.674050181705027 6.402748346585701  11.317837773967407 4.318872609694927  Z M 3.375922959485788 1.765727174745773  C 3.6835612989274265 1.113521863822516  3.9345171448242433 0.5249455068022543  4.128814865639656 0  C 4.128814865639656 0  5.731786865677253 0.6442540620791474  5.731786865677253 0.6442540620791474  C 5.424148767507529 1.2010140458328995  5.100296714103103 1.7975463924848  4.760275582040172 2.4338444649323083  C 4.420254208705326 3.0701425373798163  4.072155292926763 3.682578329877443  3.7159426439172285 4.271153738740199  C 3.3759215118542976 4.8597291476029545  3.043987090567854 5.36876267514193  2.7201574754515265 5.798263802932186  C 2.7201574754515265 5.798263802932186  1.4815099274791173 5.24946265328259  1.4815099274791173 5.24946265328259  C 1.7891481462847985 4.788146100383331  2.104886828366125 4.255245552106944  2.4287164434824526 3.650762904768439  C 2.752546299870695 3.0303730189541858  3.068284861316064 2.4020252471932815  3.375922959485788 1.765727174745773  Z M 5.707482098043507 4.8199624736498405  C 6.14465184924223 4.05640459708133  6.533255494118168 3.3564699854707793  6.873277108724929 2.7201728611807767  C 6.873277108724929 2.7201728611807767  8.403365688666414 3.4121533794747  8.403365688666414 3.4121533794747  C 7.85285507756955 4.318877350482457  7.237573573247971 5.281277130234088  6.557531309122109 6.299353666887099  C 5.893680320670936 7.31743020354011  5.221760234293073 8.295733429137467  4.541717970167211 9.234272825254227  C 3.8616754647694327 10.172811747292235  3.2140027233095356 11.000000948157506  2.598726285698173 11.715836161141263  C 2.598726285698173 11.715836161141263  1.4815099274791173 11.095445327169505  1.4815099274791173 11.095445327169505  C 1.934871557532316 10.554592581891502  2.4044227743567985 9.942156315315122  2.8901673176672475 9.258136053361616  C 3.392103377924299 8.558208552932358  3.8778503339538988 7.834422091104489  4.3474033603177435 7.0867719270904805  C 4.833147903628193 6.323214998679475  5.286503381247558 5.567612163585098  5.707482098043507 4.8199624736498405  Z M 1.6515197696948376 6.299353666887099  C 1.1981582602775962 5.838038062145347  0.7528850299042902 5.416487235041695  0.3157149167976948 5.034708770836192  C 0.3157149167976948 5.034708770836192  1.2386475479724095 3.8416535591074497  1.2386475479724095 3.8416535591074497  C 1.692009057389651 4.2075247848372035  2.1453647762809314 4.621112037049168  2.598726285698173 5.082427641790921  C 3.068279553333933 5.5278360080569255  3.497357044502122 5.973246270637942  3.885952486132949 6.418654636903945  C 4.2745481690356915 6.848155764694201  4.574090870639986 7.2378902185313425  4.784580349673917 7.587854205785346  C 4.784580349673917 7.587854205785346  3.788795181208216 8.947936843745712  3.788795181208216 8.947936843745712  C 3.5783059434461983 8.582065618015958  3.278763000569989 8.168478365803992  2.8901673176672475 7.707162761062239  C 2.517763151711109 7.2299389696872325  2.1048813997480367 6.760669271628852  1.6515197696948376 6.299353666887099  Z M 7.18902290832775 9.97397221450288  C 6.897576085832714 9.353581854609873  6.589919650997447 8.788865407145728  6.266090277153035 8.279827138819224  C 6.266090277153035 8.279827138819224  7.553316477587811 7.75488163201697  7.553316477587811 7.75488163201697  C 7.893337609650743 8.263920374422227  8.217158780250044 8.820680832254732  8.524796878419767 9.425163479593238  C 8.832434976589491 10.013738888455993  9.099617565132506 10.594359255844616  9.32629831984113 11.167027426231623  C 9.569170832768268 11.723787884064127  9.7472613539626 12.224873481310263  9.86060173131691 12.67028184757627  C 9.86060173131691 12.67028184757627  8.476249108762525 13.26680945344064  8.476249108762525 13.26680945344064  C 8.379100489626735 12.821401087174635  8.217174704196436 12.312367559635659  7.990493466943985 11.739699389248653  C 7.763812712235365 11.167031692940398  7.496661006497474 10.578455335920138  7.18902290832775 9.97397221450288  Z M 0.3885983368938075 12.336226995113023  C 0.3885983368938075 12.336226995113023  0.21858849467808705 10.689808375644143  0.21858849467808705 10.689808375644143  C 1.2872264417066912 10.657993424613894  2.5501499253189994 10.610266494320364  4.007383675886303 10.546636592259862  C 5.480808822764253 10.483007164278114  7.002801523596478 10.403471920056877  8.573375530882133 10.308027066966124  C 8.573375530882133 10.308027066966124  8.549101646053513 11.787418260203381  8.549101646053513 11.787418260203381  C 7.075676740447478 11.882863113294134  5.626548881773908 11.978309862699899  4.20169828573577 12.073754241711898  C 2.776847569061673 12.169199094802648  1.5058108347622225 12.256689854576775  0.3885983368938075 12.336226995113023  Z M 7.553316477587811 16.08242764179092  C 7.278060930767464 15.271148049795164  6.986631479850312 14.531449608704017  6.678993381680589 13.863337059305012  C 6.678993381680589 13.863337059305012  8.014767351772607 13.45770010777965  8.014767351772607 13.45770010777965  C 8.338597208160849 14.109905418702906  8.638140151037058 14.833691880530775  8.913395215313574 15.629064234050784  C 9.204842037808609 16.40852887501629  9.407241669531158 17.084596110330367  9.520582046885469 17.657264162197684  C 9.520582046885469 17.657264162197684  8.136229424331086 18.13449079804521  8.136229424331086 18.13449079804521  C 8.022889046976776 17.56182286469758  7.828571541864328 16.877799876791244  7.553316477587811 16.08242764179092  Z M 0.995785168465702 16.726681703870067  C 1.25484895706753 15.708605404256433  1.4572177059849531 14.682574537247419  1.6029411172324708 13.64859076211866  C 1.6029411172324708 13.64859076211866  3.157334464807701 13.911063515519787  3.157334464807701 13.911063515519787  C 2.9954197778854947 15.040491906699922  2.7687419184398543 16.15401365200275  2.477295095944819 17.25162721067232  C 2.1858483940857414 18.33333341234646  1.8458317255532388 19.255961599577915  1.4572360426504964 20.019518942807828  C 1.3438956652961862 19.939981728196774  1.19816537779909 19.860446646940108  1.0200590532943226 19.780909417514092  C 0.8581442457361588 19.701372202903034  0.6800226004647862 19.62183712164637  0.48572475901341516 19.54229989222035  C 0.30761843450864784 19.44685524653905  0.14572338108852825 19.37526834742956  0 19.327546009773954  C 0.42097862631898114 18.595803558314444  0.7529129571284563 17.728850765007955  0.995785168465702 16.726681703870067  Z M 4.20169828573577 22  L 4.20169828573577 11.35791808057063  L 6 11.35791808057063  L 6 22  L 4.20169828573577 22  Z M 11.09924927928932 6.681127390305072  C 11.09924927928932 6.681127390305072  11.09924927928932 2.5054265639944253  11.09924927928932 2.5054265639944253  L 12.726495164155537 2.5054265639944253  C 12.726495164155537 2.5054265639944253  12.726495164155537 6.681127390305072  12.726495164155537 6.681127390305072  C 12.726495164155537 7.794648305970082  12.677938708709354 9.003616919198363  12.580790089573561 10.308027066966124  C 12.499832746112459 11.596529976258136  12.321711342113003 12.916848784737905  12.046455795292653 14.268981596090418  C 11.771200248472308 15.605206931927807  11.35831837587328 16.925525740407576  10.807808247320246 18.229936125214714  C 10.257297636223383 19.518439153026414  9.520595075568881 20.74331133062011  8.59768029851588 21.904554672830493  C 8.500531679380089 21.80911005677912  8.36288363912905 21.697759387448876  8.184777193988326 21.570499820367253  C 8.02286250706612 21.443240253285623  7.852854112481889 21.323933831363117  7.6747476673411645 21.21258173979662  C 7.512832980418959 21.101229648230117  7.359020204403888 21.013738769936303  7.2132967931563705 20.95010898639549  C 8.103828053772334 19.868402784721354  8.808170742637472 18.71510998023695  9.32629831984113 17.49023673596606  C 9.860617655263303 16.249456253219424  10.249190417334116 15.000724047549927  10.492062447717425 13.744036089288164  C 10.734934960644564 12.471440418471902  10.896860746074863 11.23861284384501  10.977818089535965 10.045554313564997  C 11.058775432997068 8.836588544809233  11.09924927928932 7.715110691355079  11.09924927928932 6.681127390305072  Z " fill-rule="evenodd" />
    </mask>
  </defs>
  <g transform="matrix(1 0 0 1 -1761 -327 )">
    <path d="M 8.719111488269235 3.173536268920914  L 8.719111488269235 1.503254421344646  L 18.069683692938984 1.503254421344646  L 18.069683692938984 3.173536268920914  L 8.719111488269235 3.173536268920914  Z M 17.341065671613734 1.718008303791044  C 17.341065671613734 1.718008303791044  17.341065671613734 1.503254421344646  17.341065671613734 1.503254421344646  L 17.5353802814632 1.503254421344646  L 17.826821313432276 1.4078090941751407  C 17.826821313432276 1.4078090941751407  19.065468861404682 1.598699748514151  19.065468861404682 1.598699748514151  C 18.935936725831855 2.4258875271431632  18.77401142294539 3.3405674877825597  18.579713219586143 4.342735837802316  C 18.38541598131456 5.344905135979578  18.183046749853307 6.3629797763175775  17.972557270819372 7.396963551446336  C 17.762067791785444 8.415040088099348  17.551555150647665 9.36948387821934  17.341065671613734 10.260300610751347  C 17.341065671613734 10.260300610751347  15.66524113428515 10.093273184519726  15.66524113428515 10.093273184519726  C 15.827155821207358 9.425160635120719  15.989081124093824 8.709329688845736  16.15099677610369 7.94577228635598  C 16.3129114630259 7.166307171311719  16.466724239040968 6.394793305111569  16.612447650288484 5.631236376700563  C 16.774362337210693 4.851771261656303  16.91201086000556 4.127984799828435  17.02535075481604 3.459872250429429  C 17.15488289038887 2.775852462554674  17.260108328152633 2.1952311470085455  17.341065671613734 1.718008303791044  Z M 16.612447650288484 9.16269072619211  L 17.098203292107026 7.516272106723229  L 21.178470388089444 7.516272106723229  L 21.178470388089444 9.16269072619211  L 16.612447650288484 9.16269072619211  Z M 20.546978788883802 7.8980458301412035  C 20.546978788883802 7.8980458301412035  20.546978788883802 7.516272106723229  20.546978788883802 7.516272106723229  L 20.91130324094899 7.516272106723229  L 21.227018157746684 7.444690007661112  C 21.227018157746684 7.444690007661112  22.319960631137118 7.8980458301412035  22.319960631137118 7.8980458301412035  C 21.83421560528284 10.300069655098225  21.10559565378227 12.415762476373638  20.134106567161375 14.245118367983032  C 19.162617480540476 16.058567021116673  18.02111469135322 17.60158704973724  16.70960495521322 18.874182602033816  C 15.39809425398556 20.14677815433039  13.96516297896881 21.16486061696781  12.410780247357842 21.928417900937884  C 12.329822903896737 21.801158333856254  12.216483974173919 21.65003636830506  12.070760562926402 21.475054493197746  C 11.925037151678882 21.300072618090432  11.771193492858686 21.125090861502805  11.60927880593648 20.95010898639549  C 11.447364119014274 20.79103452754346  11.301664834958261 20.671728105620954  11.172132699385433 20.59219090582486  C 12.694132879647023 19.89226334613576  14.078477781500126 18.96167928779235  15.325221449853709 17.800435945581967  C 16.588157358969642 16.639192484851893  17.67299020075166 15.239330965410524  18.579713219586143 13.600864305903883  C 19.486436238420627 11.946490170882118  20.142191106490625 10.045550520934972  20.546978788883802 7.8980458301412035  Z M 11.317837773967407 4.318872609694927  C 11.317837773967407 4.318872609694927  12.677916511693171 4.104126312508576  12.677916511693171 4.104126312508576  C 13.001745885537582 6.028926820169345  13.438937351208658 7.866234671740975  13.989447479761692 9.616054133932247  C 14.539958573402386 11.349965409490265  15.219991186651647 12.940705375742752  16.029565586350337 14.388282566107266  C 16.855331261723716 15.819952755035406  17.834907782936845 17.060736319293934  18.96831155647995 18.110627569937822  C 20.117906605697744 19.160518820581707  21.46180854406372 19.963848230410548  23 20.52060880676274  C 22.87046786442717 20.631960898329243  22.72473769756603 20.76717132906599  22.56282301064383 20.926245758288104  C 22.41709959939631 21.101227633395418  22.279482924494225 21.2762093307232  22.149950788921398 21.45119126509036  C 22.03661089411092 21.642080556452953  21.93135457354203 21.817062372300423  21.834204989318575 21.976136771892612  C 20.247439706358232 21.32393163874889  18.871177413659062 20.433111291366387  17.70539012367892 19.303682781666563  C 16.53960379878644 18.174254271966742  15.543831176460321 16.845987296154757  14.71806550108694 15.318872609694926  C 13.90849110138825 13.791758278794164  13.228426640246203 12.097616047583024  12.677916511693171 10.236444967904006  C 12.127405418052476 8.37527436230374  11.674050181705027 6.402748346585701  11.317837773967407 4.318872609694927  Z M 3.375922959485788 1.765727174745773  C 3.6835612989274265 1.113521863822516  3.9345171448242433 0.5249455068022543  4.128814865639656 0  C 4.128814865639656 0  5.731786865677253 0.6442540620791474  5.731786865677253 0.6442540620791474  C 5.424148767507529 1.2010140458328995  5.100296714103103 1.7975463924848  4.760275582040172 2.4338444649323083  C 4.420254208705326 3.0701425373798163  4.072155292926763 3.682578329877443  3.7159426439172285 4.271153738740199  C 3.3759215118542976 4.8597291476029545  3.043987090567854 5.36876267514193  2.7201574754515265 5.798263802932186  C 2.7201574754515265 5.798263802932186  1.4815099274791173 5.24946265328259  1.4815099274791173 5.24946265328259  C 1.7891481462847985 4.788146100383331  2.104886828366125 4.255245552106944  2.4287164434824526 3.650762904768439  C 2.752546299870695 3.0303730189541858  3.068284861316064 2.4020252471932815  3.375922959485788 1.765727174745773  Z M 5.707482098043507 4.8199624736498405  C 6.14465184924223 4.05640459708133  6.533255494118168 3.3564699854707793  6.873277108724929 2.7201728611807767  C 6.873277108724929 2.7201728611807767  8.403365688666414 3.4121533794747  8.403365688666414 3.4121533794747  C 7.85285507756955 4.318877350482457  7.237573573247971 5.281277130234088  6.557531309122109 6.299353666887099  C 5.893680320670936 7.31743020354011  5.221760234293073 8.295733429137467  4.541717970167211 9.234272825254227  C 3.8616754647694327 10.172811747292235  3.2140027233095356 11.000000948157506  2.598726285698173 11.715836161141263  C 2.598726285698173 11.715836161141263  1.4815099274791173 11.095445327169505  1.4815099274791173 11.095445327169505  C 1.934871557532316 10.554592581891502  2.4044227743567985 9.942156315315122  2.8901673176672475 9.258136053361616  C 3.392103377924299 8.558208552932358  3.8778503339538988 7.834422091104489  4.3474033603177435 7.0867719270904805  C 4.833147903628193 6.323214998679475  5.286503381247558 5.567612163585098  5.707482098043507 4.8199624736498405  Z M 1.6515197696948376 6.299353666887099  C 1.1981582602775962 5.838038062145347  0.7528850299042902 5.416487235041695  0.3157149167976948 5.034708770836192  C 0.3157149167976948 5.034708770836192  1.2386475479724095 3.8416535591074497  1.2386475479724095 3.8416535591074497  C 1.692009057389651 4.2075247848372035  2.1453647762809314 4.621112037049168  2.598726285698173 5.082427641790921  C 3.068279553333933 5.5278360080569255  3.497357044502122 5.973246270637942  3.885952486132949 6.418654636903945  C 4.2745481690356915 6.848155764694201  4.574090870639986 7.2378902185313425  4.784580349673917 7.587854205785346  C 4.784580349673917 7.587854205785346  3.788795181208216 8.947936843745712  3.788795181208216 8.947936843745712  C 3.5783059434461983 8.582065618015958  3.278763000569989 8.168478365803992  2.8901673176672475 7.707162761062239  C 2.517763151711109 7.2299389696872325  2.1048813997480367 6.760669271628852  1.6515197696948376 6.299353666887099  Z M 7.18902290832775 9.97397221450288  C 6.897576085832714 9.353581854609873  6.589919650997447 8.788865407145728  6.266090277153035 8.279827138819224  C 6.266090277153035 8.279827138819224  7.553316477587811 7.75488163201697  7.553316477587811 7.75488163201697  C 7.893337609650743 8.263920374422227  8.217158780250044 8.820680832254732  8.524796878419767 9.425163479593238  C 8.832434976589491 10.013738888455993  9.099617565132506 10.594359255844616  9.32629831984113 11.167027426231623  C 9.569170832768268 11.723787884064127  9.7472613539626 12.224873481310263  9.86060173131691 12.67028184757627  C 9.86060173131691 12.67028184757627  8.476249108762525 13.26680945344064  8.476249108762525 13.26680945344064  C 8.379100489626735 12.821401087174635  8.217174704196436 12.312367559635659  7.990493466943985 11.739699389248653  C 7.763812712235365 11.167031692940398  7.496661006497474 10.578455335920138  7.18902290832775 9.97397221450288  Z M 0.3885983368938075 12.336226995113023  C 0.3885983368938075 12.336226995113023  0.21858849467808705 10.689808375644143  0.21858849467808705 10.689808375644143  C 1.2872264417066912 10.657993424613894  2.5501499253189994 10.610266494320364  4.007383675886303 10.546636592259862  C 5.480808822764253 10.483007164278114  7.002801523596478 10.403471920056877  8.573375530882133 10.308027066966124  C 8.573375530882133 10.308027066966124  8.549101646053513 11.787418260203381  8.549101646053513 11.787418260203381  C 7.075676740447478 11.882863113294134  5.626548881773908 11.978309862699899  4.20169828573577 12.073754241711898  C 2.776847569061673 12.169199094802648  1.5058108347622225 12.256689854576775  0.3885983368938075 12.336226995113023  Z M 7.553316477587811 16.08242764179092  C 7.278060930767464 15.271148049795164  6.986631479850312 14.531449608704017  6.678993381680589 13.863337059305012  C 6.678993381680589 13.863337059305012  8.014767351772607 13.45770010777965  8.014767351772607 13.45770010777965  C 8.338597208160849 14.109905418702906  8.638140151037058 14.833691880530775  8.913395215313574 15.629064234050784  C 9.204842037808609 16.40852887501629  9.407241669531158 17.084596110330367  9.520582046885469 17.657264162197684  C 9.520582046885469 17.657264162197684  8.136229424331086 18.13449079804521  8.136229424331086 18.13449079804521  C 8.022889046976776 17.56182286469758  7.828571541864328 16.877799876791244  7.553316477587811 16.08242764179092  Z M 0.995785168465702 16.726681703870067  C 1.25484895706753 15.708605404256433  1.4572177059849531 14.682574537247419  1.6029411172324708 13.64859076211866  C 1.6029411172324708 13.64859076211866  3.157334464807701 13.911063515519787  3.157334464807701 13.911063515519787  C 2.9954197778854947 15.040491906699922  2.7687419184398543 16.15401365200275  2.477295095944819 17.25162721067232  C 2.1858483940857414 18.33333341234646  1.8458317255532388 19.255961599577915  1.4572360426504964 20.019518942807828  C 1.3438956652961862 19.939981728196774  1.19816537779909 19.860446646940108  1.0200590532943226 19.780909417514092  C 0.8581442457361588 19.701372202903034  0.6800226004647862 19.62183712164637  0.48572475901341516 19.54229989222035  C 0.30761843450864784 19.44685524653905  0.14572338108852825 19.37526834742956  0 19.327546009773954  C 0.42097862631898114 18.595803558314444  0.7529129571284563 17.728850765007955  0.995785168465702 16.726681703870067  Z M 4.20169828573577 22  L 4.20169828573577 11.35791808057063  L 6 11.35791808057063  L 6 22  L 4.20169828573577 22  Z M 11.09924927928932 6.681127390305072  C 11.09924927928932 6.681127390305072  11.09924927928932 2.5054265639944253  11.09924927928932 2.5054265639944253  L 12.726495164155537 2.5054265639944253  C 12.726495164155537 2.5054265639944253  12.726495164155537 6.681127390305072  12.726495164155537 6.681127390305072  C 12.726495164155537 7.794648305970082  12.677938708709354 9.003616919198363  12.580790089573561 10.308027066966124  C 12.499832746112459 11.596529976258136  12.321711342113003 12.916848784737905  12.046455795292653 14.268981596090418  C 11.771200248472308 15.605206931927807  11.35831837587328 16.925525740407576  10.807808247320246 18.229936125214714  C 10.257297636223383 19.518439153026414  9.520595075568881 20.74331133062011  8.59768029851588 21.904554672830493  C 8.500531679380089 21.80911005677912  8.36288363912905 21.697759387448876  8.184777193988326 21.570499820367253  C 8.02286250706612 21.443240253285623  7.852854112481889 21.323933831363117  7.6747476673411645 21.21258173979662  C 7.512832980418959 21.101229648230117  7.359020204403888 21.013738769936303  7.2132967931563705 20.95010898639549  C 8.103828053772334 19.868402784721354  8.808170742637472 18.71510998023695  9.32629831984113 17.49023673596606  C 9.860617655263303 16.249456253219424  10.249190417334116 15.000724047549927  10.492062447717425 13.744036089288164  C 10.734934960644564 12.471440418471902  10.896860746074863 11.23861284384501  10.977818089535965 10.045554313564997  C 11.058775432997068 8.836588544809233  11.09924927928932 7.715110691355079  11.09924927928932 6.681127390305072  Z " fill-rule="nonzero" fill="rgba(255, 255, 255, 1)" stroke="none" transform="matrix(1 0 0 1 1761 327 )" class="fill" />
    <path d="M 8.719111488269235 3.173536268920914  L 8.719111488269235 1.503254421344646  L 18.069683692938984 1.503254421344646  L 18.069683692938984 3.173536268920914  L 8.719111488269235 3.173536268920914  Z " stroke-width="0" stroke-dasharray="0" stroke="rgba(121, 121, 121, 1)" fill="none" transform="matrix(1 0 0 1 1761 327 )" class="stroke" mask="url(#Clip5078)" />
    <path d="M 17.341065671613734 1.718008303791044  C 17.341065671613734 1.718008303791044  17.341065671613734 1.503254421344646  17.341065671613734 1.503254421344646  L 17.5353802814632 1.503254421344646  L 17.826821313432276 1.4078090941751407  C 17.826821313432276 1.4078090941751407  19.065468861404682 1.598699748514151  19.065468861404682 1.598699748514151  C 18.935936725831855 2.4258875271431632  18.77401142294539 3.3405674877825597  18.579713219586143 4.342735837802316  C 18.38541598131456 5.344905135979578  18.183046749853307 6.3629797763175775  17.972557270819372 7.396963551446336  C 17.762067791785444 8.415040088099348  17.551555150647665 9.36948387821934  17.341065671613734 10.260300610751347  C 17.341065671613734 10.260300610751347  15.66524113428515 10.093273184519726  15.66524113428515 10.093273184519726  C 15.827155821207358 9.425160635120719  15.989081124093824 8.709329688845736  16.15099677610369 7.94577228635598  C 16.3129114630259 7.166307171311719  16.466724239040968 6.394793305111569  16.612447650288484 5.631236376700563  C 16.774362337210693 4.851771261656303  16.91201086000556 4.127984799828435  17.02535075481604 3.459872250429429  C 17.15488289038887 2.775852462554674  17.260108328152633 2.1952311470085455  17.341065671613734 1.718008303791044  Z " stroke-width="0" stroke-dasharray="0" stroke="rgba(121, 121, 121, 1)" fill="none" transform="matrix(1 0 0 1 1761 327 )" class="stroke" mask="url(#Clip5078)" />
    <path d="M 16.612447650288484 9.16269072619211  L 17.098203292107026 7.516272106723229  L 21.178470388089444 7.516272106723229  L 21.178470388089444 9.16269072619211  L 16.612447650288484 9.16269072619211  Z " stroke-width="0" stroke-dasharray="0" stroke="rgba(121, 121, 121, 1)" fill="none" transform="matrix(1 0 0 1 1761 327 )" class="stroke" mask="url(#Clip5078)" />
    <path d="M 20.546978788883802 7.8980458301412035  C 20.546978788883802 7.8980458301412035  20.546978788883802 7.516272106723229  20.546978788883802 7.516272106723229  L 20.91130324094899 7.516272106723229  L 21.227018157746684 7.444690007661112  C 21.227018157746684 7.444690007661112  22.319960631137118 7.8980458301412035  22.319960631137118 7.8980458301412035  C 21.83421560528284 10.300069655098225  21.10559565378227 12.415762476373638  20.134106567161375 14.245118367983032  C 19.162617480540476 16.058567021116673  18.02111469135322 17.60158704973724  16.70960495521322 18.874182602033816  C 15.39809425398556 20.14677815433039  13.96516297896881 21.16486061696781  12.410780247357842 21.928417900937884  C 12.329822903896737 21.801158333856254  12.216483974173919 21.65003636830506  12.070760562926402 21.475054493197746  C 11.925037151678882 21.300072618090432  11.771193492858686 21.125090861502805  11.60927880593648 20.95010898639549  C 11.447364119014274 20.79103452754346  11.301664834958261 20.671728105620954  11.172132699385433 20.59219090582486  C 12.694132879647023 19.89226334613576  14.078477781500126 18.96167928779235  15.325221449853709 17.800435945581967  C 16.588157358969642 16.639192484851893  17.67299020075166 15.239330965410524  18.579713219586143 13.600864305903883  C 19.486436238420627 11.946490170882118  20.142191106490625 10.045550520934972  20.546978788883802 7.8980458301412035  Z " stroke-width="0" stroke-dasharray="0" stroke="rgba(121, 121, 121, 1)" fill="none" transform="matrix(1 0 0 1 1761 327 )" class="stroke" mask="url(#Clip5078)" />
    <path d="M 11.317837773967407 4.318872609694927  C 11.317837773967407 4.318872609694927  12.677916511693171 4.104126312508576  12.677916511693171 4.104126312508576  C 13.001745885537582 6.028926820169345  13.438937351208658 7.866234671740975  13.989447479761692 9.616054133932247  C 14.539958573402386 11.349965409490265  15.219991186651647 12.940705375742752  16.029565586350337 14.388282566107266  C 16.855331261723716 15.819952755035406  17.834907782936845 17.060736319293934  18.96831155647995 18.110627569937822  C 20.117906605697744 19.160518820581707  21.46180854406372 19.963848230410548  23 20.52060880676274  C 22.87046786442717 20.631960898329243  22.72473769756603 20.76717132906599  22.56282301064383 20.926245758288104  C 22.41709959939631 21.101227633395418  22.279482924494225 21.2762093307232  22.149950788921398 21.45119126509036  C 22.03661089411092 21.642080556452953  21.93135457354203 21.817062372300423  21.834204989318575 21.976136771892612  C 20.247439706358232 21.32393163874889  18.871177413659062 20.433111291366387  17.70539012367892 19.303682781666563  C 16.53960379878644 18.174254271966742  15.543831176460321 16.845987296154757  14.71806550108694 15.318872609694926  C 13.90849110138825 13.791758278794164  13.228426640246203 12.097616047583024  12.677916511693171 10.236444967904006  C 12.127405418052476 8.37527436230374  11.674050181705027 6.402748346585701  11.317837773967407 4.318872609694927  Z " stroke-width="0" stroke-dasharray="0" stroke="rgba(121, 121, 121, 1)" fill="none" transform="matrix(1 0 0 1 1761 327 )" class="stroke" mask="url(#Clip5078)" />
    <path d="M 3.375922959485788 1.765727174745773  C 3.6835612989274265 1.113521863822516  3.9345171448242433 0.5249455068022543  4.128814865639656 0  C 4.128814865639656 0  5.731786865677253 0.6442540620791474  5.731786865677253 0.6442540620791474  C 5.424148767507529 1.2010140458328995  5.100296714103103 1.7975463924848  4.760275582040172 2.4338444649323083  C 4.420254208705326 3.0701425373798163  4.072155292926763 3.682578329877443  3.7159426439172285 4.271153738740199  C 3.3759215118542976 4.8597291476029545  3.043987090567854 5.36876267514193  2.7201574754515265 5.798263802932186  C 2.7201574754515265 5.798263802932186  1.4815099274791173 5.24946265328259  1.4815099274791173 5.24946265328259  C 1.7891481462847985 4.788146100383331  2.104886828366125 4.255245552106944  2.4287164434824526 3.650762904768439  C 2.752546299870695 3.0303730189541858  3.068284861316064 2.4020252471932815  3.375922959485788 1.765727174745773  Z " stroke-width="0" stroke-dasharray="0" stroke="rgba(121, 121, 121, 1)" fill="none" transform="matrix(1 0 0 1 1761 327 )" class="stroke" mask="url(#Clip5078)" />
    <path d="M 5.707482098043507 4.8199624736498405  C 6.14465184924223 4.05640459708133  6.533255494118168 3.3564699854707793  6.873277108724929 2.7201728611807767  C 6.873277108724929 2.7201728611807767  8.403365688666414 3.4121533794747  8.403365688666414 3.4121533794747  C 7.85285507756955 4.318877350482457  7.237573573247971 5.281277130234088  6.557531309122109 6.299353666887099  C 5.893680320670936 7.31743020354011  5.221760234293073 8.295733429137467  4.541717970167211 9.234272825254227  C 3.8616754647694327 10.172811747292235  3.2140027233095356 11.000000948157506  2.598726285698173 11.715836161141263  C 2.598726285698173 11.715836161141263  1.4815099274791173 11.095445327169505  1.4815099274791173 11.095445327169505  C 1.934871557532316 10.554592581891502  2.4044227743567985 9.942156315315122  2.8901673176672475 9.258136053361616  C 3.392103377924299 8.558208552932358  3.8778503339538988 7.834422091104489  4.3474033603177435 7.0867719270904805  C 4.833147903628193 6.323214998679475  5.286503381247558 5.567612163585098  5.707482098043507 4.8199624736498405  Z " stroke-width="0" stroke-dasharray="0" stroke="rgba(121, 121, 121, 1)" fill="none" transform="matrix(1 0 0 1 1761 327 )" class="stroke" mask="url(#Clip5078)" />
    <path d="M 1.6515197696948376 6.299353666887099  C 1.1981582602775962 5.838038062145347  0.7528850299042902 5.416487235041695  0.3157149167976948 5.034708770836192  C 0.3157149167976948 5.034708770836192  1.2386475479724095 3.8416535591074497  1.2386475479724095 3.8416535591074497  C 1.692009057389651 4.2075247848372035  2.1453647762809314 4.621112037049168  2.598726285698173 5.082427641790921  C 3.068279553333933 5.5278360080569255  3.497357044502122 5.973246270637942  3.885952486132949 6.418654636903945  C 4.2745481690356915 6.848155764694201  4.574090870639986 7.2378902185313425  4.784580349673917 7.587854205785346  C 4.784580349673917 7.587854205785346  3.788795181208216 8.947936843745712  3.788795181208216 8.947936843745712  C 3.5783059434461983 8.582065618015958  3.278763000569989 8.168478365803992  2.8901673176672475 7.707162761062239  C 2.517763151711109 7.2299389696872325  2.1048813997480367 6.760669271628852  1.6515197696948376 6.299353666887099  Z " stroke-width="0" stroke-dasharray="0" stroke="rgba(121, 121, 121, 1)" fill="none" transform="matrix(1 0 0 1 1761 327 )" class="stroke" mask="url(#Clip5078)" />
    <path d="M 7.18902290832775 9.97397221450288  C 6.897576085832714 9.353581854609873  6.589919650997447 8.788865407145728  6.266090277153035 8.279827138819224  C 6.266090277153035 8.279827138819224  7.553316477587811 7.75488163201697  7.553316477587811 7.75488163201697  C 7.893337609650743 8.263920374422227  8.217158780250044 8.820680832254732  8.524796878419767 9.425163479593238  C 8.832434976589491 10.013738888455993  9.099617565132506 10.594359255844616  9.32629831984113 11.167027426231623  C 9.569170832768268 11.723787884064127  9.7472613539626 12.224873481310263  9.86060173131691 12.67028184757627  C 9.86060173131691 12.67028184757627  8.476249108762525 13.26680945344064  8.476249108762525 13.26680945344064  C 8.379100489626735 12.821401087174635  8.217174704196436 12.312367559635659  7.990493466943985 11.739699389248653  C 7.763812712235365 11.167031692940398  7.496661006497474 10.578455335920138  7.18902290832775 9.97397221450288  Z " stroke-width="0" stroke-dasharray="0" stroke="rgba(121, 121, 121, 1)" fill="none" transform="matrix(1 0 0 1 1761 327 )" class="stroke" mask="url(#Clip5078)" />
    <path d="M 0.3885983368938075 12.336226995113023  C 0.3885983368938075 12.336226995113023  0.21858849467808705 10.689808375644143  0.21858849467808705 10.689808375644143  C 1.2872264417066912 10.657993424613894  2.5501499253189994 10.610266494320364  4.007383675886303 10.546636592259862  C 5.480808822764253 10.483007164278114  7.002801523596478 10.403471920056877  8.573375530882133 10.308027066966124  C 8.573375530882133 10.308027066966124  8.549101646053513 11.787418260203381  8.549101646053513 11.787418260203381  C 7.075676740447478 11.882863113294134  5.626548881773908 11.978309862699899  4.20169828573577 12.073754241711898  C 2.776847569061673 12.169199094802648  1.5058108347622225 12.256689854576775  0.3885983368938075 12.336226995113023  Z " stroke-width="0" stroke-dasharray="0" stroke="rgba(121, 121, 121, 1)" fill="none" transform="matrix(1 0 0 1 1761 327 )" class="stroke" mask="url(#Clip5078)" />
    <path d="M 7.553316477587811 16.08242764179092  C 7.278060930767464 15.271148049795164  6.986631479850312 14.531449608704017  6.678993381680589 13.863337059305012  C 6.678993381680589 13.863337059305012  8.014767351772607 13.45770010777965  8.014767351772607 13.45770010777965  C 8.338597208160849 14.109905418702906  8.638140151037058 14.833691880530775  8.913395215313574 15.629064234050784  C 9.204842037808609 16.40852887501629  9.407241669531158 17.084596110330367  9.520582046885469 17.657264162197684  C 9.520582046885469 17.657264162197684  8.136229424331086 18.13449079804521  8.136229424331086 18.13449079804521  C 8.022889046976776 17.56182286469758  7.828571541864328 16.877799876791244  7.553316477587811 16.08242764179092  Z " stroke-width="0" stroke-dasharray="0" stroke="rgba(121, 121, 121, 1)" fill="none" transform="matrix(1 0 0 1 1761 327 )" class="stroke" mask="url(#Clip5078)" />
    <path d="M 0.995785168465702 16.726681703870067  C 1.25484895706753 15.708605404256433  1.4572177059849531 14.682574537247419  1.6029411172324708 13.64859076211866  C 1.6029411172324708 13.64859076211866  3.157334464807701 13.911063515519787  3.157334464807701 13.911063515519787  C 2.9954197778854947 15.040491906699922  2.7687419184398543 16.15401365200275  2.477295095944819 17.25162721067232  C 2.1858483940857414 18.33333341234646  1.8458317255532388 19.255961599577915  1.4572360426504964 20.019518942807828  C 1.3438956652961862 19.939981728196774  1.19816537779909 19.860446646940108  1.0200590532943226 19.780909417514092  C 0.8581442457361588 19.701372202903034  0.6800226004647862 19.62183712164637  0.48572475901341516 19.54229989222035  C 0.30761843450864784 19.44685524653905  0.14572338108852825 19.37526834742956  0 19.327546009773954  C 0.42097862631898114 18.595803558314444  0.7529129571284563 17.728850765007955  0.995785168465702 16.726681703870067  Z " stroke-width="0" stroke-dasharray="0" stroke="rgba(121, 121, 121, 1)" fill="none" transform="matrix(1 0 0 1 1761 327 )" class="stroke" mask="url(#Clip5078)" />
    <path d="M 4.20169828573577 22  L 4.20169828573577 11.35791808057063  L 6 11.35791808057063  L 6 22  L 4.20169828573577 22  Z " stroke-width="0" stroke-dasharray="0" stroke="rgba(121, 121, 121, 1)" fill="none" transform="matrix(1 0 0 1 1761 327 )" class="stroke" mask="url(#Clip5078)" />
    <path d="M 11.09924927928932 6.681127390305072  C 11.09924927928932 6.681127390305072  11.09924927928932 2.5054265639944253  11.09924927928932 2.5054265639944253  L 12.726495164155537 2.5054265639944253  C 12.726495164155537 2.5054265639944253  12.726495164155537 6.681127390305072  12.726495164155537 6.681127390305072  C 12.726495164155537 7.794648305970082  12.677938708709354 9.003616919198363  12.580790089573561 10.308027066966124  C 12.499832746112459 11.596529976258136  12.321711342113003 12.916848784737905  12.046455795292653 14.268981596090418  C 11.771200248472308 15.605206931927807  11.35831837587328 16.925525740407576  10.807808247320246 18.229936125214714  C 10.257297636223383 19.518439153026414  9.520595075568881 20.74331133062011  8.59768029851588 21.904554672830493  C 8.500531679380089 21.80911005677912  8.36288363912905 21.697759387448876  8.184777193988326 21.570499820367253  C 8.02286250706612 21.443240253285623  7.852854112481889 21.323933831363117  7.6747476673411645 21.21258173979662  C 7.512832980418959 21.101229648230117  7.359020204403888 21.013738769936303  7.2132967931563705 20.95010898639549  C 8.103828053772334 19.868402784721354  8.808170742637472 18.71510998023695  9.32629831984113 17.49023673596606  C 9.860617655263303 16.249456253219424  10.249190417334116 15.000724047549927  10.492062447717425 13.744036089288164  C 10.734934960644564 12.471440418471902  10.896860746074863 11.23861284384501  10.977818089535965 10.045554313564997  C 11.058775432997068 8.836588544809233  11.09924927928932 7.715110691355079  11.09924927928932 6.681127390305072  Z " stroke-width="0" stroke-dasharray="0" stroke="rgba(121, 121, 121, 1)" fill="none" transform="matrix(1 0 0 1 1761 327 )" class="stroke" mask="url(#Clip5078)" />
  </g>
</svg>