<?xml version="1.0" encoding="utf-8"?>
<svg version="1.1" xmlns:xlink="http://www.w3.org/1999/xlink" width="9px" height="12px" xmlns="http://www.w3.org/2000/svg">
  <defs>
    <pattern id="BGPattern" patternUnits="userSpaceOnUse" alignment="0 0" imageRepeat="None" />
    <mask fill="white" id="Clip5128">
      <path d="M 9 4.409643214839015  C 9 4.409643214839015  9 12  9 12  L 7.325583458463803 12  C 7.325583458463803 12  7.325583458463803 4.698794119393096  7.325583458463803 4.698794119393096  C 7.325583458463803 2.6024088887016434  6.2325676074178 1.5421713510956718  4.511636312259938 1.5421713510956718  C 2.790705017102077 1.5421713510956718  1.674416541536197 2.6265049569984926  1.674416541536197 4.698794119393096  C 1.674416541536197 4.698794119393096  1.674416541536197 12  1.674416541536197 12  L 0 12  L 0 0.14458311230948062  L 1.674416541536197 0.14458311230948062  C 1.674416541536197 0.14458311230948062  1.674416541536197 1.4457851629001648  1.674416541536197 1.4457851629001648  C 2.4883707853689354 0.4819302228494938  3.6046614556808136 0  4.883732162747372 0  C 6.116291119528896 0  7.116278849486938 0.3855459496620969  7.813953717607089 1.1084373342321105  C 8.627907614900986 1.9277144282456034  9 3.036150086845618  9 4.409643214839015  Z " fill-rule="evenodd" />
    </mask>
  </defs>
  <g transform="matrix(1 0 0 1 -1662 -273 )">
    <path d="M 9 4.409643214839015  C 9 4.409643214839015  9 12  9 12  L 7.325583458463803 12  C 7.325583458463803 12  7.325583458463803 4.698794119393096  7.325583458463803 4.698794119393096  C 7.325583458463803 2.6024088887016434  6.2325676074178 1.5421713510956718  4.511636312259938 1.5421713510956718  C 2.790705017102077 1.5421713510956718  1.674416541536197 2.6265049569984926  1.674416541536197 4.698794119393096  C 1.674416541536197 4.698794119393096  1.674416541536197 12  1.674416541536197 12  L 0 12  L 0 0.14458311230948062  L 1.674416541536197 0.14458311230948062  C 1.674416541536197 0.14458311230948062  1.674416541536197 1.4457851629001648  1.674416541536197 1.4457851629001648  C 2.4883707853689354 0.4819302228494938  3.6046614556808136 0  4.883732162747372 0  C 6.116291119528896 0  7.116278849486938 0.3855459496620969  7.813953717607089 1.1084373342321105  C 8.627907614900986 1.9277144282456034  9 3.036150086845618  9 4.409643214839015  Z " fill-rule="nonzero" fill="rgba(255, 255, 255, 1)" stroke="none" transform="matrix(1 0 0 1 1662 273 )" class="fill" />
    <path d="M 9 4.409643214839015  C 9 4.409643214839015  9 12  9 12  L 7.325583458463803 12  C 7.325583458463803 12  7.325583458463803 4.698794119393096  7.325583458463803 4.698794119393096  C 7.325583458463803 2.6024088887016434  6.2325676074178 1.5421713510956718  4.511636312259938 1.5421713510956718  C 2.790705017102077 1.5421713510956718  1.674416541536197 2.6265049569984926  1.674416541536197 4.698794119393096  C 1.674416541536197 4.698794119393096  1.674416541536197 12  1.674416541536197 12  L 0 12  L 0 0.14458311230948062  L 1.674416541536197 0.14458311230948062  C 1.674416541536197 0.14458311230948062  1.674416541536197 1.4457851629001648  1.674416541536197 1.4457851629001648  C 2.4883707853689354 0.4819302228494938  3.6046614556808136 0  4.883732162747372 0  C 6.116291119528896 0  7.116278849486938 0.3855459496620969  7.813953717607089 1.1084373342321105  C 8.627907614900986 1.9277144282456034  9 3.036150086845618  9 4.409643214839015  Z " stroke-width="0" stroke-dasharray="0" stroke="rgba(121, 121, 121, 1)" fill="none" transform="matrix(1 0 0 1 1662 273 )" class="stroke" mask="url(#Clip5128)" />
  </g>
</svg>