<?xml version="1.0" encoding="utf-8"?>
<svg version="1.1" xmlns:xlink="http://www.w3.org/1999/xlink" width="9px" height="17px" xmlns="http://www.w3.org/2000/svg">
  <defs>
    <pattern id="BGPattern" patternUnits="userSpaceOnUse" alignment="0 0" imageRepeat="None" />
    <mask fill="white" id="Clip5105">
      <path d="M 9 0  L 9 16.857937743759166  L 7.365734402185401 16.857937743759166  C 7.365734402185401 16.857937743759166  7.365734402185401 15.461001632403317  7.365734402185401 15.461001632403317  C 6.4450187452235 16.692199385646095  5.38619451637425 17  4.143228345176344 17  C 2.992333259483894 17  1.9795414292813704 16.597491626434  1.3810761150587816 15.981892808614768  C 0.23018125802858586 14.798048905576957  0 12.856545986554698  0 11.033426634605977  C 0 9.210306929844291  0.23018125802858586 7.268800129879446  1.3810761150587816 6.084956697258917  C 1.9795414292813704 5.4693573502202435  2.992333259483894 5.066853269211953  4.143228345176344 5.066853269211953  C 5.38619451637425 5.066853269211953  6.42199885872128 5.350973077520783  7.3427145156831815 6.558493788056758  C 7.3427145156831815 6.558493788056758  7.3427145156831815 0  7.3427145156831815 0  L 9 0  Z M 4.511517260443259 15.484680556779256  C 6.974432002959398 15.484680556779256  7.3427145156831815 13.30640674027166  7.3427145156831815 11.033426634605977  C 7.3427145156831815 8.760446528940292  6.974432002959398 6.582172712432698  4.511517260443259 6.582172712432698  C 2.048602060602611 6.582172712432698  1.6573001187011172 8.760446528940292  1.6573001187011172 11.033426634605977  C 1.6573001187011172 13.30640674027166  2.048602060602611 15.484680556779256  4.511517260443259 15.484680556779256  Z " fill-rule="evenodd" />
    </mask>
  </defs>
  <g transform="matrix(1 0 0 1 -1594 -299 )">
    <path d="M 9 0  L 9 16.857937743759166  L 7.365734402185401 16.857937743759166  C 7.365734402185401 16.857937743759166  7.365734402185401 15.461001632403317  7.365734402185401 15.461001632403317  C 6.4450187452235 16.692199385646095  5.38619451637425 17  4.143228345176344 17  C 2.992333259483894 17  1.9795414292813704 16.597491626434  1.3810761150587816 15.981892808614768  C 0.23018125802858586 14.798048905576957  0 12.856545986554698  0 11.033426634605977  C 0 9.210306929844291  0.23018125802858586 7.268800129879446  1.3810761150587816 6.084956697258917  C 1.9795414292813704 5.4693573502202435  2.992333259483894 5.066853269211953  4.143228345176344 5.066853269211953  C 5.38619451637425 5.066853269211953  6.42199885872128 5.350973077520783  7.3427145156831815 6.558493788056758  C 7.3427145156831815 6.558493788056758  7.3427145156831815 0  7.3427145156831815 0  L 9 0  Z M 4.511517260443259 15.484680556779256  C 6.974432002959398 15.484680556779256  7.3427145156831815 13.30640674027166  7.3427145156831815 11.033426634605977  C 7.3427145156831815 8.760446528940292  6.974432002959398 6.582172712432698  4.511517260443259 6.582172712432698  C 2.048602060602611 6.582172712432698  1.6573001187011172 8.760446528940292  1.6573001187011172 11.033426634605977  C 1.6573001187011172 13.30640674027166  2.048602060602611 15.484680556779256  4.511517260443259 15.484680556779256  Z " fill-rule="nonzero" fill="rgba(255, 255, 255, 1)" stroke="none" transform="matrix(1 0 0 1 1594 299 )" class="fill" />
    <path d="M 9 0  L 9 16.857937743759166  L 7.365734402185401 16.857937743759166  C 7.365734402185401 16.857937743759166  7.365734402185401 15.461001632403317  7.365734402185401 15.461001632403317  C 6.4450187452235 16.692199385646095  5.38619451637425 17  4.143228345176344 17  C 2.992333259483894 17  1.9795414292813704 16.597491626434  1.3810761150587816 15.981892808614768  C 0.23018125802858586 14.798048905576957  0 12.856545986554698  0 11.033426634605977  C 0 9.210306929844291  0.23018125802858586 7.268800129879446  1.3810761150587816 6.084956697258917  C 1.9795414292813704 5.4693573502202435  2.992333259483894 5.066853269211953  4.143228345176344 5.066853269211953  C 5.38619451637425 5.066853269211953  6.42199885872128 5.350973077520783  7.3427145156831815 6.558493788056758  C 7.3427145156831815 6.558493788056758  7.3427145156831815 0  7.3427145156831815 0  L 9 0  Z " stroke-width="0" stroke-dasharray="0" stroke="rgba(121, 121, 121, 1)" fill="none" transform="matrix(1 0 0 1 1594 299 )" class="stroke" mask="url(#Clip5105)" />
    <path d="M 4.511517260443259 15.484680556779256  C 6.974432002959398 15.484680556779256  7.3427145156831815 13.30640674027166  7.3427145156831815 11.033426634605977  C 7.3427145156831815 8.760446528940292  6.974432002959398 6.582172712432698  4.511517260443259 6.582172712432698  C 2.048602060602611 6.582172712432698  1.6573001187011172 8.760446528940292  1.6573001187011172 11.033426634605977  C 1.6573001187011172 13.30640674027166  2.048602060602611 15.484680556779256  4.511517260443259 15.484680556779256  Z " stroke-width="0" stroke-dasharray="0" stroke="rgba(121, 121, 121, 1)" fill="none" transform="matrix(1 0 0 1 1594 299 )" class="stroke" mask="url(#Clip5105)" />
  </g>
</svg>