<?xml version="1.0" encoding="utf-8"?>
<svg version="1.1" xmlns:xlink="http://www.w3.org/1999/xlink" width="21px" height="25px" xmlns="http://www.w3.org/2000/svg">
  <defs>
    <pattern id="BGPattern" patternUnits="userSpaceOnUse" alignment="0 0" imageRepeat="None" />
    <mask fill="white" id="Clip5020">
      <path d="M 11.635495639495975 8.382596793335871  C 12.578243336015541 9.227901000962895  13 10.448895889782117  13 11.928177553351098  C 13 15.168509182957505  10.146946346648903 17  6.450381336983624 17  C 3.7709920183624757 17  1.736641129187899 16.459947138746443  0 14.792819901321927  C 0 14.792819901321927  2.23282430895587 12.679560315292115  2.23282430895587 12.679560315292115  C 3.349236586662226 13.736190224936738  4.862595211017485 14.08839879526166  6.5 14.08839879526166  C 8.534350642717735 14.08839879526166  9.625952603088537 13.36049896059595  9.625952603088537 12.022100865112598  C 9.625952603088537 11.435084481902798  9.452289254185956 10.941989777638444  9.080152239045239 10.613260519067559  C 8.732824062499029 10.308011621918176  8.335877715850124 10.143646759373297  7.51717569104413 10.026243552709168  C 7.51717569104413 10.026243552709168  5.3835879687504855 9.744477349575654  5.3835879687504855 9.744477349575654  C 3.8702292211668055 9.533151297668898  2.753816820232029 9.087018132655574  1.9599236340205384 8.359117831470991  C 1.1164122160921455 7.56077504646528  0.6946564147066333 6.480664192250561  0.6946564147066333 5.071824312724395  C 0.6946564147066333 2.0897806241649315  3.0267174951673605 0  6.847328176546212 0  C 9.278625412369692 0  11.040074887238411 0.5635366049368893  12.553434004507354 1.9488947234849334  C 12.553434004507354 1.9488947234849334  10.370227619197335 3.9917136917691143  10.370227619197335 3.9917136917691143  C 9.253815834404662 2.9820455546349582  7.914122284149875 2.8411615200304543  6.748091343427145 2.8411615200304543  C 4.912213627577019 2.8411615200304543  4.019083854703303 3.803867068246113  4.019083854703303 4.95442017302252  C 4.019083854703303 5.3770722768360315  4.167938734696642 5.823205675108793  4.540076119522619 6.1519349336796765  C 4.887404296068831 6.45718383082906  5.4580151006761035 6.715470372319382  6.177480662048293 6.809392517783699  C 6.177480662048293 6.809392517783699  8.261450707152928 7.091161520030455  8.261450707152928 7.091161520030455  C 9.874045918170413 7.302487571937211  10.891220869844018 7.725138276194102  11.635495639495975 8.382596793335871  Z " fill-rule="evenodd" />
    </mask>
  </defs>
  <g transform="matrix(1 0 0 1 -1430 -427 )">
    <path d="M 11.635495639495975 8.382596793335871  C 12.578243336015541 9.227901000962895  13 10.448895889782117  13 11.928177553351098  C 13 15.168509182957505  10.146946346648903 17  6.450381336983624 17  C 3.7709920183624757 17  1.736641129187899 16.459947138746443  0 14.792819901321927  C 0 14.792819901321927  2.23282430895587 12.679560315292115  2.23282430895587 12.679560315292115  C 3.349236586662226 13.736190224936738  4.862595211017485 14.08839879526166  6.5 14.08839879526166  C 8.534350642717735 14.08839879526166  9.625952603088537 13.36049896059595  9.625952603088537 12.022100865112598  C 9.625952603088537 11.435084481902798  9.452289254185956 10.941989777638444  9.080152239045239 10.613260519067559  C 8.732824062499029 10.308011621918176  8.335877715850124 10.143646759373297  7.51717569104413 10.026243552709168  C 7.51717569104413 10.026243552709168  5.3835879687504855 9.744477349575654  5.3835879687504855 9.744477349575654  C 3.8702292211668055 9.533151297668898  2.753816820232029 9.087018132655574  1.9599236340205384 8.359117831470991  C 1.1164122160921455 7.56077504646528  0.6946564147066333 6.480664192250561  0.6946564147066333 5.071824312724395  C 0.6946564147066333 2.0897806241649315  3.0267174951673605 0  6.847328176546212 0  C 9.278625412369692 0  11.040074887238411 0.5635366049368893  12.553434004507354 1.9488947234849334  C 12.553434004507354 1.9488947234849334  10.370227619197335 3.9917136917691143  10.370227619197335 3.9917136917691143  C 9.253815834404662 2.9820455546349582  7.914122284149875 2.8411615200304543  6.748091343427145 2.8411615200304543  C 4.912213627577019 2.8411615200304543  4.019083854703303 3.803867068246113  4.019083854703303 4.95442017302252  C 4.019083854703303 5.3770722768360315  4.167938734696642 5.823205675108793  4.540076119522619 6.1519349336796765  C 4.887404296068831 6.45718383082906  5.4580151006761035 6.715470372319382  6.177480662048293 6.809392517783699  C 6.177480662048293 6.809392517783699  8.261450707152928 7.091161520030455  8.261450707152928 7.091161520030455  C 9.874045918170413 7.302487571937211  10.891220869844018 7.725138276194102  11.635495639495975 8.382596793335871  Z " fill-rule="nonzero" fill="rgba(255, 255, 255, 1)" stroke="none" transform="matrix(1 0 0 1 1434 427 )" class="fill" />
    <path d="M 11.635495639495975 8.382596793335871  C 12.578243336015541 9.227901000962895  13 10.448895889782117  13 11.928177553351098  C 13 15.168509182957505  10.146946346648903 17  6.450381336983624 17  C 3.7709920183624757 17  1.736641129187899 16.459947138746443  0 14.792819901321927  C 0 14.792819901321927  2.23282430895587 12.679560315292115  2.23282430895587 12.679560315292115  C 3.349236586662226 13.736190224936738  4.862595211017485 14.08839879526166  6.5 14.08839879526166  C 8.534350642717735 14.08839879526166  9.625952603088537 13.36049896059595  9.625952603088537 12.022100865112598  C 9.625952603088537 11.435084481902798  9.452289254185956 10.941989777638444  9.080152239045239 10.613260519067559  C 8.732824062499029 10.308011621918176  8.335877715850124 10.143646759373297  7.51717569104413 10.026243552709168  C 7.51717569104413 10.026243552709168  5.3835879687504855 9.744477349575654  5.3835879687504855 9.744477349575654  C 3.8702292211668055 9.533151297668898  2.753816820232029 9.087018132655574  1.9599236340205384 8.359117831470991  C 1.1164122160921455 7.56077504646528  0.6946564147066333 6.480664192250561  0.6946564147066333 5.071824312724395  C 0.6946564147066333 2.0897806241649315  3.0267174951673605 0  6.847328176546212 0  C 9.278625412369692 0  11.040074887238411 0.5635366049368893  12.553434004507354 1.9488947234849334  C 12.553434004507354 1.9488947234849334  10.370227619197335 3.9917136917691143  10.370227619197335 3.9917136917691143  C 9.253815834404662 2.9820455546349582  7.914122284149875 2.8411615200304543  6.748091343427145 2.8411615200304543  C 4.912213627577019 2.8411615200304543  4.019083854703303 3.803867068246113  4.019083854703303 4.95442017302252  C 4.019083854703303 5.3770722768360315  4.167938734696642 5.823205675108793  4.540076119522619 6.1519349336796765  C 4.887404296068831 6.45718383082906  5.4580151006761035 6.715470372319382  6.177480662048293 6.809392517783699  C 6.177480662048293 6.809392517783699  8.261450707152928 7.091161520030455  8.261450707152928 7.091161520030455  C 9.874045918170413 7.302487571937211  10.891220869844018 7.725138276194102  11.635495639495975 8.382596793335871  Z " stroke-width="0" stroke-dasharray="0" stroke="rgba(121, 121, 121, 1)" fill="none" transform="matrix(1 0 0 1 1434 427 )" class="stroke" mask="url(#Clip5020)" />
  </g>
  <style>svg { filter: drop-shadow(0px 4px 2px rgba(0, 0, 0, 0.12941176470588237)); }</style>
</svg>