<?xml version="1.0" encoding="utf-8"?>
<svg version="1.1" xmlns:xlink="http://www.w3.org/1999/xlink" width="21px" height="20px" xmlns="http://www.w3.org/2000/svg">
  <defs>
    <pattern id="BGPattern" patternUnits="userSpaceOnUse" alignment="0 0" imageRepeat="None" />
    <mask fill="white" id="Clip5074">
      <path d="M 16.26793656320377 17.473435238730055  C 16.26793656320377 17.473435238730055  16.26793656320377 0.519480324511941  16.26793656320377 0.519480324511941  L 18.10426080494414 0.519480324511941  C 18.10426080494414 0.519480324511941  18.10426080494414 17.4970500279234  18.10426080494414 17.4970500279234  C 18.10426080494414 18.12672328004618  18.01008881981839 18.60684610148617  17.82174765606325 18.937424561782773  C 17.649102290911788 19.283744914957484  17.327352452018044 19.5356119170052  16.856500010379584 19.693030259357343  C 16.401343367344804 19.85044854306659  15.757846496053665 19.93702855805665  14.926008461007386 19.952770421613312  C 14.109864353567222 19.984254031440848  13.11322791717254 20  11.93609821632456 20  C 11.904708490114762 19.82683985273409  11.841927166697598 19.62219550921172  11.747756117070635 19.386068025004953  C 11.669280866047353 19.16568240435485  11.582957715722234 18.937426672926915  11.488787601594055 18.70129918872015  C 11.394617487465876 18.46517168985266  11.300449244335265 18.26052736099101  11.206278194708302 18.087367213725102  C 11.834081138393325 18.118850874865167  12.446186412477095 18.14246224261224  13.042598694453535 18.158204075014865  C 13.65470677503366 18.158204075014865  14.180492640787445 18.158204075014865  14.619954420717324 18.158204075014865  C 15.075111063752104 18.158204075014865  15.396860902645848 18.158204075014865  15.58520206640099 18.158204075014865  C 15.836322682575728 18.126720410209614  16.008968983225973 18.071624719757345  16.103139097354152 17.992915563241997  C 16.213005010086015 17.898464572491434  16.26793656320377 17.725304557172034  16.26793656320377 17.473435238730055  Z M 2.401344926509443 15.962216337290648  L 2.401344926509443 5.242032823506097  L 4.119955356216109 5.242032823506097  L 4.119955356216109 15.962216337290648  L 2.401344926509443 15.962216337290648  Z M 3.1311649481257016 6.942147519621443  L 3.1311649481257016 5.242032823506097  L 12.053810157360695 5.242032823506097  L 12.053810157360695 14.073198340209094  L 3.1311649481257016 14.073198340209094  L 3.1311649481257016 12.37308364409375  L 10.31165696524729 12.37308364409375  L 10.31165696524729 6.942147519621443  L 3.1311649481257016 6.942147519621443  Z M 0 2  L 0 0  L 21 0  L 21 2  L 0 2  Z " fill-rule="evenodd" />
    </mask>
  </defs>
  <g transform="matrix(1 0 0 1 -1395 -360 )">
    <path d="M 16.26793656320377 17.473435238730055  C 16.26793656320377 17.473435238730055  16.26793656320377 0.519480324511941  16.26793656320377 0.519480324511941  L 18.10426080494414 0.519480324511941  C 18.10426080494414 0.519480324511941  18.10426080494414 17.4970500279234  18.10426080494414 17.4970500279234  C 18.10426080494414 18.12672328004618  18.01008881981839 18.60684610148617  17.82174765606325 18.937424561782773  C 17.649102290911788 19.283744914957484  17.327352452018044 19.5356119170052  16.856500010379584 19.693030259357343  C 16.401343367344804 19.85044854306659  15.757846496053665 19.93702855805665  14.926008461007386 19.952770421613312  C 14.109864353567222 19.984254031440848  13.11322791717254 20  11.93609821632456 20  C 11.904708490114762 19.82683985273409  11.841927166697598 19.62219550921172  11.747756117070635 19.386068025004953  C 11.669280866047353 19.16568240435485  11.582957715722234 18.937426672926915  11.488787601594055 18.70129918872015  C 11.394617487465876 18.46517168985266  11.300449244335265 18.26052736099101  11.206278194708302 18.087367213725102  C 11.834081138393325 18.118850874865167  12.446186412477095 18.14246224261224  13.042598694453535 18.158204075014865  C 13.65470677503366 18.158204075014865  14.180492640787445 18.158204075014865  14.619954420717324 18.158204075014865  C 15.075111063752104 18.158204075014865  15.396860902645848 18.158204075014865  15.58520206640099 18.158204075014865  C 15.836322682575728 18.126720410209614  16.008968983225973 18.071624719757345  16.103139097354152 17.992915563241997  C 16.213005010086015 17.898464572491434  16.26793656320377 17.725304557172034  16.26793656320377 17.473435238730055  Z M 2.401344926509443 15.962216337290648  L 2.401344926509443 5.242032823506097  L 4.119955356216109 5.242032823506097  L 4.119955356216109 15.962216337290648  L 2.401344926509443 15.962216337290648  Z M 3.1311649481257016 6.942147519621443  L 3.1311649481257016 5.242032823506097  L 12.053810157360695 5.242032823506097  L 12.053810157360695 14.073198340209094  L 3.1311649481257016 14.073198340209094  L 3.1311649481257016 12.37308364409375  L 10.31165696524729 12.37308364409375  L 10.31165696524729 6.942147519621443  L 3.1311649481257016 6.942147519621443  Z M 0 2  L 0 0  L 21 0  L 21 2  L 0 2  Z " fill-rule="nonzero" fill="rgba(255, 255, 255, 1)" stroke="none" transform="matrix(1 0 0 1 1395 360 )" class="fill" />
    <path d="M 16.26793656320377 17.473435238730055  C 16.26793656320377 17.473435238730055  16.26793656320377 0.519480324511941  16.26793656320377 0.519480324511941  L 18.10426080494414 0.519480324511941  C 18.10426080494414 0.519480324511941  18.10426080494414 17.4970500279234  18.10426080494414 17.4970500279234  C 18.10426080494414 18.12672328004618  18.01008881981839 18.60684610148617  17.82174765606325 18.937424561782773  C 17.649102290911788 19.283744914957484  17.327352452018044 19.5356119170052  16.856500010379584 19.693030259357343  C 16.401343367344804 19.85044854306659  15.757846496053665 19.93702855805665  14.926008461007386 19.952770421613312  C 14.109864353567222 19.984254031440848  13.11322791717254 20  11.93609821632456 20  C 11.904708490114762 19.82683985273409  11.841927166697598 19.62219550921172  11.747756117070635 19.386068025004953  C 11.669280866047353 19.16568240435485  11.582957715722234 18.937426672926915  11.488787601594055 18.70129918872015  C 11.394617487465876 18.46517168985266  11.300449244335265 18.26052736099101  11.206278194708302 18.087367213725102  C 11.834081138393325 18.118850874865167  12.446186412477095 18.14246224261224  13.042598694453535 18.158204075014865  C 13.65470677503366 18.158204075014865  14.180492640787445 18.158204075014865  14.619954420717324 18.158204075014865  C 15.075111063752104 18.158204075014865  15.396860902645848 18.158204075014865  15.58520206640099 18.158204075014865  C 15.836322682575728 18.126720410209614  16.008968983225973 18.071624719757345  16.103139097354152 17.992915563241997  C 16.213005010086015 17.898464572491434  16.26793656320377 17.725304557172034  16.26793656320377 17.473435238730055  Z " stroke-width="0" stroke-dasharray="0" stroke="rgba(121, 121, 121, 1)" fill="none" transform="matrix(1 0 0 1 1395 360 )" class="stroke" mask="url(#Clip5074)" />
    <path d="M 2.401344926509443 15.962216337290648  L 2.401344926509443 5.242032823506097  L 4.119955356216109 5.242032823506097  L 4.119955356216109 15.962216337290648  L 2.401344926509443 15.962216337290648  Z " stroke-width="0" stroke-dasharray="0" stroke="rgba(121, 121, 121, 1)" fill="none" transform="matrix(1 0 0 1 1395 360 )" class="stroke" mask="url(#Clip5074)" />
    <path d="M 3.1311649481257016 6.942147519621443  L 3.1311649481257016 5.242032823506097  L 12.053810157360695 5.242032823506097  L 12.053810157360695 14.073198340209094  L 3.1311649481257016 14.073198340209094  L 3.1311649481257016 12.37308364409375  L 10.31165696524729 12.37308364409375  L 10.31165696524729 6.942147519621443  L 3.1311649481257016 6.942147519621443  Z " stroke-width="0" stroke-dasharray="0" stroke="rgba(121, 121, 121, 1)" fill="none" transform="matrix(1 0 0 1 1395 360 )" class="stroke" mask="url(#Clip5074)" />
    <path d="M 0 2  L 0 0  L 21 0  L 21 2  L 0 2  Z " stroke-width="0" stroke-dasharray="0" stroke="rgba(121, 121, 121, 1)" fill="none" transform="matrix(1 0 0 1 1395 360 )" class="stroke" mask="url(#Clip5074)" />
  </g>
</svg>