<?xml version="1.0" encoding="utf-8"?>
<svg version="1.1" xmlns:xlink="http://www.w3.org/1999/xlink" width="9px" height="12px" xmlns="http://www.w3.org/2000/svg">
  <defs>
    <pattern id="BGPattern" patternUnits="userSpaceOnUse" alignment="0 0" imageRepeat="None" />
    <mask fill="white" id="Clip5141">
      <path d="M 9 0  L 9 11.855422586570363  L 7.34883676993552 11.855422586570363  C 7.34883676993552 11.855422586570363  7.34883676993552 10.530121650929019  7.34883676993552 10.530121650929019  C 6.534883374093122 11.49397713798755  5.395347464785002 12  4.116278238791092 12  C 2.8837196948119006 12  1.860464013683296 11.61445775730137  1.1627895753787743 10.891566142007472  C 0.34883600626706124 10.072289025882938  0 8.939760408471361  0 7.566266483038609  C 0 7.566266483038609  0 0  0 0  L 1.6744173581866388 0  C 1.6744173581866388 0  1.6744173581866388 7.3012062959103385  1.6744173581866388 7.3012062959103385  C 1.6744173581866388 9.397591956325034  2.7441858005617314 10.457831986709838  4.465116035507734 10.457831986709838  C 6.186046270453737 10.457831986709838  7.325580793607343 9.373495640961398  7.325580793607343 7.3012062959103385  C 7.325580793607343 7.3012062959103385  7.325580793607343 0  7.325580793607343 0  L 9 0  Z " fill-rule="evenodd" />
    </mask>
  </defs>
  <g transform="matrix(1 0 0 1 -1387 -273 )">
    <path d="M 9 0  L 9 11.855422586570363  L 7.34883676993552 11.855422586570363  C 7.34883676993552 11.855422586570363  7.34883676993552 10.530121650929019  7.34883676993552 10.530121650929019  C 6.534883374093122 11.49397713798755  5.395347464785002 12  4.116278238791092 12  C 2.8837196948119006 12  1.860464013683296 11.61445775730137  1.1627895753787743 10.891566142007472  C 0.34883600626706124 10.072289025882938  0 8.939760408471361  0 7.566266483038609  C 0 7.566266483038609  0 0  0 0  L 1.6744173581866388 0  C 1.6744173581866388 0  1.6744173581866388 7.3012062959103385  1.6744173581866388 7.3012062959103385  C 1.6744173581866388 9.397591956325034  2.7441858005617314 10.457831986709838  4.465116035507734 10.457831986709838  C 6.186046270453737 10.457831986709838  7.325580793607343 9.373495640961398  7.325580793607343 7.3012062959103385  C 7.325580793607343 7.3012062959103385  7.325580793607343 0  7.325580793607343 0  L 9 0  Z " fill-rule="nonzero" fill="rgba(255, 255, 255, 1)" stroke="none" transform="matrix(1 0 0 1 1387 273 )" class="fill" />
    <path d="M 9 0  L 9 11.855422586570363  L 7.34883676993552 11.855422586570363  C 7.34883676993552 11.855422586570363  7.34883676993552 10.530121650929019  7.34883676993552 10.530121650929019  C 6.534883374093122 11.49397713798755  5.395347464785002 12  4.116278238791092 12  C 2.8837196948119006 12  1.860464013683296 11.61445775730137  1.1627895753787743 10.891566142007472  C 0.34883600626706124 10.072289025882938  0 8.939760408471361  0 7.566266483038609  C 0 7.566266483038609  0 0  0 0  L 1.6744173581866388 0  C 1.6744173581866388 0  1.6744173581866388 7.3012062959103385  1.6744173581866388 7.3012062959103385  C 1.6744173581866388 9.397591956325034  2.7441858005617314 10.457831986709838  4.465116035507734 10.457831986709838  C 6.186046270453737 10.457831986709838  7.325580793607343 9.373495640961398  7.325580793607343 7.3012062959103385  C 7.325580793607343 7.3012062959103385  7.325580793607343 0  7.325580793607343 0  L 9 0  Z " stroke-width="0" stroke-dasharray="0" stroke="rgba(121, 121, 121, 1)" fill="none" transform="matrix(1 0 0 1 1387 273 )" class="stroke" mask="url(#Clip5141)" />
  </g>
</svg>