<?xml version="1.0" encoding="utf-8"?>
<svg version="1.1" xmlns:xlink="http://www.w3.org/1999/xlink" width="9px" height="12px" xmlns="http://www.w3.org/2000/svg">
  <defs>
    <pattern id="BGPattern" patternUnits="userSpaceOnUse" alignment="0 0" imageRepeat="None" />
    <mask fill="white" id="Clip5129">
      <path d="M 9 3.904761867218036  C 9 3.904761867218036  9 11.857143746932548  9 11.857143746932548  L 7.3384380634412425 11.857143746932548  C 7.3384380634412425 11.857143746932548  7.3384380634412425 10.73809584442872  7.3384380634412425 10.73809584442872  C 6.415362897934198 11.690476856879862  5.58460496910345 12  4.061530636531696 12  C 2.49230244252288 12  1.5692284805691226 11.690476265563927  0.8538451757203082 10.928571479255652  C 0.2999998700926611 10.35714291909024  0 9.4761911566731  0 8.547619421180542  C 0 6.500000433631685  1.3846146968706492 5.166667915000305  3.9230720324476946 5.166667915000305  C 3.9230720324476946 5.166667915000305  7.3384380634412425 5.166667915000305  7.3384380634412425 5.166667915000305  C 7.3384380634412425 5.166667915000305  7.3384380634412425 4.047620012496477  7.3384380634412425 4.047620012496477  C 7.3384380634412425 2.3333343320002444  6.507682770965312 1.4761904273834467  4.430763362014156 1.4761904273834467  C 2.9769194777256294 1.4761904273834467  2.2384613627045504 1.8333329522630644  1.569231747356615 2.8095236555939476  C 1.569231747356615 2.8095236555939476  0.4384546915806187 1.738095134849599  0.4384546915806187 1.738095134849599  C 1.453837809210033 0.38095197923298435  2.6076765506962625 0  4.453827569455086 0  C 7.499976234598593 0  9 1.3571429190902407  9 3.904761867218036  Z M 6.761539439664307 9.738096396323591  C 7.1538469180069715 9.35714394403786  7.3384380634412425 8.690476620353488  7.3384380634412425 7.714285917022606  C 7.3384380634412425 7.714285917022606  7.3384380634412425 6.452381761451326  7.3384380634412425 6.452381761451326  C 7.3384380634412425 6.452381761451326  4.153846153846154 6.452381761451326  4.153846153846154 6.452381761451326  C 2.446156719398518 6.452381761451326  1.6153895060138437 7.1666665746841876  1.6153895060138437 8.523809730300803  C 1.6153895060138437 9.880952531127857  2.423070962622551 10.523810518722048  4.223068119944312 10.523810518722048  C 5.192297490760787 10.523810518722048  6.046156306751677 10.452382037398761  6.761539439664307 9.738096396323591  Z " fill-rule="evenodd" />
    </mask>
  </defs>
  <g transform="matrix(1 0 0 1 -1622 -273 )">
    <path d="M 9 3.904761867218036  C 9 3.904761867218036  9 11.857143746932548  9 11.857143746932548  L 7.3384380634412425 11.857143746932548  C 7.3384380634412425 11.857143746932548  7.3384380634412425 10.73809584442872  7.3384380634412425 10.73809584442872  C 6.415362897934198 11.690476856879862  5.58460496910345 12  4.061530636531696 12  C 2.49230244252288 12  1.5692284805691226 11.690476265563927  0.8538451757203082 10.928571479255652  C 0.2999998700926611 10.35714291909024  0 9.4761911566731  0 8.547619421180542  C 0 6.500000433631685  1.3846146968706492 5.166667915000305  3.9230720324476946 5.166667915000305  C 3.9230720324476946 5.166667915000305  7.3384380634412425 5.166667915000305  7.3384380634412425 5.166667915000305  C 7.3384380634412425 5.166667915000305  7.3384380634412425 4.047620012496477  7.3384380634412425 4.047620012496477  C 7.3384380634412425 2.3333343320002444  6.507682770965312 1.4761904273834467  4.430763362014156 1.4761904273834467  C 2.9769194777256294 1.4761904273834467  2.2384613627045504 1.8333329522630644  1.569231747356615 2.8095236555939476  C 1.569231747356615 2.8095236555939476  0.4384546915806187 1.738095134849599  0.4384546915806187 1.738095134849599  C 1.453837809210033 0.38095197923298435  2.6076765506962625 0  4.453827569455086 0  C 7.499976234598593 0  9 1.3571429190902407  9 3.904761867218036  Z M 6.761539439664307 9.738096396323591  C 7.1538469180069715 9.35714394403786  7.3384380634412425 8.690476620353488  7.3384380634412425 7.714285917022606  C 7.3384380634412425 7.714285917022606  7.3384380634412425 6.452381761451326  7.3384380634412425 6.452381761451326  C 7.3384380634412425 6.452381761451326  4.153846153846154 6.452381761451326  4.153846153846154 6.452381761451326  C 2.446156719398518 6.452381761451326  1.6153895060138437 7.1666665746841876  1.6153895060138437 8.523809730300803  C 1.6153895060138437 9.880952531127857  2.423070962622551 10.523810518722048  4.223068119944312 10.523810518722048  C 5.192297490760787 10.523810518722048  6.046156306751677 10.452382037398761  6.761539439664307 9.738096396323591  Z " fill-rule="nonzero" fill="rgba(255, 255, 255, 1)" stroke="none" transform="matrix(1 0 0 1 1622 273 )" class="fill" />
    <path d="M 9 3.904761867218036  C 9 3.904761867218036  9 11.857143746932548  9 11.857143746932548  L 7.3384380634412425 11.857143746932548  C 7.3384380634412425 11.857143746932548  7.3384380634412425 10.73809584442872  7.3384380634412425 10.73809584442872  C 6.415362897934198 11.690476856879862  5.58460496910345 12  4.061530636531696 12  C 2.49230244252288 12  1.5692284805691226 11.690476265563927  0.8538451757203082 10.928571479255652  C 0.2999998700926611 10.35714291909024  0 9.4761911566731  0 8.547619421180542  C 0 6.500000433631685  1.3846146968706492 5.166667915000305  3.9230720324476946 5.166667915000305  C 3.9230720324476946 5.166667915000305  7.3384380634412425 5.166667915000305  7.3384380634412425 5.166667915000305  C 7.3384380634412425 5.166667915000305  7.3384380634412425 4.047620012496477  7.3384380634412425 4.047620012496477  C 7.3384380634412425 2.3333343320002444  6.507682770965312 1.4761904273834467  4.430763362014156 1.4761904273834467  C 2.9769194777256294 1.4761904273834467  2.2384613627045504 1.8333329522630644  1.569231747356615 2.8095236555939476  C 1.569231747356615 2.8095236555939476  0.4384546915806187 1.738095134849599  0.4384546915806187 1.738095134849599  C 1.453837809210033 0.38095197923298435  2.6076765506962625 0  4.453827569455086 0  C 7.499976234598593 0  9 1.3571429190902407  9 3.904761867218036  Z " stroke-width="0" stroke-dasharray="0" stroke="rgba(121, 121, 121, 1)" fill="none" transform="matrix(1 0 0 1 1622 273 )" class="stroke" mask="url(#Clip5129)" />
    <path d="M 6.761539439664307 9.738096396323591  C 7.1538469180069715 9.35714394403786  7.3384380634412425 8.690476620353488  7.3384380634412425 7.714285917022606  C 7.3384380634412425 7.714285917022606  7.3384380634412425 6.452381761451326  7.3384380634412425 6.452381761451326  C 7.3384380634412425 6.452381761451326  4.153846153846154 6.452381761451326  4.153846153846154 6.452381761451326  C 2.446156719398518 6.452381761451326  1.6153895060138437 7.1666665746841876  1.6153895060138437 8.523809730300803  C 1.6153895060138437 9.880952531127857  2.423070962622551 10.523810518722048  4.223068119944312 10.523810518722048  C 5.192297490760787 10.523810518722048  6.046156306751677 10.452382037398761  6.761539439664307 9.738096396323591  Z " stroke-width="0" stroke-dasharray="0" stroke="rgba(121, 121, 121, 1)" fill="none" transform="matrix(1 0 0 1 1622 273 )" class="stroke" mask="url(#Clip5129)" />
  </g>
</svg>