<?xml version="1.0" encoding="utf-8"?>
<svg version="1.1" xmlns:xlink="http://www.w3.org/1999/xlink" width="22px" height="22px" xmlns="http://www.w3.org/2000/svg">
  <defs>
    <pattern id="BGPattern" patternUnits="userSpaceOnUse" alignment="0 0" imageRepeat="None" />
    <mask fill="white" id="Clip5071">
      <path d="M 10.634510678836264 7  L 10.634510678836264 5.146900732464522  L 22 5.146900732464522  L 22 7  L 10.634510678836264 7  Z M 17.70847070015169 19.58215173344172  C 17.70847070015169 19.58215173344172  17.70847070015169 0.023941126110155052  17.70847070015169 0.023941126110155052  L 19.547700755443678 0.023941126110155052  C 19.547700755443678 0.023941126110155052  19.547700755443678 19.558210607331564  19.547700755443678 19.558210607331564  C 19.547700755443678 20.19658548410111  19.461241006704 20.667387222515284  19.28832244620377 20.97061528749449  C 19.131123584480083 21.273843352473687  18.848159636711046 21.497279217508236  18.439441846646158 21.64091354843173  C 18.062164391113484 21.80050722303415  17.51982962993754 21.896257815405104  16.81243381520182 21.928176621669536  C 16.105038000466102 21.976054712159602  15.248305515842784 22  14.24223261341536 22  C 14.195072580106604 21.744650025510868  14.108613768346052 21.433437681062287  13.98285430417545 21.06637218191409  C 13.857094840004851 20.715265996718177  13.731332564896878 20.412035434700833  13.605574037705402 20.15668548993834  C 14.375848647547297 20.17264485962808  15.098964161059556 20.180626616048496  15.774920578242188 20.180626616048496  C 16.45087605844569 20.180626616048496  16.898897311857997 20.17264485962808  17.118975905666986 20.15668548993834  C 17.339054499475974 20.15668548993834  17.48838742144708 20.116791931594125  17.566986852308922 20.036995079429595  C 17.661305981947308 19.9571982198334  17.70847070015169 19.805582946256386  17.70847070015169 19.58215173344172  Z M 15.96356071147721 9.025028321385022  C 16.57663739657454 7.987669733735742  17.095393078075233 6.958289301867049  17.519830566916664 5.936889403910513  C 17.519830566916664 5.936889403910513  18.93462407034635 6.82263496977611  18.93462407034635 6.82263496977611  C 18.494466882728375 7.875953198370763  17.959986817555514 8.945227262900282  17.33119043368164 10.030464297759368  C 16.718114685563435 11.099742642925706  16.03430169841947 12.145086045123966  15.279745850374995 13.166485467454187  C 14.540910638086192 14.17192596227851  13.762775710366464 15.105547597222344  12.945341067215818 15.96735370166988  C 12.143626122841711 16.82915980611742  11.334051329079335 17.579246878161833  10.516616217439124 18.21762169547809  C 10.37513705449198 17.978231124121173  10.186494578809143 17.714901685879088  9.95069581773405 17.4276330240321  C 9.714897525148519 17.140364243278537  9.486959550440822 16.908954205833773  9.266880956631836 16.733401247005716  C 10.06859590100594 16.190782491763017  10.870308971421796 15.512508453176752  11.6720239157959 14.69858055812586  C 12.473738860170005 13.884652663074966  13.236156900050563 12.990932270812975  13.959272413562823 12.017410344439929  C 14.698107625851629 11.043888893693195  15.36620466213555 10.04642821934156  15.96356071147721 9.025028321385022  Z M 0.8017168183323544 6.870509611975406  L 0.8017168183323544 5.122959606354367  L 9.762055684499026 5.122959606354367  L 9.762055684499026 6.870509611975406  L 0.8017168183323544 6.870509611975406  Z M 5 22  L 5 0  L 6.50803962161035 0  L 6.50803962161035 22  L 5 22  Z M 3.8435183532063766 8.881396784766123  C 4.173636243919858 7.971712470921937  4.448730972509374 7.07798446863893  4.66880956631836 6.200218961059177  C 4.66880956631836 6.200218961059177  5.8949629365130205 6.631121180936898  5.8949629365130205 6.631121180936898  C 5.659164175437927 7.620601797002689  5.360483808319284 8.634025917310204  4.998926051563154 9.671385456212112  C 4.653088227828348 10.692785354168649  4.260093650211723 11.698219903664052  3.819936462593749 12.68770099535616  C 3.3954992079970996 13.677181849235108  2.939623727071269 14.60282960903517  2.45230674038932 15.464635713482709  C 1.9807095696063053 16.31048241479803  1.493393754148262 17.03663192792964  0.9903569515673786 17.643087938981466  C 0.8803176546628851 17.371778680266697  0.7231153963898705 17.07652972232071  0.5187566184798178 16.757342373115872  C 0.33011783215228535 16.42219538296566  0.15719903740727315 16.142910227695285  0 15.919479059470584  C 0.47159705366062415 15.376860542041042  0.9431964497690601 14.738480136115603  1.4147935034296844 14.004348781099475  C 1.8863905570903083 13.254258498577444  2.3265420057111434 12.440332506031806  2.7352594444088583 11.562566998452052  C 3.1439770002289635 10.6848014908723  3.513400462492896 9.791080622983994  3.8435183532063766 8.881396784766123  Z M 5.423362603425459 8.258980776049189  C 5.423362603425459 8.258980776049189  6.366563269600582 7.349294084073437  6.366563269600582 7.349294084073437  C 6.508042432547724 7.49292847445022  6.720256023583254 7.724337798455511  7.00321434947754 8.043525861099821  C 7.2861726753718274 8.346753807172444  7.592715234326554 8.689878239663775  7.922833125040035 9.07290296358432  C 8.252951015753515 9.455928163131178  8.57520249822485 9.846935323469133  8.889600690161787 10.245919212708735  C 9.219718580875268 10.628944412255592  9.518399416483472 10.980050329911707  9.785637575111654 11.29923744130339  C 10.052876202229397 11.602465863002326  10.249373373915319 11.833875662633933  10.375132369596356 11.993469218329775  C 10.375132369596356 11.993469218329775  9.243299066019208 13.525571919022457  9.243299066019208 13.525571919022457  C 9.054660338252871 13.206384332004463  8.78742780149944 12.807395686501724  8.441589743519852 12.32861454378789  C 8.111471852806371 11.833874235754994  7.74990987964418 11.323179043039858  7.356912725334961 10.796519453116217  C 6.9796348013127245 10.269860338818889  6.610219069126572 9.78309485718239  6.248661312370442 9.336232520732983  C 5.9028237228804175 8.873410543338206  5.627721498457902 8.514330750538322  5.423362603425459 8.258980776049189  Z " fill-rule="evenodd" />
    </mask>
  </defs>
  <g transform="matrix(1 0 0 1 -1467 -358 )">
    <path d="M 10.634510678836264 7  L 10.634510678836264 5.146900732464522  L 22 5.146900732464522  L 22 7  L 10.634510678836264 7  Z M 17.70847070015169 19.58215173344172  C 17.70847070015169 19.58215173344172  17.70847070015169 0.023941126110155052  17.70847070015169 0.023941126110155052  L 19.547700755443678 0.023941126110155052  C 19.547700755443678 0.023941126110155052  19.547700755443678 19.558210607331564  19.547700755443678 19.558210607331564  C 19.547700755443678 20.19658548410111  19.461241006704 20.667387222515284  19.28832244620377 20.97061528749449  C 19.131123584480083 21.273843352473687  18.848159636711046 21.497279217508236  18.439441846646158 21.64091354843173  C 18.062164391113484 21.80050722303415  17.51982962993754 21.896257815405104  16.81243381520182 21.928176621669536  C 16.105038000466102 21.976054712159602  15.248305515842784 22  14.24223261341536 22  C 14.195072580106604 21.744650025510868  14.108613768346052 21.433437681062287  13.98285430417545 21.06637218191409  C 13.857094840004851 20.715265996718177  13.731332564896878 20.412035434700833  13.605574037705402 20.15668548993834  C 14.375848647547297 20.17264485962808  15.098964161059556 20.180626616048496  15.774920578242188 20.180626616048496  C 16.45087605844569 20.180626616048496  16.898897311857997 20.17264485962808  17.118975905666986 20.15668548993834  C 17.339054499475974 20.15668548993834  17.48838742144708 20.116791931594125  17.566986852308922 20.036995079429595  C 17.661305981947308 19.9571982198334  17.70847070015169 19.805582946256386  17.70847070015169 19.58215173344172  Z M 15.96356071147721 9.025028321385022  C 16.57663739657454 7.987669733735742  17.095393078075233 6.958289301867049  17.519830566916664 5.936889403910513  C 17.519830566916664 5.936889403910513  18.93462407034635 6.82263496977611  18.93462407034635 6.82263496977611  C 18.494466882728375 7.875953198370763  17.959986817555514 8.945227262900282  17.33119043368164 10.030464297759368  C 16.718114685563435 11.099742642925706  16.03430169841947 12.145086045123966  15.279745850374995 13.166485467454187  C 14.540910638086192 14.17192596227851  13.762775710366464 15.105547597222344  12.945341067215818 15.96735370166988  C 12.143626122841711 16.82915980611742  11.334051329079335 17.579246878161833  10.516616217439124 18.21762169547809  C 10.37513705449198 17.978231124121173  10.186494578809143 17.714901685879088  9.95069581773405 17.4276330240321  C 9.714897525148519 17.140364243278537  9.486959550440822 16.908954205833773  9.266880956631836 16.733401247005716  C 10.06859590100594 16.190782491763017  10.870308971421796 15.512508453176752  11.6720239157959 14.69858055812586  C 12.473738860170005 13.884652663074966  13.236156900050563 12.990932270812975  13.959272413562823 12.017410344439929  C 14.698107625851629 11.043888893693195  15.36620466213555 10.04642821934156  15.96356071147721 9.025028321385022  Z M 0.8017168183323544 6.870509611975406  L 0.8017168183323544 5.122959606354367  L 9.762055684499026 5.122959606354367  L 9.762055684499026 6.870509611975406  L 0.8017168183323544 6.870509611975406  Z M 5 22  L 5 0  L 6.50803962161035 0  L 6.50803962161035 22  L 5 22  Z M 3.8435183532063766 8.881396784766123  C 4.173636243919858 7.971712470921937  4.448730972509374 7.07798446863893  4.66880956631836 6.200218961059177  C 4.66880956631836 6.200218961059177  5.8949629365130205 6.631121180936898  5.8949629365130205 6.631121180936898  C 5.659164175437927 7.620601797002689  5.360483808319284 8.634025917310204  4.998926051563154 9.671385456212112  C 4.653088227828348 10.692785354168649  4.260093650211723 11.698219903664052  3.819936462593749 12.68770099535616  C 3.3954992079970996 13.677181849235108  2.939623727071269 14.60282960903517  2.45230674038932 15.464635713482709  C 1.9807095696063053 16.31048241479803  1.493393754148262 17.03663192792964  0.9903569515673786 17.643087938981466  C 0.8803176546628851 17.371778680266697  0.7231153963898705 17.07652972232071  0.5187566184798178 16.757342373115872  C 0.33011783215228535 16.42219538296566  0.15719903740727315 16.142910227695285  0 15.919479059470584  C 0.47159705366062415 15.376860542041042  0.9431964497690601 14.738480136115603  1.4147935034296844 14.004348781099475  C 1.8863905570903083 13.254258498577444  2.3265420057111434 12.440332506031806  2.7352594444088583 11.562566998452052  C 3.1439770002289635 10.6848014908723  3.513400462492896 9.791080622983994  3.8435183532063766 8.881396784766123  Z M 5.423362603425459 8.258980776049189  C 5.423362603425459 8.258980776049189  6.366563269600582 7.349294084073437  6.366563269600582 7.349294084073437  C 6.508042432547724 7.49292847445022  6.720256023583254 7.724337798455511  7.00321434947754 8.043525861099821  C 7.2861726753718274 8.346753807172444  7.592715234326554 8.689878239663775  7.922833125040035 9.07290296358432  C 8.252951015753515 9.455928163131178  8.57520249822485 9.846935323469133  8.889600690161787 10.245919212708735  C 9.219718580875268 10.628944412255592  9.518399416483472 10.980050329911707  9.785637575111654 11.29923744130339  C 10.052876202229397 11.602465863002326  10.249373373915319 11.833875662633933  10.375132369596356 11.993469218329775  C 10.375132369596356 11.993469218329775  9.243299066019208 13.525571919022457  9.243299066019208 13.525571919022457  C 9.054660338252871 13.206384332004463  8.78742780149944 12.807395686501724  8.441589743519852 12.32861454378789  C 8.111471852806371 11.833874235754994  7.74990987964418 11.323179043039858  7.356912725334961 10.796519453116217  C 6.9796348013127245 10.269860338818889  6.610219069126572 9.78309485718239  6.248661312370442 9.336232520732983  C 5.9028237228804175 8.873410543338206  5.627721498457902 8.514330750538322  5.423362603425459 8.258980776049189  Z " fill-rule="nonzero" fill="rgba(255, 255, 255, 1)" stroke="none" transform="matrix(1 0 0 1 1467 358 )" class="fill" />
    <path d="M 10.634510678836264 7  L 10.634510678836264 5.146900732464522  L 22 5.146900732464522  L 22 7  L 10.634510678836264 7  Z " stroke-width="0" stroke-dasharray="0" stroke="rgba(121, 121, 121, 1)" fill="none" transform="matrix(1 0 0 1 1467 358 )" class="stroke" mask="url(#Clip5071)" />
    <path d="M 17.70847070015169 19.58215173344172  C 17.70847070015169 19.58215173344172  17.70847070015169 0.023941126110155052  17.70847070015169 0.023941126110155052  L 19.547700755443678 0.023941126110155052  C 19.547700755443678 0.023941126110155052  19.547700755443678 19.558210607331564  19.547700755443678 19.558210607331564  C 19.547700755443678 20.19658548410111  19.461241006704 20.667387222515284  19.28832244620377 20.97061528749449  C 19.131123584480083 21.273843352473687  18.848159636711046 21.497279217508236  18.439441846646158 21.64091354843173  C 18.062164391113484 21.80050722303415  17.51982962993754 21.896257815405104  16.81243381520182 21.928176621669536  C 16.105038000466102 21.976054712159602  15.248305515842784 22  14.24223261341536 22  C 14.195072580106604 21.744650025510868  14.108613768346052 21.433437681062287  13.98285430417545 21.06637218191409  C 13.857094840004851 20.715265996718177  13.731332564896878 20.412035434700833  13.605574037705402 20.15668548993834  C 14.375848647547297 20.17264485962808  15.098964161059556 20.180626616048496  15.774920578242188 20.180626616048496  C 16.45087605844569 20.180626616048496  16.898897311857997 20.17264485962808  17.118975905666986 20.15668548993834  C 17.339054499475974 20.15668548993834  17.48838742144708 20.116791931594125  17.566986852308922 20.036995079429595  C 17.661305981947308 19.9571982198334  17.70847070015169 19.805582946256386  17.70847070015169 19.58215173344172  Z " stroke-width="0" stroke-dasharray="0" stroke="rgba(121, 121, 121, 1)" fill="none" transform="matrix(1 0 0 1 1467 358 )" class="stroke" mask="url(#Clip5071)" />
    <path d="M 15.96356071147721 9.025028321385022  C 16.57663739657454 7.987669733735742  17.095393078075233 6.958289301867049  17.519830566916664 5.936889403910513  C 17.519830566916664 5.936889403910513  18.93462407034635 6.82263496977611  18.93462407034635 6.82263496977611  C 18.494466882728375 7.875953198370763  17.959986817555514 8.945227262900282  17.33119043368164 10.030464297759368  C 16.718114685563435 11.099742642925706  16.03430169841947 12.145086045123966  15.279745850374995 13.166485467454187  C 14.540910638086192 14.17192596227851  13.762775710366464 15.105547597222344  12.945341067215818 15.96735370166988  C 12.143626122841711 16.82915980611742  11.334051329079335 17.579246878161833  10.516616217439124 18.21762169547809  C 10.37513705449198 17.978231124121173  10.186494578809143 17.714901685879088  9.95069581773405 17.4276330240321  C 9.714897525148519 17.140364243278537  9.486959550440822 16.908954205833773  9.266880956631836 16.733401247005716  C 10.06859590100594 16.190782491763017  10.870308971421796 15.512508453176752  11.6720239157959 14.69858055812586  C 12.473738860170005 13.884652663074966  13.236156900050563 12.990932270812975  13.959272413562823 12.017410344439929  C 14.698107625851629 11.043888893693195  15.36620466213555 10.04642821934156  15.96356071147721 9.025028321385022  Z " stroke-width="0" stroke-dasharray="0" stroke="rgba(121, 121, 121, 1)" fill="none" transform="matrix(1 0 0 1 1467 358 )" class="stroke" mask="url(#Clip5071)" />
    <path d="M 0.8017168183323544 6.870509611975406  L 0.8017168183323544 5.122959606354367  L 9.762055684499026 5.122959606354367  L 9.762055684499026 6.870509611975406  L 0.8017168183323544 6.870509611975406  Z " stroke-width="0" stroke-dasharray="0" stroke="rgba(121, 121, 121, 1)" fill="none" transform="matrix(1 0 0 1 1467 358 )" class="stroke" mask="url(#Clip5071)" />
    <path d="M 5 22  L 5 0  L 6.50803962161035 0  L 6.50803962161035 22  L 5 22  Z " stroke-width="0" stroke-dasharray="0" stroke="rgba(121, 121, 121, 1)" fill="none" transform="matrix(1 0 0 1 1467 358 )" class="stroke" mask="url(#Clip5071)" />
    <path d="M 3.8435183532063766 8.881396784766123  C 4.173636243919858 7.971712470921937  4.448730972509374 7.07798446863893  4.66880956631836 6.200218961059177  C 4.66880956631836 6.200218961059177  5.8949629365130205 6.631121180936898  5.8949629365130205 6.631121180936898  C 5.659164175437927 7.620601797002689  5.360483808319284 8.634025917310204  4.998926051563154 9.671385456212112  C 4.653088227828348 10.692785354168649  4.260093650211723 11.698219903664052  3.819936462593749 12.68770099535616  C 3.3954992079970996 13.677181849235108  2.939623727071269 14.60282960903517  2.45230674038932 15.464635713482709  C 1.9807095696063053 16.31048241479803  1.493393754148262 17.03663192792964  0.9903569515673786 17.643087938981466  C 0.8803176546628851 17.371778680266697  0.7231153963898705 17.07652972232071  0.5187566184798178 16.757342373115872  C 0.33011783215228535 16.42219538296566  0.15719903740727315 16.142910227695285  0 15.919479059470584  C 0.47159705366062415 15.376860542041042  0.9431964497690601 14.738480136115603  1.4147935034296844 14.004348781099475  C 1.8863905570903083 13.254258498577444  2.3265420057111434 12.440332506031806  2.7352594444088583 11.562566998452052  C 3.1439770002289635 10.6848014908723  3.513400462492896 9.791080622983994  3.8435183532063766 8.881396784766123  Z " stroke-width="0" stroke-dasharray="0" stroke="rgba(121, 121, 121, 1)" fill="none" transform="matrix(1 0 0 1 1467 358 )" class="stroke" mask="url(#Clip5071)" />
    <path d="M 5.423362603425459 8.258980776049189  C 5.423362603425459 8.258980776049189  6.366563269600582 7.349294084073437  6.366563269600582 7.349294084073437  C 6.508042432547724 7.49292847445022  6.720256023583254 7.724337798455511  7.00321434947754 8.043525861099821  C 7.2861726753718274 8.346753807172444  7.592715234326554 8.689878239663775  7.922833125040035 9.07290296358432  C 8.252951015753515 9.455928163131178  8.57520249822485 9.846935323469133  8.889600690161787 10.245919212708735  C 9.219718580875268 10.628944412255592  9.518399416483472 10.980050329911707  9.785637575111654 11.29923744130339  C 10.052876202229397 11.602465863002326  10.249373373915319 11.833875662633933  10.375132369596356 11.993469218329775  C 10.375132369596356 11.993469218329775  9.243299066019208 13.525571919022457  9.243299066019208 13.525571919022457  C 9.054660338252871 13.206384332004463  8.78742780149944 12.807395686501724  8.441589743519852 12.32861454378789  C 8.111471852806371 11.833874235754994  7.74990987964418 11.323179043039858  7.356912725334961 10.796519453116217  C 6.9796348013127245 10.269860338818889  6.610219069126572 9.78309485718239  6.248661312370442 9.336232520732983  C 5.9028237228804175 8.873410543338206  5.627721498457902 8.514330750538322  5.423362603425459 8.258980776049189  Z " stroke-width="0" stroke-dasharray="0" stroke="rgba(121, 121, 121, 1)" fill="none" transform="matrix(1 0 0 1 1467 358 )" class="stroke" mask="url(#Clip5071)" />
  </g>
</svg>