<?xml version="1.0" encoding="utf-8"?>
<svg version="1.1" xmlns:xlink="http://www.w3.org/1999/xlink" width="9px" height="12px" xmlns="http://www.w3.org/2000/svg">
  <defs>
    <pattern id="BGPattern" patternUnits="userSpaceOnUse" alignment="0 0" imageRepeat="None" />
    <mask fill="white" id="Clip5104">
      <path d="M 9 3.9047625054637587  C 9 3.9047625054637587  9 11.857141865984797  9 11.857141865984797  L 7.338464698565576 11.857141865984797  C 7.338464698565576 11.857141865984797  7.338464698565576 10.738095943919916  7.338464698565576 10.738095943919916  C 6.415388028249951 11.690476881283324  5.584614073195722 12  4.061537257689304 12  C 2.492306505505227 12  1.5692310387448505 11.690474397756596  0.8538465676693017 10.928569671518506  C 0.3000003591561695 10.357141156405733  0 9.476191355655533  0 8.54761969337354  C 0 6.500000867263302  1.384616954086698 5.166666561543843  3.9230784278883695 5.166666561543843  C 3.9230784278883695 5.166666561543843  7.338464698565576 5.166666561543843  7.338464698565576 5.166666561543843  C 7.338464698565576 5.166666561543843  7.338464698565576 4.047616855057281  7.338464698565576 4.047616855057281  C 7.338464698565576 2.3333313097189627  6.507693379870464 1.476189364892046  4.430770585099532 1.476189364892046  C 2.9769243307366766 1.476189364892046  2.2384650118720217 1.8333337538246313  1.5692343055376685 2.8095243801905707  C 1.5692343055376685 2.8095243801905707  0.438455406354894 1.7380940517090764  0.438455406354894 1.7380940517090764  C 1.4538401792744575 0.38095100309250324  2.607695473674515 0  4.4538495020516224 0  C 7.500003133064457 0  9 1.3571437581956383  9 3.9047625054637587  Z M 6.761535790498144 9.738092790235184  C 7.153843908385323 9.357140367984549  7.338464698565576 8.690476881283324  7.338464698565576 7.714286254917383  C 7.338464698565576 7.714286254917383  7.338464698565576 6.4523784144156195  7.338464698565576 6.4523784144156195  C 7.338464698565576 6.4523784144156195  4.153852925497663 6.4523784144156195  4.153852925497663 6.4523784144156195  C 2.4461607071535347 6.4523784144156195  1.6153921394418478 7.166665063543594  1.6153921394418478 8.523808112160166  C 1.6153921394418478 9.880950805987208  2.423074912742881 10.523806850686274  4.223075004442329 10.523806850686274  C 5.192305955308543 10.523806850686274  6.046151491359059 10.45237837499456  6.761535790498144 9.738092790235184  Z " fill-rule="evenodd" />
    </mask>
  </defs>
  <g transform="matrix(1 0 0 1 -1607 -304 )">
    <path d="M 9 3.9047625054637587  C 9 3.9047625054637587  9 11.857141865984797  9 11.857141865984797  L 7.338464698565576 11.857141865984797  C 7.338464698565576 11.857141865984797  7.338464698565576 10.738095943919916  7.338464698565576 10.738095943919916  C 6.415388028249951 11.690476881283324  5.584614073195722 12  4.061537257689304 12  C 2.492306505505227 12  1.5692310387448505 11.690474397756596  0.8538465676693017 10.928569671518506  C 0.3000003591561695 10.357141156405733  0 9.476191355655533  0 8.54761969337354  C 0 6.500000867263302  1.384616954086698 5.166666561543843  3.9230784278883695 5.166666561543843  C 3.9230784278883695 5.166666561543843  7.338464698565576 5.166666561543843  7.338464698565576 5.166666561543843  C 7.338464698565576 5.166666561543843  7.338464698565576 4.047616855057281  7.338464698565576 4.047616855057281  C 7.338464698565576 2.3333313097189627  6.507693379870464 1.476189364892046  4.430770585099532 1.476189364892046  C 2.9769243307366766 1.476189364892046  2.2384650118720217 1.8333337538246313  1.5692343055376685 2.8095243801905707  C 1.5692343055376685 2.8095243801905707  0.438455406354894 1.7380940517090764  0.438455406354894 1.7380940517090764  C 1.4538401792744575 0.38095100309250324  2.607695473674515 0  4.4538495020516224 0  C 7.500003133064457 0  9 1.3571437581956383  9 3.9047625054637587  Z M 6.761535790498144 9.738092790235184  C 7.153843908385323 9.357140367984549  7.338464698565576 8.690476881283324  7.338464698565576 7.714286254917383  C 7.338464698565576 7.714286254917383  7.338464698565576 6.4523784144156195  7.338464698565576 6.4523784144156195  C 7.338464698565576 6.4523784144156195  4.153852925497663 6.4523784144156195  4.153852925497663 6.4523784144156195  C 2.4461607071535347 6.4523784144156195  1.6153921394418478 7.166665063543594  1.6153921394418478 8.523808112160166  C 1.6153921394418478 9.880950805987208  2.423074912742881 10.523806850686274  4.223075004442329 10.523806850686274  C 5.192305955308543 10.523806850686274  6.046151491359059 10.45237837499456  6.761535790498144 9.738092790235184  Z " fill-rule="nonzero" fill="rgba(255, 255, 255, 1)" stroke="none" transform="matrix(1 0 0 1 1607 304 )" class="fill" />
    <path d="M 9 3.9047625054637587  C 9 3.9047625054637587  9 11.857141865984797  9 11.857141865984797  L 7.338464698565576 11.857141865984797  C 7.338464698565576 11.857141865984797  7.338464698565576 10.738095943919916  7.338464698565576 10.738095943919916  C 6.415388028249951 11.690476881283324  5.584614073195722 12  4.061537257689304 12  C 2.492306505505227 12  1.5692310387448505 11.690474397756596  0.8538465676693017 10.928569671518506  C 0.3000003591561695 10.357141156405733  0 9.476191355655533  0 8.54761969337354  C 0 6.500000867263302  1.384616954086698 5.166666561543843  3.9230784278883695 5.166666561543843  C 3.9230784278883695 5.166666561543843  7.338464698565576 5.166666561543843  7.338464698565576 5.166666561543843  C 7.338464698565576 5.166666561543843  7.338464698565576 4.047616855057281  7.338464698565576 4.047616855057281  C 7.338464698565576 2.3333313097189627  6.507693379870464 1.476189364892046  4.430770585099532 1.476189364892046  C 2.9769243307366766 1.476189364892046  2.2384650118720217 1.8333337538246313  1.5692343055376685 2.8095243801905707  C 1.5692343055376685 2.8095243801905707  0.438455406354894 1.7380940517090764  0.438455406354894 1.7380940517090764  C 1.4538401792744575 0.38095100309250324  2.607695473674515 0  4.4538495020516224 0  C 7.500003133064457 0  9 1.3571437581956383  9 3.9047625054637587  Z " stroke-width="0" stroke-dasharray="0" stroke="rgba(121, 121, 121, 1)" fill="none" transform="matrix(1 0 0 1 1607 304 )" class="stroke" mask="url(#Clip5104)" />
    <path d="M 6.761535790498144 9.738092790235184  C 7.153843908385323 9.357140367984549  7.338464698565576 8.690476881283324  7.338464698565576 7.714286254917383  C 7.338464698565576 7.714286254917383  7.338464698565576 6.4523784144156195  7.338464698565576 6.4523784144156195  C 7.338464698565576 6.4523784144156195  4.153852925497663 6.4523784144156195  4.153852925497663 6.4523784144156195  C 2.4461607071535347 6.4523784144156195  1.6153921394418478 7.166665063543594  1.6153921394418478 8.523808112160166  C 1.6153921394418478 9.880950805987208  2.423074912742881 10.523806850686274  4.223075004442329 10.523806850686274  C 5.192305955308543 10.523806850686274  6.046151491359059 10.45237837499456  6.761535790498144 9.738092790235184  Z " stroke-width="0" stroke-dasharray="0" stroke="rgba(121, 121, 121, 1)" fill="none" transform="matrix(1 0 0 1 1607 304 )" class="stroke" mask="url(#Clip5104)" />
  </g>
</svg>