<?xml version="1.0" encoding="utf-8"?>
<svg version="1.1" xmlns:xlink="http://www.w3.org/1999/xlink" width="22px" height="22px" xmlns="http://www.w3.org/2000/svg">
  <defs>
    <pattern id="BGPattern" patternUnits="userSpaceOnUse" alignment="0 0" imageRepeat="None" />
    <mask fill="white" id="Clip5093">
      <path d="M 7.889989366024277 10.975448214397852  C 8.27722791321144 9.976936733588238  8.616062243073818 9.043901071570614  8.906491393893635 8.176341716180493  C 8.906491393893635 8.176341716180493  11.036304845999696 8.741075714554848  11.036304845999696 8.741075714554848  C 10.649065817953645 9.65774205599784  10.22955731169107 10.623516359164727  9.777778846353083 11.638397160548973  C 9.342135120123357 12.636908641358588  8.890356654785373 13.643600635853675  8.422443450339124 14.658481437237922  C 7.954529765033988 15.656993161965291  7.47854871017472 16.61458060958506  6.994500285761322 17.53124719494581  C 6.510451861347924 18.431544581690808  6.050605064738033 19.25818490420507  5.614961338508308 20.01116096691482  C 5.614961338508308 20.01116096691482  3.9207923339203017 19.446426968540464  3.9207923339203017 19.446426968540464  C 4.356435819720582 18.693450905830716  4.808214525488013 17.850445165425906  5.276127970363706 16.917409625367164  C 5.74404165566884 15.984374207267294  6.195820121006827 15.010421097839227  6.631463366377664 13.99554029645498  C 7.083242312574539 12.98065973898849  7.502750818837114 11.97396018304298  7.889989366024277 10.975448214397852  Z M 1.2101210610334951 20.821428432046996  C 1.2101210610334951 20.821428432046996  0.9680968488267961 18.88169297016611  0.9680968488267961 18.88169297016611  C 2.0652732935257947 18.848954877831797  3.307664073205258 18.808037247483036  4.695269668724072 18.758930139471286  C 6.099010243780593 18.709823031459536  7.583426437813973 18.652532116872617  9.148516327388664 18.58705593220399  C 10.729740956071616 18.50521067087849  12.343235062971095 18.431546472053412  13.98899960980487 18.366070348364225  C 15.650898895746908 18.284225087038728  17.29666248086291 18.210568754561262  18.926292288588424 18.145092569892636  C 18.926292288588424 18.145092569892636  18.877889032981415 19.888390330851816  18.877889032981415 19.888390330851816  C 16.764211281701385 20.00297363877705  14.6343987913131 20.117555437461174  12.488450600098776 20.232138745386408  C 10.342502408884455 20.363091114723655  8.301430502732721 20.477680718775954  6.365236805079129 20.575894965289173  C 4.445177846533799 20.67410921180239  2.7268061322097905 20.75595224737837  1.2101210610334951 20.821428432046996  Z M 15.731574514723768 16.401787003565282  C 14.989366898565965 15.370537125524155  14.263294021516424 14.42931509579493  13.553355883575145 13.578124817061683  C 13.553355883575145 13.578124817061683  15.271729160690537 12.743301663643269  15.271729160690537 12.743301663643269  C 16.01393677684834 13.610861262951147  16.764209358265838 14.543896437133258  17.522551713531904 15.54240816186063  C 18.280894068797966 16.524550687972248  18.982765318044002 17.490324991139133  19.628163537834457 18.439729607854755  C 20.27356079590714 19.38913416359094  20.789878217678172 20.240326576604545  21.177117726583113 20.99330263931429  C 21.177117726583113 20.99330263931429  19.361936976535922 22  19.361936976535922 22  C 18.97469842934876 21.230654982592256  18.458379084142173 20.36309702972923  17.81298086435172 19.39732339733617  C 17.183718345387298 18.41518081024511  16.489916869989834 17.416667804949526  15.731574514723768 16.401787003565282  Z M 4.743674847766633 3.560270392145245  C 5.421342786203057 2.398067656931362  5.994132997000227 1.2113092334312434  6.462046201446476 0  C 6.462046201446476 0  8.47084766766391 0.5647339983743547  8.47084766766391 0.5647339983743547  C 7.9383945450668385 1.8906270123214832  7.309131545243531 3.1756023349404114  6.583059149052878 4.419649233849895  C 5.856986272003338 5.6636971084304015  5.082508215911236 6.825895940960195  4.259625942494347 7.906252561136433  C 3.43674366907746 8.970240348573551  2.589659286998179 9.903276010591174  1.718372074968174 10.705359059353794  C 1.6054274586336772 10.5744069339343  1.4440777834713412 10.427085975775686  1.234323410125332 10.26339569704244  C 1.0245691569940445 10.099704930473683  0.806747414093904 9.93601123689186  0.5808580612101889 9.772320958158614  C 0.35496882854119566 9.608630679425369  0.161349494840253 9.477683432360985  0 9.379468972419732  C 0.8874221314603501 8.642861742449105  1.7264394445223048 7.783482900744454  2.517051999293225 6.80134025267396  C 3.323799293172407 5.802828771864344  4.0660071497596535 4.722472151688106  4.743674847766633 3.560270392145245  Z M 13.335533539601396 0.7366082056416492  C 13.335533539601396 0.7366082056416492  15.102311034041575 0  15.102311034041575 0  C 15.505685282054776 0.8020835365981297  15.981665375196268 1.628723737153517  16.5302532369016 2.4799137719690068  C 17.094975837715197 3.331103806784497  17.691967916745316 4.165923057518822  18.32123139742751 4.984375426856072  C 18.950493916391927 5.802827796193322  19.5797583587919 6.572176594326278  20.20902183947409 7.292414991557784  C 20.83828435843851 8.01265241311827  21.43527643746863 8.626487055683851  22 9.13392770029373  C 21.83865068548183 9.264879825713225  21.661166631855398 9.420387151583443  21.467546877402928 9.600446750891319  C 21.273928084668235 9.780506350199197  21.088376180628785 9.968752317218678  20.910891165284575 10.165180749265675  C 20.733407111658146 10.361609181312671  20.580125647552993 10.54166878062055  20.451045811251348 10.705359059353794  C 19.90245794954601 10.116073763212803  19.305463947080344 9.428574982801582  18.660065727289886 8.642860766778082  C 18.03080320832547 7.857146550754584  17.393472838948032 7.022319982487592  16.748074619157574 6.1383913065228395  C 16.118811138475383 5.25446360622911  15.505684320337 4.354166097525237  14.908691279589103 3.4374997560822442  C 14.31169823884121 2.5044636062291095  13.787312004939384 1.6041670731962594  13.335533539601396 0.7366082056416492  Z " fill-rule="evenodd" />
    </mask>
  </defs>
  <g transform="matrix(1 0 0 1 -1371 -328 )">
    <path d="M 7.889989366024277 10.975448214397852  C 8.27722791321144 9.976936733588238  8.616062243073818 9.043901071570614  8.906491393893635 8.176341716180493  C 8.906491393893635 8.176341716180493  11.036304845999696 8.741075714554848  11.036304845999696 8.741075714554848  C 10.649065817953645 9.65774205599784  10.22955731169107 10.623516359164727  9.777778846353083 11.638397160548973  C 9.342135120123357 12.636908641358588  8.890356654785373 13.643600635853675  8.422443450339124 14.658481437237922  C 7.954529765033988 15.656993161965291  7.47854871017472 16.61458060958506  6.994500285761322 17.53124719494581  C 6.510451861347924 18.431544581690808  6.050605064738033 19.25818490420507  5.614961338508308 20.01116096691482  C 5.614961338508308 20.01116096691482  3.9207923339203017 19.446426968540464  3.9207923339203017 19.446426968540464  C 4.356435819720582 18.693450905830716  4.808214525488013 17.850445165425906  5.276127970363706 16.917409625367164  C 5.74404165566884 15.984374207267294  6.195820121006827 15.010421097839227  6.631463366377664 13.99554029645498  C 7.083242312574539 12.98065973898849  7.502750818837114 11.97396018304298  7.889989366024277 10.975448214397852  Z M 1.2101210610334951 20.821428432046996  C 1.2101210610334951 20.821428432046996  0.9680968488267961 18.88169297016611  0.9680968488267961 18.88169297016611  C 2.0652732935257947 18.848954877831797  3.307664073205258 18.808037247483036  4.695269668724072 18.758930139471286  C 6.099010243780593 18.709823031459536  7.583426437813973 18.652532116872617  9.148516327388664 18.58705593220399  C 10.729740956071616 18.50521067087849  12.343235062971095 18.431546472053412  13.98899960980487 18.366070348364225  C 15.650898895746908 18.284225087038728  17.29666248086291 18.210568754561262  18.926292288588424 18.145092569892636  C 18.926292288588424 18.145092569892636  18.877889032981415 19.888390330851816  18.877889032981415 19.888390330851816  C 16.764211281701385 20.00297363877705  14.6343987913131 20.117555437461174  12.488450600098776 20.232138745386408  C 10.342502408884455 20.363091114723655  8.301430502732721 20.477680718775954  6.365236805079129 20.575894965289173  C 4.445177846533799 20.67410921180239  2.7268061322097905 20.75595224737837  1.2101210610334951 20.821428432046996  Z M 15.731574514723768 16.401787003565282  C 14.989366898565965 15.370537125524155  14.263294021516424 14.42931509579493  13.553355883575145 13.578124817061683  C 13.553355883575145 13.578124817061683  15.271729160690537 12.743301663643269  15.271729160690537 12.743301663643269  C 16.01393677684834 13.610861262951147  16.764209358265838 14.543896437133258  17.522551713531904 15.54240816186063  C 18.280894068797966 16.524550687972248  18.982765318044002 17.490324991139133  19.628163537834457 18.439729607854755  C 20.27356079590714 19.38913416359094  20.789878217678172 20.240326576604545  21.177117726583113 20.99330263931429  C 21.177117726583113 20.99330263931429  19.361936976535922 22  19.361936976535922 22  C 18.97469842934876 21.230654982592256  18.458379084142173 20.36309702972923  17.81298086435172 19.39732339733617  C 17.183718345387298 18.41518081024511  16.489916869989834 17.416667804949526  15.731574514723768 16.401787003565282  Z M 4.743674847766633 3.560270392145245  C 5.421342786203057 2.398067656931362  5.994132997000227 1.2113092334312434  6.462046201446476 0  C 6.462046201446476 0  8.47084766766391 0.5647339983743547  8.47084766766391 0.5647339983743547  C 7.9383945450668385 1.8906270123214832  7.309131545243531 3.1756023349404114  6.583059149052878 4.419649233849895  C 5.856986272003338 5.6636971084304015  5.082508215911236 6.825895940960195  4.259625942494347 7.906252561136433  C 3.43674366907746 8.970240348573551  2.589659286998179 9.903276010591174  1.718372074968174 10.705359059353794  C 1.6054274586336772 10.5744069339343  1.4440777834713412 10.427085975775686  1.234323410125332 10.26339569704244  C 1.0245691569940445 10.099704930473683  0.806747414093904 9.93601123689186  0.5808580612101889 9.772320958158614  C 0.35496882854119566 9.608630679425369  0.161349494840253 9.477683432360985  0 9.379468972419732  C 0.8874221314603501 8.642861742449105  1.7264394445223048 7.783482900744454  2.517051999293225 6.80134025267396  C 3.323799293172407 5.802828771864344  4.0660071497596535 4.722472151688106  4.743674847766633 3.560270392145245  Z M 13.335533539601396 0.7366082056416492  C 13.335533539601396 0.7366082056416492  15.102311034041575 0  15.102311034041575 0  C 15.505685282054776 0.8020835365981297  15.981665375196268 1.628723737153517  16.5302532369016 2.4799137719690068  C 17.094975837715197 3.331103806784497  17.691967916745316 4.165923057518822  18.32123139742751 4.984375426856072  C 18.950493916391927 5.802827796193322  19.5797583587919 6.572176594326278  20.20902183947409 7.292414991557784  C 20.83828435843851 8.01265241311827  21.43527643746863 8.626487055683851  22 9.13392770029373  C 21.83865068548183 9.264879825713225  21.661166631855398 9.420387151583443  21.467546877402928 9.600446750891319  C 21.273928084668235 9.780506350199197  21.088376180628785 9.968752317218678  20.910891165284575 10.165180749265675  C 20.733407111658146 10.361609181312671  20.580125647552993 10.54166878062055  20.451045811251348 10.705359059353794  C 19.90245794954601 10.116073763212803  19.305463947080344 9.428574982801582  18.660065727289886 8.642860766778082  C 18.03080320832547 7.857146550754584  17.393472838948032 7.022319982487592  16.748074619157574 6.1383913065228395  C 16.118811138475383 5.25446360622911  15.505684320337 4.354166097525237  14.908691279589103 3.4374997560822442  C 14.31169823884121 2.5044636062291095  13.787312004939384 1.6041670731962594  13.335533539601396 0.7366082056416492  Z " fill-rule="nonzero" fill="rgba(255, 255, 255, 1)" stroke="none" transform="matrix(1 0 0 1 1371 328 )" class="fill" />
    <path d="M 7.889989366024277 10.975448214397852  C 8.27722791321144 9.976936733588238  8.616062243073818 9.043901071570614  8.906491393893635 8.176341716180493  C 8.906491393893635 8.176341716180493  11.036304845999696 8.741075714554848  11.036304845999696 8.741075714554848  C 10.649065817953645 9.65774205599784  10.22955731169107 10.623516359164727  9.777778846353083 11.638397160548973  C 9.342135120123357 12.636908641358588  8.890356654785373 13.643600635853675  8.422443450339124 14.658481437237922  C 7.954529765033988 15.656993161965291  7.47854871017472 16.61458060958506  6.994500285761322 17.53124719494581  C 6.510451861347924 18.431544581690808  6.050605064738033 19.25818490420507  5.614961338508308 20.01116096691482  C 5.614961338508308 20.01116096691482  3.9207923339203017 19.446426968540464  3.9207923339203017 19.446426968540464  C 4.356435819720582 18.693450905830716  4.808214525488013 17.850445165425906  5.276127970363706 16.917409625367164  C 5.74404165566884 15.984374207267294  6.195820121006827 15.010421097839227  6.631463366377664 13.99554029645498  C 7.083242312574539 12.98065973898849  7.502750818837114 11.97396018304298  7.889989366024277 10.975448214397852  Z " stroke-width="0" stroke-dasharray="0" stroke="rgba(121, 121, 121, 1)" fill="none" transform="matrix(1 0 0 1 1371 328 )" class="stroke" mask="url(#Clip5093)" />
    <path d="M 1.2101210610334951 20.821428432046996  C 1.2101210610334951 20.821428432046996  0.9680968488267961 18.88169297016611  0.9680968488267961 18.88169297016611  C 2.0652732935257947 18.848954877831797  3.307664073205258 18.808037247483036  4.695269668724072 18.758930139471286  C 6.099010243780593 18.709823031459536  7.583426437813973 18.652532116872617  9.148516327388664 18.58705593220399  C 10.729740956071616 18.50521067087849  12.343235062971095 18.431546472053412  13.98899960980487 18.366070348364225  C 15.650898895746908 18.284225087038728  17.29666248086291 18.210568754561262  18.926292288588424 18.145092569892636  C 18.926292288588424 18.145092569892636  18.877889032981415 19.888390330851816  18.877889032981415 19.888390330851816  C 16.764211281701385 20.00297363877705  14.6343987913131 20.117555437461174  12.488450600098776 20.232138745386408  C 10.342502408884455 20.363091114723655  8.301430502732721 20.477680718775954  6.365236805079129 20.575894965289173  C 4.445177846533799 20.67410921180239  2.7268061322097905 20.75595224737837  1.2101210610334951 20.821428432046996  Z " stroke-width="0" stroke-dasharray="0" stroke="rgba(121, 121, 121, 1)" fill="none" transform="matrix(1 0 0 1 1371 328 )" class="stroke" mask="url(#Clip5093)" />
    <path d="M 15.731574514723768 16.401787003565282  C 14.989366898565965 15.370537125524155  14.263294021516424 14.42931509579493  13.553355883575145 13.578124817061683  C 13.553355883575145 13.578124817061683  15.271729160690537 12.743301663643269  15.271729160690537 12.743301663643269  C 16.01393677684834 13.610861262951147  16.764209358265838 14.543896437133258  17.522551713531904 15.54240816186063  C 18.280894068797966 16.524550687972248  18.982765318044002 17.490324991139133  19.628163537834457 18.439729607854755  C 20.27356079590714 19.38913416359094  20.789878217678172 20.240326576604545  21.177117726583113 20.99330263931429  C 21.177117726583113 20.99330263931429  19.361936976535922 22  19.361936976535922 22  C 18.97469842934876 21.230654982592256  18.458379084142173 20.36309702972923  17.81298086435172 19.39732339733617  C 17.183718345387298 18.41518081024511  16.489916869989834 17.416667804949526  15.731574514723768 16.401787003565282  Z " stroke-width="0" stroke-dasharray="0" stroke="rgba(121, 121, 121, 1)" fill="none" transform="matrix(1 0 0 1 1371 328 )" class="stroke" mask="url(#Clip5093)" />
    <path d="M 4.743674847766633 3.560270392145245  C 5.421342786203057 2.398067656931362  5.994132997000227 1.2113092334312434  6.462046201446476 0  C 6.462046201446476 0  8.47084766766391 0.5647339983743547  8.47084766766391 0.5647339983743547  C 7.9383945450668385 1.8906270123214832  7.309131545243531 3.1756023349404114  6.583059149052878 4.419649233849895  C 5.856986272003338 5.6636971084304015  5.082508215911236 6.825895940960195  4.259625942494347 7.906252561136433  C 3.43674366907746 8.970240348573551  2.589659286998179 9.903276010591174  1.718372074968174 10.705359059353794  C 1.6054274586336772 10.5744069339343  1.4440777834713412 10.427085975775686  1.234323410125332 10.26339569704244  C 1.0245691569940445 10.099704930473683  0.806747414093904 9.93601123689186  0.5808580612101889 9.772320958158614  C 0.35496882854119566 9.608630679425369  0.161349494840253 9.477683432360985  0 9.379468972419732  C 0.8874221314603501 8.642861742449105  1.7264394445223048 7.783482900744454  2.517051999293225 6.80134025267396  C 3.323799293172407 5.802828771864344  4.0660071497596535 4.722472151688106  4.743674847766633 3.560270392145245  Z " stroke-width="0" stroke-dasharray="0" stroke="rgba(121, 121, 121, 1)" fill="none" transform="matrix(1 0 0 1 1371 328 )" class="stroke" mask="url(#Clip5093)" />
    <path d="M 13.335533539601396 0.7366082056416492  C 13.335533539601396 0.7366082056416492  15.102311034041575 0  15.102311034041575 0  C 15.505685282054776 0.8020835365981297  15.981665375196268 1.628723737153517  16.5302532369016 2.4799137719690068  C 17.094975837715197 3.331103806784497  17.691967916745316 4.165923057518822  18.32123139742751 4.984375426856072  C 18.950493916391927 5.802827796193322  19.5797583587919 6.572176594326278  20.20902183947409 7.292414991557784  C 20.83828435843851 8.01265241311827  21.43527643746863 8.626487055683851  22 9.13392770029373  C 21.83865068548183 9.264879825713225  21.661166631855398 9.420387151583443  21.467546877402928 9.600446750891319  C 21.273928084668235 9.780506350199197  21.088376180628785 9.968752317218678  20.910891165284575 10.165180749265675  C 20.733407111658146 10.361609181312671  20.580125647552993 10.54166878062055  20.451045811251348 10.705359059353794  C 19.90245794954601 10.116073763212803  19.305463947080344 9.428574982801582  18.660065727289886 8.642860766778082  C 18.03080320832547 7.857146550754584  17.393472838948032 7.022319982487592  16.748074619157574 6.1383913065228395  C 16.118811138475383 5.25446360622911  15.505684320337 4.354166097525237  14.908691279589103 3.4374997560822442  C 14.31169823884121 2.5044636062291095  13.787312004939384 1.6041670731962594  13.335533539601396 0.7366082056416492  Z " stroke-width="0" stroke-dasharray="0" stroke="rgba(121, 121, 121, 1)" fill="none" transform="matrix(1 0 0 1 1371 328 )" class="stroke" mask="url(#Clip5093)" />
  </g>
</svg>