<?xml version="1.0" encoding="utf-8"?>
<svg version="1.1" xmlns:xlink="http://www.w3.org/1999/xlink" width="12px" height="17px" xmlns="http://www.w3.org/2000/svg">
  <defs>
    <pattern id="BGPattern" patternUnits="userSpaceOnUse" alignment="0 0" imageRepeat="None" />
    <mask fill="white" id="Clip5135">
      <path d="M 10.161299253980054 12.022100865112598  C 10.161299253980054 12.022100865112598  12 12.022100865112598  12 12.022100865112598  C 11.443547952931524 15.168510115995252  9.096778542953828 17  6.024195657189735 17  C 4.330646262209347 17  2.782261917732715 16.389504654925318  1.6209705950214062 15.262432727978442  C 0 13.689228219166834  0 12.045580993274664  0 8.500000933037747  C 0 4.95442017302252  0 3.3107743466869697  1.6209705950214062 1.7375691380970508  C 2.782261917732715 0.6104977942987662  4.330646262209347 0  6.024195657189735 0  C 9.120971796728792 0  11.419354699156562 1.8314919833396779  12 4.977901000962895  C 12 4.977901000962895  10.112907939600584 4.977901000962895  10.112907939600584 4.977901000962895  C 9.653230349680827 2.935082965716461  8.177423363114313 1.596686036530294  6.024195657189735 1.596686036530294  C 4.887098309277822 1.596686036530294  3.7983919152331636 2.0193376738249325  3.0483913143794705 2.770719036209329  C 1.9596808345296999 3.8508296571646103  1.8387007460199452 5.001382295422143  1.8387007460199452 8.500000933037747  C 1.8387007460199452 11.99861957065335  1.9596808345296999 13.14917314194863  3.0483913143794705 14.229283762903911  C 3.7983919152331636 14.98066495034373  4.887098309277822 15.4033158295452  6.024195657189735 15.4033158295452  C 8.177423363114313 15.4033158295452  9.701621664060296 14.064918900359032  10.161299253980054 12.022100865112598  Z " fill-rule="evenodd" />
    </mask>
  </defs>
  <g transform="matrix(1 0 0 1 -1550 -268 )">
    <path d="M 10.161299253980054 12.022100865112598  C 10.161299253980054 12.022100865112598  12 12.022100865112598  12 12.022100865112598  C 11.443547952931524 15.168510115995252  9.096778542953828 17  6.024195657189735 17  C 4.330646262209347 17  2.782261917732715 16.389504654925318  1.6209705950214062 15.262432727978442  C 0 13.689228219166834  0 12.045580993274664  0 8.500000933037747  C 0 4.95442017302252  0 3.3107743466869697  1.6209705950214062 1.7375691380970508  C 2.782261917732715 0.6104977942987662  4.330646262209347 0  6.024195657189735 0  C 9.120971796728792 0  11.419354699156562 1.8314919833396779  12 4.977901000962895  C 12 4.977901000962895  10.112907939600584 4.977901000962895  10.112907939600584 4.977901000962895  C 9.653230349680827 2.935082965716461  8.177423363114313 1.596686036530294  6.024195657189735 1.596686036530294  C 4.887098309277822 1.596686036530294  3.7983919152331636 2.0193376738249325  3.0483913143794705 2.770719036209329  C 1.9596808345296999 3.8508296571646103  1.8387007460199452 5.001382295422143  1.8387007460199452 8.500000933037747  C 1.8387007460199452 11.99861957065335  1.9596808345296999 13.14917314194863  3.0483913143794705 14.229283762903911  C 3.7983919152331636 14.98066495034373  4.887098309277822 15.4033158295452  6.024195657189735 15.4033158295452  C 8.177423363114313 15.4033158295452  9.701621664060296 14.064918900359032  10.161299253980054 12.022100865112598  Z " fill-rule="nonzero" fill="rgba(255, 255, 255, 1)" stroke="none" transform="matrix(1 0 0 1 1550 268 )" class="fill" />
    <path d="M 10.161299253980054 12.022100865112598  C 10.161299253980054 12.022100865112598  12 12.022100865112598  12 12.022100865112598  C 11.443547952931524 15.168510115995252  9.096778542953828 17  6.024195657189735 17  C 4.330646262209347 17  2.782261917732715 16.389504654925318  1.6209705950214062 15.262432727978442  C 0 13.689228219166834  0 12.045580993274664  0 8.500000933037747  C 0 4.95442017302252  0 3.3107743466869697  1.6209705950214062 1.7375691380970508  C 2.782261917732715 0.6104977942987662  4.330646262209347 0  6.024195657189735 0  C 9.120971796728792 0  11.419354699156562 1.8314919833396779  12 4.977901000962895  C 12 4.977901000962895  10.112907939600584 4.977901000962895  10.112907939600584 4.977901000962895  C 9.653230349680827 2.935082965716461  8.177423363114313 1.596686036530294  6.024195657189735 1.596686036530294  C 4.887098309277822 1.596686036530294  3.7983919152331636 2.0193376738249325  3.0483913143794705 2.770719036209329  C 1.9596808345296999 3.8508296571646103  1.8387007460199452 5.001382295422143  1.8387007460199452 8.500000933037747  C 1.8387007460199452 11.99861957065335  1.9596808345296999 13.14917314194863  3.0483913143794705 14.229283762903911  C 3.7983919152331636 14.98066495034373  4.887098309277822 15.4033158295452  6.024195657189735 15.4033158295452  C 8.177423363114313 15.4033158295452  9.701621664060296 14.064918900359032  10.161299253980054 12.022100865112598  Z " stroke-width="0" stroke-dasharray="0" stroke="rgba(121, 121, 121, 1)" fill="none" transform="matrix(1 0 0 1 1550 268 )" class="stroke" mask="url(#Clip5135)" />
  </g>
</svg>