<?xml version="1.0" encoding="utf-8"?>
<svg version="1.1" xmlns:xlink="http://www.w3.org/1999/xlink" width="11px" height="20px" xmlns="http://www.w3.org/2000/svg">
  <defs>
    <pattern id="BGPattern" patternUnits="userSpaceOnUse" alignment="0 0" imageRepeat="None" />
    <mask fill="white" id="Clip4353">
      <path d="M 11 0.165746079877189  C 11 0.165746079877189  11 14.171271482370855  11 14.171271482370855  C 11 17.541437696067298  8.850901310803314 20  5.203086080765686 20  C 3.1105407383254557 20  1.9511589657657835 19.475138746633302  0.480721626521046 18.17679594398612  C 0.480721626521046 18.17679594398612  1.8097687365687052 16.906079448148475  1.8097687365687052 16.906079448148475  C 2.827763650888602 17.790057521541883  3.5347056471327423 18.259668513485515  5.146531048530578 18.259668513485515  C 7.832907118831411 18.259668513485515  8.964011134490864 16.40884097329731  8.964011134490864 14.08839891287146  C 8.964011134490864 14.08839891287146  8.964011134490864 11.961326886936337  8.964011134490864 11.961326886936337  C 7.832905794526757 13.370166801745443  6.5604131147575435 13.72928256328395  5.061698500177917 13.72928256328395  C 3.6478161931682864 13.72928256328395  2.431877341720859 13.232044676481785  1.6966586720984902 12.513812565355767  C 0.3110542423804107 11.160221265432522  0 9.06077401737953  0 6.85082918672541  C 0 4.64088412085169  0.3110542423804107 2.5414368727986973  1.6966586720984902 1.1878458080950542  C 2.431877341720859 0.4696131089200353  3.6760937092858406 0  5.08997601629547 0  C 6.6169682673839825 0  7.8611824679049835 0.33149110126617765  8.992288650608419 1.7679556763476154  C 8.992288650608419 1.7679556763476154  8.992288650608419 0.165746079877189  8.992288650608419 0.165746079877189  L 11 0.165746079877189  Z M 5.5141387580587775 11.933702697103206  C 8.539846948031572 11.933702697103206  8.964011134490864 9.392265471475108  8.964011134490864 6.85082918672541  C 8.964011134490864 4.309392431536513  8.539846948031572 1.7679556763476154  5.5141387580587775 1.7679556763476154  C 2.4884315312166407 1.7679556763476154  2.0359888655091356 4.309392431536513  2.0359888655091356 6.85082918672541  C 2.0359888655091356 9.392265471475108  2.4884315312166407 11.933702697103206  5.5141387580587775 11.933702697103206  Z " fill-rule="evenodd" />
    </mask>
  </defs>
  <g transform="matrix(1 0 0 1 -1029 -548 )">
    <path d="M 11 0.165746079877189  C 11 0.165746079877189  11 14.171271482370855  11 14.171271482370855  C 11 17.541437696067298  8.850901310803314 20  5.203086080765686 20  C 3.1105407383254557 20  1.9511589657657835 19.475138746633302  0.480721626521046 18.17679594398612  C 0.480721626521046 18.17679594398612  1.8097687365687052 16.906079448148475  1.8097687365687052 16.906079448148475  C 2.827763650888602 17.790057521541883  3.5347056471327423 18.259668513485515  5.146531048530578 18.259668513485515  C 7.832907118831411 18.259668513485515  8.964011134490864 16.40884097329731  8.964011134490864 14.08839891287146  C 8.964011134490864 14.08839891287146  8.964011134490864 11.961326886936337  8.964011134490864 11.961326886936337  C 7.832905794526757 13.370166801745443  6.5604131147575435 13.72928256328395  5.061698500177917 13.72928256328395  C 3.6478161931682864 13.72928256328395  2.431877341720859 13.232044676481785  1.6966586720984902 12.513812565355767  C 0.3110542423804107 11.160221265432522  0 9.06077401737953  0 6.85082918672541  C 0 4.64088412085169  0.3110542423804107 2.5414368727986973  1.6966586720984902 1.1878458080950542  C 2.431877341720859 0.4696131089200353  3.6760937092858406 0  5.08997601629547 0  C 6.6169682673839825 0  7.8611824679049835 0.33149110126617765  8.992288650608419 1.7679556763476154  C 8.992288650608419 1.7679556763476154  8.992288650608419 0.165746079877189  8.992288650608419 0.165746079877189  L 11 0.165746079877189  Z M 5.5141387580587775 11.933702697103206  C 8.539846948031572 11.933702697103206  8.964011134490864 9.392265471475108  8.964011134490864 6.85082918672541  C 8.964011134490864 4.309392431536513  8.539846948031572 1.7679556763476154  5.5141387580587775 1.7679556763476154  C 2.4884315312166407 1.7679556763476154  2.0359888655091356 4.309392431536513  2.0359888655091356 6.85082918672541  C 2.0359888655091356 9.392265471475108  2.4884315312166407 11.933702697103206  5.5141387580587775 11.933702697103206  Z " fill-rule="nonzero" fill="rgba(255, 255, 255, 1)" stroke="none" transform="matrix(1 0 0 1 1029 548 )" class="fill" />
    <path d="M 11 0.165746079877189  C 11 0.165746079877189  11 14.171271482370855  11 14.171271482370855  C 11 17.541437696067298  8.850901310803314 20  5.203086080765686 20  C 3.1105407383254557 20  1.9511589657657835 19.475138746633302  0.480721626521046 18.17679594398612  C 0.480721626521046 18.17679594398612  1.8097687365687052 16.906079448148475  1.8097687365687052 16.906079448148475  C 2.827763650888602 17.790057521541883  3.5347056471327423 18.259668513485515  5.146531048530578 18.259668513485515  C 7.832907118831411 18.259668513485515  8.964011134490864 16.40884097329731  8.964011134490864 14.08839891287146  C 8.964011134490864 14.08839891287146  8.964011134490864 11.961326886936337  8.964011134490864 11.961326886936337  C 7.832905794526757 13.370166801745443  6.5604131147575435 13.72928256328395  5.061698500177917 13.72928256328395  C 3.6478161931682864 13.72928256328395  2.431877341720859 13.232044676481785  1.6966586720984902 12.513812565355767  C 0.3110542423804107 11.160221265432522  0 9.06077401737953  0 6.85082918672541  C 0 4.64088412085169  0.3110542423804107 2.5414368727986973  1.6966586720984902 1.1878458080950542  C 2.431877341720859 0.4696131089200353  3.6760937092858406 0  5.08997601629547 0  C 6.6169682673839825 0  7.8611824679049835 0.33149110126617765  8.992288650608419 1.7679556763476154  C 8.992288650608419 1.7679556763476154  8.992288650608419 0.165746079877189  8.992288650608419 0.165746079877189  L 11 0.165746079877189  Z " stroke-width="0" stroke-dasharray="0" stroke="rgba(121, 121, 121, 1)" fill="none" transform="matrix(1 0 0 1 1029 548 )" class="stroke" mask="url(#Clip4353)" />
    <path d="M 5.5141387580587775 11.933702697103206  C 8.539846948031572 11.933702697103206  8.964011134490864 9.392265471475108  8.964011134490864 6.85082918672541  C 8.964011134490864 4.309392431536513  8.539846948031572 1.7679556763476154  5.5141387580587775 1.7679556763476154  C 2.4884315312166407 1.7679556763476154  2.0359888655091356 4.309392431536513  2.0359888655091356 6.85082918672541  C 2.0359888655091356 9.392265471475108  2.4884315312166407 11.933702697103206  5.5141387580587775 11.933702697103206  Z " stroke-width="0" stroke-dasharray="0" stroke="rgba(121, 121, 121, 1)" fill="none" transform="matrix(1 0 0 1 1029 548 )" class="stroke" mask="url(#Clip4353)" />
  </g>
</svg>