<?xml version="1.0" encoding="utf-8"?>
<svg version="1.1" xmlns:xlink="http://www.w3.org/1999/xlink" width="19px" height="18px" xmlns="http://www.w3.org/2000/svg">
  <defs>
    <pattern id="BGPattern" patternUnits="userSpaceOnUse" alignment="0 0" imageRepeat="None" />
    <mask fill="white" id="Clip4344">
      <path d="M 9.988222224491254 2.1326088173402855  L 9.988222224491254 0.8413048751412371  L 17.881157887213206 0.8413048751412371  L 17.881157887213206 9.43043526936114  L 9.988222224491254 9.43043526936114  L 9.988222224491254 8.139130394219904  L 16.39614813604664 8.139130394219904  L 16.39614813604664 2.1326088173402855  L 9.988222224491254 2.1326088173402855  Z M 9.886509746061243 5.713044086701427  L 9.886509746061243 4.480435269361142  L 17.067454179727783 4.480435269361142  L 17.067454179727783 5.713044086701427  L 9.886509746061243 5.713044086701427  Z M 12.246252437791643 8.902174480921332  C 12.246252437791643 8.902174480921332  13.507495124416717 8.667391182659715  13.507495124416717 8.667391182659715  C 13.805853635500373 9.815217129336887  14.205925110019706 10.904347717919746  14.70770954797472 11.934782365319428  C 15.223055532510696 12.952173664596918  15.833335435024555 13.852174655847993  16.538545799850926 14.634783298261619  C 17.257318560018174 15.417391940675245  18.077802161721312 16.03043358812157  19 16.473911826597146  C 18.891506657340944 16.565216174528864  18.762670888715448 16.68260804960661  18.613491223950092 16.826086307518477  C 18.477873939369186 16.982608030170315  18.34903816316548 17.139129286351057  18.22698244790018 17.295651038157335  C 18.118488294372277 17.452172746231952  18.023555391875007 17.60217553534037  17.94218518026895 17.7456538369839  C 16.979301792861737 17.197827734816364  16.12491144498504 16.486957098912605  15.379015591655861 15.613044086701427  C 14.646681284907643 14.726087668059169  14.016060608477899 13.715217867916117  13.487153016735247 12.580435269361143  C 12.971806183439355 11.432609089448423  12.558172525769118 10.206522121095896  12.246252437791643 8.902174480921332  Z M 16.640257308269604 10.956521576879618  C 17.06067152704034 10.630434958380413  17.413277133833486 10.33043550259669  17.69807406802332 10.056522509821807  C 17.69807406802332 10.056522509821807  18.715204672391437 11.09347842312038  18.715204672391437 11.09347842312038  C 18.159173987486852 11.536956778213728  17.542114493883822 11.980434404445987  16.864027282845093 12.423912759539334  C 16.19950161838733 12.867390910551576  15.596003065108182 13.239130384501756  15.053533138650359 13.539130394219905  C 15.053533138650359 13.539130394219905  14.199143275779326 12.599999067057812  14.199143275779326 12.599999067057812  C 14.565310429153435 12.391303397982773  14.958601372885122 12.143478063548912  15.379015591655861 11.856521576879619  C 15.812991387320421 11.569565090210327  16.233405454526892 11.269565284573282  16.640257308269604 10.956521576879618  Z M 9.316916180810113 17.78478143237724  C 9.154175363530891 17.863042359300657  9.025338617315851 17.93478267630016  8.93040643474887 18  C 8.93040643474887 18  8.788008770944586 16.708696057800953  8.788008770944586 16.708696057800953  L 9.479657892318532 16.160868672837907  C 9.479657892318532 16.160868672837907  14.077087719656515 14.92826078843981  14.077087719656515 14.92826078843981  C 14.077087719656515 15.123912949043216  14.090649772083234 15.352174558666514  14.117772905030785 15.613044086701427  C 14.158458412479133 15.860870179150815  14.192362250513245 16.063043926351988  14.219485383460796 16.219565663581047  C 13.134546258053646 16.532609138039163  12.266595818612986 16.78695572379469  11.615632549496103 16.982607884398096  C 10.978230826960187 17.191303553473137  10.47644590399951 17.354346986629125  10.110278750625401 17.471738278618  C 9.757673174145115 17.602173071789903  9.493218969050258 17.706520607494376  9.316916180810113 17.78478143237724  Z M 9.093148146257288 17.667391182659717  C 8.984653992729383 17.784782423628315  8.93040643474887 17.89565216546248  8.93040643474887 18  C 8.903282896366893 17.8826087590314  8.85581741323504 17.739131856801148  8.788008770944586 17.569566596523234  C 8.733761694180634 17.413044844716957  8.665953055679289 17.256519842190237  8.58458284407323 17.099998134115623  C 8.516774201782779 16.956519861626532  8.442184452760449 16.832609534053688  8.360813839509072 16.728261721381998  C 8.537116627749217 16.650000860056082  8.720199961933437 16.52608679342587  8.910064327067401 16.35652157687962  C 9.099928692201363 16.173912881016182  9.1948606246873 15.900000689988493  9.1948606246873 15.534783298261617  C 9.1948606246873 15.534783298261617  9.1948606246873 0.8413048751412371  9.1948606246873 0.8413048751412371  L 10.679872315876533 0.8413048751412371  C 10.679872315876533 0.8413048751412371  10.679872315876533 16.786954980356384  10.679872315876533 16.786954980356384  C 10.679872315876533 16.786954980356384  10.618844211951943 16.806521533147954  10.496788496686646 16.845651971099525  C 10.388294343158739 16.897825862858145  10.24589538347994 16.969566183501954  10.069592595239797 17.060870538722284  C 9.90685217202768 17.15217487207678  9.730549550508234 17.250000194362958  9.540685185374272 17.354348028900475  C 9.364382397134127 17.458695863437995  9.215203861522586 17.563043348122193  9.093148146257288 17.667391182659717  Z M 1.6477517051778183 6.22173921156019  L 1.6477517051778183 4.95  L 7.160599900956737 4.95  L 7.160599900956737 6.22173921156019  L 1.6477517051778183 6.22173921156019  Z M 0.5695931408711723 9.665217634680571  L 0.5695931408711723 8.354348028900477  L 7.892934207704953 8.354348028900477  L 7.892934207704953 9.665217634680571  L 0.5695931408711723 9.665217634680571  Z M 1.6070665198035472 12.834783298261618  C 1.444325596429337 12.156522490385512  1.2680228385020473 11.523913342628202  1.0781583824295211 10.936956846240761  C 1.0781583824295211 10.936956846240761  2.1563170073618756 10.66304315375924  2.1563170073618756 10.66304315375924  C 2.3597431312667836 11.24999965014668  2.5428266776409836 11.88260879790399  2.7055674949202038 12.560869605780097  C 2.8818700861267956 13.226086948916233  2.9971449788432234 13.813042628979257  3.051392055607176 14.321738278618001  C 3.051392055607176 14.321738278618001  1.9122054101105812 14.615217634680572  1.9122054101105812 14.615217634680572  C 1.871520205790776 14.106521985041827  1.7698073370827676 13.513044106137723  1.6070665198035472 12.834783298261618  Z M 0.7323341248710906 17.33478236531943  C 0.7323341248710906 17.33478236531943  0.3254817861227115 15.926088173402855  0.3254817861227115 15.926088173402855  C 0.9493219620776622 15.808696881413978  1.6748749195911659 15.67173938648685  2.5021410830431807 15.515217634680571  C 3.329407367746613 15.345652432711546  4.210921354416615 15.169564623739232  5.146681769913312 14.986955913298573  C 6.096003550113849 14.791303752695168  7.045324905934428 14.589130938436181  7.994646686134964 14.380435269361142  C 7.994646686134964 14.380435269361142  8.116703212269112 15.652172615036955  8.116703212269112 15.652172615036955  C 6.814775825275432 15.939129130860692  5.512848195778919 16.23260883677658  4.210921051288073 16.532608817340286  C 2.908993906797227 16.8456522917984  1.7494647292392047 17.113043260658863  0.7323341248710906 17.33478236531943  Z M 6.2858679304042395 11.582608817340285  C 6.394361674708614 11.139130666328043  6.482512508040884 10.741304408670144  6.550321150331336 10.389130394219904  C 6.550321150331336 10.389130394219904  7.750535573889336 10.741304875141237  7.750535573889336 10.741304875141237  C 7.560671208755373 11.341304661341985  7.350464175152139 11.973912876157106  7.119914715582466 12.639130394219904  C 6.902926817750187 13.291304214307187  6.692720193370483 13.839130578864713  6.489293857275595 14.282608817340286  C 6.489293857275595 14.282608817340286  5.5535336236560235 13.989129461277717  5.5535336236560235 13.989129461277717  C 5.675589338921322 13.663042551234074  5.797644576759167 13.291304097689414  5.919700292024464 12.873912759539333  C 6.055317576605369 12.443477927494843  6.177373776876334 12.013043474458115  6.2858679304042395 11.582608817340285  Z M 4 16.180434336418955  L 4 5.439131327162094  L 5 5.439131327162094  L 5 15.965215768796194  L 4 16.180434336418955  Z M 2.4817989753617122 2.563044086701427  C 3.2819417425232547 1.7543480483367715  3.932905345081532 0.9  4.434689570846565 0  C 4.434689570846565 0  5.716274365153108 0.43043503612559475  5.716274365153108 0.43043503612559475  C 5.322983663924257 1.1347830650260706  4.855103577427325 1.8260873959510309  4.312634014723751 2.504348028900476  C 3.770164270143051 3.1826086618499208  3.1937903256685423 3.8217391921238946  2.58351193879739 4.42173921156019  C 1.9732335519262383 5.0086958828742905  1.3561743008260414 5.5239132357285765  0.7323341248710906 5.967391182659714  C 0.6916489205512856 5.863043931211062  0.6306210098711417 5.726087857563051  0.5492505481840366 5.556522509821808  C 0.4678800864969317 5.386957162080565  0.3729478963517363 5.2173917997621  0.26445394743559636 5.047826452020856  C 0.1695217648686145 4.865217785311861  0.08137046168710499 4.721739213989727  0 4.6173911826597145  C 0.8543897416196126 4.056521907296644  1.681656147574461 3.371739367050555  2.4817989753617122 2.563044086701427  Z M 5.30942202640473 2.7978259855497623  C 4.86188465384635 2.419565362318465  4.421128084891308 2.0739133717826452  3.9871522892267475 1.7608700722511896  C 3.9871522892267475 1.7608700722511896  4.90256968765635 0.8413048751412371  4.90256968765635 0.8413048751412371  C 5.363669031175654 1.154348174672693  5.817987480153057 1.4934787243829624  6.265524852711437 1.8586960578009515  C 6.72662419623074 2.223913391218941  7.153818945789129 2.58260928381138  7.54710964701798 2.9347832982616175  C 7.940399923866874 3.2739132357285756  8.279443226257698 3.5934779469311384  8.564239766380428 3.8934779566492863  C 8.564239766380428 3.8934779566492863  7.628480017766524 4.9304352693611415  7.628480017766524 4.9304352693611415  C 7.343683477643792 4.6304352596429945  6.997858583515423 4.297826150758275  6.591006335705607 3.9326088173402853  C 6.184154087895791 3.554348194108988  5.756959398963108 3.176087395951031  5.30942202640473 2.7978259855497623  Z " fill-rule="evenodd" />
    </mask>
  </defs>
  <g transform="matrix(1 0 0 1 -976 -940 )">
    <path d="M 9.988222224491254 2.1326088173402855  L 9.988222224491254 0.8413048751412371  L 17.881157887213206 0.8413048751412371  L 17.881157887213206 9.43043526936114  L 9.988222224491254 9.43043526936114  L 9.988222224491254 8.139130394219904  L 16.39614813604664 8.139130394219904  L 16.39614813604664 2.1326088173402855  L 9.988222224491254 2.1326088173402855  Z M 9.886509746061243 5.713044086701427  L 9.886509746061243 4.480435269361142  L 17.067454179727783 4.480435269361142  L 17.067454179727783 5.713044086701427  L 9.886509746061243 5.713044086701427  Z M 12.246252437791643 8.902174480921332  C 12.246252437791643 8.902174480921332  13.507495124416717 8.667391182659715  13.507495124416717 8.667391182659715  C 13.805853635500373 9.815217129336887  14.205925110019706 10.904347717919746  14.70770954797472 11.934782365319428  C 15.223055532510696 12.952173664596918  15.833335435024555 13.852174655847993  16.538545799850926 14.634783298261619  C 17.257318560018174 15.417391940675245  18.077802161721312 16.03043358812157  19 16.473911826597146  C 18.891506657340944 16.565216174528864  18.762670888715448 16.68260804960661  18.613491223950092 16.826086307518477  C 18.477873939369186 16.982608030170315  18.34903816316548 17.139129286351057  18.22698244790018 17.295651038157335  C 18.118488294372277 17.452172746231952  18.023555391875007 17.60217553534037  17.94218518026895 17.7456538369839  C 16.979301792861737 17.197827734816364  16.12491144498504 16.486957098912605  15.379015591655861 15.613044086701427  C 14.646681284907643 14.726087668059169  14.016060608477899 13.715217867916117  13.487153016735247 12.580435269361143  C 12.971806183439355 11.432609089448423  12.558172525769118 10.206522121095896  12.246252437791643 8.902174480921332  Z M 16.640257308269604 10.956521576879618  C 17.06067152704034 10.630434958380413  17.413277133833486 10.33043550259669  17.69807406802332 10.056522509821807  C 17.69807406802332 10.056522509821807  18.715204672391437 11.09347842312038  18.715204672391437 11.09347842312038  C 18.159173987486852 11.536956778213728  17.542114493883822 11.980434404445987  16.864027282845093 12.423912759539334  C 16.19950161838733 12.867390910551576  15.596003065108182 13.239130384501756  15.053533138650359 13.539130394219905  C 15.053533138650359 13.539130394219905  14.199143275779326 12.599999067057812  14.199143275779326 12.599999067057812  C 14.565310429153435 12.391303397982773  14.958601372885122 12.143478063548912  15.379015591655861 11.856521576879619  C 15.812991387320421 11.569565090210327  16.233405454526892 11.269565284573282  16.640257308269604 10.956521576879618  Z M 9.316916180810113 17.78478143237724  C 9.154175363530891 17.863042359300657  9.025338617315851 17.93478267630016  8.93040643474887 18  C 8.93040643474887 18  8.788008770944586 16.708696057800953  8.788008770944586 16.708696057800953  L 9.479657892318532 16.160868672837907  C 9.479657892318532 16.160868672837907  14.077087719656515 14.92826078843981  14.077087719656515 14.92826078843981  C 14.077087719656515 15.123912949043216  14.090649772083234 15.352174558666514  14.117772905030785 15.613044086701427  C 14.158458412479133 15.860870179150815  14.192362250513245 16.063043926351988  14.219485383460796 16.219565663581047  C 13.134546258053646 16.532609138039163  12.266595818612986 16.78695572379469  11.615632549496103 16.982607884398096  C 10.978230826960187 17.191303553473137  10.47644590399951 17.354346986629125  10.110278750625401 17.471738278618  C 9.757673174145115 17.602173071789903  9.493218969050258 17.706520607494376  9.316916180810113 17.78478143237724  Z M 9.093148146257288 17.667391182659717  C 8.984653992729383 17.784782423628315  8.93040643474887 17.89565216546248  8.93040643474887 18  C 8.903282896366893 17.8826087590314  8.85581741323504 17.739131856801148  8.788008770944586 17.569566596523234  C 8.733761694180634 17.413044844716957  8.665953055679289 17.256519842190237  8.58458284407323 17.099998134115623  C 8.516774201782779 16.956519861626532  8.442184452760449 16.832609534053688  8.360813839509072 16.728261721381998  C 8.537116627749217 16.650000860056082  8.720199961933437 16.52608679342587  8.910064327067401 16.35652157687962  C 9.099928692201363 16.173912881016182  9.1948606246873 15.900000689988493  9.1948606246873 15.534783298261617  C 9.1948606246873 15.534783298261617  9.1948606246873 0.8413048751412371  9.1948606246873 0.8413048751412371  L 10.679872315876533 0.8413048751412371  C 10.679872315876533 0.8413048751412371  10.679872315876533 16.786954980356384  10.679872315876533 16.786954980356384  C 10.679872315876533 16.786954980356384  10.618844211951943 16.806521533147954  10.496788496686646 16.845651971099525  C 10.388294343158739 16.897825862858145  10.24589538347994 16.969566183501954  10.069592595239797 17.060870538722284  C 9.90685217202768 17.15217487207678  9.730549550508234 17.250000194362958  9.540685185374272 17.354348028900475  C 9.364382397134127 17.458695863437995  9.215203861522586 17.563043348122193  9.093148146257288 17.667391182659717  Z M 1.6477517051778183 6.22173921156019  L 1.6477517051778183 4.95  L 7.160599900956737 4.95  L 7.160599900956737 6.22173921156019  L 1.6477517051778183 6.22173921156019  Z M 0.5695931408711723 9.665217634680571  L 0.5695931408711723 8.354348028900477  L 7.892934207704953 8.354348028900477  L 7.892934207704953 9.665217634680571  L 0.5695931408711723 9.665217634680571  Z M 1.6070665198035472 12.834783298261618  C 1.444325596429337 12.156522490385512  1.2680228385020473 11.523913342628202  1.0781583824295211 10.936956846240761  C 1.0781583824295211 10.936956846240761  2.1563170073618756 10.66304315375924  2.1563170073618756 10.66304315375924  C 2.3597431312667836 11.24999965014668  2.5428266776409836 11.88260879790399  2.7055674949202038 12.560869605780097  C 2.8818700861267956 13.226086948916233  2.9971449788432234 13.813042628979257  3.051392055607176 14.321738278618001  C 3.051392055607176 14.321738278618001  1.9122054101105812 14.615217634680572  1.9122054101105812 14.615217634680572  C 1.871520205790776 14.106521985041827  1.7698073370827676 13.513044106137723  1.6070665198035472 12.834783298261618  Z M 0.7323341248710906 17.33478236531943  C 0.7323341248710906 17.33478236531943  0.3254817861227115 15.926088173402855  0.3254817861227115 15.926088173402855  C 0.9493219620776622 15.808696881413978  1.6748749195911659 15.67173938648685  2.5021410830431807 15.515217634680571  C 3.329407367746613 15.345652432711546  4.210921354416615 15.169564623739232  5.146681769913312 14.986955913298573  C 6.096003550113849 14.791303752695168  7.045324905934428 14.589130938436181  7.994646686134964 14.380435269361142  C 7.994646686134964 14.380435269361142  8.116703212269112 15.652172615036955  8.116703212269112 15.652172615036955  C 6.814775825275432 15.939129130860692  5.512848195778919 16.23260883677658  4.210921051288073 16.532608817340286  C 2.908993906797227 16.8456522917984  1.7494647292392047 17.113043260658863  0.7323341248710906 17.33478236531943  Z M 6.2858679304042395 11.582608817340285  C 6.394361674708614 11.139130666328043  6.482512508040884 10.741304408670144  6.550321150331336 10.389130394219904  C 6.550321150331336 10.389130394219904  7.750535573889336 10.741304875141237  7.750535573889336 10.741304875141237  C 7.560671208755373 11.341304661341985  7.350464175152139 11.973912876157106  7.119914715582466 12.639130394219904  C 6.902926817750187 13.291304214307187  6.692720193370483 13.839130578864713  6.489293857275595 14.282608817340286  C 6.489293857275595 14.282608817340286  5.5535336236560235 13.989129461277717  5.5535336236560235 13.989129461277717  C 5.675589338921322 13.663042551234074  5.797644576759167 13.291304097689414  5.919700292024464 12.873912759539333  C 6.055317576605369 12.443477927494843  6.177373776876334 12.013043474458115  6.2858679304042395 11.582608817340285  Z M 4 16.180434336418955  L 4 5.439131327162094  L 5 5.439131327162094  L 5 15.965215768796194  L 4 16.180434336418955  Z M 2.4817989753617122 2.563044086701427  C 3.2819417425232547 1.7543480483367715  3.932905345081532 0.9  4.434689570846565 0  C 4.434689570846565 0  5.716274365153108 0.43043503612559475  5.716274365153108 0.43043503612559475  C 5.322983663924257 1.1347830650260706  4.855103577427325 1.8260873959510309  4.312634014723751 2.504348028900476  C 3.770164270143051 3.1826086618499208  3.1937903256685423 3.8217391921238946  2.58351193879739 4.42173921156019  C 1.9732335519262383 5.0086958828742905  1.3561743008260414 5.5239132357285765  0.7323341248710906 5.967391182659714  C 0.6916489205512856 5.863043931211062  0.6306210098711417 5.726087857563051  0.5492505481840366 5.556522509821808  C 0.4678800864969317 5.386957162080565  0.3729478963517363 5.2173917997621  0.26445394743559636 5.047826452020856  C 0.1695217648686145 4.865217785311861  0.08137046168710499 4.721739213989727  0 4.6173911826597145  C 0.8543897416196126 4.056521907296644  1.681656147574461 3.371739367050555  2.4817989753617122 2.563044086701427  Z M 5.30942202640473 2.7978259855497623  C 4.86188465384635 2.419565362318465  4.421128084891308 2.0739133717826452  3.9871522892267475 1.7608700722511896  C 3.9871522892267475 1.7608700722511896  4.90256968765635 0.8413048751412371  4.90256968765635 0.8413048751412371  C 5.363669031175654 1.154348174672693  5.817987480153057 1.4934787243829624  6.265524852711437 1.8586960578009515  C 6.72662419623074 2.223913391218941  7.153818945789129 2.58260928381138  7.54710964701798 2.9347832982616175  C 7.940399923866874 3.2739132357285756  8.279443226257698 3.5934779469311384  8.564239766380428 3.8934779566492863  C 8.564239766380428 3.8934779566492863  7.628480017766524 4.9304352693611415  7.628480017766524 4.9304352693611415  C 7.343683477643792 4.6304352596429945  6.997858583515423 4.297826150758275  6.591006335705607 3.9326088173402853  C 6.184154087895791 3.554348194108988  5.756959398963108 3.176087395951031  5.30942202640473 2.7978259855497623  Z " fill-rule="nonzero" fill="rgba(255, 255, 255, 1)" stroke="none" transform="matrix(1 0 0 1 976 940 )" class="fill" />
    <path d="M 9.988222224491254 2.1326088173402855  L 9.988222224491254 0.8413048751412371  L 17.881157887213206 0.8413048751412371  L 17.881157887213206 9.43043526936114  L 9.988222224491254 9.43043526936114  L 9.988222224491254 8.139130394219904  L 16.39614813604664 8.139130394219904  L 16.39614813604664 2.1326088173402855  L 9.988222224491254 2.1326088173402855  Z " stroke-width="0" stroke-dasharray="0" stroke="rgba(121, 121, 121, 1)" fill="none" transform="matrix(1 0 0 1 976 940 )" class="stroke" mask="url(#Clip4344)" />
    <path d="M 9.886509746061243 5.713044086701427  L 9.886509746061243 4.480435269361142  L 17.067454179727783 4.480435269361142  L 17.067454179727783 5.713044086701427  L 9.886509746061243 5.713044086701427  Z " stroke-width="0" stroke-dasharray="0" stroke="rgba(121, 121, 121, 1)" fill="none" transform="matrix(1 0 0 1 976 940 )" class="stroke" mask="url(#Clip4344)" />
    <path d="M 12.246252437791643 8.902174480921332  C 12.246252437791643 8.902174480921332  13.507495124416717 8.667391182659715  13.507495124416717 8.667391182659715  C 13.805853635500373 9.815217129336887  14.205925110019706 10.904347717919746  14.70770954797472 11.934782365319428  C 15.223055532510696 12.952173664596918  15.833335435024555 13.852174655847993  16.538545799850926 14.634783298261619  C 17.257318560018174 15.417391940675245  18.077802161721312 16.03043358812157  19 16.473911826597146  C 18.891506657340944 16.565216174528864  18.762670888715448 16.68260804960661  18.613491223950092 16.826086307518477  C 18.477873939369186 16.982608030170315  18.34903816316548 17.139129286351057  18.22698244790018 17.295651038157335  C 18.118488294372277 17.452172746231952  18.023555391875007 17.60217553534037  17.94218518026895 17.7456538369839  C 16.979301792861737 17.197827734816364  16.12491144498504 16.486957098912605  15.379015591655861 15.613044086701427  C 14.646681284907643 14.726087668059169  14.016060608477899 13.715217867916117  13.487153016735247 12.580435269361143  C 12.971806183439355 11.432609089448423  12.558172525769118 10.206522121095896  12.246252437791643 8.902174480921332  Z " stroke-width="0" stroke-dasharray="0" stroke="rgba(121, 121, 121, 1)" fill="none" transform="matrix(1 0 0 1 976 940 )" class="stroke" mask="url(#Clip4344)" />
    <path d="M 16.640257308269604 10.956521576879618  C 17.06067152704034 10.630434958380413  17.413277133833486 10.33043550259669  17.69807406802332 10.056522509821807  C 17.69807406802332 10.056522509821807  18.715204672391437 11.09347842312038  18.715204672391437 11.09347842312038  C 18.159173987486852 11.536956778213728  17.542114493883822 11.980434404445987  16.864027282845093 12.423912759539334  C 16.19950161838733 12.867390910551576  15.596003065108182 13.239130384501756  15.053533138650359 13.539130394219905  C 15.053533138650359 13.539130394219905  14.199143275779326 12.599999067057812  14.199143275779326 12.599999067057812  C 14.565310429153435 12.391303397982773  14.958601372885122 12.143478063548912  15.379015591655861 11.856521576879619  C 15.812991387320421 11.569565090210327  16.233405454526892 11.269565284573282  16.640257308269604 10.956521576879618  Z " stroke-width="0" stroke-dasharray="0" stroke="rgba(121, 121, 121, 1)" fill="none" transform="matrix(1 0 0 1 976 940 )" class="stroke" mask="url(#Clip4344)" />
    <path d="M 9.316916180810113 17.78478143237724  C 9.154175363530891 17.863042359300657  9.025338617315851 17.93478267630016  8.93040643474887 18  C 8.93040643474887 18  8.788008770944586 16.708696057800953  8.788008770944586 16.708696057800953  L 9.479657892318532 16.160868672837907  C 9.479657892318532 16.160868672837907  14.077087719656515 14.92826078843981  14.077087719656515 14.92826078843981  C 14.077087719656515 15.123912949043216  14.090649772083234 15.352174558666514  14.117772905030785 15.613044086701427  C 14.158458412479133 15.860870179150815  14.192362250513245 16.063043926351988  14.219485383460796 16.219565663581047  C 13.134546258053646 16.532609138039163  12.266595818612986 16.78695572379469  11.615632549496103 16.982607884398096  C 10.978230826960187 17.191303553473137  10.47644590399951 17.354346986629125  10.110278750625401 17.471738278618  C 9.757673174145115 17.602173071789903  9.493218969050258 17.706520607494376  9.316916180810113 17.78478143237724  Z " stroke-width="0" stroke-dasharray="0" stroke="rgba(121, 121, 121, 1)" fill="none" transform="matrix(1 0 0 1 976 940 )" class="stroke" mask="url(#Clip4344)" />
    <path d="M 9.093148146257288 17.667391182659717  C 8.984653992729383 17.784782423628315  8.93040643474887 17.89565216546248  8.93040643474887 18  C 8.903282896366893 17.8826087590314  8.85581741323504 17.739131856801148  8.788008770944586 17.569566596523234  C 8.733761694180634 17.413044844716957  8.665953055679289 17.256519842190237  8.58458284407323 17.099998134115623  C 8.516774201782779 16.956519861626532  8.442184452760449 16.832609534053688  8.360813839509072 16.728261721381998  C 8.537116627749217 16.650000860056082  8.720199961933437 16.52608679342587  8.910064327067401 16.35652157687962  C 9.099928692201363 16.173912881016182  9.1948606246873 15.900000689988493  9.1948606246873 15.534783298261617  C 9.1948606246873 15.534783298261617  9.1948606246873 0.8413048751412371  9.1948606246873 0.8413048751412371  L 10.679872315876533 0.8413048751412371  C 10.679872315876533 0.8413048751412371  10.679872315876533 16.786954980356384  10.679872315876533 16.786954980356384  C 10.679872315876533 16.786954980356384  10.618844211951943 16.806521533147954  10.496788496686646 16.845651971099525  C 10.388294343158739 16.897825862858145  10.24589538347994 16.969566183501954  10.069592595239797 17.060870538722284  C 9.90685217202768 17.15217487207678  9.730549550508234 17.250000194362958  9.540685185374272 17.354348028900475  C 9.364382397134127 17.458695863437995  9.215203861522586 17.563043348122193  9.093148146257288 17.667391182659717  Z " stroke-width="0" stroke-dasharray="0" stroke="rgba(121, 121, 121, 1)" fill="none" transform="matrix(1 0 0 1 976 940 )" class="stroke" mask="url(#Clip4344)" />
    <path d="M 1.6477517051778183 6.22173921156019  L 1.6477517051778183 4.95  L 7.160599900956737 4.95  L 7.160599900956737 6.22173921156019  L 1.6477517051778183 6.22173921156019  Z " stroke-width="0" stroke-dasharray="0" stroke="rgba(121, 121, 121, 1)" fill="none" transform="matrix(1 0 0 1 976 940 )" class="stroke" mask="url(#Clip4344)" />
    <path d="M 0.5695931408711723 9.665217634680571  L 0.5695931408711723 8.354348028900477  L 7.892934207704953 8.354348028900477  L 7.892934207704953 9.665217634680571  L 0.5695931408711723 9.665217634680571  Z " stroke-width="0" stroke-dasharray="0" stroke="rgba(121, 121, 121, 1)" fill="none" transform="matrix(1 0 0 1 976 940 )" class="stroke" mask="url(#Clip4344)" />
    <path d="M 1.6070665198035472 12.834783298261618  C 1.444325596429337 12.156522490385512  1.2680228385020473 11.523913342628202  1.0781583824295211 10.936956846240761  C 1.0781583824295211 10.936956846240761  2.1563170073618756 10.66304315375924  2.1563170073618756 10.66304315375924  C 2.3597431312667836 11.24999965014668  2.5428266776409836 11.88260879790399  2.7055674949202038 12.560869605780097  C 2.8818700861267956 13.226086948916233  2.9971449788432234 13.813042628979257  3.051392055607176 14.321738278618001  C 3.051392055607176 14.321738278618001  1.9122054101105812 14.615217634680572  1.9122054101105812 14.615217634680572  C 1.871520205790776 14.106521985041827  1.7698073370827676 13.513044106137723  1.6070665198035472 12.834783298261618  Z " stroke-width="0" stroke-dasharray="0" stroke="rgba(121, 121, 121, 1)" fill="none" transform="matrix(1 0 0 1 976 940 )" class="stroke" mask="url(#Clip4344)" />
    <path d="M 0.7323341248710906 17.33478236531943  C 0.7323341248710906 17.33478236531943  0.3254817861227115 15.926088173402855  0.3254817861227115 15.926088173402855  C 0.9493219620776622 15.808696881413978  1.6748749195911659 15.67173938648685  2.5021410830431807 15.515217634680571  C 3.329407367746613 15.345652432711546  4.210921354416615 15.169564623739232  5.146681769913312 14.986955913298573  C 6.096003550113849 14.791303752695168  7.045324905934428 14.589130938436181  7.994646686134964 14.380435269361142  C 7.994646686134964 14.380435269361142  8.116703212269112 15.652172615036955  8.116703212269112 15.652172615036955  C 6.814775825275432 15.939129130860692  5.512848195778919 16.23260883677658  4.210921051288073 16.532608817340286  C 2.908993906797227 16.8456522917984  1.7494647292392047 17.113043260658863  0.7323341248710906 17.33478236531943  Z " stroke-width="0" stroke-dasharray="0" stroke="rgba(121, 121, 121, 1)" fill="none" transform="matrix(1 0 0 1 976 940 )" class="stroke" mask="url(#Clip4344)" />
    <path d="M 6.2858679304042395 11.582608817340285  C 6.394361674708614 11.139130666328043  6.482512508040884 10.741304408670144  6.550321150331336 10.389130394219904  C 6.550321150331336 10.389130394219904  7.750535573889336 10.741304875141237  7.750535573889336 10.741304875141237  C 7.560671208755373 11.341304661341985  7.350464175152139 11.973912876157106  7.119914715582466 12.639130394219904  C 6.902926817750187 13.291304214307187  6.692720193370483 13.839130578864713  6.489293857275595 14.282608817340286  C 6.489293857275595 14.282608817340286  5.5535336236560235 13.989129461277717  5.5535336236560235 13.989129461277717  C 5.675589338921322 13.663042551234074  5.797644576759167 13.291304097689414  5.919700292024464 12.873912759539333  C 6.055317576605369 12.443477927494843  6.177373776876334 12.013043474458115  6.2858679304042395 11.582608817340285  Z " stroke-width="0" stroke-dasharray="0" stroke="rgba(121, 121, 121, 1)" fill="none" transform="matrix(1 0 0 1 976 940 )" class="stroke" mask="url(#Clip4344)" />
    <path d="M 4 16.180434336418955  L 4 5.439131327162094  L 5 5.439131327162094  L 5 15.965215768796194  L 4 16.180434336418955  Z " stroke-width="0" stroke-dasharray="0" stroke="rgba(121, 121, 121, 1)" fill="none" transform="matrix(1 0 0 1 976 940 )" class="stroke" mask="url(#Clip4344)" />
    <path d="M 2.4817989753617122 2.563044086701427  C 3.2819417425232547 1.7543480483367715  3.932905345081532 0.9  4.434689570846565 0  C 4.434689570846565 0  5.716274365153108 0.43043503612559475  5.716274365153108 0.43043503612559475  C 5.322983663924257 1.1347830650260706  4.855103577427325 1.8260873959510309  4.312634014723751 2.504348028900476  C 3.770164270143051 3.1826086618499208  3.1937903256685423 3.8217391921238946  2.58351193879739 4.42173921156019  C 1.9732335519262383 5.0086958828742905  1.3561743008260414 5.5239132357285765  0.7323341248710906 5.967391182659714  C 0.6916489205512856 5.863043931211062  0.6306210098711417 5.726087857563051  0.5492505481840366 5.556522509821808  C 0.4678800864969317 5.386957162080565  0.3729478963517363 5.2173917997621  0.26445394743559636 5.047826452020856  C 0.1695217648686145 4.865217785311861  0.08137046168710499 4.721739213989727  0 4.6173911826597145  C 0.8543897416196126 4.056521907296644  1.681656147574461 3.371739367050555  2.4817989753617122 2.563044086701427  Z " stroke-width="0" stroke-dasharray="0" stroke="rgba(121, 121, 121, 1)" fill="none" transform="matrix(1 0 0 1 976 940 )" class="stroke" mask="url(#Clip4344)" />
    <path d="M 5.30942202640473 2.7978259855497623  C 4.86188465384635 2.419565362318465  4.421128084891308 2.0739133717826452  3.9871522892267475 1.7608700722511896  C 3.9871522892267475 1.7608700722511896  4.90256968765635 0.8413048751412371  4.90256968765635 0.8413048751412371  C 5.363669031175654 1.154348174672693  5.817987480153057 1.4934787243829624  6.265524852711437 1.8586960578009515  C 6.72662419623074 2.223913391218941  7.153818945789129 2.58260928381138  7.54710964701798 2.9347832982616175  C 7.940399923866874 3.2739132357285756  8.279443226257698 3.5934779469311384  8.564239766380428 3.8934779566492863  C 8.564239766380428 3.8934779566492863  7.628480017766524 4.9304352693611415  7.628480017766524 4.9304352693611415  C 7.343683477643792 4.6304352596429945  6.997858583515423 4.297826150758275  6.591006335705607 3.9326088173402853  C 6.184154087895791 3.554348194108988  5.756959398963108 3.176087395951031  5.30942202640473 2.7978259855497623  Z " stroke-width="0" stroke-dasharray="0" stroke="rgba(121, 121, 121, 1)" fill="none" transform="matrix(1 0 0 1 976 940 )" class="stroke" mask="url(#Clip4344)" />
  </g>
</svg>