<?xml version="1.0" encoding="utf-8"?>
<svg version="1.1" xmlns:xlink="http://www.w3.org/1999/xlink" width="46px" height="45px" xmlns="http://www.w3.org/2000/svg">
  <defs>
    <pattern id="BGPattern" patternUnits="userSpaceOnUse" alignment="0 0" imageRepeat="None" />
    <mask fill="white" id="Clip4296">
      <path d="M 17.78474728874626 12  L 17.78474728874626 7  L 45.37513766576985 7  L 45.37513766576985 12  L 17.78474728874626 12  Z M 28.79205929057721 9.639446107128386  L 28.79205929057721 0.2863222090451055  L 34.46394481377689 0.2863222090451055  L 34.46394481377689 9.639446107128386  L 28.79205929057721 9.639446107128386  Z M 35.42528911264934 38.7009493254837  C 34.23963942073333 37.55566842974044  33.11807807540472 36.50582850737353  32.06060698666965 35.551427780673144  C 32.06060698666965 35.551427780673144  36.386633411521785 32.4019062358626  36.386633411521785 32.4019062358626  C 37.444104500256856 33.2926801210347  38.58167742719846 34.278892135247446  39.79937129240816 35.36054630797641  C 41.017065157617864 36.410387059941236  42.1706783162648 37.47613784067978  43.260195488299715 38.55779201340875  C 44.381754923622175 39.63944618613771  45.29501863750791 40.59384406850239  46 41.42099134917419  C 46 41.42099134917419  41.33750689055482 45  41.33750689055482 45  C 40.696615784656274 44.14103929856406  39.84744232736409 43.1548198179701  38.78997123862903 42.04135234299098  C 37.7324982398878 40.959698170262016  36.61093880456534 39.84623022122695  35.42528911264934 38.7009493254837  Z M 21.822362783912034 22.189815710644  C 20.54057961711186 21.17178814241534  19.322882886892923 20.265107783889142  18.169277368270613 19.46977368695351  C 18.169277368270613 19.46977368695351  21.485896099318992 15.556733836251215  21.485896099318992 15.556733836251215  C 22.60745648964453 16.28844109165857  23.809126358201226 17.13149271243269  25.090910480004478 18.08589438724497  C 26.40473877510143 19.00848121912526  27.638455681961055 19.94697642058345  28.79205929057721 20.90137714728383  C 29.977708982493215 21.855777873984213  30.93904373133488 22.714740708671933  31.676069267120674 23.478261858899376  C 31.676069267120674 23.478261858899376  28.16718931632243 27.96394612769188  28.16718931632243 27.96394612769188  C 27.49425212712403 27.168612030756247  26.58098268321983 26.261931672230048  25.42737716459752 25.243904104001384  C 24.305817729275063 24.225876535772723  23.10414690571529 23.207843278872662  21.822362783912034 22.189815710644  Z M 26.43678485840128 12.693526915590565  C 27.10972013759352 11.516432717597159  27.67049412523628 10.434784944623523  28.119118281366497 9.448572219326852  C 28.119118281366497 9.448572219326852  33.7910114445908 11.930008609698822  33.7910114445908 11.930008609698822  C 32.95785147891777 13.011662071343862  32.09265306996951 14.125130375920891  31.195404757709074 15.27041162720611  C 30.330200618742342 16.415692878491328  29.464992659763293 17.513257554049964  28.599790430802717 18.563098068986815  C 27.766630465129683 19.58112563721547  26.981541534412578 20.48780599574167  26.244515998626788 21.283140092677307  C 26.244515998626788 21.283140092677307  22.11076607357377 19.13573490218182  22.11076607357377 19.13573490218182  C 22.815746481062785 18.276774911829808  23.536746110189416 17.290563134645037  24.27377164597521 16.177094830068008  C 25.0428413550547 15.031813578782788  25.763847669202878 13.870621113583972  26.43678485840128 12.693526915590565  Z M 34.22362019909572 30.92258619980569  C 36.69105401281498 28.79109080105595  38.70985221036708 26.37327793382061  40.28003580181976 23.66914333159611  C 40.28003580181976 23.66914333159611  45.519335490588404 25.864257512922975  45.519335490588404 25.864257512922975  C 43.6287044361803 28.9501536383731  41.369556793866984 31.702009082827733  38.74190020367309 34.11982432034282  C 36.14628969677904 36.50582613709378  33.21421250529197 38.58960282686516  29.94566480919952 40.37115083423734  C 26.70916128640077 42.12088553935937  23.200279425596374 43.61612176691735  19.41901731678017 44.85684268792505  C 19.0665275905372 44.125135432517695  18.56983717446644 43.31388929207055  17.928945113564815 42.42311528838446  C 17.288053052663187 41.564154646205516  16.647156216746172 40.80063331820708  16.006264155844544 40.13255278581402  C 19.531169058298868 39.1463386383495  22.831761882688085 37.905614635978125  25.908041674009116 36.41038682291326  C 29.016366593626923 34.883345707598245  31.788230558670158 33.05408112449948  34.22362019909572 30.92258619980569  Z M 31.676069267120674 21.09225861998057  C 33.69487892470971 18.99257664199497  35.34517390439971 16.733826138020824  36.626958026202956 14.316011848617627  C 36.626958026202956 14.316011848617627  41.673988855197116 16.32025214214296  41.673988855197116 16.32025214214296  C 40.103803353738286 19.02438769247936  38.24521074260541 21.53764271823092  36.09822248183543 23.860017219397644  C 33.951236131071596 26.150578773856182  31.59595978888951 28.234355226599586  29.032391545283005 30.11134373329216  C 26.468825211682663 31.95651834516465  23.729012104954673 33.563092301306085  20.812955090108275 34.931066786856356  C 20.46046440886223 34.29479955671344  19.931728864494694 33.579002804135754  19.226748457005677 32.78366918125607  C 18.55381126780728 31.98833508432044  17.896895210252648 31.320248507714005  17.256004104354098 30.779421302835537  C 19.94774904113539 29.63414052560627  22.51131632973881 28.250265018345335  24.9467050151613 26.62778340370992  C 27.414138828880557 25.005302263130464  29.657261519537787 23.160126703146076  31.676069267120674 21.09225861998057  Z M 1.1536055186223109 16  L 1.1536055186223109 10  L 17.496343999084527 10  L 17.496343999084527 16  L 1.1536055186223109 16  Z M 8 44.80911852730326  L 8 0  L 13 0  L 13 44.80911852730326  L 8 44.80911852730326  Z M 6.008359847817353 18.32449243566829  C 6.489028654742802 16.67019834838064  6.889583208421699 15.079535843180773  7.210028761370973 13.552493542725884  C 7.210028761370973 13.552493542725884  10.478576457463415 14.650050633389316  10.478576457463415 14.650050633389316  C 10.126086253718906 16.55885303490198  9.677460187582534 18.53128417416672  9.132702079066615 20.567338362512146  C 8.61998862134593 22.603393498969464  8.027162820384847 24.607630948159095  7.354226586189526 26.580059243088137  C 6.681290351994204 28.520674117253037  5.944264816208412 30.349946048219035  5.143149978832149 32.06786745109091  C 4.374079792251122 33.75397543319865  3.540926034098094 35.201479441183686  2.643677721837665 36.41038682291326  C 2.3873209929773225 35.646866146741765  1.9867591573999535 34.77199944600768  1.4420011682594183 33.78578553557114  C 0.929287710538733 32.799571388106614  0.44862415613021456 31.956518819220598  0 31.25662498457738  C 0.8011147180008779 30.20678399558458  1.5541591172981286 28.981970851584837  2.2591400022886856 27.582183182298404  C 2.9961655380744783 26.182395513011972  3.685126962676653 24.70306978828366  4.326018784827509 23.14421548923248  C 4.966910606978366 21.553547295361213  5.527691040891903 19.94697357624775  6.008359847817353 18.32449243566829  Z M 9.853706483208637 19.756095895998612  C 9.853706483208637 19.756095895998612  12.401249775159057 17.322376081353227  12.401249775159057 17.322376081353227  C 12.689651154814635 17.67232323570281  13.122257999313394 18.276774911829808  13.699060758624551 19.13573490218182  C 14.275862562932627 19.962882893937543  14.900725852165856 20.86956325246374  15.573663041364256 21.855776925872313  C 16.24659927555958 22.841990599280884  16.8554519381829 23.76458217172068  17.400209569197283 24.623543110184595  C 17.977012328508437 25.482504048648504  18.377566404685794 26.086954776663603  18.601878482750898 26.436901931013185  C 18.601878482750898 26.436901931013185  15.47753625150164 30.68398056648717  15.47753625150164 30.68398056648717  C 15.18913487184606 29.952273785135763  14.804592377281688 29.09331758723135  14.3239230928547 28.107103439766828  C 13.843254763430789 27.12088881824636  13.314519219063257 26.102863146241496  12.737716459752102 25.05302263130465  C 12.19295882873772 23.971368221547706  11.664223284370188 22.969245230449342  11.151509826649502 22.04665839856905  C 10.638796368928817 21.12407061857686  10.206197164454686 20.36054946834941  9.853706483208637 19.756095895998612  Z " fill-rule="evenodd" />
    </mask>
  </defs>
  <g transform="matrix(1 0 0 1 -237 -255 )">
    <path d="M 17.78474728874626 12  L 17.78474728874626 7  L 45.37513766576985 7  L 45.37513766576985 12  L 17.78474728874626 12  Z M 28.79205929057721 9.639446107128386  L 28.79205929057721 0.2863222090451055  L 34.46394481377689 0.2863222090451055  L 34.46394481377689 9.639446107128386  L 28.79205929057721 9.639446107128386  Z M 35.42528911264934 38.7009493254837  C 34.23963942073333 37.55566842974044  33.11807807540472 36.50582850737353  32.06060698666965 35.551427780673144  C 32.06060698666965 35.551427780673144  36.386633411521785 32.4019062358626  36.386633411521785 32.4019062358626  C 37.444104500256856 33.2926801210347  38.58167742719846 34.278892135247446  39.79937129240816 35.36054630797641  C 41.017065157617864 36.410387059941236  42.1706783162648 37.47613784067978  43.260195488299715 38.55779201340875  C 44.381754923622175 39.63944618613771  45.29501863750791 40.59384406850239  46 41.42099134917419  C 46 41.42099134917419  41.33750689055482 45  41.33750689055482 45  C 40.696615784656274 44.14103929856406  39.84744232736409 43.1548198179701  38.78997123862903 42.04135234299098  C 37.7324982398878 40.959698170262016  36.61093880456534 39.84623022122695  35.42528911264934 38.7009493254837  Z M 21.822362783912034 22.189815710644  C 20.54057961711186 21.17178814241534  19.322882886892923 20.265107783889142  18.169277368270613 19.46977368695351  C 18.169277368270613 19.46977368695351  21.485896099318992 15.556733836251215  21.485896099318992 15.556733836251215  C 22.60745648964453 16.28844109165857  23.809126358201226 17.13149271243269  25.090910480004478 18.08589438724497  C 26.40473877510143 19.00848121912526  27.638455681961055 19.94697642058345  28.79205929057721 20.90137714728383  C 29.977708982493215 21.855777873984213  30.93904373133488 22.714740708671933  31.676069267120674 23.478261858899376  C 31.676069267120674 23.478261858899376  28.16718931632243 27.96394612769188  28.16718931632243 27.96394612769188  C 27.49425212712403 27.168612030756247  26.58098268321983 26.261931672230048  25.42737716459752 25.243904104001384  C 24.305817729275063 24.225876535772723  23.10414690571529 23.207843278872662  21.822362783912034 22.189815710644  Z M 26.43678485840128 12.693526915590565  C 27.10972013759352 11.516432717597159  27.67049412523628 10.434784944623523  28.119118281366497 9.448572219326852  C 28.119118281366497 9.448572219326852  33.7910114445908 11.930008609698822  33.7910114445908 11.930008609698822  C 32.95785147891777 13.011662071343862  32.09265306996951 14.125130375920891  31.195404757709074 15.27041162720611  C 30.330200618742342 16.415692878491328  29.464992659763293 17.513257554049964  28.599790430802717 18.563098068986815  C 27.766630465129683 19.58112563721547  26.981541534412578 20.48780599574167  26.244515998626788 21.283140092677307  C 26.244515998626788 21.283140092677307  22.11076607357377 19.13573490218182  22.11076607357377 19.13573490218182  C 22.815746481062785 18.276774911829808  23.536746110189416 17.290563134645037  24.27377164597521 16.177094830068008  C 25.0428413550547 15.031813578782788  25.763847669202878 13.870621113583972  26.43678485840128 12.693526915590565  Z M 34.22362019909572 30.92258619980569  C 36.69105401281498 28.79109080105595  38.70985221036708 26.37327793382061  40.28003580181976 23.66914333159611  C 40.28003580181976 23.66914333159611  45.519335490588404 25.864257512922975  45.519335490588404 25.864257512922975  C 43.6287044361803 28.9501536383731  41.369556793866984 31.702009082827733  38.74190020367309 34.11982432034282  C 36.14628969677904 36.50582613709378  33.21421250529197 38.58960282686516  29.94566480919952 40.37115083423734  C 26.70916128640077 42.12088553935937  23.200279425596374 43.61612176691735  19.41901731678017 44.85684268792505  C 19.0665275905372 44.125135432517695  18.56983717446644 43.31388929207055  17.928945113564815 42.42311528838446  C 17.288053052663187 41.564154646205516  16.647156216746172 40.80063331820708  16.006264155844544 40.13255278581402  C 19.531169058298868 39.1463386383495  22.831761882688085 37.905614635978125  25.908041674009116 36.41038682291326  C 29.016366593626923 34.883345707598245  31.788230558670158 33.05408112449948  34.22362019909572 30.92258619980569  Z M 31.676069267120674 21.09225861998057  C 33.69487892470971 18.99257664199497  35.34517390439971 16.733826138020824  36.626958026202956 14.316011848617627  C 36.626958026202956 14.316011848617627  41.673988855197116 16.32025214214296  41.673988855197116 16.32025214214296  C 40.103803353738286 19.02438769247936  38.24521074260541 21.53764271823092  36.09822248183543 23.860017219397644  C 33.951236131071596 26.150578773856182  31.59595978888951 28.234355226599586  29.032391545283005 30.11134373329216  C 26.468825211682663 31.95651834516465  23.729012104954673 33.563092301306085  20.812955090108275 34.931066786856356  C 20.46046440886223 34.29479955671344  19.931728864494694 33.579002804135754  19.226748457005677 32.78366918125607  C 18.55381126780728 31.98833508432044  17.896895210252648 31.320248507714005  17.256004104354098 30.779421302835537  C 19.94774904113539 29.63414052560627  22.51131632973881 28.250265018345335  24.9467050151613 26.62778340370992  C 27.414138828880557 25.005302263130464  29.657261519537787 23.160126703146076  31.676069267120674 21.09225861998057  Z M 1.1536055186223109 16  L 1.1536055186223109 10  L 17.496343999084527 10  L 17.496343999084527 16  L 1.1536055186223109 16  Z M 8 44.80911852730326  L 8 0  L 13 0  L 13 44.80911852730326  L 8 44.80911852730326  Z M 6.008359847817353 18.32449243566829  C 6.489028654742802 16.67019834838064  6.889583208421699 15.079535843180773  7.210028761370973 13.552493542725884  C 7.210028761370973 13.552493542725884  10.478576457463415 14.650050633389316  10.478576457463415 14.650050633389316  C 10.126086253718906 16.55885303490198  9.677460187582534 18.53128417416672  9.132702079066615 20.567338362512146  C 8.61998862134593 22.603393498969464  8.027162820384847 24.607630948159095  7.354226586189526 26.580059243088137  C 6.681290351994204 28.520674117253037  5.944264816208412 30.349946048219035  5.143149978832149 32.06786745109091  C 4.374079792251122 33.75397543319865  3.540926034098094 35.201479441183686  2.643677721837665 36.41038682291326  C 2.3873209929773225 35.646866146741765  1.9867591573999535 34.77199944600768  1.4420011682594183 33.78578553557114  C 0.929287710538733 32.799571388106614  0.44862415613021456 31.956518819220598  0 31.25662498457738  C 0.8011147180008779 30.20678399558458  1.5541591172981286 28.981970851584837  2.2591400022886856 27.582183182298404  C 2.9961655380744783 26.182395513011972  3.685126962676653 24.70306978828366  4.326018784827509 23.14421548923248  C 4.966910606978366 21.553547295361213  5.527691040891903 19.94697357624775  6.008359847817353 18.32449243566829  Z M 9.853706483208637 19.756095895998612  C 9.853706483208637 19.756095895998612  12.401249775159057 17.322376081353227  12.401249775159057 17.322376081353227  C 12.689651154814635 17.67232323570281  13.122257999313394 18.276774911829808  13.699060758624551 19.13573490218182  C 14.275862562932627 19.962882893937543  14.900725852165856 20.86956325246374  15.573663041364256 21.855776925872313  C 16.24659927555958 22.841990599280884  16.8554519381829 23.76458217172068  17.400209569197283 24.623543110184595  C 17.977012328508437 25.482504048648504  18.377566404685794 26.086954776663603  18.601878482750898 26.436901931013185  C 18.601878482750898 26.436901931013185  15.47753625150164 30.68398056648717  15.47753625150164 30.68398056648717  C 15.18913487184606 29.952273785135763  14.804592377281688 29.09331758723135  14.3239230928547 28.107103439766828  C 13.843254763430789 27.12088881824636  13.314519219063257 26.102863146241496  12.737716459752102 25.05302263130465  C 12.19295882873772 23.971368221547706  11.664223284370188 22.969245230449342  11.151509826649502 22.04665839856905  C 10.638796368928817 21.12407061857686  10.206197164454686 20.36054946834941  9.853706483208637 19.756095895998612  Z " fill-rule="nonzero" fill="rgba(255, 255, 255, 1)" stroke="none" transform="matrix(1 0 0 1 237 255 )" class="fill" />
    <path d="M 17.78474728874626 12  L 17.78474728874626 7  L 45.37513766576985 7  L 45.37513766576985 12  L 17.78474728874626 12  Z " stroke-width="0" stroke-dasharray="0" stroke="rgba(121, 121, 121, 1)" fill="none" transform="matrix(1 0 0 1 237 255 )" class="stroke" mask="url(#Clip4296)" />
    <path d="M 28.79205929057721 9.639446107128386  L 28.79205929057721 0.2863222090451055  L 34.46394481377689 0.2863222090451055  L 34.46394481377689 9.639446107128386  L 28.79205929057721 9.639446107128386  Z " stroke-width="0" stroke-dasharray="0" stroke="rgba(121, 121, 121, 1)" fill="none" transform="matrix(1 0 0 1 237 255 )" class="stroke" mask="url(#Clip4296)" />
    <path d="M 35.42528911264934 38.7009493254837  C 34.23963942073333 37.55566842974044  33.11807807540472 36.50582850737353  32.06060698666965 35.551427780673144  C 32.06060698666965 35.551427780673144  36.386633411521785 32.4019062358626  36.386633411521785 32.4019062358626  C 37.444104500256856 33.2926801210347  38.58167742719846 34.278892135247446  39.79937129240816 35.36054630797641  C 41.017065157617864 36.410387059941236  42.1706783162648 37.47613784067978  43.260195488299715 38.55779201340875  C 44.381754923622175 39.63944618613771  45.29501863750791 40.59384406850239  46 41.42099134917419  C 46 41.42099134917419  41.33750689055482 45  41.33750689055482 45  C 40.696615784656274 44.14103929856406  39.84744232736409 43.1548198179701  38.78997123862903 42.04135234299098  C 37.7324982398878 40.959698170262016  36.61093880456534 39.84623022122695  35.42528911264934 38.7009493254837  Z " stroke-width="0" stroke-dasharray="0" stroke="rgba(121, 121, 121, 1)" fill="none" transform="matrix(1 0 0 1 237 255 )" class="stroke" mask="url(#Clip4296)" />
    <path d="M 21.822362783912034 22.189815710644  C 20.54057961711186 21.17178814241534  19.322882886892923 20.265107783889142  18.169277368270613 19.46977368695351  C 18.169277368270613 19.46977368695351  21.485896099318992 15.556733836251215  21.485896099318992 15.556733836251215  C 22.60745648964453 16.28844109165857  23.809126358201226 17.13149271243269  25.090910480004478 18.08589438724497  C 26.40473877510143 19.00848121912526  27.638455681961055 19.94697642058345  28.79205929057721 20.90137714728383  C 29.977708982493215 21.855777873984213  30.93904373133488 22.714740708671933  31.676069267120674 23.478261858899376  C 31.676069267120674 23.478261858899376  28.16718931632243 27.96394612769188  28.16718931632243 27.96394612769188  C 27.49425212712403 27.168612030756247  26.58098268321983 26.261931672230048  25.42737716459752 25.243904104001384  C 24.305817729275063 24.225876535772723  23.10414690571529 23.207843278872662  21.822362783912034 22.189815710644  Z " stroke-width="0" stroke-dasharray="0" stroke="rgba(121, 121, 121, 1)" fill="none" transform="matrix(1 0 0 1 237 255 )" class="stroke" mask="url(#Clip4296)" />
    <path d="M 26.43678485840128 12.693526915590565  C 27.10972013759352 11.516432717597159  27.67049412523628 10.434784944623523  28.119118281366497 9.448572219326852  C 28.119118281366497 9.448572219326852  33.7910114445908 11.930008609698822  33.7910114445908 11.930008609698822  C 32.95785147891777 13.011662071343862  32.09265306996951 14.125130375920891  31.195404757709074 15.27041162720611  C 30.330200618742342 16.415692878491328  29.464992659763293 17.513257554049964  28.599790430802717 18.563098068986815  C 27.766630465129683 19.58112563721547  26.981541534412578 20.48780599574167  26.244515998626788 21.283140092677307  C 26.244515998626788 21.283140092677307  22.11076607357377 19.13573490218182  22.11076607357377 19.13573490218182  C 22.815746481062785 18.276774911829808  23.536746110189416 17.290563134645037  24.27377164597521 16.177094830068008  C 25.0428413550547 15.031813578782788  25.763847669202878 13.870621113583972  26.43678485840128 12.693526915590565  Z " stroke-width="0" stroke-dasharray="0" stroke="rgba(121, 121, 121, 1)" fill="none" transform="matrix(1 0 0 1 237 255 )" class="stroke" mask="url(#Clip4296)" />
    <path d="M 34.22362019909572 30.92258619980569  C 36.69105401281498 28.79109080105595  38.70985221036708 26.37327793382061  40.28003580181976 23.66914333159611  C 40.28003580181976 23.66914333159611  45.519335490588404 25.864257512922975  45.519335490588404 25.864257512922975  C 43.6287044361803 28.9501536383731  41.369556793866984 31.702009082827733  38.74190020367309 34.11982432034282  C 36.14628969677904 36.50582613709378  33.21421250529197 38.58960282686516  29.94566480919952 40.37115083423734  C 26.70916128640077 42.12088553935937  23.200279425596374 43.61612176691735  19.41901731678017 44.85684268792505  C 19.0665275905372 44.125135432517695  18.56983717446644 43.31388929207055  17.928945113564815 42.42311528838446  C 17.288053052663187 41.564154646205516  16.647156216746172 40.80063331820708  16.006264155844544 40.13255278581402  C 19.531169058298868 39.1463386383495  22.831761882688085 37.905614635978125  25.908041674009116 36.41038682291326  C 29.016366593626923 34.883345707598245  31.788230558670158 33.05408112449948  34.22362019909572 30.92258619980569  Z " stroke-width="0" stroke-dasharray="0" stroke="rgba(121, 121, 121, 1)" fill="none" transform="matrix(1 0 0 1 237 255 )" class="stroke" mask="url(#Clip4296)" />
    <path d="M 31.676069267120674 21.09225861998057  C 33.69487892470971 18.99257664199497  35.34517390439971 16.733826138020824  36.626958026202956 14.316011848617627  C 36.626958026202956 14.316011848617627  41.673988855197116 16.32025214214296  41.673988855197116 16.32025214214296  C 40.103803353738286 19.02438769247936  38.24521074260541 21.53764271823092  36.09822248183543 23.860017219397644  C 33.951236131071596 26.150578773856182  31.59595978888951 28.234355226599586  29.032391545283005 30.11134373329216  C 26.468825211682663 31.95651834516465  23.729012104954673 33.563092301306085  20.812955090108275 34.931066786856356  C 20.46046440886223 34.29479955671344  19.931728864494694 33.579002804135754  19.226748457005677 32.78366918125607  C 18.55381126780728 31.98833508432044  17.896895210252648 31.320248507714005  17.256004104354098 30.779421302835537  C 19.94774904113539 29.63414052560627  22.51131632973881 28.250265018345335  24.9467050151613 26.62778340370992  C 27.414138828880557 25.005302263130464  29.657261519537787 23.160126703146076  31.676069267120674 21.09225861998057  Z " stroke-width="0" stroke-dasharray="0" stroke="rgba(121, 121, 121, 1)" fill="none" transform="matrix(1 0 0 1 237 255 )" class="stroke" mask="url(#Clip4296)" />
    <path d="M 1.1536055186223109 16  L 1.1536055186223109 10  L 17.496343999084527 10  L 17.496343999084527 16  L 1.1536055186223109 16  Z " stroke-width="0" stroke-dasharray="0" stroke="rgba(121, 121, 121, 1)" fill="none" transform="matrix(1 0 0 1 237 255 )" class="stroke" mask="url(#Clip4296)" />
    <path d="M 8 44.80911852730326  L 8 0  L 13 0  L 13 44.80911852730326  L 8 44.80911852730326  Z " stroke-width="0" stroke-dasharray="0" stroke="rgba(121, 121, 121, 1)" fill="none" transform="matrix(1 0 0 1 237 255 )" class="stroke" mask="url(#Clip4296)" />
    <path d="M 6.008359847817353 18.32449243566829  C 6.489028654742802 16.67019834838064  6.889583208421699 15.079535843180773  7.210028761370973 13.552493542725884  C 7.210028761370973 13.552493542725884  10.478576457463415 14.650050633389316  10.478576457463415 14.650050633389316  C 10.126086253718906 16.55885303490198  9.677460187582534 18.53128417416672  9.132702079066615 20.567338362512146  C 8.61998862134593 22.603393498969464  8.027162820384847 24.607630948159095  7.354226586189526 26.580059243088137  C 6.681290351994204 28.520674117253037  5.944264816208412 30.349946048219035  5.143149978832149 32.06786745109091  C 4.374079792251122 33.75397543319865  3.540926034098094 35.201479441183686  2.643677721837665 36.41038682291326  C 2.3873209929773225 35.646866146741765  1.9867591573999535 34.77199944600768  1.4420011682594183 33.78578553557114  C 0.929287710538733 32.799571388106614  0.44862415613021456 31.956518819220598  0 31.25662498457738  C 0.8011147180008779 30.20678399558458  1.5541591172981286 28.981970851584837  2.2591400022886856 27.582183182298404  C 2.9961655380744783 26.182395513011972  3.685126962676653 24.70306978828366  4.326018784827509 23.14421548923248  C 4.966910606978366 21.553547295361213  5.527691040891903 19.94697357624775  6.008359847817353 18.32449243566829  Z " stroke-width="0" stroke-dasharray="0" stroke="rgba(121, 121, 121, 1)" fill="none" transform="matrix(1 0 0 1 237 255 )" class="stroke" mask="url(#Clip4296)" />
    <path d="M 9.853706483208637 19.756095895998612  C 9.853706483208637 19.756095895998612  12.401249775159057 17.322376081353227  12.401249775159057 17.322376081353227  C 12.689651154814635 17.67232323570281  13.122257999313394 18.276774911829808  13.699060758624551 19.13573490218182  C 14.275862562932627 19.962882893937543  14.900725852165856 20.86956325246374  15.573663041364256 21.855776925872313  C 16.24659927555958 22.841990599280884  16.8554519381829 23.76458217172068  17.400209569197283 24.623543110184595  C 17.977012328508437 25.482504048648504  18.377566404685794 26.086954776663603  18.601878482750898 26.436901931013185  C 18.601878482750898 26.436901931013185  15.47753625150164 30.68398056648717  15.47753625150164 30.68398056648717  C 15.18913487184606 29.952273785135763  14.804592377281688 29.09331758723135  14.3239230928547 28.107103439766828  C 13.843254763430789 27.12088881824636  13.314519219063257 26.102863146241496  12.737716459752102 25.05302263130465  C 12.19295882873772 23.971368221547706  11.664223284370188 22.969245230449342  11.151509826649502 22.04665839856905  C 10.638796368928817 21.12407061857686  10.206197164454686 20.36054946834941  9.853706483208637 19.756095895998612  Z " stroke-width="0" stroke-dasharray="0" stroke="rgba(121, 121, 121, 1)" fill="none" transform="matrix(1 0 0 1 237 255 )" class="stroke" mask="url(#Clip4296)" />
  </g>
</svg>