<?xml version="1.0" encoding="utf-8"?>
<svg version="1.1" xmlns:xlink="http://www.w3.org/1999/xlink" width="14px" height="20px" xmlns="http://www.w3.org/2000/svg">
  <defs>
    <pattern id="BGPattern" patternUnits="userSpaceOnUse" alignment="0 0" imageRepeat="None" />
    <mask fill="white" id="Clip4320">
      <path d="M 14 9.530387876143156  C 14 9.530387876143156  14 12.651934205885063  14 12.651934205885063  C 14 14.917127908737061  13.523999105453735 16.43646479275697  12.29200028228752 17.73480723802631  C 10.892000329971225 19.22651993481219  9.016001867293802 20  6.972002037047785 20  C 5.0120027713768085 20  3.220002608298545 19.28176948537814  1.8760027542106752 17.955802617655184  C 0 16.104973957899645  0 14.17127108990497  0 10.00000094087831  C 0 5.828729850973343  0 3.895028747125499  1.8760027542106752 2.0441992641014375  C 3.220002608298545 0.7182331020372179  4.984002305030194 0  6.972002037047785 0  C 10.780001087188424 0  13.355997499466623 2.4309400023540775  13.943996444703117 5.883980107198029  C 13.943996444703117 5.883980107198029  11.815998672485714 5.883980107198029  11.815998672485714 5.883980107198029  C 11.255998524666236 3.3977914951563113  9.464001937865682 1.878454140697249  6.972002037047785 1.878454140697249  C 5.656002649306529 1.878454140697249  4.39600258493353 2.40331534468089  3.528002731322498 3.2872933349027185  C 2.268003084181899 4.558011592938031  2.12800158691363 5.883979166319718  2.12800158691363 10.00000094087831  C 2.12800158691363 14.116022715436907  2.268003084181899 15.469614476052625  3.528002731322498 16.740332734087936  C 4.39600258493353 17.62431048909019  5.656002649306529 18.121547741059373  6.972002037047785 18.121547741059373  C 8.42800125312771 18.121547741059373  9.82800025176995 17.54143710411957  10.751999786377011 16.43646479275697  C 11.563999958992015 15.469613888003678  11.87199841308637 14.392266234314263  11.87199841308637 12.872929585513937  C 11.87199841308637 12.872929585513937  11.87199841308637 11.38121594784975  11.87199841308637 11.38121594784975  L 6.972002037047785 11.38121594784975  L 6.972002037047785 9.530387876143156  L 14 9.530387876143156  Z " fill-rule="evenodd" />
    </mask>
  </defs>
  <g transform="matrix(1 0 0 1 -204 -542 )">
    <path d="M 14 9.530387876143156  C 14 9.530387876143156  14 12.651934205885063  14 12.651934205885063  C 14 14.917127908737061  13.523999105453735 16.43646479275697  12.29200028228752 17.73480723802631  C 10.892000329971225 19.22651993481219  9.016001867293802 20  6.972002037047785 20  C 5.0120027713768085 20  3.220002608298545 19.28176948537814  1.8760027542106752 17.955802617655184  C 0 16.104973957899645  0 14.17127108990497  0 10.00000094087831  C 0 5.828729850973343  0 3.895028747125499  1.8760027542106752 2.0441992641014375  C 3.220002608298545 0.7182331020372179  4.984002305030194 0  6.972002037047785 0  C 10.780001087188424 0  13.355997499466623 2.4309400023540775  13.943996444703117 5.883980107198029  C 13.943996444703117 5.883980107198029  11.815998672485714 5.883980107198029  11.815998672485714 5.883980107198029  C 11.255998524666236 3.3977914951563113  9.464001937865682 1.878454140697249  6.972002037047785 1.878454140697249  C 5.656002649306529 1.878454140697249  4.39600258493353 2.40331534468089  3.528002731322498 3.2872933349027185  C 2.268003084181899 4.558011592938031  2.12800158691363 5.883979166319718  2.12800158691363 10.00000094087831  C 2.12800158691363 14.116022715436907  2.268003084181899 15.469614476052625  3.528002731322498 16.740332734087936  C 4.39600258493353 17.62431048909019  5.656002649306529 18.121547741059373  6.972002037047785 18.121547741059373  C 8.42800125312771 18.121547741059373  9.82800025176995 17.54143710411957  10.751999786377011 16.43646479275697  C 11.563999958992015 15.469613888003678  11.87199841308637 14.392266234314263  11.87199841308637 12.872929585513937  C 11.87199841308637 12.872929585513937  11.87199841308637 11.38121594784975  11.87199841308637 11.38121594784975  L 6.972002037047785 11.38121594784975  L 6.972002037047785 9.530387876143156  L 14 9.530387876143156  Z " fill-rule="nonzero" fill="rgba(255, 255, 255, 1)" stroke="none" transform="matrix(1 0 0 1 204 542 )" class="fill" />
    <path d="M 14 9.530387876143156  C 14 9.530387876143156  14 12.651934205885063  14 12.651934205885063  C 14 14.917127908737061  13.523999105453735 16.43646479275697  12.29200028228752 17.73480723802631  C 10.892000329971225 19.22651993481219  9.016001867293802 20  6.972002037047785 20  C 5.0120027713768085 20  3.220002608298545 19.28176948537814  1.8760027542106752 17.955802617655184  C 0 16.104973957899645  0 14.17127108990497  0 10.00000094087831  C 0 5.828729850973343  0 3.895028747125499  1.8760027542106752 2.0441992641014375  C 3.220002608298545 0.7182331020372179  4.984002305030194 0  6.972002037047785 0  C 10.780001087188424 0  13.355997499466623 2.4309400023540775  13.943996444703117 5.883980107198029  C 13.943996444703117 5.883980107198029  11.815998672485714 5.883980107198029  11.815998672485714 5.883980107198029  C 11.255998524666236 3.3977914951563113  9.464001937865682 1.878454140697249  6.972002037047785 1.878454140697249  C 5.656002649306529 1.878454140697249  4.39600258493353 2.40331534468089  3.528002731322498 3.2872933349027185  C 2.268003084181899 4.558011592938031  2.12800158691363 5.883979166319718  2.12800158691363 10.00000094087831  C 2.12800158691363 14.116022715436907  2.268003084181899 15.469614476052625  3.528002731322498 16.740332734087936  C 4.39600258493353 17.62431048909019  5.656002649306529 18.121547741059373  6.972002037047785 18.121547741059373  C 8.42800125312771 18.121547741059373  9.82800025176995 17.54143710411957  10.751999786377011 16.43646479275697  C 11.563999958992015 15.469613888003678  11.87199841308637 14.392266234314263  11.87199841308637 12.872929585513937  C 11.87199841308637 12.872929585513937  11.87199841308637 11.38121594784975  11.87199841308637 11.38121594784975  L 6.972002037047785 11.38121594784975  L 6.972002037047785 9.530387876143156  L 14 9.530387876143156  Z " stroke-width="0" stroke-dasharray="0" stroke="rgba(121, 121, 121, 1)" fill="none" transform="matrix(1 0 0 1 204 542 )" class="stroke" mask="url(#Clip4320)" />
  </g>
</svg>