<?xml version="1.0" encoding="utf-8"?>
<svg version="1.1" xmlns:xlink="http://www.w3.org/1999/xlink" width="19px" height="18px" xmlns="http://www.w3.org/2000/svg">
  <defs>
    <pattern id="BGPattern" patternUnits="userSpaceOnUse" alignment="0 0" imageRepeat="None" />
    <mask fill="white" id="Clip4343">
      <path d="M 6.98168287553368 4.436481569650422  L 6.98168287553368 3  L 18.26293366876362 3  L 18.26293366876362 4.436481569650422  L 6.98168287553368 4.436481569650422  Z M 7.3911652554238945 8.73615593287873  L 7.3911652554238945 7.387622230280534  L 16.420261982974655 7.387622230280534  L 16.420261982974655 8.73615593287873  L 7.3911652554238945 8.73615593287873  Z M 11.813576910804215 8.14983640500649  L 11.813576910804215 0  L 13.328666597813022 0  L 13.328666597813022 8.14983640500649  L 11.813576910804215 8.14983640500649  Z M 8.005389801542218 8.755700352041432  C 8.005389801542218 8.755700352041432  9.377157238598942 8.364819424221006  9.377157238598942 8.364819424221006  C 10.155174675655664 10.423451490910688  11.356321098451975 12.182410074527414  12.980602181632829 13.641693311212785  C 14.604884119061309 15.100976547898158  16.611350343266242 16.13029223176955  19 16.72964071230041  C 18.89080437072587 16.83387522400601  18.76796291357789 16.957654766452848  18.631468786947817 17.100977220958136  C 18.508623912809323 17.257329021279673  18.392603089062188 17.413680297391032  18.28340827589963 17.57003209771257  C 18.174212646625502 17.726383854349926  18.078663996934086 17.869706876749568  17.996767681127473 18  C 15.539870961078678 17.296417044167026  13.478807330292469 16.156352000945184  11.813576910804215 14.579804928580051  C 10.161996514155845 13.003257856214923  8.892602417867623 11.0618891592404  8.005389801542218 8.755700352041432  Z M 16.29741434015858 7.641693155891253  C 16.29741434015858 7.641693155891253  16.29741434015858 7.387622230280534  16.29741434015858 7.387622230280534  L 16.584054934930737 7.387622230280534  L 16.870691624570885 7.3289889727924304  C 16.870691624570885 7.3289889727924304  17.8534493363074 7.739412455917161  17.8534493363074 7.739412455917161  C 17.41666764294967 9.133549414924493  16.8229199616218 10.384363817496785  16.07220147192647 11.49185566363403  C 15.321482982231135 12.59934727678898  14.447918619232672 13.576545926868823  13.451510335497085 14.423451439136842  C 12.468752135619068 15.25732759102722  11.397270922900876 15.967425489154104  10.237069260085388 16.553744667552895  C 9.090517620109786 17.14006384595169  7.889369183729781 17.609119625512534  6.633622364485496 17.9609111616746  C 6.579024549848431 17.830618038424166  6.503951563661745 17.68078185022065  6.408405591121374 17.511400704082863  C 6.326508871072581 17.35504894744551  6.230964118885964 17.192182525180726  6.121768901481227 17.02280140816573  C 6.012573272207098 16.86644963696698  5.903376262407786 16.742670116362234  5.79418104500305 16.651464899508003  C 6.968031632340042 16.351790659242575  8.100935446112517 15.941367059626694  9.192889679506845 15.420194450133815  C 10.2984932035288 14.899021840640936  11.315374629975896 14.267101386182555  12.243535850396448 13.524430523953377  C 13.185346300426945 12.76873012660983  14.004313317861817 11.902279146758762  14.700434034869746 10.92508055492449  C 15.396554751877675 9.934852544467002  15.928879710115885 8.840390233444122  16.29741434015858 7.641693155891253  Z M 0.45043159416223877 11.765471940336651  C 0.45043159416223877 11.765471940336651  0 10.338761027052248  0 10.338761027052248  C 0.573275942023177 10.208468005731572  1.2216232875867672 10.052116540322093  1.9450427689030225 9.869706150297812  C 2.668462372254653 9.674266225159169  3.4328316780198103 9.47231127035825  4.238148001420235 9.26384220326287  C 5.057113554430604 9.042343994210752  5.869253729914904 8.820846935508738  6.674569626191515 8.59934872645662  C 6.674569626191515 8.59934872645662  6.879311792419625 9.94788196309022  6.879311792419625 9.94788196309022  C 5.76005861166391 10.273614894988148  4.633980114399814 10.592832331259205  3.501077765051843 10.905536135761789  C 2.381824828366879 11.218239532545349  1.364943096831345 11.50488551909906  0.45043159416223877 11.765471940336651  Z M 0.24568942793412862 5.335504814656885  L 0.24568942793412862 3.947882739697885  L 6.674569626191515 3.947882739697885  L 6.674569626191515 5.335504814656885  L 0.24568942793412862 5.335504814656885  Z M 2.8868532189335188 16.20195444191627  C 2.8868532189335188 16.20195444191627  2.8868532189335188 0  2.8868532189335188 0  L 4.401940953376321 0  C 4.401940953376321 0  4.401940953376321 16.20195444191627  4.401940953376321 16.20195444191627  C 4.401940953376321 16.618892546984245  4.347343218824971 16.938110259921785  4.238148001420235 17.15960861458784  C 4.128952578080802 17.381106969253896  3.937859366883042 17.550488501268614  3.664870717007929 17.667752329667678  C 3.391882250185879 17.78501620175092  3.0301730586869406 17.856676764639975  2.579741922157359 17.882735348882193  C 2.1429604423615363 17.92182327348014  1.5696842257587647 17.934853431094087  0.8599139740524532 17.921824187207594  C 0.832615169701269 17.739413709814954  0.7711924866544683 17.5179151221666  0.6756464149603552 17.257328846542947  C 0.5801004424199846 17.009771843928576  0.48455569786057856 16.781758124688192  0.38900972532020794 16.573289086715597  C 0.8667396871758034 16.58631840340906  1.3035200076355606 16.5928335058783  1.699353340968894 16.5928335058783  C 2.0951866743022274 16.5928335058783  2.36135112124176 16.5928335058783  2.4978454461793165 16.5928335058783  C 2.7571844393206715 16.5928335058783  2.8868532189335188 16.46254074666271  2.8868532189335188 16.20195444191627  Z " fill-rule="evenodd" />
    </mask>
  </defs>
  <g transform="matrix(1 0 0 1 -996 -940 )">
    <path d="M 6.98168287553368 4.436481569650422  L 6.98168287553368 3  L 18.26293366876362 3  L 18.26293366876362 4.436481569650422  L 6.98168287553368 4.436481569650422  Z M 7.3911652554238945 8.73615593287873  L 7.3911652554238945 7.387622230280534  L 16.420261982974655 7.387622230280534  L 16.420261982974655 8.73615593287873  L 7.3911652554238945 8.73615593287873  Z M 11.813576910804215 8.14983640500649  L 11.813576910804215 0  L 13.328666597813022 0  L 13.328666597813022 8.14983640500649  L 11.813576910804215 8.14983640500649  Z M 8.005389801542218 8.755700352041432  C 8.005389801542218 8.755700352041432  9.377157238598942 8.364819424221006  9.377157238598942 8.364819424221006  C 10.155174675655664 10.423451490910688  11.356321098451975 12.182410074527414  12.980602181632829 13.641693311212785  C 14.604884119061309 15.100976547898158  16.611350343266242 16.13029223176955  19 16.72964071230041  C 18.89080437072587 16.83387522400601  18.76796291357789 16.957654766452848  18.631468786947817 17.100977220958136  C 18.508623912809323 17.257329021279673  18.392603089062188 17.413680297391032  18.28340827589963 17.57003209771257  C 18.174212646625502 17.726383854349926  18.078663996934086 17.869706876749568  17.996767681127473 18  C 15.539870961078678 17.296417044167026  13.478807330292469 16.156352000945184  11.813576910804215 14.579804928580051  C 10.161996514155845 13.003257856214923  8.892602417867623 11.0618891592404  8.005389801542218 8.755700352041432  Z M 16.29741434015858 7.641693155891253  C 16.29741434015858 7.641693155891253  16.29741434015858 7.387622230280534  16.29741434015858 7.387622230280534  L 16.584054934930737 7.387622230280534  L 16.870691624570885 7.3289889727924304  C 16.870691624570885 7.3289889727924304  17.8534493363074 7.739412455917161  17.8534493363074 7.739412455917161  C 17.41666764294967 9.133549414924493  16.8229199616218 10.384363817496785  16.07220147192647 11.49185566363403  C 15.321482982231135 12.59934727678898  14.447918619232672 13.576545926868823  13.451510335497085 14.423451439136842  C 12.468752135619068 15.25732759102722  11.397270922900876 15.967425489154104  10.237069260085388 16.553744667552895  C 9.090517620109786 17.14006384595169  7.889369183729781 17.609119625512534  6.633622364485496 17.9609111616746  C 6.579024549848431 17.830618038424166  6.503951563661745 17.68078185022065  6.408405591121374 17.511400704082863  C 6.326508871072581 17.35504894744551  6.230964118885964 17.192182525180726  6.121768901481227 17.02280140816573  C 6.012573272207098 16.86644963696698  5.903376262407786 16.742670116362234  5.79418104500305 16.651464899508003  C 6.968031632340042 16.351790659242575  8.100935446112517 15.941367059626694  9.192889679506845 15.420194450133815  C 10.2984932035288 14.899021840640936  11.315374629975896 14.267101386182555  12.243535850396448 13.524430523953377  C 13.185346300426945 12.76873012660983  14.004313317861817 11.902279146758762  14.700434034869746 10.92508055492449  C 15.396554751877675 9.934852544467002  15.928879710115885 8.840390233444122  16.29741434015858 7.641693155891253  Z M 0.45043159416223877 11.765471940336651  C 0.45043159416223877 11.765471940336651  0 10.338761027052248  0 10.338761027052248  C 0.573275942023177 10.208468005731572  1.2216232875867672 10.052116540322093  1.9450427689030225 9.869706150297812  C 2.668462372254653 9.674266225159169  3.4328316780198103 9.47231127035825  4.238148001420235 9.26384220326287  C 5.057113554430604 9.042343994210752  5.869253729914904 8.820846935508738  6.674569626191515 8.59934872645662  C 6.674569626191515 8.59934872645662  6.879311792419625 9.94788196309022  6.879311792419625 9.94788196309022  C 5.76005861166391 10.273614894988148  4.633980114399814 10.592832331259205  3.501077765051843 10.905536135761789  C 2.381824828366879 11.218239532545349  1.364943096831345 11.50488551909906  0.45043159416223877 11.765471940336651  Z M 0.24568942793412862 5.335504814656885  L 0.24568942793412862 3.947882739697885  L 6.674569626191515 3.947882739697885  L 6.674569626191515 5.335504814656885  L 0.24568942793412862 5.335504814656885  Z M 2.8868532189335188 16.20195444191627  C 2.8868532189335188 16.20195444191627  2.8868532189335188 0  2.8868532189335188 0  L 4.401940953376321 0  C 4.401940953376321 0  4.401940953376321 16.20195444191627  4.401940953376321 16.20195444191627  C 4.401940953376321 16.618892546984245  4.347343218824971 16.938110259921785  4.238148001420235 17.15960861458784  C 4.128952578080802 17.381106969253896  3.937859366883042 17.550488501268614  3.664870717007929 17.667752329667678  C 3.391882250185879 17.78501620175092  3.0301730586869406 17.856676764639975  2.579741922157359 17.882735348882193  C 2.1429604423615363 17.92182327348014  1.5696842257587647 17.934853431094087  0.8599139740524532 17.921824187207594  C 0.832615169701269 17.739413709814954  0.7711924866544683 17.5179151221666  0.6756464149603552 17.257328846542947  C 0.5801004424199846 17.009771843928576  0.48455569786057856 16.781758124688192  0.38900972532020794 16.573289086715597  C 0.8667396871758034 16.58631840340906  1.3035200076355606 16.5928335058783  1.699353340968894 16.5928335058783  C 2.0951866743022274 16.5928335058783  2.36135112124176 16.5928335058783  2.4978454461793165 16.5928335058783  C 2.7571844393206715 16.5928335058783  2.8868532189335188 16.46254074666271  2.8868532189335188 16.20195444191627  Z " fill-rule="nonzero" fill="rgba(255, 255, 255, 1)" stroke="none" transform="matrix(1 0 0 1 996 940 )" class="fill" />
    <path d="M 6.98168287553368 4.436481569650422  L 6.98168287553368 3  L 18.26293366876362 3  L 18.26293366876362 4.436481569650422  L 6.98168287553368 4.436481569650422  Z " stroke-width="0" stroke-dasharray="0" stroke="rgba(121, 121, 121, 1)" fill="none" transform="matrix(1 0 0 1 996 940 )" class="stroke" mask="url(#Clip4343)" />
    <path d="M 7.3911652554238945 8.73615593287873  L 7.3911652554238945 7.387622230280534  L 16.420261982974655 7.387622230280534  L 16.420261982974655 8.73615593287873  L 7.3911652554238945 8.73615593287873  Z " stroke-width="0" stroke-dasharray="0" stroke="rgba(121, 121, 121, 1)" fill="none" transform="matrix(1 0 0 1 996 940 )" class="stroke" mask="url(#Clip4343)" />
    <path d="M 11.813576910804215 8.14983640500649  L 11.813576910804215 0  L 13.328666597813022 0  L 13.328666597813022 8.14983640500649  L 11.813576910804215 8.14983640500649  Z " stroke-width="0" stroke-dasharray="0" stroke="rgba(121, 121, 121, 1)" fill="none" transform="matrix(1 0 0 1 996 940 )" class="stroke" mask="url(#Clip4343)" />
    <path d="M 8.005389801542218 8.755700352041432  C 8.005389801542218 8.755700352041432  9.377157238598942 8.364819424221006  9.377157238598942 8.364819424221006  C 10.155174675655664 10.423451490910688  11.356321098451975 12.182410074527414  12.980602181632829 13.641693311212785  C 14.604884119061309 15.100976547898158  16.611350343266242 16.13029223176955  19 16.72964071230041  C 18.89080437072587 16.83387522400601  18.76796291357789 16.957654766452848  18.631468786947817 17.100977220958136  C 18.508623912809323 17.257329021279673  18.392603089062188 17.413680297391032  18.28340827589963 17.57003209771257  C 18.174212646625502 17.726383854349926  18.078663996934086 17.869706876749568  17.996767681127473 18  C 15.539870961078678 17.296417044167026  13.478807330292469 16.156352000945184  11.813576910804215 14.579804928580051  C 10.161996514155845 13.003257856214923  8.892602417867623 11.0618891592404  8.005389801542218 8.755700352041432  Z " stroke-width="0" stroke-dasharray="0" stroke="rgba(121, 121, 121, 1)" fill="none" transform="matrix(1 0 0 1 996 940 )" class="stroke" mask="url(#Clip4343)" />
    <path d="M 16.29741434015858 7.641693155891253  C 16.29741434015858 7.641693155891253  16.29741434015858 7.387622230280534  16.29741434015858 7.387622230280534  L 16.584054934930737 7.387622230280534  L 16.870691624570885 7.3289889727924304  C 16.870691624570885 7.3289889727924304  17.8534493363074 7.739412455917161  17.8534493363074 7.739412455917161  C 17.41666764294967 9.133549414924493  16.8229199616218 10.384363817496785  16.07220147192647 11.49185566363403  C 15.321482982231135 12.59934727678898  14.447918619232672 13.576545926868823  13.451510335497085 14.423451439136842  C 12.468752135619068 15.25732759102722  11.397270922900876 15.967425489154104  10.237069260085388 16.553744667552895  C 9.090517620109786 17.14006384595169  7.889369183729781 17.609119625512534  6.633622364485496 17.9609111616746  C 6.579024549848431 17.830618038424166  6.503951563661745 17.68078185022065  6.408405591121374 17.511400704082863  C 6.326508871072581 17.35504894744551  6.230964118885964 17.192182525180726  6.121768901481227 17.02280140816573  C 6.012573272207098 16.86644963696698  5.903376262407786 16.742670116362234  5.79418104500305 16.651464899508003  C 6.968031632340042 16.351790659242575  8.100935446112517 15.941367059626694  9.192889679506845 15.420194450133815  C 10.2984932035288 14.899021840640936  11.315374629975896 14.267101386182555  12.243535850396448 13.524430523953377  C 13.185346300426945 12.76873012660983  14.004313317861817 11.902279146758762  14.700434034869746 10.92508055492449  C 15.396554751877675 9.934852544467002  15.928879710115885 8.840390233444122  16.29741434015858 7.641693155891253  Z " stroke-width="0" stroke-dasharray="0" stroke="rgba(121, 121, 121, 1)" fill="none" transform="matrix(1 0 0 1 996 940 )" class="stroke" mask="url(#Clip4343)" />
    <path d="M 0.45043159416223877 11.765471940336651  C 0.45043159416223877 11.765471940336651  0 10.338761027052248  0 10.338761027052248  C 0.573275942023177 10.208468005731572  1.2216232875867672 10.052116540322093  1.9450427689030225 9.869706150297812  C 2.668462372254653 9.674266225159169  3.4328316780198103 9.47231127035825  4.238148001420235 9.26384220326287  C 5.057113554430604 9.042343994210752  5.869253729914904 8.820846935508738  6.674569626191515 8.59934872645662  C 6.674569626191515 8.59934872645662  6.879311792419625 9.94788196309022  6.879311792419625 9.94788196309022  C 5.76005861166391 10.273614894988148  4.633980114399814 10.592832331259205  3.501077765051843 10.905536135761789  C 2.381824828366879 11.218239532545349  1.364943096831345 11.50488551909906  0.45043159416223877 11.765471940336651  Z " stroke-width="0" stroke-dasharray="0" stroke="rgba(121, 121, 121, 1)" fill="none" transform="matrix(1 0 0 1 996 940 )" class="stroke" mask="url(#Clip4343)" />
    <path d="M 0.24568942793412862 5.335504814656885  L 0.24568942793412862 3.947882739697885  L 6.674569626191515 3.947882739697885  L 6.674569626191515 5.335504814656885  L 0.24568942793412862 5.335504814656885  Z " stroke-width="0" stroke-dasharray="0" stroke="rgba(121, 121, 121, 1)" fill="none" transform="matrix(1 0 0 1 996 940 )" class="stroke" mask="url(#Clip4343)" />
    <path d="M 2.8868532189335188 16.20195444191627  C 2.8868532189335188 16.20195444191627  2.8868532189335188 0  2.8868532189335188 0  L 4.401940953376321 0  C 4.401940953376321 0  4.401940953376321 16.20195444191627  4.401940953376321 16.20195444191627  C 4.401940953376321 16.618892546984245  4.347343218824971 16.938110259921785  4.238148001420235 17.15960861458784  C 4.128952578080802 17.381106969253896  3.937859366883042 17.550488501268614  3.664870717007929 17.667752329667678  C 3.391882250185879 17.78501620175092  3.0301730586869406 17.856676764639975  2.579741922157359 17.882735348882193  C 2.1429604423615363 17.92182327348014  1.5696842257587647 17.934853431094087  0.8599139740524532 17.921824187207594  C 0.832615169701269 17.739413709814954  0.7711924866544683 17.5179151221666  0.6756464149603552 17.257328846542947  C 0.5801004424199846 17.009771843928576  0.48455569786057856 16.781758124688192  0.38900972532020794 16.573289086715597  C 0.8667396871758034 16.58631840340906  1.3035200076355606 16.5928335058783  1.699353340968894 16.5928335058783  C 2.0951866743022274 16.5928335058783  2.36135112124176 16.5928335058783  2.4978454461793165 16.5928335058783  C 2.7571844393206715 16.5928335058783  2.8868532189335188 16.46254074666271  2.8868532189335188 16.20195444191627  Z " stroke-width="0" stroke-dasharray="0" stroke="rgba(121, 121, 121, 1)" fill="none" transform="matrix(1 0 0 1 996 940 )" class="stroke" mask="url(#Clip4343)" />
  </g>
</svg>