<?xml version="1.0" encoding="utf-8"?>
<svg version="1.1" xmlns:xlink="http://www.w3.org/1999/xlink" width="11px" height="14px" xmlns="http://www.w3.org/2000/svg">
  <defs>
    <pattern id="BGPattern" patternUnits="userSpaceOnUse" alignment="0 0" imageRepeat="None" />
    <mask fill="white" id="Clip4364">
      <path d="M 7.032339532557109 6.138888828818698  C 9.38557404500368 6.361110681233808  11 7.277778468584971  11 9.833334324491481  C 11 12.472223389836556  8.78359087037888 14  5.527370528675985 14  C 3.2562254676191213 14  1.4776124549766632 13.472223322257591  0 12.027778738900832  C 0 12.027778738900832  1.3134424060525463 10.694445495672785  1.3134424060525463 10.694445495672785  C 2.3806070215901896 11.833334425859928  3.830852559331845 12.277777657637396  5.500007455878146 12.277777657637396  C 7.716426138343142 12.277777657637396  9.084584904151297 11.472223339152332  9.084584904151297 9.861111982128877  C 9.084584904151297 8.666667500140566  8.400500278832897 7.999999932421035  6.840798022972238 7.861111171181301  C 6.840798022972238 7.861111171181301  4.624389126347311 7.6666675677195295  4.624389126347311 7.6666675677195295  C 1.9975224879452007 7.444445715304419  0.6020025133087425 6.249999932421035  0.6020025133087425 3.9999997296841414  C 0.6020025133087425 1.4999987159996713  2.6815983759063977 0  5.554733601473823 0  C 7.470157318181633 0  9.19403195292833 0.4722211259412398  10.39801239844755 1.4722215314150278  C 10.39801239844755 1.4722215314150278  9.11196288870543 2.777777117005679  9.11196288870543 2.777777117005679  C 8.154251263347717 2.027777640742655  6.9228932992667485 1.6944446847252077  5.527370528675985 1.6944446847252077  C 3.5572208993686902 1.6944446847252077  2.517417609157445 2.5555551463273805  2.517417609157445 3.9444444144093493  C 2.517417609157445 5.111111002233891  3.174138695685622 5.805556464117191  4.870656781527859 5.944445225356925  C 4.870656781527859 5.944445225356925  7.032339532557109 6.138888828818698  7.032339532557109 6.138888828818698  Z " fill-rule="evenodd" />
    </mask>
  </defs>
  <g transform="matrix(1 0 0 1 -1629 -548 )">
    <path d="M 7.032339532557109 6.138888828818698  C 9.38557404500368 6.361110681233808  11 7.277778468584971  11 9.833334324491481  C 11 12.472223389836556  8.78359087037888 14  5.527370528675985 14  C 3.2562254676191213 14  1.4776124549766632 13.472223322257591  0 12.027778738900832  C 0 12.027778738900832  1.3134424060525463 10.694445495672785  1.3134424060525463 10.694445495672785  C 2.3806070215901896 11.833334425859928  3.830852559331845 12.277777657637396  5.500007455878146 12.277777657637396  C 7.716426138343142 12.277777657637396  9.084584904151297 11.472223339152332  9.084584904151297 9.861111982128877  C 9.084584904151297 8.666667500140566  8.400500278832897 7.999999932421035  6.840798022972238 7.861111171181301  C 6.840798022972238 7.861111171181301  4.624389126347311 7.6666675677195295  4.624389126347311 7.6666675677195295  C 1.9975224879452007 7.444445715304419  0.6020025133087425 6.249999932421035  0.6020025133087425 3.9999997296841414  C 0.6020025133087425 1.4999987159996713  2.6815983759063977 0  5.554733601473823 0  C 7.470157318181633 0  9.19403195292833 0.4722211259412398  10.39801239844755 1.4722215314150278  C 10.39801239844755 1.4722215314150278  9.11196288870543 2.777777117005679  9.11196288870543 2.777777117005679  C 8.154251263347717 2.027777640742655  6.9228932992667485 1.6944446847252077  5.527370528675985 1.6944446847252077  C 3.5572208993686902 1.6944446847252077  2.517417609157445 2.5555551463273805  2.517417609157445 3.9444444144093493  C 2.517417609157445 5.111111002233891  3.174138695685622 5.805556464117191  4.870656781527859 5.944445225356925  C 4.870656781527859 5.944445225356925  7.032339532557109 6.138888828818698  7.032339532557109 6.138888828818698  Z " fill-rule="nonzero" fill="rgba(255, 255, 255, 1)" stroke="none" transform="matrix(1 0 0 1 1629 548 )" class="fill" />
    <path d="M 7.032339532557109 6.138888828818698  C 9.38557404500368 6.361110681233808  11 7.277778468584971  11 9.833334324491481  C 11 12.472223389836556  8.78359087037888 14  5.527370528675985 14  C 3.2562254676191213 14  1.4776124549766632 13.472223322257591  0 12.027778738900832  C 0 12.027778738900832  1.3134424060525463 10.694445495672785  1.3134424060525463 10.694445495672785  C 2.3806070215901896 11.833334425859928  3.830852559331845 12.277777657637396  5.500007455878146 12.277777657637396  C 7.716426138343142 12.277777657637396  9.084584904151297 11.472223339152332  9.084584904151297 9.861111982128877  C 9.084584904151297 8.666667500140566  8.400500278832897 7.999999932421035  6.840798022972238 7.861111171181301  C 6.840798022972238 7.861111171181301  4.624389126347311 7.6666675677195295  4.624389126347311 7.6666675677195295  C 1.9975224879452007 7.444445715304419  0.6020025133087425 6.249999932421035  0.6020025133087425 3.9999997296841414  C 0.6020025133087425 1.4999987159996713  2.6815983759063977 0  5.554733601473823 0  C 7.470157318181633 0  9.19403195292833 0.4722211259412398  10.39801239844755 1.4722215314150278  C 10.39801239844755 1.4722215314150278  9.11196288870543 2.777777117005679  9.11196288870543 2.777777117005679  C 8.154251263347717 2.027777640742655  6.9228932992667485 1.6944446847252077  5.527370528675985 1.6944446847252077  C 3.5572208993686902 1.6944446847252077  2.517417609157445 2.5555551463273805  2.517417609157445 3.9444444144093493  C 2.517417609157445 5.111111002233891  3.174138695685622 5.805556464117191  4.870656781527859 5.944445225356925  C 4.870656781527859 5.944445225356925  7.032339532557109 6.138888828818698  7.032339532557109 6.138888828818698  Z " stroke-width="0" stroke-dasharray="0" stroke="rgba(121, 121, 121, 1)" fill="none" transform="matrix(1 0 0 1 1629 548 )" class="stroke" mask="url(#Clip4364)" />
  </g>
</svg>