<?xml version="1.0" encoding="utf-8"?>
<svg version="1.1" xmlns:xlink="http://www.w3.org/1999/xlink" width="18px" height="19px" xmlns="http://www.w3.org/2000/svg">
  <defs>
    <pattern id="BGPattern" patternUnits="userSpaceOnUse" alignment="0 0" imageRepeat="None" />
    <mask fill="white" id="Clip4341">
      <path d="M 1.2119218138591832 11.469763426982228  L 1.2119218138591832 10  L 12.933776051573362 10  L 12.933776051573362 11.469763426982228  L 1.2119218138591832 11.469763426982228  Z M 12.039734747999441 16.537797428457434  C 12.039734747999441 16.537797428457434  12.039734747999441 10.033478756647655  12.039734747999441 10.033478756647655  L 13.549672856006326 10.033478756647655  C 13.549672856006326 10.033478756647655  13.549672856006326 16.51727860080533  13.549672856006326 16.51727860080533  C 13.549672856006326 16.804535644941293  13.589403338424773 16.989201761164015  13.66887331057006 17.071275206713537  C 13.748344067246727 17.153348636975693  13.927152794239596 17.19438425905996  14.205298092714413 17.19438425905996  C 14.258278336888603 17.19438425905996  14.357619315808638 17.19438425905996  14.503314386862113 17.19438425905996  C 14.66225511568407 17.19438425905996  14.834436913506051 17.19438425905996  15.019867373999721 17.19438425905996  C 15.21854269292801 17.19438425905996  15.397351427322118 17.19438425905996  15.556292156144073 17.19438425905996  C 15.728477743400648 17.19438425905996  15.854310500435101 17.19438425905996  15.933780472580388 17.19438425905996  C 16.119210933074058 17.19438425905996  16.2582815987793 17.125990913516727  16.350997221291824 16.989201852888222  C 16.443712051871728 16.8387338999555  16.509934319805833 16.551477757774247  16.549669698144168 16.12743163772241  C 16.5894042882505 15.689706686515827  16.615896067290077 15.026279278495963  16.629141720432777 14.137150361479632  C 16.73510141684854 14.21922375352337  16.867553524184697 14.301297030911844  17.026494253006653 14.38337042295558  C 17.198679840263225 14.465444021378781  17.370861652887687 14.540677195258322  17.54304724014426 14.609071656779419  C 17.715232042869452 14.677466118300515  17.86754900284976 14.732181565218447  18 14.77321836443005  C 17.96026462166167 15.799136265638044  17.87417750848465 16.599351404285397  17.74172729586579 17.17386543140785  C 17.62252194908279 17.73470056622609  17.43046772714871 18.124550678506818  17.165566502577132 18.343413169397476  C 16.900666077339412 18.562275645000767  16.536428466316874 18.67170658469874  16.072852722150866 18.67170658469874  C 15.98013709963834 18.67170658469874  15.834439497360975 18.67170658469874  15.635764178432686 18.67170658469874  C 15.450333717939015 18.67170658469874  15.238413851428165 18.67170658469874  15.00000315786216 18.67170658469874  C 14.774837322730775 18.67170658469874  14.562917456219925 18.67170658469874  14.364242137291637 18.67170658469874  C 14.178811676797965 18.67170658469874  14.046359576863049 18.67170658469874  13.966889604717762 18.67170658469874  C 13.476823344348658 18.67170658469874  13.0860947434437 18.610151194789236  12.794703802002884 18.487041049396  C 12.516557733799168 18.363930904002768  12.317884139359668 18.145069047537884  12.198678792576667 17.83045421879348  C 12.092719096160904 17.529518282353298  12.039734747999441 17.09863256327567  12.039734747999441 16.537797428457434  Z M 6.576158266998929 10.731103242554388  C 6.576158266998929 10.731103242554388  6.576158266998929 8.125270834230191  6.576158266998929 8.125270834230191  L 8.086096375005816 8.125270834230191  C 8.086096375005816 8.125270834230191  8.086096375005816 10.772138941075493  8.086096375005816 10.772138941075493  C 8.086096375005816 11.483442258136973  8.006628216164192 12.215263730206365  7.847687887009165 12.96760360188156  C 7.688747158187211 13.719943290108338  7.370859779551748 14.465442981837757  6.894038777284192 15.204103961208732  C 6.417217390152186 15.929085987126015  5.708608959875994 16.619870109638555  4.768211443713528 17.276457612885274  C 3.8278141051808094 17.91936622382777  2.5761595959325896 18.49388049554811  1.0132455475722462 19  C 0.9072852590573277 18.80849533957988  0.7549682990770201 18.58963350604605  0.5562927877165057 18.343413169397476  C 0.3576172763559913 18.11087177091523  0.17218549844170028 17.912527725492478  0 17.748380864968166  C 1.4569537598454247 17.28329806800367  2.62251717034919 16.76350019101808  3.496689402572479 16.18898616389562  C 4.384106892897315 15.614472136773166  5.046358459275893 15.012600202743327  5.483444486572665 14.38337042295558  C 5.920530513869435 13.75414094891519  6.211918524419432 13.131750126083775  6.35761399513984 12.516199177450773  C 6.503309465860247 11.886969458812496  6.576158266998929 11.291938071625266  6.576158266998929 10.731103242554388  Z M 0.41722053814602755 5.827214970338257  L 0.41722053814602755 2.359611123858809  L 17.245038524865745 2.359611123858809  L 17.245038524865745 5.724622788860836  L 15.695364405714551 5.724622788860836  L 15.695364405714551 4  L 1.9072868511461671 4  L 1.9072868511461671 5.827214970338257  L 0.41722053814602755 5.827214970338257  Z M 4.768211443713528 5.704104939600285  C 5.403973174803039 5.293737344955836  5.986756774772218 4.883370422955579  6.516558039717063 4.473003653829003  C 6.516558039717063 4.473003653829003  7.728479853576247 5.170627161344182  7.728479853576247 5.170627161344182  C 7.172188486897714 5.6357096525613155  6.562913068107298 6.09395370659263  5.900661235284099 6.545358283897096  C 5.238409402460901 6.9830829293563195  4.5629117194369995 7.386610160606579  3.8741701401396074 7.755940742016273  C 3.185428383212468 8.111592186523861  2.523180576663525 8.426207045843  1.887418845574014 8.699785289398953  C 1.887418845574014 8.699785289398953  0.894041303573921 7.59179305597409  0.894041303573921 7.59179305597409  C 1.5033128145099135 7.359251810365524  2.139072532462297 7.085674377040075  2.801324365285495 6.7710595177209365  C 3.4768211009507484 6.456444658401798  4.132449890253763 6.1007929692963225  4.768211443713528 5.704104939600285  Z M 12.238414803720971 6.381210597854913  C 11.509937864588345 5.970843003210463  10.814575314117812 5.615191314104987  10.152323481294614 5.314256019734261  C 10.152323481294614 5.314256019734261  11.145701023294707 4.473003653829003  11.145701023294707 4.473003653829003  C 11.794707242756864 4.760260239343926  12.476824239076269 5.1022325469494065  13.19205633457676 5.498920576645443  C 13.920533273709387 5.881930692428815  14.615895824179919 6.2717793065474785  15.278147657003117 6.668467336243515  C 15.940399489826316 7.065155365939553  16.49007198728371 7.427646745795028  16.92715801458048 7.755940742016273  C 16.92715801458048 7.755940742016273  15.874172666429335 8.720303138659505  15.874172666429335 8.720303138659505  C 15.46357715533566 8.378330433582455  14.933777104194084 8.002160222572234  14.284770115003024 7.59179305597409  C 13.649008798382921 7.181425889375945  12.9668917428536 6.77789862755095  12.238414803720971 6.381210597854913  Z M 7.927152330428591 1.8056154963421542  C 7.701986894964136 1.2858172830344639  7.470201776142204 0.8138949787683885  7.2317910825762 0.38984867526813594  C 7.2317910825762 0.38984867526813594  8.781457622858207 0  8.781457622858207 0  C 9.033113174858826 0.41036759464444944  9.278144188288898 0.8686113735031381  9.516554881854903 1.3747308779550258  C 9.768210433855524 1.8671716429763743  9.953646112223 2.28437770538138  10.072851459006003 2.6263500129868604  C 10.072851459006003 2.6263500129868604  8.443712896435384 3.1187906251345288  8.443712896435384 3.1187906251345288  C 8.337752408087 2.7631395780985093  8.165563023994595 2.325414565742454  7.927152330428591 1.8056154963421542  Z " fill-rule="evenodd" />
    </mask>
  </defs>
  <g transform="matrix(1 0 0 1 -1036 -940 )">
    <path d="M 1.2119218138591832 11.469763426982228  L 1.2119218138591832 10  L 12.933776051573362 10  L 12.933776051573362 11.469763426982228  L 1.2119218138591832 11.469763426982228  Z M 12.039734747999441 16.537797428457434  C 12.039734747999441 16.537797428457434  12.039734747999441 10.033478756647655  12.039734747999441 10.033478756647655  L 13.549672856006326 10.033478756647655  C 13.549672856006326 10.033478756647655  13.549672856006326 16.51727860080533  13.549672856006326 16.51727860080533  C 13.549672856006326 16.804535644941293  13.589403338424773 16.989201761164015  13.66887331057006 17.071275206713537  C 13.748344067246727 17.153348636975693  13.927152794239596 17.19438425905996  14.205298092714413 17.19438425905996  C 14.258278336888603 17.19438425905996  14.357619315808638 17.19438425905996  14.503314386862113 17.19438425905996  C 14.66225511568407 17.19438425905996  14.834436913506051 17.19438425905996  15.019867373999721 17.19438425905996  C 15.21854269292801 17.19438425905996  15.397351427322118 17.19438425905996  15.556292156144073 17.19438425905996  C 15.728477743400648 17.19438425905996  15.854310500435101 17.19438425905996  15.933780472580388 17.19438425905996  C 16.119210933074058 17.19438425905996  16.2582815987793 17.125990913516727  16.350997221291824 16.989201852888222  C 16.443712051871728 16.8387338999555  16.509934319805833 16.551477757774247  16.549669698144168 16.12743163772241  C 16.5894042882505 15.689706686515827  16.615896067290077 15.026279278495963  16.629141720432777 14.137150361479632  C 16.73510141684854 14.21922375352337  16.867553524184697 14.301297030911844  17.026494253006653 14.38337042295558  C 17.198679840263225 14.465444021378781  17.370861652887687 14.540677195258322  17.54304724014426 14.609071656779419  C 17.715232042869452 14.677466118300515  17.86754900284976 14.732181565218447  18 14.77321836443005  C 17.96026462166167 15.799136265638044  17.87417750848465 16.599351404285397  17.74172729586579 17.17386543140785  C 17.62252194908279 17.73470056622609  17.43046772714871 18.124550678506818  17.165566502577132 18.343413169397476  C 16.900666077339412 18.562275645000767  16.536428466316874 18.67170658469874  16.072852722150866 18.67170658469874  C 15.98013709963834 18.67170658469874  15.834439497360975 18.67170658469874  15.635764178432686 18.67170658469874  C 15.450333717939015 18.67170658469874  15.238413851428165 18.67170658469874  15.00000315786216 18.67170658469874  C 14.774837322730775 18.67170658469874  14.562917456219925 18.67170658469874  14.364242137291637 18.67170658469874  C 14.178811676797965 18.67170658469874  14.046359576863049 18.67170658469874  13.966889604717762 18.67170658469874  C 13.476823344348658 18.67170658469874  13.0860947434437 18.610151194789236  12.794703802002884 18.487041049396  C 12.516557733799168 18.363930904002768  12.317884139359668 18.145069047537884  12.198678792576667 17.83045421879348  C 12.092719096160904 17.529518282353298  12.039734747999441 17.09863256327567  12.039734747999441 16.537797428457434  Z M 6.576158266998929 10.731103242554388  C 6.576158266998929 10.731103242554388  6.576158266998929 8.125270834230191  6.576158266998929 8.125270834230191  L 8.086096375005816 8.125270834230191  C 8.086096375005816 8.125270834230191  8.086096375005816 10.772138941075493  8.086096375005816 10.772138941075493  C 8.086096375005816 11.483442258136973  8.006628216164192 12.215263730206365  7.847687887009165 12.96760360188156  C 7.688747158187211 13.719943290108338  7.370859779551748 14.465442981837757  6.894038777284192 15.204103961208732  C 6.417217390152186 15.929085987126015  5.708608959875994 16.619870109638555  4.768211443713528 17.276457612885274  C 3.8278141051808094 17.91936622382777  2.5761595959325896 18.49388049554811  1.0132455475722462 19  C 0.9072852590573277 18.80849533957988  0.7549682990770201 18.58963350604605  0.5562927877165057 18.343413169397476  C 0.3576172763559913 18.11087177091523  0.17218549844170028 17.912527725492478  0 17.748380864968166  C 1.4569537598454247 17.28329806800367  2.62251717034919 16.76350019101808  3.496689402572479 16.18898616389562  C 4.384106892897315 15.614472136773166  5.046358459275893 15.012600202743327  5.483444486572665 14.38337042295558  C 5.920530513869435 13.75414094891519  6.211918524419432 13.131750126083775  6.35761399513984 12.516199177450773  C 6.503309465860247 11.886969458812496  6.576158266998929 11.291938071625266  6.576158266998929 10.731103242554388  Z M 0.41722053814602755 5.827214970338257  L 0.41722053814602755 2.359611123858809  L 17.245038524865745 2.359611123858809  L 17.245038524865745 5.724622788860836  L 15.695364405714551 5.724622788860836  L 15.695364405714551 4  L 1.9072868511461671 4  L 1.9072868511461671 5.827214970338257  L 0.41722053814602755 5.827214970338257  Z M 4.768211443713528 5.704104939600285  C 5.403973174803039 5.293737344955836  5.986756774772218 4.883370422955579  6.516558039717063 4.473003653829003  C 6.516558039717063 4.473003653829003  7.728479853576247 5.170627161344182  7.728479853576247 5.170627161344182  C 7.172188486897714 5.6357096525613155  6.562913068107298 6.09395370659263  5.900661235284099 6.545358283897096  C 5.238409402460901 6.9830829293563195  4.5629117194369995 7.386610160606579  3.8741701401396074 7.755940742016273  C 3.185428383212468 8.111592186523861  2.523180576663525 8.426207045843  1.887418845574014 8.699785289398953  C 1.887418845574014 8.699785289398953  0.894041303573921 7.59179305597409  0.894041303573921 7.59179305597409  C 1.5033128145099135 7.359251810365524  2.139072532462297 7.085674377040075  2.801324365285495 6.7710595177209365  C 3.4768211009507484 6.456444658401798  4.132449890253763 6.1007929692963225  4.768211443713528 5.704104939600285  Z M 12.238414803720971 6.381210597854913  C 11.509937864588345 5.970843003210463  10.814575314117812 5.615191314104987  10.152323481294614 5.314256019734261  C 10.152323481294614 5.314256019734261  11.145701023294707 4.473003653829003  11.145701023294707 4.473003653829003  C 11.794707242756864 4.760260239343926  12.476824239076269 5.1022325469494065  13.19205633457676 5.498920576645443  C 13.920533273709387 5.881930692428815  14.615895824179919 6.2717793065474785  15.278147657003117 6.668467336243515  C 15.940399489826316 7.065155365939553  16.49007198728371 7.427646745795028  16.92715801458048 7.755940742016273  C 16.92715801458048 7.755940742016273  15.874172666429335 8.720303138659505  15.874172666429335 8.720303138659505  C 15.46357715533566 8.378330433582455  14.933777104194084 8.002160222572234  14.284770115003024 7.59179305597409  C 13.649008798382921 7.181425889375945  12.9668917428536 6.77789862755095  12.238414803720971 6.381210597854913  Z M 7.927152330428591 1.8056154963421542  C 7.701986894964136 1.2858172830344639  7.470201776142204 0.8138949787683885  7.2317910825762 0.38984867526813594  C 7.2317910825762 0.38984867526813594  8.781457622858207 0  8.781457622858207 0  C 9.033113174858826 0.41036759464444944  9.278144188288898 0.8686113735031381  9.516554881854903 1.3747308779550258  C 9.768210433855524 1.8671716429763743  9.953646112223 2.28437770538138  10.072851459006003 2.6263500129868604  C 10.072851459006003 2.6263500129868604  8.443712896435384 3.1187906251345288  8.443712896435384 3.1187906251345288  C 8.337752408087 2.7631395780985093  8.165563023994595 2.325414565742454  7.927152330428591 1.8056154963421542  Z " fill-rule="nonzero" fill="rgba(255, 255, 255, 1)" stroke="none" transform="matrix(1 0 0 1 1036 940 )" class="fill" />
    <path d="M 1.2119218138591832 11.469763426982228  L 1.2119218138591832 10  L 12.933776051573362 10  L 12.933776051573362 11.469763426982228  L 1.2119218138591832 11.469763426982228  Z " stroke-width="0" stroke-dasharray="0" stroke="rgba(121, 121, 121, 1)" fill="none" transform="matrix(1 0 0 1 1036 940 )" class="stroke" mask="url(#Clip4341)" />
    <path d="M 12.039734747999441 16.537797428457434  C 12.039734747999441 16.537797428457434  12.039734747999441 10.033478756647655  12.039734747999441 10.033478756647655  L 13.549672856006326 10.033478756647655  C 13.549672856006326 10.033478756647655  13.549672856006326 16.51727860080533  13.549672856006326 16.51727860080533  C 13.549672856006326 16.804535644941293  13.589403338424773 16.989201761164015  13.66887331057006 17.071275206713537  C 13.748344067246727 17.153348636975693  13.927152794239596 17.19438425905996  14.205298092714413 17.19438425905996  C 14.258278336888603 17.19438425905996  14.357619315808638 17.19438425905996  14.503314386862113 17.19438425905996  C 14.66225511568407 17.19438425905996  14.834436913506051 17.19438425905996  15.019867373999721 17.19438425905996  C 15.21854269292801 17.19438425905996  15.397351427322118 17.19438425905996  15.556292156144073 17.19438425905996  C 15.728477743400648 17.19438425905996  15.854310500435101 17.19438425905996  15.933780472580388 17.19438425905996  C 16.119210933074058 17.19438425905996  16.2582815987793 17.125990913516727  16.350997221291824 16.989201852888222  C 16.443712051871728 16.8387338999555  16.509934319805833 16.551477757774247  16.549669698144168 16.12743163772241  C 16.5894042882505 15.689706686515827  16.615896067290077 15.026279278495963  16.629141720432777 14.137150361479632  C 16.73510141684854 14.21922375352337  16.867553524184697 14.301297030911844  17.026494253006653 14.38337042295558  C 17.198679840263225 14.465444021378781  17.370861652887687 14.540677195258322  17.54304724014426 14.609071656779419  C 17.715232042869452 14.677466118300515  17.86754900284976 14.732181565218447  18 14.77321836443005  C 17.96026462166167 15.799136265638044  17.87417750848465 16.599351404285397  17.74172729586579 17.17386543140785  C 17.62252194908279 17.73470056622609  17.43046772714871 18.124550678506818  17.165566502577132 18.343413169397476  C 16.900666077339412 18.562275645000767  16.536428466316874 18.67170658469874  16.072852722150866 18.67170658469874  C 15.98013709963834 18.67170658469874  15.834439497360975 18.67170658469874  15.635764178432686 18.67170658469874  C 15.450333717939015 18.67170658469874  15.238413851428165 18.67170658469874  15.00000315786216 18.67170658469874  C 14.774837322730775 18.67170658469874  14.562917456219925 18.67170658469874  14.364242137291637 18.67170658469874  C 14.178811676797965 18.67170658469874  14.046359576863049 18.67170658469874  13.966889604717762 18.67170658469874  C 13.476823344348658 18.67170658469874  13.0860947434437 18.610151194789236  12.794703802002884 18.487041049396  C 12.516557733799168 18.363930904002768  12.317884139359668 18.145069047537884  12.198678792576667 17.83045421879348  C 12.092719096160904 17.529518282353298  12.039734747999441 17.09863256327567  12.039734747999441 16.537797428457434  Z " stroke-width="0" stroke-dasharray="0" stroke="rgba(121, 121, 121, 1)" fill="none" transform="matrix(1 0 0 1 1036 940 )" class="stroke" mask="url(#Clip4341)" />
    <path d="M 6.576158266998929 10.731103242554388  C 6.576158266998929 10.731103242554388  6.576158266998929 8.125270834230191  6.576158266998929 8.125270834230191  L 8.086096375005816 8.125270834230191  C 8.086096375005816 8.125270834230191  8.086096375005816 10.772138941075493  8.086096375005816 10.772138941075493  C 8.086096375005816 11.483442258136973  8.006628216164192 12.215263730206365  7.847687887009165 12.96760360188156  C 7.688747158187211 13.719943290108338  7.370859779551748 14.465442981837757  6.894038777284192 15.204103961208732  C 6.417217390152186 15.929085987126015  5.708608959875994 16.619870109638555  4.768211443713528 17.276457612885274  C 3.8278141051808094 17.91936622382777  2.5761595959325896 18.49388049554811  1.0132455475722462 19  C 0.9072852590573277 18.80849533957988  0.7549682990770201 18.58963350604605  0.5562927877165057 18.343413169397476  C 0.3576172763559913 18.11087177091523  0.17218549844170028 17.912527725492478  0 17.748380864968166  C 1.4569537598454247 17.28329806800367  2.62251717034919 16.76350019101808  3.496689402572479 16.18898616389562  C 4.384106892897315 15.614472136773166  5.046358459275893 15.012600202743327  5.483444486572665 14.38337042295558  C 5.920530513869435 13.75414094891519  6.211918524419432 13.131750126083775  6.35761399513984 12.516199177450773  C 6.503309465860247 11.886969458812496  6.576158266998929 11.291938071625266  6.576158266998929 10.731103242554388  Z " stroke-width="0" stroke-dasharray="0" stroke="rgba(121, 121, 121, 1)" fill="none" transform="matrix(1 0 0 1 1036 940 )" class="stroke" mask="url(#Clip4341)" />
    <path d="M 0.41722053814602755 5.827214970338257  L 0.41722053814602755 2.359611123858809  L 17.245038524865745 2.359611123858809  L 17.245038524865745 5.724622788860836  L 15.695364405714551 5.724622788860836  L 15.695364405714551 4  L 1.9072868511461671 4  L 1.9072868511461671 5.827214970338257  L 0.41722053814602755 5.827214970338257  Z " stroke-width="0" stroke-dasharray="0" stroke="rgba(121, 121, 121, 1)" fill="none" transform="matrix(1 0 0 1 1036 940 )" class="stroke" mask="url(#Clip4341)" />
    <path d="M 4.768211443713528 5.704104939600285  C 5.403973174803039 5.293737344955836  5.986756774772218 4.883370422955579  6.516558039717063 4.473003653829003  C 6.516558039717063 4.473003653829003  7.728479853576247 5.170627161344182  7.728479853576247 5.170627161344182  C 7.172188486897714 5.6357096525613155  6.562913068107298 6.09395370659263  5.900661235284099 6.545358283897096  C 5.238409402460901 6.9830829293563195  4.5629117194369995 7.386610160606579  3.8741701401396074 7.755940742016273  C 3.185428383212468 8.111592186523861  2.523180576663525 8.426207045843  1.887418845574014 8.699785289398953  C 1.887418845574014 8.699785289398953  0.894041303573921 7.59179305597409  0.894041303573921 7.59179305597409  C 1.5033128145099135 7.359251810365524  2.139072532462297 7.085674377040075  2.801324365285495 6.7710595177209365  C 3.4768211009507484 6.456444658401798  4.132449890253763 6.1007929692963225  4.768211443713528 5.704104939600285  Z " stroke-width="0" stroke-dasharray="0" stroke="rgba(121, 121, 121, 1)" fill="none" transform="matrix(1 0 0 1 1036 940 )" class="stroke" mask="url(#Clip4341)" />
    <path d="M 12.238414803720971 6.381210597854913  C 11.509937864588345 5.970843003210463  10.814575314117812 5.615191314104987  10.152323481294614 5.314256019734261  C 10.152323481294614 5.314256019734261  11.145701023294707 4.473003653829003  11.145701023294707 4.473003653829003  C 11.794707242756864 4.760260239343926  12.476824239076269 5.1022325469494065  13.19205633457676 5.498920576645443  C 13.920533273709387 5.881930692428815  14.615895824179919 6.2717793065474785  15.278147657003117 6.668467336243515  C 15.940399489826316 7.065155365939553  16.49007198728371 7.427646745795028  16.92715801458048 7.755940742016273  C 16.92715801458048 7.755940742016273  15.874172666429335 8.720303138659505  15.874172666429335 8.720303138659505  C 15.46357715533566 8.378330433582455  14.933777104194084 8.002160222572234  14.284770115003024 7.59179305597409  C 13.649008798382921 7.181425889375945  12.9668917428536 6.77789862755095  12.238414803720971 6.381210597854913  Z " stroke-width="0" stroke-dasharray="0" stroke="rgba(121, 121, 121, 1)" fill="none" transform="matrix(1 0 0 1 1036 940 )" class="stroke" mask="url(#Clip4341)" />
    <path d="M 7.927152330428591 1.8056154963421542  C 7.701986894964136 1.2858172830344639  7.470201776142204 0.8138949787683885  7.2317910825762 0.38984867526813594  C 7.2317910825762 0.38984867526813594  8.781457622858207 0  8.781457622858207 0  C 9.033113174858826 0.41036759464444944  9.278144188288898 0.8686113735031381  9.516554881854903 1.3747308779550258  C 9.768210433855524 1.8671716429763743  9.953646112223 2.28437770538138  10.072851459006003 2.6263500129868604  C 10.072851459006003 2.6263500129868604  8.443712896435384 3.1187906251345288  8.443712896435384 3.1187906251345288  C 8.337752408087 2.7631395780985093  8.165563023994595 2.325414565742454  7.927152330428591 1.8056154963421542  Z " stroke-width="0" stroke-dasharray="0" stroke="rgba(121, 121, 121, 1)" fill="none" transform="matrix(1 0 0 1 1036 940 )" class="stroke" mask="url(#Clip4341)" />
  </g>
</svg>