<?xml version="1.0" encoding="utf-8"?>
<svg version="1.1" xmlns:xlink="http://www.w3.org/1999/xlink" width="12px" height="20px" xmlns="http://www.w3.org/2000/svg">
  <defs>
    <pattern id="BGPattern" patternUnits="userSpaceOnUse" alignment="0 0" imageRepeat="None" />
    <mask fill="white" id="Clip4330">
      <path d="M 6.30507562102663 11.46067346931356  L 12 20  L 9.414037986007934 20  L 4.881352443333712 12.921348852098781  L 2.092001403956942 16.011236288301244  L 2.092001403956942 20  L 0 20  L 0 0  L 2 0  L 2 13.370786989846927  L 8.542370734359208 6.179775829140758  L 11.15738832340623 6.179775829140758  L 6.30507562102663 11.46067346931356  Z " fill-rule="evenodd" />
    </mask>
  </defs>
  <g transform="matrix(1 0 0 1 -713 -542 )">
    <path d="M 6.30507562102663 11.46067346931356  L 12 20  L 9.414037986007934 20  L 4.881352443333712 12.921348852098781  L 2.092001403956942 16.011236288301244  L 2.092001403956942 20  L 0 20  L 0 0  L 2 0  L 2 13.370786989846927  L 8.542370734359208 6.179775829140758  L 11.15738832340623 6.179775829140758  L 6.30507562102663 11.46067346931356  Z " fill-rule="nonzero" fill="rgba(255, 255, 255, 1)" stroke="none" transform="matrix(1 0 0 1 713 542 )" class="fill" />
    <path d="M 6.30507562102663 11.46067346931356  L 12 20  L 9.414037986007934 20  L 4.881352443333712 12.921348852098781  L 2.092001403956942 16.011236288301244  L 2.092001403956942 20  L 0 20  L 0 0  L 2 0  L 2 13.370786989846927  L 8.542370734359208 6.179775829140758  L 11.15738832340623 6.179775829140758  L 6.30507562102663 11.46067346931356  Z " stroke-width="0" stroke-dasharray="0" stroke="rgba(121, 121, 121, 1)" fill="none" transform="matrix(1 0 0 1 713 542 )" class="stroke" mask="url(#Clip4330)" />
  </g>
</svg>