<?xml version="1.0" encoding="utf-8"?>
<svg version="1.1" xmlns:xlink="http://www.w3.org/1999/xlink" width="11px" height="16px" xmlns="http://www.w3.org/2000/svg">
  <defs>
    <pattern id="BGPattern" patternUnits="userSpaceOnUse" alignment="0 0" imageRepeat="None" />
    <mask fill="white" id="Clip4407">
      <path d="M 11 0  L 11 1.5280891597784947  L 6.356551962813809 1.5280891597784947  L 6.356551962813809 16  L 4.643440220183642 16  L 4.643440220183642 1.5280891597784947  L 0 1.5280891597784947  L 0 0  L 11 0  Z " fill-rule="evenodd" />
    </mask>
  </defs>
  <g transform="matrix(1 0 0 1 -1593 -74 )">
    <path d="M 11 0  L 11 1.5280891597784947  L 6.356551962813809 1.5280891597784947  L 6.356551962813809 16  L 4.643440220183642 16  L 4.643440220183642 1.5280891597784947  L 0 1.5280891597784947  L 0 0  L 11 0  Z " fill-rule="nonzero" fill="rgba(255, 255, 255, 0.5019607843137255)" stroke="none" transform="matrix(1 0 0 1 1593 74 )" class="fill" />
    <path d="M 11 0  L 11 1.5280891597784947  L 6.356551962813809 1.5280891597784947  L 6.356551962813809 16  L 4.643440220183642 16  L 4.643440220183642 1.5280891597784947  L 0 1.5280891597784947  L 0 0  L 11 0  Z " stroke-width="0" stroke-dasharray="0" stroke="rgba(121, 121, 121, 1)" fill="none" transform="matrix(1 0 0 1 1593 74 )" class="stroke" mask="url(#Clip4407)" />
  </g>
</svg>