<?xml version="1.0" encoding="utf-8"?>
<svg version="1.1" xmlns:xlink="http://www.w3.org/1999/xlink" width="19px" height="18px" xmlns="http://www.w3.org/2000/svg">
  <defs>
    <pattern id="BGPattern" patternUnits="userSpaceOnUse" alignment="0 0" imageRepeat="None" />
    <mask fill="white" id="Clip4325">
      <path d="M 0.5058573278754857 13  L 0.5058573278754857 12  L 18.575081697089455 12  L 18.575081697089455 13  L 0.5058573278754857 13  Z M 4.0063891105214156 6  L 4.0063891105214156 4.626899086675857  L 16.531413769961148 4.626899086675857  L 16.531413769961148 6  L 4.0063891105214156 6  Z M 4.0063891105214156 8  L 4.0063891105214156 7  L 16.592121898069983 7  L 16.592121898069983 8  L 4.0063891105214156 8  Z M 9.328010361027198 9.956616508432933  L 9.328010361027198 2.9674623813246988  L 10.784874216544818 2.9674623813246988  L 10.784874216544818 9.956616508432933  L 9.328010361027198 9.956616508432933  Z M 8.720975392560405 18  L 8.720975392560405 10.75705002683631  L 10.238547376186862 10.75705002683631  L 10.238547376186862 18  L 8.720975392560405 18  Z M 6.738015593540933 13.724512873620261  C 7.385513079354646 13.308026917198212  7.938582898716633 12.885032473152568  8.397227011470905 12.455531316046727  C 8.397227011470905 12.455531316046727  9.591050614007862 13.021691745783533  9.591050614007862 13.021691745783533  C 9.07844870910169 13.529283961536104  8.484914955274805 14.023861267516912  7.81043837740074 14.50542316917551  C 7.1494515566169765 14.973969782876706  6.434503838082341 15.422992795544129  5.665600528451387 15.852493894467562  C 4.896697218820433 16.268979792707206  4.1143050566425705 16.639913783112124  3.3184228358599444 16.965293392930047  C 2.5225406150773173 17.303688174340554  1.7536387527157884 17.583515163589272  1.0117146557509713 17.804773357029692  C 0.8903088545473153 17.622560751095044  0.7351763691079884 17.407808557980346  0.5463229809728251 17.160520035900355  C 0.35746959283766166 16.913231513820364  0.17536390240788055 16.7180052781269  0 16.574838245152424  C 0.7554136128435462 16.37961048217079  1.5310606552646888 16.14533598258086  2.326942936350208 15.872017117315695  C 3.1228251571328345 15.585683080457942  3.8917308185766015 15.260303528822426  4.633654975844311 14.895878316953132  C 5.389068528384965 14.518437991673657  6.09051810772722 14.127983512993708  6.738015593540933 13.724512873620261  Z M 9.408941667221876 13.021691745783533  C 9.408941667221876 13.021691745783533  10.602765269758832 12.436009955035601  10.602765269758832 12.436009955035601  C 11.061408960392857 12.865511112141442  11.60773806210929 13.28850369435008  12.2417457908327 13.704989650772129  C 12.889243698766663 14.108460290145576  13.590700574758932 14.485900499060238  14.346114127299584 14.837310510245741  C 15.101527679840238 15.17570529165625  15.877170802573357 15.488068769871877  16.67305320426466 15.774402864912037  C 17.468935605955966 16.0477217301772  18.244586447459348 16.268980156347247  19 16.4381775470525  C 18.89208354884212 16.54229902161241  18.77742652325805 16.66594430084452  18.656020722054397 16.809111333818997  C 18.53461492085074 16.952278352247873  18.41995017649641 17.0954440179358  18.31203372533853 17.238611065455878  C 18.20411808073184 17.381778083884758  18.10969259272211 17.518437574699746  18.0287548567315 17.648589436081636  C 17.273341304190843 17.44034645787061  16.49094890080141 17.173535527496178  15.681577164140057 16.848155917678255  C 14.885695546386355 16.53579147945292  14.103303142996921 16.17787356246789  13.334399471548613 15.774402864912037  C 12.56549658403791 15.370932167356186  11.843807303617218 14.941431446618392  11.169330725743155 14.485899946327375  C 10.494854147869091 14.01735324535257  9.908054237157998 13.529283961536104  9.408941667221876 13.021691745783533  Z M 3.6421712169494445 1.854664279239969  C 4.100815329703717 1.203904943239313  4.478524789452767 0.5921910056516063  4.7752944101478265 0.019522524659255382  C 4.7752944101478265 0.019522524659255382  6.353566803112858 0.3123650491406019  6.353566803112858 0.3123650491406019  C 5.76002756172274 1.3405645358735134  5.031589422765984 2.401301951587894  4.168259441681034 3.494577296283742  C 3.3184190367777058 4.574837585751816  2.3067084213205433 5.5770069038467724  1.1331193338132513 6.501084726926952  C 1.0521822008515682 6.396963819645504  0.9442662170411049 6.286335013837327  0.8093709527237509 6.169198316775224  C 0.6744756431792275 6.05206161971312  0.5395788562138335 5.941431730257624  0.40468354666931 5.83731004478649  C 0.2697882371247865 5.720173347724385  0.14163665283259064 5.62906729930509  0.020230896856104248 5.563991441342153  C 0.7621549938209212 5.017353768994228  1.4366312701805217 4.425162996072248  2.043660208358047 3.7874186571169597  C 2.650689025929787 3.1496750745329556  3.1835273152552963 2.5054236152406255  3.6421712169494445 1.854664279239969  Z M 9.550588820295653 1.639913017043773  C 9.33475591797989 1.171366985166641  9.105426429271233 0.7483735302219072  8.86261482686392 0.37093262311836805  C 8.86261482686392 0.37093262311836805  10.218316479330758 0  10.218316479330758 0  C 10.474617431783845 0.364425124595684  10.717430014113162 0.7744037861334724  10.9467522664747 1.2299355773365201  C 11.189563069868685 1.6854665830770807  11.364924040048408 2.0694146105176623  11.47284049120629 2.381779659658264  C 11.47284049120629 2.381779659658264  10.036207532544774 2.8308035450617828  10.036207532544774 2.8308035450617828  C 9.941780438970527 2.5054234697846094  9.779910273643864 2.108459805292189  9.550588820295653 1.639913017043773  Z M 3.419592757680989 10.54230016101787  L 3.419592757680989 9.370932855847993  L 18.00851624110513 9.370932855847993  L 18.00851624110513 10.54230016101787  L 3.419592757680989 10.54230016101787  Z M 3.8242801637354296 2.127983348143557  L 4.411076516575856 2.127983348143557  L 17.36101947892613 2.127983348143557  L 17.36101947892613 3.3383947717134412  L 4.411076516575856 3.3383947717134412  L 4.411076516575856 11.167028397462067  L 2.893500673564268 11.167028397462067  L 2.893500673564268 3.0455534108802236  L 3.8242801637354296 2.127983348143557  Z " fill-rule="evenodd" />
    </mask>
  </defs>
  <g transform="matrix(1 0 0 1 -628 -940 )">
    <path d="M 0.5058573278754857 13  L 0.5058573278754857 12  L 18.575081697089455 12  L 18.575081697089455 13  L 0.5058573278754857 13  Z M 4.0063891105214156 6  L 4.0063891105214156 4.626899086675857  L 16.531413769961148 4.626899086675857  L 16.531413769961148 6  L 4.0063891105214156 6  Z M 4.0063891105214156 8  L 4.0063891105214156 7  L 16.592121898069983 7  L 16.592121898069983 8  L 4.0063891105214156 8  Z M 9.328010361027198 9.956616508432933  L 9.328010361027198 2.9674623813246988  L 10.784874216544818 2.9674623813246988  L 10.784874216544818 9.956616508432933  L 9.328010361027198 9.956616508432933  Z M 8.720975392560405 18  L 8.720975392560405 10.75705002683631  L 10.238547376186862 10.75705002683631  L 10.238547376186862 18  L 8.720975392560405 18  Z M 6.738015593540933 13.724512873620261  C 7.385513079354646 13.308026917198212  7.938582898716633 12.885032473152568  8.397227011470905 12.455531316046727  C 8.397227011470905 12.455531316046727  9.591050614007862 13.021691745783533  9.591050614007862 13.021691745783533  C 9.07844870910169 13.529283961536104  8.484914955274805 14.023861267516912  7.81043837740074 14.50542316917551  C 7.1494515566169765 14.973969782876706  6.434503838082341 15.422992795544129  5.665600528451387 15.852493894467562  C 4.896697218820433 16.268979792707206  4.1143050566425705 16.639913783112124  3.3184228358599444 16.965293392930047  C 2.5225406150773173 17.303688174340554  1.7536387527157884 17.583515163589272  1.0117146557509713 17.804773357029692  C 0.8903088545473153 17.622560751095044  0.7351763691079884 17.407808557980346  0.5463229809728251 17.160520035900355  C 0.35746959283766166 16.913231513820364  0.17536390240788055 16.7180052781269  0 16.574838245152424  C 0.7554136128435462 16.37961048217079  1.5310606552646888 16.14533598258086  2.326942936350208 15.872017117315695  C 3.1228251571328345 15.585683080457942  3.8917308185766015 15.260303528822426  4.633654975844311 14.895878316953132  C 5.389068528384965 14.518437991673657  6.09051810772722 14.127983512993708  6.738015593540933 13.724512873620261  Z M 9.408941667221876 13.021691745783533  C 9.408941667221876 13.021691745783533  10.602765269758832 12.436009955035601  10.602765269758832 12.436009955035601  C 11.061408960392857 12.865511112141442  11.60773806210929 13.28850369435008  12.2417457908327 13.704989650772129  C 12.889243698766663 14.108460290145576  13.590700574758932 14.485900499060238  14.346114127299584 14.837310510245741  C 15.101527679840238 15.17570529165625  15.877170802573357 15.488068769871877  16.67305320426466 15.774402864912037  C 17.468935605955966 16.0477217301772  18.244586447459348 16.268980156347247  19 16.4381775470525  C 18.89208354884212 16.54229902161241  18.77742652325805 16.66594430084452  18.656020722054397 16.809111333818997  C 18.53461492085074 16.952278352247873  18.41995017649641 17.0954440179358  18.31203372533853 17.238611065455878  C 18.20411808073184 17.381778083884758  18.10969259272211 17.518437574699746  18.0287548567315 17.648589436081636  C 17.273341304190843 17.44034645787061  16.49094890080141 17.173535527496178  15.681577164140057 16.848155917678255  C 14.885695546386355 16.53579147945292  14.103303142996921 16.17787356246789  13.334399471548613 15.774402864912037  C 12.56549658403791 15.370932167356186  11.843807303617218 14.941431446618392  11.169330725743155 14.485899946327375  C 10.494854147869091 14.01735324535257  9.908054237157998 13.529283961536104  9.408941667221876 13.021691745783533  Z M 3.6421712169494445 1.854664279239969  C 4.100815329703717 1.203904943239313  4.478524789452767 0.5921910056516063  4.7752944101478265 0.019522524659255382  C 4.7752944101478265 0.019522524659255382  6.353566803112858 0.3123650491406019  6.353566803112858 0.3123650491406019  C 5.76002756172274 1.3405645358735134  5.031589422765984 2.401301951587894  4.168259441681034 3.494577296283742  C 3.3184190367777058 4.574837585751816  2.3067084213205433 5.5770069038467724  1.1331193338132513 6.501084726926952  C 1.0521822008515682 6.396963819645504  0.9442662170411049 6.286335013837327  0.8093709527237509 6.169198316775224  C 0.6744756431792275 6.05206161971312  0.5395788562138335 5.941431730257624  0.40468354666931 5.83731004478649  C 0.2697882371247865 5.720173347724385  0.14163665283259064 5.62906729930509  0.020230896856104248 5.563991441342153  C 0.7621549938209212 5.017353768994228  1.4366312701805217 4.425162996072248  2.043660208358047 3.7874186571169597  C 2.650689025929787 3.1496750745329556  3.1835273152552963 2.5054236152406255  3.6421712169494445 1.854664279239969  Z M 9.550588820295653 1.639913017043773  C 9.33475591797989 1.171366985166641  9.105426429271233 0.7483735302219072  8.86261482686392 0.37093262311836805  C 8.86261482686392 0.37093262311836805  10.218316479330758 0  10.218316479330758 0  C 10.474617431783845 0.364425124595684  10.717430014113162 0.7744037861334724  10.9467522664747 1.2299355773365201  C 11.189563069868685 1.6854665830770807  11.364924040048408 2.0694146105176623  11.47284049120629 2.381779659658264  C 11.47284049120629 2.381779659658264  10.036207532544774 2.8308035450617828  10.036207532544774 2.8308035450617828  C 9.941780438970527 2.5054234697846094  9.779910273643864 2.108459805292189  9.550588820295653 1.639913017043773  Z M 3.419592757680989 10.54230016101787  L 3.419592757680989 9.370932855847993  L 18.00851624110513 9.370932855847993  L 18.00851624110513 10.54230016101787  L 3.419592757680989 10.54230016101787  Z M 3.8242801637354296 2.127983348143557  L 4.411076516575856 2.127983348143557  L 17.36101947892613 2.127983348143557  L 17.36101947892613 3.3383947717134412  L 4.411076516575856 3.3383947717134412  L 4.411076516575856 11.167028397462067  L 2.893500673564268 11.167028397462067  L 2.893500673564268 3.0455534108802236  L 3.8242801637354296 2.127983348143557  Z " fill-rule="nonzero" fill="rgba(255, 255, 255, 1)" stroke="none" transform="matrix(1 0 0 1 628 940 )" class="fill" />
    <path d="M 0.5058573278754857 13  L 0.5058573278754857 12  L 18.575081697089455 12  L 18.575081697089455 13  L 0.5058573278754857 13  Z " stroke-width="0" stroke-dasharray="0" stroke="rgba(121, 121, 121, 1)" fill="none" transform="matrix(1 0 0 1 628 940 )" class="stroke" mask="url(#Clip4325)" />
    <path d="M 4.0063891105214156 6  L 4.0063891105214156 4.626899086675857  L 16.531413769961148 4.626899086675857  L 16.531413769961148 6  L 4.0063891105214156 6  Z " stroke-width="0" stroke-dasharray="0" stroke="rgba(121, 121, 121, 1)" fill="none" transform="matrix(1 0 0 1 628 940 )" class="stroke" mask="url(#Clip4325)" />
    <path d="M 4.0063891105214156 8  L 4.0063891105214156 7  L 16.592121898069983 7  L 16.592121898069983 8  L 4.0063891105214156 8  Z " stroke-width="0" stroke-dasharray="0" stroke="rgba(121, 121, 121, 1)" fill="none" transform="matrix(1 0 0 1 628 940 )" class="stroke" mask="url(#Clip4325)" />
    <path d="M 9.328010361027198 9.956616508432933  L 9.328010361027198 2.9674623813246988  L 10.784874216544818 2.9674623813246988  L 10.784874216544818 9.956616508432933  L 9.328010361027198 9.956616508432933  Z " stroke-width="0" stroke-dasharray="0" stroke="rgba(121, 121, 121, 1)" fill="none" transform="matrix(1 0 0 1 628 940 )" class="stroke" mask="url(#Clip4325)" />
    <path d="M 8.720975392560405 18  L 8.720975392560405 10.75705002683631  L 10.238547376186862 10.75705002683631  L 10.238547376186862 18  L 8.720975392560405 18  Z " stroke-width="0" stroke-dasharray="0" stroke="rgba(121, 121, 121, 1)" fill="none" transform="matrix(1 0 0 1 628 940 )" class="stroke" mask="url(#Clip4325)" />
    <path d="M 6.738015593540933 13.724512873620261  C 7.385513079354646 13.308026917198212  7.938582898716633 12.885032473152568  8.397227011470905 12.455531316046727  C 8.397227011470905 12.455531316046727  9.591050614007862 13.021691745783533  9.591050614007862 13.021691745783533  C 9.07844870910169 13.529283961536104  8.484914955274805 14.023861267516912  7.81043837740074 14.50542316917551  C 7.1494515566169765 14.973969782876706  6.434503838082341 15.422992795544129  5.665600528451387 15.852493894467562  C 4.896697218820433 16.268979792707206  4.1143050566425705 16.639913783112124  3.3184228358599444 16.965293392930047  C 2.5225406150773173 17.303688174340554  1.7536387527157884 17.583515163589272  1.0117146557509713 17.804773357029692  C 0.8903088545473153 17.622560751095044  0.7351763691079884 17.407808557980346  0.5463229809728251 17.160520035900355  C 0.35746959283766166 16.913231513820364  0.17536390240788055 16.7180052781269  0 16.574838245152424  C 0.7554136128435462 16.37961048217079  1.5310606552646888 16.14533598258086  2.326942936350208 15.872017117315695  C 3.1228251571328345 15.585683080457942  3.8917308185766015 15.260303528822426  4.633654975844311 14.895878316953132  C 5.389068528384965 14.518437991673657  6.09051810772722 14.127983512993708  6.738015593540933 13.724512873620261  Z " stroke-width="0" stroke-dasharray="0" stroke="rgba(121, 121, 121, 1)" fill="none" transform="matrix(1 0 0 1 628 940 )" class="stroke" mask="url(#Clip4325)" />
    <path d="M 9.408941667221876 13.021691745783533  C 9.408941667221876 13.021691745783533  10.602765269758832 12.436009955035601  10.602765269758832 12.436009955035601  C 11.061408960392857 12.865511112141442  11.60773806210929 13.28850369435008  12.2417457908327 13.704989650772129  C 12.889243698766663 14.108460290145576  13.590700574758932 14.485900499060238  14.346114127299584 14.837310510245741  C 15.101527679840238 15.17570529165625  15.877170802573357 15.488068769871877  16.67305320426466 15.774402864912037  C 17.468935605955966 16.0477217301772  18.244586447459348 16.268980156347247  19 16.4381775470525  C 18.89208354884212 16.54229902161241  18.77742652325805 16.66594430084452  18.656020722054397 16.809111333818997  C 18.53461492085074 16.952278352247873  18.41995017649641 17.0954440179358  18.31203372533853 17.238611065455878  C 18.20411808073184 17.381778083884758  18.10969259272211 17.518437574699746  18.0287548567315 17.648589436081636  C 17.273341304190843 17.44034645787061  16.49094890080141 17.173535527496178  15.681577164140057 16.848155917678255  C 14.885695546386355 16.53579147945292  14.103303142996921 16.17787356246789  13.334399471548613 15.774402864912037  C 12.56549658403791 15.370932167356186  11.843807303617218 14.941431446618392  11.169330725743155 14.485899946327375  C 10.494854147869091 14.01735324535257  9.908054237157998 13.529283961536104  9.408941667221876 13.021691745783533  Z " stroke-width="0" stroke-dasharray="0" stroke="rgba(121, 121, 121, 1)" fill="none" transform="matrix(1 0 0 1 628 940 )" class="stroke" mask="url(#Clip4325)" />
    <path d="M 3.6421712169494445 1.854664279239969  C 4.100815329703717 1.203904943239313  4.478524789452767 0.5921910056516063  4.7752944101478265 0.019522524659255382  C 4.7752944101478265 0.019522524659255382  6.353566803112858 0.3123650491406019  6.353566803112858 0.3123650491406019  C 5.76002756172274 1.3405645358735134  5.031589422765984 2.401301951587894  4.168259441681034 3.494577296283742  C 3.3184190367777058 4.574837585751816  2.3067084213205433 5.5770069038467724  1.1331193338132513 6.501084726926952  C 1.0521822008515682 6.396963819645504  0.9442662170411049 6.286335013837327  0.8093709527237509 6.169198316775224  C 0.6744756431792275 6.05206161971312  0.5395788562138335 5.941431730257624  0.40468354666931 5.83731004478649  C 0.2697882371247865 5.720173347724385  0.14163665283259064 5.62906729930509  0.020230896856104248 5.563991441342153  C 0.7621549938209212 5.017353768994228  1.4366312701805217 4.425162996072248  2.043660208358047 3.7874186571169597  C 2.650689025929787 3.1496750745329556  3.1835273152552963 2.5054236152406255  3.6421712169494445 1.854664279239969  Z " stroke-width="0" stroke-dasharray="0" stroke="rgba(121, 121, 121, 1)" fill="none" transform="matrix(1 0 0 1 628 940 )" class="stroke" mask="url(#Clip4325)" />
    <path d="M 9.550588820295653 1.639913017043773  C 9.33475591797989 1.171366985166641  9.105426429271233 0.7483735302219072  8.86261482686392 0.37093262311836805  C 8.86261482686392 0.37093262311836805  10.218316479330758 0  10.218316479330758 0  C 10.474617431783845 0.364425124595684  10.717430014113162 0.7744037861334724  10.9467522664747 1.2299355773365201  C 11.189563069868685 1.6854665830770807  11.364924040048408 2.0694146105176623  11.47284049120629 2.381779659658264  C 11.47284049120629 2.381779659658264  10.036207532544774 2.8308035450617828  10.036207532544774 2.8308035450617828  C 9.941780438970527 2.5054234697846094  9.779910273643864 2.108459805292189  9.550588820295653 1.639913017043773  Z " stroke-width="0" stroke-dasharray="0" stroke="rgba(121, 121, 121, 1)" fill="none" transform="matrix(1 0 0 1 628 940 )" class="stroke" mask="url(#Clip4325)" />
    <path d="M 3.419592757680989 10.54230016101787  L 3.419592757680989 9.370932855847993  L 18.00851624110513 9.370932855847993  L 18.00851624110513 10.54230016101787  L 3.419592757680989 10.54230016101787  Z " stroke-width="0" stroke-dasharray="0" stroke="rgba(121, 121, 121, 1)" fill="none" transform="matrix(1 0 0 1 628 940 )" class="stroke" mask="url(#Clip4325)" />
    <path d="M 3.8242801637354296 2.127983348143557  L 4.411076516575856 2.127983348143557  L 17.36101947892613 2.127983348143557  L 17.36101947892613 3.3383947717134412  L 4.411076516575856 3.3383947717134412  L 4.411076516575856 11.167028397462067  L 2.893500673564268 11.167028397462067  L 2.893500673564268 3.0455534108802236  L 3.8242801637354296 2.127983348143557  Z " stroke-width="0" stroke-dasharray="0" stroke="rgba(121, 121, 121, 1)" fill="none" transform="matrix(1 0 0 1 628 940 )" class="stroke" mask="url(#Clip4325)" />
  </g>
</svg>