<?xml version="1.0" encoding="utf-8"?>
<svg version="1.1" xmlns:xlink="http://www.w3.org/1999/xlink" width="17px" height="20px" xmlns="http://www.w3.org/2000/svg">
  <defs>
    <pattern id="BGPattern" patternUnits="userSpaceOnUse" alignment="0 0" imageRepeat="None" />
    <mask fill="white" id="Clip4333">
      <path d="M 17 0  L 17 20  L 14.881961486749065 20  L 14.881961486749065 4.803370695143207  L 9.447536751075395 16.853933035762974  L 7.6360618391841735 16.853933035762974  L 2.1180309195920866 4.803370695143207  L 2.1180309195920866 20  L 0 20  L 0 0  L 2.1180309195920866 0  L 8.583606183918418 14.185392059819717  L 14.881961486749065 0  L 17 0  Z " fill-rule="evenodd" />
    </mask>
  </defs>
  <g transform="matrix(1 0 0 1 -664 -542 )">
    <path d="M 17 0  L 17 20  L 14.881961486749065 20  L 14.881961486749065 4.803370695143207  L 9.447536751075395 16.853933035762974  L 7.6360618391841735 16.853933035762974  L 2.1180309195920866 4.803370695143207  L 2.1180309195920866 20  L 0 20  L 0 0  L 2.1180309195920866 0  L 8.583606183918418 14.185392059819717  L 14.881961486749065 0  L 17 0  Z " fill-rule="nonzero" fill="rgba(255, 255, 255, 1)" stroke="none" transform="matrix(1 0 0 1 664 542 )" class="fill" />
    <path d="M 17 0  L 17 20  L 14.881961486749065 20  L 14.881961486749065 4.803370695143207  L 9.447536751075395 16.853933035762974  L 7.6360618391841735 16.853933035762974  L 2.1180309195920866 4.803370695143207  L 2.1180309195920866 20  L 0 20  L 0 0  L 2.1180309195920866 0  L 8.583606183918418 14.185392059819717  L 14.881961486749065 0  L 17 0  Z " stroke-width="0" stroke-dasharray="0" stroke="rgba(121, 121, 121, 1)" fill="none" transform="matrix(1 0 0 1 664 542 )" class="stroke" mask="url(#Clip4333)" />
  </g>
</svg>