<?xml version="1.0" encoding="utf-8"?>
<svg version="1.1" xmlns:xlink="http://www.w3.org/1999/xlink" width="46px" height="43px" xmlns="http://www.w3.org/2000/svg">
  <defs>
    <pattern id="BGPattern" patternUnits="userSpaceOnUse" alignment="0 0" imageRepeat="None" />
    <mask fill="white" id="Clip4294">
      <path d="M 5.4568152310005305 6  L 5.4568152310005305 0  L 16.226848095215253 0  L 16.226848095215253 6  L 5.4568152310005305 6  Z M 5.4568152310005305 16  L 5.4568152310005305 11  L 16.418316631078927 11  L 16.418316631078927 16  L 5.4568152310005305 16  Z M 24.172739075997875 21  L 24.172739075997875 17  L 40.92612184072682 17  L 40.92612184072682 21  L 24.172739075997875 21  Z M 5.408959509368865 27  L 5.408959509368865 21  L 16.226848095215253 21  L 16.226848095215253 27  L 5.408959509368865 27  Z M 3.2070789551594503 17.32340419634253  C 3.2070789551594503 17.32340419634253  3.2070789551594503 0  3.2070789551594503 0  L 8.376698990587306 0  C 8.376698990587306 0  8.376698990587306 17.32340419634253  8.376698990587306 17.32340419634253  C 8.376698990587306 19.221859063213206  8.328835185218876 21.294340484019553  8.233101392800968 23.54084562984348  C 8.16927886452236 25.787350304181064  8.009712082519446 28.065491240967855  7.754422444918948 30.375277869930823  C 7.499132807318449 32.68506473463696  7.116205721383571 34.93157105917676  6.6056264461825736 37.114794250375304  C 6.0950476464955035 39.298017441573855  5.440865542854969 41.259749666078015  4.643085365914169 43  C 4.323973437792028 42.71523167567213  3.877222634793726 42.398831096529  3.3028208313141216 42.05078105331892  C 2.7284192655914814 41.70273101010884  2.138061116771335 41.3704907292407  1.531748286909391 41.054081545471725  C 0.9573467211867505 40.76931333901544  0.446756865800873 40.547829798231035  0 40.38962526528234  C 0.7658687939230148 38.77593860486795  1.3562268238646795 37.00404823660597  1.771072544404731 35.073952392422605  C 2.1859180271878187 33.112215570926544  2.5050368502619045 31.103017047718275  2.7284152237231005 29.04635776577049  C 2.9517938349412596 26.989698483822714  3.0794412690681083 24.96468347959205  3.1113522954504482 22.971305209296958  C 3.175174823729055 20.946287376148213  3.2070789551594503 19.063654648136097  3.2070789551594503 17.32340419634253  Z M 13.019784356501475 36.6401772332532  C 13.019784356501475 36.6401772332532  13.019784356501475 0  13.019784356501475 0  L 18.332986773269997 0  C 18.332986773269997 0  18.332986773269997 36.73510063667762  18.332986773269997 36.73510063667762  C 18.332986773269997 38.032378113323034  18.20535408007489 39.092352032014055  17.95006491798832 39.915015791941805  C 17.69477575590175 40.73767955186955  17.184186019394353 41.38632052975241  16.418316631078927 41.86093424647008  C 15.652448193791358 42.33554796318775  14.727026764404766 42.636139133603706  13.642045685724163 42.762702807111296  C 12.557064607043559 42.889266480618886  11.232756417784055 42.95254961396014  9.669107803555686 42.95254961396014  C 9.637196539416383 42.44629491992978  9.54145323671993 41.845112579097865  9.38189739153734 41.149012492677706  C 9.222341070840825 40.48455332463445  9.030870157407515 39.82009533530706  8.807491783946318 39.155636108328004  C 8.616024674624427 38.49117688134895  8.392649154246794 37.92163607771977  8.137359516646296 37.447022390469996  C 9.030873486005005 37.47866330884689  9.860566829140817 37.49448786407299  10.626435266428386 37.49448786407299  C 11.424215918883112 37.49448786407299  11.966710262334832 37.49448786407299  12.25391021304678 37.49448786407299  C 12.541111114786581 37.49448786407299  12.732581552705962 37.431204730731736  12.828315820637801 37.304641057224146  C 12.955959926167159 37.178077442652345  13.019784356501475 36.95658641702217  13.019784356501475 36.6401772332532  Z M 37.62331622585837 9.1600443083133  C 37.62331622585837 9.1600443083133  37.62331622585837 0.047465473602992525  37.62331622585837 0.047465473602992525  L 43.12800239493623 0.047465473602992525  C 43.12800239493623 0.047465473602992525  43.12800239493623 9.254967711737722  43.12800239493623 9.254967711737722  C 43.12800239493623 10.520603032354577  42.95249210646881 11.517294996420214  42.601467725422545 12.245036060153062  C 42.28235603505737 12.941136618059566  41.62817440693076 13.479027103052793  40.63892664515414 13.858718830805085  C 39.68159157405861 14.206768166785643  38.50087527641831 14.428259251351609  37.09678155634467 14.523182654776031  C 35.72460052695213 14.586463666428715  34.12903636895911 14.61810605820045  32.310098592644174 14.61810605820045  C 32.214364324712335 13.858724488641258  31.990988804334705 13.036058135538598  31.639966325344147 12.150112656728641  C 31.32085273292326 11.264167177918683  30.98579040338467 10.488960640582844  30.63476792439411 9.82450058850268  C 31.43254715030706 9.856141094329024  32.24628081950484 9.887789143936931  33.07597273609887 9.919431535708666  C 33.90566465269289 9.951072041535008  34.63961469313225 9.966889465530095  35.27783807386261 9.966889465530095  C 35.94797414527405 9.93524895970375  36.39474040247499 9.919431535708666  36.61811782490833 9.919431535708666  C 37.001052994579965 9.887789143936931  37.25633169536014 9.824506246338855  37.38397675191736 9.729584728859823  C 37.54353259709994 9.634661325435404  37.62331622585837 9.444812632641172  37.62331622585837 9.1600443083133  Z M 39.34651783218576 17.560708933012798  C 39.34651783218576 17.560708933012798  39.34651783218576 16.611482442550155  39.34651783218576 16.611482442550155  L 40.303860511504126 16.611482442550155  L 41.21331703629949 16.421635635701314  C 41.21331703629949 16.421635635701314  44.611864527322616 17.51325100319137  44.611864527322616 17.51325100319137  C 43.9098176672858 21.62656956708694  42.856748328258426 25.31273423003165  41.4526565102405 28.571748292429955  C 40.08047548084795 31.79912161325874  38.37322451369398 34.59934433354111  36.330907412889985 36.97241291712945  C 34.288590312085994 39.3454815007178  31.959078015709323 41.30721372522197  29.342359111425733 42.85761866675415  C 28.991336632435175 42.224800299216206  28.48076211237345 41.48124228297461  27.810626040962013 40.62693754573418  C 27.17240266023165 39.80427378580643  26.58204451141151 39.15563280792357  26.039553496557282 38.6810190912059  C 28.273337231169236 37.51030528806807  30.29969037840985 35.88079825686892  32.118630056780496 33.79249776186527  C 33.93756783309544 31.704197266861623  35.45334836233003 29.267848378850115  36.665973546539995 26.483448504655833  C 37.91051142143104 23.6990472160025  38.80402871938724 20.724800063473026  39.34651783218576 17.560708933012798  Z M 26.566088166070966 21.26269903522051  C 26.566088166070966 21.26269903522051  31.065560717753126 20.076160264306036  31.065560717753126 20.076160264306036  C 31.895252634347155 22.765638149534944  33.01214545268099 25.312735644490697  34.416237270698915 27.71744520539173  C 35.85224177939793 30.090513788980076  37.52758766409366 32.22627103508929  39.44225970834043 34.12472590195996  C 41.38884254121258 35.991539791517944  43.574747729524375 37.478663721397446  46 38.58609568778147  C 45.39368550583931 39.06070940449914  44.73950387771271 39.740991949052635  44.03745891973159 40.62693754573418  C 43.33541205969478 41.5128832602873  42.79293435923051 42.28809050485267  42.409999189558874 42.95254961396014  C 39.82519297595636 41.59199030056092  37.527583859982236 39.83590934102612  35.51717754780362 37.684327127140264  C 33.53868392630609 35.501103935941714  31.7995145623039 33.03311383487434  30.29968657429843 30.2803544665064  C 28.831771276974045 27.495953649339416  27.58724481441725 24.490072120306124  26.566088166070966 21.26269903522051  Z M 21 42.95254961396014  L 21 0  L 39.01145169853575 0  L 39.01145169853575 6  L 26 6  L 26 42.95254961396014  L 21 42.95254961396014  Z " fill-rule="evenodd" />
    </mask>
  </defs>
  <g transform="matrix(1 0 0 1 -333 -257 )">
    <path d="M 5.4568152310005305 6  L 5.4568152310005305 0  L 16.226848095215253 0  L 16.226848095215253 6  L 5.4568152310005305 6  Z M 5.4568152310005305 16  L 5.4568152310005305 11  L 16.418316631078927 11  L 16.418316631078927 16  L 5.4568152310005305 16  Z M 24.172739075997875 21  L 24.172739075997875 17  L 40.92612184072682 17  L 40.92612184072682 21  L 24.172739075997875 21  Z M 5.408959509368865 27  L 5.408959509368865 21  L 16.226848095215253 21  L 16.226848095215253 27  L 5.408959509368865 27  Z M 3.2070789551594503 17.32340419634253  C 3.2070789551594503 17.32340419634253  3.2070789551594503 0  3.2070789551594503 0  L 8.376698990587306 0  C 8.376698990587306 0  8.376698990587306 17.32340419634253  8.376698990587306 17.32340419634253  C 8.376698990587306 19.221859063213206  8.328835185218876 21.294340484019553  8.233101392800968 23.54084562984348  C 8.16927886452236 25.787350304181064  8.009712082519446 28.065491240967855  7.754422444918948 30.375277869930823  C 7.499132807318449 32.68506473463696  7.116205721383571 34.93157105917676  6.6056264461825736 37.114794250375304  C 6.0950476464955035 39.298017441573855  5.440865542854969 41.259749666078015  4.643085365914169 43  C 4.323973437792028 42.71523167567213  3.877222634793726 42.398831096529  3.3028208313141216 42.05078105331892  C 2.7284192655914814 41.70273101010884  2.138061116771335 41.3704907292407  1.531748286909391 41.054081545471725  C 0.9573467211867505 40.76931333901544  0.446756865800873 40.547829798231035  0 40.38962526528234  C 0.7658687939230148 38.77593860486795  1.3562268238646795 37.00404823660597  1.771072544404731 35.073952392422605  C 2.1859180271878187 33.112215570926544  2.5050368502619045 31.103017047718275  2.7284152237231005 29.04635776577049  C 2.9517938349412596 26.989698483822714  3.0794412690681083 24.96468347959205  3.1113522954504482 22.971305209296958  C 3.175174823729055 20.946287376148213  3.2070789551594503 19.063654648136097  3.2070789551594503 17.32340419634253  Z M 13.019784356501475 36.6401772332532  C 13.019784356501475 36.6401772332532  13.019784356501475 0  13.019784356501475 0  L 18.332986773269997 0  C 18.332986773269997 0  18.332986773269997 36.73510063667762  18.332986773269997 36.73510063667762  C 18.332986773269997 38.032378113323034  18.20535408007489 39.092352032014055  17.95006491798832 39.915015791941805  C 17.69477575590175 40.73767955186955  17.184186019394353 41.38632052975241  16.418316631078927 41.86093424647008  C 15.652448193791358 42.33554796318775  14.727026764404766 42.636139133603706  13.642045685724163 42.762702807111296  C 12.557064607043559 42.889266480618886  11.232756417784055 42.95254961396014  9.669107803555686 42.95254961396014  C 9.637196539416383 42.44629491992978  9.54145323671993 41.845112579097865  9.38189739153734 41.149012492677706  C 9.222341070840825 40.48455332463445  9.030870157407515 39.82009533530706  8.807491783946318 39.155636108328004  C 8.616024674624427 38.49117688134895  8.392649154246794 37.92163607771977  8.137359516646296 37.447022390469996  C 9.030873486005005 37.47866330884689  9.860566829140817 37.49448786407299  10.626435266428386 37.49448786407299  C 11.424215918883112 37.49448786407299  11.966710262334832 37.49448786407299  12.25391021304678 37.49448786407299  C 12.541111114786581 37.49448786407299  12.732581552705962 37.431204730731736  12.828315820637801 37.304641057224146  C 12.955959926167159 37.178077442652345  13.019784356501475 36.95658641702217  13.019784356501475 36.6401772332532  Z M 37.62331622585837 9.1600443083133  C 37.62331622585837 9.1600443083133  37.62331622585837 0.047465473602992525  37.62331622585837 0.047465473602992525  L 43.12800239493623 0.047465473602992525  C 43.12800239493623 0.047465473602992525  43.12800239493623 9.254967711737722  43.12800239493623 9.254967711737722  C 43.12800239493623 10.520603032354577  42.95249210646881 11.517294996420214  42.601467725422545 12.245036060153062  C 42.28235603505737 12.941136618059566  41.62817440693076 13.479027103052793  40.63892664515414 13.858718830805085  C 39.68159157405861 14.206768166785643  38.50087527641831 14.428259251351609  37.09678155634467 14.523182654776031  C 35.72460052695213 14.586463666428715  34.12903636895911 14.61810605820045  32.310098592644174 14.61810605820045  C 32.214364324712335 13.858724488641258  31.990988804334705 13.036058135538598  31.639966325344147 12.150112656728641  C 31.32085273292326 11.264167177918683  30.98579040338467 10.488960640582844  30.63476792439411 9.82450058850268  C 31.43254715030706 9.856141094329024  32.24628081950484 9.887789143936931  33.07597273609887 9.919431535708666  C 33.90566465269289 9.951072041535008  34.63961469313225 9.966889465530095  35.27783807386261 9.966889465530095  C 35.94797414527405 9.93524895970375  36.39474040247499 9.919431535708666  36.61811782490833 9.919431535708666  C 37.001052994579965 9.887789143936931  37.25633169536014 9.824506246338855  37.38397675191736 9.729584728859823  C 37.54353259709994 9.634661325435404  37.62331622585837 9.444812632641172  37.62331622585837 9.1600443083133  Z M 39.34651783218576 17.560708933012798  C 39.34651783218576 17.560708933012798  39.34651783218576 16.611482442550155  39.34651783218576 16.611482442550155  L 40.303860511504126 16.611482442550155  L 41.21331703629949 16.421635635701314  C 41.21331703629949 16.421635635701314  44.611864527322616 17.51325100319137  44.611864527322616 17.51325100319137  C 43.9098176672858 21.62656956708694  42.856748328258426 25.31273423003165  41.4526565102405 28.571748292429955  C 40.08047548084795 31.79912161325874  38.37322451369398 34.59934433354111  36.330907412889985 36.97241291712945  C 34.288590312085994 39.3454815007178  31.959078015709323 41.30721372522197  29.342359111425733 42.85761866675415  C 28.991336632435175 42.224800299216206  28.48076211237345 41.48124228297461  27.810626040962013 40.62693754573418  C 27.17240266023165 39.80427378580643  26.58204451141151 39.15563280792357  26.039553496557282 38.6810190912059  C 28.273337231169236 37.51030528806807  30.29969037840985 35.88079825686892  32.118630056780496 33.79249776186527  C 33.93756783309544 31.704197266861623  35.45334836233003 29.267848378850115  36.665973546539995 26.483448504655833  C 37.91051142143104 23.6990472160025  38.80402871938724 20.724800063473026  39.34651783218576 17.560708933012798  Z M 26.566088166070966 21.26269903522051  C 26.566088166070966 21.26269903522051  31.065560717753126 20.076160264306036  31.065560717753126 20.076160264306036  C 31.895252634347155 22.765638149534944  33.01214545268099 25.312735644490697  34.416237270698915 27.71744520539173  C 35.85224177939793 30.090513788980076  37.52758766409366 32.22627103508929  39.44225970834043 34.12472590195996  C 41.38884254121258 35.991539791517944  43.574747729524375 37.478663721397446  46 38.58609568778147  C 45.39368550583931 39.06070940449914  44.73950387771271 39.740991949052635  44.03745891973159 40.62693754573418  C 43.33541205969478 41.5128832602873  42.79293435923051 42.28809050485267  42.409999189558874 42.95254961396014  C 39.82519297595636 41.59199030056092  37.527583859982236 39.83590934102612  35.51717754780362 37.684327127140264  C 33.53868392630609 35.501103935941714  31.7995145623039 33.03311383487434  30.29968657429843 30.2803544665064  C 28.831771276974045 27.495953649339416  27.58724481441725 24.490072120306124  26.566088166070966 21.26269903522051  Z M 21 42.95254961396014  L 21 0  L 39.01145169853575 0  L 39.01145169853575 6  L 26 6  L 26 42.95254961396014  L 21 42.95254961396014  Z " fill-rule="nonzero" fill="rgba(255, 255, 255, 1)" stroke="none" transform="matrix(1 0 0 1 333 257 )" class="fill" />
    <path d="M 5.4568152310005305 6  L 5.4568152310005305 0  L 16.226848095215253 0  L 16.226848095215253 6  L 5.4568152310005305 6  Z " stroke-width="0" stroke-dasharray="0" stroke="rgba(121, 121, 121, 1)" fill="none" transform="matrix(1 0 0 1 333 257 )" class="stroke" mask="url(#Clip4294)" />
    <path d="M 5.4568152310005305 16  L 5.4568152310005305 11  L 16.418316631078927 11  L 16.418316631078927 16  L 5.4568152310005305 16  Z " stroke-width="0" stroke-dasharray="0" stroke="rgba(121, 121, 121, 1)" fill="none" transform="matrix(1 0 0 1 333 257 )" class="stroke" mask="url(#Clip4294)" />
    <path d="M 24.172739075997875 21  L 24.172739075997875 17  L 40.92612184072682 17  L 40.92612184072682 21  L 24.172739075997875 21  Z " stroke-width="0" stroke-dasharray="0" stroke="rgba(121, 121, 121, 1)" fill="none" transform="matrix(1 0 0 1 333 257 )" class="stroke" mask="url(#Clip4294)" />
    <path d="M 5.408959509368865 27  L 5.408959509368865 21  L 16.226848095215253 21  L 16.226848095215253 27  L 5.408959509368865 27  Z " stroke-width="0" stroke-dasharray="0" stroke="rgba(121, 121, 121, 1)" fill="none" transform="matrix(1 0 0 1 333 257 )" class="stroke" mask="url(#Clip4294)" />
    <path d="M 3.2070789551594503 17.32340419634253  C 3.2070789551594503 17.32340419634253  3.2070789551594503 0  3.2070789551594503 0  L 8.376698990587306 0  C 8.376698990587306 0  8.376698990587306 17.32340419634253  8.376698990587306 17.32340419634253  C 8.376698990587306 19.221859063213206  8.328835185218876 21.294340484019553  8.233101392800968 23.54084562984348  C 8.16927886452236 25.787350304181064  8.009712082519446 28.065491240967855  7.754422444918948 30.375277869930823  C 7.499132807318449 32.68506473463696  7.116205721383571 34.93157105917676  6.6056264461825736 37.114794250375304  C 6.0950476464955035 39.298017441573855  5.440865542854969 41.259749666078015  4.643085365914169 43  C 4.323973437792028 42.71523167567213  3.877222634793726 42.398831096529  3.3028208313141216 42.05078105331892  C 2.7284192655914814 41.70273101010884  2.138061116771335 41.3704907292407  1.531748286909391 41.054081545471725  C 0.9573467211867505 40.76931333901544  0.446756865800873 40.547829798231035  0 40.38962526528234  C 0.7658687939230148 38.77593860486795  1.3562268238646795 37.00404823660597  1.771072544404731 35.073952392422605  C 2.1859180271878187 33.112215570926544  2.5050368502619045 31.103017047718275  2.7284152237231005 29.04635776577049  C 2.9517938349412596 26.989698483822714  3.0794412690681083 24.96468347959205  3.1113522954504482 22.971305209296958  C 3.175174823729055 20.946287376148213  3.2070789551594503 19.063654648136097  3.2070789551594503 17.32340419634253  Z " stroke-width="0" stroke-dasharray="0" stroke="rgba(121, 121, 121, 1)" fill="none" transform="matrix(1 0 0 1 333 257 )" class="stroke" mask="url(#Clip4294)" />
    <path d="M 13.019784356501475 36.6401772332532  C 13.019784356501475 36.6401772332532  13.019784356501475 0  13.019784356501475 0  L 18.332986773269997 0  C 18.332986773269997 0  18.332986773269997 36.73510063667762  18.332986773269997 36.73510063667762  C 18.332986773269997 38.032378113323034  18.20535408007489 39.092352032014055  17.95006491798832 39.915015791941805  C 17.69477575590175 40.73767955186955  17.184186019394353 41.38632052975241  16.418316631078927 41.86093424647008  C 15.652448193791358 42.33554796318775  14.727026764404766 42.636139133603706  13.642045685724163 42.762702807111296  C 12.557064607043559 42.889266480618886  11.232756417784055 42.95254961396014  9.669107803555686 42.95254961396014  C 9.637196539416383 42.44629491992978  9.54145323671993 41.845112579097865  9.38189739153734 41.149012492677706  C 9.222341070840825 40.48455332463445  9.030870157407515 39.82009533530706  8.807491783946318 39.155636108328004  C 8.616024674624427 38.49117688134895  8.392649154246794 37.92163607771977  8.137359516646296 37.447022390469996  C 9.030873486005005 37.47866330884689  9.860566829140817 37.49448786407299  10.626435266428386 37.49448786407299  C 11.424215918883112 37.49448786407299  11.966710262334832 37.49448786407299  12.25391021304678 37.49448786407299  C 12.541111114786581 37.49448786407299  12.732581552705962 37.431204730731736  12.828315820637801 37.304641057224146  C 12.955959926167159 37.178077442652345  13.019784356501475 36.95658641702217  13.019784356501475 36.6401772332532  Z " stroke-width="0" stroke-dasharray="0" stroke="rgba(121, 121, 121, 1)" fill="none" transform="matrix(1 0 0 1 333 257 )" class="stroke" mask="url(#Clip4294)" />
    <path d="M 37.62331622585837 9.1600443083133  C 37.62331622585837 9.1600443083133  37.62331622585837 0.047465473602992525  37.62331622585837 0.047465473602992525  L 43.12800239493623 0.047465473602992525  C 43.12800239493623 0.047465473602992525  43.12800239493623 9.254967711737722  43.12800239493623 9.254967711737722  C 43.12800239493623 10.520603032354577  42.95249210646881 11.517294996420214  42.601467725422545 12.245036060153062  C 42.28235603505737 12.941136618059566  41.62817440693076 13.479027103052793  40.63892664515414 13.858718830805085  C 39.68159157405861 14.206768166785643  38.50087527641831 14.428259251351609  37.09678155634467 14.523182654776031  C 35.72460052695213 14.586463666428715  34.12903636895911 14.61810605820045  32.310098592644174 14.61810605820045  C 32.214364324712335 13.858724488641258  31.990988804334705 13.036058135538598  31.639966325344147 12.150112656728641  C 31.32085273292326 11.264167177918683  30.98579040338467 10.488960640582844  30.63476792439411 9.82450058850268  C 31.43254715030706 9.856141094329024  32.24628081950484 9.887789143936931  33.07597273609887 9.919431535708666  C 33.90566465269289 9.951072041535008  34.63961469313225 9.966889465530095  35.27783807386261 9.966889465530095  C 35.94797414527405 9.93524895970375  36.39474040247499 9.919431535708666  36.61811782490833 9.919431535708666  C 37.001052994579965 9.887789143936931  37.25633169536014 9.824506246338855  37.38397675191736 9.729584728859823  C 37.54353259709994 9.634661325435404  37.62331622585837 9.444812632641172  37.62331622585837 9.1600443083133  Z " stroke-width="0" stroke-dasharray="0" stroke="rgba(121, 121, 121, 1)" fill="none" transform="matrix(1 0 0 1 333 257 )" class="stroke" mask="url(#Clip4294)" />
    <path d="M 39.34651783218576 17.560708933012798  C 39.34651783218576 17.560708933012798  39.34651783218576 16.611482442550155  39.34651783218576 16.611482442550155  L 40.303860511504126 16.611482442550155  L 41.21331703629949 16.421635635701314  C 41.21331703629949 16.421635635701314  44.611864527322616 17.51325100319137  44.611864527322616 17.51325100319137  C 43.9098176672858 21.62656956708694  42.856748328258426 25.31273423003165  41.4526565102405 28.571748292429955  C 40.08047548084795 31.79912161325874  38.37322451369398 34.59934433354111  36.330907412889985 36.97241291712945  C 34.288590312085994 39.3454815007178  31.959078015709323 41.30721372522197  29.342359111425733 42.85761866675415  C 28.991336632435175 42.224800299216206  28.48076211237345 41.48124228297461  27.810626040962013 40.62693754573418  C 27.17240266023165 39.80427378580643  26.58204451141151 39.15563280792357  26.039553496557282 38.6810190912059  C 28.273337231169236 37.51030528806807  30.29969037840985 35.88079825686892  32.118630056780496 33.79249776186527  C 33.93756783309544 31.704197266861623  35.45334836233003 29.267848378850115  36.665973546539995 26.483448504655833  C 37.91051142143104 23.6990472160025  38.80402871938724 20.724800063473026  39.34651783218576 17.560708933012798  Z " stroke-width="0" stroke-dasharray="0" stroke="rgba(121, 121, 121, 1)" fill="none" transform="matrix(1 0 0 1 333 257 )" class="stroke" mask="url(#Clip4294)" />
    <path d="M 26.566088166070966 21.26269903522051  C 26.566088166070966 21.26269903522051  31.065560717753126 20.076160264306036  31.065560717753126 20.076160264306036  C 31.895252634347155 22.765638149534944  33.01214545268099 25.312735644490697  34.416237270698915 27.71744520539173  C 35.85224177939793 30.090513788980076  37.52758766409366 32.22627103508929  39.44225970834043 34.12472590195996  C 41.38884254121258 35.991539791517944  43.574747729524375 37.478663721397446  46 38.58609568778147  C 45.39368550583931 39.06070940449914  44.73950387771271 39.740991949052635  44.03745891973159 40.62693754573418  C 43.33541205969478 41.5128832602873  42.79293435923051 42.28809050485267  42.409999189558874 42.95254961396014  C 39.82519297595636 41.59199030056092  37.527583859982236 39.83590934102612  35.51717754780362 37.684327127140264  C 33.53868392630609 35.501103935941714  31.7995145623039 33.03311383487434  30.29968657429843 30.2803544665064  C 28.831771276974045 27.495953649339416  27.58724481441725 24.490072120306124  26.566088166070966 21.26269903522051  Z " stroke-width="0" stroke-dasharray="0" stroke="rgba(121, 121, 121, 1)" fill="none" transform="matrix(1 0 0 1 333 257 )" class="stroke" mask="url(#Clip4294)" />
    <path d="M 21 42.95254961396014  L 21 0  L 39.01145169853575 0  L 39.01145169853575 6  L 26 6  L 26 42.95254961396014  L 21 42.95254961396014  Z " stroke-width="0" stroke-dasharray="0" stroke="rgba(121, 121, 121, 1)" fill="none" transform="matrix(1 0 0 1 333 257 )" class="stroke" mask="url(#Clip4294)" />
  </g>
</svg>