<?xml version="1.0" encoding="utf-8"?>
<svg version="1.1" xmlns:xlink="http://www.w3.org/1999/xlink" width="3px" height="11px" xmlns="http://www.w3.org/2000/svg">
  <defs>
    <pattern id="BGPattern" patternUnits="userSpaceOnUse" alignment="0 0" imageRepeat="None" />
    <mask fill="white" id="Clip4321">
      <path d="M 3 0  L 3 2.6177197180366036  L 0 2.6177197180366036  L 0 0  L 3 0  Z M 3 8.382278384961952  L 3 11  L 0 11  L 0 8.382278384961952  L 3 8.382278384961952  Z " fill-rule="evenodd" />
    </mask>
  </defs>
  <g transform="matrix(1 0 0 1 -196 -551 )">
    <path d="M 3 0  L 3 2.6177197180366036  L 0 2.6177197180366036  L 0 0  L 3 0  Z M 3 8.382278384961952  L 3 11  L 0 11  L 0 8.382278384961952  L 3 8.382278384961952  Z " fill-rule="nonzero" fill="rgba(255, 255, 255, 1)" stroke="none" transform="matrix(1 0 0 1 196 551 )" class="fill" />
    <path d="M 3 0  L 3 2.6177197180366036  L 0 2.6177197180366036  L 0 0  L 3 0  Z " stroke-width="0" stroke-dasharray="0" stroke="rgba(121, 121, 121, 1)" fill="none" transform="matrix(1 0 0 1 196 551 )" class="stroke" mask="url(#Clip4321)" />
    <path d="M 3 8.382278384961952  L 3 11  L 0 11  L 0 8.382278384961952  L 3 8.382278384961952  Z " stroke-width="0" stroke-dasharray="0" stroke="rgba(121, 121, 121, 1)" fill="none" transform="matrix(1 0 0 1 196 551 )" class="stroke" mask="url(#Clip4321)" />
  </g>
</svg>