<?xml version="1.0" encoding="utf-8"?>
<svg version="1.1" xmlns:xlink="http://www.w3.org/1999/xlink" width="11px" height="14px" xmlns="http://www.w3.org/2000/svg">
  <defs>
    <pattern id="BGPattern" patternUnits="userSpaceOnUse" alignment="0 0" imageRepeat="None" />
    <mask fill="white" id="Clip4359">
      <path d="M 7.032334153932913 6.138888828818698  C 9.38557185646195 6.361110681233808  11 7.277778468584971  11 9.833334324491481  C 11 12.472223389836556  8.783572954002592 14  5.527348198115152 14  C 3.2562000582576 14  1.4776144580518171 13.472223322257591  0 12.027778738900832  C 0 12.027778738900832  1.31342927479964 10.694445495672785  1.31342927479964 10.694445495672785  C 2.38059533700276 11.833334425859928  3.8308428407205373 12.277777657637396  5.5 12.277777657637396  C 7.716421687077726 12.277777657637396  9.084582307583858 11.472223339152332  9.084582307583858 9.861111982128877  C 9.084582307583858 8.666667500140566  8.400511666685873 7.999999932421035  6.840807296467807 7.861111171181301  C 6.840807296467807 7.861111171181301  4.624380483466907 7.6666675677195295  4.624380483466907 7.6666675677195295  C 1.99751028404223 7.444445715304419  0.6019884176165017 6.249999932421035  0.6019884176165017 3.9999997296841414  C 0.6019884176165017 1.4999987159996713  2.6815870993476776 0  5.554726219783319 0  C 7.4701525330702525 0  9.194029504729066 0.4722211259412398  10.398011582383498 1.4722215314150278  C 10.398011582383498 1.4722215314150278  9.111960329252025 2.777777117005679  9.111960329252025 2.777777117005679  C 8.154247405605066 2.027777640742655  6.922872860498975 1.6944446847252077  5.527348198115152 1.6944446847252077  C 3.557195898041406 1.6944446847252077  2.5174061100326433 2.5555551463273805  2.5174061100326433 3.9444444144093493  C 2.5174061100326433 5.111111002233891  3.1741131750459552 5.805556464117191  4.870633560715332 5.944445225356925  C 4.870633560715332 5.944445225356925  7.032334153932913 6.138888828818698  7.032334153932913 6.138888828818698  Z " fill-rule="evenodd" />
    </mask>
  </defs>
  <g transform="matrix(1 0 0 1 -1694 -548 )">
    <path d="M 7.032334153932913 6.138888828818698  C 9.38557185646195 6.361110681233808  11 7.277778468584971  11 9.833334324491481  C 11 12.472223389836556  8.783572954002592 14  5.527348198115152 14  C 3.2562000582576 14  1.4776144580518171 13.472223322257591  0 12.027778738900832  C 0 12.027778738900832  1.31342927479964 10.694445495672785  1.31342927479964 10.694445495672785  C 2.38059533700276 11.833334425859928  3.8308428407205373 12.277777657637396  5.5 12.277777657637396  C 7.716421687077726 12.277777657637396  9.084582307583858 11.472223339152332  9.084582307583858 9.861111982128877  C 9.084582307583858 8.666667500140566  8.400511666685873 7.999999932421035  6.840807296467807 7.861111171181301  C 6.840807296467807 7.861111171181301  4.624380483466907 7.6666675677195295  4.624380483466907 7.6666675677195295  C 1.99751028404223 7.444445715304419  0.6019884176165017 6.249999932421035  0.6019884176165017 3.9999997296841414  C 0.6019884176165017 1.4999987159996713  2.6815870993476776 0  5.554726219783319 0  C 7.4701525330702525 0  9.194029504729066 0.4722211259412398  10.398011582383498 1.4722215314150278  C 10.398011582383498 1.4722215314150278  9.111960329252025 2.777777117005679  9.111960329252025 2.777777117005679  C 8.154247405605066 2.027777640742655  6.922872860498975 1.6944446847252077  5.527348198115152 1.6944446847252077  C 3.557195898041406 1.6944446847252077  2.5174061100326433 2.5555551463273805  2.5174061100326433 3.9444444144093493  C 2.5174061100326433 5.111111002233891  3.1741131750459552 5.805556464117191  4.870633560715332 5.944445225356925  C 4.870633560715332 5.944445225356925  7.032334153932913 6.138888828818698  7.032334153932913 6.138888828818698  Z " fill-rule="nonzero" fill="rgba(255, 255, 255, 1)" stroke="none" transform="matrix(1 0 0 1 1694 548 )" class="fill" />
    <path d="M 7.032334153932913 6.138888828818698  C 9.38557185646195 6.361110681233808  11 7.277778468584971  11 9.833334324491481  C 11 12.472223389836556  8.783572954002592 14  5.527348198115152 14  C 3.2562000582576 14  1.4776144580518171 13.472223322257591  0 12.027778738900832  C 0 12.027778738900832  1.31342927479964 10.694445495672785  1.31342927479964 10.694445495672785  C 2.38059533700276 11.833334425859928  3.8308428407205373 12.277777657637396  5.5 12.277777657637396  C 7.716421687077726 12.277777657637396  9.084582307583858 11.472223339152332  9.084582307583858 9.861111982128877  C 9.084582307583858 8.666667500140566  8.400511666685873 7.999999932421035  6.840807296467807 7.861111171181301  C 6.840807296467807 7.861111171181301  4.624380483466907 7.6666675677195295  4.624380483466907 7.6666675677195295  C 1.99751028404223 7.444445715304419  0.6019884176165017 6.249999932421035  0.6019884176165017 3.9999997296841414  C 0.6019884176165017 1.4999987159996713  2.6815870993476776 0  5.554726219783319 0  C 7.4701525330702525 0  9.194029504729066 0.4722211259412398  10.398011582383498 1.4722215314150278  C 10.398011582383498 1.4722215314150278  9.111960329252025 2.777777117005679  9.111960329252025 2.777777117005679  C 8.154247405605066 2.027777640742655  6.922872860498975 1.6944446847252077  5.527348198115152 1.6944446847252077  C 3.557195898041406 1.6944446847252077  2.5174061100326433 2.5555551463273805  2.5174061100326433 3.9444444144093493  C 2.5174061100326433 5.111111002233891  3.1741131750459552 5.805556464117191  4.870633560715332 5.944445225356925  C 4.870633560715332 5.944445225356925  7.032334153932913 6.138888828818698  7.032334153932913 6.138888828818698  Z " stroke-width="0" stroke-dasharray="0" stroke="rgba(121, 121, 121, 1)" fill="none" transform="matrix(1 0 0 1 1694 548 )" class="stroke" mask="url(#Clip4359)" />
  </g>
</svg>