<?xml version="1.0" encoding="utf-8"?>
<svg version="1.1" xmlns:xlink="http://www.w3.org/1999/xlink" width="7px" height="18px" xmlns="http://www.w3.org/2000/svg">
  <defs>
    <pattern id="BGPattern" patternUnits="userSpaceOnUse" alignment="0 0" imageRepeat="None" />
    <mask fill="white" id="Clip4363">
      <path d="M 7 16.264385603098372  L 7 18  C 7 18  5.50627040732566 18  5.50627040732566 18  C 3.0460252172981157 18  1.8158871600299156 16.34836776762976  1.8158871600299156 14.304821945654545  C 1.8158871600299156 14.304821945654545  1.8158871600299156 5.850699221688601  1.8158871600299156 5.850699221688601  L 0 5.850699221688601  L 0 4.311041381223846  L 1.8158871600299156 4.311041381223846  L 1.8158871600299156 0  L 3.924691267944765 0  L 3.924691267944765 4.311041381223846  L 7 4.311041381223846  L 7 5.850699221688601  L 3.924691267944765 5.850699221688601  C 3.924691267944765 5.850699221688601  3.924691267944765 14.248832723594095  3.924691267944765 14.248832723594095  C 3.924691267944765 15.508552796553042  4.539727875722807 16.264385603098372  5.88700497984349 16.264385603098372  C 5.88700497984349 16.264385603098372  7 16.264385603098372  7 16.264385603098372  Z " fill-rule="evenodd" />
    </mask>
  </defs>
  <g transform="matrix(1 0 0 1 -1643 -544 )">
    <path d="M 7 16.264385603098372  L 7 18  C 7 18  5.50627040732566 18  5.50627040732566 18  C 3.0460252172981157 18  1.8158871600299156 16.34836776762976  1.8158871600299156 14.304821945654545  C 1.8158871600299156 14.304821945654545  1.8158871600299156 5.850699221688601  1.8158871600299156 5.850699221688601  L 0 5.850699221688601  L 0 4.311041381223846  L 1.8158871600299156 4.311041381223846  L 1.8158871600299156 0  L 3.924691267944765 0  L 3.924691267944765 4.311041381223846  L 7 4.311041381223846  L 7 5.850699221688601  L 3.924691267944765 5.850699221688601  C 3.924691267944765 5.850699221688601  3.924691267944765 14.248832723594095  3.924691267944765 14.248832723594095  C 3.924691267944765 15.508552796553042  4.539727875722807 16.264385603098372  5.88700497984349 16.264385603098372  C 5.88700497984349 16.264385603098372  7 16.264385603098372  7 16.264385603098372  Z " fill-rule="nonzero" fill="rgba(255, 255, 255, 1)" stroke="none" transform="matrix(1 0 0 1 1643 544 )" class="fill" />
    <path d="M 7 16.264385603098372  L 7 18  C 7 18  5.50627040732566 18  5.50627040732566 18  C 3.0460252172981157 18  1.8158871600299156 16.34836776762976  1.8158871600299156 14.304821945654545  C 1.8158871600299156 14.304821945654545  1.8158871600299156 5.850699221688601  1.8158871600299156 5.850699221688601  L 0 5.850699221688601  L 0 4.311041381223846  L 1.8158871600299156 4.311041381223846  L 1.8158871600299156 0  L 3.924691267944765 0  L 3.924691267944765 4.311041381223846  L 7 4.311041381223846  L 7 5.850699221688601  L 3.924691267944765 5.850699221688601  C 3.924691267944765 5.850699221688601  3.924691267944765 14.248832723594095  3.924691267944765 14.248832723594095  C 3.924691267944765 15.508552796553042  4.539727875722807 16.264385603098372  5.88700497984349 16.264385603098372  C 5.88700497984349 16.264385603098372  7 16.264385603098372  7 16.264385603098372  Z " stroke-width="0" stroke-dasharray="0" stroke="rgba(121, 121, 121, 1)" fill="none" transform="matrix(1 0 0 1 1643 544 )" class="stroke" mask="url(#Clip4363)" />
  </g>
</svg>