<?xml version="1.0" encoding="utf-8"?>
<svg version="1.1" xmlns:xlink="http://www.w3.org/1999/xlink" width="9px" height="46px" xmlns="http://www.w3.org/2000/svg">
  <defs>
    <pattern id="BGPattern" patternUnits="userSpaceOnUse" alignment="0 0" imageRepeat="None" />
    <mask fill="white" id="Clip4302">
      <path d="M 9 12.527932142611268  L 9 46  L 0.13532864144327605 46  L 0.13532864144327605 12.527932142611268  L 9 12.527932142611268  Z M 9 0  L 9 6.8100560691553715  L 0 6.8100560691553715  L 0 0  L 9 0  Z " fill-rule="evenodd" />
    </mask>
  </defs>
  <g transform="matrix(1 0 0 1 -581 -191 )">
    <path d="M 9 12.527932142611268  L 9 46  L 0.13532864144327605 46  L 0.13532864144327605 12.527932142611268  L 9 12.527932142611268  Z M 9 0  L 9 6.8100560691553715  L 0 6.8100560691553715  L 0 0  L 9 0  Z " fill-rule="nonzero" fill="rgba(255, 255, 255, 1)" stroke="none" transform="matrix(1 0 0 1 581 191 )" class="fill" />
    <path d="M 9 12.527932142611268  L 9 46  L 0.13532864144327605 46  L 0.13532864144327605 12.527932142611268  L 9 12.527932142611268  Z " stroke-width="0" stroke-dasharray="0" stroke="rgba(121, 121, 121, 1)" fill="none" transform="matrix(1 0 0 1 581 191 )" class="stroke" mask="url(#Clip4302)" />
    <path d="M 9 0  L 9 6.8100560691553715  L 0 6.8100560691553715  L 0 0  L 9 0  Z " stroke-width="0" stroke-dasharray="0" stroke="rgba(121, 121, 121, 1)" fill="none" transform="matrix(1 0 0 1 581 191 )" class="stroke" mask="url(#Clip4302)" />
  </g>
</svg>