<?xml version="1.0" encoding="utf-8"?>
<svg version="1.1" xmlns:xlink="http://www.w3.org/1999/xlink" width="34px" height="46px" xmlns="http://www.w3.org/2000/svg">
  <defs>
    <pattern id="BGPattern" patternUnits="userSpaceOnUse" alignment="0 0" imageRepeat="None" />
    <mask fill="white" id="Clip4308">
      <path d="M 24.851141702099586 31.70442027657539  C 24.851141702099586 31.70442027657539  34 31.70442027657539  34 31.70442027657539  C 32.44274859348944 40.91712691490187  25.82443688390515 46  17.00000773495494 46  C 12.068709036019866 46  7.916027338515754 44.348062223618484  4.5419810129605995 41.04419519168407  C 2.5305301515368672 39.07458198955338  1.2977156289314615 36.78728957463859  0.7786315044714864 34.24585397884826  C 0.2595473800115114 31.70441743629919  0 27.955799127763527  0 23  C 0 18.044198978719002  0.2595473800115114 14.295579723424606  0.7786315044714864 11.754142234116806  C 1.2977156289314615 9.149173446694107  2.5305301515368672 6.925415170170416  4.5419810129605995 4.955801021280996  C 7.916027338515754 1.651934936105311  12.068709036019866 0  17.00000773495494 0  C 25.889323487190687 0  32.44274859348944 5.082874978615602  34 14.295579723424606  C 34 14.295579723424606  24.851141702099586 14.295579723424606  24.851141702099586 14.295579723424606  C 23.877858122726437 10.41989029783054  21.41221747508321 7.87845280852274  17.064888537024274 7.87845280852274  C 14.599238220687365 7.87845280852274  12.652674929418536 8.64088519142556  11.290079465287114 10.2292812553461  C 9.408399876695718 12.198895404235518  9.01908122385187 14.232044638274772  9.01908122385187 23  C 9.01908122385187 31.767954414966496  9.408399876695718 33.80110554252322  11.290079465287114 35.7707187446539  C 12.652674929418536 37.35911575533317  14.599238220687365 38.12154340444232  17.064888537024274 38.12154340444232  C 21.41221747508321 38.12154340444232  23.877858122726437 35.5801106489282  24.851141702099586 31.70442027657539  Z " fill-rule="evenodd" />
    </mask>
  </defs>
  <g transform="matrix(1 0 0 1 -295 -191 )">
    <path d="M 24.851141702099586 31.70442027657539  C 24.851141702099586 31.70442027657539  34 31.70442027657539  34 31.70442027657539  C 32.44274859348944 40.91712691490187  25.82443688390515 46  17.00000773495494 46  C 12.068709036019866 46  7.916027338515754 44.348062223618484  4.5419810129605995 41.04419519168407  C 2.5305301515368672 39.07458198955338  1.2977156289314615 36.78728957463859  0.7786315044714864 34.24585397884826  C 0.2595473800115114 31.70441743629919  0 27.955799127763527  0 23  C 0 18.044198978719002  0.2595473800115114 14.295579723424606  0.7786315044714864 11.754142234116806  C 1.2977156289314615 9.149173446694107  2.5305301515368672 6.925415170170416  4.5419810129605995 4.955801021280996  C 7.916027338515754 1.651934936105311  12.068709036019866 0  17.00000773495494 0  C 25.889323487190687 0  32.44274859348944 5.082874978615602  34 14.295579723424606  C 34 14.295579723424606  24.851141702099586 14.295579723424606  24.851141702099586 14.295579723424606  C 23.877858122726437 10.41989029783054  21.41221747508321 7.87845280852274  17.064888537024274 7.87845280852274  C 14.599238220687365 7.87845280852274  12.652674929418536 8.64088519142556  11.290079465287114 10.2292812553461  C 9.408399876695718 12.198895404235518  9.01908122385187 14.232044638274772  9.01908122385187 23  C 9.01908122385187 31.767954414966496  9.408399876695718 33.80110554252322  11.290079465287114 35.7707187446539  C 12.652674929418536 37.35911575533317  14.599238220687365 38.12154340444232  17.064888537024274 38.12154340444232  C 21.41221747508321 38.12154340444232  23.877858122726437 35.5801106489282  24.851141702099586 31.70442027657539  Z " fill-rule="nonzero" fill="rgba(255, 255, 255, 1)" stroke="none" transform="matrix(1 0 0 1 295 191 )" class="fill" />
    <path d="M 24.851141702099586 31.70442027657539  C 24.851141702099586 31.70442027657539  34 31.70442027657539  34 31.70442027657539  C 32.44274859348944 40.91712691490187  25.82443688390515 46  17.00000773495494 46  C 12.068709036019866 46  7.916027338515754 44.348062223618484  4.5419810129605995 41.04419519168407  C 2.5305301515368672 39.07458198955338  1.2977156289314615 36.78728957463859  0.7786315044714864 34.24585397884826  C 0.2595473800115114 31.70441743629919  0 27.955799127763527  0 23  C 0 18.044198978719002  0.2595473800115114 14.295579723424606  0.7786315044714864 11.754142234116806  C 1.2977156289314615 9.149173446694107  2.5305301515368672 6.925415170170416  4.5419810129605995 4.955801021280996  C 7.916027338515754 1.651934936105311  12.068709036019866 0  17.00000773495494 0  C 25.889323487190687 0  32.44274859348944 5.082874978615602  34 14.295579723424606  C 34 14.295579723424606  24.851141702099586 14.295579723424606  24.851141702099586 14.295579723424606  C 23.877858122726437 10.41989029783054  21.41221747508321 7.87845280852274  17.064888537024274 7.87845280852274  C 14.599238220687365 7.87845280852274  12.652674929418536 8.64088519142556  11.290079465287114 10.2292812553461  C 9.408399876695718 12.198895404235518  9.01908122385187 14.232044638274772  9.01908122385187 23  C 9.01908122385187 31.767954414966496  9.408399876695718 33.80110554252322  11.290079465287114 35.7707187446539  C 12.652674929418536 37.35911575533317  14.599238220687365 38.12154340444232  17.064888537024274 38.12154340444232  C 21.41221747508321 38.12154340444232  23.877858122726437 35.5801106489282  24.851141702099586 31.70442027657539  Z " stroke-width="0" stroke-dasharray="0" stroke="rgba(121, 121, 121, 1)" fill="none" transform="matrix(1 0 0 1 295 191 )" class="stroke" mask="url(#Clip4308)" />
  </g>
</svg>