<?xml version="1.0" encoding="utf-8"?>
<svg version="1.1" xmlns:xlink="http://www.w3.org/1999/xlink" width="5px" height="20px" xmlns="http://www.w3.org/2000/svg">
  <defs>
    <pattern id="BGPattern" patternUnits="userSpaceOnUse" alignment="0 0" imageRepeat="None" />
    <mask fill="white" id="Clip4360">
      <path d="M 5 18.258426977041974  L 5 20  C 5 20  3.531056225715676 20  3.531056225715676 20  C 1.1016893095862659 20  0 18.426965561145657  0 16.320223692491325  C 0 16.320223692491325  0 0  0 0  L 2.033910307329479 0  C 2.033910307329479 0  2.033910307329479 16.235954400439486  2.033910307329479 16.235954400439486  C 2.033910307329479 17.584268933275904  2.4858775204126875 18.258426977041974  3.8982998663784874 18.258426977041974  C 3.8982998663784874 18.258426977041974  5 18.258426977041974  5 18.258426977041974  Z " fill-rule="evenodd" />
    </mask>
  </defs>
  <g transform="matrix(1 0 0 1 -1687 -542 )">
    <path d="M 5 18.258426977041974  L 5 20  C 5 20  3.531056225715676 20  3.531056225715676 20  C 1.1016893095862659 20  0 18.426965561145657  0 16.320223692491325  C 0 16.320223692491325  0 0  0 0  L 2.033910307329479 0  C 2.033910307329479 0  2.033910307329479 16.235954400439486  2.033910307329479 16.235954400439486  C 2.033910307329479 17.584268933275904  2.4858775204126875 18.258426977041974  3.8982998663784874 18.258426977041974  C 3.8982998663784874 18.258426977041974  5 18.258426977041974  5 18.258426977041974  Z " fill-rule="nonzero" fill="rgba(255, 255, 255, 1)" stroke="none" transform="matrix(1 0 0 1 1687 542 )" class="fill" />
    <path d="M 5 18.258426977041974  L 5 20  C 5 20  3.531056225715676 20  3.531056225715676 20  C 1.1016893095862659 20  0 18.426965561145657  0 16.320223692491325  C 0 16.320223692491325  0 0  0 0  L 2.033910307329479 0  C 2.033910307329479 0  2.033910307329479 16.235954400439486  2.033910307329479 16.235954400439486  C 2.033910307329479 17.584268933275904  2.4858775204126875 18.258426977041974  3.8982998663784874 18.258426977041974  C 3.8982998663784874 18.258426977041974  5 18.258426977041974  5 18.258426977041974  Z " stroke-width="0" stroke-dasharray="0" stroke="rgba(121, 121, 121, 1)" fill="none" transform="matrix(1 0 0 1 1687 542 )" class="stroke" mask="url(#Clip4360)" />
  </g>
</svg>