<?xml version="1.0" encoding="utf-8"?>
<svg version="1.1" xmlns:xlink="http://www.w3.org/1999/xlink" width="11px" height="20px" xmlns="http://www.w3.org/2000/svg">
  <defs>
    <pattern id="BGPattern" patternUnits="userSpaceOnUse" alignment="0 0" imageRepeat="None" />
    <mask fill="white" id="Clip4347">
      <path d="M 11 0  L 11 19.83286981017403  L 9.002550565305622 19.83286981017403  C 9.002550565305622 19.83286981017403  9.002550565305622 18.18941535362513  9.002550565305622 18.18941535362513  C 7.877230906213763 19.637883402784325  6.583114358271498 20  5.0639327765760545 20  C 3.6572825738897374 20  2.4194304578090504 19.526463809900413  1.68797248176973 18.80222984461712  C 0.281322518634458 17.40947209591846  0 15.125348116739907  0 12.980501667601809  C 0 10.835654744093281  0.281322518634458 8.551532543803841  1.68797248176973 7.158775388068217  C 2.4194304578090504 6.434540770525582  3.6572825738897374 5.961003335203618  5.0639327765760545 5.961003335203618  C 6.583114358271498 5.961003335203618  7.8490980315176 6.295265137966845  8.97441769060946 7.715877918303166  C 8.97441769060946 7.715877918303166  8.97441769060946 0  8.97441769060946 0  L 11 0  Z M 5.51405877171465 18.217270385262793  C 8.524289299960417 18.217270385262793  8.97441769060946 15.654596326892838  8.97441769060946 12.980501667601809  C 8.97441769060946 10.306407008310781  8.524289299960417 7.743732949940827  5.51405877171465 7.743732949940827  C 2.503827764366791 7.743732949940827  2.025566978123676 10.306407008310781  2.025566978123676 12.980501667601809  C 2.025566978123676 15.654596326892838  2.503827764366791 18.217270385262793  5.51405877171465 18.217270385262793  Z " fill-rule="evenodd" />
    </mask>
  </defs>
  <g transform="matrix(1 0 0 1 -1137 -542 )">
    <path d="M 11 0  L 11 19.83286981017403  L 9.002550565305622 19.83286981017403  C 9.002550565305622 19.83286981017403  9.002550565305622 18.18941535362513  9.002550565305622 18.18941535362513  C 7.877230906213763 19.637883402784325  6.583114358271498 20  5.0639327765760545 20  C 3.6572825738897374 20  2.4194304578090504 19.526463809900413  1.68797248176973 18.80222984461712  C 0.281322518634458 17.40947209591846  0 15.125348116739907  0 12.980501667601809  C 0 10.835654744093281  0.281322518634458 8.551532543803841  1.68797248176973 7.158775388068217  C 2.4194304578090504 6.434540770525582  3.6572825738897374 5.961003335203618  5.0639327765760545 5.961003335203618  C 6.583114358271498 5.961003335203618  7.8490980315176 6.295265137966845  8.97441769060946 7.715877918303166  C 8.97441769060946 7.715877918303166  8.97441769060946 0  8.97441769060946 0  L 11 0  Z M 5.51405877171465 18.217270385262793  C 8.524289299960417 18.217270385262793  8.97441769060946 15.654596326892838  8.97441769060946 12.980501667601809  C 8.97441769060946 10.306407008310781  8.524289299960417 7.743732949940827  5.51405877171465 7.743732949940827  C 2.503827764366791 7.743732949940827  2.025566978123676 10.306407008310781  2.025566978123676 12.980501667601809  C 2.025566978123676 15.654596326892838  2.503827764366791 18.217270385262793  5.51405877171465 18.217270385262793  Z " fill-rule="nonzero" fill="rgba(255, 255, 255, 1)" stroke="none" transform="matrix(1 0 0 1 1137 542 )" class="fill" />
    <path d="M 11 0  L 11 19.83286981017403  L 9.002550565305622 19.83286981017403  C 9.002550565305622 19.83286981017403  9.002550565305622 18.18941535362513  9.002550565305622 18.18941535362513  C 7.877230906213763 19.637883402784325  6.583114358271498 20  5.0639327765760545 20  C 3.6572825738897374 20  2.4194304578090504 19.526463809900413  1.68797248176973 18.80222984461712  C 0.281322518634458 17.40947209591846  0 15.125348116739907  0 12.980501667601809  C 0 10.835654744093281  0.281322518634458 8.551532543803841  1.68797248176973 7.158775388068217  C 2.4194304578090504 6.434540770525582  3.6572825738897374 5.961003335203618  5.0639327765760545 5.961003335203618  C 6.583114358271498 5.961003335203618  7.8490980315176 6.295265137966845  8.97441769060946 7.715877918303166  C 8.97441769060946 7.715877918303166  8.97441769060946 0  8.97441769060946 0  L 11 0  Z " stroke-width="0" stroke-dasharray="0" stroke="rgba(121, 121, 121, 1)" fill="none" transform="matrix(1 0 0 1 1137 542 )" class="stroke" mask="url(#Clip4347)" />
    <path d="M 5.51405877171465 18.217270385262793  C 8.524289299960417 18.217270385262793  8.97441769060946 15.654596326892838  8.97441769060946 12.980501667601809  C 8.97441769060946 10.306407008310781  8.524289299960417 7.743732949940827  5.51405877171465 7.743732949940827  C 2.503827764366791 7.743732949940827  2.025566978123676 10.306407008310781  2.025566978123676 12.980501667601809  C 2.025566978123676 15.654596326892838  2.503827764366791 18.217270385262793  5.51405877171465 18.217270385262793  Z " stroke-width="0" stroke-dasharray="0" stroke="rgba(121, 121, 121, 1)" fill="none" transform="matrix(1 0 0 1 1137 542 )" class="stroke" mask="url(#Clip4347)" />
  </g>
</svg>