<?xml version="1.0" encoding="utf-8"?>
<svg version="1.1" xmlns:xlink="http://www.w3.org/1999/xlink" width="28px" height="34px" xmlns="http://www.w3.org/2000/svg">
  <defs>
    <pattern id="BGPattern" patternUnits="userSpaceOnUse" alignment="0 0" imageRepeat="None" />
    <mask fill="white" id="Clip4299">
      <path d="M 18.203173605385356 13.395869745188492  C 24.713334922791102 14.03376776131574  28 17.5422106521877  28 23.15571851714841  C 28 30.491552831684437  21.805884420228235 34  14.031615499043095 34  C 8.84876829580706 34  4.171559519093945 33.4258886486935  0 29.215757274701453  C 0 29.215757274701453  5.3724648507380754 23.793616533275657  5.3724648507380754 23.793616533275657  C 8.09029864763336 26.5365809493062  11.629800126582552 26.91932137490569  14.158017217810253 26.91932137490569  C 17.002262151817256 26.91932137490569  19.97291822293598 25.96247244962877  19.97291822293598 23.474667525212038  C 19.97291822293598 21.816131542629563  19.088021426464795 20.667915493817723  16.496599708515692 20.412755526932404  C 16.496599708515692 20.412755526932404  11.313767574630962 19.902435593161773  11.313767574630962 19.902435593161773  C 5.372456374227965 19.32832661821283  1.7065136194644352 16.712941710353437  1.7065136194644352 10.589113911622087  C 1.7065136194644352 3.6998100144068773  7.711044515940145 0  14.41082065534456 0  C 19.53046323185919 0  23.828453195671223 0.893057983012566  26.98872597245753 3.8911809401138884  C 26.98872597245753 3.8911809401138884  21.932295557339955 9.058161714654364  21.932295557339955 9.058161714654364  C 20.036132268001957 7.33583478980754  17.12866387058441 6.825514856036904  14.284418936577406 6.825514856036904  C 10.997735964513831 6.825514856036904  9.607193677761298 8.356470855176719  9.607193677761298 10.01500873884524  C 9.607193677761298 11.22701572992143  10.112830691532531 12.630389844532537  13.020281194095398 12.885549811417857  C 13.020281194095398 12.885549811417857  18.203173605385356 13.395869745188492  18.203173605385356 13.395869745188492  Z " fill-rule="evenodd" />
    </mask>
  </defs>
  <g transform="matrix(1 0 0 1 -660 -203 )">
    <path d="M 18.203173605385356 13.395869745188492  C 24.713334922791102 14.03376776131574  28 17.5422106521877  28 23.15571851714841  C 28 30.491552831684437  21.805884420228235 34  14.031615499043095 34  C 8.84876829580706 34  4.171559519093945 33.4258886486935  0 29.215757274701453  C 0 29.215757274701453  5.3724648507380754 23.793616533275657  5.3724648507380754 23.793616533275657  C 8.09029864763336 26.5365809493062  11.629800126582552 26.91932137490569  14.158017217810253 26.91932137490569  C 17.002262151817256 26.91932137490569  19.97291822293598 25.96247244962877  19.97291822293598 23.474667525212038  C 19.97291822293598 21.816131542629563  19.088021426464795 20.667915493817723  16.496599708515692 20.412755526932404  C 16.496599708515692 20.412755526932404  11.313767574630962 19.902435593161773  11.313767574630962 19.902435593161773  C 5.372456374227965 19.32832661821283  1.7065136194644352 16.712941710353437  1.7065136194644352 10.589113911622087  C 1.7065136194644352 3.6998100144068773  7.711044515940145 0  14.41082065534456 0  C 19.53046323185919 0  23.828453195671223 0.893057983012566  26.98872597245753 3.8911809401138884  C 26.98872597245753 3.8911809401138884  21.932295557339955 9.058161714654364  21.932295557339955 9.058161714654364  C 20.036132268001957 7.33583478980754  17.12866387058441 6.825514856036904  14.284418936577406 6.825514856036904  C 10.997735964513831 6.825514856036904  9.607193677761298 8.356470855176719  9.607193677761298 10.01500873884524  C 9.607193677761298 11.22701572992143  10.112830691532531 12.630389844532537  13.020281194095398 12.885549811417857  C 13.020281194095398 12.885549811417857  18.203173605385356 13.395869745188492  18.203173605385356 13.395869745188492  Z " fill-rule="nonzero" fill="rgba(255, 255, 255, 1)" stroke="none" transform="matrix(1 0 0 1 660 203 )" class="fill" />
    <path d="M 18.203173605385356 13.395869745188492  C 24.713334922791102 14.03376776131574  28 17.5422106521877  28 23.15571851714841  C 28 30.491552831684437  21.805884420228235 34  14.031615499043095 34  C 8.84876829580706 34  4.171559519093945 33.4258886486935  0 29.215757274701453  C 0 29.215757274701453  5.3724648507380754 23.793616533275657  5.3724648507380754 23.793616533275657  C 8.09029864763336 26.5365809493062  11.629800126582552 26.91932137490569  14.158017217810253 26.91932137490569  C 17.002262151817256 26.91932137490569  19.97291822293598 25.96247244962877  19.97291822293598 23.474667525212038  C 19.97291822293598 21.816131542629563  19.088021426464795 20.667915493817723  16.496599708515692 20.412755526932404  C 16.496599708515692 20.412755526932404  11.313767574630962 19.902435593161773  11.313767574630962 19.902435593161773  C 5.372456374227965 19.32832661821283  1.7065136194644352 16.712941710353437  1.7065136194644352 10.589113911622087  C 1.7065136194644352 3.6998100144068773  7.711044515940145 0  14.41082065534456 0  C 19.53046323185919 0  23.828453195671223 0.893057983012566  26.98872597245753 3.8911809401138884  C 26.98872597245753 3.8911809401138884  21.932295557339955 9.058161714654364  21.932295557339955 9.058161714654364  C 20.036132268001957 7.33583478980754  17.12866387058441 6.825514856036904  14.284418936577406 6.825514856036904  C 10.997735964513831 6.825514856036904  9.607193677761298 8.356470855176719  9.607193677761298 10.01500873884524  C 9.607193677761298 11.22701572992143  10.112830691532531 12.630389844532537  13.020281194095398 12.885549811417857  C 13.020281194095398 12.885549811417857  18.203173605385356 13.395869745188492  18.203173605385356 13.395869745188492  Z " stroke-width="0" stroke-dasharray="0" stroke="rgba(121, 121, 121, 1)" fill="none" transform="matrix(1 0 0 1 660 203 )" class="stroke" mask="url(#Clip4299)" />
  </g>
</svg>