<?xml version="1.0" encoding="utf-8"?>
<svg version="1.1" xmlns:xlink="http://www.w3.org/1999/xlink" width="22px" height="22px" xmlns="http://www.w3.org/2000/svg">
  <defs>
    <pattern id="BGPattern" patternUnits="userSpaceOnUse" alignment="0 0" imageRepeat="None" />
    <mask fill="white" id="Clip4817">
      <path d="M 1.18201599251561 4  L 1.18201599251561 2.5531530202092014  L 20.576754297677038 2.5531530202092014  L 20.576754297677038 4  L 1.18201599251561 4  Z M 2.46052386895416 7  L 2.46052386895416 5.464208950468942  L 19.274117698933512 5.464208950468942  L 19.274117698933512 7  L 2.46052386895416 7  Z M 0.1206129377955941 10  L 0.1206129377955941 8.327553595033999  L 21.61403246430824 8.327553595033999  L 21.61403246430824 10  L 0.1206129377955941 10  Z M 0.1206129377955941 15  L 0.1206129377955941 13.62473511927132  L 21.662274572053548 13.62473511927132  L 21.662274572053548 15  L 0.1206129377955941 15  Z M 9.890349086210433 9.019526528067876  L 9.890349086210433 3.2689891813504657  L 11.747804431970462 3.2689891813504657  L 11.747804431970462 9.019526528067876  L 9.890349086210433 9.019526528067876  Z M 14.449558010731971 1.3123713522656826  C 14.722949125702858 0.8033330839391772  14.940052988867354 0.3658712257297537  15.100872475887574 0  C 15.100872475887574 0  17.030694817481727 0.4772342211075721  17.030694817481727 0.4772342211075721  C 16.725139421685178 0.9544570643250739  16.403503323306857 1.4237267623834542  16.06578364668465 1.885043315282713  C 15.74414658975229 2.346358920024466  15.454674772199633 2.7360867367590664  15.197364359810514 3.054235298904068  C 15.197364359810514 3.054235298904068  13.677630607780776 2.6008794764239775  13.677630607780776 2.6008794764239775  C 13.918858400480046 2.2350082506942237  14.176165937207042 1.8055023821164393  14.449558010731971 1.3123713522656826  Z M 0.19297993362971824 18.587861791045395  C 0.19297993362971824 18.587861791045395  0 17.132326240655477  0 17.132326240655477  C 0.948830288486424 17.068696457114665  2.026314824613367 16.99710949874533  3.2324551061215177 16.91757235820908  C 4.454677168584734 16.822127505118328  5.757308974558059 16.726688578011988  7.140349565487453 16.63124396196061  C 8.539472296829679 16.51989187039411  9.938593111063822 16.408541201063866  11.337715842406046 16.297189109497367  C 11.337715842406046 16.297189109497367  11.313594788533393 17.585682063135568  11.313594788533393 17.585682063135568  C 9.978799181011428 17.71294163021719  8.644003573489464 17.84020380473196  7.309208445244518 17.967463371813587  C 5.974413316999573 18.07881546338009  4.695903044175921 18.19016613271033  3.473680981712706 18.30151822427683  C 2.2675408200238105 18.396962840328207  1.1739739038455272 18.49241705647433  0.19297993362971824 18.587861791045395  Z M 5.234648277765955 20.18654636903945  C 5.234648277765955 20.18654636903945  5.234648277765955 11.047734041474822  5.234648277765955 11.047734041474822  L 6.995611739603044 11.047734041474822  C 6.995611739603044 11.047734041474822  6.995611739603044 20.21040959714684  6.995611739603044 20.21040959714684  C 6.995611739603044 20.687632884813173  6.931286532890866 21.037596368358503  6.802631805973325 21.260300610751347  C 6.673976599778766 21.498912269399476  6.424704142295431 21.66593827339484  6.054821622678622 21.761382889446214  C 5.701020284920602 21.872735099532402  5.22660505081295 21.936366186789787  4.631575920355662 21.952273543785225  C 4.0526286906726945 21.984088494815474  3.3048235397867023 22  2.3881568731200358 22  C 2.3399114104355863 21.793203173862437  2.2595002290944155 21.55459038927727  2.146927163312686 21.28416383885874  C 2.0343538578924467 21.029644763955325  1.9217824695802876 20.791031890480397  1.809209403798558 20.56832767771747  C 2.2595019065639863 20.584235123602674  2.6856707194331495 20.59219090582486  3.087717280237108 20.59219090582486  C 3.4897640806795764 20.608098351710062  3.843564699522065 20.608098351710062  4.149120334957124 20.59219090582486  C 4.454675730753673 20.59219090582486  4.663740680458343 20.59219090582486  4.7763137462400715 20.59219090582486  C 4.953214175480571 20.59219090582486  5.073828790745736 20.560382947456212  5.1381563938430155 20.4967531639154  C 5.202483996940296 20.449030826259794  5.234648277765955 20.34562079826156  5.234648277765955 20.18654636903945  Z M 7.164470619360108 10.475062078457793  C 8.225874153357143 10.315987797385292  9.110379894137292 10.148961793389928  9.817982090376308 9.973979799762926  C 9.817982090376308 9.973979799762926  10.927627252841633 11.095445327169505  10.927627252841633 11.095445327169505  C 10.059206528136436 11.302241797748005  9.054089766668776 11.493135296559533  7.91227696843865 11.668117290186535  C 6.770464170208524 11.827191571259036  5.588447219138873 11.962409735405442  4.366225156675658 12.073761826971944  C 3.1440030942124424 12.169206680062695  1.9700290106380325 12.248733864945134  0.8442982330014819 12.312363767005635  C 0.8121345512720971 12.137381773378634  0.7478056301630117 11.938547929534312  0.6513144651556021 11.71584374640131  C 0.5709050811032573 11.49313956326831  0.4904979736167586 11.294290548903897  0.4100885895644139 11.119308555276891  C 1.5036556854715797 11.055678653216392  2.63742621530274 10.976135823735106  3.8114025754429957 10.880691444723107  C 5.001460836357571 10.769339353156605  6.119149225775901 10.634136833609046  7.164470619360108 10.475062078457793  Z M 12.592102664971943 14.84165355910745  C 12.173973724116646 13.39407613170356  11.916662353173486 11.819240322414927  11.820171427804587 10.11714399788716  C 11.820171427804587 10.11714399788716  13.581138723857835 10.11714399788716  13.581138723857835 10.11714399788716  C 13.645466326955116 11.596536139281923  13.854530797382763 12.964566944574505  14.208332135140783 14.221255139875643  C 14.56213251434476 15.477943098137404  15.0124228603636 16.567612519144163  15.559207007413457 17.490244321226108  C 16.122071857045086 18.39696864779293  16.74926622688207 19.104851426735696  17.4407872412623 19.613889576542515  C 18.132307297088488 20.107020369353894  18.855987799524176 20.353588965791168  19.61183545844764 20.353588965791168  C 19.94955513506985 20.337681519905964  20.182741617924194 20.17064040465035  20.311395865564712 19.852491516576208  C 20.440051071759274 19.518435182616862  20.536543914236255 18.921918184264584  20.600871517333534 18.06291628424314  C 20.77777170693552 18.206083208320205  20.994879404316176 18.34924183601909  21.252189816705297 18.49240887861584  C 21.525581890230225 18.619668386437624  21.77485386843654 18.715107491323497  22 18.77873727486431  C 21.90350811607706 19.637739293405446  21.75876453886841 20.29790246064543  21.56578268813061 20.75921833205648  C 21.38888153997458 21.220534233097453  21.131574003247582 21.53868972864422  20.79385528517941 21.713671603751532  C 20.472217269693015 21.888653478858846  20.054088328837715 21.984092524484872  19.539468462613517 22  C 18.49414706902931 22  17.52119458838731 21.697756068897608  16.620610062133473 21.093273184519724  C 15.720025535879635 20.504697716397125  14.923973244839624 19.6775085747917  14.232453189013437 18.61170984863269  C 13.55701479432306 17.545911122473676  13.010231605827244 16.28923098651134  12.592102664971943 14.84165355910745  Z M 15.728065887170523 17.561818835028177  C 16.741223958483108 16.89370628562917  17.56943957179474 16.146059677205812  18.212714644213495 15.318872609694926  C 18.212714644213495 15.318872609694926  19.80481922629352 15.86768134460457  19.80481922629352 15.86768134460457  C 19.065053228505864 16.82212786067739  18.14034381416321 17.681125138430996  17.030694817481727 18.444682422401065  C 15.93712748193605 19.20823976563098  14.747074972345716 19.87635871509315  13.460525786062242 20.449026707700625  C 12.190058260914576 21.03760211656338  10.903505240414939 21.530739309437926  9.600873434441613 21.92842548619793  C 9.552627971757165 21.817073276111742  9.472220624632154 21.66594378456034  9.359647558850424 21.475054493197746  C 9.247074493068695 21.300072618090432  9.12646011744204 21.117135108910542  8.997804911247481 20.926245758288104  C 8.885231845465752 20.751263883180787  8.772660217515083 20.608105255481902  8.660087151733354 20.4967531639154  C 9.914473015745209 20.17860427584126  11.152775780790193 19.772965487260727  12.374997843253409 19.27983472407927  C 13.597220384993644 18.78670393126789  14.714908774411974 18.214024027431748  15.728065887170523 17.561818835028177  Z M 16.789468941890537 11.835144716418158  C 16.307012397937957 11.580625582254905  15.832597163830306 11.35792424359442  15.366223239567576 11.16703501149167  C 15.366223239567576 11.16703501149167  16.379384186542286 10.093280769779772  16.379384186542286 10.093280769779772  C 16.84575811080501 10.268262763406774  17.320173344912664 10.47505212280398  17.802629888865244 10.713664018491485  C 18.301168093953635 10.952275440100236  18.76754105966232 11.198844273576885  19.20175070309939 11.453363407740138  C 19.652042966226308 11.707882541903391  20.013886572383292 11.954451375380039  20.28727864590822 12.193062796988789  C 20.28727864590822 12.193062796988789  19.25000047927702 13.386118008717531  19.25000047927702 13.386118008717531  C 18.976608405752092 13.147506587108781  18.62280035811579 12.892997408599339  18.18858975612468 12.622570561881584  C 17.754379154133574 12.352144189242583  17.288006188424887 12.089663850581411  16.789468941890537 11.835144716418158  Z M 5.789470858998618 1.932754600977395  C 5.483915463202069 1.4396235711266385  5.162279364823751 1.0021768834373088  4.824559688201542 0.6203984192318062  C 4.824559688201542 0.6203984192318062  6.392543216408911 0.04772645621477595  6.392543216408911 0.04772645621477595  C 6.74634407488991 0.41359768194452967  7.084062792958079 0.8271925194165418  7.405700329167457 1.2885081241582947  C 7.7273373860998165 1.7498237289000476  7.96052386895416 2.1554625767404207  8.10526073628453 2.5054265639944253  C 8.10526073628453 2.5054265639944253  6.440789158370381 3.173536268920914  6.440789158370381 3.173536268920914  C 6.312134431452842 2.823573229824415  6.095026254795167 2.4099783923524027  5.789470858998618 1.932754600977395  Z " fill-rule="evenodd" />
    </mask>
  </defs>
  <g transform="matrix(1 0 0 1 -189 -612 )">
    <path d="M 1.18201599251561 4  L 1.18201599251561 2.5531530202092014  L 20.576754297677038 2.5531530202092014  L 20.576754297677038 4  L 1.18201599251561 4  Z M 2.46052386895416 7  L 2.46052386895416 5.464208950468942  L 19.274117698933512 5.464208950468942  L 19.274117698933512 7  L 2.46052386895416 7  Z M 0.1206129377955941 10  L 0.1206129377955941 8.327553595033999  L 21.61403246430824 8.327553595033999  L 21.61403246430824 10  L 0.1206129377955941 10  Z M 0.1206129377955941 15  L 0.1206129377955941 13.62473511927132  L 21.662274572053548 13.62473511927132  L 21.662274572053548 15  L 0.1206129377955941 15  Z M 9.890349086210433 9.019526528067876  L 9.890349086210433 3.2689891813504657  L 11.747804431970462 3.2689891813504657  L 11.747804431970462 9.019526528067876  L 9.890349086210433 9.019526528067876  Z M 14.449558010731971 1.3123713522656826  C 14.722949125702858 0.8033330839391772  14.940052988867354 0.3658712257297537  15.100872475887574 0  C 15.100872475887574 0  17.030694817481727 0.4772342211075721  17.030694817481727 0.4772342211075721  C 16.725139421685178 0.9544570643250739  16.403503323306857 1.4237267623834542  16.06578364668465 1.885043315282713  C 15.74414658975229 2.346358920024466  15.454674772199633 2.7360867367590664  15.197364359810514 3.054235298904068  C 15.197364359810514 3.054235298904068  13.677630607780776 2.6008794764239775  13.677630607780776 2.6008794764239775  C 13.918858400480046 2.2350082506942237  14.176165937207042 1.8055023821164393  14.449558010731971 1.3123713522656826  Z M 0.19297993362971824 18.587861791045395  C 0.19297993362971824 18.587861791045395  0 17.132326240655477  0 17.132326240655477  C 0.948830288486424 17.068696457114665  2.026314824613367 16.99710949874533  3.2324551061215177 16.91757235820908  C 4.454677168584734 16.822127505118328  5.757308974558059 16.726688578011988  7.140349565487453 16.63124396196061  C 8.539472296829679 16.51989187039411  9.938593111063822 16.408541201063866  11.337715842406046 16.297189109497367  C 11.337715842406046 16.297189109497367  11.313594788533393 17.585682063135568  11.313594788533393 17.585682063135568  C 9.978799181011428 17.71294163021719  8.644003573489464 17.84020380473196  7.309208445244518 17.967463371813587  C 5.974413316999573 18.07881546338009  4.695903044175921 18.19016613271033  3.473680981712706 18.30151822427683  C 2.2675408200238105 18.396962840328207  1.1739739038455272 18.49241705647433  0.19297993362971824 18.587861791045395  Z M 5.234648277765955 20.18654636903945  C 5.234648277765955 20.18654636903945  5.234648277765955 11.047734041474822  5.234648277765955 11.047734041474822  L 6.995611739603044 11.047734041474822  C 6.995611739603044 11.047734041474822  6.995611739603044 20.21040959714684  6.995611739603044 20.21040959714684  C 6.995611739603044 20.687632884813173  6.931286532890866 21.037596368358503  6.802631805973325 21.260300610751347  C 6.673976599778766 21.498912269399476  6.424704142295431 21.66593827339484  6.054821622678622 21.761382889446214  C 5.701020284920602 21.872735099532402  5.22660505081295 21.936366186789787  4.631575920355662 21.952273543785225  C 4.0526286906726945 21.984088494815474  3.3048235397867023 22  2.3881568731200358 22  C 2.3399114104355863 21.793203173862437  2.2595002290944155 21.55459038927727  2.146927163312686 21.28416383885874  C 2.0343538578924467 21.029644763955325  1.9217824695802876 20.791031890480397  1.809209403798558 20.56832767771747  C 2.2595019065639863 20.584235123602674  2.6856707194331495 20.59219090582486  3.087717280237108 20.59219090582486  C 3.4897640806795764 20.608098351710062  3.843564699522065 20.608098351710062  4.149120334957124 20.59219090582486  C 4.454675730753673 20.59219090582486  4.663740680458343 20.59219090582486  4.7763137462400715 20.59219090582486  C 4.953214175480571 20.59219090582486  5.073828790745736 20.560382947456212  5.1381563938430155 20.4967531639154  C 5.202483996940296 20.449030826259794  5.234648277765955 20.34562079826156  5.234648277765955 20.18654636903945  Z M 7.164470619360108 10.475062078457793  C 8.225874153357143 10.315987797385292  9.110379894137292 10.148961793389928  9.817982090376308 9.973979799762926  C 9.817982090376308 9.973979799762926  10.927627252841633 11.095445327169505  10.927627252841633 11.095445327169505  C 10.059206528136436 11.302241797748005  9.054089766668776 11.493135296559533  7.91227696843865 11.668117290186535  C 6.770464170208524 11.827191571259036  5.588447219138873 11.962409735405442  4.366225156675658 12.073761826971944  C 3.1440030942124424 12.169206680062695  1.9700290106380325 12.248733864945134  0.8442982330014819 12.312363767005635  C 0.8121345512720971 12.137381773378634  0.7478056301630117 11.938547929534312  0.6513144651556021 11.71584374640131  C 0.5709050811032573 11.49313956326831  0.4904979736167586 11.294290548903897  0.4100885895644139 11.119308555276891  C 1.5036556854715797 11.055678653216392  2.63742621530274 10.976135823735106  3.8114025754429957 10.880691444723107  C 5.001460836357571 10.769339353156605  6.119149225775901 10.634136833609046  7.164470619360108 10.475062078457793  Z M 12.592102664971943 14.84165355910745  C 12.173973724116646 13.39407613170356  11.916662353173486 11.819240322414927  11.820171427804587 10.11714399788716  C 11.820171427804587 10.11714399788716  13.581138723857835 10.11714399788716  13.581138723857835 10.11714399788716  C 13.645466326955116 11.596536139281923  13.854530797382763 12.964566944574505  14.208332135140783 14.221255139875643  C 14.56213251434476 15.477943098137404  15.0124228603636 16.567612519144163  15.559207007413457 17.490244321226108  C 16.122071857045086 18.39696864779293  16.74926622688207 19.104851426735696  17.4407872412623 19.613889576542515  C 18.132307297088488 20.107020369353894  18.855987799524176 20.353588965791168  19.61183545844764 20.353588965791168  C 19.94955513506985 20.337681519905964  20.182741617924194 20.17064040465035  20.311395865564712 19.852491516576208  C 20.440051071759274 19.518435182616862  20.536543914236255 18.921918184264584  20.600871517333534 18.06291628424314  C 20.77777170693552 18.206083208320205  20.994879404316176 18.34924183601909  21.252189816705297 18.49240887861584  C 21.525581890230225 18.619668386437624  21.77485386843654 18.715107491323497  22 18.77873727486431  C 21.90350811607706 19.637739293405446  21.75876453886841 20.29790246064543  21.56578268813061 20.75921833205648  C 21.38888153997458 21.220534233097453  21.131574003247582 21.53868972864422  20.79385528517941 21.713671603751532  C 20.472217269693015 21.888653478858846  20.054088328837715 21.984092524484872  19.539468462613517 22  C 18.49414706902931 22  17.52119458838731 21.697756068897608  16.620610062133473 21.093273184519724  C 15.720025535879635 20.504697716397125  14.923973244839624 19.6775085747917  14.232453189013437 18.61170984863269  C 13.55701479432306 17.545911122473676  13.010231605827244 16.28923098651134  12.592102664971943 14.84165355910745  Z M 15.728065887170523 17.561818835028177  C 16.741223958483108 16.89370628562917  17.56943957179474 16.146059677205812  18.212714644213495 15.318872609694926  C 18.212714644213495 15.318872609694926  19.80481922629352 15.86768134460457  19.80481922629352 15.86768134460457  C 19.065053228505864 16.82212786067739  18.14034381416321 17.681125138430996  17.030694817481727 18.444682422401065  C 15.93712748193605 19.20823976563098  14.747074972345716 19.87635871509315  13.460525786062242 20.449026707700625  C 12.190058260914576 21.03760211656338  10.903505240414939 21.530739309437926  9.600873434441613 21.92842548619793  C 9.552627971757165 21.817073276111742  9.472220624632154 21.66594378456034  9.359647558850424 21.475054493197746  C 9.247074493068695 21.300072618090432  9.12646011744204 21.117135108910542  8.997804911247481 20.926245758288104  C 8.885231845465752 20.751263883180787  8.772660217515083 20.608105255481902  8.660087151733354 20.4967531639154  C 9.914473015745209 20.17860427584126  11.152775780790193 19.772965487260727  12.374997843253409 19.27983472407927  C 13.597220384993644 18.78670393126789  14.714908774411974 18.214024027431748  15.728065887170523 17.561818835028177  Z M 16.789468941890537 11.835144716418158  C 16.307012397937957 11.580625582254905  15.832597163830306 11.35792424359442  15.366223239567576 11.16703501149167  C 15.366223239567576 11.16703501149167  16.379384186542286 10.093280769779772  16.379384186542286 10.093280769779772  C 16.84575811080501 10.268262763406774  17.320173344912664 10.47505212280398  17.802629888865244 10.713664018491485  C 18.301168093953635 10.952275440100236  18.76754105966232 11.198844273576885  19.20175070309939 11.453363407740138  C 19.652042966226308 11.707882541903391  20.013886572383292 11.954451375380039  20.28727864590822 12.193062796988789  C 20.28727864590822 12.193062796988789  19.25000047927702 13.386118008717531  19.25000047927702 13.386118008717531  C 18.976608405752092 13.147506587108781  18.62280035811579 12.892997408599339  18.18858975612468 12.622570561881584  C 17.754379154133574 12.352144189242583  17.288006188424887 12.089663850581411  16.789468941890537 11.835144716418158  Z M 5.789470858998618 1.932754600977395  C 5.483915463202069 1.4396235711266385  5.162279364823751 1.0021768834373088  4.824559688201542 0.6203984192318062  C 4.824559688201542 0.6203984192318062  6.392543216408911 0.04772645621477595  6.392543216408911 0.04772645621477595  C 6.74634407488991 0.41359768194452967  7.084062792958079 0.8271925194165418  7.405700329167457 1.2885081241582947  C 7.7273373860998165 1.7498237289000476  7.96052386895416 2.1554625767404207  8.10526073628453 2.5054265639944253  C 8.10526073628453 2.5054265639944253  6.440789158370381 3.173536268920914  6.440789158370381 3.173536268920914  C 6.312134431452842 2.823573229824415  6.095026254795167 2.4099783923524027  5.789470858998618 1.932754600977395  Z " fill-rule="nonzero" fill="rgba(0, 0, 0, 1)" stroke="none" transform="matrix(1 0 0 1 189 612 )" class="fill" />
    <path d="M 1.18201599251561 4  L 1.18201599251561 2.5531530202092014  L 20.576754297677038 2.5531530202092014  L 20.576754297677038 4  L 1.18201599251561 4  Z " stroke-width="0" stroke-dasharray="0" stroke="rgba(121, 121, 121, 1)" fill="none" transform="matrix(1 0 0 1 189 612 )" class="stroke" mask="url(#Clip4817)" />
    <path d="M 2.46052386895416 7  L 2.46052386895416 5.464208950468942  L 19.274117698933512 5.464208950468942  L 19.274117698933512 7  L 2.46052386895416 7  Z " stroke-width="0" stroke-dasharray="0" stroke="rgba(121, 121, 121, 1)" fill="none" transform="matrix(1 0 0 1 189 612 )" class="stroke" mask="url(#Clip4817)" />
    <path d="M 0.1206129377955941 10  L 0.1206129377955941 8.327553595033999  L 21.61403246430824 8.327553595033999  L 21.61403246430824 10  L 0.1206129377955941 10  Z " stroke-width="0" stroke-dasharray="0" stroke="rgba(121, 121, 121, 1)" fill="none" transform="matrix(1 0 0 1 189 612 )" class="stroke" mask="url(#Clip4817)" />
    <path d="M 0.1206129377955941 15  L 0.1206129377955941 13.62473511927132  L 21.662274572053548 13.62473511927132  L 21.662274572053548 15  L 0.1206129377955941 15  Z " stroke-width="0" stroke-dasharray="0" stroke="rgba(121, 121, 121, 1)" fill="none" transform="matrix(1 0 0 1 189 612 )" class="stroke" mask="url(#Clip4817)" />
    <path d="M 9.890349086210433 9.019526528067876  L 9.890349086210433 3.2689891813504657  L 11.747804431970462 3.2689891813504657  L 11.747804431970462 9.019526528067876  L 9.890349086210433 9.019526528067876  Z " stroke-width="0" stroke-dasharray="0" stroke="rgba(121, 121, 121, 1)" fill="none" transform="matrix(1 0 0 1 189 612 )" class="stroke" mask="url(#Clip4817)" />
    <path d="M 14.449558010731971 1.3123713522656826  C 14.722949125702858 0.8033330839391772  14.940052988867354 0.3658712257297537  15.100872475887574 0  C 15.100872475887574 0  17.030694817481727 0.4772342211075721  17.030694817481727 0.4772342211075721  C 16.725139421685178 0.9544570643250739  16.403503323306857 1.4237267623834542  16.06578364668465 1.885043315282713  C 15.74414658975229 2.346358920024466  15.454674772199633 2.7360867367590664  15.197364359810514 3.054235298904068  C 15.197364359810514 3.054235298904068  13.677630607780776 2.6008794764239775  13.677630607780776 2.6008794764239775  C 13.918858400480046 2.2350082506942237  14.176165937207042 1.8055023821164393  14.449558010731971 1.3123713522656826  Z " stroke-width="0" stroke-dasharray="0" stroke="rgba(121, 121, 121, 1)" fill="none" transform="matrix(1 0 0 1 189 612 )" class="stroke" mask="url(#Clip4817)" />
    <path d="M 0.19297993362971824 18.587861791045395  C 0.19297993362971824 18.587861791045395  0 17.132326240655477  0 17.132326240655477  C 0.948830288486424 17.068696457114665  2.026314824613367 16.99710949874533  3.2324551061215177 16.91757235820908  C 4.454677168584734 16.822127505118328  5.757308974558059 16.726688578011988  7.140349565487453 16.63124396196061  C 8.539472296829679 16.51989187039411  9.938593111063822 16.408541201063866  11.337715842406046 16.297189109497367  C 11.337715842406046 16.297189109497367  11.313594788533393 17.585682063135568  11.313594788533393 17.585682063135568  C 9.978799181011428 17.71294163021719  8.644003573489464 17.84020380473196  7.309208445244518 17.967463371813587  C 5.974413316999573 18.07881546338009  4.695903044175921 18.19016613271033  3.473680981712706 18.30151822427683  C 2.2675408200238105 18.396962840328207  1.1739739038455272 18.49241705647433  0.19297993362971824 18.587861791045395  Z " stroke-width="0" stroke-dasharray="0" stroke="rgba(121, 121, 121, 1)" fill="none" transform="matrix(1 0 0 1 189 612 )" class="stroke" mask="url(#Clip4817)" />
    <path d="M 5.234648277765955 20.18654636903945  C 5.234648277765955 20.18654636903945  5.234648277765955 11.047734041474822  5.234648277765955 11.047734041474822  L 6.995611739603044 11.047734041474822  C 6.995611739603044 11.047734041474822  6.995611739603044 20.21040959714684  6.995611739603044 20.21040959714684  C 6.995611739603044 20.687632884813173  6.931286532890866 21.037596368358503  6.802631805973325 21.260300610751347  C 6.673976599778766 21.498912269399476  6.424704142295431 21.66593827339484  6.054821622678622 21.761382889446214  C 5.701020284920602 21.872735099532402  5.22660505081295 21.936366186789787  4.631575920355662 21.952273543785225  C 4.0526286906726945 21.984088494815474  3.3048235397867023 22  2.3881568731200358 22  C 2.3399114104355863 21.793203173862437  2.2595002290944155 21.55459038927727  2.146927163312686 21.28416383885874  C 2.0343538578924467 21.029644763955325  1.9217824695802876 20.791031890480397  1.809209403798558 20.56832767771747  C 2.2595019065639863 20.584235123602674  2.6856707194331495 20.59219090582486  3.087717280237108 20.59219090582486  C 3.4897640806795764 20.608098351710062  3.843564699522065 20.608098351710062  4.149120334957124 20.59219090582486  C 4.454675730753673 20.59219090582486  4.663740680458343 20.59219090582486  4.7763137462400715 20.59219090582486  C 4.953214175480571 20.59219090582486  5.073828790745736 20.560382947456212  5.1381563938430155 20.4967531639154  C 5.202483996940296 20.449030826259794  5.234648277765955 20.34562079826156  5.234648277765955 20.18654636903945  Z " stroke-width="0" stroke-dasharray="0" stroke="rgba(121, 121, 121, 1)" fill="none" transform="matrix(1 0 0 1 189 612 )" class="stroke" mask="url(#Clip4817)" />
    <path d="M 7.164470619360108 10.475062078457793  C 8.225874153357143 10.315987797385292  9.110379894137292 10.148961793389928  9.817982090376308 9.973979799762926  C 9.817982090376308 9.973979799762926  10.927627252841633 11.095445327169505  10.927627252841633 11.095445327169505  C 10.059206528136436 11.302241797748005  9.054089766668776 11.493135296559533  7.91227696843865 11.668117290186535  C 6.770464170208524 11.827191571259036  5.588447219138873 11.962409735405442  4.366225156675658 12.073761826971944  C 3.1440030942124424 12.169206680062695  1.9700290106380325 12.248733864945134  0.8442982330014819 12.312363767005635  C 0.8121345512720971 12.137381773378634  0.7478056301630117 11.938547929534312  0.6513144651556021 11.71584374640131  C 0.5709050811032573 11.49313956326831  0.4904979736167586 11.294290548903897  0.4100885895644139 11.119308555276891  C 1.5036556854715797 11.055678653216392  2.63742621530274 10.976135823735106  3.8114025754429957 10.880691444723107  C 5.001460836357571 10.769339353156605  6.119149225775901 10.634136833609046  7.164470619360108 10.475062078457793  Z " stroke-width="0" stroke-dasharray="0" stroke="rgba(121, 121, 121, 1)" fill="none" transform="matrix(1 0 0 1 189 612 )" class="stroke" mask="url(#Clip4817)" />
    <path d="M 12.592102664971943 14.84165355910745  C 12.173973724116646 13.39407613170356  11.916662353173486 11.819240322414927  11.820171427804587 10.11714399788716  C 11.820171427804587 10.11714399788716  13.581138723857835 10.11714399788716  13.581138723857835 10.11714399788716  C 13.645466326955116 11.596536139281923  13.854530797382763 12.964566944574505  14.208332135140783 14.221255139875643  C 14.56213251434476 15.477943098137404  15.0124228603636 16.567612519144163  15.559207007413457 17.490244321226108  C 16.122071857045086 18.39696864779293  16.74926622688207 19.104851426735696  17.4407872412623 19.613889576542515  C 18.132307297088488 20.107020369353894  18.855987799524176 20.353588965791168  19.61183545844764 20.353588965791168  C 19.94955513506985 20.337681519905964  20.182741617924194 20.17064040465035  20.311395865564712 19.852491516576208  C 20.440051071759274 19.518435182616862  20.536543914236255 18.921918184264584  20.600871517333534 18.06291628424314  C 20.77777170693552 18.206083208320205  20.994879404316176 18.34924183601909  21.252189816705297 18.49240887861584  C 21.525581890230225 18.619668386437624  21.77485386843654 18.715107491323497  22 18.77873727486431  C 21.90350811607706 19.637739293405446  21.75876453886841 20.29790246064543  21.56578268813061 20.75921833205648  C 21.38888153997458 21.220534233097453  21.131574003247582 21.53868972864422  20.79385528517941 21.713671603751532  C 20.472217269693015 21.888653478858846  20.054088328837715 21.984092524484872  19.539468462613517 22  C 18.49414706902931 22  17.52119458838731 21.697756068897608  16.620610062133473 21.093273184519724  C 15.720025535879635 20.504697716397125  14.923973244839624 19.6775085747917  14.232453189013437 18.61170984863269  C 13.55701479432306 17.545911122473676  13.010231605827244 16.28923098651134  12.592102664971943 14.84165355910745  Z " stroke-width="0" stroke-dasharray="0" stroke="rgba(121, 121, 121, 1)" fill="none" transform="matrix(1 0 0 1 189 612 )" class="stroke" mask="url(#Clip4817)" />
    <path d="M 15.728065887170523 17.561818835028177  C 16.741223958483108 16.89370628562917  17.56943957179474 16.146059677205812  18.212714644213495 15.318872609694926  C 18.212714644213495 15.318872609694926  19.80481922629352 15.86768134460457  19.80481922629352 15.86768134460457  C 19.065053228505864 16.82212786067739  18.14034381416321 17.681125138430996  17.030694817481727 18.444682422401065  C 15.93712748193605 19.20823976563098  14.747074972345716 19.87635871509315  13.460525786062242 20.449026707700625  C 12.190058260914576 21.03760211656338  10.903505240414939 21.530739309437926  9.600873434441613 21.92842548619793  C 9.552627971757165 21.817073276111742  9.472220624632154 21.66594378456034  9.359647558850424 21.475054493197746  C 9.247074493068695 21.300072618090432  9.12646011744204 21.117135108910542  8.997804911247481 20.926245758288104  C 8.885231845465752 20.751263883180787  8.772660217515083 20.608105255481902  8.660087151733354 20.4967531639154  C 9.914473015745209 20.17860427584126  11.152775780790193 19.772965487260727  12.374997843253409 19.27983472407927  C 13.597220384993644 18.78670393126789  14.714908774411974 18.214024027431748  15.728065887170523 17.561818835028177  Z " stroke-width="0" stroke-dasharray="0" stroke="rgba(121, 121, 121, 1)" fill="none" transform="matrix(1 0 0 1 189 612 )" class="stroke" mask="url(#Clip4817)" />
    <path d="M 16.789468941890537 11.835144716418158  C 16.307012397937957 11.580625582254905  15.832597163830306 11.35792424359442  15.366223239567576 11.16703501149167  C 15.366223239567576 11.16703501149167  16.379384186542286 10.093280769779772  16.379384186542286 10.093280769779772  C 16.84575811080501 10.268262763406774  17.320173344912664 10.47505212280398  17.802629888865244 10.713664018491485  C 18.301168093953635 10.952275440100236  18.76754105966232 11.198844273576885  19.20175070309939 11.453363407740138  C 19.652042966226308 11.707882541903391  20.013886572383292 11.954451375380039  20.28727864590822 12.193062796988789  C 20.28727864590822 12.193062796988789  19.25000047927702 13.386118008717531  19.25000047927702 13.386118008717531  C 18.976608405752092 13.147506587108781  18.62280035811579 12.892997408599339  18.18858975612468 12.622570561881584  C 17.754379154133574 12.352144189242583  17.288006188424887 12.089663850581411  16.789468941890537 11.835144716418158  Z " stroke-width="0" stroke-dasharray="0" stroke="rgba(121, 121, 121, 1)" fill="none" transform="matrix(1 0 0 1 189 612 )" class="stroke" mask="url(#Clip4817)" />
    <path d="M 5.789470858998618 1.932754600977395  C 5.483915463202069 1.4396235711266385  5.162279364823751 1.0021768834373088  4.824559688201542 0.6203984192318062  C 4.824559688201542 0.6203984192318062  6.392543216408911 0.04772645621477595  6.392543216408911 0.04772645621477595  C 6.74634407488991 0.41359768194452967  7.084062792958079 0.8271925194165418  7.405700329167457 1.2885081241582947  C 7.7273373860998165 1.7498237289000476  7.96052386895416 2.1554625767404207  8.10526073628453 2.5054265639944253  C 8.10526073628453 2.5054265639944253  6.440789158370381 3.173536268920914  6.440789158370381 3.173536268920914  C 6.312134431452842 2.823573229824415  6.095026254795167 2.4099783923524027  5.789470858998618 1.932754600977395  Z " stroke-width="0" stroke-dasharray="0" stroke="rgba(121, 121, 121, 1)" fill="none" transform="matrix(1 0 0 1 189 612 )" class="stroke" mask="url(#Clip4817)" />
  </g>
</svg>