<?xml version="1.0" encoding="utf-8"?>
<svg version="1.1" xmlns:xlink="http://www.w3.org/1999/xlink" width="12px" height="17px" xmlns="http://www.w3.org/2000/svg">
  <defs>
    <pattern id="BGPattern" patternUnits="userSpaceOnUse" alignment="0 0" imageRepeat="None" />
    <mask fill="white" id="Clip4862">
      <path d="M 6.556740600912379 0  C 9.773231280478214 0  12 1.9339879165543963  12 4.990167969002015  C 12 8.046347309877381  9.773231280478214 10.004213456495423  6.556740600912379 10.004213456495423  C 6.556740600912379 10.004213456495423  1.880446751612396 10.004213456495423  1.880446751612396 10.004213456495423  L 1.880446751612396 17  L 0 17  L 0 0  C 0 0  6.556740600912379 0  6.556740600912379 0  Z M 6.383514236274972 8.380616202595057  C 8.585572990404279 8.380616202595057  10.119616171149913 7.234550106071704  10.119616171149913 4.990167969002015  C 10.119616171149913 2.745786543504579  8.585572990404279 1.6235944076113564  6.383514236274972 1.6235944076113564  C 6.383514236274972 1.6235944076113564  1.880446751612396 1.6235944076113564  1.880446751612396 1.6235944076113564  L 1.880446751612396 8.380616202595057  C 1.880446751612396 8.380616202595057  6.383514236274972 8.380616202595057  6.383514236274972 8.380616202595057  Z " fill-rule="evenodd" />
    </mask>
  </defs>
  <g transform="matrix(1 0 0 1 -768 -491 )">
    <path d="M 6.556740600912379 0  C 9.773231280478214 0  12 1.9339879165543963  12 4.990167969002015  C 12 8.046347309877381  9.773231280478214 10.004213456495423  6.556740600912379 10.004213456495423  C 6.556740600912379 10.004213456495423  1.880446751612396 10.004213456495423  1.880446751612396 10.004213456495423  L 1.880446751612396 17  L 0 17  L 0 0  C 0 0  6.556740600912379 0  6.556740600912379 0  Z M 6.383514236274972 8.380616202595057  C 8.585572990404279 8.380616202595057  10.119616171149913 7.234550106071704  10.119616171149913 4.990167969002015  C 10.119616171149913 2.745786543504579  8.585572990404279 1.6235944076113564  6.383514236274972 1.6235944076113564  C 6.383514236274972 1.6235944076113564  1.880446751612396 1.6235944076113564  1.880446751612396 1.6235944076113564  L 1.880446751612396 8.380616202595057  C 1.880446751612396 8.380616202595057  6.383514236274972 8.380616202595057  6.383514236274972 8.380616202595057  Z " fill-rule="nonzero" fill="rgba(0, 0, 0, 1)" stroke="none" transform="matrix(1 0 0 1 768 491 )" class="fill" />
    <path d="M 6.556740600912379 0  C 9.773231280478214 0  12 1.9339879165543963  12 4.990167969002015  C 12 8.046347309877381  9.773231280478214 10.004213456495423  6.556740600912379 10.004213456495423  C 6.556740600912379 10.004213456495423  1.880446751612396 10.004213456495423  1.880446751612396 10.004213456495423  L 1.880446751612396 17  L 0 17  L 0 0  C 0 0  6.556740600912379 0  6.556740600912379 0  Z " stroke-width="0" stroke-dasharray="0" stroke="rgba(121, 121, 121, 1)" fill="none" transform="matrix(1 0 0 1 768 491 )" class="stroke" mask="url(#Clip4862)" />
    <path d="M 6.383514236274972 8.380616202595057  C 8.585572990404279 8.380616202595057  10.119616171149913 7.234550106071704  10.119616171149913 4.990167969002015  C 10.119616171149913 2.745786543504579  8.585572990404279 1.6235944076113564  6.383514236274972 1.6235944076113564  C 6.383514236274972 1.6235944076113564  1.880446751612396 1.6235944076113564  1.880446751612396 1.6235944076113564  L 1.880446751612396 8.380616202595057  C 1.880446751612396 8.380616202595057  6.383514236274972 8.380616202595057  6.383514236274972 8.380616202595057  Z " stroke-width="0" stroke-dasharray="0" stroke="rgba(121, 121, 121, 1)" fill="none" transform="matrix(1 0 0 1 768 491 )" class="stroke" mask="url(#Clip4862)" />
  </g>
</svg>