<?xml version="1.0" encoding="utf-8"?>
<svg version="1.1" xmlns:xlink="http://www.w3.org/1999/xlink" width="39px" height="54px" xmlns="http://www.w3.org/2000/svg">
  <defs>
    <pattern id="BGPattern" patternUnits="userSpaceOnUse" alignment="0 0" imageRepeat="None" />
    <mask fill="white" id="Clip4779">
      <path d="M 22.261312616756406 0  L 31 0  C 31 0  16.77571878777413 39.087079203353795  16.77571878777413 39.087079203353795  C 16.074072313915792 40.960674622435555  15.308638760086184 42.38202483002212  14.288062589284314 43.41573284662905  C 12.374482506652171 45.353935137088165  9.886829634861503 46  7.144031294642157 46  C 7.144031294642157 46  3.8909529481483807 46  3.8909529481483807 46  L 3.8909529481483807 38.44101241501106  C 3.8909529481483807 38.44101241501106  5.804531129809579 38.44101241501106  5.804531129809579 38.44101241501106  C 8.164612693114119 38.44101241501106  9.121406061129338 37.85954864718387  9.950624793959278 35.404492348421286  C 9.950624793959278 35.404492348421286  11.3539063358503 31.26966798371722  11.3539063358503 31.26966798371722  L 0 0  L 8.73868738324359 0  L 15.627577961884429 20.803372149462326  L 22.261312616756406 0  Z " fill-rule="evenodd" />
    </mask>
  </defs>
  <g transform="matrix(1 0 0 1 -309 -325 )">
    <path d="M 22.261312616756406 0  L 31 0  C 31 0  16.77571878777413 39.087079203353795  16.77571878777413 39.087079203353795  C 16.074072313915792 40.960674622435555  15.308638760086184 42.38202483002212  14.288062589284314 43.41573284662905  C 12.374482506652171 45.353935137088165  9.886829634861503 46  7.144031294642157 46  C 7.144031294642157 46  3.8909529481483807 46  3.8909529481483807 46  L 3.8909529481483807 38.44101241501106  C 3.8909529481483807 38.44101241501106  5.804531129809579 38.44101241501106  5.804531129809579 38.44101241501106  C 8.164612693114119 38.44101241501106  9.121406061129338 37.85954864718387  9.950624793959278 35.404492348421286  C 9.950624793959278 35.404492348421286  11.3539063358503 31.26966798371722  11.3539063358503 31.26966798371722  L 0 0  L 8.73868738324359 0  L 15.627577961884429 20.803372149462326  L 22.261312616756406 0  Z " fill-rule="nonzero" fill="rgba(61, 63, 148, 1)" stroke="none" transform="matrix(1 0 0 1 313 325 )" class="fill" />
    <path d="M 22.261312616756406 0  L 31 0  C 31 0  16.77571878777413 39.087079203353795  16.77571878777413 39.087079203353795  C 16.074072313915792 40.960674622435555  15.308638760086184 42.38202483002212  14.288062589284314 43.41573284662905  C 12.374482506652171 45.353935137088165  9.886829634861503 46  7.144031294642157 46  C 7.144031294642157 46  3.8909529481483807 46  3.8909529481483807 46  L 3.8909529481483807 38.44101241501106  C 3.8909529481483807 38.44101241501106  5.804531129809579 38.44101241501106  5.804531129809579 38.44101241501106  C 8.164612693114119 38.44101241501106  9.121406061129338 37.85954864718387  9.950624793959278 35.404492348421286  C 9.950624793959278 35.404492348421286  11.3539063358503 31.26966798371722  11.3539063358503 31.26966798371722  L 0 0  L 8.73868738324359 0  L 15.627577961884429 20.803372149462326  L 22.261312616756406 0  Z " stroke-width="0" stroke-dasharray="0" stroke="rgba(121, 121, 121, 1)" fill="none" transform="matrix(1 0 0 1 313 325 )" class="stroke" mask="url(#Clip4779)" />
  </g>
  <style>svg { filter: drop-shadow(0px 4px 2px rgba(0, 0, 0, 0.12941176470588237)); }</style>
</svg>