<?xml version="1.0" encoding="utf-8"?>
<svg version="1.1" xmlns:xlink="http://www.w3.org/1999/xlink" width="14px" height="17px" xmlns="http://www.w3.org/2000/svg">
  <defs>
    <pattern id="BGPattern" patternUnits="userSpaceOnUse" alignment="0 0" imageRepeat="None" />
    <mask fill="white" id="Clip4852">
      <path d="M 7.7751258567356105 0  L 14 17  L 12.068144598774792 17  L 10.708679565718445 13.155900736619596  L 3.291320434281555 13.155900736619596  L 1.9318554012252078 17  L 0 17  L 6.248711105719658 0  L 7.7751258567356105 0  Z M 3.839873839995148 11.580054724650001  L 10.183993449384364 11.580054724650001  L 7.035785770607145 2.6025290226602555  L 3.839873839995148 11.580054724650001  Z " fill-rule="evenodd" />
    </mask>
  </defs>
  <g transform="matrix(1 0 0 1 -559 -522 )">
    <path d="M 7.7751258567356105 0  L 14 17  L 12.068144598774792 17  L 10.708679565718445 13.155900736619596  L 3.291320434281555 13.155900736619596  L 1.9318554012252078 17  L 0 17  L 6.248711105719658 0  L 7.7751258567356105 0  Z M 3.839873839995148 11.580054724650001  L 10.183993449384364 11.580054724650001  L 7.035785770607145 2.6025290226602555  L 3.839873839995148 11.580054724650001  Z " fill-rule="nonzero" fill="rgba(0, 0, 0, 1)" stroke="none" transform="matrix(1 0 0 1 559 522 )" class="fill" />
    <path d="M 7.7751258567356105 0  L 14 17  L 12.068144598774792 17  L 10.708679565718445 13.155900736619596  L 3.291320434281555 13.155900736619596  L 1.9318554012252078 17  L 0 17  L 6.248711105719658 0  L 7.7751258567356105 0  Z " stroke-width="0" stroke-dasharray="0" stroke="rgba(121, 121, 121, 1)" fill="none" transform="matrix(1 0 0 1 559 522 )" class="stroke" mask="url(#Clip4852)" />
    <path d="M 3.839873839995148 11.580054724650001  L 10.183993449384364 11.580054724650001  L 7.035785770607145 2.6025290226602555  L 3.839873839995148 11.580054724650001  Z " stroke-width="0" stroke-dasharray="0" stroke="rgba(121, 121, 121, 1)" fill="none" transform="matrix(1 0 0 1 559 522 )" class="stroke" mask="url(#Clip4852)" />
  </g>
</svg>