<?xml version="1.0" encoding="utf-8"?>
<svg version="1.1" xmlns:xlink="http://www.w3.org/1999/xlink" width="23px" height="22px" xmlns="http://www.w3.org/2000/svg">
  <defs>
    <pattern id="BGPattern" patternUnits="userSpaceOnUse" alignment="0 0" imageRepeat="None" />
    <mask fill="white" id="Clip4847">
      <path d="M 12.064784906768464 6.848154816536694  L 12.064784906768464 5.2971815242373195  L 20.428421617678616 5.2971815242373195  L 20.428421617678616 6.848154816536694  L 12.064784906768464 6.848154816536694  Z M 9.829676973168901 21.713664018491485  C 9.829676973168901 21.713664018491485  9.276906003131746 19.9718000718531  9.276906003131746 19.9718000718531  C 9.981886771033816 19.82863308851619  10.774989478359135 19.66160711415075  11.656215557612088 19.470717793158233  C 12.553463720850818 19.263921026280514  13.490770436564222 19.041212161619825  14.468129974734774 18.8026005029717  C 15.461512551894028 18.56398884432357  16.46290187353303 18.325376000478563  17.472305579675144 18.08676434183043  C 17.472305579675144 18.08676434183043  17.664574407516188 19.73319054655936  17.664574407516188 19.73319054655936  C 16.28665703968361 20.083154296773987  14.908741581856871 20.43311780994924  13.530825169027212 20.78308156016387  C 12.152907801194633 21.13304534000842  10.919192531744297 21.443237527332798  9.829676973168901 21.713664018491485  Z M 12.112852113728723 2.6008718911639304  L 12.112852113728723 1.0021721426497796  L 21 1.0021721426497796  L 21 11.262472753401125  L 12.112852113728723 11.262472753401125  L 12.112852113728723 9.663773004886977  L 19.659353946337802 9.663773004886977  L 19.659353946337802 2.6008718911639304  L 12.112852113728723 2.6008718911639304  Z M 15.141063232155064 10.832972573768377  C 15.141063232155064 10.832972573768377  16.679202394848367 10.57049982036725  16.679202394848367 10.57049982036725  C 16.99964884957857 12.065799674316516  17.432255622226755 13.473609479609788  17.977013162763722 14.793927102892672  C 18.537793742289388 16.098337487699812  19.22674717368962 17.243674539591954  20.04388396199653 18.229936125214714  C 20.877042834289224 19.216197710837474  21.862417711965804 19.979755705925676  23 20.52060880676274  C 22.871822373110838 20.631960898329243  22.727622662235895 20.775127081658255  22.567398957369335 20.95010898639549  C 22.423198291491474 21.125090861502805  22.27899858061653 21.300072618090432  22.13479791473867 21.475054493197746  C 22.006620287849508 21.665943843820187  21.902470534422953 21.84092560040781  21.822359159491135 22  C 20.62068662550798 21.34779480759643  19.579235886385547 20.472886143177988  18.698009807132593 19.37527246598873  C 17.83280676686834 18.277658788799467  17.11180725749071 17.005059562392557  16.535004593979263 15.557482134988668  C 15.958201930467816 14.109904707584779  15.49355385485683 12.535068898296144  15.141063232155064 10.832972573768377  Z M 19.94774954807601 13.338391552502758  C 20.396373629695375 12.940705375742752  20.78892280487181 12.574837942643022  21.125390388584876 12.240781667943518  C 21.125390388584876 12.240781667943518  22.37513012952829 13.45770010777965  22.37513012952829 13.45770010777965  C 21.750260259056585 13.998553327136404  21.069312617133185 14.547358269416025  20.332287203758092 15.10411872724853  C 19.595261790383002 15.660879422120411  18.922326622956874 16.138104872771056  18.313479791473867 16.53579104953106  C 18.313479791473867 16.53579104953106  17.256008878371492 15.46203680781916  17.256008878371492 15.46203680781916  C 17.656566708033516 15.191610198140785  18.089165840658346 14.873462347113913  18.55381200626349 14.507591121384158  C 19.034481210857336 14.12581242013928  19.499125466456643 13.736077729262762  19.94774954807601 13.338391552502758  Z M 11 20.44901912244058  L 11 1.0021721426497796  L 13 1.0021721426497796  L 13 20.138827498084723  L 11 20.44901912244058  Z M 2.138977339690719 7.444690007661112  L 2.138977339690719 5.893709130101691  L 9.421107624012528 5.893709130101691  L 9.421107624012528 7.444690007661112  L 2.138977339690719 7.444690007661112  Z M 0.9132692922215925 11.548808734909644  L 0.9132692922215925 9.97397221450288  L 10.045977494484235 9.97397221450288  L 10.045977494484235 11.548808734909644  L 0.9132692922215925 11.548808734909644  Z M 2.066874619244488 15.533618906881278  C 1.8906294272689705 14.706431839370397  1.6743297415811926 13.934925558430292  1.417973055298489 13.21909058248591  C 1.417973055298489 13.21909058248591  2.6917444897161964 12.908891372870006  2.6917444897161964 12.908891372870006  C 2.9481011759988998 13.608818873299265  3.1724141718115026 14.372376749867776  3.3646815671481654 15.199564054418035  C 3.556949201235558 16.010843646413793  3.6851263506232597 16.718726425356557  3.7492154028185705 17.323209309734438  C 3.7492154028185705 17.323209309734438  2.379309554480342 17.681127390305072  2.379309554480342 17.681127390305072  C 2.347264909007322 17.060737030412067  2.2431198112200055 16.344898498877036  2.066874619244488 15.533618906881278  Z M 1.0334392196280837 21.23643738264396  C 1.0334392196280837 21.23643738264396  0.6008343569857384 19.61388199128247  0.6008343569857384 19.61388199128247  C 1.3859265595073116 19.470715007945557  2.2991969857948713 19.303689033580117  3.340646053662195 19.112799712587602  C 4.38209488277879 18.92191036196516  5.495646432341614 18.715113121008688  6.681295927336071 18.49240887861584  C 7.8669454223305255 18.26970469548284  9.052593007319143 18.046995771562308  10.238242502313598 17.824291588429308  C 10.238242502313598 17.824291588429308  10.358412429720088 19.351409237881338  10.358412429720088 19.351409237881338  C 9.268896871144694 19.574113450644266  8.1633582735806 19.796814730044904  7.0417980695321845 20.019518942807828  C 5.9362597107188195 20.242223155570752  4.870776323119175 20.456976238009254  3.8453498167390916 20.663773004886977  C 2.819923190983643 20.8705697717647  1.8826206534080152 21.061455507536646  1.0334392196280837 21.23643738264396  Z M 8.027166262188327 14.078090941751409  C 8.171366928066192 13.537237722394654  8.283525335978332 13.052064104411794  8.363636710910153 12.622562976621538  C 8.363636710910153 12.622562976621538  9.829676973168901 13.05206315625429  9.829676973168901 13.05206315625429  C 9.589342370871979 13.783805607713795  9.340993861573406 14.555311888653899  9.084637175290702 15.366591480649658  C 8.828280489008 16.16196359713029  8.579935322219645 16.838030832444364  8.339601197424184 17.394791408796557  C 8.339601197424184 17.394791408796557  7.185995870401287 17.013017685378585  7.185995870401287 17.013017685378585  C 7.33019653627915 16.61533150861858  7.474400067165771 16.161965730484678  7.618600733043632 15.652927462158173  C 7.762801398921495 15.127981955355917  7.898988157797707 14.603036448553663  8.027166262188327 14.078090941751409  Z M 5 19.73319054655936  L 5 6.585682063135567  L 6.464995406020737 6.585682063135567  L 6.464995406020737 19.494573436005574  L 5 19.73319054655936  Z M 3.629049295423759 2.052063156254288  C 4.077673377043125 1.320320704794781  4.43817289298121 0.6362980724475084  4.710551902000423 0  C 4.710551902000423 0  5.695923914668247 0  5.695923914668247 0  L 5.695923914668247 0.3817813086780202  L 6.224659371219435 0.3817813086780202  C 6.224659371219435 0.3817813086780202  6.224659371219435 0.8828635873728865  6.224659371219435 0.8828635873728865  C 5.90421339399069 1.487346234711391  5.503655564328664 2.1634138255845303  5.022986837236278 2.9110635155197864  C 4.542318110143892 3.6428059669792945  3.9815375306182244 4.390459449544574  3.340646053662195 5.1540173261130855  C 2.715776660691947 5.901667016048342  1.9867645574416817 6.625454426033716  1.1536053270228956 7.325381452384219  C 1.0734939520910745 7.198122596420722  0.9613393641906126 7.06291154345561  0.8171386983127508 6.919744500858858  C 0.688960355171399 6.776577458262107  0.5527699553465548 6.633403778562815  0.4085693491563754 6.490236735966063  C 0.2643687429661959 6.34706969336931  0.12817831329751048 6.235719024039069  0 6.156181883502818  C 0.7690699394727453 5.551699236164313  1.4500180588976044 4.899492028926044  2.0428429257701977 4.199564054418034  C 2.651689996003936 3.483728841434276  3.180425213804393 2.7678974210805407  3.629049295423759 2.052063156254288  Z M 4.998955143761988 1.2646448960509067  L 4.998955143761988 0  C 4.998955143761988 0  6.344825478614246 0  6.344825478614246 0  C 6.873560935165433 0.4295011277902551  7.418318953203861 0.9146828051119137  7.979099055228068 1.455535550389917  C 8.539879634753737 1.9804810571921712  9.068618433815143 2.5133816054685587  9.56530924489331 3.054235298904068  C 10.062000533472935 3.579180805706322  10.46255454312328 4.048443866662161  10.766977958864786 4.462036807819161  C 10.766977958864786 4.462036807819161  9.541273731407339 5.845990259146962  9.541273731407339 5.845990259146962  C 9.252872399651615 5.416489131356707  8.876350560977018 4.931307454035048  8.411703917870414 4.390454708757044  C 7.947057752265267 3.8336937768457866  7.4503640761783405 3.284888834566168  6.9216281421256936 2.744036089288165  C 6.392892685574506 2.1872751573769067  5.872170658523508 1.6941460238411619  5.3594572859581024 1.2646448960509067  C 5.3594572859581024 1.2646448960509067  4.998955143761988 1.2646448960509067  4.998955143761988 1.2646448960509067  Z " fill-rule="evenodd" />
    </mask>
  </defs>
  <g transform="matrix(1 0 0 1 -189 -581 )">
    <path d="M 12.064784906768464 6.848154816536694  L 12.064784906768464 5.2971815242373195  L 20.428421617678616 5.2971815242373195  L 20.428421617678616 6.848154816536694  L 12.064784906768464 6.848154816536694  Z M 9.829676973168901 21.713664018491485  C 9.829676973168901 21.713664018491485  9.276906003131746 19.9718000718531  9.276906003131746 19.9718000718531  C 9.981886771033816 19.82863308851619  10.774989478359135 19.66160711415075  11.656215557612088 19.470717793158233  C 12.553463720850818 19.263921026280514  13.490770436564222 19.041212161619825  14.468129974734774 18.8026005029717  C 15.461512551894028 18.56398884432357  16.46290187353303 18.325376000478563  17.472305579675144 18.08676434183043  C 17.472305579675144 18.08676434183043  17.664574407516188 19.73319054655936  17.664574407516188 19.73319054655936  C 16.28665703968361 20.083154296773987  14.908741581856871 20.43311780994924  13.530825169027212 20.78308156016387  C 12.152907801194633 21.13304534000842  10.919192531744297 21.443237527332798  9.829676973168901 21.713664018491485  Z M 12.112852113728723 2.6008718911639304  L 12.112852113728723 1.0021721426497796  L 21 1.0021721426497796  L 21 11.262472753401125  L 12.112852113728723 11.262472753401125  L 12.112852113728723 9.663773004886977  L 19.659353946337802 9.663773004886977  L 19.659353946337802 2.6008718911639304  L 12.112852113728723 2.6008718911639304  Z M 15.141063232155064 10.832972573768377  C 15.141063232155064 10.832972573768377  16.679202394848367 10.57049982036725  16.679202394848367 10.57049982036725  C 16.99964884957857 12.065799674316516  17.432255622226755 13.473609479609788  17.977013162763722 14.793927102892672  C 18.537793742289388 16.098337487699812  19.22674717368962 17.243674539591954  20.04388396199653 18.229936125214714  C 20.877042834289224 19.216197710837474  21.862417711965804 19.979755705925676  23 20.52060880676274  C 22.871822373110838 20.631960898329243  22.727622662235895 20.775127081658255  22.567398957369335 20.95010898639549  C 22.423198291491474 21.125090861502805  22.27899858061653 21.300072618090432  22.13479791473867 21.475054493197746  C 22.006620287849508 21.665943843820187  21.902470534422953 21.84092560040781  21.822359159491135 22  C 20.62068662550798 21.34779480759643  19.579235886385547 20.472886143177988  18.698009807132593 19.37527246598873  C 17.83280676686834 18.277658788799467  17.11180725749071 17.005059562392557  16.535004593979263 15.557482134988668  C 15.958201930467816 14.109904707584779  15.49355385485683 12.535068898296144  15.141063232155064 10.832972573768377  Z M 19.94774954807601 13.338391552502758  C 20.396373629695375 12.940705375742752  20.78892280487181 12.574837942643022  21.125390388584876 12.240781667943518  C 21.125390388584876 12.240781667943518  22.37513012952829 13.45770010777965  22.37513012952829 13.45770010777965  C 21.750260259056585 13.998553327136404  21.069312617133185 14.547358269416025  20.332287203758092 15.10411872724853  C 19.595261790383002 15.660879422120411  18.922326622956874 16.138104872771056  18.313479791473867 16.53579104953106  C 18.313479791473867 16.53579104953106  17.256008878371492 15.46203680781916  17.256008878371492 15.46203680781916  C 17.656566708033516 15.191610198140785  18.089165840658346 14.873462347113913  18.55381200626349 14.507591121384158  C 19.034481210857336 14.12581242013928  19.499125466456643 13.736077729262762  19.94774954807601 13.338391552502758  Z M 11 20.44901912244058  L 11 1.0021721426497796  L 13 1.0021721426497796  L 13 20.138827498084723  L 11 20.44901912244058  Z M 2.138977339690719 7.444690007661112  L 2.138977339690719 5.893709130101691  L 9.421107624012528 5.893709130101691  L 9.421107624012528 7.444690007661112  L 2.138977339690719 7.444690007661112  Z M 0.9132692922215925 11.548808734909644  L 0.9132692922215925 9.97397221450288  L 10.045977494484235 9.97397221450288  L 10.045977494484235 11.548808734909644  L 0.9132692922215925 11.548808734909644  Z M 2.066874619244488 15.533618906881278  C 1.8906294272689705 14.706431839370397  1.6743297415811926 13.934925558430292  1.417973055298489 13.21909058248591  C 1.417973055298489 13.21909058248591  2.6917444897161964 12.908891372870006  2.6917444897161964 12.908891372870006  C 2.9481011759988998 13.608818873299265  3.1724141718115026 14.372376749867776  3.3646815671481654 15.199564054418035  C 3.556949201235558 16.010843646413793  3.6851263506232597 16.718726425356557  3.7492154028185705 17.323209309734438  C 3.7492154028185705 17.323209309734438  2.379309554480342 17.681127390305072  2.379309554480342 17.681127390305072  C 2.347264909007322 17.060737030412067  2.2431198112200055 16.344898498877036  2.066874619244488 15.533618906881278  Z M 1.0334392196280837 21.23643738264396  C 1.0334392196280837 21.23643738264396  0.6008343569857384 19.61388199128247  0.6008343569857384 19.61388199128247  C 1.3859265595073116 19.470715007945557  2.2991969857948713 19.303689033580117  3.340646053662195 19.112799712587602  C 4.38209488277879 18.92191036196516  5.495646432341614 18.715113121008688  6.681295927336071 18.49240887861584  C 7.8669454223305255 18.26970469548284  9.052593007319143 18.046995771562308  10.238242502313598 17.824291588429308  C 10.238242502313598 17.824291588429308  10.358412429720088 19.351409237881338  10.358412429720088 19.351409237881338  C 9.268896871144694 19.574113450644266  8.1633582735806 19.796814730044904  7.0417980695321845 20.019518942807828  C 5.9362597107188195 20.242223155570752  4.870776323119175 20.456976238009254  3.8453498167390916 20.663773004886977  C 2.819923190983643 20.8705697717647  1.8826206534080152 21.061455507536646  1.0334392196280837 21.23643738264396  Z M 8.027166262188327 14.078090941751409  C 8.171366928066192 13.537237722394654  8.283525335978332 13.052064104411794  8.363636710910153 12.622562976621538  C 8.363636710910153 12.622562976621538  9.829676973168901 13.05206315625429  9.829676973168901 13.05206315625429  C 9.589342370871979 13.783805607713795  9.340993861573406 14.555311888653899  9.084637175290702 15.366591480649658  C 8.828280489008 16.16196359713029  8.579935322219645 16.838030832444364  8.339601197424184 17.394791408796557  C 8.339601197424184 17.394791408796557  7.185995870401287 17.013017685378585  7.185995870401287 17.013017685378585  C 7.33019653627915 16.61533150861858  7.474400067165771 16.161965730484678  7.618600733043632 15.652927462158173  C 7.762801398921495 15.127981955355917  7.898988157797707 14.603036448553663  8.027166262188327 14.078090941751409  Z M 5 19.73319054655936  L 5 6.585682063135567  L 6.464995406020737 6.585682063135567  L 6.464995406020737 19.494573436005574  L 5 19.73319054655936  Z M 3.629049295423759 2.052063156254288  C 4.077673377043125 1.320320704794781  4.43817289298121 0.6362980724475084  4.710551902000423 0  C 4.710551902000423 0  5.695923914668247 0  5.695923914668247 0  L 5.695923914668247 0.3817813086780202  L 6.224659371219435 0.3817813086780202  C 6.224659371219435 0.3817813086780202  6.224659371219435 0.8828635873728865  6.224659371219435 0.8828635873728865  C 5.90421339399069 1.487346234711391  5.503655564328664 2.1634138255845303  5.022986837236278 2.9110635155197864  C 4.542318110143892 3.6428059669792945  3.9815375306182244 4.390459449544574  3.340646053662195 5.1540173261130855  C 2.715776660691947 5.901667016048342  1.9867645574416817 6.625454426033716  1.1536053270228956 7.325381452384219  C 1.0734939520910745 7.198122596420722  0.9613393641906126 7.06291154345561  0.8171386983127508 6.919744500858858  C 0.688960355171399 6.776577458262107  0.5527699553465548 6.633403778562815  0.4085693491563754 6.490236735966063  C 0.2643687429661959 6.34706969336931  0.12817831329751048 6.235719024039069  0 6.156181883502818  C 0.7690699394727453 5.551699236164313  1.4500180588976044 4.899492028926044  2.0428429257701977 4.199564054418034  C 2.651689996003936 3.483728841434276  3.180425213804393 2.7678974210805407  3.629049295423759 2.052063156254288  Z M 4.998955143761988 1.2646448960509067  L 4.998955143761988 0  C 4.998955143761988 0  6.344825478614246 0  6.344825478614246 0  C 6.873560935165433 0.4295011277902551  7.418318953203861 0.9146828051119137  7.979099055228068 1.455535550389917  C 8.539879634753737 1.9804810571921712  9.068618433815143 2.5133816054685587  9.56530924489331 3.054235298904068  C 10.062000533472935 3.579180805706322  10.46255454312328 4.048443866662161  10.766977958864786 4.462036807819161  C 10.766977958864786 4.462036807819161  9.541273731407339 5.845990259146962  9.541273731407339 5.845990259146962  C 9.252872399651615 5.416489131356707  8.876350560977018 4.931307454035048  8.411703917870414 4.390454708757044  C 7.947057752265267 3.8336937768457866  7.4503640761783405 3.284888834566168  6.9216281421256936 2.744036089288165  C 6.392892685574506 2.1872751573769067  5.872170658523508 1.6941460238411619  5.3594572859581024 1.2646448960509067  C 5.3594572859581024 1.2646448960509067  4.998955143761988 1.2646448960509067  4.998955143761988 1.2646448960509067  Z " fill-rule="nonzero" fill="rgba(0, 0, 0, 1)" stroke="none" transform="matrix(1 0 0 1 189 581 )" class="fill" />
    <path d="M 12.064784906768464 6.848154816536694  L 12.064784906768464 5.2971815242373195  L 20.428421617678616 5.2971815242373195  L 20.428421617678616 6.848154816536694  L 12.064784906768464 6.848154816536694  Z " stroke-width="0" stroke-dasharray="0" stroke="rgba(121, 121, 121, 1)" fill="none" transform="matrix(1 0 0 1 189 581 )" class="stroke" mask="url(#Clip4847)" />
    <path d="M 9.829676973168901 21.713664018491485  C 9.829676973168901 21.713664018491485  9.276906003131746 19.9718000718531  9.276906003131746 19.9718000718531  C 9.981886771033816 19.82863308851619  10.774989478359135 19.66160711415075  11.656215557612088 19.470717793158233  C 12.553463720850818 19.263921026280514  13.490770436564222 19.041212161619825  14.468129974734774 18.8026005029717  C 15.461512551894028 18.56398884432357  16.46290187353303 18.325376000478563  17.472305579675144 18.08676434183043  C 17.472305579675144 18.08676434183043  17.664574407516188 19.73319054655936  17.664574407516188 19.73319054655936  C 16.28665703968361 20.083154296773987  14.908741581856871 20.43311780994924  13.530825169027212 20.78308156016387  C 12.152907801194633 21.13304534000842  10.919192531744297 21.443237527332798  9.829676973168901 21.713664018491485  Z " stroke-width="0" stroke-dasharray="0" stroke="rgba(121, 121, 121, 1)" fill="none" transform="matrix(1 0 0 1 189 581 )" class="stroke" mask="url(#Clip4847)" />
    <path d="M 12.112852113728723 2.6008718911639304  L 12.112852113728723 1.0021721426497796  L 21 1.0021721426497796  L 21 11.262472753401125  L 12.112852113728723 11.262472753401125  L 12.112852113728723 9.663773004886977  L 19.659353946337802 9.663773004886977  L 19.659353946337802 2.6008718911639304  L 12.112852113728723 2.6008718911639304  Z " stroke-width="0" stroke-dasharray="0" stroke="rgba(121, 121, 121, 1)" fill="none" transform="matrix(1 0 0 1 189 581 )" class="stroke" mask="url(#Clip4847)" />
    <path d="M 15.141063232155064 10.832972573768377  C 15.141063232155064 10.832972573768377  16.679202394848367 10.57049982036725  16.679202394848367 10.57049982036725  C 16.99964884957857 12.065799674316516  17.432255622226755 13.473609479609788  17.977013162763722 14.793927102892672  C 18.537793742289388 16.098337487699812  19.22674717368962 17.243674539591954  20.04388396199653 18.229936125214714  C 20.877042834289224 19.216197710837474  21.862417711965804 19.979755705925676  23 20.52060880676274  C 22.871822373110838 20.631960898329243  22.727622662235895 20.775127081658255  22.567398957369335 20.95010898639549  C 22.423198291491474 21.125090861502805  22.27899858061653 21.300072618090432  22.13479791473867 21.475054493197746  C 22.006620287849508 21.665943843820187  21.902470534422953 21.84092560040781  21.822359159491135 22  C 20.62068662550798 21.34779480759643  19.579235886385547 20.472886143177988  18.698009807132593 19.37527246598873  C 17.83280676686834 18.277658788799467  17.11180725749071 17.005059562392557  16.535004593979263 15.557482134988668  C 15.958201930467816 14.109904707584779  15.49355385485683 12.535068898296144  15.141063232155064 10.832972573768377  Z " stroke-width="0" stroke-dasharray="0" stroke="rgba(121, 121, 121, 1)" fill="none" transform="matrix(1 0 0 1 189 581 )" class="stroke" mask="url(#Clip4847)" />
    <path d="M 19.94774954807601 13.338391552502758  C 20.396373629695375 12.940705375742752  20.78892280487181 12.574837942643022  21.125390388584876 12.240781667943518  C 21.125390388584876 12.240781667943518  22.37513012952829 13.45770010777965  22.37513012952829 13.45770010777965  C 21.750260259056585 13.998553327136404  21.069312617133185 14.547358269416025  20.332287203758092 15.10411872724853  C 19.595261790383002 15.660879422120411  18.922326622956874 16.138104872771056  18.313479791473867 16.53579104953106  C 18.313479791473867 16.53579104953106  17.256008878371492 15.46203680781916  17.256008878371492 15.46203680781916  C 17.656566708033516 15.191610198140785  18.089165840658346 14.873462347113913  18.55381200626349 14.507591121384158  C 19.034481210857336 14.12581242013928  19.499125466456643 13.736077729262762  19.94774954807601 13.338391552502758  Z " stroke-width="0" stroke-dasharray="0" stroke="rgba(121, 121, 121, 1)" fill="none" transform="matrix(1 0 0 1 189 581 )" class="stroke" mask="url(#Clip4847)" />
    <path d="M 11 20.44901912244058  L 11 1.0021721426497796  L 13 1.0021721426497796  L 13 20.138827498084723  L 11 20.44901912244058  Z " stroke-width="0" stroke-dasharray="0" stroke="rgba(121, 121, 121, 1)" fill="none" transform="matrix(1 0 0 1 189 581 )" class="stroke" mask="url(#Clip4847)" />
    <path d="M 2.138977339690719 7.444690007661112  L 2.138977339690719 5.893709130101691  L 9.421107624012528 5.893709130101691  L 9.421107624012528 7.444690007661112  L 2.138977339690719 7.444690007661112  Z " stroke-width="0" stroke-dasharray="0" stroke="rgba(121, 121, 121, 1)" fill="none" transform="matrix(1 0 0 1 189 581 )" class="stroke" mask="url(#Clip4847)" />
    <path d="M 0.9132692922215925 11.548808734909644  L 0.9132692922215925 9.97397221450288  L 10.045977494484235 9.97397221450288  L 10.045977494484235 11.548808734909644  L 0.9132692922215925 11.548808734909644  Z " stroke-width="0" stroke-dasharray="0" stroke="rgba(121, 121, 121, 1)" fill="none" transform="matrix(1 0 0 1 189 581 )" class="stroke" mask="url(#Clip4847)" />
    <path d="M 2.066874619244488 15.533618906881278  C 1.8906294272689705 14.706431839370397  1.6743297415811926 13.934925558430292  1.417973055298489 13.21909058248591  C 1.417973055298489 13.21909058248591  2.6917444897161964 12.908891372870006  2.6917444897161964 12.908891372870006  C 2.9481011759988998 13.608818873299265  3.1724141718115026 14.372376749867776  3.3646815671481654 15.199564054418035  C 3.556949201235558 16.010843646413793  3.6851263506232597 16.718726425356557  3.7492154028185705 17.323209309734438  C 3.7492154028185705 17.323209309734438  2.379309554480342 17.681127390305072  2.379309554480342 17.681127390305072  C 2.347264909007322 17.060737030412067  2.2431198112200055 16.344898498877036  2.066874619244488 15.533618906881278  Z " stroke-width="0" stroke-dasharray="0" stroke="rgba(121, 121, 121, 1)" fill="none" transform="matrix(1 0 0 1 189 581 )" class="stroke" mask="url(#Clip4847)" />
    <path d="M 1.0334392196280837 21.23643738264396  C 1.0334392196280837 21.23643738264396  0.6008343569857384 19.61388199128247  0.6008343569857384 19.61388199128247  C 1.3859265595073116 19.470715007945557  2.2991969857948713 19.303689033580117  3.340646053662195 19.112799712587602  C 4.38209488277879 18.92191036196516  5.495646432341614 18.715113121008688  6.681295927336071 18.49240887861584  C 7.8669454223305255 18.26970469548284  9.052593007319143 18.046995771562308  10.238242502313598 17.824291588429308  C 10.238242502313598 17.824291588429308  10.358412429720088 19.351409237881338  10.358412429720088 19.351409237881338  C 9.268896871144694 19.574113450644266  8.1633582735806 19.796814730044904  7.0417980695321845 20.019518942807828  C 5.9362597107188195 20.242223155570752  4.870776323119175 20.456976238009254  3.8453498167390916 20.663773004886977  C 2.819923190983643 20.8705697717647  1.8826206534080152 21.061455507536646  1.0334392196280837 21.23643738264396  Z " stroke-width="0" stroke-dasharray="0" stroke="rgba(121, 121, 121, 1)" fill="none" transform="matrix(1 0 0 1 189 581 )" class="stroke" mask="url(#Clip4847)" />
    <path d="M 8.027166262188327 14.078090941751409  C 8.171366928066192 13.537237722394654  8.283525335978332 13.052064104411794  8.363636710910153 12.622562976621538  C 8.363636710910153 12.622562976621538  9.829676973168901 13.05206315625429  9.829676973168901 13.05206315625429  C 9.589342370871979 13.783805607713795  9.340993861573406 14.555311888653899  9.084637175290702 15.366591480649658  C 8.828280489008 16.16196359713029  8.579935322219645 16.838030832444364  8.339601197424184 17.394791408796557  C 8.339601197424184 17.394791408796557  7.185995870401287 17.013017685378585  7.185995870401287 17.013017685378585  C 7.33019653627915 16.61533150861858  7.474400067165771 16.161965730484678  7.618600733043632 15.652927462158173  C 7.762801398921495 15.127981955355917  7.898988157797707 14.603036448553663  8.027166262188327 14.078090941751409  Z " stroke-width="0" stroke-dasharray="0" stroke="rgba(121, 121, 121, 1)" fill="none" transform="matrix(1 0 0 1 189 581 )" class="stroke" mask="url(#Clip4847)" />
    <path d="M 5 19.73319054655936  L 5 6.585682063135567  L 6.464995406020737 6.585682063135567  L 6.464995406020737 19.494573436005574  L 5 19.73319054655936  Z " stroke-width="0" stroke-dasharray="0" stroke="rgba(121, 121, 121, 1)" fill="none" transform="matrix(1 0 0 1 189 581 )" class="stroke" mask="url(#Clip4847)" />
    <path d="M 3.629049295423759 2.052063156254288  C 4.077673377043125 1.320320704794781  4.43817289298121 0.6362980724475084  4.710551902000423 0  C 4.710551902000423 0  5.695923914668247 0  5.695923914668247 0  L 5.695923914668247 0.3817813086780202  L 6.224659371219435 0.3817813086780202  C 6.224659371219435 0.3817813086780202  6.224659371219435 0.8828635873728865  6.224659371219435 0.8828635873728865  C 5.90421339399069 1.487346234711391  5.503655564328664 2.1634138255845303  5.022986837236278 2.9110635155197864  C 4.542318110143892 3.6428059669792945  3.9815375306182244 4.390459449544574  3.340646053662195 5.1540173261130855  C 2.715776660691947 5.901667016048342  1.9867645574416817 6.625454426033716  1.1536053270228956 7.325381452384219  C 1.0734939520910745 7.198122596420722  0.9613393641906126 7.06291154345561  0.8171386983127508 6.919744500858858  C 0.688960355171399 6.776577458262107  0.5527699553465548 6.633403778562815  0.4085693491563754 6.490236735966063  C 0.2643687429661959 6.34706969336931  0.12817831329751048 6.235719024039069  0 6.156181883502818  C 0.7690699394727453 5.551699236164313  1.4500180588976044 4.899492028926044  2.0428429257701977 4.199564054418034  C 2.651689996003936 3.483728841434276  3.180425213804393 2.7678974210805407  3.629049295423759 2.052063156254288  Z " stroke-width="0" stroke-dasharray="0" stroke="rgba(121, 121, 121, 1)" fill="none" transform="matrix(1 0 0 1 189 581 )" class="stroke" mask="url(#Clip4847)" />
    <path d="M 4.998955143761988 1.2646448960509067  L 4.998955143761988 0  C 4.998955143761988 0  6.344825478614246 0  6.344825478614246 0  C 6.873560935165433 0.4295011277902551  7.418318953203861 0.9146828051119137  7.979099055228068 1.455535550389917  C 8.539879634753737 1.9804810571921712  9.068618433815143 2.5133816054685587  9.56530924489331 3.054235298904068  C 10.062000533472935 3.579180805706322  10.46255454312328 4.048443866662161  10.766977958864786 4.462036807819161  C 10.766977958864786 4.462036807819161  9.541273731407339 5.845990259146962  9.541273731407339 5.845990259146962  C 9.252872399651615 5.416489131356707  8.876350560977018 4.931307454035048  8.411703917870414 4.390454708757044  C 7.947057752265267 3.8336937768457866  7.4503640761783405 3.284888834566168  6.9216281421256936 2.744036089288165  C 6.392892685574506 2.1872751573769067  5.872170658523508 1.6941460238411619  5.3594572859581024 1.2646448960509067  C 5.3594572859581024 1.2646448960509067  4.998955143761988 1.2646448960509067  4.998955143761988 1.2646448960509067  Z " stroke-width="0" stroke-dasharray="0" stroke="rgba(121, 121, 121, 1)" fill="none" transform="matrix(1 0 0 1 189 581 )" class="stroke" mask="url(#Clip4847)" />
  </g>
</svg>