<?xml version="1.0" encoding="utf-8"?>
<svg version="1.1" xmlns:xlink="http://www.w3.org/1999/xlink" width="22px" height="22px" xmlns="http://www.w3.org/2000/svg">
  <defs>
    <pattern id="BGPattern" patternUnits="userSpaceOnUse" alignment="0 0" imageRepeat="None" />
    <mask fill="white" id="Clip4832">
      <path d="M 12.758100396025464 12.039086488546246  C 14.23110253750158 10.048496901853365  15.411077246936431 7.683677968781065  16.29804623775809 4.944626841768097  C 16.29804623775809 4.944626841768097  18.174932302165782 5.51792065210188  18.174932302165782 5.51792065210188  C 17.17709265952246 8.432143780443019  15.894154762329794 10.948248421933332  14.326119554649866 13.066236000353442  C 12.773923820711968 15.184223341476784  10.90495182880275 16.967790954316143  8.719206411108486 18.416940262652144  C 6.549299995125207 19.866089570988148  4.023046486647186 21.060441709385838  1.1403967944457565 22  C 1.0770418496716723 21.840752866286117  0.9740785439060964 21.657616651425023  0.8315298886624665 21.450595330137624  C 0.704819999114298 21.24357400885022  0.5622646174282788 21.02859532597414  0.40387731449694875 20.805649285382934  C 0.2613287182571996 20.582703244791723  0.12670988954816845 20.40753149559137  0 20.28013375599196  C 2.8192946294195838 19.452048470842353  5.282206764016061 18.3691679141286  7.388758589248541 17.031491611257152  C 9.495309942449975 15.677890559419803  11.285097782518307 14.013751563569993  12.758100396025464 12.039086488546246  Z M 3.730027079133687 5.61346202699419  C 3.730027079133687 5.61346202699419  5.488127475159152 5.087946497603216  5.488127475159152 5.087946497603216  C 6.359257936300869 7.6359015862124195  7.5313261257339645 9.929063064334866  9.00432826721008 11.967426660628687  C 10.49316941039718 13.989865745253374  12.314613068428367 15.701776259088035  14.468680482700663 17.10315143917471  C 16.62274884103505 18.504526500613004  19.133189309509554 19.547592633971714  22 20.23235547504915  C 21.85745134475637 20.359753214648563  21.699052831087723 20.52696054268132  21.524827116484214 20.733981863968722  C 21.36643993156065 20.956927934222026  21.208071627878873 21.179878631762357  21.049684442955304 21.402824642691467  C 20.907135787711677 21.625770653620577  20.788330294025563 21.81686360716633  20.693297227821752 21.976110859528596  C 17.76313147454946 21.21172439227003  15.205192410152753 20.081072495544  13.019446992458487 18.58414905895867  C 10.849540576475208 17.071300873407438  9.004317882527094 15.231997588374496  7.483799207949072 13.066236000353442  C 5.963281005402094 10.884549900663258  4.712028664128113 8.40028763820164  3.730027079133687 5.61346202699419  Z M 0.26134659643302444 6  L 0.26134659643302444 4  L 21.738653403566975 4  L 21.738653403566975 6  L 0.26134659643302444 6  Z M 10.00216413360504 5.111835638074621  L 10.00216413360504 0  L 11.831529888662468 0  L 11.831529888662468 5.111835638074621  L 10.00216413360504 5.111835638074621  Z " fill-rule="evenodd" />
    </mask>
  </defs>
  <g transform="matrix(1 0 0 1 -597 -581 )">
    <path d="M 12.758100396025464 12.039086488546246  C 14.23110253750158 10.048496901853365  15.411077246936431 7.683677968781065  16.29804623775809 4.944626841768097  C 16.29804623775809 4.944626841768097  18.174932302165782 5.51792065210188  18.174932302165782 5.51792065210188  C 17.17709265952246 8.432143780443019  15.894154762329794 10.948248421933332  14.326119554649866 13.066236000353442  C 12.773923820711968 15.184223341476784  10.90495182880275 16.967790954316143  8.719206411108486 18.416940262652144  C 6.549299995125207 19.866089570988148  4.023046486647186 21.060441709385838  1.1403967944457565 22  C 1.0770418496716723 21.840752866286117  0.9740785439060964 21.657616651425023  0.8315298886624665 21.450595330137624  C 0.704819999114298 21.24357400885022  0.5622646174282788 21.02859532597414  0.40387731449694875 20.805649285382934  C 0.2613287182571996 20.582703244791723  0.12670988954816845 20.40753149559137  0 20.28013375599196  C 2.8192946294195838 19.452048470842353  5.282206764016061 18.3691679141286  7.388758589248541 17.031491611257152  C 9.495309942449975 15.677890559419803  11.285097782518307 14.013751563569993  12.758100396025464 12.039086488546246  Z M 3.730027079133687 5.61346202699419  C 3.730027079133687 5.61346202699419  5.488127475159152 5.087946497603216  5.488127475159152 5.087946497603216  C 6.359257936300869 7.6359015862124195  7.5313261257339645 9.929063064334866  9.00432826721008 11.967426660628687  C 10.49316941039718 13.989865745253374  12.314613068428367 15.701776259088035  14.468680482700663 17.10315143917471  C 16.62274884103505 18.504526500613004  19.133189309509554 19.547592633971714  22 20.23235547504915  C 21.85745134475637 20.359753214648563  21.699052831087723 20.52696054268132  21.524827116484214 20.733981863968722  C 21.36643993156065 20.956927934222026  21.208071627878873 21.179878631762357  21.049684442955304 21.402824642691467  C 20.907135787711677 21.625770653620577  20.788330294025563 21.81686360716633  20.693297227821752 21.976110859528596  C 17.76313147454946 21.21172439227003  15.205192410152753 20.081072495544  13.019446992458487 18.58414905895867  C 10.849540576475208 17.071300873407438  9.004317882527094 15.231997588374496  7.483799207949072 13.066236000353442  C 5.963281005402094 10.884549900663258  4.712028664128113 8.40028763820164  3.730027079133687 5.61346202699419  Z M 0.26134659643302444 6  L 0.26134659643302444 4  L 21.738653403566975 4  L 21.738653403566975 6  L 0.26134659643302444 6  Z M 10.00216413360504 5.111835638074621  L 10.00216413360504 0  L 11.831529888662468 0  L 11.831529888662468 5.111835638074621  L 10.00216413360504 5.111835638074621  Z " fill-rule="nonzero" fill="rgba(0, 0, 0, 1)" stroke="none" transform="matrix(1 0 0 1 597 581 )" class="fill" />
    <path d="M 12.758100396025464 12.039086488546246  C 14.23110253750158 10.048496901853365  15.411077246936431 7.683677968781065  16.29804623775809 4.944626841768097  C 16.29804623775809 4.944626841768097  18.174932302165782 5.51792065210188  18.174932302165782 5.51792065210188  C 17.17709265952246 8.432143780443019  15.894154762329794 10.948248421933332  14.326119554649866 13.066236000353442  C 12.773923820711968 15.184223341476784  10.90495182880275 16.967790954316143  8.719206411108486 18.416940262652144  C 6.549299995125207 19.866089570988148  4.023046486647186 21.060441709385838  1.1403967944457565 22  C 1.0770418496716723 21.840752866286117  0.9740785439060964 21.657616651425023  0.8315298886624665 21.450595330137624  C 0.704819999114298 21.24357400885022  0.5622646174282788 21.02859532597414  0.40387731449694875 20.805649285382934  C 0.2613287182571996 20.582703244791723  0.12670988954816845 20.40753149559137  0 20.28013375599196  C 2.8192946294195838 19.452048470842353  5.282206764016061 18.3691679141286  7.388758589248541 17.031491611257152  C 9.495309942449975 15.677890559419803  11.285097782518307 14.013751563569993  12.758100396025464 12.039086488546246  Z " stroke-width="0" stroke-dasharray="0" stroke="rgba(121, 121, 121, 1)" fill="none" transform="matrix(1 0 0 1 597 581 )" class="stroke" mask="url(#Clip4832)" />
    <path d="M 3.730027079133687 5.61346202699419  C 3.730027079133687 5.61346202699419  5.488127475159152 5.087946497603216  5.488127475159152 5.087946497603216  C 6.359257936300869 7.6359015862124195  7.5313261257339645 9.929063064334866  9.00432826721008 11.967426660628687  C 10.49316941039718 13.989865745253374  12.314613068428367 15.701776259088035  14.468680482700663 17.10315143917471  C 16.62274884103505 18.504526500613004  19.133189309509554 19.547592633971714  22 20.23235547504915  C 21.85745134475637 20.359753214648563  21.699052831087723 20.52696054268132  21.524827116484214 20.733981863968722  C 21.36643993156065 20.956927934222026  21.208071627878873 21.179878631762357  21.049684442955304 21.402824642691467  C 20.907135787711677 21.625770653620577  20.788330294025563 21.81686360716633  20.693297227821752 21.976110859528596  C 17.76313147454946 21.21172439227003  15.205192410152753 20.081072495544  13.019446992458487 18.58414905895867  C 10.849540576475208 17.071300873407438  9.004317882527094 15.231997588374496  7.483799207949072 13.066236000353442  C 5.963281005402094 10.884549900663258  4.712028664128113 8.40028763820164  3.730027079133687 5.61346202699419  Z " stroke-width="0" stroke-dasharray="0" stroke="rgba(121, 121, 121, 1)" fill="none" transform="matrix(1 0 0 1 597 581 )" class="stroke" mask="url(#Clip4832)" />
    <path d="M 0.26134659643302444 6  L 0.26134659643302444 4  L 21.738653403566975 4  L 21.738653403566975 6  L 0.26134659643302444 6  Z " stroke-width="0" stroke-dasharray="0" stroke="rgba(121, 121, 121, 1)" fill="none" transform="matrix(1 0 0 1 597 581 )" class="stroke" mask="url(#Clip4832)" />
    <path d="M 10.00216413360504 5.111835638074621  L 10.00216413360504 0  L 11.831529888662468 0  L 11.831529888662468 5.111835638074621  L 10.00216413360504 5.111835638074621  Z " stroke-width="0" stroke-dasharray="0" stroke="rgba(121, 121, 121, 1)" fill="none" transform="matrix(1 0 0 1 597 581 )" class="stroke" mask="url(#Clip4832)" />
  </g>
</svg>