<?xml version="1.0" encoding="utf-8"?>
<svg version="1.1" xmlns:xlink="http://www.w3.org/1999/xlink" width="22px" height="22px" xmlns="http://www.w3.org/2000/svg">
  <defs>
    <pattern id="BGPattern" patternUnits="userSpaceOnUse" alignment="0 0" imageRepeat="None" />
    <mask fill="white" id="Clip4823">
      <path d="M 2.5311752271726675 2.338392358744308  C 2.042286447950592 2.0202436869065608  1.5691660723295076 1.749814850634111  1.111818447815232 1.527110590716121  C 1.111818447815232 1.527110590716121  2.1527081607149205 0.2386096075626448  2.1527081607149205 0.2386096075626448  C 2.5942850316250605 0.4454066235203135  3.0595332492117664 0.6919750679311989  3.5484220284338415 0.9783092518483044  C 4.037310807655917 1.2646424876075772  4.494626589627582 1.5589307675837594  4.920432824433743 1.8611731436190184  C 5.362009930344198 2.147506379378291  5.716865340205255 2.4258836227628215  5.984965448971947 2.6963105627196065  C 5.984965448971947 2.6963105627196065  4.920432824433743 4.1518390296932  4.920432824433743 4.1518390296932  C 4.668103116770716 3.865504845776095  4.329052418059236 3.5712165657999124  3.9032461832530743 3.2689751379224865  C 3.4774399484469125 2.950826466084739  3.020064006394743 2.640633786621734  2.5311752271726675 2.338392358744308  Z M 1.4667027627149696 8.733185972366888  C 0.962043464889073 8.446851788449782  0.47311814311809697 8.20029092930156  0 7.993493913343891  C 0 7.993493913343891  0.9699008179036399 6.68112210859269  0.9699008179036399 6.68112210859269  C 1.4587895971257154 6.856104636629715  1.9555871944312273 7.07881363733687  2.460246492257124 7.349239629135821  C 2.9649059075831783 7.603759325132286  3.4380264007044197 7.874187213246903  3.8796032716145596 8.16052139716401  C 4.3211801425247 8.430947863041876  4.683907827920294 8.693420706939584  4.9677788077912775 8.947939928857133  C 4.9677788077912775 8.947939928857133  3.9505320065301035 10.403468395830727  3.9505320065301035 10.403468395830727  C 3.6666610266591197 10.148949173913179  3.303933341263526 9.878520337640728  2.8623564703533857 9.592186627802539  C 2.4365500005469096 9.289944725846198  1.9713620605408664 9.003612438244756  1.4667027627149696 8.733185972366888  Z M 2.1053621773573865 21.665945032359765  C 2.1053621773573865 21.665945032359765  0.5204448564498443 20.663772544176396  0.5204448564498443 20.663772544176396  C 0.8673981457364277 20.043382029642174  1.2379981066665573 19.31163926662922  1.6322633042650763 18.46854443291714  C 2.0265282668632807 17.609542118205287  2.4286777250123737 16.710773352868834  2.838713558714871 15.772233870197539  C 3.2487493924173685 14.833694387526242  3.619349353347498 13.919014111519221  3.9505320065301035 13.028196834807806  C 3.9505320065301035 13.028196834807806  5.3698887858875395 14.030369322991174  5.3698887858875395 14.030369322991174  C 5.0544765338085975 14.857556912742933  4.715425835097117 15.724510004961452  4.3527021447068694 16.63123452563319  C 3.9899782193163085 17.522051683824877  3.6115059828516425 18.404916405233692  3.2172407852531237 19.27982620094533  C 2.838746223758583 20.138828456397324  2.4680861027479484 20.934202387866545  2.1053621773573865 21.665945032359765  Z M 7 14.173533570476225  L 7 2.3622555950793713  L 20.55700030900405 2.3622555950793713  L 20.55700030900405 14.054232559326236  L 19 14.054232559326236  L 19 4  L 8.516140676144614 4  L 8.516140676144614 14.173533570476225  L 7 14.173533570476225  Z M 12.324755052763123 1.5509738270511844  C 12.545543488218193 0.9623982152566526  12.711102149765786 0.44540851983597907  12.82149683749395 0  C 12.82149683749395 0  14.761298473301231 0.3579182039752982  14.761298473301231 0.3579182039752982  C 14.508968295637574 0.9146793278491885  14.248761847434038 1.4714404517230788  13.980661268666715 2.0282006274391358  C 13.712561629900655 2.5690535591948724  13.468098322764302 3.0303674266755065  13.247309887309232 3.4121469706702032  C 13.247309887309232 3.4121469706702032  11.709678389678718 3.054228766694904  11.709678389678718 3.054228766694904  C 11.914695484028865 2.6247284389770793  12.119737018411719 2.123642194885395  12.324755052763123 1.5509738270511844  Z M 14.572034860032105 4.605202593746089  C 15.360565255229142 4.462035501787536  16.015049591048182 4.326825350361559  16.535479407477897 4.199565502363327  C 16.535479407477897 4.199565502363327  17.387105507108462 5.130148281541505  17.387105507108462 5.130148281541505  C 16.740510601846914 5.3051308095785314  15.991378479371928 5.4642079899709035  15.139765539758978 5.607375081929456  C 14.288152600146026 5.734633981769855  13.41288264887569 5.8459846894921  12.513958505951747 5.941430049569692  C 11.615034363027801 6.020967217529128  10.755569122907044 6.084599037843909  9.93549745550205 6.132320769724872  C 9.903956183294092 6.005061869884473  9.856662370006372 5.85393973370901  9.793579825590458 5.678957205671984  C 9.730497281174543 5.488068381832469  9.659526246202395 5.321041846170184  9.580673300682816 5.177874754211631  C 10.384974096983518 5.130152074172836  11.220822275500355 5.058565209641145  12.08820561621697 4.963120797721387  C 12.955588956933587 4.851768193683476  13.783504464835065 4.732461493586488  14.572034860032105 4.605202593746089  Z M 9.391409687413692 9.472885616652547  L 9.391409687413692 8.327548880984127  L 18.096753816746926 8.327548880984127  L 18.096753816746926 9.472885616652547  L 9.391409687413692 9.472885616652547  Z M 10.739777571775079 7.540130349291003  C 10.566301279632258 7.1742589974144595  10.384937436934461 6.848155281359803  10.195689803686719 6.5618210974426985  C 10.195689803686719 6.5618210974426985  11.141947709951845 6.180039657132336  11.141947709951845 6.180039657132336  C 11.34696574430325 6.450466597089121  11.544073668069489 6.760666861814788  11.733321301317233 7.110630021573177  C 11.922567994563716 7.460594129489398  12.056638493974422 7.75488240946558  12.135491439494 7.993493913343891  C 12.135491439494 7.993493913343891  11.165590621590358 8.494576364804242  11.165590621590358 8.494576364804242  C 11.070966334965858 8.208242180887137  10.92902473502219 7.890094457207223  10.739777571775079 7.540130349291003  Z M 15.683853307847336 6.991321425160523  C 15.88887134219874 6.577728341403018  16.046618593293243 6.235720225861539  16.157012341020152 5.965293285904755  C 16.157012341020152 5.965293285904755  17.268830788835384 6.418656849957643  17.268830788835384 6.418656849957643  C 17.048042353380314 6.784528201834186  16.827256737929016 7.142439768704654  16.606468302473946 7.492403876620876  C 16.4014512081238 7.8423679845370975  16.204282184275794 8.152568249262764  16.015034551028055 8.422994241061717  C 16.015034551028055 8.422994241061717  15.139765539758978 8.017349564416293  15.139765539758978 8.017349564416293  C 15.313241831901795 7.731015380499186  15.494605674599594 7.38900821311554  15.683853307847336 6.991321425160523  Z M 5.653784205791228 16.678960998303314  L 5.653784205791228 15  L 21.550544038546203 15  L 21.550544038546203 16.678960998303314  L 5.653784205791228 16.678960998303314  Z M 12.206480334490049 16.225597434250428  C 12.490351314361032 15.493854730497342  12.695331748662124 14.674620762725743  12.82149683749395 13.767896479093466  C 12.82149683749395 13.767896479093466  14.54839194839359 13.767896479093466  14.54839194839359 13.767896479093466  C 14.390685117353176 14.865510297683635  14.154155420833435 15.85177008999914  13.838743638755123 16.726679885710777  C 13.52333185667681 17.601589562902685  13.058083874090421 18.38105198370134  12.443029771036203 19.065072244455088  C 11.827976607983242 19.733185142728786  11.007872980535478 20.305857658753514  9.98278327877908 20.78308114058905  C 8.957694047023306 21.276212103424367  7.672402127069029 21.681851091122795  6.126883078883538 22  C 6.04803013336396 21.79320322108179  5.913960573954514 21.538686251039096  5.724712940706771 21.23644470464194  C 5.551236648563951 20.934203158244785  5.385677517015732 20.695590232129724  5.227971155975947 20.520608296691343  C 6.6630964564345305 20.266089104403726  7.8458676091973825 19.94794108442449  8.776333024329285 19.5661622811781  C 9.706798909461813 19.168476026561866  10.440126320787222 18.699205988926895  10.976327008321233 18.15835270161197  C 11.528297626958278 17.601592051816997  11.938379755722726 16.95734025652324  12.206480334490049 16.225597434250428  Z M 13.483859323855386 10.16485878826808  C 13.483859323855386 10.16485878826808  14.240853616851384 9.472885616652547  14.240853616851384 9.472885616652547  C 14.39855950789054 9.568330502651222  14.643022815026894 9.727400571859848  14.97420499820887 9.950104831777837  C 15.305388121392104 10.156901847735506  15.660243296252846 10.387558781475823  16.03873762274707 10.64207800339337  C 16.417231949241298 10.880689507271681  16.76415445348669 11.111346915090914  17.079567175566254 11.334051175008902  C 17.410749358748234 11.540848190966573  17.647340155349735 11.69992584543786  17.789275645285226 11.811277975396857  C 17.789275645285226 11.811277975396857  17.079567175566254 12.861169350987689  17.079567175566254 12.861169350987689  C 16.90608994342218 12.702095015068814  16.653755065752236 12.503253517406971  16.322572882570256 12.264641539449745  C 16.007160160490688 12.010122317532197  15.668109226778892 11.747649473634489  15.305386241389588 11.47722300775662  C 14.942662315999026 11.206796541878752  14.595679651673134 10.960228097467867  14.2644965284899 10.737523363470961  C 13.949084746411588 10.498911859592651  13.688877358206792 10.308025880226634  13.483859323855386 10.16485878826808  Z M 11.733321301317233 10.260304148345671  C 12.143356430018788 9.814895628509692  12.482467523811087 9.37744120473279  12.750568102578406 8.947939928857133  C 12.750568102578406 8.947939928857133  13.673122937124512 9.30585813283243  13.673122937124512 9.30585813283243  C 13.405022358357192 9.798989332707205  13.058099854111804 10.308023035753136  12.63229338430533 10.83296872354855  C 12.206486914498852 11.357914885422884  11.756983012980905 11.84309625594883  11.283865339863437 12.288504775784807  C 10.81074672674471 12.71800557758155  10.337626703624098 13.075917618530935  9.864508560506001 13.36225180244804  C 9.769885213882759 13.203177466529167  9.635875344553188 13.028195412571057  9.462398582409739 12.837306114652623  C 9.28892182026629 12.646416342655275  9.131175039172415 12.48734627344665  8.989239549236924 12.360086899527335  C 9.46235769235502 12.153289883569666  9.935478185476263 11.866957595968225  10.40859632859436 11.501086244091683  C 10.881714471712456 11.11930764825482  11.32328523261442 10.70571266818165  11.733321301317233 10.260304148345671  Z M 12.98711753912456 13.219087554962986  L 12.98711753912456 5.225593641619095  L 14.28819960020892 5.225593641619095  L 14.28819960020892 13.219087554962986  L 12.98711753912456 13.219087554962986  Z M 12.93977155576703 15.963124590352718  C 12.93977155576703 15.963124590352718  14.501106125116559 15.676788510119946  14.501106125116559 15.676788510119946  C 15.037307282651199 17.013014425187073  15.928321314989978 18.07881665958996  17.17419898220082 18.87418910956257  C 18.435847050515324 19.65365413779526  20.044444883111698 20.170643744326135  22 20.425162936613752  C 21.794981965648596 20.616052323421982  21.589941371267 20.854665249537042  21.38492333691559 21.14099934456435  C 21.179905302564187 21.443240890961505  21.03009072208504 21.72161754174739  20.935467375461798 21.976136763664936  C 19.547654218315465 21.72161754174739  18.333333333333336 21.33189018323926  17.292473700473895 20.806944376924115  C 16.251613127613204 20.28199857060897  15.368471605809278 19.621835086865048  14.643023755028151 18.82646263689244  C 13.933347245351952 18.015182646660193  13.365578025573503 17.060738527462618  12.93977155576703 15.963124590352718  Z " fill-rule="evenodd" />
    </mask>
  </defs>
  <g transform="matrix(1 0 0 1 -849 -581 )">
    <path d="M 2.5311752271726675 2.338392358744308  C 2.042286447950592 2.0202436869065608  1.5691660723295076 1.749814850634111  1.111818447815232 1.527110590716121  C 1.111818447815232 1.527110590716121  2.1527081607149205 0.2386096075626448  2.1527081607149205 0.2386096075626448  C 2.5942850316250605 0.4454066235203135  3.0595332492117664 0.6919750679311989  3.5484220284338415 0.9783092518483044  C 4.037310807655917 1.2646424876075772  4.494626589627582 1.5589307675837594  4.920432824433743 1.8611731436190184  C 5.362009930344198 2.147506379378291  5.716865340205255 2.4258836227628215  5.984965448971947 2.6963105627196065  C 5.984965448971947 2.6963105627196065  4.920432824433743 4.1518390296932  4.920432824433743 4.1518390296932  C 4.668103116770716 3.865504845776095  4.329052418059236 3.5712165657999124  3.9032461832530743 3.2689751379224865  C 3.4774399484469125 2.950826466084739  3.020064006394743 2.640633786621734  2.5311752271726675 2.338392358744308  Z M 1.4667027627149696 8.733185972366888  C 0.962043464889073 8.446851788449782  0.47311814311809697 8.20029092930156  0 7.993493913343891  C 0 7.993493913343891  0.9699008179036399 6.68112210859269  0.9699008179036399 6.68112210859269  C 1.4587895971257154 6.856104636629715  1.9555871944312273 7.07881363733687  2.460246492257124 7.349239629135821  C 2.9649059075831783 7.603759325132286  3.4380264007044197 7.874187213246903  3.8796032716145596 8.16052139716401  C 4.3211801425247 8.430947863041876  4.683907827920294 8.693420706939584  4.9677788077912775 8.947939928857133  C 4.9677788077912775 8.947939928857133  3.9505320065301035 10.403468395830727  3.9505320065301035 10.403468395830727  C 3.6666610266591197 10.148949173913179  3.303933341263526 9.878520337640728  2.8623564703533857 9.592186627802539  C 2.4365500005469096 9.289944725846198  1.9713620605408664 9.003612438244756  1.4667027627149696 8.733185972366888  Z M 2.1053621773573865 21.665945032359765  C 2.1053621773573865 21.665945032359765  0.5204448564498443 20.663772544176396  0.5204448564498443 20.663772544176396  C 0.8673981457364277 20.043382029642174  1.2379981066665573 19.31163926662922  1.6322633042650763 18.46854443291714  C 2.0265282668632807 17.609542118205287  2.4286777250123737 16.710773352868834  2.838713558714871 15.772233870197539  C 3.2487493924173685 14.833694387526242  3.619349353347498 13.919014111519221  3.9505320065301035 13.028196834807806  C 3.9505320065301035 13.028196834807806  5.3698887858875395 14.030369322991174  5.3698887858875395 14.030369322991174  C 5.0544765338085975 14.857556912742933  4.715425835097117 15.724510004961452  4.3527021447068694 16.63123452563319  C 3.9899782193163085 17.522051683824877  3.6115059828516425 18.404916405233692  3.2172407852531237 19.27982620094533  C 2.838746223758583 20.138828456397324  2.4680861027479484 20.934202387866545  2.1053621773573865 21.665945032359765  Z M 7 14.173533570476225  L 7 2.3622555950793713  L 20.55700030900405 2.3622555950793713  L 20.55700030900405 14.054232559326236  L 19 14.054232559326236  L 19 4  L 8.516140676144614 4  L 8.516140676144614 14.173533570476225  L 7 14.173533570476225  Z M 12.324755052763123 1.5509738270511844  C 12.545543488218193 0.9623982152566526  12.711102149765786 0.44540851983597907  12.82149683749395 0  C 12.82149683749395 0  14.761298473301231 0.3579182039752982  14.761298473301231 0.3579182039752982  C 14.508968295637574 0.9146793278491885  14.248761847434038 1.4714404517230788  13.980661268666715 2.0282006274391358  C 13.712561629900655 2.5690535591948724  13.468098322764302 3.0303674266755065  13.247309887309232 3.4121469706702032  C 13.247309887309232 3.4121469706702032  11.709678389678718 3.054228766694904  11.709678389678718 3.054228766694904  C 11.914695484028865 2.6247284389770793  12.119737018411719 2.123642194885395  12.324755052763123 1.5509738270511844  Z M 14.572034860032105 4.605202593746089  C 15.360565255229142 4.462035501787536  16.015049591048182 4.326825350361559  16.535479407477897 4.199565502363327  C 16.535479407477897 4.199565502363327  17.387105507108462 5.130148281541505  17.387105507108462 5.130148281541505  C 16.740510601846914 5.3051308095785314  15.991378479371928 5.4642079899709035  15.139765539758978 5.607375081929456  C 14.288152600146026 5.734633981769855  13.41288264887569 5.8459846894921  12.513958505951747 5.941430049569692  C 11.615034363027801 6.020967217529128  10.755569122907044 6.084599037843909  9.93549745550205 6.132320769724872  C 9.903956183294092 6.005061869884473  9.856662370006372 5.85393973370901  9.793579825590458 5.678957205671984  C 9.730497281174543 5.488068381832469  9.659526246202395 5.321041846170184  9.580673300682816 5.177874754211631  C 10.384974096983518 5.130152074172836  11.220822275500355 5.058565209641145  12.08820561621697 4.963120797721387  C 12.955588956933587 4.851768193683476  13.783504464835065 4.732461493586488  14.572034860032105 4.605202593746089  Z M 9.391409687413692 9.472885616652547  L 9.391409687413692 8.327548880984127  L 18.096753816746926 8.327548880984127  L 18.096753816746926 9.472885616652547  L 9.391409687413692 9.472885616652547  Z M 10.739777571775079 7.540130349291003  C 10.566301279632258 7.1742589974144595  10.384937436934461 6.848155281359803  10.195689803686719 6.5618210974426985  C 10.195689803686719 6.5618210974426985  11.141947709951845 6.180039657132336  11.141947709951845 6.180039657132336  C 11.34696574430325 6.450466597089121  11.544073668069489 6.760666861814788  11.733321301317233 7.110630021573177  C 11.922567994563716 7.460594129489398  12.056638493974422 7.75488240946558  12.135491439494 7.993493913343891  C 12.135491439494 7.993493913343891  11.165590621590358 8.494576364804242  11.165590621590358 8.494576364804242  C 11.070966334965858 8.208242180887137  10.92902473502219 7.890094457207223  10.739777571775079 7.540130349291003  Z M 15.683853307847336 6.991321425160523  C 15.88887134219874 6.577728341403018  16.046618593293243 6.235720225861539  16.157012341020152 5.965293285904755  C 16.157012341020152 5.965293285904755  17.268830788835384 6.418656849957643  17.268830788835384 6.418656849957643  C 17.048042353380314 6.784528201834186  16.827256737929016 7.142439768704654  16.606468302473946 7.492403876620876  C 16.4014512081238 7.8423679845370975  16.204282184275794 8.152568249262764  16.015034551028055 8.422994241061717  C 16.015034551028055 8.422994241061717  15.139765539758978 8.017349564416293  15.139765539758978 8.017349564416293  C 15.313241831901795 7.731015380499186  15.494605674599594 7.38900821311554  15.683853307847336 6.991321425160523  Z M 5.653784205791228 16.678960998303314  L 5.653784205791228 15  L 21.550544038546203 15  L 21.550544038546203 16.678960998303314  L 5.653784205791228 16.678960998303314  Z M 12.206480334490049 16.225597434250428  C 12.490351314361032 15.493854730497342  12.695331748662124 14.674620762725743  12.82149683749395 13.767896479093466  C 12.82149683749395 13.767896479093466  14.54839194839359 13.767896479093466  14.54839194839359 13.767896479093466  C 14.390685117353176 14.865510297683635  14.154155420833435 15.85177008999914  13.838743638755123 16.726679885710777  C 13.52333185667681 17.601589562902685  13.058083874090421 18.38105198370134  12.443029771036203 19.065072244455088  C 11.827976607983242 19.733185142728786  11.007872980535478 20.305857658753514  9.98278327877908 20.78308114058905  C 8.957694047023306 21.276212103424367  7.672402127069029 21.681851091122795  6.126883078883538 22  C 6.04803013336396 21.79320322108179  5.913960573954514 21.538686251039096  5.724712940706771 21.23644470464194  C 5.551236648563951 20.934203158244785  5.385677517015732 20.695590232129724  5.227971155975947 20.520608296691343  C 6.6630964564345305 20.266089104403726  7.8458676091973825 19.94794108442449  8.776333024329285 19.5661622811781  C 9.706798909461813 19.168476026561866  10.440126320787222 18.699205988926895  10.976327008321233 18.15835270161197  C 11.528297626958278 17.601592051816997  11.938379755722726 16.95734025652324  12.206480334490049 16.225597434250428  Z M 13.483859323855386 10.16485878826808  C 13.483859323855386 10.16485878826808  14.240853616851384 9.472885616652547  14.240853616851384 9.472885616652547  C 14.39855950789054 9.568330502651222  14.643022815026894 9.727400571859848  14.97420499820887 9.950104831777837  C 15.305388121392104 10.156901847735506  15.660243296252846 10.387558781475823  16.03873762274707 10.64207800339337  C 16.417231949241298 10.880689507271681  16.76415445348669 11.111346915090914  17.079567175566254 11.334051175008902  C 17.410749358748234 11.540848190966573  17.647340155349735 11.69992584543786  17.789275645285226 11.811277975396857  C 17.789275645285226 11.811277975396857  17.079567175566254 12.861169350987689  17.079567175566254 12.861169350987689  C 16.90608994342218 12.702095015068814  16.653755065752236 12.503253517406971  16.322572882570256 12.264641539449745  C 16.007160160490688 12.010122317532197  15.668109226778892 11.747649473634489  15.305386241389588 11.47722300775662  C 14.942662315999026 11.206796541878752  14.595679651673134 10.960228097467867  14.2644965284899 10.737523363470961  C 13.949084746411588 10.498911859592651  13.688877358206792 10.308025880226634  13.483859323855386 10.16485878826808  Z M 11.733321301317233 10.260304148345671  C 12.143356430018788 9.814895628509692  12.482467523811087 9.37744120473279  12.750568102578406 8.947939928857133  C 12.750568102578406 8.947939928857133  13.673122937124512 9.30585813283243  13.673122937124512 9.30585813283243  C 13.405022358357192 9.798989332707205  13.058099854111804 10.308023035753136  12.63229338430533 10.83296872354855  C 12.206486914498852 11.357914885422884  11.756983012980905 11.84309625594883  11.283865339863437 12.288504775784807  C 10.81074672674471 12.71800557758155  10.337626703624098 13.075917618530935  9.864508560506001 13.36225180244804  C 9.769885213882759 13.203177466529167  9.635875344553188 13.028195412571057  9.462398582409739 12.837306114652623  C 9.28892182026629 12.646416342655275  9.131175039172415 12.48734627344665  8.989239549236924 12.360086899527335  C 9.46235769235502 12.153289883569666  9.935478185476263 11.866957595968225  10.40859632859436 11.501086244091683  C 10.881714471712456 11.11930764825482  11.32328523261442 10.70571266818165  11.733321301317233 10.260304148345671  Z M 12.98711753912456 13.219087554962986  L 12.98711753912456 5.225593641619095  L 14.28819960020892 5.225593641619095  L 14.28819960020892 13.219087554962986  L 12.98711753912456 13.219087554962986  Z M 12.93977155576703 15.963124590352718  C 12.93977155576703 15.963124590352718  14.501106125116559 15.676788510119946  14.501106125116559 15.676788510119946  C 15.037307282651199 17.013014425187073  15.928321314989978 18.07881665958996  17.17419898220082 18.87418910956257  C 18.435847050515324 19.65365413779526  20.044444883111698 20.170643744326135  22 20.425162936613752  C 21.794981965648596 20.616052323421982  21.589941371267 20.854665249537042  21.38492333691559 21.14099934456435  C 21.179905302564187 21.443240890961505  21.03009072208504 21.72161754174739  20.935467375461798 21.976136763664936  C 19.547654218315465 21.72161754174739  18.333333333333336 21.33189018323926  17.292473700473895 20.806944376924115  C 16.251613127613204 20.28199857060897  15.368471605809278 19.621835086865048  14.643023755028151 18.82646263689244  C 13.933347245351952 18.015182646660193  13.365578025573503 17.060738527462618  12.93977155576703 15.963124590352718  Z " fill-rule="nonzero" fill="rgba(0, 0, 0, 1)" stroke="none" transform="matrix(1 0 0 1 849 581 )" class="fill" />
    <path d="M 2.5311752271726675 2.338392358744308  C 2.042286447950592 2.0202436869065608  1.5691660723295076 1.749814850634111  1.111818447815232 1.527110590716121  C 1.111818447815232 1.527110590716121  2.1527081607149205 0.2386096075626448  2.1527081607149205 0.2386096075626448  C 2.5942850316250605 0.4454066235203135  3.0595332492117664 0.6919750679311989  3.5484220284338415 0.9783092518483044  C 4.037310807655917 1.2646424876075772  4.494626589627582 1.5589307675837594  4.920432824433743 1.8611731436190184  C 5.362009930344198 2.147506379378291  5.716865340205255 2.4258836227628215  5.984965448971947 2.6963105627196065  C 5.984965448971947 2.6963105627196065  4.920432824433743 4.1518390296932  4.920432824433743 4.1518390296932  C 4.668103116770716 3.865504845776095  4.329052418059236 3.5712165657999124  3.9032461832530743 3.2689751379224865  C 3.4774399484469125 2.950826466084739  3.020064006394743 2.640633786621734  2.5311752271726675 2.338392358744308  Z " stroke-width="0" stroke-dasharray="0" stroke="rgba(121, 121, 121, 1)" fill="none" transform="matrix(1 0 0 1 849 581 )" class="stroke" mask="url(#Clip4823)" />
    <path d="M 1.4667027627149696 8.733185972366888  C 0.962043464889073 8.446851788449782  0.47311814311809697 8.20029092930156  0 7.993493913343891  C 0 7.993493913343891  0.9699008179036399 6.68112210859269  0.9699008179036399 6.68112210859269  C 1.4587895971257154 6.856104636629715  1.9555871944312273 7.07881363733687  2.460246492257124 7.349239629135821  C 2.9649059075831783 7.603759325132286  3.4380264007044197 7.874187213246903  3.8796032716145596 8.16052139716401  C 4.3211801425247 8.430947863041876  4.683907827920294 8.693420706939584  4.9677788077912775 8.947939928857133  C 4.9677788077912775 8.947939928857133  3.9505320065301035 10.403468395830727  3.9505320065301035 10.403468395830727  C 3.6666610266591197 10.148949173913179  3.303933341263526 9.878520337640728  2.8623564703533857 9.592186627802539  C 2.4365500005469096 9.289944725846198  1.9713620605408664 9.003612438244756  1.4667027627149696 8.733185972366888  Z " stroke-width="0" stroke-dasharray="0" stroke="rgba(121, 121, 121, 1)" fill="none" transform="matrix(1 0 0 1 849 581 )" class="stroke" mask="url(#Clip4823)" />
    <path d="M 2.1053621773573865 21.665945032359765  C 2.1053621773573865 21.665945032359765  0.5204448564498443 20.663772544176396  0.5204448564498443 20.663772544176396  C 0.8673981457364277 20.043382029642174  1.2379981066665573 19.31163926662922  1.6322633042650763 18.46854443291714  C 2.0265282668632807 17.609542118205287  2.4286777250123737 16.710773352868834  2.838713558714871 15.772233870197539  C 3.2487493924173685 14.833694387526242  3.619349353347498 13.919014111519221  3.9505320065301035 13.028196834807806  C 3.9505320065301035 13.028196834807806  5.3698887858875395 14.030369322991174  5.3698887858875395 14.030369322991174  C 5.0544765338085975 14.857556912742933  4.715425835097117 15.724510004961452  4.3527021447068694 16.63123452563319  C 3.9899782193163085 17.522051683824877  3.6115059828516425 18.404916405233692  3.2172407852531237 19.27982620094533  C 2.838746223758583 20.138828456397324  2.4680861027479484 20.934202387866545  2.1053621773573865 21.665945032359765  Z " stroke-width="0" stroke-dasharray="0" stroke="rgba(121, 121, 121, 1)" fill="none" transform="matrix(1 0 0 1 849 581 )" class="stroke" mask="url(#Clip4823)" />
    <path d="M 7 14.173533570476225  L 7 2.3622555950793713  L 20.55700030900405 2.3622555950793713  L 20.55700030900405 14.054232559326236  L 19 14.054232559326236  L 19 4  L 8.516140676144614 4  L 8.516140676144614 14.173533570476225  L 7 14.173533570476225  Z " stroke-width="0" stroke-dasharray="0" stroke="rgba(121, 121, 121, 1)" fill="none" transform="matrix(1 0 0 1 849 581 )" class="stroke" mask="url(#Clip4823)" />
    <path d="M 12.324755052763123 1.5509738270511844  C 12.545543488218193 0.9623982152566526  12.711102149765786 0.44540851983597907  12.82149683749395 0  C 12.82149683749395 0  14.761298473301231 0.3579182039752982  14.761298473301231 0.3579182039752982  C 14.508968295637574 0.9146793278491885  14.248761847434038 1.4714404517230788  13.980661268666715 2.0282006274391358  C 13.712561629900655 2.5690535591948724  13.468098322764302 3.0303674266755065  13.247309887309232 3.4121469706702032  C 13.247309887309232 3.4121469706702032  11.709678389678718 3.054228766694904  11.709678389678718 3.054228766694904  C 11.914695484028865 2.6247284389770793  12.119737018411719 2.123642194885395  12.324755052763123 1.5509738270511844  Z " stroke-width="0" stroke-dasharray="0" stroke="rgba(121, 121, 121, 1)" fill="none" transform="matrix(1 0 0 1 849 581 )" class="stroke" mask="url(#Clip4823)" />
    <path d="M 14.572034860032105 4.605202593746089  C 15.360565255229142 4.462035501787536  16.015049591048182 4.326825350361559  16.535479407477897 4.199565502363327  C 16.535479407477897 4.199565502363327  17.387105507108462 5.130148281541505  17.387105507108462 5.130148281541505  C 16.740510601846914 5.3051308095785314  15.991378479371928 5.4642079899709035  15.139765539758978 5.607375081929456  C 14.288152600146026 5.734633981769855  13.41288264887569 5.8459846894921  12.513958505951747 5.941430049569692  C 11.615034363027801 6.020967217529128  10.755569122907044 6.084599037843909  9.93549745550205 6.132320769724872  C 9.903956183294092 6.005061869884473  9.856662370006372 5.85393973370901  9.793579825590458 5.678957205671984  C 9.730497281174543 5.488068381832469  9.659526246202395 5.321041846170184  9.580673300682816 5.177874754211631  C 10.384974096983518 5.130152074172836  11.220822275500355 5.058565209641145  12.08820561621697 4.963120797721387  C 12.955588956933587 4.851768193683476  13.783504464835065 4.732461493586488  14.572034860032105 4.605202593746089  Z " stroke-width="0" stroke-dasharray="0" stroke="rgba(121, 121, 121, 1)" fill="none" transform="matrix(1 0 0 1 849 581 )" class="stroke" mask="url(#Clip4823)" />
    <path d="M 9.391409687413692 9.472885616652547  L 9.391409687413692 8.327548880984127  L 18.096753816746926 8.327548880984127  L 18.096753816746926 9.472885616652547  L 9.391409687413692 9.472885616652547  Z " stroke-width="0" stroke-dasharray="0" stroke="rgba(121, 121, 121, 1)" fill="none" transform="matrix(1 0 0 1 849 581 )" class="stroke" mask="url(#Clip4823)" />
    <path d="M 10.739777571775079 7.540130349291003  C 10.566301279632258 7.1742589974144595  10.384937436934461 6.848155281359803  10.195689803686719 6.5618210974426985  C 10.195689803686719 6.5618210974426985  11.141947709951845 6.180039657132336  11.141947709951845 6.180039657132336  C 11.34696574430325 6.450466597089121  11.544073668069489 6.760666861814788  11.733321301317233 7.110630021573177  C 11.922567994563716 7.460594129489398  12.056638493974422 7.75488240946558  12.135491439494 7.993493913343891  C 12.135491439494 7.993493913343891  11.165590621590358 8.494576364804242  11.165590621590358 8.494576364804242  C 11.070966334965858 8.208242180887137  10.92902473502219 7.890094457207223  10.739777571775079 7.540130349291003  Z " stroke-width="0" stroke-dasharray="0" stroke="rgba(121, 121, 121, 1)" fill="none" transform="matrix(1 0 0 1 849 581 )" class="stroke" mask="url(#Clip4823)" />
    <path d="M 15.683853307847336 6.991321425160523  C 15.88887134219874 6.577728341403018  16.046618593293243 6.235720225861539  16.157012341020152 5.965293285904755  C 16.157012341020152 5.965293285904755  17.268830788835384 6.418656849957643  17.268830788835384 6.418656849957643  C 17.048042353380314 6.784528201834186  16.827256737929016 7.142439768704654  16.606468302473946 7.492403876620876  C 16.4014512081238 7.8423679845370975  16.204282184275794 8.152568249262764  16.015034551028055 8.422994241061717  C 16.015034551028055 8.422994241061717  15.139765539758978 8.017349564416293  15.139765539758978 8.017349564416293  C 15.313241831901795 7.731015380499186  15.494605674599594 7.38900821311554  15.683853307847336 6.991321425160523  Z " stroke-width="0" stroke-dasharray="0" stroke="rgba(121, 121, 121, 1)" fill="none" transform="matrix(1 0 0 1 849 581 )" class="stroke" mask="url(#Clip4823)" />
    <path d="M 5.653784205791228 16.678960998303314  L 5.653784205791228 15  L 21.550544038546203 15  L 21.550544038546203 16.678960998303314  L 5.653784205791228 16.678960998303314  Z " stroke-width="0" stroke-dasharray="0" stroke="rgba(121, 121, 121, 1)" fill="none" transform="matrix(1 0 0 1 849 581 )" class="stroke" mask="url(#Clip4823)" />
    <path d="M 12.206480334490049 16.225597434250428  C 12.490351314361032 15.493854730497342  12.695331748662124 14.674620762725743  12.82149683749395 13.767896479093466  C 12.82149683749395 13.767896479093466  14.54839194839359 13.767896479093466  14.54839194839359 13.767896479093466  C 14.390685117353176 14.865510297683635  14.154155420833435 15.85177008999914  13.838743638755123 16.726679885710777  C 13.52333185667681 17.601589562902685  13.058083874090421 18.38105198370134  12.443029771036203 19.065072244455088  C 11.827976607983242 19.733185142728786  11.007872980535478 20.305857658753514  9.98278327877908 20.78308114058905  C 8.957694047023306 21.276212103424367  7.672402127069029 21.681851091122795  6.126883078883538 22  C 6.04803013336396 21.79320322108179  5.913960573954514 21.538686251039096  5.724712940706771 21.23644470464194  C 5.551236648563951 20.934203158244785  5.385677517015732 20.695590232129724  5.227971155975947 20.520608296691343  C 6.6630964564345305 20.266089104403726  7.8458676091973825 19.94794108442449  8.776333024329285 19.5661622811781  C 9.706798909461813 19.168476026561866  10.440126320787222 18.699205988926895  10.976327008321233 18.15835270161197  C 11.528297626958278 17.601592051816997  11.938379755722726 16.95734025652324  12.206480334490049 16.225597434250428  Z " stroke-width="0" stroke-dasharray="0" stroke="rgba(121, 121, 121, 1)" fill="none" transform="matrix(1 0 0 1 849 581 )" class="stroke" mask="url(#Clip4823)" />
    <path d="M 13.483859323855386 10.16485878826808  C 13.483859323855386 10.16485878826808  14.240853616851384 9.472885616652547  14.240853616851384 9.472885616652547  C 14.39855950789054 9.568330502651222  14.643022815026894 9.727400571859848  14.97420499820887 9.950104831777837  C 15.305388121392104 10.156901847735506  15.660243296252846 10.387558781475823  16.03873762274707 10.64207800339337  C 16.417231949241298 10.880689507271681  16.76415445348669 11.111346915090914  17.079567175566254 11.334051175008902  C 17.410749358748234 11.540848190966573  17.647340155349735 11.69992584543786  17.789275645285226 11.811277975396857  C 17.789275645285226 11.811277975396857  17.079567175566254 12.861169350987689  17.079567175566254 12.861169350987689  C 16.90608994342218 12.702095015068814  16.653755065752236 12.503253517406971  16.322572882570256 12.264641539449745  C 16.007160160490688 12.010122317532197  15.668109226778892 11.747649473634489  15.305386241389588 11.47722300775662  C 14.942662315999026 11.206796541878752  14.595679651673134 10.960228097467867  14.2644965284899 10.737523363470961  C 13.949084746411588 10.498911859592651  13.688877358206792 10.308025880226634  13.483859323855386 10.16485878826808  Z " stroke-width="0" stroke-dasharray="0" stroke="rgba(121, 121, 121, 1)" fill="none" transform="matrix(1 0 0 1 849 581 )" class="stroke" mask="url(#Clip4823)" />
    <path d="M 11.733321301317233 10.260304148345671  C 12.143356430018788 9.814895628509692  12.482467523811087 9.37744120473279  12.750568102578406 8.947939928857133  C 12.750568102578406 8.947939928857133  13.673122937124512 9.30585813283243  13.673122937124512 9.30585813283243  C 13.405022358357192 9.798989332707205  13.058099854111804 10.308023035753136  12.63229338430533 10.83296872354855  C 12.206486914498852 11.357914885422884  11.756983012980905 11.84309625594883  11.283865339863437 12.288504775784807  C 10.81074672674471 12.71800557758155  10.337626703624098 13.075917618530935  9.864508560506001 13.36225180244804  C 9.769885213882759 13.203177466529167  9.635875344553188 13.028195412571057  9.462398582409739 12.837306114652623  C 9.28892182026629 12.646416342655275  9.131175039172415 12.48734627344665  8.989239549236924 12.360086899527335  C 9.46235769235502 12.153289883569666  9.935478185476263 11.866957595968225  10.40859632859436 11.501086244091683  C 10.881714471712456 11.11930764825482  11.32328523261442 10.70571266818165  11.733321301317233 10.260304148345671  Z " stroke-width="0" stroke-dasharray="0" stroke="rgba(121, 121, 121, 1)" fill="none" transform="matrix(1 0 0 1 849 581 )" class="stroke" mask="url(#Clip4823)" />
    <path d="M 12.98711753912456 13.219087554962986  L 12.98711753912456 5.225593641619095  L 14.28819960020892 5.225593641619095  L 14.28819960020892 13.219087554962986  L 12.98711753912456 13.219087554962986  Z " stroke-width="0" stroke-dasharray="0" stroke="rgba(121, 121, 121, 1)" fill="none" transform="matrix(1 0 0 1 849 581 )" class="stroke" mask="url(#Clip4823)" />
    <path d="M 12.93977155576703 15.963124590352718  C 12.93977155576703 15.963124590352718  14.501106125116559 15.676788510119946  14.501106125116559 15.676788510119946  C 15.037307282651199 17.013014425187073  15.928321314989978 18.07881665958996  17.17419898220082 18.87418910956257  C 18.435847050515324 19.65365413779526  20.044444883111698 20.170643744326135  22 20.425162936613752  C 21.794981965648596 20.616052323421982  21.589941371267 20.854665249537042  21.38492333691559 21.14099934456435  C 21.179905302564187 21.443240890961505  21.03009072208504 21.72161754174739  20.935467375461798 21.976136763664936  C 19.547654218315465 21.72161754174739  18.333333333333336 21.33189018323926  17.292473700473895 20.806944376924115  C 16.251613127613204 20.28199857060897  15.368471605809278 19.621835086865048  14.643023755028151 18.82646263689244  C 13.933347245351952 18.015182646660193  13.365578025573503 17.060738527462618  12.93977155576703 15.963124590352718  Z " stroke-width="0" stroke-dasharray="0" stroke="rgba(121, 121, 121, 1)" fill="none" transform="matrix(1 0 0 1 849 581 )" class="stroke" mask="url(#Clip4823)" />
  </g>
</svg>