<?xml version="1.0" encoding="utf-8"?>
<svg version="1.1" xmlns:xlink="http://www.w3.org/1999/xlink" width="36px" height="42px" xmlns="http://www.w3.org/2000/svg">
  <defs>
    <pattern id="BGPattern" patternUnits="userSpaceOnUse" alignment="0 0" imageRepeat="None" />
    <mask fill="white" id="Clip4777">
      <path d="M 28 11.759395546166207  C 28 11.759395546166207  28 33.68045143571566  28 33.68045143571566  L 19.74943382532723 33.68045143571566  C 19.74943382532723 33.68045143571566  19.74943382532723 30.80451435715663  19.74943382532723 30.80451435715663  C 17.475653382720804 33.04135644988913  15.33178610269363 34  11.433876219336122 34  C 7.600931629775422 34  4.8074365812453745 33.04135311673468  2.793516345769815 31.060150161128607  C 0.9744917496705843 29.206766774085736  0 26.52255750083553  0 23.582707661964136  C 0 18.27819616179703  3.7030425596295053 13.932330354482936  11.563828104169502 13.932330354482936  C 11.563828104169502 13.932330354482936  19.55452148697881 13.932330354482936  19.55452148697881 13.932330354482936  C 19.55452148697881 13.932330354482936  19.55452148697881 12.270674772748892  19.55452148697881 12.270674772748892  C 19.55452148697881 8.627816949656147  17.735489388442847 7.03007222357478  13.252892828970442 7.03007222357478  C 10.004634915524637 7.03007222357478  8.51044283876164 7.796991063448808  6.75638281041695 9.778195209467189  C 6.75638281041695 9.778195209467189  1.364293435029036 4.601501611286072  1.364293435029036 4.601501611286072  C 4.677516642271647 1.0225527391863227  7.925757130703095 0  13.57772607434894 0  C 23.062641543668192 0  28 3.9624025780577155  28 11.759395546166207  Z M 18.320179936783152 25.627820758975513  C 19.229692113825724 24.79699296810849  19.55452148697881 23.45488499832894  19.55452148697881 21.409772853647404  C 19.55452148697881 21.409772853647404  19.55452148697881 19.620299369927373  19.55452148697881 19.620299369927373  C 19.55452148697881 19.620299369927373  12.863130107880199 19.620299369927373  12.863130107880199 19.620299369927373  C 9.809767107768458 19.620299369927373  8.120676245445987 21.026315338370075  8.120676245445987 23.39097699966579  C 8.120676245445987 25.69172970996851  9.679826839611316 27.225563580397196  12.99305101491028 27.225563580397196  C 15.331796751313515 27.225563580397196  16.825981083625685 27.033835775088374  18.320179936783152 25.627820758975513  Z " fill-rule="evenodd" />
    </mask>
  </defs>
  <g transform="matrix(1 0 0 1 -409 -324 )">
    <path d="M 28 11.759395546166207  C 28 11.759395546166207  28 33.68045143571566  28 33.68045143571566  L 19.74943382532723 33.68045143571566  C 19.74943382532723 33.68045143571566  19.74943382532723 30.80451435715663  19.74943382532723 30.80451435715663  C 17.475653382720804 33.04135644988913  15.33178610269363 34  11.433876219336122 34  C 7.600931629775422 34  4.8074365812453745 33.04135311673468  2.793516345769815 31.060150161128607  C 0.9744917496705843 29.206766774085736  0 26.52255750083553  0 23.582707661964136  C 0 18.27819616179703  3.7030425596295053 13.932330354482936  11.563828104169502 13.932330354482936  C 11.563828104169502 13.932330354482936  19.55452148697881 13.932330354482936  19.55452148697881 13.932330354482936  C 19.55452148697881 13.932330354482936  19.55452148697881 12.270674772748892  19.55452148697881 12.270674772748892  C 19.55452148697881 8.627816949656147  17.735489388442847 7.03007222357478  13.252892828970442 7.03007222357478  C 10.004634915524637 7.03007222357478  8.51044283876164 7.796991063448808  6.75638281041695 9.778195209467189  C 6.75638281041695 9.778195209467189  1.364293435029036 4.601501611286072  1.364293435029036 4.601501611286072  C 4.677516642271647 1.0225527391863227  7.925757130703095 0  13.57772607434894 0  C 23.062641543668192 0  28 3.9624025780577155  28 11.759395546166207  Z M 18.320179936783152 25.627820758975513  C 19.229692113825724 24.79699296810849  19.55452148697881 23.45488499832894  19.55452148697881 21.409772853647404  C 19.55452148697881 21.409772853647404  19.55452148697881 19.620299369927373  19.55452148697881 19.620299369927373  C 19.55452148697881 19.620299369927373  12.863130107880199 19.620299369927373  12.863130107880199 19.620299369927373  C 9.809767107768458 19.620299369927373  8.120676245445987 21.026315338370075  8.120676245445987 23.39097699966579  C 8.120676245445987 25.69172970996851  9.679826839611316 27.225563580397196  12.99305101491028 27.225563580397196  C 15.331796751313515 27.225563580397196  16.825981083625685 27.033835775088374  18.320179936783152 25.627820758975513  Z " fill-rule="nonzero" fill="rgba(61, 63, 148, 1)" stroke="none" transform="matrix(1 0 0 1 413 324 )" class="fill" />
    <path d="M 28 11.759395546166207  C 28 11.759395546166207  28 33.68045143571566  28 33.68045143571566  L 19.74943382532723 33.68045143571566  C 19.74943382532723 33.68045143571566  19.74943382532723 30.80451435715663  19.74943382532723 30.80451435715663  C 17.475653382720804 33.04135644988913  15.33178610269363 34  11.433876219336122 34  C 7.600931629775422 34  4.8074365812453745 33.04135311673468  2.793516345769815 31.060150161128607  C 0.9744917496705843 29.206766774085736  0 26.52255750083553  0 23.582707661964136  C 0 18.27819616179703  3.7030425596295053 13.932330354482936  11.563828104169502 13.932330354482936  C 11.563828104169502 13.932330354482936  19.55452148697881 13.932330354482936  19.55452148697881 13.932330354482936  C 19.55452148697881 13.932330354482936  19.55452148697881 12.270674772748892  19.55452148697881 12.270674772748892  C 19.55452148697881 8.627816949656147  17.735489388442847 7.03007222357478  13.252892828970442 7.03007222357478  C 10.004634915524637 7.03007222357478  8.51044283876164 7.796991063448808  6.75638281041695 9.778195209467189  C 6.75638281041695 9.778195209467189  1.364293435029036 4.601501611286072  1.364293435029036 4.601501611286072  C 4.677516642271647 1.0225527391863227  7.925757130703095 0  13.57772607434894 0  C 23.062641543668192 0  28 3.9624025780577155  28 11.759395546166207  Z " stroke-width="0" stroke-dasharray="0" stroke="rgba(121, 121, 121, 1)" fill="none" transform="matrix(1 0 0 1 413 324 )" class="stroke" mask="url(#Clip4777)" />
    <path d="M 18.320179936783152 25.627820758975513  C 19.229692113825724 24.79699296810849  19.55452148697881 23.45488499832894  19.55452148697881 21.409772853647404  C 19.55452148697881 21.409772853647404  19.55452148697881 19.620299369927373  19.55452148697881 19.620299369927373  C 19.55452148697881 19.620299369927373  12.863130107880199 19.620299369927373  12.863130107880199 19.620299369927373  C 9.809767107768458 19.620299369927373  8.120676245445987 21.026315338370075  8.120676245445987 23.39097699966579  C 8.120676245445987 25.69172970996851  9.679826839611316 27.225563580397196  12.99305101491028 27.225563580397196  C 15.331796751313515 27.225563580397196  16.825981083625685 27.033835775088374  18.320179936783152 25.627820758975513  Z " stroke-width="0" stroke-dasharray="0" stroke="rgba(121, 121, 121, 1)" fill="none" transform="matrix(1 0 0 1 413 324 )" class="stroke" mask="url(#Clip4777)" />
  </g>
  <style>svg { filter: drop-shadow(0px 4px 2px rgba(0, 0, 0, 0.12941176470588237)); }</style>
</svg>