<?xml version="1.0" encoding="utf-8"?>
<svg version="1.1" xmlns:xlink="http://www.w3.org/1999/xlink" width="21px" height="22px" xmlns="http://www.w3.org/2000/svg">
  <defs>
    <pattern id="BGPattern" patternUnits="userSpaceOnUse" alignment="0 0" imageRepeat="None" />
    <mask fill="white" id="Clip4846">
      <path d="M 3.802571578498208 22  L 3.802571578498208 12  L 18.914726358958134 12  L 18.914726358958134 21.952332816831508  L 17.05023502057196 21.952332816831508  L 17.05023502057196 13.633806978939607  L 5.617993250748401 13.633806978939607  L 5.617993250748401 22  L 3.802571578498208 22  Z M 4.832948781224201 17  L 4.832948781224201 15.874323705780629  L 17.712620922234315 15.874323705780629  L 17.712620922234315 17  L 4.832948781224201 17  Z M 2.870325909305121 3.503791793854811  L 2.870325909305121 2.049840417123155  L 10.720794000764277 2.049840417123155  L 10.720794000764277 3.503791793854811  L 2.870325909305121 3.503791793854811  Z M 0.24532493446273929 7.245934657639881  L 0.24532493446273929 6  L 11.358645069358642 6  L 11.358645069358642 7.245934657639881  L 0.24532493446273929 7.245934657639881  Z M 4.832948781224201 21  L 4.832948781224201 19.640303949671896  L 17.712620922234315 19.640303949671896  L 17.712620922234315 21  L 4.832948781224201 21  Z M 5.34813348321767 4.910075987417974  C 5.34813348321767 4.910075987417974  5.34813348321767 2.550379937089871  5.34813348321767 2.550379937089871  L 7.089958455002947 2.550379937089871  C 7.089958455002947 2.550379937089871  7.089958455002947 4.910075987417974  7.089958455002947 4.910075987417974  C 7.089958455002947 5.4821238591813275  7.024536782752754 6.101843649765611  6.893695387937132 6.769232517779361  C 6.762854480542703 7.436621385793112  6.4929947130119725 8.11990357695022  6.084116085344944 8.819072934902517  C 5.691592388319271 9.518242292854813  5.102802943411235 10.201516906968022  4.317756280491677 10.868905774981773  C 3.5327096175721184 11.520404634808871  2.49416177342212 12.132177053473608  1.2021054367238164 12.704224925236963  C 1.0712642856187908 12.513541985605682  0.891357855168503 12.299029242912106  0.6623859016623569 12.060676278720871  C 0.433413948156211 11.806432832777741  0.2126168400818422 11.607799206270212  0 11.464787238329372  C 1.2429908136424457 10.988080836381657  2.224304077431452 10.47165130822829  2.9439304085090927 9.915493918216832  C 3.663556617731436 9.34344604645348  4.195096250366262 8.763454117727287  4.538554180625481 8.175516711342524  C 4.8820121108847 7.58757883139252  5.1028014811476625 7.015534748151115  5.200932283548783 6.459376884574413  C 5.299063329660498 5.887329012811058  5.34813348321767 5.370891907613792  5.34813348321767 4.910075987417974  Z M 1.8890183727151086 2.5980546973022625  C 2.363317575934651 1.7558728978438831  2.7313102174065627 0.8898518240183337  2.9929922759060186 0  C 2.9929922759060186 0  4.685747581555313 0.3336930133111441  4.685747581555313 0.3336930133111441  C 4.358644825648048 1.3506667970836645  3.925238188809701 2.3358653001353193  3.3855184100376454 3.289278104030746  C 2.8621540493281383 4.226800899739522  2.306075318689901 5.021305097594047  1.7172901387172859 5.672803957421147  C 1.6028041619642128 5.577462961170749  1.4556086894943188 5.474180275783733  1.275702137188733 5.362948324216198  C 1.0957954630278492 5.25171731977915  0.9077093738615234 5.14048726247259  0.7114477690592826 5.029255310905054  C 0.531541155826048 4.918023359337519  0.3761660855677649 4.838574265534748  0.24532493446273929 4.790904240974793  C 0.866820402211611 4.171185397520998  1.4147192913508644 3.440235549630154  1.8890183727151086 2.5980546973022625  Z M 5.34813348321767 8.39003040116659  C 5.34813348321767 8.39003040116659  6.550238919941488 7.579635247994924  6.550238919941488 7.579635247994924  C 6.779210873447633 7.706757207749112  7.106312898223114 7.897436358858443  7.531546456531499 8.151679331236329  C 7.973135432902434 8.390032768992809  8.431073003439243 8.652220745464021  8.905372328514085 8.938244681345695  C 9.396026584230281 9.224268617227374  9.845800337239758 9.49440396561813  10.25467896490679 9.74864741156126  C 10.679912523215176 9.987000375752496  10.982475328131946 10.169739731986182  11.16238200229283 10.296861691740368  C 11.16238200229283 10.296861691740368  9.886687663843151 11.512461998541765  9.886687663843151 11.512461998541765  C 9.657715710337005 11.337669540662379  9.338785789249105 11.107262527694955  8.929907161582074 10.82123859181328  C 8.537383951977592 10.535215129496846  8.112148931405635 10.233298344037056  7.654205024393342 9.915493918216832  C 7.212616048022407 9.597689492396608  6.77920941118406 9.303720078856362  6.353975852875673 9.033586624726581  C 5.945097225208644 8.763452697031555  5.609815785427722 8.54893237729408  5.34813348321767 8.39003040116659  Z M 19.209113160817797 3.62297111734189  L 14.106312410801923 3.62297111734189  L 14.106312410801923 8.699893611415437  L 19.209113160817797 8.699893611415437  L 19.209113160817797 3.62297111734189  Z M 12.389022272084636 10.320691494802665  L 12.389022272084636 2.0021656569107638  L 21 2.0021656569107638  L 21 10.320691494802665  L 12.389022272084636 10.320691494802665  Z " fill-rule="evenodd" />
    </mask>
  </defs>
  <g transform="matrix(1 0 0 1 -237 -581 )">
    <path d="M 3.802571578498208 22  L 3.802571578498208 12  L 18.914726358958134 12  L 18.914726358958134 21.952332816831508  L 17.05023502057196 21.952332816831508  L 17.05023502057196 13.633806978939607  L 5.617993250748401 13.633806978939607  L 5.617993250748401 22  L 3.802571578498208 22  Z M 4.832948781224201 17  L 4.832948781224201 15.874323705780629  L 17.712620922234315 15.874323705780629  L 17.712620922234315 17  L 4.832948781224201 17  Z M 2.870325909305121 3.503791793854811  L 2.870325909305121 2.049840417123155  L 10.720794000764277 2.049840417123155  L 10.720794000764277 3.503791793854811  L 2.870325909305121 3.503791793854811  Z M 0.24532493446273929 7.245934657639881  L 0.24532493446273929 6  L 11.358645069358642 6  L 11.358645069358642 7.245934657639881  L 0.24532493446273929 7.245934657639881  Z M 4.832948781224201 21  L 4.832948781224201 19.640303949671896  L 17.712620922234315 19.640303949671896  L 17.712620922234315 21  L 4.832948781224201 21  Z M 5.34813348321767 4.910075987417974  C 5.34813348321767 4.910075987417974  5.34813348321767 2.550379937089871  5.34813348321767 2.550379937089871  L 7.089958455002947 2.550379937089871  C 7.089958455002947 2.550379937089871  7.089958455002947 4.910075987417974  7.089958455002947 4.910075987417974  C 7.089958455002947 5.4821238591813275  7.024536782752754 6.101843649765611  6.893695387937132 6.769232517779361  C 6.762854480542703 7.436621385793112  6.4929947130119725 8.11990357695022  6.084116085344944 8.819072934902517  C 5.691592388319271 9.518242292854813  5.102802943411235 10.201516906968022  4.317756280491677 10.868905774981773  C 3.5327096175721184 11.520404634808871  2.49416177342212 12.132177053473608  1.2021054367238164 12.704224925236963  C 1.0712642856187908 12.513541985605682  0.891357855168503 12.299029242912106  0.6623859016623569 12.060676278720871  C 0.433413948156211 11.806432832777741  0.2126168400818422 11.607799206270212  0 11.464787238329372  C 1.2429908136424457 10.988080836381657  2.224304077431452 10.47165130822829  2.9439304085090927 9.915493918216832  C 3.663556617731436 9.34344604645348  4.195096250366262 8.763454117727287  4.538554180625481 8.175516711342524  C 4.8820121108847 7.58757883139252  5.1028014811476625 7.015534748151115  5.200932283548783 6.459376884574413  C 5.299063329660498 5.887329012811058  5.34813348321767 5.370891907613792  5.34813348321767 4.910075987417974  Z M 1.8890183727151086 2.5980546973022625  C 2.363317575934651 1.7558728978438831  2.7313102174065627 0.8898518240183337  2.9929922759060186 0  C 2.9929922759060186 0  4.685747581555313 0.3336930133111441  4.685747581555313 0.3336930133111441  C 4.358644825648048 1.3506667970836645  3.925238188809701 2.3358653001353193  3.3855184100376454 3.289278104030746  C 2.8621540493281383 4.226800899739522  2.306075318689901 5.021305097594047  1.7172901387172859 5.672803957421147  C 1.6028041619642128 5.577462961170749  1.4556086894943188 5.474180275783733  1.275702137188733 5.362948324216198  C 1.0957954630278492 5.25171731977915  0.9077093738615234 5.14048726247259  0.7114477690592826 5.029255310905054  C 0.531541155826048 4.918023359337519  0.3761660855677649 4.838574265534748  0.24532493446273929 4.790904240974793  C 0.866820402211611 4.171185397520998  1.4147192913508644 3.440235549630154  1.8890183727151086 2.5980546973022625  Z M 5.34813348321767 8.39003040116659  C 5.34813348321767 8.39003040116659  6.550238919941488 7.579635247994924  6.550238919941488 7.579635247994924  C 6.779210873447633 7.706757207749112  7.106312898223114 7.897436358858443  7.531546456531499 8.151679331236329  C 7.973135432902434 8.390032768992809  8.431073003439243 8.652220745464021  8.905372328514085 8.938244681345695  C 9.396026584230281 9.224268617227374  9.845800337239758 9.49440396561813  10.25467896490679 9.74864741156126  C 10.679912523215176 9.987000375752496  10.982475328131946 10.169739731986182  11.16238200229283 10.296861691740368  C 11.16238200229283 10.296861691740368  9.886687663843151 11.512461998541765  9.886687663843151 11.512461998541765  C 9.657715710337005 11.337669540662379  9.338785789249105 11.107262527694955  8.929907161582074 10.82123859181328  C 8.537383951977592 10.535215129496846  8.112148931405635 10.233298344037056  7.654205024393342 9.915493918216832  C 7.212616048022407 9.597689492396608  6.77920941118406 9.303720078856362  6.353975852875673 9.033586624726581  C 5.945097225208644 8.763452697031555  5.609815785427722 8.54893237729408  5.34813348321767 8.39003040116659  Z M 19.209113160817797 3.62297111734189  L 14.106312410801923 3.62297111734189  L 14.106312410801923 8.699893611415437  L 19.209113160817797 8.699893611415437  L 19.209113160817797 3.62297111734189  Z M 12.389022272084636 10.320691494802665  L 12.389022272084636 2.0021656569107638  L 21 2.0021656569107638  L 21 10.320691494802665  L 12.389022272084636 10.320691494802665  Z " fill-rule="nonzero" fill="rgba(0, 0, 0, 1)" stroke="none" transform="matrix(1 0 0 1 237 581 )" class="fill" />
    <path d="M 3.802571578498208 22  L 3.802571578498208 12  L 18.914726358958134 12  L 18.914726358958134 21.952332816831508  L 17.05023502057196 21.952332816831508  L 17.05023502057196 13.633806978939607  L 5.617993250748401 13.633806978939607  L 5.617993250748401 22  L 3.802571578498208 22  Z " stroke-width="0" stroke-dasharray="0" stroke="rgba(121, 121, 121, 1)" fill="none" transform="matrix(1 0 0 1 237 581 )" class="stroke" mask="url(#Clip4846)" />
    <path d="M 4.832948781224201 17  L 4.832948781224201 15.874323705780629  L 17.712620922234315 15.874323705780629  L 17.712620922234315 17  L 4.832948781224201 17  Z " stroke-width="0" stroke-dasharray="0" stroke="rgba(121, 121, 121, 1)" fill="none" transform="matrix(1 0 0 1 237 581 )" class="stroke" mask="url(#Clip4846)" />
    <path d="M 2.870325909305121 3.503791793854811  L 2.870325909305121 2.049840417123155  L 10.720794000764277 2.049840417123155  L 10.720794000764277 3.503791793854811  L 2.870325909305121 3.503791793854811  Z " stroke-width="0" stroke-dasharray="0" stroke="rgba(121, 121, 121, 1)" fill="none" transform="matrix(1 0 0 1 237 581 )" class="stroke" mask="url(#Clip4846)" />
    <path d="M 0.24532493446273929 7.245934657639881  L 0.24532493446273929 6  L 11.358645069358642 6  L 11.358645069358642 7.245934657639881  L 0.24532493446273929 7.245934657639881  Z " stroke-width="0" stroke-dasharray="0" stroke="rgba(121, 121, 121, 1)" fill="none" transform="matrix(1 0 0 1 237 581 )" class="stroke" mask="url(#Clip4846)" />
    <path d="M 4.832948781224201 21  L 4.832948781224201 19.640303949671896  L 17.712620922234315 19.640303949671896  L 17.712620922234315 21  L 4.832948781224201 21  Z " stroke-width="0" stroke-dasharray="0" stroke="rgba(121, 121, 121, 1)" fill="none" transform="matrix(1 0 0 1 237 581 )" class="stroke" mask="url(#Clip4846)" />
    <path d="M 5.34813348321767 4.910075987417974  C 5.34813348321767 4.910075987417974  5.34813348321767 2.550379937089871  5.34813348321767 2.550379937089871  L 7.089958455002947 2.550379937089871  C 7.089958455002947 2.550379937089871  7.089958455002947 4.910075987417974  7.089958455002947 4.910075987417974  C 7.089958455002947 5.4821238591813275  7.024536782752754 6.101843649765611  6.893695387937132 6.769232517779361  C 6.762854480542703 7.436621385793112  6.4929947130119725 8.11990357695022  6.084116085344944 8.819072934902517  C 5.691592388319271 9.518242292854813  5.102802943411235 10.201516906968022  4.317756280491677 10.868905774981773  C 3.5327096175721184 11.520404634808871  2.49416177342212 12.132177053473608  1.2021054367238164 12.704224925236963  C 1.0712642856187908 12.513541985605682  0.891357855168503 12.299029242912106  0.6623859016623569 12.060676278720871  C 0.433413948156211 11.806432832777741  0.2126168400818422 11.607799206270212  0 11.464787238329372  C 1.2429908136424457 10.988080836381657  2.224304077431452 10.47165130822829  2.9439304085090927 9.915493918216832  C 3.663556617731436 9.34344604645348  4.195096250366262 8.763454117727287  4.538554180625481 8.175516711342524  C 4.8820121108847 7.58757883139252  5.1028014811476625 7.015534748151115  5.200932283548783 6.459376884574413  C 5.299063329660498 5.887329012811058  5.34813348321767 5.370891907613792  5.34813348321767 4.910075987417974  Z " stroke-width="0" stroke-dasharray="0" stroke="rgba(121, 121, 121, 1)" fill="none" transform="matrix(1 0 0 1 237 581 )" class="stroke" mask="url(#Clip4846)" />
    <path d="M 1.8890183727151086 2.5980546973022625  C 2.363317575934651 1.7558728978438831  2.7313102174065627 0.8898518240183337  2.9929922759060186 0  C 2.9929922759060186 0  4.685747581555313 0.3336930133111441  4.685747581555313 0.3336930133111441  C 4.358644825648048 1.3506667970836645  3.925238188809701 2.3358653001353193  3.3855184100376454 3.289278104030746  C 2.8621540493281383 4.226800899739522  2.306075318689901 5.021305097594047  1.7172901387172859 5.672803957421147  C 1.6028041619642128 5.577462961170749  1.4556086894943188 5.474180275783733  1.275702137188733 5.362948324216198  C 1.0957954630278492 5.25171731977915  0.9077093738615234 5.14048726247259  0.7114477690592826 5.029255310905054  C 0.531541155826048 4.918023359337519  0.3761660855677649 4.838574265534748  0.24532493446273929 4.790904240974793  C 0.866820402211611 4.171185397520998  1.4147192913508644 3.440235549630154  1.8890183727151086 2.5980546973022625  Z " stroke-width="0" stroke-dasharray="0" stroke="rgba(121, 121, 121, 1)" fill="none" transform="matrix(1 0 0 1 237 581 )" class="stroke" mask="url(#Clip4846)" />
    <path d="M 5.34813348321767 8.39003040116659  C 5.34813348321767 8.39003040116659  6.550238919941488 7.579635247994924  6.550238919941488 7.579635247994924  C 6.779210873447633 7.706757207749112  7.106312898223114 7.897436358858443  7.531546456531499 8.151679331236329  C 7.973135432902434 8.390032768992809  8.431073003439243 8.652220745464021  8.905372328514085 8.938244681345695  C 9.396026584230281 9.224268617227374  9.845800337239758 9.49440396561813  10.25467896490679 9.74864741156126  C 10.679912523215176 9.987000375752496  10.982475328131946 10.169739731986182  11.16238200229283 10.296861691740368  C 11.16238200229283 10.296861691740368  9.886687663843151 11.512461998541765  9.886687663843151 11.512461998541765  C 9.657715710337005 11.337669540662379  9.338785789249105 11.107262527694955  8.929907161582074 10.82123859181328  C 8.537383951977592 10.535215129496846  8.112148931405635 10.233298344037056  7.654205024393342 9.915493918216832  C 7.212616048022407 9.597689492396608  6.77920941118406 9.303720078856362  6.353975852875673 9.033586624726581  C 5.945097225208644 8.763452697031555  5.609815785427722 8.54893237729408  5.34813348321767 8.39003040116659  Z " stroke-width="0" stroke-dasharray="0" stroke="rgba(121, 121, 121, 1)" fill="none" transform="matrix(1 0 0 1 237 581 )" class="stroke" mask="url(#Clip4846)" />
    <path d="M 19.209113160817797 3.62297111734189  L 14.106312410801923 3.62297111734189  L 14.106312410801923 8.699893611415437  L 19.209113160817797 8.699893611415437  L 19.209113160817797 3.62297111734189  Z " stroke-width="0" stroke-dasharray="0" stroke="rgba(121, 121, 121, 1)" fill="none" transform="matrix(1 0 0 1 237 581 )" class="stroke" mask="url(#Clip4846)" />
    <path d="M 12.389022272084636 10.320691494802665  L 12.389022272084636 2.0021656569107638  L 21 2.0021656569107638  L 21 10.320691494802665  L 12.389022272084636 10.320691494802665  Z " stroke-width="0" stroke-dasharray="0" stroke="rgba(121, 121, 121, 1)" fill="none" transform="matrix(1 0 0 1 237 581 )" class="stroke" mask="url(#Clip4846)" />
  </g>
</svg>