<?xml version="1.0" encoding="utf-8"?>
<svg version="1.1" xmlns:xlink="http://www.w3.org/1999/xlink" width="38px" height="54px" xmlns="http://www.w3.org/2000/svg">
  <defs>
    <pattern id="BGPattern" patternUnits="userSpaceOnUse" alignment="0 0" imageRepeat="None" />
    <mask fill="white" id="Clip4775">
      <path d="M 17.341783612494343 25.907304398404133  L 30 46  L 19.81014033499321 46  L 11.708857703334841 31.980336829860054  L 8.227855741662895 35.985957078963935  L 8.227855741662895 46  L 0 46  L 0 0  L 8.227855741662895 0  L 8.227855741662895 26.101122124389867  L 19.17721442583371 12.339886439759377  L 29.113927870831446 12.339886439759377  L 17.341783612494343 25.907304398404133  Z " fill-rule="evenodd" />
    </mask>
  </defs>
  <g transform="matrix(1 0 0 1 -475 -312 )">
    <path d="M 17.341783612494343 25.907304398404133  L 30 46  L 19.81014033499321 46  L 11.708857703334841 31.980336829860054  L 8.227855741662895 35.985957078963935  L 8.227855741662895 46  L 0 46  L 0 0  L 8.227855741662895 0  L 8.227855741662895 26.101122124389867  L 19.17721442583371 12.339886439759377  L 29.113927870831446 12.339886439759377  L 17.341783612494343 25.907304398404133  Z " fill-rule="nonzero" fill="rgba(61, 63, 148, 1)" stroke="none" transform="matrix(1 0 0 1 479 312 )" class="fill" />
    <path d="M 17.341783612494343 25.907304398404133  L 30 46  L 19.81014033499321 46  L 11.708857703334841 31.980336829860054  L 8.227855741662895 35.985957078963935  L 8.227855741662895 46  L 0 46  L 0 0  L 8.227855741662895 0  L 8.227855741662895 26.101122124389867  L 19.17721442583371 12.339886439759377  L 29.113927870831446 12.339886439759377  L 17.341783612494343 25.907304398404133  Z " stroke-width="0" stroke-dasharray="0" stroke="rgba(121, 121, 121, 1)" fill="none" transform="matrix(1 0 0 1 479 312 )" class="stroke" mask="url(#Clip4775)" />
  </g>
  <style>svg { filter: drop-shadow(0px 4px 2px rgba(0, 0, 0, 0.12941176470588237)); }</style>
</svg>