<?xml version="1.0" encoding="utf-8"?>
<svg version="1.1" xmlns:xlink="http://www.w3.org/1999/xlink" width="22px" height="21px" xmlns="http://www.w3.org/2000/svg">
  <defs>
    <pattern id="BGPattern" patternUnits="userSpaceOnUse" alignment="0 0" imageRepeat="None" />
    <mask fill="white" id="Clip4848">
      <path d="M 11.698599780812344 12.072578128776792  C 11.698599780812344 12.072578128776792  13.166843962120964 11.612907124430322  13.166843962120964 11.612907124430322  C 13.672046696158022 12.790326660909463  14.35091531077348 13.887100635160257  15.203445100901003 14.903229527865307  C 16.071762270620532 15.91935866091166  17.082166797681378 16.798387982825073  18.23465962309681 17.540323502138076  C 19.387153389525512 18.28225890128043  20.63437143350625 18.854841948470277  21.976316578078823 19.25806777679627  C 21.85001565931624 19.370970994607497  21.707928301974924 19.516131454914994  21.55005262402833 19.693550832597204  C 21.407964325673742 19.870970180236746  21.26587696833242 20.05645598279541  21.123788669977834 20.250004394812365  C 20.997487751215257 20.443552746743993  20.886972330018143 20.62097197421289  20.79224711145284 20.782262317560352  C 19.418727207696257 20.29839134760329  18.147828564834146 19.63709874676432  16.97954741881344 18.798389081528164  C 15.827053652384738 17.95967941629201  14.800861745731885 16.97580721029397  13.900969816828345 15.846774866947055  C 13.016865267516811 14.701613459222733  12.2827403538227 13.443545957102236  11.698599780812344 12.072578128776792  Z M 17.997844224150388 12.580648102979243  C 18.58198479716074 12.129035261776998  19.079294311908427 11.709679107281765  19.489771827380185 11.322582523589155  C 19.489771827380185 11.322582523589155  20.934336350820697 12.241932223203731  20.934336350820697 12.241932223203731  C 20.144957020074465 12.887093836934882  19.268744749039033 13.540319622342787  18.305702360754204 14.201609819768743  C 17.342659972469374 14.862900257536005  16.45066314488174 15.427416549380112  15.629709054951498 15.895158454959766  C 15.629709054951498 15.895158454959766  14.421959930457408 15.024192343357901  14.421959930457408 15.024192343357901  C 14.974524803270484 14.701611536492324  15.558662553241033 14.330647622296642  16.174378826448667 13.911292909849214  C 16.805881538235038 13.475808892683078  17.413703651140032 13.03226118452279  17.997844224150388 12.580648102979243  Z M 3.362756080720802 12.217744274658195  C 4.38894916364024 11.620970094400569  5.273053477698456 11.02419495277774  6.015069728655402 10.427420772520117  C 6.015069728655402 10.427420772520117  7.530678871779842 11.080649201682334  7.530678871779842 11.080649201682334  C 6.978113528460133 11.532262042884579  6.362396314239233 11.991935931326662  5.683530052156943 12.459677596565015  C 5.0204516401732935 12.92741974248597  4.341586319104271 13.370967690987557  3.6469326774299766 13.790322403434985  C 2.952278800502364 14.209677356223713  2.289199800385422 14.57258238625127  1.6576965004657587 14.879033888398135  C 1.5787586614924625 14.766130678097573  1.4603530792991024 14.645162334755057  1.302477166099193 14.516130060077087  C 1.1446013705259417 14.370968961363006  0.9788301207568108 14.225808343331531  0.805166710338237 14.080647004276152  C 0.6472908559516566 13.919356600843365  0.5052033809836788 13.798388257500845  0.3789027562877437 13.717743175955102  C 1.3577328770445545 13.298388463507674  2.352350730273346 12.798389630879708  3.362756080720802 12.217744274658195  Z M 4.949407961502634 16.4758076566421  C 5.722999677403543 15.895162420591234  6.386078795147143 15.314512858396949  6.938644138466851 14.733867742516733  C 6.938644138466851 14.733867742516733  8.572659099037969 15.411291811146123  8.572659099037969 15.411291811146123  C 7.941155916744964 16.07258224891338  7.222820735176025 16.7338747295817  6.417654024837788 17.39516504717831  C 5.612486843992918 18.040326360482837  4.775744668710718 18.637093751098703  3.907427734244508 19.18548085839475  C 3.054898179370303 19.74999696998288  2.226049693884107 20.241936978528045  1.4208829835458696 20.661291811146125  C 1.3261575297272508 20.548388600845563  1.1919639798085928 20.4112946780745  1.018300569390019 20.250004394812365  C 0.8446371001581159 20.0887140514649  0.66307994113021 19.92742040342455  0.4736289158663135 19.766130060077085  C 0.2999655054477397 19.62096878110703  0.14208823954125774 19.50000042274318  0 19.403226231756037  C 0.8367419400288822 19.01612946780745  1.681378275613718 18.5806480343103  2.533907830487923 18.096777064353237  C 3.386437385362128 17.59677709010409  4.191604095700365 17.056452892692963  4.949407961502634 16.4758076566421  Z M 0.7341239726808451 1.3548404463371435  L 0.7341239726808451 0  L 12.03014133933734 0  L 12.03014133933734 1.3548404463371435  L 0.7341239726808451 1.3548404463371435  Z M 3.3864376206154447 4.040325699544257  L 3.3864376206154447 2.8548393476340532  L 9.709365485874663 2.8548393476340532  L 9.709365485874663 4.040325699544257  L 3.3864376206154447 4.040325699544257  Z M 3.3864376206154447 6.7016153132842  L 3.3864376206154447 5.540324600841167  L 9.709365485874663 5.540324600841167  L 9.709365485874663 6.7016153132842  L 3.3864376206154447 6.7016153132842  Z M 11.769642518469738 2.6612896137399416  L 11.769642518469738 1.1854863519102052  L 19.963398861219964 1.1854863519102052  L 19.963398861219964 2.6612896137399416  L 11.769642518469738 2.6612896137399416  Z M 9 10.645158454959766  L 9 0.5322579227479882  L 10.538213736107544 0.5322579227479882  L 10.538213736107544 10.645158454959766  L 9 10.645158454959766  Z M 19.347686352065402 1.475803261829736  C 19.347686352065402 1.475803261829736  19.347686352065402 1.1854863519102052  19.347686352065402 1.1854863519102052  L 19.679224146537322 1.1854863519102052  L 19.963398861219964 1.0887114849631494  C 19.963398861219964 1.0887114849631494  21.100105248056657 1.6451573562566746  21.100105248056657 1.6451573562566746  C 20.56332681382232 3.064512137373045  19.81341828458927 4.330646454924607  18.850375896304445 5.443549733894112  C 17.887333508019616 6.540324188827508  16.805882479248304 7.483870969957062  15.606025633030319 8.27419344206099  C 14.421957107417606 9.064516394847523  13.206313822620881 9.69355014590777  11.959094837626877 10.161291811146123  C 11.848581298456303 9.95161469526371  11.69070562050971 9.717744343327137  11.485467803787099 9.459679793971196  C 11.296016425643229 9.201615244615256  11.122353368104628 8.991937648050241  10.964477690158036 8.830647004276152  C 12.116971456586738 8.45967924461965  13.245782742107528 7.919354987123199  14.350913428746946 7.209677596565014  C 15.471831494978368 6.5000006866894315  16.474343743763114 5.661288377698964  17.358448293074645 4.693546437784839  C 18.242553783399448 3.7258044978707137  18.905634077409633 2.6532227983088763  19.347686352065402 1.475803261829736  Z M 0.5920347333129903 10.13709617167895  C 0.5920347333129903 10.13709617167895  0.3789027562877437 8.709676497861924  0.3789027562877437 8.709676497861924  C 1.5787591319990963 8.629031416316181  3.0075350995810184 8.52419646349449  4.665231364793461 8.39516394847522  C 6.3229276300059025 8.266131914138551  8.012198654402354 8.129030180275203  9.733045143742771 7.983868841219825  C 9.733045143742771 7.983868841219825  9.733045143742771 9.266130060077085  9.733045143742771 9.266130060077085  C 8.10692434347429 9.427420223168571  6.488696997748497 9.588713751038275  4.878363341818706 9.750004394812363  C 3.2680296858889157 9.895165733867742  1.839253718306994 10.024192961378388  0.5920347333129903 10.13709617167895  Z M 14.540365747904087 6.000003296109273  C 13.735199037565849 5.53226163087092  12.953714808135521 5.112905476375686  12.195910236573301 4.7419377167191845  C 12.195910236573301 4.7419377167191845  13.379975939146211 3.6532262317560353  13.379975939146211 3.6532262317560353  C 14.121992190103159 4.0080651673764285  14.88769280399455 4.403228566500103  15.677072134740781 4.83871258366624  C 16.482238845079017 5.274196600832377  17.279511395114618 5.7338704892744605  18.06889072586085 6.21774097854892  C 18.858270056607083 6.685483605152477  19.592391206248124 7.153223347660421  20.271256997823777 7.6209650128987745  C 20.950122789399433 8.088706678137127  21.526372025146955 8.524195982811888  22 8.927421871223208  C 22 8.927421871223208  20.721204373795448 10.209675399158833  20.721204373795448 10.209675399158833  C 20.279152099139683 9.806449510747512  19.726586285313342 9.370967896994388  19.06350787332969 8.903226231756035  C 18.400429461346043 8.419355261798973  17.6820928682572 7.927423244602072  16.908500917102977 7.427422969926299  C 16.13490990696202 6.9274226952505265  15.345532458242321 6.451616137311517  14.540365747904087 6.000003296109273  Z M 12.409042213598548 11.03225792274799  C 13.419447681672663 10.59677390558185  14.287763910378924 10.161292772511327  15.013992781743864 9.725808755345192  C 15.013992781743864 9.725808755345192  16.434873883263197 10.475804360532827  16.434873883263197 10.475804360532827  C 15.629707172924961 10.991933459244708  14.698239543824144 11.499999107303738  13.640470995960744 11.999998901296909  C 12.598490768702618 12.499999175972683  11.517043033477744 12.967739399163227  10.396124496739688 13.403222935646761  C 9.275206430508266 13.8387069528129  8.225330631427601 14.209678557930218  7.246500393044133 14.516130060077087  C 7.183349933662842 14.403226849776525  7.080732436821439 14.258066231745048  6.938644138466851 14.080647004276152  C 6.812343690210905 13.887098472088546  6.678148140639052 13.70967924461965  6.536059842284465 13.548389081528164  C 6.409758923521884 13.370969613717968  6.291353576581842 13.225809236027795  6.1808405079179 13.112906025727233  C 7.175458125893374 12.870970781090001  8.209545604368765 12.572583210278587  9.28310153182417 12.217744274658195  C 10.372444838871582 11.846776515001693  11.414424595623073 11.451612635195415  12.409042213598548 11.03225792274799  Z M 2.5575893703825656 9.193550832597202  L 2.5575893703825656 0.5322579227479882  L 4.191604330953682 0.5322579227479882  L 4.191604330953682 9.000001098703091  L 2.5575893703825656 9.193550832597202  Z M 10.206672177582549 21  L 10.206672177582549 12.91935629183312  L 11.082883507604713 11.999998901296909  L 11.959094837626877 12.290323502138078  L 11.959094837626877 21  L 10.206672177582549 21  Z " fill-rule="evenodd" />
    </mask>
  </defs>
  <g transform="matrix(1 0 0 1 -165 -582 )">
    <path d="M 11.698599780812344 12.072578128776792  C 11.698599780812344 12.072578128776792  13.166843962120964 11.612907124430322  13.166843962120964 11.612907124430322  C 13.672046696158022 12.790326660909463  14.35091531077348 13.887100635160257  15.203445100901003 14.903229527865307  C 16.071762270620532 15.91935866091166  17.082166797681378 16.798387982825073  18.23465962309681 17.540323502138076  C 19.387153389525512 18.28225890128043  20.63437143350625 18.854841948470277  21.976316578078823 19.25806777679627  C 21.85001565931624 19.370970994607497  21.707928301974924 19.516131454914994  21.55005262402833 19.693550832597204  C 21.407964325673742 19.870970180236746  21.26587696833242 20.05645598279541  21.123788669977834 20.250004394812365  C 20.997487751215257 20.443552746743993  20.886972330018143 20.62097197421289  20.79224711145284 20.782262317560352  C 19.418727207696257 20.29839134760329  18.147828564834146 19.63709874676432  16.97954741881344 18.798389081528164  C 15.827053652384738 17.95967941629201  14.800861745731885 16.97580721029397  13.900969816828345 15.846774866947055  C 13.016865267516811 14.701613459222733  12.2827403538227 13.443545957102236  11.698599780812344 12.072578128776792  Z M 17.997844224150388 12.580648102979243  C 18.58198479716074 12.129035261776998  19.079294311908427 11.709679107281765  19.489771827380185 11.322582523589155  C 19.489771827380185 11.322582523589155  20.934336350820697 12.241932223203731  20.934336350820697 12.241932223203731  C 20.144957020074465 12.887093836934882  19.268744749039033 13.540319622342787  18.305702360754204 14.201609819768743  C 17.342659972469374 14.862900257536005  16.45066314488174 15.427416549380112  15.629709054951498 15.895158454959766  C 15.629709054951498 15.895158454959766  14.421959930457408 15.024192343357901  14.421959930457408 15.024192343357901  C 14.974524803270484 14.701611536492324  15.558662553241033 14.330647622296642  16.174378826448667 13.911292909849214  C 16.805881538235038 13.475808892683078  17.413703651140032 13.03226118452279  17.997844224150388 12.580648102979243  Z M 3.362756080720802 12.217744274658195  C 4.38894916364024 11.620970094400569  5.273053477698456 11.02419495277774  6.015069728655402 10.427420772520117  C 6.015069728655402 10.427420772520117  7.530678871779842 11.080649201682334  7.530678871779842 11.080649201682334  C 6.978113528460133 11.532262042884579  6.362396314239233 11.991935931326662  5.683530052156943 12.459677596565015  C 5.0204516401732935 12.92741974248597  4.341586319104271 13.370967690987557  3.6469326774299766 13.790322403434985  C 2.952278800502364 14.209677356223713  2.289199800385422 14.57258238625127  1.6576965004657587 14.879033888398135  C 1.5787586614924625 14.766130678097573  1.4603530792991024 14.645162334755057  1.302477166099193 14.516130060077087  C 1.1446013705259417 14.370968961363006  0.9788301207568108 14.225808343331531  0.805166710338237 14.080647004276152  C 0.6472908559516566 13.919356600843365  0.5052033809836788 13.798388257500845  0.3789027562877437 13.717743175955102  C 1.3577328770445545 13.298388463507674  2.352350730273346 12.798389630879708  3.362756080720802 12.217744274658195  Z M 4.949407961502634 16.4758076566421  C 5.722999677403543 15.895162420591234  6.386078795147143 15.314512858396949  6.938644138466851 14.733867742516733  C 6.938644138466851 14.733867742516733  8.572659099037969 15.411291811146123  8.572659099037969 15.411291811146123  C 7.941155916744964 16.07258224891338  7.222820735176025 16.7338747295817  6.417654024837788 17.39516504717831  C 5.612486843992918 18.040326360482837  4.775744668710718 18.637093751098703  3.907427734244508 19.18548085839475  C 3.054898179370303 19.74999696998288  2.226049693884107 20.241936978528045  1.4208829835458696 20.661291811146125  C 1.3261575297272508 20.548388600845563  1.1919639798085928 20.4112946780745  1.018300569390019 20.250004394812365  C 0.8446371001581159 20.0887140514649  0.66307994113021 19.92742040342455  0.4736289158663135 19.766130060077085  C 0.2999655054477397 19.62096878110703  0.14208823954125774 19.50000042274318  0 19.403226231756037  C 0.8367419400288822 19.01612946780745  1.681378275613718 18.5806480343103  2.533907830487923 18.096777064353237  C 3.386437385362128 17.59677709010409  4.191604095700365 17.056452892692963  4.949407961502634 16.4758076566421  Z M 0.7341239726808451 1.3548404463371435  L 0.7341239726808451 0  L 12.03014133933734 0  L 12.03014133933734 1.3548404463371435  L 0.7341239726808451 1.3548404463371435  Z M 3.3864376206154447 4.040325699544257  L 3.3864376206154447 2.8548393476340532  L 9.709365485874663 2.8548393476340532  L 9.709365485874663 4.040325699544257  L 3.3864376206154447 4.040325699544257  Z M 3.3864376206154447 6.7016153132842  L 3.3864376206154447 5.540324600841167  L 9.709365485874663 5.540324600841167  L 9.709365485874663 6.7016153132842  L 3.3864376206154447 6.7016153132842  Z M 11.769642518469738 2.6612896137399416  L 11.769642518469738 1.1854863519102052  L 19.963398861219964 1.1854863519102052  L 19.963398861219964 2.6612896137399416  L 11.769642518469738 2.6612896137399416  Z M 9 10.645158454959766  L 9 0.5322579227479882  L 10.538213736107544 0.5322579227479882  L 10.538213736107544 10.645158454959766  L 9 10.645158454959766  Z M 19.347686352065402 1.475803261829736  C 19.347686352065402 1.475803261829736  19.347686352065402 1.1854863519102052  19.347686352065402 1.1854863519102052  L 19.679224146537322 1.1854863519102052  L 19.963398861219964 1.0887114849631494  C 19.963398861219964 1.0887114849631494  21.100105248056657 1.6451573562566746  21.100105248056657 1.6451573562566746  C 20.56332681382232 3.064512137373045  19.81341828458927 4.330646454924607  18.850375896304445 5.443549733894112  C 17.887333508019616 6.540324188827508  16.805882479248304 7.483870969957062  15.606025633030319 8.27419344206099  C 14.421957107417606 9.064516394847523  13.206313822620881 9.69355014590777  11.959094837626877 10.161291811146123  C 11.848581298456303 9.95161469526371  11.69070562050971 9.717744343327137  11.485467803787099 9.459679793971196  C 11.296016425643229 9.201615244615256  11.122353368104628 8.991937648050241  10.964477690158036 8.830647004276152  C 12.116971456586738 8.45967924461965  13.245782742107528 7.919354987123199  14.350913428746946 7.209677596565014  C 15.471831494978368 6.5000006866894315  16.474343743763114 5.661288377698964  17.358448293074645 4.693546437784839  C 18.242553783399448 3.7258044978707137  18.905634077409633 2.6532227983088763  19.347686352065402 1.475803261829736  Z M 0.5920347333129903 10.13709617167895  C 0.5920347333129903 10.13709617167895  0.3789027562877437 8.709676497861924  0.3789027562877437 8.709676497861924  C 1.5787591319990963 8.629031416316181  3.0075350995810184 8.52419646349449  4.665231364793461 8.39516394847522  C 6.3229276300059025 8.266131914138551  8.012198654402354 8.129030180275203  9.733045143742771 7.983868841219825  C 9.733045143742771 7.983868841219825  9.733045143742771 9.266130060077085  9.733045143742771 9.266130060077085  C 8.10692434347429 9.427420223168571  6.488696997748497 9.588713751038275  4.878363341818706 9.750004394812363  C 3.2680296858889157 9.895165733867742  1.839253718306994 10.024192961378388  0.5920347333129903 10.13709617167895  Z M 14.540365747904087 6.000003296109273  C 13.735199037565849 5.53226163087092  12.953714808135521 5.112905476375686  12.195910236573301 4.7419377167191845  C 12.195910236573301 4.7419377167191845  13.379975939146211 3.6532262317560353  13.379975939146211 3.6532262317560353  C 14.121992190103159 4.0080651673764285  14.88769280399455 4.403228566500103  15.677072134740781 4.83871258366624  C 16.482238845079017 5.274196600832377  17.279511395114618 5.7338704892744605  18.06889072586085 6.21774097854892  C 18.858270056607083 6.685483605152477  19.592391206248124 7.153223347660421  20.271256997823777 7.6209650128987745  C 20.950122789399433 8.088706678137127  21.526372025146955 8.524195982811888  22 8.927421871223208  C 22 8.927421871223208  20.721204373795448 10.209675399158833  20.721204373795448 10.209675399158833  C 20.279152099139683 9.806449510747512  19.726586285313342 9.370967896994388  19.06350787332969 8.903226231756035  C 18.400429461346043 8.419355261798973  17.6820928682572 7.927423244602072  16.908500917102977 7.427422969926299  C 16.13490990696202 6.9274226952505265  15.345532458242321 6.451616137311517  14.540365747904087 6.000003296109273  Z M 12.409042213598548 11.03225792274799  C 13.419447681672663 10.59677390558185  14.287763910378924 10.161292772511327  15.013992781743864 9.725808755345192  C 15.013992781743864 9.725808755345192  16.434873883263197 10.475804360532827  16.434873883263197 10.475804360532827  C 15.629707172924961 10.991933459244708  14.698239543824144 11.499999107303738  13.640470995960744 11.999998901296909  C 12.598490768702618 12.499999175972683  11.517043033477744 12.967739399163227  10.396124496739688 13.403222935646761  C 9.275206430508266 13.8387069528129  8.225330631427601 14.209678557930218  7.246500393044133 14.516130060077087  C 7.183349933662842 14.403226849776525  7.080732436821439 14.258066231745048  6.938644138466851 14.080647004276152  C 6.812343690210905 13.887098472088546  6.678148140639052 13.70967924461965  6.536059842284465 13.548389081528164  C 6.409758923521884 13.370969613717968  6.291353576581842 13.225809236027795  6.1808405079179 13.112906025727233  C 7.175458125893374 12.870970781090001  8.209545604368765 12.572583210278587  9.28310153182417 12.217744274658195  C 10.372444838871582 11.846776515001693  11.414424595623073 11.451612635195415  12.409042213598548 11.03225792274799  Z M 2.5575893703825656 9.193550832597202  L 2.5575893703825656 0.5322579227479882  L 4.191604330953682 0.5322579227479882  L 4.191604330953682 9.000001098703091  L 2.5575893703825656 9.193550832597202  Z M 10.206672177582549 21  L 10.206672177582549 12.91935629183312  L 11.082883507604713 11.999998901296909  L 11.959094837626877 12.290323502138078  L 11.959094837626877 21  L 10.206672177582549 21  Z " fill-rule="nonzero" fill="rgba(0, 0, 0, 1)" stroke="none" transform="matrix(1 0 0 1 165 582 )" class="fill" />
    <path d="M 11.698599780812344 12.072578128776792  C 11.698599780812344 12.072578128776792  13.166843962120964 11.612907124430322  13.166843962120964 11.612907124430322  C 13.672046696158022 12.790326660909463  14.35091531077348 13.887100635160257  15.203445100901003 14.903229527865307  C 16.071762270620532 15.91935866091166  17.082166797681378 16.798387982825073  18.23465962309681 17.540323502138076  C 19.387153389525512 18.28225890128043  20.63437143350625 18.854841948470277  21.976316578078823 19.25806777679627  C 21.85001565931624 19.370970994607497  21.707928301974924 19.516131454914994  21.55005262402833 19.693550832597204  C 21.407964325673742 19.870970180236746  21.26587696833242 20.05645598279541  21.123788669977834 20.250004394812365  C 20.997487751215257 20.443552746743993  20.886972330018143 20.62097197421289  20.79224711145284 20.782262317560352  C 19.418727207696257 20.29839134760329  18.147828564834146 19.63709874676432  16.97954741881344 18.798389081528164  C 15.827053652384738 17.95967941629201  14.800861745731885 16.97580721029397  13.900969816828345 15.846774866947055  C 13.016865267516811 14.701613459222733  12.2827403538227 13.443545957102236  11.698599780812344 12.072578128776792  Z " stroke-width="0" stroke-dasharray="0" stroke="rgba(121, 121, 121, 1)" fill="none" transform="matrix(1 0 0 1 165 582 )" class="stroke" mask="url(#Clip4848)" />
    <path d="M 17.997844224150388 12.580648102979243  C 18.58198479716074 12.129035261776998  19.079294311908427 11.709679107281765  19.489771827380185 11.322582523589155  C 19.489771827380185 11.322582523589155  20.934336350820697 12.241932223203731  20.934336350820697 12.241932223203731  C 20.144957020074465 12.887093836934882  19.268744749039033 13.540319622342787  18.305702360754204 14.201609819768743  C 17.342659972469374 14.862900257536005  16.45066314488174 15.427416549380112  15.629709054951498 15.895158454959766  C 15.629709054951498 15.895158454959766  14.421959930457408 15.024192343357901  14.421959930457408 15.024192343357901  C 14.974524803270484 14.701611536492324  15.558662553241033 14.330647622296642  16.174378826448667 13.911292909849214  C 16.805881538235038 13.475808892683078  17.413703651140032 13.03226118452279  17.997844224150388 12.580648102979243  Z " stroke-width="0" stroke-dasharray="0" stroke="rgba(121, 121, 121, 1)" fill="none" transform="matrix(1 0 0 1 165 582 )" class="stroke" mask="url(#Clip4848)" />
    <path d="M 3.362756080720802 12.217744274658195  C 4.38894916364024 11.620970094400569  5.273053477698456 11.02419495277774  6.015069728655402 10.427420772520117  C 6.015069728655402 10.427420772520117  7.530678871779842 11.080649201682334  7.530678871779842 11.080649201682334  C 6.978113528460133 11.532262042884579  6.362396314239233 11.991935931326662  5.683530052156943 12.459677596565015  C 5.0204516401732935 12.92741974248597  4.341586319104271 13.370967690987557  3.6469326774299766 13.790322403434985  C 2.952278800502364 14.209677356223713  2.289199800385422 14.57258238625127  1.6576965004657587 14.879033888398135  C 1.5787586614924625 14.766130678097573  1.4603530792991024 14.645162334755057  1.302477166099193 14.516130060077087  C 1.1446013705259417 14.370968961363006  0.9788301207568108 14.225808343331531  0.805166710338237 14.080647004276152  C 0.6472908559516566 13.919356600843365  0.5052033809836788 13.798388257500845  0.3789027562877437 13.717743175955102  C 1.3577328770445545 13.298388463507674  2.352350730273346 12.798389630879708  3.362756080720802 12.217744274658195  Z " stroke-width="0" stroke-dasharray="0" stroke="rgba(121, 121, 121, 1)" fill="none" transform="matrix(1 0 0 1 165 582 )" class="stroke" mask="url(#Clip4848)" />
    <path d="M 4.949407961502634 16.4758076566421  C 5.722999677403543 15.895162420591234  6.386078795147143 15.314512858396949  6.938644138466851 14.733867742516733  C 6.938644138466851 14.733867742516733  8.572659099037969 15.411291811146123  8.572659099037969 15.411291811146123  C 7.941155916744964 16.07258224891338  7.222820735176025 16.7338747295817  6.417654024837788 17.39516504717831  C 5.612486843992918 18.040326360482837  4.775744668710718 18.637093751098703  3.907427734244508 19.18548085839475  C 3.054898179370303 19.74999696998288  2.226049693884107 20.241936978528045  1.4208829835458696 20.661291811146125  C 1.3261575297272508 20.548388600845563  1.1919639798085928 20.4112946780745  1.018300569390019 20.250004394812365  C 0.8446371001581159 20.0887140514649  0.66307994113021 19.92742040342455  0.4736289158663135 19.766130060077085  C 0.2999655054477397 19.62096878110703  0.14208823954125774 19.50000042274318  0 19.403226231756037  C 0.8367419400288822 19.01612946780745  1.681378275613718 18.5806480343103  2.533907830487923 18.096777064353237  C 3.386437385362128 17.59677709010409  4.191604095700365 17.056452892692963  4.949407961502634 16.4758076566421  Z " stroke-width="0" stroke-dasharray="0" stroke="rgba(121, 121, 121, 1)" fill="none" transform="matrix(1 0 0 1 165 582 )" class="stroke" mask="url(#Clip4848)" />
    <path d="M 0.7341239726808451 1.3548404463371435  L 0.7341239726808451 0  L 12.03014133933734 0  L 12.03014133933734 1.3548404463371435  L 0.7341239726808451 1.3548404463371435  Z " stroke-width="0" stroke-dasharray="0" stroke="rgba(121, 121, 121, 1)" fill="none" transform="matrix(1 0 0 1 165 582 )" class="stroke" mask="url(#Clip4848)" />
    <path d="M 3.3864376206154447 4.040325699544257  L 3.3864376206154447 2.8548393476340532  L 9.709365485874663 2.8548393476340532  L 9.709365485874663 4.040325699544257  L 3.3864376206154447 4.040325699544257  Z " stroke-width="0" stroke-dasharray="0" stroke="rgba(121, 121, 121, 1)" fill="none" transform="matrix(1 0 0 1 165 582 )" class="stroke" mask="url(#Clip4848)" />
    <path d="M 3.3864376206154447 6.7016153132842  L 3.3864376206154447 5.540324600841167  L 9.709365485874663 5.540324600841167  L 9.709365485874663 6.7016153132842  L 3.3864376206154447 6.7016153132842  Z " stroke-width="0" stroke-dasharray="0" stroke="rgba(121, 121, 121, 1)" fill="none" transform="matrix(1 0 0 1 165 582 )" class="stroke" mask="url(#Clip4848)" />
    <path d="M 11.769642518469738 2.6612896137399416  L 11.769642518469738 1.1854863519102052  L 19.963398861219964 1.1854863519102052  L 19.963398861219964 2.6612896137399416  L 11.769642518469738 2.6612896137399416  Z " stroke-width="0" stroke-dasharray="0" stroke="rgba(121, 121, 121, 1)" fill="none" transform="matrix(1 0 0 1 165 582 )" class="stroke" mask="url(#Clip4848)" />
    <path d="M 9 10.645158454959766  L 9 0.5322579227479882  L 10.538213736107544 0.5322579227479882  L 10.538213736107544 10.645158454959766  L 9 10.645158454959766  Z " stroke-width="0" stroke-dasharray="0" stroke="rgba(121, 121, 121, 1)" fill="none" transform="matrix(1 0 0 1 165 582 )" class="stroke" mask="url(#Clip4848)" />
    <path d="M 19.347686352065402 1.475803261829736  C 19.347686352065402 1.475803261829736  19.347686352065402 1.1854863519102052  19.347686352065402 1.1854863519102052  L 19.679224146537322 1.1854863519102052  L 19.963398861219964 1.0887114849631494  C 19.963398861219964 1.0887114849631494  21.100105248056657 1.6451573562566746  21.100105248056657 1.6451573562566746  C 20.56332681382232 3.064512137373045  19.81341828458927 4.330646454924607  18.850375896304445 5.443549733894112  C 17.887333508019616 6.540324188827508  16.805882479248304 7.483870969957062  15.606025633030319 8.27419344206099  C 14.421957107417606 9.064516394847523  13.206313822620881 9.69355014590777  11.959094837626877 10.161291811146123  C 11.848581298456303 9.95161469526371  11.69070562050971 9.717744343327137  11.485467803787099 9.459679793971196  C 11.296016425643229 9.201615244615256  11.122353368104628 8.991937648050241  10.964477690158036 8.830647004276152  C 12.116971456586738 8.45967924461965  13.245782742107528 7.919354987123199  14.350913428746946 7.209677596565014  C 15.471831494978368 6.5000006866894315  16.474343743763114 5.661288377698964  17.358448293074645 4.693546437784839  C 18.242553783399448 3.7258044978707137  18.905634077409633 2.6532227983088763  19.347686352065402 1.475803261829736  Z " stroke-width="0" stroke-dasharray="0" stroke="rgba(121, 121, 121, 1)" fill="none" transform="matrix(1 0 0 1 165 582 )" class="stroke" mask="url(#Clip4848)" />
    <path d="M 0.5920347333129903 10.13709617167895  C 0.5920347333129903 10.13709617167895  0.3789027562877437 8.709676497861924  0.3789027562877437 8.709676497861924  C 1.5787591319990963 8.629031416316181  3.0075350995810184 8.52419646349449  4.665231364793461 8.39516394847522  C 6.3229276300059025 8.266131914138551  8.012198654402354 8.129030180275203  9.733045143742771 7.983868841219825  C 9.733045143742771 7.983868841219825  9.733045143742771 9.266130060077085  9.733045143742771 9.266130060077085  C 8.10692434347429 9.427420223168571  6.488696997748497 9.588713751038275  4.878363341818706 9.750004394812363  C 3.2680296858889157 9.895165733867742  1.839253718306994 10.024192961378388  0.5920347333129903 10.13709617167895  Z " stroke-width="0" stroke-dasharray="0" stroke="rgba(121, 121, 121, 1)" fill="none" transform="matrix(1 0 0 1 165 582 )" class="stroke" mask="url(#Clip4848)" />
    <path d="M 14.540365747904087 6.000003296109273  C 13.735199037565849 5.53226163087092  12.953714808135521 5.112905476375686  12.195910236573301 4.7419377167191845  C 12.195910236573301 4.7419377167191845  13.379975939146211 3.6532262317560353  13.379975939146211 3.6532262317560353  C 14.121992190103159 4.0080651673764285  14.88769280399455 4.403228566500103  15.677072134740781 4.83871258366624  C 16.482238845079017 5.274196600832377  17.279511395114618 5.7338704892744605  18.06889072586085 6.21774097854892  C 18.858270056607083 6.685483605152477  19.592391206248124 7.153223347660421  20.271256997823777 7.6209650128987745  C 20.950122789399433 8.088706678137127  21.526372025146955 8.524195982811888  22 8.927421871223208  C 22 8.927421871223208  20.721204373795448 10.209675399158833  20.721204373795448 10.209675399158833  C 20.279152099139683 9.806449510747512  19.726586285313342 9.370967896994388  19.06350787332969 8.903226231756035  C 18.400429461346043 8.419355261798973  17.6820928682572 7.927423244602072  16.908500917102977 7.427422969926299  C 16.13490990696202 6.9274226952505265  15.345532458242321 6.451616137311517  14.540365747904087 6.000003296109273  Z " stroke-width="0" stroke-dasharray="0" stroke="rgba(121, 121, 121, 1)" fill="none" transform="matrix(1 0 0 1 165 582 )" class="stroke" mask="url(#Clip4848)" />
    <path d="M 12.409042213598548 11.03225792274799  C 13.419447681672663 10.59677390558185  14.287763910378924 10.161292772511327  15.013992781743864 9.725808755345192  C 15.013992781743864 9.725808755345192  16.434873883263197 10.475804360532827  16.434873883263197 10.475804360532827  C 15.629707172924961 10.991933459244708  14.698239543824144 11.499999107303738  13.640470995960744 11.999998901296909  C 12.598490768702618 12.499999175972683  11.517043033477744 12.967739399163227  10.396124496739688 13.403222935646761  C 9.275206430508266 13.8387069528129  8.225330631427601 14.209678557930218  7.246500393044133 14.516130060077087  C 7.183349933662842 14.403226849776525  7.080732436821439 14.258066231745048  6.938644138466851 14.080647004276152  C 6.812343690210905 13.887098472088546  6.678148140639052 13.70967924461965  6.536059842284465 13.548389081528164  C 6.409758923521884 13.370969613717968  6.291353576581842 13.225809236027795  6.1808405079179 13.112906025727233  C 7.175458125893374 12.870970781090001  8.209545604368765 12.572583210278587  9.28310153182417 12.217744274658195  C 10.372444838871582 11.846776515001693  11.414424595623073 11.451612635195415  12.409042213598548 11.03225792274799  Z " stroke-width="0" stroke-dasharray="0" stroke="rgba(121, 121, 121, 1)" fill="none" transform="matrix(1 0 0 1 165 582 )" class="stroke" mask="url(#Clip4848)" />
    <path d="M 2.5575893703825656 9.193550832597202  L 2.5575893703825656 0.5322579227479882  L 4.191604330953682 0.5322579227479882  L 4.191604330953682 9.000001098703091  L 2.5575893703825656 9.193550832597202  Z " stroke-width="0" stroke-dasharray="0" stroke="rgba(121, 121, 121, 1)" fill="none" transform="matrix(1 0 0 1 165 582 )" class="stroke" mask="url(#Clip4848)" />
    <path d="M 10.206672177582549 21  L 10.206672177582549 12.91935629183312  L 11.082883507604713 11.999998901296909  L 11.959094837626877 12.290323502138078  L 11.959094837626877 21  L 10.206672177582549 21  Z " stroke-width="0" stroke-dasharray="0" stroke="rgba(121, 121, 121, 1)" fill="none" transform="matrix(1 0 0 1 165 582 )" class="stroke" mask="url(#Clip4848)" />
  </g>
</svg>