<?xml version="1.0" encoding="utf-8"?>
<svg version="1.1" xmlns:xlink="http://www.w3.org/1999/xlink" width="11px" height="16px" xmlns="http://www.w3.org/2000/svg">
  <defs>
    <pattern id="BGPattern" patternUnits="userSpaceOnUse" alignment="0 0" imageRepeat="None" />
    <mask fill="white" id="Clip4813">
      <path d="M 11 0  L 11 2.786517417615151  L 7 2.786517417615151  L 7 16  L 4 16  L 4 2.786517417615151  L 0 2.786517417615151  L 0 0  L 11 0  Z " fill-rule="evenodd" />
    </mask>
  </defs>
  <g transform="matrix(1 0 0 1 -333 -74 )">
    <path d="M 11 0  L 11 2.786517417615151  L 7 2.786517417615151  L 7 16  L 4 16  L 4 2.786517417615151  L 0 2.786517417615151  L 0 0  L 11 0  Z " fill-rule="nonzero" fill="rgba(108, 111, 142, 1)" stroke="none" transform="matrix(1 0 0 1 333 74 )" class="fill" />
    <path d="M 11 0  L 11 2.786517417615151  L 7 2.786517417615151  L 7 16  L 4 16  L 4 2.786517417615151  L 0 2.786517417615151  L 0 0  L 11 0  Z " stroke-width="0" stroke-dasharray="0" stroke="rgba(121, 121, 121, 1)" fill="none" transform="matrix(1 0 0 1 333 74 )" class="stroke" mask="url(#Clip4813)" />
  </g>
</svg>