<?xml version="1.0" encoding="utf-8"?>
<svg version="1.1" xmlns:xlink="http://www.w3.org/1999/xlink" width="10px" height="12px" xmlns="http://www.w3.org/2000/svg">
  <defs>
    <pattern id="BGPattern" patternUnits="userSpaceOnUse" alignment="0 0" imageRepeat="None" />
    <mask fill="white" id="Clip4869">
      <path d="M 10 5.66666763905287  C 10 5.66666763905287  10 6.452381761451326  10 6.452381761451326  C 10 6.452381761451326  1.7821751015442917 6.452381761451326  1.7821751015442917 6.452381761451326  C 1.7821751015442917 9.023810636985235  3.0445548693261486 10.500000827842308  5.371287790921838 10.500000827842308  C 6.782179281738394 10.500000827842308  7.599011339833846 10.095239157729583  8.564358071689247 9.166667599631808  C 8.564358071689247 9.166667599631808  9.777232046607296 10.190476738616676  9.777232046607296 10.190476738616676  C 8.539607880088822 11.380952885917416  7.400986447122216 12  5.321778555545239 12  C 2.103955870133467 12  0 10.142858776015437  0 6.000001419158242  C 0 2.2142865871806645  1.905939829597584 0  5 0  C 8.143564733797371 0  10 2.190477132827298  10 5.66666763905287  Z M 1.7821751015442917 5.166667915000305  C 1.7821751015442917 5.166667915000305  8.217824898455708 5.166667915000305  8.217824898455708 5.166667915000305  C 8.168319843273212 4.2142871390755365  8.118814542196946 3.857143195037677  7.846537107533871 3.2142865083385406  C 7.376240189822122 2.1428575145414444  6.287128484019658 1.4523816826092013  5 1.4523816826092013  C 3.712871147139685 1.4523816826092013  2.623760179018534 2.1428575145414444  2.1534628924661297 3.2142865083385406  C 1.8811858266437111 3.857143195037677  1.831680156726788 4.2142871390755365  1.7821751015442917 5.166667915000305  Z " fill-rule="evenodd" />
    </mask>
  </defs>
  <g transform="matrix(1 0 0 1 -250 -496 )">
    <path d="M 10 5.66666763905287  C 10 5.66666763905287  10 6.452381761451326  10 6.452381761451326  C 10 6.452381761451326  1.7821751015442917 6.452381761451326  1.7821751015442917 6.452381761451326  C 1.7821751015442917 9.023810636985235  3.0445548693261486 10.500000827842308  5.371287790921838 10.500000827842308  C 6.782179281738394 10.500000827842308  7.599011339833846 10.095239157729583  8.564358071689247 9.166667599631808  C 8.564358071689247 9.166667599631808  9.777232046607296 10.190476738616676  9.777232046607296 10.190476738616676  C 8.539607880088822 11.380952885917416  7.400986447122216 12  5.321778555545239 12  C 2.103955870133467 12  0 10.142858776015437  0 6.000001419158242  C 0 2.2142865871806645  1.905939829597584 0  5 0  C 8.143564733797371 0  10 2.190477132827298  10 5.66666763905287  Z M 1.7821751015442917 5.166667915000305  C 1.7821751015442917 5.166667915000305  8.217824898455708 5.166667915000305  8.217824898455708 5.166667915000305  C 8.168319843273212 4.2142871390755365  8.118814542196946 3.857143195037677  7.846537107533871 3.2142865083385406  C 7.376240189822122 2.1428575145414444  6.287128484019658 1.4523816826092013  5 1.4523816826092013  C 3.712871147139685 1.4523816826092013  2.623760179018534 2.1428575145414444  2.1534628924661297 3.2142865083385406  C 1.8811858266437111 3.857143195037677  1.831680156726788 4.2142871390755365  1.7821751015442917 5.166667915000305  Z " fill-rule="nonzero" fill="rgba(0, 0, 0, 1)" stroke="none" transform="matrix(1 0 0 1 250 496 )" class="fill" />
    <path d="M 10 5.66666763905287  C 10 5.66666763905287  10 6.452381761451326  10 6.452381761451326  C 10 6.452381761451326  1.7821751015442917 6.452381761451326  1.7821751015442917 6.452381761451326  C 1.7821751015442917 9.023810636985235  3.0445548693261486 10.500000827842308  5.371287790921838 10.500000827842308  C 6.782179281738394 10.500000827842308  7.599011339833846 10.095239157729583  8.564358071689247 9.166667599631808  C 8.564358071689247 9.166667599631808  9.777232046607296 10.190476738616676  9.777232046607296 10.190476738616676  C 8.539607880088822 11.380952885917416  7.400986447122216 12  5.321778555545239 12  C 2.103955870133467 12  0 10.142858776015437  0 6.000001419158242  C 0 2.2142865871806645  1.905939829597584 0  5 0  C 8.143564733797371 0  10 2.190477132827298  10 5.66666763905287  Z " stroke-width="0" stroke-dasharray="0" stroke="rgba(121, 121, 121, 1)" fill="none" transform="matrix(1 0 0 1 250 496 )" class="stroke" mask="url(#Clip4869)" />
    <path d="M 1.7821751015442917 5.166667915000305  C 1.7821751015442917 5.166667915000305  8.217824898455708 5.166667915000305  8.217824898455708 5.166667915000305  C 8.168319843273212 4.2142871390755365  8.118814542196946 3.857143195037677  7.846537107533871 3.2142865083385406  C 7.376240189822122 2.1428575145414444  6.287128484019658 1.4523816826092013  5 1.4523816826092013  C 3.712871147139685 1.4523816826092013  2.623760179018534 2.1428575145414444  2.1534628924661297 3.2142865083385406  C 1.8811858266437111 3.857143195037677  1.831680156726788 4.2142871390755365  1.7821751015442917 5.166667915000305  Z " stroke-width="0" stroke-dasharray="0" stroke="rgba(121, 121, 121, 1)" fill="none" transform="matrix(1 0 0 1 250 496 )" class="stroke" mask="url(#Clip4869)" />
  </g>
</svg>