<?xml version="1.0" encoding="utf-8"?>
<svg version="1.1" xmlns:xlink="http://www.w3.org/1999/xlink" width="54px" height="53px" xmlns="http://www.w3.org/2000/svg">
  <defs>
    <pattern id="BGPattern" patternUnits="userSpaceOnUse" alignment="0 0" imageRepeat="None" />
    <mask fill="white" id="Clip4771">
      <path d="M 16.554291130978317 21.532258974195077  L 15.745602735378105 15.967738462164252  L 44.66804397683765 12.048383077647205  L 45.47672481142252 17.516128718005337  L 16.554291130978317 21.532258974195077  Z M 36.10547386280275 5.370970768685437  C 35.28093190829014 4.40322782015001  34.45639373428521 3.5161318798288304  33.631849889518776 2.709681024991395  C 33.631849889518776 2.709681024991395  37.913131166028556 0  37.913131166028556 0  C 38.73767312054116 0.7419355555426425  39.59392597338621 1.5806459827579782  40.481895395325225 2.5161312816460075  C 41.369866707518064 3.4516146578035345  42.1944105522845 4.387096111230558  42.95552692962453 5.322579487388085  C 43.71664330696456 6.225805213898213  44.31919952188084 7.06451564111355  44.76318423285034 7.838710769034092  C 44.76318423285034 7.838710769034092  40.148908279788465 10.790325127746215  40.148908279788465 10.790325127746215  C 39.768349145991536 10.048389572203572  39.21336872984311 9.209677222257733  38.483965141089364 8.274193846100207  C 37.75456155233562 7.306450897564781  36.961730496155475 6.33871179449036  36.10547386280275 5.370970768685437  Z M 9.561531460645162 7.2096779486225895  C 10.956912115853164 4.854838760674573  12.13029852532258 2.467738077618152  13.081694469561079 0.04838359037534092  C 13.081694469561079 0.04838359037534092  18.55222138521417 1.8387071799371533  18.55222138521417 1.8387071799371533  C 17.347120296904635 4.709674530435029  15.920026853110347 7.564515940204961  14.270940108704389 10.40322564105544  C 12.653567098011633 13.241935341905918  10.893485593553676 15.903223162869459  8.99069370507668 18.387094872137567  C 7.119615077749428 20.870965620040423  5.185107565305394 23.04838869629301  3.187175893379164 24.919356409973314  C 3.028609823912171 24.43548589707085  2.7590495850975016 23.82257709465679  2.378491278286621 23.08064153911415  C 1.9979328533348761 22.338705983571504  1.585660340247334 21.596778118950876  1.1416755111369645 20.854842563408234  C 0.7294040022467722 20.11290700786559  0.34884519333721686 19.49999916681678  0 19.01612769254907  C 1.7442259371508682 17.532256581463784  3.425026533410894 15.774189680184119  5.042399544103649 13.741931795536328  C 6.659772791078133 11.709672949523283  8.166150805437159 9.532257564192708  9.561531460645162 7.2096779486225895  Z M 9 45  L 9 13.935481538881714  L 13.985519340666313 7.983869231082126  L 14 8.08064410275482  L 14 45  L 9 45  Z M 25.449840799534634 15.048388717656682  C 25.100996344577823 10.532260085106035  24.83143291595981 5.645157906592555  24.641152403934424 0.3870917957687624  C 24.641152403934424 0.3870917957687624  30.44467021563194 0.3870917957687624  30.44467021563194 0.3870917957687624  C 30.50809579280451 5.548383034919862  30.73009287392385 10.370967991408044  31.11065200772078 14.854838974311296  C 31.522923930104003 19.30645230756715  32.093757905164814 23.225808653449445  32.82316149391856 26.61290512786243  C 33.5525650826723 30.000002563640667  34.45639184403137 32.69354899561686  35.53463988774193 34.69354923061725  C 36.6128879314525 36.661291094946314  37.86555914776837 37.741939782879285  39.292653536689585 37.93548820434746  C 39.83177850367178 37.967746214506825  40.25990398496739 37.35483777260473  40.577035651337916 36.096773333488294  C 40.89416731770844 34.83870865403054  41.147871516652565 32.870971836869046  41.338150138424105 30.19355230698606  C 41.68699648363476 30.580648909581075  42.16269587344438 30.99999691294936  42.76524641759915 31.45161025688705  C 43.36779696175392 31.903223120142112  43.970353176670194 32.322579295115034  44.57290372082496 32.709675897710056  C 45.17545426497973 33.06451485065767  45.65115365478935 33.338710160169434  46 33.532258461466945  C 45.58772807761678 36.661290854605  45.03274010045302 39.06451699770674  44.33504930028556 40.74193641008953  C 43.66907128870439 42.419355822472326  42.92381414103825 43.54838870163393  42.099272186525646 44.12903384586777  C 41.27472834175921 44.741937120431636  40.41846981815265 45.01612473902138  39.53050039621364 44.951608718702644  C 37.27886405277983 44.72580228707512  35.34436315622422 43.88709822890457  33.72699014553147 42.43548512797865  C 32.10961713483871 40.98387214722339  30.745944542582407 38.96774332774061  29.635981820031724 36.38709794850637  C 28.557733776321168 33.80645280961345  27.66976813488983 30.72580881367699  26.972077334722368 27.145163076601243  C 26.306099323141193 23.564517820208117  25.79868525449145 19.532259700559933  25.449840799534634 15.048388717656682  Z " fill-rule="evenodd" />
    </mask>
  </defs>
  <g transform="matrix(1 0 0 1 -184 -377 )">
    <path d="M 16.554291130978317 21.532258974195077  L 15.745602735378105 15.967738462164252  L 44.66804397683765 12.048383077647205  L 45.47672481142252 17.516128718005337  L 16.554291130978317 21.532258974195077  Z M 36.10547386280275 5.370970768685437  C 35.28093190829014 4.40322782015001  34.45639373428521 3.5161318798288304  33.631849889518776 2.709681024991395  C 33.631849889518776 2.709681024991395  37.913131166028556 0  37.913131166028556 0  C 38.73767312054116 0.7419355555426425  39.59392597338621 1.5806459827579782  40.481895395325225 2.5161312816460075  C 41.369866707518064 3.4516146578035345  42.1944105522845 4.387096111230558  42.95552692962453 5.322579487388085  C 43.71664330696456 6.225805213898213  44.31919952188084 7.06451564111355  44.76318423285034 7.838710769034092  C 44.76318423285034 7.838710769034092  40.148908279788465 10.790325127746215  40.148908279788465 10.790325127746215  C 39.768349145991536 10.048389572203572  39.21336872984311 9.209677222257733  38.483965141089364 8.274193846100207  C 37.75456155233562 7.306450897564781  36.961730496155475 6.33871179449036  36.10547386280275 5.370970768685437  Z M 9.561531460645162 7.2096779486225895  C 10.956912115853164 4.854838760674573  12.13029852532258 2.467738077618152  13.081694469561079 0.04838359037534092  C 13.081694469561079 0.04838359037534092  18.55222138521417 1.8387071799371533  18.55222138521417 1.8387071799371533  C 17.347120296904635 4.709674530435029  15.920026853110347 7.564515940204961  14.270940108704389 10.40322564105544  C 12.653567098011633 13.241935341905918  10.893485593553676 15.903223162869459  8.99069370507668 18.387094872137567  C 7.119615077749428 20.870965620040423  5.185107565305394 23.04838869629301  3.187175893379164 24.919356409973314  C 3.028609823912171 24.43548589707085  2.7590495850975016 23.82257709465679  2.378491278286621 23.08064153911415  C 1.9979328533348761 22.338705983571504  1.585660340247334 21.596778118950876  1.1416755111369645 20.854842563408234  C 0.7294040022467722 20.11290700786559  0.34884519333721686 19.49999916681678  0 19.01612769254907  C 1.7442259371508682 17.532256581463784  3.425026533410894 15.774189680184119  5.042399544103649 13.741931795536328  C 6.659772791078133 11.709672949523283  8.166150805437159 9.532257564192708  9.561531460645162 7.2096779486225895  Z M 9 45  L 9 13.935481538881714  L 13.985519340666313 7.983869231082126  L 14 8.08064410275482  L 14 45  L 9 45  Z M 25.449840799534634 15.048388717656682  C 25.100996344577823 10.532260085106035  24.83143291595981 5.645157906592555  24.641152403934424 0.3870917957687624  C 24.641152403934424 0.3870917957687624  30.44467021563194 0.3870917957687624  30.44467021563194 0.3870917957687624  C 30.50809579280451 5.548383034919862  30.73009287392385 10.370967991408044  31.11065200772078 14.854838974311296  C 31.522923930104003 19.30645230756715  32.093757905164814 23.225808653449445  32.82316149391856 26.61290512786243  C 33.5525650826723 30.000002563640667  34.45639184403137 32.69354899561686  35.53463988774193 34.69354923061725  C 36.6128879314525 36.661291094946314  37.86555914776837 37.741939782879285  39.292653536689585 37.93548820434746  C 39.83177850367178 37.967746214506825  40.25990398496739 37.35483777260473  40.577035651337916 36.096773333488294  C 40.89416731770844 34.83870865403054  41.147871516652565 32.870971836869046  41.338150138424105 30.19355230698606  C 41.68699648363476 30.580648909581075  42.16269587344438 30.99999691294936  42.76524641759915 31.45161025688705  C 43.36779696175392 31.903223120142112  43.970353176670194 32.322579295115034  44.57290372082496 32.709675897710056  C 45.17545426497973 33.06451485065767  45.65115365478935 33.338710160169434  46 33.532258461466945  C 45.58772807761678 36.661290854605  45.03274010045302 39.06451699770674  44.33504930028556 40.74193641008953  C 43.66907128870439 42.419355822472326  42.92381414103825 43.54838870163393  42.099272186525646 44.12903384586777  C 41.27472834175921 44.741937120431636  40.41846981815265 45.01612473902138  39.53050039621364 44.951608718702644  C 37.27886405277983 44.72580228707512  35.34436315622422 43.88709822890457  33.72699014553147 42.43548512797865  C 32.10961713483871 40.98387214722339  30.745944542582407 38.96774332774061  29.635981820031724 36.38709794850637  C 28.557733776321168 33.80645280961345  27.66976813488983 30.72580881367699  26.972077334722368 27.145163076601243  C 26.306099323141193 23.564517820208117  25.79868525449145 19.532259700559933  25.449840799534634 15.048388717656682  Z " fill-rule="nonzero" fill="rgba(61, 63, 148, 1)" stroke="none" transform="matrix(1 0 0 1 188 377 )" class="fill" />
    <path d="M 16.554291130978317 21.532258974195077  L 15.745602735378105 15.967738462164252  L 44.66804397683765 12.048383077647205  L 45.47672481142252 17.516128718005337  L 16.554291130978317 21.532258974195077  Z " stroke-width="0" stroke-dasharray="0" stroke="rgba(121, 121, 121, 1)" fill="none" transform="matrix(1 0 0 1 188 377 )" class="stroke" mask="url(#Clip4771)" />
    <path d="M 36.10547386280275 5.370970768685437  C 35.28093190829014 4.40322782015001  34.45639373428521 3.5161318798288304  33.631849889518776 2.709681024991395  C 33.631849889518776 2.709681024991395  37.913131166028556 0  37.913131166028556 0  C 38.73767312054116 0.7419355555426425  39.59392597338621 1.5806459827579782  40.481895395325225 2.5161312816460075  C 41.369866707518064 3.4516146578035345  42.1944105522845 4.387096111230558  42.95552692962453 5.322579487388085  C 43.71664330696456 6.225805213898213  44.31919952188084 7.06451564111355  44.76318423285034 7.838710769034092  C 44.76318423285034 7.838710769034092  40.148908279788465 10.790325127746215  40.148908279788465 10.790325127746215  C 39.768349145991536 10.048389572203572  39.21336872984311 9.209677222257733  38.483965141089364 8.274193846100207  C 37.75456155233562 7.306450897564781  36.961730496155475 6.33871179449036  36.10547386280275 5.370970768685437  Z " stroke-width="0" stroke-dasharray="0" stroke="rgba(121, 121, 121, 1)" fill="none" transform="matrix(1 0 0 1 188 377 )" class="stroke" mask="url(#Clip4771)" />
    <path d="M 9.561531460645162 7.2096779486225895  C 10.956912115853164 4.854838760674573  12.13029852532258 2.467738077618152  13.081694469561079 0.04838359037534092  C 13.081694469561079 0.04838359037534092  18.55222138521417 1.8387071799371533  18.55222138521417 1.8387071799371533  C 17.347120296904635 4.709674530435029  15.920026853110347 7.564515940204961  14.270940108704389 10.40322564105544  C 12.653567098011633 13.241935341905918  10.893485593553676 15.903223162869459  8.99069370507668 18.387094872137567  C 7.119615077749428 20.870965620040423  5.185107565305394 23.04838869629301  3.187175893379164 24.919356409973314  C 3.028609823912171 24.43548589707085  2.7590495850975016 23.82257709465679  2.378491278286621 23.08064153911415  C 1.9979328533348761 22.338705983571504  1.585660340247334 21.596778118950876  1.1416755111369645 20.854842563408234  C 0.7294040022467722 20.11290700786559  0.34884519333721686 19.49999916681678  0 19.01612769254907  C 1.7442259371508682 17.532256581463784  3.425026533410894 15.774189680184119  5.042399544103649 13.741931795536328  C 6.659772791078133 11.709672949523283  8.166150805437159 9.532257564192708  9.561531460645162 7.2096779486225895  Z " stroke-width="0" stroke-dasharray="0" stroke="rgba(121, 121, 121, 1)" fill="none" transform="matrix(1 0 0 1 188 377 )" class="stroke" mask="url(#Clip4771)" />
    <path d="M 9 45  L 9 13.935481538881714  L 13.985519340666313 7.983869231082126  L 14 8.08064410275482  L 14 45  L 9 45  Z " stroke-width="0" stroke-dasharray="0" stroke="rgba(121, 121, 121, 1)" fill="none" transform="matrix(1 0 0 1 188 377 )" class="stroke" mask="url(#Clip4771)" />
    <path d="M 25.449840799534634 15.048388717656682  C 25.100996344577823 10.532260085106035  24.83143291595981 5.645157906592555  24.641152403934424 0.3870917957687624  C 24.641152403934424 0.3870917957687624  30.44467021563194 0.3870917957687624  30.44467021563194 0.3870917957687624  C 30.50809579280451 5.548383034919862  30.73009287392385 10.370967991408044  31.11065200772078 14.854838974311296  C 31.522923930104003 19.30645230756715  32.093757905164814 23.225808653449445  32.82316149391856 26.61290512786243  C 33.5525650826723 30.000002563640667  34.45639184403137 32.69354899561686  35.53463988774193 34.69354923061725  C 36.6128879314525 36.661291094946314  37.86555914776837 37.741939782879285  39.292653536689585 37.93548820434746  C 39.83177850367178 37.967746214506825  40.25990398496739 37.35483777260473  40.577035651337916 36.096773333488294  C 40.89416731770844 34.83870865403054  41.147871516652565 32.870971836869046  41.338150138424105 30.19355230698606  C 41.68699648363476 30.580648909581075  42.16269587344438 30.99999691294936  42.76524641759915 31.45161025688705  C 43.36779696175392 31.903223120142112  43.970353176670194 32.322579295115034  44.57290372082496 32.709675897710056  C 45.17545426497973 33.06451485065767  45.65115365478935 33.338710160169434  46 33.532258461466945  C 45.58772807761678 36.661290854605  45.03274010045302 39.06451699770674  44.33504930028556 40.74193641008953  C 43.66907128870439 42.419355822472326  42.92381414103825 43.54838870163393  42.099272186525646 44.12903384586777  C 41.27472834175921 44.741937120431636  40.41846981815265 45.01612473902138  39.53050039621364 44.951608718702644  C 37.27886405277983 44.72580228707512  35.34436315622422 43.88709822890457  33.72699014553147 42.43548512797865  C 32.10961713483871 40.98387214722339  30.745944542582407 38.96774332774061  29.635981820031724 36.38709794850637  C 28.557733776321168 33.80645280961345  27.66976813488983 30.72580881367699  26.972077334722368 27.145163076601243  C 26.306099323141193 23.564517820208117  25.79868525449145 19.532259700559933  25.449840799534634 15.048388717656682  Z " stroke-width="0" stroke-dasharray="0" stroke="rgba(121, 121, 121, 1)" fill="none" transform="matrix(1 0 0 1 188 377 )" class="stroke" mask="url(#Clip4771)" />
  </g>
  <style>svg { filter: drop-shadow(0px 4px 2px rgba(0, 0, 0, 0.12941176470588237)); }</style>
</svg>