<?xml version="1.0" encoding="utf-8"?>
<svg version="1.1" xmlns:xlink="http://www.w3.org/1999/xlink" width="9px" height="17px" xmlns="http://www.w3.org/2000/svg">
  <defs>
    <pattern id="BGPattern" patternUnits="userSpaceOnUse" alignment="0 0" imageRepeat="None" />
    <mask fill="white" id="Clip4860">
      <path d="M 7.618930079294037 1.018103653427461  C 8.769825414702202 2.2019473481188285  9 4.143454577880642  9 5.966574686231603  C 9 7.789694441769522  8.769825414702202 9.73119779058789  7.618930079294037 10.915041955696644  C 7.020463764015483 11.530640909792762  6.007670938894078 11.933149372463205  4.8567756034859135 11.933149372463205  C 3.6138077357418297 11.933149372463205  2.5780035802440526 11.625350689244488  1.6572868317263951 10.417829593791819  C 1.6572868317263951 10.417829593791819  1.6572868317263951 17  1.6572868317263951 17  L 0 17  L 0 0.14206228768956436  L 1.6572868317263951 0.14206228768956436  C 1.6572868317263951 0.14206228768956436  1.6572868317263951 1.5153197786713863  1.6572868317263951 1.5153197786713863  C 2.5780035802440526 0.2841215176661099  3.6138077357418297 0  4.8567756034859135 0  C 6.007670938894078 0  7.020463764015483 0.40250417011178224  7.618930079294037 1.018103653427461  Z M 4.511506294009898 10.417829593791819  C 6.974423038929933 10.417829593791819  7.342713168273605 8.239555295073457  7.342713168273605 5.966574686231603  C 7.342713168273605 3.693594077389748  6.974423038929933 1.5153197786713863  4.511506294009898 1.5153197786713863  C 2.048589091764981 1.5153197786713863  1.6572868317263951 3.693594077389748  1.6572868317263951 5.966574686231603  C 1.6572868317263951 8.239555295073457  2.048589091764981 10.417829593791819  4.511506294009898 10.417829593791819  Z " fill-rule="evenodd" />
    </mask>
  </defs>
  <g transform="matrix(1 0 0 1 -210 -527 )">
    <path d="M 7.618930079294037 1.018103653427461  C 8.769825414702202 2.2019473481188285  9 4.143454577880642  9 5.966574686231603  C 9 7.789694441769522  8.769825414702202 9.73119779058789  7.618930079294037 10.915041955696644  C 7.020463764015483 11.530640909792762  6.007670938894078 11.933149372463205  4.8567756034859135 11.933149372463205  C 3.6138077357418297 11.933149372463205  2.5780035802440526 11.625350689244488  1.6572868317263951 10.417829593791819  C 1.6572868317263951 10.417829593791819  1.6572868317263951 17  1.6572868317263951 17  L 0 17  L 0 0.14206228768956436  L 1.6572868317263951 0.14206228768956436  C 1.6572868317263951 0.14206228768956436  1.6572868317263951 1.5153197786713863  1.6572868317263951 1.5153197786713863  C 2.5780035802440526 0.2841215176661099  3.6138077357418297 0  4.8567756034859135 0  C 6.007670938894078 0  7.020463764015483 0.40250417011178224  7.618930079294037 1.018103653427461  Z M 4.511506294009898 10.417829593791819  C 6.974423038929933 10.417829593791819  7.342713168273605 8.239555295073457  7.342713168273605 5.966574686231603  C 7.342713168273605 3.693594077389748  6.974423038929933 1.5153197786713863  4.511506294009898 1.5153197786713863  C 2.048589091764981 1.5153197786713863  1.6572868317263951 3.693594077389748  1.6572868317263951 5.966574686231603  C 1.6572868317263951 8.239555295073457  2.048589091764981 10.417829593791819  4.511506294009898 10.417829593791819  Z " fill-rule="nonzero" fill="rgba(0, 0, 0, 1)" stroke="none" transform="matrix(1 0 0 1 210 527 )" class="fill" />
    <path d="M 7.618930079294037 1.018103653427461  C 8.769825414702202 2.2019473481188285  9 4.143454577880642  9 5.966574686231603  C 9 7.789694441769522  8.769825414702202 9.73119779058789  7.618930079294037 10.915041955696644  C 7.020463764015483 11.530640909792762  6.007670938894078 11.933149372463205  4.8567756034859135 11.933149372463205  C 3.6138077357418297 11.933149372463205  2.5780035802440526 11.625350689244488  1.6572868317263951 10.417829593791819  C 1.6572868317263951 10.417829593791819  1.6572868317263951 17  1.6572868317263951 17  L 0 17  L 0 0.14206228768956436  L 1.6572868317263951 0.14206228768956436  C 1.6572868317263951 0.14206228768956436  1.6572868317263951 1.5153197786713863  1.6572868317263951 1.5153197786713863  C 2.5780035802440526 0.2841215176661099  3.6138077357418297 0  4.8567756034859135 0  C 6.007670938894078 0  7.020463764015483 0.40250417011178224  7.618930079294037 1.018103653427461  Z " stroke-width="0" stroke-dasharray="0" stroke="rgba(121, 121, 121, 1)" fill="none" transform="matrix(1 0 0 1 210 527 )" class="stroke" mask="url(#Clip4860)" />
    <path d="M 4.511506294009898 10.417829593791819  C 6.974423038929933 10.417829593791819  7.342713168273605 8.239555295073457  7.342713168273605 5.966574686231603  C 7.342713168273605 3.693594077389748  6.974423038929933 1.5153197786713863  4.511506294009898 1.5153197786713863  C 2.048589091764981 1.5153197786713863  1.6572868317263951 3.693594077389748  1.6572868317263951 5.966574686231603  C 1.6572868317263951 8.239555295073457  2.048589091764981 10.417829593791819  4.511506294009898 10.417829593791819  Z " stroke-width="0" stroke-dasharray="0" stroke="rgba(121, 121, 121, 1)" fill="none" transform="matrix(1 0 0 1 210 527 )" class="stroke" mask="url(#Clip4860)" />
  </g>
</svg>