<?xml version="1.0" encoding="utf-8"?>
<svg version="1.1" xmlns:xlink="http://www.w3.org/1999/xlink" width="22px" height="21px" xmlns="http://www.w3.org/2000/svg">
  <defs>
    <pattern id="BGPattern" patternUnits="userSpaceOnUse" alignment="0 0" imageRepeat="None" />
    <mask fill="white" id="Clip4827">
      <path d="M 0.024189148735567226 5  L 0.024189148735567226 3.212598585686946  L 11.738199886412279 3.212598585686946  L 11.738199886412279 5  L 0.024189148735567226 5  Z M 1.9603673975262497 9.992127090788943  L 1.9603673975262497 8.598425847257623  L 9.995596377502917 8.598425847257623  L 9.995596377502917 9.992127090788943  L 1.9603673975262497 9.992127090788943  Z M 13.698567283938528 2.433071153334535  L 13.698567283938528 0.968505144907014  L 20.184829044883937 0.968505144907014  L 20.184829044883937 2.433071153334535  L 13.698567283938528 2.433071153334535  Z M 13.698567283938528 5.787399268813883  L 13.698567283938528 4.417322116663663  L 20.112200048680453 4.417322116663663  L 20.112200048680453 5.787399268813883  L 13.698567283938528 5.787399268813883  Z M 13.625999837731825 9.259840331951633  L 13.625999837731825 7.866139088420312  L 20.063821751209318 7.866139088420312  L 20.063821751209318 9.259840331951633  L 13.625999837731825 9.259840331951633  Z M 2.517025568428209 1.8897621070518267  C 2.2911361185173162 1.3858249819778068  2.0410870927208737 0.9212579008007004  1.7667926576449293 0.49606086352050666  C 1.7667926576449293 0.49606086352050666  3.17050188426922 0.07086476489620075  3.17050188426922 0.07086476489620075  C 3.444796319345164 0.4645652038653313  3.7110152024994894 0.9133807005912995  3.9691746425204166 1.4173178256653194  C 4.2273340825413435 1.9055071209117513  4.40483393478638 2.32283258991787  4.501643664686808 2.6692895394042377  C 4.501643664686808 2.6692895394042377  3.0253054418590337 3.188974494305845  3.0253054418590337 3.188974494305845  C 2.928495711958605 2.82676971499189  2.7590500133941185 2.3936992321258463  2.517025568428209 1.8897621070518267  Z M 0.9438692006613827 11.07873767410726  L 0.9438692006613827 5.62204564764038  L 2.492836419692642 5.62204564764038  L 2.492836419692642 11.07873767410726  L 0.9438692006613827 11.07873767410726  Z M 9.317930912926338 10.771654523141354  L 9.317930912926338 5.62204564764038  L 10.84270898322203 5.62204564764038  L 10.84270898322203 10.771654523141354  L 9.317930912926338 10.771654523141354  Z M 19.26514899295812 12.000002145499172  C 19.26514899295812 12.000002145499172  19.26514899295812 0.968505144907014  19.26514899295812 0.968505144907014  L 21.0076909518707 0.968505144907014  C 21.0076909518707 0.968505144907014  21.0076909518707 12.047242819014272  21.0076909518707 12.047242819014272  C 21.0076909518707 12.47243938696652  20.943196172429516 12.818895867124946  20.81411621198938 13.086612728817485  C 20.70117196789328 13.338581291354497  20.483338835530013 13.53543010285523  20.160639896148368 13.677162448615295  C 19.854074749673366 13.818894794375359  19.442634178992986 13.905509031746952  18.926316260669832 13.9370049260661  C 18.409997380627978 13.95275299055766  17.756500868694275 13.960629017447198  16.965887313146798 13.960629017447198  C 16.933617803896116 13.724408284737777  16.861007080347925 13.456690015061405  16.74806187453313 13.157477493713687  C 16.651252385062374 12.858264972365971  16.546425046791988 12.598422494915168  16.43347984097719 12.377950061361277  C 16.98206919198843 12.393697891188863  17.482228312718746 12.401574152742377  17.934007212540532 12.401574152742377  C 18.40192086698766 12.401574152742377  18.71652694351109 12.401574152742377  18.877876413201914 12.401574152742377  C 19.039225882892737 12.401574152742377  19.14411477115991 12.377953346656884  19.192519996754637 12.330709387846177  C 19.240925222349365 12.267717129879939  19.26514899295812 12.157482321086825  19.26514899295812 12.000002145499172  Z M 5.082490984324335 8.905508998223526  C 5.082490984324335 8.905508998223526  5.082490984324335 3.8740130703809545  5.082490984324335 3.8740130703809545  L 6.728276348294646 3.8740130703809545  C 6.728276348294646 3.8740130703809545  6.728276348294646 8.952757180985728  6.728276348294646 8.952757180985728  C 6.728276348294646 9.708662868596758  6.607278671807023 10.456693233310162  6.3652544672707885 11.19685062176566  C 6.139365017359897 11.92126018039357  5.687591887850311 12.598428596178438  5.009923538117634 13.228349767856988  C 4.332254947955281 13.858271408863486  3.323820041098611 14.39370043896913  1.9846180962585995 14.834645306076911  C 1.9362131110935477 14.708661024808407  1.8393782562920884 14.566929617704231  1.6941636614414448 14.409449207452607  C 1.5650839414309816 14.251969031864954  1.4279165278003152 14.094485336317723  1.2827019329496716 13.9370049260661  C 1.1536222129392082 13.779524515814474  1.0245706232007117 13.66142118937892  0.8954909031902482 13.582681101585095  C 2.1378831181298312 13.188980193288021  3.049483290399879 12.748033448868464  3.6303419102321275 12.259844622949975  C 4.227335525119393 11.771655327703542  4.6146133943284475 11.244094580576368  4.792098099503963 10.677165666864052  C 4.98571755930482 10.110236283823795  5.082490984324335 9.51968234007449  5.082490984324335 8.905508998223526  Z M 12.924083674422898 6.070865837645787  C 12.924083674422898 6.070865837645787  12.924083674422898 0.968505144907014  12.924083674422898 0.968505144907014  L 14.569869038393211 0.968505144907014  C 14.569869038393211 0.968505144907014  14.569869038393211 6.094489929026888  14.569869038393211 6.094489929026888  C 14.569869038393211 6.929136173759686  14.497257353126319 7.811021684023755  14.35204359977954 8.740155377050025  C 14.206828884714058 9.653541240248707  13.916385990521302 10.551178804291858  13.480741845324859 11.433069007835364  C 13.061232454753759 12.299210442895394  12.415851886927062 13.05511706916231  11.544563596534175 13.700786539996395  C 11.463888861688766 13.60629862237498  11.334836791090918 13.503940075135382  11.157352566774751 13.393703389030494  C 10.979867861599237 13.26771934242596  10.802368249783875 13.149608272079332  10.624883544608359 13.039372055302387  C 10.447399320292194 12.929135838525442  10.286007534978584 12.85039011879629  10.140792819913102 12.803146159985582  C 10.979810639336604 12.173224518979085  11.592975554159802 11.480311558662239  11.980214473761515 10.724406340379153  C 12.367453393363233 9.952752353612592  12.617563728726783 9.165357107609656  12.730508934541577 8.36220746118792  C 12.859588894981716 7.5590578147661835  12.924083674422898 6.795275396273698  12.924083674422898 6.070865837645787  Z M 7.889970987569698 1.39370124353132  C 8.164265663075318 0.858268458802125  8.39015222783011 0.3937013776250182  8.567636452146276 0  C 8.567636452146276 0  10.165043518645453 0.4015720072432052  10.165043518645453 0.4015720072432052  C 9.890749323999184 0.9212569621448126  9.616414737167524 1.4173206416329824  9.342120061661905 1.8897621070518267  C 9.067825867015637 2.3622026338147832  8.801606743431636 2.77952904147679  8.54344730341071 3.141733820790745  C 8.54344730341071 3.141733820790745  7.115487378054068 2.716530212919338  7.115487378054068 2.716530212919338  C 7.373646818074996 2.354325433605383  7.631811547548772 1.9133861984329275  7.889970987569698 1.39370124353132  Z M 0 21  L 0 19  L 22 19  L 22 21  L 0 21  Z M 2.517025568428209 16.795279687272043  L 2.517025568428209 15  L 19.458785282836224 15  L 19.458785282836224 16.795279687272043  L 2.517025568428209 16.795279687272043  Z M 9.995596377502917 20.29133733254379  L 9.995596377502917 13.653545866481295  L 11.859207180086898 13.653545866481295  L 11.859207180086898 20.29133733254379  L 9.995596377502917 20.29133733254379  Z " fill-rule="evenodd" />
    </mask>
  </defs>
  <g transform="matrix(1 0 0 1 -747 -581 )">
    <path d="M 0.024189148735567226 5  L 0.024189148735567226 3.212598585686946  L 11.738199886412279 3.212598585686946  L 11.738199886412279 5  L 0.024189148735567226 5  Z M 1.9603673975262497 9.992127090788943  L 1.9603673975262497 8.598425847257623  L 9.995596377502917 8.598425847257623  L 9.995596377502917 9.992127090788943  L 1.9603673975262497 9.992127090788943  Z M 13.698567283938528 2.433071153334535  L 13.698567283938528 0.968505144907014  L 20.184829044883937 0.968505144907014  L 20.184829044883937 2.433071153334535  L 13.698567283938528 2.433071153334535  Z M 13.698567283938528 5.787399268813883  L 13.698567283938528 4.417322116663663  L 20.112200048680453 4.417322116663663  L 20.112200048680453 5.787399268813883  L 13.698567283938528 5.787399268813883  Z M 13.625999837731825 9.259840331951633  L 13.625999837731825 7.866139088420312  L 20.063821751209318 7.866139088420312  L 20.063821751209318 9.259840331951633  L 13.625999837731825 9.259840331951633  Z M 2.517025568428209 1.8897621070518267  C 2.2911361185173162 1.3858249819778068  2.0410870927208737 0.9212579008007004  1.7667926576449293 0.49606086352050666  C 1.7667926576449293 0.49606086352050666  3.17050188426922 0.07086476489620075  3.17050188426922 0.07086476489620075  C 3.444796319345164 0.4645652038653313  3.7110152024994894 0.9133807005912995  3.9691746425204166 1.4173178256653194  C 4.2273340825413435 1.9055071209117513  4.40483393478638 2.32283258991787  4.501643664686808 2.6692895394042377  C 4.501643664686808 2.6692895394042377  3.0253054418590337 3.188974494305845  3.0253054418590337 3.188974494305845  C 2.928495711958605 2.82676971499189  2.7590500133941185 2.3936992321258463  2.517025568428209 1.8897621070518267  Z M 0.9438692006613827 11.07873767410726  L 0.9438692006613827 5.62204564764038  L 2.492836419692642 5.62204564764038  L 2.492836419692642 11.07873767410726  L 0.9438692006613827 11.07873767410726  Z M 9.317930912926338 10.771654523141354  L 9.317930912926338 5.62204564764038  L 10.84270898322203 5.62204564764038  L 10.84270898322203 10.771654523141354  L 9.317930912926338 10.771654523141354  Z M 19.26514899295812 12.000002145499172  C 19.26514899295812 12.000002145499172  19.26514899295812 0.968505144907014  19.26514899295812 0.968505144907014  L 21.0076909518707 0.968505144907014  C 21.0076909518707 0.968505144907014  21.0076909518707 12.047242819014272  21.0076909518707 12.047242819014272  C 21.0076909518707 12.47243938696652  20.943196172429516 12.818895867124946  20.81411621198938 13.086612728817485  C 20.70117196789328 13.338581291354497  20.483338835530013 13.53543010285523  20.160639896148368 13.677162448615295  C 19.854074749673366 13.818894794375359  19.442634178992986 13.905509031746952  18.926316260669832 13.9370049260661  C 18.409997380627978 13.95275299055766  17.756500868694275 13.960629017447198  16.965887313146798 13.960629017447198  C 16.933617803896116 13.724408284737777  16.861007080347925 13.456690015061405  16.74806187453313 13.157477493713687  C 16.651252385062374 12.858264972365971  16.546425046791988 12.598422494915168  16.43347984097719 12.377950061361277  C 16.98206919198843 12.393697891188863  17.482228312718746 12.401574152742377  17.934007212540532 12.401574152742377  C 18.40192086698766 12.401574152742377  18.71652694351109 12.401574152742377  18.877876413201914 12.401574152742377  C 19.039225882892737 12.401574152742377  19.14411477115991 12.377953346656884  19.192519996754637 12.330709387846177  C 19.240925222349365 12.267717129879939  19.26514899295812 12.157482321086825  19.26514899295812 12.000002145499172  Z M 5.082490984324335 8.905508998223526  C 5.082490984324335 8.905508998223526  5.082490984324335 3.8740130703809545  5.082490984324335 3.8740130703809545  L 6.728276348294646 3.8740130703809545  C 6.728276348294646 3.8740130703809545  6.728276348294646 8.952757180985728  6.728276348294646 8.952757180985728  C 6.728276348294646 9.708662868596758  6.607278671807023 10.456693233310162  6.3652544672707885 11.19685062176566  C 6.139365017359897 11.92126018039357  5.687591887850311 12.598428596178438  5.009923538117634 13.228349767856988  C 4.332254947955281 13.858271408863486  3.323820041098611 14.39370043896913  1.9846180962585995 14.834645306076911  C 1.9362131110935477 14.708661024808407  1.8393782562920884 14.566929617704231  1.6941636614414448 14.409449207452607  C 1.5650839414309816 14.251969031864954  1.4279165278003152 14.094485336317723  1.2827019329496716 13.9370049260661  C 1.1536222129392082 13.779524515814474  1.0245706232007117 13.66142118937892  0.8954909031902482 13.582681101585095  C 2.1378831181298312 13.188980193288021  3.049483290399879 12.748033448868464  3.6303419102321275 12.259844622949975  C 4.227335525119393 11.771655327703542  4.6146133943284475 11.244094580576368  4.792098099503963 10.677165666864052  C 4.98571755930482 10.110236283823795  5.082490984324335 9.51968234007449  5.082490984324335 8.905508998223526  Z M 12.924083674422898 6.070865837645787  C 12.924083674422898 6.070865837645787  12.924083674422898 0.968505144907014  12.924083674422898 0.968505144907014  L 14.569869038393211 0.968505144907014  C 14.569869038393211 0.968505144907014  14.569869038393211 6.094489929026888  14.569869038393211 6.094489929026888  C 14.569869038393211 6.929136173759686  14.497257353126319 7.811021684023755  14.35204359977954 8.740155377050025  C 14.206828884714058 9.653541240248707  13.916385990521302 10.551178804291858  13.480741845324859 11.433069007835364  C 13.061232454753759 12.299210442895394  12.415851886927062 13.05511706916231  11.544563596534175 13.700786539996395  C 11.463888861688766 13.60629862237498  11.334836791090918 13.503940075135382  11.157352566774751 13.393703389030494  C 10.979867861599237 13.26771934242596  10.802368249783875 13.149608272079332  10.624883544608359 13.039372055302387  C 10.447399320292194 12.929135838525442  10.286007534978584 12.85039011879629  10.140792819913102 12.803146159985582  C 10.979810639336604 12.173224518979085  11.592975554159802 11.480311558662239  11.980214473761515 10.724406340379153  C 12.367453393363233 9.952752353612592  12.617563728726783 9.165357107609656  12.730508934541577 8.36220746118792  C 12.859588894981716 7.5590578147661835  12.924083674422898 6.795275396273698  12.924083674422898 6.070865837645787  Z M 7.889970987569698 1.39370124353132  C 8.164265663075318 0.858268458802125  8.39015222783011 0.3937013776250182  8.567636452146276 0  C 8.567636452146276 0  10.165043518645453 0.4015720072432052  10.165043518645453 0.4015720072432052  C 9.890749323999184 0.9212569621448126  9.616414737167524 1.4173206416329824  9.342120061661905 1.8897621070518267  C 9.067825867015637 2.3622026338147832  8.801606743431636 2.77952904147679  8.54344730341071 3.141733820790745  C 8.54344730341071 3.141733820790745  7.115487378054068 2.716530212919338  7.115487378054068 2.716530212919338  C 7.373646818074996 2.354325433605383  7.631811547548772 1.9133861984329275  7.889970987569698 1.39370124353132  Z M 0 21  L 0 19  L 22 19  L 22 21  L 0 21  Z M 2.517025568428209 16.795279687272043  L 2.517025568428209 15  L 19.458785282836224 15  L 19.458785282836224 16.795279687272043  L 2.517025568428209 16.795279687272043  Z M 9.995596377502917 20.29133733254379  L 9.995596377502917 13.653545866481295  L 11.859207180086898 13.653545866481295  L 11.859207180086898 20.29133733254379  L 9.995596377502917 20.29133733254379  Z " fill-rule="nonzero" fill="rgba(0, 0, 0, 1)" stroke="none" transform="matrix(1 0 0 1 747 581 )" class="fill" />
    <path d="M 0.024189148735567226 5  L 0.024189148735567226 3.212598585686946  L 11.738199886412279 3.212598585686946  L 11.738199886412279 5  L 0.024189148735567226 5  Z " stroke-width="0" stroke-dasharray="0" stroke="rgba(121, 121, 121, 1)" fill="none" transform="matrix(1 0 0 1 747 581 )" class="stroke" mask="url(#Clip4827)" />
    <path d="M 1.9603673975262497 9.992127090788943  L 1.9603673975262497 8.598425847257623  L 9.995596377502917 8.598425847257623  L 9.995596377502917 9.992127090788943  L 1.9603673975262497 9.992127090788943  Z " stroke-width="0" stroke-dasharray="0" stroke="rgba(121, 121, 121, 1)" fill="none" transform="matrix(1 0 0 1 747 581 )" class="stroke" mask="url(#Clip4827)" />
    <path d="M 13.698567283938528 2.433071153334535  L 13.698567283938528 0.968505144907014  L 20.184829044883937 0.968505144907014  L 20.184829044883937 2.433071153334535  L 13.698567283938528 2.433071153334535  Z " stroke-width="0" stroke-dasharray="0" stroke="rgba(121, 121, 121, 1)" fill="none" transform="matrix(1 0 0 1 747 581 )" class="stroke" mask="url(#Clip4827)" />
    <path d="M 13.698567283938528 5.787399268813883  L 13.698567283938528 4.417322116663663  L 20.112200048680453 4.417322116663663  L 20.112200048680453 5.787399268813883  L 13.698567283938528 5.787399268813883  Z " stroke-width="0" stroke-dasharray="0" stroke="rgba(121, 121, 121, 1)" fill="none" transform="matrix(1 0 0 1 747 581 )" class="stroke" mask="url(#Clip4827)" />
    <path d="M 13.625999837731825 9.259840331951633  L 13.625999837731825 7.866139088420312  L 20.063821751209318 7.866139088420312  L 20.063821751209318 9.259840331951633  L 13.625999837731825 9.259840331951633  Z " stroke-width="0" stroke-dasharray="0" stroke="rgba(121, 121, 121, 1)" fill="none" transform="matrix(1 0 0 1 747 581 )" class="stroke" mask="url(#Clip4827)" />
    <path d="M 2.517025568428209 1.8897621070518267  C 2.2911361185173162 1.3858249819778068  2.0410870927208737 0.9212579008007004  1.7667926576449293 0.49606086352050666  C 1.7667926576449293 0.49606086352050666  3.17050188426922 0.07086476489620075  3.17050188426922 0.07086476489620075  C 3.444796319345164 0.4645652038653313  3.7110152024994894 0.9133807005912995  3.9691746425204166 1.4173178256653194  C 4.2273340825413435 1.9055071209117513  4.40483393478638 2.32283258991787  4.501643664686808 2.6692895394042377  C 4.501643664686808 2.6692895394042377  3.0253054418590337 3.188974494305845  3.0253054418590337 3.188974494305845  C 2.928495711958605 2.82676971499189  2.7590500133941185 2.3936992321258463  2.517025568428209 1.8897621070518267  Z " stroke-width="0" stroke-dasharray="0" stroke="rgba(121, 121, 121, 1)" fill="none" transform="matrix(1 0 0 1 747 581 )" class="stroke" mask="url(#Clip4827)" />
    <path d="M 0.9438692006613827 11.07873767410726  L 0.9438692006613827 5.62204564764038  L 2.492836419692642 5.62204564764038  L 2.492836419692642 11.07873767410726  L 0.9438692006613827 11.07873767410726  Z " stroke-width="0" stroke-dasharray="0" stroke="rgba(121, 121, 121, 1)" fill="none" transform="matrix(1 0 0 1 747 581 )" class="stroke" mask="url(#Clip4827)" />
    <path d="M 9.317930912926338 10.771654523141354  L 9.317930912926338 5.62204564764038  L 10.84270898322203 5.62204564764038  L 10.84270898322203 10.771654523141354  L 9.317930912926338 10.771654523141354  Z " stroke-width="0" stroke-dasharray="0" stroke="rgba(121, 121, 121, 1)" fill="none" transform="matrix(1 0 0 1 747 581 )" class="stroke" mask="url(#Clip4827)" />
    <path d="M 19.26514899295812 12.000002145499172  C 19.26514899295812 12.000002145499172  19.26514899295812 0.968505144907014  19.26514899295812 0.968505144907014  L 21.0076909518707 0.968505144907014  C 21.0076909518707 0.968505144907014  21.0076909518707 12.047242819014272  21.0076909518707 12.047242819014272  C 21.0076909518707 12.47243938696652  20.943196172429516 12.818895867124946  20.81411621198938 13.086612728817485  C 20.70117196789328 13.338581291354497  20.483338835530013 13.53543010285523  20.160639896148368 13.677162448615295  C 19.854074749673366 13.818894794375359  19.442634178992986 13.905509031746952  18.926316260669832 13.9370049260661  C 18.409997380627978 13.95275299055766  17.756500868694275 13.960629017447198  16.965887313146798 13.960629017447198  C 16.933617803896116 13.724408284737777  16.861007080347925 13.456690015061405  16.74806187453313 13.157477493713687  C 16.651252385062374 12.858264972365971  16.546425046791988 12.598422494915168  16.43347984097719 12.377950061361277  C 16.98206919198843 12.393697891188863  17.482228312718746 12.401574152742377  17.934007212540532 12.401574152742377  C 18.40192086698766 12.401574152742377  18.71652694351109 12.401574152742377  18.877876413201914 12.401574152742377  C 19.039225882892737 12.401574152742377  19.14411477115991 12.377953346656884  19.192519996754637 12.330709387846177  C 19.240925222349365 12.267717129879939  19.26514899295812 12.157482321086825  19.26514899295812 12.000002145499172  Z " stroke-width="0" stroke-dasharray="0" stroke="rgba(121, 121, 121, 1)" fill="none" transform="matrix(1 0 0 1 747 581 )" class="stroke" mask="url(#Clip4827)" />
    <path d="M 5.082490984324335 8.905508998223526  C 5.082490984324335 8.905508998223526  5.082490984324335 3.8740130703809545  5.082490984324335 3.8740130703809545  L 6.728276348294646 3.8740130703809545  C 6.728276348294646 3.8740130703809545  6.728276348294646 8.952757180985728  6.728276348294646 8.952757180985728  C 6.728276348294646 9.708662868596758  6.607278671807023 10.456693233310162  6.3652544672707885 11.19685062176566  C 6.139365017359897 11.92126018039357  5.687591887850311 12.598428596178438  5.009923538117634 13.228349767856988  C 4.332254947955281 13.858271408863486  3.323820041098611 14.39370043896913  1.9846180962585995 14.834645306076911  C 1.9362131110935477 14.708661024808407  1.8393782562920884 14.566929617704231  1.6941636614414448 14.409449207452607  C 1.5650839414309816 14.251969031864954  1.4279165278003152 14.094485336317723  1.2827019329496716 13.9370049260661  C 1.1536222129392082 13.779524515814474  1.0245706232007117 13.66142118937892  0.8954909031902482 13.582681101585095  C 2.1378831181298312 13.188980193288021  3.049483290399879 12.748033448868464  3.6303419102321275 12.259844622949975  C 4.227335525119393 11.771655327703542  4.6146133943284475 11.244094580576368  4.792098099503963 10.677165666864052  C 4.98571755930482 10.110236283823795  5.082490984324335 9.51968234007449  5.082490984324335 8.905508998223526  Z " stroke-width="0" stroke-dasharray="0" stroke="rgba(121, 121, 121, 1)" fill="none" transform="matrix(1 0 0 1 747 581 )" class="stroke" mask="url(#Clip4827)" />
    <path d="M 12.924083674422898 6.070865837645787  C 12.924083674422898 6.070865837645787  12.924083674422898 0.968505144907014  12.924083674422898 0.968505144907014  L 14.569869038393211 0.968505144907014  C 14.569869038393211 0.968505144907014  14.569869038393211 6.094489929026888  14.569869038393211 6.094489929026888  C 14.569869038393211 6.929136173759686  14.497257353126319 7.811021684023755  14.35204359977954 8.740155377050025  C 14.206828884714058 9.653541240248707  13.916385990521302 10.551178804291858  13.480741845324859 11.433069007835364  C 13.061232454753759 12.299210442895394  12.415851886927062 13.05511706916231  11.544563596534175 13.700786539996395  C 11.463888861688766 13.60629862237498  11.334836791090918 13.503940075135382  11.157352566774751 13.393703389030494  C 10.979867861599237 13.26771934242596  10.802368249783875 13.149608272079332  10.624883544608359 13.039372055302387  C 10.447399320292194 12.929135838525442  10.286007534978584 12.85039011879629  10.140792819913102 12.803146159985582  C 10.979810639336604 12.173224518979085  11.592975554159802 11.480311558662239  11.980214473761515 10.724406340379153  C 12.367453393363233 9.952752353612592  12.617563728726783 9.165357107609656  12.730508934541577 8.36220746118792  C 12.859588894981716 7.5590578147661835  12.924083674422898 6.795275396273698  12.924083674422898 6.070865837645787  Z " stroke-width="0" stroke-dasharray="0" stroke="rgba(121, 121, 121, 1)" fill="none" transform="matrix(1 0 0 1 747 581 )" class="stroke" mask="url(#Clip4827)" />
    <path d="M 7.889970987569698 1.39370124353132  C 8.164265663075318 0.858268458802125  8.39015222783011 0.3937013776250182  8.567636452146276 0  C 8.567636452146276 0  10.165043518645453 0.4015720072432052  10.165043518645453 0.4015720072432052  C 9.890749323999184 0.9212569621448126  9.616414737167524 1.4173206416329824  9.342120061661905 1.8897621070518267  C 9.067825867015637 2.3622026338147832  8.801606743431636 2.77952904147679  8.54344730341071 3.141733820790745  C 8.54344730341071 3.141733820790745  7.115487378054068 2.716530212919338  7.115487378054068 2.716530212919338  C 7.373646818074996 2.354325433605383  7.631811547548772 1.9133861984329275  7.889970987569698 1.39370124353132  Z " stroke-width="0" stroke-dasharray="0" stroke="rgba(121, 121, 121, 1)" fill="none" transform="matrix(1 0 0 1 747 581 )" class="stroke" mask="url(#Clip4827)" />
    <path d="M 0 21  L 0 19  L 22 19  L 22 21  L 0 21  Z " stroke-width="0" stroke-dasharray="0" stroke="rgba(121, 121, 121, 1)" fill="none" transform="matrix(1 0 0 1 747 581 )" class="stroke" mask="url(#Clip4827)" />
    <path d="M 2.517025568428209 16.795279687272043  L 2.517025568428209 15  L 19.458785282836224 15  L 19.458785282836224 16.795279687272043  L 2.517025568428209 16.795279687272043  Z " stroke-width="0" stroke-dasharray="0" stroke="rgba(121, 121, 121, 1)" fill="none" transform="matrix(1 0 0 1 747 581 )" class="stroke" mask="url(#Clip4827)" />
    <path d="M 9.995596377502917 20.29133733254379  L 9.995596377502917 13.653545866481295  L 11.859207180086898 13.653545866481295  L 11.859207180086898 20.29133733254379  L 9.995596377502917 20.29133733254379  Z " stroke-width="0" stroke-dasharray="0" stroke="rgba(121, 121, 121, 1)" fill="none" transform="matrix(1 0 0 1 747 581 )" class="stroke" mask="url(#Clip4827)" />
  </g>
</svg>