<?xml version="1.0" encoding="utf-8"?>
<svg version="1.1" xmlns:xlink="http://www.w3.org/1999/xlink" width="38px" height="56px" xmlns="http://www.w3.org/2000/svg">
  <defs>
    <pattern id="BGPattern" patternUnits="userSpaceOnUse" alignment="0 0" imageRepeat="None" />
    <mask fill="white" id="Clip4443">
      <path d="M 29 46.61483005111704  L 29 1.0009979023684907  L 20.669968717413973 1.0009979023684907  C 20.669968717413973 1.0009979023684907  20.669968717413973 16.18410280430931  20.669968717413973 16.18410280430931  C 18.627825071714717 13.90189253011527  16.247582619580538 12.970821570716943  13.1601929092805 12.863409567643526  C 13.1601929092805 12.863409567643526  12.533563607924922 12.853634197503208  12.533563607924922 12.853634197503208  C 9.266160123663973 12.853634197503208  6.255093794296631 14.00659710201006  4.3971584984358705 15.864448200720933  C 4.3971584984358705 15.864448200720933  4.094108446298228 16.183125267295278  4.094108446298228 16.183125267295278  C 1.061442974834422 19.550914738534306  1.0010435908967392 25.053189691821274  1.0010427528675705 29.894059426104313  C 1.0010427528675705 34.89104058051443  1.0656881481564455 40.656867006598375  4.3971584984358705 43.988188094413786  C 6.255040213512306 45.84590852869224  9.329897628959202 46.99892101422485  12.597106360792491 46.99900209763151  C 16.120599979404613 46.99900209763151  18.555273825731962 46.03822497479787  20.861574556830032 43.47595869906116  C 20.861574556830032 43.47595869906116  20.861574556830032 46.61483005111704  20.861574556830032 46.61483005111704  L 29 46.61483005111704  Z M 18.7851929092805 36.31843268232083  C 19.481904921864817 34.82030005008605  19.6689259645464 32.62561883629819  19.6689259645464 29.894059426104313  C 19.66892134595424 27.161650398779095  19.482065365883805 24.98519657499287  18.787148070907193 23.50487750239293  C 18.453543367674254 22.794331120616356  18.015948147420715 22.277780282566113  17.44492961418144 21.92908783577378  C 16.86918016022015 21.577535001361934  16.080109613158033 21.349408386452968  14.967739833159541 21.349408386452968  C 13.85515382068622 21.349433111132832  13.071381506258554 21.577476978000963  12.503258602711156 21.927132761745717  C 11.94022963268292 22.273747286077864  11.511124848573623 22.78816202914664  11.184502085505736 23.498034743294706  C 10.502905999781317 24.97956117911584  10.33107826467156 27.15612239832597  10.331074035453597 29.894059426104313  C 10.331074035453597 32.6312857348329  10.502026690183765 34.826908209847154  11.185479666319083 36.32625297843309  C 11.513478644075683 37.04573131828758  11.944631491015675 37.56737550364476  12.508146506777894 37.91866077429078  C 13.075758781870663 38.27247144832991  13.857823909882834 38.50320281433304  14.967739833159541 38.50322790868175  C 14.967739833159541 38.50322790868175  14.967739833159541 39.50422581105024  14.967739833159541 39.50422581105024  C 14.967739833159541 39.50422581105024  14.51218717413973 39.49151782986783  14.51218717413973 39.49151782986783  C 9.931314128283043 39.24217143046249  9.330031282586027 35.16935558290736  9.330031282586027 29.894059426104313  C 9.330039219774171 24.44874676699998  9.970730492171207 20.348509696237237  14.967739833159541 20.348410484084475  C 19.964912899840733 20.348410484084475  20.669959986783788 24.448680897806653  20.669968717413973 29.894059426104313  C 20.669968717413973 29.894059426104313  20.66117049009385 30.89994501354296  20.66117049009385 30.89994501354296  C 20.565396337240653 35.84408571013991  19.65246795240607 39.50422581105024  14.967739833159541 39.50422581105024  C 14.967739833159541 39.50422581105024  14.967739833159541 38.50322790868175  14.967739833159541 38.50322790868175  C 16.077298471651684 38.50322790868175  16.864830033000988 38.27235361168424  17.440041710114702 37.91670570026271  C 18.011453029883167 37.56330948306366  18.450235977411516 37.03855790061198  18.7851929092805 36.31843268232083  Z M 30 0  L 30 47  L 19.860531803962463 47  C 19.860531803962463 47  19.860531803962463 45.780013441133946  19.860531803962463 45.780013441133946  C 19.14215119712917 46.33455323264999  18.386887857638012 46.780055912046485  17.572992700729927 47.121194224385476  C 16.07946688241332 47.74718675698277  14.449751956370875 48  12.597106360792491 48  C 9.123249073844011 47.99991926895544  5.772876759390886 46.779241228259984  3.6893899895724713 44.695924892572755  C 1.8183741803214 42.82499291190202  0.9133085742111127 40.32054176934199  0.46337330552659023 37.737816426694906  C 0.013799796636460098 35.15704687404538  0 32.38132909076329  0 29.894059426104313  C 0 27.407041066737264  0.013578671484222253 24.64696435299269  0.46337330552659023 22.08158360996273  C 0.9137775254075545 19.512737097275117  1.819790789432148 17.026233281316824  3.6893899895724713 15.156711402561962  C 5.769470023909998 13.07672551829827  9.053652527682848 11.852636295134717  12.533563607924922 11.852636295134717  C 15.31120029803486 11.852661061216036  17.64386969636951 12.427744637229395  19.6689259645464 13.917194468769729  C 19.6689259645464 13.917194468769729  19.6689259645464 0  19.6689259645464 0  L 30 0  Z " fill-rule="evenodd" />
    </mask>
  </defs>
  <g transform="matrix(1 0 0 1 -545 -311 )">
    <path d="M 29 46.61483005111704  L 29 1.0009979023684907  L 20.669968717413973 1.0009979023684907  C 20.669968717413973 1.0009979023684907  20.669968717413973 16.18410280430931  20.669968717413973 16.18410280430931  C 18.627825071714717 13.90189253011527  16.247582619580538 12.970821570716943  13.1601929092805 12.863409567643526  C 13.1601929092805 12.863409567643526  12.533563607924922 12.853634197503208  12.533563607924922 12.853634197503208  C 9.266160123663973 12.853634197503208  6.255093794296631 14.00659710201006  4.3971584984358705 15.864448200720933  C 4.3971584984358705 15.864448200720933  4.094108446298228 16.183125267295278  4.094108446298228 16.183125267295278  C 1.061442974834422 19.550914738534306  1.0010435908967392 25.053189691821274  1.0010427528675705 29.894059426104313  C 1.0010427528675705 34.89104058051443  1.0656881481564455 40.656867006598375  4.3971584984358705 43.988188094413786  C 6.255040213512306 45.84590852869224  9.329897628959202 46.99892101422485  12.597106360792491 46.99900209763151  C 16.120599979404613 46.99900209763151  18.555273825731962 46.03822497479787  20.861574556830032 43.47595869906116  C 20.861574556830032 43.47595869906116  20.861574556830032 46.61483005111704  20.861574556830032 46.61483005111704  L 29 46.61483005111704  Z M 18.7851929092805 36.31843268232083  C 19.481904921864817 34.82030005008605  19.6689259645464 32.62561883629819  19.6689259645464 29.894059426104313  C 19.66892134595424 27.161650398779095  19.482065365883805 24.98519657499287  18.787148070907193 23.50487750239293  C 18.453543367674254 22.794331120616356  18.015948147420715 22.277780282566113  17.44492961418144 21.92908783577378  C 16.86918016022015 21.577535001361934  16.080109613158033 21.349408386452968  14.967739833159541 21.349408386452968  C 13.85515382068622 21.349433111132832  13.071381506258554 21.577476978000963  12.503258602711156 21.927132761745717  C 11.94022963268292 22.273747286077864  11.511124848573623 22.78816202914664  11.184502085505736 23.498034743294706  C 10.502905999781317 24.97956117911584  10.33107826467156 27.15612239832597  10.331074035453597 29.894059426104313  C 10.331074035453597 32.6312857348329  10.502026690183765 34.826908209847154  11.185479666319083 36.32625297843309  C 11.513478644075683 37.04573131828758  11.944631491015675 37.56737550364476  12.508146506777894 37.91866077429078  C 13.075758781870663 38.27247144832991  13.857823909882834 38.50320281433304  14.967739833159541 38.50322790868175  C 14.967739833159541 38.50322790868175  14.967739833159541 39.50422581105024  14.967739833159541 39.50422581105024  C 14.967739833159541 39.50422581105024  14.51218717413973 39.49151782986783  14.51218717413973 39.49151782986783  C 9.931314128283043 39.24217143046249  9.330031282586027 35.16935558290736  9.330031282586027 29.894059426104313  C 9.330039219774171 24.44874676699998  9.970730492171207 20.348509696237237  14.967739833159541 20.348410484084475  C 19.964912899840733 20.348410484084475  20.669959986783788 24.448680897806653  20.669968717413973 29.894059426104313  C 20.669968717413973 29.894059426104313  20.66117049009385 30.89994501354296  20.66117049009385 30.89994501354296  C 20.565396337240653 35.84408571013991  19.65246795240607 39.50422581105024  14.967739833159541 39.50422581105024  C 14.967739833159541 39.50422581105024  14.967739833159541 38.50322790868175  14.967739833159541 38.50322790868175  C 16.077298471651684 38.50322790868175  16.864830033000988 38.27235361168424  17.440041710114702 37.91670570026271  C 18.011453029883167 37.56330948306366  18.450235977411516 37.03855790061198  18.7851929092805 36.31843268232083  Z M 30 0  L 30 47  L 19.860531803962463 47  C 19.860531803962463 47  19.860531803962463 45.780013441133946  19.860531803962463 45.780013441133946  C 19.14215119712917 46.33455323264999  18.386887857638012 46.780055912046485  17.572992700729927 47.121194224385476  C 16.07946688241332 47.74718675698277  14.449751956370875 48  12.597106360792491 48  C 9.123249073844011 47.99991926895544  5.772876759390886 46.779241228259984  3.6893899895724713 44.695924892572755  C 1.8183741803214 42.82499291190202  0.9133085742111127 40.32054176934199  0.46337330552659023 37.737816426694906  C 0.013799796636460098 35.15704687404538  0 32.38132909076329  0 29.894059426104313  C 0 27.407041066737264  0.013578671484222253 24.64696435299269  0.46337330552659023 22.08158360996273  C 0.9137775254075545 19.512737097275117  1.819790789432148 17.026233281316824  3.6893899895724713 15.156711402561962  C 5.769470023909998 13.07672551829827  9.053652527682848 11.852636295134717  12.533563607924922 11.852636295134717  C 15.31120029803486 11.852661061216036  17.64386969636951 12.427744637229395  19.6689259645464 13.917194468769729  C 19.6689259645464 13.917194468769729  19.6689259645464 0  19.6689259645464 0  L 30 0  Z " fill-rule="nonzero" fill="rgba(190, 190, 190, 0.058823529411764705)" stroke="none" transform="matrix(1 0 0 1 549 311 )" class="fill" />
    <path d="M 29 46.61483005111704  L 29 1.0009979023684907  L 20.669968717413973 1.0009979023684907  C 20.669968717413973 1.0009979023684907  20.669968717413973 16.18410280430931  20.669968717413973 16.18410280430931  C 18.627825071714717 13.90189253011527  16.247582619580538 12.970821570716943  13.1601929092805 12.863409567643526  C 13.1601929092805 12.863409567643526  12.533563607924922 12.853634197503208  12.533563607924922 12.853634197503208  C 9.266160123663973 12.853634197503208  6.255093794296631 14.00659710201006  4.3971584984358705 15.864448200720933  C 4.3971584984358705 15.864448200720933  4.094108446298228 16.183125267295278  4.094108446298228 16.183125267295278  C 1.061442974834422 19.550914738534306  1.0010435908967392 25.053189691821274  1.0010427528675705 29.894059426104313  C 1.0010427528675705 34.89104058051443  1.0656881481564455 40.656867006598375  4.3971584984358705 43.988188094413786  C 6.255040213512306 45.84590852869224  9.329897628959202 46.99892101422485  12.597106360792491 46.99900209763151  C 16.120599979404613 46.99900209763151  18.555273825731962 46.03822497479787  20.861574556830032 43.47595869906116  C 20.861574556830032 43.47595869906116  20.861574556830032 46.61483005111704  20.861574556830032 46.61483005111704  L 29 46.61483005111704  Z " stroke-width="0" stroke-dasharray="0" stroke="rgba(121, 121, 121, 1)" fill="none" transform="matrix(1 0 0 1 549 311 )" class="stroke" mask="url(#Clip4443)" />
    <path d="M 18.7851929092805 36.31843268232083  C 19.481904921864817 34.82030005008605  19.6689259645464 32.62561883629819  19.6689259645464 29.894059426104313  C 19.66892134595424 27.161650398779095  19.482065365883805 24.98519657499287  18.787148070907193 23.50487750239293  C 18.453543367674254 22.794331120616356  18.015948147420715 22.277780282566113  17.44492961418144 21.92908783577378  C 16.86918016022015 21.577535001361934  16.080109613158033 21.349408386452968  14.967739833159541 21.349408386452968  C 13.85515382068622 21.349433111132832  13.071381506258554 21.577476978000963  12.503258602711156 21.927132761745717  C 11.94022963268292 22.273747286077864  11.511124848573623 22.78816202914664  11.184502085505736 23.498034743294706  C 10.502905999781317 24.97956117911584  10.33107826467156 27.15612239832597  10.331074035453597 29.894059426104313  C 10.331074035453597 32.6312857348329  10.502026690183765 34.826908209847154  11.185479666319083 36.32625297843309  C 11.513478644075683 37.04573131828758  11.944631491015675 37.56737550364476  12.508146506777894 37.91866077429078  C 13.075758781870663 38.27247144832991  13.857823909882834 38.50320281433304  14.967739833159541 38.50322790868175  C 14.967739833159541 38.50322790868175  14.967739833159541 39.50422581105024  14.967739833159541 39.50422581105024  C 14.967739833159541 39.50422581105024  14.51218717413973 39.49151782986783  14.51218717413973 39.49151782986783  C 9.931314128283043 39.24217143046249  9.330031282586027 35.16935558290736  9.330031282586027 29.894059426104313  C 9.330039219774171 24.44874676699998  9.970730492171207 20.348509696237237  14.967739833159541 20.348410484084475  C 19.964912899840733 20.348410484084475  20.669959986783788 24.448680897806653  20.669968717413973 29.894059426104313  C 20.669968717413973 29.894059426104313  20.66117049009385 30.89994501354296  20.66117049009385 30.89994501354296  C 20.565396337240653 35.84408571013991  19.65246795240607 39.50422581105024  14.967739833159541 39.50422581105024  C 14.967739833159541 39.50422581105024  14.967739833159541 38.50322790868175  14.967739833159541 38.50322790868175  C 16.077298471651684 38.50322790868175  16.864830033000988 38.27235361168424  17.440041710114702 37.91670570026271  C 18.011453029883167 37.56330948306366  18.450235977411516 37.03855790061198  18.7851929092805 36.31843268232083  Z " stroke-width="0" stroke-dasharray="0" stroke="rgba(121, 121, 121, 1)" fill="none" transform="matrix(1 0 0 1 549 311 )" class="stroke" mask="url(#Clip4443)" />
    <path d="M 30 0  L 30 47  L 19.860531803962463 47  C 19.860531803962463 47  19.860531803962463 45.780013441133946  19.860531803962463 45.780013441133946  C 19.14215119712917 46.33455323264999  18.386887857638012 46.780055912046485  17.572992700729927 47.121194224385476  C 16.07946688241332 47.74718675698277  14.449751956370875 48  12.597106360792491 48  C 9.123249073844011 47.99991926895544  5.772876759390886 46.779241228259984  3.6893899895724713 44.695924892572755  C 1.8183741803214 42.82499291190202  0.9133085742111127 40.32054176934199  0.46337330552659023 37.737816426694906  C 0.013799796636460098 35.15704687404538  0 32.38132909076329  0 29.894059426104313  C 0 27.407041066737264  0.013578671484222253 24.64696435299269  0.46337330552659023 22.08158360996273  C 0.9137775254075545 19.512737097275117  1.819790789432148 17.026233281316824  3.6893899895724713 15.156711402561962  C 5.769470023909998 13.07672551829827  9.053652527682848 11.852636295134717  12.533563607924922 11.852636295134717  C 15.31120029803486 11.852661061216036  17.64386969636951 12.427744637229395  19.6689259645464 13.917194468769729  C 19.6689259645464 13.917194468769729  19.6689259645464 0  19.6689259645464 0  L 30 0  Z " stroke-width="0" stroke-dasharray="0" stroke="rgba(121, 121, 121, 1)" fill="none" transform="matrix(1 0 0 1 549 311 )" class="stroke" mask="url(#Clip4443)" />
  </g>
  <style>svg { filter: drop-shadow(0px 4px 2px rgba(0, 0, 0, 0.12941176470588237)); }</style>
</svg>