<?xml version="1.0" encoding="utf-8"?>
<svg version="1.1" xmlns:xlink="http://www.w3.org/1999/xlink" width="19px" height="56px" xmlns="http://www.w3.org/2000/svg">
  <defs>
    <pattern id="BGPattern" patternUnits="userSpaceOnUse" alignment="0 0" imageRepeat="None" />
    <mask fill="white" id="Clip4450">
      <path d="M 9.887123745819398 46.99632443028669  L 9.887123745819398 13.530017152658662  L 1.1803232998885174 13.530017152658662  L 1.1803232998885174 46.99632443028669  L 9.887123745819398 46.99632443028669  Z M 9.953548866592346 7.812790982602303  L 9.953548866592346 1.0036755697133055  L 1.0464511334076552 1.0036755697133055  L 1.0464511334076552 7.812790982602303  L 9.953548866592346 7.812790982602303  Z M 11 13  L 11 48  L 0.13387216648086214 48  L 0.13387216648086214 13  L 11 13  Z M 11 0  L 11 9  L 0 9  L 0 0  L 11 0  Z " fill-rule="evenodd" />
    </mask>
  </defs>
  <g transform="matrix(1 0 0 1 -304 -311 )">
    <path d="M 9.887123745819398 46.99632443028669  L 9.887123745819398 13.530017152658662  L 1.1803232998885174 13.530017152658662  L 1.1803232998885174 46.99632443028669  L 9.887123745819398 46.99632443028669  Z M 9.953548866592346 7.812790982602303  L 9.953548866592346 1.0036755697133055  L 1.0464511334076552 1.0036755697133055  L 1.0464511334076552 7.812790982602303  L 9.953548866592346 7.812790982602303  Z M 11 13  L 11 48  L 0.13387216648086214 48  L 0.13387216648086214 13  L 11 13  Z M 11 0  L 11 9  L 0 9  L 0 0  L 11 0  Z " fill-rule="nonzero" fill="rgba(190, 190, 190, 0.058823529411764705)" stroke="none" transform="matrix(1 0 0 1 308 311 )" class="fill" />
    <path d="M 9.887123745819398 46.99632443028669  L 9.887123745819398 13.530017152658662  L 1.1803232998885174 13.530017152658662  L 1.1803232998885174 46.99632443028669  L 9.887123745819398 46.99632443028669  Z " stroke-width="0" stroke-dasharray="0" stroke="rgba(121, 121, 121, 1)" fill="none" transform="matrix(1 0 0 1 308 311 )" class="stroke" mask="url(#Clip4450)" />
    <path d="M 9.953548866592346 7.812790982602303  L 9.953548866592346 1.0036755697133055  L 1.0464511334076552 1.0036755697133055  L 1.0464511334076552 7.812790982602303  L 9.953548866592346 7.812790982602303  Z " stroke-width="0" stroke-dasharray="0" stroke="rgba(121, 121, 121, 1)" fill="none" transform="matrix(1 0 0 1 308 311 )" class="stroke" mask="url(#Clip4450)" />
    <path d="M 11 13  L 11 48  L 0.13387216648086214 48  L 0.13387216648086214 13  L 11 13  Z " stroke-width="0" stroke-dasharray="0" stroke="rgba(121, 121, 121, 1)" fill="none" transform="matrix(1 0 0 1 308 311 )" class="stroke" mask="url(#Clip4450)" />
    <path d="M 11 0  L 11 9  L 0 9  L 0 0  L 11 0  Z " stroke-width="0" stroke-dasharray="0" stroke="rgba(121, 121, 121, 1)" fill="none" transform="matrix(1 0 0 1 308 311 )" class="stroke" mask="url(#Clip4450)" />
  </g>
  <style>svg { filter: drop-shadow(0px 4px 2px rgba(0, 0, 0, 0.12941176470588237)); }</style>
</svg>