<?xml version="1.0" encoding="utf-8"?>
<svg version="1.1" xmlns:xlink="http://www.w3.org/1999/xlink" width="12px" height="17px" xmlns="http://www.w3.org/2000/svg">
  <defs>
    <pattern id="BGPattern" patternUnits="userSpaceOnUse" alignment="0 0" imageRepeat="None" />
    <mask fill="white" id="Clip4567">
      <path d="M 10.298807145128773 1.575842216917583  C 12.096241396389665 3.342696042899268  11.99907535368767 5.945225302750274  11.99907535368767 8.3089893396989  C 11.99907535368767 10.672753376647528  12.096241396389665 13.657303957100732  10.298807145128773 15.424157783082416  C 9.25435253765384 16.45084304708521  7.724097396078232 17  5.926662420929308 17  C 5.926662420929308 17  0 17  0 17  L 0 0  C 0 0  5.926662420929308 0  5.926662420929308 0  C 7.724097396078232 0  9.25435253765384 0.5491573087009157  10.298807145128773 1.575842216917583  Z M 9.011452391251508 14.13483060785348  C 10.201644480570927 12.917134090572711  10.15305663329972 10.386236674623627  10.15305663329972 8.3089893396989  C 10.15305663329972 6.231742004774175  10.201644480570927 4.082865909427289  9.011452391251508 2.8651693921465196  C 8.11273454173303 1.957864960664286  6.946816107184331 1.6235953563743593  5.610885088244364 1.6235953563743593  C 5.610885088244364 1.6235953563743593  2 1.6235953563743593  2 1.6235953563743593  L 2 15.37640464362564  C 2 15.37640464362564  5.610885088244364 15.37640464362564  5.610885088244364 15.37640464362564  C 6.946816107184331 15.37640464362564  8.11273454173303 15.042133971977336  9.011452391251508 14.13483060785348  Z " fill-rule="evenodd" />
    </mask>
  </defs>
  <g transform="matrix(1 0 0 1 -520 -522 )">
    <path d="M 10.298807145128773 1.575842216917583  C 12.096241396389665 3.342696042899268  11.99907535368767 5.945225302750274  11.99907535368767 8.3089893396989  C 11.99907535368767 10.672753376647528  12.096241396389665 13.657303957100732  10.298807145128773 15.424157783082416  C 9.25435253765384 16.45084304708521  7.724097396078232 17  5.926662420929308 17  C 5.926662420929308 17  0 17  0 17  L 0 0  C 0 0  5.926662420929308 0  5.926662420929308 0  C 7.724097396078232 0  9.25435253765384 0.5491573087009157  10.298807145128773 1.575842216917583  Z M 9.011452391251508 14.13483060785348  C 10.201644480570927 12.917134090572711  10.15305663329972 10.386236674623627  10.15305663329972 8.3089893396989  C 10.15305663329972 6.231742004774175  10.201644480570927 4.082865909427289  9.011452391251508 2.8651693921465196  C 8.11273454173303 1.957864960664286  6.946816107184331 1.6235953563743593  5.610885088244364 1.6235953563743593  C 5.610885088244364 1.6235953563743593  2 1.6235953563743593  2 1.6235953563743593  L 2 15.37640464362564  C 2 15.37640464362564  5.610885088244364 15.37640464362564  5.610885088244364 15.37640464362564  C 6.946816107184331 15.37640464362564  8.11273454173303 15.042133971977336  9.011452391251508 14.13483060785348  Z " fill-rule="nonzero" fill="rgba(0, 0, 0, 1)" stroke="none" transform="matrix(1 0 0 1 520 522 )" class="fill" />
    <path d="M 10.298807145128773 1.575842216917583  C 12.096241396389665 3.342696042899268  11.99907535368767 5.945225302750274  11.99907535368767 8.3089893396989  C 11.99907535368767 10.672753376647528  12.096241396389665 13.657303957100732  10.298807145128773 15.424157783082416  C 9.25435253765384 16.45084304708521  7.724097396078232 17  5.926662420929308 17  C 5.926662420929308 17  0 17  0 17  L 0 0  C 0 0  5.926662420929308 0  5.926662420929308 0  C 7.724097396078232 0  9.25435253765384 0.5491573087009157  10.298807145128773 1.575842216917583  Z " stroke-width="0" stroke-dasharray="0" stroke="rgba(121, 121, 121, 1)" fill="none" transform="matrix(1 0 0 1 520 522 )" class="stroke" mask="url(#Clip4567)" />
    <path d="M 9.011452391251508 14.13483060785348  C 10.201644480570927 12.917134090572711  10.15305663329972 10.386236674623627  10.15305663329972 8.3089893396989  C 10.15305663329972 6.231742004774175  10.201644480570927 4.082865909427289  9.011452391251508 2.8651693921465196  C 8.11273454173303 1.957864960664286  6.946816107184331 1.6235953563743593  5.610885088244364 1.6235953563743593  C 5.610885088244364 1.6235953563743593  2 1.6235953563743593  2 1.6235953563743593  L 2 15.37640464362564  C 2 15.37640464362564  5.610885088244364 15.37640464362564  5.610885088244364 15.37640464362564  C 6.946816107184331 15.37640464362564  8.11273454173303 15.042133971977336  9.011452391251508 14.13483060785348  Z " stroke-width="0" stroke-dasharray="0" stroke="rgba(121, 121, 121, 1)" fill="none" transform="matrix(1 0 0 1 520 522 )" class="stroke" mask="url(#Clip4567)" />
  </g>
</svg>