<?xml version="1.0" encoding="utf-8"?>
<svg version="1.1" xmlns:xlink="http://www.w3.org/1999/xlink" width="20px" height="23px" xmlns="http://www.w3.org/2000/svg">
  <defs>
    <pattern id="BGPattern" patternUnits="userSpaceOnUse" alignment="0 0" imageRepeat="None" />
    <mask fill="white" id="Clip4466">
      <path d="M 11.719750252655444 0  L 20 23  L 15.382164613659263 23  L 14.044590364089593 18.929777693096025  L 5.987254472437967 18.929777693096025  L 4.617835386340737 23  L 0 23  L 8.248404910816994 0  L 11.719750252655444 0  Z M 7.229294212424953 15.15028004973974  L 12.86624029715773 15.15028004973974  L 10.095542102533692 6.783705128460565  L 7.229294212424953 15.15028004973974  Z " fill-rule="evenodd" />
    </mask>
  </defs>
  <g transform="matrix(1 0 0 1 -1218 -409 )">
    <path d="M 11.719750252655444 0  L 20 23  L 15.382164613659263 23  L 14.044590364089593 18.929777693096025  L 5.987254472437967 18.929777693096025  L 4.617835386340737 23  L 0 23  L 8.248404910816994 0  L 11.719750252655444 0  Z M 7.229294212424953 15.15028004973974  L 12.86624029715773 15.15028004973974  L 10.095542102533692 6.783705128460565  L 7.229294212424953 15.15028004973974  Z " fill-rule="nonzero" fill="rgba(255, 255, 255, 1)" stroke="none" transform="matrix(1 0 0 1 1218 409 )" class="fill" />
    <path d="M 11.719750252655444 0  L 20 23  L 15.382164613659263 23  L 14.044590364089593 18.929777693096025  L 5.987254472437967 18.929777693096025  L 4.617835386340737 23  L 0 23  L 8.248404910816994 0  L 11.719750252655444 0  Z " stroke-width="0" stroke-dasharray="0" stroke="rgba(121, 121, 121, 1)" fill="none" transform="matrix(1 0 0 1 1218 409 )" class="stroke" mask="url(#Clip4466)" />
    <path d="M 7.229294212424953 15.15028004973974  L 12.86624029715773 15.15028004973974  L 10.095542102533692 6.783705128460565  L 7.229294212424953 15.15028004973974  Z " stroke-width="0" stroke-dasharray="0" stroke="rgba(121, 121, 121, 1)" fill="none" transform="matrix(1 0 0 1 1218 409 )" class="stroke" mask="url(#Clip4466)" />
  </g>
</svg>