<?xml version="1.0" encoding="utf-8"?>
<svg version="1.1" xmlns:xlink="http://www.w3.org/1999/xlink" width="54px" height="51px" xmlns="http://www.w3.org/2000/svg">
  <defs>
    <pattern id="BGPattern" patternUnits="userSpaceOnUse" alignment="0 0" imageRepeat="None" />
    <mask fill="white" id="Clip4416">
      <path d="M 21.059073487249133 6  L 21.059073487249133 0  L 45.02954445618094 0  L 45.02954445618094 6  L 21.059073487249133 6  Z M 19.797468940194154 22  L 19.797468940194154 18  L 46 18  L 46 22  L 19.797468940194154 22  Z M 35 42.66518505945877  L 35 2.43937468396505  L 41 2.43937468396505  L 41 42.66518505945877  L 35 42.66518505945877  Z M 24.455698740841342 18.749720298018747  C 24.455698740841342 18.749720298018747  24.455698740841342 2.5828722317106374  24.455698740841342 2.5828722317106374  L 29.890297604077595 2.5828722317106374  C 29.890297604077595 2.5828722317106374  29.890297604077595 18.797547745587885  29.890297604077595 18.797547745587885  C 29.890297604077595 20.774559075993366  29.8094275941854 22.863178237523915  29.647683718122828 25.06339952829021  C 29.48593984206026 27.231734903695532  29.162452089935115 29.40006885362852  28.677220461747396 31.5684037538764  C 28.224337223144378 33.70485131329097  27.54501332930939 35.76158182730524  26.639246852103348 37.73859303892136  C 25.765828764482 39.71560425053748  24.56892196066596 41.46941072852465  23.04852740472478 43  C 22.725039652599634 42.64923996356979  22.30450383951176 42.26658450862974  21.7869228576698 41.85205002811164  C 21.26934187582784 41.43751531001482  20.719408648123 41.02297976039247  20.1371299230421 40.608445161085  C 19.587200551615446 40.225797783821484  19.101973743775464 39.922873747794384  18.68143889475714 39.69966283711868  C 19.975391831396813 38.296622691397836  20.994372851801554 36.73414370330197  21.738395452945024 35.01223086198422  C 22.51476644367319 33.29031778308775  23.097049025032273 31.488683501163365  23.485235484465903 29.607333955679085  C 23.873420015760445 27.694097306940215  24.1322090605771 25.81275465123886  24.26160454705498 23.963292209009165  C 24.39100003353285 22.11383024193691  24.455698740841342 20.375971354415295  24.455698740841342 18.749720298018747  Z M 1.0189906611002129 6  L 1.0189906611002129 0  L 18.72995858692554 0  L 18.72995858692554 6  L 1.0189906611002129 6  Z M 6.50210921650487 19.802000169730658  L 6.50210921650487 15  L 19 15  L 19 36  L 6.50210921650487 36  L 6.50210921650487 31.807556196760267  L 14 31.807556196760267  L 14 19.802000169730658  L 6.50210921650487 19.802000169730658  Z M 4.172994316181279 12.914345953515017  C 5.240504910467281 9.629955074416285  6.081575813590866 6.170185483785418  6.696203410291233 2.535037181622413  C 6.696203410291233 2.535037181622413  11.936708079741127 3.682979550991687  11.936708079741127 3.682979550991687  C 11.354429354660228 6.712269802794191  10.610406271481985 9.725623273962963  9.704640276310716 12.723028560719376  C 8.7988733170699 15.720431946846015  7.715193107321898 18.52651033765793  6.4535895243364685 21.14126753441466  C 5.191986182368425 23.756023780856506  3.7201115596130307 26.051902342548292  2.0379736096440486 28.028914148111216  C 1.973275986913804 27.51871764509319  1.827707149204433 26.83314575664513  1.6012655299029221 25.972189454775616  C 1.3748237900927183 25.111232677748664  1.1160357093456064 24.250274000091935  0.8248964673138507 23.38931722306498  C 0.5337572252820951 22.496473580362164  0.25879043066663315 21.779013400765912  0 21.23693003207202  C 1.7144868215884514 18.972933109324224  3.105483721895277 16.198734931983974  4.172994316181279 12.914345953515017  Z M 4 40.36930032072023  L 4 14.731925806485833  L 9 14.731925806485833  L 9 40.36930032072023  L 4 40.36930032072023  Z " fill-rule="evenodd" />
    </mask>
  </defs>
  <g transform="matrix(1 0 0 1 -234 -379 )">
    <path d="M 21.059073487249133 6  L 21.059073487249133 0  L 45.02954445618094 0  L 45.02954445618094 6  L 21.059073487249133 6  Z M 19.797468940194154 22  L 19.797468940194154 18  L 46 18  L 46 22  L 19.797468940194154 22  Z M 35 42.66518505945877  L 35 2.43937468396505  L 41 2.43937468396505  L 41 42.66518505945877  L 35 42.66518505945877  Z M 24.455698740841342 18.749720298018747  C 24.455698740841342 18.749720298018747  24.455698740841342 2.5828722317106374  24.455698740841342 2.5828722317106374  L 29.890297604077595 2.5828722317106374  C 29.890297604077595 2.5828722317106374  29.890297604077595 18.797547745587885  29.890297604077595 18.797547745587885  C 29.890297604077595 20.774559075993366  29.8094275941854 22.863178237523915  29.647683718122828 25.06339952829021  C 29.48593984206026 27.231734903695532  29.162452089935115 29.40006885362852  28.677220461747396 31.5684037538764  C 28.224337223144378 33.70485131329097  27.54501332930939 35.76158182730524  26.639246852103348 37.73859303892136  C 25.765828764482 39.71560425053748  24.56892196066596 41.46941072852465  23.04852740472478 43  C 22.725039652599634 42.64923996356979  22.30450383951176 42.26658450862974  21.7869228576698 41.85205002811164  C 21.26934187582784 41.43751531001482  20.719408648123 41.02297976039247  20.1371299230421 40.608445161085  C 19.587200551615446 40.225797783821484  19.101973743775464 39.922873747794384  18.68143889475714 39.69966283711868  C 19.975391831396813 38.296622691397836  20.994372851801554 36.73414370330197  21.738395452945024 35.01223086198422  C 22.51476644367319 33.29031778308775  23.097049025032273 31.488683501163365  23.485235484465903 29.607333955679085  C 23.873420015760445 27.694097306940215  24.1322090605771 25.81275465123886  24.26160454705498 23.963292209009165  C 24.39100003353285 22.11383024193691  24.455698740841342 20.375971354415295  24.455698740841342 18.749720298018747  Z M 1.0189906611002129 6  L 1.0189906611002129 0  L 18.72995858692554 0  L 18.72995858692554 6  L 1.0189906611002129 6  Z M 6.50210921650487 19.802000169730658  L 6.50210921650487 15  L 19 15  L 19 36  L 6.50210921650487 36  L 6.50210921650487 31.807556196760267  L 14 31.807556196760267  L 14 19.802000169730658  L 6.50210921650487 19.802000169730658  Z M 4.172994316181279 12.914345953515017  C 5.240504910467281 9.629955074416285  6.081575813590866 6.170185483785418  6.696203410291233 2.535037181622413  C 6.696203410291233 2.535037181622413  11.936708079741127 3.682979550991687  11.936708079741127 3.682979550991687  C 11.354429354660228 6.712269802794191  10.610406271481985 9.725623273962963  9.704640276310716 12.723028560719376  C 8.7988733170699 15.720431946846015  7.715193107321898 18.52651033765793  6.4535895243364685 21.14126753441466  C 5.191986182368425 23.756023780856506  3.7201115596130307 26.051902342548292  2.0379736096440486 28.028914148111216  C 1.973275986913804 27.51871764509319  1.827707149204433 26.83314575664513  1.6012655299029221 25.972189454775616  C 1.3748237900927183 25.111232677748664  1.1160357093456064 24.250274000091935  0.8248964673138507 23.38931722306498  C 0.5337572252820951 22.496473580362164  0.25879043066663315 21.779013400765912  0 21.23693003207202  C 1.7144868215884514 18.972933109324224  3.105483721895277 16.198734931983974  4.172994316181279 12.914345953515017  Z M 4 40.36930032072023  L 4 14.731925806485833  L 9 14.731925806485833  L 9 40.36930032072023  L 4 40.36930032072023  Z " fill-rule="nonzero" fill="rgba(63, 66, 124, 1)" stroke="none" transform="matrix(1 0 0 1 238 379 )" class="fill" />
    <path d="M 21.059073487249133 6  L 21.059073487249133 0  L 45.02954445618094 0  L 45.02954445618094 6  L 21.059073487249133 6  Z " stroke-width="0" stroke-dasharray="0" stroke="rgba(121, 121, 121, 1)" fill="none" transform="matrix(1 0 0 1 238 379 )" class="stroke" mask="url(#Clip4416)" />
    <path d="M 19.797468940194154 22  L 19.797468940194154 18  L 46 18  L 46 22  L 19.797468940194154 22  Z " stroke-width="0" stroke-dasharray="0" stroke="rgba(121, 121, 121, 1)" fill="none" transform="matrix(1 0 0 1 238 379 )" class="stroke" mask="url(#Clip4416)" />
    <path d="M 35 42.66518505945877  L 35 2.43937468396505  L 41 2.43937468396505  L 41 42.66518505945877  L 35 42.66518505945877  Z " stroke-width="0" stroke-dasharray="0" stroke="rgba(121, 121, 121, 1)" fill="none" transform="matrix(1 0 0 1 238 379 )" class="stroke" mask="url(#Clip4416)" />
    <path d="M 24.455698740841342 18.749720298018747  C 24.455698740841342 18.749720298018747  24.455698740841342 2.5828722317106374  24.455698740841342 2.5828722317106374  L 29.890297604077595 2.5828722317106374  C 29.890297604077595 2.5828722317106374  29.890297604077595 18.797547745587885  29.890297604077595 18.797547745587885  C 29.890297604077595 20.774559075993366  29.8094275941854 22.863178237523915  29.647683718122828 25.06339952829021  C 29.48593984206026 27.231734903695532  29.162452089935115 29.40006885362852  28.677220461747396 31.5684037538764  C 28.224337223144378 33.70485131329097  27.54501332930939 35.76158182730524  26.639246852103348 37.73859303892136  C 25.765828764482 39.71560425053748  24.56892196066596 41.46941072852465  23.04852740472478 43  C 22.725039652599634 42.64923996356979  22.30450383951176 42.26658450862974  21.7869228576698 41.85205002811164  C 21.26934187582784 41.43751531001482  20.719408648123 41.02297976039247  20.1371299230421 40.608445161085  C 19.587200551615446 40.225797783821484  19.101973743775464 39.922873747794384  18.68143889475714 39.69966283711868  C 19.975391831396813 38.296622691397836  20.994372851801554 36.73414370330197  21.738395452945024 35.01223086198422  C 22.51476644367319 33.29031778308775  23.097049025032273 31.488683501163365  23.485235484465903 29.607333955679085  C 23.873420015760445 27.694097306940215  24.1322090605771 25.81275465123886  24.26160454705498 23.963292209009165  C 24.39100003353285 22.11383024193691  24.455698740841342 20.375971354415295  24.455698740841342 18.749720298018747  Z " stroke-width="0" stroke-dasharray="0" stroke="rgba(121, 121, 121, 1)" fill="none" transform="matrix(1 0 0 1 238 379 )" class="stroke" mask="url(#Clip4416)" />
    <path d="M 1.0189906611002129 6  L 1.0189906611002129 0  L 18.72995858692554 0  L 18.72995858692554 6  L 1.0189906611002129 6  Z " stroke-width="0" stroke-dasharray="0" stroke="rgba(121, 121, 121, 1)" fill="none" transform="matrix(1 0 0 1 238 379 )" class="stroke" mask="url(#Clip4416)" />
    <path d="M 6.50210921650487 19.802000169730658  L 6.50210921650487 15  L 19 15  L 19 36  L 6.50210921650487 36  L 6.50210921650487 31.807556196760267  L 14 31.807556196760267  L 14 19.802000169730658  L 6.50210921650487 19.802000169730658  Z " stroke-width="0" stroke-dasharray="0" stroke="rgba(121, 121, 121, 1)" fill="none" transform="matrix(1 0 0 1 238 379 )" class="stroke" mask="url(#Clip4416)" />
    <path d="M 4.172994316181279 12.914345953515017  C 5.240504910467281 9.629955074416285  6.081575813590866 6.170185483785418  6.696203410291233 2.535037181622413  C 6.696203410291233 2.535037181622413  11.936708079741127 3.682979550991687  11.936708079741127 3.682979550991687  C 11.354429354660228 6.712269802794191  10.610406271481985 9.725623273962963  9.704640276310716 12.723028560719376  C 8.7988733170699 15.720431946846015  7.715193107321898 18.52651033765793  6.4535895243364685 21.14126753441466  C 5.191986182368425 23.756023780856506  3.7201115596130307 26.051902342548292  2.0379736096440486 28.028914148111216  C 1.973275986913804 27.51871764509319  1.827707149204433 26.83314575664513  1.6012655299029221 25.972189454775616  C 1.3748237900927183 25.111232677748664  1.1160357093456064 24.250274000091935  0.8248964673138507 23.38931722306498  C 0.5337572252820951 22.496473580362164  0.25879043066663315 21.779013400765912  0 21.23693003207202  C 1.7144868215884514 18.972933109324224  3.105483721895277 16.198734931983974  4.172994316181279 12.914345953515017  Z " stroke-width="0" stroke-dasharray="0" stroke="rgba(121, 121, 121, 1)" fill="none" transform="matrix(1 0 0 1 238 379 )" class="stroke" mask="url(#Clip4416)" />
    <path d="M 4 40.36930032072023  L 4 14.731925806485833  L 9 14.731925806485833  L 9 40.36930032072023  L 4 40.36930032072023  Z " stroke-width="0" stroke-dasharray="0" stroke="rgba(121, 121, 121, 1)" fill="none" transform="matrix(1 0 0 1 238 379 )" class="stroke" mask="url(#Clip4416)" />
  </g>
  <style>svg { filter: drop-shadow(0px 4px 2px rgba(0, 0, 0, 0.12941176470588237)); }</style>
</svg>