<?xml version="1.0" encoding="utf-8"?>
<svg version="1.1" xmlns:xlink="http://www.w3.org/1999/xlink" width="6px" height="23px" xmlns="http://www.w3.org/2000/svg">
  <defs>
    <pattern id="BGPattern" patternUnits="userSpaceOnUse" alignment="0 0" imageRepeat="None" />
    <mask fill="white" id="Clip4515">
      <path d="M 0.5560028671582731 15.921223053533302  C 0.18534686969158412 14.536069261493676  0 13.062332163724726  0 11.500007680147887  C 0 9.921576966435081  0.18534686969158412 8.44783962866151  0.5560028671582731 7.0787923067624705  C 0.9421026727413764 5.7097454648726735  1.4826359568158833 4.437329283669268  2.1776165274000174 3.2615591234480257  C 2.872597097984152 2.0696827330908185  3.683396563828638 0.9824934785526862  4.610037017762634 0  C 4.610037017762634 0  6 0.748952661571946  6 0.748952661571946  C 5.119690970415247 1.6992327198342156  4.355206359298135 2.73810616401991  3.7065581335977926 3.8655566738147695  C 3.05790990789745 4.976900953473664  2.555982001708512 6.16876390357207  2.2007698123582378 7.44117240462759  C 1.8610014311243779 8.697474675547143  1.6911324293274943 10.050428247550535  1.6911324293274943 11.500007680147887  C 1.6911324293274943 12.933480882609272  1.8610014311243779 14.28641909431689  2.2007698123582378 15.55882759537241  C 2.555982001708512 16.83123633643255  3.05790990789745 18.02311452682442  3.7065581335977926 19.134458686481004  C 4.355206359298135 20.245802966139898  5.119690970415247 21.284660990028662  6 22.251047338428055  C 6 22.251047338428055  4.610037017762634 23  4.610037017762634 23  C 3.683396563828638 22.001400891322902  2.872597097984152 20.914210796768593  2.1776165274000174 19.738440876551973  C 1.4826359568158833 18.562670836333044  0.9421026727413764 17.290270375432343  0.5560028671582731 15.921223053533302  Z " fill-rule="evenodd" />
    </mask>
  </defs>
  <g transform="matrix(1 0 0 1 -566 -611 )">
    <path d="M 0.5560028671582731 15.921223053533302  C 0.18534686969158412 14.536069261493676  0 13.062332163724726  0 11.500007680147887  C 0 9.921576966435081  0.18534686969158412 8.44783962866151  0.5560028671582731 7.0787923067624705  C 0.9421026727413764 5.7097454648726735  1.4826359568158833 4.437329283669268  2.1776165274000174 3.2615591234480257  C 2.872597097984152 2.0696827330908185  3.683396563828638 0.9824934785526862  4.610037017762634 0  C 4.610037017762634 0  6 0.748952661571946  6 0.748952661571946  C 5.119690970415247 1.6992327198342156  4.355206359298135 2.73810616401991  3.7065581335977926 3.8655566738147695  C 3.05790990789745 4.976900953473664  2.555982001708512 6.16876390357207  2.2007698123582378 7.44117240462759  C 1.8610014311243779 8.697474675547143  1.6911324293274943 10.050428247550535  1.6911324293274943 11.500007680147887  C 1.6911324293274943 12.933480882609272  1.8610014311243779 14.28641909431689  2.2007698123582378 15.55882759537241  C 2.555982001708512 16.83123633643255  3.05790990789745 18.02311452682442  3.7065581335977926 19.134458686481004  C 4.355206359298135 20.245802966139898  5.119690970415247 21.284660990028662  6 22.251047338428055  C 6 22.251047338428055  4.610037017762634 23  4.610037017762634 23  C 3.683396563828638 22.001400891322902  2.872597097984152 20.914210796768593  2.1776165274000174 19.738440876551973  C 1.4826359568158833 18.562670836333044  0.9421026727413764 17.290270375432343  0.5560028671582731 15.921223053533302  Z " fill-rule="nonzero" fill="rgba(0, 0, 0, 1)" stroke="none" transform="matrix(1 0 0 1 566 611 )" class="fill" />
    <path d="M 0.5560028671582731 15.921223053533302  C 0.18534686969158412 14.536069261493676  0 13.062332163724726  0 11.500007680147887  C 0 9.921576966435081  0.18534686969158412 8.44783962866151  0.5560028671582731 7.0787923067624705  C 0.9421026727413764 5.7097454648726735  1.4826359568158833 4.437329283669268  2.1776165274000174 3.2615591234480257  C 2.872597097984152 2.0696827330908185  3.683396563828638 0.9824934785526862  4.610037017762634 0  C 4.610037017762634 0  6 0.748952661571946  6 0.748952661571946  C 5.119690970415247 1.6992327198342156  4.355206359298135 2.73810616401991  3.7065581335977926 3.8655566738147695  C 3.05790990789745 4.976900953473664  2.555982001708512 6.16876390357207  2.2007698123582378 7.44117240462759  C 1.8610014311243779 8.697474675547143  1.6911324293274943 10.050428247550535  1.6911324293274943 11.500007680147887  C 1.6911324293274943 12.933480882609272  1.8610014311243779 14.28641909431689  2.2007698123582378 15.55882759537241  C 2.555982001708512 16.83123633643255  3.05790990789745 18.02311452682442  3.7065581335977926 19.134458686481004  C 4.355206359298135 20.245802966139898  5.119690970415247 21.284660990028662  6 22.251047338428055  C 6 22.251047338428055  4.610037017762634 23  4.610037017762634 23  C 3.683396563828638 22.001400891322902  2.872597097984152 20.914210796768593  2.1776165274000174 19.738440876551973  C 1.4826359568158833 18.562670836333044  0.9421026727413764 17.290270375432343  0.5560028671582731 15.921223053533302  Z " stroke-width="0" stroke-dasharray="0" stroke="rgba(121, 121, 121, 1)" fill="none" transform="matrix(1 0 0 1 566 611 )" class="stroke" mask="url(#Clip4515)" />
  </g>
</svg>