<?xml version="1.0" encoding="utf-8"?>
<svg version="1.1" xmlns:xlink="http://www.w3.org/1999/xlink" width="22px" height="22px" xmlns="http://www.w3.org/2000/svg">
  <defs>
    <pattern id="BGPattern" patternUnits="userSpaceOnUse" alignment="0 0" imageRepeat="None" />
    <mask fill="white" id="Clip4527">
      <path d="M 14.494120198989819 20.880542440970302  L 14.494120198989819 11.121684205788299  L 16.23529743755729 11.121684205788299  L 16.23529743755729 20.880542440970302  L 14.494120198989819 20.880542440970302  Z M 9.341175334618951 12  L 9.341175334618951 10.464609608902085  L 21.482353117171712 10.464609608902085  L 21.482353117171712 12  L 9.341175334618951 12  Z M 8.305881568962375 21  L 8.305881568962375 19.785407797764773  L 22 19.785407797764773  L 22 21  L 8.305881568962375 21  Z M 9.882353661157001 16.597357421815936  L 9.882353661157001 15  L 20.964706234343424 15  L 20.964706234343424 16.597357421815936  L 9.882353661157001 16.597357421815936  Z M 18.96470555436181 2.2632844516618618  L 11.858822897428855 2.2632844516618618  L 11.858822897428855 6.741161105558951  L 18.96470555436181 6.741161105558951  L 18.96470555436181 2.2632844516618618  Z M 10.211763953902686 8.323017099324902  L 10.211763953902686 1  L 20.682358829017264 1  L 20.682358829017264 8.323017099324902  L 10.211763953902686 8.323017099324902  Z M 4.329411652708911 22  L 4.329411652708911 1.6792095474336948  L 6 1.6792095474336948  L 6 22  L 4.329411652708911 22  Z M 0.4941229189162725 8.22566354565716  L 0.4941229189162725 6.522131082399293  L 9.011765041873268 6.522131082399293  L 9.011765041873268 8.22566354565716  L 0.4941229189162725 8.22566354565716  Z M 3.6235356595957646 9.539828212022345  C 3.952947354803526 8.712394566588062  4.2196084555373625 7.925518454935018  4.423529947750213 7.179205679285504  C 4.423529947750213 7.179205679285504  5.529410564738329 7.665927029845927  5.529410564738329 7.665927029845927  C 5.294116463340831 8.525809119897826  5.003927425052426 9.418154160123049  4.658829425252342 10.342933139410171  C 4.313731425452255 11.251487654629223  3.937260582723843 12.16003008188518  3.5294173645544626 13.068585080622757  C 3.137260684721085 13.960915373533005  2.71372613647027 14.804575417109453  2.258824121395757 15.599560859685386  C 1.819608410913569 16.37832183819325  1.3725534049059314 17.043516040770985  0.9176515067032587 17.595138511353717  C 0.8235339128929953 17.35177566024015  0.682358223408639 17.067856121502757  0.4941229189162725 16.743372279724785  C 0.3215739190162298 16.418888558826445  0.15686275374363876 16.143067592724787  0 15.915928963920024  C 0.4392156520462687 15.429203261692884  0.8705878011808561 14.845135852001837  1.2941172070707208 14.163719723828287  C 1.7176466129605856 13.482303837413996  2.1254907661046842 12.74411272240973  2.5176475628099015 11.94912752159306  C 2.9254907809792825 11.154142320776387  3.294123964388003 10.351037876907085  3.6235356595957646 9.539828212022345  Z M 5.717647154820933 0.8031049273878255  C 6.54901919452098 0.5435183374839735  7.254905004868668 0.2758115374904439  7.835297573553611 0  C 7.835297573553611 0  9.058827929292791 1.411502747440165  9.058827929292791 1.411502747440165  C 8.337259320507973 1.7035372984431054  7.513725641358658 1.9793585063040267  6.588235774104668 2.238946063244926  C 5.662745439363319 2.498532653148778  4.7058817942062845 2.7256683808423983  3.71764647483932 2.9203590485480735  C 2.7450975769365193 3.098824768667156  1.7960787202814037 3.2529482322211116  0.8705886192837345 3.3827420106915618  C 0.839216010099087 3.188051342985887  0.7686319636917018 2.9609156152922664  0.6588280652891146 2.701329025388415  C 0.5490241668865274 2.425517487897971  0.44705938870162953 2.190267352336959  0.35294173645544624 1.9955776516683321  C 1.2313730989839036 1.8333359120987938  2.133335788350283 1.654870191979711  3.058825889347952 1.4601795242740367  C 4.000002294937945 1.2654888565683617  4.886274413889848 1.046467536742133  5.717647154820933 0.8031049273878255  Z M 5.152944864370867 10.391594443651279  C 5.152944864370867 10.391594443651279  5.976470596235078 9.637166293097325  5.976470596235078 9.637166293097325  C 6.133333642158316 9.783183568598794  6.360783539413094 10.01844917675257  6.658822625436208 10.342933139410171  C 6.9725482497953255 10.651192637999703  7.309808590275718 10.991896229540133  7.670592427180769 11.36505261736489  C 8.031376731573179 11.721985024640103  8.352946326331336 12.062688132662009  8.635299341505805 12.387172095319611  C 8.933338895016279 12.711655574458687  9.14509851403618 12.946905710019701  9.270588483287412 13.092923469039695  C 9.270588483287412 13.092923469039695  8.211763273921072 14.528764604896793  8.211763273921072 14.528764604896793  C 8.070587233821197 14.285401753783225  7.8666725201750545 13.97713959584181  7.600005575849229 13.603983208017054  C 7.349025169859407 13.230826820192297  7.066666077349268 12.833339296728461  6.75294092047751 12.411510483736548  C 6.439215296118393 11.989681670744632  6.14118135245623 11.600293082555424  5.85882833728176 11.243360675280213  C 5.57647532210729 10.886428751523523  5.341180051991394 10.602509091906498  5.152944864370867 10.391594443651279  Z " fill-rule="evenodd" />
    </mask>
  </defs>
  <g transform="matrix(1 0 0 1 -238 -612 )">
    <path d="M 14.494120198989819 20.880542440970302  L 14.494120198989819 11.121684205788299  L 16.23529743755729 11.121684205788299  L 16.23529743755729 20.880542440970302  L 14.494120198989819 20.880542440970302  Z M 9.341175334618951 12  L 9.341175334618951 10.464609608902085  L 21.482353117171712 10.464609608902085  L 21.482353117171712 12  L 9.341175334618951 12  Z M 8.305881568962375 21  L 8.305881568962375 19.785407797764773  L 22 19.785407797764773  L 22 21  L 8.305881568962375 21  Z M 9.882353661157001 16.597357421815936  L 9.882353661157001 15  L 20.964706234343424 15  L 20.964706234343424 16.597357421815936  L 9.882353661157001 16.597357421815936  Z M 18.96470555436181 2.2632844516618618  L 11.858822897428855 2.2632844516618618  L 11.858822897428855 6.741161105558951  L 18.96470555436181 6.741161105558951  L 18.96470555436181 2.2632844516618618  Z M 10.211763953902686 8.323017099324902  L 10.211763953902686 1  L 20.682358829017264 1  L 20.682358829017264 8.323017099324902  L 10.211763953902686 8.323017099324902  Z M 4.329411652708911 22  L 4.329411652708911 1.6792095474336948  L 6 1.6792095474336948  L 6 22  L 4.329411652708911 22  Z M 0.4941229189162725 8.22566354565716  L 0.4941229189162725 6.522131082399293  L 9.011765041873268 6.522131082399293  L 9.011765041873268 8.22566354565716  L 0.4941229189162725 8.22566354565716  Z M 3.6235356595957646 9.539828212022345  C 3.952947354803526 8.712394566588062  4.2196084555373625 7.925518454935018  4.423529947750213 7.179205679285504  C 4.423529947750213 7.179205679285504  5.529410564738329 7.665927029845927  5.529410564738329 7.665927029845927  C 5.294116463340831 8.525809119897826  5.003927425052426 9.418154160123049  4.658829425252342 10.342933139410171  C 4.313731425452255 11.251487654629223  3.937260582723843 12.16003008188518  3.5294173645544626 13.068585080622757  C 3.137260684721085 13.960915373533005  2.71372613647027 14.804575417109453  2.258824121395757 15.599560859685386  C 1.819608410913569 16.37832183819325  1.3725534049059314 17.043516040770985  0.9176515067032587 17.595138511353717  C 0.8235339128929953 17.35177566024015  0.682358223408639 17.067856121502757  0.4941229189162725 16.743372279724785  C 0.3215739190162298 16.418888558826445  0.15686275374363876 16.143067592724787  0 15.915928963920024  C 0.4392156520462687 15.429203261692884  0.8705878011808561 14.845135852001837  1.2941172070707208 14.163719723828287  C 1.7176466129605856 13.482303837413996  2.1254907661046842 12.74411272240973  2.5176475628099015 11.94912752159306  C 2.9254907809792825 11.154142320776387  3.294123964388003 10.351037876907085  3.6235356595957646 9.539828212022345  Z M 5.717647154820933 0.8031049273878255  C 6.54901919452098 0.5435183374839735  7.254905004868668 0.2758115374904439  7.835297573553611 0  C 7.835297573553611 0  9.058827929292791 1.411502747440165  9.058827929292791 1.411502747440165  C 8.337259320507973 1.7035372984431054  7.513725641358658 1.9793585063040267  6.588235774104668 2.238946063244926  C 5.662745439363319 2.498532653148778  4.7058817942062845 2.7256683808423983  3.71764647483932 2.9203590485480735  C 2.7450975769365193 3.098824768667156  1.7960787202814037 3.2529482322211116  0.8705886192837345 3.3827420106915618  C 0.839216010099087 3.188051342985887  0.7686319636917018 2.9609156152922664  0.6588280652891146 2.701329025388415  C 0.5490241668865274 2.425517487897971  0.44705938870162953 2.190267352336959  0.35294173645544624 1.9955776516683321  C 1.2313730989839036 1.8333359120987938  2.133335788350283 1.654870191979711  3.058825889347952 1.4601795242740367  C 4.000002294937945 1.2654888565683617  4.886274413889848 1.046467536742133  5.717647154820933 0.8031049273878255  Z M 5.152944864370867 10.391594443651279  C 5.152944864370867 10.391594443651279  5.976470596235078 9.637166293097325  5.976470596235078 9.637166293097325  C 6.133333642158316 9.783183568598794  6.360783539413094 10.01844917675257  6.658822625436208 10.342933139410171  C 6.9725482497953255 10.651192637999703  7.309808590275718 10.991896229540133  7.670592427180769 11.36505261736489  C 8.031376731573179 11.721985024640103  8.352946326331336 12.062688132662009  8.635299341505805 12.387172095319611  C 8.933338895016279 12.711655574458687  9.14509851403618 12.946905710019701  9.270588483287412 13.092923469039695  C 9.270588483287412 13.092923469039695  8.211763273921072 14.528764604896793  8.211763273921072 14.528764604896793  C 8.070587233821197 14.285401753783225  7.8666725201750545 13.97713959584181  7.600005575849229 13.603983208017054  C 7.349025169859407 13.230826820192297  7.066666077349268 12.833339296728461  6.75294092047751 12.411510483736548  C 6.439215296118393 11.989681670744632  6.14118135245623 11.600293082555424  5.85882833728176 11.243360675280213  C 5.57647532210729 10.886428751523523  5.341180051991394 10.602509091906498  5.152944864370867 10.391594443651279  Z " fill-rule="nonzero" fill="rgba(0, 0, 0, 1)" stroke="none" transform="matrix(1 0 0 1 238 612 )" class="fill" />
    <path d="M 14.494120198989819 20.880542440970302  L 14.494120198989819 11.121684205788299  L 16.23529743755729 11.121684205788299  L 16.23529743755729 20.880542440970302  L 14.494120198989819 20.880542440970302  Z " stroke-width="0" stroke-dasharray="0" stroke="rgba(121, 121, 121, 1)" fill="none" transform="matrix(1 0 0 1 238 612 )" class="stroke" mask="url(#Clip4527)" />
    <path d="M 9.341175334618951 12  L 9.341175334618951 10.464609608902085  L 21.482353117171712 10.464609608902085  L 21.482353117171712 12  L 9.341175334618951 12  Z " stroke-width="0" stroke-dasharray="0" stroke="rgba(121, 121, 121, 1)" fill="none" transform="matrix(1 0 0 1 238 612 )" class="stroke" mask="url(#Clip4527)" />
    <path d="M 8.305881568962375 21  L 8.305881568962375 19.785407797764773  L 22 19.785407797764773  L 22 21  L 8.305881568962375 21  Z " stroke-width="0" stroke-dasharray="0" stroke="rgba(121, 121, 121, 1)" fill="none" transform="matrix(1 0 0 1 238 612 )" class="stroke" mask="url(#Clip4527)" />
    <path d="M 9.882353661157001 16.597357421815936  L 9.882353661157001 15  L 20.964706234343424 15  L 20.964706234343424 16.597357421815936  L 9.882353661157001 16.597357421815936  Z " stroke-width="0" stroke-dasharray="0" stroke="rgba(121, 121, 121, 1)" fill="none" transform="matrix(1 0 0 1 238 612 )" class="stroke" mask="url(#Clip4527)" />
    <path d="M 18.96470555436181 2.2632844516618618  L 11.858822897428855 2.2632844516618618  L 11.858822897428855 6.741161105558951  L 18.96470555436181 6.741161105558951  L 18.96470555436181 2.2632844516618618  Z " stroke-width="0" stroke-dasharray="0" stroke="rgba(121, 121, 121, 1)" fill="none" transform="matrix(1 0 0 1 238 612 )" class="stroke" mask="url(#Clip4527)" />
    <path d="M 10.211763953902686 8.323017099324902  L 10.211763953902686 1  L 20.682358829017264 1  L 20.682358829017264 8.323017099324902  L 10.211763953902686 8.323017099324902  Z " stroke-width="0" stroke-dasharray="0" stroke="rgba(121, 121, 121, 1)" fill="none" transform="matrix(1 0 0 1 238 612 )" class="stroke" mask="url(#Clip4527)" />
    <path d="M 4.329411652708911 22  L 4.329411652708911 1.6792095474336948  L 6 1.6792095474336948  L 6 22  L 4.329411652708911 22  Z " stroke-width="0" stroke-dasharray="0" stroke="rgba(121, 121, 121, 1)" fill="none" transform="matrix(1 0 0 1 238 612 )" class="stroke" mask="url(#Clip4527)" />
    <path d="M 0.4941229189162725 8.22566354565716  L 0.4941229189162725 6.522131082399293  L 9.011765041873268 6.522131082399293  L 9.011765041873268 8.22566354565716  L 0.4941229189162725 8.22566354565716  Z " stroke-width="0" stroke-dasharray="0" stroke="rgba(121, 121, 121, 1)" fill="none" transform="matrix(1 0 0 1 238 612 )" class="stroke" mask="url(#Clip4527)" />
    <path d="M 3.6235356595957646 9.539828212022345  C 3.952947354803526 8.712394566588062  4.2196084555373625 7.925518454935018  4.423529947750213 7.179205679285504  C 4.423529947750213 7.179205679285504  5.529410564738329 7.665927029845927  5.529410564738329 7.665927029845927  C 5.294116463340831 8.525809119897826  5.003927425052426 9.418154160123049  4.658829425252342 10.342933139410171  C 4.313731425452255 11.251487654629223  3.937260582723843 12.16003008188518  3.5294173645544626 13.068585080622757  C 3.137260684721085 13.960915373533005  2.71372613647027 14.804575417109453  2.258824121395757 15.599560859685386  C 1.819608410913569 16.37832183819325  1.3725534049059314 17.043516040770985  0.9176515067032587 17.595138511353717  C 0.8235339128929953 17.35177566024015  0.682358223408639 17.067856121502757  0.4941229189162725 16.743372279724785  C 0.3215739190162298 16.418888558826445  0.15686275374363876 16.143067592724787  0 15.915928963920024  C 0.4392156520462687 15.429203261692884  0.8705878011808561 14.845135852001837  1.2941172070707208 14.163719723828287  C 1.7176466129605856 13.482303837413996  2.1254907661046842 12.74411272240973  2.5176475628099015 11.94912752159306  C 2.9254907809792825 11.154142320776387  3.294123964388003 10.351037876907085  3.6235356595957646 9.539828212022345  Z " stroke-width="0" stroke-dasharray="0" stroke="rgba(121, 121, 121, 1)" fill="none" transform="matrix(1 0 0 1 238 612 )" class="stroke" mask="url(#Clip4527)" />
    <path d="M 5.717647154820933 0.8031049273878255  C 6.54901919452098 0.5435183374839735  7.254905004868668 0.2758115374904439  7.835297573553611 0  C 7.835297573553611 0  9.058827929292791 1.411502747440165  9.058827929292791 1.411502747440165  C 8.337259320507973 1.7035372984431054  7.513725641358658 1.9793585063040267  6.588235774104668 2.238946063244926  C 5.662745439363319 2.498532653148778  4.7058817942062845 2.7256683808423983  3.71764647483932 2.9203590485480735  C 2.7450975769365193 3.098824768667156  1.7960787202814037 3.2529482322211116  0.8705886192837345 3.3827420106915618  C 0.839216010099087 3.188051342985887  0.7686319636917018 2.9609156152922664  0.6588280652891146 2.701329025388415  C 0.5490241668865274 2.425517487897971  0.44705938870162953 2.190267352336959  0.35294173645544624 1.9955776516683321  C 1.2313730989839036 1.8333359120987938  2.133335788350283 1.654870191979711  3.058825889347952 1.4601795242740367  C 4.000002294937945 1.2654888565683617  4.886274413889848 1.046467536742133  5.717647154820933 0.8031049273878255  Z " stroke-width="0" stroke-dasharray="0" stroke="rgba(121, 121, 121, 1)" fill="none" transform="matrix(1 0 0 1 238 612 )" class="stroke" mask="url(#Clip4527)" />
    <path d="M 5.152944864370867 10.391594443651279  C 5.152944864370867 10.391594443651279  5.976470596235078 9.637166293097325  5.976470596235078 9.637166293097325  C 6.133333642158316 9.783183568598794  6.360783539413094 10.01844917675257  6.658822625436208 10.342933139410171  C 6.9725482497953255 10.651192637999703  7.309808590275718 10.991896229540133  7.670592427180769 11.36505261736489  C 8.031376731573179 11.721985024640103  8.352946326331336 12.062688132662009  8.635299341505805 12.387172095319611  C 8.933338895016279 12.711655574458687  9.14509851403618 12.946905710019701  9.270588483287412 13.092923469039695  C 9.270588483287412 13.092923469039695  8.211763273921072 14.528764604896793  8.211763273921072 14.528764604896793  C 8.070587233821197 14.285401753783225  7.8666725201750545 13.97713959584181  7.600005575849229 13.603983208017054  C 7.349025169859407 13.230826820192297  7.066666077349268 12.833339296728461  6.75294092047751 12.411510483736548  C 6.439215296118393 11.989681670744632  6.14118135245623 11.600293082555424  5.85882833728176 11.243360675280213  C 5.57647532210729 10.886428751523523  5.341180051991394 10.602509091906498  5.152944864370867 10.391594443651279  Z " stroke-width="0" stroke-dasharray="0" stroke="rgba(121, 121, 121, 1)" fill="none" transform="matrix(1 0 0 1 238 612 )" class="stroke" mask="url(#Clip4527)" />
  </g>
</svg>