<?xml version="1.0" encoding="utf-8"?>
<svg version="1.1" xmlns:xlink="http://www.w3.org/1999/xlink" width="17px" height="23px" xmlns="http://www.w3.org/2000/svg">
  <defs>
    <pattern id="BGPattern" patternUnits="userSpaceOnUse" alignment="0 0" imageRepeat="None" />
    <mask fill="white" id="Clip4473">
      <path d="M 17 0  L 17 23  L 13.132108372384394 23  L 4.335777305704196 8.883426041436277  L 4.335777305704196 23  L 0 23  L 0 0  L 3.867876753798073 0  L 12.664207820478271 14.08426907880186  L 12.664207820478271 0  L 17 0  Z " fill-rule="evenodd" />
    </mask>
  </defs>
  <g transform="matrix(1 0 0 1 -1251 -368 )">
    <path d="M 17 0  L 17 23  L 13.132108372384394 23  L 4.335777305704196 8.883426041436277  L 4.335777305704196 23  L 0 23  L 0 0  L 3.867876753798073 0  L 12.664207820478271 14.08426907880186  L 12.664207820478271 0  L 17 0  Z " fill-rule="nonzero" fill="rgba(255, 255, 255, 1)" stroke="none" transform="matrix(1 0 0 1 1251 368 )" class="fill" />
    <path d="M 17 0  L 17 23  L 13.132108372384394 23  L 4.335777305704196 8.883426041436277  L 4.335777305704196 23  L 0 23  L 0 0  L 3.867876753798073 0  L 12.664207820478271 14.08426907880186  L 12.664207820478271 0  L 17 0  Z " stroke-width="0" stroke-dasharray="0" stroke="rgba(121, 121, 121, 1)" fill="none" transform="matrix(1 0 0 1 1251 368 )" class="stroke" mask="url(#Clip4473)" />
  </g>
</svg>