<?xml version="1.0" encoding="utf-8"?>
<svg version="1.1" xmlns:xlink="http://www.w3.org/1999/xlink" width="22px" height="54px" xmlns="http://www.w3.org/2000/svg">
  <defs>
    <pattern id="BGPattern" patternUnits="userSpaceOnUse" alignment="0 0" imageRepeat="None" />
    <mask fill="white" id="Clip4427">
      <path d="M 14 38.89325762650625  L 14 46  C 14 46  9.415923191263332 46  9.415923191263332 46  C 2.7876061674436365 46  0 41.15449523656765  0 36.373596381797206  C 0 36.373596381797206  0 0  0 0  L 8.053087150403044 0  C 8.053087150403044 0  8.053087150403044 35.8567414107783  8.053087150403044 35.8567414107783  C 8.053087150403044 37.85955057261478  8.858396419291644 38.89325762650625  10.902644019018624 38.89325762650625  C 10.902644019018624 38.89325762650625  14 38.89325762650625  14 38.89325762650625  Z " fill-rule="evenodd" />
    </mask>
  </defs>
  <g transform="matrix(1 0 0 1 -379 -312 )">
    <path d="M 14 38.89325762650625  L 14 46  C 14 46  9.415923191263332 46  9.415923191263332 46  C 2.7876061674436365 46  0 41.15449523656765  0 36.373596381797206  C 0 36.373596381797206  0 0  0 0  L 8.053087150403044 0  C 8.053087150403044 0  8.053087150403044 35.8567414107783  8.053087150403044 35.8567414107783  C 8.053087150403044 37.85955057261478  8.858396419291644 38.89325762650625  10.902644019018624 38.89325762650625  C 10.902644019018624 38.89325762650625  14 38.89325762650625  14 38.89325762650625  Z " fill-rule="nonzero" fill="rgba(63, 66, 124, 1)" stroke="none" transform="matrix(1 0 0 1 383 312 )" class="fill" />
    <path d="M 14 38.89325762650625  L 14 46  C 14 46  9.415923191263332 46  9.415923191263332 46  C 2.7876061674436365 46  0 41.15449523656765  0 36.373596381797206  C 0 36.373596381797206  0 0  0 0  L 8.053087150403044 0  C 8.053087150403044 0  8.053087150403044 35.8567414107783  8.053087150403044 35.8567414107783  C 8.053087150403044 37.85955057261478  8.858396419291644 38.89325762650625  10.902644019018624 38.89325762650625  C 10.902644019018624 38.89325762650625  14 38.89325762650625  14 38.89325762650625  Z " stroke-width="0" stroke-dasharray="0" stroke="rgba(121, 121, 121, 1)" fill="none" transform="matrix(1 0 0 1 383 312 )" class="stroke" mask="url(#Clip4427)" />
  </g>
  <style>svg { filter: drop-shadow(0px 4px 2px rgba(0, 0, 0, 0.12941176470588237)); }</style>
</svg>