<?xml version="1.0" encoding="utf-8"?>
<svg version="1.1" xmlns:xlink="http://www.w3.org/1999/xlink" width="8px" height="12px" xmlns="http://www.w3.org/2000/svg">
  <defs>
    <pattern id="BGPattern" patternUnits="userSpaceOnUse" alignment="0 0" imageRepeat="None" />
    <mask fill="white" id="Clip4599">
      <path d="M 5.121953867028494 0  C 6.2682937584803256 0  7.146342556697034 0.2650604053546512  8 1.1084337695483477  C 8 1.1084337695483477  6.7073153711959685 2.409638046624235  6.7073153711959685 2.409638046624235  C 6.0487800445822835 1.7590361474623621  5.560966999418492 1.542168847741738  4.634138398914518 1.542168847741738  C 2.878042983136267 1.542168847741738  1.7560922659430123 2.9156623045165238  1.7560922659430123 4.7228908394847  C 1.7560922659430123 4.7228908394847  1.7560922659430123 12  1.7560922659430123 12  L 0 12  L 0 0.14457835939779684  L 1.7560922659430123 0.14457835939779684  C 1.7560922659430123 0.14457835939779684  1.7560922659430123 1.5903619533757651  1.7560922659430123 1.5903619533757651  C 2.414628319441752 0.6024099904082008  3.731711693157589 0  5.121953867028494 0  Z " fill-rule="evenodd" />
    </mask>
  </defs>
  <g transform="matrix(1 0 0 1 -595 -496 )">
    <path d="M 5.121953867028494 0  C 6.2682937584803256 0  7.146342556697034 0.2650604053546512  8 1.1084337695483477  C 8 1.1084337695483477  6.7073153711959685 2.409638046624235  6.7073153711959685 2.409638046624235  C 6.0487800445822835 1.7590361474623621  5.560966999418492 1.542168847741738  4.634138398914518 1.542168847741738  C 2.878042983136267 1.542168847741738  1.7560922659430123 2.9156623045165238  1.7560922659430123 4.7228908394847  C 1.7560922659430123 4.7228908394847  1.7560922659430123 12  1.7560922659430123 12  L 0 12  L 0 0.14457835939779684  L 1.7560922659430123 0.14457835939779684  C 1.7560922659430123 0.14457835939779684  1.7560922659430123 1.5903619533757651  1.7560922659430123 1.5903619533757651  C 2.414628319441752 0.6024099904082008  3.731711693157589 0  5.121953867028494 0  Z " fill-rule="nonzero" fill="rgba(0, 0, 0, 1)" stroke="none" transform="matrix(1 0 0 1 595 496 )" class="fill" />
    <path d="M 5.121953867028494 0  C 6.2682937584803256 0  7.146342556697034 0.2650604053546512  8 1.1084337695483477  C 8 1.1084337695483477  6.7073153711959685 2.409638046624235  6.7073153711959685 2.409638046624235  C 6.0487800445822835 1.7590361474623621  5.560966999418492 1.542168847741738  4.634138398914518 1.542168847741738  C 2.878042983136267 1.542168847741738  1.7560922659430123 2.9156623045165238  1.7560922659430123 4.7228908394847  C 1.7560922659430123 4.7228908394847  1.7560922659430123 12  1.7560922659430123 12  L 0 12  L 0 0.14457835939779684  L 1.7560922659430123 0.14457835939779684  C 1.7560922659430123 0.14457835939779684  1.7560922659430123 1.5903619533757651  1.7560922659430123 1.5903619533757651  C 2.414628319441752 0.6024099904082008  3.731711693157589 0  5.121953867028494 0  Z " stroke-width="0" stroke-dasharray="0" stroke="rgba(121, 121, 121, 1)" fill="none" transform="matrix(1 0 0 1 595 496 )" class="stroke" mask="url(#Clip4599)" />
  </g>
</svg>