<?xml version="1.0" encoding="utf-8"?>
<svg version="1.1" xmlns:xlink="http://www.w3.org/1999/xlink" width="8px" height="12px" xmlns="http://www.w3.org/2000/svg">
  <defs>
    <pattern id="BGPattern" patternUnits="userSpaceOnUse" alignment="0 0" imageRepeat="None" />
    <mask fill="white" id="Clip4553">
      <path d="M 5.121984880790851 0  C 6.268324772242683 0  7.146342556697034 0.26506042650435907  8 1.1084338579925284  C 8 1.1084338579925284  6.707346384958325 2.409636323885425  6.707346384958325 2.409636323885425  C 6.048811058344641 1.759034372810706  5.560966999418492 1.5421680132901605  4.634138398914518 1.5421680132901605  C 2.878042983136267 1.5421680132901605  1.7561232797053692 2.9156615796587775  1.7561232797053692 4.722890258829388  C 1.7561232797053692 4.722890258829388  1.7561232797053692 12  1.7561232797053692 12  L 0 12  L 0 0.14457932843835825  L 1.7561232797053692 0.14457932843835825  C 1.7561232797053692 0.14457932843835825  1.7561232797053692 1.5903611227696133  1.7561232797053692 1.5903611227696133  C 2.4146593332041095 0.6024090809713563  3.731742706919946 0  5.121984880790851 0  Z " fill-rule="evenodd" />
    </mask>
  </defs>
  <g transform="matrix(1 0 0 1 -824 -527 )">
    <path d="M 5.121984880790851 0  C 6.268324772242683 0  7.146342556697034 0.26506042650435907  8 1.1084338579925284  C 8 1.1084338579925284  6.707346384958325 2.409636323885425  6.707346384958325 2.409636323885425  C 6.048811058344641 1.759034372810706  5.560966999418492 1.5421680132901605  4.634138398914518 1.5421680132901605  C 2.878042983136267 1.5421680132901605  1.7561232797053692 2.9156615796587775  1.7561232797053692 4.722890258829388  C 1.7561232797053692 4.722890258829388  1.7561232797053692 12  1.7561232797053692 12  L 0 12  L 0 0.14457932843835825  L 1.7561232797053692 0.14457932843835825  C 1.7561232797053692 0.14457932843835825  1.7561232797053692 1.5903611227696133  1.7561232797053692 1.5903611227696133  C 2.4146593332041095 0.6024090809713563  3.731742706919946 0  5.121984880790851 0  Z " fill-rule="nonzero" fill="rgba(0, 0, 0, 1)" stroke="none" transform="matrix(1 0 0 1 824 527 )" class="fill" />
    <path d="M 5.121984880790851 0  C 6.268324772242683 0  7.146342556697034 0.26506042650435907  8 1.1084338579925284  C 8 1.1084338579925284  6.707346384958325 2.409636323885425  6.707346384958325 2.409636323885425  C 6.048811058344641 1.759034372810706  5.560966999418492 1.5421680132901605  4.634138398914518 1.5421680132901605  C 2.878042983136267 1.5421680132901605  1.7561232797053692 2.9156615796587775  1.7561232797053692 4.722890258829388  C 1.7561232797053692 4.722890258829388  1.7561232797053692 12  1.7561232797053692 12  L 0 12  L 0 0.14457932843835825  L 1.7561232797053692 0.14457932843835825  C 1.7561232797053692 0.14457932843835825  1.7561232797053692 1.5903611227696133  1.7561232797053692 1.5903611227696133  C 2.4146593332041095 0.6024090809713563  3.731742706919946 0  5.121984880790851 0  Z " stroke-width="0" stroke-dasharray="0" stroke="rgba(121, 121, 121, 1)" fill="none" transform="matrix(1 0 0 1 824 527 )" class="stroke" mask="url(#Clip4553)" />
  </g>
</svg>