<?xml version="1.0" encoding="utf-8"?>
<svg version="1.1" xmlns:xlink="http://www.w3.org/1999/xlink" width="17px" height="23px" xmlns="http://www.w3.org/2000/svg">
  <defs>
    <pattern id="BGPattern" patternUnits="userSpaceOnUse" alignment="0 0" imageRepeat="None" />
    <mask fill="white" id="Clip4474">
      <path d="M 17 0  C 17 0  17 14.991642151006946  17 14.991642151006946  C 17 19.828689871743766  13.236639634528096 23  8.5 23  C 3.7633598820374408 23  0 19.828689871743766  0 14.991642151006946  C 0 14.991642151006946  0 0  0 0  L 4.509538560097843 0  C 4.509538560097843 0  4.509538560097843 14.831475184961167  4.509538560097843 14.831475184961167  C 4.509538560097843 17.458216005722047  6.0667940924081 19.027853132174037  8.5 19.027853132174037  C 10.933204940722973 19.027853132174037  12.522901826176533 17.458216005722047  12.522901826176533 14.831475184961167  C 12.522901826176533 14.831475184961167  12.522901826176533 0  12.522901826176533 0  L 17 0  Z " fill-rule="evenodd" />
    </mask>
  </defs>
  <g transform="matrix(1 0 0 1 -1230 -368 )">
    <path d="M 17 0  C 17 0  17 14.991642151006946  17 14.991642151006946  C 17 19.828689871743766  13.236639634528096 23  8.5 23  C 3.7633598820374408 23  0 19.828689871743766  0 14.991642151006946  C 0 14.991642151006946  0 0  0 0  L 4.509538560097843 0  C 4.509538560097843 0  4.509538560097843 14.831475184961167  4.509538560097843 14.831475184961167  C 4.509538560097843 17.458216005722047  6.0667940924081 19.027853132174037  8.5 19.027853132174037  C 10.933204940722973 19.027853132174037  12.522901826176533 17.458216005722047  12.522901826176533 14.831475184961167  C 12.522901826176533 14.831475184961167  12.522901826176533 0  12.522901826176533 0  L 17 0  Z " fill-rule="nonzero" fill="rgba(255, 255, 255, 1)" stroke="none" transform="matrix(1 0 0 1 1230 368 )" class="fill" />
    <path d="M 17 0  C 17 0  17 14.991642151006946  17 14.991642151006946  C 17 19.828689871743766  13.236639634528096 23  8.5 23  C 3.7633598820374408 23  0 19.828689871743766  0 14.991642151006946  C 0 14.991642151006946  0 0  0 0  L 4.509538560097843 0  C 4.509538560097843 0  4.509538560097843 14.831475184961167  4.509538560097843 14.831475184961167  C 4.509538560097843 17.458216005722047  6.0667940924081 19.027853132174037  8.5 19.027853132174037  C 10.933204940722973 19.027853132174037  12.522901826176533 17.458216005722047  12.522901826176533 14.831475184961167  C 12.522901826176533 14.831475184961167  12.522901826176533 0  12.522901826176533 0  L 17 0  Z " stroke-width="0" stroke-dasharray="0" stroke="rgba(121, 121, 121, 1)" fill="none" transform="matrix(1 0 0 1 1230 368 )" class="stroke" mask="url(#Clip4474)" />
  </g>
</svg>