<?xml version="1.0" encoding="utf-8"?>
<svg version="1.1" xmlns:xlink="http://www.w3.org/1999/xlink" width="22px" height="22px" xmlns="http://www.w3.org/2000/svg">
  <defs>
    <pattern id="BGPattern" patternUnits="userSpaceOnUse" alignment="0 0" imageRepeat="None" />
    <mask fill="white" id="Clip4519">
      <path d="M 14.67471480321387 2.9124637068220736  L 14.67471480321387 1.299786171099292  L 19.156628083335537 1.299786171099292  L 19.156628083335537 2.9124637068220736  L 14.67471480321387 2.9124637068220736  Z M 9.10844789718292 3.995616298854061  L 9.10844789718292 2.455139753950687  L 14.192776453908216 2.455139753950687  L 14.192776453908216 3.995616298854061  L 9.10844789718292 3.995616298854061  Z M 14.939751787223909 7.269146172991336  L 14.939751787223909 5.728669628087963  L 19.1084311843936 5.728669628087963  L 19.1084311843936 7.269146172991336  L 14.939751787223909 7.269146172991336  Z M 14.867471758867875 11.770230620799417  L 14.867471758867875 10.229754075896043  L 18.963840487567772 10.229754075896043  L 18.963840487567772 11.770230620799417  L 14.867471758867875 11.770230620799417  Z M 3.0120457429043768 7.269146172991336  L 3.0120457429043768 5.728669628087963  L 7.108445111718033 5.728669628087963  L 7.108445111718033 7.269146172991336  L 3.0120457429043768 7.269146172991336  Z M 3.0843564113741673 11.746173826062641  L 3.0843564113741673 10.229754075896043  L 7.132528241132125 10.229754075896043  L 7.132528241132125 11.746173826062641  L 3.0843564113741673 11.746173826062641  Z M 2.506024264184632 15.452955555029986  L 2.024116554992737 1.4682755540839652  C 2.024116554992737 1.4682755540839652  4.192793166697539 2.1181609879813412  4.192793166697539 2.1181609879813412  C 4.1446003371457065 2.262581142294299  3.9839468000579377 2.3508305172934296  3.7108548173918856 2.382923459826739  C 3.7108548173918856 2.382923459826739  4.144596267755598 15.452955555029986  4.144596267755598 15.452955555029986  L 2.506024264184632 15.452955555029986  Z M 18.14458512589605 4.862150615123282  C 18.160649163037437 3.5944631252965014  18.16866825531014 2.4070070353464597  18.16866825531014 1.299786171099292  C 18.16866825531014 1.299786171099292  19.831323388295196 1.299786171099292  19.831323388295196 1.299786171099292  C 19.831323388295196 2.4230535066131145  19.815254563636035 3.6265455468079395  19.783126489353258 4.910279507901374  C 19.767062452211867 6.177966997728155  19.742975492783557 7.4536872877536  19.710846460997224 8.737421727075303  C 19.678718386714447 10.021156166397004  19.638562602626973 11.232672876909957  19.59036953369925 12.371987161918701  C 19.54217646477153 13.511301207813311  19.485952813528446 14.514218574142422  19.421695707459335 15.38073926090604  C 19.421695707459335 15.38073926090604  17.73492680494643 15.38073926090604  17.73492680494643 15.38073926090604  C 17.799183911015536 14.498171863761636  17.855407562258623 13.479203722111466  17.903600631186343 12.323842965836068  C 17.967857737255454 11.168481731332403  18.01606325372939 9.95696502081945  18.04819132801217 8.689277530992669  C 18.09638439693989 7.405543569899235  18.12852108875466 6.129838104950062  18.14458512589605 4.862150615123282  Z M 4.650617746475342 1.1072246900733027  C 5.373508992873388 0.7060571696677375  5.975905598157693 0.3369797224258798  6.457832936172466 0  C 6.457832936172466 0  7.879534214561575 1.299786171099292  7.879534214561575 1.299786171099292  C 7.156643446915307 1.6849062637816692  6.361456373352572 2.07001966126831  5.493986877674916 2.455139753950687  C 4.6425821372663165 2.82421337536641  3.8313264784203067 3.153178948496033  3.0602426418463176 3.4420192571219497  C 3.0281140888117624 3.2815526315423362  2.947802760012702 3.0729379840539566  2.81928878725037 2.8161906179613494  C 2.706839091005316 2.559444208325276  2.5943908310155943 2.342819237366774  2.4819411347705405 2.1663051840639733  C 3.2048321417926973 1.845371932904748  3.9277267394531856 1.49234478275568  4.650617746475342 1.1072246900733027  Z M 8.313245024811527 15.284466172045313  L 8.313245024811527 9.050328395003332  L 9.807226331556672 9.050328395003332  L 9.807226331556672 15.284466172045313  L 8.313245024811527 15.284466172045313  Z M 8.337358794339378 7.991247901012661  L 8.337358794339378 0  L 9.927703258854644 0  L 9.927703258854644 6.522972346928697  L 13.036142799642903 6.522972346928697  L 13.036142799642903 7.991247901012661  L 8.337358794339378 7.991247901012661  Z M 12.144576769501388 15.260394074004  L 12.144576769501388 6.522972346928697  L 13.734951874130413 6.522972346928697  L 13.734951874130413 15.260394074004  L 12.144576769501388 15.260394074004  Z M 0 16  L 0 14.68270963092603  L 22 14.68270963092603  L 22 16  L 0 16  Z M 15.783120918423483 19.256010372858057  C 14.931715459887217 18.77460998800169  14.072285164056918 18.317283554321165  13.204816625882819 17.884023210939358  C 13.204816625882819 17.884023210939358  14.506040976973955 16.680525432005332  14.506040976973955 16.680525432005332  C 15.389574509792997 17.097739184563416  16.28111085732431 17.547040140915612  17.180708427284742 18.028440495882716  C 18.09637099189012 18.50984085084982  18.95583097033062 18.983218209297732  19.759043359939167 19.448571853884047  C 20.562254792044154 19.9139255582489  21.261032268914352 20.347191042584576  21.855409303174177 20.74835802498334  C 21.855409303174177 20.74835802498334  20.144587911360937 22  20.144587911360937 22  C 19.61446798317022 21.598833017601237  18.971884474932903 21.157542085826496  18.216865154252083 20.676141730859392  C 17.461844876067705 20.21078805638381  16.650589456597583 19.737410727825164  15.783120918423483 19.256010372858057  Z M 5.012048528369264 18.148785682784755  C 5.783132364943254 17.65133873699393  6.417666140794108 17.17796137854602  6.915657515950268 16.728654324783424  C 6.915657515950268 16.728654324783424  8.602426418463176 17.835879014856726  8.602426418463176 17.835879014856726  C 7.975920831168795 18.333326020426085  7.253026233508307 18.838804989294644  6.433749806758374 19.352298765023324  C 5.630537895901606 19.849745800481948  4.80321389114821 20.323123129040596  3.951808671987833 20.772430123024655  C 3.116467968720622 21.237783827389507  2.3213114155837014 21.638947701304538  1.5662919752149334 21.975927901958684  C 1.4056494494180467 21.78336773606043  1.1887719020233616 21.5587171981058  0.9156797996693653 21.30197037001999  C 0.6425875776274246 21.06127019253644  0.4016227117405952 20.860680603926653  0.19278759576776466 20.700213828900708  C 0.9638713126538099 20.363233568468026  1.767077239113359 19.97812058943112  2.602418062068514 19.544860246049314  C 3.4538230418530027 19.09555325206525  4.257028968312551 18.630186097530395  5.012048528369264 18.148785682784755  Z " fill-rule="evenodd" />
    </mask>
  </defs>
  <g transform="matrix(1 0 0 1 -430 -612 )">
    <path d="M 14.67471480321387 2.9124637068220736  L 14.67471480321387 1.299786171099292  L 19.156628083335537 1.299786171099292  L 19.156628083335537 2.9124637068220736  L 14.67471480321387 2.9124637068220736  Z M 9.10844789718292 3.995616298854061  L 9.10844789718292 2.455139753950687  L 14.192776453908216 2.455139753950687  L 14.192776453908216 3.995616298854061  L 9.10844789718292 3.995616298854061  Z M 14.939751787223909 7.269146172991336  L 14.939751787223909 5.728669628087963  L 19.1084311843936 5.728669628087963  L 19.1084311843936 7.269146172991336  L 14.939751787223909 7.269146172991336  Z M 14.867471758867875 11.770230620799417  L 14.867471758867875 10.229754075896043  L 18.963840487567772 10.229754075896043  L 18.963840487567772 11.770230620799417  L 14.867471758867875 11.770230620799417  Z M 3.0120457429043768 7.269146172991336  L 3.0120457429043768 5.728669628087963  L 7.108445111718033 5.728669628087963  L 7.108445111718033 7.269146172991336  L 3.0120457429043768 7.269146172991336  Z M 3.0843564113741673 11.746173826062641  L 3.0843564113741673 10.229754075896043  L 7.132528241132125 10.229754075896043  L 7.132528241132125 11.746173826062641  L 3.0843564113741673 11.746173826062641  Z M 2.506024264184632 15.452955555029986  L 2.024116554992737 1.4682755540839652  C 2.024116554992737 1.4682755540839652  4.192793166697539 2.1181609879813412  4.192793166697539 2.1181609879813412  C 4.1446003371457065 2.262581142294299  3.9839468000579377 2.3508305172934296  3.7108548173918856 2.382923459826739  C 3.7108548173918856 2.382923459826739  4.144596267755598 15.452955555029986  4.144596267755598 15.452955555029986  L 2.506024264184632 15.452955555029986  Z M 18.14458512589605 4.862150615123282  C 18.160649163037437 3.5944631252965014  18.16866825531014 2.4070070353464597  18.16866825531014 1.299786171099292  C 18.16866825531014 1.299786171099292  19.831323388295196 1.299786171099292  19.831323388295196 1.299786171099292  C 19.831323388295196 2.4230535066131145  19.815254563636035 3.6265455468079395  19.783126489353258 4.910279507901374  C 19.767062452211867 6.177966997728155  19.742975492783557 7.4536872877536  19.710846460997224 8.737421727075303  C 19.678718386714447 10.021156166397004  19.638562602626973 11.232672876909957  19.59036953369925 12.371987161918701  C 19.54217646477153 13.511301207813311  19.485952813528446 14.514218574142422  19.421695707459335 15.38073926090604  C 19.421695707459335 15.38073926090604  17.73492680494643 15.38073926090604  17.73492680494643 15.38073926090604  C 17.799183911015536 14.498171863761636  17.855407562258623 13.479203722111466  17.903600631186343 12.323842965836068  C 17.967857737255454 11.168481731332403  18.01606325372939 9.95696502081945  18.04819132801217 8.689277530992669  C 18.09638439693989 7.405543569899235  18.12852108875466 6.129838104950062  18.14458512589605 4.862150615123282  Z M 4.650617746475342 1.1072246900733027  C 5.373508992873388 0.7060571696677375  5.975905598157693 0.3369797224258798  6.457832936172466 0  C 6.457832936172466 0  7.879534214561575 1.299786171099292  7.879534214561575 1.299786171099292  C 7.156643446915307 1.6849062637816692  6.361456373352572 2.07001966126831  5.493986877674916 2.455139753950687  C 4.6425821372663165 2.82421337536641  3.8313264784203067 3.153178948496033  3.0602426418463176 3.4420192571219497  C 3.0281140888117624 3.2815526315423362  2.947802760012702 3.0729379840539566  2.81928878725037 2.8161906179613494  C 2.706839091005316 2.559444208325276  2.5943908310155943 2.342819237366774  2.4819411347705405 2.1663051840639733  C 3.2048321417926973 1.845371932904748  3.9277267394531856 1.49234478275568  4.650617746475342 1.1072246900733027  Z M 8.313245024811527 15.284466172045313  L 8.313245024811527 9.050328395003332  L 9.807226331556672 9.050328395003332  L 9.807226331556672 15.284466172045313  L 8.313245024811527 15.284466172045313  Z M 8.337358794339378 7.991247901012661  L 8.337358794339378 0  L 9.927703258854644 0  L 9.927703258854644 6.522972346928697  L 13.036142799642903 6.522972346928697  L 13.036142799642903 7.991247901012661  L 8.337358794339378 7.991247901012661  Z M 12.144576769501388 15.260394074004  L 12.144576769501388 6.522972346928697  L 13.734951874130413 6.522972346928697  L 13.734951874130413 15.260394074004  L 12.144576769501388 15.260394074004  Z M 0 16  L 0 14.68270963092603  L 22 14.68270963092603  L 22 16  L 0 16  Z M 15.783120918423483 19.256010372858057  C 14.931715459887217 18.77460998800169  14.072285164056918 18.317283554321165  13.204816625882819 17.884023210939358  C 13.204816625882819 17.884023210939358  14.506040976973955 16.680525432005332  14.506040976973955 16.680525432005332  C 15.389574509792997 17.097739184563416  16.28111085732431 17.547040140915612  17.180708427284742 18.028440495882716  C 18.09637099189012 18.50984085084982  18.95583097033062 18.983218209297732  19.759043359939167 19.448571853884047  C 20.562254792044154 19.9139255582489  21.261032268914352 20.347191042584576  21.855409303174177 20.74835802498334  C 21.855409303174177 20.74835802498334  20.144587911360937 22  20.144587911360937 22  C 19.61446798317022 21.598833017601237  18.971884474932903 21.157542085826496  18.216865154252083 20.676141730859392  C 17.461844876067705 20.21078805638381  16.650589456597583 19.737410727825164  15.783120918423483 19.256010372858057  Z M 5.012048528369264 18.148785682784755  C 5.783132364943254 17.65133873699393  6.417666140794108 17.17796137854602  6.915657515950268 16.728654324783424  C 6.915657515950268 16.728654324783424  8.602426418463176 17.835879014856726  8.602426418463176 17.835879014856726  C 7.975920831168795 18.333326020426085  7.253026233508307 18.838804989294644  6.433749806758374 19.352298765023324  C 5.630537895901606 19.849745800481948  4.80321389114821 20.323123129040596  3.951808671987833 20.772430123024655  C 3.116467968720622 21.237783827389507  2.3213114155837014 21.638947701304538  1.5662919752149334 21.975927901958684  C 1.4056494494180467 21.78336773606043  1.1887719020233616 21.5587171981058  0.9156797996693653 21.30197037001999  C 0.6425875776274246 21.06127019253644  0.4016227117405952 20.860680603926653  0.19278759576776466 20.700213828900708  C 0.9638713126538099 20.363233568468026  1.767077239113359 19.97812058943112  2.602418062068514 19.544860246049314  C 3.4538230418530027 19.09555325206525  4.257028968312551 18.630186097530395  5.012048528369264 18.148785682784755  Z " fill-rule="nonzero" fill="rgba(0, 0, 0, 1)" stroke="none" transform="matrix(1 0 0 1 430 612 )" class="fill" />
    <path d="M 14.67471480321387 2.9124637068220736  L 14.67471480321387 1.299786171099292  L 19.156628083335537 1.299786171099292  L 19.156628083335537 2.9124637068220736  L 14.67471480321387 2.9124637068220736  Z " stroke-width="0" stroke-dasharray="0" stroke="rgba(121, 121, 121, 1)" fill="none" transform="matrix(1 0 0 1 430 612 )" class="stroke" mask="url(#Clip4519)" />
    <path d="M 9.10844789718292 3.995616298854061  L 9.10844789718292 2.455139753950687  L 14.192776453908216 2.455139753950687  L 14.192776453908216 3.995616298854061  L 9.10844789718292 3.995616298854061  Z " stroke-width="0" stroke-dasharray="0" stroke="rgba(121, 121, 121, 1)" fill="none" transform="matrix(1 0 0 1 430 612 )" class="stroke" mask="url(#Clip4519)" />
    <path d="M 14.939751787223909 7.269146172991336  L 14.939751787223909 5.728669628087963  L 19.1084311843936 5.728669628087963  L 19.1084311843936 7.269146172991336  L 14.939751787223909 7.269146172991336  Z " stroke-width="0" stroke-dasharray="0" stroke="rgba(121, 121, 121, 1)" fill="none" transform="matrix(1 0 0 1 430 612 )" class="stroke" mask="url(#Clip4519)" />
    <path d="M 14.867471758867875 11.770230620799417  L 14.867471758867875 10.229754075896043  L 18.963840487567772 10.229754075896043  L 18.963840487567772 11.770230620799417  L 14.867471758867875 11.770230620799417  Z " stroke-width="0" stroke-dasharray="0" stroke="rgba(121, 121, 121, 1)" fill="none" transform="matrix(1 0 0 1 430 612 )" class="stroke" mask="url(#Clip4519)" />
    <path d="M 3.0120457429043768 7.269146172991336  L 3.0120457429043768 5.728669628087963  L 7.108445111718033 5.728669628087963  L 7.108445111718033 7.269146172991336  L 3.0120457429043768 7.269146172991336  Z " stroke-width="0" stroke-dasharray="0" stroke="rgba(121, 121, 121, 1)" fill="none" transform="matrix(1 0 0 1 430 612 )" class="stroke" mask="url(#Clip4519)" />
    <path d="M 3.0843564113741673 11.746173826062641  L 3.0843564113741673 10.229754075896043  L 7.132528241132125 10.229754075896043  L 7.132528241132125 11.746173826062641  L 3.0843564113741673 11.746173826062641  Z " stroke-width="0" stroke-dasharray="0" stroke="rgba(121, 121, 121, 1)" fill="none" transform="matrix(1 0 0 1 430 612 )" class="stroke" mask="url(#Clip4519)" />
    <path d="M 2.506024264184632 15.452955555029986  L 2.024116554992737 1.4682755540839652  C 2.024116554992737 1.4682755540839652  4.192793166697539 2.1181609879813412  4.192793166697539 2.1181609879813412  C 4.1446003371457065 2.262581142294299  3.9839468000579377 2.3508305172934296  3.7108548173918856 2.382923459826739  C 3.7108548173918856 2.382923459826739  4.144596267755598 15.452955555029986  4.144596267755598 15.452955555029986  L 2.506024264184632 15.452955555029986  Z " stroke-width="0" stroke-dasharray="0" stroke="rgba(121, 121, 121, 1)" fill="none" transform="matrix(1 0 0 1 430 612 )" class="stroke" mask="url(#Clip4519)" />
    <path d="M 18.14458512589605 4.862150615123282  C 18.160649163037437 3.5944631252965014  18.16866825531014 2.4070070353464597  18.16866825531014 1.299786171099292  C 18.16866825531014 1.299786171099292  19.831323388295196 1.299786171099292  19.831323388295196 1.299786171099292  C 19.831323388295196 2.4230535066131145  19.815254563636035 3.6265455468079395  19.783126489353258 4.910279507901374  C 19.767062452211867 6.177966997728155  19.742975492783557 7.4536872877536  19.710846460997224 8.737421727075303  C 19.678718386714447 10.021156166397004  19.638562602626973 11.232672876909957  19.59036953369925 12.371987161918701  C 19.54217646477153 13.511301207813311  19.485952813528446 14.514218574142422  19.421695707459335 15.38073926090604  C 19.421695707459335 15.38073926090604  17.73492680494643 15.38073926090604  17.73492680494643 15.38073926090604  C 17.799183911015536 14.498171863761636  17.855407562258623 13.479203722111466  17.903600631186343 12.323842965836068  C 17.967857737255454 11.168481731332403  18.01606325372939 9.95696502081945  18.04819132801217 8.689277530992669  C 18.09638439693989 7.405543569899235  18.12852108875466 6.129838104950062  18.14458512589605 4.862150615123282  Z " stroke-width="0" stroke-dasharray="0" stroke="rgba(121, 121, 121, 1)" fill="none" transform="matrix(1 0 0 1 430 612 )" class="stroke" mask="url(#Clip4519)" />
    <path d="M 4.650617746475342 1.1072246900733027  C 5.373508992873388 0.7060571696677375  5.975905598157693 0.3369797224258798  6.457832936172466 0  C 6.457832936172466 0  7.879534214561575 1.299786171099292  7.879534214561575 1.299786171099292  C 7.156643446915307 1.6849062637816692  6.361456373352572 2.07001966126831  5.493986877674916 2.455139753950687  C 4.6425821372663165 2.82421337536641  3.8313264784203067 3.153178948496033  3.0602426418463176 3.4420192571219497  C 3.0281140888117624 3.2815526315423362  2.947802760012702 3.0729379840539566  2.81928878725037 2.8161906179613494  C 2.706839091005316 2.559444208325276  2.5943908310155943 2.342819237366774  2.4819411347705405 2.1663051840639733  C 3.2048321417926973 1.845371932904748  3.9277267394531856 1.49234478275568  4.650617746475342 1.1072246900733027  Z " stroke-width="0" stroke-dasharray="0" stroke="rgba(121, 121, 121, 1)" fill="none" transform="matrix(1 0 0 1 430 612 )" class="stroke" mask="url(#Clip4519)" />
    <path d="M 8.313245024811527 15.284466172045313  L 8.313245024811527 9.050328395003332  L 9.807226331556672 9.050328395003332  L 9.807226331556672 15.284466172045313  L 8.313245024811527 15.284466172045313  Z " stroke-width="0" stroke-dasharray="0" stroke="rgba(121, 121, 121, 1)" fill="none" transform="matrix(1 0 0 1 430 612 )" class="stroke" mask="url(#Clip4519)" />
    <path d="M 8.337358794339378 7.991247901012661  L 8.337358794339378 0  L 9.927703258854644 0  L 9.927703258854644 6.522972346928697  L 13.036142799642903 6.522972346928697  L 13.036142799642903 7.991247901012661  L 8.337358794339378 7.991247901012661  Z " stroke-width="0" stroke-dasharray="0" stroke="rgba(121, 121, 121, 1)" fill="none" transform="matrix(1 0 0 1 430 612 )" class="stroke" mask="url(#Clip4519)" />
    <path d="M 12.144576769501388 15.260394074004  L 12.144576769501388 6.522972346928697  L 13.734951874130413 6.522972346928697  L 13.734951874130413 15.260394074004  L 12.144576769501388 15.260394074004  Z " stroke-width="0" stroke-dasharray="0" stroke="rgba(121, 121, 121, 1)" fill="none" transform="matrix(1 0 0 1 430 612 )" class="stroke" mask="url(#Clip4519)" />
    <path d="M 0 16  L 0 14.68270963092603  L 22 14.68270963092603  L 22 16  L 0 16  Z " stroke-width="0" stroke-dasharray="0" stroke="rgba(121, 121, 121, 1)" fill="none" transform="matrix(1 0 0 1 430 612 )" class="stroke" mask="url(#Clip4519)" />
    <path d="M 15.783120918423483 19.256010372858057  C 14.931715459887217 18.77460998800169  14.072285164056918 18.317283554321165  13.204816625882819 17.884023210939358  C 13.204816625882819 17.884023210939358  14.506040976973955 16.680525432005332  14.506040976973955 16.680525432005332  C 15.389574509792997 17.097739184563416  16.28111085732431 17.547040140915612  17.180708427284742 18.028440495882716  C 18.09637099189012 18.50984085084982  18.95583097033062 18.983218209297732  19.759043359939167 19.448571853884047  C 20.562254792044154 19.9139255582489  21.261032268914352 20.347191042584576  21.855409303174177 20.74835802498334  C 21.855409303174177 20.74835802498334  20.144587911360937 22  20.144587911360937 22  C 19.61446798317022 21.598833017601237  18.971884474932903 21.157542085826496  18.216865154252083 20.676141730859392  C 17.461844876067705 20.21078805638381  16.650589456597583 19.737410727825164  15.783120918423483 19.256010372858057  Z " stroke-width="0" stroke-dasharray="0" stroke="rgba(121, 121, 121, 1)" fill="none" transform="matrix(1 0 0 1 430 612 )" class="stroke" mask="url(#Clip4519)" />
    <path d="M 5.012048528369264 18.148785682784755  C 5.783132364943254 17.65133873699393  6.417666140794108 17.17796137854602  6.915657515950268 16.728654324783424  C 6.915657515950268 16.728654324783424  8.602426418463176 17.835879014856726  8.602426418463176 17.835879014856726  C 7.975920831168795 18.333326020426085  7.253026233508307 18.838804989294644  6.433749806758374 19.352298765023324  C 5.630537895901606 19.849745800481948  4.80321389114821 20.323123129040596  3.951808671987833 20.772430123024655  C 3.116467968720622 21.237783827389507  2.3213114155837014 21.638947701304538  1.5662919752149334 21.975927901958684  C 1.4056494494180467 21.78336773606043  1.1887719020233616 21.5587171981058  0.9156797996693653 21.30197037001999  C 0.6425875776274246 21.06127019253644  0.4016227117405952 20.860680603926653  0.19278759576776466 20.700213828900708  C 0.9638713126538099 20.363233568468026  1.767077239113359 19.97812058943112  2.602418062068514 19.544860246049314  C 3.4538230418530027 19.09555325206525  4.257028968312551 18.630186097530395  5.012048528369264 18.148785682784755  Z " stroke-width="0" stroke-dasharray="0" stroke="rgba(121, 121, 121, 1)" fill="none" transform="matrix(1 0 0 1 430 612 )" class="stroke" mask="url(#Clip4519)" />
  </g>
</svg>