<?xml version="1.0" encoding="utf-8"?>
<svg version="1.1" xmlns:xlink="http://www.w3.org/1999/xlink" width="17px" height="12px" xmlns="http://www.w3.org/2000/svg">
  <defs>
    <pattern id="BGPattern" patternUnits="userSpaceOnUse" alignment="0 0" imageRepeat="None" />
    <mask fill="white" id="Clip4594">
      <path d="M 15.111100846805236 0  L 17 0  L 13.246466512702078 12  L 11.62392609699769 12  L 8.499984603541185 2.682926080713731  L 5.40027713625866 12  L 3.7777675134719018 12  L 0 0  L 1.8888683602771363 0  L 4.6253425712086225 9.634147353981954  L 7.749284064665127 0  L 9.250715935334872 0  L 12.39886066204773 9.634147353981954  L 15.111100846805236 0  Z " fill-rule="evenodd" />
    </mask>
  </defs>
  <g transform="matrix(1 0 0 1 -645 -496 )">
    <path d="M 15.111100846805236 0  L 17 0  L 13.246466512702078 12  L 11.62392609699769 12  L 8.499984603541185 2.682926080713731  L 5.40027713625866 12  L 3.7777675134719018 12  L 0 0  L 1.8888683602771363 0  L 4.6253425712086225 9.634147353981954  L 7.749284064665127 0  L 9.250715935334872 0  L 12.39886066204773 9.634147353981954  L 15.111100846805236 0  Z " fill-rule="nonzero" fill="rgba(0, 0, 0, 1)" stroke="none" transform="matrix(1 0 0 1 645 496 )" class="fill" />
    <path d="M 15.111100846805236 0  L 17 0  L 13.246466512702078 12  L 11.62392609699769 12  L 8.499984603541185 2.682926080713731  L 5.40027713625866 12  L 3.7777675134719018 12  L 0 0  L 1.8888683602771363 0  L 4.6253425712086225 9.634147353981954  L 7.749284064665127 0  L 9.250715935334872 0  L 12.39886066204773 9.634147353981954  L 15.111100846805236 0  Z " stroke-width="0" stroke-dasharray="0" stroke="rgba(121, 121, 121, 1)" fill="none" transform="matrix(1 0 0 1 645 496 )" class="stroke" mask="url(#Clip4594)" />
  </g>
</svg>