<?xml version="1.0" encoding="utf-8"?>
<svg version="1.1" xmlns:xlink="http://www.w3.org/1999/xlink" width="48px" height="54px" xmlns="http://www.w3.org/2000/svg">
  <defs>
    <pattern id="BGPattern" patternUnits="userSpaceOnUse" alignment="0 0" imageRepeat="None" />
    <mask fill="white" id="Clip4425">
      <path d="M 23.43950050531089 0  L 40 46  L 30.764329227318527 46  L 28.089180728179187 37  L 11.974508944875934 37  L 9.235670772681473 46  L 0 46  L 16.49680982163399 0  L 23.43950050531089 0  Z M 14.458588424849905 30  L 25.73248059431546 30  L 20.191084205067384 13.567414107782943  L 14.458588424849905 30  Z " fill-rule="evenodd" />
    </mask>
  </defs>
  <g transform="matrix(1 0 0 1 -437 -312 )">
    <path d="M 23.43950050531089 0  L 40 46  L 30.764329227318527 46  L 28.089180728179187 37  L 11.974508944875934 37  L 9.235670772681473 46  L 0 46  L 16.49680982163399 0  L 23.43950050531089 0  Z M 14.458588424849905 30  L 25.73248059431546 30  L 20.191084205067384 13.567414107782943  L 14.458588424849905 30  Z " fill-rule="nonzero" fill="rgba(63, 66, 124, 1)" stroke="none" transform="matrix(1 0 0 1 441 312 )" class="fill" />
    <path d="M 23.43950050531089 0  L 40 46  L 30.764329227318527 46  L 28.089180728179187 37  L 11.974508944875934 37  L 9.235670772681473 46  L 0 46  L 16.49680982163399 0  L 23.43950050531089 0  Z " stroke-width="0" stroke-dasharray="0" stroke="rgba(121, 121, 121, 1)" fill="none" transform="matrix(1 0 0 1 441 312 )" class="stroke" mask="url(#Clip4425)" />
    <path d="M 14.458588424849905 30  L 25.73248059431546 30  L 20.191084205067384 13.567414107782943  L 14.458588424849905 30  Z " stroke-width="0" stroke-dasharray="0" stroke="rgba(121, 121, 121, 1)" fill="none" transform="matrix(1 0 0 1 441 312 )" class="stroke" mask="url(#Clip4425)" />
  </g>
  <style>svg { filter: drop-shadow(0px 4px 2px rgba(0, 0, 0, 0.12941176470588237)); }</style>
</svg>