<?xml version="1.0" encoding="utf-8"?>
<svg version="1.1" xmlns:xlink="http://www.w3.org/1999/xlink" width="6px" height="15px" xmlns="http://www.w3.org/2000/svg">
  <defs>
    <pattern id="BGPattern" patternUnits="userSpaceOnUse" alignment="0 0" imageRepeat="None" />
    <mask fill="white" id="Clip4615">
      <path d="M 6 13.553655677575996  L 6 15  C 6 15  4.719666307099088 15  4.719666307099088 15  C 2.6108794353503257 15  1.5564842537332293 13.623639691541468  1.5564842537332293 11.92068484597096  C 1.5564842537332293 11.92068484597096  1.5564842537332293 4.875582327212646  1.5564842537332293 4.875582327212646  L 0 4.875582327212646  L 0 3.592534346367213  L 1.5564842537332293 3.592534346367213  L 1.5564842537332293 0  L 3.364020275887203 0  L 3.364020275887203 3.592534346367213  L 6 3.592534346367213  L 6 4.875582327212646  L 3.364020275887203 4.875582327212646  C 3.364020275887203 4.875582327212646  3.364020275887203 11.87402451076604  3.364020275887203 11.87402451076604  C 3.364020275887203 12.923791324962192  3.8912106343330732 13.553655677575996  5.046022433292677 13.553655677575996  C 5.046022433292677 13.553655677575996  6 13.553655677575996  6 13.553655677575996  Z " fill-rule="evenodd" />
    </mask>
  </defs>
  <g transform="matrix(1 0 0 1 -207 -493 )">
    <path d="M 6 13.553655677575996  L 6 15  C 6 15  4.719666307099088 15  4.719666307099088 15  C 2.6108794353503257 15  1.5564842537332293 13.623639691541468  1.5564842537332293 11.92068484597096  C 1.5564842537332293 11.92068484597096  1.5564842537332293 4.875582327212646  1.5564842537332293 4.875582327212646  L 0 4.875582327212646  L 0 3.592534346367213  L 1.5564842537332293 3.592534346367213  L 1.5564842537332293 0  L 3.364020275887203 0  L 3.364020275887203 3.592534346367213  L 6 3.592534346367213  L 6 4.875582327212646  L 3.364020275887203 4.875582327212646  C 3.364020275887203 4.875582327212646  3.364020275887203 11.87402451076604  3.364020275887203 11.87402451076604  C 3.364020275887203 12.923791324962192  3.8912106343330732 13.553655677575996  5.046022433292677 13.553655677575996  C 5.046022433292677 13.553655677575996  6 13.553655677575996  6 13.553655677575996  Z " fill-rule="nonzero" fill="rgba(0, 0, 0, 1)" stroke="none" transform="matrix(1 0 0 1 207 493 )" class="fill" />
    <path d="M 6 13.553655677575996  L 6 15  C 6 15  4.719666307099088 15  4.719666307099088 15  C 2.6108794353503257 15  1.5564842537332293 13.623639691541468  1.5564842537332293 11.92068484597096  C 1.5564842537332293 11.92068484597096  1.5564842537332293 4.875582327212646  1.5564842537332293 4.875582327212646  L 0 4.875582327212646  L 0 3.592534346367213  L 1.5564842537332293 3.592534346367213  L 1.5564842537332293 0  L 3.364020275887203 0  L 3.364020275887203 3.592534346367213  L 6 3.592534346367213  L 6 4.875582327212646  L 3.364020275887203 4.875582327212646  C 3.364020275887203 4.875582327212646  3.364020275887203 11.87402451076604  3.364020275887203 11.87402451076604  C 3.364020275887203 12.923791324962192  3.8912106343330732 13.553655677575996  5.046022433292677 13.553655677575996  C 5.046022433292677 13.553655677575996  6 13.553655677575996  6 13.553655677575996  Z " stroke-width="0" stroke-dasharray="0" stroke="rgba(121, 121, 121, 1)" fill="none" transform="matrix(1 0 0 1 207 493 )" class="stroke" mask="url(#Clip4615)" />
  </g>
</svg>