<?xml version="1.0" encoding="utf-8"?>
<svg version="1.1" xmlns:xlink="http://www.w3.org/1999/xlink" width="13px" height="17px" xmlns="http://www.w3.org/2000/svg">
  <defs>
    <pattern id="BGPattern" patternUnits="userSpaceOnUse" alignment="0 0" imageRepeat="None" />
    <mask fill="white" id="Clip4510">
      <path d="M 13 0  L 13 17  L 11.220507464995746 17  L 2 3.366576210465595  L 2 17  L 0 17  L 0 0  L 1.7794925350042547 0  L 11 13.585666844364436  L 11 0  L 13 0  Z " fill-rule="evenodd" />
    </mask>
  </defs>
  <g transform="matrix(1 0 0 1 -697 -615 )">
    <path d="M 13 0  L 13 17  L 11.220507464995746 17  L 2 3.366576210465595  L 2 17  L 0 17  L 0 0  L 1.7794925350042547 0  L 11 13.585666844364436  L 11 0  L 13 0  Z " fill-rule="nonzero" fill="rgba(0, 0, 0, 1)" stroke="none" transform="matrix(1 0 0 1 697 615 )" class="fill" />
    <path d="M 13 0  L 13 17  L 11.220507464995746 17  L 2 3.366576210465595  L 2 17  L 0 17  L 0 0  L 1.7794925350042547 0  L 11 13.585666844364436  L 11 0  L 13 0  Z " stroke-width="0" stroke-dasharray="0" stroke="rgba(121, 121, 121, 1)" fill="none" transform="matrix(1 0 0 1 697 615 )" class="stroke" mask="url(#Clip4510)" />
  </g>
</svg>