<?xml version="1.0" encoding="utf-8"?>
<svg version="1.1" xmlns:xlink="http://www.w3.org/1999/xlink" width="17px" height="12px" xmlns="http://www.w3.org/2000/svg">
  <defs>
    <pattern id="BGPattern" patternUnits="userSpaceOnUse" alignment="0 0" imageRepeat="None" />
    <mask fill="white" id="Clip4588">
      <path d="M 15.111104268252921 0  L 17 0  L 13.246473311645499 12  L 11.62393583492128 12  L 8.5 2.682926080713731  L 5.400328940218376 12  L 3.7777914634941565 12  L 0 0  L 1.8888957317470783 0  L 4.6253957788420434 9.634147353981954  L 7.749331613763323 0  L 9.250729971960382 0  L 12.398868996297612 9.634147353981954  L 15.111104268252921 0  Z " fill-rule="evenodd" />
    </mask>
  </defs>
  <g transform="matrix(1 0 0 1 -740 -496 )">
    <path d="M 15.111104268252921 0  L 17 0  L 13.246473311645499 12  L 11.62393583492128 12  L 8.5 2.682926080713731  L 5.400328940218376 12  L 3.7777914634941565 12  L 0 0  L 1.8888957317470783 0  L 4.6253957788420434 9.634147353981954  L 7.749331613763323 0  L 9.250729971960382 0  L 12.398868996297612 9.634147353981954  L 15.111104268252921 0  Z " fill-rule="nonzero" fill="rgba(0, 0, 0, 1)" stroke="none" transform="matrix(1 0 0 1 740 496 )" class="fill" />
    <path d="M 15.111104268252921 0  L 17 0  L 13.246473311645499 12  L 11.62393583492128 12  L 8.5 2.682926080713731  L 5.400328940218376 12  L 3.7777914634941565 12  L 0 0  L 1.8888957317470783 0  L 4.6253957788420434 9.634147353981954  L 7.749331613763323 0  L 9.250729971960382 0  L 12.398868996297612 9.634147353981954  L 15.111104268252921 0  Z " stroke-width="0" stroke-dasharray="0" stroke="rgba(121, 121, 121, 1)" fill="none" transform="matrix(1 0 0 1 740 496 )" class="stroke" mask="url(#Clip4588)" />
  </g>
</svg>