<?xml version="1.0" encoding="utf-8"?>
<svg version="1.1" xmlns:xlink="http://www.w3.org/1999/xlink" width="10px" height="17px" xmlns="http://www.w3.org/2000/svg">
  <defs>
    <pattern id="BGPattern" patternUnits="userSpaceOnUse" alignment="0 0" imageRepeat="None" />
    <mask fill="white" id="Clip4568">
      <path d="M 7.392350537981134 8.219008156805428  C 9.114836280416391 8.851239803993217  10 10.209368364262435  10 12.293390813594106  C 10 15.36088401625625  7.775100747880473 17  4.999984789902929 17  C 2.320562207015505 17  0.14354041912182983 15.618456460804227  0 12.597795076929948  C 0 12.597795076929948  1.7224826528842907 12.597795076929948  1.7224826528842907 12.597795076929948  C 1.8660230720061204 14.681817293644777  3.373192541386674 15.501378076918783  4.999984789902929 15.501378076918783  C 6.842087488858604 15.501378076918783  8.27751734711571 14.307162975958693  8.27751734711571 12.269972810648575  C 8.27751734711571 10.25619855473239  7.248795265248883 9.038567544378367  4.9282235519227084 9.038567544378367  C 4.9282235519227084 9.038567544378367  4.569386941827463 9.038567544378367  4.569386941827463 9.038567544378367  L 4.569386941827463 7.563359902373174  C 4.569386941827463 7.563359902373174  4.9282235519227084 7.563359902373174  4.9282235519227084 7.563359902373174  C 7.009560401576983 7.563359902373174  7.966501282211183 6.41597662020095  7.966501282211183 4.542698053265207  C 7.966501282211183 2.5523404045934877  6.650700501020598 1.4986219230812174  4.999984789902929 1.4986219230812174  C 3.205728659663431 1.4986219230812174  2.105260846985663 2.575759338006396  1.9377967870190949 4.28512607395092  C 1.9377967870190949 4.28512607395092  0.21531413413480405 4.28512607395092  0.21531413413480405 4.28512607395092  C 0.40670147845946053 1.5922883520590807  2.416255819763392 0  4.999984789902929 0  C 7.775100747880473 0  9.688983935095475 1.8030303735202557  9.688983935095475 4.519283772189183  C 9.688983935095475 6.275481861687886  8.923449292578384 7.539945156063462  7.392350537981134 8.219008156805428  Z " fill-rule="evenodd" />
    </mask>
  </defs>
  <g transform="matrix(1 0 0 1 -506 -522 )">
    <path d="M 7.392350537981134 8.219008156805428  C 9.114836280416391 8.851239803993217  10 10.209368364262435  10 12.293390813594106  C 10 15.36088401625625  7.775100747880473 17  4.999984789902929 17  C 2.320562207015505 17  0.14354041912182983 15.618456460804227  0 12.597795076929948  C 0 12.597795076929948  1.7224826528842907 12.597795076929948  1.7224826528842907 12.597795076929948  C 1.8660230720061204 14.681817293644777  3.373192541386674 15.501378076918783  4.999984789902929 15.501378076918783  C 6.842087488858604 15.501378076918783  8.27751734711571 14.307162975958693  8.27751734711571 12.269972810648575  C 8.27751734711571 10.25619855473239  7.248795265248883 9.038567544378367  4.9282235519227084 9.038567544378367  C 4.9282235519227084 9.038567544378367  4.569386941827463 9.038567544378367  4.569386941827463 9.038567544378367  L 4.569386941827463 7.563359902373174  C 4.569386941827463 7.563359902373174  4.9282235519227084 7.563359902373174  4.9282235519227084 7.563359902373174  C 7.009560401576983 7.563359902373174  7.966501282211183 6.41597662020095  7.966501282211183 4.542698053265207  C 7.966501282211183 2.5523404045934877  6.650700501020598 1.4986219230812174  4.999984789902929 1.4986219230812174  C 3.205728659663431 1.4986219230812174  2.105260846985663 2.575759338006396  1.9377967870190949 4.28512607395092  C 1.9377967870190949 4.28512607395092  0.21531413413480405 4.28512607395092  0.21531413413480405 4.28512607395092  C 0.40670147845946053 1.5922883520590807  2.416255819763392 0  4.999984789902929 0  C 7.775100747880473 0  9.688983935095475 1.8030303735202557  9.688983935095475 4.519283772189183  C 9.688983935095475 6.275481861687886  8.923449292578384 7.539945156063462  7.392350537981134 8.219008156805428  Z " fill-rule="nonzero" fill="rgba(0, 0, 0, 1)" stroke="none" transform="matrix(1 0 0 1 506 522 )" class="fill" />
    <path d="M 7.392350537981134 8.219008156805428  C 9.114836280416391 8.851239803993217  10 10.209368364262435  10 12.293390813594106  C 10 15.36088401625625  7.775100747880473 17  4.999984789902929 17  C 2.320562207015505 17  0.14354041912182983 15.618456460804227  0 12.597795076929948  C 0 12.597795076929948  1.7224826528842907 12.597795076929948  1.7224826528842907 12.597795076929948  C 1.8660230720061204 14.681817293644777  3.373192541386674 15.501378076918783  4.999984789902929 15.501378076918783  C 6.842087488858604 15.501378076918783  8.27751734711571 14.307162975958693  8.27751734711571 12.269972810648575  C 8.27751734711571 10.25619855473239  7.248795265248883 9.038567544378367  4.9282235519227084 9.038567544378367  C 4.9282235519227084 9.038567544378367  4.569386941827463 9.038567544378367  4.569386941827463 9.038567544378367  L 4.569386941827463 7.563359902373174  C 4.569386941827463 7.563359902373174  4.9282235519227084 7.563359902373174  4.9282235519227084 7.563359902373174  C 7.009560401576983 7.563359902373174  7.966501282211183 6.41597662020095  7.966501282211183 4.542698053265207  C 7.966501282211183 2.5523404045934877  6.650700501020598 1.4986219230812174  4.999984789902929 1.4986219230812174  C 3.205728659663431 1.4986219230812174  2.105260846985663 2.575759338006396  1.9377967870190949 4.28512607395092  C 1.9377967870190949 4.28512607395092  0.21531413413480405 4.28512607395092  0.21531413413480405 4.28512607395092  C 0.40670147845946053 1.5922883520590807  2.416255819763392 0  4.999984789902929 0  C 7.775100747880473 0  9.688983935095475 1.8030303735202557  9.688983935095475 4.519283772189183  C 9.688983935095475 6.275481861687886  8.923449292578384 7.539945156063462  7.392350537981134 8.219008156805428  Z " stroke-width="0" stroke-dasharray="0" stroke="rgba(121, 121, 121, 1)" fill="none" transform="matrix(1 0 0 1 506 522 )" class="stroke" mask="url(#Clip4568)" />
  </g>
</svg>