<?xml version="1.0" encoding="utf-8"?>
<svg version="1.1" xmlns:xlink="http://www.w3.org/1999/xlink" width="22px" height="22px" xmlns="http://www.w3.org/2000/svg">
  <defs>
    <pattern id="BGPattern" patternUnits="userSpaceOnUse" alignment="0 0" imageRepeat="None" />
    <mask fill="white" id="Clip4499">
      <path d="M 10.177682368253288 11.785721854559815  L 10.177682368253288 5.571427195274838  L 12.01300151850848 5.571427195274838  L 12.01300151850848 11.785721854559815  L 10.177682368253288 11.785721854559815  Z M 2.717226443745443 9  L 2.717226443745443 7.190478942783656  L 19.73564589305278 7.190478942783656  L 19.73564589305278 9  L 2.717226443745443 9  Z M 0.3575303934173398 12  L 0.3575303934173398 11  L 22 11  L 22 12  L 0.3575303934173398 12  Z M 1.1202602576814864 16  L 1.1202602576814864 14.52381227611699  L 21.35644756496196 14.52381227611699  L 21.35644756496196 16  L 1.1202602576814864 16  Z M 15.063920975565066 19.88095031672178  C 15.063920975565066 19.88095031672178  15.063920975565066 12.119053811739416  15.063920975565066 12.119053811739416  L 16.875406534236014 12.119053811739416  C 16.875406534236014 12.119053811739416  16.875406534236014 19.904761904761905  16.875406534236014 19.904761904761905  C 16.875406534236014 20.42857154683464  16.803901023830836 20.825393996039086  16.660889055889996 21.09523534293063  C 16.51787708794916 21.365076689822175  16.239798629726053 21.57937258549527  15.826652734090187 21.73810280694077  C 15.429397793771463 21.865086984097168  14.8891308855119 21.936518909900464  14.205851062181011 21.952391961610815  C 13.538462194167261 21.98413794676831  12.712172297156506 22  11.726979476887777 22  C 11.679308505197335 21.746031645687204  11.583965614685964 21.460318902770265  11.440953646745125 21.142858519010876  C 11.31383168699094 20.825398135251483  11.186711147932483 20.54762394344722  11.059589661743539 20.309528626061876  C 11.599857043568345 20.325401648206423  12.10039608996982 20.333340214101998  12.561212010165637 20.333340214101998  C 13.037918885678595 20.34921323624655  13.44312214504735 20.35715180214212  13.776816105488981 20.35715180214212  C 14.126401021247753 20.35715180214212  14.372698515967071 20.34921323624655  14.51571048390791 20.333340214101998  C 14.738173439912492 20.317467191957448  14.881184460722842 20.27777435508813  14.944745440599938 20.214282273901382  C 15.02419642866368 20.16666321485918  15.063920975565066 20.05555354552893  15.063920975565066 19.88095031672178  Z M 3.0985923230080035 3.6428550786265435  L 3.0985923230080035 2.1190496832782184  L 10.845072183397527 2.1190496832782184  L 10.845072183397527 3.6428550786265435  L 3.0985923230080035 3.6428550786265435  Z M 12.29902734865113 3.6428550786265435  L 12.29902734865113 2.1190496832782184  L 21.737811549963546 2.1190496832782184  L 21.737811549963546 3.6428550786265435  L 12.29902734865113 3.6428550786265435  Z M 2.073674008707401 3.071422378736773  C 2.7251728685345 2.0714217766695153  3.24954953182479 1.0476190476190474  3.646804708926137 0  C 3.646804708926137 0  5.339110944110002 0.4523747596891544  5.339110944110002 0.4523747596891544  C 4.878295023914184 1.6269782209910233  4.306248572846561 2.7619057940200618  3.6229692230809154 3.85714423329659  C 2.939690110097892 4.936509857389189  2.232575984834891 5.849202880152147  1.5016261369440473 6.595234654853763  C 1.3903946589417557 6.499996817644493  1.2394362662118603 6.388887111356984  1.0487538001458236 6.261902697674162  C 0.8739613422664385 6.134918283991341  0.691223939489383 6.007931978097137  0.5005414142276909 5.880947564414315  C 0.30985888896599867 5.753964096837186  0.14301196794083845 5.658730990156372  0 5.5952387833149615  C 0.7468400928601171 4.8968254541651355  1.4380655122408865 4.05554921951441  2.073674008707401 3.071422378736773  Z M 11.560129181710257 2.8809448121068506  C 12.17984802516405 1.9603092320649325  12.656556794937984 0.9999996559615667  12.990250755379616 0  C 12.990250755379616 0  14.706394370669676 0.4047515836089081  14.706394370669676 0.4047515836089081  C 14.309138483220464 1.5476094145429173  13.776815158358495 2.6269816613753556  13.109426290344745 3.6428550786265435  C 12.457928377648134 4.658728495877732  11.758759019695837 5.5158671385497815  11.011918690053097 6.214279521593916  C 10.900687212050807 6.103168869200716  10.749729292886155 5.984120390057013  10.559046353254875 5.857135976374193  C 10.384254368940733 5.730151562691371  10.201518801228996 5.603179448382538  10.010835861597716 5.476195980805407  C 9.836043877283576 5.349211567122587  9.677141901156086 5.246025496000209  9.534129933215246 5.1666604739748685  C 10.26507978110609 4.547612166850383  10.940411285386947 3.785706630859147  11.560129181710257 2.8809448121068506  Z M 5.267606380835314 4.880951692875514  C 5.04514342483073 4.293649962224579  4.798843799067817 3.7539628927026696  4.528710108155414 3.2618999453666966  C 4.528710108155414 3.2618999453666966  6.054171730944682 2.761902009597296  6.054171730944682 2.761902009597296  C 6.308415176887811 3.2222193265654093  6.562658149265698 3.7380900775187396  6.8169015952088285 4.309518992985745  C 7.07114504115196 4.880947908452749  7.245938919727075 5.36507965177806  7.341280389542716 5.761904761904762  C 7.341280389542716 5.761904761904762  5.744312309217784 6.357149049834655  5.744312309217784 6.357149049834655  C 5.664861321154039 5.9444501784183315  5.505959818591792 5.452380608342519  5.267606380835314 4.880951692875514  Z M 15.612135255744175 4.928574868955761  C 15.24666033179875 4.325399377015206  14.857350869138598 3.7777744807427927  14.44420592063322 3.2857115334068197  C 14.44420592063322 3.2857115334068197  15.921994677471073 2.6904672454769267  15.921994677471073 2.6904672454769267  C 16.319249617789797 3.1507855085507313  16.708558133319464 3.6746092239456254  17.089924012582028 4.261910954596559  C 17.487178952900752 4.849212685247494  17.781148366440995 5.365083436200825  17.97183130607228 5.809527937985009  C 17.97183130607228 5.809527937985009  16.42253798595974 6.4761918523442095  16.42253798595974 6.4761918523442095  C 16.26363506270176 6.0317473505600265  15.993500187876247 5.515876599606695  15.612135255744175 4.928574868955761  Z M 6.101842702635124 18.28571015725309  C 5.5774658025622115 17.857138707179256  5.053087245010947 17.468254735172977  4.528710108155414 17.119048307124483  C 4.528710108155414 17.119048307124483  5.839654252598668 16.09524084754556  5.839654252598668 16.09524084754556  C 6.36403115267158 16.412701408699768  6.888408052744491 16.777784554618165  7.412784952817403 17.190483071244856  C 7.9371618528903145 17.603181587871543  8.421813732496599 18.023819705196907  8.866740118071009 18.452391273533948  C 9.327556038266827 18.880962782739385  9.693030962212248 19.285723827405207  9.963164889907274 19.666676299742797  C 9.963164889907274 19.666676299742797  8.580714287928357 20.809526561831277  8.580714287928357 20.809526561831277  C 8.326470841985227 20.428574089493686  7.9768863997917 20.015874538063898  7.531960487782533 19.571429947582303  C 7.102925057525262 19.126985386666515  6.626220076273279 18.698408733011384  6.101842702635124 18.28571015725309  Z " fill-rule="evenodd" />
    </mask>
  </defs>
  <g transform="matrix(1 0 0 1 -166 -643 )">
    <path d="M 10.177682368253288 11.785721854559815  L 10.177682368253288 5.571427195274838  L 12.01300151850848 5.571427195274838  L 12.01300151850848 11.785721854559815  L 10.177682368253288 11.785721854559815  Z M 2.717226443745443 9  L 2.717226443745443 7.190478942783656  L 19.73564589305278 7.190478942783656  L 19.73564589305278 9  L 2.717226443745443 9  Z M 0.3575303934173398 12  L 0.3575303934173398 11  L 22 11  L 22 12  L 0.3575303934173398 12  Z M 1.1202602576814864 16  L 1.1202602576814864 14.52381227611699  L 21.35644756496196 14.52381227611699  L 21.35644756496196 16  L 1.1202602576814864 16  Z M 15.063920975565066 19.88095031672178  C 15.063920975565066 19.88095031672178  15.063920975565066 12.119053811739416  15.063920975565066 12.119053811739416  L 16.875406534236014 12.119053811739416  C 16.875406534236014 12.119053811739416  16.875406534236014 19.904761904761905  16.875406534236014 19.904761904761905  C 16.875406534236014 20.42857154683464  16.803901023830836 20.825393996039086  16.660889055889996 21.09523534293063  C 16.51787708794916 21.365076689822175  16.239798629726053 21.57937258549527  15.826652734090187 21.73810280694077  C 15.429397793771463 21.865086984097168  14.8891308855119 21.936518909900464  14.205851062181011 21.952391961610815  C 13.538462194167261 21.98413794676831  12.712172297156506 22  11.726979476887777 22  C 11.679308505197335 21.746031645687204  11.583965614685964 21.460318902770265  11.440953646745125 21.142858519010876  C 11.31383168699094 20.825398135251483  11.186711147932483 20.54762394344722  11.059589661743539 20.309528626061876  C 11.599857043568345 20.325401648206423  12.10039608996982 20.333340214101998  12.561212010165637 20.333340214101998  C 13.037918885678595 20.34921323624655  13.44312214504735 20.35715180214212  13.776816105488981 20.35715180214212  C 14.126401021247753 20.35715180214212  14.372698515967071 20.34921323624655  14.51571048390791 20.333340214101998  C 14.738173439912492 20.317467191957448  14.881184460722842 20.27777435508813  14.944745440599938 20.214282273901382  C 15.02419642866368 20.16666321485918  15.063920975565066 20.05555354552893  15.063920975565066 19.88095031672178  Z M 3.0985923230080035 3.6428550786265435  L 3.0985923230080035 2.1190496832782184  L 10.845072183397527 2.1190496832782184  L 10.845072183397527 3.6428550786265435  L 3.0985923230080035 3.6428550786265435  Z M 12.29902734865113 3.6428550786265435  L 12.29902734865113 2.1190496832782184  L 21.737811549963546 2.1190496832782184  L 21.737811549963546 3.6428550786265435  L 12.29902734865113 3.6428550786265435  Z M 2.073674008707401 3.071422378736773  C 2.7251728685345 2.0714217766695153  3.24954953182479 1.0476190476190474  3.646804708926137 0  C 3.646804708926137 0  5.339110944110002 0.4523747596891544  5.339110944110002 0.4523747596891544  C 4.878295023914184 1.6269782209910233  4.306248572846561 2.7619057940200618  3.6229692230809154 3.85714423329659  C 2.939690110097892 4.936509857389189  2.232575984834891 5.849202880152147  1.5016261369440473 6.595234654853763  C 1.3903946589417557 6.499996817644493  1.2394362662118603 6.388887111356984  1.0487538001458236 6.261902697674162  C 0.8739613422664385 6.134918283991341  0.691223939489383 6.007931978097137  0.5005414142276909 5.880947564414315  C 0.30985888896599867 5.753964096837186  0.14301196794083845 5.658730990156372  0 5.5952387833149615  C 0.7468400928601171 4.8968254541651355  1.4380655122408865 4.05554921951441  2.073674008707401 3.071422378736773  Z M 11.560129181710257 2.8809448121068506  C 12.17984802516405 1.9603092320649325  12.656556794937984 0.9999996559615667  12.990250755379616 0  C 12.990250755379616 0  14.706394370669676 0.4047515836089081  14.706394370669676 0.4047515836089081  C 14.309138483220464 1.5476094145429173  13.776815158358495 2.6269816613753556  13.109426290344745 3.6428550786265435  C 12.457928377648134 4.658728495877732  11.758759019695837 5.5158671385497815  11.011918690053097 6.214279521593916  C 10.900687212050807 6.103168869200716  10.749729292886155 5.984120390057013  10.559046353254875 5.857135976374193  C 10.384254368940733 5.730151562691371  10.201518801228996 5.603179448382538  10.010835861597716 5.476195980805407  C 9.836043877283576 5.349211567122587  9.677141901156086 5.246025496000209  9.534129933215246 5.1666604739748685  C 10.26507978110609 4.547612166850383  10.940411285386947 3.785706630859147  11.560129181710257 2.8809448121068506  Z M 5.267606380835314 4.880951692875514  C 5.04514342483073 4.293649962224579  4.798843799067817 3.7539628927026696  4.528710108155414 3.2618999453666966  C 4.528710108155414 3.2618999453666966  6.054171730944682 2.761902009597296  6.054171730944682 2.761902009597296  C 6.308415176887811 3.2222193265654093  6.562658149265698 3.7380900775187396  6.8169015952088285 4.309518992985745  C 7.07114504115196 4.880947908452749  7.245938919727075 5.36507965177806  7.341280389542716 5.761904761904762  C 7.341280389542716 5.761904761904762  5.744312309217784 6.357149049834655  5.744312309217784 6.357149049834655  C 5.664861321154039 5.9444501784183315  5.505959818591792 5.452380608342519  5.267606380835314 4.880951692875514  Z M 15.612135255744175 4.928574868955761  C 15.24666033179875 4.325399377015206  14.857350869138598 3.7777744807427927  14.44420592063322 3.2857115334068197  C 14.44420592063322 3.2857115334068197  15.921994677471073 2.6904672454769267  15.921994677471073 2.6904672454769267  C 16.319249617789797 3.1507855085507313  16.708558133319464 3.6746092239456254  17.089924012582028 4.261910954596559  C 17.487178952900752 4.849212685247494  17.781148366440995 5.365083436200825  17.97183130607228 5.809527937985009  C 17.97183130607228 5.809527937985009  16.42253798595974 6.4761918523442095  16.42253798595974 6.4761918523442095  C 16.26363506270176 6.0317473505600265  15.993500187876247 5.515876599606695  15.612135255744175 4.928574868955761  Z M 6.101842702635124 18.28571015725309  C 5.5774658025622115 17.857138707179256  5.053087245010947 17.468254735172977  4.528710108155414 17.119048307124483  C 4.528710108155414 17.119048307124483  5.839654252598668 16.09524084754556  5.839654252598668 16.09524084754556  C 6.36403115267158 16.412701408699768  6.888408052744491 16.777784554618165  7.412784952817403 17.190483071244856  C 7.9371618528903145 17.603181587871543  8.421813732496599 18.023819705196907  8.866740118071009 18.452391273533948  C 9.327556038266827 18.880962782739385  9.693030962212248 19.285723827405207  9.963164889907274 19.666676299742797  C 9.963164889907274 19.666676299742797  8.580714287928357 20.809526561831277  8.580714287928357 20.809526561831277  C 8.326470841985227 20.428574089493686  7.9768863997917 20.015874538063898  7.531960487782533 19.571429947582303  C 7.102925057525262 19.126985386666515  6.626220076273279 18.698408733011384  6.101842702635124 18.28571015725309  Z " fill-rule="nonzero" fill="rgba(0, 0, 0, 1)" stroke="none" transform="matrix(1 0 0 1 166 643 )" class="fill" />
    <path d="M 10.177682368253288 11.785721854559815  L 10.177682368253288 5.571427195274838  L 12.01300151850848 5.571427195274838  L 12.01300151850848 11.785721854559815  L 10.177682368253288 11.785721854559815  Z " stroke-width="0" stroke-dasharray="0" stroke="rgba(121, 121, 121, 1)" fill="none" transform="matrix(1 0 0 1 166 643 )" class="stroke" mask="url(#Clip4499)" />
    <path d="M 2.717226443745443 9  L 2.717226443745443 7.190478942783656  L 19.73564589305278 7.190478942783656  L 19.73564589305278 9  L 2.717226443745443 9  Z " stroke-width="0" stroke-dasharray="0" stroke="rgba(121, 121, 121, 1)" fill="none" transform="matrix(1 0 0 1 166 643 )" class="stroke" mask="url(#Clip4499)" />
    <path d="M 0.3575303934173398 12  L 0.3575303934173398 11  L 22 11  L 22 12  L 0.3575303934173398 12  Z " stroke-width="0" stroke-dasharray="0" stroke="rgba(121, 121, 121, 1)" fill="none" transform="matrix(1 0 0 1 166 643 )" class="stroke" mask="url(#Clip4499)" />
    <path d="M 1.1202602576814864 16  L 1.1202602576814864 14.52381227611699  L 21.35644756496196 14.52381227611699  L 21.35644756496196 16  L 1.1202602576814864 16  Z " stroke-width="0" stroke-dasharray="0" stroke="rgba(121, 121, 121, 1)" fill="none" transform="matrix(1 0 0 1 166 643 )" class="stroke" mask="url(#Clip4499)" />
    <path d="M 15.063920975565066 19.88095031672178  C 15.063920975565066 19.88095031672178  15.063920975565066 12.119053811739416  15.063920975565066 12.119053811739416  L 16.875406534236014 12.119053811739416  C 16.875406534236014 12.119053811739416  16.875406534236014 19.904761904761905  16.875406534236014 19.904761904761905  C 16.875406534236014 20.42857154683464  16.803901023830836 20.825393996039086  16.660889055889996 21.09523534293063  C 16.51787708794916 21.365076689822175  16.239798629726053 21.57937258549527  15.826652734090187 21.73810280694077  C 15.429397793771463 21.865086984097168  14.8891308855119 21.936518909900464  14.205851062181011 21.952391961610815  C 13.538462194167261 21.98413794676831  12.712172297156506 22  11.726979476887777 22  C 11.679308505197335 21.746031645687204  11.583965614685964 21.460318902770265  11.440953646745125 21.142858519010876  C 11.31383168699094 20.825398135251483  11.186711147932483 20.54762394344722  11.059589661743539 20.309528626061876  C 11.599857043568345 20.325401648206423  12.10039608996982 20.333340214101998  12.561212010165637 20.333340214101998  C 13.037918885678595 20.34921323624655  13.44312214504735 20.35715180214212  13.776816105488981 20.35715180214212  C 14.126401021247753 20.35715180214212  14.372698515967071 20.34921323624655  14.51571048390791 20.333340214101998  C 14.738173439912492 20.317467191957448  14.881184460722842 20.27777435508813  14.944745440599938 20.214282273901382  C 15.02419642866368 20.16666321485918  15.063920975565066 20.05555354552893  15.063920975565066 19.88095031672178  Z " stroke-width="0" stroke-dasharray="0" stroke="rgba(121, 121, 121, 1)" fill="none" transform="matrix(1 0 0 1 166 643 )" class="stroke" mask="url(#Clip4499)" />
    <path d="M 3.0985923230080035 3.6428550786265435  L 3.0985923230080035 2.1190496832782184  L 10.845072183397527 2.1190496832782184  L 10.845072183397527 3.6428550786265435  L 3.0985923230080035 3.6428550786265435  Z " stroke-width="0" stroke-dasharray="0" stroke="rgba(121, 121, 121, 1)" fill="none" transform="matrix(1 0 0 1 166 643 )" class="stroke" mask="url(#Clip4499)" />
    <path d="M 12.29902734865113 3.6428550786265435  L 12.29902734865113 2.1190496832782184  L 21.737811549963546 2.1190496832782184  L 21.737811549963546 3.6428550786265435  L 12.29902734865113 3.6428550786265435  Z " stroke-width="0" stroke-dasharray="0" stroke="rgba(121, 121, 121, 1)" fill="none" transform="matrix(1 0 0 1 166 643 )" class="stroke" mask="url(#Clip4499)" />
    <path d="M 2.073674008707401 3.071422378736773  C 2.7251728685345 2.0714217766695153  3.24954953182479 1.0476190476190474  3.646804708926137 0  C 3.646804708926137 0  5.339110944110002 0.4523747596891544  5.339110944110002 0.4523747596891544  C 4.878295023914184 1.6269782209910233  4.306248572846561 2.7619057940200618  3.6229692230809154 3.85714423329659  C 2.939690110097892 4.936509857389189  2.232575984834891 5.849202880152147  1.5016261369440473 6.595234654853763  C 1.3903946589417557 6.499996817644493  1.2394362662118603 6.388887111356984  1.0487538001458236 6.261902697674162  C 0.8739613422664385 6.134918283991341  0.691223939489383 6.007931978097137  0.5005414142276909 5.880947564414315  C 0.30985888896599867 5.753964096837186  0.14301196794083845 5.658730990156372  0 5.5952387833149615  C 0.7468400928601171 4.8968254541651355  1.4380655122408865 4.05554921951441  2.073674008707401 3.071422378736773  Z " stroke-width="0" stroke-dasharray="0" stroke="rgba(121, 121, 121, 1)" fill="none" transform="matrix(1 0 0 1 166 643 )" class="stroke" mask="url(#Clip4499)" />
    <path d="M 11.560129181710257 2.8809448121068506  C 12.17984802516405 1.9603092320649325  12.656556794937984 0.9999996559615667  12.990250755379616 0  C 12.990250755379616 0  14.706394370669676 0.4047515836089081  14.706394370669676 0.4047515836089081  C 14.309138483220464 1.5476094145429173  13.776815158358495 2.6269816613753556  13.109426290344745 3.6428550786265435  C 12.457928377648134 4.658728495877732  11.758759019695837 5.5158671385497815  11.011918690053097 6.214279521593916  C 10.900687212050807 6.103168869200716  10.749729292886155 5.984120390057013  10.559046353254875 5.857135976374193  C 10.384254368940733 5.730151562691371  10.201518801228996 5.603179448382538  10.010835861597716 5.476195980805407  C 9.836043877283576 5.349211567122587  9.677141901156086 5.246025496000209  9.534129933215246 5.1666604739748685  C 10.26507978110609 4.547612166850383  10.940411285386947 3.785706630859147  11.560129181710257 2.8809448121068506  Z " stroke-width="0" stroke-dasharray="0" stroke="rgba(121, 121, 121, 1)" fill="none" transform="matrix(1 0 0 1 166 643 )" class="stroke" mask="url(#Clip4499)" />
    <path d="M 5.267606380835314 4.880951692875514  C 5.04514342483073 4.293649962224579  4.798843799067817 3.7539628927026696  4.528710108155414 3.2618999453666966  C 4.528710108155414 3.2618999453666966  6.054171730944682 2.761902009597296  6.054171730944682 2.761902009597296  C 6.308415176887811 3.2222193265654093  6.562658149265698 3.7380900775187396  6.8169015952088285 4.309518992985745  C 7.07114504115196 4.880947908452749  7.245938919727075 5.36507965177806  7.341280389542716 5.761904761904762  C 7.341280389542716 5.761904761904762  5.744312309217784 6.357149049834655  5.744312309217784 6.357149049834655  C 5.664861321154039 5.9444501784183315  5.505959818591792 5.452380608342519  5.267606380835314 4.880951692875514  Z " stroke-width="0" stroke-dasharray="0" stroke="rgba(121, 121, 121, 1)" fill="none" transform="matrix(1 0 0 1 166 643 )" class="stroke" mask="url(#Clip4499)" />
    <path d="M 15.612135255744175 4.928574868955761  C 15.24666033179875 4.325399377015206  14.857350869138598 3.7777744807427927  14.44420592063322 3.2857115334068197  C 14.44420592063322 3.2857115334068197  15.921994677471073 2.6904672454769267  15.921994677471073 2.6904672454769267  C 16.319249617789797 3.1507855085507313  16.708558133319464 3.6746092239456254  17.089924012582028 4.261910954596559  C 17.487178952900752 4.849212685247494  17.781148366440995 5.365083436200825  17.97183130607228 5.809527937985009  C 17.97183130607228 5.809527937985009  16.42253798595974 6.4761918523442095  16.42253798595974 6.4761918523442095  C 16.26363506270176 6.0317473505600265  15.993500187876247 5.515876599606695  15.612135255744175 4.928574868955761  Z " stroke-width="0" stroke-dasharray="0" stroke="rgba(121, 121, 121, 1)" fill="none" transform="matrix(1 0 0 1 166 643 )" class="stroke" mask="url(#Clip4499)" />
    <path d="M 6.101842702635124 18.28571015725309  C 5.5774658025622115 17.857138707179256  5.053087245010947 17.468254735172977  4.528710108155414 17.119048307124483  C 4.528710108155414 17.119048307124483  5.839654252598668 16.09524084754556  5.839654252598668 16.09524084754556  C 6.36403115267158 16.412701408699768  6.888408052744491 16.777784554618165  7.412784952817403 17.190483071244856  C 7.9371618528903145 17.603181587871543  8.421813732496599 18.023819705196907  8.866740118071009 18.452391273533948  C 9.327556038266827 18.880962782739385  9.693030962212248 19.285723827405207  9.963164889907274 19.666676299742797  C 9.963164889907274 19.666676299742797  8.580714287928357 20.809526561831277  8.580714287928357 20.809526561831277  C 8.326470841985227 20.428574089493686  7.9768863997917 20.015874538063898  7.531960487782533 19.571429947582303  C 7.102925057525262 19.126985386666515  6.626220076273279 18.698408733011384  6.101842702635124 18.28571015725309  Z " stroke-width="0" stroke-dasharray="0" stroke="rgba(121, 121, 121, 1)" fill="none" transform="matrix(1 0 0 1 166 643 )" class="stroke" mask="url(#Clip4499)" />
  </g>
</svg>