<?xml version="1.0" encoding="utf-8"?>
<svg version="1.1" xmlns:xlink="http://www.w3.org/1999/xlink" width="22px" height="22px" xmlns="http://www.w3.org/2000/svg">
  <defs>
    <pattern id="BGPattern" patternUnits="userSpaceOnUse" alignment="0 0" imageRepeat="None" />
    <mask fill="white" id="Clip4531">
      <path d="M 7.725910151423874 3.5152169781656974  L 7.725910151423874 2  L 21.50535361167553 2  L 21.50535361167553 3.5152169781656974  L 7.725910151423874 3.5152169781656974  Z M 7.2548175953248855 16.691301868994184  L 7.2548175953248855 15  L 21.45824407527288 15  L 21.45824407527288 16.691301868994184  L 7.2548175953248855 16.691301868994184  Z M 11.188438145610615 5.308698131005816  L 11.188438145610615 0  L 12.860813584242932 0  L 12.860813584242932 5.308698131005816  L 11.188438145610615 5.308698131005816  Z M 16.488223551875183 5.308698131005816  L 16.488223551875183 0  L 18.207710398861852 0  L 18.207710398861852 5.308698131005816  L 16.488223551875183 5.308698131005816  Z M 18.56102817797836 10.115224579916864  L 10.364026874419269 10.115224579916864  L 10.364026874419269 11.836960405242445  L 18.56102817797836 11.836960405242445  L 18.56102817797836 10.115224579916864  Z M 18.56102817797836 7.126094393017446  L 10.364026874419269 7.126094393017446  L 10.364026874419269 8.8  L 18.56102817797836 8.8  L 18.56102817797836 7.126094393017446  Z M 8.715204332036581 13  L 8.715204332036581 6  L 20.28051502496503 6  L 20.28051502496503 13  L 8.715204332036581 13  Z M 13.02569696165222 15.663043395633139  C 13.261242771713789 14.849999762445275  13.433976178563771 13.949284895493198  13.543898118178014 12.96087931528954  C 13.543898118178014 12.96087931528954  15.263383093212983 12.96087931528954  15.263383093212983 12.96087931528954  C 15.137759222765656 14.12464731761844  14.933620082297805 15.184778270739823  14.65096473583358 16.141299968556392  C 14.384012256178293 17.097821666372962  13.975733039266741 17.950728466960026  13.426126149123075 18.70000380087558  C 12.876518323003562 19.44927913479114  12.12277042044035 20.094931435227895  11.164883377409286 20.636960405242444  C 10.222698733199234 21.194931375839218  9.013562077321815 21.649275333915558  7.537473877764958 22  C 7.45895813975651 21.792753576710307  7.325481431940942 21.54564891528194  7.1370446902941005 21.258692429692438  C 6.948607948647259 20.9717359144086  6.768022640404886 20.740577381075784  6.5952887655669805 20.565215077727906  C 7.961455961485445 20.278258562444066  9.068522579141012 19.903630189814862  9.916488150545758 19.441311371183144  C 10.780157056747365 18.978992552551425  11.455389689290053 18.436959930132996  11.942185112197977 17.81522077904128  C 12.428980535105902 17.177539686756024  12.790151151590647 16.460144731295372  13.02569696165222 15.663043395633139  Z M 14.179871243758743 15.997824517029649  C 14.179871243758743 15.997824517029649  15.66381228068384 15.663043395633139  15.66381228068384 15.663043395633139  C 16.1663105704007 16.906521460261846  16.959315171998323 17.94274840989506  18.042827021452567 18.771733924887787  C 19.126338870906807 19.600719439880514  20.445396530422617 20.182617456773677  22 20.517400062887212  C 21.890078996361606 20.628994245128833  21.756603224521886 20.772464084425224  21.59957268448084 20.94782641746744  C 21.458245011248728 21.12318872081532  21.32476830343316 21.298550905385838  21.199143497009985 21.47391320873372  C 21.08922249337159 21.665217512663826  20.99500435654213 21.840579637845664  20.91648815054576 22  C 19.2362598745452 21.53768115167394  17.830835043616474 20.80435536070309  16.700214593735428 19.80000760175117  C 15.569593207878533 18.779717782828335  14.729479069878256 17.51231712605431  14.179871243758743 15.997824517029649  Z M 0.42398290269935435 6.289126386023835  L 0.42398290269935435 4.615220779041281  L 7.490364341362304 4.615220779041281  L 7.490364341362304 6.289126386023835  L 0.42398290269935435 6.289126386023835  Z M 3.368308453393508 21.97608489082849  L 3.368308453393508 0  L 5 0  L 5 21.97608489082849  L 3.368308453393508 21.97608489082849  Z M 2.8972163652824436 8.321743427076747  C 3.1327624093379756 7.413047671618171  3.329050584389284 6.53623746142975  3.486081358424293 5.691309470745352  C 3.486081358424293 5.691309470745352  4.569593207878534 6.073920810484887  4.569593207878534 6.073920810484887  C 4.412562433843525 7.030442508301459  4.2005711579893195 8.026819237267931  3.933619146321955 9.063050997384305  C 3.682370001463526 10.099282757500683  3.3997146549993027 11.119563193011917  3.0856531069292847 12.12391130829593  C 2.771591792853229 13.112316650944862  2.4339757105758464 14.036950903053485  2.072805094091099 14.897820716154067  C 1.7116344776063523 15.758690291699924  1.3347609943126704 16.500004394762392  0.9421842932191103 17.121743427076748  C 0.879372007004503 16.946381123728866  0.79300506958555 16.755072721979772  0.6830835979592323 16.54782641746744  C 0.5731620678344241 16.324638052984206  0.455389045806658 16.109425825912986  0.32976453187593385 15.902179283845932  C 0.21984300175112576 15.694932979333602  0.1099214716263176 15.519570794763085  0 15.376092492579653  C 0.36117061648474696 14.850005701313377  0.714489741066536 14.212326390688546  1.0599573152468764 13.463050997384306  C 1.4211278147346424 12.69783354410916  1.7587436630180626 11.876819237267929  2.072805094091099 11.000007601751168  C 2.386866408167155 10.123195966234404  2.6616703212269113 9.230438707425874  2.8972163652824436 8.321743427076747  Z M 4.0985011197674694 7.843486854153493  C 4.0985011197674694 7.843486854153493  4.970021459373543 7.15000950218896  4.970021459373543 7.15000950218896  C 5.111348898611692 7.341313271620936  5.315488741061431 7.660145919068993  5.582441220716719 8.106522648035465  C 5.8650960991930186 8.536957554585756  6.1556033470496345 9.015220303931834  6.453962028310716 9.54130757030756  C 6.76802310839281 10.051452539157657  7.050677986869109 10.529715763613183  7.301927131727539 10.976092492579655  C 7.568879611382828 11.422469221546127  7.757316821017593 11.749274205530618  7.86723829264391 11.956520747597676  C 7.86723829264391 11.956520747597676  6.736616906787016 13.247830218343026  6.736616906787016 13.247830218343026  C 6.626695435160698 12.928989494034353  6.453961560322792 12.522468746436678  6.218415282273297 12.028266075112214  C 5.9828694722117275 11.518121106262116  5.731620327353298 10.992034790105285  5.46466784769801 10.450005701313374  C 5.197715836030645 9.907977087630915  4.938615257767749 9.405794478018846  4.687366112909319 8.943475451526743  C 4.436116968050889 8.481156425034639  4.23982855900562 8.114501160994724  4.0985011197674694 7.843486854153493  Z " fill-rule="evenodd" />
    </mask>
  </defs>
  <g transform="matrix(1 0 0 1 -142 -612 )">
    <path d="M 7.725910151423874 3.5152169781656974  L 7.725910151423874 2  L 21.50535361167553 2  L 21.50535361167553 3.5152169781656974  L 7.725910151423874 3.5152169781656974  Z M 7.2548175953248855 16.691301868994184  L 7.2548175953248855 15  L 21.45824407527288 15  L 21.45824407527288 16.691301868994184  L 7.2548175953248855 16.691301868994184  Z M 11.188438145610615 5.308698131005816  L 11.188438145610615 0  L 12.860813584242932 0  L 12.860813584242932 5.308698131005816  L 11.188438145610615 5.308698131005816  Z M 16.488223551875183 5.308698131005816  L 16.488223551875183 0  L 18.207710398861852 0  L 18.207710398861852 5.308698131005816  L 16.488223551875183 5.308698131005816  Z M 18.56102817797836 10.115224579916864  L 10.364026874419269 10.115224579916864  L 10.364026874419269 11.836960405242445  L 18.56102817797836 11.836960405242445  L 18.56102817797836 10.115224579916864  Z M 18.56102817797836 7.126094393017446  L 10.364026874419269 7.126094393017446  L 10.364026874419269 8.8  L 18.56102817797836 8.8  L 18.56102817797836 7.126094393017446  Z M 8.715204332036581 13  L 8.715204332036581 6  L 20.28051502496503 6  L 20.28051502496503 13  L 8.715204332036581 13  Z M 13.02569696165222 15.663043395633139  C 13.261242771713789 14.849999762445275  13.433976178563771 13.949284895493198  13.543898118178014 12.96087931528954  C 13.543898118178014 12.96087931528954  15.263383093212983 12.96087931528954  15.263383093212983 12.96087931528954  C 15.137759222765656 14.12464731761844  14.933620082297805 15.184778270739823  14.65096473583358 16.141299968556392  C 14.384012256178293 17.097821666372962  13.975733039266741 17.950728466960026  13.426126149123075 18.70000380087558  C 12.876518323003562 19.44927913479114  12.12277042044035 20.094931435227895  11.164883377409286 20.636960405242444  C 10.222698733199234 21.194931375839218  9.013562077321815 21.649275333915558  7.537473877764958 22  C 7.45895813975651 21.792753576710307  7.325481431940942 21.54564891528194  7.1370446902941005 21.258692429692438  C 6.948607948647259 20.9717359144086  6.768022640404886 20.740577381075784  6.5952887655669805 20.565215077727906  C 7.961455961485445 20.278258562444066  9.068522579141012 19.903630189814862  9.916488150545758 19.441311371183144  C 10.780157056747365 18.978992552551425  11.455389689290053 18.436959930132996  11.942185112197977 17.81522077904128  C 12.428980535105902 17.177539686756024  12.790151151590647 16.460144731295372  13.02569696165222 15.663043395633139  Z M 14.179871243758743 15.997824517029649  C 14.179871243758743 15.997824517029649  15.66381228068384 15.663043395633139  15.66381228068384 15.663043395633139  C 16.1663105704007 16.906521460261846  16.959315171998323 17.94274840989506  18.042827021452567 18.771733924887787  C 19.126338870906807 19.600719439880514  20.445396530422617 20.182617456773677  22 20.517400062887212  C 21.890078996361606 20.628994245128833  21.756603224521886 20.772464084425224  21.59957268448084 20.94782641746744  C 21.458245011248728 21.12318872081532  21.32476830343316 21.298550905385838  21.199143497009985 21.47391320873372  C 21.08922249337159 21.665217512663826  20.99500435654213 21.840579637845664  20.91648815054576 22  C 19.2362598745452 21.53768115167394  17.830835043616474 20.80435536070309  16.700214593735428 19.80000760175117  C 15.569593207878533 18.779717782828335  14.729479069878256 17.51231712605431  14.179871243758743 15.997824517029649  Z M 0.42398290269935435 6.289126386023835  L 0.42398290269935435 4.615220779041281  L 7.490364341362304 4.615220779041281  L 7.490364341362304 6.289126386023835  L 0.42398290269935435 6.289126386023835  Z M 3.368308453393508 21.97608489082849  L 3.368308453393508 0  L 5 0  L 5 21.97608489082849  L 3.368308453393508 21.97608489082849  Z M 2.8972163652824436 8.321743427076747  C 3.1327624093379756 7.413047671618171  3.329050584389284 6.53623746142975  3.486081358424293 5.691309470745352  C 3.486081358424293 5.691309470745352  4.569593207878534 6.073920810484887  4.569593207878534 6.073920810484887  C 4.412562433843525 7.030442508301459  4.2005711579893195 8.026819237267931  3.933619146321955 9.063050997384305  C 3.682370001463526 10.099282757500683  3.3997146549993027 11.119563193011917  3.0856531069292847 12.12391130829593  C 2.771591792853229 13.112316650944862  2.4339757105758464 14.036950903053485  2.072805094091099 14.897820716154067  C 1.7116344776063523 15.758690291699924  1.3347609943126704 16.500004394762392  0.9421842932191103 17.121743427076748  C 0.879372007004503 16.946381123728866  0.79300506958555 16.755072721979772  0.6830835979592323 16.54782641746744  C 0.5731620678344241 16.324638052984206  0.455389045806658 16.109425825912986  0.32976453187593385 15.902179283845932  C 0.21984300175112576 15.694932979333602  0.1099214716263176 15.519570794763085  0 15.376092492579653  C 0.36117061648474696 14.850005701313377  0.714489741066536 14.212326390688546  1.0599573152468764 13.463050997384306  C 1.4211278147346424 12.69783354410916  1.7587436630180626 11.876819237267929  2.072805094091099 11.000007601751168  C 2.386866408167155 10.123195966234404  2.6616703212269113 9.230438707425874  2.8972163652824436 8.321743427076747  Z M 4.0985011197674694 7.843486854153493  C 4.0985011197674694 7.843486854153493  4.970021459373543 7.15000950218896  4.970021459373543 7.15000950218896  C 5.111348898611692 7.341313271620936  5.315488741061431 7.660145919068993  5.582441220716719 8.106522648035465  C 5.8650960991930186 8.536957554585756  6.1556033470496345 9.015220303931834  6.453962028310716 9.54130757030756  C 6.76802310839281 10.051452539157657  7.050677986869109 10.529715763613183  7.301927131727539 10.976092492579655  C 7.568879611382828 11.422469221546127  7.757316821017593 11.749274205530618  7.86723829264391 11.956520747597676  C 7.86723829264391 11.956520747597676  6.736616906787016 13.247830218343026  6.736616906787016 13.247830218343026  C 6.626695435160698 12.928989494034353  6.453961560322792 12.522468746436678  6.218415282273297 12.028266075112214  C 5.9828694722117275 11.518121106262116  5.731620327353298 10.992034790105285  5.46466784769801 10.450005701313374  C 5.197715836030645 9.907977087630915  4.938615257767749 9.405794478018846  4.687366112909319 8.943475451526743  C 4.436116968050889 8.481156425034639  4.23982855900562 8.114501160994724  4.0985011197674694 7.843486854153493  Z " fill-rule="nonzero" fill="rgba(0, 0, 0, 1)" stroke="none" transform="matrix(1 0 0 1 142 612 )" class="fill" />
    <path d="M 7.725910151423874 3.5152169781656974  L 7.725910151423874 2  L 21.50535361167553 2  L 21.50535361167553 3.5152169781656974  L 7.725910151423874 3.5152169781656974  Z " stroke-width="0" stroke-dasharray="0" stroke="rgba(121, 121, 121, 1)" fill="none" transform="matrix(1 0 0 1 142 612 )" class="stroke" mask="url(#Clip4531)" />
    <path d="M 7.2548175953248855 16.691301868994184  L 7.2548175953248855 15  L 21.45824407527288 15  L 21.45824407527288 16.691301868994184  L 7.2548175953248855 16.691301868994184  Z " stroke-width="0" stroke-dasharray="0" stroke="rgba(121, 121, 121, 1)" fill="none" transform="matrix(1 0 0 1 142 612 )" class="stroke" mask="url(#Clip4531)" />
    <path d="M 11.188438145610615 5.308698131005816  L 11.188438145610615 0  L 12.860813584242932 0  L 12.860813584242932 5.308698131005816  L 11.188438145610615 5.308698131005816  Z " stroke-width="0" stroke-dasharray="0" stroke="rgba(121, 121, 121, 1)" fill="none" transform="matrix(1 0 0 1 142 612 )" class="stroke" mask="url(#Clip4531)" />
    <path d="M 16.488223551875183 5.308698131005816  L 16.488223551875183 0  L 18.207710398861852 0  L 18.207710398861852 5.308698131005816  L 16.488223551875183 5.308698131005816  Z " stroke-width="0" stroke-dasharray="0" stroke="rgba(121, 121, 121, 1)" fill="none" transform="matrix(1 0 0 1 142 612 )" class="stroke" mask="url(#Clip4531)" />
    <path d="M 18.56102817797836 10.115224579916864  L 10.364026874419269 10.115224579916864  L 10.364026874419269 11.836960405242445  L 18.56102817797836 11.836960405242445  L 18.56102817797836 10.115224579916864  Z " stroke-width="0" stroke-dasharray="0" stroke="rgba(121, 121, 121, 1)" fill="none" transform="matrix(1 0 0 1 142 612 )" class="stroke" mask="url(#Clip4531)" />
    <path d="M 18.56102817797836 7.126094393017446  L 10.364026874419269 7.126094393017446  L 10.364026874419269 8.8  L 18.56102817797836 8.8  L 18.56102817797836 7.126094393017446  Z " stroke-width="0" stroke-dasharray="0" stroke="rgba(121, 121, 121, 1)" fill="none" transform="matrix(1 0 0 1 142 612 )" class="stroke" mask="url(#Clip4531)" />
    <path d="M 8.715204332036581 13  L 8.715204332036581 6  L 20.28051502496503 6  L 20.28051502496503 13  L 8.715204332036581 13  Z " stroke-width="0" stroke-dasharray="0" stroke="rgba(121, 121, 121, 1)" fill="none" transform="matrix(1 0 0 1 142 612 )" class="stroke" mask="url(#Clip4531)" />
    <path d="M 13.02569696165222 15.663043395633139  C 13.261242771713789 14.849999762445275  13.433976178563771 13.949284895493198  13.543898118178014 12.96087931528954  C 13.543898118178014 12.96087931528954  15.263383093212983 12.96087931528954  15.263383093212983 12.96087931528954  C 15.137759222765656 14.12464731761844  14.933620082297805 15.184778270739823  14.65096473583358 16.141299968556392  C 14.384012256178293 17.097821666372962  13.975733039266741 17.950728466960026  13.426126149123075 18.70000380087558  C 12.876518323003562 19.44927913479114  12.12277042044035 20.094931435227895  11.164883377409286 20.636960405242444  C 10.222698733199234 21.194931375839218  9.013562077321815 21.649275333915558  7.537473877764958 22  C 7.45895813975651 21.792753576710307  7.325481431940942 21.54564891528194  7.1370446902941005 21.258692429692438  C 6.948607948647259 20.9717359144086  6.768022640404886 20.740577381075784  6.5952887655669805 20.565215077727906  C 7.961455961485445 20.278258562444066  9.068522579141012 19.903630189814862  9.916488150545758 19.441311371183144  C 10.780157056747365 18.978992552551425  11.455389689290053 18.436959930132996  11.942185112197977 17.81522077904128  C 12.428980535105902 17.177539686756024  12.790151151590647 16.460144731295372  13.02569696165222 15.663043395633139  Z " stroke-width="0" stroke-dasharray="0" stroke="rgba(121, 121, 121, 1)" fill="none" transform="matrix(1 0 0 1 142 612 )" class="stroke" mask="url(#Clip4531)" />
    <path d="M 14.179871243758743 15.997824517029649  C 14.179871243758743 15.997824517029649  15.66381228068384 15.663043395633139  15.66381228068384 15.663043395633139  C 16.1663105704007 16.906521460261846  16.959315171998323 17.94274840989506  18.042827021452567 18.771733924887787  C 19.126338870906807 19.600719439880514  20.445396530422617 20.182617456773677  22 20.517400062887212  C 21.890078996361606 20.628994245128833  21.756603224521886 20.772464084425224  21.59957268448084 20.94782641746744  C 21.458245011248728 21.12318872081532  21.32476830343316 21.298550905385838  21.199143497009985 21.47391320873372  C 21.08922249337159 21.665217512663826  20.99500435654213 21.840579637845664  20.91648815054576 22  C 19.2362598745452 21.53768115167394  17.830835043616474 20.80435536070309  16.700214593735428 19.80000760175117  C 15.569593207878533 18.779717782828335  14.729479069878256 17.51231712605431  14.179871243758743 15.997824517029649  Z " stroke-width="0" stroke-dasharray="0" stroke="rgba(121, 121, 121, 1)" fill="none" transform="matrix(1 0 0 1 142 612 )" class="stroke" mask="url(#Clip4531)" />
    <path d="M 0.42398290269935435 6.289126386023835  L 0.42398290269935435 4.615220779041281  L 7.490364341362304 4.615220779041281  L 7.490364341362304 6.289126386023835  L 0.42398290269935435 6.289126386023835  Z " stroke-width="0" stroke-dasharray="0" stroke="rgba(121, 121, 121, 1)" fill="none" transform="matrix(1 0 0 1 142 612 )" class="stroke" mask="url(#Clip4531)" />
    <path d="M 3.368308453393508 21.97608489082849  L 3.368308453393508 0  L 5 0  L 5 21.97608489082849  L 3.368308453393508 21.97608489082849  Z " stroke-width="0" stroke-dasharray="0" stroke="rgba(121, 121, 121, 1)" fill="none" transform="matrix(1 0 0 1 142 612 )" class="stroke" mask="url(#Clip4531)" />
    <path d="M 2.8972163652824436 8.321743427076747  C 3.1327624093379756 7.413047671618171  3.329050584389284 6.53623746142975  3.486081358424293 5.691309470745352  C 3.486081358424293 5.691309470745352  4.569593207878534 6.073920810484887  4.569593207878534 6.073920810484887  C 4.412562433843525 7.030442508301459  4.2005711579893195 8.026819237267931  3.933619146321955 9.063050997384305  C 3.682370001463526 10.099282757500683  3.3997146549993027 11.119563193011917  3.0856531069292847 12.12391130829593  C 2.771591792853229 13.112316650944862  2.4339757105758464 14.036950903053485  2.072805094091099 14.897820716154067  C 1.7116344776063523 15.758690291699924  1.3347609943126704 16.500004394762392  0.9421842932191103 17.121743427076748  C 0.879372007004503 16.946381123728866  0.79300506958555 16.755072721979772  0.6830835979592323 16.54782641746744  C 0.5731620678344241 16.324638052984206  0.455389045806658 16.109425825912986  0.32976453187593385 15.902179283845932  C 0.21984300175112576 15.694932979333602  0.1099214716263176 15.519570794763085  0 15.376092492579653  C 0.36117061648474696 14.850005701313377  0.714489741066536 14.212326390688546  1.0599573152468764 13.463050997384306  C 1.4211278147346424 12.69783354410916  1.7587436630180626 11.876819237267929  2.072805094091099 11.000007601751168  C 2.386866408167155 10.123195966234404  2.6616703212269113 9.230438707425874  2.8972163652824436 8.321743427076747  Z " stroke-width="0" stroke-dasharray="0" stroke="rgba(121, 121, 121, 1)" fill="none" transform="matrix(1 0 0 1 142 612 )" class="stroke" mask="url(#Clip4531)" />
    <path d="M 4.0985011197674694 7.843486854153493  C 4.0985011197674694 7.843486854153493  4.970021459373543 7.15000950218896  4.970021459373543 7.15000950218896  C 5.111348898611692 7.341313271620936  5.315488741061431 7.660145919068993  5.582441220716719 8.106522648035465  C 5.8650960991930186 8.536957554585756  6.1556033470496345 9.015220303931834  6.453962028310716 9.54130757030756  C 6.76802310839281 10.051452539157657  7.050677986869109 10.529715763613183  7.301927131727539 10.976092492579655  C 7.568879611382828 11.422469221546127  7.757316821017593 11.749274205530618  7.86723829264391 11.956520747597676  C 7.86723829264391 11.956520747597676  6.736616906787016 13.247830218343026  6.736616906787016 13.247830218343026  C 6.626695435160698 12.928989494034353  6.453961560322792 12.522468746436678  6.218415282273297 12.028266075112214  C 5.9828694722117275 11.518121106262116  5.731620327353298 10.992034790105285  5.46466784769801 10.450005701313374  C 5.197715836030645 9.907977087630915  4.938615257767749 9.405794478018846  4.687366112909319 8.943475451526743  C 4.436116968050889 8.481156425034639  4.23982855900562 8.114501160994724  4.0985011197674694 7.843486854153493  Z " stroke-width="0" stroke-dasharray="0" stroke="rgba(121, 121, 121, 1)" fill="none" transform="matrix(1 0 0 1 142 612 )" class="stroke" mask="url(#Clip4531)" />
  </g>
</svg>