<?xml version="1.0" encoding="utf-8"?>
<svg version="1.1" xmlns:xlink="http://www.w3.org/1999/xlink" width="23px" height="22px" xmlns="http://www.w3.org/2000/svg">
  <defs>
    <pattern id="BGPattern" patternUnits="userSpaceOnUse" alignment="0 0" imageRepeat="None" />
    <mask fill="white" id="Clip4522">
      <path d="M 14.581220260550275 3.8571415792866985  L 14.581220260550275 0  L 16.42510738896434 0  L 16.42510738896434 3.8571415792866985  L 14.581220260550275 3.8571415792866985  Z M 12.591766343074628 6.023812947808717  C 12.850556351960835 5.357146653850097  13.05274294552588 4.753967792520196  13.198312626796103 4.2142848787643805  C 13.198312626796103 4.2142848787643805  15.114975437184583 4.738094042152936  15.114975437184583 4.738094042152936  C 14.856185428298376 5.3571409772198555  14.573136537397515 5.999997591732624  14.26582298006472 6.666664831796285  C 13.97468361752427 7.333331125754906  13.683546183122914 7.968249918979005  13.392406820582465 8.571424049783703  C 13.101267458042017 9.174598180588402  12.826292649598445 9.70634563831815  12.567502640712238 10.166663111605303  C 12.567502640712238 10.166663111605303  11.014764515534095 9.666665519872678  11.014764515534095 9.666665519872678  C 11.289729201247424 9.190475242323304  11.556599077008197 8.634927093145588  11.815389567929179 8.00000688076393  C 12.09035473567728 7.349213391067529  12.349150528980768 6.690479241767338  12.591766343074628 6.023812947808717  Z M 18.851261673624734 8.309527036929747  C 18.349854886575123 7.626987465656387  17.848442315108226 6.999992775197873  17.347035528058615 6.428564252917616  C 17.347035528058615 6.428564252917616  18.75422228928793 5.666669648331036  18.75422228928793 5.666669648331036  C 19.25562907633754 6.222225366349074  19.765115730261726 6.833327857392039  20.282696712103682 7.49999415135066  C 20.800277693945645 8.15078764104706  21.269334163271466 8.79364472861235  21.689868048220244 9.42856494099401  C 22.126577092030917 10.06348562642819  22.46623518267022 10.642849131681997  22.708850996764077 11.166658295070551  C 22.708850996764077 11.166658295070551  21.156112871585936 12.023814323961503  21.156112871585936 12.023814323961503  C 20.929671252284425 11.515877964835168  20.614265295172945 10.936499321900715  20.209905605016512 10.285705832204314  C 19.805545914860083 9.634912342507915  19.352668460674344 8.976193330888368  18.851261673624734 8.309527036929747  Z M 9.049574300420836 5  L 9.049574300420836 3.1428549803313364  L 22.32067803430411 3.1428549803313364  L 22.32067803430411 5  L 9.049574300420836 5  Z M 9.292195898931979 10.928572853872529  C 9.292195898931979 10.928572853872529  9.146613684757641 9.261899077083134  9.146613684757641 9.261899077083134  C 10.084729033583153 9.214280191243953  11.168417437922304 9.158725376326181  12.397672149288265 9.095233213172259  C 13.643101537481346 9.031741523070858  14.953228668913367 8.95238601670512  16.32805257951478 8.857147771974235  C 17.719051648978088 8.761909527243352  19.11005553878913 8.674600588855778  20.501054608252435 8.595235621439635  C 20.501054608252435 8.595235621439635  20.501054608252435 10.14285153994937  20.501054608252435 10.14285153994937  C 19.15857908723572 10.238089784680255  17.808006346092586 10.33333701740902  16.44935566621397 10.428575262139903  C 15.106880145197257 10.523813033818266  13.821020572405814 10.619045601918907  12.591766343074628 10.71428384664979  C 11.378685826501014 10.793648814065932  10.278834314169307 10.865080690718607  9.292195898931979 10.928572853872529  Z M 16.789032074174674 19.45237376034437  C 16.789032074174674 19.45237376034437  16.789032074174674 11.761902173426902  16.789032074174674 11.761902173426902  L 18.51160069077679 11.761902173426902  C 18.51160069077679 11.761902173426902  18.51160069077679 19.45237376034437  18.51160069077679 19.45237376034437  C 18.51160069077679 19.753960944009847  18.543942331874657 19.944441018322742  18.60864007511359 20.023806067044788  C 18.673337818352532 20.103171108375385  18.843167345706956 20.1428487876438  19.11813154938551 20.1428487876438  C 19.199003487416796 20.1428487876438  19.352669424743894 20.1428487876438  19.579111044045405 20.1428487876438  C 19.805552663346916 20.1428487876438  20.031991390439785 20.1428487876438  20.258433009741292 20.1428487876438  C 20.5010497879047 20.1428487876438  20.67087835118958 20.1428487876438  20.76792448401321 20.1428487876438  C 20.945842554868133 20.1428487876438  21.07524093355465 20.07141685185956  21.156112871585936 19.92855978042106  C 21.23698577368677 19.785702708982562  21.29359497342521 19.499990133092037  21.32594336300991 19.071418889210758  C 21.374466911456498 18.642847674895258  21.40682397766712 17.999990646461534  21.42299817245947 17.142848099567406  C 21.552393658937344 17.23808610777203  21.706044171151685 17.333333695290186  21.883962242006607 17.428571821757938  C 22.061880312861526 17.523809829962563  22.24788789128649 17.603165218065172  22.441981121003302 17.66665726295596  C 22.652248545512467 17.730149307846755  22.838256123937427 17.785704122764525  23 17.833323126866837  C 22.95147645155341 18.865068767644857  22.854420678034305 19.666666729381966  22.708850996764077 20.238095074267523  C 22.57945647435575 20.809523419153088  22.36919579833342 21.206345595313373  22.078056435792966 21.42856769329958  C 21.803091268044867 21.65078979128579  21.4229866036249 21.76189942112133  20.937754975437183 21.76189942112133  C 20.85688207333635 21.76189942112133  20.719410576262092 21.76189942112133  20.525318310614825 21.76189942112133  C 20.331225080898008 21.76189942112133  20.12094994383247 21.76189942112133  19.89450832453096 21.76189942112133  C 19.66806670522945 21.76189942112133  19.457806029207116 21.76189942112133  19.26371376355985 21.76189942112133  C 19.069620533843032 21.76189942112133  18.93213361165602 21.76189942112133  18.851261673624734 21.76189942112133  C 18.30133133812853 21.76189942112133  17.872706981540166 21.690467426205526  17.565393424207368 21.547610413898592  C 17.274254061666916 21.42062632411701  17.072082893214628 21.182530061842588  16.958862565598647 20.83332381494323  C 16.845641273913117 20.49999063839814  16.789032074174674 20.03967508688685  16.789032074174674 19.45237376034437  Z M 3.372361551229817 1.7619049257324746  C 3.6796753495800005 1.1111114360360745  3.930366451218081 0.523809163388556  4.124459198900122 0  C 4.124459198900122 0  5.725740153915799 0.6428670216682136  5.725740153915799 0.6428670216682136  C 5.418426596583003 1.1984217935812107  5.094931613936254 1.7936476959417942  4.755269184983987 2.428568381375974  C 4.4156065150143355 3.0634890668101535  4.067859398839763 3.6746066955337646  3.7120225340777626 4.261908022076243  C 3.3723601051254968 4.849209348618721  3.040775855926094 5.3571409772198555  2.717287862783562 5.7857123689300485  C 2.717287862783562 5.7857123689300485  1.4799470180909746 5.23809163388556  1.4799470180909746 5.23809163388556  C 1.7872606959324648 4.777773687545887  2.1026662915178647 4.24602670286866  2.426154284660396 3.6428525720639606  C 2.7496425188203144 3.023805636997042  3.0650479938970205 2.396825611166654  3.372361551229817 1.7619049257324746  Z M 5.701476451553409 4.80952875712073  C 6.13818501332931 4.047623745378707  6.526363278171789 3.3492118428956457  6.866026189158828 2.7142921035665064  C 6.866026189158828 2.7142921035665064  8.394516037087337 3.4047671308659373  8.394516037087337 3.4047671308659373  C 7.844586183625908 4.309528327072985  7.229953766577804 5.269837242410001  6.550628908673273 6.285709960662673  C 5.887478245561088 7.301582678915344  5.216236146739768 8.277783320615388  4.5369112888352365 9.214291071451918  C 3.8575861899133175 10.150798349235925  3.2106121317673493 10.976181805608785  2.5959847760843684 11.690467458459107  C 2.5959847760843684 11.690467458459107  1.4799470180909746 11.071427146127471  1.4799470180909746 11.071427146127471  C 1.9328303772026894 10.531745178476696  2.4018862439850444 9.920627076700564  2.8871183542075345 9.238087505427202  C 3.38852490023976 8.539675129891622  3.873759420636118 7.817463009013113  4.342817095048875 7.071431274585829  C 4.828049205271364 6.309527208948847  5.280941843552471 5.555560018495493  5.701476451553409 4.80952875712073  Z M 1.6497775095149474 6.285709960662673  C 1.196894270911926 5.825392960428039  0.7521062037875359 5.40476979716196  0.31539728048555576 5.023817764343468  C 0.31539728048555576 5.023817764343468  1.2373408446925875 3.8333300076307673  1.2373408446925875 3.8333300076307673  C 1.6902240832956088 4.198409236187039  2.143101537481347 4.611108769740052  2.5959847760843684 5.071425769974685  C 3.065042691514511 5.5158699659470996  3.4936675301376523 5.960323622969917  3.8818530255017354 6.4047678189423305  C 4.270038761883205 6.8333392106525235  4.5692654628372145 7.222222442024403  4.779532887346377 7.571428866318454  C 4.779532887346377 7.571428866318454  3.7847982160521774 8.928567349261385  3.7847982160521774 8.928567349261385  C 3.5745310325604014 8.563488120705113  3.2753040905890045 8.1507885871521  2.8871183542075345 7.690471586917466  C 2.5151070536358 7.214280836315571  2.102660868626662 6.746026960897306  1.6497775095149474 6.285709960662673  Z M 6.914553593883607 9.952374104382566  C 6.623414713377932 9.333326696263127  6.316098263836494 8.76984025274422  5.992610029676576 8.261903893617886  C 5.992610029676576 8.261903893617886  7.278478279093942 7.738094730229329  7.278478279093942 7.738094730229329  C 7.618140708046208 8.246031562408184  7.941620265580203 8.801579238533378  8.248933822913 9.404753369338078  C 8.556247380245797 9.992054695880555  8.823132199084554 10.571433338815009  9.049574300420836 11.142861861095268  C 9.292190114514696 11.698417106060784  9.47010866740439 12.198410440320727  9.583329477055145 12.642854636293139  C 9.583329477055145 12.642854636293139  8.200421843300974 13.23809851464949  8.200421843300974 13.23809851464949  C 8.10337571047734 12.793654318677078  7.933546665157688 12.285707552395298  7.690930369029056 11.714279030115039  C 7.464488749727545 11.142850980887303  7.2056929564240555 10.555548708239783  6.914553593883607 9.952374104382566  Z M 0.3881729624599702 12.30952290847139  C 0.3881729624599702 12.30952290847139  0.21834247103599752 10.666660703337929  0.21834247103599752 10.666660703337929  C 1.2858530653219993 10.634914621760966  2.539370394472109 10.587298574236906  3.978892409838539 10.523806411082985  C 5.418414545713663 10.460314720981582  6.906459748000604 10.3968211386701  8.44302801669936 10.333328975516178  C 8.44302801669936 10.333328975516178  8.418764314336972 11.785713745082832  8.418764314336972 11.785713745082832  C 6.979242660496621 11.880951989813717  5.555896165518167 11.976184084861838  4.148722901262512 12.07142232959272  C 2.7415497575155507 12.150787297008863  1.488032428365441 12.230157941055248  0.3881729624599702 12.30952290847139  Z M 7.521084452492329 16.142852916102157  C 7.246119766779001 15.317456214258732  6.946892824807605 14.555551202516709  6.623404590647687 13.857138826981126  C 6.623404590647687 13.857138826981126  7.957800244789833 13.452372384191584  7.957800244789833 13.452372384191584  C 8.281288478949751 14.119038678150202  8.588604446456415 14.865082002364229  8.879743808996864 15.690478467681396  C 9.187057366329661 16.500001892210083  9.397317560317221 17.19841367643001  9.510538369967975 17.785715121235622  C 9.510538369967975 17.785715121235622  8.127630736213804 18.261901141312315  8.127630736213804 18.261901141312315  C 8.01440992656305 17.658726773981357  7.812223815032778 16.95237622236771  7.521084452492329 16.142852916102157  Z M 0.9947192461814462 16.690473651146643  C 1.253509737102426 15.674601169420233  1.4556958486326979 14.650783770617348  1.6012655299029221 13.619038248102457  C 1.6012655299029221 13.619038248102457  3.1540036550810657 13.880950398637058  3.1540036550810657 13.880950398637058  C 2.9922597790184935 15.007933929356572  2.765821051925624 16.119045247129517  2.474681689385175 17.214282814535203  C 2.1835424473534197 18.293647459415535  1.8438690521100547 19.214278444174987  1.4556833157285851 19.976182923732924  C 1.3424625060778297 19.896817882402324  1.1969013809248361 19.817447400967744  1.0189829485438358 19.738082344854256  C 0.8572389519725702 19.658717303523655  0.6793206401002633 19.57936195976972  0.48522777190952837 19.499996903656232  C 0.30730933952852807 19.404758865885828  0.14556965114305115 19.333326930101588  0 19.285707896433493  C 0.4205345176194189 18.555549439320952  0.7521032513245477 17.690473328610835  0.9947192461814462 16.690473651146643  Z M 4.197250305987291 21.952376856688137  L 4.197250305987291 11.333324158981426  L 6 11.333324158981426  L 6 21.952376856688137  L 4.197250305987291 21.952376856688137  Z M 12.00948376171554 14.92856872541417  C 12.155053442985766 13.992061211103902  12.244020673004375 12.944443593905572  12.276369062589072 11.785713745082832  C 12.276369062589072 11.785713745082832  14.023201381553577 11.785713745082832  14.023201381553577 11.785713745082832  C 13.974677833106988 13.087300724475634  13.869547977130594 14.269843564111861  13.707804101068021 15.333335168203716  C 13.546060225005448 16.396826772295565  13.271085416561876 17.34919692023887  12.882899921197794 18.190466426344518  C 12.510888620626059 19.01586295079325  11.985223433596568 19.74602903587768  11.30589809365726 20.38094936652247  C 10.642747430545075 21.015869697167258  9.76933464530624 21.555555685764457  8.685649615210503 22  C 8.588603000352096 21.793650824539142  8.434952488137753 21.55555456226472  8.224685545663364 21.28571340104464  C 8.0144181211542 21.031745280613034  7.812232009623929 20.825388063259336  7.618139261941888 20.666657951032356  C 8.588603482386869 20.285705740819168  9.373064944754622 19.825390218873657  9.971517864627868 19.285707896433493  C 10.569970784501114 18.746025573993325  11.022848238686853 18.119045666426068  11.33016179601965 17.404760250102008  C 11.65365003017957 16.674601911252594  11.880088275237664 15.84920343546222  12.00948376171554 14.92856872541417  Z " fill-rule="evenodd" />
    </mask>
  </defs>
  <g transform="matrix(1 0 0 1 -358 -612 )">
    <path d="M 14.581220260550275 3.8571415792866985  L 14.581220260550275 0  L 16.42510738896434 0  L 16.42510738896434 3.8571415792866985  L 14.581220260550275 3.8571415792866985  Z M 12.591766343074628 6.023812947808717  C 12.850556351960835 5.357146653850097  13.05274294552588 4.753967792520196  13.198312626796103 4.2142848787643805  C 13.198312626796103 4.2142848787643805  15.114975437184583 4.738094042152936  15.114975437184583 4.738094042152936  C 14.856185428298376 5.3571409772198555  14.573136537397515 5.999997591732624  14.26582298006472 6.666664831796285  C 13.97468361752427 7.333331125754906  13.683546183122914 7.968249918979005  13.392406820582465 8.571424049783703  C 13.101267458042017 9.174598180588402  12.826292649598445 9.70634563831815  12.567502640712238 10.166663111605303  C 12.567502640712238 10.166663111605303  11.014764515534095 9.666665519872678  11.014764515534095 9.666665519872678  C 11.289729201247424 9.190475242323304  11.556599077008197 8.634927093145588  11.815389567929179 8.00000688076393  C 12.09035473567728 7.349213391067529  12.349150528980768 6.690479241767338  12.591766343074628 6.023812947808717  Z M 18.851261673624734 8.309527036929747  C 18.349854886575123 7.626987465656387  17.848442315108226 6.999992775197873  17.347035528058615 6.428564252917616  C 17.347035528058615 6.428564252917616  18.75422228928793 5.666669648331036  18.75422228928793 5.666669648331036  C 19.25562907633754 6.222225366349074  19.765115730261726 6.833327857392039  20.282696712103682 7.49999415135066  C 20.800277693945645 8.15078764104706  21.269334163271466 8.79364472861235  21.689868048220244 9.42856494099401  C 22.126577092030917 10.06348562642819  22.46623518267022 10.642849131681997  22.708850996764077 11.166658295070551  C 22.708850996764077 11.166658295070551  21.156112871585936 12.023814323961503  21.156112871585936 12.023814323961503  C 20.929671252284425 11.515877964835168  20.614265295172945 10.936499321900715  20.209905605016512 10.285705832204314  C 19.805545914860083 9.634912342507915  19.352668460674344 8.976193330888368  18.851261673624734 8.309527036929747  Z M 9.049574300420836 5  L 9.049574300420836 3.1428549803313364  L 22.32067803430411 3.1428549803313364  L 22.32067803430411 5  L 9.049574300420836 5  Z M 9.292195898931979 10.928572853872529  C 9.292195898931979 10.928572853872529  9.146613684757641 9.261899077083134  9.146613684757641 9.261899077083134  C 10.084729033583153 9.214280191243953  11.168417437922304 9.158725376326181  12.397672149288265 9.095233213172259  C 13.643101537481346 9.031741523070858  14.953228668913367 8.95238601670512  16.32805257951478 8.857147771974235  C 17.719051648978088 8.761909527243352  19.11005553878913 8.674600588855778  20.501054608252435 8.595235621439635  C 20.501054608252435 8.595235621439635  20.501054608252435 10.14285153994937  20.501054608252435 10.14285153994937  C 19.15857908723572 10.238089784680255  17.808006346092586 10.33333701740902  16.44935566621397 10.428575262139903  C 15.106880145197257 10.523813033818266  13.821020572405814 10.619045601918907  12.591766343074628 10.71428384664979  C 11.378685826501014 10.793648814065932  10.278834314169307 10.865080690718607  9.292195898931979 10.928572853872529  Z M 16.789032074174674 19.45237376034437  C 16.789032074174674 19.45237376034437  16.789032074174674 11.761902173426902  16.789032074174674 11.761902173426902  L 18.51160069077679 11.761902173426902  C 18.51160069077679 11.761902173426902  18.51160069077679 19.45237376034437  18.51160069077679 19.45237376034437  C 18.51160069077679 19.753960944009847  18.543942331874657 19.944441018322742  18.60864007511359 20.023806067044788  C 18.673337818352532 20.103171108375385  18.843167345706956 20.1428487876438  19.11813154938551 20.1428487876438  C 19.199003487416796 20.1428487876438  19.352669424743894 20.1428487876438  19.579111044045405 20.1428487876438  C 19.805552663346916 20.1428487876438  20.031991390439785 20.1428487876438  20.258433009741292 20.1428487876438  C 20.5010497879047 20.1428487876438  20.67087835118958 20.1428487876438  20.76792448401321 20.1428487876438  C 20.945842554868133 20.1428487876438  21.07524093355465 20.07141685185956  21.156112871585936 19.92855978042106  C 21.23698577368677 19.785702708982562  21.29359497342521 19.499990133092037  21.32594336300991 19.071418889210758  C 21.374466911456498 18.642847674895258  21.40682397766712 17.999990646461534  21.42299817245947 17.142848099567406  C 21.552393658937344 17.23808610777203  21.706044171151685 17.333333695290186  21.883962242006607 17.428571821757938  C 22.061880312861526 17.523809829962563  22.24788789128649 17.603165218065172  22.441981121003302 17.66665726295596  C 22.652248545512467 17.730149307846755  22.838256123937427 17.785704122764525  23 17.833323126866837  C 22.95147645155341 18.865068767644857  22.854420678034305 19.666666729381966  22.708850996764077 20.238095074267523  C 22.57945647435575 20.809523419153088  22.36919579833342 21.206345595313373  22.078056435792966 21.42856769329958  C 21.803091268044867 21.65078979128579  21.4229866036249 21.76189942112133  20.937754975437183 21.76189942112133  C 20.85688207333635 21.76189942112133  20.719410576262092 21.76189942112133  20.525318310614825 21.76189942112133  C 20.331225080898008 21.76189942112133  20.12094994383247 21.76189942112133  19.89450832453096 21.76189942112133  C 19.66806670522945 21.76189942112133  19.457806029207116 21.76189942112133  19.26371376355985 21.76189942112133  C 19.069620533843032 21.76189942112133  18.93213361165602 21.76189942112133  18.851261673624734 21.76189942112133  C 18.30133133812853 21.76189942112133  17.872706981540166 21.690467426205526  17.565393424207368 21.547610413898592  C 17.274254061666916 21.42062632411701  17.072082893214628 21.182530061842588  16.958862565598647 20.83332381494323  C 16.845641273913117 20.49999063839814  16.789032074174674 20.03967508688685  16.789032074174674 19.45237376034437  Z M 3.372361551229817 1.7619049257324746  C 3.6796753495800005 1.1111114360360745  3.930366451218081 0.523809163388556  4.124459198900122 0  C 4.124459198900122 0  5.725740153915799 0.6428670216682136  5.725740153915799 0.6428670216682136  C 5.418426596583003 1.1984217935812107  5.094931613936254 1.7936476959417942  4.755269184983987 2.428568381375974  C 4.4156065150143355 3.0634890668101535  4.067859398839763 3.6746066955337646  3.7120225340777626 4.261908022076243  C 3.3723601051254968 4.849209348618721  3.040775855926094 5.3571409772198555  2.717287862783562 5.7857123689300485  C 2.717287862783562 5.7857123689300485  1.4799470180909746 5.23809163388556  1.4799470180909746 5.23809163388556  C 1.7872606959324648 4.777773687545887  2.1026662915178647 4.24602670286866  2.426154284660396 3.6428525720639606  C 2.7496425188203144 3.023805636997042  3.0650479938970205 2.396825611166654  3.372361551229817 1.7619049257324746  Z M 5.701476451553409 4.80952875712073  C 6.13818501332931 4.047623745378707  6.526363278171789 3.3492118428956457  6.866026189158828 2.7142921035665064  C 6.866026189158828 2.7142921035665064  8.394516037087337 3.4047671308659373  8.394516037087337 3.4047671308659373  C 7.844586183625908 4.309528327072985  7.229953766577804 5.269837242410001  6.550628908673273 6.285709960662673  C 5.887478245561088 7.301582678915344  5.216236146739768 8.277783320615388  4.5369112888352365 9.214291071451918  C 3.8575861899133175 10.150798349235925  3.2106121317673493 10.976181805608785  2.5959847760843684 11.690467458459107  C 2.5959847760843684 11.690467458459107  1.4799470180909746 11.071427146127471  1.4799470180909746 11.071427146127471  C 1.9328303772026894 10.531745178476696  2.4018862439850444 9.920627076700564  2.8871183542075345 9.238087505427202  C 3.38852490023976 8.539675129891622  3.873759420636118 7.817463009013113  4.342817095048875 7.071431274585829  C 4.828049205271364 6.309527208948847  5.280941843552471 5.555560018495493  5.701476451553409 4.80952875712073  Z M 1.6497775095149474 6.285709960662673  C 1.196894270911926 5.825392960428039  0.7521062037875359 5.40476979716196  0.31539728048555576 5.023817764343468  C 0.31539728048555576 5.023817764343468  1.2373408446925875 3.8333300076307673  1.2373408446925875 3.8333300076307673  C 1.6902240832956088 4.198409236187039  2.143101537481347 4.611108769740052  2.5959847760843684 5.071425769974685  C 3.065042691514511 5.5158699659470996  3.4936675301376523 5.960323622969917  3.8818530255017354 6.4047678189423305  C 4.270038761883205 6.8333392106525235  4.5692654628372145 7.222222442024403  4.779532887346377 7.571428866318454  C 4.779532887346377 7.571428866318454  3.7847982160521774 8.928567349261385  3.7847982160521774 8.928567349261385  C 3.5745310325604014 8.563488120705113  3.2753040905890045 8.1507885871521  2.8871183542075345 7.690471586917466  C 2.5151070536358 7.214280836315571  2.102660868626662 6.746026960897306  1.6497775095149474 6.285709960662673  Z M 6.914553593883607 9.952374104382566  C 6.623414713377932 9.333326696263127  6.316098263836494 8.76984025274422  5.992610029676576 8.261903893617886  C 5.992610029676576 8.261903893617886  7.278478279093942 7.738094730229329  7.278478279093942 7.738094730229329  C 7.618140708046208 8.246031562408184  7.941620265580203 8.801579238533378  8.248933822913 9.404753369338078  C 8.556247380245797 9.992054695880555  8.823132199084554 10.571433338815009  9.049574300420836 11.142861861095268  C 9.292190114514696 11.698417106060784  9.47010866740439 12.198410440320727  9.583329477055145 12.642854636293139  C 9.583329477055145 12.642854636293139  8.200421843300974 13.23809851464949  8.200421843300974 13.23809851464949  C 8.10337571047734 12.793654318677078  7.933546665157688 12.285707552395298  7.690930369029056 11.714279030115039  C 7.464488749727545 11.142850980887303  7.2056929564240555 10.555548708239783  6.914553593883607 9.952374104382566  Z M 0.3881729624599702 12.30952290847139  C 0.3881729624599702 12.30952290847139  0.21834247103599752 10.666660703337929  0.21834247103599752 10.666660703337929  C 1.2858530653219993 10.634914621760966  2.539370394472109 10.587298574236906  3.978892409838539 10.523806411082985  C 5.418414545713663 10.460314720981582  6.906459748000604 10.3968211386701  8.44302801669936 10.333328975516178  C 8.44302801669936 10.333328975516178  8.418764314336972 11.785713745082832  8.418764314336972 11.785713745082832  C 6.979242660496621 11.880951989813717  5.555896165518167 11.976184084861838  4.148722901262512 12.07142232959272  C 2.7415497575155507 12.150787297008863  1.488032428365441 12.230157941055248  0.3881729624599702 12.30952290847139  Z M 7.521084452492329 16.142852916102157  C 7.246119766779001 15.317456214258732  6.946892824807605 14.555551202516709  6.623404590647687 13.857138826981126  C 6.623404590647687 13.857138826981126  7.957800244789833 13.452372384191584  7.957800244789833 13.452372384191584  C 8.281288478949751 14.119038678150202  8.588604446456415 14.865082002364229  8.879743808996864 15.690478467681396  C 9.187057366329661 16.500001892210083  9.397317560317221 17.19841367643001  9.510538369967975 17.785715121235622  C 9.510538369967975 17.785715121235622  8.127630736213804 18.261901141312315  8.127630736213804 18.261901141312315  C 8.01440992656305 17.658726773981357  7.812223815032778 16.95237622236771  7.521084452492329 16.142852916102157  Z M 0.9947192461814462 16.690473651146643  C 1.253509737102426 15.674601169420233  1.4556958486326979 14.650783770617348  1.6012655299029221 13.619038248102457  C 1.6012655299029221 13.619038248102457  3.1540036550810657 13.880950398637058  3.1540036550810657 13.880950398637058  C 2.9922597790184935 15.007933929356572  2.765821051925624 16.119045247129517  2.474681689385175 17.214282814535203  C 2.1835424473534197 18.293647459415535  1.8438690521100547 19.214278444174987  1.4556833157285851 19.976182923732924  C 1.3424625060778297 19.896817882402324  1.1969013809248361 19.817447400967744  1.0189829485438358 19.738082344854256  C 0.8572389519725702 19.658717303523655  0.6793206401002633 19.57936195976972  0.48522777190952837 19.499996903656232  C 0.30730933952852807 19.404758865885828  0.14556965114305115 19.333326930101588  0 19.285707896433493  C 0.4205345176194189 18.555549439320952  0.7521032513245477 17.690473328610835  0.9947192461814462 16.690473651146643  Z M 4.197250305987291 21.952376856688137  L 4.197250305987291 11.333324158981426  L 6 11.333324158981426  L 6 21.952376856688137  L 4.197250305987291 21.952376856688137  Z M 12.00948376171554 14.92856872541417  C 12.155053442985766 13.992061211103902  12.244020673004375 12.944443593905572  12.276369062589072 11.785713745082832  C 12.276369062589072 11.785713745082832  14.023201381553577 11.785713745082832  14.023201381553577 11.785713745082832  C 13.974677833106988 13.087300724475634  13.869547977130594 14.269843564111861  13.707804101068021 15.333335168203716  C 13.546060225005448 16.396826772295565  13.271085416561876 17.34919692023887  12.882899921197794 18.190466426344518  C 12.510888620626059 19.01586295079325  11.985223433596568 19.74602903587768  11.30589809365726 20.38094936652247  C 10.642747430545075 21.015869697167258  9.76933464530624 21.555555685764457  8.685649615210503 22  C 8.588603000352096 21.793650824539142  8.434952488137753 21.55555456226472  8.224685545663364 21.28571340104464  C 8.0144181211542 21.031745280613034  7.812232009623929 20.825388063259336  7.618139261941888 20.666657951032356  C 8.588603482386869 20.285705740819168  9.373064944754622 19.825390218873657  9.971517864627868 19.285707896433493  C 10.569970784501114 18.746025573993325  11.022848238686853 18.119045666426068  11.33016179601965 17.404760250102008  C 11.65365003017957 16.674601911252594  11.880088275237664 15.84920343546222  12.00948376171554 14.92856872541417  Z " fill-rule="nonzero" fill="rgba(0, 0, 0, 1)" stroke="none" transform="matrix(1 0 0 1 358 612 )" class="fill" />
    <path d="M 14.581220260550275 3.8571415792866985  L 14.581220260550275 0  L 16.42510738896434 0  L 16.42510738896434 3.8571415792866985  L 14.581220260550275 3.8571415792866985  Z " stroke-width="0" stroke-dasharray="0" stroke="rgba(121, 121, 121, 1)" fill="none" transform="matrix(1 0 0 1 358 612 )" class="stroke" mask="url(#Clip4522)" />
    <path d="M 12.591766343074628 6.023812947808717  C 12.850556351960835 5.357146653850097  13.05274294552588 4.753967792520196  13.198312626796103 4.2142848787643805  C 13.198312626796103 4.2142848787643805  15.114975437184583 4.738094042152936  15.114975437184583 4.738094042152936  C 14.856185428298376 5.3571409772198555  14.573136537397515 5.999997591732624  14.26582298006472 6.666664831796285  C 13.97468361752427 7.333331125754906  13.683546183122914 7.968249918979005  13.392406820582465 8.571424049783703  C 13.101267458042017 9.174598180588402  12.826292649598445 9.70634563831815  12.567502640712238 10.166663111605303  C 12.567502640712238 10.166663111605303  11.014764515534095 9.666665519872678  11.014764515534095 9.666665519872678  C 11.289729201247424 9.190475242323304  11.556599077008197 8.634927093145588  11.815389567929179 8.00000688076393  C 12.09035473567728 7.349213391067529  12.349150528980768 6.690479241767338  12.591766343074628 6.023812947808717  Z " stroke-width="0" stroke-dasharray="0" stroke="rgba(121, 121, 121, 1)" fill="none" transform="matrix(1 0 0 1 358 612 )" class="stroke" mask="url(#Clip4522)" />
    <path d="M 18.851261673624734 8.309527036929747  C 18.349854886575123 7.626987465656387  17.848442315108226 6.999992775197873  17.347035528058615 6.428564252917616  C 17.347035528058615 6.428564252917616  18.75422228928793 5.666669648331036  18.75422228928793 5.666669648331036  C 19.25562907633754 6.222225366349074  19.765115730261726 6.833327857392039  20.282696712103682 7.49999415135066  C 20.800277693945645 8.15078764104706  21.269334163271466 8.79364472861235  21.689868048220244 9.42856494099401  C 22.126577092030917 10.06348562642819  22.46623518267022 10.642849131681997  22.708850996764077 11.166658295070551  C 22.708850996764077 11.166658295070551  21.156112871585936 12.023814323961503  21.156112871585936 12.023814323961503  C 20.929671252284425 11.515877964835168  20.614265295172945 10.936499321900715  20.209905605016512 10.285705832204314  C 19.805545914860083 9.634912342507915  19.352668460674344 8.976193330888368  18.851261673624734 8.309527036929747  Z " stroke-width="0" stroke-dasharray="0" stroke="rgba(121, 121, 121, 1)" fill="none" transform="matrix(1 0 0 1 358 612 )" class="stroke" mask="url(#Clip4522)" />
    <path d="M 9.049574300420836 5  L 9.049574300420836 3.1428549803313364  L 22.32067803430411 3.1428549803313364  L 22.32067803430411 5  L 9.049574300420836 5  Z " stroke-width="0" stroke-dasharray="0" stroke="rgba(121, 121, 121, 1)" fill="none" transform="matrix(1 0 0 1 358 612 )" class="stroke" mask="url(#Clip4522)" />
    <path d="M 9.292195898931979 10.928572853872529  C 9.292195898931979 10.928572853872529  9.146613684757641 9.261899077083134  9.146613684757641 9.261899077083134  C 10.084729033583153 9.214280191243953  11.168417437922304 9.158725376326181  12.397672149288265 9.095233213172259  C 13.643101537481346 9.031741523070858  14.953228668913367 8.95238601670512  16.32805257951478 8.857147771974235  C 17.719051648978088 8.761909527243352  19.11005553878913 8.674600588855778  20.501054608252435 8.595235621439635  C 20.501054608252435 8.595235621439635  20.501054608252435 10.14285153994937  20.501054608252435 10.14285153994937  C 19.15857908723572 10.238089784680255  17.808006346092586 10.33333701740902  16.44935566621397 10.428575262139903  C 15.106880145197257 10.523813033818266  13.821020572405814 10.619045601918907  12.591766343074628 10.71428384664979  C 11.378685826501014 10.793648814065932  10.278834314169307 10.865080690718607  9.292195898931979 10.928572853872529  Z " stroke-width="0" stroke-dasharray="0" stroke="rgba(121, 121, 121, 1)" fill="none" transform="matrix(1 0 0 1 358 612 )" class="stroke" mask="url(#Clip4522)" />
    <path d="M 16.789032074174674 19.45237376034437  C 16.789032074174674 19.45237376034437  16.789032074174674 11.761902173426902  16.789032074174674 11.761902173426902  L 18.51160069077679 11.761902173426902  C 18.51160069077679 11.761902173426902  18.51160069077679 19.45237376034437  18.51160069077679 19.45237376034437  C 18.51160069077679 19.753960944009847  18.543942331874657 19.944441018322742  18.60864007511359 20.023806067044788  C 18.673337818352532 20.103171108375385  18.843167345706956 20.1428487876438  19.11813154938551 20.1428487876438  C 19.199003487416796 20.1428487876438  19.352669424743894 20.1428487876438  19.579111044045405 20.1428487876438  C 19.805552663346916 20.1428487876438  20.031991390439785 20.1428487876438  20.258433009741292 20.1428487876438  C 20.5010497879047 20.1428487876438  20.67087835118958 20.1428487876438  20.76792448401321 20.1428487876438  C 20.945842554868133 20.1428487876438  21.07524093355465 20.07141685185956  21.156112871585936 19.92855978042106  C 21.23698577368677 19.785702708982562  21.29359497342521 19.499990133092037  21.32594336300991 19.071418889210758  C 21.374466911456498 18.642847674895258  21.40682397766712 17.999990646461534  21.42299817245947 17.142848099567406  C 21.552393658937344 17.23808610777203  21.706044171151685 17.333333695290186  21.883962242006607 17.428571821757938  C 22.061880312861526 17.523809829962563  22.24788789128649 17.603165218065172  22.441981121003302 17.66665726295596  C 22.652248545512467 17.730149307846755  22.838256123937427 17.785704122764525  23 17.833323126866837  C 22.95147645155341 18.865068767644857  22.854420678034305 19.666666729381966  22.708850996764077 20.238095074267523  C 22.57945647435575 20.809523419153088  22.36919579833342 21.206345595313373  22.078056435792966 21.42856769329958  C 21.803091268044867 21.65078979128579  21.4229866036249 21.76189942112133  20.937754975437183 21.76189942112133  C 20.85688207333635 21.76189942112133  20.719410576262092 21.76189942112133  20.525318310614825 21.76189942112133  C 20.331225080898008 21.76189942112133  20.12094994383247 21.76189942112133  19.89450832453096 21.76189942112133  C 19.66806670522945 21.76189942112133  19.457806029207116 21.76189942112133  19.26371376355985 21.76189942112133  C 19.069620533843032 21.76189942112133  18.93213361165602 21.76189942112133  18.851261673624734 21.76189942112133  C 18.30133133812853 21.76189942112133  17.872706981540166 21.690467426205526  17.565393424207368 21.547610413898592  C 17.274254061666916 21.42062632411701  17.072082893214628 21.182530061842588  16.958862565598647 20.83332381494323  C 16.845641273913117 20.49999063839814  16.789032074174674 20.03967508688685  16.789032074174674 19.45237376034437  Z " stroke-width="0" stroke-dasharray="0" stroke="rgba(121, 121, 121, 1)" fill="none" transform="matrix(1 0 0 1 358 612 )" class="stroke" mask="url(#Clip4522)" />
    <path d="M 3.372361551229817 1.7619049257324746  C 3.6796753495800005 1.1111114360360745  3.930366451218081 0.523809163388556  4.124459198900122 0  C 4.124459198900122 0  5.725740153915799 0.6428670216682136  5.725740153915799 0.6428670216682136  C 5.418426596583003 1.1984217935812107  5.094931613936254 1.7936476959417942  4.755269184983987 2.428568381375974  C 4.4156065150143355 3.0634890668101535  4.067859398839763 3.6746066955337646  3.7120225340777626 4.261908022076243  C 3.3723601051254968 4.849209348618721  3.040775855926094 5.3571409772198555  2.717287862783562 5.7857123689300485  C 2.717287862783562 5.7857123689300485  1.4799470180909746 5.23809163388556  1.4799470180909746 5.23809163388556  C 1.7872606959324648 4.777773687545887  2.1026662915178647 4.24602670286866  2.426154284660396 3.6428525720639606  C 2.7496425188203144 3.023805636997042  3.0650479938970205 2.396825611166654  3.372361551229817 1.7619049257324746  Z " stroke-width="0" stroke-dasharray="0" stroke="rgba(121, 121, 121, 1)" fill="none" transform="matrix(1 0 0 1 358 612 )" class="stroke" mask="url(#Clip4522)" />
    <path d="M 5.701476451553409 4.80952875712073  C 6.13818501332931 4.047623745378707  6.526363278171789 3.3492118428956457  6.866026189158828 2.7142921035665064  C 6.866026189158828 2.7142921035665064  8.394516037087337 3.4047671308659373  8.394516037087337 3.4047671308659373  C 7.844586183625908 4.309528327072985  7.229953766577804 5.269837242410001  6.550628908673273 6.285709960662673  C 5.887478245561088 7.301582678915344  5.216236146739768 8.277783320615388  4.5369112888352365 9.214291071451918  C 3.8575861899133175 10.150798349235925  3.2106121317673493 10.976181805608785  2.5959847760843684 11.690467458459107  C 2.5959847760843684 11.690467458459107  1.4799470180909746 11.071427146127471  1.4799470180909746 11.071427146127471  C 1.9328303772026894 10.531745178476696  2.4018862439850444 9.920627076700564  2.8871183542075345 9.238087505427202  C 3.38852490023976 8.539675129891622  3.873759420636118 7.817463009013113  4.342817095048875 7.071431274585829  C 4.828049205271364 6.309527208948847  5.280941843552471 5.555560018495493  5.701476451553409 4.80952875712073  Z " stroke-width="0" stroke-dasharray="0" stroke="rgba(121, 121, 121, 1)" fill="none" transform="matrix(1 0 0 1 358 612 )" class="stroke" mask="url(#Clip4522)" />
    <path d="M 1.6497775095149474 6.285709960662673  C 1.196894270911926 5.825392960428039  0.7521062037875359 5.40476979716196  0.31539728048555576 5.023817764343468  C 0.31539728048555576 5.023817764343468  1.2373408446925875 3.8333300076307673  1.2373408446925875 3.8333300076307673  C 1.6902240832956088 4.198409236187039  2.143101537481347 4.611108769740052  2.5959847760843684 5.071425769974685  C 3.065042691514511 5.5158699659470996  3.4936675301376523 5.960323622969917  3.8818530255017354 6.4047678189423305  C 4.270038761883205 6.8333392106525235  4.5692654628372145 7.222222442024403  4.779532887346377 7.571428866318454  C 4.779532887346377 7.571428866318454  3.7847982160521774 8.928567349261385  3.7847982160521774 8.928567349261385  C 3.5745310325604014 8.563488120705113  3.2753040905890045 8.1507885871521  2.8871183542075345 7.690471586917466  C 2.5151070536358 7.214280836315571  2.102660868626662 6.746026960897306  1.6497775095149474 6.285709960662673  Z " stroke-width="0" stroke-dasharray="0" stroke="rgba(121, 121, 121, 1)" fill="none" transform="matrix(1 0 0 1 358 612 )" class="stroke" mask="url(#Clip4522)" />
    <path d="M 6.914553593883607 9.952374104382566  C 6.623414713377932 9.333326696263127  6.316098263836494 8.76984025274422  5.992610029676576 8.261903893617886  C 5.992610029676576 8.261903893617886  7.278478279093942 7.738094730229329  7.278478279093942 7.738094730229329  C 7.618140708046208 8.246031562408184  7.941620265580203 8.801579238533378  8.248933822913 9.404753369338078  C 8.556247380245797 9.992054695880555  8.823132199084554 10.571433338815009  9.049574300420836 11.142861861095268  C 9.292190114514696 11.698417106060784  9.47010866740439 12.198410440320727  9.583329477055145 12.642854636293139  C 9.583329477055145 12.642854636293139  8.200421843300974 13.23809851464949  8.200421843300974 13.23809851464949  C 8.10337571047734 12.793654318677078  7.933546665157688 12.285707552395298  7.690930369029056 11.714279030115039  C 7.464488749727545 11.142850980887303  7.2056929564240555 10.555548708239783  6.914553593883607 9.952374104382566  Z " stroke-width="0" stroke-dasharray="0" stroke="rgba(121, 121, 121, 1)" fill="none" transform="matrix(1 0 0 1 358 612 )" class="stroke" mask="url(#Clip4522)" />
    <path d="M 0.3881729624599702 12.30952290847139  C 0.3881729624599702 12.30952290847139  0.21834247103599752 10.666660703337929  0.21834247103599752 10.666660703337929  C 1.2858530653219993 10.634914621760966  2.539370394472109 10.587298574236906  3.978892409838539 10.523806411082985  C 5.418414545713663 10.460314720981582  6.906459748000604 10.3968211386701  8.44302801669936 10.333328975516178  C 8.44302801669936 10.333328975516178  8.418764314336972 11.785713745082832  8.418764314336972 11.785713745082832  C 6.979242660496621 11.880951989813717  5.555896165518167 11.976184084861838  4.148722901262512 12.07142232959272  C 2.7415497575155507 12.150787297008863  1.488032428365441 12.230157941055248  0.3881729624599702 12.30952290847139  Z " stroke-width="0" stroke-dasharray="0" stroke="rgba(121, 121, 121, 1)" fill="none" transform="matrix(1 0 0 1 358 612 )" class="stroke" mask="url(#Clip4522)" />
    <path d="M 7.521084452492329 16.142852916102157  C 7.246119766779001 15.317456214258732  6.946892824807605 14.555551202516709  6.623404590647687 13.857138826981126  C 6.623404590647687 13.857138826981126  7.957800244789833 13.452372384191584  7.957800244789833 13.452372384191584  C 8.281288478949751 14.119038678150202  8.588604446456415 14.865082002364229  8.879743808996864 15.690478467681396  C 9.187057366329661 16.500001892210083  9.397317560317221 17.19841367643001  9.510538369967975 17.785715121235622  C 9.510538369967975 17.785715121235622  8.127630736213804 18.261901141312315  8.127630736213804 18.261901141312315  C 8.01440992656305 17.658726773981357  7.812223815032778 16.95237622236771  7.521084452492329 16.142852916102157  Z " stroke-width="0" stroke-dasharray="0" stroke="rgba(121, 121, 121, 1)" fill="none" transform="matrix(1 0 0 1 358 612 )" class="stroke" mask="url(#Clip4522)" />
    <path d="M 0.9947192461814462 16.690473651146643  C 1.253509737102426 15.674601169420233  1.4556958486326979 14.650783770617348  1.6012655299029221 13.619038248102457  C 1.6012655299029221 13.619038248102457  3.1540036550810657 13.880950398637058  3.1540036550810657 13.880950398637058  C 2.9922597790184935 15.007933929356572  2.765821051925624 16.119045247129517  2.474681689385175 17.214282814535203  C 2.1835424473534197 18.293647459415535  1.8438690521100547 19.214278444174987  1.4556833157285851 19.976182923732924  C 1.3424625060778297 19.896817882402324  1.1969013809248361 19.817447400967744  1.0189829485438358 19.738082344854256  C 0.8572389519725702 19.658717303523655  0.6793206401002633 19.57936195976972  0.48522777190952837 19.499996903656232  C 0.30730933952852807 19.404758865885828  0.14556965114305115 19.333326930101588  0 19.285707896433493  C 0.4205345176194189 18.555549439320952  0.7521032513245477 17.690473328610835  0.9947192461814462 16.690473651146643  Z " stroke-width="0" stroke-dasharray="0" stroke="rgba(121, 121, 121, 1)" fill="none" transform="matrix(1 0 0 1 358 612 )" class="stroke" mask="url(#Clip4522)" />
    <path d="M 4.197250305987291 21.952376856688137  L 4.197250305987291 11.333324158981426  L 6 11.333324158981426  L 6 21.952376856688137  L 4.197250305987291 21.952376856688137  Z " stroke-width="0" stroke-dasharray="0" stroke="rgba(121, 121, 121, 1)" fill="none" transform="matrix(1 0 0 1 358 612 )" class="stroke" mask="url(#Clip4522)" />
    <path d="M 12.00948376171554 14.92856872541417  C 12.155053442985766 13.992061211103902  12.244020673004375 12.944443593905572  12.276369062589072 11.785713745082832  C 12.276369062589072 11.785713745082832  14.023201381553577 11.785713745082832  14.023201381553577 11.785713745082832  C 13.974677833106988 13.087300724475634  13.869547977130594 14.269843564111861  13.707804101068021 15.333335168203716  C 13.546060225005448 16.396826772295565  13.271085416561876 17.34919692023887  12.882899921197794 18.190466426344518  C 12.510888620626059 19.01586295079325  11.985223433596568 19.74602903587768  11.30589809365726 20.38094936652247  C 10.642747430545075 21.015869697167258  9.76933464530624 21.555555685764457  8.685649615210503 22  C 8.588603000352096 21.793650824539142  8.434952488137753 21.55555456226472  8.224685545663364 21.28571340104464  C 8.0144181211542 21.031745280613034  7.812232009623929 20.825388063259336  7.618139261941888 20.666657951032356  C 8.588603482386869 20.285705740819168  9.373064944754622 19.825390218873657  9.971517864627868 19.285707896433493  C 10.569970784501114 18.746025573993325  11.022848238686853 18.119045666426068  11.33016179601965 17.404760250102008  C 11.65365003017957 16.674601911252594  11.880088275237664 15.84920343546222  12.00948376171554 14.92856872541417  Z " stroke-width="0" stroke-dasharray="0" stroke="rgba(121, 121, 121, 1)" fill="none" transform="matrix(1 0 0 1 358 612 )" class="stroke" mask="url(#Clip4522)" />
  </g>
</svg>