<?xml version="1.0" encoding="utf-8"?>
<svg version="1.1" xmlns:xlink="http://www.w3.org/1999/xlink" width="22px" height="22px" xmlns="http://www.w3.org/2000/svg">
  <defs>
    <pattern id="BGPattern" patternUnits="userSpaceOnUse" alignment="0 0" imageRepeat="None" />
    <mask fill="white" id="Clip4520">
      <path d="M 0.09713869477773551 3  L 0.09713869477773551 2  L 21.63577620991794 2  L 21.63577620991794 3  L 0.09713869477773551 3  Z M 0 18  L 0 16.858062362343208  L 21.708614792556425 16.858062362343208  L 21.708614792556425 18  L 0 18  Z M 1.602634079384483 5.846314292422041  L 1.602634079384483 4.789764237936074  L 9.713035801753527 4.789764237936074  L 9.713035801753527 5.846314292422041  L 1.602634079384483 5.846314292422041  Z M 11.412808575915745 7.161157680892728  L 11.412808575915745 5.822848007903518  L 18.45474640950896 5.822848007903518  L 18.45474640950896 7.161157680892728  L 11.412808575915745 7.161157680892728  Z M 3.0353217582423753 15.684106246955096  L 3.0353217582423753 14.533616416085506  L 18.794700964341402 14.533616416085506  L 18.794700964341402 15.684106246955096  L 3.0353217582423753 15.684106246955096  Z M 1.359818219329775 11.551756239423412  L 1.359818219329775 10.518672469455968  L 10.077259591835588 10.518672469455968  L 10.077259591835588 11.551756239423412  L 1.359818219329775 11.551756239423412  Z M 0.43709324961017926 8  L 0.43709324961017926 7  L 10.830038161028593 7  L 10.830038161028593 8  L 0.43709324961017926 8  Z M 5.900666239068529 3.967981522268679  L 5.900666239068529 0  L 7.649008360619614 0  L 7.649008360619614 3.967981522268679  L 5.900666239068529 3.967981522268679  Z M 4.905071809820816 7.489864796094924  L 4.905071809820816 4.038425158809967  L 6.459167418706062 4.038425158809967  L 6.459167418706062 7.489864796094924  L 4.905071809820816 7.489864796094924  Z M 4.905071809820816 13.265750379637584  L 4.905071809820816 9.321235141887426  L 6.483436653955681 9.321235141887426  L 6.483436653955681 13.265750379637584  L 4.905071809820816 13.265750379637584  Z M 13.986767849298323 3.967981522268679  L 13.986767849298323 0  L 15.783679318238276 0  L 15.783679318238276 3.967981522268679  L 13.986767849298323 3.967981522268679  Z M 1.554095608885246 21.577368036076088  C 1.554095608885246 21.577368036076088  1.359818219329775 20.286020787447736  1.359818219329775 20.286020787447736  C 2.7034539331718848 20.23906241571384  4.289925528801822 20.176449970556035  6.119212863873617 20.098186017666208  C 7.948500198945414 20.035574869932145  9.907277007453962 19.957305559702718  11.995578990802898 19.863388823523824  C 14.100068665992053 19.785124877922897  16.1964676311952 19.699042073752913  18.284769132092737 19.605125344862916  C 18.284769132092737 19.605125344862916  18.26049989684312 20.70863782370974  18.26049989684312 20.70863782370974  C 16.23695109311207 20.818207328599907  14.20529228133899 20.927790303372497  12.165556268219119 21.037359866573844  C 10.125820255099248 21.146929371464008  8.191316059000123 21.248669026127818  6.362028723928327 21.34258576959561  C 4.5489295631481514 21.436502454752222  2.946296569279319 21.514756873764227  1.554095608885246 21.577368036076088  Z M 0.4613624848597979 14.08751816764307  C 0.4613624848597979 14.08751816764307  0.33995455483244374 12.93702833677348  0.33995455483244374 12.93702833677348  C 1.1979388886705675 12.890070110817533  2.1854392307724697 12.835286058106604  3.3024377304363326 12.772674779172384  C 4.435624404391817 12.710063500238164  5.641647248728784 12.63963759029539  6.9205299035658605 12.561373724872334  C 8.199412075951534 12.483109859449279  9.486398466962429 12.404840396153006  10.781468813639725 12.326576530729948  C 10.781468813639725 12.326576530729948  10.781468813639725 13.383141512877824  10.781468813639725 13.383141512877824  C 9.534963472288693 13.461405844790313  8.288443174944247 13.547488539626835  7.041937833593214 13.64140499153873  C 5.7954320097907805 13.73532190994006  4.613682501540335 13.821419532438487  3.496684243102173 13.899683397861546  C 2.37968574343831 13.977947263284602  1.3679119446370351 14.040559708442407  0.4613624848597979 14.08751816764307  Z M 2.8410443686869042 8.35859500846127  C 3.067681944703701 8.076844719746719  3.2133841974534985 7.74031177778954  3.2781376182970834 7.348992450674255  C 3.2781376182970834 7.348992450674255  4.540848019738753 7.348992450674255  4.540848019738753 7.348992450674255  C 4.443717767860527 7.896839508635653  4.25754942144428 8.366425966600035  3.98234684010122 8.757745760204752  C 3.723332674275481 9.149065553809471  3.3348032238630636 9.47776987007506  2.816775133437286 9.74386710581134  C 2.314935217303128 9.994311755058781  1.6431130786258943 10.205619340210914  0.8013170396922416 10.3778001240353  C 0.752751913753128 10.236924979678024  0.6556273306788565 10.07257282154523  0.5099318322486656 9.884739451232008  C 0.36423645443132485 9.696906080918783  0.22664577769060515 9.548210707679738  0.09713869477773551 9.438641202789572  C 0.8418043612203108 9.329071697899407  1.424582857168421 9.188190022690046  1.845480816328822 9.01600923886566  C 2.2825670703936947 8.843828455041274  2.6144070338958074 8.62469224419755  2.8410443686869042 8.35859500846127  Z M 17.65342936981672 11.50480874272446  C 17.65342936981672 11.50480874272446  17.65342936981672 5.822848007903518  17.65342936981672 5.822848007903518  L 19.158955631313095 5.822848007903518  C 19.158955631313095 5.822848007903518  19.158955631313095 11.598718663784272  19.158955631313095 11.598718663784272  C 19.158955631313095 12.068302322812047  19.191310752034717 12.334409354826452  19.2560634492012 12.397020167271236  C 19.320817111270486 12.459631446205456  19.434165208201463 12.490930088331046  19.596048880923274 12.490930088331046  C 19.66080254299256 12.490930088331046  19.749814826380653 12.490930088331046  19.8631339762276 12.490930088331046  C 19.97645216117175 12.490930088331046  20.065496286352275 12.490930088331046  20.13024994842156 12.490930088331046  C 20.227380923976888 12.490930088331046  20.31642408425461 12.483101462639453  20.397365920615517 12.467448876150618  C 20.478307756976424 12.451795823172345  20.534966849448498 12.436139038278595  20.56734319803174 12.420486451789758  C 20.680662347878688 12.342222586366702  20.753513474253584 12.17787042823391  20.78588982283683 11.927425778986466  C 20.81826713632287 11.770897581650917  20.834459170225696 11.543933211605037  20.834459170225696 11.246530336401648  C 20.850647344517316 10.933474408219986  20.866809466433313 10.557814664935057  20.882997640724934 10.119536645374392  C 21.028693139155124 10.22910615026456  21.198700328558175 10.33867425568642  21.39296034986323 10.448243760576588  C 21.603409510362706 10.542160678977917  21.805739013792145 10.620414748122846  22 10.683026027057066  C 21.98381182570838 11.10565099363946  21.95145766988956 11.528281558095069  21.902892182111895 11.950906991166894  C 21.870515833528653 12.373532424238721  21.821937802014578 12.670937631889284  21.75718413994529 12.843118415713672  C 21.72480682645925 13.01529873304862  21.65195570008435 13.156180874747417  21.538637515140202 13.265750379637584  C 21.441506539584875 13.37531988452775  21.320108258585527 13.469230738566429  21.17441372505814 13.54749507047892  C 21.07728274950281 13.625758935901978  20.931580496753014 13.680542988612908  20.737320475447962 13.711848628080018  C 20.55924766353173 13.743153801057693  20.389272315921108 13.758811052440876  20.227388643199294 13.758811052440876  C 20.114070458255146 13.758811052440876  19.944094145741726 13.758811052440876  19.71745681095063 13.758811052440876  C 19.507007650451154 13.758811052440876  19.345113363798532 13.758811052440876  19.23179421395158 13.758811052440876  C 19.02134505345211 13.758811052440876  18.810902647272236 13.727497016163944  18.60045445167556 13.66488620371916  C 18.390005291176088 13.60227492478494  18.211918005717838 13.50053544505467  18.066222507287648 13.359660300697392  C 17.904338834565834 13.218785156340116  17.79102161452449 13.030947587621984  17.726267952455203 12.796155991352814  C 17.67770246467754 12.561363928594208  17.65342936981672 12.13092013259835  17.65342936981672 11.50480874272446  Z M 16.002225943043367 19.699035265922728  C 15.289937590086835 19.30771555978478  14.593810394143496 18.97901136014155  13.913898389770205 18.71291392031614  C 13.913898389770205 18.71291392031614  15.152308679072625 17.938093629009604  15.152308679072625 17.938093629009604  C 15.832220683445916 18.188538278257045  16.528347879389255 18.501600504046074  17.240636232345786 18.877267477917236  C 17.95292555020512 19.252934393477222  18.624716932605576 19.63642267498697  19.2560634492012 20.02774238112492  C 19.90359910499125 20.41906208726287  20.429749023518365 20.78690839491842  20.834459170225696 21.131269787633652  C 20.834459170225696 21.131269787633652  19.571748768784026 22  19.571748768784026 22  C 19.167039586979495 21.655638665595948  18.64900064139721 21.279963878026752  18.01765315989878 20.872991381310836  C 17.38630664330315 20.466018913750514  16.7145152609027 20.0747022106383  16.002225943043367 19.699035265922728  Z M 6.410598071317194 8.546429778242796  C 6.410598071317194 8.546429778242796  6.410598071317194 7.325511238493826  6.410598071317194 7.325511238493826  L 7.624739125369997 7.325511238493826  C 7.624739125369997 7.325511238493826  7.624739125369997 8.546429778242796  7.624739125369997 8.546429778242796  C 7.624739125369997 8.718610562067182  7.649012702682219 8.828178667489045  7.697577708008483 8.875136893444992  C 7.762331370077768 8.922095585890375  7.883729168625712 8.94558052998628  8.061801498090544 8.94558052998628  C 8.12655516015983 8.94558052998628  8.247984318048804 8.94558052998628  8.426056165062239 8.94558052998628  C 8.604128494527071 8.94558052998628  8.790296840943316 8.94558052998628  8.984557344699772 8.94558052998628  C 9.178818330907626 8.94558052998628  9.308328067303197 8.94558052998628  9.373081246921082 8.94558052998628  C 9.551153576385916 8.94558052998628  9.67255137493386 8.906438800996625  9.737305037003145 8.828174469084134  C 9.80205869907243 8.73425801717224  9.842524792738878 8.522949965530671  9.8587129670305 8.194241450860172  C 9.972031634426047 8.27250531628323  10.125845825023474 8.34294615388791  10.320106328779929 8.405557432822128  C 10.514366832536382 8.468168245266913  10.700503819611598 8.515124138775688  10.87857663152783 8.546429778242796  C 10.830011143750166 9.047319076737683  10.700532766695625 9.391680177897019  10.49008360619615 9.57951354821024  C 10.295823102439694 9.767346918523465  9.996337535982102 9.861258239051578  9.591627871726173 9.861258239051578  C 9.510686035365268 9.861258239051578  9.348790783809843 9.861258239051578  9.105965274727126 9.861258239051578  C 8.879327939936028 9.861258239051578  8.644582044457108 9.861258239051578  8.40175605292299 9.861258239051578  C 8.175118718131891 9.861258239051578  8.021335404424097 9.861258239051578  7.9403935680631905 9.861258239051578  C 7.325234743307785 9.861258239051578  6.912431956808846 9.783003703417213  6.70198327876077 9.6264759725711  C 6.507722292552915 9.454295188746714  6.410598071317194 9.094277302693628  6.410598071317194 8.546429778242796  Z M 5.997804933846264 18.290281956392228  C 6.2406309253803816 17.89896222109869  6.442960911261222 17.546787713465566  6.604844583983035 17.233731901906264  C 6.604844583983035 17.233731901906264  8.231778775506767 17.726792574709556  8.231778775506767 17.726792574709556  C 7.843257767993858 18.290292977205123  7.430454981494918 18.853790230897005  6.993368486204346 19.41729057508139  C 6.572470647656795 19.96513821615458  6.17586037751208 20.45036612317255  5.803527544290794 20.872991381310836  C 5.803527544290794 20.872991381310836  4.516547907599504 20.403411920687976  4.516547907599504 20.403411920687976  C 4.759373657907923 20.121661748595784  5.002200373119141 19.792957490641374  5.24502636465326 19.41729057508139  C 5.504040530478999 19.041623630365816  5.754979424763546 18.665948871952214  5.997804933846264 18.290281956392228  Z M 13.064012002689095 9.837777026871148  C 12.416476346899048 9.477762872733539  11.777039120317415 9.1647153413617  11.14569260372179 8.898618105625422  C 11.14569260372179 8.898618105625422  12.019879102942147 7.889015547838406  12.019879102942147 7.889015547838406  C 12.651225619537772 8.139459730596414  13.290662846119407 8.436850477074504  13.938198501909454 8.781212044723276  C 14.601922331991124 9.125573145882612  15.217086463711937 9.485591498425132  15.783679318238276 9.861258239051578  C 16.366461311959043 10.221272393189187  16.835922226027254 10.57346165355068  17.19206688495692 10.917823221199452  C 17.19206688495692 10.917823221199452  16.26931103834769 12.044831839888612  16.26931103834769 12.044831839888612  C 15.913166379418026 11.70047027223984  15.451817403197442 11.340452386186756  14.8852235837683 10.96478564556031  C 14.31863072924196 10.573465851955591  13.711547658479144 10.197791181008757  13.064012002689095 9.837777026871148  Z M 14.20531447410341 6.386337389586192  C 14.20531447410341 6.386337389586192  14.20531447410341 4.226259928591494  14.20531447410341 4.226259928591494  L 15.637971276071672 4.226259928591494  C 15.637971276071672 4.226259928591494  15.637971276071672 6.433299813947051  15.637971276071672 6.433299813947051  C 15.637971276071672 7.043759083821535  15.589424121447227 7.685525392631435  15.4922941107947 8.35859500846127  C 15.411352274433796 9.016012037802268  15.225183928017548 9.689077455227192  14.933792931157166 10.3778001240353  C 14.642401934296787 11.066522792843408  14.213407113895022 11.739603137930239  13.646813294465879 12.397020167271236  C 13.080220439939538 13.054437196612236  12.31935405546893 13.664889935634637  11.364239228526877 14.22839051306374  C 11.250920078679929 14.071862782217625  11.080944731069309 13.899681998393241  10.854307396278212 13.711848628080018  C 10.643858718230137 13.52401479127736  10.441497373008266 13.367491258836159  10.247236869251811 13.242269167457154  C 11.137598034124577 12.725727282473432  11.841805326123112 12.170043668500057  12.359833657774589 11.575237451603842  C 12.894050163717688 10.980431701197062  13.290660916313804 10.385635747068411  13.549674599688142 9.790829530172196  C 13.824877422256906 9.180370726787146  14.002933830825523 8.585559378507153  14.083875667186428 8.006406681078646  C 14.164817503547335 7.427253517160704  14.20531447410341 6.887226688081076  14.20531447410341 6.386337389586192  Z " fill-rule="evenodd" />
    </mask>
  </defs>
  <g transform="matrix(1 0 0 1 -406 -612 )">
    <path d="M 0.09713869477773551 3  L 0.09713869477773551 2  L 21.63577620991794 2  L 21.63577620991794 3  L 0.09713869477773551 3  Z M 0 18  L 0 16.858062362343208  L 21.708614792556425 16.858062362343208  L 21.708614792556425 18  L 0 18  Z M 1.602634079384483 5.846314292422041  L 1.602634079384483 4.789764237936074  L 9.713035801753527 4.789764237936074  L 9.713035801753527 5.846314292422041  L 1.602634079384483 5.846314292422041  Z M 11.412808575915745 7.161157680892728  L 11.412808575915745 5.822848007903518  L 18.45474640950896 5.822848007903518  L 18.45474640950896 7.161157680892728  L 11.412808575915745 7.161157680892728  Z M 3.0353217582423753 15.684106246955096  L 3.0353217582423753 14.533616416085506  L 18.794700964341402 14.533616416085506  L 18.794700964341402 15.684106246955096  L 3.0353217582423753 15.684106246955096  Z M 1.359818219329775 11.551756239423412  L 1.359818219329775 10.518672469455968  L 10.077259591835588 10.518672469455968  L 10.077259591835588 11.551756239423412  L 1.359818219329775 11.551756239423412  Z M 0.43709324961017926 8  L 0.43709324961017926 7  L 10.830038161028593 7  L 10.830038161028593 8  L 0.43709324961017926 8  Z M 5.900666239068529 3.967981522268679  L 5.900666239068529 0  L 7.649008360619614 0  L 7.649008360619614 3.967981522268679  L 5.900666239068529 3.967981522268679  Z M 4.905071809820816 7.489864796094924  L 4.905071809820816 4.038425158809967  L 6.459167418706062 4.038425158809967  L 6.459167418706062 7.489864796094924  L 4.905071809820816 7.489864796094924  Z M 4.905071809820816 13.265750379637584  L 4.905071809820816 9.321235141887426  L 6.483436653955681 9.321235141887426  L 6.483436653955681 13.265750379637584  L 4.905071809820816 13.265750379637584  Z M 13.986767849298323 3.967981522268679  L 13.986767849298323 0  L 15.783679318238276 0  L 15.783679318238276 3.967981522268679  L 13.986767849298323 3.967981522268679  Z M 1.554095608885246 21.577368036076088  C 1.554095608885246 21.577368036076088  1.359818219329775 20.286020787447736  1.359818219329775 20.286020787447736  C 2.7034539331718848 20.23906241571384  4.289925528801822 20.176449970556035  6.119212863873617 20.098186017666208  C 7.948500198945414 20.035574869932145  9.907277007453962 19.957305559702718  11.995578990802898 19.863388823523824  C 14.100068665992053 19.785124877922897  16.1964676311952 19.699042073752913  18.284769132092737 19.605125344862916  C 18.284769132092737 19.605125344862916  18.26049989684312 20.70863782370974  18.26049989684312 20.70863782370974  C 16.23695109311207 20.818207328599907  14.20529228133899 20.927790303372497  12.165556268219119 21.037359866573844  C 10.125820255099248 21.146929371464008  8.191316059000123 21.248669026127818  6.362028723928327 21.34258576959561  C 4.5489295631481514 21.436502454752222  2.946296569279319 21.514756873764227  1.554095608885246 21.577368036076088  Z M 0.4613624848597979 14.08751816764307  C 0.4613624848597979 14.08751816764307  0.33995455483244374 12.93702833677348  0.33995455483244374 12.93702833677348  C 1.1979388886705675 12.890070110817533  2.1854392307724697 12.835286058106604  3.3024377304363326 12.772674779172384  C 4.435624404391817 12.710063500238164  5.641647248728784 12.63963759029539  6.9205299035658605 12.561373724872334  C 8.199412075951534 12.483109859449279  9.486398466962429 12.404840396153006  10.781468813639725 12.326576530729948  C 10.781468813639725 12.326576530729948  10.781468813639725 13.383141512877824  10.781468813639725 13.383141512877824  C 9.534963472288693 13.461405844790313  8.288443174944247 13.547488539626835  7.041937833593214 13.64140499153873  C 5.7954320097907805 13.73532190994006  4.613682501540335 13.821419532438487  3.496684243102173 13.899683397861546  C 2.37968574343831 13.977947263284602  1.3679119446370351 14.040559708442407  0.4613624848597979 14.08751816764307  Z M 2.8410443686869042 8.35859500846127  C 3.067681944703701 8.076844719746719  3.2133841974534985 7.74031177778954  3.2781376182970834 7.348992450674255  C 3.2781376182970834 7.348992450674255  4.540848019738753 7.348992450674255  4.540848019738753 7.348992450674255  C 4.443717767860527 7.896839508635653  4.25754942144428 8.366425966600035  3.98234684010122 8.757745760204752  C 3.723332674275481 9.149065553809471  3.3348032238630636 9.47776987007506  2.816775133437286 9.74386710581134  C 2.314935217303128 9.994311755058781  1.6431130786258943 10.205619340210914  0.8013170396922416 10.3778001240353  C 0.752751913753128 10.236924979678024  0.6556273306788565 10.07257282154523  0.5099318322486656 9.884739451232008  C 0.36423645443132485 9.696906080918783  0.22664577769060515 9.548210707679738  0.09713869477773551 9.438641202789572  C 0.8418043612203108 9.329071697899407  1.424582857168421 9.188190022690046  1.845480816328822 9.01600923886566  C 2.2825670703936947 8.843828455041274  2.6144070338958074 8.62469224419755  2.8410443686869042 8.35859500846127  Z M 17.65342936981672 11.50480874272446  C 17.65342936981672 11.50480874272446  17.65342936981672 5.822848007903518  17.65342936981672 5.822848007903518  L 19.158955631313095 5.822848007903518  C 19.158955631313095 5.822848007903518  19.158955631313095 11.598718663784272  19.158955631313095 11.598718663784272  C 19.158955631313095 12.068302322812047  19.191310752034717 12.334409354826452  19.2560634492012 12.397020167271236  C 19.320817111270486 12.459631446205456  19.434165208201463 12.490930088331046  19.596048880923274 12.490930088331046  C 19.66080254299256 12.490930088331046  19.749814826380653 12.490930088331046  19.8631339762276 12.490930088331046  C 19.97645216117175 12.490930088331046  20.065496286352275 12.490930088331046  20.13024994842156 12.490930088331046  C 20.227380923976888 12.490930088331046  20.31642408425461 12.483101462639453  20.397365920615517 12.467448876150618  C 20.478307756976424 12.451795823172345  20.534966849448498 12.436139038278595  20.56734319803174 12.420486451789758  C 20.680662347878688 12.342222586366702  20.753513474253584 12.17787042823391  20.78588982283683 11.927425778986466  C 20.81826713632287 11.770897581650917  20.834459170225696 11.543933211605037  20.834459170225696 11.246530336401648  C 20.850647344517316 10.933474408219986  20.866809466433313 10.557814664935057  20.882997640724934 10.119536645374392  C 21.028693139155124 10.22910615026456  21.198700328558175 10.33867425568642  21.39296034986323 10.448243760576588  C 21.603409510362706 10.542160678977917  21.805739013792145 10.620414748122846  22 10.683026027057066  C 21.98381182570838 11.10565099363946  21.95145766988956 11.528281558095069  21.902892182111895 11.950906991166894  C 21.870515833528653 12.373532424238721  21.821937802014578 12.670937631889284  21.75718413994529 12.843118415713672  C 21.72480682645925 13.01529873304862  21.65195570008435 13.156180874747417  21.538637515140202 13.265750379637584  C 21.441506539584875 13.37531988452775  21.320108258585527 13.469230738566429  21.17441372505814 13.54749507047892  C 21.07728274950281 13.625758935901978  20.931580496753014 13.680542988612908  20.737320475447962 13.711848628080018  C 20.55924766353173 13.743153801057693  20.389272315921108 13.758811052440876  20.227388643199294 13.758811052440876  C 20.114070458255146 13.758811052440876  19.944094145741726 13.758811052440876  19.71745681095063 13.758811052440876  C 19.507007650451154 13.758811052440876  19.345113363798532 13.758811052440876  19.23179421395158 13.758811052440876  C 19.02134505345211 13.758811052440876  18.810902647272236 13.727497016163944  18.60045445167556 13.66488620371916  C 18.390005291176088 13.60227492478494  18.211918005717838 13.50053544505467  18.066222507287648 13.359660300697392  C 17.904338834565834 13.218785156340116  17.79102161452449 13.030947587621984  17.726267952455203 12.796155991352814  C 17.67770246467754 12.561363928594208  17.65342936981672 12.13092013259835  17.65342936981672 11.50480874272446  Z M 16.002225943043367 19.699035265922728  C 15.289937590086835 19.30771555978478  14.593810394143496 18.97901136014155  13.913898389770205 18.71291392031614  C 13.913898389770205 18.71291392031614  15.152308679072625 17.938093629009604  15.152308679072625 17.938093629009604  C 15.832220683445916 18.188538278257045  16.528347879389255 18.501600504046074  17.240636232345786 18.877267477917236  C 17.95292555020512 19.252934393477222  18.624716932605576 19.63642267498697  19.2560634492012 20.02774238112492  C 19.90359910499125 20.41906208726287  20.429749023518365 20.78690839491842  20.834459170225696 21.131269787633652  C 20.834459170225696 21.131269787633652  19.571748768784026 22  19.571748768784026 22  C 19.167039586979495 21.655638665595948  18.64900064139721 21.279963878026752  18.01765315989878 20.872991381310836  C 17.38630664330315 20.466018913750514  16.7145152609027 20.0747022106383  16.002225943043367 19.699035265922728  Z M 6.410598071317194 8.546429778242796  C 6.410598071317194 8.546429778242796  6.410598071317194 7.325511238493826  6.410598071317194 7.325511238493826  L 7.624739125369997 7.325511238493826  C 7.624739125369997 7.325511238493826  7.624739125369997 8.546429778242796  7.624739125369997 8.546429778242796  C 7.624739125369997 8.718610562067182  7.649012702682219 8.828178667489045  7.697577708008483 8.875136893444992  C 7.762331370077768 8.922095585890375  7.883729168625712 8.94558052998628  8.061801498090544 8.94558052998628  C 8.12655516015983 8.94558052998628  8.247984318048804 8.94558052998628  8.426056165062239 8.94558052998628  C 8.604128494527071 8.94558052998628  8.790296840943316 8.94558052998628  8.984557344699772 8.94558052998628  C 9.178818330907626 8.94558052998628  9.308328067303197 8.94558052998628  9.373081246921082 8.94558052998628  C 9.551153576385916 8.94558052998628  9.67255137493386 8.906438800996625  9.737305037003145 8.828174469084134  C 9.80205869907243 8.73425801717224  9.842524792738878 8.522949965530671  9.8587129670305 8.194241450860172  C 9.972031634426047 8.27250531628323  10.125845825023474 8.34294615388791  10.320106328779929 8.405557432822128  C 10.514366832536382 8.468168245266913  10.700503819611598 8.515124138775688  10.87857663152783 8.546429778242796  C 10.830011143750166 9.047319076737683  10.700532766695625 9.391680177897019  10.49008360619615 9.57951354821024  C 10.295823102439694 9.767346918523465  9.996337535982102 9.861258239051578  9.591627871726173 9.861258239051578  C 9.510686035365268 9.861258239051578  9.348790783809843 9.861258239051578  9.105965274727126 9.861258239051578  C 8.879327939936028 9.861258239051578  8.644582044457108 9.861258239051578  8.40175605292299 9.861258239051578  C 8.175118718131891 9.861258239051578  8.021335404424097 9.861258239051578  7.9403935680631905 9.861258239051578  C 7.325234743307785 9.861258239051578  6.912431956808846 9.783003703417213  6.70198327876077 9.6264759725711  C 6.507722292552915 9.454295188746714  6.410598071317194 9.094277302693628  6.410598071317194 8.546429778242796  Z M 5.997804933846264 18.290281956392228  C 6.2406309253803816 17.89896222109869  6.442960911261222 17.546787713465566  6.604844583983035 17.233731901906264  C 6.604844583983035 17.233731901906264  8.231778775506767 17.726792574709556  8.231778775506767 17.726792574709556  C 7.843257767993858 18.290292977205123  7.430454981494918 18.853790230897005  6.993368486204346 19.41729057508139  C 6.572470647656795 19.96513821615458  6.17586037751208 20.45036612317255  5.803527544290794 20.872991381310836  C 5.803527544290794 20.872991381310836  4.516547907599504 20.403411920687976  4.516547907599504 20.403411920687976  C 4.759373657907923 20.121661748595784  5.002200373119141 19.792957490641374  5.24502636465326 19.41729057508139  C 5.504040530478999 19.041623630365816  5.754979424763546 18.665948871952214  5.997804933846264 18.290281956392228  Z M 13.064012002689095 9.837777026871148  C 12.416476346899048 9.477762872733539  11.777039120317415 9.1647153413617  11.14569260372179 8.898618105625422  C 11.14569260372179 8.898618105625422  12.019879102942147 7.889015547838406  12.019879102942147 7.889015547838406  C 12.651225619537772 8.139459730596414  13.290662846119407 8.436850477074504  13.938198501909454 8.781212044723276  C 14.601922331991124 9.125573145882612  15.217086463711937 9.485591498425132  15.783679318238276 9.861258239051578  C 16.366461311959043 10.221272393189187  16.835922226027254 10.57346165355068  17.19206688495692 10.917823221199452  C 17.19206688495692 10.917823221199452  16.26931103834769 12.044831839888612  16.26931103834769 12.044831839888612  C 15.913166379418026 11.70047027223984  15.451817403197442 11.340452386186756  14.8852235837683 10.96478564556031  C 14.31863072924196 10.573465851955591  13.711547658479144 10.197791181008757  13.064012002689095 9.837777026871148  Z M 14.20531447410341 6.386337389586192  C 14.20531447410341 6.386337389586192  14.20531447410341 4.226259928591494  14.20531447410341 4.226259928591494  L 15.637971276071672 4.226259928591494  C 15.637971276071672 4.226259928591494  15.637971276071672 6.433299813947051  15.637971276071672 6.433299813947051  C 15.637971276071672 7.043759083821535  15.589424121447227 7.685525392631435  15.4922941107947 8.35859500846127  C 15.411352274433796 9.016012037802268  15.225183928017548 9.689077455227192  14.933792931157166 10.3778001240353  C 14.642401934296787 11.066522792843408  14.213407113895022 11.739603137930239  13.646813294465879 12.397020167271236  C 13.080220439939538 13.054437196612236  12.31935405546893 13.664889935634637  11.364239228526877 14.22839051306374  C 11.250920078679929 14.071862782217625  11.080944731069309 13.899681998393241  10.854307396278212 13.711848628080018  C 10.643858718230137 13.52401479127736  10.441497373008266 13.367491258836159  10.247236869251811 13.242269167457154  C 11.137598034124577 12.725727282473432  11.841805326123112 12.170043668500057  12.359833657774589 11.575237451603842  C 12.894050163717688 10.980431701197062  13.290660916313804 10.385635747068411  13.549674599688142 9.790829530172196  C 13.824877422256906 9.180370726787146  14.002933830825523 8.585559378507153  14.083875667186428 8.006406681078646  C 14.164817503547335 7.427253517160704  14.20531447410341 6.887226688081076  14.20531447410341 6.386337389586192  Z " fill-rule="nonzero" fill="rgba(0, 0, 0, 1)" stroke="none" transform="matrix(1 0 0 1 406 612 )" class="fill" />
    <path d="M 0.09713869477773551 3  L 0.09713869477773551 2  L 21.63577620991794 2  L 21.63577620991794 3  L 0.09713869477773551 3  Z " stroke-width="0" stroke-dasharray="0" stroke="rgba(121, 121, 121, 1)" fill="none" transform="matrix(1 0 0 1 406 612 )" class="stroke" mask="url(#Clip4520)" />
    <path d="M 0 18  L 0 16.858062362343208  L 21.708614792556425 16.858062362343208  L 21.708614792556425 18  L 0 18  Z " stroke-width="0" stroke-dasharray="0" stroke="rgba(121, 121, 121, 1)" fill="none" transform="matrix(1 0 0 1 406 612 )" class="stroke" mask="url(#Clip4520)" />
    <path d="M 1.602634079384483 5.846314292422041  L 1.602634079384483 4.789764237936074  L 9.713035801753527 4.789764237936074  L 9.713035801753527 5.846314292422041  L 1.602634079384483 5.846314292422041  Z " stroke-width="0" stroke-dasharray="0" stroke="rgba(121, 121, 121, 1)" fill="none" transform="matrix(1 0 0 1 406 612 )" class="stroke" mask="url(#Clip4520)" />
    <path d="M 11.412808575915745 7.161157680892728  L 11.412808575915745 5.822848007903518  L 18.45474640950896 5.822848007903518  L 18.45474640950896 7.161157680892728  L 11.412808575915745 7.161157680892728  Z " stroke-width="0" stroke-dasharray="0" stroke="rgba(121, 121, 121, 1)" fill="none" transform="matrix(1 0 0 1 406 612 )" class="stroke" mask="url(#Clip4520)" />
    <path d="M 3.0353217582423753 15.684106246955096  L 3.0353217582423753 14.533616416085506  L 18.794700964341402 14.533616416085506  L 18.794700964341402 15.684106246955096  L 3.0353217582423753 15.684106246955096  Z " stroke-width="0" stroke-dasharray="0" stroke="rgba(121, 121, 121, 1)" fill="none" transform="matrix(1 0 0 1 406 612 )" class="stroke" mask="url(#Clip4520)" />
    <path d="M 1.359818219329775 11.551756239423412  L 1.359818219329775 10.518672469455968  L 10.077259591835588 10.518672469455968  L 10.077259591835588 11.551756239423412  L 1.359818219329775 11.551756239423412  Z " stroke-width="0" stroke-dasharray="0" stroke="rgba(121, 121, 121, 1)" fill="none" transform="matrix(1 0 0 1 406 612 )" class="stroke" mask="url(#Clip4520)" />
    <path d="M 0.43709324961017926 8  L 0.43709324961017926 7  L 10.830038161028593 7  L 10.830038161028593 8  L 0.43709324961017926 8  Z " stroke-width="0" stroke-dasharray="0" stroke="rgba(121, 121, 121, 1)" fill="none" transform="matrix(1 0 0 1 406 612 )" class="stroke" mask="url(#Clip4520)" />
    <path d="M 5.900666239068529 3.967981522268679  L 5.900666239068529 0  L 7.649008360619614 0  L 7.649008360619614 3.967981522268679  L 5.900666239068529 3.967981522268679  Z " stroke-width="0" stroke-dasharray="0" stroke="rgba(121, 121, 121, 1)" fill="none" transform="matrix(1 0 0 1 406 612 )" class="stroke" mask="url(#Clip4520)" />
    <path d="M 4.905071809820816 7.489864796094924  L 4.905071809820816 4.038425158809967  L 6.459167418706062 4.038425158809967  L 6.459167418706062 7.489864796094924  L 4.905071809820816 7.489864796094924  Z " stroke-width="0" stroke-dasharray="0" stroke="rgba(121, 121, 121, 1)" fill="none" transform="matrix(1 0 0 1 406 612 )" class="stroke" mask="url(#Clip4520)" />
    <path d="M 4.905071809820816 13.265750379637584  L 4.905071809820816 9.321235141887426  L 6.483436653955681 9.321235141887426  L 6.483436653955681 13.265750379637584  L 4.905071809820816 13.265750379637584  Z " stroke-width="0" stroke-dasharray="0" stroke="rgba(121, 121, 121, 1)" fill="none" transform="matrix(1 0 0 1 406 612 )" class="stroke" mask="url(#Clip4520)" />
    <path d="M 13.986767849298323 3.967981522268679  L 13.986767849298323 0  L 15.783679318238276 0  L 15.783679318238276 3.967981522268679  L 13.986767849298323 3.967981522268679  Z " stroke-width="0" stroke-dasharray="0" stroke="rgba(121, 121, 121, 1)" fill="none" transform="matrix(1 0 0 1 406 612 )" class="stroke" mask="url(#Clip4520)" />
    <path d="M 1.554095608885246 21.577368036076088  C 1.554095608885246 21.577368036076088  1.359818219329775 20.286020787447736  1.359818219329775 20.286020787447736  C 2.7034539331718848 20.23906241571384  4.289925528801822 20.176449970556035  6.119212863873617 20.098186017666208  C 7.948500198945414 20.035574869932145  9.907277007453962 19.957305559702718  11.995578990802898 19.863388823523824  C 14.100068665992053 19.785124877922897  16.1964676311952 19.699042073752913  18.284769132092737 19.605125344862916  C 18.284769132092737 19.605125344862916  18.26049989684312 20.70863782370974  18.26049989684312 20.70863782370974  C 16.23695109311207 20.818207328599907  14.20529228133899 20.927790303372497  12.165556268219119 21.037359866573844  C 10.125820255099248 21.146929371464008  8.191316059000123 21.248669026127818  6.362028723928327 21.34258576959561  C 4.5489295631481514 21.436502454752222  2.946296569279319 21.514756873764227  1.554095608885246 21.577368036076088  Z " stroke-width="0" stroke-dasharray="0" stroke="rgba(121, 121, 121, 1)" fill="none" transform="matrix(1 0 0 1 406 612 )" class="stroke" mask="url(#Clip4520)" />
    <path d="M 0.4613624848597979 14.08751816764307  C 0.4613624848597979 14.08751816764307  0.33995455483244374 12.93702833677348  0.33995455483244374 12.93702833677348  C 1.1979388886705675 12.890070110817533  2.1854392307724697 12.835286058106604  3.3024377304363326 12.772674779172384  C 4.435624404391817 12.710063500238164  5.641647248728784 12.63963759029539  6.9205299035658605 12.561373724872334  C 8.199412075951534 12.483109859449279  9.486398466962429 12.404840396153006  10.781468813639725 12.326576530729948  C 10.781468813639725 12.326576530729948  10.781468813639725 13.383141512877824  10.781468813639725 13.383141512877824  C 9.534963472288693 13.461405844790313  8.288443174944247 13.547488539626835  7.041937833593214 13.64140499153873  C 5.7954320097907805 13.73532190994006  4.613682501540335 13.821419532438487  3.496684243102173 13.899683397861546  C 2.37968574343831 13.977947263284602  1.3679119446370351 14.040559708442407  0.4613624848597979 14.08751816764307  Z " stroke-width="0" stroke-dasharray="0" stroke="rgba(121, 121, 121, 1)" fill="none" transform="matrix(1 0 0 1 406 612 )" class="stroke" mask="url(#Clip4520)" />
    <path d="M 2.8410443686869042 8.35859500846127  C 3.067681944703701 8.076844719746719  3.2133841974534985 7.74031177778954  3.2781376182970834 7.348992450674255  C 3.2781376182970834 7.348992450674255  4.540848019738753 7.348992450674255  4.540848019738753 7.348992450674255  C 4.443717767860527 7.896839508635653  4.25754942144428 8.366425966600035  3.98234684010122 8.757745760204752  C 3.723332674275481 9.149065553809471  3.3348032238630636 9.47776987007506  2.816775133437286 9.74386710581134  C 2.314935217303128 9.994311755058781  1.6431130786258943 10.205619340210914  0.8013170396922416 10.3778001240353  C 0.752751913753128 10.236924979678024  0.6556273306788565 10.07257282154523  0.5099318322486656 9.884739451232008  C 0.36423645443132485 9.696906080918783  0.22664577769060515 9.548210707679738  0.09713869477773551 9.438641202789572  C 0.8418043612203108 9.329071697899407  1.424582857168421 9.188190022690046  1.845480816328822 9.01600923886566  C 2.2825670703936947 8.843828455041274  2.6144070338958074 8.62469224419755  2.8410443686869042 8.35859500846127  Z " stroke-width="0" stroke-dasharray="0" stroke="rgba(121, 121, 121, 1)" fill="none" transform="matrix(1 0 0 1 406 612 )" class="stroke" mask="url(#Clip4520)" />
    <path d="M 17.65342936981672 11.50480874272446  C 17.65342936981672 11.50480874272446  17.65342936981672 5.822848007903518  17.65342936981672 5.822848007903518  L 19.158955631313095 5.822848007903518  C 19.158955631313095 5.822848007903518  19.158955631313095 11.598718663784272  19.158955631313095 11.598718663784272  C 19.158955631313095 12.068302322812047  19.191310752034717 12.334409354826452  19.2560634492012 12.397020167271236  C 19.320817111270486 12.459631446205456  19.434165208201463 12.490930088331046  19.596048880923274 12.490930088331046  C 19.66080254299256 12.490930088331046  19.749814826380653 12.490930088331046  19.8631339762276 12.490930088331046  C 19.97645216117175 12.490930088331046  20.065496286352275 12.490930088331046  20.13024994842156 12.490930088331046  C 20.227380923976888 12.490930088331046  20.31642408425461 12.483101462639453  20.397365920615517 12.467448876150618  C 20.478307756976424 12.451795823172345  20.534966849448498 12.436139038278595  20.56734319803174 12.420486451789758  C 20.680662347878688 12.342222586366702  20.753513474253584 12.17787042823391  20.78588982283683 11.927425778986466  C 20.81826713632287 11.770897581650917  20.834459170225696 11.543933211605037  20.834459170225696 11.246530336401648  C 20.850647344517316 10.933474408219986  20.866809466433313 10.557814664935057  20.882997640724934 10.119536645374392  C 21.028693139155124 10.22910615026456  21.198700328558175 10.33867425568642  21.39296034986323 10.448243760576588  C 21.603409510362706 10.542160678977917  21.805739013792145 10.620414748122846  22 10.683026027057066  C 21.98381182570838 11.10565099363946  21.95145766988956 11.528281558095069  21.902892182111895 11.950906991166894  C 21.870515833528653 12.373532424238721  21.821937802014578 12.670937631889284  21.75718413994529 12.843118415713672  C 21.72480682645925 13.01529873304862  21.65195570008435 13.156180874747417  21.538637515140202 13.265750379637584  C 21.441506539584875 13.37531988452775  21.320108258585527 13.469230738566429  21.17441372505814 13.54749507047892  C 21.07728274950281 13.625758935901978  20.931580496753014 13.680542988612908  20.737320475447962 13.711848628080018  C 20.55924766353173 13.743153801057693  20.389272315921108 13.758811052440876  20.227388643199294 13.758811052440876  C 20.114070458255146 13.758811052440876  19.944094145741726 13.758811052440876  19.71745681095063 13.758811052440876  C 19.507007650451154 13.758811052440876  19.345113363798532 13.758811052440876  19.23179421395158 13.758811052440876  C 19.02134505345211 13.758811052440876  18.810902647272236 13.727497016163944  18.60045445167556 13.66488620371916  C 18.390005291176088 13.60227492478494  18.211918005717838 13.50053544505467  18.066222507287648 13.359660300697392  C 17.904338834565834 13.218785156340116  17.79102161452449 13.030947587621984  17.726267952455203 12.796155991352814  C 17.67770246467754 12.561363928594208  17.65342936981672 12.13092013259835  17.65342936981672 11.50480874272446  Z " stroke-width="0" stroke-dasharray="0" stroke="rgba(121, 121, 121, 1)" fill="none" transform="matrix(1 0 0 1 406 612 )" class="stroke" mask="url(#Clip4520)" />
    <path d="M 16.002225943043367 19.699035265922728  C 15.289937590086835 19.30771555978478  14.593810394143496 18.97901136014155  13.913898389770205 18.71291392031614  C 13.913898389770205 18.71291392031614  15.152308679072625 17.938093629009604  15.152308679072625 17.938093629009604  C 15.832220683445916 18.188538278257045  16.528347879389255 18.501600504046074  17.240636232345786 18.877267477917236  C 17.95292555020512 19.252934393477222  18.624716932605576 19.63642267498697  19.2560634492012 20.02774238112492  C 19.90359910499125 20.41906208726287  20.429749023518365 20.78690839491842  20.834459170225696 21.131269787633652  C 20.834459170225696 21.131269787633652  19.571748768784026 22  19.571748768784026 22  C 19.167039586979495 21.655638665595948  18.64900064139721 21.279963878026752  18.01765315989878 20.872991381310836  C 17.38630664330315 20.466018913750514  16.7145152609027 20.0747022106383  16.002225943043367 19.699035265922728  Z " stroke-width="0" stroke-dasharray="0" stroke="rgba(121, 121, 121, 1)" fill="none" transform="matrix(1 0 0 1 406 612 )" class="stroke" mask="url(#Clip4520)" />
    <path d="M 6.410598071317194 8.546429778242796  C 6.410598071317194 8.546429778242796  6.410598071317194 7.325511238493826  6.410598071317194 7.325511238493826  L 7.624739125369997 7.325511238493826  C 7.624739125369997 7.325511238493826  7.624739125369997 8.546429778242796  7.624739125369997 8.546429778242796  C 7.624739125369997 8.718610562067182  7.649012702682219 8.828178667489045  7.697577708008483 8.875136893444992  C 7.762331370077768 8.922095585890375  7.883729168625712 8.94558052998628  8.061801498090544 8.94558052998628  C 8.12655516015983 8.94558052998628  8.247984318048804 8.94558052998628  8.426056165062239 8.94558052998628  C 8.604128494527071 8.94558052998628  8.790296840943316 8.94558052998628  8.984557344699772 8.94558052998628  C 9.178818330907626 8.94558052998628  9.308328067303197 8.94558052998628  9.373081246921082 8.94558052998628  C 9.551153576385916 8.94558052998628  9.67255137493386 8.906438800996625  9.737305037003145 8.828174469084134  C 9.80205869907243 8.73425801717224  9.842524792738878 8.522949965530671  9.8587129670305 8.194241450860172  C 9.972031634426047 8.27250531628323  10.125845825023474 8.34294615388791  10.320106328779929 8.405557432822128  C 10.514366832536382 8.468168245266913  10.700503819611598 8.515124138775688  10.87857663152783 8.546429778242796  C 10.830011143750166 9.047319076737683  10.700532766695625 9.391680177897019  10.49008360619615 9.57951354821024  C 10.295823102439694 9.767346918523465  9.996337535982102 9.861258239051578  9.591627871726173 9.861258239051578  C 9.510686035365268 9.861258239051578  9.348790783809843 9.861258239051578  9.105965274727126 9.861258239051578  C 8.879327939936028 9.861258239051578  8.644582044457108 9.861258239051578  8.40175605292299 9.861258239051578  C 8.175118718131891 9.861258239051578  8.021335404424097 9.861258239051578  7.9403935680631905 9.861258239051578  C 7.325234743307785 9.861258239051578  6.912431956808846 9.783003703417213  6.70198327876077 9.6264759725711  C 6.507722292552915 9.454295188746714  6.410598071317194 9.094277302693628  6.410598071317194 8.546429778242796  Z " stroke-width="0" stroke-dasharray="0" stroke="rgba(121, 121, 121, 1)" fill="none" transform="matrix(1 0 0 1 406 612 )" class="stroke" mask="url(#Clip4520)" />
    <path d="M 5.997804933846264 18.290281956392228  C 6.2406309253803816 17.89896222109869  6.442960911261222 17.546787713465566  6.604844583983035 17.233731901906264  C 6.604844583983035 17.233731901906264  8.231778775506767 17.726792574709556  8.231778775506767 17.726792574709556  C 7.843257767993858 18.290292977205123  7.430454981494918 18.853790230897005  6.993368486204346 19.41729057508139  C 6.572470647656795 19.96513821615458  6.17586037751208 20.45036612317255  5.803527544290794 20.872991381310836  C 5.803527544290794 20.872991381310836  4.516547907599504 20.403411920687976  4.516547907599504 20.403411920687976  C 4.759373657907923 20.121661748595784  5.002200373119141 19.792957490641374  5.24502636465326 19.41729057508139  C 5.504040530478999 19.041623630365816  5.754979424763546 18.665948871952214  5.997804933846264 18.290281956392228  Z " stroke-width="0" stroke-dasharray="0" stroke="rgba(121, 121, 121, 1)" fill="none" transform="matrix(1 0 0 1 406 612 )" class="stroke" mask="url(#Clip4520)" />
    <path d="M 13.064012002689095 9.837777026871148  C 12.416476346899048 9.477762872733539  11.777039120317415 9.1647153413617  11.14569260372179 8.898618105625422  C 11.14569260372179 8.898618105625422  12.019879102942147 7.889015547838406  12.019879102942147 7.889015547838406  C 12.651225619537772 8.139459730596414  13.290662846119407 8.436850477074504  13.938198501909454 8.781212044723276  C 14.601922331991124 9.125573145882612  15.217086463711937 9.485591498425132  15.783679318238276 9.861258239051578  C 16.366461311959043 10.221272393189187  16.835922226027254 10.57346165355068  17.19206688495692 10.917823221199452  C 17.19206688495692 10.917823221199452  16.26931103834769 12.044831839888612  16.26931103834769 12.044831839888612  C 15.913166379418026 11.70047027223984  15.451817403197442 11.340452386186756  14.8852235837683 10.96478564556031  C 14.31863072924196 10.573465851955591  13.711547658479144 10.197791181008757  13.064012002689095 9.837777026871148  Z " stroke-width="0" stroke-dasharray="0" stroke="rgba(121, 121, 121, 1)" fill="none" transform="matrix(1 0 0 1 406 612 )" class="stroke" mask="url(#Clip4520)" />
    <path d="M 14.20531447410341 6.386337389586192  C 14.20531447410341 6.386337389586192  14.20531447410341 4.226259928591494  14.20531447410341 4.226259928591494  L 15.637971276071672 4.226259928591494  C 15.637971276071672 4.226259928591494  15.637971276071672 6.433299813947051  15.637971276071672 6.433299813947051  C 15.637971276071672 7.043759083821535  15.589424121447227 7.685525392631435  15.4922941107947 8.35859500846127  C 15.411352274433796 9.016012037802268  15.225183928017548 9.689077455227192  14.933792931157166 10.3778001240353  C 14.642401934296787 11.066522792843408  14.213407113895022 11.739603137930239  13.646813294465879 12.397020167271236  C 13.080220439939538 13.054437196612236  12.31935405546893 13.664889935634637  11.364239228526877 14.22839051306374  C 11.250920078679929 14.071862782217625  11.080944731069309 13.899681998393241  10.854307396278212 13.711848628080018  C 10.643858718230137 13.52401479127736  10.441497373008266 13.367491258836159  10.247236869251811 13.242269167457154  C 11.137598034124577 12.725727282473432  11.841805326123112 12.170043668500057  12.359833657774589 11.575237451603842  C 12.894050163717688 10.980431701197062  13.290660916313804 10.385635747068411  13.549674599688142 9.790829530172196  C 13.824877422256906 9.180370726787146  14.002933830825523 8.585559378507153  14.083875667186428 8.006406681078646  C 14.164817503547335 7.427253517160704  14.20531447410341 6.887226688081076  14.20531447410341 6.386337389586192  Z " stroke-width="0" stroke-dasharray="0" stroke="rgba(121, 121, 121, 1)" fill="none" transform="matrix(1 0 0 1 406 612 )" class="stroke" mask="url(#Clip4520)" />
  </g>
</svg>