<?xml version="1.0" encoding="utf-8"?>
<svg version="1.1" xmlns:xlink="http://www.w3.org/1999/xlink" width="9px" height="12px" xmlns="http://www.w3.org/2000/svg">
  <defs>
    <pattern id="BGPattern" patternUnits="userSpaceOnUse" alignment="0 0" imageRepeat="None" />
    <mask fill="white" id="Clip4551">
      <path d="M 9 0  L 9 11.85542445543518  L 7.348836939473825 11.85542445543518  C 7.348836939473825 11.85542445543518  7.348836939473825 10.53012309679989  7.348836939473825 10.53012309679989  C 6.534883627206616 11.493978891490464  5.395348296955338 12  4.116279202293828 12  C 2.883720784871408 12  1.8604652088087543 11.614461464267203  1.1627908421401196 10.891569618249273  C 0.34883735660361376 10.07229224063752  0 8.939757516730799  0 7.566263152922432  C 0 7.566263152922432  0 0  0 0  L 1.6744185724150145 0  C 1.6744185724150145 0  1.6744185724150145 7.301202881195374  1.6744185724150145 7.301202881195374  C 1.6744185724150145 9.397589210709754  2.7441859808454 10.45783532451748  4.465116039089553 10.45783532451748  C 6.186046097333707 10.45783532451748  7.325580965533528 9.37349288765534  7.325580965533528 7.301202881195374  C 7.325580965533528 7.301202881195374  7.325580965533528 0  7.325580965533528 0  L 9 0  Z " fill-rule="evenodd" />
    </mask>
  </defs>
  <g transform="matrix(1 0 0 1 -143 -558 )">
    <path d="M 9 0  L 9 11.85542445543518  L 7.348836939473825 11.85542445543518  C 7.348836939473825 11.85542445543518  7.348836939473825 10.53012309679989  7.348836939473825 10.53012309679989  C 6.534883627206616 11.493978891490464  5.395348296955338 12  4.116279202293828 12  C 2.883720784871408 12  1.8604652088087543 11.614461464267203  1.1627908421401196 10.891569618249273  C 0.34883735660361376 10.07229224063752  0 8.939757516730799  0 7.566263152922432  C 0 7.566263152922432  0 0  0 0  L 1.6744185724150145 0  C 1.6744185724150145 0  1.6744185724150145 7.301202881195374  1.6744185724150145 7.301202881195374  C 1.6744185724150145 9.397589210709754  2.7441859808454 10.45783532451748  4.465116039089553 10.45783532451748  C 6.186046097333707 10.45783532451748  7.325580965533528 9.37349288765534  7.325580965533528 7.301202881195374  C 7.325580965533528 7.301202881195374  7.325580965533528 0  7.325580965533528 0  L 9 0  Z " fill-rule="nonzero" fill="rgba(0, 0, 0, 1)" stroke="none" transform="matrix(1 0 0 1 143 558 )" class="fill" />
    <path d="M 9 0  L 9 11.85542445543518  L 7.348836939473825 11.85542445543518  C 7.348836939473825 11.85542445543518  7.348836939473825 10.53012309679989  7.348836939473825 10.53012309679989  C 6.534883627206616 11.493978891490464  5.395348296955338 12  4.116279202293828 12  C 2.883720784871408 12  1.8604652088087543 11.614461464267203  1.1627908421401196 10.891569618249273  C 0.34883735660361376 10.07229224063752  0 8.939757516730799  0 7.566263152922432  C 0 7.566263152922432  0 0  0 0  L 1.6744185724150145 0  C 1.6744185724150145 0  1.6744185724150145 7.301202881195374  1.6744185724150145 7.301202881195374  C 1.6744185724150145 9.397589210709754  2.7441859808454 10.45783532451748  4.465116039089553 10.45783532451748  C 6.186046097333707 10.45783532451748  7.325580965533528 9.37349288765534  7.325580965533528 7.301202881195374  C 7.325580965533528 7.301202881195374  7.325580965533528 0  7.325580965533528 0  L 9 0  Z " stroke-width="0" stroke-dasharray="0" stroke="rgba(121, 121, 121, 1)" fill="none" transform="matrix(1 0 0 1 143 558 )" class="stroke" mask="url(#Clip4551)" />
  </g>
</svg>