<?xml version="1.0" encoding="utf-8"?>
<svg version="1.1" xmlns:xlink="http://www.w3.org/1999/xlink" width="17px" height="23px" xmlns="http://www.w3.org/2000/svg">
  <defs>
    <pattern id="BGPattern" patternUnits="userSpaceOnUse" alignment="0 0" imageRepeat="None" />
    <mask fill="white" id="Clip4469">
      <path d="M 12.425574718527265 15.85220635125276  C 12.425574718527265 15.85220635125276  17 15.85220635125276  17 15.85220635125276  C 16.22137429674472 20.458559670415994  12.912214574475104 23  8.5 23  C 6.034350650532461 23  3.958013669257877 22.174031111809242  2.2709905064802998 20.522097595842034  C 1.2652650757684336 19.53729099477669  0.6488539469882587 18.39364857435423  0.3893118847582713 17.122930776459064  C 0.12976982252828378 15.852212505184532  0 13.977901457399234  0 11.500001893517469  C 0 9.022101382876972  0.12976982252828378 7.147791755229771  0.3893118847582713 5.877073010575871  C 0.6488539469882587 4.5745886168645225  1.2652650757684336 3.4627056915677388  2.2709905064802998 2.4778986171230293  C 3.958013669257877 0.8259655745351867  6.034350650532461 0  8.5 0  C 12.944657876117871 0  16.22137429674472 2.541437489307801  17 7.147789861712303  C 17 7.147789861712303  12.425574718527265 7.147789861712303  12.425574718527265 7.147789861712303  C 11.93893292884069 5.20994514891527  10.706108737541605 3.939224510743901  8.532444268512137 3.939224510743901  C 7.2996191103436825 3.939224510743901  6.326337464709268 4.32044259571278  5.645039732643557 5.11464062767305  C 4.704199938347859 6.099447702117759  4.509540611925935 7.116024212654855  4.509540611925935 11.500001893517469  C 4.509540611925935 15.883979101000715  4.704199938347859 16.90055277126161  5.645039732643557 17.88535937232695  C 6.326337464709268 18.679557877666586  7.2996191103436825 19.06077170222116  8.532444268512137 19.06077170222116  C 10.706108737541605 19.06077170222116  11.93893292884069 17.79005153742916  12.425574718527265 15.85220635125276  Z " fill-rule="evenodd" />
    </mask>
  </defs>
  <g transform="matrix(1 0 0 1 -1127 -409 )">
    <path d="M 12.425574718527265 15.85220635125276  C 12.425574718527265 15.85220635125276  17 15.85220635125276  17 15.85220635125276  C 16.22137429674472 20.458559670415994  12.912214574475104 23  8.5 23  C 6.034350650532461 23  3.958013669257877 22.174031111809242  2.2709905064802998 20.522097595842034  C 1.2652650757684336 19.53729099477669  0.6488539469882587 18.39364857435423  0.3893118847582713 17.122930776459064  C 0.12976982252828378 15.852212505184532  0 13.977901457399234  0 11.500001893517469  C 0 9.022101382876972  0.12976982252828378 7.147791755229771  0.3893118847582713 5.877073010575871  C 0.6488539469882587 4.5745886168645225  1.2652650757684336 3.4627056915677388  2.2709905064802998 2.4778986171230293  C 3.958013669257877 0.8259655745351867  6.034350650532461 0  8.5 0  C 12.944657876117871 0  16.22137429674472 2.541437489307801  17 7.147789861712303  C 17 7.147789861712303  12.425574718527265 7.147789861712303  12.425574718527265 7.147789861712303  C 11.93893292884069 5.20994514891527  10.706108737541605 3.939224510743901  8.532444268512137 3.939224510743901  C 7.2996191103436825 3.939224510743901  6.326337464709268 4.32044259571278  5.645039732643557 5.11464062767305  C 4.704199938347859 6.099447702117759  4.509540611925935 7.116024212654855  4.509540611925935 11.500001893517469  C 4.509540611925935 15.883979101000715  4.704199938347859 16.90055277126161  5.645039732643557 17.88535937232695  C 6.326337464709268 18.679557877666586  7.2996191103436825 19.06077170222116  8.532444268512137 19.06077170222116  C 10.706108737541605 19.06077170222116  11.93893292884069 17.79005153742916  12.425574718527265 15.85220635125276  Z " fill-rule="nonzero" fill="rgba(255, 255, 255, 1)" stroke="none" transform="matrix(1 0 0 1 1127 409 )" class="fill" />
    <path d="M 12.425574718527265 15.85220635125276  C 12.425574718527265 15.85220635125276  17 15.85220635125276  17 15.85220635125276  C 16.22137429674472 20.458559670415994  12.912214574475104 23  8.5 23  C 6.034350650532461 23  3.958013669257877 22.174031111809242  2.2709905064802998 20.522097595842034  C 1.2652650757684336 19.53729099477669  0.6488539469882587 18.39364857435423  0.3893118847582713 17.122930776459064  C 0.12976982252828378 15.852212505184532  0 13.977901457399234  0 11.500001893517469  C 0 9.022101382876972  0.12976982252828378 7.147791755229771  0.3893118847582713 5.877073010575871  C 0.6488539469882587 4.5745886168645225  1.2652650757684336 3.4627056915677388  2.2709905064802998 2.4778986171230293  C 3.958013669257877 0.8259655745351867  6.034350650532461 0  8.5 0  C 12.944657876117871 0  16.22137429674472 2.541437489307801  17 7.147789861712303  C 17 7.147789861712303  12.425574718527265 7.147789861712303  12.425574718527265 7.147789861712303  C 11.93893292884069 5.20994514891527  10.706108737541605 3.939224510743901  8.532444268512137 3.939224510743901  C 7.2996191103436825 3.939224510743901  6.326337464709268 4.32044259571278  5.645039732643557 5.11464062767305  C 4.704199938347859 6.099447702117759  4.509540611925935 7.116024212654855  4.509540611925935 11.500001893517469  C 4.509540611925935 15.883979101000715  4.704199938347859 16.90055277126161  5.645039732643557 17.88535937232695  C 6.326337464709268 18.679557877666586  7.2996191103436825 19.06077170222116  8.532444268512137 19.06077170222116  C 10.706108737541605 19.06077170222116  11.93893292884069 17.79005153742916  12.425574718527265 15.85220635125276  Z " stroke-width="0" stroke-dasharray="0" stroke="rgba(121, 121, 121, 1)" fill="none" transform="matrix(1 0 0 1 1127 409 )" class="stroke" mask="url(#Clip4469)" />
  </g>
</svg>