<?xml version="1.0" encoding="utf-8"?>
<svg version="1.1" xmlns:xlink="http://www.w3.org/1999/xlink" width="17px" height="23px" xmlns="http://www.w3.org/2000/svg">
  <defs>
    <pattern id="BGPattern" patternUnits="userSpaceOnUse" alignment="0 0" imageRepeat="None" />
    <mask fill="white" id="Clip4459">
      <path d="M 15.215639525783779 11.341158500090478  C 16.44846315615138 12.484805180927241  17 14.136739170273817  17 16.13811991497942  C 17 20.522097595842034  13.269087755753892 23  8.435119227451251 23  C 4.931303223290757 23  2.2709916486411967 22.26933421291336  0 20.013809340573484  C 0 20.013809340573484  2.9198513433335638 17.154696425516516  2.9198513433335638 17.154696425516516  C 4.379774839545258 18.5842543031831  6.358778839993884 19.06077170222116  8.5 19.06077170222116  C 11.160304081415369 19.06077170222116  12.587767128822431 18.07596368101772  12.587767128822431 16.265190085279087  C 12.587767128822431 15.47099157993945  12.360688292377523 14.803866085175684  11.8740476909805 14.35911480857444  C 11.419849409595708 13.946131074548111  10.900774223137878 13.723760170041162  9.830164126569287 13.564920563649107  C 9.830164126569287 13.564920563649107  7.040074328333218 13.183702478680228  7.040074328333218 13.183702478680228  C 5.061067185560574 12.897790808471038  3.601128461163264 12.294198978719004  2.562960684606901 11.30939285103303  C 1.4599075428743808 10.229282202104834  0.9083926952938736 8.76795346820776  0.9083926952938736 6.861876297985643  C 0.9083926952938736 2.827347265999523  3.958014285545287 0  8.954196347646937 0  C 12.133584317340487 0  14.43700354124276 0.7624342764202905  16.41601116744987 2.6367420105500208  C 16.41601116744987 2.6367420105500208  13.561071536470752 5.400550404364772  13.561071536470752 5.400550404364772  C 12.101148765410754 4.0345290319861205  10.349244147371754 3.843923776536618  8.82443480254944 3.843923776536618  C 6.423672181838699 3.843923776536618  5.255713854116996 5.146410063765436  5.255713854116996 6.703040478628527  C 5.255713854116996 7.274863819046908  5.4503672907559135 7.87845091500527  5.937008375587401 8.323202191606514  C 6.391206656972194 8.736185925632842  7.137389202508308 9.08563741478554  8.078228568724588 9.212708531843942  C 8.078228568724588 9.212708531843942  10.803437594411907 9.593922829777885  10.803437594411907 9.593922829777885  C 12.912215467536864 9.879834499987075  14.242357356120802 10.451655946887987  15.215639525783779 11.341158500090478  Z " fill-rule="evenodd" />
    </mask>
  </defs>
  <g transform="matrix(1 0 0 1 -1346 -409 )">
    <path d="M 15.215639525783779 11.341158500090478  C 16.44846315615138 12.484805180927241  17 14.136739170273817  17 16.13811991497942  C 17 20.522097595842034  13.269087755753892 23  8.435119227451251 23  C 4.931303223290757 23  2.2709916486411967 22.26933421291336  0 20.013809340573484  C 0 20.013809340573484  2.9198513433335638 17.154696425516516  2.9198513433335638 17.154696425516516  C 4.379774839545258 18.5842543031831  6.358778839993884 19.06077170222116  8.5 19.06077170222116  C 11.160304081415369 19.06077170222116  12.587767128822431 18.07596368101772  12.587767128822431 16.265190085279087  C 12.587767128822431 15.47099157993945  12.360688292377523 14.803866085175684  11.8740476909805 14.35911480857444  C 11.419849409595708 13.946131074548111  10.900774223137878 13.723760170041162  9.830164126569287 13.564920563649107  C 9.830164126569287 13.564920563649107  7.040074328333218 13.183702478680228  7.040074328333218 13.183702478680228  C 5.061067185560574 12.897790808471038  3.601128461163264 12.294198978719004  2.562960684606901 11.30939285103303  C 1.4599075428743808 10.229282202104834  0.9083926952938736 8.76795346820776  0.9083926952938736 6.861876297985643  C 0.9083926952938736 2.827347265999523  3.958014285545287 0  8.954196347646937 0  C 12.133584317340487 0  14.43700354124276 0.7624342764202905  16.41601116744987 2.6367420105500208  C 16.41601116744987 2.6367420105500208  13.561071536470752 5.400550404364772  13.561071536470752 5.400550404364772  C 12.101148765410754 4.0345290319861205  10.349244147371754 3.843923776536618  8.82443480254944 3.843923776536618  C 6.423672181838699 3.843923776536618  5.255713854116996 5.146410063765436  5.255713854116996 6.703040478628527  C 5.255713854116996 7.274863819046908  5.4503672907559135 7.87845091500527  5.937008375587401 8.323202191606514  C 6.391206656972194 8.736185925632842  7.137389202508308 9.08563741478554  8.078228568724588 9.212708531843942  C 8.078228568724588 9.212708531843942  10.803437594411907 9.593922829777885  10.803437594411907 9.593922829777885  C 12.912215467536864 9.879834499987075  14.242357356120802 10.451655946887987  15.215639525783779 11.341158500090478  Z " fill-rule="nonzero" fill="rgba(255, 255, 255, 1)" stroke="none" transform="matrix(1 0 0 1 1346 409 )" class="fill" />
    <path d="M 15.215639525783779 11.341158500090478  C 16.44846315615138 12.484805180927241  17 14.136739170273817  17 16.13811991497942  C 17 20.522097595842034  13.269087755753892 23  8.435119227451251 23  C 4.931303223290757 23  2.2709916486411967 22.26933421291336  0 20.013809340573484  C 0 20.013809340573484  2.9198513433335638 17.154696425516516  2.9198513433335638 17.154696425516516  C 4.379774839545258 18.5842543031831  6.358778839993884 19.06077170222116  8.5 19.06077170222116  C 11.160304081415369 19.06077170222116  12.587767128822431 18.07596368101772  12.587767128822431 16.265190085279087  C 12.587767128822431 15.47099157993945  12.360688292377523 14.803866085175684  11.8740476909805 14.35911480857444  C 11.419849409595708 13.946131074548111  10.900774223137878 13.723760170041162  9.830164126569287 13.564920563649107  C 9.830164126569287 13.564920563649107  7.040074328333218 13.183702478680228  7.040074328333218 13.183702478680228  C 5.061067185560574 12.897790808471038  3.601128461163264 12.294198978719004  2.562960684606901 11.30939285103303  C 1.4599075428743808 10.229282202104834  0.9083926952938736 8.76795346820776  0.9083926952938736 6.861876297985643  C 0.9083926952938736 2.827347265999523  3.958014285545287 0  8.954196347646937 0  C 12.133584317340487 0  14.43700354124276 0.7624342764202905  16.41601116744987 2.6367420105500208  C 16.41601116744987 2.6367420105500208  13.561071536470752 5.400550404364772  13.561071536470752 5.400550404364772  C 12.101148765410754 4.0345290319861205  10.349244147371754 3.843923776536618  8.82443480254944 3.843923776536618  C 6.423672181838699 3.843923776536618  5.255713854116996 5.146410063765436  5.255713854116996 6.703040478628527  C 5.255713854116996 7.274863819046908  5.4503672907559135 7.87845091500527  5.937008375587401 8.323202191606514  C 6.391206656972194 8.736185925632842  7.137389202508308 9.08563741478554  8.078228568724588 9.212708531843942  C 8.078228568724588 9.212708531843942  10.803437594411907 9.593922829777885  10.803437594411907 9.593922829777885  C 12.912215467536864 9.879834499987075  14.242357356120802 10.451655946887987  15.215639525783779 11.341158500090478  Z " stroke-width="0" stroke-dasharray="0" stroke="rgba(121, 121, 121, 1)" fill="none" transform="matrix(1 0 0 1 1346 409 )" class="stroke" mask="url(#Clip4459)" />
  </g>
</svg>