<?xml version="1.0" encoding="utf-8"?>
<svg version="1.1" xmlns:xlink="http://www.w3.org/1999/xlink" width="9px" height="17px" xmlns="http://www.w3.org/2000/svg">
  <defs>
    <pattern id="BGPattern" patternUnits="userSpaceOnUse" alignment="0 0" imageRepeat="None" />
    <mask fill="white" id="Clip4618">
      <path d="M 9 0  L 9 16.857941475649536  L 7.365728416029656 16.857941475649536  C 7.365728416029656 16.857941475649536  7.365728416029656 15.461004114215129  7.365728416029656 15.461004114215129  C 6.4450124783571106 16.69220214001171  5.386189755988844 17  4.14322320583156 17  C 2.9923277692506494 17  1.9795392888622036 16.59749530066866  1.381073792177655 15.981896346572539  C 0.2301785842590685 14.798052181463785  0 12.856547891810642  0 11.033428136272722  C 0 9.210308027921762  0.2301785842590685 7.2688026798294985  1.381073792177655 6.084958985138131  C 1.9795392888622036 5.469359501822452  2.9923277692506494 5.0668525092063454  4.14322320583156 5.0668525092063454  C 5.386189755988844 5.0668525092063454  6.421996243433707 5.350975202915923  7.3427121811062515 6.558496180764245  C 7.3427121811062515 6.558496180764245  7.3427121811062515 0  7.3427121811062515 0  L 9 0  Z M 4.51150857478635 15.484681162163389  C 6.974424068203568 15.484681162163389  7.3427121811062515 13.306408745114577  7.3427121811062515 11.033428136272722  C 7.3427121811062515 8.760447527430868  6.974424068203568 6.582173228712507  4.51150857478635 6.582173228712507  C 2.048592624044484 6.582173228712507  1.6572887335430453 8.760447527430868  1.6572887335430453 11.033428136272722  C 1.6572887335430453 13.306408745114577  2.048592624044484 15.484681162163389  4.51150857478635 15.484681162163389  Z " fill-rule="evenodd" />
    </mask>
  </defs>
  <g transform="matrix(1 0 0 1 -157 -491 )">
    <path d="M 9 0  L 9 16.857941475649536  L 7.365728416029656 16.857941475649536  C 7.365728416029656 16.857941475649536  7.365728416029656 15.461004114215129  7.365728416029656 15.461004114215129  C 6.4450124783571106 16.69220214001171  5.386189755988844 17  4.14322320583156 17  C 2.9923277692506494 17  1.9795392888622036 16.59749530066866  1.381073792177655 15.981896346572539  C 0.2301785842590685 14.798052181463785  0 12.856547891810642  0 11.033428136272722  C 0 9.210308027921762  0.2301785842590685 7.2688026798294985  1.381073792177655 6.084958985138131  C 1.9795392888622036 5.469359501822452  2.9923277692506494 5.0668525092063454  4.14322320583156 5.0668525092063454  C 5.386189755988844 5.0668525092063454  6.421996243433707 5.350975202915923  7.3427121811062515 6.558496180764245  C 7.3427121811062515 6.558496180764245  7.3427121811062515 0  7.3427121811062515 0  L 9 0  Z M 4.51150857478635 15.484681162163389  C 6.974424068203568 15.484681162163389  7.3427121811062515 13.306408745114577  7.3427121811062515 11.033428136272722  C 7.3427121811062515 8.760447527430868  6.974424068203568 6.582173228712507  4.51150857478635 6.582173228712507  C 2.048592624044484 6.582173228712507  1.6572887335430453 8.760447527430868  1.6572887335430453 11.033428136272722  C 1.6572887335430453 13.306408745114577  2.048592624044484 15.484681162163389  4.51150857478635 15.484681162163389  Z " fill-rule="nonzero" fill="rgba(0, 0, 0, 1)" stroke="none" transform="matrix(1 0 0 1 157 491 )" class="fill" />
    <path d="M 9 0  L 9 16.857941475649536  L 7.365728416029656 16.857941475649536  C 7.365728416029656 16.857941475649536  7.365728416029656 15.461004114215129  7.365728416029656 15.461004114215129  C 6.4450124783571106 16.69220214001171  5.386189755988844 17  4.14322320583156 17  C 2.9923277692506494 17  1.9795392888622036 16.59749530066866  1.381073792177655 15.981896346572539  C 0.2301785842590685 14.798052181463785  0 12.856547891810642  0 11.033428136272722  C 0 9.210308027921762  0.2301785842590685 7.2688026798294985  1.381073792177655 6.084958985138131  C 1.9795392888622036 5.469359501822452  2.9923277692506494 5.0668525092063454  4.14322320583156 5.0668525092063454  C 5.386189755988844 5.0668525092063454  6.421996243433707 5.350975202915923  7.3427121811062515 6.558496180764245  C 7.3427121811062515 6.558496180764245  7.3427121811062515 0  7.3427121811062515 0  L 9 0  Z " stroke-width="0" stroke-dasharray="0" stroke="rgba(121, 121, 121, 1)" fill="none" transform="matrix(1 0 0 1 157 491 )" class="stroke" mask="url(#Clip4618)" />
    <path d="M 4.51150857478635 15.484681162163389  C 6.974424068203568 15.484681162163389  7.3427121811062515 13.306408745114577  7.3427121811062515 11.033428136272722  C 7.3427121811062515 8.760447527430868  6.974424068203568 6.582173228712507  4.51150857478635 6.582173228712507  C 2.048592624044484 6.582173228712507  1.6572887335430453 8.760447527430868  1.6572887335430453 11.033428136272722  C 1.6572887335430453 13.306408745114577  2.048592624044484 15.484681162163389  4.51150857478635 15.484681162163389  Z " stroke-width="0" stroke-dasharray="0" stroke="rgba(121, 121, 121, 1)" fill="none" transform="matrix(1 0 0 1 157 491 )" class="stroke" mask="url(#Clip4618)" />
  </g>
</svg>