<?xml version="1.0" encoding="utf-8"?>
<svg version="1.1" xmlns:xlink="http://www.w3.org/1999/xlink" width="12px" height="17px" xmlns="http://www.w3.org/2000/svg">
  <defs>
    <pattern id="BGPattern" patternUnits="userSpaceOnUse" alignment="0 0" imageRepeat="None" />
    <mask fill="white" id="Clip4605">
      <path d="M 12 0  L 12 1.6235944076113564  L 7 1.6235944076113564  L 7 17  L 5 17  L 5 1.6235944076113564  L 0 1.6235944076113564  L 0 0  L 12 0  Z " fill-rule="evenodd" />
    </mask>
  </defs>
  <g transform="matrix(1 0 0 1 -459 -491 )">
    <path d="M 12 0  L 12 1.6235944076113564  L 7 1.6235944076113564  L 7 17  L 5 17  L 5 1.6235944076113564  L 0 1.6235944076113564  L 0 0  L 12 0  Z " fill-rule="nonzero" fill="rgba(0, 0, 0, 1)" stroke="none" transform="matrix(1 0 0 1 459 491 )" class="fill" />
    <path d="M 12 0  L 12 1.6235944076113564  L 7 1.6235944076113564  L 7 17  L 5 17  L 5 1.6235944076113564  L 0 1.6235944076113564  L 0 0  L 12 0  Z " stroke-width="0" stroke-dasharray="0" stroke="rgba(121, 121, 121, 1)" fill="none" transform="matrix(1 0 0 1 459 491 )" class="stroke" mask="url(#Clip4605)" />
  </g>
</svg>