<?xml version="1.0" encoding="utf-8"?>
<svg version="1.1" xmlns:xlink="http://www.w3.org/1999/xlink" width="9px" height="12px" xmlns="http://www.w3.org/2000/svg">
  <defs>
    <pattern id="BGPattern" patternUnits="userSpaceOnUse" alignment="0 0" imageRepeat="None" />
    <mask fill="white" id="Clip4583">
      <path d="M 9 3.904761867218036  C 9 3.904761867218036  9 11.857143746932548  9 11.857143746932548  L 7.3384913337767514 11.857143746932548  C 7.3384913337767514 11.857143746932548  7.3384913337767514 10.73809584442872  7.3384913337767514 10.73809584442872  C 6.415413158647639 11.690476856879862  5.5846231773176775 12  4.0615438788685 12  C 2.4923105685008218 12  1.5692335969289193 11.690476265563927  0.8538479596228334 10.928571479255652  C 0.3000008482212723 10.35714291909024  0 9.4761911566731  0 8.547619421180542  C 0 6.500000433631685  1.3846338832456278 5.166667915000305  3.923099495285418 5.166667915000305  C 3.923099495285418 5.166667915000305  7.3384913337767514 5.166667915000305  7.3384913337767514 5.166667915000305  C 7.3384913337767514 5.166667915000305  7.3384913337767514 4.047620012496477  7.3384913337767514 4.047620012496477  C 7.3384913337767514 2.3333343320002444  6.5076746449391605 1.4761904273834467  4.430748464337415 1.4761904273834467  C 2.9768998398925035 1.4761904273834467  2.2384833329869127 1.8333329522630644  1.5692515356625845 2.8095236555939476  C 1.5692515356625845 2.8095236555939476  0.4384561211314997 1.738095134849599  0.4384561211314997 1.738095134849599  C 1.4538425493466098 0.38095197923298435  2.607714396714465 0  4.453871434719668 0  C 7.500030031618021 0  9 1.3571429190902407  9 3.904761867218036  Z M 6.761532141320083 9.738096396323591  C 7.153840898753864 9.35714394403786  7.3384913337767514 8.690476620353488  7.3384913337767514 7.714285917022606  C 7.3384913337767514 7.714285917022606  7.3384913337767514 6.452381761451326  7.3384913337767514 6.452381761451326  C 7.3384913337767514 6.452381761451326  4.153859697171251 6.452381761451326  4.153859697171251 6.452381761451326  C 2.446164694921554 6.452381761451326  1.6153801009429165 7.1666665746841876  1.6153801009429165 8.523809730300803  C 1.6153801009429165 9.880952531127857  2.423108206747134 10.523810518722048  4.223111232833835 10.523810518722048  C 5.19234376375494 10.523810518722048  6.046146675950741 10.452382037398761  6.761532141320083 9.738096396323591  Z " fill-rule="evenodd" />
    </mask>
  </defs>
  <g transform="matrix(1 0 0 1 -841 -496 )">
    <path d="M 9 3.904761867218036  C 9 3.904761867218036  9 11.857143746932548  9 11.857143746932548  L 7.3384913337767514 11.857143746932548  C 7.3384913337767514 11.857143746932548  7.3384913337767514 10.73809584442872  7.3384913337767514 10.73809584442872  C 6.415413158647639 11.690476856879862  5.5846231773176775 12  4.0615438788685 12  C 2.4923105685008218 12  1.5692335969289193 11.690476265563927  0.8538479596228334 10.928571479255652  C 0.3000008482212723 10.35714291909024  0 9.4761911566731  0 8.547619421180542  C 0 6.500000433631685  1.3846338832456278 5.166667915000305  3.923099495285418 5.166667915000305  C 3.923099495285418 5.166667915000305  7.3384913337767514 5.166667915000305  7.3384913337767514 5.166667915000305  C 7.3384913337767514 5.166667915000305  7.3384913337767514 4.047620012496477  7.3384913337767514 4.047620012496477  C 7.3384913337767514 2.3333343320002444  6.5076746449391605 1.4761904273834467  4.430748464337415 1.4761904273834467  C 2.9768998398925035 1.4761904273834467  2.2384833329869127 1.8333329522630644  1.5692515356625845 2.8095236555939476  C 1.5692515356625845 2.8095236555939476  0.4384561211314997 1.738095134849599  0.4384561211314997 1.738095134849599  C 1.4538425493466098 0.38095197923298435  2.607714396714465 0  4.453871434719668 0  C 7.500030031618021 0  9 1.3571429190902407  9 3.904761867218036  Z M 6.761532141320083 9.738096396323591  C 7.153840898753864 9.35714394403786  7.3384913337767514 8.690476620353488  7.3384913337767514 7.714285917022606  C 7.3384913337767514 7.714285917022606  7.3384913337767514 6.452381761451326  7.3384913337767514 6.452381761451326  C 7.3384913337767514 6.452381761451326  4.153859697171251 6.452381761451326  4.153859697171251 6.452381761451326  C 2.446164694921554 6.452381761451326  1.6153801009429165 7.1666665746841876  1.6153801009429165 8.523809730300803  C 1.6153801009429165 9.880952531127857  2.423108206747134 10.523810518722048  4.223111232833835 10.523810518722048  C 5.19234376375494 10.523810518722048  6.046146675950741 10.452382037398761  6.761532141320083 9.738096396323591  Z " fill-rule="nonzero" fill="rgba(0, 0, 0, 1)" stroke="none" transform="matrix(1 0 0 1 841 496 )" class="fill" />
    <path d="M 9 3.904761867218036  C 9 3.904761867218036  9 11.857143746932548  9 11.857143746932548  L 7.3384913337767514 11.857143746932548  C 7.3384913337767514 11.857143746932548  7.3384913337767514 10.73809584442872  7.3384913337767514 10.73809584442872  C 6.415413158647639 11.690476856879862  5.5846231773176775 12  4.0615438788685 12  C 2.4923105685008218 12  1.5692335969289193 11.690476265563927  0.8538479596228334 10.928571479255652  C 0.3000008482212723 10.35714291909024  0 9.4761911566731  0 8.547619421180542  C 0 6.500000433631685  1.3846338832456278 5.166667915000305  3.923099495285418 5.166667915000305  C 3.923099495285418 5.166667915000305  7.3384913337767514 5.166667915000305  7.3384913337767514 5.166667915000305  C 7.3384913337767514 5.166667915000305  7.3384913337767514 4.047620012496477  7.3384913337767514 4.047620012496477  C 7.3384913337767514 2.3333343320002444  6.5076746449391605 1.4761904273834467  4.430748464337415 1.4761904273834467  C 2.9768998398925035 1.4761904273834467  2.2384833329869127 1.8333329522630644  1.5692515356625845 2.8095236555939476  C 1.5692515356625845 2.8095236555939476  0.4384561211314997 1.738095134849599  0.4384561211314997 1.738095134849599  C 1.4538425493466098 0.38095197923298435  2.607714396714465 0  4.453871434719668 0  C 7.500030031618021 0  9 1.3571429190902407  9 3.904761867218036  Z " stroke-width="0" stroke-dasharray="0" stroke="rgba(121, 121, 121, 1)" fill="none" transform="matrix(1 0 0 1 841 496 )" class="stroke" mask="url(#Clip4583)" />
    <path d="M 6.761532141320083 9.738096396323591  C 7.153840898753864 9.35714394403786  7.3384913337767514 8.690476620353488  7.3384913337767514 7.714285917022606  C 7.3384913337767514 7.714285917022606  7.3384913337767514 6.452381761451326  7.3384913337767514 6.452381761451326  C 7.3384913337767514 6.452381761451326  4.153859697171251 6.452381761451326  4.153859697171251 6.452381761451326  C 2.446164694921554 6.452381761451326  1.6153801009429165 7.1666665746841876  1.6153801009429165 8.523809730300803  C 1.6153801009429165 9.880952531127857  2.423108206747134 10.523810518722048  4.223111232833835 10.523810518722048  C 5.19234376375494 10.523810518722048  6.046146675950741 10.452382037398761  6.761532141320083 9.738096396323591  Z " stroke-width="0" stroke-dasharray="0" stroke="rgba(121, 121, 121, 1)" fill="none" transform="matrix(1 0 0 1 841 496 )" class="stroke" mask="url(#Clip4583)" />
  </g>
</svg>