<?xml version="1.0" encoding="utf-8"?>
<svg version="1.1" xmlns:xlink="http://www.w3.org/1999/xlink" width="22px" height="22px" xmlns="http://www.w3.org/2000/svg">
  <defs>
    <pattern id="BGPattern" patternUnits="userSpaceOnUse" alignment="0 0" imageRepeat="None" />
    <mask fill="white" id="Clip4502">
      <path d="M 6.173340423597354 19.724961426391204  C 6.173340423597354 19.724961426391204  6.173340423597354 16.55444858973767  6.173340423597354 16.55444858973767  L 7.937151973196598 16.55444858973767  C 7.937151973196598 16.55444858973767  7.937151973196598 19.700772311492905  7.937151973196598 19.700772311492905  C 7.937151973196598 19.99120121513862  8.02458570000744 20.184809179047903  8.199377856885041 20.281618818605416  C 8.390059994585867 20.36229351573221  8.8111227024376 20.402641330485253  9.46262044034948 20.402641330485253  C 9.605632162016207 20.402641330485253  9.867812583519544 20.402641330485253  10.249176858921196 20.402641330485253  C 10.6464315887105 20.402641330485253  11.083418374024284 20.402641330485253  11.560124428622991 20.402641330485253  C 12.052719516916067 20.402641330485253  12.505631800385189 20.402641330485253  12.918776984562145 20.402641330485253  C 13.347812149562325 20.402641330485253  13.657645465215918 20.402641330485253  13.848327129352315 20.402641330485253  C 14.182021462284297 20.402641330485253  14.428337475443533 20.354223955786967  14.587239177933482 20.257414316229454  C 14.762031808375513 20.16060466915852  14.889125135353325 19.95892718287108  14.9685759865983 19.652363306740973  C 15.048026837843276 19.329664518233812  15.10367255241239 18.845613961233347  15.135452514058837 18.200216264004354  C 15.262574254902338 18.280891006211647  15.421457014815163 18.369625420707628  15.61213867895156 18.466435015184643  C 15.802821290216812 18.547109757391937  15.993491588806934 18.61972037936777  16.18417420007219 18.68426014909067  C 16.374855864208584 18.748799918813567  16.54966364871232 18.797201891007347  16.708565351202267 18.829471775868797  C 16.645005427909375 19.684623634536212  16.525843357974757 20.33808887811474  16.351050727532726 20.7898672060677  C 16.176259044219552 21.25778044639772  15.906085802297357 21.57241643703479  15.540611507718928 21.73376586134204  C 15.175137213140502 21.91125025813368  14.666640778477927 22  14.015143040566047 22  C 13.903911280545767 22  13.689444369439492 22  13.371640964459592 22  C 13.053837559479692 22  12.68835947638584 22  12.275214292208883 22  C 11.877960035984007 22  11.46476844249309 22  11.03573327749291 22  C 10.622588093315956 22  10.25717062646891 22  9.939367221489011 22  C 9.637453323767906 22  9.430858000586877 22  9.319626714131026 22  C 8.49333729290597 22  7.849754237282298 21.935458907915738  7.388938637071243 21.80637936846994  C 6.928123510424617 21.67729982902414  6.610358464163399 21.443344110469152  6.435566307285798 21.104510349477597  C 6.260774150408196 20.781811530916766  6.173340423597354 20.32195420616702  6.173340423597354 19.724961426391204  Z M 10.582869297595463 17.42573373788411  C 9.883701143649484 16.941685525069698  9.184533463267933 16.538315059829312  8.485365309321953 16.215616331429484  C 8.485365309321953 16.215616331429484  9.629496967810017 15.199119556504915  9.629496967810017 15.199119556504915  C 10.328665121755998 15.4895485803653  11.02783280213755 15.860656073087721  11.727000956083529 16.312434340933347  C 12.44205956441716 16.764212608778976  12.998208893229991 17.207915456214234  13.395463149454866 17.643558871790137  C 13.395463149454866 17.643558871790137  12.227509305971527 18.781078158594536  12.227509305971527 18.781078158594536  C 11.84614408344102 18.345434743018632  11.297927432364668 17.89364697821413  10.582869297595463 17.42573373788411  Z M 18.019512920904063 18.68426014909067  C 17.495136923835684 18.184076963791867  16.954851056238102 17.732304586465037  16.398695097523273 17.328931115857916  C 16.398695097523273 17.328931115857916  17.80499202345298 16.457645967711475  17.80499202345298 16.457645967711475  C 18.345258948473433 16.844884586048874  18.885483252695355 17.288587313269463  19.42574923058696 17.788770498568265  C 19.98190613643064 18.272818711382676  20.482470366921163 18.76493891848938  20.927395512744564 19.26512204368085  C 21.388210639391193 19.765305228979656  21.745756518312994 20.241286256088546  22 20.693064584041508  C 22 20.693064584041508  20.474531532847116 21.636963239315847  20.474531532847116 21.636963239315847  C 20.236178031983336 21.201319853793606  19.902488434695638 20.725338796631053  19.473454216824315 20.20902069895519  C 19.044419051824136 19.69270260127933  18.559779845924524 19.184443334389474  18.019512920904063 18.68426014909067  Z M 1.978332447050331 18.902085282996698  C 2.5185986617241465 18.176013023882415  2.93179001843285 17.425743835916332  3.2178134617663026 16.651266599241538  C 3.2178134617663026 16.651266599241538  4.743221312672377 17.23211310635405  4.743221312672377 17.23211310635405  C 4.425417670910263 18.071129992537074  3.99642275888648 18.894025250064  3.456156544212664 19.700772311492905  C 2.931780310362072 20.50751931281448  2.2564087689322445 21.17710828880582  1.4301191109249762 21.709561358966074  C 1.4301191109249762 21.709561358966074  0 20.66886008166554  0 20.66886008166554  C 0.7786191827776155 20.217081753712577  1.4380661139854078 19.628157602218316  1.978332447050331 18.902085282996698  Z M 2.5265457831756852 10.140809409302708  L 2.5265457831756852 9  L 19.09205679191269 9  L 19.09205679191269 15.51374731243714  L 2.38355205695723 15.51374731243714  L 2.38355205695723 14  L 17.35212804355553 14  L 17.35212804355553 10.140809409302708  L 2.5265457831756852 10.140809409302708  Z M 3.289280016752126 12.754680241219695  L 3.289280016752126 11.544547447287398  L 17.94798574967143 11.544547447287398  L 17.94798574967143 12.754680241219695  L 3.289280016752126 12.754680241219695  Z M 0.9534329460322533 2.4686438176611873  L 0.9534329460322533 1.2585264112065602  L 10.130005317698016 1.2585264112065602  L 10.130005317698016 2.4686438176611873  L 0.9534329460322533 2.4686438176611873  Z M 1.4540019121670584 4.840485013296179  L 1.4540019121670584 3.654572109217519  L 9.796312879023748 3.654572109217519  L 9.796312879023748 4.840485013296179  L 1.4540019121670584 4.840485013296179  Z M 4.76710411391446 8.519246237411993  L 4.76710411391446 0  L 6.435566307285798 0  L 6.435566307285798 8.519246237411993  L 4.76710411391446 8.519246237411993  Z M 11.107260448725544 2.4686438176611873  L 11.107260448725544 1.2585264112065602  L 20.903573327749292 1.2585264112065602  L 20.903573327749292 2.4686438176611873  L 11.107260448725544 2.4686438176611873  Z M 10.845095181283908 7.260719826205435  L 10.845095181283908 6  L 21.332615122651465 6  L 21.332615122651465 7.260719826205435  L 10.845095181283908 7.260719826205435  Z M 11.631651599855623 4.840485013296179  L 11.631651599855623 3.654572109217519  L 20.522175902837667 3.654572109217519  L 20.522175902837667 4.840485013296179  L 11.631651599855623 4.840485013296179  Z M 15.04010315783093 8.519246237411993  L 15.04010315783093 0  L 16.732387536197542 0  L 16.732387536197542 8.519246237411993  L 15.04010315783093 8.519246237411993  Z M 0.7389120485811665 7.696370094017489  C 0.7389120485811665 7.696370094017489  0.6435626923532605 6.365230175683029  0.6435626923532605 6.365230175683029  C 1.4539622511461983 6.316825017800514  2.3755894262706683 6.268422745070062  3.408451557975307 6.220018548904901  C 4.457203788894277 6.155478658967333  5.569562589202318 6.082868036991497  6.74543656096479 6.002193414998874  C 7.921310295945049 5.921518793006252  9.10511812935507 5.840854749904527  10.296881845158552 5.760179166194551  C 10.296881845158552 5.760179166194551  10.296881845158552 6.970296572649178  10.296881845158552 6.970296572649178  C 8.548961697075816 7.099376352524316  6.832800673804689 7.228458055834162  5.148440922579276 7.357537835709301  C 3.4640809345716495 7.4866176155844375  1.9942367531975072 7.599560739969813  0.7389120485811665 7.696370094017489  Z " fill-rule="evenodd" />
    </mask>
  </defs>
  <g transform="matrix(1 0 0 1 -897 -612 )">
    <path d="M 6.173340423597354 19.724961426391204  C 6.173340423597354 19.724961426391204  6.173340423597354 16.55444858973767  6.173340423597354 16.55444858973767  L 7.937151973196598 16.55444858973767  C 7.937151973196598 16.55444858973767  7.937151973196598 19.700772311492905  7.937151973196598 19.700772311492905  C 7.937151973196598 19.99120121513862  8.02458570000744 20.184809179047903  8.199377856885041 20.281618818605416  C 8.390059994585867 20.36229351573221  8.8111227024376 20.402641330485253  9.46262044034948 20.402641330485253  C 9.605632162016207 20.402641330485253  9.867812583519544 20.402641330485253  10.249176858921196 20.402641330485253  C 10.6464315887105 20.402641330485253  11.083418374024284 20.402641330485253  11.560124428622991 20.402641330485253  C 12.052719516916067 20.402641330485253  12.505631800385189 20.402641330485253  12.918776984562145 20.402641330485253  C 13.347812149562325 20.402641330485253  13.657645465215918 20.402641330485253  13.848327129352315 20.402641330485253  C 14.182021462284297 20.402641330485253  14.428337475443533 20.354223955786967  14.587239177933482 20.257414316229454  C 14.762031808375513 20.16060466915852  14.889125135353325 19.95892718287108  14.9685759865983 19.652363306740973  C 15.048026837843276 19.329664518233812  15.10367255241239 18.845613961233347  15.135452514058837 18.200216264004354  C 15.262574254902338 18.280891006211647  15.421457014815163 18.369625420707628  15.61213867895156 18.466435015184643  C 15.802821290216812 18.547109757391937  15.993491588806934 18.61972037936777  16.18417420007219 18.68426014909067  C 16.374855864208584 18.748799918813567  16.54966364871232 18.797201891007347  16.708565351202267 18.829471775868797  C 16.645005427909375 19.684623634536212  16.525843357974757 20.33808887811474  16.351050727532726 20.7898672060677  C 16.176259044219552 21.25778044639772  15.906085802297357 21.57241643703479  15.540611507718928 21.73376586134204  C 15.175137213140502 21.91125025813368  14.666640778477927 22  14.015143040566047 22  C 13.903911280545767 22  13.689444369439492 22  13.371640964459592 22  C 13.053837559479692 22  12.68835947638584 22  12.275214292208883 22  C 11.877960035984007 22  11.46476844249309 22  11.03573327749291 22  C 10.622588093315956 22  10.25717062646891 22  9.939367221489011 22  C 9.637453323767906 22  9.430858000586877 22  9.319626714131026 22  C 8.49333729290597 22  7.849754237282298 21.935458907915738  7.388938637071243 21.80637936846994  C 6.928123510424617 21.67729982902414  6.610358464163399 21.443344110469152  6.435566307285798 21.104510349477597  C 6.260774150408196 20.781811530916766  6.173340423597354 20.32195420616702  6.173340423597354 19.724961426391204  Z M 10.582869297595463 17.42573373788411  C 9.883701143649484 16.941685525069698  9.184533463267933 16.538315059829312  8.485365309321953 16.215616331429484  C 8.485365309321953 16.215616331429484  9.629496967810017 15.199119556504915  9.629496967810017 15.199119556504915  C 10.328665121755998 15.4895485803653  11.02783280213755 15.860656073087721  11.727000956083529 16.312434340933347  C 12.44205956441716 16.764212608778976  12.998208893229991 17.207915456214234  13.395463149454866 17.643558871790137  C 13.395463149454866 17.643558871790137  12.227509305971527 18.781078158594536  12.227509305971527 18.781078158594536  C 11.84614408344102 18.345434743018632  11.297927432364668 17.89364697821413  10.582869297595463 17.42573373788411  Z M 18.019512920904063 18.68426014909067  C 17.495136923835684 18.184076963791867  16.954851056238102 17.732304586465037  16.398695097523273 17.328931115857916  C 16.398695097523273 17.328931115857916  17.80499202345298 16.457645967711475  17.80499202345298 16.457645967711475  C 18.345258948473433 16.844884586048874  18.885483252695355 17.288587313269463  19.42574923058696 17.788770498568265  C 19.98190613643064 18.272818711382676  20.482470366921163 18.76493891848938  20.927395512744564 19.26512204368085  C 21.388210639391193 19.765305228979656  21.745756518312994 20.241286256088546  22 20.693064584041508  C 22 20.693064584041508  20.474531532847116 21.636963239315847  20.474531532847116 21.636963239315847  C 20.236178031983336 21.201319853793606  19.902488434695638 20.725338796631053  19.473454216824315 20.20902069895519  C 19.044419051824136 19.69270260127933  18.559779845924524 19.184443334389474  18.019512920904063 18.68426014909067  Z M 1.978332447050331 18.902085282996698  C 2.5185986617241465 18.176013023882415  2.93179001843285 17.425743835916332  3.2178134617663026 16.651266599241538  C 3.2178134617663026 16.651266599241538  4.743221312672377 17.23211310635405  4.743221312672377 17.23211310635405  C 4.425417670910263 18.071129992537074  3.99642275888648 18.894025250064  3.456156544212664 19.700772311492905  C 2.931780310362072 20.50751931281448  2.2564087689322445 21.17710828880582  1.4301191109249762 21.709561358966074  C 1.4301191109249762 21.709561358966074  0 20.66886008166554  0 20.66886008166554  C 0.7786191827776155 20.217081753712577  1.4380661139854078 19.628157602218316  1.978332447050331 18.902085282996698  Z M 2.5265457831756852 10.140809409302708  L 2.5265457831756852 9  L 19.09205679191269 9  L 19.09205679191269 15.51374731243714  L 2.38355205695723 15.51374731243714  L 2.38355205695723 14  L 17.35212804355553 14  L 17.35212804355553 10.140809409302708  L 2.5265457831756852 10.140809409302708  Z M 3.289280016752126 12.754680241219695  L 3.289280016752126 11.544547447287398  L 17.94798574967143 11.544547447287398  L 17.94798574967143 12.754680241219695  L 3.289280016752126 12.754680241219695  Z M 0.9534329460322533 2.4686438176611873  L 0.9534329460322533 1.2585264112065602  L 10.130005317698016 1.2585264112065602  L 10.130005317698016 2.4686438176611873  L 0.9534329460322533 2.4686438176611873  Z M 1.4540019121670584 4.840485013296179  L 1.4540019121670584 3.654572109217519  L 9.796312879023748 3.654572109217519  L 9.796312879023748 4.840485013296179  L 1.4540019121670584 4.840485013296179  Z M 4.76710411391446 8.519246237411993  L 4.76710411391446 0  L 6.435566307285798 0  L 6.435566307285798 8.519246237411993  L 4.76710411391446 8.519246237411993  Z M 11.107260448725544 2.4686438176611873  L 11.107260448725544 1.2585264112065602  L 20.903573327749292 1.2585264112065602  L 20.903573327749292 2.4686438176611873  L 11.107260448725544 2.4686438176611873  Z M 10.845095181283908 7.260719826205435  L 10.845095181283908 6  L 21.332615122651465 6  L 21.332615122651465 7.260719826205435  L 10.845095181283908 7.260719826205435  Z M 11.631651599855623 4.840485013296179  L 11.631651599855623 3.654572109217519  L 20.522175902837667 3.654572109217519  L 20.522175902837667 4.840485013296179  L 11.631651599855623 4.840485013296179  Z M 15.04010315783093 8.519246237411993  L 15.04010315783093 0  L 16.732387536197542 0  L 16.732387536197542 8.519246237411993  L 15.04010315783093 8.519246237411993  Z M 0.7389120485811665 7.696370094017489  C 0.7389120485811665 7.696370094017489  0.6435626923532605 6.365230175683029  0.6435626923532605 6.365230175683029  C 1.4539622511461983 6.316825017800514  2.3755894262706683 6.268422745070062  3.408451557975307 6.220018548904901  C 4.457203788894277 6.155478658967333  5.569562589202318 6.082868036991497  6.74543656096479 6.002193414998874  C 7.921310295945049 5.921518793006252  9.10511812935507 5.840854749904527  10.296881845158552 5.760179166194551  C 10.296881845158552 5.760179166194551  10.296881845158552 6.970296572649178  10.296881845158552 6.970296572649178  C 8.548961697075816 7.099376352524316  6.832800673804689 7.228458055834162  5.148440922579276 7.357537835709301  C 3.4640809345716495 7.4866176155844375  1.9942367531975072 7.599560739969813  0.7389120485811665 7.696370094017489  Z " fill-rule="nonzero" fill="rgba(0, 0, 0, 1)" stroke="none" transform="matrix(1 0 0 1 897 612 )" class="fill" />
    <path d="M 6.173340423597354 19.724961426391204  C 6.173340423597354 19.724961426391204  6.173340423597354 16.55444858973767  6.173340423597354 16.55444858973767  L 7.937151973196598 16.55444858973767  C 7.937151973196598 16.55444858973767  7.937151973196598 19.700772311492905  7.937151973196598 19.700772311492905  C 7.937151973196598 19.99120121513862  8.02458570000744 20.184809179047903  8.199377856885041 20.281618818605416  C 8.390059994585867 20.36229351573221  8.8111227024376 20.402641330485253  9.46262044034948 20.402641330485253  C 9.605632162016207 20.402641330485253  9.867812583519544 20.402641330485253  10.249176858921196 20.402641330485253  C 10.6464315887105 20.402641330485253  11.083418374024284 20.402641330485253  11.560124428622991 20.402641330485253  C 12.052719516916067 20.402641330485253  12.505631800385189 20.402641330485253  12.918776984562145 20.402641330485253  C 13.347812149562325 20.402641330485253  13.657645465215918 20.402641330485253  13.848327129352315 20.402641330485253  C 14.182021462284297 20.402641330485253  14.428337475443533 20.354223955786967  14.587239177933482 20.257414316229454  C 14.762031808375513 20.16060466915852  14.889125135353325 19.95892718287108  14.9685759865983 19.652363306740973  C 15.048026837843276 19.329664518233812  15.10367255241239 18.845613961233347  15.135452514058837 18.200216264004354  C 15.262574254902338 18.280891006211647  15.421457014815163 18.369625420707628  15.61213867895156 18.466435015184643  C 15.802821290216812 18.547109757391937  15.993491588806934 18.61972037936777  16.18417420007219 18.68426014909067  C 16.374855864208584 18.748799918813567  16.54966364871232 18.797201891007347  16.708565351202267 18.829471775868797  C 16.645005427909375 19.684623634536212  16.525843357974757 20.33808887811474  16.351050727532726 20.7898672060677  C 16.176259044219552 21.25778044639772  15.906085802297357 21.57241643703479  15.540611507718928 21.73376586134204  C 15.175137213140502 21.91125025813368  14.666640778477927 22  14.015143040566047 22  C 13.903911280545767 22  13.689444369439492 22  13.371640964459592 22  C 13.053837559479692 22  12.68835947638584 22  12.275214292208883 22  C 11.877960035984007 22  11.46476844249309 22  11.03573327749291 22  C 10.622588093315956 22  10.25717062646891 22  9.939367221489011 22  C 9.637453323767906 22  9.430858000586877 22  9.319626714131026 22  C 8.49333729290597 22  7.849754237282298 21.935458907915738  7.388938637071243 21.80637936846994  C 6.928123510424617 21.67729982902414  6.610358464163399 21.443344110469152  6.435566307285798 21.104510349477597  C 6.260774150408196 20.781811530916766  6.173340423597354 20.32195420616702  6.173340423597354 19.724961426391204  Z " stroke-width="0" stroke-dasharray="0" stroke="rgba(121, 121, 121, 1)" fill="none" transform="matrix(1 0 0 1 897 612 )" class="stroke" mask="url(#Clip4502)" />
    <path d="M 10.582869297595463 17.42573373788411  C 9.883701143649484 16.941685525069698  9.184533463267933 16.538315059829312  8.485365309321953 16.215616331429484  C 8.485365309321953 16.215616331429484  9.629496967810017 15.199119556504915  9.629496967810017 15.199119556504915  C 10.328665121755998 15.4895485803653  11.02783280213755 15.860656073087721  11.727000956083529 16.312434340933347  C 12.44205956441716 16.764212608778976  12.998208893229991 17.207915456214234  13.395463149454866 17.643558871790137  C 13.395463149454866 17.643558871790137  12.227509305971527 18.781078158594536  12.227509305971527 18.781078158594536  C 11.84614408344102 18.345434743018632  11.297927432364668 17.89364697821413  10.582869297595463 17.42573373788411  Z " stroke-width="0" stroke-dasharray="0" stroke="rgba(121, 121, 121, 1)" fill="none" transform="matrix(1 0 0 1 897 612 )" class="stroke" mask="url(#Clip4502)" />
    <path d="M 18.019512920904063 18.68426014909067  C 17.495136923835684 18.184076963791867  16.954851056238102 17.732304586465037  16.398695097523273 17.328931115857916  C 16.398695097523273 17.328931115857916  17.80499202345298 16.457645967711475  17.80499202345298 16.457645967711475  C 18.345258948473433 16.844884586048874  18.885483252695355 17.288587313269463  19.42574923058696 17.788770498568265  C 19.98190613643064 18.272818711382676  20.482470366921163 18.76493891848938  20.927395512744564 19.26512204368085  C 21.388210639391193 19.765305228979656  21.745756518312994 20.241286256088546  22 20.693064584041508  C 22 20.693064584041508  20.474531532847116 21.636963239315847  20.474531532847116 21.636963239315847  C 20.236178031983336 21.201319853793606  19.902488434695638 20.725338796631053  19.473454216824315 20.20902069895519  C 19.044419051824136 19.69270260127933  18.559779845924524 19.184443334389474  18.019512920904063 18.68426014909067  Z " stroke-width="0" stroke-dasharray="0" stroke="rgba(121, 121, 121, 1)" fill="none" transform="matrix(1 0 0 1 897 612 )" class="stroke" mask="url(#Clip4502)" />
    <path d="M 1.978332447050331 18.902085282996698  C 2.5185986617241465 18.176013023882415  2.93179001843285 17.425743835916332  3.2178134617663026 16.651266599241538  C 3.2178134617663026 16.651266599241538  4.743221312672377 17.23211310635405  4.743221312672377 17.23211310635405  C 4.425417670910263 18.071129992537074  3.99642275888648 18.894025250064  3.456156544212664 19.700772311492905  C 2.931780310362072 20.50751931281448  2.2564087689322445 21.17710828880582  1.4301191109249762 21.709561358966074  C 1.4301191109249762 21.709561358966074  0 20.66886008166554  0 20.66886008166554  C 0.7786191827776155 20.217081753712577  1.4380661139854078 19.628157602218316  1.978332447050331 18.902085282996698  Z " stroke-width="0" stroke-dasharray="0" stroke="rgba(121, 121, 121, 1)" fill="none" transform="matrix(1 0 0 1 897 612 )" class="stroke" mask="url(#Clip4502)" />
    <path d="M 2.5265457831756852 10.140809409302708  L 2.5265457831756852 9  L 19.09205679191269 9  L 19.09205679191269 15.51374731243714  L 2.38355205695723 15.51374731243714  L 2.38355205695723 14  L 17.35212804355553 14  L 17.35212804355553 10.140809409302708  L 2.5265457831756852 10.140809409302708  Z " stroke-width="0" stroke-dasharray="0" stroke="rgba(121, 121, 121, 1)" fill="none" transform="matrix(1 0 0 1 897 612 )" class="stroke" mask="url(#Clip4502)" />
    <path d="M 3.289280016752126 12.754680241219695  L 3.289280016752126 11.544547447287398  L 17.94798574967143 11.544547447287398  L 17.94798574967143 12.754680241219695  L 3.289280016752126 12.754680241219695  Z " stroke-width="0" stroke-dasharray="0" stroke="rgba(121, 121, 121, 1)" fill="none" transform="matrix(1 0 0 1 897 612 )" class="stroke" mask="url(#Clip4502)" />
    <path d="M 0.9534329460322533 2.4686438176611873  L 0.9534329460322533 1.2585264112065602  L 10.130005317698016 1.2585264112065602  L 10.130005317698016 2.4686438176611873  L 0.9534329460322533 2.4686438176611873  Z " stroke-width="0" stroke-dasharray="0" stroke="rgba(121, 121, 121, 1)" fill="none" transform="matrix(1 0 0 1 897 612 )" class="stroke" mask="url(#Clip4502)" />
    <path d="M 1.4540019121670584 4.840485013296179  L 1.4540019121670584 3.654572109217519  L 9.796312879023748 3.654572109217519  L 9.796312879023748 4.840485013296179  L 1.4540019121670584 4.840485013296179  Z " stroke-width="0" stroke-dasharray="0" stroke="rgba(121, 121, 121, 1)" fill="none" transform="matrix(1 0 0 1 897 612 )" class="stroke" mask="url(#Clip4502)" />
    <path d="M 4.76710411391446 8.519246237411993  L 4.76710411391446 0  L 6.435566307285798 0  L 6.435566307285798 8.519246237411993  L 4.76710411391446 8.519246237411993  Z " stroke-width="0" stroke-dasharray="0" stroke="rgba(121, 121, 121, 1)" fill="none" transform="matrix(1 0 0 1 897 612 )" class="stroke" mask="url(#Clip4502)" />
    <path d="M 11.107260448725544 2.4686438176611873  L 11.107260448725544 1.2585264112065602  L 20.903573327749292 1.2585264112065602  L 20.903573327749292 2.4686438176611873  L 11.107260448725544 2.4686438176611873  Z " stroke-width="0" stroke-dasharray="0" stroke="rgba(121, 121, 121, 1)" fill="none" transform="matrix(1 0 0 1 897 612 )" class="stroke" mask="url(#Clip4502)" />
    <path d="M 10.845095181283908 7.260719826205435  L 10.845095181283908 6  L 21.332615122651465 6  L 21.332615122651465 7.260719826205435  L 10.845095181283908 7.260719826205435  Z " stroke-width="0" stroke-dasharray="0" stroke="rgba(121, 121, 121, 1)" fill="none" transform="matrix(1 0 0 1 897 612 )" class="stroke" mask="url(#Clip4502)" />
    <path d="M 11.631651599855623 4.840485013296179  L 11.631651599855623 3.654572109217519  L 20.522175902837667 3.654572109217519  L 20.522175902837667 4.840485013296179  L 11.631651599855623 4.840485013296179  Z " stroke-width="0" stroke-dasharray="0" stroke="rgba(121, 121, 121, 1)" fill="none" transform="matrix(1 0 0 1 897 612 )" class="stroke" mask="url(#Clip4502)" />
    <path d="M 15.04010315783093 8.519246237411993  L 15.04010315783093 0  L 16.732387536197542 0  L 16.732387536197542 8.519246237411993  L 15.04010315783093 8.519246237411993  Z " stroke-width="0" stroke-dasharray="0" stroke="rgba(121, 121, 121, 1)" fill="none" transform="matrix(1 0 0 1 897 612 )" class="stroke" mask="url(#Clip4502)" />
    <path d="M 0.7389120485811665 7.696370094017489  C 0.7389120485811665 7.696370094017489  0.6435626923532605 6.365230175683029  0.6435626923532605 6.365230175683029  C 1.4539622511461983 6.316825017800514  2.3755894262706683 6.268422745070062  3.408451557975307 6.220018548904901  C 4.457203788894277 6.155478658967333  5.569562589202318 6.082868036991497  6.74543656096479 6.002193414998874  C 7.921310295945049 5.921518793006252  9.10511812935507 5.840854749904527  10.296881845158552 5.760179166194551  C 10.296881845158552 5.760179166194551  10.296881845158552 6.970296572649178  10.296881845158552 6.970296572649178  C 8.548961697075816 7.099376352524316  6.832800673804689 7.228458055834162  5.148440922579276 7.357537835709301  C 3.4640809345716495 7.4866176155844375  1.9942367531975072 7.599560739969813  0.7389120485811665 7.696370094017489  Z " stroke-width="0" stroke-dasharray="0" stroke="rgba(121, 121, 121, 1)" fill="none" transform="matrix(1 0 0 1 897 612 )" class="stroke" mask="url(#Clip4502)" />
  </g>
</svg>