<?xml version="1.0" encoding="utf-8"?>
<svg version="1.1" xmlns:xlink="http://www.w3.org/1999/xlink" width="30px" height="23px" xmlns="http://www.w3.org/2000/svg">
  <defs>
    <pattern id="BGPattern" patternUnits="userSpaceOnUse" alignment="0 0" imageRepeat="None" />
    <mask fill="white" id="Clip4426">
      <path d="M 22 0  L 22 8.193833518711656  L 13 15  L 13 0  L 22 0  Z M 8.583824755552186 0  L 8.583824755552186 8.193833518711656  L 0 15  L 0 0  L 8.583824755552186 0  Z " fill-rule="evenodd" />
    </mask>
  </defs>
  <g transform="matrix(1 0 0 1 -396 -312 )">
    <path d="M 22 0  L 22 8.193833518711656  L 13 15  L 13 0  L 22 0  Z M 8.583824755552186 0  L 8.583824755552186 8.193833518711656  L 0 15  L 0 0  L 8.583824755552186 0  Z " fill-rule="nonzero" fill="rgba(63, 66, 124, 1)" stroke="none" transform="matrix(1 0 0 1 400 312 )" class="fill" />
    <path d="M 22 0  L 22 8.193833518711656  L 13 15  L 13 0  L 22 0  Z " stroke-width="0" stroke-dasharray="0" stroke="rgba(121, 121, 121, 1)" fill="none" transform="matrix(1 0 0 1 400 312 )" class="stroke" mask="url(#Clip4426)" />
    <path d="M 8.583824755552186 0  L 8.583824755552186 8.193833518711656  L 0 15  L 0 0  L 8.583824755552186 0  Z " stroke-width="0" stroke-dasharray="0" stroke="rgba(121, 121, 121, 1)" fill="none" transform="matrix(1 0 0 1 400 312 )" class="stroke" mask="url(#Clip4426)" />
  </g>
  <style>svg { filter: drop-shadow(0px 4px 2px rgba(0, 0, 0, 0.12941176470588237)); }</style>
</svg>