<?xml version="1.0" encoding="utf-8"?>
<svg version="1.1" xmlns:xlink="http://www.w3.org/1999/xlink" width="3px" height="22px" xmlns="http://www.w3.org/2000/svg">
  <defs>
    <pattern id="BGPattern" patternUnits="userSpaceOnUse" alignment="0 0" imageRepeat="None" />
    <mask fill="white" id="Clip4589">
      <path d="M 3 4.620000252547061  C 3 4.620000252547061  3 17.379999261785514  3 17.379999261785514  C 3 18.2355548213883  2.958059254401565 19.091110320282652  2.580437488884937 19.897776897100847  C 2.2028160359794597 20.704443473919042  1.741254529388227 21.217777853865677  1.069927085185844 22  C 1.069927085185844 22  0 20.75333251741206  0 20.75333251741206  C 0.48251645724035214 20.191110368849397  0.8811234445858527 19.799999902866514  1.1538502578694647 19.164444340835395  C 1.3636400060299216 18.675555484324335  1.4475546861106172 18.0155556130262  1.4475546861106172 17.2333335276003  C 1.4475546861106172 17.2333335276003  1.4475546861106172 4.7666679294019705  1.4475546861106172 4.7666679294019705  C 1.4475546861106172 3.984445661850789  1.3636400060299216 3.3244450013430913  1.1538502578694647 2.835555173497182  C 0.8811234445858527 2.2000005828009095  0.48251645724035214 1.8088887205241817  0 1.2466665112530908  C 0 1.2466665112530908  1.069927085185844 0  1.069927085185844 0  C 1.741254529388227 0.7822222675511818  2.2028160359794597 1.2955562225388184  2.580437488884937 2.1022226172317273  C 2.958059254401565 2.9088890119246367  3 3.7644456035706972  3 4.620000252547061  Z " fill-rule="evenodd" />
    </mask>
  </defs>
  <g transform="matrix(1 0 0 1 -728 -489 )">
    <path d="M 3 4.620000252547061  C 3 4.620000252547061  3 17.379999261785514  3 17.379999261785514  C 3 18.2355548213883  2.958059254401565 19.091110320282652  2.580437488884937 19.897776897100847  C 2.2028160359794597 20.704443473919042  1.741254529388227 21.217777853865677  1.069927085185844 22  C 1.069927085185844 22  0 20.75333251741206  0 20.75333251741206  C 0.48251645724035214 20.191110368849397  0.8811234445858527 19.799999902866514  1.1538502578694647 19.164444340835395  C 1.3636400060299216 18.675555484324335  1.4475546861106172 18.0155556130262  1.4475546861106172 17.2333335276003  C 1.4475546861106172 17.2333335276003  1.4475546861106172 4.7666679294019705  1.4475546861106172 4.7666679294019705  C 1.4475546861106172 3.984445661850789  1.3636400060299216 3.3244450013430913  1.1538502578694647 2.835555173497182  C 0.8811234445858527 2.2000005828009095  0.48251645724035214 1.8088887205241817  0 1.2466665112530908  C 0 1.2466665112530908  1.069927085185844 0  1.069927085185844 0  C 1.741254529388227 0.7822222675511818  2.2028160359794597 1.2955562225388184  2.580437488884937 2.1022226172317273  C 2.958059254401565 2.9088890119246367  3 3.7644456035706972  3 4.620000252547061  Z " fill-rule="nonzero" fill="rgba(0, 0, 0, 1)" stroke="none" transform="matrix(1 0 0 1 728 489 )" class="fill" />
    <path d="M 3 4.620000252547061  C 3 4.620000252547061  3 17.379999261785514  3 17.379999261785514  C 3 18.2355548213883  2.958059254401565 19.091110320282652  2.580437488884937 19.897776897100847  C 2.2028160359794597 20.704443473919042  1.741254529388227 21.217777853865677  1.069927085185844 22  C 1.069927085185844 22  0 20.75333251741206  0 20.75333251741206  C 0.48251645724035214 20.191110368849397  0.8811234445858527 19.799999902866514  1.1538502578694647 19.164444340835395  C 1.3636400060299216 18.675555484324335  1.4475546861106172 18.0155556130262  1.4475546861106172 17.2333335276003  C 1.4475546861106172 17.2333335276003  1.4475546861106172 4.7666679294019705  1.4475546861106172 4.7666679294019705  C 1.4475546861106172 3.984445661850789  1.3636400060299216 3.3244450013430913  1.1538502578694647 2.835555173497182  C 0.8811234445858527 2.2000005828009095  0.48251645724035214 1.8088887205241817  0 1.2466665112530908  C 0 1.2466665112530908  1.069927085185844 0  1.069927085185844 0  C 1.741254529388227 0.7822222675511818  2.2028160359794597 1.2955562225388184  2.580437488884937 2.1022226172317273  C 2.958059254401565 2.9088890119246367  3 3.7644456035706972  3 4.620000252547061  Z " stroke-width="0" stroke-dasharray="0" stroke="rgba(121, 121, 121, 1)" fill="none" transform="matrix(1 0 0 1 728 489 )" class="stroke" mask="url(#Clip4589)" />
  </g>
</svg>