<?xml version="1.0" encoding="utf-8"?>
<svg version="1.1" xmlns:xlink="http://www.w3.org/1999/xlink" width="23px" height="22px" xmlns="http://www.w3.org/2000/svg">
  <defs>
    <pattern id="BGPattern" patternUnits="userSpaceOnUse" alignment="0 0" imageRepeat="None" />
    <mask fill="white" id="Clip4529">
      <path d="M 11.305497388400692 18.272427719292317  C 11.305497388400692 18.272427719292317  11.305497388400692 0.21927260233078177  11.305497388400692 0.21927260233078177  L 13.15327509691741 0.21927260233078177  C 13.15327509691741 0.21927260233078177  13.15327509691741 18.32115840641669  13.15327509691741 18.32115840641669  C 13.15327509691741 18.775938904196728  13.193799453166204 19.12514286194568  13.27484236901721 19.368775241217325  C 13.355885284868215 19.596165459853967  13.509864506326494 19.75858269459104  13.736784863930863 19.85603564327436  C 13.979913611483878 19.93724643888602  14.328400275080284 19.977862361085297  14.782240990289022 19.977862361085297  C 14.944327788098796 19.977862361085297  15.236080739389996 19.977862361085297  15.657503708593673 19.977862361085297  C 16.09513603385376 19.977862361085297  16.573289817039353 19.977862361085297  17.091965058150446 19.977862361085297  C 17.62684868921019 19.977862361085297  18.121215692883247 19.977862361085297  18.575056408091985 19.977862361085297  C 19.028897123300723 19.977862361085297  19.35306782059698 19.977862361085297  19.547571398304054 19.977862361085297  C 20.00141211351279 19.977862361085297  20.33368942105278 19.856045566381937  20.5444013887085 19.612413187110292  C 20.77132174631287 19.352538647203644  20.93340371358383 18.897748740623435  21.030655019383484 18.24806237573013  C 21.144115681239548 17.59837607134358  21.225156664875026 16.688827177134204  21.27378183472097 15.519391732427607  C 21.500702192325342 15.681813399284374  21.776249651991183 15.844230709654887  22.10042228150297 16.006652134484643  C 22.44080233485564 16.152831610453035  22.740661896390574 16.25027870510795  23 16.299005277773084  C 22.918957084148996 17.63086226832294  22.773080608503395 18.694720688944418  22.562368640847673 19.49058646929936  C 22.367865063140602 20.27021005876592  22.043694365844345 20.830570424448496  21.589853650635607 21.171655767530147  C 21.152221325375518 21.512741110611802  20.503878964675234 21.68328151314937  19.64482367021147 21.68328151314937  C 19.515154618406754 21.68328151314937  19.2801237861276 21.68328151314937  18.939742766667166 21.68328151314937  C 18.615571103263143 21.68328151314937  18.226571676711107 21.68328151314937  17.77273096150237 21.68328151314937  C 17.335098636242282 21.68328151314937  16.897461480443376 21.68328151314937  16.459829155183286 21.68328151314937  C 16.0221968299232 21.68328151314937  15.633193538940109 21.68328151314937  15.292813485587438 21.68328151314937  C 14.968641822183415 21.68328151314937  14.74982324428396 21.68328151314937  14.636362582427893 21.68328151314937  C 13.793515677912776 21.68328151314937  13.128964927263846 21.585834297480947  12.642706466050049 21.39092836986093  C 12.156448970944016 21.196022442240913  11.80796230734761 20.846818423985212  11.59725033969189 20.343311535060295  C 11.4027472450387 19.856046776517008  11.305497388400692 19.16574640295051  11.305497388400692 18.272427719292317  Z M 17.991542776647478 6.261351154970512  C 18.94785034301866 5.5629386409593495  19.766388043987977 4.8970080884548  20.447149116801082 4.263563369889093  C 20.447149116801082 4.263563369889093  21.76004319425806 5.822821440037852  21.76004319425806 5.822821440037852  C 20.94961306964024 6.504992005187651  20.03382985951785 7.17903046266412  19.01268776724431 7.844959078952557  C 17.99154567497077 8.4946452623256  16.921779378959048 9.128098693863814  15.803385980885851 9.74530097951413  C 14.70120193886907 10.362502781110416  13.61522242236988 10.947217296605778  12.54545419414263 11.49945081870258  C 12.480620634348037 11.288302579180678  12.3671619047075 11.052792384474785  12.205075106897723 10.792917814314762  C 12.059197665144362 10.516801295293375  11.921422969203677 10.27316770588666  11.791754883506725 10.062019466364758  C 12.829105365728914 9.509786428321982  13.882663271791989 8.908825607479004  14.952430533911475 8.259138940051933  C 16.02219779603096 7.609452756678889  17.035235210276294 6.943521720120313  17.991542776647478 6.261351154970512  Z M 5.178646766974976 3.776302967832058  C 5.924242124163498 2.5418983965314275  6.564481497524159 1.2831304178847227  7.099365611637784 0  C 7.099365611637784 0  8.874206048439467 0.6090871198679711  8.874206048439467 0.6090871198679711  C 8.258279501528719 2.022154096751663  7.536998903005636 3.4108625068295626  6.710360388439168 4.775204605237218  C 5.883721632345758 6.139545735536817  4.992245693553642 7.422668408557089  4.0359383687094 8.624588114026935  C 3.095839675340746 9.810265386581388  2.1152202486274128 10.857877380841739  1.0940783978808133 11.767438618428834  C 1.0454526242175157 11.605016709545053  0.948202827961242 11.410122520235218  0.8023254465896144 11.182732331851952  C 0.672656696693576 10.955342143468686  0.5348826649519793 10.727954859409587  0.38900522319861647 10.500564671026321  C 0.24312784182698877 10.25693253378169  0.1134601788021843 10.062022370688926  0 9.915842894720537  C 0.9400987537503883 9.136219184240469  1.8477800030226572 8.226655042329204  2.7230442912524233 7.187156761689113  C 3.61451733172125 6.131416532187657  4.433051168259512 4.994464622163267  5.178646766974976 3.776302967832058  Z M 4.303380184239271 22  L 4.303380184239271 6.383177872781449  L 6.102535621233335 4.580297346468623  L 6.126850621425716 4.629012543864096  L 6.126850621425716 22  L 4.303380184239271 22  Z " fill-rule="evenodd" />
    </mask>
  </defs>
  <g transform="matrix(1 0 0 1 -190 -612 )">
    <path d="M 11.305497388400692 18.272427719292317  C 11.305497388400692 18.272427719292317  11.305497388400692 0.21927260233078177  11.305497388400692 0.21927260233078177  L 13.15327509691741 0.21927260233078177  C 13.15327509691741 0.21927260233078177  13.15327509691741 18.32115840641669  13.15327509691741 18.32115840641669  C 13.15327509691741 18.775938904196728  13.193799453166204 19.12514286194568  13.27484236901721 19.368775241217325  C 13.355885284868215 19.596165459853967  13.509864506326494 19.75858269459104  13.736784863930863 19.85603564327436  C 13.979913611483878 19.93724643888602  14.328400275080284 19.977862361085297  14.782240990289022 19.977862361085297  C 14.944327788098796 19.977862361085297  15.236080739389996 19.977862361085297  15.657503708593673 19.977862361085297  C 16.09513603385376 19.977862361085297  16.573289817039353 19.977862361085297  17.091965058150446 19.977862361085297  C 17.62684868921019 19.977862361085297  18.121215692883247 19.977862361085297  18.575056408091985 19.977862361085297  C 19.028897123300723 19.977862361085297  19.35306782059698 19.977862361085297  19.547571398304054 19.977862361085297  C 20.00141211351279 19.977862361085297  20.33368942105278 19.856045566381937  20.5444013887085 19.612413187110292  C 20.77132174631287 19.352538647203644  20.93340371358383 18.897748740623435  21.030655019383484 18.24806237573013  C 21.144115681239548 17.59837607134358  21.225156664875026 16.688827177134204  21.27378183472097 15.519391732427607  C 21.500702192325342 15.681813399284374  21.776249651991183 15.844230709654887  22.10042228150297 16.006652134484643  C 22.44080233485564 16.152831610453035  22.740661896390574 16.25027870510795  23 16.299005277773084  C 22.918957084148996 17.63086226832294  22.773080608503395 18.694720688944418  22.562368640847673 19.49058646929936  C 22.367865063140602 20.27021005876592  22.043694365844345 20.830570424448496  21.589853650635607 21.171655767530147  C 21.152221325375518 21.512741110611802  20.503878964675234 21.68328151314937  19.64482367021147 21.68328151314937  C 19.515154618406754 21.68328151314937  19.2801237861276 21.68328151314937  18.939742766667166 21.68328151314937  C 18.615571103263143 21.68328151314937  18.226571676711107 21.68328151314937  17.77273096150237 21.68328151314937  C 17.335098636242282 21.68328151314937  16.897461480443376 21.68328151314937  16.459829155183286 21.68328151314937  C 16.0221968299232 21.68328151314937  15.633193538940109 21.68328151314937  15.292813485587438 21.68328151314937  C 14.968641822183415 21.68328151314937  14.74982324428396 21.68328151314937  14.636362582427893 21.68328151314937  C 13.793515677912776 21.68328151314937  13.128964927263846 21.585834297480947  12.642706466050049 21.39092836986093  C 12.156448970944016 21.196022442240913  11.80796230734761 20.846818423985212  11.59725033969189 20.343311535060295  C 11.4027472450387 19.856046776517008  11.305497388400692 19.16574640295051  11.305497388400692 18.272427719292317  Z M 17.991542776647478 6.261351154970512  C 18.94785034301866 5.5629386409593495  19.766388043987977 4.8970080884548  20.447149116801082 4.263563369889093  C 20.447149116801082 4.263563369889093  21.76004319425806 5.822821440037852  21.76004319425806 5.822821440037852  C 20.94961306964024 6.504992005187651  20.03382985951785 7.17903046266412  19.01268776724431 7.844959078952557  C 17.99154567497077 8.4946452623256  16.921779378959048 9.128098693863814  15.803385980885851 9.74530097951413  C 14.70120193886907 10.362502781110416  13.61522242236988 10.947217296605778  12.54545419414263 11.49945081870258  C 12.480620634348037 11.288302579180678  12.3671619047075 11.052792384474785  12.205075106897723 10.792917814314762  C 12.059197665144362 10.516801295293375  11.921422969203677 10.27316770588666  11.791754883506725 10.062019466364758  C 12.829105365728914 9.509786428321982  13.882663271791989 8.908825607479004  14.952430533911475 8.259138940051933  C 16.02219779603096 7.609452756678889  17.035235210276294 6.943521720120313  17.991542776647478 6.261351154970512  Z M 5.178646766974976 3.776302967832058  C 5.924242124163498 2.5418983965314275  6.564481497524159 1.2831304178847227  7.099365611637784 0  C 7.099365611637784 0  8.874206048439467 0.6090871198679711  8.874206048439467 0.6090871198679711  C 8.258279501528719 2.022154096751663  7.536998903005636 3.4108625068295626  6.710360388439168 4.775204605237218  C 5.883721632345758 6.139545735536817  4.992245693553642 7.422668408557089  4.0359383687094 8.624588114026935  C 3.095839675340746 9.810265386581388  2.1152202486274128 10.857877380841739  1.0940783978808133 11.767438618428834  C 1.0454526242175157 11.605016709545053  0.948202827961242 11.410122520235218  0.8023254465896144 11.182732331851952  C 0.672656696693576 10.955342143468686  0.5348826649519793 10.727954859409587  0.38900522319861647 10.500564671026321  C 0.24312784182698877 10.25693253378169  0.1134601788021843 10.062022370688926  0 9.915842894720537  C 0.9400987537503883 9.136219184240469  1.8477800030226572 8.226655042329204  2.7230442912524233 7.187156761689113  C 3.61451733172125 6.131416532187657  4.433051168259512 4.994464622163267  5.178646766974976 3.776302967832058  Z M 4.303380184239271 22  L 4.303380184239271 6.383177872781449  L 6.102535621233335 4.580297346468623  L 6.126850621425716 4.629012543864096  L 6.126850621425716 22  L 4.303380184239271 22  Z " fill-rule="nonzero" fill="rgba(0, 0, 0, 1)" stroke="none" transform="matrix(1 0 0 1 190 612 )" class="fill" />
    <path d="M 11.305497388400692 18.272427719292317  C 11.305497388400692 18.272427719292317  11.305497388400692 0.21927260233078177  11.305497388400692 0.21927260233078177  L 13.15327509691741 0.21927260233078177  C 13.15327509691741 0.21927260233078177  13.15327509691741 18.32115840641669  13.15327509691741 18.32115840641669  C 13.15327509691741 18.775938904196728  13.193799453166204 19.12514286194568  13.27484236901721 19.368775241217325  C 13.355885284868215 19.596165459853967  13.509864506326494 19.75858269459104  13.736784863930863 19.85603564327436  C 13.979913611483878 19.93724643888602  14.328400275080284 19.977862361085297  14.782240990289022 19.977862361085297  C 14.944327788098796 19.977862361085297  15.236080739389996 19.977862361085297  15.657503708593673 19.977862361085297  C 16.09513603385376 19.977862361085297  16.573289817039353 19.977862361085297  17.091965058150446 19.977862361085297  C 17.62684868921019 19.977862361085297  18.121215692883247 19.977862361085297  18.575056408091985 19.977862361085297  C 19.028897123300723 19.977862361085297  19.35306782059698 19.977862361085297  19.547571398304054 19.977862361085297  C 20.00141211351279 19.977862361085297  20.33368942105278 19.856045566381937  20.5444013887085 19.612413187110292  C 20.77132174631287 19.352538647203644  20.93340371358383 18.897748740623435  21.030655019383484 18.24806237573013  C 21.144115681239548 17.59837607134358  21.225156664875026 16.688827177134204  21.27378183472097 15.519391732427607  C 21.500702192325342 15.681813399284374  21.776249651991183 15.844230709654887  22.10042228150297 16.006652134484643  C 22.44080233485564 16.152831610453035  22.740661896390574 16.25027870510795  23 16.299005277773084  C 22.918957084148996 17.63086226832294  22.773080608503395 18.694720688944418  22.562368640847673 19.49058646929936  C 22.367865063140602 20.27021005876592  22.043694365844345 20.830570424448496  21.589853650635607 21.171655767530147  C 21.152221325375518 21.512741110611802  20.503878964675234 21.68328151314937  19.64482367021147 21.68328151314937  C 19.515154618406754 21.68328151314937  19.2801237861276 21.68328151314937  18.939742766667166 21.68328151314937  C 18.615571103263143 21.68328151314937  18.226571676711107 21.68328151314937  17.77273096150237 21.68328151314937  C 17.335098636242282 21.68328151314937  16.897461480443376 21.68328151314937  16.459829155183286 21.68328151314937  C 16.0221968299232 21.68328151314937  15.633193538940109 21.68328151314937  15.292813485587438 21.68328151314937  C 14.968641822183415 21.68328151314937  14.74982324428396 21.68328151314937  14.636362582427893 21.68328151314937  C 13.793515677912776 21.68328151314937  13.128964927263846 21.585834297480947  12.642706466050049 21.39092836986093  C 12.156448970944016 21.196022442240913  11.80796230734761 20.846818423985212  11.59725033969189 20.343311535060295  C 11.4027472450387 19.856046776517008  11.305497388400692 19.16574640295051  11.305497388400692 18.272427719292317  Z " stroke-width="0" stroke-dasharray="0" stroke="rgba(121, 121, 121, 1)" fill="none" transform="matrix(1 0 0 1 190 612 )" class="stroke" mask="url(#Clip4529)" />
    <path d="M 17.991542776647478 6.261351154970512  C 18.94785034301866 5.5629386409593495  19.766388043987977 4.8970080884548  20.447149116801082 4.263563369889093  C 20.447149116801082 4.263563369889093  21.76004319425806 5.822821440037852  21.76004319425806 5.822821440037852  C 20.94961306964024 6.504992005187651  20.03382985951785 7.17903046266412  19.01268776724431 7.844959078952557  C 17.99154567497077 8.4946452623256  16.921779378959048 9.128098693863814  15.803385980885851 9.74530097951413  C 14.70120193886907 10.362502781110416  13.61522242236988 10.947217296605778  12.54545419414263 11.49945081870258  C 12.480620634348037 11.288302579180678  12.3671619047075 11.052792384474785  12.205075106897723 10.792917814314762  C 12.059197665144362 10.516801295293375  11.921422969203677 10.27316770588666  11.791754883506725 10.062019466364758  C 12.829105365728914 9.509786428321982  13.882663271791989 8.908825607479004  14.952430533911475 8.259138940051933  C 16.02219779603096 7.609452756678889  17.035235210276294 6.943521720120313  17.991542776647478 6.261351154970512  Z " stroke-width="0" stroke-dasharray="0" stroke="rgba(121, 121, 121, 1)" fill="none" transform="matrix(1 0 0 1 190 612 )" class="stroke" mask="url(#Clip4529)" />
    <path d="M 5.178646766974976 3.776302967832058  C 5.924242124163498 2.5418983965314275  6.564481497524159 1.2831304178847227  7.099365611637784 0  C 7.099365611637784 0  8.874206048439467 0.6090871198679711  8.874206048439467 0.6090871198679711  C 8.258279501528719 2.022154096751663  7.536998903005636 3.4108625068295626  6.710360388439168 4.775204605237218  C 5.883721632345758 6.139545735536817  4.992245693553642 7.422668408557089  4.0359383687094 8.624588114026935  C 3.095839675340746 9.810265386581388  2.1152202486274128 10.857877380841739  1.0940783978808133 11.767438618428834  C 1.0454526242175157 11.605016709545053  0.948202827961242 11.410122520235218  0.8023254465896144 11.182732331851952  C 0.672656696693576 10.955342143468686  0.5348826649519793 10.727954859409587  0.38900522319861647 10.500564671026321  C 0.24312784182698877 10.25693253378169  0.1134601788021843 10.062022370688926  0 9.915842894720537  C 0.9400987537503883 9.136219184240469  1.8477800030226572 8.226655042329204  2.7230442912524233 7.187156761689113  C 3.61451733172125 6.131416532187657  4.433051168259512 4.994464622163267  5.178646766974976 3.776302967832058  Z " stroke-width="0" stroke-dasharray="0" stroke="rgba(121, 121, 121, 1)" fill="none" transform="matrix(1 0 0 1 190 612 )" class="stroke" mask="url(#Clip4529)" />
    <path d="M 4.303380184239271 22  L 4.303380184239271 6.383177872781449  L 6.102535621233335 4.580297346468623  L 6.126850621425716 4.629012543864096  L 6.126850621425716 22  L 4.303380184239271 22  Z " stroke-width="0" stroke-dasharray="0" stroke="rgba(121, 121, 121, 1)" fill="none" transform="matrix(1 0 0 1 190 612 )" class="stroke" mask="url(#Clip4529)" />
  </g>
</svg>