<?xml version="1.0" encoding="utf-8"?>
<svg version="1.1" xmlns:xlink="http://www.w3.org/1999/xlink" width="11px" height="17px" xmlns="http://www.w3.org/2000/svg">
  <defs>
    <pattern id="BGPattern" patternUnits="userSpaceOnUse" alignment="0 0" imageRepeat="None" />
    <mask fill="white" id="Clip4619">
      <path d="M 11 15.376403694862638  L 11 17  L 0 17  L 0 0  L 11 0  L 11 1.6235944076113564  L 1.8914026276748597 1.6235944076113564  L 1.8914026276748597 7.616572612627656  L 9.656109062657158 7.616572612627656  L 9.656109062657158 9.240167020239012  L 1.8914026276748597 9.240167020239012  L 1.8914026276748597 15.376403694862638  L 11 15.376403694862638  Z " fill-rule="evenodd" />
    </mask>
  </defs>
  <g transform="matrix(1 0 0 1 -143 -491 )">
    <path d="M 11 15.376403694862638  L 11 17  L 0 17  L 0 0  L 11 0  L 11 1.6235944076113564  L 1.8914026276748597 1.6235944076113564  L 1.8914026276748597 7.616572612627656  L 9.656109062657158 7.616572612627656  L 9.656109062657158 9.240167020239012  L 1.8914026276748597 9.240167020239012  L 1.8914026276748597 15.376403694862638  L 11 15.376403694862638  Z " fill-rule="nonzero" fill="rgba(0, 0, 0, 1)" stroke="none" transform="matrix(1 0 0 1 143 491 )" class="fill" />
    <path d="M 11 15.376403694862638  L 11 17  L 0 17  L 0 0  L 11 0  L 11 1.6235944076113564  L 1.8914026276748597 1.6235944076113564  L 1.8914026276748597 7.616572612627656  L 9.656109062657158 7.616572612627656  L 9.656109062657158 9.240167020239012  L 1.8914026276748597 9.240167020239012  L 1.8914026276748597 15.376403694862638  L 11 15.376403694862638  Z " stroke-width="0" stroke-dasharray="0" stroke="rgba(121, 121, 121, 1)" fill="none" transform="matrix(1 0 0 1 143 491 )" class="stroke" mask="url(#Clip4619)" />
  </g>
</svg>