<?xml version="1.0" encoding="utf-8"?>
<svg version="1.1" xmlns:xlink="http://www.w3.org/1999/xlink" width="36px" height="42px" xmlns="http://www.w3.org/2000/svg">
  <defs>
    <pattern id="BGPattern" patternUnits="userSpaceOnUse" alignment="0 0" imageRepeat="None" />
    <mask fill="white" id="Clip4428">
      <path d="M 28 11.759395546166207  C 28 11.759395546166207  28 33.68045143571566  28 33.68045143571566  L 19.74941377240706 33.68045143571566  C 19.74941377240706 33.68045143571566  19.74941377240706 30.80451435715663  19.74941377240706 30.80451435715663  C 17.475632072001304 33.04135644988913  15.331779094949786 34  11.433867055364557 34  C 7.600920345513333 34  4.807423751690642 33.04135311673468  2.793502402164022 31.060150161128607  C 0.9744767998251965 29.206766774085736  0 26.52255750083553  0 23.582707661964136  C 0 18.27819616179703  3.7030136302409913 13.932330354482936  11.563803523173899 13.932330354482936  C 11.563803523173899 13.932330354482936  19.554516815148155 13.932330354482936  19.554516815148155 13.932330354482936  C 19.554516815148155 13.932330354482936  19.554516815148155 12.270674772748892  19.554516815148155 12.270674772748892  C 19.554516815148155 8.627816949656147  17.73549919927866 7.03007222357478  13.252900160144268 7.03007222357478  C 10.004640449842206 7.03007222357478  8.510447546528964 7.796991063448808  6.756386547881476 9.778195209467189  C 6.756386547881476 9.778195209467189  1.3642632119021212 4.601501611286072  1.3642632119021212 4.601501611286072  C 4.677488251938188 1.0225527391863227  7.925746026126472 0  13.577718096302299 0  C 23.062638812443126 0  28 3.9624025780577155  28 11.759395546166207  Z M 18.320190071055375 25.627820758975513  C 19.229702751217676 24.79699296810849  19.554516815148155 23.45488499832894  19.554516815148155 21.409772853647404  C 19.554516815148155 21.409772853647404  19.554516815148155 19.620299369927373  19.554516815148155 19.620299369927373  C 19.554516815148155 19.620299369927373  12.863106245626456 19.620299369927373  12.863106245626456 19.620299369927373  C 9.809741556469524 19.620299369927373  8.120649759783596 21.026315338370075  8.120649759783596 23.39097699966579  C 8.120649759783596 25.69172970996851  9.679816705342844 27.225563580397196  12.9930427134358 27.225563580397196  C 15.33178974357556 27.225563580397196  16.82599039134391 27.033835775088374  18.320190071055375 25.627820758975513  Z " fill-rule="evenodd" />
    </mask>
  </defs>
  <g transform="matrix(1 0 0 1 -342 -324 )">
    <path d="M 28 11.759395546166207  C 28 11.759395546166207  28 33.68045143571566  28 33.68045143571566  L 19.74941377240706 33.68045143571566  C 19.74941377240706 33.68045143571566  19.74941377240706 30.80451435715663  19.74941377240706 30.80451435715663  C 17.475632072001304 33.04135644988913  15.331779094949786 34  11.433867055364557 34  C 7.600920345513333 34  4.807423751690642 33.04135311673468  2.793502402164022 31.060150161128607  C 0.9744767998251965 29.206766774085736  0 26.52255750083553  0 23.582707661964136  C 0 18.27819616179703  3.7030136302409913 13.932330354482936  11.563803523173899 13.932330354482936  C 11.563803523173899 13.932330354482936  19.554516815148155 13.932330354482936  19.554516815148155 13.932330354482936  C 19.554516815148155 13.932330354482936  19.554516815148155 12.270674772748892  19.554516815148155 12.270674772748892  C 19.554516815148155 8.627816949656147  17.73549919927866 7.03007222357478  13.252900160144268 7.03007222357478  C 10.004640449842206 7.03007222357478  8.510447546528964 7.796991063448808  6.756386547881476 9.778195209467189  C 6.756386547881476 9.778195209467189  1.3642632119021212 4.601501611286072  1.3642632119021212 4.601501611286072  C 4.677488251938188 1.0225527391863227  7.925746026126472 0  13.577718096302299 0  C 23.062638812443126 0  28 3.9624025780577155  28 11.759395546166207  Z M 18.320190071055375 25.627820758975513  C 19.229702751217676 24.79699296810849  19.554516815148155 23.45488499832894  19.554516815148155 21.409772853647404  C 19.554516815148155 21.409772853647404  19.554516815148155 19.620299369927373  19.554516815148155 19.620299369927373  C 19.554516815148155 19.620299369927373  12.863106245626456 19.620299369927373  12.863106245626456 19.620299369927373  C 9.809741556469524 19.620299369927373  8.120649759783596 21.026315338370075  8.120649759783596 23.39097699966579  C 8.120649759783596 25.69172970996851  9.679816705342844 27.225563580397196  12.9930427134358 27.225563580397196  C 15.33178974357556 27.225563580397196  16.82599039134391 27.033835775088374  18.320190071055375 25.627820758975513  Z " fill-rule="nonzero" fill="rgba(63, 66, 124, 1)" stroke="none" transform="matrix(1 0 0 1 346 324 )" class="fill" />
    <path d="M 28 11.759395546166207  C 28 11.759395546166207  28 33.68045143571566  28 33.68045143571566  L 19.74941377240706 33.68045143571566  C 19.74941377240706 33.68045143571566  19.74941377240706 30.80451435715663  19.74941377240706 30.80451435715663  C 17.475632072001304 33.04135644988913  15.331779094949786 34  11.433867055364557 34  C 7.600920345513333 34  4.807423751690642 33.04135311673468  2.793502402164022 31.060150161128607  C 0.9744767998251965 29.206766774085736  0 26.52255750083553  0 23.582707661964136  C 0 18.27819616179703  3.7030136302409913 13.932330354482936  11.563803523173899 13.932330354482936  C 11.563803523173899 13.932330354482936  19.554516815148155 13.932330354482936  19.554516815148155 13.932330354482936  C 19.554516815148155 13.932330354482936  19.554516815148155 12.270674772748892  19.554516815148155 12.270674772748892  C 19.554516815148155 8.627816949656147  17.73549919927866 7.03007222357478  13.252900160144268 7.03007222357478  C 10.004640449842206 7.03007222357478  8.510447546528964 7.796991063448808  6.756386547881476 9.778195209467189  C 6.756386547881476 9.778195209467189  1.3642632119021212 4.601501611286072  1.3642632119021212 4.601501611286072  C 4.677488251938188 1.0225527391863227  7.925746026126472 0  13.577718096302299 0  C 23.062638812443126 0  28 3.9624025780577155  28 11.759395546166207  Z " stroke-width="0" stroke-dasharray="0" stroke="rgba(121, 121, 121, 1)" fill="none" transform="matrix(1 0 0 1 346 324 )" class="stroke" mask="url(#Clip4428)" />
    <path d="M 18.320190071055375 25.627820758975513  C 19.229702751217676 24.79699296810849  19.554516815148155 23.45488499832894  19.554516815148155 21.409772853647404  C 19.554516815148155 21.409772853647404  19.554516815148155 19.620299369927373  19.554516815148155 19.620299369927373  C 19.554516815148155 19.620299369927373  12.863106245626456 19.620299369927373  12.863106245626456 19.620299369927373  C 9.809741556469524 19.620299369927373  8.120649759783596 21.026315338370075  8.120649759783596 23.39097699966579  C 8.120649759783596 25.69172970996851  9.679816705342844 27.225563580397196  12.9930427134358 27.225563580397196  C 15.33178974357556 27.225563580397196  16.82599039134391 27.033835775088374  18.320190071055375 25.627820758975513  Z " stroke-width="0" stroke-dasharray="0" stroke="rgba(121, 121, 121, 1)" fill="none" transform="matrix(1 0 0 1 346 324 )" class="stroke" mask="url(#Clip4428)" />
  </g>
  <style>svg { filter: drop-shadow(0px 4px 2px rgba(0, 0, 0, 0.12941176470588237)); }</style>
</svg>