<?xml version="1.0" encoding="utf-8"?>
<svg version="1.1" xmlns:xlink="http://www.w3.org/1999/xlink" width="9px" height="17px" xmlns="http://www.w3.org/2000/svg">
  <defs>
    <pattern id="BGPattern" patternUnits="userSpaceOnUse" alignment="0 0" imageRepeat="None" />
    <mask fill="white" id="Clip4537">
      <path d="M 9 0  L 9 16.85794144420162  L 7.365719767801103 16.85794144420162  C 7.365719767801103 16.85794144420162  7.365719767801103 15.461004714358072  7.365719767801103 15.461004714358072  C 6.4450041108392 16.69220301270858  5.386165247605652 17  4.143199076407747 17  C 2.992303990715296 17  1.9795414292813704 16.597495211565008  1.3810761150587816 15.981896121191944  C 0.23018125802858586 14.798051694012129  0 12.856547915397462  0 11.033427756270166  C 0 9.210307244329753  0.23018125802858586 7.268803348110715  1.3810761150587816 6.084959391348391  C 1.9795414292813704 5.469359771755647  2.992303990715296 5.066847985860468  4.143199076407747 5.066847985860468  C 5.386165247605652 5.066847985860468  6.421969589952682 5.350971683302105  7.342685246914583 6.558492928462893  C 7.342685246914583 6.558492928462893  7.342685246914583 0  7.342685246914583 0  L 9 0  Z M 4.511487991674661 15.484683649217757  C 6.9744027341908 15.484683649217757  7.342685246914583 13.306408868288415  7.342685246914583 11.033427756270166  C 7.342685246914583 8.760446644251918  6.9744027341908 6.582171863322577  4.511487991674661 6.582171863322577  C 2.0485727918340135 6.582171863322577  1.657285484316818 8.760446644251918  1.657285484316818 11.033427756270166  C 1.657285484316818 13.306408868288415  2.0485727918340135 15.484683649217757  4.511487991674661 15.484683649217757  Z " fill-rule="evenodd" />
    </mask>
  </defs>
  <g transform="matrix(1 0 0 1 -496 -553 )">
    <path d="M 9 0  L 9 16.85794144420162  L 7.365719767801103 16.85794144420162  C 7.365719767801103 16.85794144420162  7.365719767801103 15.461004714358072  7.365719767801103 15.461004714358072  C 6.4450041108392 16.69220301270858  5.386165247605652 17  4.143199076407747 17  C 2.992303990715296 17  1.9795414292813704 16.597495211565008  1.3810761150587816 15.981896121191944  C 0.23018125802858586 14.798051694012129  0 12.856547915397462  0 11.033427756270166  C 0 9.210307244329753  0.23018125802858586 7.268803348110715  1.3810761150587816 6.084959391348391  C 1.9795414292813704 5.469359771755647  2.992303990715296 5.066847985860468  4.143199076407747 5.066847985860468  C 5.386165247605652 5.066847985860468  6.421969589952682 5.350971683302105  7.342685246914583 6.558492928462893  C 7.342685246914583 6.558492928462893  7.342685246914583 0  7.342685246914583 0  L 9 0  Z M 4.511487991674661 15.484683649217757  C 6.9744027341908 15.484683649217757  7.342685246914583 13.306408868288415  7.342685246914583 11.033427756270166  C 7.342685246914583 8.760446644251918  6.9744027341908 6.582171863322577  4.511487991674661 6.582171863322577  C 2.0485727918340135 6.582171863322577  1.657285484316818 8.760446644251918  1.657285484316818 11.033427756270166  C 1.657285484316818 13.306408868288415  2.0485727918340135 15.484683649217757  4.511487991674661 15.484683649217757  Z " fill-rule="nonzero" fill="rgba(0, 0, 0, 1)" stroke="none" transform="matrix(1 0 0 1 496 553 )" class="fill" />
    <path d="M 9 0  L 9 16.85794144420162  L 7.365719767801103 16.85794144420162  C 7.365719767801103 16.85794144420162  7.365719767801103 15.461004714358072  7.365719767801103 15.461004714358072  C 6.4450041108392 16.69220301270858  5.386165247605652 17  4.143199076407747 17  C 2.992303990715296 17  1.9795414292813704 16.597495211565008  1.3810761150587816 15.981896121191944  C 0.23018125802858586 14.798051694012129  0 12.856547915397462  0 11.033427756270166  C 0 9.210307244329753  0.23018125802858586 7.268803348110715  1.3810761150587816 6.084959391348391  C 1.9795414292813704 5.469359771755647  2.992303990715296 5.066847985860468  4.143199076407747 5.066847985860468  C 5.386165247605652 5.066847985860468  6.421969589952682 5.350971683302105  7.342685246914583 6.558492928462893  C 7.342685246914583 6.558492928462893  7.342685246914583 0  7.342685246914583 0  L 9 0  Z " stroke-width="0" stroke-dasharray="0" stroke="rgba(121, 121, 121, 1)" fill="none" transform="matrix(1 0 0 1 496 553 )" class="stroke" mask="url(#Clip4537)" />
    <path d="M 4.511487991674661 15.484683649217757  C 6.9744027341908 15.484683649217757  7.342685246914583 13.306408868288415  7.342685246914583 11.033427756270166  C 7.342685246914583 8.760446644251918  6.9744027341908 6.582171863322577  4.511487991674661 6.582171863322577  C 2.0485727918340135 6.582171863322577  1.657285484316818 8.760446644251918  1.657285484316818 11.033427756270166  C 1.657285484316818 13.306408868288415  2.0485727918340135 15.484683649217757  4.511487991674661 15.484683649217757  Z " stroke-width="0" stroke-dasharray="0" stroke="rgba(121, 121, 121, 1)" fill="none" transform="matrix(1 0 0 1 496 553 )" class="stroke" mask="url(#Clip4537)" />
  </g>
</svg>