<?xml version="1.0" encoding="utf-8"?>
<svg version="1.1" xmlns:xlink="http://www.w3.org/1999/xlink" width="22px" height="22px" xmlns="http://www.w3.org/2000/svg">
  <defs>
    <pattern id="BGPattern" patternUnits="userSpaceOnUse" alignment="0 0" imageRepeat="None" />
    <mask fill="white" id="Clip4500">
      <path d="M 9.890350809926021 4  L 9.890350809926021 2.2906726815480276  L 20.938596760295916 2.2906726815480276  L 20.938596760295916 4  L 9.890350809926021 4  Z M 20.214913256072702 2.7440436745482115  C 20.214913256072702 2.7440436745482115  20.214913256072702 2.2906726815480276  20.214913256072702 2.2906726815480276  C 20.214913256072702 2.2906726815480276  22 2.2906726815480276  22 2.2906726815480276  C 22 2.2906726815480276  22 2.3543044799235404  22 2.4815633358870377  C 22 2.5929159015322916  22 2.728133591599945  22 2.887207872672446  C 22 3.0462821537449467  21.991958688753616 3.1655888127068277  21.975877024815052 3.245125953243078  C 21.91154941050659 6.31526280167786  21.839181443505954 8.908165429005068  21.75877216525893 11.023855642847343  C 21.678362887011904 13.139545856689614  21.581871944826315 14.857555108638163  21.469298380147958 16.177872968960425  C 21.372807437962372 17.498190710763  21.252192562037628 18.51627329192011  21.107455669482146 19.232108267864493  C 20.96271877692666 19.947943243808876  20.777777245247663 20.449021137275277  20.552631074445156 20.735355103949093  C 20.311403239704084 21.085318883793644  20.062135052270833 21.331887509860838  19.80482459503699 21.475054493197746  C 19.547515096357355 21.618221535794497  19.23391737750723 21.705704828828264  18.864034314149237 21.737519661338826  C 18.510232914729805 21.785241969364513  18.067981884371175 21.809109345660993  17.537280264519133 21.809109345660993  C 17.006578644667094 21.809109345660993  16.459795360876488 21.793197721956776  15.896929454593113 21.761382889446214  C 15.880847790654549 21.49095633902768  15.824561487592476 21.180771825853117  15.728070545406887 20.830808016378647  C 15.647661267159863 20.496751712049218  15.535087702481505 20.210404145241178  15.390350809926021 19.971792486593053  C 15.969298380147958 20.019514816841184  16.5 20.043382170915216  16.982455669482146 20.043382170915216  C 17.464912297518495 20.05928961494855  17.826754049630104 20.067245399022607  18.067981884371175 20.067245399022607  C 18.26096376874235 20.083152843055938  18.421782325236396 20.06724127305596  18.550437553853317 20.019518942807828  C 18.67909278247024 19.955889166674496  18.807749928195577 19.828626955122324  18.936405156812498 19.63773763412981  C 19.11330537724511 19.430940867252087  19.258041311246384 18.993494120302913  19.370614875924744 18.32538145238422  C 19.499269145987455 17.641361427470088  19.611842710665815 16.655102093721403  19.70833461140561 15.366599065909705  C 19.82090721752976 14.06218844406319  19.91739720116114 12.383942547516481  19.997806479408165 10.331882709813465  C 20.078215757655187 8.263915159555944  20.15058564176424 5.734643382446743  20.214913256072702 2.7440436745482115  Z M 14.883772165258927 7.0867719270904805  C 14.980263107444515 5.7028241647077165  15.036549410506591 4.326821962224026  15.052632032999362 2.958782386474516  C 15.052632032999362 2.958782386474516  16.885965685850763 3.03037207079668  16.885965685850763 3.03037207079668  C 16.837720694035074 4.50976516034895  16.757309498679636 5.989161094373737  16.644735934001275 7.4685532357685  C 16.53216236932292 8.947945377163265  16.339181443505954 10.395519248976507  16.065790280887754 11.811281488310769  C 15.792398159715347 13.227044201723785  15.398392121172405 14.571222682720295  14.883772165258927 15.843818116497182  C 14.385233873284015 17.10050631179832  13.717835713568665 18.25379153102268  12.881578644667092 19.303682781666563  C 12.061403239704083 20.353574032310448  11.04020415984641 21.25235013228521  9.817981884371175 22  C 9.73757260612415 21.888647908433498  9.616958688753614 21.74547411021452  9.456140132259566 21.570492235107203  C 9.295321096488415 21.41141777625517  9.134502060717264 21.252347584111916  8.973683504223215 21.093273184519724  C 8.828946611667732 20.950106141922973  8.692251509635735 20.822843967408208  8.563596760295917 20.711491875841705  C 9.737573085401253 20.011564375412448  10.71052621488903 19.16847872136306  11.482456628036351 18.182217254259985  C 12.270467746568027 17.195955787156915  12.897661267159863 16.114242355781798  13.364036231257652 14.937091301016906  C 13.830410236801232 13.744033244815647  14.176170324974274 12.487352871813933  14.401316495776786 11.16703501149167  C 14.642544330517856 9.830809438614903  14.803362887011906 8.470719689473245  14.883772165258927 7.0867719270904805  Z M 10.662280264519133 9.16269072619211  C 10.855263107444516 8.271873993660103  10.983917856784332 7.396965447761348  11.04824499181569 6.537963192180838  C 11.04824499181569 6.537963192180838  12.567981884371175 6.7527170746272365  12.567981884371175 6.7527170746272365  C 12.503655228616921 7.659441993792498  12.375000958554207 8.574114369171848  12.182018115628825 9.496745578655354  C 12.005117895196214 10.403470023741864  11.77193041314732 11.270422580008978  11.482456628036351 12.097609884559237  C 11.192982363648278 12.908889476554995  10.831139652982463 13.632683997721662  10.396929454593112 14.268981596090418  C 10.396929454593112 14.268981596090418  8.925438512407526 13.553145434949155  8.925438512407526 13.553145434949155  C 9.343567526135416 13.0281999281469  9.689328093585564 12.383948236461519  9.962719735480867 11.62039083397176  C 10.252193520591836 10.856833431482002  10.485380044086522 10.037600220248368  10.662280264519133 9.16269072619211  Z M 3.3530700661297836 1.765727174745773  C 3.6586257548178676 1.113521863822516  3.9078951404438764 0.5249455068022543  4.100877504092155 0  C 4.100877504092155 0  5.6929823636482775 0.6442616473391942  5.6929823636482775 0.6442616473391942  C 5.387426914598746 1.2010216310929465  5.0657898016106495 1.7975388072247533  4.7280705454068865 2.4338368796722616  C 4.390351049564572 3.0701349521197696  4.044590961391528 3.682578329877443  3.69078980161065 4.271153738740199  C 3.353070545406887 4.8597291476029545  3.0233918815338536 5.36876267514193  2.7017545289072062 5.798263802932186  C 2.7017545289072062 5.798263802932186  1.471491301643415 5.249455068022543  1.471491301643415 5.249455068022543  C 1.7770468705122233 4.7881385151232845  2.090643391169589 4.255237966846897  2.412280743796237 3.6507553195083924  C 2.733918336061437 3.030365433694139  3.047514617080251 2.4020252471932815  3.3530700661297836 1.765727174745773  Z M 5.668860347017537 4.8199624736498405  C 6.103070545406887 4.05640459708133  6.489035272703443 3.356477570730826  6.8267550081843105 2.720180446440824  C 6.8267550081843105 2.720180446440824  8.346490942185588 3.4121533794747  8.346490942185588 3.4121533794747  C 7.799707179117879 4.318877350482457  7.188596760295917 5.281269544974041  6.513158247888393 6.299346081627053  C 5.85380139941943 7.317422618280063  5.186403718981186 8.295741014397514  4.51096520657366 9.234280410514273  C 3.8355264545275825 10.172819332552281  3.192251269997184 10.99999336289746  2.581140132259567 11.715828575881217  C 2.581140132259567 11.715828575881217  1.471491301643415 11.095445327169505  1.471491301643415 11.095445327169505  C 1.9217837630677082 10.554592581891502  2.3881582478883923 9.942148730055075  2.8706143966476394 9.258128468101567  C 3.369152448984002 8.558200967672311  3.8516085977432497 7.834422091104489  4.317982842925382 7.0867719270904805  C 4.800438991684629 6.323214998679475  5.250731572928198 5.567612163585098  5.668860347017537 4.8199624736498405  Z M 1.6403509297452965 6.299346081627053  C 1.1900585881402794 5.8380304768853  0.7478070785045439 5.416494820301742  0.31359652065736604 5.034716356096239  C 0.31359652065736604 5.034716356096239  1.2302632272637912 3.841645973847403  1.2302632272637912 3.841645973847403  C 1.6805555688688083 4.207517199577157  2.1308477906545495 4.621112037049168  2.581140132259567 5.082427641790921  C 3.047514617080251 5.5278360080569255  3.473684462777423 5.973253855897989  3.8596491900739793 6.418662222163992  C 4.245614157009088 6.848163349954247  4.54312901372789 7.2378902185313425  4.7521935205918355 7.587854205785346  C 4.7521935205918355 7.587854205785346  3.7631582478883923 8.947936843745712  3.7631582478883923 8.947936843745712  C 3.554093980662999 8.582065618015958  3.2565793635827482 8.168470780543945  2.8706143966476394 7.707155175802193  C 2.5007313332896466 7.229931384427186  2.090643391169589 6.760661686368805  1.6403509297452965 6.299346081627053  Z M 6.875 9.973964629242833  C 6.585526694166134 9.353574269349826  6.279971245116602 8.788865407145728  5.958333652851403 8.279827138819224  C 5.958333652851403 8.279827138819224  7.236842231388712 7.75488163201697  7.236842231388712 7.75488163201697  C 7.574561487592474 8.263920374422227  7.89619860058057 8.820673246994685  8.201754049630102 9.42515589433319  C 8.507309498679636 10.013731303195947  8.77266078788276 10.594366841104662  8.997807437962372 11.16703501149167  C 9.239035272703443 11.723795469324173  9.41593501385895 12.224873481310263  9.528508099260206 12.67028184757627  C 9.528508099260206 12.67028184757627  8.153508099260206 13.266817038700687  8.153508099260206 13.266817038700687  C 8.057017157074618 12.821408672434682  7.888158247888393 12.312359974375612  7.646929933870217 11.739691803988606  C 7.421783763067707 11.167024107680351  7.164473785110969 10.578447750660091  6.875 9.973964629242833  Z M 0.38596490702547037 12.336226995113023  C 0.38596490702547037 12.336226995113023  0.21710527892358894 10.689800790384096  0.21710527892358894 10.689800790384096  C 1.278508758266223 10.657985839353847  2.524853949016767 10.610266494320364  3.9561406115366706 10.546636592259862  C 5.387427393875849 10.483007164278114  6.866959168030718 10.419375839981354  8.394736892555484 10.355745937920853  C 8.394736892555484 10.355745937920853  8.370613917370536 11.811281488310769  8.370613917370536 11.811281488310769  C 6.939327614308461 11.906726341401521  5.524123454462053 12.002165031468486  4.125000479277104 12.097609884559237  C 2.7258776239114306 12.177147025095488  1.4795321935223347 12.256689854576775  0.38596490702547037 12.336226995113023  Z M 7.478070066129783 16.177872968960425  C 7.204678424234482 15.350685664410168  6.907164286431334 14.587127787841656  6.585526694166134 13.887200287412398  C 6.585526694166134 13.887200287412398  7.912280743796238 13.481555750626992  7.912280743796238 13.481555750626992  C 8.233918336061437 14.149668300025997  8.53947378511097 14.897330078969453  8.828947570221938 15.724517146480336  C 9.13450301927147 16.535796738476094  9.343567046858311 17.23572364630691  9.456140132259566 17.824299173689354  C 9.456140132259566 17.824299173689354  8.081140132259566 18.30151822427683  8.081140132259566 18.30151822427683  C 7.968567046858312 17.69703533989895  7.767543851240752 16.989152442436495  7.478070066129783 16.177872968960425  Z M 0.9890350330648916 16.726681703870067  C 1.2463450110216305 15.708605404256433  1.4473683264584665 14.682566951987372  1.5921052190139509 13.648583176858613  C 1.5921052190139509 13.648583176858613  3.1359647272965563 13.911063515519787  3.1359647272965563 13.911063515519787  C 2.9751461708025086 15.040491906699922  2.75 16.15401365200275  2.460526214889031 17.25162721067232  C 2.1710525495973374 18.33333341234646  1.8333332933935746 19.255961599577915  1.4473683264584665 20.019518942807828  C 1.3347952410572121 19.939981728196774  1.1900584683210036 19.86043906168006  1.0131578884305645 19.780901832254045  C 0.8523392121172406 19.701364617642987  0.6754386322268016 19.62183712164637  0.4824561487592474 19.54229989222035  C 0.3055555688688084 19.44685524653905  0.14473686260066562 19.37526834742956  0 19.327546009773954  C 0.4181286842248817 18.595803558314444  0.747807018594906 17.728850765007955  0.9890350330648916 16.726681703870067  Z M 4.173245950369897 22  L 4.173245950369897 11.357910495310584  L 6 11.357910495310584  L 6 22  L 4.173245950369897 22  Z " fill-rule="evenodd" />
    </mask>
  </defs>
  <g transform="matrix(1 0 0 1 -142 -643 )">
    <path d="M 9.890350809926021 4  L 9.890350809926021 2.2906726815480276  L 20.938596760295916 2.2906726815480276  L 20.938596760295916 4  L 9.890350809926021 4  Z M 20.214913256072702 2.7440436745482115  C 20.214913256072702 2.7440436745482115  20.214913256072702 2.2906726815480276  20.214913256072702 2.2906726815480276  C 20.214913256072702 2.2906726815480276  22 2.2906726815480276  22 2.2906726815480276  C 22 2.2906726815480276  22 2.3543044799235404  22 2.4815633358870377  C 22 2.5929159015322916  22 2.728133591599945  22 2.887207872672446  C 22 3.0462821537449467  21.991958688753616 3.1655888127068277  21.975877024815052 3.245125953243078  C 21.91154941050659 6.31526280167786  21.839181443505954 8.908165429005068  21.75877216525893 11.023855642847343  C 21.678362887011904 13.139545856689614  21.581871944826315 14.857555108638163  21.469298380147958 16.177872968960425  C 21.372807437962372 17.498190710763  21.252192562037628 18.51627329192011  21.107455669482146 19.232108267864493  C 20.96271877692666 19.947943243808876  20.777777245247663 20.449021137275277  20.552631074445156 20.735355103949093  C 20.311403239704084 21.085318883793644  20.062135052270833 21.331887509860838  19.80482459503699 21.475054493197746  C 19.547515096357355 21.618221535794497  19.23391737750723 21.705704828828264  18.864034314149237 21.737519661338826  C 18.510232914729805 21.785241969364513  18.067981884371175 21.809109345660993  17.537280264519133 21.809109345660993  C 17.006578644667094 21.809109345660993  16.459795360876488 21.793197721956776  15.896929454593113 21.761382889446214  C 15.880847790654549 21.49095633902768  15.824561487592476 21.180771825853117  15.728070545406887 20.830808016378647  C 15.647661267159863 20.496751712049218  15.535087702481505 20.210404145241178  15.390350809926021 19.971792486593053  C 15.969298380147958 20.019514816841184  16.5 20.043382170915216  16.982455669482146 20.043382170915216  C 17.464912297518495 20.05928961494855  17.826754049630104 20.067245399022607  18.067981884371175 20.067245399022607  C 18.26096376874235 20.083152843055938  18.421782325236396 20.06724127305596  18.550437553853317 20.019518942807828  C 18.67909278247024 19.955889166674496  18.807749928195577 19.828626955122324  18.936405156812498 19.63773763412981  C 19.11330537724511 19.430940867252087  19.258041311246384 18.993494120302913  19.370614875924744 18.32538145238422  C 19.499269145987455 17.641361427470088  19.611842710665815 16.655102093721403  19.70833461140561 15.366599065909705  C 19.82090721752976 14.06218844406319  19.91739720116114 12.383942547516481  19.997806479408165 10.331882709813465  C 20.078215757655187 8.263915159555944  20.15058564176424 5.734643382446743  20.214913256072702 2.7440436745482115  Z M 14.883772165258927 7.0867719270904805  C 14.980263107444515 5.7028241647077165  15.036549410506591 4.326821962224026  15.052632032999362 2.958782386474516  C 15.052632032999362 2.958782386474516  16.885965685850763 3.03037207079668  16.885965685850763 3.03037207079668  C 16.837720694035074 4.50976516034895  16.757309498679636 5.989161094373737  16.644735934001275 7.4685532357685  C 16.53216236932292 8.947945377163265  16.339181443505954 10.395519248976507  16.065790280887754 11.811281488310769  C 15.792398159715347 13.227044201723785  15.398392121172405 14.571222682720295  14.883772165258927 15.843818116497182  C 14.385233873284015 17.10050631179832  13.717835713568665 18.25379153102268  12.881578644667092 19.303682781666563  C 12.061403239704083 20.353574032310448  11.04020415984641 21.25235013228521  9.817981884371175 22  C 9.73757260612415 21.888647908433498  9.616958688753614 21.74547411021452  9.456140132259566 21.570492235107203  C 9.295321096488415 21.41141777625517  9.134502060717264 21.252347584111916  8.973683504223215 21.093273184519724  C 8.828946611667732 20.950106141922973  8.692251509635735 20.822843967408208  8.563596760295917 20.711491875841705  C 9.737573085401253 20.011564375412448  10.71052621488903 19.16847872136306  11.482456628036351 18.182217254259985  C 12.270467746568027 17.195955787156915  12.897661267159863 16.114242355781798  13.364036231257652 14.937091301016906  C 13.830410236801232 13.744033244815647  14.176170324974274 12.487352871813933  14.401316495776786 11.16703501149167  C 14.642544330517856 9.830809438614903  14.803362887011906 8.470719689473245  14.883772165258927 7.0867719270904805  Z M 10.662280264519133 9.16269072619211  C 10.855263107444516 8.271873993660103  10.983917856784332 7.396965447761348  11.04824499181569 6.537963192180838  C 11.04824499181569 6.537963192180838  12.567981884371175 6.7527170746272365  12.567981884371175 6.7527170746272365  C 12.503655228616921 7.659441993792498  12.375000958554207 8.574114369171848  12.182018115628825 9.496745578655354  C 12.005117895196214 10.403470023741864  11.77193041314732 11.270422580008978  11.482456628036351 12.097609884559237  C 11.192982363648278 12.908889476554995  10.831139652982463 13.632683997721662  10.396929454593112 14.268981596090418  C 10.396929454593112 14.268981596090418  8.925438512407526 13.553145434949155  8.925438512407526 13.553145434949155  C 9.343567526135416 13.0281999281469  9.689328093585564 12.383948236461519  9.962719735480867 11.62039083397176  C 10.252193520591836 10.856833431482002  10.485380044086522 10.037600220248368  10.662280264519133 9.16269072619211  Z M 3.3530700661297836 1.765727174745773  C 3.6586257548178676 1.113521863822516  3.9078951404438764 0.5249455068022543  4.100877504092155 0  C 4.100877504092155 0  5.6929823636482775 0.6442616473391942  5.6929823636482775 0.6442616473391942  C 5.387426914598746 1.2010216310929465  5.0657898016106495 1.7975388072247533  4.7280705454068865 2.4338368796722616  C 4.390351049564572 3.0701349521197696  4.044590961391528 3.682578329877443  3.69078980161065 4.271153738740199  C 3.353070545406887 4.8597291476029545  3.0233918815338536 5.36876267514193  2.7017545289072062 5.798263802932186  C 2.7017545289072062 5.798263802932186  1.471491301643415 5.249455068022543  1.471491301643415 5.249455068022543  C 1.7770468705122233 4.7881385151232845  2.090643391169589 4.255237966846897  2.412280743796237 3.6507553195083924  C 2.733918336061437 3.030365433694139  3.047514617080251 2.4020252471932815  3.3530700661297836 1.765727174745773  Z M 5.668860347017537 4.8199624736498405  C 6.103070545406887 4.05640459708133  6.489035272703443 3.356477570730826  6.8267550081843105 2.720180446440824  C 6.8267550081843105 2.720180446440824  8.346490942185588 3.4121533794747  8.346490942185588 3.4121533794747  C 7.799707179117879 4.318877350482457  7.188596760295917 5.281269544974041  6.513158247888393 6.299346081627053  C 5.85380139941943 7.317422618280063  5.186403718981186 8.295741014397514  4.51096520657366 9.234280410514273  C 3.8355264545275825 10.172819332552281  3.192251269997184 10.99999336289746  2.581140132259567 11.715828575881217  C 2.581140132259567 11.715828575881217  1.471491301643415 11.095445327169505  1.471491301643415 11.095445327169505  C 1.9217837630677082 10.554592581891502  2.3881582478883923 9.942148730055075  2.8706143966476394 9.258128468101567  C 3.369152448984002 8.558200967672311  3.8516085977432497 7.834422091104489  4.317982842925382 7.0867719270904805  C 4.800438991684629 6.323214998679475  5.250731572928198 5.567612163585098  5.668860347017537 4.8199624736498405  Z M 1.6403509297452965 6.299346081627053  C 1.1900585881402794 5.8380304768853  0.7478070785045439 5.416494820301742  0.31359652065736604 5.034716356096239  C 0.31359652065736604 5.034716356096239  1.2302632272637912 3.841645973847403  1.2302632272637912 3.841645973847403  C 1.6805555688688083 4.207517199577157  2.1308477906545495 4.621112037049168  2.581140132259567 5.082427641790921  C 3.047514617080251 5.5278360080569255  3.473684462777423 5.973253855897989  3.8596491900739793 6.418662222163992  C 4.245614157009088 6.848163349954247  4.54312901372789 7.2378902185313425  4.7521935205918355 7.587854205785346  C 4.7521935205918355 7.587854205785346  3.7631582478883923 8.947936843745712  3.7631582478883923 8.947936843745712  C 3.554093980662999 8.582065618015958  3.2565793635827482 8.168470780543945  2.8706143966476394 7.707155175802193  C 2.5007313332896466 7.229931384427186  2.090643391169589 6.760661686368805  1.6403509297452965 6.299346081627053  Z M 6.875 9.973964629242833  C 6.585526694166134 9.353574269349826  6.279971245116602 8.788865407145728  5.958333652851403 8.279827138819224  C 5.958333652851403 8.279827138819224  7.236842231388712 7.75488163201697  7.236842231388712 7.75488163201697  C 7.574561487592474 8.263920374422227  7.89619860058057 8.820673246994685  8.201754049630102 9.42515589433319  C 8.507309498679636 10.013731303195947  8.77266078788276 10.594366841104662  8.997807437962372 11.16703501149167  C 9.239035272703443 11.723795469324173  9.41593501385895 12.224873481310263  9.528508099260206 12.67028184757627  C 9.528508099260206 12.67028184757627  8.153508099260206 13.266817038700687  8.153508099260206 13.266817038700687  C 8.057017157074618 12.821408672434682  7.888158247888393 12.312359974375612  7.646929933870217 11.739691803988606  C 7.421783763067707 11.167024107680351  7.164473785110969 10.578447750660091  6.875 9.973964629242833  Z M 0.38596490702547037 12.336226995113023  C 0.38596490702547037 12.336226995113023  0.21710527892358894 10.689800790384096  0.21710527892358894 10.689800790384096  C 1.278508758266223 10.657985839353847  2.524853949016767 10.610266494320364  3.9561406115366706 10.546636592259862  C 5.387427393875849 10.483007164278114  6.866959168030718 10.419375839981354  8.394736892555484 10.355745937920853  C 8.394736892555484 10.355745937920853  8.370613917370536 11.811281488310769  8.370613917370536 11.811281488310769  C 6.939327614308461 11.906726341401521  5.524123454462053 12.002165031468486  4.125000479277104 12.097609884559237  C 2.7258776239114306 12.177147025095488  1.4795321935223347 12.256689854576775  0.38596490702547037 12.336226995113023  Z M 7.478070066129783 16.177872968960425  C 7.204678424234482 15.350685664410168  6.907164286431334 14.587127787841656  6.585526694166134 13.887200287412398  C 6.585526694166134 13.887200287412398  7.912280743796238 13.481555750626992  7.912280743796238 13.481555750626992  C 8.233918336061437 14.149668300025997  8.53947378511097 14.897330078969453  8.828947570221938 15.724517146480336  C 9.13450301927147 16.535796738476094  9.343567046858311 17.23572364630691  9.456140132259566 17.824299173689354  C 9.456140132259566 17.824299173689354  8.081140132259566 18.30151822427683  8.081140132259566 18.30151822427683  C 7.968567046858312 17.69703533989895  7.767543851240752 16.989152442436495  7.478070066129783 16.177872968960425  Z M 0.9890350330648916 16.726681703870067  C 1.2463450110216305 15.708605404256433  1.4473683264584665 14.682566951987372  1.5921052190139509 13.648583176858613  C 1.5921052190139509 13.648583176858613  3.1359647272965563 13.911063515519787  3.1359647272965563 13.911063515519787  C 2.9751461708025086 15.040491906699922  2.75 16.15401365200275  2.460526214889031 17.25162721067232  C 2.1710525495973374 18.33333341234646  1.8333332933935746 19.255961599577915  1.4473683264584665 20.019518942807828  C 1.3347952410572121 19.939981728196774  1.1900584683210036 19.86043906168006  1.0131578884305645 19.780901832254045  C 0.8523392121172406 19.701364617642987  0.6754386322268016 19.62183712164637  0.4824561487592474 19.54229989222035  C 0.3055555688688084 19.44685524653905  0.14473686260066562 19.37526834742956  0 19.327546009773954  C 0.4181286842248817 18.595803558314444  0.747807018594906 17.728850765007955  0.9890350330648916 16.726681703870067  Z M 4.173245950369897 22  L 4.173245950369897 11.357910495310584  L 6 11.357910495310584  L 6 22  L 4.173245950369897 22  Z " fill-rule="nonzero" fill="rgba(0, 0, 0, 1)" stroke="none" transform="matrix(1 0 0 1 142 643 )" class="fill" />
    <path d="M 9.890350809926021 4  L 9.890350809926021 2.2906726815480276  L 20.938596760295916 2.2906726815480276  L 20.938596760295916 4  L 9.890350809926021 4  Z " stroke-width="0" stroke-dasharray="0" stroke="rgba(121, 121, 121, 1)" fill="none" transform="matrix(1 0 0 1 142 643 )" class="stroke" mask="url(#Clip4500)" />
    <path d="M 20.214913256072702 2.7440436745482115  C 20.214913256072702 2.7440436745482115  20.214913256072702 2.2906726815480276  20.214913256072702 2.2906726815480276  C 20.214913256072702 2.2906726815480276  22 2.2906726815480276  22 2.2906726815480276  C 22 2.2906726815480276  22 2.3543044799235404  22 2.4815633358870377  C 22 2.5929159015322916  22 2.728133591599945  22 2.887207872672446  C 22 3.0462821537449467  21.991958688753616 3.1655888127068277  21.975877024815052 3.245125953243078  C 21.91154941050659 6.31526280167786  21.839181443505954 8.908165429005068  21.75877216525893 11.023855642847343  C 21.678362887011904 13.139545856689614  21.581871944826315 14.857555108638163  21.469298380147958 16.177872968960425  C 21.372807437962372 17.498190710763  21.252192562037628 18.51627329192011  21.107455669482146 19.232108267864493  C 20.96271877692666 19.947943243808876  20.777777245247663 20.449021137275277  20.552631074445156 20.735355103949093  C 20.311403239704084 21.085318883793644  20.062135052270833 21.331887509860838  19.80482459503699 21.475054493197746  C 19.547515096357355 21.618221535794497  19.23391737750723 21.705704828828264  18.864034314149237 21.737519661338826  C 18.510232914729805 21.785241969364513  18.067981884371175 21.809109345660993  17.537280264519133 21.809109345660993  C 17.006578644667094 21.809109345660993  16.459795360876488 21.793197721956776  15.896929454593113 21.761382889446214  C 15.880847790654549 21.49095633902768  15.824561487592476 21.180771825853117  15.728070545406887 20.830808016378647  C 15.647661267159863 20.496751712049218  15.535087702481505 20.210404145241178  15.390350809926021 19.971792486593053  C 15.969298380147958 20.019514816841184  16.5 20.043382170915216  16.982455669482146 20.043382170915216  C 17.464912297518495 20.05928961494855  17.826754049630104 20.067245399022607  18.067981884371175 20.067245399022607  C 18.26096376874235 20.083152843055938  18.421782325236396 20.06724127305596  18.550437553853317 20.019518942807828  C 18.67909278247024 19.955889166674496  18.807749928195577 19.828626955122324  18.936405156812498 19.63773763412981  C 19.11330537724511 19.430940867252087  19.258041311246384 18.993494120302913  19.370614875924744 18.32538145238422  C 19.499269145987455 17.641361427470088  19.611842710665815 16.655102093721403  19.70833461140561 15.366599065909705  C 19.82090721752976 14.06218844406319  19.91739720116114 12.383942547516481  19.997806479408165 10.331882709813465  C 20.078215757655187 8.263915159555944  20.15058564176424 5.734643382446743  20.214913256072702 2.7440436745482115  Z " stroke-width="0" stroke-dasharray="0" stroke="rgba(121, 121, 121, 1)" fill="none" transform="matrix(1 0 0 1 142 643 )" class="stroke" mask="url(#Clip4500)" />
    <path d="M 14.883772165258927 7.0867719270904805  C 14.980263107444515 5.7028241647077165  15.036549410506591 4.326821962224026  15.052632032999362 2.958782386474516  C 15.052632032999362 2.958782386474516  16.885965685850763 3.03037207079668  16.885965685850763 3.03037207079668  C 16.837720694035074 4.50976516034895  16.757309498679636 5.989161094373737  16.644735934001275 7.4685532357685  C 16.53216236932292 8.947945377163265  16.339181443505954 10.395519248976507  16.065790280887754 11.811281488310769  C 15.792398159715347 13.227044201723785  15.398392121172405 14.571222682720295  14.883772165258927 15.843818116497182  C 14.385233873284015 17.10050631179832  13.717835713568665 18.25379153102268  12.881578644667092 19.303682781666563  C 12.061403239704083 20.353574032310448  11.04020415984641 21.25235013228521  9.817981884371175 22  C 9.73757260612415 21.888647908433498  9.616958688753614 21.74547411021452  9.456140132259566 21.570492235107203  C 9.295321096488415 21.41141777625517  9.134502060717264 21.252347584111916  8.973683504223215 21.093273184519724  C 8.828946611667732 20.950106141922973  8.692251509635735 20.822843967408208  8.563596760295917 20.711491875841705  C 9.737573085401253 20.011564375412448  10.71052621488903 19.16847872136306  11.482456628036351 18.182217254259985  C 12.270467746568027 17.195955787156915  12.897661267159863 16.114242355781798  13.364036231257652 14.937091301016906  C 13.830410236801232 13.744033244815647  14.176170324974274 12.487352871813933  14.401316495776786 11.16703501149167  C 14.642544330517856 9.830809438614903  14.803362887011906 8.470719689473245  14.883772165258927 7.0867719270904805  Z " stroke-width="0" stroke-dasharray="0" stroke="rgba(121, 121, 121, 1)" fill="none" transform="matrix(1 0 0 1 142 643 )" class="stroke" mask="url(#Clip4500)" />
    <path d="M 10.662280264519133 9.16269072619211  C 10.855263107444516 8.271873993660103  10.983917856784332 7.396965447761348  11.04824499181569 6.537963192180838  C 11.04824499181569 6.537963192180838  12.567981884371175 6.7527170746272365  12.567981884371175 6.7527170746272365  C 12.503655228616921 7.659441993792498  12.375000958554207 8.574114369171848  12.182018115628825 9.496745578655354  C 12.005117895196214 10.403470023741864  11.77193041314732 11.270422580008978  11.482456628036351 12.097609884559237  C 11.192982363648278 12.908889476554995  10.831139652982463 13.632683997721662  10.396929454593112 14.268981596090418  C 10.396929454593112 14.268981596090418  8.925438512407526 13.553145434949155  8.925438512407526 13.553145434949155  C 9.343567526135416 13.0281999281469  9.689328093585564 12.383948236461519  9.962719735480867 11.62039083397176  C 10.252193520591836 10.856833431482002  10.485380044086522 10.037600220248368  10.662280264519133 9.16269072619211  Z " stroke-width="0" stroke-dasharray="0" stroke="rgba(121, 121, 121, 1)" fill="none" transform="matrix(1 0 0 1 142 643 )" class="stroke" mask="url(#Clip4500)" />
    <path d="M 3.3530700661297836 1.765727174745773  C 3.6586257548178676 1.113521863822516  3.9078951404438764 0.5249455068022543  4.100877504092155 0  C 4.100877504092155 0  5.6929823636482775 0.6442616473391942  5.6929823636482775 0.6442616473391942  C 5.387426914598746 1.2010216310929465  5.0657898016106495 1.7975388072247533  4.7280705454068865 2.4338368796722616  C 4.390351049564572 3.0701349521197696  4.044590961391528 3.682578329877443  3.69078980161065 4.271153738740199  C 3.353070545406887 4.8597291476029545  3.0233918815338536 5.36876267514193  2.7017545289072062 5.798263802932186  C 2.7017545289072062 5.798263802932186  1.471491301643415 5.249455068022543  1.471491301643415 5.249455068022543  C 1.7770468705122233 4.7881385151232845  2.090643391169589 4.255237966846897  2.412280743796237 3.6507553195083924  C 2.733918336061437 3.030365433694139  3.047514617080251 2.4020252471932815  3.3530700661297836 1.765727174745773  Z " stroke-width="0" stroke-dasharray="0" stroke="rgba(121, 121, 121, 1)" fill="none" transform="matrix(1 0 0 1 142 643 )" class="stroke" mask="url(#Clip4500)" />
    <path d="M 5.668860347017537 4.8199624736498405  C 6.103070545406887 4.05640459708133  6.489035272703443 3.356477570730826  6.8267550081843105 2.720180446440824  C 6.8267550081843105 2.720180446440824  8.346490942185588 3.4121533794747  8.346490942185588 3.4121533794747  C 7.799707179117879 4.318877350482457  7.188596760295917 5.281269544974041  6.513158247888393 6.299346081627053  C 5.85380139941943 7.317422618280063  5.186403718981186 8.295741014397514  4.51096520657366 9.234280410514273  C 3.8355264545275825 10.172819332552281  3.192251269997184 10.99999336289746  2.581140132259567 11.715828575881217  C 2.581140132259567 11.715828575881217  1.471491301643415 11.095445327169505  1.471491301643415 11.095445327169505  C 1.9217837630677082 10.554592581891502  2.3881582478883923 9.942148730055075  2.8706143966476394 9.258128468101567  C 3.369152448984002 8.558200967672311  3.8516085977432497 7.834422091104489  4.317982842925382 7.0867719270904805  C 4.800438991684629 6.323214998679475  5.250731572928198 5.567612163585098  5.668860347017537 4.8199624736498405  Z " stroke-width="0" stroke-dasharray="0" stroke="rgba(121, 121, 121, 1)" fill="none" transform="matrix(1 0 0 1 142 643 )" class="stroke" mask="url(#Clip4500)" />
    <path d="M 1.6403509297452965 6.299346081627053  C 1.1900585881402794 5.8380304768853  0.7478070785045439 5.416494820301742  0.31359652065736604 5.034716356096239  C 0.31359652065736604 5.034716356096239  1.2302632272637912 3.841645973847403  1.2302632272637912 3.841645973847403  C 1.6805555688688083 4.207517199577157  2.1308477906545495 4.621112037049168  2.581140132259567 5.082427641790921  C 3.047514617080251 5.5278360080569255  3.473684462777423 5.973253855897989  3.8596491900739793 6.418662222163992  C 4.245614157009088 6.848163349954247  4.54312901372789 7.2378902185313425  4.7521935205918355 7.587854205785346  C 4.7521935205918355 7.587854205785346  3.7631582478883923 8.947936843745712  3.7631582478883923 8.947936843745712  C 3.554093980662999 8.582065618015958  3.2565793635827482 8.168470780543945  2.8706143966476394 7.707155175802193  C 2.5007313332896466 7.229931384427186  2.090643391169589 6.760661686368805  1.6403509297452965 6.299346081627053  Z " stroke-width="0" stroke-dasharray="0" stroke="rgba(121, 121, 121, 1)" fill="none" transform="matrix(1 0 0 1 142 643 )" class="stroke" mask="url(#Clip4500)" />
    <path d="M 6.875 9.973964629242833  C 6.585526694166134 9.353574269349826  6.279971245116602 8.788865407145728  5.958333652851403 8.279827138819224  C 5.958333652851403 8.279827138819224  7.236842231388712 7.75488163201697  7.236842231388712 7.75488163201697  C 7.574561487592474 8.263920374422227  7.89619860058057 8.820673246994685  8.201754049630102 9.42515589433319  C 8.507309498679636 10.013731303195947  8.77266078788276 10.594366841104662  8.997807437962372 11.16703501149167  C 9.239035272703443 11.723795469324173  9.41593501385895 12.224873481310263  9.528508099260206 12.67028184757627  C 9.528508099260206 12.67028184757627  8.153508099260206 13.266817038700687  8.153508099260206 13.266817038700687  C 8.057017157074618 12.821408672434682  7.888158247888393 12.312359974375612  7.646929933870217 11.739691803988606  C 7.421783763067707 11.167024107680351  7.164473785110969 10.578447750660091  6.875 9.973964629242833  Z " stroke-width="0" stroke-dasharray="0" stroke="rgba(121, 121, 121, 1)" fill="none" transform="matrix(1 0 0 1 142 643 )" class="stroke" mask="url(#Clip4500)" />
    <path d="M 0.38596490702547037 12.336226995113023  C 0.38596490702547037 12.336226995113023  0.21710527892358894 10.689800790384096  0.21710527892358894 10.689800790384096  C 1.278508758266223 10.657985839353847  2.524853949016767 10.610266494320364  3.9561406115366706 10.546636592259862  C 5.387427393875849 10.483007164278114  6.866959168030718 10.419375839981354  8.394736892555484 10.355745937920853  C 8.394736892555484 10.355745937920853  8.370613917370536 11.811281488310769  8.370613917370536 11.811281488310769  C 6.939327614308461 11.906726341401521  5.524123454462053 12.002165031468486  4.125000479277104 12.097609884559237  C 2.7258776239114306 12.177147025095488  1.4795321935223347 12.256689854576775  0.38596490702547037 12.336226995113023  Z " stroke-width="0" stroke-dasharray="0" stroke="rgba(121, 121, 121, 1)" fill="none" transform="matrix(1 0 0 1 142 643 )" class="stroke" mask="url(#Clip4500)" />
    <path d="M 7.478070066129783 16.177872968960425  C 7.204678424234482 15.350685664410168  6.907164286431334 14.587127787841656  6.585526694166134 13.887200287412398  C 6.585526694166134 13.887200287412398  7.912280743796238 13.481555750626992  7.912280743796238 13.481555750626992  C 8.233918336061437 14.149668300025997  8.53947378511097 14.897330078969453  8.828947570221938 15.724517146480336  C 9.13450301927147 16.535796738476094  9.343567046858311 17.23572364630691  9.456140132259566 17.824299173689354  C 9.456140132259566 17.824299173689354  8.081140132259566 18.30151822427683  8.081140132259566 18.30151822427683  C 7.968567046858312 17.69703533989895  7.767543851240752 16.989152442436495  7.478070066129783 16.177872968960425  Z " stroke-width="0" stroke-dasharray="0" stroke="rgba(121, 121, 121, 1)" fill="none" transform="matrix(1 0 0 1 142 643 )" class="stroke" mask="url(#Clip4500)" />
    <path d="M 0.9890350330648916 16.726681703870067  C 1.2463450110216305 15.708605404256433  1.4473683264584665 14.682566951987372  1.5921052190139509 13.648583176858613  C 1.5921052190139509 13.648583176858613  3.1359647272965563 13.911063515519787  3.1359647272965563 13.911063515519787  C 2.9751461708025086 15.040491906699922  2.75 16.15401365200275  2.460526214889031 17.25162721067232  C 2.1710525495973374 18.33333341234646  1.8333332933935746 19.255961599577915  1.4473683264584665 20.019518942807828  C 1.3347952410572121 19.939981728196774  1.1900584683210036 19.86043906168006  1.0131578884305645 19.780901832254045  C 0.8523392121172406 19.701364617642987  0.6754386322268016 19.62183712164637  0.4824561487592474 19.54229989222035  C 0.3055555688688084 19.44685524653905  0.14473686260066562 19.37526834742956  0 19.327546009773954  C 0.4181286842248817 18.595803558314444  0.747807018594906 17.728850765007955  0.9890350330648916 16.726681703870067  Z " stroke-width="0" stroke-dasharray="0" stroke="rgba(121, 121, 121, 1)" fill="none" transform="matrix(1 0 0 1 142 643 )" class="stroke" mask="url(#Clip4500)" />
    <path d="M 4.173245950369897 22  L 4.173245950369897 11.357910495310584  L 6 11.357910495310584  L 6 22  L 4.173245950369897 22  Z " stroke-width="0" stroke-dasharray="0" stroke="rgba(121, 121, 121, 1)" fill="none" transform="matrix(1 0 0 1 142 643 )" class="stroke" mask="url(#Clip4500)" />
  </g>
</svg>