<?xml version="1.0" encoding="utf-8"?>
<svg version="1.1" xmlns:xlink="http://www.w3.org/1999/xlink" width="9px" height="12px" xmlns="http://www.w3.org/2000/svg">
  <defs>
    <pattern id="BGPattern" patternUnits="userSpaceOnUse" alignment="0 0" imageRepeat="None" />
    <mask fill="white" id="Clip4554">
      <path d="M 9 3.9047625054637587  C 9 3.9047625054637587  9 11.857141865984797  9 11.857141865984797  L 7.3384913337767514 11.857141865984797  C 7.3384913337767514 11.857141865984797  7.3384913337767514 10.738095943919916  7.3384913337767514 10.738095943919916  C 6.415413158647639 11.690476881283324  5.5846231773176775 12  4.0615438788685 12  C 2.4923105685008218 12  1.5692335969289193 11.690474397756596  0.8538479596228334 10.928569671518506  C 0.3000008482212723 10.357141156405733  0 9.476191355655533  0 8.54761969337354  C 0 6.500000867263302  1.3846338832456278 5.166666561543843  3.923099495285418 5.166666561543843  C 3.923099495285418 5.166666561543843  7.3384913337767514 5.166666561543843  7.3384913337767514 5.166666561543843  C 7.3384913337767514 5.166666561543843  7.3384913337767514 4.047616855057281  7.3384913337767514 4.047616855057281  C 7.3384913337767514 2.3333313097189627  6.5076746449391605 1.476189364892046  4.430748464337415 1.476189364892046  C 2.9768998398925035 1.476189364892046  2.2384833329869127 1.8333337538246313  1.5692515356625845 2.8095243801905707  C 1.5692515356625845 2.8095243801905707  0.4384561211314997 1.7380940517090764  0.4384561211314997 1.7380940517090764  C 1.4538425493466098 0.38095100309250324  2.607714396714465 0  4.453871434719668 0  C 7.500030031618021 0  9 1.3571437581956383  9 3.9047625054637587  Z M 6.761532141320083 9.738092790235184  C 7.153840898753864 9.357140367984549  7.3384913337767514 8.690476881283324  7.3384913337767514 7.714286254917383  C 7.3384913337767514 7.714286254917383  7.3384913337767514 6.4523784144156195  7.3384913337767514 6.4523784144156195  C 7.3384913337767514 6.4523784144156195  4.153859697171251 6.4523784144156195  4.153859697171251 6.4523784144156195  C 2.446164694921554 6.4523784144156195  1.6153801009429165 7.166665063543594  1.6153801009429165 8.523808112160166  C 1.6153801009429165 9.880950805987208  2.423108206747134 10.523806850686274  4.223111232833835 10.523806850686274  C 5.19234376375494 10.523806850686274  6.046146675950741 10.45237837499456  6.761532141320083 9.738092790235184  Z " fill-rule="evenodd" />
    </mask>
  </defs>
  <g transform="matrix(1 0 0 1 -810 -527 )">
    <path d="M 9 3.9047625054637587  C 9 3.9047625054637587  9 11.857141865984797  9 11.857141865984797  L 7.3384913337767514 11.857141865984797  C 7.3384913337767514 11.857141865984797  7.3384913337767514 10.738095943919916  7.3384913337767514 10.738095943919916  C 6.415413158647639 11.690476881283324  5.5846231773176775 12  4.0615438788685 12  C 2.4923105685008218 12  1.5692335969289193 11.690474397756596  0.8538479596228334 10.928569671518506  C 0.3000008482212723 10.357141156405733  0 9.476191355655533  0 8.54761969337354  C 0 6.500000867263302  1.3846338832456278 5.166666561543843  3.923099495285418 5.166666561543843  C 3.923099495285418 5.166666561543843  7.3384913337767514 5.166666561543843  7.3384913337767514 5.166666561543843  C 7.3384913337767514 5.166666561543843  7.3384913337767514 4.047616855057281  7.3384913337767514 4.047616855057281  C 7.3384913337767514 2.3333313097189627  6.5076746449391605 1.476189364892046  4.430748464337415 1.476189364892046  C 2.9768998398925035 1.476189364892046  2.2384833329869127 1.8333337538246313  1.5692515356625845 2.8095243801905707  C 1.5692515356625845 2.8095243801905707  0.4384561211314997 1.7380940517090764  0.4384561211314997 1.7380940517090764  C 1.4538425493466098 0.38095100309250324  2.607714396714465 0  4.453871434719668 0  C 7.500030031618021 0  9 1.3571437581956383  9 3.9047625054637587  Z M 6.761532141320083 9.738092790235184  C 7.153840898753864 9.357140367984549  7.3384913337767514 8.690476881283324  7.3384913337767514 7.714286254917383  C 7.3384913337767514 7.714286254917383  7.3384913337767514 6.4523784144156195  7.3384913337767514 6.4523784144156195  C 7.3384913337767514 6.4523784144156195  4.153859697171251 6.4523784144156195  4.153859697171251 6.4523784144156195  C 2.446164694921554 6.4523784144156195  1.6153801009429165 7.166665063543594  1.6153801009429165 8.523808112160166  C 1.6153801009429165 9.880950805987208  2.423108206747134 10.523806850686274  4.223111232833835 10.523806850686274  C 5.19234376375494 10.523806850686274  6.046146675950741 10.45237837499456  6.761532141320083 9.738092790235184  Z " fill-rule="nonzero" fill="rgba(0, 0, 0, 1)" stroke="none" transform="matrix(1 0 0 1 810 527 )" class="fill" />
    <path d="M 9 3.9047625054637587  C 9 3.9047625054637587  9 11.857141865984797  9 11.857141865984797  L 7.3384913337767514 11.857141865984797  C 7.3384913337767514 11.857141865984797  7.3384913337767514 10.738095943919916  7.3384913337767514 10.738095943919916  C 6.415413158647639 11.690476881283324  5.5846231773176775 12  4.0615438788685 12  C 2.4923105685008218 12  1.5692335969289193 11.690474397756596  0.8538479596228334 10.928569671518506  C 0.3000008482212723 10.357141156405733  0 9.476191355655533  0 8.54761969337354  C 0 6.500000867263302  1.3846338832456278 5.166666561543843  3.923099495285418 5.166666561543843  C 3.923099495285418 5.166666561543843  7.3384913337767514 5.166666561543843  7.3384913337767514 5.166666561543843  C 7.3384913337767514 5.166666561543843  7.3384913337767514 4.047616855057281  7.3384913337767514 4.047616855057281  C 7.3384913337767514 2.3333313097189627  6.5076746449391605 1.476189364892046  4.430748464337415 1.476189364892046  C 2.9768998398925035 1.476189364892046  2.2384833329869127 1.8333337538246313  1.5692515356625845 2.8095243801905707  C 1.5692515356625845 2.8095243801905707  0.4384561211314997 1.7380940517090764  0.4384561211314997 1.7380940517090764  C 1.4538425493466098 0.38095100309250324  2.607714396714465 0  4.453871434719668 0  C 7.500030031618021 0  9 1.3571437581956383  9 3.9047625054637587  Z " stroke-width="0" stroke-dasharray="0" stroke="rgba(121, 121, 121, 1)" fill="none" transform="matrix(1 0 0 1 810 527 )" class="stroke" mask="url(#Clip4554)" />
    <path d="M 6.761532141320083 9.738092790235184  C 7.153840898753864 9.357140367984549  7.3384913337767514 8.690476881283324  7.3384913337767514 7.714286254917383  C 7.3384913337767514 7.714286254917383  7.3384913337767514 6.4523784144156195  7.3384913337767514 6.4523784144156195  C 7.3384913337767514 6.4523784144156195  4.153859697171251 6.4523784144156195  4.153859697171251 6.4523784144156195  C 2.446164694921554 6.4523784144156195  1.6153801009429165 7.166665063543594  1.6153801009429165 8.523808112160166  C 1.6153801009429165 9.880950805987208  2.423108206747134 10.523806850686274  4.223111232833835 10.523806850686274  C 5.19234376375494 10.523806850686274  6.046146675950741 10.45237837499456  6.761532141320083 9.738092790235184  Z " stroke-width="0" stroke-dasharray="0" stroke="rgba(121, 121, 121, 1)" fill="none" transform="matrix(1 0 0 1 810 527 )" class="stroke" mask="url(#Clip4554)" />
  </g>
</svg>