<?xml version="1.0" encoding="utf-8"?>
<svg version="1.1" xmlns:xlink="http://www.w3.org/1999/xlink" width="62px" height="81px" xmlns="http://www.w3.org/2000/svg">
  <defs>
    <pattern id="BGPattern" patternUnits="userSpaceOnUse" alignment="0 0" imageRepeat="None" />
    <mask fill="white" id="Clip4250">
      <path d="M 48.52841145411182 56.988734599437045  C 48.52841145411182 56.988734599437045  62 70.21012474891538  62 70.21012474891538  C 54.95802033713118 77.504683746385  46.691372111895866 81  35.66913990056499 81  C 19.748146035067474 81  0 72.48967306498865  0 40.424007173980804  C 0 8.358341282972955  19.748146035067474 0  35.66913990056499 0  C 46.691372111895866 0  54.95802033713118 3.343338229463797  62 10.63789341298982  C 62 10.63789341298982  48.52841145411182 24.0112501447886  48.52841145411182 24.0112501447886  C 44.395074374862745 19.60411914147659  40.87408214220029 17.780479153737712  35.66913990056499 17.780479153737712  C 30.92346037595733 17.780479153737712  27.249395618648055 19.45215541961384  24.34075303502831 22.947464998827563  C 21.279021358288258 26.746715132197878  19.901224322661594 32.065658263120675  19.901224322661594 40.424007173980804  C 19.901224322661594 48.782354177869145  21.279021358288258 54.25327938525822  24.34075303502831 58.05252737328526  C 27.249395618648055 61.547836952498976  30.92346037595733 63.21950559048793  35.66913990056499 63.21950559048793  C 40.87408214220029 63.21950559048793  44.395074374862745 61.39586464926316  48.52841145411182 56.988734599437045  Z " fill-rule="evenodd" />
    </mask>
  </defs>
  <g transform="matrix(1 0 0 1 -723 -515 )">
    <path d="M 48.52841145411182 56.988734599437045  C 48.52841145411182 56.988734599437045  62 70.21012474891538  62 70.21012474891538  C 54.95802033713118 77.504683746385  46.691372111895866 81  35.66913990056499 81  C 19.748146035067474 81  0 72.48967306498865  0 40.424007173980804  C 0 8.358341282972955  19.748146035067474 0  35.66913990056499 0  C 46.691372111895866 0  54.95802033713118 3.343338229463797  62 10.63789341298982  C 62 10.63789341298982  48.52841145411182 24.0112501447886  48.52841145411182 24.0112501447886  C 44.395074374862745 19.60411914147659  40.87408214220029 17.780479153737712  35.66913990056499 17.780479153737712  C 30.92346037595733 17.780479153737712  27.249395618648055 19.45215541961384  24.34075303502831 22.947464998827563  C 21.279021358288258 26.746715132197878  19.901224322661594 32.065658263120675  19.901224322661594 40.424007173980804  C 19.901224322661594 48.782354177869145  21.279021358288258 54.25327938525822  24.34075303502831 58.05252737328526  C 27.249395618648055 61.547836952498976  30.92346037595733 63.21950559048793  35.66913990056499 63.21950559048793  C 40.87408214220029 63.21950559048793  44.395074374862745 61.39586464926316  48.52841145411182 56.988734599437045  Z " fill-rule="nonzero" fill="rgba(255, 255, 255, 1)" stroke="none" transform="matrix(1 0 0 1 723 515 )" class="fill" />
    <path d="M 48.52841145411182 56.988734599437045  C 48.52841145411182 56.988734599437045  62 70.21012474891538  62 70.21012474891538  C 54.95802033713118 77.504683746385  46.691372111895866 81  35.66913990056499 81  C 19.748146035067474 81  0 72.48967306498865  0 40.424007173980804  C 0 8.358341282972955  19.748146035067474 0  35.66913990056499 0  C 46.691372111895866 0  54.95802033713118 3.343338229463797  62 10.63789341298982  C 62 10.63789341298982  48.52841145411182 24.0112501447886  48.52841145411182 24.0112501447886  C 44.395074374862745 19.60411914147659  40.87408214220029 17.780479153737712  35.66913990056499 17.780479153737712  C 30.92346037595733 17.780479153737712  27.249395618648055 19.45215541961384  24.34075303502831 22.947464998827563  C 21.279021358288258 26.746715132197878  19.901224322661594 32.065658263120675  19.901224322661594 40.424007173980804  C 19.901224322661594 48.782354177869145  21.279021358288258 54.25327938525822  24.34075303502831 58.05252737328526  C 27.249395618648055 61.547836952498976  30.92346037595733 63.21950559048793  35.66913990056499 63.21950559048793  C 40.87408214220029 63.21950559048793  44.395074374862745 61.39586464926316  48.52841145411182 56.988734599437045  Z " stroke-width="0" stroke-dasharray="0" stroke="rgba(121, 121, 121, 1)" fill="none" transform="matrix(1 0 0 1 723 515 )" class="stroke" mask="url(#Clip4250)" />
  </g>
</svg>