<?xml version="1.0" encoding="utf-8"?>
<svg version="1.1" xmlns:xlink="http://www.w3.org/1999/xlink" width="104px" height="99px" xmlns="http://www.w3.org/2000/svg">
  <defs>
    <pattern id="BGPattern" patternUnits="userSpaceOnUse" alignment="0 0" imageRepeat="None" />
    <mask fill="white" id="Clip4242">
      <path d="M 3 12  L 3 0  L 45 0  L 45 12  L 3 12  Z M 16 47  L 16 35  L 42 35  L 42 85  L 16 85  L 16 74  L 31 74  L 31 47  L 16 47  Z M 11.775656634277034 25.721392704352862  C 13.022923162721643 19.446101055140748  14.05009317107985 12.988388120505093  14.85714721889336 6.3482539004458935  C 14.85714721889336 6.3482539004458935  27.18306375897839 8.20895309941125  27.18306375897839 8.20895309941125  C 26.082533690433483 16.08954854931087  24.688537858086086 23.82421095637615  23.00106099580945 31.412936050423703  C 21.313583060133276 38.92869130180034  19.14920515956919 46.00662892054595  16.50793456938073 52.64676076828104  C 13.94003393850804 59.21392514566933  10.821870062362128 64.97843975780555  7.153439840010992 69.9402974877174  C 6.786597199429048 68.91873878753361  6.162961132441282 67.64179145019568  5.282537840911693 66.1094533406119  C 4.4754830178651845 64.50414657451927  3.5950607401018253 62.89883696163771  2.6412689204558464 61.29352912799922  C 1.687477100809868 59.68822342945243  0.8070545845132777 58.4112761514226  0 57.46268498089373  C 2.861375458937936 53.449417650505424  5.245856200719034 48.7429482018991  7.153439840010992 43.34327995632854  C 9.061023479302948 37.87064424041115  10.601758872482042 31.996682455705688  11.775656634277034 25.721392704352862  Z M 10 94  L 10 35  L 22 35  L 22 94  L 10 94  Z M 54 28  L 54 18  L 98.60739338518728 18  L 98.60739338518728 28  L 54 28  Z M 54 44  L 54 34  L 98 34  L 98 44  L 54 44  Z M 49 62  L 49 50  L 95 50  L 95 62  L 49 62  Z M 71 55  L 71 6  L 82 6  L 82 55  L 71 55  Z M 58.768252562801024 80.11939743312806  C 58.54814523417761 76.32503583503393  58.144613931581034 72.85903663109963  57.557663977284 69.72139080649357  C 57.557663977284 69.72139080649357  66.1417917852972 68.5174116511997  66.1417917852972 68.5174116511997  C 66.8021094328443 71.65505652687611  67.3156982535551 75.08457152117217  67.68254089413705 78.80596493722227  C 68.04938353471898 82.52735787880754  68.19610731508665 85.73797141099281  68.12273965910738 88.43780577101052  C 68.12273965910738 88.43780577101052  58.988359578349574 89.86069160752822  58.988359578349574 89.86069160752822  C 59.13509489030811 87.08788882823407  59.06172318671808 83.84079037471334  58.768252562801024 80.11939743312806  Z M 71.53438313398317 77.71143912254028  C 70.80069785281928 74.57379377239906  69.99364619033807 71.69153622909853  69.11322122907588 69.0646707628221  C 69.11322122907588 69.0646707628221  77.0370279904434 66.87561913345814  77.0370279904434 66.87561913345814  C 78.06418821893917 69.50248459973457  78.98129750389286 72.34825745893205  79.78835041867353 75.41293415256442  C 80.66877537993572 78.4776108461968  81.25572065301812 81.14095933594939  81.54919127693518 83.40298246861114  C 81.54919127693518 83.40298246861114  73.18518575059728 85.70148743858701  73.18518575059728 85.70148743858701  C 72.89171077344876 83.5124327252017  72.34143604876382 80.84908447268153  71.53438313398317 77.71143912254028  Z M 83.53015441687212 73.66168829421098  C 82.42962649512629 71.18075895479024  81.25572503606622 68.95522133654497  80.00845743422208 66.98507247407007  C 80.00845743422208 66.98507247407007  86.61163736842508 64.35820748225846  86.61163736842508 64.35820748225846  C 88.00564465036753 66.2553876882245  89.25291344487783 68.40795593826367  90.35344136662367 70.81591662117555  C 91.52733698161958 73.15090864757858  92.37107445862497 75.15754515956166  92.88465677930523 76.83581998908213  C 92.88465677930523 76.83581998908213  85.95131632177943 79.90049834334138  85.95131632177943 79.90049834334138  C 85.43773835433062 78.14925438284722  84.63068675148271 76.0696477909608  83.53015441687212 73.66168829421098  Z M 44.35131937500477 78.25870582559985  C 45.52521713679976 73.95356481810572  46.33226879928097 69.57545159561657  46.772481279912064 65.1243732751047  C 46.772481279912064 65.1243732751047  56.34709065789373 67.53233917712961  56.34709065789373 67.53233917712961  C 55.83350833721347 72.34825959402374  55.02645667473227 77.16417574073448  53.92592875298644 81.98009663209342  C 52.82540083124061 86.7230486297111  51.02787046118969 90.69982890367226  48.53333740430047 93.91044243585753  C 48.53333740430047 93.91044243585753  39.508995565190176 88.87561913345816  39.508995565190176 88.87561913345816  C 41.63668598149745 86.10281659139642  43.250791453258934 82.56384683309398  44.35131937500477 78.25870582559985  Z M 49 56  L 49 0  L 101 0  L 101 12  L 60 12  L 60 56  L 49 56  Z M 91.89417520933677 52.64676076828104  C 91.89417520933677 52.64676076828104  91.89417520933677 50.67661582014092  91.89417520933677 50.67661582014092  C 91.89417520933677 50.67661582014092  104 50.67661582014092  104 50.67661582014092  C 104 50.67661582014092  103.96330325021802 51.29684928185005  103.88993122609897 52.537315019106266  C 103.88993122609897 53.70481103230778  103.85324537430395 54.689880718897015  103.7798777183247 55.49253244131647  C 103.48640274117618 63.883909672940185  103.08288236638322 70.74294630403982  102.56930439893443 76.06964660479875  C 102.12909409491905 81.39634690555769  101.57883469599417 85.51906615316346  100.91851704844706 88.43780577101052  C 100.33156709415002 91.2835769695811  99.56118598006626 93.32669804705104  98.60739338518728 94.567162479529  C 97.58023315669153 95.88059544989962  96.44303277828242 96.82918614596366  95.19576517643826 97.41293415256442  C 94.02186956144234 97.99668162539226  92.62785738956865 98.39800739763982  91.01374714714257 98.61691330785831  C 89.61974427806486 98.83581866947685  87.85889757573906 98.94527332969405  85.73120930623088 98.94527332969405  C 83.60351674312452 99.01824196396237  81.32908545405277 99.01824196396237  78.90792235647932 98.94527332969405  C 78.83455470050006 97.19402936919988  78.50440600693464 95.26036269988772  77.9174560526376 93.1442766430113  C 77.33051045157202 91.02819034890244  76.56014025038355 89.20397832498045  75.60634765550458 87.67163997816427  C 77.58730053851262 87.89054541391793  79.42151457628866 88.03648483978681  81.10899251196483 88.10945334061192  C 82.796470447641 88.182421841437  84.043728329256 88.21890668122383  84.85078124403667 88.21890668122383  C 85.65783415881732 88.21890668122383  86.2814762189525 88.10945215444985  86.72169087619935 87.89054665938808  C 87.23526884364814 87.67164122363442  87.74884239823218 87.30680037272231  88.26242471891244 86.7960208447061  C 88.92274236645956 86.06633599955245  89.4730170315112 84.53399510248785  89.91322733552657 82.19900331331725  C 90.35343763954194 79.79104286763777  90.72027216999405 76.21558866246468  91.01374714714257 71.47263666484702  C 91.3805897877245 66.72968514169418  91.67406788071335 60.4543896967635  91.89417520933677 52.64676076828104  Z " fill-rule="evenodd" />
    </mask>
  </defs>
  <g transform="matrix(1 0 0 1 -346 -637 )">
    <path d="M 3 12  L 3 0  L 45 0  L 45 12  L 3 12  Z M 16 47  L 16 35  L 42 35  L 42 85  L 16 85  L 16 74  L 31 74  L 31 47  L 16 47  Z M 11.775656634277034 25.721392704352862  C 13.022923162721643 19.446101055140748  14.05009317107985 12.988388120505093  14.85714721889336 6.3482539004458935  C 14.85714721889336 6.3482539004458935  27.18306375897839 8.20895309941125  27.18306375897839 8.20895309941125  C 26.082533690433483 16.08954854931087  24.688537858086086 23.82421095637615  23.00106099580945 31.412936050423703  C 21.313583060133276 38.92869130180034  19.14920515956919 46.00662892054595  16.50793456938073 52.64676076828104  C 13.94003393850804 59.21392514566933  10.821870062362128 64.97843975780555  7.153439840010992 69.9402974877174  C 6.786597199429048 68.91873878753361  6.162961132441282 67.64179145019568  5.282537840911693 66.1094533406119  C 4.4754830178651845 64.50414657451927  3.5950607401018253 62.89883696163771  2.6412689204558464 61.29352912799922  C 1.687477100809868 59.68822342945243  0.8070545845132777 58.4112761514226  0 57.46268498089373  C 2.861375458937936 53.449417650505424  5.245856200719034 48.7429482018991  7.153439840010992 43.34327995632854  C 9.061023479302948 37.87064424041115  10.601758872482042 31.996682455705688  11.775656634277034 25.721392704352862  Z M 10 94  L 10 35  L 22 35  L 22 94  L 10 94  Z M 54 28  L 54 18  L 98.60739338518728 18  L 98.60739338518728 28  L 54 28  Z M 54 44  L 54 34  L 98 34  L 98 44  L 54 44  Z M 49 62  L 49 50  L 95 50  L 95 62  L 49 62  Z M 71 55  L 71 6  L 82 6  L 82 55  L 71 55  Z M 58.768252562801024 80.11939743312806  C 58.54814523417761 76.32503583503393  58.144613931581034 72.85903663109963  57.557663977284 69.72139080649357  C 57.557663977284 69.72139080649357  66.1417917852972 68.5174116511997  66.1417917852972 68.5174116511997  C 66.8021094328443 71.65505652687611  67.3156982535551 75.08457152117217  67.68254089413705 78.80596493722227  C 68.04938353471898 82.52735787880754  68.19610731508665 85.73797141099281  68.12273965910738 88.43780577101052  C 68.12273965910738 88.43780577101052  58.988359578349574 89.86069160752822  58.988359578349574 89.86069160752822  C 59.13509489030811 87.08788882823407  59.06172318671808 83.84079037471334  58.768252562801024 80.11939743312806  Z M 71.53438313398317 77.71143912254028  C 70.80069785281928 74.57379377239906  69.99364619033807 71.69153622909853  69.11322122907588 69.0646707628221  C 69.11322122907588 69.0646707628221  77.0370279904434 66.87561913345814  77.0370279904434 66.87561913345814  C 78.06418821893917 69.50248459973457  78.98129750389286 72.34825745893205  79.78835041867353 75.41293415256442  C 80.66877537993572 78.4776108461968  81.25572065301812 81.14095933594939  81.54919127693518 83.40298246861114  C 81.54919127693518 83.40298246861114  73.18518575059728 85.70148743858701  73.18518575059728 85.70148743858701  C 72.89171077344876 83.5124327252017  72.34143604876382 80.84908447268153  71.53438313398317 77.71143912254028  Z M 83.53015441687212 73.66168829421098  C 82.42962649512629 71.18075895479024  81.25572503606622 68.95522133654497  80.00845743422208 66.98507247407007  C 80.00845743422208 66.98507247407007  86.61163736842508 64.35820748225846  86.61163736842508 64.35820748225846  C 88.00564465036753 66.2553876882245  89.25291344487783 68.40795593826367  90.35344136662367 70.81591662117555  C 91.52733698161958 73.15090864757858  92.37107445862497 75.15754515956166  92.88465677930523 76.83581998908213  C 92.88465677930523 76.83581998908213  85.95131632177943 79.90049834334138  85.95131632177943 79.90049834334138  C 85.43773835433062 78.14925438284722  84.63068675148271 76.0696477909608  83.53015441687212 73.66168829421098  Z M 44.35131937500477 78.25870582559985  C 45.52521713679976 73.95356481810572  46.33226879928097 69.57545159561657  46.772481279912064 65.1243732751047  C 46.772481279912064 65.1243732751047  56.34709065789373 67.53233917712961  56.34709065789373 67.53233917712961  C 55.83350833721347 72.34825959402374  55.02645667473227 77.16417574073448  53.92592875298644 81.98009663209342  C 52.82540083124061 86.7230486297111  51.02787046118969 90.69982890367226  48.53333740430047 93.91044243585753  C 48.53333740430047 93.91044243585753  39.508995565190176 88.87561913345816  39.508995565190176 88.87561913345816  C 41.63668598149745 86.10281659139642  43.250791453258934 82.56384683309398  44.35131937500477 78.25870582559985  Z M 49 56  L 49 0  L 101 0  L 101 12  L 60 12  L 60 56  L 49 56  Z M 91.89417520933677 52.64676076828104  C 91.89417520933677 52.64676076828104  91.89417520933677 50.67661582014092  91.89417520933677 50.67661582014092  C 91.89417520933677 50.67661582014092  104 50.67661582014092  104 50.67661582014092  C 104 50.67661582014092  103.96330325021802 51.29684928185005  103.88993122609897 52.537315019106266  C 103.88993122609897 53.70481103230778  103.85324537430395 54.689880718897015  103.7798777183247 55.49253244131647  C 103.48640274117618 63.883909672940185  103.08288236638322 70.74294630403982  102.56930439893443 76.06964660479875  C 102.12909409491905 81.39634690555769  101.57883469599417 85.51906615316346  100.91851704844706 88.43780577101052  C 100.33156709415002 91.2835769695811  99.56118598006626 93.32669804705104  98.60739338518728 94.567162479529  C 97.58023315669153 95.88059544989962  96.44303277828242 96.82918614596366  95.19576517643826 97.41293415256442  C 94.02186956144234 97.99668162539226  92.62785738956865 98.39800739763982  91.01374714714257 98.61691330785831  C 89.61974427806486 98.83581866947685  87.85889757573906 98.94527332969405  85.73120930623088 98.94527332969405  C 83.60351674312452 99.01824196396237  81.32908545405277 99.01824196396237  78.90792235647932 98.94527332969405  C 78.83455470050006 97.19402936919988  78.50440600693464 95.26036269988772  77.9174560526376 93.1442766430113  C 77.33051045157202 91.02819034890244  76.56014025038355 89.20397832498045  75.60634765550458 87.67163997816427  C 77.58730053851262 87.89054541391793  79.42151457628866 88.03648483978681  81.10899251196483 88.10945334061192  C 82.796470447641 88.182421841437  84.043728329256 88.21890668122383  84.85078124403667 88.21890668122383  C 85.65783415881732 88.21890668122383  86.2814762189525 88.10945215444985  86.72169087619935 87.89054665938808  C 87.23526884364814 87.67164122363442  87.74884239823218 87.30680037272231  88.26242471891244 86.7960208447061  C 88.92274236645956 86.06633599955245  89.4730170315112 84.53399510248785  89.91322733552657 82.19900331331725  C 90.35343763954194 79.79104286763777  90.72027216999405 76.21558866246468  91.01374714714257 71.47263666484702  C 91.3805897877245 66.72968514169418  91.67406788071335 60.4543896967635  91.89417520933677 52.64676076828104  Z " fill-rule="nonzero" fill="rgba(255, 255, 255, 1)" stroke="none" transform="matrix(1 0 0 1 346 637 )" class="fill" />
    <path d="M 3 12  L 3 0  L 45 0  L 45 12  L 3 12  Z " stroke-width="0" stroke-dasharray="0" stroke="rgba(121, 121, 121, 1)" fill="none" transform="matrix(1 0 0 1 346 637 )" class="stroke" mask="url(#Clip4242)" />
    <path d="M 16 47  L 16 35  L 42 35  L 42 85  L 16 85  L 16 74  L 31 74  L 31 47  L 16 47  Z " stroke-width="0" stroke-dasharray="0" stroke="rgba(121, 121, 121, 1)" fill="none" transform="matrix(1 0 0 1 346 637 )" class="stroke" mask="url(#Clip4242)" />
    <path d="M 11.775656634277034 25.721392704352862  C 13.022923162721643 19.446101055140748  14.05009317107985 12.988388120505093  14.85714721889336 6.3482539004458935  C 14.85714721889336 6.3482539004458935  27.18306375897839 8.20895309941125  27.18306375897839 8.20895309941125  C 26.082533690433483 16.08954854931087  24.688537858086086 23.82421095637615  23.00106099580945 31.412936050423703  C 21.313583060133276 38.92869130180034  19.14920515956919 46.00662892054595  16.50793456938073 52.64676076828104  C 13.94003393850804 59.21392514566933  10.821870062362128 64.97843975780555  7.153439840010992 69.9402974877174  C 6.786597199429048 68.91873878753361  6.162961132441282 67.64179145019568  5.282537840911693 66.1094533406119  C 4.4754830178651845 64.50414657451927  3.5950607401018253 62.89883696163771  2.6412689204558464 61.29352912799922  C 1.687477100809868 59.68822342945243  0.8070545845132777 58.4112761514226  0 57.46268498089373  C 2.861375458937936 53.449417650505424  5.245856200719034 48.7429482018991  7.153439840010992 43.34327995632854  C 9.061023479302948 37.87064424041115  10.601758872482042 31.996682455705688  11.775656634277034 25.721392704352862  Z " stroke-width="0" stroke-dasharray="0" stroke="rgba(121, 121, 121, 1)" fill="none" transform="matrix(1 0 0 1 346 637 )" class="stroke" mask="url(#Clip4242)" />
    <path d="M 10 94  L 10 35  L 22 35  L 22 94  L 10 94  Z " stroke-width="0" stroke-dasharray="0" stroke="rgba(121, 121, 121, 1)" fill="none" transform="matrix(1 0 0 1 346 637 )" class="stroke" mask="url(#Clip4242)" />
    <path d="M 54 28  L 54 18  L 98.60739338518728 18  L 98.60739338518728 28  L 54 28  Z " stroke-width="0" stroke-dasharray="0" stroke="rgba(121, 121, 121, 1)" fill="none" transform="matrix(1 0 0 1 346 637 )" class="stroke" mask="url(#Clip4242)" />
    <path d="M 54 44  L 54 34  L 98 34  L 98 44  L 54 44  Z " stroke-width="0" stroke-dasharray="0" stroke="rgba(121, 121, 121, 1)" fill="none" transform="matrix(1 0 0 1 346 637 )" class="stroke" mask="url(#Clip4242)" />
    <path d="M 49 62  L 49 50  L 95 50  L 95 62  L 49 62  Z " stroke-width="0" stroke-dasharray="0" stroke="rgba(121, 121, 121, 1)" fill="none" transform="matrix(1 0 0 1 346 637 )" class="stroke" mask="url(#Clip4242)" />
    <path d="M 71 55  L 71 6  L 82 6  L 82 55  L 71 55  Z " stroke-width="0" stroke-dasharray="0" stroke="rgba(121, 121, 121, 1)" fill="none" transform="matrix(1 0 0 1 346 637 )" class="stroke" mask="url(#Clip4242)" />
    <path d="M 58.768252562801024 80.11939743312806  C 58.54814523417761 76.32503583503393  58.144613931581034 72.85903663109963  57.557663977284 69.72139080649357  C 57.557663977284 69.72139080649357  66.1417917852972 68.5174116511997  66.1417917852972 68.5174116511997  C 66.8021094328443 71.65505652687611  67.3156982535551 75.08457152117217  67.68254089413705 78.80596493722227  C 68.04938353471898 82.52735787880754  68.19610731508665 85.73797141099281  68.12273965910738 88.43780577101052  C 68.12273965910738 88.43780577101052  58.988359578349574 89.86069160752822  58.988359578349574 89.86069160752822  C 59.13509489030811 87.08788882823407  59.06172318671808 83.84079037471334  58.768252562801024 80.11939743312806  Z " stroke-width="0" stroke-dasharray="0" stroke="rgba(121, 121, 121, 1)" fill="none" transform="matrix(1 0 0 1 346 637 )" class="stroke" mask="url(#Clip4242)" />
    <path d="M 71.53438313398317 77.71143912254028  C 70.80069785281928 74.57379377239906  69.99364619033807 71.69153622909853  69.11322122907588 69.0646707628221  C 69.11322122907588 69.0646707628221  77.0370279904434 66.87561913345814  77.0370279904434 66.87561913345814  C 78.06418821893917 69.50248459973457  78.98129750389286 72.34825745893205  79.78835041867353 75.41293415256442  C 80.66877537993572 78.4776108461968  81.25572065301812 81.14095933594939  81.54919127693518 83.40298246861114  C 81.54919127693518 83.40298246861114  73.18518575059728 85.70148743858701  73.18518575059728 85.70148743858701  C 72.89171077344876 83.5124327252017  72.34143604876382 80.84908447268153  71.53438313398317 77.71143912254028  Z " stroke-width="0" stroke-dasharray="0" stroke="rgba(121, 121, 121, 1)" fill="none" transform="matrix(1 0 0 1 346 637 )" class="stroke" mask="url(#Clip4242)" />
    <path d="M 83.53015441687212 73.66168829421098  C 82.42962649512629 71.18075895479024  81.25572503606622 68.95522133654497  80.00845743422208 66.98507247407007  C 80.00845743422208 66.98507247407007  86.61163736842508 64.35820748225846  86.61163736842508 64.35820748225846  C 88.00564465036753 66.2553876882245  89.25291344487783 68.40795593826367  90.35344136662367 70.81591662117555  C 91.52733698161958 73.15090864757858  92.37107445862497 75.15754515956166  92.88465677930523 76.83581998908213  C 92.88465677930523 76.83581998908213  85.95131632177943 79.90049834334138  85.95131632177943 79.90049834334138  C 85.43773835433062 78.14925438284722  84.63068675148271 76.0696477909608  83.53015441687212 73.66168829421098  Z " stroke-width="0" stroke-dasharray="0" stroke="rgba(121, 121, 121, 1)" fill="none" transform="matrix(1 0 0 1 346 637 )" class="stroke" mask="url(#Clip4242)" />
    <path d="M 44.35131937500477 78.25870582559985  C 45.52521713679976 73.95356481810572  46.33226879928097 69.57545159561657  46.772481279912064 65.1243732751047  C 46.772481279912064 65.1243732751047  56.34709065789373 67.53233917712961  56.34709065789373 67.53233917712961  C 55.83350833721347 72.34825959402374  55.02645667473227 77.16417574073448  53.92592875298644 81.98009663209342  C 52.82540083124061 86.7230486297111  51.02787046118969 90.69982890367226  48.53333740430047 93.91044243585753  C 48.53333740430047 93.91044243585753  39.508995565190176 88.87561913345816  39.508995565190176 88.87561913345816  C 41.63668598149745 86.10281659139642  43.250791453258934 82.56384683309398  44.35131937500477 78.25870582559985  Z " stroke-width="0" stroke-dasharray="0" stroke="rgba(121, 121, 121, 1)" fill="none" transform="matrix(1 0 0 1 346 637 )" class="stroke" mask="url(#Clip4242)" />
    <path d="M 49 56  L 49 0  L 101 0  L 101 12  L 60 12  L 60 56  L 49 56  Z " stroke-width="0" stroke-dasharray="0" stroke="rgba(121, 121, 121, 1)" fill="none" transform="matrix(1 0 0 1 346 637 )" class="stroke" mask="url(#Clip4242)" />
    <path d="M 91.89417520933677 52.64676076828104  C 91.89417520933677 52.64676076828104  91.89417520933677 50.67661582014092  91.89417520933677 50.67661582014092  C 91.89417520933677 50.67661582014092  104 50.67661582014092  104 50.67661582014092  C 104 50.67661582014092  103.96330325021802 51.29684928185005  103.88993122609897 52.537315019106266  C 103.88993122609897 53.70481103230778  103.85324537430395 54.689880718897015  103.7798777183247 55.49253244131647  C 103.48640274117618 63.883909672940185  103.08288236638322 70.74294630403982  102.56930439893443 76.06964660479875  C 102.12909409491905 81.39634690555769  101.57883469599417 85.51906615316346  100.91851704844706 88.43780577101052  C 100.33156709415002 91.2835769695811  99.56118598006626 93.32669804705104  98.60739338518728 94.567162479529  C 97.58023315669153 95.88059544989962  96.44303277828242 96.82918614596366  95.19576517643826 97.41293415256442  C 94.02186956144234 97.99668162539226  92.62785738956865 98.39800739763982  91.01374714714257 98.61691330785831  C 89.61974427806486 98.83581866947685  87.85889757573906 98.94527332969405  85.73120930623088 98.94527332969405  C 83.60351674312452 99.01824196396237  81.32908545405277 99.01824196396237  78.90792235647932 98.94527332969405  C 78.83455470050006 97.19402936919988  78.50440600693464 95.26036269988772  77.9174560526376 93.1442766430113  C 77.33051045157202 91.02819034890244  76.56014025038355 89.20397832498045  75.60634765550458 87.67163997816427  C 77.58730053851262 87.89054541391793  79.42151457628866 88.03648483978681  81.10899251196483 88.10945334061192  C 82.796470447641 88.182421841437  84.043728329256 88.21890668122383  84.85078124403667 88.21890668122383  C 85.65783415881732 88.21890668122383  86.2814762189525 88.10945215444985  86.72169087619935 87.89054665938808  C 87.23526884364814 87.67164122363442  87.74884239823218 87.30680037272231  88.26242471891244 86.7960208447061  C 88.92274236645956 86.06633599955245  89.4730170315112 84.53399510248785  89.91322733552657 82.19900331331725  C 90.35343763954194 79.79104286763777  90.72027216999405 76.21558866246468  91.01374714714257 71.47263666484702  C 91.3805897877245 66.72968514169418  91.67406788071335 60.4543896967635  91.89417520933677 52.64676076828104  Z " stroke-width="0" stroke-dasharray="0" stroke="rgba(121, 121, 121, 1)" fill="none" transform="matrix(1 0 0 1 346 637 )" class="stroke" mask="url(#Clip4242)" />
  </g>
</svg>