<?xml version="1.0" encoding="utf-8"?>
<svg version="1.1" xmlns:xlink="http://www.w3.org/1999/xlink" width="4px" height="8px" xmlns="http://www.w3.org/2000/svg">
  <defs>
    <pattern id="BGPattern" patternUnits="userSpaceOnUse" alignment="0 0" imageRepeat="None" />
    <mask fill="white" id="Clip4262">
      <path d="M 3.035893714909683 5.964912796600437  C 2.3931587109349297 6.884990796612099  1.5316248561708272 7.563352764679474  0.4512830362493976 8  C 0.4512830362493976 8  0 6.76023355640659  0 6.76023355640659  C 0.8341879164821563 6.370370008895383  1.4700828651660416 5.8713457378592215  1.9076896811127175 5.263158588531623  C 2.3589715224907035 4.654971439204024  2.584610678660286 3.9064320540019972  2.584610678660286 3.017543094695903  C 2.584610678660286 3.017543094695903  2.215383630417269 1.052631312103222  2.215383630417269 1.052631312103222  C 2.215383630417269 1.052631312103222  3.323079002452432 2.8304099912212277  3.323079002452432 2.8304099912212277  C 3.172651583054567 3.0331390885287077  3.001708680012769 3.173489763781823  2.810255753611513 3.251462516062517  C 2.6188028272102564 3.3138405776688113  2.4273523322333848 3.345029067799854  2.2358994058321287 3.345029067799854  C 1.81196783761842 3.345029067799854  1.449574453493604 3.204678289561576  1.148719809211825 2.9239765429585654  C 0.8478651649300462 2.6432747963555547  0.6974367729624275 2.230018977155166  0.6974367729624275 1.6842100993651552  C 0.6974367729624275 1.1228064160326794  0.8478651649300462 0.7017541446933299  1.148719809211825 0.4210525248412888  C 1.4632496734388645 0.14035068317505095  1.8324766938941737 0  2.2564080675939313 0  C 2.8307668606915537 0  3.2615371503861823 0.24951207214259585  3.5487169637506026 0.7485374839374834  C 3.8495713857307234 1.2319683120041027  4 1.8791429505039998  4 2.690059149607465  C 4 3.95321710438424  3.678628496582779 5.044834796588776  3.035893714909683 5.964912796600437  Z " fill-rule="evenodd" />
    </mask>
  </defs>
  <g transform="matrix(1 0 0 1 -718 -387 )">
    <path d="M 3.035893714909683 5.964912796600437  C 2.3931587109349297 6.884990796612099  1.5316248561708272 7.563352764679474  0.4512830362493976 8  C 0.4512830362493976 8  0 6.76023355640659  0 6.76023355640659  C 0.8341879164821563 6.370370008895383  1.4700828651660416 5.8713457378592215  1.9076896811127175 5.263158588531623  C 2.3589715224907035 4.654971439204024  2.584610678660286 3.9064320540019972  2.584610678660286 3.017543094695903  C 2.584610678660286 3.017543094695903  2.215383630417269 1.052631312103222  2.215383630417269 1.052631312103222  C 2.215383630417269 1.052631312103222  3.323079002452432 2.8304099912212277  3.323079002452432 2.8304099912212277  C 3.172651583054567 3.0331390885287077  3.001708680012769 3.173489763781823  2.810255753611513 3.251462516062517  C 2.6188028272102564 3.3138405776688113  2.4273523322333848 3.345029067799854  2.2358994058321287 3.345029067799854  C 1.81196783761842 3.345029067799854  1.449574453493604 3.204678289561576  1.148719809211825 2.9239765429585654  C 0.8478651649300462 2.6432747963555547  0.6974367729624275 2.230018977155166  0.6974367729624275 1.6842100993651552  C 0.6974367729624275 1.1228064160326794  0.8478651649300462 0.7017541446933299  1.148719809211825 0.4210525248412888  C 1.4632496734388645 0.14035068317505095  1.8324766938941737 0  2.2564080675939313 0  C 2.8307668606915537 0  3.2615371503861823 0.24951207214259585  3.5487169637506026 0.7485374839374834  C 3.8495713857307234 1.2319683120041027  4 1.8791429505039998  4 2.690059149607465  C 4 3.95321710438424  3.678628496582779 5.044834796588776  3.035893714909683 5.964912796600437  Z " fill-rule="nonzero" fill="rgba(255, 255, 255, 1)" stroke="none" transform="matrix(1 0 0 1 718 387 )" class="fill" />
    <path d="M 3.035893714909683 5.964912796600437  C 2.3931587109349297 6.884990796612099  1.5316248561708272 7.563352764679474  0.4512830362493976 8  C 0.4512830362493976 8  0 6.76023355640659  0 6.76023355640659  C 0.8341879164821563 6.370370008895383  1.4700828651660416 5.8713457378592215  1.9076896811127175 5.263158588531623  C 2.3589715224907035 4.654971439204024  2.584610678660286 3.9064320540019972  2.584610678660286 3.017543094695903  C 2.584610678660286 3.017543094695903  2.215383630417269 1.052631312103222  2.215383630417269 1.052631312103222  C 2.215383630417269 1.052631312103222  3.323079002452432 2.8304099912212277  3.323079002452432 2.8304099912212277  C 3.172651583054567 3.0331390885287077  3.001708680012769 3.173489763781823  2.810255753611513 3.251462516062517  C 2.6188028272102564 3.3138405776688113  2.4273523322333848 3.345029067799854  2.2358994058321287 3.345029067799854  C 1.81196783761842 3.345029067799854  1.449574453493604 3.204678289561576  1.148719809211825 2.9239765429585654  C 0.8478651649300462 2.6432747963555547  0.6974367729624275 2.230018977155166  0.6974367729624275 1.6842100993651552  C 0.6974367729624275 1.1228064160326794  0.8478651649300462 0.7017541446933299  1.148719809211825 0.4210525248412888  C 1.4632496734388645 0.14035068317505095  1.8324766938941737 0  2.2564080675939313 0  C 2.8307668606915537 0  3.2615371503861823 0.24951207214259585  3.5487169637506026 0.7485374839374834  C 3.8495713857307234 1.2319683120041027  4 1.8791429505039998  4 2.690059149607465  C 4 3.95321710438424  3.678628496582779 5.044834796588776  3.035893714909683 5.964912796600437  Z " stroke-width="0" stroke-dasharray="0" stroke="rgba(121, 121, 121, 1)" fill="none" transform="matrix(1 0 0 1 718 387 )" class="stroke" mask="url(#Clip4262)" />
  </g>
</svg>