<?xml version="1.0" encoding="utf-8"?>
<svg version="1.1" xmlns:xlink="http://www.w3.org/1999/xlink" width="42px" height="100px" xmlns="http://www.w3.org/2000/svg">
  <defs>
    <pattern id="BGPattern" patternUnits="userSpaceOnUse" alignment="0 0" imageRepeat="None" />
    <mask fill="white" id="Clip4253">
      <path d="M 42 83.33333333333334  L 42 100  C 42 100  31.234665831680758 100  31.234665831680758 100  C 15.162463741171763 100  8.339365236753297 88.63635438930474  8.339365236753297 77.42423385126818  C 8.339365236753297 77.42423385126818  8.339365236753297 38.333335614850675  8.339365236753297 38.333335614850675  L 0 38.333335614850675  L 0 23.33332877029866  L 9 23.33332877029866  L 9 0  L 28 0  L 28 24  L 42 24  L 42 39  L 28.050534043071355 39  C 28.050534043071355 39  28.050534043071355 76.21212453069188  28.050534043071355 76.21212453069188  C 28.050534043071355 80.75757916256754  30.173273506266742 83.33333333333334  34.873634450126985 83.33333333333334  C 34.873634450126985 83.33333333333334  42 83.33333333333334  42 83.33333333333334  Z " fill-rule="evenodd" />
    </mask>
  </defs>
  <g transform="matrix(1 0 0 1 -502 -495 )">
    <path d="M 42 83.33333333333334  L 42 100  C 42 100  31.234665831680758 100  31.234665831680758 100  C 15.162463741171763 100  8.339365236753297 88.63635438930474  8.339365236753297 77.42423385126818  C 8.339365236753297 77.42423385126818  8.339365236753297 38.333335614850675  8.339365236753297 38.333335614850675  L 0 38.333335614850675  L 0 23.33332877029866  L 9 23.33332877029866  L 9 0  L 28 0  L 28 24  L 42 24  L 42 39  L 28.050534043071355 39  C 28.050534043071355 39  28.050534043071355 76.21212453069188  28.050534043071355 76.21212453069188  C 28.050534043071355 80.75757916256754  30.173273506266742 83.33333333333334  34.873634450126985 83.33333333333334  C 34.873634450126985 83.33333333333334  42 83.33333333333334  42 83.33333333333334  Z " fill-rule="nonzero" fill="rgba(255, 255, 255, 1)" stroke="none" transform="matrix(1 0 0 1 502 495 )" class="fill" />
    <path d="M 42 83.33333333333334  L 42 100  C 42 100  31.234665831680758 100  31.234665831680758 100  C 15.162463741171763 100  8.339365236753297 88.63635438930474  8.339365236753297 77.42423385126818  C 8.339365236753297 77.42423385126818  8.339365236753297 38.333335614850675  8.339365236753297 38.333335614850675  L 0 38.333335614850675  L 0 23.33332877029866  L 9 23.33332877029866  L 9 0  L 28 0  L 28 24  L 42 24  L 42 39  L 28.050534043071355 39  C 28.050534043071355 39  28.050534043071355 76.21212453069188  28.050534043071355 76.21212453069188  C 28.050534043071355 80.75757916256754  30.173273506266742 83.33333333333334  34.873634450126985 83.33333333333334  C 34.873634450126985 83.33333333333334  42 83.33333333333334  42 83.33333333333334  Z " stroke-width="0" stroke-dasharray="0" stroke="rgba(121, 121, 121, 1)" fill="none" transform="matrix(1 0 0 1 502 495 )" class="stroke" mask="url(#Clip4253)" />
  </g>
</svg>