<?xml version="1.0" encoding="utf-8"?>
<svg version="1.1" xmlns:xlink="http://www.w3.org/1999/xlink" width="13px" height="16px" xmlns="http://www.w3.org/2000/svg">
  <defs>
    <pattern id="BGPattern" patternUnits="userSpaceOnUse" alignment="0 0" imageRepeat="None" />
    <mask fill="white" id="Clip4276">
      <path d="M 7.2197662616635805 0  L 13 16  L 11.206133297728666 16  L 9.943783224294041 12.382022777010143  L 3.056216775705959 12.382022777010143  L 1.7938667022713335 16  L 0 16  L 5.802383464625542 0  L 7.2197662616635805 0  Z M 3.5655836782535437 10.89887710088862  L 9.45656604803558 10.89887710088862  L 6.5332169092234595 2.4494378807292225  L 3.5655836782535437 10.89887710088862  Z " fill-rule="evenodd" />
    </mask>
  </defs>
  <g transform="matrix(1 0 0 1 -452 -376 )">
    <path d="M 7.2197662616635805 0  L 13 16  L 11.206133297728666 16  L 9.943783224294041 12.382022777010143  L 3.056216775705959 12.382022777010143  L 1.7938667022713335 16  L 0 16  L 5.802383464625542 0  L 7.2197662616635805 0  Z M 3.5655836782535437 10.89887710088862  L 9.45656604803558 10.89887710088862  L 6.5332169092234595 2.4494378807292225  L 3.5655836782535437 10.89887710088862  Z " fill-rule="nonzero" fill="rgba(255, 255, 255, 1)" stroke="none" transform="matrix(1 0 0 1 452 376 )" class="fill" />
    <path d="M 7.2197662616635805 0  L 13 16  L 11.206133297728666 16  L 9.943783224294041 12.382022777010143  L 3.056216775705959 12.382022777010143  L 1.7938667022713335 16  L 0 16  L 5.802383464625542 0  L 7.2197662616635805 0  Z " stroke-width="0" stroke-dasharray="0" stroke="rgba(121, 121, 121, 1)" fill="none" transform="matrix(1 0 0 1 452 376 )" class="stroke" mask="url(#Clip4276)" />
    <path d="M 3.5655836782535437 10.89887710088862  L 9.45656604803558 10.89887710088862  L 6.5332169092234595 2.4494378807292225  L 3.5655836782535437 10.89887710088862  Z " stroke-width="0" stroke-dasharray="0" stroke="rgba(121, 121, 121, 1)" fill="none" transform="matrix(1 0 0 1 452 376 )" class="stroke" mask="url(#Clip4276)" />
  </g>
</svg>