<?xml version="1.0" encoding="utf-8"?>
<svg version="1.1" xmlns:xlink="http://www.w3.org/1999/xlink" width="11px" height="16px" xmlns="http://www.w3.org/2000/svg">
  <defs>
    <pattern id="BGPattern" patternUnits="userSpaceOnUse" alignment="0 0" imageRepeat="None" />
    <mask fill="white" id="Clip4291">
      <path d="M 11 0  C 11 0  11 10.629526579444551  11 10.629526579444551  C 11 13.793872201970295  8.676055844799695 16  5.488933925924272 16  C 2.301811527333484 16  0 13.793872201970295  0 10.629526579444551  C 0 10.629526579444551  0 0  0 0  L 1.6820931499087843 0  C 1.6820931499087843 0  1.6820931499087843 10.495821879048671  1.6820931499087843 10.495821879048671  C 1.6820931499087843 12.902507210667531  3.1871233580215215 14.484679418186236  5.488933925924272 14.484679418186236  C 7.790744493827022 14.484679418186236  9.317906850091216 12.902507210667531  9.317906850091216 10.495821879048671  C 9.317906850091216 10.495821879048671  9.317906850091216 0  9.317906850091216 0  L 11 0  Z " fill-rule="evenodd" />
    </mask>
  </defs>
  <g transform="matrix(1 0 0 1 -247 -376 )">
    <path d="M 11 0  C 11 0  11 10.629526579444551  11 10.629526579444551  C 11 13.793872201970295  8.676055844799695 16  5.488933925924272 16  C 2.301811527333484 16  0 13.793872201970295  0 10.629526579444551  C 0 10.629526579444551  0 0  0 0  L 1.6820931499087843 0  C 1.6820931499087843 0  1.6820931499087843 10.495821879048671  1.6820931499087843 10.495821879048671  C 1.6820931499087843 12.902507210667531  3.1871233580215215 14.484679418186236  5.488933925924272 14.484679418186236  C 7.790744493827022 14.484679418186236  9.317906850091216 12.902507210667531  9.317906850091216 10.495821879048671  C 9.317906850091216 10.495821879048671  9.317906850091216 0  9.317906850091216 0  L 11 0  Z " fill-rule="nonzero" fill="rgba(255, 255, 255, 1)" stroke="none" transform="matrix(1 0 0 1 247 376 )" class="fill" />
    <path d="M 11 0  C 11 0  11 10.629526579444551  11 10.629526579444551  C 11 13.793872201970295  8.676055844799695 16  5.488933925924272 16  C 2.301811527333484 16  0 13.793872201970295  0 10.629526579444551  C 0 10.629526579444551  0 0  0 0  L 1.6820931499087843 0  C 1.6820931499087843 0  1.6820931499087843 10.495821879048671  1.6820931499087843 10.495821879048671  C 1.6820931499087843 12.902507210667531  3.1871233580215215 14.484679418186236  5.488933925924272 14.484679418186236  C 7.790744493827022 14.484679418186236  9.317906850091216 12.902507210667531  9.317906850091216 10.495821879048671  C 9.317906850091216 10.495821879048671  9.317906850091216 0  9.317906850091216 0  L 11 0  Z " stroke-width="0" stroke-dasharray="0" stroke="rgba(121, 121, 121, 1)" fill="none" transform="matrix(1 0 0 1 247 376 )" class="stroke" mask="url(#Clip4291)" />
  </g>
</svg>