<?xml version="1.0" encoding="utf-8"?>
<svg version="1.1" xmlns:xlink="http://www.w3.org/1999/xlink" width="20px" height="20px" xmlns="http://www.w3.org/2000/svg">
  <defs>
    <pattern id="BGPattern" patternUnits="userSpaceOnUse" alignment="0 0" imageRepeat="None" />
    <mask fill="white" id="Clip4258">
      <path d="M 0.7551277849854325 5  L 0.7551277849854325 3  L 19.374325685238475 3  L 19.374325685238475 5  L 0.7551277849854325 5  Z M 9 20  L 9 0  L 10.765916821169855 0  L 10.765916821169855 20  L 9 20  Z M 7.529669849507162 12.078346763295096  C 8.205685537285772 11.280377849454554  8.788207185268028 10.467900107593781  9.277239323567834 9.640914127332358  C 9.277239323567834 9.640914127332358  10.636463350945949 10.184983945838017  10.636463350945949 10.184983945838017  C 10.104281000896343 11.113529599610567  9.48580044856428 12.020313043187041  8.781018479030214 12.905333038366312  C 8.076236100324568 13.77584450033514  7.306725700539153 14.595575093714137  6.472493943325387 15.364526882171837  C 5.638262186111622 16.118970137419097  4.768069741729029 16.808124226713918  3.86192128642422 17.431990683067212  C 2.9701563811687177 18.04134872413398  2.0640050032097754 18.563655123723414  1.143473231667991 18.99891085470783  C 1.0715566577897477 18.853825596305867  0.9636800689531267 18.694232600679904  0.8198470381028056 18.52013032007853  C 0.6903972358098363 18.360536557947103  0.553756549901724 18.20094354758065  0.4099235190514028 18.041349785449224  C 0.2660904882010816 17.867247490107363  0.12944980229296946 17.729415355922683  0 17.62785570452229  C 0.9061483383986436 17.25063404741768  1.8051049602257168 16.779106806521288  2.6968699823873847 16.21327436508584  C 3.6030184376921937 15.647441982612353  4.466016125942918 15.016322674740838  5.285864566919708 14.319913434411424  C 6.105713183255745 13.623504194082013  6.853654570900129 12.876315441287804  7.529669849507162 12.078346763295096  Z M 9.341958576685208 10.250272286323042  C 9.341958576685208 10.250272286323042  10.701182604063321 9.706203411208715  10.701182604063321 9.706203411208715  C 11.334047641694013 10.808851227658725  12.13951744268044 11.875228005892422  13.117582537623209 12.905333038366312  C 14.09564763256598 13.920929537629759  15.17439898072788 14.834966835077743  16.353829509285905 15.647444282128724  C 17.547644055517896 16.45992161125579  18.76303527124475 17.105550100919288  20 17.584331402054044  C 19.870550197707033 17.700399579294636  19.726714463401635 17.845483452090576  19.568498408579753 18.019585747432444  C 19.42466461783936 18.193688042774305  19.280829745716932 18.367790190711275  19.136996817159506 18.54189247131265  C 19.00754701486654 18.730503285124463  18.899670206830855 18.904605433061434  18.81337062359432 19.064199195192856  C 17.57640589483907 18.49836675375741  16.361014679112216 17.765686239363852  15.167200132880224 16.8661577699361  C 13.97338558664823 15.966629300508346  12.8730652263453 14.951034805951478  11.866233908100156 13.819369805156672  C 10.87378567227966 12.687705040209698  10.032356996169966 11.498005670725293  9.341958576685208 10.250272286323042  Z M 4.724924469264715 9.53210054098776  C 4.350958393236052 9.154879031288045  3.9913697004564765 8.813929149424224  3.646170490714096 8.5092501878528  C 3.646170490714096 8.5092501878528  4.70334639689587 7.5081619859519595  4.70334639689587 7.5081619859519595  C 5.048545606638251 7.798332178465111  5.408134504003615 8.12477391037122  5.782100375446488 8.487487093227346  C 6.170449796938668 8.835691919758906  6.5372182526344105 9.176642332280352  6.8824174623767895 9.510338389753638  C 7.2420002221684765 9.844034447226925  7.522476306276758 10.141458965307255  7.72384257284844 10.402612061918546  C 7.72384257284844 10.402612061918546  6.623510521928978 11.534276944789436  6.623510521928978 11.534276944789436  C 6.4077611290928385 11.258615079119874  6.127299994360447 10.946681909905184  5.782100375446488 10.598477083373623  C 5.451284306581837 10.250272669575772  5.098890340707587 9.894813723843885  4.724924469264715 9.53210054098776  Z M 3.0420742483214145 8.96626857124798  C 3.7180897607407775 7.8055865040322905  4.214318993295759 6.521581845565896  4.530751745923435 5.114255067544461  C 4.530751745923435 5.114255067544461  6.127289677391357 5.418934147039804  6.127289677391357 5.418934147039804  C 5.753323805948485 7.000363205662612  5.192371433146134 8.429452960385582  4.444439456448058 9.706203411208715  C 3.7108906206277092 10.968444739201825  2.8478929908300676 12.020312276681583  1.8554448719157348 12.861806849115405  C 1.7691450694801398 12.760246976607668  1.646893873915859 12.644179322654459  1.4886774976020205 12.513602995456157  C 1.3304611212881825 12.368517471725383  1.1650563602284851 12.230685669201717  0.9924566530644006 12.100108914529217  C 0.8342402767505623 11.969532159856717  0.6975996054557209 11.867972854857829  0.5825331340129978 11.79543030672954  C 1.5605979366903546 11.055495643654679  2.38044211059211 10.112441869405394  3.0420742483214145 8.96626857124798  Z M 15.577123651931625 9.88030533803834  C 15.030557342661135 9.401524184308478  14.51275903951204 8.959014039313947  14.023726901212232 8.552775433712371  C 14.023726901212232 8.552775433712371  15.102480879762851 7.595212477671106  15.102480879762851 7.595212477671106  C 15.591513018062656 7.957925218312546  16.109312139554913 8.371418120000321  16.655877630482244 8.835690946886597  C 17.216827080630463 9.285455446929285  17.749000311999175 9.735219888010015  18.252415561950166 10.184983945838017  C 18.7558316886974 10.634748445880707  19.16576812588007 11.019224634919347  19.482201083093535 11.338411923334359  C 19.482201083093535 11.338411923334359  18.338727851425546 12.47007680620525  18.338727851425546 12.47007680620525  C 18.036678882659505 12.12187197967369  17.64113146088937 11.722887640677335  17.152098475019866 11.273123582849333  C 16.663066336720057 10.80885075596306  16.138072225283604 10.344578164924616  15.577123651931625 9.88030533803834  Z M 13.635381454529673 8.487487093227346  C 14.153180663701551 7.457381824905625  14.527144094728223 6.332970913830164  14.75727661382882 5.114255067544461  C 14.75727661382882 5.114255067544461  16.332251436917062 5.397171524110016  16.332251436917062 5.397171524110016  C 16.044585579802206 6.760972938347961  15.620274185173379 8.001451171715619  15.059324735025161 9.11860740345215  C 14.498376161673184 10.235763635188686  13.829547163501035 11.171563555566458  13.052848320516677 11.92600698769959  C 12.952165611015685 11.83895567051303  12.815524830121312 11.737396372884385  12.642924801465274 11.621328379899916  C 12.484708746643388 11.505259959441247  12.319303985583694 11.39644538548385  12.146703956927654 11.294885734083454  C 11.974103928271614 11.178817741098985  11.823088211850994 11.091766582372687  11.693639257127721 11.033732372143351  C 12.484720364193569 10.351831900872213  13.131965327782442 9.503084064186458  13.635381454529673 8.487487093227346  Z " fill-rule="evenodd" />
    </mask>
  </defs>
  <g transform="matrix(1 0 0 1 -804 -374 )">
    <path d="M 0.7551277849854325 5  L 0.7551277849854325 3  L 19.374325685238475 3  L 19.374325685238475 5  L 0.7551277849854325 5  Z M 9 20  L 9 0  L 10.765916821169855 0  L 10.765916821169855 20  L 9 20  Z M 7.529669849507162 12.078346763295096  C 8.205685537285772 11.280377849454554  8.788207185268028 10.467900107593781  9.277239323567834 9.640914127332358  C 9.277239323567834 9.640914127332358  10.636463350945949 10.184983945838017  10.636463350945949 10.184983945838017  C 10.104281000896343 11.113529599610567  9.48580044856428 12.020313043187041  8.781018479030214 12.905333038366312  C 8.076236100324568 13.77584450033514  7.306725700539153 14.595575093714137  6.472493943325387 15.364526882171837  C 5.638262186111622 16.118970137419097  4.768069741729029 16.808124226713918  3.86192128642422 17.431990683067212  C 2.9701563811687177 18.04134872413398  2.0640050032097754 18.563655123723414  1.143473231667991 18.99891085470783  C 1.0715566577897477 18.853825596305867  0.9636800689531267 18.694232600679904  0.8198470381028056 18.52013032007853  C 0.6903972358098363 18.360536557947103  0.553756549901724 18.20094354758065  0.4099235190514028 18.041349785449224  C 0.2660904882010816 17.867247490107363  0.12944980229296946 17.729415355922683  0 17.62785570452229  C 0.9061483383986436 17.25063404741768  1.8051049602257168 16.779106806521288  2.6968699823873847 16.21327436508584  C 3.6030184376921937 15.647441982612353  4.466016125942918 15.016322674740838  5.285864566919708 14.319913434411424  C 6.105713183255745 13.623504194082013  6.853654570900129 12.876315441287804  7.529669849507162 12.078346763295096  Z M 9.341958576685208 10.250272286323042  C 9.341958576685208 10.250272286323042  10.701182604063321 9.706203411208715  10.701182604063321 9.706203411208715  C 11.334047641694013 10.808851227658725  12.13951744268044 11.875228005892422  13.117582537623209 12.905333038366312  C 14.09564763256598 13.920929537629759  15.17439898072788 14.834966835077743  16.353829509285905 15.647444282128724  C 17.547644055517896 16.45992161125579  18.76303527124475 17.105550100919288  20 17.584331402054044  C 19.870550197707033 17.700399579294636  19.726714463401635 17.845483452090576  19.568498408579753 18.019585747432444  C 19.42466461783936 18.193688042774305  19.280829745716932 18.367790190711275  19.136996817159506 18.54189247131265  C 19.00754701486654 18.730503285124463  18.899670206830855 18.904605433061434  18.81337062359432 19.064199195192856  C 17.57640589483907 18.49836675375741  16.361014679112216 17.765686239363852  15.167200132880224 16.8661577699361  C 13.97338558664823 15.966629300508346  12.8730652263453 14.951034805951478  11.866233908100156 13.819369805156672  C 10.87378567227966 12.687705040209698  10.032356996169966 11.498005670725293  9.341958576685208 10.250272286323042  Z M 4.724924469264715 9.53210054098776  C 4.350958393236052 9.154879031288045  3.9913697004564765 8.813929149424224  3.646170490714096 8.5092501878528  C 3.646170490714096 8.5092501878528  4.70334639689587 7.5081619859519595  4.70334639689587 7.5081619859519595  C 5.048545606638251 7.798332178465111  5.408134504003615 8.12477391037122  5.782100375446488 8.487487093227346  C 6.170449796938668 8.835691919758906  6.5372182526344105 9.176642332280352  6.8824174623767895 9.510338389753638  C 7.2420002221684765 9.844034447226925  7.522476306276758 10.141458965307255  7.72384257284844 10.402612061918546  C 7.72384257284844 10.402612061918546  6.623510521928978 11.534276944789436  6.623510521928978 11.534276944789436  C 6.4077611290928385 11.258615079119874  6.127299994360447 10.946681909905184  5.782100375446488 10.598477083373623  C 5.451284306581837 10.250272669575772  5.098890340707587 9.894813723843885  4.724924469264715 9.53210054098776  Z M 3.0420742483214145 8.96626857124798  C 3.7180897607407775 7.8055865040322905  4.214318993295759 6.521581845565896  4.530751745923435 5.114255067544461  C 4.530751745923435 5.114255067544461  6.127289677391357 5.418934147039804  6.127289677391357 5.418934147039804  C 5.753323805948485 7.000363205662612  5.192371433146134 8.429452960385582  4.444439456448058 9.706203411208715  C 3.7108906206277092 10.968444739201825  2.8478929908300676 12.020312276681583  1.8554448719157348 12.861806849115405  C 1.7691450694801398 12.760246976607668  1.646893873915859 12.644179322654459  1.4886774976020205 12.513602995456157  C 1.3304611212881825 12.368517471725383  1.1650563602284851 12.230685669201717  0.9924566530644006 12.100108914529217  C 0.8342402767505623 11.969532159856717  0.6975996054557209 11.867972854857829  0.5825331340129978 11.79543030672954  C 1.5605979366903546 11.055495643654679  2.38044211059211 10.112441869405394  3.0420742483214145 8.96626857124798  Z M 15.577123651931625 9.88030533803834  C 15.030557342661135 9.401524184308478  14.51275903951204 8.959014039313947  14.023726901212232 8.552775433712371  C 14.023726901212232 8.552775433712371  15.102480879762851 7.595212477671106  15.102480879762851 7.595212477671106  C 15.591513018062656 7.957925218312546  16.109312139554913 8.371418120000321  16.655877630482244 8.835690946886597  C 17.216827080630463 9.285455446929285  17.749000311999175 9.735219888010015  18.252415561950166 10.184983945838017  C 18.7558316886974 10.634748445880707  19.16576812588007 11.019224634919347  19.482201083093535 11.338411923334359  C 19.482201083093535 11.338411923334359  18.338727851425546 12.47007680620525  18.338727851425546 12.47007680620525  C 18.036678882659505 12.12187197967369  17.64113146088937 11.722887640677335  17.152098475019866 11.273123582849333  C 16.663066336720057 10.80885075596306  16.138072225283604 10.344578164924616  15.577123651931625 9.88030533803834  Z M 13.635381454529673 8.487487093227346  C 14.153180663701551 7.457381824905625  14.527144094728223 6.332970913830164  14.75727661382882 5.114255067544461  C 14.75727661382882 5.114255067544461  16.332251436917062 5.397171524110016  16.332251436917062 5.397171524110016  C 16.044585579802206 6.760972938347961  15.620274185173379 8.001451171715619  15.059324735025161 9.11860740345215  C 14.498376161673184 10.235763635188686  13.829547163501035 11.171563555566458  13.052848320516677 11.92600698769959  C 12.952165611015685 11.83895567051303  12.815524830121312 11.737396372884385  12.642924801465274 11.621328379899916  C 12.484708746643388 11.505259959441247  12.319303985583694 11.39644538548385  12.146703956927654 11.294885734083454  C 11.974103928271614 11.178817741098985  11.823088211850994 11.091766582372687  11.693639257127721 11.033732372143351  C 12.484720364193569 10.351831900872213  13.131965327782442 9.503084064186458  13.635381454529673 8.487487093227346  Z " fill-rule="nonzero" fill="rgba(255, 255, 255, 1)" stroke="none" transform="matrix(1 0 0 1 804 374 )" class="fill" />
    <path d="M 0.7551277849854325 5  L 0.7551277849854325 3  L 19.374325685238475 3  L 19.374325685238475 5  L 0.7551277849854325 5  Z " stroke-width="0" stroke-dasharray="0" stroke="rgba(121, 121, 121, 1)" fill="none" transform="matrix(1 0 0 1 804 374 )" class="stroke" mask="url(#Clip4258)" />
    <path d="M 9 20  L 9 0  L 10.765916821169855 0  L 10.765916821169855 20  L 9 20  Z " stroke-width="0" stroke-dasharray="0" stroke="rgba(121, 121, 121, 1)" fill="none" transform="matrix(1 0 0 1 804 374 )" class="stroke" mask="url(#Clip4258)" />
    <path d="M 7.529669849507162 12.078346763295096  C 8.205685537285772 11.280377849454554  8.788207185268028 10.467900107593781  9.277239323567834 9.640914127332358  C 9.277239323567834 9.640914127332358  10.636463350945949 10.184983945838017  10.636463350945949 10.184983945838017  C 10.104281000896343 11.113529599610567  9.48580044856428 12.020313043187041  8.781018479030214 12.905333038366312  C 8.076236100324568 13.77584450033514  7.306725700539153 14.595575093714137  6.472493943325387 15.364526882171837  C 5.638262186111622 16.118970137419097  4.768069741729029 16.808124226713918  3.86192128642422 17.431990683067212  C 2.9701563811687177 18.04134872413398  2.0640050032097754 18.563655123723414  1.143473231667991 18.99891085470783  C 1.0715566577897477 18.853825596305867  0.9636800689531267 18.694232600679904  0.8198470381028056 18.52013032007853  C 0.6903972358098363 18.360536557947103  0.553756549901724 18.20094354758065  0.4099235190514028 18.041349785449224  C 0.2660904882010816 17.867247490107363  0.12944980229296946 17.729415355922683  0 17.62785570452229  C 0.9061483383986436 17.25063404741768  1.8051049602257168 16.779106806521288  2.6968699823873847 16.21327436508584  C 3.6030184376921937 15.647441982612353  4.466016125942918 15.016322674740838  5.285864566919708 14.319913434411424  C 6.105713183255745 13.623504194082013  6.853654570900129 12.876315441287804  7.529669849507162 12.078346763295096  Z " stroke-width="0" stroke-dasharray="0" stroke="rgba(121, 121, 121, 1)" fill="none" transform="matrix(1 0 0 1 804 374 )" class="stroke" mask="url(#Clip4258)" />
    <path d="M 9.341958576685208 10.250272286323042  C 9.341958576685208 10.250272286323042  10.701182604063321 9.706203411208715  10.701182604063321 9.706203411208715  C 11.334047641694013 10.808851227658725  12.13951744268044 11.875228005892422  13.117582537623209 12.905333038366312  C 14.09564763256598 13.920929537629759  15.17439898072788 14.834966835077743  16.353829509285905 15.647444282128724  C 17.547644055517896 16.45992161125579  18.76303527124475 17.105550100919288  20 17.584331402054044  C 19.870550197707033 17.700399579294636  19.726714463401635 17.845483452090576  19.568498408579753 18.019585747432444  C 19.42466461783936 18.193688042774305  19.280829745716932 18.367790190711275  19.136996817159506 18.54189247131265  C 19.00754701486654 18.730503285124463  18.899670206830855 18.904605433061434  18.81337062359432 19.064199195192856  C 17.57640589483907 18.49836675375741  16.361014679112216 17.765686239363852  15.167200132880224 16.8661577699361  C 13.97338558664823 15.966629300508346  12.8730652263453 14.951034805951478  11.866233908100156 13.819369805156672  C 10.87378567227966 12.687705040209698  10.032356996169966 11.498005670725293  9.341958576685208 10.250272286323042  Z " stroke-width="0" stroke-dasharray="0" stroke="rgba(121, 121, 121, 1)" fill="none" transform="matrix(1 0 0 1 804 374 )" class="stroke" mask="url(#Clip4258)" />
    <path d="M 4.724924469264715 9.53210054098776  C 4.350958393236052 9.154879031288045  3.9913697004564765 8.813929149424224  3.646170490714096 8.5092501878528  C 3.646170490714096 8.5092501878528  4.70334639689587 7.5081619859519595  4.70334639689587 7.5081619859519595  C 5.048545606638251 7.798332178465111  5.408134504003615 8.12477391037122  5.782100375446488 8.487487093227346  C 6.170449796938668 8.835691919758906  6.5372182526344105 9.176642332280352  6.8824174623767895 9.510338389753638  C 7.2420002221684765 9.844034447226925  7.522476306276758 10.141458965307255  7.72384257284844 10.402612061918546  C 7.72384257284844 10.402612061918546  6.623510521928978 11.534276944789436  6.623510521928978 11.534276944789436  C 6.4077611290928385 11.258615079119874  6.127299994360447 10.946681909905184  5.782100375446488 10.598477083373623  C 5.451284306581837 10.250272669575772  5.098890340707587 9.894813723843885  4.724924469264715 9.53210054098776  Z " stroke-width="0" stroke-dasharray="0" stroke="rgba(121, 121, 121, 1)" fill="none" transform="matrix(1 0 0 1 804 374 )" class="stroke" mask="url(#Clip4258)" />
    <path d="M 3.0420742483214145 8.96626857124798  C 3.7180897607407775 7.8055865040322905  4.214318993295759 6.521581845565896  4.530751745923435 5.114255067544461  C 4.530751745923435 5.114255067544461  6.127289677391357 5.418934147039804  6.127289677391357 5.418934147039804  C 5.753323805948485 7.000363205662612  5.192371433146134 8.429452960385582  4.444439456448058 9.706203411208715  C 3.7108906206277092 10.968444739201825  2.8478929908300676 12.020312276681583  1.8554448719157348 12.861806849115405  C 1.7691450694801398 12.760246976607668  1.646893873915859 12.644179322654459  1.4886774976020205 12.513602995456157  C 1.3304611212881825 12.368517471725383  1.1650563602284851 12.230685669201717  0.9924566530644006 12.100108914529217  C 0.8342402767505623 11.969532159856717  0.6975996054557209 11.867972854857829  0.5825331340129978 11.79543030672954  C 1.5605979366903546 11.055495643654679  2.38044211059211 10.112441869405394  3.0420742483214145 8.96626857124798  Z " stroke-width="0" stroke-dasharray="0" stroke="rgba(121, 121, 121, 1)" fill="none" transform="matrix(1 0 0 1 804 374 )" class="stroke" mask="url(#Clip4258)" />
    <path d="M 15.577123651931625 9.88030533803834  C 15.030557342661135 9.401524184308478  14.51275903951204 8.959014039313947  14.023726901212232 8.552775433712371  C 14.023726901212232 8.552775433712371  15.102480879762851 7.595212477671106  15.102480879762851 7.595212477671106  C 15.591513018062656 7.957925218312546  16.109312139554913 8.371418120000321  16.655877630482244 8.835690946886597  C 17.216827080630463 9.285455446929285  17.749000311999175 9.735219888010015  18.252415561950166 10.184983945838017  C 18.7558316886974 10.634748445880707  19.16576812588007 11.019224634919347  19.482201083093535 11.338411923334359  C 19.482201083093535 11.338411923334359  18.338727851425546 12.47007680620525  18.338727851425546 12.47007680620525  C 18.036678882659505 12.12187197967369  17.64113146088937 11.722887640677335  17.152098475019866 11.273123582849333  C 16.663066336720057 10.80885075596306  16.138072225283604 10.344578164924616  15.577123651931625 9.88030533803834  Z " stroke-width="0" stroke-dasharray="0" stroke="rgba(121, 121, 121, 1)" fill="none" transform="matrix(1 0 0 1 804 374 )" class="stroke" mask="url(#Clip4258)" />
    <path d="M 13.635381454529673 8.487487093227346  C 14.153180663701551 7.457381824905625  14.527144094728223 6.332970913830164  14.75727661382882 5.114255067544461  C 14.75727661382882 5.114255067544461  16.332251436917062 5.397171524110016  16.332251436917062 5.397171524110016  C 16.044585579802206 6.760972938347961  15.620274185173379 8.001451171715619  15.059324735025161 9.11860740345215  C 14.498376161673184 10.235763635188686  13.829547163501035 11.171563555566458  13.052848320516677 11.92600698769959  C 12.952165611015685 11.83895567051303  12.815524830121312 11.737396372884385  12.642924801465274 11.621328379899916  C 12.484708746643388 11.505259959441247  12.319303985583694 11.39644538548385  12.146703956927654 11.294885734083454  C 11.974103928271614 11.178817741098985  11.823088211850994 11.091766582372687  11.693639257127721 11.033732372143351  C 12.484720364193569 10.351831900872213  13.131965327782442 9.503084064186458  13.635381454529673 8.487487093227346  Z " stroke-width="0" stroke-dasharray="0" stroke="rgba(121, 121, 121, 1)" fill="none" transform="matrix(1 0 0 1 804 374 )" class="stroke" mask="url(#Clip4258)" />
  </g>
</svg>