<?xml version="1.0" encoding="utf-8"?>
<svg version="1.1" xmlns:xlink="http://www.w3.org/1999/xlink" width="31px" height="137px" xmlns="http://www.w3.org/2000/svg">
  <defs>
    <pattern id="BGPattern" patternUnits="userSpaceOnUse" alignment="0 0" imageRepeat="None" />
    <mask fill="white" id="Clip4244">
      <path d="M 31 35.31556234715418  C 31 35.31556234715418  31 101.68445293394271  31 101.68445293394271  C 31 108.38223171984842  30.539579731375756 115.23223171984841  27.009871703634204 121.32112087403412  C 23.480168490236636 127.25778785905698  18.569296906370887 131.97666698502286  13.504935851817102 137  C 13.504935851817102 137  0 123.60445293394272  0 123.60445293394272  C 3.6831707788204646 119.95111944143129  5.985114452176108 117.9722255119028  8.594027678937053 113.55778117357708  C 10.12868190933528 110.81778141234423  10.896038993825714 106.55556186961991  10.896038993825714 100.77111705375991  C 10.896038993825714 100.77111705375991  10.896038993825714 36.22889440706277  10.896038993825714 36.22889440706277  C 10.896038993825714 30.44445197887416  10.12868190933528 26.18223124231414  8.594027678937053 23.442230287245582  C 5.985114452176108 19.027779263439974  3.6831707788204646 17.048895362131322  0 13.39555470660573  C 0 13.39555470660573  13.504935851817102 0  13.504935851817102 0  C 18.569296906370887 5.023332059908593  23.480168490236636 9.742224556834246  27.009871703634204 15.678896317199879  C 30.539579731375756 21.767779263439976  31 28.61778021850853  31 35.31556234715418  Z " fill-rule="evenodd" />
    </mask>
  </defs>
  <g transform="matrix(1 0 0 1 -1440 -472 )">
    <path d="M 31 35.31556234715418  C 31 35.31556234715418  31 101.68445293394271  31 101.68445293394271  C 31 108.38223171984842  30.539579731375756 115.23223171984841  27.009871703634204 121.32112087403412  C 23.480168490236636 127.25778785905698  18.569296906370887 131.97666698502286  13.504935851817102 137  C 13.504935851817102 137  0 123.60445293394272  0 123.60445293394272  C 3.6831707788204646 119.95111944143129  5.985114452176108 117.9722255119028  8.594027678937053 113.55778117357708  C 10.12868190933528 110.81778141234423  10.896038993825714 106.55556186961991  10.896038993825714 100.77111705375991  C 10.896038993825714 100.77111705375991  10.896038993825714 36.22889440706277  10.896038993825714 36.22889440706277  C 10.896038993825714 30.44445197887416  10.12868190933528 26.18223124231414  8.594027678937053 23.442230287245582  C 5.985114452176108 19.027779263439974  3.6831707788204646 17.048895362131322  0 13.39555470660573  C 0 13.39555470660573  13.504935851817102 0  13.504935851817102 0  C 18.569296906370887 5.023332059908593  23.480168490236636 9.742224556834246  27.009871703634204 15.678896317199879  C 30.539579731375756 21.767779263439976  31 28.61778021850853  31 35.31556234715418  Z " fill-rule="nonzero" fill="rgba(255, 255, 255, 1)" stroke="none" transform="matrix(1 0 0 1 1440 472 )" class="fill" />
    <path d="M 31 35.31556234715418  C 31 35.31556234715418  31 101.68445293394271  31 101.68445293394271  C 31 108.38223171984842  30.539579731375756 115.23223171984841  27.009871703634204 121.32112087403412  C 23.480168490236636 127.25778785905698  18.569296906370887 131.97666698502286  13.504935851817102 137  C 13.504935851817102 137  0 123.60445293394272  0 123.60445293394272  C 3.6831707788204646 119.95111944143129  5.985114452176108 117.9722255119028  8.594027678937053 113.55778117357708  C 10.12868190933528 110.81778141234423  10.896038993825714 106.55556186961991  10.896038993825714 100.77111705375991  C 10.896038993825714 100.77111705375991  10.896038993825714 36.22889440706277  10.896038993825714 36.22889440706277  C 10.896038993825714 30.44445197887416  10.12868190933528 26.18223124231414  8.594027678937053 23.442230287245582  C 5.985114452176108 19.027779263439974  3.6831707788204646 17.048895362131322  0 13.39555470660573  C 0 13.39555470660573  13.504935851817102 0  13.504935851817102 0  C 18.569296906370887 5.023332059908593  23.480168490236636 9.742224556834246  27.009871703634204 15.678896317199879  C 30.539579731375756 21.767779263439976  31 28.61778021850853  31 35.31556234715418  Z " stroke-width="0" stroke-dasharray="0" stroke="rgba(121, 121, 121, 1)" fill="none" transform="matrix(1 0 0 1 1440 472 )" class="stroke" mask="url(#Clip4244)" />
  </g>
</svg>