<?xml version="1.0" encoding="utf-8"?>
<svg version="1.1" xmlns:xlink="http://www.w3.org/1999/xlink" width="26px" height="32px" xmlns="http://www.w3.org/2000/svg">
  <defs>
    <pattern id="BGPattern" patternUnits="userSpaceOnUse" alignment="0 0" imageRepeat="None" />
    <mask fill="white" id="Clip4233">
      <path d="M 4.690142228475581 24  L 0 24  L 0 0  C 0 0  8.144367527380368 0  8.144367527380368 0  C 9.813382002078608 0  11.313381372451902 0.22672093919860153  12.644367527380368 0.6801627874315129  C 13.975354272583871 1.1120111956980412  15.031696667679666 1.8677465134502977  15.813387039092262 2.9473688613454496  C 16.59507741050486 4.005399006010174  16.985920707331037 5.4520925491947425  16.985920707331037 7.287449611556319  C 16.985920707331037 9.05803018488378  16.59507741050486 10.515519166069145  15.813387039092262 11.659918606284243  C 15.031696667679666 12.782725239983083  13.975354272583871 13.614035078899331  12.644367527380368 14.153846252846906  C 11.313381372451902 14.672065223564054  9.813382002078608 14.931175704344254  8.144367527380368 14.931175704344254  C 8.144367527380368 14.931175704344254  4.690142228475581 14.931175704344254  4.690142228475581 14.931175704344254  L 4.690142228475581 24  Z M 4.690142228475581 3.8218630463939673  L 4.690142228475581 11.141700902467342  C 4.690142228475581 11.141700902467342  7.732395217523434 11.141700902467342  7.732395217523434 11.141700902467342  C 9.253522302322398 11.141700902467342  10.40492949571308 10.817813329367198  11.18662051642822 10.170040053352992  C 11.989437362688909 9.522266777338782  12.390849593093247 8.561403960354308  12.390849593093247 7.287449611556319  C 12.390849593093247 5.991903059527902  11.989437362688909 5.095816761741833  11.18662051642822 4.599190567376651  C 10.40492949571308 4.080972199945334  9.253522302322398 3.8218630463939673  7.732395217523434 3.8218630463939673  C 7.732395217523434 3.8218630463939673  4.690142228475581 3.8218630463939673  4.690142228475581 3.8218630463939673  Z M 18 24  L 12.739438641618158 24  L 7.288735054760733 13.700405038064119  L 10.584505978095708 10.720647932201611  L 18 24  Z " fill-rule="evenodd" />
    </mask>
  </defs>
  <g transform="matrix(1 0 0 1 -1326 -703 )">
    <path d="M 4.690142228475581 24  L 0 24  L 0 0  C 0 0  8.144367527380368 0  8.144367527380368 0  C 9.813382002078608 0  11.313381372451902 0.22672093919860153  12.644367527380368 0.6801627874315129  C 13.975354272583871 1.1120111956980412  15.031696667679666 1.8677465134502977  15.813387039092262 2.9473688613454496  C 16.59507741050486 4.005399006010174  16.985920707331037 5.4520925491947425  16.985920707331037 7.287449611556319  C 16.985920707331037 9.05803018488378  16.59507741050486 10.515519166069145  15.813387039092262 11.659918606284243  C 15.031696667679666 12.782725239983083  13.975354272583871 13.614035078899331  12.644367527380368 14.153846252846906  C 11.313381372451902 14.672065223564054  9.813382002078608 14.931175704344254  8.144367527380368 14.931175704344254  C 8.144367527380368 14.931175704344254  4.690142228475581 14.931175704344254  4.690142228475581 14.931175704344254  L 4.690142228475581 24  Z M 4.690142228475581 3.8218630463939673  L 4.690142228475581 11.141700902467342  C 4.690142228475581 11.141700902467342  7.732395217523434 11.141700902467342  7.732395217523434 11.141700902467342  C 9.253522302322398 11.141700902467342  10.40492949571308 10.817813329367198  11.18662051642822 10.170040053352992  C 11.989437362688909 9.522266777338782  12.390849593093247 8.561403960354308  12.390849593093247 7.287449611556319  C 12.390849593093247 5.991903059527902  11.989437362688909 5.095816761741833  11.18662051642822 4.599190567376651  C 10.40492949571308 4.080972199945334  9.253522302322398 3.8218630463939673  7.732395217523434 3.8218630463939673  C 7.732395217523434 3.8218630463939673  4.690142228475581 3.8218630463939673  4.690142228475581 3.8218630463939673  Z M 18 24  L 12.739438641618158 24  L 7.288735054760733 13.700405038064119  L 10.584505978095708 10.720647932201611  L 18 24  Z " fill-rule="nonzero" fill="rgba(255, 255, 255, 1)" stroke="none" transform="matrix(1 0 0 1 1330 703 )" class="fill" />
    <path d="M 4.690142228475581 24  L 0 24  L 0 0  C 0 0  8.144367527380368 0  8.144367527380368 0  C 9.813382002078608 0  11.313381372451902 0.22672093919860153  12.644367527380368 0.6801627874315129  C 13.975354272583871 1.1120111956980412  15.031696667679666 1.8677465134502977  15.813387039092262 2.9473688613454496  C 16.59507741050486 4.005399006010174  16.985920707331037 5.4520925491947425  16.985920707331037 7.287449611556319  C 16.985920707331037 9.05803018488378  16.59507741050486 10.515519166069145  15.813387039092262 11.659918606284243  C 15.031696667679666 12.782725239983083  13.975354272583871 13.614035078899331  12.644367527380368 14.153846252846906  C 11.313381372451902 14.672065223564054  9.813382002078608 14.931175704344254  8.144367527380368 14.931175704344254  C 8.144367527380368 14.931175704344254  4.690142228475581 14.931175704344254  4.690142228475581 14.931175704344254  L 4.690142228475581 24  Z " stroke-width="0" stroke-dasharray="0" stroke="rgba(121, 121, 121, 1)" fill="none" transform="matrix(1 0 0 1 1330 703 )" class="stroke" mask="url(#Clip4233)" />
    <path d="M 4.690142228475581 3.8218630463939673  L 4.690142228475581 11.141700902467342  C 4.690142228475581 11.141700902467342  7.732395217523434 11.141700902467342  7.732395217523434 11.141700902467342  C 9.253522302322398 11.141700902467342  10.40492949571308 10.817813329367198  11.18662051642822 10.170040053352992  C 11.989437362688909 9.522266777338782  12.390849593093247 8.561403960354308  12.390849593093247 7.287449611556319  C 12.390849593093247 5.991903059527902  11.989437362688909 5.095816761741833  11.18662051642822 4.599190567376651  C 10.40492949571308 4.080972199945334  9.253522302322398 3.8218630463939673  7.732395217523434 3.8218630463939673  C 7.732395217523434 3.8218630463939673  4.690142228475581 3.8218630463939673  4.690142228475581 3.8218630463939673  Z " stroke-width="0" stroke-dasharray="0" stroke="rgba(121, 121, 121, 1)" fill="none" transform="matrix(1 0 0 1 1330 703 )" class="stroke" mask="url(#Clip4233)" />
    <path d="M 18 24  L 12.739438641618158 24  L 7.288735054760733 13.700405038064119  L 10.584505978095708 10.720647932201611  L 18 24  Z " stroke-width="0" stroke-dasharray="0" stroke="rgba(121, 121, 121, 1)" fill="none" transform="matrix(1 0 0 1 1330 703 )" class="stroke" mask="url(#Clip4233)" />
  </g>
  <style>svg { filter: drop-shadow(0px 4px 2px rgba(0, 0, 0, 0.25098039215686274)); }</style>
</svg>