<?xml version="1.0" encoding="utf-8"?>
<svg version="1.1" xmlns:xlink="http://www.w3.org/1999/xlink" width="13px" height="16px" xmlns="http://www.w3.org/2000/svg">
  <defs>
    <pattern id="BGPattern" patternUnits="userSpaceOnUse" alignment="0 0" imageRepeat="None" />
    <mask fill="white" id="Clip4268">
      <path d="M 13 0  L 13 16  L 11.38033232745192 16  L 11.38033232745192 3.8426965895367977  L 7.224590503175689 13.483145432588762  L 5.839353082567931 13.483145432588762  L 1.6196676725480788 3.8426965895367977  L 1.6196676725480788 16  L 0 16  L 0 0  L 1.6196676725480788 0  L 6.563928804517143 11.348313885720426  L 11.38033232745192 0  L 13 0  Z " fill-rule="evenodd" />
    </mask>
  </defs>
  <g transform="matrix(1 0 0 1 -587 -376 )">
    <path d="M 13 0  L 13 16  L 11.38033232745192 16  L 11.38033232745192 3.8426965895367977  L 7.224590503175689 13.483145432588762  L 5.839353082567931 13.483145432588762  L 1.6196676725480788 3.8426965895367977  L 1.6196676725480788 16  L 0 16  L 0 0  L 1.6196676725480788 0  L 6.563928804517143 11.348313885720426  L 11.38033232745192 0  L 13 0  Z " fill-rule="nonzero" fill="rgba(255, 255, 255, 1)" stroke="none" transform="matrix(1 0 0 1 587 376 )" class="fill" />
    <path d="M 13 0  L 13 16  L 11.38033232745192 16  L 11.38033232745192 3.8426965895367977  L 7.224590503175689 13.483145432588762  L 5.839353082567931 13.483145432588762  L 1.6196676725480788 3.8426965895367977  L 1.6196676725480788 16  L 0 16  L 0 0  L 1.6196676725480788 0  L 6.563928804517143 11.348313885720426  L 11.38033232745192 0  L 13 0  Z " stroke-width="0" stroke-dasharray="0" stroke="rgba(121, 121, 121, 1)" fill="none" transform="matrix(1 0 0 1 587 376 )" class="stroke" mask="url(#Clip4268)" />
  </g>
</svg>