<?xml version="1.0" encoding="utf-8"?>
<svg version="1.1" xmlns:xlink="http://www.w3.org/1999/xlink" width="66px" height="80px" xmlns="http://www.w3.org/2000/svg">
  <defs>
    <pattern id="BGPattern" patternUnits="userSpaceOnUse" alignment="0 0" imageRepeat="None" />
    <mask fill="white" id="Clip4247">
      <path d="M 66 29.449716707405535  C 66 29.449716707405535  66 80  66 80  L 46.18474139154191 80  C 46.18474139154191 80  46.18474139154191 32.18215683346236  46.18474139154191 32.18215683346236  C 46.18474139154191 21.404171784423326  39.32559656538032 17.76090272655788  33.07617063067023 17.76090272655788  C 26.826744695960137 17.76090272655788  19.815258608458084 21.404171784423326  19.815258608458084 32.18215683346236  C 19.815258608458084 32.18215683346236  19.815258608458084 80  19.815258608458084 80  L 0 80  L 0 1  L 19.357990001196296 1  C 19.357990001196296 1  19.357990001196296 8.197339426892528  19.357990001196296 8.197339426892528  C 24.540440869623275 2.7324467931095437  31.85684760866118 0  39.17324860965438 0  C 47.09935033162421 0  53.501122787549065 2.580636097785472  57.92144512481813 6.982914820210542  C 64.32329839153913 13.358629718749429  66 20.79696424326285  66 29.449716707405535  Z " fill-rule="evenodd" />
    </mask>
  </defs>
  <g transform="matrix(1 0 0 1 -1229 -515 )">
    <path d="M 66 29.449716707405535  C 66 29.449716707405535  66 80  66 80  L 46.18474139154191 80  C 46.18474139154191 80  46.18474139154191 32.18215683346236  46.18474139154191 32.18215683346236  C 46.18474139154191 21.404171784423326  39.32559656538032 17.76090272655788  33.07617063067023 17.76090272655788  C 26.826744695960137 17.76090272655788  19.815258608458084 21.404171784423326  19.815258608458084 32.18215683346236  C 19.815258608458084 32.18215683346236  19.815258608458084 80  19.815258608458084 80  L 0 80  L 0 1  L 19.357990001196296 1  C 19.357990001196296 1  19.357990001196296 8.197339426892528  19.357990001196296 8.197339426892528  C 24.540440869623275 2.7324467931095437  31.85684760866118 0  39.17324860965438 0  C 47.09935033162421 0  53.501122787549065 2.580636097785472  57.92144512481813 6.982914820210542  C 64.32329839153913 13.358629718749429  66 20.79696424326285  66 29.449716707405535  Z " fill-rule="nonzero" fill="rgba(255, 255, 255, 1)" stroke="none" transform="matrix(1 0 0 1 1229 515 )" class="fill" />
    <path d="M 66 29.449716707405535  C 66 29.449716707405535  66 80  66 80  L 46.18474139154191 80  C 46.18474139154191 80  46.18474139154191 32.18215683346236  46.18474139154191 32.18215683346236  C 46.18474139154191 21.404171784423326  39.32559656538032 17.76090272655788  33.07617063067023 17.76090272655788  C 26.826744695960137 17.76090272655788  19.815258608458084 21.404171784423326  19.815258608458084 32.18215683346236  C 19.815258608458084 32.18215683346236  19.815258608458084 80  19.815258608458084 80  L 0 80  L 0 1  L 19.357990001196296 1  C 19.357990001196296 1  19.357990001196296 8.197339426892528  19.357990001196296 8.197339426892528  C 24.540440869623275 2.7324467931095437  31.85684760866118 0  39.17324860965438 0  C 47.09935033162421 0  53.501122787549065 2.580636097785472  57.92144512481813 6.982914820210542  C 64.32329839153913 13.358629718749429  66 20.79696424326285  66 29.449716707405535  Z " stroke-width="0" stroke-dasharray="0" stroke="rgba(121, 121, 121, 1)" fill="none" transform="matrix(1 0 0 1 1229 515 )" class="stroke" mask="url(#Clip4247)" />
  </g>
</svg>