<?xml version="1.0" encoding="utf-8"?>
<svg version="1.1" xmlns:xlink="http://www.w3.org/1999/xlink" width="11px" height="16px" xmlns="http://www.w3.org/2000/svg">
  <defs>
    <pattern id="BGPattern" patternUnits="userSpaceOnUse" alignment="0 0" imageRepeat="None" />
    <mask fill="white" id="Clip4292">
      <path d="M 8.390592859587006 7.775280146387542  C 9.92024571209991 8.337078014806183  11 9.662922046077007  11 11.573034226398404  C 11 14.471910840221506  9.065440828397122 16  6.231084527568618 16  C 6.231084527568618 16  0 16  0 16  L 0 0  C 0 0  6.028630575732808 0  6.028630575732808 0  C 8.817996946965492 0  10.75255758125912 1.5955053593949915  10.75255758125912 4.269663093736672  C 10.75255758125912 5.955056029277508  9.740286237498427 7.280898477585397  8.390592859587006 7.775280146387542  Z M 6.073620017765044 14.471909866090469  C 8.053170215981803 14.471909866090469  9.290389501249049 13.325842752723839  9.290389501249049 11.528089768610393  C 9.290389501249049 9.730337028029707  8.053170215981803 8.606740925893286  6.073620017765044 8.606740925893286  C 6.073620017765044 8.606740925893286  1.709611473878116 8.606740925893286  1.709611473878116 8.606740925893286  L 1.709611473878116 14.471909866090469  C 1.709611473878116 14.471909866090469  6.073620017765044 14.471909866090469  6.073620017765044 14.471909866090469  Z M 5.893661274508935 7.078651766114791  C 7.670758130344362 7.078651766114791  9.042945132253838 6.202246772353796  9.042945132253838 4.292134348499641  C 9.042945132253838 2.382022533477383  7.670758130344362 1.5280891597784947  5.893661274508935 1.5280891597784947  C 5.893661274508935 1.5280891597784947  1.709611473878116 1.5280891597784947  1.709611473878116 1.5280891597784947  L 1.709611473878116 7.078651766114791  C 1.709611473878116 7.078651766114791  5.893661274508935 7.078651766114791  5.893661274508935 7.078651766114791  Z " fill-rule="evenodd" />
    </mask>
  </defs>
  <g transform="matrix(1 0 0 1 -232 -376 )">
    <path d="M 8.390592859587006 7.775280146387542  C 9.92024571209991 8.337078014806183  11 9.662922046077007  11 11.573034226398404  C 11 14.471910840221506  9.065440828397122 16  6.231084527568618 16  C 6.231084527568618 16  0 16  0 16  L 0 0  C 0 0  6.028630575732808 0  6.028630575732808 0  C 8.817996946965492 0  10.75255758125912 1.5955053593949915  10.75255758125912 4.269663093736672  C 10.75255758125912 5.955056029277508  9.740286237498427 7.280898477585397  8.390592859587006 7.775280146387542  Z M 6.073620017765044 14.471909866090469  C 8.053170215981803 14.471909866090469  9.290389501249049 13.325842752723839  9.290389501249049 11.528089768610393  C 9.290389501249049 9.730337028029707  8.053170215981803 8.606740925893286  6.073620017765044 8.606740925893286  C 6.073620017765044 8.606740925893286  1.709611473878116 8.606740925893286  1.709611473878116 8.606740925893286  L 1.709611473878116 14.471909866090469  C 1.709611473878116 14.471909866090469  6.073620017765044 14.471909866090469  6.073620017765044 14.471909866090469  Z M 5.893661274508935 7.078651766114791  C 7.670758130344362 7.078651766114791  9.042945132253838 6.202246772353796  9.042945132253838 4.292134348499641  C 9.042945132253838 2.382022533477383  7.670758130344362 1.5280891597784947  5.893661274508935 1.5280891597784947  C 5.893661274508935 1.5280891597784947  1.709611473878116 1.5280891597784947  1.709611473878116 1.5280891597784947  L 1.709611473878116 7.078651766114791  C 1.709611473878116 7.078651766114791  5.893661274508935 7.078651766114791  5.893661274508935 7.078651766114791  Z " fill-rule="nonzero" fill="rgba(255, 255, 255, 1)" stroke="none" transform="matrix(1 0 0 1 232 376 )" class="fill" />
    <path d="M 8.390592859587006 7.775280146387542  C 9.92024571209991 8.337078014806183  11 9.662922046077007  11 11.573034226398404  C 11 14.471910840221506  9.065440828397122 16  6.231084527568618 16  C 6.231084527568618 16  0 16  0 16  L 0 0  C 0 0  6.028630575732808 0  6.028630575732808 0  C 8.817996946965492 0  10.75255758125912 1.5955053593949915  10.75255758125912 4.269663093736672  C 10.75255758125912 5.955056029277508  9.740286237498427 7.280898477585397  8.390592859587006 7.775280146387542  Z " stroke-width="0" stroke-dasharray="0" stroke="rgba(121, 121, 121, 1)" fill="none" transform="matrix(1 0 0 1 232 376 )" class="stroke" mask="url(#Clip4292)" />
    <path d="M 6.073620017765044 14.471909866090469  C 8.053170215981803 14.471909866090469  9.290389501249049 13.325842752723839  9.290389501249049 11.528089768610393  C 9.290389501249049 9.730337028029707  8.053170215981803 8.606740925893286  6.073620017765044 8.606740925893286  C 6.073620017765044 8.606740925893286  1.709611473878116 8.606740925893286  1.709611473878116 8.606740925893286  L 1.709611473878116 14.471909866090469  C 1.709611473878116 14.471909866090469  6.073620017765044 14.471909866090469  6.073620017765044 14.471909866090469  Z " stroke-width="0" stroke-dasharray="0" stroke="rgba(121, 121, 121, 1)" fill="none" transform="matrix(1 0 0 1 232 376 )" class="stroke" mask="url(#Clip4292)" />
    <path d="M 5.893661274508935 7.078651766114791  C 7.670758130344362 7.078651766114791  9.042945132253838 6.202246772353796  9.042945132253838 4.292134348499641  C 9.042945132253838 2.382022533477383  7.670758130344362 1.5280891597784947  5.893661274508935 1.5280891597784947  C 5.893661274508935 1.5280891597784947  1.709611473878116 1.5280891597784947  1.709611473878116 1.5280891597784947  L 1.709611473878116 7.078651766114791  C 1.709611473878116 7.078651766114791  5.893661274508935 7.078651766114791  5.893661274508935 7.078651766114791  Z " stroke-width="0" stroke-dasharray="0" stroke="rgba(121, 121, 121, 1)" fill="none" transform="matrix(1 0 0 1 232 376 )" class="stroke" mask="url(#Clip4292)" />
  </g>
</svg>