<?xml version="1.0" encoding="utf-8"?>
<svg version="1.1" xmlns:xlink="http://www.w3.org/1999/xlink" width="11px" height="16px" xmlns="http://www.w3.org/2000/svg">
  <defs>
    <pattern id="BGPattern" patternUnits="userSpaceOnUse" alignment="0 0" imageRepeat="None" />
    <mask fill="white" id="Clip4288">
      <path d="M 9.440571135657178 1.4831456761215216  C 11.088217488555122 3.1460669916002506  10.99915256929093 5.595505359394991  10.99915256929093 7.820224604175552  C 10.99915256929093 10.044943848956112  11.088217488555122 12.85393300839975  9.440571135657178 14.516854323878478  C 8.483155406227116 15.483146406719799  7.080426903968324 16  5.4327798271831 16  C 5.4327798271831 16  0 16  0 16  L 0 0  C 0 0  5.4327798271831 0  5.4327798271831 0  C 7.080426903968324 0  8.483155406227116 0.5168539585793395  9.440571135657178 1.4831456761215216  Z M 8.26049974370003 13.30337149796087  C 9.351508026111183 12.15730414106148  9.306978220732448 9.7752809987522  9.306978220732448 7.820224604175552  C 9.306978220732448 5.865168209598904  9.351508026111183 3.842696833069557  8.26049974370003 2.6966294761701675  C 7.4366759036877195 1.8426958589385198  6.367931317487133 1.5280891597784947  5.143329154968209 1.5280891597784947  C 5.143329154968209 1.5280891597784947  1.6921782092906412 1.5280891597784947  1.6921782092906412 1.5280891597784947  L 1.6921782092906412 14.471909866090469  C 1.6921782092906412 14.471909866090469  5.143329154968209 14.471909866090469  5.143329154968209 14.471909866090469  C 6.367931317487133 14.471909866090469  7.4366759036877195 14.15730414106148  8.26049974370003 13.30337149796087  Z " fill-rule="evenodd" />
    </mask>
  </defs>
  <g transform="matrix(1 0 0 1 -281 -376 )">
    <path d="M 9.440571135657178 1.4831456761215216  C 11.088217488555122 3.1460669916002506  10.99915256929093 5.595505359394991  10.99915256929093 7.820224604175552  C 10.99915256929093 10.044943848956112  11.088217488555122 12.85393300839975  9.440571135657178 14.516854323878478  C 8.483155406227116 15.483146406719799  7.080426903968324 16  5.4327798271831 16  C 5.4327798271831 16  0 16  0 16  L 0 0  C 0 0  5.4327798271831 0  5.4327798271831 0  C 7.080426903968324 0  8.483155406227116 0.5168539585793395  9.440571135657178 1.4831456761215216  Z M 8.26049974370003 13.30337149796087  C 9.351508026111183 12.15730414106148  9.306978220732448 9.7752809987522  9.306978220732448 7.820224604175552  C 9.306978220732448 5.865168209598904  9.351508026111183 3.842696833069557  8.26049974370003 2.6966294761701675  C 7.4366759036877195 1.8426958589385198  6.367931317487133 1.5280891597784947  5.143329154968209 1.5280891597784947  C 5.143329154968209 1.5280891597784947  1.6921782092906412 1.5280891597784947  1.6921782092906412 1.5280891597784947  L 1.6921782092906412 14.471909866090469  C 1.6921782092906412 14.471909866090469  5.143329154968209 14.471909866090469  5.143329154968209 14.471909866090469  C 6.367931317487133 14.471909866090469  7.4366759036877195 14.15730414106148  8.26049974370003 13.30337149796087  Z " fill-rule="nonzero" fill="rgba(255, 255, 255, 1)" stroke="none" transform="matrix(1 0 0 1 281 376 )" class="fill" />
    <path d="M 9.440571135657178 1.4831456761215216  C 11.088217488555122 3.1460669916002506  10.99915256929093 5.595505359394991  10.99915256929093 7.820224604175552  C 10.99915256929093 10.044943848956112  11.088217488555122 12.85393300839975  9.440571135657178 14.516854323878478  C 8.483155406227116 15.483146406719799  7.080426903968324 16  5.4327798271831 16  C 5.4327798271831 16  0 16  0 16  L 0 0  C 0 0  5.4327798271831 0  5.4327798271831 0  C 7.080426903968324 0  8.483155406227116 0.5168539585793395  9.440571135657178 1.4831456761215216  Z " stroke-width="0" stroke-dasharray="0" stroke="rgba(121, 121, 121, 1)" fill="none" transform="matrix(1 0 0 1 281 376 )" class="stroke" mask="url(#Clip4288)" />
    <path d="M 8.26049974370003 13.30337149796087  C 9.351508026111183 12.15730414106148  9.306978220732448 9.7752809987522  9.306978220732448 7.820224604175552  C 9.306978220732448 5.865168209598904  9.351508026111183 3.842696833069557  8.26049974370003 2.6966294761701675  C 7.4366759036877195 1.8426958589385198  6.367931317487133 1.5280891597784947  5.143329154968209 1.5280891597784947  C 5.143329154968209 1.5280891597784947  1.6921782092906412 1.5280891597784947  1.6921782092906412 1.5280891597784947  L 1.6921782092906412 14.471909866090469  C 1.6921782092906412 14.471909866090469  5.143329154968209 14.471909866090469  5.143329154968209 14.471909866090469  C 6.367931317487133 14.471909866090469  7.4366759036877195 14.15730414106148  8.26049974370003 13.30337149796087  Z " stroke-width="0" stroke-dasharray="0" stroke="rgba(121, 121, 121, 1)" fill="none" transform="matrix(1 0 0 1 281 376 )" class="stroke" mask="url(#Clip4288)" />
  </g>
</svg>