<?xml version="1.0" encoding="utf-8"?>
<svg version="1.1" xmlns:xlink="http://www.w3.org/1999/xlink" width="11px" height="16px" xmlns="http://www.w3.org/2000/svg">
  <defs>
    <pattern id="BGPattern" patternUnits="userSpaceOnUse" alignment="0 0" imageRepeat="None" />
    <mask fill="white" id="Clip4269">
      <path d="M 9.520080444337978 1.6353592324622854  C 11.000000359064332 3.116022780887238  11 4.662984171690101  11 8.000000957985165  C 11 11.337017025791356  11.000000359064332 12.883977937601637  9.520080444337978 14.364640767537715  C 8.4598386325716 15.425414148961904  7.068274276753035 16  5.5 16  C 3.9317257232469656 16  2.5401613674283996 15.425414148961904  1.4799195556620222 14.364640767537715  C 0 12.883977937601637  0 11.337017025791356  0 8.000000957985165  C 0 4.662984171690101  0 3.116022780887238  1.4799195556620222 1.6353592324622854  C 2.5401613674283996 0.5745863300306795  3.9317257232469656 0  5.5 0  C 7.068274276753035 0  8.4598386325716 0.5745863300306795  9.520080444337978 1.6353592324622854  Z M 8.216862670818871 13.370165946980311  C 9.21083951895999 12.353591366637687  9.321287109407642 11.29281822470979  9.321287109407642 8.000000957985165  C 9.321287109407642 4.707183691260541  9.21083951895999 3.646409591347478  8.216862670818871 2.6298350110048547  C 7.5321235763208 1.9226526369739165  6.5381530118055124 1.5027625897212982  5.5 1.5027625897212982  C 4.461846988194487 1.5027625897212982  3.4678767228994776 1.9226526369739165  2.7831373291811277 2.6298350110048547  C 1.7891608401043435 3.646409591347478  1.6787128905923578 4.707183691260541  1.6787128905923578 8.000000957985165  C 1.6787128905923578 11.29281822470979  1.7891608401043435 12.353591366637687  2.7831373291811277 13.370165946980311  C 3.4678767228994776 14.077348321011248  4.461846988194487 14.497237410278702  5.5 14.497237410278702  C 6.5381530118055124 14.497237410278702  7.5321235763208 14.077348321011248  8.216862670818871 13.370165946980311  Z " fill-rule="evenodd" />
    </mask>
  </defs>
  <g transform="matrix(1 0 0 1 -572 -376 )">
    <path d="M 9.520080444337978 1.6353592324622854  C 11.000000359064332 3.116022780887238  11 4.662984171690101  11 8.000000957985165  C 11 11.337017025791356  11.000000359064332 12.883977937601637  9.520080444337978 14.364640767537715  C 8.4598386325716 15.425414148961904  7.068274276753035 16  5.5 16  C 3.9317257232469656 16  2.5401613674283996 15.425414148961904  1.4799195556620222 14.364640767537715  C 0 12.883977937601637  0 11.337017025791356  0 8.000000957985165  C 0 4.662984171690101  0 3.116022780887238  1.4799195556620222 1.6353592324622854  C 2.5401613674283996 0.5745863300306795  3.9317257232469656 0  5.5 0  C 7.068274276753035 0  8.4598386325716 0.5745863300306795  9.520080444337978 1.6353592324622854  Z M 8.216862670818871 13.370165946980311  C 9.21083951895999 12.353591366637687  9.321287109407642 11.29281822470979  9.321287109407642 8.000000957985165  C 9.321287109407642 4.707183691260541  9.21083951895999 3.646409591347478  8.216862670818871 2.6298350110048547  C 7.5321235763208 1.9226526369739165  6.5381530118055124 1.5027625897212982  5.5 1.5027625897212982  C 4.461846988194487 1.5027625897212982  3.4678767228994776 1.9226526369739165  2.7831373291811277 2.6298350110048547  C 1.7891608401043435 3.646409591347478  1.6787128905923578 4.707183691260541  1.6787128905923578 8.000000957985165  C 1.6787128905923578 11.29281822470979  1.7891608401043435 12.353591366637687  2.7831373291811277 13.370165946980311  C 3.4678767228994776 14.077348321011248  4.461846988194487 14.497237410278702  5.5 14.497237410278702  C 6.5381530118055124 14.497237410278702  7.5321235763208 14.077348321011248  8.216862670818871 13.370165946980311  Z " fill-rule="nonzero" fill="rgba(255, 255, 255, 1)" stroke="none" transform="matrix(1 0 0 1 572 376 )" class="fill" />
    <path d="M 9.520080444337978 1.6353592324622854  C 11.000000359064332 3.116022780887238  11 4.662984171690101  11 8.000000957985165  C 11 11.337017025791356  11.000000359064332 12.883977937601637  9.520080444337978 14.364640767537715  C 8.4598386325716 15.425414148961904  7.068274276753035 16  5.5 16  C 3.9317257232469656 16  2.5401613674283996 15.425414148961904  1.4799195556620222 14.364640767537715  C 0 12.883977937601637  0 11.337017025791356  0 8.000000957985165  C 0 4.662984171690101  0 3.116022780887238  1.4799195556620222 1.6353592324622854  C 2.5401613674283996 0.5745863300306795  3.9317257232469656 0  5.5 0  C 7.068274276753035 0  8.4598386325716 0.5745863300306795  9.520080444337978 1.6353592324622854  Z " stroke-width="0" stroke-dasharray="0" stroke="rgba(121, 121, 121, 1)" fill="none" transform="matrix(1 0 0 1 572 376 )" class="stroke" mask="url(#Clip4269)" />
    <path d="M 8.216862670818871 13.370165946980311  C 9.21083951895999 12.353591366637687  9.321287109407642 11.29281822470979  9.321287109407642 8.000000957985165  C 9.321287109407642 4.707183691260541  9.21083951895999 3.646409591347478  8.216862670818871 2.6298350110048547  C 7.5321235763208 1.9226526369739165  6.5381530118055124 1.5027625897212982  5.5 1.5027625897212982  C 4.461846988194487 1.5027625897212982  3.4678767228994776 1.9226526369739165  2.7831373291811277 2.6298350110048547  C 1.7891608401043435 3.646409591347478  1.6787128905923578 4.707183691260541  1.6787128905923578 8.000000957985165  C 1.6787128905923578 11.29281822470979  1.7891608401043435 12.353591366637687  2.7831373291811277 13.370165946980311  C 3.4678767228994776 14.077348321011248  4.461846988194487 14.497237410278702  5.5 14.497237410278702  C 6.5381530118055124 14.497237410278702  7.5321235763208 14.077348321011248  8.216862670818871 13.370165946980311  Z " stroke-width="0" stroke-dasharray="0" stroke="rgba(121, 121, 121, 1)" fill="none" transform="matrix(1 0 0 1 572 376 )" class="stroke" mask="url(#Clip4269)" />
  </g>
</svg>