<?xml version="1.0" encoding="utf-8"?>
<svg version="1.1" xmlns:xlink="http://www.w3.org/1999/xlink" width="11px" height="16px" xmlns="http://www.w3.org/2000/svg">
  <defs>
    <pattern id="BGPattern" patternUnits="userSpaceOnUse" alignment="0 0" imageRepeat="None" />
    <mask fill="white" id="Clip4285">
      <path d="M 11 7.624309831562258  C 11 7.624309831562258  11 10.121546283855794  11 10.121546283855794  C 11 11.933701199636923  10.626004099845886 13.149170744091029  9.658004760742188 14.187844605226289  C 8.55800449848175 15.381214749139609  7.084004759788513 16  5.478004455566406 16  C 3.9380046129226685 16  2.5300068855285645 15.425414148961904  1.4740066528320312 14.364640767537715  C 0 12.883977937601637  0 11.337017025791356  0 8.000000957985165  C 0 4.662984171690101  0 3.116022780887238  1.4740066528320312 1.6353592324622854  C 2.5300068855285645 0.5745863300306795  3.916004180908203 0  5.478004455566406 0  C 8.470004558563232 0  10.494001984596252 1.9447515585221162  10.956001281738281 4.707183691260541  C 10.956001281738281 4.707183691260541  9.284004211425781 4.707183691260541  9.284004211425781 4.707183691260541  C 8.844003975391388 2.7182328526642765  7.436004877090454 1.5027625897212982  5.478004455566406 1.5027625897212982  C 4.444004654884338 1.5027625897212982  3.4540032148361206 1.9226526369739165  2.772003173828125 2.6298350110048547  C 1.7820031642913818 3.646409591347478  1.6720046997070312 4.707183691260541  1.6720046997070312 8.000000957985165  C 1.6720046997070312 11.29281822470979  1.7820031642913818 12.375690168437742  2.772003173828125 13.392264748780365  C 3.4540032148361206 14.099446943189085  4.444004654884338 14.497237410278702  5.478004455566406 14.497237410278702  C 6.622004151344299 14.497237410278702  7.722005844116211 14.033149998922267  8.448005676269531 13.149172181068776  C 9.086005985736847 12.375691485667344  9.3280029296875 11.513811751125035  9.3280029296875 10.29834244616722  C 9.3280029296875 10.29834244616722  9.3280029296875 9.104972661498337  9.3280029296875 9.104972661498337  L 5.478004455566406 9.104972661498337  L 5.478004455566406 7.624309831562258  L 11 7.624309831562258  Z " fill-rule="evenodd" />
    </mask>
  </defs>
  <g transform="matrix(1 0 0 1 -317 -376 )">
    <path d="M 11 7.624309831562258  C 11 7.624309831562258  11 10.121546283855794  11 10.121546283855794  C 11 11.933701199636923  10.626004099845886 13.149170744091029  9.658004760742188 14.187844605226289  C 8.55800449848175 15.381214749139609  7.084004759788513 16  5.478004455566406 16  C 3.9380046129226685 16  2.5300068855285645 15.425414148961904  1.4740066528320312 14.364640767537715  C 0 12.883977937601637  0 11.337017025791356  0 8.000000957985165  C 0 4.662984171690101  0 3.116022780887238  1.4740066528320312 1.6353592324622854  C 2.5300068855285645 0.5745863300306795  3.916004180908203 0  5.478004455566406 0  C 8.470004558563232 0  10.494001984596252 1.9447515585221162  10.956001281738281 4.707183691260541  C 10.956001281738281 4.707183691260541  9.284004211425781 4.707183691260541  9.284004211425781 4.707183691260541  C 8.844003975391388 2.7182328526642765  7.436004877090454 1.5027625897212982  5.478004455566406 1.5027625897212982  C 4.444004654884338 1.5027625897212982  3.4540032148361206 1.9226526369739165  2.772003173828125 2.6298350110048547  C 1.7820031642913818 3.646409591347478  1.6720046997070312 4.707183691260541  1.6720046997070312 8.000000957985165  C 1.6720046997070312 11.29281822470979  1.7820031642913818 12.375690168437742  2.772003173828125 13.392264748780365  C 3.4540032148361206 14.099446943189085  4.444004654884338 14.497237410278702  5.478004455566406 14.497237410278702  C 6.622004151344299 14.497237410278702  7.722005844116211 14.033149998922267  8.448005676269531 13.149172181068776  C 9.086005985736847 12.375691485667344  9.3280029296875 11.513811751125035  9.3280029296875 10.29834244616722  C 9.3280029296875 10.29834244616722  9.3280029296875 9.104972661498337  9.3280029296875 9.104972661498337  L 5.478004455566406 9.104972661498337  L 5.478004455566406 7.624309831562258  L 11 7.624309831562258  Z " fill-rule="nonzero" fill="rgba(255, 255, 255, 1)" stroke="none" transform="matrix(1 0 0 1 317 376 )" class="fill" />
    <path d="M 11 7.624309831562258  C 11 7.624309831562258  11 10.121546283855794  11 10.121546283855794  C 11 11.933701199636923  10.626004099845886 13.149170744091029  9.658004760742188 14.187844605226289  C 8.55800449848175 15.381214749139609  7.084004759788513 16  5.478004455566406 16  C 3.9380046129226685 16  2.5300068855285645 15.425414148961904  1.4740066528320312 14.364640767537715  C 0 12.883977937601637  0 11.337017025791356  0 8.000000957985165  C 0 4.662984171690101  0 3.116022780887238  1.4740066528320312 1.6353592324622854  C 2.5300068855285645 0.5745863300306795  3.916004180908203 0  5.478004455566406 0  C 8.470004558563232 0  10.494001984596252 1.9447515585221162  10.956001281738281 4.707183691260541  C 10.956001281738281 4.707183691260541  9.284004211425781 4.707183691260541  9.284004211425781 4.707183691260541  C 8.844003975391388 2.7182328526642765  7.436004877090454 1.5027625897212982  5.478004455566406 1.5027625897212982  C 4.444004654884338 1.5027625897212982  3.4540032148361206 1.9226526369739165  2.772003173828125 2.6298350110048547  C 1.7820031642913818 3.646409591347478  1.6720046997070312 4.707183691260541  1.6720046997070312 8.000000957985165  C 1.6720046997070312 11.29281822470979  1.7820031642913818 12.375690168437742  2.772003173828125 13.392264748780365  C 3.4540032148361206 14.099446943189085  4.444004654884338 14.497237410278702  5.478004455566406 14.497237410278702  C 6.622004151344299 14.497237410278702  7.722005844116211 14.033149998922267  8.448005676269531 13.149172181068776  C 9.086005985736847 12.375691485667344  9.3280029296875 11.513811751125035  9.3280029296875 10.29834244616722  C 9.3280029296875 10.29834244616722  9.3280029296875 9.104972661498337  9.3280029296875 9.104972661498337  L 5.478004455566406 9.104972661498337  L 5.478004455566406 7.624309831562258  L 11 7.624309831562258  Z " stroke-width="0" stroke-dasharray="0" stroke="rgba(121, 121, 121, 1)" fill="none" transform="matrix(1 0 0 1 317 376 )" class="stroke" mask="url(#Clip4285)" />
  </g>
</svg>