<?xml version="1.0" encoding="utf-8"?>
<svg version="1.1" xmlns:xlink="http://www.w3.org/1999/xlink" width="46px" height="45px" xmlns="http://www.w3.org/2000/svg">
  <defs>
    <pattern id="BGPattern" patternUnits="userSpaceOnUse" alignment="0 0" imageRepeat="None" />
    <mask fill="white" id="Clip4293">
      <path d="M 1.488508790791636 7  L 1.488508790791636 3  L 17.189966312805115 3  L 17.189966312805115 7  L 1.488508790791636 7  Z M 20.69518265149283 31  L 20.69518265149283 26  L 40.18996631280512 26  L 40.18996631280512 31  L 20.69518265149283 31  Z M 0.8162780295247425 22  L 0.8162780295247425 17  L 18.67849036769215 17  L 18.67849036769215 22  L 0.8162780295247425 22  Z M 8.643004000520307 38.687561240965564  C 8.643004000520307 38.687561240965564  8.643004000520307 18.937293474054606  8.643004000520307 18.937293474054606  L 14.068886198868599 18.937293474054606  C 14.068886198868599 18.937293474054606  14.068886198868599 38.78320482830065  14.068886198868599 38.78320482830065  C 14.068886198868599 40.09032474982944  13.924844654646524 41.14239607505269  13.636744394095052 41.93942040730975  C 13.380655803608166 42.73644479894974  12.83646313654596 43.358117665230466  12.004173070950168 43.80445135780331  C 11.171883959360342 44.218903894186425  10.195535177435154 44.48990173849599  9.075145805293854 44.617425650659655  C 7.9547559561495715 44.74494956282333  6.658304783667949 44.80871282532983  5.185793241854946 44.80871282532983  C 5.0897596626701285 44.011688552455716  4.8816945398173885 43.087136210612165  4.5615833247058015 42.03506399464483  C 4.241471871092723 41.01487281610135  3.8893499399225115 40.12220210551106  3.5052163386877124 39.357058751294915  C 4.433539029462359 39.38893972933584  5.313844215140124 39.40488434547058  6.146133803732933 39.40488434547058  C 6.978422915322763 39.40488434547058  7.554620097404839 39.40488434547058  7.874731551017915 39.40488434547058  C 8.162831811569388 39.37300336742966  8.354902308959891 39.325177120041666  8.45093588814471 39.26141516395983  C 8.578980183388152 39.165772289220016  8.643004000520307 38.97449010271676  8.643004000520307 38.687561240965564  Z M 38.36532687728464 27.59298112025804  C 38.36532687728464 27.59298112025804  38.36532687728464 26.87565801575302  38.36532687728464 26.87565801575302  C 38.36532687728464 26.87565801575302  44.175360564479526 26.87565801575302  44.175360564479526 26.87565801575302  C 44.175360564479526 26.87565801575302  44.1593504364204 27.14664849657811  44.127339720361775 27.68862470759313  C 44.095329004303146 28.198720356247804  44.04729862012577 28.64505583030883  43.98327718800853 29.027627329268086  C 43.759198359574306 31.801272359444965  43.487125399189274 34.09669684009708  43.16701442257918 35.91391241028056  C 42.87891416202771 37.6992468242743  42.558780289274516 39.13389030166913  42.2066585966058 40.217843436294444  C 41.85453499592515 41.26991565226179  41.43840522722265 42.05100439459088  40.9582387623075 42.56109992447968  C 40.44605967332181 43.103076491792336  39.90188131634904 43.485648584580986  39.325682703258025 43.70881537148446  C 38.781492898213706 43.963863195811804  38.15726771696916 44.155152983331305  37.45302242361979 44.28267689549498  C 36.87682190251685 44.346438970342696  36.108538004942915 44.37831288181383  35.14820507511262 44.37831288181383  C 34.18787023727041 44.41019368170593  33.14751337931144 44.41019368170593  32.027124961176106 44.37831288181383  C 31.995112337105557 43.549407452749975  31.835077836931674 42.64079984580705  31.546977576380204 41.65248964530449  C 31.290889939899284 40.66417938541898  30.93876633921864 39.80339042484782  30.490610590362117 39.07012798928966  C 31.35491137201653 39.16577092341242  32.15518499751793 39.229534185918915  32.89143909891399 39.26141516395983  C 33.65970773239253 39.29329614200075  34.235904437471625 39.309240758135495  34.62003684619898 39.309240758135495  C 35.00417116293825 39.309240758135495  35.30826437944152 39.277359126882246  35.53234129986382 39.213597170800405  C 35.75642012829804 39.11795423667766  35.98049514070841 38.97449069654615  36.20457206113071 38.78320482830065  C 36.492672321682186 38.49627608531533  36.76477581025801 37.95429571749455  37.020865354750846 37.157271444620434  C 37.2769548992437 36.32836613432246  37.517040039713194 35.1328312689677  37.74111696013549 33.57066352311156  C 37.965195788569716 32.00849553972367  38.17326067292097 30.01593521383601  38.36532687728464 27.59298112025804  Z M 27.417520792352555 28.166835043252313  C 27.769642485021276 26.38150074802445  28.0257377535499 24.516465997022767  28.18579324185495 22.571726989739133  C 28.18579324185495 22.571726989739133  33.89978524081433 22.571726989739133  33.89978524081433 22.571726989739133  C 33.67570832039203 25.026561645677447  33.33959675578244 27.369812908164015  32.89143909891399 29.60148125226236  C 32.475295974128024 31.801268558936844  31.771050680778654 33.85759262239452  30.778705126877817 35.77045082978605  C 29.786359572976977 37.68330939347522  28.39388102234929 39.420824389119  26.601258026923208 40.982992134975134  C 24.84064574755575 42.54515988083127  22.53582649103666 43.884165946716706  19.68683650959249 45  C 19.366724578976427 44.330499639289556  18.886555252043397 43.54941089696045  18.246333298823206 42.65674351181477  C 17.60611039159705 41.795957223475874  16.981914784537338 41.09457635978802  16.37370354737577 40.55259979247536  C 18.870571836151218 39.65993252609555  20.855257219917124 38.59191658473756  22.327769238733108 37.3485586192906  C 23.832291973607717 36.073319497653905  24.968677163718702 34.670557889044076  25.736943889185323 33.140271180611805  C 26.53722323872249 31.60998423464776  27.09740981574246 29.952169813543694  27.417520792352555 28.166835043252313  Z M 6.770343720882079 14.10732651820587  C 5.297831940567586 13.374064082647706  3.9053529129369187 12.736445234424632  2.592896620927473 12.19446997353664  C 2.592896620927473 12.19446997353664  6.194154647850683 8.512218464692689  6.194154647850683 8.512218464692689  C 7.506610701358637 8.990432600859995  8.899089728989305 9.56428652385427  10.37160174780529 10.233787834691748  C 11.876124959682878 10.903287245275166  13.30062328942583 11.588731687673906  14.645090535995392 12.290113560871724  C 16.02156945262954 12.991495434069545  17.173979080889087 13.676937976214225  18.10230129466075 14.346439287051703  C 18.10230129466075 14.346439287051703  14.21293346712645 18.459083138395417  14.21293346712645 18.459083138395417  C 13.380644355536619 17.78958277768497  12.308268195465368 17.08820090448715  10.995811664954434 16.354939419056016  C 9.68335561144648 15.589794520883453  8.27486693275967 14.84058895376403  6.770343720882079 14.10732651820587  Z M 17.286008001040614 17.693934439714738  C 17.286008001040614 17.693934439714738  17.286008001040614 16.880975348890868  17.286008001040614 16.880975348890868  L 18.006259606425257 16.880975348890868  L 18.774532055927647 16.64187018106127  C 18.774532055927647 16.64187018106127  22.279748394615357 17.741760033890397  22.279748394615357 17.741760033890397  C 21.89561503188205 19.90966582807751  21.399435576889896 22.141334647239372  20.791224339728327 24.436765541248942  C 20.215023818625383 26.732195485131484  19.606807811434003 28.692874773595282  18.966584904207846 30.31880435676738  C 18.966584904207846 30.31880435676738  15.077232340768939 28.501591399433234  15.077232340768939 28.501591399433234  C 15.525388089625459 27.098828603164623  15.941549340524713 25.393194763710586  16.32568270325802 23.38469368157924  C 16.741827736055917 21.376192599447897  17.061930126612353 19.479269685069628  17.286008001040614 17.693934439714738  Z M 32.98748078714949 13.103080252711832  C 34.620048294270525 11.477150669539737  35.78845183248784 9.532409762002047  36.4926971258372 7.268859430352817  C 36.4926971258372 7.268859430352817  42.49478366131228 8.177469709528008  42.49478366131228 8.177469709528008  C 41.4384166752942 11.110519451760657  39.9498792643237 13.629116182546682  38.02921149665119 15.733259901886083  C 36.14055444503731 17.80552305886514  33.89977570075471 19.52709432911826  31.306873355791463 20.8979756128995  C 28.713972918840142 22.26885784680777  25.832986531426783 23.400629212124265  22.663884619366552 24.293296359738196  C 22.471817460996917 23.8788442984186  22.15168454224969 23.36875340039907  21.70352879339317 22.763014164409306  C 21.287383760595272 22.15727587854657  20.839233735774528 21.56747692373698  20.35906727085938 20.993619200234583  C 19.91091152200286 20.38788091437185  19.4947807992944 19.909663927823452  19.11064743656109 19.558972991224543  C 22.055670520187096 18.953234705361808  24.69657176713096 18.12433438323074  27.03338456760136 17.07226252356104  C 29.402208084130383 16.020190663891338  31.38692399608708 14.697129273523583  32.98748078714949 13.103080252711832  Z M 23 6.455892738512711  C 24.632567507121035 4.383629581533652  25.94502785365582 2.231667869034828  26.937373407556656 0  C 26.937373407556656 0  32.26722918176485 1.5302821953288883  32.26722918176485 1.5302821953288883  C 31.498960548286306 3.219974803475725  30.5706116223477 4.87778874951628  29.482233920270986 6.503718332688374  C 28.393856218194273 8.129647915860467  27.241462808036083 9.659935811951534  26.02503842570102 11.094580120707516  C 24.840626667436506 12.497341966849095  23.62422327323262 13.708814738066446  22.375790082850855 14.729006035375804  C 22.023667436176172 14.410196611264269  21.55947770911147 14.059504724538327  20.98327718800853 13.676934175706105  C 20.407077620911544 13.26248116425948  19.83087996182649 12.863973184628177  19.254679440723546 12.481400735541897  C 18.678478919620602 12.098828286455612  18.166320818766078 11.780018862344077  17.718165069909556 11.524972463207282  C 19.606822121523436 10.185971741786384  21.36743249287897 8.496275333131427  23 6.455892738512711  Z M 22.807916623529003 9.994682666862154  C 22.807916623529003 9.994682666862154  27.5615833247058 8.512218464692689  27.5615833247058 8.512218464692689  C 28.681973650853063 10.297552759920551  30.138460277514525 11.923478542584524  31.931083272940608 13.390003413700848  C 33.75571889243724 14.856528284817172  35.85247135659316 16.115833301099393  38.22129487312218 17.167906110896123  C 40.62212910570984 18.188097408205483  43.21503145067308 18.969178787050097  46 19.51115499806512  C 45.61586568326073 19.86184593466403  45.18369525830831 20.340062921212425  44.70352879339317 20.94580120707516  C 44.25537304453665 21.519658930577556  43.82323314777503 22.109450284370908  43.40708811497713 22.715188570233643  C 42.990943082179236 23.320926856096378  42.63882138951052 23.862906867619518  42.350721128959044 24.34112195391386  C 39.40569709132707 23.607859518355692  36.700756286152675 22.571725089485074  34.23590062144778 21.232724368064176  C 31.803053764789578 19.89372269651625  29.610303496672426 18.283734344651357  27.657625012941295 16.40275741221544  C 25.736957245268794 14.521779529652495  24.120373154039942 12.385755247952751  22.807916623529003 9.994682666862154  Z M 6.098112959615185 23.480337268914326  C 6.930402548207995 21.82252617325486  7.6026428495345115 20.196592789574648  8.114820507511263 18.602544718889927  C 8.114820507511263 18.602544718889927  11.812104958574572 19.989365333724308  11.812104958574572 19.989365333724308  C 11.203892767407043 22.093510003190737  10.435625087934463 24.24547836657877  9.507302874162798 26.445265673253257  C 8.610990899446776 28.645052504864225  7.586628905451538 30.685431774038342  6.434228340248633 32.56640965660129  C 5.281827775045725 34.44738682656896  4.017396143177878 36.025501504494486  2.6409174650452214 37.30074062613118  C 2.3848283975553555 36.471835315833204  1.9846923003091312 35.53134613701997  1.440503210769284 34.479273802286755  C 0.9283250757895519 33.42720194261705  0.44815574885652015 32.51859403875944  0 31.75345056577742  C 1.1524006844536516 30.733259268468064  2.2407712314856476 29.50584241556242  3.2651273821943665 28.071199056933466  C 4.321494606713945 26.63655474817749  5.265823609523866 25.10626685208642  6.098112959615185 23.480337268914326  Z M 24.488524054887034 10  L 26.79331087520341 5  L 44.75154963751091 5  L 44.75154963751091 10  L 24.488524054887034 10  Z M 15.84550479027133 3.251859166344187  C 15.84550479027133 3.251859166344187  15.84550479027133 2.2476052998339093  15.84550479027133 2.2476052998339093  L 17.045934308642664 2.2476052998339093  L 17.958238762307506 2.0563181251637386  C 17.958238762307506 2.0563181251637386  21.607517633348465 4.3039310260138866  21.607517633348465 4.3039310260138866  C 20.90327329400506 5.4516464730186724  20.03896201828506 6.63124438263786  19.014605748325597 7.84272095436333  C 17.99024947836613 9.0541975260888  16.885854016182595 10.201905372077347  15.701442257918085 11.285859694361449  C 14.549041215712197 12.337931554031147  13.396646851548045 13.262484964767602  12.24424676334812 14.059508525046446  C 11.732068628368387 13.58129438887914  11.10785823421626 13.08713902140463  10.37160174780529 12.577044322876981  C 9.667356931458903 12.066947724095272  9.027135932244672 11.636549680833328  8.45093588814471 11.285859694361449  C 9.475291681101192 10.584477821163627  10.451624721928003 9.77151492983164  11.37994788970563 8.846967219857369  C 12.34028177354188 7.890537047268693  13.204593049261883 6.918167543626877  13.9728597747285 5.92985680867786  C 14.773138170259703 4.941547973982904  15.397349041414808 4.048884626877093  15.84550479027133 3.251859166344187  Z " fill-rule="evenodd" />
    </mask>
  </defs>
  <g transform="matrix(1 0 0 1 -381 -255 )">
    <path d="M 1.488508790791636 7  L 1.488508790791636 3  L 17.189966312805115 3  L 17.189966312805115 7  L 1.488508790791636 7  Z M 20.69518265149283 31  L 20.69518265149283 26  L 40.18996631280512 26  L 40.18996631280512 31  L 20.69518265149283 31  Z M 0.8162780295247425 22  L 0.8162780295247425 17  L 18.67849036769215 17  L 18.67849036769215 22  L 0.8162780295247425 22  Z M 8.643004000520307 38.687561240965564  C 8.643004000520307 38.687561240965564  8.643004000520307 18.937293474054606  8.643004000520307 18.937293474054606  L 14.068886198868599 18.937293474054606  C 14.068886198868599 18.937293474054606  14.068886198868599 38.78320482830065  14.068886198868599 38.78320482830065  C 14.068886198868599 40.09032474982944  13.924844654646524 41.14239607505269  13.636744394095052 41.93942040730975  C 13.380655803608166 42.73644479894974  12.83646313654596 43.358117665230466  12.004173070950168 43.80445135780331  C 11.171883959360342 44.218903894186425  10.195535177435154 44.48990173849599  9.075145805293854 44.617425650659655  C 7.9547559561495715 44.74494956282333  6.658304783667949 44.80871282532983  5.185793241854946 44.80871282532983  C 5.0897596626701285 44.011688552455716  4.8816945398173885 43.087136210612165  4.5615833247058015 42.03506399464483  C 4.241471871092723 41.01487281610135  3.8893499399225115 40.12220210551106  3.5052163386877124 39.357058751294915  C 4.433539029462359 39.38893972933584  5.313844215140124 39.40488434547058  6.146133803732933 39.40488434547058  C 6.978422915322763 39.40488434547058  7.554620097404839 39.40488434547058  7.874731551017915 39.40488434547058  C 8.162831811569388 39.37300336742966  8.354902308959891 39.325177120041666  8.45093588814471 39.26141516395983  C 8.578980183388152 39.165772289220016  8.643004000520307 38.97449010271676  8.643004000520307 38.687561240965564  Z M 38.36532687728464 27.59298112025804  C 38.36532687728464 27.59298112025804  38.36532687728464 26.87565801575302  38.36532687728464 26.87565801575302  C 38.36532687728464 26.87565801575302  44.175360564479526 26.87565801575302  44.175360564479526 26.87565801575302  C 44.175360564479526 26.87565801575302  44.1593504364204 27.14664849657811  44.127339720361775 27.68862470759313  C 44.095329004303146 28.198720356247804  44.04729862012577 28.64505583030883  43.98327718800853 29.027627329268086  C 43.759198359574306 31.801272359444965  43.487125399189274 34.09669684009708  43.16701442257918 35.91391241028056  C 42.87891416202771 37.6992468242743  42.558780289274516 39.13389030166913  42.2066585966058 40.217843436294444  C 41.85453499592515 41.26991565226179  41.43840522722265 42.05100439459088  40.9582387623075 42.56109992447968  C 40.44605967332181 43.103076491792336  39.90188131634904 43.485648584580986  39.325682703258025 43.70881537148446  C 38.781492898213706 43.963863195811804  38.15726771696916 44.155152983331305  37.45302242361979 44.28267689549498  C 36.87682190251685 44.346438970342696  36.108538004942915 44.37831288181383  35.14820507511262 44.37831288181383  C 34.18787023727041 44.41019368170593  33.14751337931144 44.41019368170593  32.027124961176106 44.37831288181383  C 31.995112337105557 43.549407452749975  31.835077836931674 42.64079984580705  31.546977576380204 41.65248964530449  C 31.290889939899284 40.66417938541898  30.93876633921864 39.80339042484782  30.490610590362117 39.07012798928966  C 31.35491137201653 39.16577092341242  32.15518499751793 39.229534185918915  32.89143909891399 39.26141516395983  C 33.65970773239253 39.29329614200075  34.235904437471625 39.309240758135495  34.62003684619898 39.309240758135495  C 35.00417116293825 39.309240758135495  35.30826437944152 39.277359126882246  35.53234129986382 39.213597170800405  C 35.75642012829804 39.11795423667766  35.98049514070841 38.97449069654615  36.20457206113071 38.78320482830065  C 36.492672321682186 38.49627608531533  36.76477581025801 37.95429571749455  37.020865354750846 37.157271444620434  C 37.2769548992437 36.32836613432246  37.517040039713194 35.1328312689677  37.74111696013549 33.57066352311156  C 37.965195788569716 32.00849553972367  38.17326067292097 30.01593521383601  38.36532687728464 27.59298112025804  Z M 27.417520792352555 28.166835043252313  C 27.769642485021276 26.38150074802445  28.0257377535499 24.516465997022767  28.18579324185495 22.571726989739133  C 28.18579324185495 22.571726989739133  33.89978524081433 22.571726989739133  33.89978524081433 22.571726989739133  C 33.67570832039203 25.026561645677447  33.33959675578244 27.369812908164015  32.89143909891399 29.60148125226236  C 32.475295974128024 31.801268558936844  31.771050680778654 33.85759262239452  30.778705126877817 35.77045082978605  C 29.786359572976977 37.68330939347522  28.39388102234929 39.420824389119  26.601258026923208 40.982992134975134  C 24.84064574755575 42.54515988083127  22.53582649103666 43.884165946716706  19.68683650959249 45  C 19.366724578976427 44.330499639289556  18.886555252043397 43.54941089696045  18.246333298823206 42.65674351181477  C 17.60611039159705 41.795957223475874  16.981914784537338 41.09457635978802  16.37370354737577 40.55259979247536  C 18.870571836151218 39.65993252609555  20.855257219917124 38.59191658473756  22.327769238733108 37.3485586192906  C 23.832291973607717 36.073319497653905  24.968677163718702 34.670557889044076  25.736943889185323 33.140271180611805  C 26.53722323872249 31.60998423464776  27.09740981574246 29.952169813543694  27.417520792352555 28.166835043252313  Z M 6.770343720882079 14.10732651820587  C 5.297831940567586 13.374064082647706  3.9053529129369187 12.736445234424632  2.592896620927473 12.19446997353664  C 2.592896620927473 12.19446997353664  6.194154647850683 8.512218464692689  6.194154647850683 8.512218464692689  C 7.506610701358637 8.990432600859995  8.899089728989305 9.56428652385427  10.37160174780529 10.233787834691748  C 11.876124959682878 10.903287245275166  13.30062328942583 11.588731687673906  14.645090535995392 12.290113560871724  C 16.02156945262954 12.991495434069545  17.173979080889087 13.676937976214225  18.10230129466075 14.346439287051703  C 18.10230129466075 14.346439287051703  14.21293346712645 18.459083138395417  14.21293346712645 18.459083138395417  C 13.380644355536619 17.78958277768497  12.308268195465368 17.08820090448715  10.995811664954434 16.354939419056016  C 9.68335561144648 15.589794520883453  8.27486693275967 14.84058895376403  6.770343720882079 14.10732651820587  Z M 17.286008001040614 17.693934439714738  C 17.286008001040614 17.693934439714738  17.286008001040614 16.880975348890868  17.286008001040614 16.880975348890868  L 18.006259606425257 16.880975348890868  L 18.774532055927647 16.64187018106127  C 18.774532055927647 16.64187018106127  22.279748394615357 17.741760033890397  22.279748394615357 17.741760033890397  C 21.89561503188205 19.90966582807751  21.399435576889896 22.141334647239372  20.791224339728327 24.436765541248942  C 20.215023818625383 26.732195485131484  19.606807811434003 28.692874773595282  18.966584904207846 30.31880435676738  C 18.966584904207846 30.31880435676738  15.077232340768939 28.501591399433234  15.077232340768939 28.501591399433234  C 15.525388089625459 27.098828603164623  15.941549340524713 25.393194763710586  16.32568270325802 23.38469368157924  C 16.741827736055917 21.376192599447897  17.061930126612353 19.479269685069628  17.286008001040614 17.693934439714738  Z M 32.98748078714949 13.103080252711832  C 34.620048294270525 11.477150669539737  35.78845183248784 9.532409762002047  36.4926971258372 7.268859430352817  C 36.4926971258372 7.268859430352817  42.49478366131228 8.177469709528008  42.49478366131228 8.177469709528008  C 41.4384166752942 11.110519451760657  39.9498792643237 13.629116182546682  38.02921149665119 15.733259901886083  C 36.14055444503731 17.80552305886514  33.89977570075471 19.52709432911826  31.306873355791463 20.8979756128995  C 28.713972918840142 22.26885784680777  25.832986531426783 23.400629212124265  22.663884619366552 24.293296359738196  C 22.471817460996917 23.8788442984186  22.15168454224969 23.36875340039907  21.70352879339317 22.763014164409306  C 21.287383760595272 22.15727587854657  20.839233735774528 21.56747692373698  20.35906727085938 20.993619200234583  C 19.91091152200286 20.38788091437185  19.4947807992944 19.909663927823452  19.11064743656109 19.558972991224543  C 22.055670520187096 18.953234705361808  24.69657176713096 18.12433438323074  27.03338456760136 17.07226252356104  C 29.402208084130383 16.020190663891338  31.38692399608708 14.697129273523583  32.98748078714949 13.103080252711832  Z M 23 6.455892738512711  C 24.632567507121035 4.383629581533652  25.94502785365582 2.231667869034828  26.937373407556656 0  C 26.937373407556656 0  32.26722918176485 1.5302821953288883  32.26722918176485 1.5302821953288883  C 31.498960548286306 3.219974803475725  30.5706116223477 4.87778874951628  29.482233920270986 6.503718332688374  C 28.393856218194273 8.129647915860467  27.241462808036083 9.659935811951534  26.02503842570102 11.094580120707516  C 24.840626667436506 12.497341966849095  23.62422327323262 13.708814738066446  22.375790082850855 14.729006035375804  C 22.023667436176172 14.410196611264269  21.55947770911147 14.059504724538327  20.98327718800853 13.676934175706105  C 20.407077620911544 13.26248116425948  19.83087996182649 12.863973184628177  19.254679440723546 12.481400735541897  C 18.678478919620602 12.098828286455612  18.166320818766078 11.780018862344077  17.718165069909556 11.524972463207282  C 19.606822121523436 10.185971741786384  21.36743249287897 8.496275333131427  23 6.455892738512711  Z M 22.807916623529003 9.994682666862154  C 22.807916623529003 9.994682666862154  27.5615833247058 8.512218464692689  27.5615833247058 8.512218464692689  C 28.681973650853063 10.297552759920551  30.138460277514525 11.923478542584524  31.931083272940608 13.390003413700848  C 33.75571889243724 14.856528284817172  35.85247135659316 16.115833301099393  38.22129487312218 17.167906110896123  C 40.62212910570984 18.188097408205483  43.21503145067308 18.969178787050097  46 19.51115499806512  C 45.61586568326073 19.86184593466403  45.18369525830831 20.340062921212425  44.70352879339317 20.94580120707516  C 44.25537304453665 21.519658930577556  43.82323314777503 22.109450284370908  43.40708811497713 22.715188570233643  C 42.990943082179236 23.320926856096378  42.63882138951052 23.862906867619518  42.350721128959044 24.34112195391386  C 39.40569709132707 23.607859518355692  36.700756286152675 22.571725089485074  34.23590062144778 21.232724368064176  C 31.803053764789578 19.89372269651625  29.610303496672426 18.283734344651357  27.657625012941295 16.40275741221544  C 25.736957245268794 14.521779529652495  24.120373154039942 12.385755247952751  22.807916623529003 9.994682666862154  Z M 6.098112959615185 23.480337268914326  C 6.930402548207995 21.82252617325486  7.6026428495345115 20.196592789574648  8.114820507511263 18.602544718889927  C 8.114820507511263 18.602544718889927  11.812104958574572 19.989365333724308  11.812104958574572 19.989365333724308  C 11.203892767407043 22.093510003190737  10.435625087934463 24.24547836657877  9.507302874162798 26.445265673253257  C 8.610990899446776 28.645052504864225  7.586628905451538 30.685431774038342  6.434228340248633 32.56640965660129  C 5.281827775045725 34.44738682656896  4.017396143177878 36.025501504494486  2.6409174650452214 37.30074062613118  C 2.3848283975553555 36.471835315833204  1.9846923003091312 35.53134613701997  1.440503210769284 34.479273802286755  C 0.9283250757895519 33.42720194261705  0.44815574885652015 32.51859403875944  0 31.75345056577742  C 1.1524006844536516 30.733259268468064  2.2407712314856476 29.50584241556242  3.2651273821943665 28.071199056933466  C 4.321494606713945 26.63655474817749  5.265823609523866 25.10626685208642  6.098112959615185 23.480337268914326  Z M 24.488524054887034 10  L 26.79331087520341 5  L 44.75154963751091 5  L 44.75154963751091 10  L 24.488524054887034 10  Z M 15.84550479027133 3.251859166344187  C 15.84550479027133 3.251859166344187  15.84550479027133 2.2476052998339093  15.84550479027133 2.2476052998339093  L 17.045934308642664 2.2476052998339093  L 17.958238762307506 2.0563181251637386  C 17.958238762307506 2.0563181251637386  21.607517633348465 4.3039310260138866  21.607517633348465 4.3039310260138866  C 20.90327329400506 5.4516464730186724  20.03896201828506 6.63124438263786  19.014605748325597 7.84272095436333  C 17.99024947836613 9.0541975260888  16.885854016182595 10.201905372077347  15.701442257918085 11.285859694361449  C 14.549041215712197 12.337931554031147  13.396646851548045 13.262484964767602  12.24424676334812 14.059508525046446  C 11.732068628368387 13.58129438887914  11.10785823421626 13.08713902140463  10.37160174780529 12.577044322876981  C 9.667356931458903 12.066947724095272  9.027135932244672 11.636549680833328  8.45093588814471 11.285859694361449  C 9.475291681101192 10.584477821163627  10.451624721928003 9.77151492983164  11.37994788970563 8.846967219857369  C 12.34028177354188 7.890537047268693  13.204593049261883 6.918167543626877  13.9728597747285 5.92985680867786  C 14.773138170259703 4.941547973982904  15.397349041414808 4.048884626877093  15.84550479027133 3.251859166344187  Z " fill-rule="nonzero" fill="rgba(255, 255, 255, 1)" stroke="none" transform="matrix(1 0 0 1 381 255 )" class="fill" />
    <path d="M 1.488508790791636 7  L 1.488508790791636 3  L 17.189966312805115 3  L 17.189966312805115 7  L 1.488508790791636 7  Z " stroke-width="0" stroke-dasharray="0" stroke="rgba(121, 121, 121, 1)" fill="none" transform="matrix(1 0 0 1 381 255 )" class="stroke" mask="url(#Clip4293)" />
    <path d="M 20.69518265149283 31  L 20.69518265149283 26  L 40.18996631280512 26  L 40.18996631280512 31  L 20.69518265149283 31  Z " stroke-width="0" stroke-dasharray="0" stroke="rgba(121, 121, 121, 1)" fill="none" transform="matrix(1 0 0 1 381 255 )" class="stroke" mask="url(#Clip4293)" />
    <path d="M 0.8162780295247425 22  L 0.8162780295247425 17  L 18.67849036769215 17  L 18.67849036769215 22  L 0.8162780295247425 22  Z " stroke-width="0" stroke-dasharray="0" stroke="rgba(121, 121, 121, 1)" fill="none" transform="matrix(1 0 0 1 381 255 )" class="stroke" mask="url(#Clip4293)" />
    <path d="M 8.643004000520307 38.687561240965564  C 8.643004000520307 38.687561240965564  8.643004000520307 18.937293474054606  8.643004000520307 18.937293474054606  L 14.068886198868599 18.937293474054606  C 14.068886198868599 18.937293474054606  14.068886198868599 38.78320482830065  14.068886198868599 38.78320482830065  C 14.068886198868599 40.09032474982944  13.924844654646524 41.14239607505269  13.636744394095052 41.93942040730975  C 13.380655803608166 42.73644479894974  12.83646313654596 43.358117665230466  12.004173070950168 43.80445135780331  C 11.171883959360342 44.218903894186425  10.195535177435154 44.48990173849599  9.075145805293854 44.617425650659655  C 7.9547559561495715 44.74494956282333  6.658304783667949 44.80871282532983  5.185793241854946 44.80871282532983  C 5.0897596626701285 44.011688552455716  4.8816945398173885 43.087136210612165  4.5615833247058015 42.03506399464483  C 4.241471871092723 41.01487281610135  3.8893499399225115 40.12220210551106  3.5052163386877124 39.357058751294915  C 4.433539029462359 39.38893972933584  5.313844215140124 39.40488434547058  6.146133803732933 39.40488434547058  C 6.978422915322763 39.40488434547058  7.554620097404839 39.40488434547058  7.874731551017915 39.40488434547058  C 8.162831811569388 39.37300336742966  8.354902308959891 39.325177120041666  8.45093588814471 39.26141516395983  C 8.578980183388152 39.165772289220016  8.643004000520307 38.97449010271676  8.643004000520307 38.687561240965564  Z " stroke-width="0" stroke-dasharray="0" stroke="rgba(121, 121, 121, 1)" fill="none" transform="matrix(1 0 0 1 381 255 )" class="stroke" mask="url(#Clip4293)" />
    <path d="M 38.36532687728464 27.59298112025804  C 38.36532687728464 27.59298112025804  38.36532687728464 26.87565801575302  38.36532687728464 26.87565801575302  C 38.36532687728464 26.87565801575302  44.175360564479526 26.87565801575302  44.175360564479526 26.87565801575302  C 44.175360564479526 26.87565801575302  44.1593504364204 27.14664849657811  44.127339720361775 27.68862470759313  C 44.095329004303146 28.198720356247804  44.04729862012577 28.64505583030883  43.98327718800853 29.027627329268086  C 43.759198359574306 31.801272359444965  43.487125399189274 34.09669684009708  43.16701442257918 35.91391241028056  C 42.87891416202771 37.6992468242743  42.558780289274516 39.13389030166913  42.2066585966058 40.217843436294444  C 41.85453499592515 41.26991565226179  41.43840522722265 42.05100439459088  40.9582387623075 42.56109992447968  C 40.44605967332181 43.103076491792336  39.90188131634904 43.485648584580986  39.325682703258025 43.70881537148446  C 38.781492898213706 43.963863195811804  38.15726771696916 44.155152983331305  37.45302242361979 44.28267689549498  C 36.87682190251685 44.346438970342696  36.108538004942915 44.37831288181383  35.14820507511262 44.37831288181383  C 34.18787023727041 44.41019368170593  33.14751337931144 44.41019368170593  32.027124961176106 44.37831288181383  C 31.995112337105557 43.549407452749975  31.835077836931674 42.64079984580705  31.546977576380204 41.65248964530449  C 31.290889939899284 40.66417938541898  30.93876633921864 39.80339042484782  30.490610590362117 39.07012798928966  C 31.35491137201653 39.16577092341242  32.15518499751793 39.229534185918915  32.89143909891399 39.26141516395983  C 33.65970773239253 39.29329614200075  34.235904437471625 39.309240758135495  34.62003684619898 39.309240758135495  C 35.00417116293825 39.309240758135495  35.30826437944152 39.277359126882246  35.53234129986382 39.213597170800405  C 35.75642012829804 39.11795423667766  35.98049514070841 38.97449069654615  36.20457206113071 38.78320482830065  C 36.492672321682186 38.49627608531533  36.76477581025801 37.95429571749455  37.020865354750846 37.157271444620434  C 37.2769548992437 36.32836613432246  37.517040039713194 35.1328312689677  37.74111696013549 33.57066352311156  C 37.965195788569716 32.00849553972367  38.17326067292097 30.01593521383601  38.36532687728464 27.59298112025804  Z " stroke-width="0" stroke-dasharray="0" stroke="rgba(121, 121, 121, 1)" fill="none" transform="matrix(1 0 0 1 381 255 )" class="stroke" mask="url(#Clip4293)" />
    <path d="M 27.417520792352555 28.166835043252313  C 27.769642485021276 26.38150074802445  28.0257377535499 24.516465997022767  28.18579324185495 22.571726989739133  C 28.18579324185495 22.571726989739133  33.89978524081433 22.571726989739133  33.89978524081433 22.571726989739133  C 33.67570832039203 25.026561645677447  33.33959675578244 27.369812908164015  32.89143909891399 29.60148125226236  C 32.475295974128024 31.801268558936844  31.771050680778654 33.85759262239452  30.778705126877817 35.77045082978605  C 29.786359572976977 37.68330939347522  28.39388102234929 39.420824389119  26.601258026923208 40.982992134975134  C 24.84064574755575 42.54515988083127  22.53582649103666 43.884165946716706  19.68683650959249 45  C 19.366724578976427 44.330499639289556  18.886555252043397 43.54941089696045  18.246333298823206 42.65674351181477  C 17.60611039159705 41.795957223475874  16.981914784537338 41.09457635978802  16.37370354737577 40.55259979247536  C 18.870571836151218 39.65993252609555  20.855257219917124 38.59191658473756  22.327769238733108 37.3485586192906  C 23.832291973607717 36.073319497653905  24.968677163718702 34.670557889044076  25.736943889185323 33.140271180611805  C 26.53722323872249 31.60998423464776  27.09740981574246 29.952169813543694  27.417520792352555 28.166835043252313  Z " stroke-width="0" stroke-dasharray="0" stroke="rgba(121, 121, 121, 1)" fill="none" transform="matrix(1 0 0 1 381 255 )" class="stroke" mask="url(#Clip4293)" />
    <path d="M 6.770343720882079 14.10732651820587  C 5.297831940567586 13.374064082647706  3.9053529129369187 12.736445234424632  2.592896620927473 12.19446997353664  C 2.592896620927473 12.19446997353664  6.194154647850683 8.512218464692689  6.194154647850683 8.512218464692689  C 7.506610701358637 8.990432600859995  8.899089728989305 9.56428652385427  10.37160174780529 10.233787834691748  C 11.876124959682878 10.903287245275166  13.30062328942583 11.588731687673906  14.645090535995392 12.290113560871724  C 16.02156945262954 12.991495434069545  17.173979080889087 13.676937976214225  18.10230129466075 14.346439287051703  C 18.10230129466075 14.346439287051703  14.21293346712645 18.459083138395417  14.21293346712645 18.459083138395417  C 13.380644355536619 17.78958277768497  12.308268195465368 17.08820090448715  10.995811664954434 16.354939419056016  C 9.68335561144648 15.589794520883453  8.27486693275967 14.84058895376403  6.770343720882079 14.10732651820587  Z " stroke-width="0" stroke-dasharray="0" stroke="rgba(121, 121, 121, 1)" fill="none" transform="matrix(1 0 0 1 381 255 )" class="stroke" mask="url(#Clip4293)" />
    <path d="M 17.286008001040614 17.693934439714738  C 17.286008001040614 17.693934439714738  17.286008001040614 16.880975348890868  17.286008001040614 16.880975348890868  L 18.006259606425257 16.880975348890868  L 18.774532055927647 16.64187018106127  C 18.774532055927647 16.64187018106127  22.279748394615357 17.741760033890397  22.279748394615357 17.741760033890397  C 21.89561503188205 19.90966582807751  21.399435576889896 22.141334647239372  20.791224339728327 24.436765541248942  C 20.215023818625383 26.732195485131484  19.606807811434003 28.692874773595282  18.966584904207846 30.31880435676738  C 18.966584904207846 30.31880435676738  15.077232340768939 28.501591399433234  15.077232340768939 28.501591399433234  C 15.525388089625459 27.098828603164623  15.941549340524713 25.393194763710586  16.32568270325802 23.38469368157924  C 16.741827736055917 21.376192599447897  17.061930126612353 19.479269685069628  17.286008001040614 17.693934439714738  Z " stroke-width="0" stroke-dasharray="0" stroke="rgba(121, 121, 121, 1)" fill="none" transform="matrix(1 0 0 1 381 255 )" class="stroke" mask="url(#Clip4293)" />
    <path d="M 32.98748078714949 13.103080252711832  C 34.620048294270525 11.477150669539737  35.78845183248784 9.532409762002047  36.4926971258372 7.268859430352817  C 36.4926971258372 7.268859430352817  42.49478366131228 8.177469709528008  42.49478366131228 8.177469709528008  C 41.4384166752942 11.110519451760657  39.9498792643237 13.629116182546682  38.02921149665119 15.733259901886083  C 36.14055444503731 17.80552305886514  33.89977570075471 19.52709432911826  31.306873355791463 20.8979756128995  C 28.713972918840142 22.26885784680777  25.832986531426783 23.400629212124265  22.663884619366552 24.293296359738196  C 22.471817460996917 23.8788442984186  22.15168454224969 23.36875340039907  21.70352879339317 22.763014164409306  C 21.287383760595272 22.15727587854657  20.839233735774528 21.56747692373698  20.35906727085938 20.993619200234583  C 19.91091152200286 20.38788091437185  19.4947807992944 19.909663927823452  19.11064743656109 19.558972991224543  C 22.055670520187096 18.953234705361808  24.69657176713096 18.12433438323074  27.03338456760136 17.07226252356104  C 29.402208084130383 16.020190663891338  31.38692399608708 14.697129273523583  32.98748078714949 13.103080252711832  Z " stroke-width="0" stroke-dasharray="0" stroke="rgba(121, 121, 121, 1)" fill="none" transform="matrix(1 0 0 1 381 255 )" class="stroke" mask="url(#Clip4293)" />
    <path d="M 23 6.455892738512711  C 24.632567507121035 4.383629581533652  25.94502785365582 2.231667869034828  26.937373407556656 0  C 26.937373407556656 0  32.26722918176485 1.5302821953288883  32.26722918176485 1.5302821953288883  C 31.498960548286306 3.219974803475725  30.5706116223477 4.87778874951628  29.482233920270986 6.503718332688374  C 28.393856218194273 8.129647915860467  27.241462808036083 9.659935811951534  26.02503842570102 11.094580120707516  C 24.840626667436506 12.497341966849095  23.62422327323262 13.708814738066446  22.375790082850855 14.729006035375804  C 22.023667436176172 14.410196611264269  21.55947770911147 14.059504724538327  20.98327718800853 13.676934175706105  C 20.407077620911544 13.26248116425948  19.83087996182649 12.863973184628177  19.254679440723546 12.481400735541897  C 18.678478919620602 12.098828286455612  18.166320818766078 11.780018862344077  17.718165069909556 11.524972463207282  C 19.606822121523436 10.185971741786384  21.36743249287897 8.496275333131427  23 6.455892738512711  Z " stroke-width="0" stroke-dasharray="0" stroke="rgba(121, 121, 121, 1)" fill="none" transform="matrix(1 0 0 1 381 255 )" class="stroke" mask="url(#Clip4293)" />
    <path d="M 22.807916623529003 9.994682666862154  C 22.807916623529003 9.994682666862154  27.5615833247058 8.512218464692689  27.5615833247058 8.512218464692689  C 28.681973650853063 10.297552759920551  30.138460277514525 11.923478542584524  31.931083272940608 13.390003413700848  C 33.75571889243724 14.856528284817172  35.85247135659316 16.115833301099393  38.22129487312218 17.167906110896123  C 40.62212910570984 18.188097408205483  43.21503145067308 18.969178787050097  46 19.51115499806512  C 45.61586568326073 19.86184593466403  45.18369525830831 20.340062921212425  44.70352879339317 20.94580120707516  C 44.25537304453665 21.519658930577556  43.82323314777503 22.109450284370908  43.40708811497713 22.715188570233643  C 42.990943082179236 23.320926856096378  42.63882138951052 23.862906867619518  42.350721128959044 24.34112195391386  C 39.40569709132707 23.607859518355692  36.700756286152675 22.571725089485074  34.23590062144778 21.232724368064176  C 31.803053764789578 19.89372269651625  29.610303496672426 18.283734344651357  27.657625012941295 16.40275741221544  C 25.736957245268794 14.521779529652495  24.120373154039942 12.385755247952751  22.807916623529003 9.994682666862154  Z " stroke-width="0" stroke-dasharray="0" stroke="rgba(121, 121, 121, 1)" fill="none" transform="matrix(1 0 0 1 381 255 )" class="stroke" mask="url(#Clip4293)" />
    <path d="M 6.098112959615185 23.480337268914326  C 6.930402548207995 21.82252617325486  7.6026428495345115 20.196592789574648  8.114820507511263 18.602544718889927  C 8.114820507511263 18.602544718889927  11.812104958574572 19.989365333724308  11.812104958574572 19.989365333724308  C 11.203892767407043 22.093510003190737  10.435625087934463 24.24547836657877  9.507302874162798 26.445265673253257  C 8.610990899446776 28.645052504864225  7.586628905451538 30.685431774038342  6.434228340248633 32.56640965660129  C 5.281827775045725 34.44738682656896  4.017396143177878 36.025501504494486  2.6409174650452214 37.30074062613118  C 2.3848283975553555 36.471835315833204  1.9846923003091312 35.53134613701997  1.440503210769284 34.479273802286755  C 0.9283250757895519 33.42720194261705  0.44815574885652015 32.51859403875944  0 31.75345056577742  C 1.1524006844536516 30.733259268468064  2.2407712314856476 29.50584241556242  3.2651273821943665 28.071199056933466  C 4.321494606713945 26.63655474817749  5.265823609523866 25.10626685208642  6.098112959615185 23.480337268914326  Z " stroke-width="0" stroke-dasharray="0" stroke="rgba(121, 121, 121, 1)" fill="none" transform="matrix(1 0 0 1 381 255 )" class="stroke" mask="url(#Clip4293)" />
    <path d="M 24.488524054887034 10  L 26.79331087520341 5  L 44.75154963751091 5  L 44.75154963751091 10  L 24.488524054887034 10  Z " stroke-width="0" stroke-dasharray="0" stroke="rgba(121, 121, 121, 1)" fill="none" transform="matrix(1 0 0 1 381 255 )" class="stroke" mask="url(#Clip4293)" />
    <path d="M 15.84550479027133 3.251859166344187  C 15.84550479027133 3.251859166344187  15.84550479027133 2.2476052998339093  15.84550479027133 2.2476052998339093  L 17.045934308642664 2.2476052998339093  L 17.958238762307506 2.0563181251637386  C 17.958238762307506 2.0563181251637386  21.607517633348465 4.3039310260138866  21.607517633348465 4.3039310260138866  C 20.90327329400506 5.4516464730186724  20.03896201828506 6.63124438263786  19.014605748325597 7.84272095436333  C 17.99024947836613 9.0541975260888  16.885854016182595 10.201905372077347  15.701442257918085 11.285859694361449  C 14.549041215712197 12.337931554031147  13.396646851548045 13.262484964767602  12.24424676334812 14.059508525046446  C 11.732068628368387 13.58129438887914  11.10785823421626 13.08713902140463  10.37160174780529 12.577044322876981  C 9.667356931458903 12.066947724095272  9.027135932244672 11.636549680833328  8.45093588814471 11.285859694361449  C 9.475291681101192 10.584477821163627  10.451624721928003 9.77151492983164  11.37994788970563 8.846967219857369  C 12.34028177354188 7.890537047268693  13.204593049261883 6.918167543626877  13.9728597747285 5.92985680867786  C 14.773138170259703 4.941547973982904  15.397349041414808 4.048884626877093  15.84550479027133 3.251859166344187  Z " stroke-width="0" stroke-dasharray="0" stroke="rgba(121, 121, 121, 1)" fill="none" transform="matrix(1 0 0 1 381 255 )" class="stroke" mask="url(#Clip4293)" />
  </g>
</svg>