<?xml version="1.0" encoding="utf-8"?>
<svg version="1.1" xmlns:xlink="http://www.w3.org/1999/xlink" width="29px" height="34px" xmlns="http://www.w3.org/2000/svg">
  <defs>
    <pattern id="BGPattern" patternUnits="userSpaceOnUse" alignment="0 0" imageRepeat="None" />
    <mask fill="white" id="Clip4305">
      <path d="M 29 15.88367657069127  C 29 15.88367657069127  29 19.583486585098147  29 19.583486585098147  C 29 19.583486585098147  8.176228092010668 19.583486585098147  8.176228092010668 19.583486585098147  C 8.176228092010668 23.85740747554001  10.795160923352102 26.983114218256084  15.458156488713978 26.983114218256084  C 19.09912639808341 26.983114218256084  20.887674389538148 25.96247530125784  22.99560343532817 23.857409376626055  C 22.99560343532817 23.857409376626055  28.04185874066675 28.769230184281216  28.04185874066675 28.769230184281216  C 24.656395959172656 32.15009309171052  21.398690548961408 34  15.394284465926622 34  C 7.537455513140856 34  0 30.42776331523462  0 16.968101677238753  C 0 6.123823996559258  5.876666796641554 0  14.500015229380733 0  C 23.762130529971945 0  29 6.761725814858598  29 15.88367657069127  Z M 8.176228092010668 13.906189678959127  C 8.176228092010668 13.906189678959127  20.823802366750797 13.906189678959127  20.823802366750797 13.906189678959127  C 20.759924632945665 12.439022720997617  20.56828952785769 11.545964737985052  20.057277175779614 10.333957746908862  C 19.163002228215944 8.356470855176719  17.310587924991626 6.8893038972152105  14.500015229380733 6.8893038972152105  C 11.689441581933544 6.8893038972152105  9.836995868111462 8.356470855176719  8.942722824220388 10.333957746908862  C 8.431709520306017 11.545964737985052  8.2401048739795 12.439022720997617  8.176228092010668 13.906189678959127  Z " fill-rule="evenodd" />
    </mask>
  </defs>
  <g transform="matrix(1 0 0 1 -483 -203 )">
    <path d="M 29 15.88367657069127  C 29 15.88367657069127  29 19.583486585098147  29 19.583486585098147  C 29 19.583486585098147  8.176228092010668 19.583486585098147  8.176228092010668 19.583486585098147  C 8.176228092010668 23.85740747554001  10.795160923352102 26.983114218256084  15.458156488713978 26.983114218256084  C 19.09912639808341 26.983114218256084  20.887674389538148 25.96247530125784  22.99560343532817 23.857409376626055  C 22.99560343532817 23.857409376626055  28.04185874066675 28.769230184281216  28.04185874066675 28.769230184281216  C 24.656395959172656 32.15009309171052  21.398690548961408 34  15.394284465926622 34  C 7.537455513140856 34  0 30.42776331523462  0 16.968101677238753  C 0 6.123823996559258  5.876666796641554 0  14.500015229380733 0  C 23.762130529971945 0  29 6.761725814858598  29 15.88367657069127  Z M 8.176228092010668 13.906189678959127  C 8.176228092010668 13.906189678959127  20.823802366750797 13.906189678959127  20.823802366750797 13.906189678959127  C 20.759924632945665 12.439022720997617  20.56828952785769 11.545964737985052  20.057277175779614 10.333957746908862  C 19.163002228215944 8.356470855176719  17.310587924991626 6.8893038972152105  14.500015229380733 6.8893038972152105  C 11.689441581933544 6.8893038972152105  9.836995868111462 8.356470855176719  8.942722824220388 10.333957746908862  C 8.431709520306017 11.545964737985052  8.2401048739795 12.439022720997617  8.176228092010668 13.906189678959127  Z " fill-rule="nonzero" fill="rgba(255, 255, 255, 1)" stroke="none" transform="matrix(1 0 0 1 483 203 )" class="fill" />
    <path d="M 29 15.88367657069127  C 29 15.88367657069127  29 19.583486585098147  29 19.583486585098147  C 29 19.583486585098147  8.176228092010668 19.583486585098147  8.176228092010668 19.583486585098147  C 8.176228092010668 23.85740747554001  10.795160923352102 26.983114218256084  15.458156488713978 26.983114218256084  C 19.09912639808341 26.983114218256084  20.887674389538148 25.96247530125784  22.99560343532817 23.857409376626055  C 22.99560343532817 23.857409376626055  28.04185874066675 28.769230184281216  28.04185874066675 28.769230184281216  C 24.656395959172656 32.15009309171052  21.398690548961408 34  15.394284465926622 34  C 7.537455513140856 34  0 30.42776331523462  0 16.968101677238753  C 0 6.123823996559258  5.876666796641554 0  14.500015229380733 0  C 23.762130529971945 0  29 6.761725814858598  29 15.88367657069127  Z " stroke-width="0" stroke-dasharray="0" stroke="rgba(121, 121, 121, 1)" fill="none" transform="matrix(1 0 0 1 483 203 )" class="stroke" mask="url(#Clip4305)" />
    <path d="M 8.176228092010668 13.906189678959127  C 8.176228092010668 13.906189678959127  20.823802366750797 13.906189678959127  20.823802366750797 13.906189678959127  C 20.759924632945665 12.439022720997617  20.56828952785769 11.545964737985052  20.057277175779614 10.333957746908862  C 19.163002228215944 8.356470855176719  17.310587924991626 6.8893038972152105  14.500015229380733 6.8893038972152105  C 11.689441581933544 6.8893038972152105  9.836995868111462 8.356470855176719  8.942722824220388 10.333957746908862  C 8.431709520306017 11.545964737985052  8.2401048739795 12.439022720997617  8.176228092010668 13.906189678959127  Z " stroke-width="0" stroke-dasharray="0" stroke="rgba(121, 121, 121, 1)" fill="none" transform="matrix(1 0 0 1 483 203 )" class="stroke" mask="url(#Clip4305)" />
  </g>
</svg>