<?xml version="1.0" encoding="utf-8"?>
<svg version="1.1" xmlns:xlink="http://www.w3.org/1999/xlink" width="14px" height="20px" xmlns="http://www.w3.org/2000/svg">
  <defs>
    <pattern id="BGPattern" patternUnits="userSpaceOnUse" alignment="0 0" imageRepeat="None" />
    <mask fill="white" id="Clip4375">
      <path d="M 12.28571583478968 10.52486238008153  C 13.400001734269344 11.436464322317812  14 12.79005514205522  14 14.419889715889562  C 14 17.872928409416048  11.200000875823395 20  6.971429181128759 20  C 3.9142858751512355 20  1.9142858577737876 19.25414388682664  0 17.403315109461314  C 0 17.403315109461314  1.4857144515447926 15.966851728021812  1.4857144515447926 15.966851728021812  C 3.1714290143052546 17.596685831417002  4.742857138885155 18.121547741059373  7.028571792008347 18.121547741059373  C 10.000000695097933 18.121547741059373  11.828573001478752 16.767957391761122  11.828573001478752 14.475139972114249  C 11.828573001478752 13.453040575283108  11.514287668503902 12.569062467451491  10.857144723977306 12.016576017745717  C 10.200001779450709 11.464090391308467  9.68571560540736 11.298343974196602  8.200001640431122 11.077349888275405  C 8.200001640431122 11.077349888275405  5.828571611282885 10.718233572476375  5.828571611282885 10.718233572476375  C 4.228571694694637 10.469614711272202  2.9714289030895853 9.97237569515618  2.0857142986232473 9.226519934812188  C 1.0571429236736591 8.342541944590359  0.5428572361988653 7.127072884291632  0.5428572361988653 5.552487037754719  C 0.5428572361988653 2.209946034042671  3.0285715139691747 0  7.057143097448144 0  C 9.657143813399014 0  11.371429803241409 0.63535983467639  13.114287585092152 2.1546969539158747  C 13.114287585092152 2.1546969539158747  11.714285833445361 3.508288714531593  11.714285833445361 3.508288714531593  C 10.45714292019817 2.403315815120046  9.114286820484425 1.8232057662291865  6.971429181128759 1.8232057662291865  C 4.257143486702985 1.8232057662291865  2.685714388985979 3.2872933349027185  2.685714388985979 5.469613535174313  C 2.685714388985979 6.436465027976546  2.9714290855527925 7.2099465044818265  3.600000542176388 7.734808178904624  C 4.228571998799983 8.25966985332742  5.28571510493685 8.646409062652804  6.342857542041956 8.812155244545094  C 6.342857542041956 8.812155244545094  8.571428611148454 9.143647373110094  8.571428611148454 9.143647373110094  C 10.485714468922241 9.41989100959724  11.42857290068955 9.806630571751992  12.28571583478968 10.52486238008153  Z " fill-rule="evenodd" />
    </mask>
  </defs>
  <g transform="matrix(1 0 0 1 -1382 -542 )">
    <path d="M 12.28571583478968 10.52486238008153  C 13.400001734269344 11.436464322317812  14 12.79005514205522  14 14.419889715889562  C 14 17.872928409416048  11.200000875823395 20  6.971429181128759 20  C 3.9142858751512355 20  1.9142858577737876 19.25414388682664  0 17.403315109461314  C 0 17.403315109461314  1.4857144515447926 15.966851728021812  1.4857144515447926 15.966851728021812  C 3.1714290143052546 17.596685831417002  4.742857138885155 18.121547741059373  7.028571792008347 18.121547741059373  C 10.000000695097933 18.121547741059373  11.828573001478752 16.767957391761122  11.828573001478752 14.475139972114249  C 11.828573001478752 13.453040575283108  11.514287668503902 12.569062467451491  10.857144723977306 12.016576017745717  C 10.200001779450709 11.464090391308467  9.68571560540736 11.298343974196602  8.200001640431122 11.077349888275405  C 8.200001640431122 11.077349888275405  5.828571611282885 10.718233572476375  5.828571611282885 10.718233572476375  C 4.228571694694637 10.469614711272202  2.9714289030895853 9.97237569515618  2.0857142986232473 9.226519934812188  C 1.0571429236736591 8.342541944590359  0.5428572361988653 7.127072884291632  0.5428572361988653 5.552487037754719  C 0.5428572361988653 2.209946034042671  3.0285715139691747 0  7.057143097448144 0  C 9.657143813399014 0  11.371429803241409 0.63535983467639  13.114287585092152 2.1546969539158747  C 13.114287585092152 2.1546969539158747  11.714285833445361 3.508288714531593  11.714285833445361 3.508288714531593  C 10.45714292019817 2.403315815120046  9.114286820484425 1.8232057662291865  6.971429181128759 1.8232057662291865  C 4.257143486702985 1.8232057662291865  2.685714388985979 3.2872933349027185  2.685714388985979 5.469613535174313  C 2.685714388985979 6.436465027976546  2.9714290855527925 7.2099465044818265  3.600000542176388 7.734808178904624  C 4.228571998799983 8.25966985332742  5.28571510493685 8.646409062652804  6.342857542041956 8.812155244545094  C 6.342857542041956 8.812155244545094  8.571428611148454 9.143647373110094  8.571428611148454 9.143647373110094  C 10.485714468922241 9.41989100959724  11.42857290068955 9.806630571751992  12.28571583478968 10.52486238008153  Z " fill-rule="nonzero" fill="rgba(255, 255, 255, 1)" stroke="none" transform="matrix(1 0 0 1 1382 542 )" class="fill" />
    <path d="M 12.28571583478968 10.52486238008153  C 13.400001734269344 11.436464322317812  14 12.79005514205522  14 14.419889715889562  C 14 17.872928409416048  11.200000875823395 20  6.971429181128759 20  C 3.9142858751512355 20  1.9142858577737876 19.25414388682664  0 17.403315109461314  C 0 17.403315109461314  1.4857144515447926 15.966851728021812  1.4857144515447926 15.966851728021812  C 3.1714290143052546 17.596685831417002  4.742857138885155 18.121547741059373  7.028571792008347 18.121547741059373  C 10.000000695097933 18.121547741059373  11.828573001478752 16.767957391761122  11.828573001478752 14.475139972114249  C 11.828573001478752 13.453040575283108  11.514287668503902 12.569062467451491  10.857144723977306 12.016576017745717  C 10.200001779450709 11.464090391308467  9.68571560540736 11.298343974196602  8.200001640431122 11.077349888275405  C 8.200001640431122 11.077349888275405  5.828571611282885 10.718233572476375  5.828571611282885 10.718233572476375  C 4.228571694694637 10.469614711272202  2.9714289030895853 9.97237569515618  2.0857142986232473 9.226519934812188  C 1.0571429236736591 8.342541944590359  0.5428572361988653 7.127072884291632  0.5428572361988653 5.552487037754719  C 0.5428572361988653 2.209946034042671  3.0285715139691747 0  7.057143097448144 0  C 9.657143813399014 0  11.371429803241409 0.63535983467639  13.114287585092152 2.1546969539158747  C 13.114287585092152 2.1546969539158747  11.714285833445361 3.508288714531593  11.714285833445361 3.508288714531593  C 10.45714292019817 2.403315815120046  9.114286820484425 1.8232057662291865  6.971429181128759 1.8232057662291865  C 4.257143486702985 1.8232057662291865  2.685714388985979 3.2872933349027185  2.685714388985979 5.469613535174313  C 2.685714388985979 6.436465027976546  2.9714290855527925 7.2099465044818265  3.600000542176388 7.734808178904624  C 4.228571998799983 8.25966985332742  5.28571510493685 8.646409062652804  6.342857542041956 8.812155244545094  C 6.342857542041956 8.812155244545094  8.571428611148454 9.143647373110094  8.571428611148454 9.143647373110094  C 10.485714468922241 9.41989100959724  11.42857290068955 9.806630571751992  12.28571583478968 10.52486238008153  Z " stroke-width="0" stroke-dasharray="0" stroke="rgba(121, 121, 121, 1)" fill="none" transform="matrix(1 0 0 1 1382 542 )" class="stroke" mask="url(#Clip4375)" />
  </g>
</svg>