<?xml version="1.0" encoding="utf-8"?>
<svg version="1.1" xmlns:xlink="http://www.w3.org/1999/xlink" width="12px" height="20px" xmlns="http://www.w3.org/2000/svg">
  <defs>
    <pattern id="BGPattern" patternUnits="userSpaceOnUse" alignment="0 0" imageRepeat="None" />
    <mask fill="white" id="Clip4365">
      <path d="M 12 0  L 12 1.9101116070617055  L 2.0633407843683615 1.9101116070617055  L 2.0633407843683615 9.269662308607389  L 10.533942074264585 9.269662308607389  L 10.533942074264585 11.179775829140757  L 2.0633407843683615 11.179775829140757  L 2.0633407843683615 20  L 0 20  L 0 0  L 12 0  Z " fill-rule="evenodd" />
    </mask>
  </defs>
  <g transform="matrix(1 0 0 1 -1601 -542 )">
    <path d="M 12 0  L 12 1.9101116070617055  L 2.0633407843683615 1.9101116070617055  L 2.0633407843683615 9.269662308607389  L 10.533942074264585 9.269662308607389  L 10.533942074264585 11.179775829140757  L 2.0633407843683615 11.179775829140757  L 2.0633407843683615 20  L 0 20  L 0 0  L 12 0  Z " fill-rule="nonzero" fill="rgba(255, 255, 255, 1)" stroke="none" transform="matrix(1 0 0 1 1601 542 )" class="fill" />
    <path d="M 12 0  L 12 1.9101116070617055  L 2.0633407843683615 1.9101116070617055  L 2.0633407843683615 9.269662308607389  L 10.533942074264585 9.269662308607389  L 10.533942074264585 11.179775829140757  L 2.0633407843683615 11.179775829140757  L 2.0633407843683615 20  L 0 20  L 0 0  L 12 0  Z " stroke-width="0" stroke-dasharray="0" stroke="rgba(121, 121, 121, 1)" fill="none" transform="matrix(1 0 0 1 1601 542 )" class="stroke" mask="url(#Clip4365)" />
  </g>
</svg>