<?xml version="1.0" encoding="utf-8"?>
<svg version="1.1" xmlns:xlink="http://www.w3.org/1999/xlink" width="12px" height="14px" xmlns="http://www.w3.org/2000/svg">
  <defs>
    <pattern id="BGPattern" patternUnits="userSpaceOnUse" alignment="0 0" imageRepeat="None" />
    <mask fill="white" id="Clip4362">
      <path d="M 9.797624756692713 0  L 12 0  L 6.889416036867305 14  L 5.082333390607249 14  L 0 0  L 2.2023444692631413 0  L 5.985859326715204 11.239837806139251  L 9.797624756692713 0  Z " fill-rule="evenodd" />
    </mask>
  </defs>
  <g transform="matrix(1 0 0 1 -1658 -548 )">
    <path d="M 9.797624756692713 0  L 12 0  L 6.889416036867305 14  L 5.082333390607249 14  L 0 0  L 2.2023444692631413 0  L 5.985859326715204 11.239837806139251  L 9.797624756692713 0  Z " fill-rule="nonzero" fill="rgba(255, 255, 255, 1)" stroke="none" transform="matrix(1 0 0 1 1658 548 )" class="fill" />
    <path d="M 9.797624756692713 0  L 12 0  L 6.889416036867305 14  L 5.082333390607249 14  L 0 0  L 2.2023444692631413 0  L 5.985859326715204 11.239837806139251  L 9.797624756692713 0  Z " stroke-width="0" stroke-dasharray="0" stroke="rgba(121, 121, 121, 1)" fill="none" transform="matrix(1 0 0 1 1658 548 )" class="stroke" mask="url(#Clip4362)" />
  </g>
</svg>