<?xml version="1.0" encoding="utf-8"?>
<svg version="1.1" xmlns:xlink="http://www.w3.org/1999/xlink" width="16px" height="20px" xmlns="http://www.w3.org/2000/svg">
  <defs>
    <pattern id="BGPattern" patternUnits="userSpaceOnUse" alignment="0 0" imageRepeat="None" />
    <mask fill="white" id="Clip4349">
      <path d="M 8.885863621594021 0  L 16 20  L 13.792158937938078 20  L 12.238496031193428 15.477528858501257  L 3.7614965418001205 15.477528858501257  L 2.2078336350554704 20  L 0 20  L 7.141393492085596 0  L 8.885863621594021 0  Z M 4.388417583437776 13.623594866002449  L 11.638839530241842 13.623594866002449  L 8.040885670519426 3.0617976721851825  L 4.388417583437776 13.623594866002449  Z " fill-rule="evenodd" />
    </mask>
  </defs>
  <g transform="matrix(1 0 0 1 -1090 -542 )">
    <path d="M 8.885863621594021 0  L 16 20  L 13.792158937938078 20  L 12.238496031193428 15.477528858501257  L 3.7614965418001205 15.477528858501257  L 2.2078336350554704 20  L 0 20  L 7.141393492085596 0  L 8.885863621594021 0  Z M 4.388417583437776 13.623594866002449  L 11.638839530241842 13.623594866002449  L 8.040885670519426 3.0617976721851825  L 4.388417583437776 13.623594866002449  Z " fill-rule="nonzero" fill="rgba(255, 255, 255, 1)" stroke="none" transform="matrix(1 0 0 1 1090 542 )" class="fill" />
    <path d="M 8.885863621594021 0  L 16 20  L 13.792158937938078 20  L 12.238496031193428 15.477528858501257  L 3.7614965418001205 15.477528858501257  L 2.2078336350554704 20  L 0 20  L 7.141393492085596 0  L 8.885863621594021 0  Z " stroke-width="0" stroke-dasharray="0" stroke="rgba(121, 121, 121, 1)" fill="none" transform="matrix(1 0 0 1 1090 542 )" class="stroke" mask="url(#Clip4349)" />
    <path d="M 4.388417583437776 13.623594866002449  L 11.638839530241842 13.623594866002449  L 8.040885670519426 3.0617976721851825  L 4.388417583437776 13.623594866002449  Z " stroke-width="0" stroke-dasharray="0" stroke="rgba(121, 121, 121, 1)" fill="none" transform="matrix(1 0 0 1 1090 542 )" class="stroke" mask="url(#Clip4349)" />
  </g>
</svg>