<?xml version="1.0" encoding="utf-8"?>
<svg version="1.1" xmlns:xlink="http://www.w3.org/1999/xlink" width="14px" height="16px" xmlns="http://www.w3.org/2000/svg">
  <defs>
    <pattern id="BGPattern" patternUnits="userSpaceOnUse" alignment="0 0" imageRepeat="None" />
    <mask fill="white" id="Clip4391">
      <path d="M 8.203823478007092 0  L 14 16  L 10.767516865321234 16  L 9.831211219010758 13.168540072858914  L 4.191083061068573 13.168540072858914  L 3.232483134678767 16  L 0 16  L 5.773886107415109 0  L 8.203823478007092 0  Z M 5.060509732642586 10.539325335108687  L 9.006371174844642 10.539325335108687  L 7.066878974736462 4.719100852699515  L 5.060509732642586 10.539325335108687  Z " fill-rule="evenodd" />
    </mask>
  </defs>
  <g transform="matrix(1 0 0 1 -306 -74 )">
    <path d="M 8.203823478007092 0  L 14 16  L 10.767516865321234 16  L 9.831211219010758 13.168540072858914  L 4.191083061068573 13.168540072858914  L 3.232483134678767 16  L 0 16  L 5.773886107415109 0  L 8.203823478007092 0  Z M 5.060509732642586 10.539325335108687  L 9.006371174844642 10.539325335108687  L 7.066878974736462 4.719100852699515  L 5.060509732642586 10.539325335108687  Z " fill-rule="nonzero" fill="rgba(255, 255, 255, 1)" stroke="none" transform="matrix(1 0 0 1 306 74 )" class="fill" />
    <path d="M 8.203823478007092 0  L 14 16  L 10.767516865321234 16  L 9.831211219010758 13.168540072858914  L 4.191083061068573 13.168540072858914  L 3.232483134678767 16  L 0 16  L 5.773886107415109 0  L 8.203823478007092 0  Z " stroke-width="0" stroke-dasharray="0" stroke="rgba(121, 121, 121, 1)" fill="none" transform="matrix(1 0 0 1 306 74 )" class="stroke" mask="url(#Clip4391)" />
    <path d="M 5.060509732642586 10.539325335108687  L 9.006371174844642 10.539325335108687  L 7.066878974736462 4.719100852699515  L 5.060509732642586 10.539325335108687  Z " stroke-width="0" stroke-dasharray="0" stroke="rgba(121, 121, 121, 1)" fill="none" transform="matrix(1 0 0 1 306 74 )" class="stroke" mask="url(#Clip4391)" />
  </g>
</svg>