<?xml version="1.0" encoding="utf-8"?>
<svg version="1.1" xmlns:xlink="http://www.w3.org/1999/xlink" width="45px" height="45px" xmlns="http://www.w3.org/2000/svg">
  <defs>
    <pattern id="BGPattern" patternUnits="userSpaceOnUse" alignment="0 0" imageRepeat="None" />
    <mask fill="white" id="Clip4297">
      <path d="M 0.9183660142323844 19  L 0.9183660142323844 13  L 43.93662761257402 13  L 43.93662761257402 19  L 0.9183660142323844 19  Z M 19.91407029736676 16.700531167637227  C 19.91407029736676 16.700531167637227  25.762618428209635 15.352935956611734  25.762618428209635 15.352935956611734  C 26.72931990017322 19.0106902884346  28.06659257452095 22.427800296029993  29.774434530587744 25.604270760518638  C 31.482274565989446 28.7807407468952  33.59291072270615 31.55614259690418  36.1063372387426 33.930473919985204  C 38.65198675304481 36.30480548212226  41.61654100679728 38.181815266058955  45 39.56149430719393  C 44.51664926401821 39.9786065698846  44.00107168844046 40.50801791553931  43.45327303526204 41.149729061326184  C 42.93769738034939 41.791440207113055  42.422119804771654 42.44918878565399  41.90654607052409 43.1229855544706  C 41.4231953345423 43.82886794631698  41.02040497522257 44.45454560377438  40.6981711512347 45  C 36.99247833404412 43.26737982270585  33.802363092431285 41.03742914166601  31.12781966440091 38.31015644336977  C 28.4854992346363 35.58288374507353  26.26208354432195 32.40640849946417  24.457572593457854 28.78074026878313  C 22.653060682261213 25.12298689318441  21.138559596786667 21.096253394808205  19.91407029736676 16.700531167637227  Z M 18.947368825403178 6.8342181027425015  C 19.01181578226726 4.427799722295509  19.060148359000816 2.149731483760679  19.092371357266586 0  C 19.092371357266586 0  25.42427406542144 0  25.42427406542144 0  C 25.39205106715567 2.4385016129163866  25.311494531823797 5.021385421738196  25.182600618095638 7.748659076258578  C 25.08592970263324 10.44384567341299  24.84425241397725 13.18716094416807  24.457572593457854 15.978604888523813  C 24.07089085227337 18.77004883287956  23.442533743097986 21.54545020477646  22.572501265931706 24.30480804799038  C 21.734692747363738 27.03208074628662  20.542424525544504 29.663098009829817  18.99570044180419 32.19785696994753  C 17.48120031666219 34.700530546091535  15.515572453804163 37.04277170407812  13.098816853230115 39.224589767092695  C 10.71428377075556 41.40640783010728  7.7980659350668375 43.33155094923733  4.350160465166305 45  C 3.8990327274502823 44.229946601150154  3.270674417859215 43.37967304879701  2.4650891376401534 42.44919177385444  C 1.659503617337955 41.518710618439876  0.8378087586511024 40.748656382893905  0 40.139030740608774  C 3.2867885579066014 38.663094949912555  6.041890441933941 36.96256314479256  8.265305652082018 35.037429587903944  C 10.488721342396369 33.08021040798557  12.293231332927917 30.978604251041055  13.678838504674301 28.732615420079043  C 15.096668674686452 26.454540487975205  16.1761564025755 24.096252693577167  16.917294966013618 21.657750124436635  C 17.658433529451735 19.187162410378424  18.15789576456641 16.70052925518894  18.41568263169019 14.197855439988901  C 18.70569345741228 11.695181624788866  18.882921868539096 9.240634570741207  18.947368825403178 6.8342181027425015  Z " fill-rule="evenodd" />
    </mask>
  </defs>
  <g transform="matrix(1 0 0 1 -190 -255 )">
    <path d="M 0.9183660142323844 19  L 0.9183660142323844 13  L 43.93662761257402 13  L 43.93662761257402 19  L 0.9183660142323844 19  Z M 19.91407029736676 16.700531167637227  C 19.91407029736676 16.700531167637227  25.762618428209635 15.352935956611734  25.762618428209635 15.352935956611734  C 26.72931990017322 19.0106902884346  28.06659257452095 22.427800296029993  29.774434530587744 25.604270760518638  C 31.482274565989446 28.7807407468952  33.59291072270615 31.55614259690418  36.1063372387426 33.930473919985204  C 38.65198675304481 36.30480548212226  41.61654100679728 38.181815266058955  45 39.56149430719393  C 44.51664926401821 39.9786065698846  44.00107168844046 40.50801791553931  43.45327303526204 41.149729061326184  C 42.93769738034939 41.791440207113055  42.422119804771654 42.44918878565399  41.90654607052409 43.1229855544706  C 41.4231953345423 43.82886794631698  41.02040497522257 44.45454560377438  40.6981711512347 45  C 36.99247833404412 43.26737982270585  33.802363092431285 41.03742914166601  31.12781966440091 38.31015644336977  C 28.4854992346363 35.58288374507353  26.26208354432195 32.40640849946417  24.457572593457854 28.78074026878313  C 22.653060682261213 25.12298689318441  21.138559596786667 21.096253394808205  19.91407029736676 16.700531167637227  Z M 18.947368825403178 6.8342181027425015  C 19.01181578226726 4.427799722295509  19.060148359000816 2.149731483760679  19.092371357266586 0  C 19.092371357266586 0  25.42427406542144 0  25.42427406542144 0  C 25.39205106715567 2.4385016129163866  25.311494531823797 5.021385421738196  25.182600618095638 7.748659076258578  C 25.08592970263324 10.44384567341299  24.84425241397725 13.18716094416807  24.457572593457854 15.978604888523813  C 24.07089085227337 18.77004883287956  23.442533743097986 21.54545020477646  22.572501265931706 24.30480804799038  C 21.734692747363738 27.03208074628662  20.542424525544504 29.663098009829817  18.99570044180419 32.19785696994753  C 17.48120031666219 34.700530546091535  15.515572453804163 37.04277170407812  13.098816853230115 39.224589767092695  C 10.71428377075556 41.40640783010728  7.7980659350668375 43.33155094923733  4.350160465166305 45  C 3.8990327274502823 44.229946601150154  3.270674417859215 43.37967304879701  2.4650891376401534 42.44919177385444  C 1.659503617337955 41.518710618439876  0.8378087586511024 40.748656382893905  0 40.139030740608774  C 3.2867885579066014 38.663094949912555  6.041890441933941 36.96256314479256  8.265305652082018 35.037429587903944  C 10.488721342396369 33.08021040798557  12.293231332927917 30.978604251041055  13.678838504674301 28.732615420079043  C 15.096668674686452 26.454540487975205  16.1761564025755 24.096252693577167  16.917294966013618 21.657750124436635  C 17.658433529451735 19.187162410378424  18.15789576456641 16.70052925518894  18.41568263169019 14.197855439988901  C 18.70569345741228 11.695181624788866  18.882921868539096 9.240634570741207  18.947368825403178 6.8342181027425015  Z " fill-rule="nonzero" fill="rgba(255, 255, 255, 1)" stroke="none" transform="matrix(1 0 0 1 190 255 )" class="fill" />
    <path d="M 0.9183660142323844 19  L 0.9183660142323844 13  L 43.93662761257402 13  L 43.93662761257402 19  L 0.9183660142323844 19  Z " stroke-width="0" stroke-dasharray="0" stroke="rgba(121, 121, 121, 1)" fill="none" transform="matrix(1 0 0 1 190 255 )" class="stroke" mask="url(#Clip4297)" />
    <path d="M 19.91407029736676 16.700531167637227  C 19.91407029736676 16.700531167637227  25.762618428209635 15.352935956611734  25.762618428209635 15.352935956611734  C 26.72931990017322 19.0106902884346  28.06659257452095 22.427800296029993  29.774434530587744 25.604270760518638  C 31.482274565989446 28.7807407468952  33.59291072270615 31.55614259690418  36.1063372387426 33.930473919985204  C 38.65198675304481 36.30480548212226  41.61654100679728 38.181815266058955  45 39.56149430719393  C 44.51664926401821 39.9786065698846  44.00107168844046 40.50801791553931  43.45327303526204 41.149729061326184  C 42.93769738034939 41.791440207113055  42.422119804771654 42.44918878565399  41.90654607052409 43.1229855544706  C 41.4231953345423 43.82886794631698  41.02040497522257 44.45454560377438  40.6981711512347 45  C 36.99247833404412 43.26737982270585  33.802363092431285 41.03742914166601  31.12781966440091 38.31015644336977  C 28.4854992346363 35.58288374507353  26.26208354432195 32.40640849946417  24.457572593457854 28.78074026878313  C 22.653060682261213 25.12298689318441  21.138559596786667 21.096253394808205  19.91407029736676 16.700531167637227  Z " stroke-width="0" stroke-dasharray="0" stroke="rgba(121, 121, 121, 1)" fill="none" transform="matrix(1 0 0 1 190 255 )" class="stroke" mask="url(#Clip4297)" />
    <path d="M 18.947368825403178 6.8342181027425015  C 19.01181578226726 4.427799722295509  19.060148359000816 2.149731483760679  19.092371357266586 0  C 19.092371357266586 0  25.42427406542144 0  25.42427406542144 0  C 25.39205106715567 2.4385016129163866  25.311494531823797 5.021385421738196  25.182600618095638 7.748659076258578  C 25.08592970263324 10.44384567341299  24.84425241397725 13.18716094416807  24.457572593457854 15.978604888523813  C 24.07089085227337 18.77004883287956  23.442533743097986 21.54545020477646  22.572501265931706 24.30480804799038  C 21.734692747363738 27.03208074628662  20.542424525544504 29.663098009829817  18.99570044180419 32.19785696994753  C 17.48120031666219 34.700530546091535  15.515572453804163 37.04277170407812  13.098816853230115 39.224589767092695  C 10.71428377075556 41.40640783010728  7.7980659350668375 43.33155094923733  4.350160465166305 45  C 3.8990327274502823 44.229946601150154  3.270674417859215 43.37967304879701  2.4650891376401534 42.44919177385444  C 1.659503617337955 41.518710618439876  0.8378087586511024 40.748656382893905  0 40.139030740608774  C 3.2867885579066014 38.663094949912555  6.041890441933941 36.96256314479256  8.265305652082018 35.037429587903944  C 10.488721342396369 33.08021040798557  12.293231332927917 30.978604251041055  13.678838504674301 28.732615420079043  C 15.096668674686452 26.454540487975205  16.1761564025755 24.096252693577167  16.917294966013618 21.657750124436635  C 17.658433529451735 19.187162410378424  18.15789576456641 16.70052925518894  18.41568263169019 14.197855439988901  C 18.70569345741228 11.695181624788866  18.882921868539096 9.240634570741207  18.947368825403178 6.8342181027425015  Z " stroke-width="0" stroke-dasharray="0" stroke="rgba(121, 121, 121, 1)" fill="none" transform="matrix(1 0 0 1 190 255 )" class="stroke" mask="url(#Clip4297)" />
  </g>
</svg>