<?xml version="1.0" encoding="utf-8"?>
<svg version="1.1" xmlns:xlink="http://www.w3.org/1999/xlink" width="11px" height="14px" xmlns="http://www.w3.org/2000/svg">
  <defs>
    <pattern id="BGPattern" patternUnits="userSpaceOnUse" alignment="0 0" imageRepeat="None" />
    <mask fill="white" id="Clip4332">
      <path d="M 11 4.555554774643075  C 11 4.555554774643075  11 13.833334054175623  11 13.833334054175623  L 8.969225330414789 13.833334054175623  C 8.969225330414789 13.833334054175623  8.969225330414789 12.527778468584971  8.969225330414789 12.527778468584971  C 7.841021036629458 13.638889622871533  6.825638865386671 14  4.964101342339554 14  C 3.0461535985990427 14  1.9179430605209085 13.638888676766028  1.0435846397732982 12.749999729684141  C 0.3666618113287366 12.083333048938524  0 11.055556345854004  0 9.972222612678463  C 0 7.583333648701835  1.6923087822877971 6.027778198269114  4.794871400754695 6.027778198269114  C 4.794871400754695 6.027778198269114  8.969225330414789 6.027778198269114  8.969225330414789 6.027778198269114  C 8.969225330414789 6.027778198269114  8.969225330414789 4.722222612678462  8.969225330414789 4.722222612678462  C 8.969225330414789 2.722222747836392  7.953841117768585 1.722222342362604  5.4153811865658446 1.722222342362604  C 3.6384588744762656 1.722222342362604  2.735895283340681 2.138887679976299  1.9179470232451876 3.27777684668982  C 1.9179470232451876 3.27777684668982  0.5358948150187206 2.0277784685849722  0.5358948150187206 2.0277784685849722  C 1.7769200305210553 0.4444447691989135  3.187176868764004 0  5.443586176829989 0  C 9.166661222924223 0  11 1.583332635017365  11 4.555554774643075  Z M 8.26410057381121 11.361111171181301  C 8.743588050117829 10.916666638508765  8.969225330414789 10.138889977661098  8.969225330414789 9.000000810947576  C 8.969225330414789 9.000000810947576  8.969225330414789 7.527777387321538  8.969225330414789 7.527777387321538  C 8.969225330414789 7.527777387321538  5.0769213033961265 7.527777387321538  5.0769213033961265 7.527777387321538  C 2.9897428975754328 7.527777387321538  1.9743570037734741 8.361111255655008  1.9743570037734741 9.944444955041067  C 1.9743570037734741 11.52777829963756  2.961537186815966 12.277777657637396  5.161536274188556 12.277777657637396  C 6.346151389080051 12.277777657637396  7.389742393228706 12.194444448198832  8.26410057381121 11.361111171181301  Z " fill-rule="evenodd" />
    </mask>
  </defs>
  <g transform="matrix(1 0 0 1 -685 -548 )">
    <path d="M 11 4.555554774643075  C 11 4.555554774643075  11 13.833334054175623  11 13.833334054175623  L 8.969225330414789 13.833334054175623  C 8.969225330414789 13.833334054175623  8.969225330414789 12.527778468584971  8.969225330414789 12.527778468584971  C 7.841021036629458 13.638889622871533  6.825638865386671 14  4.964101342339554 14  C 3.0461535985990427 14  1.9179430605209085 13.638888676766028  1.0435846397732982 12.749999729684141  C 0.3666618113287366 12.083333048938524  0 11.055556345854004  0 9.972222612678463  C 0 7.583333648701835  1.6923087822877971 6.027778198269114  4.794871400754695 6.027778198269114  C 4.794871400754695 6.027778198269114  8.969225330414789 6.027778198269114  8.969225330414789 6.027778198269114  C 8.969225330414789 6.027778198269114  8.969225330414789 4.722222612678462  8.969225330414789 4.722222612678462  C 8.969225330414789 2.722222747836392  7.953841117768585 1.722222342362604  5.4153811865658446 1.722222342362604  C 3.6384588744762656 1.722222342362604  2.735895283340681 2.138887679976299  1.9179470232451876 3.27777684668982  C 1.9179470232451876 3.27777684668982  0.5358948150187206 2.0277784685849722  0.5358948150187206 2.0277784685849722  C 1.7769200305210553 0.4444447691989135  3.187176868764004 0  5.443586176829989 0  C 9.166661222924223 0  11 1.583332635017365  11 4.555554774643075  Z M 8.26410057381121 11.361111171181301  C 8.743588050117829 10.916666638508765  8.969225330414789 10.138889977661098  8.969225330414789 9.000000810947576  C 8.969225330414789 9.000000810947576  8.969225330414789 7.527777387321538  8.969225330414789 7.527777387321538  C 8.969225330414789 7.527777387321538  5.0769213033961265 7.527777387321538  5.0769213033961265 7.527777387321538  C 2.9897428975754328 7.527777387321538  1.9743570037734741 8.361111255655008  1.9743570037734741 9.944444955041067  C 1.9743570037734741 11.52777829963756  2.961537186815966 12.277777657637396  5.161536274188556 12.277777657637396  C 6.346151389080051 12.277777657637396  7.389742393228706 12.194444448198832  8.26410057381121 11.361111171181301  Z " fill-rule="nonzero" fill="rgba(255, 255, 255, 1)" stroke="none" transform="matrix(1 0 0 1 685 548 )" class="fill" />
    <path d="M 11 4.555554774643075  C 11 4.555554774643075  11 13.833334054175623  11 13.833334054175623  L 8.969225330414789 13.833334054175623  C 8.969225330414789 13.833334054175623  8.969225330414789 12.527778468584971  8.969225330414789 12.527778468584971  C 7.841021036629458 13.638889622871533  6.825638865386671 14  4.964101342339554 14  C 3.0461535985990427 14  1.9179430605209085 13.638888676766028  1.0435846397732982 12.749999729684141  C 0.3666618113287366 12.083333048938524  0 11.055556345854004  0 9.972222612678463  C 0 7.583333648701835  1.6923087822877971 6.027778198269114  4.794871400754695 6.027778198269114  C 4.794871400754695 6.027778198269114  8.969225330414789 6.027778198269114  8.969225330414789 6.027778198269114  C 8.969225330414789 6.027778198269114  8.969225330414789 4.722222612678462  8.969225330414789 4.722222612678462  C 8.969225330414789 2.722222747836392  7.953841117768585 1.722222342362604  5.4153811865658446 1.722222342362604  C 3.6384588744762656 1.722222342362604  2.735895283340681 2.138887679976299  1.9179470232451876 3.27777684668982  C 1.9179470232451876 3.27777684668982  0.5358948150187206 2.0277784685849722  0.5358948150187206 2.0277784685849722  C 1.7769200305210553 0.4444447691989135  3.187176868764004 0  5.443586176829989 0  C 9.166661222924223 0  11 1.583332635017365  11 4.555554774643075  Z " stroke-width="0" stroke-dasharray="0" stroke="rgba(121, 121, 121, 1)" fill="none" transform="matrix(1 0 0 1 685 548 )" class="stroke" mask="url(#Clip4332)" />
    <path d="M 8.26410057381121 11.361111171181301  C 8.743588050117829 10.916666638508765  8.969225330414789 10.138889977661098  8.969225330414789 9.000000810947576  C 8.969225330414789 9.000000810947576  8.969225330414789 7.527777387321538  8.969225330414789 7.527777387321538  C 8.969225330414789 7.527777387321538  5.0769213033961265 7.527777387321538  5.0769213033961265 7.527777387321538  C 2.9897428975754328 7.527777387321538  1.9743570037734741 8.361111255655008  1.9743570037734741 9.944444955041067  C 1.9743570037734741 11.52777829963756  2.961537186815966 12.277777657637396  5.161536274188556 12.277777657637396  C 6.346151389080051 12.277777657637396  7.389742393228706 12.194444448198832  8.26410057381121 11.361111171181301  Z " stroke-width="0" stroke-dasharray="0" stroke="rgba(121, 121, 121, 1)" fill="none" transform="matrix(1 0 0 1 685 548 )" class="stroke" mask="url(#Clip4332)" />
  </g>
</svg>