<?xml version="1.0" encoding="utf-8"?>
<svg version="1.1" xmlns:xlink="http://www.w3.org/1999/xlink" width="9px" height="14px" xmlns="http://www.w3.org/2000/svg">
  <defs>
    <pattern id="BGPattern" patternUnits="userSpaceOnUse" alignment="0 0" imageRepeat="None" />
    <mask fill="white" id="Clip4371">
      <path d="M 5.7621949623909305 0  C 7.051828590161456 0  8.039634445517004 0.30923715015527986  9 1.2931727753618272  C 9 1.2931727753618272  7.545730875324139 2.8112441646951196  7.545730875324139 2.8112441646951196  C 6.804877914863817 2.052208589716513  6.256092691537512 1.7991965718062581  5.213409505422775 1.7991965718062581  C 3.2378003647720424 1.7991965718062581  1.9756082060833278 3.4016056595070876  1.9756082060833278 5.510039022404507  C 1.9756082060833278 5.510039022404507  1.9756082060833278 14  1.9756082060833278 14  L 0 14  L 0 0.16867491798291595  L 1.9756082060833278 0.16867491798291595  C 1.9756082060833278 0.16867491798291595  1.9756082060833278 1.8554212252991245  1.9756082060833278 1.8554212252991245  C 2.7164619842901296 0.7028105624216214  4.1981709425548415 0  5.7621949623909305 0  Z " fill-rule="evenodd" />
    </mask>
  </defs>
  <g transform="matrix(1 0 0 1 -1441 -548 )">
    <path d="M 5.7621949623909305 0  C 7.051828590161456 0  8.039634445517004 0.30923715015527986  9 1.2931727753618272  C 9 1.2931727753618272  7.545730875324139 2.8112441646951196  7.545730875324139 2.8112441646951196  C 6.804877914863817 2.052208589716513  6.256092691537512 1.7991965718062581  5.213409505422775 1.7991965718062581  C 3.2378003647720424 1.7991965718062581  1.9756082060833278 3.4016056595070876  1.9756082060833278 5.510039022404507  C 1.9756082060833278 5.510039022404507  1.9756082060833278 14  1.9756082060833278 14  L 0 14  L 0 0.16867491798291595  L 1.9756082060833278 0.16867491798291595  C 1.9756082060833278 0.16867491798291595  1.9756082060833278 1.8554212252991245  1.9756082060833278 1.8554212252991245  C 2.7164619842901296 0.7028105624216214  4.1981709425548415 0  5.7621949623909305 0  Z " fill-rule="nonzero" fill="rgba(255, 255, 255, 1)" stroke="none" transform="matrix(1 0 0 1 1441 548 )" class="fill" />
    <path d="M 5.7621949623909305 0  C 7.051828590161456 0  8.039634445517004 0.30923715015527986  9 1.2931727753618272  C 9 1.2931727753618272  7.545730875324139 2.8112441646951196  7.545730875324139 2.8112441646951196  C 6.804877914863817 2.052208589716513  6.256092691537512 1.7991965718062581  5.213409505422775 1.7991965718062581  C 3.2378003647720424 1.7991965718062581  1.9756082060833278 3.4016056595070876  1.9756082060833278 5.510039022404507  C 1.9756082060833278 5.510039022404507  1.9756082060833278 14  1.9756082060833278 14  L 0 14  L 0 0.16867491798291595  L 1.9756082060833278 0.16867491798291595  C 1.9756082060833278 0.16867491798291595  1.9756082060833278 1.8554212252991245  1.9756082060833278 1.8554212252991245  C 2.7164619842901296 0.7028105624216214  4.1981709425548415 0  5.7621949623909305 0  Z " stroke-width="0" stroke-dasharray="0" stroke="rgba(121, 121, 121, 1)" fill="none" transform="matrix(1 0 0 1 1441 548 )" class="stroke" mask="url(#Clip4371)" />
  </g>
</svg>