<?xml version="1.0" encoding="utf-8"?>
<svg version="1.1" xmlns:xlink="http://www.w3.org/1999/xlink" width="12px" height="20px" xmlns="http://www.w3.org/2000/svg">
  <defs>
    <pattern id="BGPattern" patternUnits="userSpaceOnUse" alignment="0 0" imageRepeat="None" />
    <mask fill="white" id="Clip4319">
      <path d="M 12 18.089888392938292  L 12 20  L 0 20  L 0 0  L 12 0  L 12 1.9101116070617055  L 2.0633469099902784 1.9101116070617055  L 2.0633469099902784 8.960674904417306  L 10.533935580437532 8.960674904417306  L 10.533935580437532 10.870786511479011  L 2.0633469099902784 10.870786511479011  L 2.0633469099902784 18.089888392938292  L 12 18.089888392938292  Z " fill-rule="evenodd" />
    </mask>
  </defs>
  <g transform="matrix(1 0 0 1 -223 -542 )">
    <path d="M 12 18.089888392938292  L 12 20  L 0 20  L 0 0  L 12 0  L 12 1.9101116070617055  L 2.0633469099902784 1.9101116070617055  L 2.0633469099902784 8.960674904417306  L 10.533935580437532 8.960674904417306  L 10.533935580437532 10.870786511479011  L 2.0633469099902784 10.870786511479011  L 2.0633469099902784 18.089888392938292  L 12 18.089888392938292  Z " fill-rule="nonzero" fill="rgba(255, 255, 255, 1)" stroke="none" transform="matrix(1 0 0 1 223 542 )" class="fill" />
    <path d="M 12 18.089888392938292  L 12 20  L 0 20  L 0 0  L 12 0  L 12 1.9101116070617055  L 2.0633469099902784 1.9101116070617055  L 2.0633469099902784 8.960674904417306  L 10.533935580437532 8.960674904417306  L 10.533935580437532 10.870786511479011  L 2.0633469099902784 10.870786511479011  L 2.0633469099902784 18.089888392938292  L 12 18.089888392938292  Z " stroke-width="0" stroke-dasharray="0" stroke="rgba(121, 121, 121, 1)" fill="none" transform="matrix(1 0 0 1 223 542 )" class="stroke" mask="url(#Clip4319)" />
  </g>
</svg>