<?xml version="1.0" encoding="utf-8"?>
<svg version="1.1" xmlns:xlink="http://www.w3.org/1999/xlink" width="11px" height="20px" xmlns="http://www.w3.org/2000/svg">
  <defs>
    <pattern id="BGPattern" patternUnits="userSpaceOnUse" alignment="0 0" imageRepeat="None" />
    <mask fill="white" id="Clip4315">
      <path d="M 9.312012186963406 7.158775388068217  C 10.718661551221064 8.551532543803841  11 10.835654744093281  11 12.980501667601809  C 11 15.125348116739907  10.718661551221064 17.40947209591846  9.312012186963406 18.80222984461712  C 8.580553612046474 19.526463809900413  7.342701256414741 20  5.9360518921570815 20  C 4.416869472032982 20  3.1508869965421025 19.637883402784325  2.025566978123676 18.18941535362513  C 2.025566978123676 18.18941535362513  2.025566978123676 19.83286981017403  2.025566978123676 19.83286981017403  L 0 19.83286981017403  L 0 0  L 2.025566978123676 0  C 2.025566978123676 0  2.025566978123676 7.715877918303166  2.025566978123676 7.715877918303166  C 3.1508869965421025 6.295265137966845  4.416869472032982 5.961003335203618  5.9360518921570815 5.961003335203618  C 7.342701256414741 5.961003335203618  8.580553612046474 6.434540770525582  9.312012186963406 7.158775388068217  Z M 5.51405877171465 18.217270385262793  C 8.524289299960417 18.217270385262793  8.97441769060946 15.654596326892838  8.97441769060946 12.980501667601809  C 8.97441769060946 10.306407008310781  8.524289299960417 7.743732949940827  5.51405877171465 7.743732949940827  C 2.503827764366791 7.743732949940827  2.025566978123676 10.306407008310781  2.025566978123676 12.980501667601809  C 2.025566978123676 15.654596326892838  2.503827764366791 18.217270385262793  5.51405877171465 18.217270385262793  Z " fill-rule="evenodd" />
    </mask>
  </defs>
  <g transform="matrix(1 0 0 1 -290 -542 )">
    <path d="M 9.312012186963406 7.158775388068217  C 10.718661551221064 8.551532543803841  11 10.835654744093281  11 12.980501667601809  C 11 15.125348116739907  10.718661551221064 17.40947209591846  9.312012186963406 18.80222984461712  C 8.580553612046474 19.526463809900413  7.342701256414741 20  5.9360518921570815 20  C 4.416869472032982 20  3.1508869965421025 19.637883402784325  2.025566978123676 18.18941535362513  C 2.025566978123676 18.18941535362513  2.025566978123676 19.83286981017403  2.025566978123676 19.83286981017403  L 0 19.83286981017403  L 0 0  L 2.025566978123676 0  C 2.025566978123676 0  2.025566978123676 7.715877918303166  2.025566978123676 7.715877918303166  C 3.1508869965421025 6.295265137966845  4.416869472032982 5.961003335203618  5.9360518921570815 5.961003335203618  C 7.342701256414741 5.961003335203618  8.580553612046474 6.434540770525582  9.312012186963406 7.158775388068217  Z M 5.51405877171465 18.217270385262793  C 8.524289299960417 18.217270385262793  8.97441769060946 15.654596326892838  8.97441769060946 12.980501667601809  C 8.97441769060946 10.306407008310781  8.524289299960417 7.743732949940827  5.51405877171465 7.743732949940827  C 2.503827764366791 7.743732949940827  2.025566978123676 10.306407008310781  2.025566978123676 12.980501667601809  C 2.025566978123676 15.654596326892838  2.503827764366791 18.217270385262793  5.51405877171465 18.217270385262793  Z " fill-rule="nonzero" fill="rgba(255, 255, 255, 1)" stroke="none" transform="matrix(1 0 0 1 290 542 )" class="fill" />
    <path d="M 9.312012186963406 7.158775388068217  C 10.718661551221064 8.551532543803841  11 10.835654744093281  11 12.980501667601809  C 11 15.125348116739907  10.718661551221064 17.40947209591846  9.312012186963406 18.80222984461712  C 8.580553612046474 19.526463809900413  7.342701256414741 20  5.9360518921570815 20  C 4.416869472032982 20  3.1508869965421025 19.637883402784325  2.025566978123676 18.18941535362513  C 2.025566978123676 18.18941535362513  2.025566978123676 19.83286981017403  2.025566978123676 19.83286981017403  L 0 19.83286981017403  L 0 0  L 2.025566978123676 0  C 2.025566978123676 0  2.025566978123676 7.715877918303166  2.025566978123676 7.715877918303166  C 3.1508869965421025 6.295265137966845  4.416869472032982 5.961003335203618  5.9360518921570815 5.961003335203618  C 7.342701256414741 5.961003335203618  8.580553612046474 6.434540770525582  9.312012186963406 7.158775388068217  Z " stroke-width="0" stroke-dasharray="0" stroke="rgba(121, 121, 121, 1)" fill="none" transform="matrix(1 0 0 1 290 542 )" class="stroke" mask="url(#Clip4315)" />
    <path d="M 5.51405877171465 18.217270385262793  C 8.524289299960417 18.217270385262793  8.97441769060946 15.654596326892838  8.97441769060946 12.980501667601809  C 8.97441769060946 10.306407008310781  8.524289299960417 7.743732949940827  5.51405877171465 7.743732949940827  C 2.503827764366791 7.743732949940827  2.025566978123676 10.306407008310781  2.025566978123676 12.980501667601809  C 2.025566978123676 15.654596326892838  2.503827764366791 18.217270385262793  5.51405877171465 18.217270385262793  Z " stroke-width="0" stroke-dasharray="0" stroke="rgba(121, 121, 121, 1)" fill="none" transform="matrix(1 0 0 1 290 542 )" class="stroke" mask="url(#Clip4315)" />
  </g>
</svg>