<?xml version="1.0" encoding="utf-8"?>
<svg version="1.1" xmlns:xlink="http://www.w3.org/1999/xlink" width="19px" height="18px" xmlns="http://www.w3.org/2000/svg">
  <defs>
    <pattern id="BGPattern" patternUnits="userSpaceOnUse" alignment="0 0" imageRepeat="None" />
    <mask fill="white" id="Clip4327">
      <path d="M 6.253669471875355 7.99839953225811  L 6.034590687280294 6.592740591745098  L 18.3826006418808 5.048494707537021  L 18.601679426475858 6.454155064114688  L 6.253669471875355 7.99839953225811  Z M 15.036688071023745 2.019397883014808  C 14.62508833077254 1.610238597847393  14.22012542872859 1.2472750884175037  13.821802154564216 0.9305069417062825  C 13.821802154564216 0.9305069417062825  14.89727568035516 0.21777776344230843  14.89727568035516 0.21777776344230843  C 15.295598153230673 0.5345467066898985  15.707196617355173 0.8843119330037783  16.132074396593563 1.267073412882601  C 16.556952175831952 1.6498348927614235  16.94863641566405 2.03259702166988  17.307127116089855 2.4153592980850713  C 17.67889508389135 2.784922288338456  17.97763851144834 3.1148889541764624  18.203355054248973 3.4052592955990915  C 18.203355054248973 3.4052592955990915  17.048218933234303 4.197180237653411  17.048218933234303 4.197180237653411  C 16.822502390433666 3.8936105805676275  16.530397492693744 3.5570442863993916  16.1719075935568 3.1874812961460073  C 15.826694160506687 2.8047198162671845  15.448288582886445 2.415358678556785  15.036688071023745 2.019397883014808  Z M 4.242138609664799 3.0686937684658764  C 4.852900150223698 2.0655936882536805  5.377358369616776 1.0426956080912047  5.815513802036604 0  C 5.815513802036604 0  7.229560005258205 0.45535447087800096  7.229560005258205 0.45535447087800096  C 6.725017909508903 1.616838196676276  6.134171483563364 2.7519248252182864  5.457022626772957 3.8606137664770923  C 4.793151067035607 4.969303533773614  4.069531077012201 6.011998728845961  3.2861627754121967 6.988700590750707  C 2.5027944738121928 7.952204376048871  1.6995099892136836 8.803520380002524  0.8763094403261286 9.542646360509293  C 0.82319971792133 9.423858205925537  0.7435354014104183 9.27207244071488  0.6373159566008209 9.087290945588189  C 0.5310965117912233 8.902509450461496  0.4182382329715652 8.724326506865868  0.2987413798187919 8.55274353086596  C 0.19252193500919434 8.36796203573927  0.09294199195037395 8.222777727942354  0 8.117188476002896  C 0.7700908858374865 7.470453279936157  1.5136266433762868 6.718128632795868  2.2306077474542443 5.860214121563172  C 2.9608663860041795 5.002300023349333  3.631376831686979 4.071793022640357  4.242138609664799 3.0686937684658764  Z M 3.545072857619123 17.976600947630466  L 3.545072857619123 5.286071650983489  L 5.058700153897444 3.781421294654419  L 5 3.8210177665765315  L 5 17.976600947630466  L 3.545072857619123 17.976600947630466  Z M 10.87421395593405 5.800820593733883  C 10.714884491946 4.018998238100887  10.588749672846097 2.1117885494494497  10.495808081540154 0.07919223581189754  C 10.495808081540154 0.07919223581189754  11.989516879985484 0.07919223581189754  11.989516879985484 0.07919223581189754  C 12.06918121875442 2.3097694929953576  12.215235158911982 4.388560903839455  12.427674449175607 6.315567648398068  C 12.640112938150372 8.242575218994398  12.932214022348868 9.938605887493349  13.303981990150364 11.403659299878752  C 13.67574995795186 12.86871271226416  14.140460785766662 14.023597104745672  14.698113494241715 14.868312595328685  C 15.255765431105278 15.713028085911699  15.906358625404424 16.174981462336927  16.649894561007418 16.254173535891418  C 16.941998182620637 16.26737221727561  17.174354382978212 15.983600043866536  17.346960313053092 15.402858121964705  C 17.51956702957815 14.822116259065568  17.652342300104515 13.957604007588847  17.745284685279977 12.809318712413317  C 17.85150353654227 12.901709459976663  17.98427579481607 13.000698788572421  18.14360525880412 13.106288239645972  C 18.302934722792166 13.211877690719522  18.462263548716866 13.310868907401487  18.621592226254734 13.403259654964833  C 18.78092169024278 13.48245189077673  18.907058408694056 13.548444084454804  19 13.601238710424534  C 18.85394858983782 14.736325220961156  18.668066980126287 15.633836499129435  18.442350437325654 16.293770479835082  C 18.216634680975197 16.94050579390721  17.957721912966722 17.38925954490514  17.665618291353503 17.64003447645415  C 17.386791937115973 17.904008015633984  17.068135056878077 18.022796732587164  16.709644356452273 17.9963994196023  C 15.820057025525783 17.93040599055532  15.043327075678656 17.593839261242216  14.379455515941306 16.986700006073345  C 13.715583956203956 16.37956075090447  13.15129218371926 15.541445655686712  12.686582632031161 14.472352596323077  C 12.235149546429895 13.403259536959446  11.863382528304085 12.136186242082232  11.571279707979725 10.671132829696827  C 11.279176086366505 9.206079417311422  11.046820672459106 7.582642123329162  10.87421395593405 5.800820593733883  Z " fill-rule="evenodd" />
    </mask>
  </defs>
  <g transform="matrix(1 0 0 1 -587 -940 )">
    <path d="M 6.253669471875355 7.99839953225811  L 6.034590687280294 6.592740591745098  L 18.3826006418808 5.048494707537021  L 18.601679426475858 6.454155064114688  L 6.253669471875355 7.99839953225811  Z M 15.036688071023745 2.019397883014808  C 14.62508833077254 1.610238597847393  14.22012542872859 1.2472750884175037  13.821802154564216 0.9305069417062825  C 13.821802154564216 0.9305069417062825  14.89727568035516 0.21777776344230843  14.89727568035516 0.21777776344230843  C 15.295598153230673 0.5345467066898985  15.707196617355173 0.8843119330037783  16.132074396593563 1.267073412882601  C 16.556952175831952 1.6498348927614235  16.94863641566405 2.03259702166988  17.307127116089855 2.4153592980850713  C 17.67889508389135 2.784922288338456  17.97763851144834 3.1148889541764624  18.203355054248973 3.4052592955990915  C 18.203355054248973 3.4052592955990915  17.048218933234303 4.197180237653411  17.048218933234303 4.197180237653411  C 16.822502390433666 3.8936105805676275  16.530397492693744 3.5570442863993916  16.1719075935568 3.1874812961460073  C 15.826694160506687 2.8047198162671845  15.448288582886445 2.415358678556785  15.036688071023745 2.019397883014808  Z M 4.242138609664799 3.0686937684658764  C 4.852900150223698 2.0655936882536805  5.377358369616776 1.0426956080912047  5.815513802036604 0  C 5.815513802036604 0  7.229560005258205 0.45535447087800096  7.229560005258205 0.45535447087800096  C 6.725017909508903 1.616838196676276  6.134171483563364 2.7519248252182864  5.457022626772957 3.8606137664770923  C 4.793151067035607 4.969303533773614  4.069531077012201 6.011998728845961  3.2861627754121967 6.988700590750707  C 2.5027944738121928 7.952204376048871  1.6995099892136836 8.803520380002524  0.8763094403261286 9.542646360509293  C 0.82319971792133 9.423858205925537  0.7435354014104183 9.27207244071488  0.6373159566008209 9.087290945588189  C 0.5310965117912233 8.902509450461496  0.4182382329715652 8.724326506865868  0.2987413798187919 8.55274353086596  C 0.19252193500919434 8.36796203573927  0.09294199195037395 8.222777727942354  0 8.117188476002896  C 0.7700908858374865 7.470453279936157  1.5136266433762868 6.718128632795868  2.2306077474542443 5.860214121563172  C 2.9608663860041795 5.002300023349333  3.631376831686979 4.071793022640357  4.242138609664799 3.0686937684658764  Z M 3.545072857619123 17.976600947630466  L 3.545072857619123 5.286071650983489  L 5.058700153897444 3.781421294654419  L 5 3.8210177665765315  L 5 17.976600947630466  L 3.545072857619123 17.976600947630466  Z M 10.87421395593405 5.800820593733883  C 10.714884491946 4.018998238100887  10.588749672846097 2.1117885494494497  10.495808081540154 0.07919223581189754  C 10.495808081540154 0.07919223581189754  11.989516879985484 0.07919223581189754  11.989516879985484 0.07919223581189754  C 12.06918121875442 2.3097694929953576  12.215235158911982 4.388560903839455  12.427674449175607 6.315567648398068  C 12.640112938150372 8.242575218994398  12.932214022348868 9.938605887493349  13.303981990150364 11.403659299878752  C 13.67574995795186 12.86871271226416  14.140460785766662 14.023597104745672  14.698113494241715 14.868312595328685  C 15.255765431105278 15.713028085911699  15.906358625404424 16.174981462336927  16.649894561007418 16.254173535891418  C 16.941998182620637 16.26737221727561  17.174354382978212 15.983600043866536  17.346960313053092 15.402858121964705  C 17.51956702957815 14.822116259065568  17.652342300104515 13.957604007588847  17.745284685279977 12.809318712413317  C 17.85150353654227 12.901709459976663  17.98427579481607 13.000698788572421  18.14360525880412 13.106288239645972  C 18.302934722792166 13.211877690719522  18.462263548716866 13.310868907401487  18.621592226254734 13.403259654964833  C 18.78092169024278 13.48245189077673  18.907058408694056 13.548444084454804  19 13.601238710424534  C 18.85394858983782 14.736325220961156  18.668066980126287 15.633836499129435  18.442350437325654 16.293770479835082  C 18.216634680975197 16.94050579390721  17.957721912966722 17.38925954490514  17.665618291353503 17.64003447645415  C 17.386791937115973 17.904008015633984  17.068135056878077 18.022796732587164  16.709644356452273 17.9963994196023  C 15.820057025525783 17.93040599055532  15.043327075678656 17.593839261242216  14.379455515941306 16.986700006073345  C 13.715583956203956 16.37956075090447  13.15129218371926 15.541445655686712  12.686582632031161 14.472352596323077  C 12.235149546429895 13.403259536959446  11.863382528304085 12.136186242082232  11.571279707979725 10.671132829696827  C 11.279176086366505 9.206079417311422  11.046820672459106 7.582642123329162  10.87421395593405 5.800820593733883  Z " fill-rule="nonzero" fill="rgba(255, 255, 255, 1)" stroke="none" transform="matrix(1 0 0 1 587 940 )" class="fill" />
    <path d="M 6.253669471875355 7.99839953225811  L 6.034590687280294 6.592740591745098  L 18.3826006418808 5.048494707537021  L 18.601679426475858 6.454155064114688  L 6.253669471875355 7.99839953225811  Z " stroke-width="0" stroke-dasharray="0" stroke="rgba(121, 121, 121, 1)" fill="none" transform="matrix(1 0 0 1 587 940 )" class="stroke" mask="url(#Clip4327)" />
    <path d="M 15.036688071023745 2.019397883014808  C 14.62508833077254 1.610238597847393  14.22012542872859 1.2472750884175037  13.821802154564216 0.9305069417062825  C 13.821802154564216 0.9305069417062825  14.89727568035516 0.21777776344230843  14.89727568035516 0.21777776344230843  C 15.295598153230673 0.5345467066898985  15.707196617355173 0.8843119330037783  16.132074396593563 1.267073412882601  C 16.556952175831952 1.6498348927614235  16.94863641566405 2.03259702166988  17.307127116089855 2.4153592980850713  C 17.67889508389135 2.784922288338456  17.97763851144834 3.1148889541764624  18.203355054248973 3.4052592955990915  C 18.203355054248973 3.4052592955990915  17.048218933234303 4.197180237653411  17.048218933234303 4.197180237653411  C 16.822502390433666 3.8936105805676275  16.530397492693744 3.5570442863993916  16.1719075935568 3.1874812961460073  C 15.826694160506687 2.8047198162671845  15.448288582886445 2.415358678556785  15.036688071023745 2.019397883014808  Z " stroke-width="0" stroke-dasharray="0" stroke="rgba(121, 121, 121, 1)" fill="none" transform="matrix(1 0 0 1 587 940 )" class="stroke" mask="url(#Clip4327)" />
    <path d="M 4.242138609664799 3.0686937684658764  C 4.852900150223698 2.0655936882536805  5.377358369616776 1.0426956080912047  5.815513802036604 0  C 5.815513802036604 0  7.229560005258205 0.45535447087800096  7.229560005258205 0.45535447087800096  C 6.725017909508903 1.616838196676276  6.134171483563364 2.7519248252182864  5.457022626772957 3.8606137664770923  C 4.793151067035607 4.969303533773614  4.069531077012201 6.011998728845961  3.2861627754121967 6.988700590750707  C 2.5027944738121928 7.952204376048871  1.6995099892136836 8.803520380002524  0.8763094403261286 9.542646360509293  C 0.82319971792133 9.423858205925537  0.7435354014104183 9.27207244071488  0.6373159566008209 9.087290945588189  C 0.5310965117912233 8.902509450461496  0.4182382329715652 8.724326506865868  0.2987413798187919 8.55274353086596  C 0.19252193500919434 8.36796203573927  0.09294199195037395 8.222777727942354  0 8.117188476002896  C 0.7700908858374865 7.470453279936157  1.5136266433762868 6.718128632795868  2.2306077474542443 5.860214121563172  C 2.9608663860041795 5.002300023349333  3.631376831686979 4.071793022640357  4.242138609664799 3.0686937684658764  Z " stroke-width="0" stroke-dasharray="0" stroke="rgba(121, 121, 121, 1)" fill="none" transform="matrix(1 0 0 1 587 940 )" class="stroke" mask="url(#Clip4327)" />
    <path d="M 3.545072857619123 17.976600947630466  L 3.545072857619123 5.286071650983489  L 5.058700153897444 3.781421294654419  L 5 3.8210177665765315  L 5 17.976600947630466  L 3.545072857619123 17.976600947630466  Z " stroke-width="0" stroke-dasharray="0" stroke="rgba(121, 121, 121, 1)" fill="none" transform="matrix(1 0 0 1 587 940 )" class="stroke" mask="url(#Clip4327)" />
    <path d="M 10.87421395593405 5.800820593733883  C 10.714884491946 4.018998238100887  10.588749672846097 2.1117885494494497  10.495808081540154 0.07919223581189754  C 10.495808081540154 0.07919223581189754  11.989516879985484 0.07919223581189754  11.989516879985484 0.07919223581189754  C 12.06918121875442 2.3097694929953576  12.215235158911982 4.388560903839455  12.427674449175607 6.315567648398068  C 12.640112938150372 8.242575218994398  12.932214022348868 9.938605887493349  13.303981990150364 11.403659299878752  C 13.67574995795186 12.86871271226416  14.140460785766662 14.023597104745672  14.698113494241715 14.868312595328685  C 15.255765431105278 15.713028085911699  15.906358625404424 16.174981462336927  16.649894561007418 16.254173535891418  C 16.941998182620637 16.26737221727561  17.174354382978212 15.983600043866536  17.346960313053092 15.402858121964705  C 17.51956702957815 14.822116259065568  17.652342300104515 13.957604007588847  17.745284685279977 12.809318712413317  C 17.85150353654227 12.901709459976663  17.98427579481607 13.000698788572421  18.14360525880412 13.106288239645972  C 18.302934722792166 13.211877690719522  18.462263548716866 13.310868907401487  18.621592226254734 13.403259654964833  C 18.78092169024278 13.48245189077673  18.907058408694056 13.548444084454804  19 13.601238710424534  C 18.85394858983782 14.736325220961156  18.668066980126287 15.633836499129435  18.442350437325654 16.293770479835082  C 18.216634680975197 16.94050579390721  17.957721912966722 17.38925954490514  17.665618291353503 17.64003447645415  C 17.386791937115973 17.904008015633984  17.068135056878077 18.022796732587164  16.709644356452273 17.9963994196023  C 15.820057025525783 17.93040599055532  15.043327075678656 17.593839261242216  14.379455515941306 16.986700006073345  C 13.715583956203956 16.37956075090447  13.15129218371926 15.541445655686712  12.686582632031161 14.472352596323077  C 12.235149546429895 13.403259536959446  11.863382528304085 12.136186242082232  11.571279707979725 10.671132829696827  C 11.279176086366505 9.206079417311422  11.046820672459106 7.582642123329162  10.87421395593405 5.800820593733883  Z " stroke-width="0" stroke-dasharray="0" stroke="rgba(121, 121, 121, 1)" fill="none" transform="matrix(1 0 0 1 587 940 )" class="stroke" mask="url(#Clip4327)" />
  </g>
</svg>