<?xml version="1.0" encoding="utf-8"?>
<svg version="1.1" xmlns:xlink="http://www.w3.org/1999/xlink" width="12px" height="20px" xmlns="http://www.w3.org/2000/svg">
  <defs>
    <pattern id="BGPattern" patternUnits="userSpaceOnUse" alignment="0 0" imageRepeat="None" />
    <mask fill="white" id="Clip4334">
      <path d="M 9.797649249209973 0  L 12 0  C 12 0  5.6752917281345745 17.382645842292398  5.6752917281345745 17.382645842292398  C 5.392938671696937 18.15078260975732  5.082355316405056 18.662873969751804  4.687060869096917 19.03271736301422  C 3.952943511393121 19.743955016460134  2.9647047184272934 20  1.9764694115814194 20  C 1.9764694115814194 20  1.1011792221480654 20  1.1011792221480654 20  L 1.1011792221480654 18.179232227328338  C 1.1011792221480654 18.179232227328338  1.722352904971736 18.179232227328338  1.722352904971736 18.179232227328338  C 3.134117525999242 18.179232227328338  3.5576444359602166 17.724040284160424  4.00940915796499 16.443812580631597  C 4.00940915796499 16.443812580631597  4.997647710508752 13.712658014671584  4.997647710508752 13.712658014671584  L 0 0  L 2.202350750790027 0  L 6.0141214304535895 11.237552671557193  L 9.797649249209973 0  Z " fill-rule="evenodd" />
    </mask>
  </defs>
  <g transform="matrix(1 0 0 1 -642 -548 )">
    <path d="M 9.797649249209973 0  L 12 0  C 12 0  5.6752917281345745 17.382645842292398  5.6752917281345745 17.382645842292398  C 5.392938671696937 18.15078260975732  5.082355316405056 18.662873969751804  4.687060869096917 19.03271736301422  C 3.952943511393121 19.743955016460134  2.9647047184272934 20  1.9764694115814194 20  C 1.9764694115814194 20  1.1011792221480654 20  1.1011792221480654 20  L 1.1011792221480654 18.179232227328338  C 1.1011792221480654 18.179232227328338  1.722352904971736 18.179232227328338  1.722352904971736 18.179232227328338  C 3.134117525999242 18.179232227328338  3.5576444359602166 17.724040284160424  4.00940915796499 16.443812580631597  C 4.00940915796499 16.443812580631597  4.997647710508752 13.712658014671584  4.997647710508752 13.712658014671584  L 0 0  L 2.202350750790027 0  L 6.0141214304535895 11.237552671557193  L 9.797649249209973 0  Z " fill-rule="nonzero" fill="rgba(255, 255, 255, 1)" stroke="none" transform="matrix(1 0 0 1 642 548 )" class="fill" />
    <path d="M 9.797649249209973 0  L 12 0  C 12 0  5.6752917281345745 17.382645842292398  5.6752917281345745 17.382645842292398  C 5.392938671696937 18.15078260975732  5.082355316405056 18.662873969751804  4.687060869096917 19.03271736301422  C 3.952943511393121 19.743955016460134  2.9647047184272934 20  1.9764694115814194 20  C 1.9764694115814194 20  1.1011792221480654 20  1.1011792221480654 20  L 1.1011792221480654 18.179232227328338  C 1.1011792221480654 18.179232227328338  1.722352904971736 18.179232227328338  1.722352904971736 18.179232227328338  C 3.134117525999242 18.179232227328338  3.5576444359602166 17.724040284160424  4.00940915796499 16.443812580631597  C 4.00940915796499 16.443812580631597  4.997647710508752 13.712658014671584  4.997647710508752 13.712658014671584  L 0 0  L 2.202350750790027 0  L 6.0141214304535895 11.237552671557193  L 9.797649249209973 0  Z " stroke-width="0" stroke-dasharray="0" stroke="rgba(121, 121, 121, 1)" fill="none" transform="matrix(1 0 0 1 642 548 )" class="stroke" mask="url(#Clip4334)" />
  </g>
</svg>