<?xml version="1.0" encoding="utf-8"?>
<svg version="1.1" xmlns:xlink="http://www.w3.org/1999/xlink" width="11px" height="14px" xmlns="http://www.w3.org/2000/svg">
  <defs>
    <pattern id="BGPattern" patternUnits="userSpaceOnUse" alignment="0 0" imageRepeat="None" />
    <mask fill="white" id="Clip4367">
      <path d="M 9.35820072037339 1.5555545043272163  C 10.726360651162507 2.9722211935202045  11 4.888888321976463  11 7  C 11 9.111111441497162  10.726360651162507 11.027778688216607  9.35820072037339 12.444445495672785  C 8.427851934817324 13.38888999455584  7.141784134874125 14  5.499992544121854 14  C 3.8582009533695825 14  2.5721329204301906 13.38888999455584  1.6417843678703166 12.444445495672785  C 0.27362467007739205 11.027778688216607  0 9.111111441497162  0 7  C 0 4.888888321976463  0.27362467007739205 2.9722211935202045  1.6417843678703166 1.5555545043272163  C 2.5721329204301906 0.6111105967601023  3.8582009533695825 0  5.499992544121854 0  C 7.141784134874125 0  8.427851934817324 0.6111105967601023  9.35820072037339 1.5555545043272163  Z M 7.962684007683621 11.222222882994322  C 8.947759288329653 10.222222714046909  9.029843846799327 8.52777755626895  9.029843846799327 7  C 9.029843846799327 5.472221497625545  8.947759288329653 3.7777775224794663  7.962684007683621 2.777777117005679  C 7.3333305373790285 2.1388881530290513  6.457704169479566 1.777777657637396  5.499992544121854 1.777777657637396  C 4.542280511020805 1.777777657637396  3.694017623662517 2.1388881530290513  3.064664153357924 2.777777117005679  C 2.0795888727118927 3.7777775224794663  1.9701412414443797 5.472221497625545  1.9701412414443797 7  C 1.9701412414443797 8.52777755626895  2.0795888727118927 10.222222714046909  3.064664153357924 11.222222882994322  C 3.694017623662517 11.86111184697095  4.542280511020805 12.222222342362604  5.499992544121854 12.222222342362604  C 6.457704169479566 12.222222342362604  7.3333305373790285 11.86111184697095  7.962684007683621 11.222222882994322  Z " fill-rule="evenodd" />
    </mask>
  </defs>
  <g transform="matrix(1 0 0 1 -1562 -548 )">
    <path d="M 9.35820072037339 1.5555545043272163  C 10.726360651162507 2.9722211935202045  11 4.888888321976463  11 7  C 11 9.111111441497162  10.726360651162507 11.027778688216607  9.35820072037339 12.444445495672785  C 8.427851934817324 13.38888999455584  7.141784134874125 14  5.499992544121854 14  C 3.8582009533695825 14  2.5721329204301906 13.38888999455584  1.6417843678703166 12.444445495672785  C 0.27362467007739205 11.027778688216607  0 9.111111441497162  0 7  C 0 4.888888321976463  0.27362467007739205 2.9722211935202045  1.6417843678703166 1.5555545043272163  C 2.5721329204301906 0.6111105967601023  3.8582009533695825 0  5.499992544121854 0  C 7.141784134874125 0  8.427851934817324 0.6111105967601023  9.35820072037339 1.5555545043272163  Z M 7.962684007683621 11.222222882994322  C 8.947759288329653 10.222222714046909  9.029843846799327 8.52777755626895  9.029843846799327 7  C 9.029843846799327 5.472221497625545  8.947759288329653 3.7777775224794663  7.962684007683621 2.777777117005679  C 7.3333305373790285 2.1388881530290513  6.457704169479566 1.777777657637396  5.499992544121854 1.777777657637396  C 4.542280511020805 1.777777657637396  3.694017623662517 2.1388881530290513  3.064664153357924 2.777777117005679  C 2.0795888727118927 3.7777775224794663  1.9701412414443797 5.472221497625545  1.9701412414443797 7  C 1.9701412414443797 8.52777755626895  2.0795888727118927 10.222222714046909  3.064664153357924 11.222222882994322  C 3.694017623662517 11.86111184697095  4.542280511020805 12.222222342362604  5.499992544121854 12.222222342362604  C 6.457704169479566 12.222222342362604  7.3333305373790285 11.86111184697095  7.962684007683621 11.222222882994322  Z " fill-rule="nonzero" fill="rgba(255, 255, 255, 1)" stroke="none" transform="matrix(1 0 0 1 1562 548 )" class="fill" />
    <path d="M 9.35820072037339 1.5555545043272163  C 10.726360651162507 2.9722211935202045  11 4.888888321976463  11 7  C 11 9.111111441497162  10.726360651162507 11.027778688216607  9.35820072037339 12.444445495672785  C 8.427851934817324 13.38888999455584  7.141784134874125 14  5.499992544121854 14  C 3.8582009533695825 14  2.5721329204301906 13.38888999455584  1.6417843678703166 12.444445495672785  C 0.27362467007739205 11.027778688216607  0 9.111111441497162  0 7  C 0 4.888888321976463  0.27362467007739205 2.9722211935202045  1.6417843678703166 1.5555545043272163  C 2.5721329204301906 0.6111105967601023  3.8582009533695825 0  5.499992544121854 0  C 7.141784134874125 0  8.427851934817324 0.6111105967601023  9.35820072037339 1.5555545043272163  Z " stroke-width="0" stroke-dasharray="0" stroke="rgba(121, 121, 121, 1)" fill="none" transform="matrix(1 0 0 1 1562 548 )" class="stroke" mask="url(#Clip4367)" />
    <path d="M 7.962684007683621 11.222222882994322  C 8.947759288329653 10.222222714046909  9.029843846799327 8.52777755626895  9.029843846799327 7  C 9.029843846799327 5.472221497625545  8.947759288329653 3.7777775224794663  7.962684007683621 2.777777117005679  C 7.3333305373790285 2.1388881530290513  6.457704169479566 1.777777657637396  5.499992544121854 1.777777657637396  C 4.542280511020805 1.777777657637396  3.694017623662517 2.1388881530290513  3.064664153357924 2.777777117005679  C 2.0795888727118927 3.7777775224794663  1.9701412414443797 5.472221497625545  1.9701412414443797 7  C 1.9701412414443797 8.52777755626895  2.0795888727118927 10.222222714046909  3.064664153357924 11.222222882994322  C 3.694017623662517 11.86111184697095  4.542280511020805 12.222222342362604  5.499992544121854 12.222222342362604  C 6.457704169479566 12.222222342362604  7.3333305373790285 11.86111184697095  7.962684007683621 11.222222882994322  Z " stroke-width="0" stroke-dasharray="0" stroke="rgba(121, 121, 121, 1)" fill="none" transform="matrix(1 0 0 1 1562 548 )" class="stroke" mask="url(#Clip4367)" />
  </g>
</svg>