<?xml version="1.0" encoding="utf-8"?>
<svg version="1.1" xmlns:xlink="http://www.w3.org/1999/xlink" width="12px" height="16px" xmlns="http://www.w3.org/2000/svg">
  <defs>
    <pattern id="BGPattern" patternUnits="userSpaceOnUse" alignment="0 0" imageRepeat="None" />
    <mask fill="white" id="Clip4390">
      <path d="M 10.740458954942362 7.8895031170442325  C 11.610687687872518 8.685083452482738  12 9.834253957077475  12 11.226518945354131  C 12 14.27624244688571  9.366413952897357 16  5.954199807014966 16  C 3.4809171653437003 16  1.6030534123804268 15.49171211108796  0 13.922651319744313  C 0 13.922651319744313  2.0610682476085342 11.933701678629506  2.0610682476085342 11.933701678629506  C 3.0916028057283995 12.928176738683202  4.488549207212716 13.259668106039378  6 13.259668106039378  C 7.877862263881223 13.259668106039378  8.88549554665195 12.574586569526971  8.88549554665195 11.31491798449501  C 8.88549554665195 10.76243201299028  8.725192637581255 10.298343763396824  8.381681511160174 9.988951557085139  C 8.061070853502123 9.701658511817945  7.694656776514595 9.546961390802863  6.938931752391465 9.436464268350804  C 6.938931752391465 9.436464268350804  4.969467861638467 9.17127098286883  4.969467861638467 9.17127098286883  C 3.572521149928723 8.972375899009204  2.541983799780013 8.552485911630658  1.8091592444199132 7.867403357259013  C 1.030533255173071 7.116022002524291  0.6412225562178111 6.099447841300178  0.6412225562178111 4.773481054645869  C 0.6412225562178111 1.9668520367962101  2.7938954088622223 0  6.320613263551639 0  C 8.564887743067827 0  10.190839266498037 0.5303878881935513  11.587786350478293 1.834254196573766  C 11.587786350478293 1.834254196573766  9.572518295854792 3.7569064743032454  9.572518295854792 3.7569064743032454  C 8.541984234095612 2.8066306943236983  7.30534520892814 2.674034530575294  6.229008906696105 2.674034530575294  C 4.5343523783618505 2.674034530575294  3.709922845695362 3.5801107909844014  3.709922845695362 4.662984171690101  C 3.709922845695362 5.060774339409354  3.8473292879110366 5.480663428676807  4.190840755580087 5.790055634988493  C 4.511451413238138 6.077348680255686  5.038168647476701 6.320442984315388  5.702290803826346 6.408840287108154  C 5.702290803826346 6.408840287108154  7.625954501594311 6.674033572590129  7.625954501594311 6.674033572590129  C 9.11450408107754 6.872928656449755  10.053436019604263 7.270718704420862  10.740458954942362 7.8895031170442325  Z " fill-rule="evenodd" />
    </mask>
  </defs>
  <g transform="matrix(1 0 0 1 -320 -74 )">
    <path d="M 10.740458954942362 7.8895031170442325  C 11.610687687872518 8.685083452482738  12 9.834253957077475  12 11.226518945354131  C 12 14.27624244688571  9.366413952897357 16  5.954199807014966 16  C 3.4809171653437003 16  1.6030534123804268 15.49171211108796  0 13.922651319744313  C 0 13.922651319744313  2.0610682476085342 11.933701678629506  2.0610682476085342 11.933701678629506  C 3.0916028057283995 12.928176738683202  4.488549207212716 13.259668106039378  6 13.259668106039378  C 7.877862263881223 13.259668106039378  8.88549554665195 12.574586569526971  8.88549554665195 11.31491798449501  C 8.88549554665195 10.76243201299028  8.725192637581255 10.298343763396824  8.381681511160174 9.988951557085139  C 8.061070853502123 9.701658511817945  7.694656776514595 9.546961390802863  6.938931752391465 9.436464268350804  C 6.938931752391465 9.436464268350804  4.969467861638467 9.17127098286883  4.969467861638467 9.17127098286883  C 3.572521149928723 8.972375899009204  2.541983799780013 8.552485911630658  1.8091592444199132 7.867403357259013  C 1.030533255173071 7.116022002524291  0.6412225562178111 6.099447841300178  0.6412225562178111 4.773481054645869  C 0.6412225562178111 1.9668520367962101  2.7938954088622223 0  6.320613263551639 0  C 8.564887743067827 0  10.190839266498037 0.5303878881935513  11.587786350478293 1.834254196573766  C 11.587786350478293 1.834254196573766  9.572518295854792 3.7569064743032454  9.572518295854792 3.7569064743032454  C 8.541984234095612 2.8066306943236983  7.30534520892814 2.674034530575294  6.229008906696105 2.674034530575294  C 4.5343523783618505 2.674034530575294  3.709922845695362 3.5801107909844014  3.709922845695362 4.662984171690101  C 3.709922845695362 5.060774339409354  3.8473292879110366 5.480663428676807  4.190840755580087 5.790055634988493  C 4.511451413238138 6.077348680255686  5.038168647476701 6.320442984315388  5.702290803826346 6.408840287108154  C 5.702290803826346 6.408840287108154  7.625954501594311 6.674033572590129  7.625954501594311 6.674033572590129  C 9.11450408107754 6.872928656449755  10.053436019604263 7.270718704420862  10.740458954942362 7.8895031170442325  Z " fill-rule="nonzero" fill="rgba(255, 255, 255, 1)" stroke="none" transform="matrix(1 0 0 1 320 74 )" class="fill" />
    <path d="M 10.740458954942362 7.8895031170442325  C 11.610687687872518 8.685083452482738  12 9.834253957077475  12 11.226518945354131  C 12 14.27624244688571  9.366413952897357 16  5.954199807014966 16  C 3.4809171653437003 16  1.6030534123804268 15.49171211108796  0 13.922651319744313  C 0 13.922651319744313  2.0610682476085342 11.933701678629506  2.0610682476085342 11.933701678629506  C 3.0916028057283995 12.928176738683202  4.488549207212716 13.259668106039378  6 13.259668106039378  C 7.877862263881223 13.259668106039378  8.88549554665195 12.574586569526971  8.88549554665195 11.31491798449501  C 8.88549554665195 10.76243201299028  8.725192637581255 10.298343763396824  8.381681511160174 9.988951557085139  C 8.061070853502123 9.701658511817945  7.694656776514595 9.546961390802863  6.938931752391465 9.436464268350804  C 6.938931752391465 9.436464268350804  4.969467861638467 9.17127098286883  4.969467861638467 9.17127098286883  C 3.572521149928723 8.972375899009204  2.541983799780013 8.552485911630658  1.8091592444199132 7.867403357259013  C 1.030533255173071 7.116022002524291  0.6412225562178111 6.099447841300178  0.6412225562178111 4.773481054645869  C 0.6412225562178111 1.9668520367962101  2.7938954088622223 0  6.320613263551639 0  C 8.564887743067827 0  10.190839266498037 0.5303878881935513  11.587786350478293 1.834254196573766  C 11.587786350478293 1.834254196573766  9.572518295854792 3.7569064743032454  9.572518295854792 3.7569064743032454  C 8.541984234095612 2.8066306943236983  7.30534520892814 2.674034530575294  6.229008906696105 2.674034530575294  C 4.5343523783618505 2.674034530575294  3.709922845695362 3.5801107909844014  3.709922845695362 4.662984171690101  C 3.709922845695362 5.060774339409354  3.8473292879110366 5.480663428676807  4.190840755580087 5.790055634988493  C 4.511451413238138 6.077348680255686  5.038168647476701 6.320442984315388  5.702290803826346 6.408840287108154  C 5.702290803826346 6.408840287108154  7.625954501594311 6.674033572590129  7.625954501594311 6.674033572590129  C 9.11450408107754 6.872928656449755  10.053436019604263 7.270718704420862  10.740458954942362 7.8895031170442325  Z " stroke-width="0" stroke-dasharray="0" stroke="rgba(121, 121, 121, 1)" fill="none" transform="matrix(1 0 0 1 320 74 )" class="stroke" mask="url(#Clip4390)" />
  </g>
</svg>