<?xml version="1.0" encoding="utf-8"?>
<svg version="1.1" xmlns:xlink="http://www.w3.org/1999/xlink" width="38px" height="44px" xmlns="http://www.w3.org/2000/svg">
  <defs>
    <pattern id="BGPattern" patternUnits="userSpaceOnUse" alignment="0 0" imageRepeat="None" />
    <mask fill="white" id="Clip4909">
      <path d="M 28.99773828756058 19.077721888690576  C 28.99773828756058 19.077721888690576  29.007431340872376 17.967872789226025  29.007431340872376 17.967872789226025  C 29.007422800979583 11.970504421547947  28.244723170562402 8.206299263878185  25.259127625201938 5.079993509654389  C 23.28990539649384 2.9785300444690086  20.068880471274234 1.1161659410319777  15.422617124394183 1.0017848450429985  C 15.422617124394183 1.0017848450429985  14.968012924071083 0.9969170858348207  14.968012924071083 0.9969170858348207  C 10.076770433663166 0.9969822802332611  6.773618298162359 2.9107400800391448  4.7408723747980615 5.079993509654389  C 1.7552952878887318 8.206294510207083  0.992577198471555 11.970520108662583  0.9925686591276252 17.967872789226025  C 0.9925686591276252 24.029128595042998  1.7552254770799678 27.793674115563647  4.7408723747980615 30.92000649034561  C 6.773623267745355 33.08923448782046  10.076819182905897 35.00301772211688  14.968012924071083 35.003082914165184  C 19.859323568760097 35.003082914165184  23.226337922177905 33.089261583745746  25.259127625201938 30.92000649034561  C 28.058209041170233 27.989029557059265  28.903075873601416 24.497183608327923  28.99773828756058 19.077721888690576  Z M 19.464620355411956 22.478338471523607  C 19.707454591421396 21.199486500524802  19.75638126009693 19.687263148337358  19.75638126009693 17.967872789226025  C 19.756379335247484 16.24806482010841  19.707012416858085 14.753117140597112  19.464620355411956 13.49148142138569  C 19.22396131771254 12.23896645207539  18.80851476912737 11.304145502266552  18.14151857835218 10.6341067661853  C 17.40141863846047 9.890765886927278  16.39660853569265 9.458056141489534  14.968012924071083 9.458056141489534  C 13.552286165943054 9.458106032680735  12.606593098432452 9.882718397119149  11.85848142164782 10.6341067661853  C 11.191499725489702 11.304143838481666  10.776035872106599 12.238981544981137  10.535379644588046 13.49148142138569  C 10.292988973441917 14.753115239128672  10.243620664747779 16.248068979570622  10.24361873990307 17.967872789226025  C 10.24361873990307 19.68725910771692  10.292546754507333 21.199488401993246  10.535379644588046 22.478338471523607  C 10.777048350690063 23.750818502935868  11.194282987776404 24.69871442511003  11.85848142164782 25.365893233814703  C 12.606592506815428 26.117281781143518  13.552285456002625 26.541893969237822  14.968012924071083 26.541943858510464  C 14.968012924071083 26.541943858510464  14.968012924071083 27.538860944345288  14.968012924071083 27.538860944345288  C 14.968012924071083 27.538860944345288  14.663651050080775 27.532046081453835  14.663651050080775 27.532046081453835  C 13.166709473445074 27.47244462745638  12.049994537402817 26.967948432017433  11.15670436187399 26.07074476715885  C 9.441668257459108 24.3480533399927  9.251050080775444 21.413129195907025  9.251050080775444 17.967872789226025  C 9.25105368110031 14.630204556805737  9.430105931000101 11.831595615657452  11.000646203554119 10.09378549407756  C 11.000646203554119 10.09378549407756  11.15670436187399 9.929255232841149  11.15670436187399 9.929255232841149  C 12.109522273197697 8.972263992906255  13.31650536557199 8.461190538091907  14.968012924071083 8.461139055654714  C 16.61964673364297 8.461139055654714  17.890428740912764 8.972215743144572  18.84329563812601 9.929255232841149  C 20.558222530038368 11.651937746873985  20.74894620307506 14.522726667714588  20.748949919224557 17.967872789226025  C 20.748949919224557 21.41314535838877  20.558355052251617 24.34805666756247  18.84329563812601 26.07074476715885  C 18.84329563812601 26.07074476715885  18.661066235864297 26.245010546811617  18.661066235864297 26.245010546811617  C 17.730277657701432 27.08976321488875  16.51651333268124 27.538860944345288  14.968012924071083 27.538860944345288  C 14.968012924071083 27.538860944345288  14.968012924071083 26.541943858510464  14.968012924071083 26.541943858510464  C 16.39660924563308 26.541943858510464  17.401419170915794 26.109234291335387  18.14151857835218 25.365893233814703  C 18.80573144767897 24.698713177271365  19.22294882433865 23.750833952366946  19.464620355411956 22.478338471523607  Z M 26.273990306946686 4.711990913516145  C 29.283590358062398 8.062765492531032  29.999991809947176 12.093780423495051  30 17.967872789226025  C 30 24.089482629451968  29.237613196057147 28.1882872871623  25.981260096930534 31.602466331332142  C 23.765198089155895 33.967347112430026  20.13926917154685 36  14.968012924071083 36  C 9.792001495607835 35.99993447428949  6.230349164478998 33.96460186736878  4.017770597738287 31.603439883173778  C 0.7618278441791195 28.188389253407433  0 24.08917744376724  0 17.967872789226025  C 0 11.904273423555898  0.7634069883380452 7.804560576981584  4.024555735056543 4.389745253934771  C 6.2376028624798066 2.031511293454892  9.79702882042609 6.546201729917611E-05  14.968012924071083 0  C 20.134233800737075 0  23.75879631966882 2.0278179286923983  25.975444264943455 4.389745253934771  C 25.975444264943455 4.389745253934771  26.273990306946686 4.711990913516145  26.273990306946686 4.711990913516145  Z " fill-rule="evenodd" />
    </mask>
  </defs>
  <g transform="matrix(1 0 0 1 -560 -323 )">
    <path d="M 28.99773828756058 19.077721888690576  C 28.99773828756058 19.077721888690576  29.007431340872376 17.967872789226025  29.007431340872376 17.967872789226025  C 29.007422800979583 11.970504421547947  28.244723170562402 8.206299263878185  25.259127625201938 5.079993509654389  C 23.28990539649384 2.9785300444690086  20.068880471274234 1.1161659410319777  15.422617124394183 1.0017848450429985  C 15.422617124394183 1.0017848450429985  14.968012924071083 0.9969170858348207  14.968012924071083 0.9969170858348207  C 10.076770433663166 0.9969822802332611  6.773618298162359 2.9107400800391448  4.7408723747980615 5.079993509654389  C 1.7552952878887318 8.206294510207083  0.992577198471555 11.970520108662583  0.9925686591276252 17.967872789226025  C 0.9925686591276252 24.029128595042998  1.7552254770799678 27.793674115563647  4.7408723747980615 30.92000649034561  C 6.773623267745355 33.08923448782046  10.076819182905897 35.00301772211688  14.968012924071083 35.003082914165184  C 19.859323568760097 35.003082914165184  23.226337922177905 33.089261583745746  25.259127625201938 30.92000649034561  C 28.058209041170233 27.989029557059265  28.903075873601416 24.497183608327923  28.99773828756058 19.077721888690576  Z M 19.464620355411956 22.478338471523607  C 19.707454591421396 21.199486500524802  19.75638126009693 19.687263148337358  19.75638126009693 17.967872789226025  C 19.756379335247484 16.24806482010841  19.707012416858085 14.753117140597112  19.464620355411956 13.49148142138569  C 19.22396131771254 12.23896645207539  18.80851476912737 11.304145502266552  18.14151857835218 10.6341067661853  C 17.40141863846047 9.890765886927278  16.39660853569265 9.458056141489534  14.968012924071083 9.458056141489534  C 13.552286165943054 9.458106032680735  12.606593098432452 9.882718397119149  11.85848142164782 10.6341067661853  C 11.191499725489702 11.304143838481666  10.776035872106599 12.238981544981137  10.535379644588046 13.49148142138569  C 10.292988973441917 14.753115239128672  10.243620664747779 16.248068979570622  10.24361873990307 17.967872789226025  C 10.24361873990307 19.68725910771692  10.292546754507333 21.199488401993246  10.535379644588046 22.478338471523607  C 10.777048350690063 23.750818502935868  11.194282987776404 24.69871442511003  11.85848142164782 25.365893233814703  C 12.606592506815428 26.117281781143518  13.552285456002625 26.541893969237822  14.968012924071083 26.541943858510464  C 14.968012924071083 26.541943858510464  14.968012924071083 27.538860944345288  14.968012924071083 27.538860944345288  C 14.968012924071083 27.538860944345288  14.663651050080775 27.532046081453835  14.663651050080775 27.532046081453835  C 13.166709473445074 27.47244462745638  12.049994537402817 26.967948432017433  11.15670436187399 26.07074476715885  C 9.441668257459108 24.3480533399927  9.251050080775444 21.413129195907025  9.251050080775444 17.967872789226025  C 9.25105368110031 14.630204556805737  9.430105931000101 11.831595615657452  11.000646203554119 10.09378549407756  C 11.000646203554119 10.09378549407756  11.15670436187399 9.929255232841149  11.15670436187399 9.929255232841149  C 12.109522273197697 8.972263992906255  13.31650536557199 8.461190538091907  14.968012924071083 8.461139055654714  C 16.61964673364297 8.461139055654714  17.890428740912764 8.972215743144572  18.84329563812601 9.929255232841149  C 20.558222530038368 11.651937746873985  20.74894620307506 14.522726667714588  20.748949919224557 17.967872789226025  C 20.748949919224557 21.41314535838877  20.558355052251617 24.34805666756247  18.84329563812601 26.07074476715885  C 18.84329563812601 26.07074476715885  18.661066235864297 26.245010546811617  18.661066235864297 26.245010546811617  C 17.730277657701432 27.08976321488875  16.51651333268124 27.538860944345288  14.968012924071083 27.538860944345288  C 14.968012924071083 27.538860944345288  14.968012924071083 26.541943858510464  14.968012924071083 26.541943858510464  C 16.39660924563308 26.541943858510464  17.401419170915794 26.109234291335387  18.14151857835218 25.365893233814703  C 18.80573144767897 24.698713177271365  19.22294882433865 23.750833952366946  19.464620355411956 22.478338471523607  Z M 26.273990306946686 4.711990913516145  C 29.283590358062398 8.062765492531032  29.999991809947176 12.093780423495051  30 17.967872789226025  C 30 24.089482629451968  29.237613196057147 28.1882872871623  25.981260096930534 31.602466331332142  C 23.765198089155895 33.967347112430026  20.13926917154685 36  14.968012924071083 36  C 9.792001495607835 35.99993447428949  6.230349164478998 33.96460186736878  4.017770597738287 31.603439883173778  C 0.7618278441791195 28.188389253407433  0 24.08917744376724  0 17.967872789226025  C 0 11.904273423555898  0.7634069883380452 7.804560576981584  4.024555735056543 4.389745253934771  C 6.2376028624798066 2.031511293454892  9.79702882042609 6.546201729917611E-05  14.968012924071083 0  C 20.134233800737075 0  23.75879631966882 2.0278179286923983  25.975444264943455 4.389745253934771  C 25.975444264943455 4.389745253934771  26.273990306946686 4.711990913516145  26.273990306946686 4.711990913516145  Z " fill-rule="nonzero" fill="rgba(127, 140, 159, 0.058823529411764705)" stroke="none" transform="matrix(1 0 0 1 564 323 )" class="fill" />
    <path d="M 28.99773828756058 19.077721888690576  C 28.99773828756058 19.077721888690576  29.007431340872376 17.967872789226025  29.007431340872376 17.967872789226025  C 29.007422800979583 11.970504421547947  28.244723170562402 8.206299263878185  25.259127625201938 5.079993509654389  C 23.28990539649384 2.9785300444690086  20.068880471274234 1.1161659410319777  15.422617124394183 1.0017848450429985  C 15.422617124394183 1.0017848450429985  14.968012924071083 0.9969170858348207  14.968012924071083 0.9969170858348207  C 10.076770433663166 0.9969822802332611  6.773618298162359 2.9107400800391448  4.7408723747980615 5.079993509654389  C 1.7552952878887318 8.206294510207083  0.992577198471555 11.970520108662583  0.9925686591276252 17.967872789226025  C 0.9925686591276252 24.029128595042998  1.7552254770799678 27.793674115563647  4.7408723747980615 30.92000649034561  C 6.773623267745355 33.08923448782046  10.076819182905897 35.00301772211688  14.968012924071083 35.003082914165184  C 19.859323568760097 35.003082914165184  23.226337922177905 33.089261583745746  25.259127625201938 30.92000649034561  C 28.058209041170233 27.989029557059265  28.903075873601416 24.497183608327923  28.99773828756058 19.077721888690576  Z " stroke-width="0" stroke-dasharray="0" stroke="rgba(121, 121, 121, 1)" fill="none" transform="matrix(1 0 0 1 564 323 )" class="stroke" mask="url(#Clip4909)" />
    <path d="M 19.464620355411956 22.478338471523607  C 19.707454591421396 21.199486500524802  19.75638126009693 19.687263148337358  19.75638126009693 17.967872789226025  C 19.756379335247484 16.24806482010841  19.707012416858085 14.753117140597112  19.464620355411956 13.49148142138569  C 19.22396131771254 12.23896645207539  18.80851476912737 11.304145502266552  18.14151857835218 10.6341067661853  C 17.40141863846047 9.890765886927278  16.39660853569265 9.458056141489534  14.968012924071083 9.458056141489534  C 13.552286165943054 9.458106032680735  12.606593098432452 9.882718397119149  11.85848142164782 10.6341067661853  C 11.191499725489702 11.304143838481666  10.776035872106599 12.238981544981137  10.535379644588046 13.49148142138569  C 10.292988973441917 14.753115239128672  10.243620664747779 16.248068979570622  10.24361873990307 17.967872789226025  C 10.24361873990307 19.68725910771692  10.292546754507333 21.199488401993246  10.535379644588046 22.478338471523607  C 10.777048350690063 23.750818502935868  11.194282987776404 24.69871442511003  11.85848142164782 25.365893233814703  C 12.606592506815428 26.117281781143518  13.552285456002625 26.541893969237822  14.968012924071083 26.541943858510464  C 14.968012924071083 26.541943858510464  14.968012924071083 27.538860944345288  14.968012924071083 27.538860944345288  C 14.968012924071083 27.538860944345288  14.663651050080775 27.532046081453835  14.663651050080775 27.532046081453835  C 13.166709473445074 27.47244462745638  12.049994537402817 26.967948432017433  11.15670436187399 26.07074476715885  C 9.441668257459108 24.3480533399927  9.251050080775444 21.413129195907025  9.251050080775444 17.967872789226025  C 9.25105368110031 14.630204556805737  9.430105931000101 11.831595615657452  11.000646203554119 10.09378549407756  C 11.000646203554119 10.09378549407756  11.15670436187399 9.929255232841149  11.15670436187399 9.929255232841149  C 12.109522273197697 8.972263992906255  13.31650536557199 8.461190538091907  14.968012924071083 8.461139055654714  C 16.61964673364297 8.461139055654714  17.890428740912764 8.972215743144572  18.84329563812601 9.929255232841149  C 20.558222530038368 11.651937746873985  20.74894620307506 14.522726667714588  20.748949919224557 17.967872789226025  C 20.748949919224557 21.41314535838877  20.558355052251617 24.34805666756247  18.84329563812601 26.07074476715885  C 18.84329563812601 26.07074476715885  18.661066235864297 26.245010546811617  18.661066235864297 26.245010546811617  C 17.730277657701432 27.08976321488875  16.51651333268124 27.538860944345288  14.968012924071083 27.538860944345288  C 14.968012924071083 27.538860944345288  14.968012924071083 26.541943858510464  14.968012924071083 26.541943858510464  C 16.39660924563308 26.541943858510464  17.401419170915794 26.109234291335387  18.14151857835218 25.365893233814703  C 18.80573144767897 24.698713177271365  19.22294882433865 23.750833952366946  19.464620355411956 22.478338471523607  Z " stroke-width="0" stroke-dasharray="0" stroke="rgba(121, 121, 121, 1)" fill="none" transform="matrix(1 0 0 1 564 323 )" class="stroke" mask="url(#Clip4909)" />
    <path d="M 26.273990306946686 4.711990913516145  C 29.283590358062398 8.062765492531032  29.999991809947176 12.093780423495051  30 17.967872789226025  C 30 24.089482629451968  29.237613196057147 28.1882872871623  25.981260096930534 31.602466331332142  C 23.765198089155895 33.967347112430026  20.13926917154685 36  14.968012924071083 36  C 9.792001495607835 35.99993447428949  6.230349164478998 33.96460186736878  4.017770597738287 31.603439883173778  C 0.7618278441791195 28.188389253407433  0 24.08917744376724  0 17.967872789226025  C 0 11.904273423555898  0.7634069883380452 7.804560576981584  4.024555735056543 4.389745253934771  C 6.2376028624798066 2.031511293454892  9.79702882042609 6.546201729917611E-05  14.968012924071083 0  C 20.134233800737075 0  23.75879631966882 2.0278179286923983  25.975444264943455 4.389745253934771  C 25.975444264943455 4.389745253934771  26.273990306946686 4.711990913516145  26.273990306946686 4.711990913516145  Z " stroke-width="0" stroke-dasharray="0" stroke="rgba(121, 121, 121, 1)" fill="none" transform="matrix(1 0 0 1 564 323 )" class="stroke" mask="url(#Clip4909)" />
  </g>
  <style>svg { filter: drop-shadow(0px 4px 2px rgba(0, 0, 0, 0.12941176470588237)); }</style>
</svg>