<?xml version="1.0" encoding="utf-8"?>
<svg version="1.1" xmlns:xlink="http://www.w3.org/1999/xlink" width="43px" height="56px" xmlns="http://www.w3.org/2000/svg">
  <defs>
    <pattern id="BGPattern" patternUnits="userSpaceOnUse" alignment="0 0" imageRepeat="None" />
    <mask fill="white" id="Clip4911">
      <path d="M 10 20  L 10 1.0090741120919728  L 1 1.0090741120919728  L 1 46.99092588790803  L 10 46.99092588790803  L 10 27  L 25 27  L 25 46.99092588790803  L 34 46.99092588790803  L 34 1.0090741120919728  L 25 1.0090741120919728  L 25 20  L 10 20  Z M 35 0  L 35 48  L 24 48  L 24 28  L 11 28  L 11 48  L 0 48  L 0 0  L 11 0  L 11 19  L 24 19  L 24 0  L 35 0  Z " fill-rule="evenodd" />
    </mask>
  </defs>
  <g transform="matrix(1 0 0 1 -324 -311 )">
    <path d="M 10 20  L 10 1.0090741120919728  L 1 1.0090741120919728  L 1 46.99092588790803  L 10 46.99092588790803  L 10 27  L 25 27  L 25 46.99092588790803  L 34 46.99092588790803  L 34 1.0090741120919728  L 25 1.0090741120919728  L 25 20  L 10 20  Z M 35 0  L 35 48  L 24 48  L 24 28  L 11 28  L 11 48  L 0 48  L 0 0  L 11 0  L 11 19  L 24 19  L 24 0  L 35 0  Z " fill-rule="nonzero" fill="rgba(127, 140, 159, 0.058823529411764705)" stroke="none" transform="matrix(1 0 0 1 328 311 )" class="fill" />
    <path d="M 10 20  L 10 1.0090741120919728  L 1 1.0090741120919728  L 1 46.99092588790803  L 10 46.99092588790803  L 10 27  L 25 27  L 25 46.99092588790803  L 34 46.99092588790803  L 34 1.0090741120919728  L 25 1.0090741120919728  L 25 20  L 10 20  Z " stroke-width="0" stroke-dasharray="0" stroke="rgba(121, 121, 121, 1)" fill="none" transform="matrix(1 0 0 1 328 311 )" class="stroke" mask="url(#Clip4911)" />
    <path d="M 35 0  L 35 48  L 24 48  L 24 28  L 11 28  L 11 48  L 0 48  L 0 0  L 11 0  L 11 19  L 24 19  L 24 0  L 35 0  Z " stroke-width="0" stroke-dasharray="0" stroke="rgba(121, 121, 121, 1)" fill="none" transform="matrix(1 0 0 1 328 311 )" class="stroke" mask="url(#Clip4911)" />
  </g>
  <style>svg { filter: drop-shadow(0px 4px 2px rgba(0, 0, 0, 0.12941176470588237)); }</style>
</svg>