<?xml version="1.0" encoding="utf-8"?>
<svg version="1.1" xmlns:xlink="http://www.w3.org/1999/xlink" width="10px" height="17px" xmlns="http://www.w3.org/2000/svg">
  <defs>
    <pattern id="BGPattern" patternUnits="userSpaceOnUse" alignment="0 0" imageRepeat="None" />
    <mask fill="white" id="Clip4993">
      <path d="M 8.164698983346996 0  L 10 0  C 10 0  4.729441050282138 14.775248965948538  4.729441050282138 14.775248965948538  C 4.494147088005709 15.428165218293723  4.235297982663344 15.863440677924906  3.9058862952302875 16.177807562197962  C 3.294122484172765 16.782359567626987  2.470578189139196 17  1.647049671786832 17  C 1.647049671786832 17  0.9176804274849357 17  0.9176804274849357 17  L 0.9176804274849357 15.452346020501508  C 0.9176804274849357 15.452346020501508  1.4353417067084737 15.452346020501508  1.4353417067084737 15.452346020501508  C 2.6118109337320563 15.452346020501508  2.9647218995524094 15.06543228539956  3.3411920989486408 13.977238771718245  C 3.3411920989486408 13.977238771718245  4.164746854000491 11.655760685198425  4.164746854000491 11.655760685198425  L 0 0  L 1.8353010166530037 0  L 5.011758229264527 9.551920869005677  L 8.164698983346996 0  Z " fill-rule="evenodd" />
    </mask>
  </defs>
  <g transform="matrix(1 0 0 1 -928 -496 )">
    <path d="M 8.164698983346996 0  L 10 0  C 10 0  4.729441050282138 14.775248965948538  4.729441050282138 14.775248965948538  C 4.494147088005709 15.428165218293723  4.235297982663344 15.863440677924906  3.9058862952302875 16.177807562197962  C 3.294122484172765 16.782359567626987  2.470578189139196 17  1.647049671786832 17  C 1.647049671786832 17  0.9176804274849357 17  0.9176804274849357 17  L 0.9176804274849357 15.452346020501508  C 0.9176804274849357 15.452346020501508  1.4353417067084737 15.452346020501508  1.4353417067084737 15.452346020501508  C 2.6118109337320563 15.452346020501508  2.9647218995524094 15.06543228539956  3.3411920989486408 13.977238771718245  C 3.3411920989486408 13.977238771718245  4.164746854000491 11.655760685198425  4.164746854000491 11.655760685198425  L 0 0  L 1.8353010166530037 0  L 5.011758229264527 9.551920869005677  L 8.164698983346996 0  Z " fill-rule="nonzero" fill="rgba(0, 0, 0, 1)" stroke="none" transform="matrix(1 0 0 1 928 496 )" class="fill" />
    <path d="M 8.164698983346996 0  L 10 0  C 10 0  4.729441050282138 14.775248965948538  4.729441050282138 14.775248965948538  C 4.494147088005709 15.428165218293723  4.235297982663344 15.863440677924906  3.9058862952302875 16.177807562197962  C 3.294122484172765 16.782359567626987  2.470578189139196 17  1.647049671786832 17  C 1.647049671786832 17  0.9176804274849357 17  0.9176804274849357 17  L 0.9176804274849357 15.452346020501508  C 0.9176804274849357 15.452346020501508  1.4353417067084737 15.452346020501508  1.4353417067084737 15.452346020501508  C 2.6118109337320563 15.452346020501508  2.9647218995524094 15.06543228539956  3.3411920989486408 13.977238771718245  C 3.3411920989486408 13.977238771718245  4.164746854000491 11.655760685198425  4.164746854000491 11.655760685198425  L 0 0  L 1.8353010166530037 0  L 5.011758229264527 9.551920869005677  L 8.164698983346996 0  Z " stroke-width="0" stroke-dasharray="0" stroke="rgba(121, 121, 121, 1)" fill="none" transform="matrix(1 0 0 1 928 496 )" class="stroke" mask="url(#Clip4993)" />
  </g>
</svg>