<?xml version="1.0" encoding="utf-8"?>
<svg version="1.1" xmlns:xlink="http://www.w3.org/1999/xlink" width="23px" height="22px" xmlns="http://www.w3.org/2000/svg">
  <defs>
    <pattern id="BGPattern" patternUnits="userSpaceOnUse" alignment="0 0" imageRepeat="None" />
    <mask fill="white" id="Clip4947">
      <path d="M 12.715624101101394 7.078264174674421  L 12.715624101101394 5.667394361573839  L 19.40169577641989 5.667394361573839  L 19.40169577641989 7.078264174674421  L 12.715624101101394 7.078264174674421  Z M 14.125798759620736 9.828258473361045  L 11.88900836866201 9.828258473361045  L 11.88900836866201 12.86521887860349  L 14.125798759620736 12.86521887860349  L 14.125798759620736 9.828258473361045  Z M 10.600393028713677 14.108698131005816  L 10.600393028713677 8.584779220958719  L 15.48731259224212 8.584779220958719  L 15.48731259224212 14.108698131005816  L 10.600393028713677 14.108698131005816  Z M 20.398531653328245 9.828258473361045  L 18.015820615458235 9.828258473361045  L 18.015820615458235 12.86521887860349  L 20.398531653328245 12.86521887860349  L 20.398531653328245 9.828258473361045  Z M 16.70296760873481 14.108698131005816  L 16.70296760873481 8.584779220958719  L 21.760045485949625 8.584779220958719  L 21.760045485949625 14.108698131005816  L 16.70296760873481 14.108698131005816  Z M 11.354110268480012 18.38912258514825  C 11.88899339401935 17.33694876506097  12.245612576717214 16.12535980902328  12.423906468844008 14.754345264627325  C 12.423906468844008 14.754345264627325  13.979878112709452 14.873905606982555  13.979878112709452 14.873905606982555  C 13.75295817449991 16.468108397084382  13.339640647220437 17.863032824447924  12.739923598659079 19.058684827941274  C 12.140206550097718 20.23839489024108  11.32172446388679 21.218840605531312  10.284375898898606 22  C 10.219541492823597 21.904347877729286  10.11417411044322 21.784782071615407  9.968296938300943 21.641303769431975  C 9.838628609203916 21.513767527219454  9.692744191266804 21.378255563315676  9.530658659132273 21.234777320520926  C 9.384781486989997 21.107241078308405  9.246988689671301 21.011594538573704  9.117319877521284 20.94782641746744  C 10.08983403643446 20.27826126462905  10.835435985985919 19.42535446404199  11.354110268480012 18.38912258514825  Z M 13.688160480452064 19.393481152840117  C 13.153277837965712 18.81956812227244  12.634592928305862 18.301439533036522  12.132127005804028 17.839120684710462  C 12.132127005804028 17.839120684710462  13.153262380270066 16.930437757206978  13.153262380270066 16.930437757206978  C 13.655727336665922 17.376814604950816  14.17441321243175 17.871008724305216  14.7092958549181 18.413037694319762  C 15.260387823502688 18.939124604363407  15.68179552224161 19.39346862182843  15.97354986652616 19.77607728907732  C 15.97354986652616 19.77607728907732  14.928114994502437 20.85216598078139  14.928114994502437 20.85216598078139  C 14.636360650217886 20.43767325297937  14.223043122938414 19.951452123436887  13.688160480452064 19.393481152840117  Z M 17.3837245250455 18.317392461136045  C 17.934816493630084 17.281160582242308  18.307617468405812 16.085502639880858  18.50211972052486 14.730430155455812  C 18.50211972052486 14.730430155455812  20.082452692730584 14.849990497811042  20.082452692730584 14.849990497811042  C 19.85553275452104 16.428251227941963  19.425971121328125 17.81521769082987  18.79383735278225 19.01086981310058  C 18.177911944228637 20.19057987540039  17.359368027235114 21.163037278599  16.33822782223919 21.928254672485462  C 16.27339341616418 21.848544491408294  16.16808786456639 21.73695185327238  16.022210692424114 21.59347355108895  C 15.876333520281841 21.44999536768288  15.722358447832296 21.30651029518982  15.56027291569776 21.16303199300639  C 15.414395743555485 21.035495810182546  15.276602946236789 20.93187616185856  15.146934134086772 20.85216598078139  C 16.10323993300769 20.198542828525227  16.84884188255915 19.353624340029786  17.3837245250455 18.317392461136045  Z M 19.425995273977573 19.273905606982552  C 18.988363757550747 18.79564472837993  18.55880309046381 18.35724689839914  18.137379934029244 17.958696230568023  C 18.137379934029244 17.958696230568023  19.28013645784888 17.169558441917438  19.28013645784888 17.169558441917438  C 19.701559614283447 17.55216704977765  20.131058450587794 17.982607063754504  20.56868996701462 18.46086791266279  C 21.022529843433706 18.923186760988848  21.443938508278602 19.37753071906519  21.83294397862268 19.823907507420348  C 22.238157808959013 20.254342295193275  22.56235109366557 20.644916825612373  22.805480357973348 20.995641432308133  C 22.805480357973348 20.995641432308133  21.58982534148066 21.928254672485462  21.58982534148066 21.928254672485462  C 21.362905403271117 21.561588005818795  21.054955258372022 21.147094268409194  20.665949788027948 20.684775420083138  C 20.276943351577895 20.222456601451416  19.863625824298424 19.752166455890837  19.425995273977573 19.273905606982552  Z M 17.602543664629835 3.8260829903906957  C 16.937992209993467 3.0768078346411802  16.37879074782987 2.3355088163036832  15.924950871410791 1.6021754829703496  C 15.519737041074457 2.3195669938875008  15.009142302874057 3.0528927254696674  14.393216894320439 3.802167881219183  C 13.777290519660845 4.551443036968698  13.088449228526573 5.260865062006102  12.326646647830682 5.930430155455811  C 11.581052427127046 6.584053426489339  10.78684278750642 7.165936121102807  9.94399744074326 7.676081089952905  C 9.862954674675994 7.452892725469667  9.733252531869736 7.205788301596022  9.554958156689956 6.9347735196453435  C 9.376663781510176 6.6478178654973785  9.206506916982764 6.408685778160169  9.044421384848231 6.217381058509297  C 9.88726673161139 5.755062507126642  10.689567508797445 5.1891254358049395  11.451370089493336 4.51956034235523  C 12.213173636295206 3.8340524762704424  12.90201492742948 3.1007267446882767  13.517940335983095 2.3195679441063968  C 14.133865744536713 1.5384081933056215  14.636369345171689 0.7652169781656974  15.025374815515763 0  C 15.025374815515763 0  16.70296760873481 0  16.70296760873481 0  C 17.205433531236643 0.8130433956331394  17.796998577555964 1.6101392675367217  18.477758392184587 2.391298068118601  C 19.17472656680547 3.156515996503195  19.904146241226076 3.8499914480299373  20.665949788027948 4.471730124012204  C 21.443960728716096 5.093469750213368  22.221989059311852 5.611583254724316  23 6.026075388639528  C 22.837914467865467 6.217380108290401  22.659604151937053 6.464484532164046  22.465101899818002 6.767382958947088  C 22.286807041585234 7.070281385730131  22.140923106701113 7.341305669869769  22.027463620649332 7.580435856769186  C 21.26566103995344 7.118117305386531  20.503877781377106 6.5601383173178265  19.742074234575234 5.906515046284299  C 18.980271653879342 5.252891775250771  18.267095119266205 4.559416323724029  17.602543664629835 3.8260829903906957  Z M 2.261089888516411 5.978260373798838  L 2.261089888516411 4.567390560698255  L 9.020060056507958 4.567390560698255  L 9.020060056507958 5.978260373798838  L 2.261089888516411 5.978260373798838  Z M 2.261089888516411 9.565207475976738  L 2.261089888516411 8.154337662876157  L 9.044421384848231 8.154337662876157  L 9.044421384848231 9.565207475976738  L 2.261089888516411 9.565207475976738  Z M 1.3372143350636991 13.223915109171513  L 1.3372143350636991 11.789130186899419  L 8.752641921808255 11.789130186899419  L 8.752641921808255 13.223915109171513  L 1.3372143350636991 13.223915109171513  Z M 5 12.530437757206977  L 5 1.7217358253255794  L 6.46725253573416 1.7217358253255794  L 6.46725253573416 12.530437757206977  L 5 12.530437757206977  Z M 6.540151028407212 16.165215077727904  C 6.280813887160166 15.575360046578004  6.013380294764814 15.033327394465235  5.7378347935255105 14.539124485586044  C 5.7378347935255105 14.539124485586044  6.540151028407212 14.252173582532558  6.540151028407212 14.252173582532558  C 6.864322575729267 14.730434431440843  7.156090445497509 15.264494034353005  7.415427586744555 15.854349065502907  C 7.690973087983859 16.428262036681904  7.893617198232177 16.922456156036308  8.023286010382193 17.336949002615693  C 8.023286010382193 17.336949002615693  7.123709954487167 17.69564523318372  7.123709954487167 17.69564523318372  C 7.010249985382397 17.249268504217245  6.815697012699506 16.73912828646163  6.540151028407212 16.165215077727904  Z M 4.8625582351881675 16.882607538863954  C 4.684263860008387 16.149274443085343  4.473590684503727 15.479702698103363  4.230462144775434 14.873905606982555  C 4.230462144775434 14.873905606982555  5.130038200670461 14.682599937112787  5.130038200670461 14.682599937112787  C 5.373166981925249 15.288397028233595  5.583840398956403 15.957968773215576  5.7621342910831945 16.691301868994184  C 5.956637509308221 17.408693261133976  6.078248514549052 18.022453127213577  6.1268740775788135 18.532598036674994  C 6.1268740775788135 18.532598036674994  5.202936693343513 18.747818815716276  5.202936693343513 18.747818815716276  C 5.154310888787256 18.23767396564354  5.040852368841452 17.615940990974646  4.8625582351881675 16.882607538863954  Z M 3.014807128282744 17.38477922095872  C 2.9661813237264876 16.571735706548218  2.877057564206563 15.822463757787476  2.7473889935830402 15.136956604366858  C 2.7473889935830402 15.136956604366858  3.6955640445934357 15.017381058509297  3.6955640445934357 15.017381058509297  C 3.8090240136982065 15.718830271900819  3.8981480147446255 16.47607538863953  3.9629821792931397 17.289118784272667  C 4.044025186886901 18.08622023871226  4.076450601825218 18.771737903929417  4.060242000306466 19.345650934497094  C 4.060242000306466 19.345650934497094  3.0391066258404282 19.489126386023834  3.0391066258404282 19.489126386023834  C 3.0715235873514386 18.89927135487393  3.063432691312506 18.19782267598054  3.014807128282744 17.38477922095872  Z M 0.8509770607796593 17.671730124012207  C 1.0130627136774395 16.683324306253823  1.1184302168210645 15.68694757728735  1.167056021377321 14.682599937112787  C 1.167056021377321 14.682599937112787  2.2854512168566843 14.897820716154067  2.2854512168566843 14.897820716154067  C 2.253034134582427 15.599270167100313  2.1881830631792987 16.308691717028267  2.0909315748300323 17.026082990390695  C 2.009888808762766 17.727532203782218  1.88833939277803 18.38913078078623  1.7262536191170026 19.01086981310058  C 1.5803765677379746 19.632608964192297  1.3534595278463666 20.16666850771578  1.0454967028063111 20.61304529607093  C 1.0454967028063111 20.61304529607093  0 20.039128286461626  0 20.039128286461626  C 0.4214228243356383 19.4333312547295  0.7050999490190075 18.64419388179968  0.8509770607796593 17.671730124012207  Z M 1.3372143350636991 12.60216788121918  L 1.3372143350636991 0.8847830218343026  L 9.482059664016905 0.8847830218343026  L 9.482059664016905 2.3673829589470885  L 3 2.3673829589470885  L 3 12.60216788121918  L 1.3372143350636991 12.60216788121918  Z M 8.16914482651089 12.076081089952904  C 8.16914482651089 12.076081089952904  8.16914482651089 11.789130186899419  8.16914482651089 11.789130186899419  C 8.16914482651089 11.789130186899419  9.676517475260967 11.789130186899419  9.676517475260967 11.789130186899419  C 9.676517475260967 11.789130186899419  9.676517475260967 11.876803558656148  9.676517475260967 12.052165980781393  C 9.676517475260967 12.227527927797185  9.66842633769554 12.371013356622335  9.652217977703282 12.482607538863952  C 9.571175211636016 14.475361234351624  9.490142589681518 16.07752460203105  9.409099340561262 17.289118784272667  C 9.328056574493996 18.484770906543382  9.22268870906063 19.39347408558708  9.093020379963601 20.015213177290114  C 8.979560410858829 20.621010268410924  8.82558582146227 21.04347711440981  8.631082603237244 21.282607538863953  C 8.452788711110454 21.48985384337628  8.2663877406696 21.64129676156762  8.071885005497563 21.73694900261569  C 7.877381787272537 21.832601124886406  7.642374092868491 21.888397503343043  7.366828591629187 21.904339563313947  C 7.139908653419645 21.936223564478396  6.83195899157354 21.944196613679004  6.442953038176476 21.928254672485462  C 6.070156410877647 21.928254672485462  5.673020675676039 21.928254672485462  5.251597519241471 21.928254672485462  C 5.235389159249213 21.705066189224862  5.19487260674547 21.457961527796495  5.130038200670461 21.1869471021779  C 5.065204036121947 20.931874617752854  4.984171172640954 20.70071608442004  4.886919563528441 20.493469750213368  C 5.27592527539901 20.541295841043066  5.6324823857877915 20.565215077727906  5.9566539331098465 20.565215077727906  C 6.297033840424159 20.58115707831013  6.54019450317622 20.58913018689942  6.686071675318496 20.58913018689942  C 6.848157207453029 20.58913018689942  6.977797519476697 20.573183999415185  7.07504912858921 20.541299968556395  C 7.172300254648734 20.509415908003263  7.261485844951248 20.43767340145107  7.342529094071503 20.326079189515113  C 7.472197423168532 20.166658916443797  7.585655943114336 19.807961468407814  7.682907552226849 19.24999049781104  C 7.780158678286373 18.676077467243363  7.869282920859286 17.815212702180666  7.950325686926553 16.667386759822673  C 8.031368936046809 15.50361851993905  8.10431090348887 13.973182425615137  8.16914482651089 12.076081089952904  Z " fill-rule="evenodd" />
    </mask>
  </defs>
  <g transform="matrix(1 0 0 1 -779 -612 )">
    <path d="M 12.715624101101394 7.078264174674421  L 12.715624101101394 5.667394361573839  L 19.40169577641989 5.667394361573839  L 19.40169577641989 7.078264174674421  L 12.715624101101394 7.078264174674421  Z M 14.125798759620736 9.828258473361045  L 11.88900836866201 9.828258473361045  L 11.88900836866201 12.86521887860349  L 14.125798759620736 12.86521887860349  L 14.125798759620736 9.828258473361045  Z M 10.600393028713677 14.108698131005816  L 10.600393028713677 8.584779220958719  L 15.48731259224212 8.584779220958719  L 15.48731259224212 14.108698131005816  L 10.600393028713677 14.108698131005816  Z M 20.398531653328245 9.828258473361045  L 18.015820615458235 9.828258473361045  L 18.015820615458235 12.86521887860349  L 20.398531653328245 12.86521887860349  L 20.398531653328245 9.828258473361045  Z M 16.70296760873481 14.108698131005816  L 16.70296760873481 8.584779220958719  L 21.760045485949625 8.584779220958719  L 21.760045485949625 14.108698131005816  L 16.70296760873481 14.108698131005816  Z M 11.354110268480012 18.38912258514825  C 11.88899339401935 17.33694876506097  12.245612576717214 16.12535980902328  12.423906468844008 14.754345264627325  C 12.423906468844008 14.754345264627325  13.979878112709452 14.873905606982555  13.979878112709452 14.873905606982555  C 13.75295817449991 16.468108397084382  13.339640647220437 17.863032824447924  12.739923598659079 19.058684827941274  C 12.140206550097718 20.23839489024108  11.32172446388679 21.218840605531312  10.284375898898606 22  C 10.219541492823597 21.904347877729286  10.11417411044322 21.784782071615407  9.968296938300943 21.641303769431975  C 9.838628609203916 21.513767527219454  9.692744191266804 21.378255563315676  9.530658659132273 21.234777320520926  C 9.384781486989997 21.107241078308405  9.246988689671301 21.011594538573704  9.117319877521284 20.94782641746744  C 10.08983403643446 20.27826126462905  10.835435985985919 19.42535446404199  11.354110268480012 18.38912258514825  Z M 13.688160480452064 19.393481152840117  C 13.153277837965712 18.81956812227244  12.634592928305862 18.301439533036522  12.132127005804028 17.839120684710462  C 12.132127005804028 17.839120684710462  13.153262380270066 16.930437757206978  13.153262380270066 16.930437757206978  C 13.655727336665922 17.376814604950816  14.17441321243175 17.871008724305216  14.7092958549181 18.413037694319762  C 15.260387823502688 18.939124604363407  15.68179552224161 19.39346862182843  15.97354986652616 19.77607728907732  C 15.97354986652616 19.77607728907732  14.928114994502437 20.85216598078139  14.928114994502437 20.85216598078139  C 14.636360650217886 20.43767325297937  14.223043122938414 19.951452123436887  13.688160480452064 19.393481152840117  Z M 17.3837245250455 18.317392461136045  C 17.934816493630084 17.281160582242308  18.307617468405812 16.085502639880858  18.50211972052486 14.730430155455812  C 18.50211972052486 14.730430155455812  20.082452692730584 14.849990497811042  20.082452692730584 14.849990497811042  C 19.85553275452104 16.428251227941963  19.425971121328125 17.81521769082987  18.79383735278225 19.01086981310058  C 18.177911944228637 20.19057987540039  17.359368027235114 21.163037278599  16.33822782223919 21.928254672485462  C 16.27339341616418 21.848544491408294  16.16808786456639 21.73695185327238  16.022210692424114 21.59347355108895  C 15.876333520281841 21.44999536768288  15.722358447832296 21.30651029518982  15.56027291569776 21.16303199300639  C 15.414395743555485 21.035495810182546  15.276602946236789 20.93187616185856  15.146934134086772 20.85216598078139  C 16.10323993300769 20.198542828525227  16.84884188255915 19.353624340029786  17.3837245250455 18.317392461136045  Z M 19.425995273977573 19.273905606982552  C 18.988363757550747 18.79564472837993  18.55880309046381 18.35724689839914  18.137379934029244 17.958696230568023  C 18.137379934029244 17.958696230568023  19.28013645784888 17.169558441917438  19.28013645784888 17.169558441917438  C 19.701559614283447 17.55216704977765  20.131058450587794 17.982607063754504  20.56868996701462 18.46086791266279  C 21.022529843433706 18.923186760988848  21.443938508278602 19.37753071906519  21.83294397862268 19.823907507420348  C 22.238157808959013 20.254342295193275  22.56235109366557 20.644916825612373  22.805480357973348 20.995641432308133  C 22.805480357973348 20.995641432308133  21.58982534148066 21.928254672485462  21.58982534148066 21.928254672485462  C 21.362905403271117 21.561588005818795  21.054955258372022 21.147094268409194  20.665949788027948 20.684775420083138  C 20.276943351577895 20.222456601451416  19.863625824298424 19.752166455890837  19.425995273977573 19.273905606982552  Z M 17.602543664629835 3.8260829903906957  C 16.937992209993467 3.0768078346411802  16.37879074782987 2.3355088163036832  15.924950871410791 1.6021754829703496  C 15.519737041074457 2.3195669938875008  15.009142302874057 3.0528927254696674  14.393216894320439 3.802167881219183  C 13.777290519660845 4.551443036968698  13.088449228526573 5.260865062006102  12.326646647830682 5.930430155455811  C 11.581052427127046 6.584053426489339  10.78684278750642 7.165936121102807  9.94399744074326 7.676081089952905  C 9.862954674675994 7.452892725469667  9.733252531869736 7.205788301596022  9.554958156689956 6.9347735196453435  C 9.376663781510176 6.6478178654973785  9.206506916982764 6.408685778160169  9.044421384848231 6.217381058509297  C 9.88726673161139 5.755062507126642  10.689567508797445 5.1891254358049395  11.451370089493336 4.51956034235523  C 12.213173636295206 3.8340524762704424  12.90201492742948 3.1007267446882767  13.517940335983095 2.3195679441063968  C 14.133865744536713 1.5384081933056215  14.636369345171689 0.7652169781656974  15.025374815515763 0  C 15.025374815515763 0  16.70296760873481 0  16.70296760873481 0  C 17.205433531236643 0.8130433956331394  17.796998577555964 1.6101392675367217  18.477758392184587 2.391298068118601  C 19.17472656680547 3.156515996503195  19.904146241226076 3.8499914480299373  20.665949788027948 4.471730124012204  C 21.443960728716096 5.093469750213368  22.221989059311852 5.611583254724316  23 6.026075388639528  C 22.837914467865467 6.217380108290401  22.659604151937053 6.464484532164046  22.465101899818002 6.767382958947088  C 22.286807041585234 7.070281385730131  22.140923106701113 7.341305669869769  22.027463620649332 7.580435856769186  C 21.26566103995344 7.118117305386531  20.503877781377106 6.5601383173178265  19.742074234575234 5.906515046284299  C 18.980271653879342 5.252891775250771  18.267095119266205 4.559416323724029  17.602543664629835 3.8260829903906957  Z M 2.261089888516411 5.978260373798838  L 2.261089888516411 4.567390560698255  L 9.020060056507958 4.567390560698255  L 9.020060056507958 5.978260373798838  L 2.261089888516411 5.978260373798838  Z M 2.261089888516411 9.565207475976738  L 2.261089888516411 8.154337662876157  L 9.044421384848231 8.154337662876157  L 9.044421384848231 9.565207475976738  L 2.261089888516411 9.565207475976738  Z M 1.3372143350636991 13.223915109171513  L 1.3372143350636991 11.789130186899419  L 8.752641921808255 11.789130186899419  L 8.752641921808255 13.223915109171513  L 1.3372143350636991 13.223915109171513  Z M 5 12.530437757206977  L 5 1.7217358253255794  L 6.46725253573416 1.7217358253255794  L 6.46725253573416 12.530437757206977  L 5 12.530437757206977  Z M 6.540151028407212 16.165215077727904  C 6.280813887160166 15.575360046578004  6.013380294764814 15.033327394465235  5.7378347935255105 14.539124485586044  C 5.7378347935255105 14.539124485586044  6.540151028407212 14.252173582532558  6.540151028407212 14.252173582532558  C 6.864322575729267 14.730434431440843  7.156090445497509 15.264494034353005  7.415427586744555 15.854349065502907  C 7.690973087983859 16.428262036681904  7.893617198232177 16.922456156036308  8.023286010382193 17.336949002615693  C 8.023286010382193 17.336949002615693  7.123709954487167 17.69564523318372  7.123709954487167 17.69564523318372  C 7.010249985382397 17.249268504217245  6.815697012699506 16.73912828646163  6.540151028407212 16.165215077727904  Z M 4.8625582351881675 16.882607538863954  C 4.684263860008387 16.149274443085343  4.473590684503727 15.479702698103363  4.230462144775434 14.873905606982555  C 4.230462144775434 14.873905606982555  5.130038200670461 14.682599937112787  5.130038200670461 14.682599937112787  C 5.373166981925249 15.288397028233595  5.583840398956403 15.957968773215576  5.7621342910831945 16.691301868994184  C 5.956637509308221 17.408693261133976  6.078248514549052 18.022453127213577  6.1268740775788135 18.532598036674994  C 6.1268740775788135 18.532598036674994  5.202936693343513 18.747818815716276  5.202936693343513 18.747818815716276  C 5.154310888787256 18.23767396564354  5.040852368841452 17.615940990974646  4.8625582351881675 16.882607538863954  Z M 3.014807128282744 17.38477922095872  C 2.9661813237264876 16.571735706548218  2.877057564206563 15.822463757787476  2.7473889935830402 15.136956604366858  C 2.7473889935830402 15.136956604366858  3.6955640445934357 15.017381058509297  3.6955640445934357 15.017381058509297  C 3.8090240136982065 15.718830271900819  3.8981480147446255 16.47607538863953  3.9629821792931397 17.289118784272667  C 4.044025186886901 18.08622023871226  4.076450601825218 18.771737903929417  4.060242000306466 19.345650934497094  C 4.060242000306466 19.345650934497094  3.0391066258404282 19.489126386023834  3.0391066258404282 19.489126386023834  C 3.0715235873514386 18.89927135487393  3.063432691312506 18.19782267598054  3.014807128282744 17.38477922095872  Z M 0.8509770607796593 17.671730124012207  C 1.0130627136774395 16.683324306253823  1.1184302168210645 15.68694757728735  1.167056021377321 14.682599937112787  C 1.167056021377321 14.682599937112787  2.2854512168566843 14.897820716154067  2.2854512168566843 14.897820716154067  C 2.253034134582427 15.599270167100313  2.1881830631792987 16.308691717028267  2.0909315748300323 17.026082990390695  C 2.009888808762766 17.727532203782218  1.88833939277803 18.38913078078623  1.7262536191170026 19.01086981310058  C 1.5803765677379746 19.632608964192297  1.3534595278463666 20.16666850771578  1.0454967028063111 20.61304529607093  C 1.0454967028063111 20.61304529607093  0 20.039128286461626  0 20.039128286461626  C 0.4214228243356383 19.4333312547295  0.7050999490190075 18.64419388179968  0.8509770607796593 17.671730124012207  Z M 1.3372143350636991 12.60216788121918  L 1.3372143350636991 0.8847830218343026  L 9.482059664016905 0.8847830218343026  L 9.482059664016905 2.3673829589470885  L 3 2.3673829589470885  L 3 12.60216788121918  L 1.3372143350636991 12.60216788121918  Z M 8.16914482651089 12.076081089952904  C 8.16914482651089 12.076081089952904  8.16914482651089 11.789130186899419  8.16914482651089 11.789130186899419  C 8.16914482651089 11.789130186899419  9.676517475260967 11.789130186899419  9.676517475260967 11.789130186899419  C 9.676517475260967 11.789130186899419  9.676517475260967 11.876803558656148  9.676517475260967 12.052165980781393  C 9.676517475260967 12.227527927797185  9.66842633769554 12.371013356622335  9.652217977703282 12.482607538863952  C 9.571175211636016 14.475361234351624  9.490142589681518 16.07752460203105  9.409099340561262 17.289118784272667  C 9.328056574493996 18.484770906543382  9.22268870906063 19.39347408558708  9.093020379963601 20.015213177290114  C 8.979560410858829 20.621010268410924  8.82558582146227 21.04347711440981  8.631082603237244 21.282607538863953  C 8.452788711110454 21.48985384337628  8.2663877406696 21.64129676156762  8.071885005497563 21.73694900261569  C 7.877381787272537 21.832601124886406  7.642374092868491 21.888397503343043  7.366828591629187 21.904339563313947  C 7.139908653419645 21.936223564478396  6.83195899157354 21.944196613679004  6.442953038176476 21.928254672485462  C 6.070156410877647 21.928254672485462  5.673020675676039 21.928254672485462  5.251597519241471 21.928254672485462  C 5.235389159249213 21.705066189224862  5.19487260674547 21.457961527796495  5.130038200670461 21.1869471021779  C 5.065204036121947 20.931874617752854  4.984171172640954 20.70071608442004  4.886919563528441 20.493469750213368  C 5.27592527539901 20.541295841043066  5.6324823857877915 20.565215077727906  5.9566539331098465 20.565215077727906  C 6.297033840424159 20.58115707831013  6.54019450317622 20.58913018689942  6.686071675318496 20.58913018689942  C 6.848157207453029 20.58913018689942  6.977797519476697 20.573183999415185  7.07504912858921 20.541299968556395  C 7.172300254648734 20.509415908003263  7.261485844951248 20.43767340145107  7.342529094071503 20.326079189515113  C 7.472197423168532 20.166658916443797  7.585655943114336 19.807961468407814  7.682907552226849 19.24999049781104  C 7.780158678286373 18.676077467243363  7.869282920859286 17.815212702180666  7.950325686926553 16.667386759822673  C 8.031368936046809 15.50361851993905  8.10431090348887 13.973182425615137  8.16914482651089 12.076081089952904  Z " fill-rule="nonzero" fill="rgba(0, 0, 0, 1)" stroke="none" transform="matrix(1 0 0 1 779 612 )" class="fill" />
    <path d="M 12.715624101101394 7.078264174674421  L 12.715624101101394 5.667394361573839  L 19.40169577641989 5.667394361573839  L 19.40169577641989 7.078264174674421  L 12.715624101101394 7.078264174674421  Z " stroke-width="0" stroke-dasharray="0" stroke="rgba(121, 121, 121, 1)" fill="none" transform="matrix(1 0 0 1 779 612 )" class="stroke" mask="url(#Clip4947)" />
    <path d="M 14.125798759620736 9.828258473361045  L 11.88900836866201 9.828258473361045  L 11.88900836866201 12.86521887860349  L 14.125798759620736 12.86521887860349  L 14.125798759620736 9.828258473361045  Z " stroke-width="0" stroke-dasharray="0" stroke="rgba(121, 121, 121, 1)" fill="none" transform="matrix(1 0 0 1 779 612 )" class="stroke" mask="url(#Clip4947)" />
    <path d="M 10.600393028713677 14.108698131005816  L 10.600393028713677 8.584779220958719  L 15.48731259224212 8.584779220958719  L 15.48731259224212 14.108698131005816  L 10.600393028713677 14.108698131005816  Z " stroke-width="0" stroke-dasharray="0" stroke="rgba(121, 121, 121, 1)" fill="none" transform="matrix(1 0 0 1 779 612 )" class="stroke" mask="url(#Clip4947)" />
    <path d="M 20.398531653328245 9.828258473361045  L 18.015820615458235 9.828258473361045  L 18.015820615458235 12.86521887860349  L 20.398531653328245 12.86521887860349  L 20.398531653328245 9.828258473361045  Z " stroke-width="0" stroke-dasharray="0" stroke="rgba(121, 121, 121, 1)" fill="none" transform="matrix(1 0 0 1 779 612 )" class="stroke" mask="url(#Clip4947)" />
    <path d="M 16.70296760873481 14.108698131005816  L 16.70296760873481 8.584779220958719  L 21.760045485949625 8.584779220958719  L 21.760045485949625 14.108698131005816  L 16.70296760873481 14.108698131005816  Z " stroke-width="0" stroke-dasharray="0" stroke="rgba(121, 121, 121, 1)" fill="none" transform="matrix(1 0 0 1 779 612 )" class="stroke" mask="url(#Clip4947)" />
    <path d="M 11.354110268480012 18.38912258514825  C 11.88899339401935 17.33694876506097  12.245612576717214 16.12535980902328  12.423906468844008 14.754345264627325  C 12.423906468844008 14.754345264627325  13.979878112709452 14.873905606982555  13.979878112709452 14.873905606982555  C 13.75295817449991 16.468108397084382  13.339640647220437 17.863032824447924  12.739923598659079 19.058684827941274  C 12.140206550097718 20.23839489024108  11.32172446388679 21.218840605531312  10.284375898898606 22  C 10.219541492823597 21.904347877729286  10.11417411044322 21.784782071615407  9.968296938300943 21.641303769431975  C 9.838628609203916 21.513767527219454  9.692744191266804 21.378255563315676  9.530658659132273 21.234777320520926  C 9.384781486989997 21.107241078308405  9.246988689671301 21.011594538573704  9.117319877521284 20.94782641746744  C 10.08983403643446 20.27826126462905  10.835435985985919 19.42535446404199  11.354110268480012 18.38912258514825  Z " stroke-width="0" stroke-dasharray="0" stroke="rgba(121, 121, 121, 1)" fill="none" transform="matrix(1 0 0 1 779 612 )" class="stroke" mask="url(#Clip4947)" />
    <path d="M 13.688160480452064 19.393481152840117  C 13.153277837965712 18.81956812227244  12.634592928305862 18.301439533036522  12.132127005804028 17.839120684710462  C 12.132127005804028 17.839120684710462  13.153262380270066 16.930437757206978  13.153262380270066 16.930437757206978  C 13.655727336665922 17.376814604950816  14.17441321243175 17.871008724305216  14.7092958549181 18.413037694319762  C 15.260387823502688 18.939124604363407  15.68179552224161 19.39346862182843  15.97354986652616 19.77607728907732  C 15.97354986652616 19.77607728907732  14.928114994502437 20.85216598078139  14.928114994502437 20.85216598078139  C 14.636360650217886 20.43767325297937  14.223043122938414 19.951452123436887  13.688160480452064 19.393481152840117  Z " stroke-width="0" stroke-dasharray="0" stroke="rgba(121, 121, 121, 1)" fill="none" transform="matrix(1 0 0 1 779 612 )" class="stroke" mask="url(#Clip4947)" />
    <path d="M 17.3837245250455 18.317392461136045  C 17.934816493630084 17.281160582242308  18.307617468405812 16.085502639880858  18.50211972052486 14.730430155455812  C 18.50211972052486 14.730430155455812  20.082452692730584 14.849990497811042  20.082452692730584 14.849990497811042  C 19.85553275452104 16.428251227941963  19.425971121328125 17.81521769082987  18.79383735278225 19.01086981310058  C 18.177911944228637 20.19057987540039  17.359368027235114 21.163037278599  16.33822782223919 21.928254672485462  C 16.27339341616418 21.848544491408294  16.16808786456639 21.73695185327238  16.022210692424114 21.59347355108895  C 15.876333520281841 21.44999536768288  15.722358447832296 21.30651029518982  15.56027291569776 21.16303199300639  C 15.414395743555485 21.035495810182546  15.276602946236789 20.93187616185856  15.146934134086772 20.85216598078139  C 16.10323993300769 20.198542828525227  16.84884188255915 19.353624340029786  17.3837245250455 18.317392461136045  Z " stroke-width="0" stroke-dasharray="0" stroke="rgba(121, 121, 121, 1)" fill="none" transform="matrix(1 0 0 1 779 612 )" class="stroke" mask="url(#Clip4947)" />
    <path d="M 19.425995273977573 19.273905606982552  C 18.988363757550747 18.79564472837993  18.55880309046381 18.35724689839914  18.137379934029244 17.958696230568023  C 18.137379934029244 17.958696230568023  19.28013645784888 17.169558441917438  19.28013645784888 17.169558441917438  C 19.701559614283447 17.55216704977765  20.131058450587794 17.982607063754504  20.56868996701462 18.46086791266279  C 21.022529843433706 18.923186760988848  21.443938508278602 19.37753071906519  21.83294397862268 19.823907507420348  C 22.238157808959013 20.254342295193275  22.56235109366557 20.644916825612373  22.805480357973348 20.995641432308133  C 22.805480357973348 20.995641432308133  21.58982534148066 21.928254672485462  21.58982534148066 21.928254672485462  C 21.362905403271117 21.561588005818795  21.054955258372022 21.147094268409194  20.665949788027948 20.684775420083138  C 20.276943351577895 20.222456601451416  19.863625824298424 19.752166455890837  19.425995273977573 19.273905606982552  Z " stroke-width="0" stroke-dasharray="0" stroke="rgba(121, 121, 121, 1)" fill="none" transform="matrix(1 0 0 1 779 612 )" class="stroke" mask="url(#Clip4947)" />
    <path d="M 17.602543664629835 3.8260829903906957  C 16.937992209993467 3.0768078346411802  16.37879074782987 2.3355088163036832  15.924950871410791 1.6021754829703496  C 15.519737041074457 2.3195669938875008  15.009142302874057 3.0528927254696674  14.393216894320439 3.802167881219183  C 13.777290519660845 4.551443036968698  13.088449228526573 5.260865062006102  12.326646647830682 5.930430155455811  C 11.581052427127046 6.584053426489339  10.78684278750642 7.165936121102807  9.94399744074326 7.676081089952905  C 9.862954674675994 7.452892725469667  9.733252531869736 7.205788301596022  9.554958156689956 6.9347735196453435  C 9.376663781510176 6.6478178654973785  9.206506916982764 6.408685778160169  9.044421384848231 6.217381058509297  C 9.88726673161139 5.755062507126642  10.689567508797445 5.1891254358049395  11.451370089493336 4.51956034235523  C 12.213173636295206 3.8340524762704424  12.90201492742948 3.1007267446882767  13.517940335983095 2.3195679441063968  C 14.133865744536713 1.5384081933056215  14.636369345171689 0.7652169781656974  15.025374815515763 0  C 15.025374815515763 0  16.70296760873481 0  16.70296760873481 0  C 17.205433531236643 0.8130433956331394  17.796998577555964 1.6101392675367217  18.477758392184587 2.391298068118601  C 19.17472656680547 3.156515996503195  19.904146241226076 3.8499914480299373  20.665949788027948 4.471730124012204  C 21.443960728716096 5.093469750213368  22.221989059311852 5.611583254724316  23 6.026075388639528  C 22.837914467865467 6.217380108290401  22.659604151937053 6.464484532164046  22.465101899818002 6.767382958947088  C 22.286807041585234 7.070281385730131  22.140923106701113 7.341305669869769  22.027463620649332 7.580435856769186  C 21.26566103995344 7.118117305386531  20.503877781377106 6.5601383173178265  19.742074234575234 5.906515046284299  C 18.980271653879342 5.252891775250771  18.267095119266205 4.559416323724029  17.602543664629835 3.8260829903906957  Z " stroke-width="0" stroke-dasharray="0" stroke="rgba(121, 121, 121, 1)" fill="none" transform="matrix(1 0 0 1 779 612 )" class="stroke" mask="url(#Clip4947)" />
    <path d="M 2.261089888516411 5.978260373798838  L 2.261089888516411 4.567390560698255  L 9.020060056507958 4.567390560698255  L 9.020060056507958 5.978260373798838  L 2.261089888516411 5.978260373798838  Z " stroke-width="0" stroke-dasharray="0" stroke="rgba(121, 121, 121, 1)" fill="none" transform="matrix(1 0 0 1 779 612 )" class="stroke" mask="url(#Clip4947)" />
    <path d="M 2.261089888516411 9.565207475976738  L 2.261089888516411 8.154337662876157  L 9.044421384848231 8.154337662876157  L 9.044421384848231 9.565207475976738  L 2.261089888516411 9.565207475976738  Z " stroke-width="0" stroke-dasharray="0" stroke="rgba(121, 121, 121, 1)" fill="none" transform="matrix(1 0 0 1 779 612 )" class="stroke" mask="url(#Clip4947)" />
    <path d="M 1.3372143350636991 13.223915109171513  L 1.3372143350636991 11.789130186899419  L 8.752641921808255 11.789130186899419  L 8.752641921808255 13.223915109171513  L 1.3372143350636991 13.223915109171513  Z " stroke-width="0" stroke-dasharray="0" stroke="rgba(121, 121, 121, 1)" fill="none" transform="matrix(1 0 0 1 779 612 )" class="stroke" mask="url(#Clip4947)" />
    <path d="M 5 12.530437757206977  L 5 1.7217358253255794  L 6.46725253573416 1.7217358253255794  L 6.46725253573416 12.530437757206977  L 5 12.530437757206977  Z " stroke-width="0" stroke-dasharray="0" stroke="rgba(121, 121, 121, 1)" fill="none" transform="matrix(1 0 0 1 779 612 )" class="stroke" mask="url(#Clip4947)" />
    <path d="M 6.540151028407212 16.165215077727904  C 6.280813887160166 15.575360046578004  6.013380294764814 15.033327394465235  5.7378347935255105 14.539124485586044  C 5.7378347935255105 14.539124485586044  6.540151028407212 14.252173582532558  6.540151028407212 14.252173582532558  C 6.864322575729267 14.730434431440843  7.156090445497509 15.264494034353005  7.415427586744555 15.854349065502907  C 7.690973087983859 16.428262036681904  7.893617198232177 16.922456156036308  8.023286010382193 17.336949002615693  C 8.023286010382193 17.336949002615693  7.123709954487167 17.69564523318372  7.123709954487167 17.69564523318372  C 7.010249985382397 17.249268504217245  6.815697012699506 16.73912828646163  6.540151028407212 16.165215077727904  Z " stroke-width="0" stroke-dasharray="0" stroke="rgba(121, 121, 121, 1)" fill="none" transform="matrix(1 0 0 1 779 612 )" class="stroke" mask="url(#Clip4947)" />
    <path d="M 4.8625582351881675 16.882607538863954  C 4.684263860008387 16.149274443085343  4.473590684503727 15.479702698103363  4.230462144775434 14.873905606982555  C 4.230462144775434 14.873905606982555  5.130038200670461 14.682599937112787  5.130038200670461 14.682599937112787  C 5.373166981925249 15.288397028233595  5.583840398956403 15.957968773215576  5.7621342910831945 16.691301868994184  C 5.956637509308221 17.408693261133976  6.078248514549052 18.022453127213577  6.1268740775788135 18.532598036674994  C 6.1268740775788135 18.532598036674994  5.202936693343513 18.747818815716276  5.202936693343513 18.747818815716276  C 5.154310888787256 18.23767396564354  5.040852368841452 17.615940990974646  4.8625582351881675 16.882607538863954  Z " stroke-width="0" stroke-dasharray="0" stroke="rgba(121, 121, 121, 1)" fill="none" transform="matrix(1 0 0 1 779 612 )" class="stroke" mask="url(#Clip4947)" />
    <path d="M 3.014807128282744 17.38477922095872  C 2.9661813237264876 16.571735706548218  2.877057564206563 15.822463757787476  2.7473889935830402 15.136956604366858  C 2.7473889935830402 15.136956604366858  3.6955640445934357 15.017381058509297  3.6955640445934357 15.017381058509297  C 3.8090240136982065 15.718830271900819  3.8981480147446255 16.47607538863953  3.9629821792931397 17.289118784272667  C 4.044025186886901 18.08622023871226  4.076450601825218 18.771737903929417  4.060242000306466 19.345650934497094  C 4.060242000306466 19.345650934497094  3.0391066258404282 19.489126386023834  3.0391066258404282 19.489126386023834  C 3.0715235873514386 18.89927135487393  3.063432691312506 18.19782267598054  3.014807128282744 17.38477922095872  Z " stroke-width="0" stroke-dasharray="0" stroke="rgba(121, 121, 121, 1)" fill="none" transform="matrix(1 0 0 1 779 612 )" class="stroke" mask="url(#Clip4947)" />
    <path d="M 0.8509770607796593 17.671730124012207  C 1.0130627136774395 16.683324306253823  1.1184302168210645 15.68694757728735  1.167056021377321 14.682599937112787  C 1.167056021377321 14.682599937112787  2.2854512168566843 14.897820716154067  2.2854512168566843 14.897820716154067  C 2.253034134582427 15.599270167100313  2.1881830631792987 16.308691717028267  2.0909315748300323 17.026082990390695  C 2.009888808762766 17.727532203782218  1.88833939277803 18.38913078078623  1.7262536191170026 19.01086981310058  C 1.5803765677379746 19.632608964192297  1.3534595278463666 20.16666850771578  1.0454967028063111 20.61304529607093  C 1.0454967028063111 20.61304529607093  0 20.039128286461626  0 20.039128286461626  C 0.4214228243356383 19.4333312547295  0.7050999490190075 18.64419388179968  0.8509770607796593 17.671730124012207  Z " stroke-width="0" stroke-dasharray="0" stroke="rgba(121, 121, 121, 1)" fill="none" transform="matrix(1 0 0 1 779 612 )" class="stroke" mask="url(#Clip4947)" />
    <path d="M 1.3372143350636991 12.60216788121918  L 1.3372143350636991 0.8847830218343026  L 9.482059664016905 0.8847830218343026  L 9.482059664016905 2.3673829589470885  L 3 2.3673829589470885  L 3 12.60216788121918  L 1.3372143350636991 12.60216788121918  Z " stroke-width="0" stroke-dasharray="0" stroke="rgba(121, 121, 121, 1)" fill="none" transform="matrix(1 0 0 1 779 612 )" class="stroke" mask="url(#Clip4947)" />
    <path d="M 8.16914482651089 12.076081089952904  C 8.16914482651089 12.076081089952904  8.16914482651089 11.789130186899419  8.16914482651089 11.789130186899419  C 8.16914482651089 11.789130186899419  9.676517475260967 11.789130186899419  9.676517475260967 11.789130186899419  C 9.676517475260967 11.789130186899419  9.676517475260967 11.876803558656148  9.676517475260967 12.052165980781393  C 9.676517475260967 12.227527927797185  9.66842633769554 12.371013356622335  9.652217977703282 12.482607538863952  C 9.571175211636016 14.475361234351624  9.490142589681518 16.07752460203105  9.409099340561262 17.289118784272667  C 9.328056574493996 18.484770906543382  9.22268870906063 19.39347408558708  9.093020379963601 20.015213177290114  C 8.979560410858829 20.621010268410924  8.82558582146227 21.04347711440981  8.631082603237244 21.282607538863953  C 8.452788711110454 21.48985384337628  8.2663877406696 21.64129676156762  8.071885005497563 21.73694900261569  C 7.877381787272537 21.832601124886406  7.642374092868491 21.888397503343043  7.366828591629187 21.904339563313947  C 7.139908653419645 21.936223564478396  6.83195899157354 21.944196613679004  6.442953038176476 21.928254672485462  C 6.070156410877647 21.928254672485462  5.673020675676039 21.928254672485462  5.251597519241471 21.928254672485462  C 5.235389159249213 21.705066189224862  5.19487260674547 21.457961527796495  5.130038200670461 21.1869471021779  C 5.065204036121947 20.931874617752854  4.984171172640954 20.70071608442004  4.886919563528441 20.493469750213368  C 5.27592527539901 20.541295841043066  5.6324823857877915 20.565215077727906  5.9566539331098465 20.565215077727906  C 6.297033840424159 20.58115707831013  6.54019450317622 20.58913018689942  6.686071675318496 20.58913018689942  C 6.848157207453029 20.58913018689942  6.977797519476697 20.573183999415185  7.07504912858921 20.541299968556395  C 7.172300254648734 20.509415908003263  7.261485844951248 20.43767340145107  7.342529094071503 20.326079189515113  C 7.472197423168532 20.166658916443797  7.585655943114336 19.807961468407814  7.682907552226849 19.24999049781104  C 7.780158678286373 18.676077467243363  7.869282920859286 17.815212702180666  7.950325686926553 16.667386759822673  C 8.031368936046809 15.50361851993905  8.10431090348887 13.973182425615137  8.16914482651089 12.076081089952904  Z " stroke-width="0" stroke-dasharray="0" stroke="rgba(121, 121, 121, 1)" fill="none" transform="matrix(1 0 0 1 779 612 )" class="stroke" mask="url(#Clip4947)" />
  </g>
</svg>