<?xml version="1.0" encoding="utf-8"?>
<svg version="1.1" xmlns:xlink="http://www.w3.org/1999/xlink" width="22px" height="22px" xmlns="http://www.w3.org/2000/svg">
  <defs>
    <pattern id="BGPattern" patternUnits="userSpaceOnUse" alignment="0 0" imageRepeat="None" />
    <mask fill="white" id="Clip4962">
      <path d="M 5.458472132204425 7.085966978031938  C 6.613452516897626 6.112445190534238  7.483642222976657 5.162859781163393  8.069043136528707 4.237215506184182  C 8.069043136528707 4.237215506184182  9.991373380108296 4.596302081964105  9.991373380108296 4.596302081964105  C 9.184469443672864 5.761335822041673  8.163965189688932 6.894456927957982  6.929876649897637 7.995653984677563  C 5.711610024039038 9.080891870557648  4.232294785140376 10.062388962836796  2.4919134868951236 10.940154774044561  C 2.396983653625231 10.796520333983183  2.278320713695394 10.64491249164627  2.135925845910106 10.485318880745394  C 2.009352774177066 10.309765623378546  1.8669511872061562 10.15016107306868  1.7087346412490698 10.0065266330073  C 1.550518213172433 9.862892192945923  1.40813171489906 9.743196033517311  1.2815585252855708 9.647440057227378  C 2.9270097545000326 8.91330868608099  4.319313661443919 8.059489241156115  5.458472132204425 7.085966978031938  Z M 6.526435055159477 7.445053553811861  L 7.807978491747511 6.0326483850837995  L 16.090617230606735 6.0326483850837995  L 16.090617230606735 7.445053553811861  L 6.526435055159477 7.445053553811861  Z M 15.56850302974188 6.319911557688822  C 15.56850302974188 6.319911557688822  15.56850302974188 6.0326483850837995  15.56850302974188 6.0326483850837995  L 15.924490670726897 6.0326483850837995  L 16.233009269261238 5.936883847517264  C 16.233009269261238 5.936883847517264  17.443364230870788 6.678998133468746  17.443364230870788 6.678998133468746  C 16.652281736846255 7.939789276715681  15.639705650374303 9.080890919304693  14.405617110583005 10.102291170573837  C 13.187350956246206 11.107731775377006  11.834595940111587 12.001460562436092  10.347361021093313 12.783469921727448  C 8.86012610207504 13.549520110179305  7.309595039933609 14.211823084072773  5.695787167062744 14.770401435665551  C 4.081979058430981 15.32897954944509  2.47608815442939 15.783833278737179  0.8781018418498743 16.13493955565764  C 0.7989935688713311 15.895548901493086  0.6724177858879528 15.624229917493508  0.49837967963951724 15.321001866531255  C 0.3243415733910819 15.001814169103028  0.1582164870168616 14.746474094441778  0 14.554961666235434  C 1.5188780396009725 14.267693023925913  3.0535834156353197 13.8766783561242  4.604104811579889 13.381937401329127  C 6.154626207524459 12.871237275694554  7.633941210662222 12.27275742980445  9.042067974582404 11.586504522429507  C 10.466016180913483 10.88429196858859  11.739657383688431 10.094311109527611  12.862993940516239 9.216545298319845  C 14.002152882798542 8.3387790114856  14.903993961091736 7.373230150636958  15.56850302974188 6.319911557688822  Z M 5.5771296496335845 7.852022398375053  C 5.5771296496335845 7.852022398375053  7.119737731002815 7.133849246815205  7.119737731002815 7.133849246815205  C 8.053214621290838 8.330803231077676  9.27939338292028 9.384120872772858  10.798271658282152 10.293805025659616  C 12.317149462122224 11.203489654172854  14.033806141099896 11.96155883032553  15.948225191952236 12.568014932250035  C 17.878466628259073 13.158511863335043  19.89572081108608 13.589404719736665  22 13.860714429019927  C 21.87342657462561 14.004348869081303  21.738938184349593 14.179901888634912  21.596543316564304 14.387373725493994  C 21.454148448779016 14.578886153700338  21.319675147200535 14.778384588283883  21.193101721826146 14.985856425142964  C 21.066529239495352 15.193328499815285  20.955779142619058 15.384844970846691  20.860848602066465 15.5603979904003  C 18.740747970741644 15.225251122132578  16.715564677359065 14.722522258454392  14.785324184095826 14.052228284105706  C 12.855082747788991 13.365975376730761  11.098892738221386 12.512155456179407  9.516728221694118 11.490755204910265  C 7.950385619099547 10.453395782801623  6.637179965295995 9.24048833521739  5.5771296496335845 7.852022398375053  Z M 4.4854322054531925 22  L 4.4854322054531925 14.650710983754676  L 17.656959833201306 14.650710983754676  L 17.656959833201306 21.976058865608366  L 15.85328710705088 21.976058865608366  L 15.85328710705088 16.158865470001977  L 6.217901367927602 16.158865470001977  L 6.217901367927602 22  L 4.4854322054531925 22  Z M 5.339814614775264 21  L 5.339814614775264 19.677907824626313  L 16.755123470126094 19.677907824626313  L 16.755123470126094 21  L 5.339814614775264 21  Z M 10.038842422558975 3.1360146444527772  L 10.038842422558975 0  L 11.866234581237205 0  L 11.866234581237205 3.1360146444527772  L 10.038842422558975 3.1360146444527772  Z M 0.973039926751232 6.678998133468746  L 0.973039926751232 2.178460589071176  L 21.050709683171643 2.178460589071176  L 21.050709683171643 6.678998133468746  L 19.223302435795876 6.678998133468746  L 19.223302435795876 4  L 2.7055090892256413 4  L 2.7055090892256413 6.678998133468746  L 0.973039926751232 6.678998133468746  Z " fill-rule="evenodd" />
    </mask>
  </defs>
  <g transform="matrix(1 0 0 1 -365 -612 )">
    <path d="M 5.458472132204425 7.085966978031938  C 6.613452516897626 6.112445190534238  7.483642222976657 5.162859781163393  8.069043136528707 4.237215506184182  C 8.069043136528707 4.237215506184182  9.991373380108296 4.596302081964105  9.991373380108296 4.596302081964105  C 9.184469443672864 5.761335822041673  8.163965189688932 6.894456927957982  6.929876649897637 7.995653984677563  C 5.711610024039038 9.080891870557648  4.232294785140376 10.062388962836796  2.4919134868951236 10.940154774044561  C 2.396983653625231 10.796520333983183  2.278320713695394 10.64491249164627  2.135925845910106 10.485318880745394  C 2.009352774177066 10.309765623378546  1.8669511872061562 10.15016107306868  1.7087346412490698 10.0065266330073  C 1.550518213172433 9.862892192945923  1.40813171489906 9.743196033517311  1.2815585252855708 9.647440057227378  C 2.9270097545000326 8.91330868608099  4.319313661443919 8.059489241156115  5.458472132204425 7.085966978031938  Z M 6.526435055159477 7.445053553811861  L 7.807978491747511 6.0326483850837995  L 16.090617230606735 6.0326483850837995  L 16.090617230606735 7.445053553811861  L 6.526435055159477 7.445053553811861  Z M 15.56850302974188 6.319911557688822  C 15.56850302974188 6.319911557688822  15.56850302974188 6.0326483850837995  15.56850302974188 6.0326483850837995  L 15.924490670726897 6.0326483850837995  L 16.233009269261238 5.936883847517264  C 16.233009269261238 5.936883847517264  17.443364230870788 6.678998133468746  17.443364230870788 6.678998133468746  C 16.652281736846255 7.939789276715681  15.639705650374303 9.080890919304693  14.405617110583005 10.102291170573837  C 13.187350956246206 11.107731775377006  11.834595940111587 12.001460562436092  10.347361021093313 12.783469921727448  C 8.86012610207504 13.549520110179305  7.309595039933609 14.211823084072773  5.695787167062744 14.770401435665551  C 4.081979058430981 15.32897954944509  2.47608815442939 15.783833278737179  0.8781018418498743 16.13493955565764  C 0.7989935688713311 15.895548901493086  0.6724177858879528 15.624229917493508  0.49837967963951724 15.321001866531255  C 0.3243415733910819 15.001814169103028  0.1582164870168616 14.746474094441778  0 14.554961666235434  C 1.5188780396009725 14.267693023925913  3.0535834156353197 13.8766783561242  4.604104811579889 13.381937401329127  C 6.154626207524459 12.871237275694554  7.633941210662222 12.27275742980445  9.042067974582404 11.586504522429507  C 10.466016180913483 10.88429196858859  11.739657383688431 10.094311109527611  12.862993940516239 9.216545298319845  C 14.002152882798542 8.3387790114856  14.903993961091736 7.373230150636958  15.56850302974188 6.319911557688822  Z M 5.5771296496335845 7.852022398375053  C 5.5771296496335845 7.852022398375053  7.119737731002815 7.133849246815205  7.119737731002815 7.133849246815205  C 8.053214621290838 8.330803231077676  9.27939338292028 9.384120872772858  10.798271658282152 10.293805025659616  C 12.317149462122224 11.203489654172854  14.033806141099896 11.96155883032553  15.948225191952236 12.568014932250035  C 17.878466628259073 13.158511863335043  19.89572081108608 13.589404719736665  22 13.860714429019927  C 21.87342657462561 14.004348869081303  21.738938184349593 14.179901888634912  21.596543316564304 14.387373725493994  C 21.454148448779016 14.578886153700338  21.319675147200535 14.778384588283883  21.193101721826146 14.985856425142964  C 21.066529239495352 15.193328499815285  20.955779142619058 15.384844970846691  20.860848602066465 15.5603979904003  C 18.740747970741644 15.225251122132578  16.715564677359065 14.722522258454392  14.785324184095826 14.052228284105706  C 12.855082747788991 13.365975376730761  11.098892738221386 12.512155456179407  9.516728221694118 11.490755204910265  C 7.950385619099547 10.453395782801623  6.637179965295995 9.24048833521739  5.5771296496335845 7.852022398375053  Z M 4.4854322054531925 22  L 4.4854322054531925 14.650710983754676  L 17.656959833201306 14.650710983754676  L 17.656959833201306 21.976058865608366  L 15.85328710705088 21.976058865608366  L 15.85328710705088 16.158865470001977  L 6.217901367927602 16.158865470001977  L 6.217901367927602 22  L 4.4854322054531925 22  Z M 5.339814614775264 21  L 5.339814614775264 19.677907824626313  L 16.755123470126094 19.677907824626313  L 16.755123470126094 21  L 5.339814614775264 21  Z M 10.038842422558975 3.1360146444527772  L 10.038842422558975 0  L 11.866234581237205 0  L 11.866234581237205 3.1360146444527772  L 10.038842422558975 3.1360146444527772  Z M 0.973039926751232 6.678998133468746  L 0.973039926751232 2.178460589071176  L 21.050709683171643 2.178460589071176  L 21.050709683171643 6.678998133468746  L 19.223302435795876 6.678998133468746  L 19.223302435795876 4  L 2.7055090892256413 4  L 2.7055090892256413 6.678998133468746  L 0.973039926751232 6.678998133468746  Z " fill-rule="nonzero" fill="rgba(0, 0, 0, 1)" stroke="none" transform="matrix(1 0 0 1 365 612 )" class="fill" />
    <path d="M 5.458472132204425 7.085966978031938  C 6.613452516897626 6.112445190534238  7.483642222976657 5.162859781163393  8.069043136528707 4.237215506184182  C 8.069043136528707 4.237215506184182  9.991373380108296 4.596302081964105  9.991373380108296 4.596302081964105  C 9.184469443672864 5.761335822041673  8.163965189688932 6.894456927957982  6.929876649897637 7.995653984677563  C 5.711610024039038 9.080891870557648  4.232294785140376 10.062388962836796  2.4919134868951236 10.940154774044561  C 2.396983653625231 10.796520333983183  2.278320713695394 10.64491249164627  2.135925845910106 10.485318880745394  C 2.009352774177066 10.309765623378546  1.8669511872061562 10.15016107306868  1.7087346412490698 10.0065266330073  C 1.550518213172433 9.862892192945923  1.40813171489906 9.743196033517311  1.2815585252855708 9.647440057227378  C 2.9270097545000326 8.91330868608099  4.319313661443919 8.059489241156115  5.458472132204425 7.085966978031938  Z " stroke-width="0" stroke-dasharray="0" stroke="rgba(121, 121, 121, 1)" fill="none" transform="matrix(1 0 0 1 365 612 )" class="stroke" mask="url(#Clip4962)" />
    <path d="M 6.526435055159477 7.445053553811861  L 7.807978491747511 6.0326483850837995  L 16.090617230606735 6.0326483850837995  L 16.090617230606735 7.445053553811861  L 6.526435055159477 7.445053553811861  Z " stroke-width="0" stroke-dasharray="0" stroke="rgba(121, 121, 121, 1)" fill="none" transform="matrix(1 0 0 1 365 612 )" class="stroke" mask="url(#Clip4962)" />
    <path d="M 15.56850302974188 6.319911557688822  C 15.56850302974188 6.319911557688822  15.56850302974188 6.0326483850837995  15.56850302974188 6.0326483850837995  L 15.924490670726897 6.0326483850837995  L 16.233009269261238 5.936883847517264  C 16.233009269261238 5.936883847517264  17.443364230870788 6.678998133468746  17.443364230870788 6.678998133468746  C 16.652281736846255 7.939789276715681  15.639705650374303 9.080890919304693  14.405617110583005 10.102291170573837  C 13.187350956246206 11.107731775377006  11.834595940111587 12.001460562436092  10.347361021093313 12.783469921727448  C 8.86012610207504 13.549520110179305  7.309595039933609 14.211823084072773  5.695787167062744 14.770401435665551  C 4.081979058430981 15.32897954944509  2.47608815442939 15.783833278737179  0.8781018418498743 16.13493955565764  C 0.7989935688713311 15.895548901493086  0.6724177858879528 15.624229917493508  0.49837967963951724 15.321001866531255  C 0.3243415733910819 15.001814169103028  0.1582164870168616 14.746474094441778  0 14.554961666235434  C 1.5188780396009725 14.267693023925913  3.0535834156353197 13.8766783561242  4.604104811579889 13.381937401329127  C 6.154626207524459 12.871237275694554  7.633941210662222 12.27275742980445  9.042067974582404 11.586504522429507  C 10.466016180913483 10.88429196858859  11.739657383688431 10.094311109527611  12.862993940516239 9.216545298319845  C 14.002152882798542 8.3387790114856  14.903993961091736 7.373230150636958  15.56850302974188 6.319911557688822  Z " stroke-width="0" stroke-dasharray="0" stroke="rgba(121, 121, 121, 1)" fill="none" transform="matrix(1 0 0 1 365 612 )" class="stroke" mask="url(#Clip4962)" />
    <path d="M 5.5771296496335845 7.852022398375053  C 5.5771296496335845 7.852022398375053  7.119737731002815 7.133849246815205  7.119737731002815 7.133849246815205  C 8.053214621290838 8.330803231077676  9.27939338292028 9.384120872772858  10.798271658282152 10.293805025659616  C 12.317149462122224 11.203489654172854  14.033806141099896 11.96155883032553  15.948225191952236 12.568014932250035  C 17.878466628259073 13.158511863335043  19.89572081108608 13.589404719736665  22 13.860714429019927  C 21.87342657462561 14.004348869081303  21.738938184349593 14.179901888634912  21.596543316564304 14.387373725493994  C 21.454148448779016 14.578886153700338  21.319675147200535 14.778384588283883  21.193101721826146 14.985856425142964  C 21.066529239495352 15.193328499815285  20.955779142619058 15.384844970846691  20.860848602066465 15.5603979904003  C 18.740747970741644 15.225251122132578  16.715564677359065 14.722522258454392  14.785324184095826 14.052228284105706  C 12.855082747788991 13.365975376730761  11.098892738221386 12.512155456179407  9.516728221694118 11.490755204910265  C 7.950385619099547 10.453395782801623  6.637179965295995 9.24048833521739  5.5771296496335845 7.852022398375053  Z " stroke-width="0" stroke-dasharray="0" stroke="rgba(121, 121, 121, 1)" fill="none" transform="matrix(1 0 0 1 365 612 )" class="stroke" mask="url(#Clip4962)" />
    <path d="M 4.4854322054531925 22  L 4.4854322054531925 14.650710983754676  L 17.656959833201306 14.650710983754676  L 17.656959833201306 21.976058865608366  L 15.85328710705088 21.976058865608366  L 15.85328710705088 16.158865470001977  L 6.217901367927602 16.158865470001977  L 6.217901367927602 22  L 4.4854322054531925 22  Z " stroke-width="0" stroke-dasharray="0" stroke="rgba(121, 121, 121, 1)" fill="none" transform="matrix(1 0 0 1 365 612 )" class="stroke" mask="url(#Clip4962)" />
    <path d="M 5.339814614775264 21  L 5.339814614775264 19.677907824626313  L 16.755123470126094 19.677907824626313  L 16.755123470126094 21  L 5.339814614775264 21  Z " stroke-width="0" stroke-dasharray="0" stroke="rgba(121, 121, 121, 1)" fill="none" transform="matrix(1 0 0 1 365 612 )" class="stroke" mask="url(#Clip4962)" />
    <path d="M 10.038842422558975 3.1360146444527772  L 10.038842422558975 0  L 11.866234581237205 0  L 11.866234581237205 3.1360146444527772  L 10.038842422558975 3.1360146444527772  Z " stroke-width="0" stroke-dasharray="0" stroke="rgba(121, 121, 121, 1)" fill="none" transform="matrix(1 0 0 1 365 612 )" class="stroke" mask="url(#Clip4962)" />
    <path d="M 0.973039926751232 6.678998133468746  L 0.973039926751232 2.178460589071176  L 21.050709683171643 2.178460589071176  L 21.050709683171643 6.678998133468746  L 19.223302435795876 6.678998133468746  L 19.223302435795876 4  L 2.7055090892256413 4  L 2.7055090892256413 6.678998133468746  L 0.973039926751232 6.678998133468746  Z " stroke-width="0" stroke-dasharray="0" stroke="rgba(121, 121, 121, 1)" fill="none" transform="matrix(1 0 0 1 365 612 )" class="stroke" mask="url(#Clip4962)" />
  </g>
</svg>