<?xml version="1.0" encoding="utf-8"?>
<svg version="1.1" xmlns:xlink="http://www.w3.org/1999/xlink" width="23px" height="22px" xmlns="http://www.w3.org/2000/svg">
  <defs>
    <pattern id="BGPattern" patternUnits="userSpaceOnUse" alignment="0 0" imageRepeat="None" />
    <mask fill="white" id="Clip4924">
      <path d="M 13.678287032178027 11.811281488310769  C 13.954124213849171 10.904557517303013  14.18944346946492 10.053500821621578  14.38415292164192 9.258128468101567  C 14.38415292164192 9.258128468101567  16.477239638417714 9.783073974903822  16.477239638417714 9.783073974903822  C 16.185175943717386 10.61026080537533  15.876900242943144 11.485169825352834  15.552384489314809 12.407801508915094  C 15.227869702816822 13.330433192477352  14.887133238941411 14.25307649096906  14.530166393515417 15.175708411570692  C 14.173200515219772 16.09834009513295  13.816202721622545 16.981204512143655  13.45923587619655 17.824299173689354  C 13.118494576669386 18.65148624120024  12.78585782948365 19.399132790363755  12.461343042985664 20.067245399022607  C 12.461343042985664 20.067245399022607  10.879334425938335 19.56616312032774  10.879334425938335 19.56616312032774  C 11.187623666537492 18.882143036153764  11.504061947474225 18.110629229213455  11.828576733972211 17.25162721067232  C 12.169318033499378 16.392625310650878  12.493793167652973 15.501805141047912  12.80208240825213 14.579173220446275  C 13.126597194750113 13.640634061368893  13.418674429275356 12.71800593339728  13.678287032178027 11.811281488310769  Z M 8.907935918447532 21.02168350019756  C 8.907935918447532 21.02168350019756  8.591521815769573 19.208245039757106  8.591521815769573 19.208245039757106  C 9.613744263655544 19.160522672471576  10.798253118701037 19.104847397066298  12.14499083665017 19.041217613525486  C 13.50795410049813 18.96168041372939  14.960117730880086 18.87418195017553  16.50156490100622 18.77873727486431  C 18.059237617031183 18.68329259955309  19.608843498798404 18.595809306519325  21.150289701794186 18.516272106723232  C 21.150289701794186 18.516272106723232  21.150289701794186 20.162683140932064  21.150289701794186 20.162683140932064  C 19.6899721954229 20.274035239906045  18.221485338976663 20.377445260496795  16.7449413195762 20.472889935808013  C 15.268397300175732 20.584242027374515  13.856793182454272 20.679681102630465  12.510055464505138 20.75921833205648  C 11.179543776020012 20.8546630073677  9.978835971160342 20.94214630040147  8.907935918447532 21.02168350019756  Z M 18.86241519528296 16.989146872011148  C 18.343190956607973 16.06651518844889  17.81585636280945 15.20751814773466  17.28040657823563 14.412145794214652  C 17.28040657823563 14.412145794214652  18.838089932694455 13.672446404966  18.838089932694455 13.672446404966  C 19.373539717268272 14.451911282970885  19.91713564078861 15.295011989020681  20.46881097126126 16.201736197067813  C 21.020487268864255 17.0925531666392  21.515362066691964 17.97541752439006  21.953456641612103 18.850326959186475  C 22.391552183662597 19.70932891846776  22.74038739709733 20.472886972815807  23 21.1409996407345  C 23 21.1409996407345  21.271977911079176 22  21.271977911079176 22  C 21.0610438801337 21.331887391341148  20.736505882507288 20.560373525141  20.298410340456794 19.685464090344585  C 19.876540344305134 18.810554714808013  19.397864979856777 17.911778674093096  18.86241519528296 16.989146872011148  Z M 11.658176103167747 3.86550920195479  C 12.0475940403914 2.7519882862897806  12.372132038017812 1.6146145722499465  12.631743673790128 0.45337099300018413  C 12.631743673790128 0.45337099300018413  14.50584113092691 0.8351371311581106  14.50584113092691 0.8351371311581106  C 14.197551890327754 2.107733276053127  13.824355630481525 3.3405608506800184  13.386260088431035 4.533618906881279  C 12.964390092279372 5.726676963082539  12.477615011141342 6.8401988269050555  11.925939680668696 7.874182602033814  C 11.390489896094879 8.89225961276558  10.80633494347922 9.798991169033384  10.173530432816902 10.594363048474639  C 10.059950160829572 10.483010956908137  9.905811826877276 10.35574878239337  9.711102858265448 10.212581739796619  C 9.532619435552451 10.069414697199868  9.337922072504838 9.926240543421821  9.126987074429007 9.783073974903822  C 8.932278105817181 9.63990693230707  8.753779209018566 9.520600747423941  8.591521815769573 9.42515589433319  C 9.22432632643189 8.709321155428185  9.79222043289091 7.882147125083007  10.295218642101892 6.943607728966246  C 10.81444288077688 5.989161094373737  11.268757682378919 4.963122879144052  11.658176103167747 3.86550920195479  Z M 17.207430790470116 0.9305900435876624  C 17.207430790470116 0.9305900435876624  18.86241519528296 0.4056445367854081  18.86241519528296 0.4056445367854081  C 19.154478889983288 1.455535550389917  19.527675149829516 2.5292935847318367  19.981996237778834 3.626907261921098  C 20.436317325728158 4.7086137006346105  20.92309240686619 5.726680755712563  21.442316645541176 6.681127390305072  C 21.977766430114993 7.619665838264328  22.49700130722384 8.415047199280641  23 9.067252984282652  C 22.837742606751007 9.162697363294651  22.65924419351757 9.297900356920964  22.464534741340568 9.472882350547966  C 22.286051802192745 9.631956631620467  22.107553388959307 9.806938625247469  21.929069482681133 9.99782785735022  C 21.766812089432143 10.172809850977222  21.620835368511987 10.339835380893833  21.491029067060648 10.498910136045087  C 20.955579282486834 9.76716768458558  20.42008307565617 8.868406814390756  19.884633291082352 7.802608088231746  C 19.365409052407365 6.736808887993981  18.870534254579656 5.607375993065693  18.399987620731505 4.414317936864433  C 17.945666532782187 3.2212598806631725  17.54817208999728 2.0600191458859274  17.207430790470116 0.9305900435876624  Z M 0.608441046424948 6.800428360321918  L 0.608441046424948 5.106290869898309  L 9.151312337017512 5.106290869898309  L 9.151312337017512 6.800428360321918  L 0.608441046424948 6.800428360321918  Z M 4.259273014002029 21.928410315677837  L 4.259273014002029 0  L 6 0  L 6 21.928410315677837  L 4.259273014002029 21.928410315677837  Z M 3.456106074184112 8.828635873728865  C 3.7481695271018522 7.921911902721108  3.9915261194996354 7.039047367190716  4.18623532989405 6.180045111610206  C 4.18623532989405 6.180045111610206  5.33014163497843 6.561826420288226  5.33014163497843 6.561826420288226  C 5.135432666366604 7.5162730548807355  4.8839147027192675 8.510488733820123  4.575625220337524 9.54447203487013  C 4.267335979738367 10.562548571523141  3.9185000409558675 11.564719291936662  3.5290818619496274 12.550980877559422  C 3.1558894706248033 13.537242463182183  2.7502331730251703 14.459870828193171  2.312137872757267 15.318872609694926  C 1.8740424515980694 16.161967152720937  1.427826883120531 16.877805565736278  0.9735056742799167 17.466381093118724  C 0.8761511899740035 17.22776943447059  0.7301743481625533 16.957333461736845  0.5354652586594328 16.655092019547904  C 0.34075616915631246 16.336943220363526  0.16225754436311018 16.074478289261826  0 15.86768134460457  C 0.43809539093637395 15.32682836228719  0.8599506081273598 14.682576670601808  1.2655945143693703 13.934926743627175  C 1.687464147847151 13.187277053691918  2.0850208496484015 12.375999358011173  2.4582132409732256 11.501089863954913  C 2.8314056322980496 10.626180369898654  3.1640423794837846 9.735360318815376  3.456106074184112 8.828635873728865  Z M 4.989402269711967 9.568335262977518  C 4.989402269711967 9.568335262977518  5.889932156226369 8.7570461894067  5.889932156226369 8.7570461894067  C 6.035964003576533 8.916120470479202  6.271221362849815 9.194512314324902  6.5957361493478 9.592198491084906  C 6.936476965309791 9.98988466784491  7.2934742753418424 10.419375365902601  7.666666666666666 10.880691444723107  C 8.03985905799149 11.34200704946486  8.380595521866901 11.771513392121395  8.688884762466058 12.169199568881401  C 8.99717448663039 12.566885745641406  9.21623241252432 12.853217934519899  9.34603823041048 13.0281999281469  C 9.34603823041048 13.0281999281469  8.226457187914605 14.436009022322041  8.226457187914605 14.436009022322041  C 8.064199794665612 14.13376769865279  7.837042152082005 13.759936690661371  7.544978457381677 13.314528324395368  C 7.269140792145354 12.869119958129366  6.968963840930437 12.40780577562387  6.644448570867276 11.930582458327617  C 6.319933300804114 11.453359141031362  6.003495503432555 11.007956937789146  5.695206262833399 10.594363048474639  C 5.403142809915659 10.164862394763135  5.1678856924249645 9.82285439714077  4.989402269711967 9.568335262977518  Z " fill-rule="evenodd" />
    </mask>
  </defs>
  <g transform="matrix(1 0 0 1 -735 -643 )">
    <path d="M 13.678287032178027 11.811281488310769  C 13.954124213849171 10.904557517303013  14.18944346946492 10.053500821621578  14.38415292164192 9.258128468101567  C 14.38415292164192 9.258128468101567  16.477239638417714 9.783073974903822  16.477239638417714 9.783073974903822  C 16.185175943717386 10.61026080537533  15.876900242943144 11.485169825352834  15.552384489314809 12.407801508915094  C 15.227869702816822 13.330433192477352  14.887133238941411 14.25307649096906  14.530166393515417 15.175708411570692  C 14.173200515219772 16.09834009513295  13.816202721622545 16.981204512143655  13.45923587619655 17.824299173689354  C 13.118494576669386 18.65148624120024  12.78585782948365 19.399132790363755  12.461343042985664 20.067245399022607  C 12.461343042985664 20.067245399022607  10.879334425938335 19.56616312032774  10.879334425938335 19.56616312032774  C 11.187623666537492 18.882143036153764  11.504061947474225 18.110629229213455  11.828576733972211 17.25162721067232  C 12.169318033499378 16.392625310650878  12.493793167652973 15.501805141047912  12.80208240825213 14.579173220446275  C 13.126597194750113 13.640634061368893  13.418674429275356 12.71800593339728  13.678287032178027 11.811281488310769  Z M 8.907935918447532 21.02168350019756  C 8.907935918447532 21.02168350019756  8.591521815769573 19.208245039757106  8.591521815769573 19.208245039757106  C 9.613744263655544 19.160522672471576  10.798253118701037 19.104847397066298  12.14499083665017 19.041217613525486  C 13.50795410049813 18.96168041372939  14.960117730880086 18.87418195017553  16.50156490100622 18.77873727486431  C 18.059237617031183 18.68329259955309  19.608843498798404 18.595809306519325  21.150289701794186 18.516272106723232  C 21.150289701794186 18.516272106723232  21.150289701794186 20.162683140932064  21.150289701794186 20.162683140932064  C 19.6899721954229 20.274035239906045  18.221485338976663 20.377445260496795  16.7449413195762 20.472889935808013  C 15.268397300175732 20.584242027374515  13.856793182454272 20.679681102630465  12.510055464505138 20.75921833205648  C 11.179543776020012 20.8546630073677  9.978835971160342 20.94214630040147  8.907935918447532 21.02168350019756  Z M 18.86241519528296 16.989146872011148  C 18.343190956607973 16.06651518844889  17.81585636280945 15.20751814773466  17.28040657823563 14.412145794214652  C 17.28040657823563 14.412145794214652  18.838089932694455 13.672446404966  18.838089932694455 13.672446404966  C 19.373539717268272 14.451911282970885  19.91713564078861 15.295011989020681  20.46881097126126 16.201736197067813  C 21.020487268864255 17.0925531666392  21.515362066691964 17.97541752439006  21.953456641612103 18.850326959186475  C 22.391552183662597 19.70932891846776  22.74038739709733 20.472886972815807  23 21.1409996407345  C 23 21.1409996407345  21.271977911079176 22  21.271977911079176 22  C 21.0610438801337 21.331887391341148  20.736505882507288 20.560373525141  20.298410340456794 19.685464090344585  C 19.876540344305134 18.810554714808013  19.397864979856777 17.911778674093096  18.86241519528296 16.989146872011148  Z M 11.658176103167747 3.86550920195479  C 12.0475940403914 2.7519882862897806  12.372132038017812 1.6146145722499465  12.631743673790128 0.45337099300018413  C 12.631743673790128 0.45337099300018413  14.50584113092691 0.8351371311581106  14.50584113092691 0.8351371311581106  C 14.197551890327754 2.107733276053127  13.824355630481525 3.3405608506800184  13.386260088431035 4.533618906881279  C 12.964390092279372 5.726676963082539  12.477615011141342 6.8401988269050555  11.925939680668696 7.874182602033814  C 11.390489896094879 8.89225961276558  10.80633494347922 9.798991169033384  10.173530432816902 10.594363048474639  C 10.059950160829572 10.483010956908137  9.905811826877276 10.35574878239337  9.711102858265448 10.212581739796619  C 9.532619435552451 10.069414697199868  9.337922072504838 9.926240543421821  9.126987074429007 9.783073974903822  C 8.932278105817181 9.63990693230707  8.753779209018566 9.520600747423941  8.591521815769573 9.42515589433319  C 9.22432632643189 8.709321155428185  9.79222043289091 7.882147125083007  10.295218642101892 6.943607728966246  C 10.81444288077688 5.989161094373737  11.268757682378919 4.963122879144052  11.658176103167747 3.86550920195479  Z M 17.207430790470116 0.9305900435876624  C 17.207430790470116 0.9305900435876624  18.86241519528296 0.4056445367854081  18.86241519528296 0.4056445367854081  C 19.154478889983288 1.455535550389917  19.527675149829516 2.5292935847318367  19.981996237778834 3.626907261921098  C 20.436317325728158 4.7086137006346105  20.92309240686619 5.726680755712563  21.442316645541176 6.681127390305072  C 21.977766430114993 7.619665838264328  22.49700130722384 8.415047199280641  23 9.067252984282652  C 22.837742606751007 9.162697363294651  22.65924419351757 9.297900356920964  22.464534741340568 9.472882350547966  C 22.286051802192745 9.631956631620467  22.107553388959307 9.806938625247469  21.929069482681133 9.99782785735022  C 21.766812089432143 10.172809850977222  21.620835368511987 10.339835380893833  21.491029067060648 10.498910136045087  C 20.955579282486834 9.76716768458558  20.42008307565617 8.868406814390756  19.884633291082352 7.802608088231746  C 19.365409052407365 6.736808887993981  18.870534254579656 5.607375993065693  18.399987620731505 4.414317936864433  C 17.945666532782187 3.2212598806631725  17.54817208999728 2.0600191458859274  17.207430790470116 0.9305900435876624  Z M 0.608441046424948 6.800428360321918  L 0.608441046424948 5.106290869898309  L 9.151312337017512 5.106290869898309  L 9.151312337017512 6.800428360321918  L 0.608441046424948 6.800428360321918  Z M 4.259273014002029 21.928410315677837  L 4.259273014002029 0  L 6 0  L 6 21.928410315677837  L 4.259273014002029 21.928410315677837  Z M 3.456106074184112 8.828635873728865  C 3.7481695271018522 7.921911902721108  3.9915261194996354 7.039047367190716  4.18623532989405 6.180045111610206  C 4.18623532989405 6.180045111610206  5.33014163497843 6.561826420288226  5.33014163497843 6.561826420288226  C 5.135432666366604 7.5162730548807355  4.8839147027192675 8.510488733820123  4.575625220337524 9.54447203487013  C 4.267335979738367 10.562548571523141  3.9185000409558675 11.564719291936662  3.5290818619496274 12.550980877559422  C 3.1558894706248033 13.537242463182183  2.7502331730251703 14.459870828193171  2.312137872757267 15.318872609694926  C 1.8740424515980694 16.161967152720937  1.427826883120531 16.877805565736278  0.9735056742799167 17.466381093118724  C 0.8761511899740035 17.22776943447059  0.7301743481625533 16.957333461736845  0.5354652586594328 16.655092019547904  C 0.34075616915631246 16.336943220363526  0.16225754436311018 16.074478289261826  0 15.86768134460457  C 0.43809539093637395 15.32682836228719  0.8599506081273598 14.682576670601808  1.2655945143693703 13.934926743627175  C 1.687464147847151 13.187277053691918  2.0850208496484015 12.375999358011173  2.4582132409732256 11.501089863954913  C 2.8314056322980496 10.626180369898654  3.1640423794837846 9.735360318815376  3.456106074184112 8.828635873728865  Z M 4.989402269711967 9.568335262977518  C 4.989402269711967 9.568335262977518  5.889932156226369 8.7570461894067  5.889932156226369 8.7570461894067  C 6.035964003576533 8.916120470479202  6.271221362849815 9.194512314324902  6.5957361493478 9.592198491084906  C 6.936476965309791 9.98988466784491  7.2934742753418424 10.419375365902601  7.666666666666666 10.880691444723107  C 8.03985905799149 11.34200704946486  8.380595521866901 11.771513392121395  8.688884762466058 12.169199568881401  C 8.99717448663039 12.566885745641406  9.21623241252432 12.853217934519899  9.34603823041048 13.0281999281469  C 9.34603823041048 13.0281999281469  8.226457187914605 14.436009022322041  8.226457187914605 14.436009022322041  C 8.064199794665612 14.13376769865279  7.837042152082005 13.759936690661371  7.544978457381677 13.314528324395368  C 7.269140792145354 12.869119958129366  6.968963840930437 12.40780577562387  6.644448570867276 11.930582458327617  C 6.319933300804114 11.453359141031362  6.003495503432555 11.007956937789146  5.695206262833399 10.594363048474639  C 5.403142809915659 10.164862394763135  5.1678856924249645 9.82285439714077  4.989402269711967 9.568335262977518  Z " fill-rule="nonzero" fill="rgba(0, 0, 0, 1)" stroke="none" transform="matrix(1 0 0 1 735 643 )" class="fill" />
    <path d="M 13.678287032178027 11.811281488310769  C 13.954124213849171 10.904557517303013  14.18944346946492 10.053500821621578  14.38415292164192 9.258128468101567  C 14.38415292164192 9.258128468101567  16.477239638417714 9.783073974903822  16.477239638417714 9.783073974903822  C 16.185175943717386 10.61026080537533  15.876900242943144 11.485169825352834  15.552384489314809 12.407801508915094  C 15.227869702816822 13.330433192477352  14.887133238941411 14.25307649096906  14.530166393515417 15.175708411570692  C 14.173200515219772 16.09834009513295  13.816202721622545 16.981204512143655  13.45923587619655 17.824299173689354  C 13.118494576669386 18.65148624120024  12.78585782948365 19.399132790363755  12.461343042985664 20.067245399022607  C 12.461343042985664 20.067245399022607  10.879334425938335 19.56616312032774  10.879334425938335 19.56616312032774  C 11.187623666537492 18.882143036153764  11.504061947474225 18.110629229213455  11.828576733972211 17.25162721067232  C 12.169318033499378 16.392625310650878  12.493793167652973 15.501805141047912  12.80208240825213 14.579173220446275  C 13.126597194750113 13.640634061368893  13.418674429275356 12.71800593339728  13.678287032178027 11.811281488310769  Z " stroke-width="0" stroke-dasharray="0" stroke="rgba(121, 121, 121, 1)" fill="none" transform="matrix(1 0 0 1 735 643 )" class="stroke" mask="url(#Clip4924)" />
    <path d="M 8.907935918447532 21.02168350019756  C 8.907935918447532 21.02168350019756  8.591521815769573 19.208245039757106  8.591521815769573 19.208245039757106  C 9.613744263655544 19.160522672471576  10.798253118701037 19.104847397066298  12.14499083665017 19.041217613525486  C 13.50795410049813 18.96168041372939  14.960117730880086 18.87418195017553  16.50156490100622 18.77873727486431  C 18.059237617031183 18.68329259955309  19.608843498798404 18.595809306519325  21.150289701794186 18.516272106723232  C 21.150289701794186 18.516272106723232  21.150289701794186 20.162683140932064  21.150289701794186 20.162683140932064  C 19.6899721954229 20.274035239906045  18.221485338976663 20.377445260496795  16.7449413195762 20.472889935808013  C 15.268397300175732 20.584242027374515  13.856793182454272 20.679681102630465  12.510055464505138 20.75921833205648  C 11.179543776020012 20.8546630073677  9.978835971160342 20.94214630040147  8.907935918447532 21.02168350019756  Z " stroke-width="0" stroke-dasharray="0" stroke="rgba(121, 121, 121, 1)" fill="none" transform="matrix(1 0 0 1 735 643 )" class="stroke" mask="url(#Clip4924)" />
    <path d="M 18.86241519528296 16.989146872011148  C 18.343190956607973 16.06651518844889  17.81585636280945 15.20751814773466  17.28040657823563 14.412145794214652  C 17.28040657823563 14.412145794214652  18.838089932694455 13.672446404966  18.838089932694455 13.672446404966  C 19.373539717268272 14.451911282970885  19.91713564078861 15.295011989020681  20.46881097126126 16.201736197067813  C 21.020487268864255 17.0925531666392  21.515362066691964 17.97541752439006  21.953456641612103 18.850326959186475  C 22.391552183662597 19.70932891846776  22.74038739709733 20.472886972815807  23 21.1409996407345  C 23 21.1409996407345  21.271977911079176 22  21.271977911079176 22  C 21.0610438801337 21.331887391341148  20.736505882507288 20.560373525141  20.298410340456794 19.685464090344585  C 19.876540344305134 18.810554714808013  19.397864979856777 17.911778674093096  18.86241519528296 16.989146872011148  Z " stroke-width="0" stroke-dasharray="0" stroke="rgba(121, 121, 121, 1)" fill="none" transform="matrix(1 0 0 1 735 643 )" class="stroke" mask="url(#Clip4924)" />
    <path d="M 11.658176103167747 3.86550920195479  C 12.0475940403914 2.7519882862897806  12.372132038017812 1.6146145722499465  12.631743673790128 0.45337099300018413  C 12.631743673790128 0.45337099300018413  14.50584113092691 0.8351371311581106  14.50584113092691 0.8351371311581106  C 14.197551890327754 2.107733276053127  13.824355630481525 3.3405608506800184  13.386260088431035 4.533618906881279  C 12.964390092279372 5.726676963082539  12.477615011141342 6.8401988269050555  11.925939680668696 7.874182602033814  C 11.390489896094879 8.89225961276558  10.80633494347922 9.798991169033384  10.173530432816902 10.594363048474639  C 10.059950160829572 10.483010956908137  9.905811826877276 10.35574878239337  9.711102858265448 10.212581739796619  C 9.532619435552451 10.069414697199868  9.337922072504838 9.926240543421821  9.126987074429007 9.783073974903822  C 8.932278105817181 9.63990693230707  8.753779209018566 9.520600747423941  8.591521815769573 9.42515589433319  C 9.22432632643189 8.709321155428185  9.79222043289091 7.882147125083007  10.295218642101892 6.943607728966246  C 10.81444288077688 5.989161094373737  11.268757682378919 4.963122879144052  11.658176103167747 3.86550920195479  Z " stroke-width="0" stroke-dasharray="0" stroke="rgba(121, 121, 121, 1)" fill="none" transform="matrix(1 0 0 1 735 643 )" class="stroke" mask="url(#Clip4924)" />
    <path d="M 17.207430790470116 0.9305900435876624  C 17.207430790470116 0.9305900435876624  18.86241519528296 0.4056445367854081  18.86241519528296 0.4056445367854081  C 19.154478889983288 1.455535550389917  19.527675149829516 2.5292935847318367  19.981996237778834 3.626907261921098  C 20.436317325728158 4.7086137006346105  20.92309240686619 5.726680755712563  21.442316645541176 6.681127390305072  C 21.977766430114993 7.619665838264328  22.49700130722384 8.415047199280641  23 9.067252984282652  C 22.837742606751007 9.162697363294651  22.65924419351757 9.297900356920964  22.464534741340568 9.472882350547966  C 22.286051802192745 9.631956631620467  22.107553388959307 9.806938625247469  21.929069482681133 9.99782785735022  C 21.766812089432143 10.172809850977222  21.620835368511987 10.339835380893833  21.491029067060648 10.498910136045087  C 20.955579282486834 9.76716768458558  20.42008307565617 8.868406814390756  19.884633291082352 7.802608088231746  C 19.365409052407365 6.736808887993981  18.870534254579656 5.607375993065693  18.399987620731505 4.414317936864433  C 17.945666532782187 3.2212598806631725  17.54817208999728 2.0600191458859274  17.207430790470116 0.9305900435876624  Z " stroke-width="0" stroke-dasharray="0" stroke="rgba(121, 121, 121, 1)" fill="none" transform="matrix(1 0 0 1 735 643 )" class="stroke" mask="url(#Clip4924)" />
    <path d="M 0.608441046424948 6.800428360321918  L 0.608441046424948 5.106290869898309  L 9.151312337017512 5.106290869898309  L 9.151312337017512 6.800428360321918  L 0.608441046424948 6.800428360321918  Z " stroke-width="0" stroke-dasharray="0" stroke="rgba(121, 121, 121, 1)" fill="none" transform="matrix(1 0 0 1 735 643 )" class="stroke" mask="url(#Clip4924)" />
    <path d="M 4.259273014002029 21.928410315677837  L 4.259273014002029 0  L 6 0  L 6 21.928410315677837  L 4.259273014002029 21.928410315677837  Z " stroke-width="0" stroke-dasharray="0" stroke="rgba(121, 121, 121, 1)" fill="none" transform="matrix(1 0 0 1 735 643 )" class="stroke" mask="url(#Clip4924)" />
    <path d="M 3.456106074184112 8.828635873728865  C 3.7481695271018522 7.921911902721108  3.9915261194996354 7.039047367190716  4.18623532989405 6.180045111610206  C 4.18623532989405 6.180045111610206  5.33014163497843 6.561826420288226  5.33014163497843 6.561826420288226  C 5.135432666366604 7.5162730548807355  4.8839147027192675 8.510488733820123  4.575625220337524 9.54447203487013  C 4.267335979738367 10.562548571523141  3.9185000409558675 11.564719291936662  3.5290818619496274 12.550980877559422  C 3.1558894706248033 13.537242463182183  2.7502331730251703 14.459870828193171  2.312137872757267 15.318872609694926  C 1.8740424515980694 16.161967152720937  1.427826883120531 16.877805565736278  0.9735056742799167 17.466381093118724  C 0.8761511899740035 17.22776943447059  0.7301743481625533 16.957333461736845  0.5354652586594328 16.655092019547904  C 0.34075616915631246 16.336943220363526  0.16225754436311018 16.074478289261826  0 15.86768134460457  C 0.43809539093637395 15.32682836228719  0.8599506081273598 14.682576670601808  1.2655945143693703 13.934926743627175  C 1.687464147847151 13.187277053691918  2.0850208496484015 12.375999358011173  2.4582132409732256 11.501089863954913  C 2.8314056322980496 10.626180369898654  3.1640423794837846 9.735360318815376  3.456106074184112 8.828635873728865  Z " stroke-width="0" stroke-dasharray="0" stroke="rgba(121, 121, 121, 1)" fill="none" transform="matrix(1 0 0 1 735 643 )" class="stroke" mask="url(#Clip4924)" />
    <path d="M 4.989402269711967 9.568335262977518  C 4.989402269711967 9.568335262977518  5.889932156226369 8.7570461894067  5.889932156226369 8.7570461894067  C 6.035964003576533 8.916120470479202  6.271221362849815 9.194512314324902  6.5957361493478 9.592198491084906  C 6.936476965309791 9.98988466784491  7.2934742753418424 10.419375365902601  7.666666666666666 10.880691444723107  C 8.03985905799149 11.34200704946486  8.380595521866901 11.771513392121395  8.688884762466058 12.169199568881401  C 8.99717448663039 12.566885745641406  9.21623241252432 12.853217934519899  9.34603823041048 13.0281999281469  C 9.34603823041048 13.0281999281469  8.226457187914605 14.436009022322041  8.226457187914605 14.436009022322041  C 8.064199794665612 14.13376769865279  7.837042152082005 13.759936690661371  7.544978457381677 13.314528324395368  C 7.269140792145354 12.869119958129366  6.968963840930437 12.40780577562387  6.644448570867276 11.930582458327617  C 6.319933300804114 11.453359141031362  6.003495503432555 11.007956937789146  5.695206262833399 10.594363048474639  C 5.403142809915659 10.164862394763135  5.1678856924249645 9.82285439714077  4.989402269711967 9.568335262977518  Z " stroke-width="0" stroke-dasharray="0" stroke="rgba(121, 121, 121, 1)" fill="none" transform="matrix(1 0 0 1 735 643 )" class="stroke" mask="url(#Clip4924)" />
  </g>
</svg>