<?xml version="1.0" encoding="utf-8"?>
<svg version="1.1" xmlns:xlink="http://www.w3.org/1999/xlink" width="10px" height="12px" xmlns="http://www.w3.org/2000/svg">
  <defs>
    <pattern id="BGPattern" patternUnits="userSpaceOnUse" alignment="0 0" imageRepeat="None" />
    <mask fill="white" id="Clip4991">
      <path d="M 6.39303485537717 5.261905317553977  C 8.532338489185166 5.452381173889761  10 6.238093105603657  10 8.428569356150032  C 10 10.6904742006513  7.985075607957567 12  5.024875798929687 12  C 2.9601988205593543 12  1.3432837517520604 11.54761685505728  0 10.309521541874311  C 0 10.309521541874311  1.194030440876732 9.166664038596055  1.194030440876732 9.166664038596055  C 2.1641799269719453 10.142854487567227  3.482584790830175 10.523806850686274  4.999998023062948 10.523806850686274  C 7.014923650691038 10.523806850686274  8.258705936544274 9.833333438456158  8.258705936544274 8.452380937363406  C 8.258705936544274 7.4285715243082855  7.636817141230407 6.857142181353272  6.218906239806419 6.7380946824460235  C 6.218906239806419 6.7380946824460235  4.203980365061196 6.571428751639128  4.203980365061196 6.571428751639128  C 1.8159202246591266 6.380952895303344  0.5472636225789935 5.357143837037757  0.5472636225789935 3.428572509834766  C 0.5472636225789935 1.2857146911880373  2.4378090199729954 0  5.04974962092232 0  C 6.79104356081948 0  8.358208885145888 0.404760928621392  9.452736377421006 1.2619040560800834  C 9.452736377421006 1.2619040560800834  8.283583712411014 2.380949978144965  8.283583712411014 2.380949978144965  C 7.412936927800282 1.7380933421300115  6.29353264812695 1.452381568100353  5.024875798929687 1.452381568100353  C 3.233830878965983 1.452381568100353  2.2885576860347188 2.190476723599086  2.2885576860347188 3.3809531318296986  C 2.2885576860347188 4.380952974145462  2.8855716708874275 4.976188103418153  4.4278605784913205 5.095235602325401  C 4.4278605784913205 5.095235602325401  6.39303485537717 5.261905317553977  6.39303485537717 5.261905317553977  Z " fill-rule="evenodd" />
    </mask>
  </defs>
  <g transform="matrix(1 0 0 1 -189 -527 )">
    <path d="M 6.39303485537717 5.261905317553977  C 8.532338489185166 5.452381173889761  10 6.238093105603657  10 8.428569356150032  C 10 10.6904742006513  7.985075607957567 12  5.024875798929687 12  C 2.9601988205593543 12  1.3432837517520604 11.54761685505728  0 10.309521541874311  C 0 10.309521541874311  1.194030440876732 9.166664038596055  1.194030440876732 9.166664038596055  C 2.1641799269719453 10.142854487567227  3.482584790830175 10.523806850686274  4.999998023062948 10.523806850686274  C 7.014923650691038 10.523806850686274  8.258705936544274 9.833333438456158  8.258705936544274 8.452380937363406  C 8.258705936544274 7.4285715243082855  7.636817141230407 6.857142181353272  6.218906239806419 6.7380946824460235  C 6.218906239806419 6.7380946824460235  4.203980365061196 6.571428751639128  4.203980365061196 6.571428751639128  C 1.8159202246591266 6.380952895303344  0.5472636225789935 5.357143837037757  0.5472636225789935 3.428572509834766  C 0.5472636225789935 1.2857146911880373  2.4378090199729954 0  5.04974962092232 0  C 6.79104356081948 0  8.358208885145888 0.404760928621392  9.452736377421006 1.2619040560800834  C 9.452736377421006 1.2619040560800834  8.283583712411014 2.380949978144965  8.283583712411014 2.380949978144965  C 7.412936927800282 1.7380933421300115  6.29353264812695 1.452381568100353  5.024875798929687 1.452381568100353  C 3.233830878965983 1.452381568100353  2.2885576860347188 2.190476723599086  2.2885576860347188 3.3809531318296986  C 2.2885576860347188 4.380952974145462  2.8855716708874275 4.976188103418153  4.4278605784913205 5.095235602325401  C 4.4278605784913205 5.095235602325401  6.39303485537717 5.261905317553977  6.39303485537717 5.261905317553977  Z " fill-rule="nonzero" fill="rgba(0, 0, 0, 1)" stroke="none" transform="matrix(1 0 0 1 189 527 )" class="fill" />
    <path d="M 6.39303485537717 5.261905317553977  C 8.532338489185166 5.452381173889761  10 6.238093105603657  10 8.428569356150032  C 10 10.6904742006513  7.985075607957567 12  5.024875798929687 12  C 2.9601988205593543 12  1.3432837517520604 11.54761685505728  0 10.309521541874311  C 0 10.309521541874311  1.194030440876732 9.166664038596055  1.194030440876732 9.166664038596055  C 2.1641799269719453 10.142854487567227  3.482584790830175 10.523806850686274  4.999998023062948 10.523806850686274  C 7.014923650691038 10.523806850686274  8.258705936544274 9.833333438456158  8.258705936544274 8.452380937363406  C 8.258705936544274 7.4285715243082855  7.636817141230407 6.857142181353272  6.218906239806419 6.7380946824460235  C 6.218906239806419 6.7380946824460235  4.203980365061196 6.571428751639128  4.203980365061196 6.571428751639128  C 1.8159202246591266 6.380952895303344  0.5472636225789935 5.357143837037757  0.5472636225789935 3.428572509834766  C 0.5472636225789935 1.2857146911880373  2.4378090199729954 0  5.04974962092232 0  C 6.79104356081948 0  8.358208885145888 0.404760928621392  9.452736377421006 1.2619040560800834  C 9.452736377421006 1.2619040560800834  8.283583712411014 2.380949978144965  8.283583712411014 2.380949978144965  C 7.412936927800282 1.7380933421300115  6.29353264812695 1.452381568100353  5.024875798929687 1.452381568100353  C 3.233830878965983 1.452381568100353  2.2885576860347188 2.190476723599086  2.2885576860347188 3.3809531318296986  C 2.2885576860347188 4.380952974145462  2.8855716708874275 4.976188103418153  4.4278605784913205 5.095235602325401  C 4.4278605784913205 5.095235602325401  6.39303485537717 5.261905317553977  6.39303485537717 5.261905317553977  Z " stroke-width="0" stroke-dasharray="0" stroke="rgba(121, 121, 121, 1)" fill="none" transform="matrix(1 0 0 1 189 527 )" class="stroke" mask="url(#Clip4991)" />
  </g>
</svg>