<?xml version="1.0" encoding="utf-8"?>
<svg version="1.1" xmlns:xlink="http://www.w3.org/1999/xlink" width="22px" height="22px" xmlns="http://www.w3.org/2000/svg">
  <defs>
    <pattern id="BGPattern" patternUnits="userSpaceOnUse" alignment="0 0" imageRepeat="None" />
    <mask fill="white" id="Clip4972">
      <path d="M 8.415300739618695 22  L 8.415300739618695 12.671038167832847  L 20.413115192647847 12.671038167832847  L 20.413115192647847 21.87978626569481  L 18.68196899863767 21.87978626569481  L 18.68196899863767 14.330061076870697  L 10.098360123213325 14.330061076870697  L 10.098360123213325 22  L 8.415300739618695 22  Z M 17.143170046289683 0.6732213706511392  C 18.056830909121704 0.4648422354551582  18.85027331279778 0.2404370227283782  19.52349725731791 0  C 19.52349725731791 0  20.966120678012032 1.3945343496598734  20.966120678012032 1.3945343496598734  C 19.860109707283666 1.7792347325194382  18.593807457680704 2.1158425516096084  17.167213929203147 2.404366405636582  C 15.756649337530774 2.692891215075356  14.289982033923183 2.941346053628133  12.767212973791764 3.1497251888241142  C 11.244444391366034 3.3581043240200947  9.769762619355854 3.534424616271879  8.343169090878297 3.6786870209912657  C 8.295081325051363 3.4703078857952847  8.21493616331976 3.2138361868299086  8.102732172566405 2.909282433624936  C 8.006557596323924 2.604728680419964  7.910382542375753 2.348272268043386  7.81420748842758 2.139893132847405  C 8.840072819718648 2.0276895710722154  9.906010493022674 1.8994532438836276  11.012020986045346 1.7551908391642403  C 12.118031956773715 1.6109284344448536  13.191984098480331 1.4506265764294697  14.233878366576581 1.2743053287658859  C 15.27577359008422 1.0819560927479033  16.245538120262843 0.8816005058471201  17.143170046289683 0.6732213706511392  Z M 13.632787026208238 13.63279390204076  L 13.632787026208238 2.0677557203110126  L 15 2.0677557203110126  L 15 13.63279390204076  L 13.632787026208238 13.63279390204076  Z M 6.684152634785747 9  L 6.684152634785747 7  L 22 7  L 22 9  L 6.684152634785747 9  Z M 9.56939852076261 20.966122139844494  L 9.56939852076261 19.331145034985443  L 19.475411402313746 19.331145034985443  L 19.475411402313746 20.966122139844494  L 9.56939852076261 20.966122139844494  Z M 2.7650271879680703 2.3803206014577847  C 2.2040072342012955 2.0437089607204153  1.6750453928977322 1.7471692016926423  1.1781419029102267 1.4907022797862657  C 1.1781419029102267 1.4907022797862657  2.1879778196904205 0.21638166443158208  2.1879778196904205 0.21638166443158208  C 2.6848813096779267 0.44078974339376165  3.213843389834336 0.7052783027717364  3.774863582453957 1.0098320559767087  C 4.35191271187876 1.3143858091816811  4.90491771953725 1.618942428622053  5.433879321987968 1.9234961818270255  C 5.962841402144377 2.212020991265799  6.395628428352615 2.4684774036423773  6.732240400612679 2.6928854826045567  C 6.732240400612679 2.6928854826045567  5.674317195711246 4.18360304897962  5.674317195711246 4.18360304897962  C 5.337704745745488 3.927137082485044  4.90491771953725 3.6466300888706686  4.375956117086534 3.342076335665696  C 3.8630234514409993 3.0214936386945253  3.3260471417348447 2.7009042538407555  2.7650271879680703 2.3803206014577847  Z M 1.5868850462049973 8.992351146841582  C 1.0258650924382229 8.655739028398312  0.49690348998750583 8.35919926937054  0 8.102732825170063  C 0 8.102732825170063  0.9857922727195743 6.780320601457785  0.9857922727195743 6.780320601457785  C 1.4666665870490512 7.004728680419964  1.9876137210971772 7.269217239797939  2.5486336748639515 7.573770993002912  C 3.1096538674835723 7.878324746207884  3.6466296994840346 8.174864505235655  4.159562126276723 8.463389314674432  C 4.688523967580286 8.751914124113204  5.121310993788524 9.008370536489783  5.457923204901435 9.232778615451963  C 5.457923204901435 9.232778615451963  4.448087765826933 10.723496181827025  4.448087765826933 10.723496181827025  C 4.127504969224897 10.499088102864846  3.710746879821842 10.234614830075667  3.1978142141763075 9.930061076870697  C 2.6848815485307727 9.625506845959825  2.147905119398195 9.312933843812754  1.5868850462049973 8.992351146841582  Z M 2.091803243447941 21.711480923032028  C 2.091803243447941 21.711480923032028  0.5530054853641833 20.485251916034937  0.5530054853641833 20.485251916034937  C 0.9857923921459972 19.876144170772044  1.4666665870490512 19.14681218167416  1.9956281894997683 18.297267174829937  C 2.5406192064613604 17.431692985366567  3.085609984570106 16.518039130193095  3.6306007626788515 15.556290083867784  C 4.1755917796404445 14.578512093776276  4.6805094991776945 13.64080837392386  5.1453546378491435 12.743175580369241  C 5.1453546378491435 12.743175580369241  6.46775959938732 13.921312979008734  6.46775959938732 13.921312979008734  C 6.051001987689959 14.770857747000006  5.586156610165664 15.652460402523676  5.073223944520129 16.566122139844495  C 4.576320454532624 17.479783638312362  4.071402734995373 18.377419596668567  3.558470069349838 19.25902290903785  C 3.0455374037043037 20.140626161693895  2.556648382119389 20.95811089247622  2.091803243447941 21.711480923032028  Z " fill-rule="evenodd" />
    </mask>
  </defs>
  <g transform="matrix(1 0 0 1 -141 -612 )">
    <path d="M 8.415300739618695 22  L 8.415300739618695 12.671038167832847  L 20.413115192647847 12.671038167832847  L 20.413115192647847 21.87978626569481  L 18.68196899863767 21.87978626569481  L 18.68196899863767 14.330061076870697  L 10.098360123213325 14.330061076870697  L 10.098360123213325 22  L 8.415300739618695 22  Z M 17.143170046289683 0.6732213706511392  C 18.056830909121704 0.4648422354551582  18.85027331279778 0.2404370227283782  19.52349725731791 0  C 19.52349725731791 0  20.966120678012032 1.3945343496598734  20.966120678012032 1.3945343496598734  C 19.860109707283666 1.7792347325194382  18.593807457680704 2.1158425516096084  17.167213929203147 2.404366405636582  C 15.756649337530774 2.692891215075356  14.289982033923183 2.941346053628133  12.767212973791764 3.1497251888241142  C 11.244444391366034 3.3581043240200947  9.769762619355854 3.534424616271879  8.343169090878297 3.6786870209912657  C 8.295081325051363 3.4703078857952847  8.21493616331976 3.2138361868299086  8.102732172566405 2.909282433624936  C 8.006557596323924 2.604728680419964  7.910382542375753 2.348272268043386  7.81420748842758 2.139893132847405  C 8.840072819718648 2.0276895710722154  9.906010493022674 1.8994532438836276  11.012020986045346 1.7551908391642403  C 12.118031956773715 1.6109284344448536  13.191984098480331 1.4506265764294697  14.233878366576581 1.2743053287658859  C 15.27577359008422 1.0819560927479033  16.245538120262843 0.8816005058471201  17.143170046289683 0.6732213706511392  Z M 13.632787026208238 13.63279390204076  L 13.632787026208238 2.0677557203110126  L 15 2.0677557203110126  L 15 13.63279390204076  L 13.632787026208238 13.63279390204076  Z M 6.684152634785747 9  L 6.684152634785747 7  L 22 7  L 22 9  L 6.684152634785747 9  Z M 9.56939852076261 20.966122139844494  L 9.56939852076261 19.331145034985443  L 19.475411402313746 19.331145034985443  L 19.475411402313746 20.966122139844494  L 9.56939852076261 20.966122139844494  Z M 2.7650271879680703 2.3803206014577847  C 2.2040072342012955 2.0437089607204153  1.6750453928977322 1.7471692016926423  1.1781419029102267 1.4907022797862657  C 1.1781419029102267 1.4907022797862657  2.1879778196904205 0.21638166443158208  2.1879778196904205 0.21638166443158208  C 2.6848813096779267 0.44078974339376165  3.213843389834336 0.7052783027717364  3.774863582453957 1.0098320559767087  C 4.35191271187876 1.3143858091816811  4.90491771953725 1.618942428622053  5.433879321987968 1.9234961818270255  C 5.962841402144377 2.212020991265799  6.395628428352615 2.4684774036423773  6.732240400612679 2.6928854826045567  C 6.732240400612679 2.6928854826045567  5.674317195711246 4.18360304897962  5.674317195711246 4.18360304897962  C 5.337704745745488 3.927137082485044  4.90491771953725 3.6466300888706686  4.375956117086534 3.342076335665696  C 3.8630234514409993 3.0214936386945253  3.3260471417348447 2.7009042538407555  2.7650271879680703 2.3803206014577847  Z M 1.5868850462049973 8.992351146841582  C 1.0258650924382229 8.655739028398312  0.49690348998750583 8.35919926937054  0 8.102732825170063  C 0 8.102732825170063  0.9857922727195743 6.780320601457785  0.9857922727195743 6.780320601457785  C 1.4666665870490512 7.004728680419964  1.9876137210971772 7.269217239797939  2.5486336748639515 7.573770993002912  C 3.1096538674835723 7.878324746207884  3.6466296994840346 8.174864505235655  4.159562126276723 8.463389314674432  C 4.688523967580286 8.751914124113204  5.121310993788524 9.008370536489783  5.457923204901435 9.232778615451963  C 5.457923204901435 9.232778615451963  4.448087765826933 10.723496181827025  4.448087765826933 10.723496181827025  C 4.127504969224897 10.499088102864846  3.710746879821842 10.234614830075667  3.1978142141763075 9.930061076870697  C 2.6848815485307727 9.625506845959825  2.147905119398195 9.312933843812754  1.5868850462049973 8.992351146841582  Z M 2.091803243447941 21.711480923032028  C 2.091803243447941 21.711480923032028  0.5530054853641833 20.485251916034937  0.5530054853641833 20.485251916034937  C 0.9857923921459972 19.876144170772044  1.4666665870490512 19.14681218167416  1.9956281894997683 18.297267174829937  C 2.5406192064613604 17.431692985366567  3.085609984570106 16.518039130193095  3.6306007626788515 15.556290083867784  C 4.1755917796404445 14.578512093776276  4.6805094991776945 13.64080837392386  5.1453546378491435 12.743175580369241  C 5.1453546378491435 12.743175580369241  6.46775959938732 13.921312979008734  6.46775959938732 13.921312979008734  C 6.051001987689959 14.770857747000006  5.586156610165664 15.652460402523676  5.073223944520129 16.566122139844495  C 4.576320454532624 17.479783638312362  4.071402734995373 18.377419596668567  3.558470069349838 19.25902290903785  C 3.0455374037043037 20.140626161693895  2.556648382119389 20.95811089247622  2.091803243447941 21.711480923032028  Z " fill-rule="nonzero" fill="rgba(0, 0, 0, 1)" stroke="none" transform="matrix(1 0 0 1 141 612 )" class="fill" />
    <path d="M 8.415300739618695 22  L 8.415300739618695 12.671038167832847  L 20.413115192647847 12.671038167832847  L 20.413115192647847 21.87978626569481  L 18.68196899863767 21.87978626569481  L 18.68196899863767 14.330061076870697  L 10.098360123213325 14.330061076870697  L 10.098360123213325 22  L 8.415300739618695 22  Z " stroke-width="0" stroke-dasharray="0" stroke="rgba(121, 121, 121, 1)" fill="none" transform="matrix(1 0 0 1 141 612 )" class="stroke" mask="url(#Clip4972)" />
    <path d="M 17.143170046289683 0.6732213706511392  C 18.056830909121704 0.4648422354551582  18.85027331279778 0.2404370227283782  19.52349725731791 0  C 19.52349725731791 0  20.966120678012032 1.3945343496598734  20.966120678012032 1.3945343496598734  C 19.860109707283666 1.7792347325194382  18.593807457680704 2.1158425516096084  17.167213929203147 2.404366405636582  C 15.756649337530774 2.692891215075356  14.289982033923183 2.941346053628133  12.767212973791764 3.1497251888241142  C 11.244444391366034 3.3581043240200947  9.769762619355854 3.534424616271879  8.343169090878297 3.6786870209912657  C 8.295081325051363 3.4703078857952847  8.21493616331976 3.2138361868299086  8.102732172566405 2.909282433624936  C 8.006557596323924 2.604728680419964  7.910382542375753 2.348272268043386  7.81420748842758 2.139893132847405  C 8.840072819718648 2.0276895710722154  9.906010493022674 1.8994532438836276  11.012020986045346 1.7551908391642403  C 12.118031956773715 1.6109284344448536  13.191984098480331 1.4506265764294697  14.233878366576581 1.2743053287658859  C 15.27577359008422 1.0819560927479033  16.245538120262843 0.8816005058471201  17.143170046289683 0.6732213706511392  Z " stroke-width="0" stroke-dasharray="0" stroke="rgba(121, 121, 121, 1)" fill="none" transform="matrix(1 0 0 1 141 612 )" class="stroke" mask="url(#Clip4972)" />
    <path d="M 13.632787026208238 13.63279390204076  L 13.632787026208238 2.0677557203110126  L 15 2.0677557203110126  L 15 13.63279390204076  L 13.632787026208238 13.63279390204076  Z " stroke-width="0" stroke-dasharray="0" stroke="rgba(121, 121, 121, 1)" fill="none" transform="matrix(1 0 0 1 141 612 )" class="stroke" mask="url(#Clip4972)" />
    <path d="M 6.684152634785747 9  L 6.684152634785747 7  L 22 7  L 22 9  L 6.684152634785747 9  Z " stroke-width="0" stroke-dasharray="0" stroke="rgba(121, 121, 121, 1)" fill="none" transform="matrix(1 0 0 1 141 612 )" class="stroke" mask="url(#Clip4972)" />
    <path d="M 9.56939852076261 20.966122139844494  L 9.56939852076261 19.331145034985443  L 19.475411402313746 19.331145034985443  L 19.475411402313746 20.966122139844494  L 9.56939852076261 20.966122139844494  Z " stroke-width="0" stroke-dasharray="0" stroke="rgba(121, 121, 121, 1)" fill="none" transform="matrix(1 0 0 1 141 612 )" class="stroke" mask="url(#Clip4972)" />
    <path d="M 2.7650271879680703 2.3803206014577847  C 2.2040072342012955 2.0437089607204153  1.6750453928977322 1.7471692016926423  1.1781419029102267 1.4907022797862657  C 1.1781419029102267 1.4907022797862657  2.1879778196904205 0.21638166443158208  2.1879778196904205 0.21638166443158208  C 2.6848813096779267 0.44078974339376165  3.213843389834336 0.7052783027717364  3.774863582453957 1.0098320559767087  C 4.35191271187876 1.3143858091816811  4.90491771953725 1.618942428622053  5.433879321987968 1.9234961818270255  C 5.962841402144377 2.212020991265799  6.395628428352615 2.4684774036423773  6.732240400612679 2.6928854826045567  C 6.732240400612679 2.6928854826045567  5.674317195711246 4.18360304897962  5.674317195711246 4.18360304897962  C 5.337704745745488 3.927137082485044  4.90491771953725 3.6466300888706686  4.375956117086534 3.342076335665696  C 3.8630234514409993 3.0214936386945253  3.3260471417348447 2.7009042538407555  2.7650271879680703 2.3803206014577847  Z " stroke-width="0" stroke-dasharray="0" stroke="rgba(121, 121, 121, 1)" fill="none" transform="matrix(1 0 0 1 141 612 )" class="stroke" mask="url(#Clip4972)" />
    <path d="M 1.5868850462049973 8.992351146841582  C 1.0258650924382229 8.655739028398312  0.49690348998750583 8.35919926937054  0 8.102732825170063  C 0 8.102732825170063  0.9857922727195743 6.780320601457785  0.9857922727195743 6.780320601457785  C 1.4666665870490512 7.004728680419964  1.9876137210971772 7.269217239797939  2.5486336748639515 7.573770993002912  C 3.1096538674835723 7.878324746207884  3.6466296994840346 8.174864505235655  4.159562126276723 8.463389314674432  C 4.688523967580286 8.751914124113204  5.121310993788524 9.008370536489783  5.457923204901435 9.232778615451963  C 5.457923204901435 9.232778615451963  4.448087765826933 10.723496181827025  4.448087765826933 10.723496181827025  C 4.127504969224897 10.499088102864846  3.710746879821842 10.234614830075667  3.1978142141763075 9.930061076870697  C 2.6848815485307727 9.625506845959825  2.147905119398195 9.312933843812754  1.5868850462049973 8.992351146841582  Z " stroke-width="0" stroke-dasharray="0" stroke="rgba(121, 121, 121, 1)" fill="none" transform="matrix(1 0 0 1 141 612 )" class="stroke" mask="url(#Clip4972)" />
    <path d="M 2.091803243447941 21.711480923032028  C 2.091803243447941 21.711480923032028  0.5530054853641833 20.485251916034937  0.5530054853641833 20.485251916034937  C 0.9857923921459972 19.876144170772044  1.4666665870490512 19.14681218167416  1.9956281894997683 18.297267174829937  C 2.5406192064613604 17.431692985366567  3.085609984570106 16.518039130193095  3.6306007626788515 15.556290083867784  C 4.1755917796404445 14.578512093776276  4.6805094991776945 13.64080837392386  5.1453546378491435 12.743175580369241  C 5.1453546378491435 12.743175580369241  6.46775959938732 13.921312979008734  6.46775959938732 13.921312979008734  C 6.051001987689959 14.770857747000006  5.586156610165664 15.652460402523676  5.073223944520129 16.566122139844495  C 4.576320454532624 17.479783638312362  4.071402734995373 18.377419596668567  3.558470069349838 19.25902290903785  C 3.0455374037043037 20.140626161693895  2.556648382119389 20.95811089247622  2.091803243447941 21.711480923032028  Z " stroke-width="0" stroke-dasharray="0" stroke="rgba(121, 121, 121, 1)" fill="none" transform="matrix(1 0 0 1 141 612 )" class="stroke" mask="url(#Clip4972)" />
  </g>
</svg>