<?xml version="1.0" encoding="utf-8"?>
<svg version="1.1" xmlns:xlink="http://www.w3.org/1999/xlink" width="21px" height="21px" xmlns="http://www.w3.org/2000/svg">
  <defs>
    <pattern id="BGPattern" patternUnits="userSpaceOnUse" alignment="0 0" imageRepeat="None" />
    <mask fill="white" id="Clip4959">
      <path d="M 13.86194230755047 4.5256654695295495  L 8.283058835677565 4.5256654695295495  L 8.283058835677565 7.30331259487807  L 13.86194230755047 7.30331259487807  L 13.86194230755047 4.5256654695295495  Z M 6.553351870837359 8.596362046741994  L 6.553351870837359 3.232616017665626  L 15.689074427832809 3.232616017665626  L 15.689074427832809 8.596362046741994  L 6.553351870837359 8.596362046741994  Z M 8.697200935234289 11.54162528399988  L 5.432730249813765 11.54162528399988  L 5.432730249813765 15.085526191784556  L 8.697200935234289 15.085526191784556  L 8.697200935234289 11.54162528399988  Z M 3.8979045736497 16.378560419660115  L 3.8979045736497 10.200681164736604  L 10.280754678015356 10.200681164736604  L 10.280754678015356 16.378560419660115  L 3.8979045736497 16.378560419660115  Z M 16.907183159882287 11.54162528399988  L 13.520876819023314 11.54162528399988  L 13.520876819023314 15.085526191784556  L 16.907183159882287 15.085526191784556  L 16.907183159882287 11.54162528399988  Z M 11.937354054034119 16.378560419660115  L 11.937354054034119 10.200681164736604  L 18.539433991488483 10.200681164736604  L 18.539433991488483 16.378560419660115  L 11.937354054034119 16.378560419660115  Z M 0 21  L 0 0  L 20.366566111770823 0  L 20.366566111770823 2  L 2 2  L 2 21  L 0 21  Z M 1.1937292098450374 19.850634550334128  L 1.1937292098450374 18  L 21 18  L 21 19.850634550334128  L 1.1937292098450374 19.850634550334128  Z " fill-rule="evenodd" />
    </mask>
  </defs>
  <g transform="matrix(1 0 0 1 -463 -613 )">
    <path d="M 13.86194230755047 4.5256654695295495  L 8.283058835677565 4.5256654695295495  L 8.283058835677565 7.30331259487807  L 13.86194230755047 7.30331259487807  L 13.86194230755047 4.5256654695295495  Z M 6.553351870837359 8.596362046741994  L 6.553351870837359 3.232616017665626  L 15.689074427832809 3.232616017665626  L 15.689074427832809 8.596362046741994  L 6.553351870837359 8.596362046741994  Z M 8.697200935234289 11.54162528399988  L 5.432730249813765 11.54162528399988  L 5.432730249813765 15.085526191784556  L 8.697200935234289 15.085526191784556  L 8.697200935234289 11.54162528399988  Z M 3.8979045736497 16.378560419660115  L 3.8979045736497 10.200681164736604  L 10.280754678015356 10.200681164736604  L 10.280754678015356 16.378560419660115  L 3.8979045736497 16.378560419660115  Z M 16.907183159882287 11.54162528399988  L 13.520876819023314 11.54162528399988  L 13.520876819023314 15.085526191784556  L 16.907183159882287 15.085526191784556  L 16.907183159882287 11.54162528399988  Z M 11.937354054034119 16.378560419660115  L 11.937354054034119 10.200681164736604  L 18.539433991488483 10.200681164736604  L 18.539433991488483 16.378560419660115  L 11.937354054034119 16.378560419660115  Z M 0 21  L 0 0  L 20.366566111770823 0  L 20.366566111770823 2  L 2 2  L 2 21  L 0 21  Z M 1.1937292098450374 19.850634550334128  L 1.1937292098450374 18  L 21 18  L 21 19.850634550334128  L 1.1937292098450374 19.850634550334128  Z " fill-rule="nonzero" fill="rgba(0, 0, 0, 1)" stroke="none" transform="matrix(1 0 0 1 463 613 )" class="fill" />
    <path d="M 13.86194230755047 4.5256654695295495  L 8.283058835677565 4.5256654695295495  L 8.283058835677565 7.30331259487807  L 13.86194230755047 7.30331259487807  L 13.86194230755047 4.5256654695295495  Z " stroke-width="0" stroke-dasharray="0" stroke="rgba(121, 121, 121, 1)" fill="none" transform="matrix(1 0 0 1 463 613 )" class="stroke" mask="url(#Clip4959)" />
    <path d="M 6.553351870837359 8.596362046741994  L 6.553351870837359 3.232616017665626  L 15.689074427832809 3.232616017665626  L 15.689074427832809 8.596362046741994  L 6.553351870837359 8.596362046741994  Z " stroke-width="0" stroke-dasharray="0" stroke="rgba(121, 121, 121, 1)" fill="none" transform="matrix(1 0 0 1 463 613 )" class="stroke" mask="url(#Clip4959)" />
    <path d="M 8.697200935234289 11.54162528399988  L 5.432730249813765 11.54162528399988  L 5.432730249813765 15.085526191784556  L 8.697200935234289 15.085526191784556  L 8.697200935234289 11.54162528399988  Z " stroke-width="0" stroke-dasharray="0" stroke="rgba(121, 121, 121, 1)" fill="none" transform="matrix(1 0 0 1 463 613 )" class="stroke" mask="url(#Clip4959)" />
    <path d="M 3.8979045736497 16.378560419660115  L 3.8979045736497 10.200681164736604  L 10.280754678015356 10.200681164736604  L 10.280754678015356 16.378560419660115  L 3.8979045736497 16.378560419660115  Z " stroke-width="0" stroke-dasharray="0" stroke="rgba(121, 121, 121, 1)" fill="none" transform="matrix(1 0 0 1 463 613 )" class="stroke" mask="url(#Clip4959)" />
    <path d="M 16.907183159882287 11.54162528399988  L 13.520876819023314 11.54162528399988  L 13.520876819023314 15.085526191784556  L 16.907183159882287 15.085526191784556  L 16.907183159882287 11.54162528399988  Z " stroke-width="0" stroke-dasharray="0" stroke="rgba(121, 121, 121, 1)" fill="none" transform="matrix(1 0 0 1 463 613 )" class="stroke" mask="url(#Clip4959)" />
    <path d="M 11.937354054034119 16.378560419660115  L 11.937354054034119 10.200681164736604  L 18.539433991488483 10.200681164736604  L 18.539433991488483 16.378560419660115  L 11.937354054034119 16.378560419660115  Z " stroke-width="0" stroke-dasharray="0" stroke="rgba(121, 121, 121, 1)" fill="none" transform="matrix(1 0 0 1 463 613 )" class="stroke" mask="url(#Clip4959)" />
    <path d="M 0 21  L 0 0  L 20.366566111770823 0  L 20.366566111770823 2  L 2 2  L 2 21  L 0 21  Z " stroke-width="0" stroke-dasharray="0" stroke="rgba(121, 121, 121, 1)" fill="none" transform="matrix(1 0 0 1 463 613 )" class="stroke" mask="url(#Clip4959)" />
    <path d="M 1.1937292098450374 19.850634550334128  L 1.1937292098450374 18  L 21 18  L 21 19.850634550334128  L 1.1937292098450374 19.850634550334128  Z " stroke-width="0" stroke-dasharray="0" stroke="rgba(121, 121, 121, 1)" fill="none" transform="matrix(1 0 0 1 463 613 )" class="stroke" mask="url(#Clip4959)" />
  </g>
</svg>