<?xml version="1.0" encoding="utf-8"?>
<svg version="1.1" xmlns:xlink="http://www.w3.org/1999/xlink" width="23px" height="22px" xmlns="http://www.w3.org/2000/svg">
  <defs>
    <pattern id="BGPattern" patternUnits="userSpaceOnUse" alignment="0 0" imageRepeat="None" />
    <mask fill="white" id="Clip4921">
      <path d="M 19.88012269052732 8.252997262735766  L 9.964233090608612 8.252997262735766  L 9.964233090608612 9.764441356817784  L 19.88012269052732 9.764441356817784  L 19.88012269052732 8.252997262735766  Z M 19.88012269052732 5.637950352072639  L 9.964233090608612 5.637950352072639  L 9.964233090608612 7.149394446154657  L 19.88012269052732 7.149394446154657  L 19.88012269052732 5.637950352072639  Z M 8.295521581819981 11  L 8.295521581819981 4.510354180359921  L 21.621472446777503 4.510354180359921  L 21.621472446777503 11  L 8.295521581819981 11  Z M 7.279693220198475 13.914940969940014  C 7.279693220198475 13.914940969940014  7.110429497070456 12.475461688007343  7.110429497070456 12.475461688007343  C 8.271311395404187 12.459467706799343  9.601509873338344 12.44346943561605  11.10098168466823 12.427474977744128  C 12.600453495998117 12.411480996536127  14.196618054868445 12.387498604674704  15.889570502929544 12.35551016559478  C 17.582522950990644 12.307527745306853  19.275514801149356 12.267531829016665  20.96846628818368 12.23554338993674  C 20.96846628818368 12.23554338993674  20.895889546435477 13.555071149456845  20.895889546435477 13.555071149456845  C 19.26743064395145 13.603054046408692  17.630901038644307 13.651033606713092  15.986318990022703 13.699016027001017  C 14.341736941401102 13.746998447288945  12.7777662988469 13.78697911033366  11.294417153141204 13.818967549413582  C 9.811068968462276 13.850955988493507  8.472821891320741 13.88295253086009  7.279693220198475 13.914940969940014  Z M 19.348036764371614 12.259536745068349  C 18.86433565305697 11.843687990357175  18.388742724609504 11.467833721944428  17.921165720459207 11.131955826601105  C 17.921165720459207 11.131955826601105  19.13036804484034 10.436209540766379  19.13036804484034 10.436209540766379  C 19.614068195128212 10.7560934549017  20.0977712284964 11.115948975467234  20.581472339811043 11.515803748970406  C 21.065172490098917 11.899664064601655  21.516620581951017 12.291531857443166  21.93582814768859 12.69138663094634  C 22.37115885956374 13.09124140444951  22.72590267155414 13.45111265492444  23 13.770996092395842  C 23 13.770996092395842  21.66981593746741 14.586693900643132  21.66981593746741 14.586693900643132  C 21.4279649012967 14.266810224839771  21.097427431615007 13.90693897436484  20.6782208269042 13.50708443919363  C 20.275136407304206 13.091235207818537  19.831736914659487 12.675385499779523  19.348036764371614 12.259536745068349  Z M 14 13.147214618710464  L 14 0.09595816728095646  L 15.744478525146476 0.09595816728095646  L 15.744478525146476 12.979276386034684  L 14 13.147214618710464  Z M 6.650920312662957 16.649939403015704  L 6.650920312662957 15  L 22.854908022216932 15  L 22.854908022216932 16.649939403015704  L 6.650920312662957 16.649939403015704  Z M 17.679263749869637 20.032712664908384  C 17.679263749869637 20.032712664908384  17.679263749869637 13.147214618710464  17.679263749869637 13.147214618710464  L 19.420613506119818 13.147214618710464  C 19.420613506119818 13.147214618710464  19.420613506119818 20.080699375171598  19.420613506119818 20.080699375171598  C 19.420613506119818 20.560525008042617  19.35610362308764 20.928395185568732  19.227116531933497 21.184302191752707  C 19.09812944077936 21.44020916814519  18.848199052544597 21.624129048350014  18.47736188624652 21.73608834679779  C 18.106524719948442 21.864041864785527  17.6067244881655 21.93601907019682  16.97791410058591 21.952013289736783  C 16.349102751979547 21.98400160965073  15.567117190445757 22  14.63196318214516 22  C 14.599715928843239 21.76008718356449  14.527157446603683 21.496175649528258  14.414294462613887 21.208280293638843  C 14.30143051759732 20.920384937749425  14.188568494634294 20.66448782234181  14.075705510644498 20.440569195654767  C 14.575528807069947 20.456563385403232  15.035025498129423 20.464562550786376  15.454233063866997 20.464562550786376  C 15.873440629604572 20.48055674053484  16.236233040802357 20.48055674053484  16.542576661523363 20.464562550786376  C 16.84892028224437 20.464562550786376  17.06659572896304 20.464562550786376  17.19558282011718 20.464562550786376  C 17.389062495821623 20.448568361037907  17.51808322291275 20.408572534122204  17.58257676848982 20.344595775128333  C 17.64707031406689 20.29661322077868  17.679263749869637 20.192654547497305  17.679263749869637 20.032712664908384  Z M 10.931656455826865 19.169028146397874  C 10.36733913331096 18.545254775999158  9.803029018495838 17.985465672051063  9.238711695979934 17.489645819640078  C 9.238711695979934 17.489645819640078  10.568895758512525 16.649939403015704  10.568895758512525 16.649939403015704  C 11.133213561541815 17.097776596806803  11.705571314537544 17.62558441163379  12.286012263704409 18.233363562492546  C 12.88257635900885 18.82514855339433  13.350183154989049 19.344957113463693  13.688773067985208 19.792794366837782  C 13.688773067985208 19.792794366837782  12.261840518359456 20.776445661006328  12.261840518359456 20.776445661006328  C 11.955496897638447 20.31261421788377  11.512096924480343 19.776807237673644  10.931656455826865 19.169028146397874  Z M 7.303926471256775 3.142854963822075  L 7.303926471256775 2  L 22.588834306282408 2  L 22.588834306282408 3.142854963822075  L 7.303926471256775 3.142854963822075  Z M 4.377546135970413 3.574689596454591  C 5.006357004063388 2.391119733817  5.546460536313107 1.1995638438455927  5.9979141540691385 0  C 5.9979141540691385 0  7.715030659261022 0.5038146980273394  7.715030659261022 0.5038146980273394  C 7.199083255671228 1.8633212139364743  6.586421481438646 3.206829935326239  5.876993921631025 4.534347535491529  C 5.167566361823403 5.845871154448816  4.401677518190983 7.085421857970098  3.579386493880181 8.252997262735766  C 2.75709546956938 9.420572667501435  1.9026128714452037 10.452190652048511  1.0158283616215045 11.347865516294625  C 0.9674583225670479 11.203917778766929  0.8787414965844274 11.019982704899618  0.7497546456869787 10.796064108004071  C 0.6368911811837978 10.572145511108523  0.5079324102873152 10.348230250860421  0.36282220302768564 10.124311177300951  C 0.2338353821623236 9.884398599197402  0.1128634945352675 9.700463048666172  0 9.572509769010397  C 0.8061676379165341 8.788794203212056  1.58010484049964 7.885132358304283  2.3217791730957966 6.861504691066312  C 3.0634535056919527 5.837876547164422  3.748735267877438 4.742265477884181  4.377546135970413 3.574689596454591  Z M 3.4826995125003672 21.928019934605178  L 3.4826995125003672 6.1657584052315855  L 5.199816017692252 4.462367470096705  L 5.223987763037206 4.486360825228314  L 5.223987763037206 21.928019934605178  L 3.4826995125003672 21.928019934605178  Z " fill-rule="evenodd" />
    </mask>
  </defs>
  <g transform="matrix(1 0 0 1 -837 -643 )">
    <path d="M 19.88012269052732 8.252997262735766  L 9.964233090608612 8.252997262735766  L 9.964233090608612 9.764441356817784  L 19.88012269052732 9.764441356817784  L 19.88012269052732 8.252997262735766  Z M 19.88012269052732 5.637950352072639  L 9.964233090608612 5.637950352072639  L 9.964233090608612 7.149394446154657  L 19.88012269052732 7.149394446154657  L 19.88012269052732 5.637950352072639  Z M 8.295521581819981 11  L 8.295521581819981 4.510354180359921  L 21.621472446777503 4.510354180359921  L 21.621472446777503 11  L 8.295521581819981 11  Z M 7.279693220198475 13.914940969940014  C 7.279693220198475 13.914940969940014  7.110429497070456 12.475461688007343  7.110429497070456 12.475461688007343  C 8.271311395404187 12.459467706799343  9.601509873338344 12.44346943561605  11.10098168466823 12.427474977744128  C 12.600453495998117 12.411480996536127  14.196618054868445 12.387498604674704  15.889570502929544 12.35551016559478  C 17.582522950990644 12.307527745306853  19.275514801149356 12.267531829016665  20.96846628818368 12.23554338993674  C 20.96846628818368 12.23554338993674  20.895889546435477 13.555071149456845  20.895889546435477 13.555071149456845  C 19.26743064395145 13.603054046408692  17.630901038644307 13.651033606713092  15.986318990022703 13.699016027001017  C 14.341736941401102 13.746998447288945  12.7777662988469 13.78697911033366  11.294417153141204 13.818967549413582  C 9.811068968462276 13.850955988493507  8.472821891320741 13.88295253086009  7.279693220198475 13.914940969940014  Z M 19.348036764371614 12.259536745068349  C 18.86433565305697 11.843687990357175  18.388742724609504 11.467833721944428  17.921165720459207 11.131955826601105  C 17.921165720459207 11.131955826601105  19.13036804484034 10.436209540766379  19.13036804484034 10.436209540766379  C 19.614068195128212 10.7560934549017  20.0977712284964 11.115948975467234  20.581472339811043 11.515803748970406  C 21.065172490098917 11.899664064601655  21.516620581951017 12.291531857443166  21.93582814768859 12.69138663094634  C 22.37115885956374 13.09124140444951  22.72590267155414 13.45111265492444  23 13.770996092395842  C 23 13.770996092395842  21.66981593746741 14.586693900643132  21.66981593746741 14.586693900643132  C 21.4279649012967 14.266810224839771  21.097427431615007 13.90693897436484  20.6782208269042 13.50708443919363  C 20.275136407304206 13.091235207818537  19.831736914659487 12.675385499779523  19.348036764371614 12.259536745068349  Z M 14 13.147214618710464  L 14 0.09595816728095646  L 15.744478525146476 0.09595816728095646  L 15.744478525146476 12.979276386034684  L 14 13.147214618710464  Z M 6.650920312662957 16.649939403015704  L 6.650920312662957 15  L 22.854908022216932 15  L 22.854908022216932 16.649939403015704  L 6.650920312662957 16.649939403015704  Z M 17.679263749869637 20.032712664908384  C 17.679263749869637 20.032712664908384  17.679263749869637 13.147214618710464  17.679263749869637 13.147214618710464  L 19.420613506119818 13.147214618710464  C 19.420613506119818 13.147214618710464  19.420613506119818 20.080699375171598  19.420613506119818 20.080699375171598  C 19.420613506119818 20.560525008042617  19.35610362308764 20.928395185568732  19.227116531933497 21.184302191752707  C 19.09812944077936 21.44020916814519  18.848199052544597 21.624129048350014  18.47736188624652 21.73608834679779  C 18.106524719948442 21.864041864785527  17.6067244881655 21.93601907019682  16.97791410058591 21.952013289736783  C 16.349102751979547 21.98400160965073  15.567117190445757 22  14.63196318214516 22  C 14.599715928843239 21.76008718356449  14.527157446603683 21.496175649528258  14.414294462613887 21.208280293638843  C 14.30143051759732 20.920384937749425  14.188568494634294 20.66448782234181  14.075705510644498 20.440569195654767  C 14.575528807069947 20.456563385403232  15.035025498129423 20.464562550786376  15.454233063866997 20.464562550786376  C 15.873440629604572 20.48055674053484  16.236233040802357 20.48055674053484  16.542576661523363 20.464562550786376  C 16.84892028224437 20.464562550786376  17.06659572896304 20.464562550786376  17.19558282011718 20.464562550786376  C 17.389062495821623 20.448568361037907  17.51808322291275 20.408572534122204  17.58257676848982 20.344595775128333  C 17.64707031406689 20.29661322077868  17.679263749869637 20.192654547497305  17.679263749869637 20.032712664908384  Z M 10.931656455826865 19.169028146397874  C 10.36733913331096 18.545254775999158  9.803029018495838 17.985465672051063  9.238711695979934 17.489645819640078  C 9.238711695979934 17.489645819640078  10.568895758512525 16.649939403015704  10.568895758512525 16.649939403015704  C 11.133213561541815 17.097776596806803  11.705571314537544 17.62558441163379  12.286012263704409 18.233363562492546  C 12.88257635900885 18.82514855339433  13.350183154989049 19.344957113463693  13.688773067985208 19.792794366837782  C 13.688773067985208 19.792794366837782  12.261840518359456 20.776445661006328  12.261840518359456 20.776445661006328  C 11.955496897638447 20.31261421788377  11.512096924480343 19.776807237673644  10.931656455826865 19.169028146397874  Z M 7.303926471256775 3.142854963822075  L 7.303926471256775 2  L 22.588834306282408 2  L 22.588834306282408 3.142854963822075  L 7.303926471256775 3.142854963822075  Z M 4.377546135970413 3.574689596454591  C 5.006357004063388 2.391119733817  5.546460536313107 1.1995638438455927  5.9979141540691385 0  C 5.9979141540691385 0  7.715030659261022 0.5038146980273394  7.715030659261022 0.5038146980273394  C 7.199083255671228 1.8633212139364743  6.586421481438646 3.206829935326239  5.876993921631025 4.534347535491529  C 5.167566361823403 5.845871154448816  4.401677518190983 7.085421857970098  3.579386493880181 8.252997262735766  C 2.75709546956938 9.420572667501435  1.9026128714452037 10.452190652048511  1.0158283616215045 11.347865516294625  C 0.9674583225670479 11.203917778766929  0.8787414965844274 11.019982704899618  0.7497546456869787 10.796064108004071  C 0.6368911811837978 10.572145511108523  0.5079324102873152 10.348230250860421  0.36282220302768564 10.124311177300951  C 0.2338353821623236 9.884398599197402  0.1128634945352675 9.700463048666172  0 9.572509769010397  C 0.8061676379165341 8.788794203212056  1.58010484049964 7.885132358304283  2.3217791730957966 6.861504691066312  C 3.0634535056919527 5.837876547164422  3.748735267877438 4.742265477884181  4.377546135970413 3.574689596454591  Z M 3.4826995125003672 21.928019934605178  L 3.4826995125003672 6.1657584052315855  L 5.199816017692252 4.462367470096705  L 5.223987763037206 4.486360825228314  L 5.223987763037206 21.928019934605178  L 3.4826995125003672 21.928019934605178  Z " fill-rule="nonzero" fill="rgba(0, 0, 0, 1)" stroke="none" transform="matrix(1 0 0 1 837 643 )" class="fill" />
    <path d="M 19.88012269052732 8.252997262735766  L 9.964233090608612 8.252997262735766  L 9.964233090608612 9.764441356817784  L 19.88012269052732 9.764441356817784  L 19.88012269052732 8.252997262735766  Z " stroke-width="0" stroke-dasharray="0" stroke="rgba(121, 121, 121, 1)" fill="none" transform="matrix(1 0 0 1 837 643 )" class="stroke" mask="url(#Clip4921)" />
    <path d="M 19.88012269052732 5.637950352072639  L 9.964233090608612 5.637950352072639  L 9.964233090608612 7.149394446154657  L 19.88012269052732 7.149394446154657  L 19.88012269052732 5.637950352072639  Z " stroke-width="0" stroke-dasharray="0" stroke="rgba(121, 121, 121, 1)" fill="none" transform="matrix(1 0 0 1 837 643 )" class="stroke" mask="url(#Clip4921)" />
    <path d="M 8.295521581819981 11  L 8.295521581819981 4.510354180359921  L 21.621472446777503 4.510354180359921  L 21.621472446777503 11  L 8.295521581819981 11  Z " stroke-width="0" stroke-dasharray="0" stroke="rgba(121, 121, 121, 1)" fill="none" transform="matrix(1 0 0 1 837 643 )" class="stroke" mask="url(#Clip4921)" />
    <path d="M 7.279693220198475 13.914940969940014  C 7.279693220198475 13.914940969940014  7.110429497070456 12.475461688007343  7.110429497070456 12.475461688007343  C 8.271311395404187 12.459467706799343  9.601509873338344 12.44346943561605  11.10098168466823 12.427474977744128  C 12.600453495998117 12.411480996536127  14.196618054868445 12.387498604674704  15.889570502929544 12.35551016559478  C 17.582522950990644 12.307527745306853  19.275514801149356 12.267531829016665  20.96846628818368 12.23554338993674  C 20.96846628818368 12.23554338993674  20.895889546435477 13.555071149456845  20.895889546435477 13.555071149456845  C 19.26743064395145 13.603054046408692  17.630901038644307 13.651033606713092  15.986318990022703 13.699016027001017  C 14.341736941401102 13.746998447288945  12.7777662988469 13.78697911033366  11.294417153141204 13.818967549413582  C 9.811068968462276 13.850955988493507  8.472821891320741 13.88295253086009  7.279693220198475 13.914940969940014  Z " stroke-width="0" stroke-dasharray="0" stroke="rgba(121, 121, 121, 1)" fill="none" transform="matrix(1 0 0 1 837 643 )" class="stroke" mask="url(#Clip4921)" />
    <path d="M 19.348036764371614 12.259536745068349  C 18.86433565305697 11.843687990357175  18.388742724609504 11.467833721944428  17.921165720459207 11.131955826601105  C 17.921165720459207 11.131955826601105  19.13036804484034 10.436209540766379  19.13036804484034 10.436209540766379  C 19.614068195128212 10.7560934549017  20.0977712284964 11.115948975467234  20.581472339811043 11.515803748970406  C 21.065172490098917 11.899664064601655  21.516620581951017 12.291531857443166  21.93582814768859 12.69138663094634  C 22.37115885956374 13.09124140444951  22.72590267155414 13.45111265492444  23 13.770996092395842  C 23 13.770996092395842  21.66981593746741 14.586693900643132  21.66981593746741 14.586693900643132  C 21.4279649012967 14.266810224839771  21.097427431615007 13.90693897436484  20.6782208269042 13.50708443919363  C 20.275136407304206 13.091235207818537  19.831736914659487 12.675385499779523  19.348036764371614 12.259536745068349  Z " stroke-width="0" stroke-dasharray="0" stroke="rgba(121, 121, 121, 1)" fill="none" transform="matrix(1 0 0 1 837 643 )" class="stroke" mask="url(#Clip4921)" />
    <path d="M 14 13.147214618710464  L 14 0.09595816728095646  L 15.744478525146476 0.09595816728095646  L 15.744478525146476 12.979276386034684  L 14 13.147214618710464  Z " stroke-width="0" stroke-dasharray="0" stroke="rgba(121, 121, 121, 1)" fill="none" transform="matrix(1 0 0 1 837 643 )" class="stroke" mask="url(#Clip4921)" />
    <path d="M 6.650920312662957 16.649939403015704  L 6.650920312662957 15  L 22.854908022216932 15  L 22.854908022216932 16.649939403015704  L 6.650920312662957 16.649939403015704  Z " stroke-width="0" stroke-dasharray="0" stroke="rgba(121, 121, 121, 1)" fill="none" transform="matrix(1 0 0 1 837 643 )" class="stroke" mask="url(#Clip4921)" />
    <path d="M 17.679263749869637 20.032712664908384  C 17.679263749869637 20.032712664908384  17.679263749869637 13.147214618710464  17.679263749869637 13.147214618710464  L 19.420613506119818 13.147214618710464  C 19.420613506119818 13.147214618710464  19.420613506119818 20.080699375171598  19.420613506119818 20.080699375171598  C 19.420613506119818 20.560525008042617  19.35610362308764 20.928395185568732  19.227116531933497 21.184302191752707  C 19.09812944077936 21.44020916814519  18.848199052544597 21.624129048350014  18.47736188624652 21.73608834679779  C 18.106524719948442 21.864041864785527  17.6067244881655 21.93601907019682  16.97791410058591 21.952013289736783  C 16.349102751979547 21.98400160965073  15.567117190445757 22  14.63196318214516 22  C 14.599715928843239 21.76008718356449  14.527157446603683 21.496175649528258  14.414294462613887 21.208280293638843  C 14.30143051759732 20.920384937749425  14.188568494634294 20.66448782234181  14.075705510644498 20.440569195654767  C 14.575528807069947 20.456563385403232  15.035025498129423 20.464562550786376  15.454233063866997 20.464562550786376  C 15.873440629604572 20.48055674053484  16.236233040802357 20.48055674053484  16.542576661523363 20.464562550786376  C 16.84892028224437 20.464562550786376  17.06659572896304 20.464562550786376  17.19558282011718 20.464562550786376  C 17.389062495821623 20.448568361037907  17.51808322291275 20.408572534122204  17.58257676848982 20.344595775128333  C 17.64707031406689 20.29661322077868  17.679263749869637 20.192654547497305  17.679263749869637 20.032712664908384  Z " stroke-width="0" stroke-dasharray="0" stroke="rgba(121, 121, 121, 1)" fill="none" transform="matrix(1 0 0 1 837 643 )" class="stroke" mask="url(#Clip4921)" />
    <path d="M 10.931656455826865 19.169028146397874  C 10.36733913331096 18.545254775999158  9.803029018495838 17.985465672051063  9.238711695979934 17.489645819640078  C 9.238711695979934 17.489645819640078  10.568895758512525 16.649939403015704  10.568895758512525 16.649939403015704  C 11.133213561541815 17.097776596806803  11.705571314537544 17.62558441163379  12.286012263704409 18.233363562492546  C 12.88257635900885 18.82514855339433  13.350183154989049 19.344957113463693  13.688773067985208 19.792794366837782  C 13.688773067985208 19.792794366837782  12.261840518359456 20.776445661006328  12.261840518359456 20.776445661006328  C 11.955496897638447 20.31261421788377  11.512096924480343 19.776807237673644  10.931656455826865 19.169028146397874  Z " stroke-width="0" stroke-dasharray="0" stroke="rgba(121, 121, 121, 1)" fill="none" transform="matrix(1 0 0 1 837 643 )" class="stroke" mask="url(#Clip4921)" />
    <path d="M 7.303926471256775 3.142854963822075  L 7.303926471256775 2  L 22.588834306282408 2  L 22.588834306282408 3.142854963822075  L 7.303926471256775 3.142854963822075  Z " stroke-width="0" stroke-dasharray="0" stroke="rgba(121, 121, 121, 1)" fill="none" transform="matrix(1 0 0 1 837 643 )" class="stroke" mask="url(#Clip4921)" />
    <path d="M 4.377546135970413 3.574689596454591  C 5.006357004063388 2.391119733817  5.546460536313107 1.1995638438455927  5.9979141540691385 0  C 5.9979141540691385 0  7.715030659261022 0.5038146980273394  7.715030659261022 0.5038146980273394  C 7.199083255671228 1.8633212139364743  6.586421481438646 3.206829935326239  5.876993921631025 4.534347535491529  C 5.167566361823403 5.845871154448816  4.401677518190983 7.085421857970098  3.579386493880181 8.252997262735766  C 2.75709546956938 9.420572667501435  1.9026128714452037 10.452190652048511  1.0158283616215045 11.347865516294625  C 0.9674583225670479 11.203917778766929  0.8787414965844274 11.019982704899618  0.7497546456869787 10.796064108004071  C 0.6368911811837978 10.572145511108523  0.5079324102873152 10.348230250860421  0.36282220302768564 10.124311177300951  C 0.2338353821623236 9.884398599197402  0.1128634945352675 9.700463048666172  0 9.572509769010397  C 0.8061676379165341 8.788794203212056  1.58010484049964 7.885132358304283  2.3217791730957966 6.861504691066312  C 3.0634535056919527 5.837876547164422  3.748735267877438 4.742265477884181  4.377546135970413 3.574689596454591  Z " stroke-width="0" stroke-dasharray="0" stroke="rgba(121, 121, 121, 1)" fill="none" transform="matrix(1 0 0 1 837 643 )" class="stroke" mask="url(#Clip4921)" />
    <path d="M 3.4826995125003672 21.928019934605178  L 3.4826995125003672 6.1657584052315855  L 5.199816017692252 4.462367470096705  L 5.223987763037206 4.486360825228314  L 5.223987763037206 21.928019934605178  L 3.4826995125003672 21.928019934605178  Z " stroke-width="0" stroke-dasharray="0" stroke="rgba(121, 121, 121, 1)" fill="none" transform="matrix(1 0 0 1 837 643 )" class="stroke" mask="url(#Clip4921)" />
  </g>
</svg>