<?xml version="1.0" encoding="utf-8"?>
<svg version="1.1" xmlns:xlink="http://www.w3.org/1999/xlink" width="23px" height="22px" xmlns="http://www.w3.org/2000/svg">
  <defs>
    <pattern id="BGPattern" patternUnits="userSpaceOnUse" alignment="0 0" imageRepeat="None" />
    <mask fill="white" id="Clip4950">
      <path d="M 4.997869988840244 2.6572376167619765  L 4.997869988840244 0  L 6.671929993990901 0  L 6.671929993990901 2.6572376167619765  L 4.997869988840244 2.6572376167619765  Z M 0.9461783200274702 3.231779182019313  L 0.9461783200274702 1.8193740132912521  L 10.747869988840245 1.8193740132912521  L 10.747869988840245 3.231779182019313  L 0.9461783200274702 3.231779182019313  Z M 0.4124066443471543 7.397171285028593  L 0.4124066443471543 6  L 10.966228324319683 6  L 10.966228324319683 7.397171285028593  L 0.4124066443471543 7.397171285028593  Z M 11.548496652073139 7.397171285028593  L 11.548496652073139 6  L 22.611841681689416 6  L 22.611841681689416 7.397171285028593  L 11.548496652073139 7.397171285028593  Z M 15.89135333505022 2.6572376167619765  L 15.89135333505022 0  L 17.613909992274017 0  L 17.613909992274017 2.6572376167619765  L 15.89135333505022 2.6572376167619765  Z M 11.888158318310584 3.231779182019313  L 11.888158318310584 2  L 22.175125010730536 2  L 22.175125010730536 3.231779182019313  L 11.888158318310584 3.231779182019313  Z M 8.370238325178127 10.078350036182202  L 3.129699974246716 10.078350036182202  L 3.129699974246716 13.046791959940835  L 8.370238325178127 13.046791959940835  L 8.370238325178127 10.078350036182202  Z M 1.5284466477809253 14.48313826306053  L 1.5284466477809253 8.642003733062507  L 10.044298330328784 8.642003733062507  L 10.044298330328784 14.48313826306053  L 1.5284466477809253 14.48313826306053  Z M 19.627631663662118 10.054408901790568  L 14.071741673104988 10.054408901790568  L 14.071741673104988 13.118600143068445  L 19.627631663662118 13.118600143068445  L 19.627631663662118 10.054408901790568  Z M 12.397681667954332 14.554946446188138  L 12.397681667954332 8.642003733062507  L 21.37449834749764 8.642003733062507  L 21.37449834749764 14.554946446188138  L 12.397681667954332 14.554946446188138  Z M 6.574874989269466 19.773672362192848  L 6.574874989269466 14.076169418497338  L 8.200438342346983 14.076169418497338  L 8.200438342346983 19.151248528152244  L 6.574874989269466 19.773672362192848  Z M 6.356516653790024 20.77910868635772  C 6.356516653790024 20.77910868635772  5.871303330758004 19.17518966254388  5.871303330758004 19.17518966254388  C 6.518281100778501 18.983677115430915  7.278460626817485 18.736303546461272  8.151879989698687 18.4330753765924  C 9.04147406195006 18.11388779807079  9.963440208621716 17.786727055086885  10.917731672246545 17.451580186819164  C 10.917731672246545 17.451580186819164  11.208834985835693 18.93579353867483  11.208834985835693 18.93579353867483  C 10.367764077623347 19.270940466395864  9.534796190257747 19.590134644234855  8.709899991415572 19.893362814103728  C 7.8850037925733965 20.196590983972598  7.100540751888574 20.491839895414927  6.356516653790024 20.77910868635772  Z M 2.8870933127307064 4.787815937049884  C 2.7415233385778826 4.277115811415312  2.571724922362904 3.8063140885059585  2.377631663662117 3.3754107683218235  C 2.377631663662117 3.3754107683218235  3.7847749806850373 3.088132375669509  3.7847749806850373 3.088132375669509  C 3.995042587229188 3.5190356958536437  4.1729766822125285 3.9898374187629977  4.318546656365353 4.50053754439757  C 4.480291098870477 4.995278499192645  4.5854368325272015 5.42618657564156  4.633959996566229 5.793252261214754  C 4.633959996566229 5.793252261214754  3.1540100008584426 6.1044565682114085  3.1540100008584426 6.1044565682114085  C 3.1216613051717155 5.7373908826382145  3.0326632868835306 5.298516062684456  2.8870933127307064 4.787815937049884  Z M 7.399811679114087 4.42872936126996  C 7.593904817305939 3.9020700647958924  7.739420321419757 3.431267390633583  7.836466649497812 3.0163241925418998  C 7.836466649497812 3.0163241925418998  9.389223323890462 3.399351902713458  9.389223323890462 3.399351902713458  C 9.195130185698611 3.9100520283480296  9.009122233031 4.404783470613547  8.831203322173577 4.8835652545691275  C 8.669459120686325 5.362346087271751  8.499660583962411 5.785273151421483  8.321741673104988 6.152338836994677  C 8.321741673104988 6.152338836994677  6.914536655506911 5.793252261214754  6.914536655506911 5.793252261214754  C 7.060106629659734 5.410227404802063  7.221892768256663 4.955389608996985  7.399811679114087 4.42872936126996  Z M 13.80488668555241 4.8117570714415185  C 13.659316711399583 4.28509777496745  13.481382857434113 3.8063140885059585  13.271115009872092 3.3754107683218235  C 13.271115009872092 3.3754107683218235  14.702568353506738 3.040265326933534  14.702568353506738 3.040265326933534  C 14.92901042840319 3.455208525025217  15.123092479772941 3.92601024793457  15.284836681260195 4.452670495661595  C 15.46275607415336 4.963370621296167  15.584049764196498 5.410227404802063  15.64874667353421 5.793252261214754  C 15.64874667353421 5.793252261214754  14.120238325178127 6.152338836994677  14.120238325178127 6.152338836994677  C 14.071714679103357 5.785273151421483  13.96663088703966 5.3384163679155865  13.80488668555241 4.8117570714415185  Z M 18.487343334191777 4.356905958095059  C 18.6976111817538 3.814286539528538  18.867471901088614 3.343484816619185  18.996866683835524 2.9445007893669985  C 18.996866683835524 2.9445007893669985  20.646616662374452 3.3514696339301895  20.646616662374452 3.3514696339301895  C 20.404000360143574 3.8462096374723096  20.169487078759445 4.348923994542921  19.94304500386299 4.859624120177493  C 19.716602928966545 5.354365074972569  19.498237844986694 5.785273151421483  19.28796999742467 6.152338836994677  C 19.28796999742467 6.152338836994677  17.880826680401753 5.769311126823119  17.880826680401753 5.769311126823119  C 18.074920300629348 5.370326148317977  18.277075486629755 4.899524425408624  18.487343334191777 4.356905958095059  Z M 13.392418340630098 17.068552476647607  C 13.65120983426689 16.222705482745308  13.812933790252918 15.249189878391823  13.877631663662116 14.147992821672242  C 13.877631663662116 14.147992821672242  15.503195016739635 14.147992821672242  15.503195016739635 14.147992821672242  C 15.42232291599601 15.456661715250902  15.228179164051099 16.613712183803518  14.920864988411024 17.619152907513307  C 14.629725040105374 18.624593750129716  14.136415444727014 19.48639515860673  13.440914992703235 20.204567121100382  C 12.761588768013885 20.922739083594035  11.791118256697196 21.52121875112421  10.529511653360803 22  C 10.432465325282749 21.79252816314092  10.286888120593774 21.553136260456863  10.092794982401923 21.28182684844015  C 9.898701362174329 21.01051743642344  9.712755110081874 20.803052644781566  9.534836681260195 20.659418234446843  C 10.667047055742445 20.27639319967422  11.532372556456027 19.78962772802052  12.130826680401752 19.199130796935513  C 12.729280804347475 18.608633806397194  13.14980203839922 17.898439942990546  13.392418340630098 17.068552476647607  Z M 2.8143483346209974 16.948862024736727  C 2.992267245478421 16.103015030834435  3.105486836819416 15.14544742009821  3.1540100008584426 14.076169418497338  C 3.1540100008584426 14.076169418497338  4.755263327324234 14.076169418497338  4.755263327324234 14.076169418497338  C 4.690565453915036 15.336960086117795  4.544988731261804 16.470080597501006  4.318546656365353 17.4755213212108  C 4.108279049821202 18.46500263626785  3.7524725604296774 19.33478594884369  3.251065005579878 20.084876669189505  C 2.7496574507300786 20.83496738953532  2.021773475937111 21.465358739973794  1.0674816507854752 21.976058865608366  C 1.0027838978852128 21.848383834199723  0.9057737827423826 21.696776110769427  0.776378337196326 21.5212229723092  C 0.6631572997481007 21.361629183048397  0.533728232208941 21.20202451383191  0.38815831831058456 21.042430724571105  C 0.2587628125100599 20.89879634396304  0.12939550580052472 20.779100422347664  0 20.683344148791182  C 0.8410706671944749 20.268400356166403  1.4718213064577028 19.74972308269778  1.8923566400549403 19.12730739376061  C 2.3290665625134133 18.50489170482344  2.636429664781446 17.778749728892905  2.8143483346209974 16.948862024736727  Z M 17.298558352648296 19.51033510393217  C 17.298558352648296 19.51033510393217  17.298558352648296 14.100110552888973  17.298558352648296 14.100110552888973  L 18.948308331187228 14.100110552888973  C 18.948308331187228 14.100110552888973  18.948308331187228 19.51033510393217  18.948308331187228 19.51033510393217  C 18.948308331187228 19.60609137748865  18.956444130464526 19.68589371209689  18.972618357798954 19.749731227801213  C 19.004967776539296 19.81356872864221  19.05347310525582 19.861444056251564  19.118170014593527 19.893362814103728  C 19.26373998874635 19.973159693870798  19.44167384271182 20.0130532660146  19.651941690273844 20.0130532660146  C 19.748988982423384 20.0130532660146  19.878355807097176 20.0130532660146  20.040100008584428 20.0130532660146  C 20.21801843740611 20.0130532660146  20.36359516005934 20.0130532660146  20.476816679543308 20.0130532660146  C 20.784130855183385 20.0130532660146  21.010570037865374 19.973159693870798  21.1561400120182 19.893362814103728  C 21.204662694021483 19.845484677325484  21.261242121440144 19.78164583878502  21.325939994849342 19.701848959017948  C 21.39063786825854 19.622052064387546  21.431130798848077 19.51831965370328  21.447305026182505 19.39064465202129  C 21.479654444922847 19.183172755708902  21.503875776957784 18.863978577869915  21.520050004292216 18.4330753765924  C 21.55239845896107 17.98621288556877  21.56047255766321 17.49148096767677  21.544298330328786 16.948862024736727  C 21.706042531816035 17.092496464798106  21.924407615795882 17.244104188228402  22.199373336767106 17.403697918035895  C 22.49051328507275 17.56329176675001  22.75738369776912 17.675005843719862  23 17.738843359424184  C 22.983825772665572 18.313380881856457  22.95153034192849 18.871966902926193  22.903006695853723 19.414585786412925  C 22.85448401385044 19.941245201793613  22.797842885856618 20.30829951692132  22.73314501244742 20.515771428097036  C 22.587575038294595 20.946674629374552  22.32877872430037 21.257887081474642  21.956766675251092 21.4493995691343  C 21.81119670109827 21.529196434038045  21.617114649728517 21.59303531716849  21.37449834749764 21.640913424220077  C 21.131881081195274 21.68879165017828  20.88923296460533 21.712736827394977  20.646616662374452 21.712736827394977  C 20.4848724608872 21.712736827394977  20.250359179503068 21.712736827394977  19.94304500386299 21.712736827394977  C 19.635730828222915 21.712736827394977  19.409291645540925 21.712736827394977  19.2637216713881 21.712736827394977  C 19.00493017775131 21.712736827394977  18.73805976505494 21.680809805532764  18.463095008155207 21.616972289828443  C 18.204303514518415 21.55313477412412  17.977864331836425 21.449402422893165  17.783771675680317 21.305767982831785  C 17.605852282787147 21.130214844371558  17.476485458113356 20.922734802955734  17.395613357369733 20.683344148791182  C 17.33091548396053 20.44395350948996  17.298558352648296 20.052953927965593  17.298558352648296 19.51033510393217  Z " fill-rule="evenodd" />
    </mask>
  </defs>
  <g transform="matrix(1 0 0 1 -707 -612 )">
    <path d="M 4.997869988840244 2.6572376167619765  L 4.997869988840244 0  L 6.671929993990901 0  L 6.671929993990901 2.6572376167619765  L 4.997869988840244 2.6572376167619765  Z M 0.9461783200274702 3.231779182019313  L 0.9461783200274702 1.8193740132912521  L 10.747869988840245 1.8193740132912521  L 10.747869988840245 3.231779182019313  L 0.9461783200274702 3.231779182019313  Z M 0.4124066443471543 7.397171285028593  L 0.4124066443471543 6  L 10.966228324319683 6  L 10.966228324319683 7.397171285028593  L 0.4124066443471543 7.397171285028593  Z M 11.548496652073139 7.397171285028593  L 11.548496652073139 6  L 22.611841681689416 6  L 22.611841681689416 7.397171285028593  L 11.548496652073139 7.397171285028593  Z M 15.89135333505022 2.6572376167619765  L 15.89135333505022 0  L 17.613909992274017 0  L 17.613909992274017 2.6572376167619765  L 15.89135333505022 2.6572376167619765  Z M 11.888158318310584 3.231779182019313  L 11.888158318310584 2  L 22.175125010730536 2  L 22.175125010730536 3.231779182019313  L 11.888158318310584 3.231779182019313  Z M 8.370238325178127 10.078350036182202  L 3.129699974246716 10.078350036182202  L 3.129699974246716 13.046791959940835  L 8.370238325178127 13.046791959940835  L 8.370238325178127 10.078350036182202  Z M 1.5284466477809253 14.48313826306053  L 1.5284466477809253 8.642003733062507  L 10.044298330328784 8.642003733062507  L 10.044298330328784 14.48313826306053  L 1.5284466477809253 14.48313826306053  Z M 19.627631663662118 10.054408901790568  L 14.071741673104988 10.054408901790568  L 14.071741673104988 13.118600143068445  L 19.627631663662118 13.118600143068445  L 19.627631663662118 10.054408901790568  Z M 12.397681667954332 14.554946446188138  L 12.397681667954332 8.642003733062507  L 21.37449834749764 8.642003733062507  L 21.37449834749764 14.554946446188138  L 12.397681667954332 14.554946446188138  Z M 6.574874989269466 19.773672362192848  L 6.574874989269466 14.076169418497338  L 8.200438342346983 14.076169418497338  L 8.200438342346983 19.151248528152244  L 6.574874989269466 19.773672362192848  Z M 6.356516653790024 20.77910868635772  C 6.356516653790024 20.77910868635772  5.871303330758004 19.17518966254388  5.871303330758004 19.17518966254388  C 6.518281100778501 18.983677115430915  7.278460626817485 18.736303546461272  8.151879989698687 18.4330753765924  C 9.04147406195006 18.11388779807079  9.963440208621716 17.786727055086885  10.917731672246545 17.451580186819164  C 10.917731672246545 17.451580186819164  11.208834985835693 18.93579353867483  11.208834985835693 18.93579353867483  C 10.367764077623347 19.270940466395864  9.534796190257747 19.590134644234855  8.709899991415572 19.893362814103728  C 7.8850037925733965 20.196590983972598  7.100540751888574 20.491839895414927  6.356516653790024 20.77910868635772  Z M 2.8870933127307064 4.787815937049884  C 2.7415233385778826 4.277115811415312  2.571724922362904 3.8063140885059585  2.377631663662117 3.3754107683218235  C 2.377631663662117 3.3754107683218235  3.7847749806850373 3.088132375669509  3.7847749806850373 3.088132375669509  C 3.995042587229188 3.5190356958536437  4.1729766822125285 3.9898374187629977  4.318546656365353 4.50053754439757  C 4.480291098870477 4.995278499192645  4.5854368325272015 5.42618657564156  4.633959996566229 5.793252261214754  C 4.633959996566229 5.793252261214754  3.1540100008584426 6.1044565682114085  3.1540100008584426 6.1044565682114085  C 3.1216613051717155 5.7373908826382145  3.0326632868835306 5.298516062684456  2.8870933127307064 4.787815937049884  Z M 7.399811679114087 4.42872936126996  C 7.593904817305939 3.9020700647958924  7.739420321419757 3.431267390633583  7.836466649497812 3.0163241925418998  C 7.836466649497812 3.0163241925418998  9.389223323890462 3.399351902713458  9.389223323890462 3.399351902713458  C 9.195130185698611 3.9100520283480296  9.009122233031 4.404783470613547  8.831203322173577 4.8835652545691275  C 8.669459120686325 5.362346087271751  8.499660583962411 5.785273151421483  8.321741673104988 6.152338836994677  C 8.321741673104988 6.152338836994677  6.914536655506911 5.793252261214754  6.914536655506911 5.793252261214754  C 7.060106629659734 5.410227404802063  7.221892768256663 4.955389608996985  7.399811679114087 4.42872936126996  Z M 13.80488668555241 4.8117570714415185  C 13.659316711399583 4.28509777496745  13.481382857434113 3.8063140885059585  13.271115009872092 3.3754107683218235  C 13.271115009872092 3.3754107683218235  14.702568353506738 3.040265326933534  14.702568353506738 3.040265326933534  C 14.92901042840319 3.455208525025217  15.123092479772941 3.92601024793457  15.284836681260195 4.452670495661595  C 15.46275607415336 4.963370621296167  15.584049764196498 5.410227404802063  15.64874667353421 5.793252261214754  C 15.64874667353421 5.793252261214754  14.120238325178127 6.152338836994677  14.120238325178127 6.152338836994677  C 14.071714679103357 5.785273151421483  13.96663088703966 5.3384163679155865  13.80488668555241 4.8117570714415185  Z M 18.487343334191777 4.356905958095059  C 18.6976111817538 3.814286539528538  18.867471901088614 3.343484816619185  18.996866683835524 2.9445007893669985  C 18.996866683835524 2.9445007893669985  20.646616662374452 3.3514696339301895  20.646616662374452 3.3514696339301895  C 20.404000360143574 3.8462096374723096  20.169487078759445 4.348923994542921  19.94304500386299 4.859624120177493  C 19.716602928966545 5.354365074972569  19.498237844986694 5.785273151421483  19.28796999742467 6.152338836994677  C 19.28796999742467 6.152338836994677  17.880826680401753 5.769311126823119  17.880826680401753 5.769311126823119  C 18.074920300629348 5.370326148317977  18.277075486629755 4.899524425408624  18.487343334191777 4.356905958095059  Z M 13.392418340630098 17.068552476647607  C 13.65120983426689 16.222705482745308  13.812933790252918 15.249189878391823  13.877631663662116 14.147992821672242  C 13.877631663662116 14.147992821672242  15.503195016739635 14.147992821672242  15.503195016739635 14.147992821672242  C 15.42232291599601 15.456661715250902  15.228179164051099 16.613712183803518  14.920864988411024 17.619152907513307  C 14.629725040105374 18.624593750129716  14.136415444727014 19.48639515860673  13.440914992703235 20.204567121100382  C 12.761588768013885 20.922739083594035  11.791118256697196 21.52121875112421  10.529511653360803 22  C 10.432465325282749 21.79252816314092  10.286888120593774 21.553136260456863  10.092794982401923 21.28182684844015  C 9.898701362174329 21.01051743642344  9.712755110081874 20.803052644781566  9.534836681260195 20.659418234446843  C 10.667047055742445 20.27639319967422  11.532372556456027 19.78962772802052  12.130826680401752 19.199130796935513  C 12.729280804347475 18.608633806397194  13.14980203839922 17.898439942990546  13.392418340630098 17.068552476647607  Z M 2.8143483346209974 16.948862024736727  C 2.992267245478421 16.103015030834435  3.105486836819416 15.14544742009821  3.1540100008584426 14.076169418497338  C 3.1540100008584426 14.076169418497338  4.755263327324234 14.076169418497338  4.755263327324234 14.076169418497338  C 4.690565453915036 15.336960086117795  4.544988731261804 16.470080597501006  4.318546656365353 17.4755213212108  C 4.108279049821202 18.46500263626785  3.7524725604296774 19.33478594884369  3.251065005579878 20.084876669189505  C 2.7496574507300786 20.83496738953532  2.021773475937111 21.465358739973794  1.0674816507854752 21.976058865608366  C 1.0027838978852128 21.848383834199723  0.9057737827423826 21.696776110769427  0.776378337196326 21.5212229723092  C 0.6631572997481007 21.361629183048397  0.533728232208941 21.20202451383191  0.38815831831058456 21.042430724571105  C 0.2587628125100599 20.89879634396304  0.12939550580052472 20.779100422347664  0 20.683344148791182  C 0.8410706671944749 20.268400356166403  1.4718213064577028 19.74972308269778  1.8923566400549403 19.12730739376061  C 2.3290665625134133 18.50489170482344  2.636429664781446 17.778749728892905  2.8143483346209974 16.948862024736727  Z M 17.298558352648296 19.51033510393217  C 17.298558352648296 19.51033510393217  17.298558352648296 14.100110552888973  17.298558352648296 14.100110552888973  L 18.948308331187228 14.100110552888973  C 18.948308331187228 14.100110552888973  18.948308331187228 19.51033510393217  18.948308331187228 19.51033510393217  C 18.948308331187228 19.60609137748865  18.956444130464526 19.68589371209689  18.972618357798954 19.749731227801213  C 19.004967776539296 19.81356872864221  19.05347310525582 19.861444056251564  19.118170014593527 19.893362814103728  C 19.26373998874635 19.973159693870798  19.44167384271182 20.0130532660146  19.651941690273844 20.0130532660146  C 19.748988982423384 20.0130532660146  19.878355807097176 20.0130532660146  20.040100008584428 20.0130532660146  C 20.21801843740611 20.0130532660146  20.36359516005934 20.0130532660146  20.476816679543308 20.0130532660146  C 20.784130855183385 20.0130532660146  21.010570037865374 19.973159693870798  21.1561400120182 19.893362814103728  C 21.204662694021483 19.845484677325484  21.261242121440144 19.78164583878502  21.325939994849342 19.701848959017948  C 21.39063786825854 19.622052064387546  21.431130798848077 19.51831965370328  21.447305026182505 19.39064465202129  C 21.479654444922847 19.183172755708902  21.503875776957784 18.863978577869915  21.520050004292216 18.4330753765924  C 21.55239845896107 17.98621288556877  21.56047255766321 17.49148096767677  21.544298330328786 16.948862024736727  C 21.706042531816035 17.092496464798106  21.924407615795882 17.244104188228402  22.199373336767106 17.403697918035895  C 22.49051328507275 17.56329176675001  22.75738369776912 17.675005843719862  23 17.738843359424184  C 22.983825772665572 18.313380881856457  22.95153034192849 18.871966902926193  22.903006695853723 19.414585786412925  C 22.85448401385044 19.941245201793613  22.797842885856618 20.30829951692132  22.73314501244742 20.515771428097036  C 22.587575038294595 20.946674629374552  22.32877872430037 21.257887081474642  21.956766675251092 21.4493995691343  C 21.81119670109827 21.529196434038045  21.617114649728517 21.59303531716849  21.37449834749764 21.640913424220077  C 21.131881081195274 21.68879165017828  20.88923296460533 21.712736827394977  20.646616662374452 21.712736827394977  C 20.4848724608872 21.712736827394977  20.250359179503068 21.712736827394977  19.94304500386299 21.712736827394977  C 19.635730828222915 21.712736827394977  19.409291645540925 21.712736827394977  19.2637216713881 21.712736827394977  C 19.00493017775131 21.712736827394977  18.73805976505494 21.680809805532764  18.463095008155207 21.616972289828443  C 18.204303514518415 21.55313477412412  17.977864331836425 21.449402422893165  17.783771675680317 21.305767982831785  C 17.605852282787147 21.130214844371558  17.476485458113356 20.922734802955734  17.395613357369733 20.683344148791182  C 17.33091548396053 20.44395350948996  17.298558352648296 20.052953927965593  17.298558352648296 19.51033510393217  Z " fill-rule="nonzero" fill="rgba(0, 0, 0, 1)" stroke="none" transform="matrix(1 0 0 1 707 612 )" class="fill" />
    <path d="M 4.997869988840244 2.6572376167619765  L 4.997869988840244 0  L 6.671929993990901 0  L 6.671929993990901 2.6572376167619765  L 4.997869988840244 2.6572376167619765  Z " stroke-width="0" stroke-dasharray="0" stroke="rgba(121, 121, 121, 1)" fill="none" transform="matrix(1 0 0 1 707 612 )" class="stroke" mask="url(#Clip4950)" />
    <path d="M 0.9461783200274702 3.231779182019313  L 0.9461783200274702 1.8193740132912521  L 10.747869988840245 1.8193740132912521  L 10.747869988840245 3.231779182019313  L 0.9461783200274702 3.231779182019313  Z " stroke-width="0" stroke-dasharray="0" stroke="rgba(121, 121, 121, 1)" fill="none" transform="matrix(1 0 0 1 707 612 )" class="stroke" mask="url(#Clip4950)" />
    <path d="M 0.4124066443471543 7.397171285028593  L 0.4124066443471543 6  L 10.966228324319683 6  L 10.966228324319683 7.397171285028593  L 0.4124066443471543 7.397171285028593  Z " stroke-width="0" stroke-dasharray="0" stroke="rgba(121, 121, 121, 1)" fill="none" transform="matrix(1 0 0 1 707 612 )" class="stroke" mask="url(#Clip4950)" />
    <path d="M 11.548496652073139 7.397171285028593  L 11.548496652073139 6  L 22.611841681689416 6  L 22.611841681689416 7.397171285028593  L 11.548496652073139 7.397171285028593  Z " stroke-width="0" stroke-dasharray="0" stroke="rgba(121, 121, 121, 1)" fill="none" transform="matrix(1 0 0 1 707 612 )" class="stroke" mask="url(#Clip4950)" />
    <path d="M 15.89135333505022 2.6572376167619765  L 15.89135333505022 0  L 17.613909992274017 0  L 17.613909992274017 2.6572376167619765  L 15.89135333505022 2.6572376167619765  Z " stroke-width="0" stroke-dasharray="0" stroke="rgba(121, 121, 121, 1)" fill="none" transform="matrix(1 0 0 1 707 612 )" class="stroke" mask="url(#Clip4950)" />
    <path d="M 11.888158318310584 3.231779182019313  L 11.888158318310584 2  L 22.175125010730536 2  L 22.175125010730536 3.231779182019313  L 11.888158318310584 3.231779182019313  Z " stroke-width="0" stroke-dasharray="0" stroke="rgba(121, 121, 121, 1)" fill="none" transform="matrix(1 0 0 1 707 612 )" class="stroke" mask="url(#Clip4950)" />
    <path d="M 8.370238325178127 10.078350036182202  L 3.129699974246716 10.078350036182202  L 3.129699974246716 13.046791959940835  L 8.370238325178127 13.046791959940835  L 8.370238325178127 10.078350036182202  Z " stroke-width="0" stroke-dasharray="0" stroke="rgba(121, 121, 121, 1)" fill="none" transform="matrix(1 0 0 1 707 612 )" class="stroke" mask="url(#Clip4950)" />
    <path d="M 1.5284466477809253 14.48313826306053  L 1.5284466477809253 8.642003733062507  L 10.044298330328784 8.642003733062507  L 10.044298330328784 14.48313826306053  L 1.5284466477809253 14.48313826306053  Z " stroke-width="0" stroke-dasharray="0" stroke="rgba(121, 121, 121, 1)" fill="none" transform="matrix(1 0 0 1 707 612 )" class="stroke" mask="url(#Clip4950)" />
    <path d="M 19.627631663662118 10.054408901790568  L 14.071741673104988 10.054408901790568  L 14.071741673104988 13.118600143068445  L 19.627631663662118 13.118600143068445  L 19.627631663662118 10.054408901790568  Z " stroke-width="0" stroke-dasharray="0" stroke="rgba(121, 121, 121, 1)" fill="none" transform="matrix(1 0 0 1 707 612 )" class="stroke" mask="url(#Clip4950)" />
    <path d="M 12.397681667954332 14.554946446188138  L 12.397681667954332 8.642003733062507  L 21.37449834749764 8.642003733062507  L 21.37449834749764 14.554946446188138  L 12.397681667954332 14.554946446188138  Z " stroke-width="0" stroke-dasharray="0" stroke="rgba(121, 121, 121, 1)" fill="none" transform="matrix(1 0 0 1 707 612 )" class="stroke" mask="url(#Clip4950)" />
    <path d="M 6.574874989269466 19.773672362192848  L 6.574874989269466 14.076169418497338  L 8.200438342346983 14.076169418497338  L 8.200438342346983 19.151248528152244  L 6.574874989269466 19.773672362192848  Z " stroke-width="0" stroke-dasharray="0" stroke="rgba(121, 121, 121, 1)" fill="none" transform="matrix(1 0 0 1 707 612 )" class="stroke" mask="url(#Clip4950)" />
    <path d="M 6.356516653790024 20.77910868635772  C 6.356516653790024 20.77910868635772  5.871303330758004 19.17518966254388  5.871303330758004 19.17518966254388  C 6.518281100778501 18.983677115430915  7.278460626817485 18.736303546461272  8.151879989698687 18.4330753765924  C 9.04147406195006 18.11388779807079  9.963440208621716 17.786727055086885  10.917731672246545 17.451580186819164  C 10.917731672246545 17.451580186819164  11.208834985835693 18.93579353867483  11.208834985835693 18.93579353867483  C 10.367764077623347 19.270940466395864  9.534796190257747 19.590134644234855  8.709899991415572 19.893362814103728  C 7.8850037925733965 20.196590983972598  7.100540751888574 20.491839895414927  6.356516653790024 20.77910868635772  Z " stroke-width="0" stroke-dasharray="0" stroke="rgba(121, 121, 121, 1)" fill="none" transform="matrix(1 0 0 1 707 612 )" class="stroke" mask="url(#Clip4950)" />
    <path d="M 2.8870933127307064 4.787815937049884  C 2.7415233385778826 4.277115811415312  2.571724922362904 3.8063140885059585  2.377631663662117 3.3754107683218235  C 2.377631663662117 3.3754107683218235  3.7847749806850373 3.088132375669509  3.7847749806850373 3.088132375669509  C 3.995042587229188 3.5190356958536437  4.1729766822125285 3.9898374187629977  4.318546656365353 4.50053754439757  C 4.480291098870477 4.995278499192645  4.5854368325272015 5.42618657564156  4.633959996566229 5.793252261214754  C 4.633959996566229 5.793252261214754  3.1540100008584426 6.1044565682114085  3.1540100008584426 6.1044565682114085  C 3.1216613051717155 5.7373908826382145  3.0326632868835306 5.298516062684456  2.8870933127307064 4.787815937049884  Z " stroke-width="0" stroke-dasharray="0" stroke="rgba(121, 121, 121, 1)" fill="none" transform="matrix(1 0 0 1 707 612 )" class="stroke" mask="url(#Clip4950)" />
    <path d="M 7.399811679114087 4.42872936126996  C 7.593904817305939 3.9020700647958924  7.739420321419757 3.431267390633583  7.836466649497812 3.0163241925418998  C 7.836466649497812 3.0163241925418998  9.389223323890462 3.399351902713458  9.389223323890462 3.399351902713458  C 9.195130185698611 3.9100520283480296  9.009122233031 4.404783470613547  8.831203322173577 4.8835652545691275  C 8.669459120686325 5.362346087271751  8.499660583962411 5.785273151421483  8.321741673104988 6.152338836994677  C 8.321741673104988 6.152338836994677  6.914536655506911 5.793252261214754  6.914536655506911 5.793252261214754  C 7.060106629659734 5.410227404802063  7.221892768256663 4.955389608996985  7.399811679114087 4.42872936126996  Z " stroke-width="0" stroke-dasharray="0" stroke="rgba(121, 121, 121, 1)" fill="none" transform="matrix(1 0 0 1 707 612 )" class="stroke" mask="url(#Clip4950)" />
    <path d="M 13.80488668555241 4.8117570714415185  C 13.659316711399583 4.28509777496745  13.481382857434113 3.8063140885059585  13.271115009872092 3.3754107683218235  C 13.271115009872092 3.3754107683218235  14.702568353506738 3.040265326933534  14.702568353506738 3.040265326933534  C 14.92901042840319 3.455208525025217  15.123092479772941 3.92601024793457  15.284836681260195 4.452670495661595  C 15.46275607415336 4.963370621296167  15.584049764196498 5.410227404802063  15.64874667353421 5.793252261214754  C 15.64874667353421 5.793252261214754  14.120238325178127 6.152338836994677  14.120238325178127 6.152338836994677  C 14.071714679103357 5.785273151421483  13.96663088703966 5.3384163679155865  13.80488668555241 4.8117570714415185  Z " stroke-width="0" stroke-dasharray="0" stroke="rgba(121, 121, 121, 1)" fill="none" transform="matrix(1 0 0 1 707 612 )" class="stroke" mask="url(#Clip4950)" />
    <path d="M 18.487343334191777 4.356905958095059  C 18.6976111817538 3.814286539528538  18.867471901088614 3.343484816619185  18.996866683835524 2.9445007893669985  C 18.996866683835524 2.9445007893669985  20.646616662374452 3.3514696339301895  20.646616662374452 3.3514696339301895  C 20.404000360143574 3.8462096374723096  20.169487078759445 4.348923994542921  19.94304500386299 4.859624120177493  C 19.716602928966545 5.354365074972569  19.498237844986694 5.785273151421483  19.28796999742467 6.152338836994677  C 19.28796999742467 6.152338836994677  17.880826680401753 5.769311126823119  17.880826680401753 5.769311126823119  C 18.074920300629348 5.370326148317977  18.277075486629755 4.899524425408624  18.487343334191777 4.356905958095059  Z " stroke-width="0" stroke-dasharray="0" stroke="rgba(121, 121, 121, 1)" fill="none" transform="matrix(1 0 0 1 707 612 )" class="stroke" mask="url(#Clip4950)" />
    <path d="M 13.392418340630098 17.068552476647607  C 13.65120983426689 16.222705482745308  13.812933790252918 15.249189878391823  13.877631663662116 14.147992821672242  C 13.877631663662116 14.147992821672242  15.503195016739635 14.147992821672242  15.503195016739635 14.147992821672242  C 15.42232291599601 15.456661715250902  15.228179164051099 16.613712183803518  14.920864988411024 17.619152907513307  C 14.629725040105374 18.624593750129716  14.136415444727014 19.48639515860673  13.440914992703235 20.204567121100382  C 12.761588768013885 20.922739083594035  11.791118256697196 21.52121875112421  10.529511653360803 22  C 10.432465325282749 21.79252816314092  10.286888120593774 21.553136260456863  10.092794982401923 21.28182684844015  C 9.898701362174329 21.01051743642344  9.712755110081874 20.803052644781566  9.534836681260195 20.659418234446843  C 10.667047055742445 20.27639319967422  11.532372556456027 19.78962772802052  12.130826680401752 19.199130796935513  C 12.729280804347475 18.608633806397194  13.14980203839922 17.898439942990546  13.392418340630098 17.068552476647607  Z " stroke-width="0" stroke-dasharray="0" stroke="rgba(121, 121, 121, 1)" fill="none" transform="matrix(1 0 0 1 707 612 )" class="stroke" mask="url(#Clip4950)" />
    <path d="M 2.8143483346209974 16.948862024736727  C 2.992267245478421 16.103015030834435  3.105486836819416 15.14544742009821  3.1540100008584426 14.076169418497338  C 3.1540100008584426 14.076169418497338  4.755263327324234 14.076169418497338  4.755263327324234 14.076169418497338  C 4.690565453915036 15.336960086117795  4.544988731261804 16.470080597501006  4.318546656365353 17.4755213212108  C 4.108279049821202 18.46500263626785  3.7524725604296774 19.33478594884369  3.251065005579878 20.084876669189505  C 2.7496574507300786 20.83496738953532  2.021773475937111 21.465358739973794  1.0674816507854752 21.976058865608366  C 1.0027838978852128 21.848383834199723  0.9057737827423826 21.696776110769427  0.776378337196326 21.5212229723092  C 0.6631572997481007 21.361629183048397  0.533728232208941 21.20202451383191  0.38815831831058456 21.042430724571105  C 0.2587628125100599 20.89879634396304  0.12939550580052472 20.779100422347664  0 20.683344148791182  C 0.8410706671944749 20.268400356166403  1.4718213064577028 19.74972308269778  1.8923566400549403 19.12730739376061  C 2.3290665625134133 18.50489170482344  2.636429664781446 17.778749728892905  2.8143483346209974 16.948862024736727  Z " stroke-width="0" stroke-dasharray="0" stroke="rgba(121, 121, 121, 1)" fill="none" transform="matrix(1 0 0 1 707 612 )" class="stroke" mask="url(#Clip4950)" />
    <path d="M 17.298558352648296 19.51033510393217  C 17.298558352648296 19.51033510393217  17.298558352648296 14.100110552888973  17.298558352648296 14.100110552888973  L 18.948308331187228 14.100110552888973  C 18.948308331187228 14.100110552888973  18.948308331187228 19.51033510393217  18.948308331187228 19.51033510393217  C 18.948308331187228 19.60609137748865  18.956444130464526 19.68589371209689  18.972618357798954 19.749731227801213  C 19.004967776539296 19.81356872864221  19.05347310525582 19.861444056251564  19.118170014593527 19.893362814103728  C 19.26373998874635 19.973159693870798  19.44167384271182 20.0130532660146  19.651941690273844 20.0130532660146  C 19.748988982423384 20.0130532660146  19.878355807097176 20.0130532660146  20.040100008584428 20.0130532660146  C 20.21801843740611 20.0130532660146  20.36359516005934 20.0130532660146  20.476816679543308 20.0130532660146  C 20.784130855183385 20.0130532660146  21.010570037865374 19.973159693870798  21.1561400120182 19.893362814103728  C 21.204662694021483 19.845484677325484  21.261242121440144 19.78164583878502  21.325939994849342 19.701848959017948  C 21.39063786825854 19.622052064387546  21.431130798848077 19.51831965370328  21.447305026182505 19.39064465202129  C 21.479654444922847 19.183172755708902  21.503875776957784 18.863978577869915  21.520050004292216 18.4330753765924  C 21.55239845896107 17.98621288556877  21.56047255766321 17.49148096767677  21.544298330328786 16.948862024736727  C 21.706042531816035 17.092496464798106  21.924407615795882 17.244104188228402  22.199373336767106 17.403697918035895  C 22.49051328507275 17.56329176675001  22.75738369776912 17.675005843719862  23 17.738843359424184  C 22.983825772665572 18.313380881856457  22.95153034192849 18.871966902926193  22.903006695853723 19.414585786412925  C 22.85448401385044 19.941245201793613  22.797842885856618 20.30829951692132  22.73314501244742 20.515771428097036  C 22.587575038294595 20.946674629374552  22.32877872430037 21.257887081474642  21.956766675251092 21.4493995691343  C 21.81119670109827 21.529196434038045  21.617114649728517 21.59303531716849  21.37449834749764 21.640913424220077  C 21.131881081195274 21.68879165017828  20.88923296460533 21.712736827394977  20.646616662374452 21.712736827394977  C 20.4848724608872 21.712736827394977  20.250359179503068 21.712736827394977  19.94304500386299 21.712736827394977  C 19.635730828222915 21.712736827394977  19.409291645540925 21.712736827394977  19.2637216713881 21.712736827394977  C 19.00493017775131 21.712736827394977  18.73805976505494 21.680809805532764  18.463095008155207 21.616972289828443  C 18.204303514518415 21.55313477412412  17.977864331836425 21.449402422893165  17.783771675680317 21.305767982831785  C 17.605852282787147 21.130214844371558  17.476485458113356 20.922734802955734  17.395613357369733 20.683344148791182  C 17.33091548396053 20.44395350948996  17.298558352648296 20.052953927965593  17.298558352648296 19.51033510393217  Z " stroke-width="0" stroke-dasharray="0" stroke="rgba(121, 121, 121, 1)" fill="none" transform="matrix(1 0 0 1 707 612 )" class="stroke" mask="url(#Clip4950)" />
  </g>
</svg>