<?xml version="1.0" encoding="utf-8"?>
<svg version="1.1" xmlns:xlink="http://www.w3.org/1999/xlink" width="22px" height="22px" xmlns="http://www.w3.org/2000/svg">
  <defs>
    <pattern id="BGPattern" patternUnits="userSpaceOnUse" alignment="0 0" imageRepeat="None" />
    <mask fill="white" id="Clip4926">
      <path d="M 5.458430609775837 7.085966978031938  C 6.613411786612749 6.112445190534238  7.483617178219587 5.162859781163393  8.069018493269065 4.237215506184182  C 8.069018493269065 4.237215506184182  9.99138023269531 4.596302081964105  9.99138023269531 4.596302081964105  C 9.184475742844523 5.761335822041673  8.163970788947385 6.894456927957982  6.929881402756021 7.995653984677563  C 5.71161394134882 9.080891870557648  4.232252421737615 10.062388962836796  2.4918699298512252 10.940154774044561  C 2.396940031473673 10.796520333983183  2.2782920988667006 10.64491249164627  2.1358971334198418 10.485318880745394  C 2.0093239748766156 10.309765623378546  1.8669222902395266 10.15016107306868  1.7087056357695651 10.0065266330073  C 1.5504890991801343 9.862892192945923  1.408117591958816 9.743196033517311  1.2815443155350594 9.647440057227378  C 2.9269966732828365 8.91330868608099  4.319271357723087 8.059489241156115  5.458430609775837 7.085966978031938  Z M 6.526409353901529 7.445053553811861  L 7.807983846852358 6.0326483850837995  L 16.09059808894656 6.0326483850837995  L 16.09059808894656 7.445053553811861  L 6.526409353901529 7.445053553811861  Z M 15.568468441281608 6.319911557688822  C 15.568468441281608 6.319911557688822  15.568468441281608 6.0326483850837995  15.568468441281608 6.0326483850837995  L 15.924501592544532 6.0326483850837995  L 16.233035491384346 5.936883847517264  C 16.233035491384346 5.936883847517264  17.443391283116284 6.678998133468746  17.443391283116284 6.678998133468746  C 16.65230824652754 7.939789276715681  15.639701288164144 9.080890919304693  14.40561190197278 10.102291170573837  C 13.1873449120877 11.107731775377006  11.83458896816557 12.001460562436092  10.347353029126692 12.783469921727448  C 8.860117090087817 13.549520110179305  7.309615141929873 14.211823084072773  5.695806162228301 14.770401435665551  C 4.081996946765667 15.32897954944509  2.4760898526553383 15.783833278737179  0.8781024440963372 16.13493955565764  C 0.7989941168613567 15.895548901493086  0.6724182470659321 15.624229917493508  0.4983800214533992 15.321001866531255  C 0.32434179584086625 15.001814169103028  0.15821659552969597 14.746474094441778  0 14.554961666235434  C 1.5188790813240205 14.267693023925913  3.0535855099366005 13.8766783561242  4.604107969306825 13.381937401329127  C 6.15463042867705 12.871237275694554  7.633931357695653 12.27275742980445  9.042059087380078 11.586504522429507  C 10.466008270326547 10.88429196858859  11.739665435336656 10.094311109527611  12.863002762605243 9.216545298319845  C 14.002162486180115 8.3387790114856  14.903958916877679 7.373230150636958  15.568468441281608 6.319911557688822  Z M 5.57714856341784 7.852022398375053  C 5.57714856341784 7.852022398375053  7.119757702785376 7.133849246815205  7.119757702785376 7.133849246815205  C 8.053235233298857 8.330803231077676  9.279384658487672 9.384120872772858  10.798263975572754 10.293805025659616  C 12.317142821135713 11.203489654172854  14.033800677482983 11.96155883032553  15.948221041340316 12.568014932250035  C 17.878463801503933 13.158511863335043  19.895719367865443 13.589404719736665  22 13.860714429019927  C 21.87342648781518 14.004348869081303  21.738922916592365 14.179901888634912  21.596527951145507 14.387373725493994  C 21.45413298569865 14.578886153700338  21.319689769307374 14.778384588283883  21.193116257122558 14.985856425142964  C 21.06654368798198 15.193328499815285  20.95579351514769 15.384844970846691  20.860862909486954 15.5603979904003  C 18.740760824090355 15.225251122132578  16.715545964319322 14.722522258454392  14.785304147199948 14.052228284105706  C 12.855061387036331 13.365975376730761  11.098855084277293 12.512155456179407  9.516689482621924 11.490755204910265  C 7.950345805750717 10.453395782801623  6.637199606116139 9.24048833521739  5.57714856341784 7.852022398375053  Z M 4.4854503704963635 22  L 4.4854503704963635 14.650710983754676  L 17.65692667710988 14.650710983754676  L 17.65692667710988 21.976058865608366  L 15.853282891325637 21.976058865608366  L 15.853282891325637 16.158865470001977  L 6.217875455061713 16.158865470001977  L 6.217875455061713 22  L 4.4854503704963635 22  Z M 5.339773010965375 21  L 5.339773010965375 19.677907824626313  L 16.75510478421776 19.677907824626313  L 16.75510478421776 21  L 5.339773010965375 21  Z M 10.038819130286877 3.1360146444527772  L 10.038819130286877 0  L 11.866242719698446 0  L 11.866242719698446 3.1360146444527772  L 10.038819130286877 3.1360146444527772  Z M 0.9730104166952437 6.678998133468746  L 0.9730104166952437 2.178460589071176  L 21.05067885468477 2.178460589071176  L 21.05067885468477 6.678998133468746  L 19.223315620104746 6.678998133468746  L 19.223315620104746 4  L 2.705465678676364 4  L 2.705465678676364 6.678998133468746  L 0.9730104166952437 6.678998133468746  Z " fill-rule="evenodd" />
    </mask>
  </defs>
  <g transform="matrix(1 0 0 1 -651 -643 )">
    <path d="M 5.458430609775837 7.085966978031938  C 6.613411786612749 6.112445190534238  7.483617178219587 5.162859781163393  8.069018493269065 4.237215506184182  C 8.069018493269065 4.237215506184182  9.99138023269531 4.596302081964105  9.99138023269531 4.596302081964105  C 9.184475742844523 5.761335822041673  8.163970788947385 6.894456927957982  6.929881402756021 7.995653984677563  C 5.71161394134882 9.080891870557648  4.232252421737615 10.062388962836796  2.4918699298512252 10.940154774044561  C 2.396940031473673 10.796520333983183  2.2782920988667006 10.64491249164627  2.1358971334198418 10.485318880745394  C 2.0093239748766156 10.309765623378546  1.8669222902395266 10.15016107306868  1.7087056357695651 10.0065266330073  C 1.5504890991801343 9.862892192945923  1.408117591958816 9.743196033517311  1.2815443155350594 9.647440057227378  C 2.9269966732828365 8.91330868608099  4.319271357723087 8.059489241156115  5.458430609775837 7.085966978031938  Z M 6.526409353901529 7.445053553811861  L 7.807983846852358 6.0326483850837995  L 16.09059808894656 6.0326483850837995  L 16.09059808894656 7.445053553811861  L 6.526409353901529 7.445053553811861  Z M 15.568468441281608 6.319911557688822  C 15.568468441281608 6.319911557688822  15.568468441281608 6.0326483850837995  15.568468441281608 6.0326483850837995  L 15.924501592544532 6.0326483850837995  L 16.233035491384346 5.936883847517264  C 16.233035491384346 5.936883847517264  17.443391283116284 6.678998133468746  17.443391283116284 6.678998133468746  C 16.65230824652754 7.939789276715681  15.639701288164144 9.080890919304693  14.40561190197278 10.102291170573837  C 13.1873449120877 11.107731775377006  11.83458896816557 12.001460562436092  10.347353029126692 12.783469921727448  C 8.860117090087817 13.549520110179305  7.309615141929873 14.211823084072773  5.695806162228301 14.770401435665551  C 4.081996946765667 15.32897954944509  2.4760898526553383 15.783833278737179  0.8781024440963372 16.13493955565764  C 0.7989941168613567 15.895548901493086  0.6724182470659321 15.624229917493508  0.4983800214533992 15.321001866531255  C 0.32434179584086625 15.001814169103028  0.15821659552969597 14.746474094441778  0 14.554961666235434  C 1.5188790813240205 14.267693023925913  3.0535855099366005 13.8766783561242  4.604107969306825 13.381937401329127  C 6.15463042867705 12.871237275694554  7.633931357695653 12.27275742980445  9.042059087380078 11.586504522429507  C 10.466008270326547 10.88429196858859  11.739665435336656 10.094311109527611  12.863002762605243 9.216545298319845  C 14.002162486180115 8.3387790114856  14.903958916877679 7.373230150636958  15.568468441281608 6.319911557688822  Z M 5.57714856341784 7.852022398375053  C 5.57714856341784 7.852022398375053  7.119757702785376 7.133849246815205  7.119757702785376 7.133849246815205  C 8.053235233298857 8.330803231077676  9.279384658487672 9.384120872772858  10.798263975572754 10.293805025659616  C 12.317142821135713 11.203489654172854  14.033800677482983 11.96155883032553  15.948221041340316 12.568014932250035  C 17.878463801503933 13.158511863335043  19.895719367865443 13.589404719736665  22 13.860714429019927  C 21.87342648781518 14.004348869081303  21.738922916592365 14.179901888634912  21.596527951145507 14.387373725493994  C 21.45413298569865 14.578886153700338  21.319689769307374 14.778384588283883  21.193116257122558 14.985856425142964  C 21.06654368798198 15.193328499815285  20.95579351514769 15.384844970846691  20.860862909486954 15.5603979904003  C 18.740760824090355 15.225251122132578  16.715545964319322 14.722522258454392  14.785304147199948 14.052228284105706  C 12.855061387036331 13.365975376730761  11.098855084277293 12.512155456179407  9.516689482621924 11.490755204910265  C 7.950345805750717 10.453395782801623  6.637199606116139 9.24048833521739  5.57714856341784 7.852022398375053  Z M 4.4854503704963635 22  L 4.4854503704963635 14.650710983754676  L 17.65692667710988 14.650710983754676  L 17.65692667710988 21.976058865608366  L 15.853282891325637 21.976058865608366  L 15.853282891325637 16.158865470001977  L 6.217875455061713 16.158865470001977  L 6.217875455061713 22  L 4.4854503704963635 22  Z M 5.339773010965375 21  L 5.339773010965375 19.677907824626313  L 16.75510478421776 19.677907824626313  L 16.75510478421776 21  L 5.339773010965375 21  Z M 10.038819130286877 3.1360146444527772  L 10.038819130286877 0  L 11.866242719698446 0  L 11.866242719698446 3.1360146444527772  L 10.038819130286877 3.1360146444527772  Z M 0.9730104166952437 6.678998133468746  L 0.9730104166952437 2.178460589071176  L 21.05067885468477 2.178460589071176  L 21.05067885468477 6.678998133468746  L 19.223315620104746 6.678998133468746  L 19.223315620104746 4  L 2.705465678676364 4  L 2.705465678676364 6.678998133468746  L 0.9730104166952437 6.678998133468746  Z " fill-rule="nonzero" fill="rgba(0, 0, 0, 1)" stroke="none" transform="matrix(1 0 0 1 651 643 )" class="fill" />
    <path d="M 5.458430609775837 7.085966978031938  C 6.613411786612749 6.112445190534238  7.483617178219587 5.162859781163393  8.069018493269065 4.237215506184182  C 8.069018493269065 4.237215506184182  9.99138023269531 4.596302081964105  9.99138023269531 4.596302081964105  C 9.184475742844523 5.761335822041673  8.163970788947385 6.894456927957982  6.929881402756021 7.995653984677563  C 5.71161394134882 9.080891870557648  4.232252421737615 10.062388962836796  2.4918699298512252 10.940154774044561  C 2.396940031473673 10.796520333983183  2.2782920988667006 10.64491249164627  2.1358971334198418 10.485318880745394  C 2.0093239748766156 10.309765623378546  1.8669222902395266 10.15016107306868  1.7087056357695651 10.0065266330073  C 1.5504890991801343 9.862892192945923  1.408117591958816 9.743196033517311  1.2815443155350594 9.647440057227378  C 2.9269966732828365 8.91330868608099  4.319271357723087 8.059489241156115  5.458430609775837 7.085966978031938  Z " stroke-width="0" stroke-dasharray="0" stroke="rgba(121, 121, 121, 1)" fill="none" transform="matrix(1 0 0 1 651 643 )" class="stroke" mask="url(#Clip4926)" />
    <path d="M 6.526409353901529 7.445053553811861  L 7.807983846852358 6.0326483850837995  L 16.09059808894656 6.0326483850837995  L 16.09059808894656 7.445053553811861  L 6.526409353901529 7.445053553811861  Z " stroke-width="0" stroke-dasharray="0" stroke="rgba(121, 121, 121, 1)" fill="none" transform="matrix(1 0 0 1 651 643 )" class="stroke" mask="url(#Clip4926)" />
    <path d="M 15.568468441281608 6.319911557688822  C 15.568468441281608 6.319911557688822  15.568468441281608 6.0326483850837995  15.568468441281608 6.0326483850837995  L 15.924501592544532 6.0326483850837995  L 16.233035491384346 5.936883847517264  C 16.233035491384346 5.936883847517264  17.443391283116284 6.678998133468746  17.443391283116284 6.678998133468746  C 16.65230824652754 7.939789276715681  15.639701288164144 9.080890919304693  14.40561190197278 10.102291170573837  C 13.1873449120877 11.107731775377006  11.83458896816557 12.001460562436092  10.347353029126692 12.783469921727448  C 8.860117090087817 13.549520110179305  7.309615141929873 14.211823084072773  5.695806162228301 14.770401435665551  C 4.081996946765667 15.32897954944509  2.4760898526553383 15.783833278737179  0.8781024440963372 16.13493955565764  C 0.7989941168613567 15.895548901493086  0.6724182470659321 15.624229917493508  0.4983800214533992 15.321001866531255  C 0.32434179584086625 15.001814169103028  0.15821659552969597 14.746474094441778  0 14.554961666235434  C 1.5188790813240205 14.267693023925913  3.0535855099366005 13.8766783561242  4.604107969306825 13.381937401329127  C 6.15463042867705 12.871237275694554  7.633931357695653 12.27275742980445  9.042059087380078 11.586504522429507  C 10.466008270326547 10.88429196858859  11.739665435336656 10.094311109527611  12.863002762605243 9.216545298319845  C 14.002162486180115 8.3387790114856  14.903958916877679 7.373230150636958  15.568468441281608 6.319911557688822  Z " stroke-width="0" stroke-dasharray="0" stroke="rgba(121, 121, 121, 1)" fill="none" transform="matrix(1 0 0 1 651 643 )" class="stroke" mask="url(#Clip4926)" />
    <path d="M 5.57714856341784 7.852022398375053  C 5.57714856341784 7.852022398375053  7.119757702785376 7.133849246815205  7.119757702785376 7.133849246815205  C 8.053235233298857 8.330803231077676  9.279384658487672 9.384120872772858  10.798263975572754 10.293805025659616  C 12.317142821135713 11.203489654172854  14.033800677482983 11.96155883032553  15.948221041340316 12.568014932250035  C 17.878463801503933 13.158511863335043  19.895719367865443 13.589404719736665  22 13.860714429019927  C 21.87342648781518 14.004348869081303  21.738922916592365 14.179901888634912  21.596527951145507 14.387373725493994  C 21.45413298569865 14.578886153700338  21.319689769307374 14.778384588283883  21.193116257122558 14.985856425142964  C 21.06654368798198 15.193328499815285  20.95579351514769 15.384844970846691  20.860862909486954 15.5603979904003  C 18.740760824090355 15.225251122132578  16.715545964319322 14.722522258454392  14.785304147199948 14.052228284105706  C 12.855061387036331 13.365975376730761  11.098855084277293 12.512155456179407  9.516689482621924 11.490755204910265  C 7.950345805750717 10.453395782801623  6.637199606116139 9.24048833521739  5.57714856341784 7.852022398375053  Z " stroke-width="0" stroke-dasharray="0" stroke="rgba(121, 121, 121, 1)" fill="none" transform="matrix(1 0 0 1 651 643 )" class="stroke" mask="url(#Clip4926)" />
    <path d="M 4.4854503704963635 22  L 4.4854503704963635 14.650710983754676  L 17.65692667710988 14.650710983754676  L 17.65692667710988 21.976058865608366  L 15.853282891325637 21.976058865608366  L 15.853282891325637 16.158865470001977  L 6.217875455061713 16.158865470001977  L 6.217875455061713 22  L 4.4854503704963635 22  Z " stroke-width="0" stroke-dasharray="0" stroke="rgba(121, 121, 121, 1)" fill="none" transform="matrix(1 0 0 1 651 643 )" class="stroke" mask="url(#Clip4926)" />
    <path d="M 5.339773010965375 21  L 5.339773010965375 19.677907824626313  L 16.75510478421776 19.677907824626313  L 16.75510478421776 21  L 5.339773010965375 21  Z " stroke-width="0" stroke-dasharray="0" stroke="rgba(121, 121, 121, 1)" fill="none" transform="matrix(1 0 0 1 651 643 )" class="stroke" mask="url(#Clip4926)" />
    <path d="M 10.038819130286877 3.1360146444527772  L 10.038819130286877 0  L 11.866242719698446 0  L 11.866242719698446 3.1360146444527772  L 10.038819130286877 3.1360146444527772  Z " stroke-width="0" stroke-dasharray="0" stroke="rgba(121, 121, 121, 1)" fill="none" transform="matrix(1 0 0 1 651 643 )" class="stroke" mask="url(#Clip4926)" />
    <path d="M 0.9730104166952437 6.678998133468746  L 0.9730104166952437 2.178460589071176  L 21.05067885468477 2.178460589071176  L 21.05067885468477 6.678998133468746  L 19.223315620104746 6.678998133468746  L 19.223315620104746 4  L 2.705465678676364 4  L 2.705465678676364 6.678998133468746  L 0.9730104166952437 6.678998133468746  Z " stroke-width="0" stroke-dasharray="0" stroke="rgba(121, 121, 121, 1)" fill="none" transform="matrix(1 0 0 1 651 643 )" class="stroke" mask="url(#Clip4926)" />
  </g>
</svg>