<?xml version="1.0" encoding="utf-8"?>
<svg version="1.1" xmlns:xlink="http://www.w3.org/1999/xlink" width="10px" height="12px" xmlns="http://www.w3.org/2000/svg">
  <defs>
    <pattern id="BGPattern" patternUnits="userSpaceOnUse" alignment="0 0" imageRepeat="None" />
    <mask fill="white" id="Clip4997">
      <path d="M 10 5.66666763905287  C 10 5.66666763905287  10 6.452381761451326  10 6.452381761451326  C 10 6.452381761451326  1.7821786852633137 6.452381761451326  1.7821786852633137 6.452381761451326  C 1.7821786852633137 9.023810636985235  3.0445542704166053 10.500000827842308  5.371286734309079 10.500000827842308  C 6.782177947582147 10.500000827842308  7.599011812144277 10.095239157729583  8.564358354101516 9.166667599631808  C 8.564358354101516 9.166667599631808  9.77722815612953 10.190476738616676  9.77722815612953 10.190476738616676  C 8.539604233070266 11.380952885917416  7.400990892686669 12  5.321783410121025 12  C 2.1039613577031715 12  0 10.142858776015437  0 6.000001419158242  C 0 2.2142865871806645  1.9059414218204516 0  5.000000983574889 0  C 8.143565098985993 0  10 2.190477132827298  10 5.66666763905287  Z M 1.7821786852633137 5.166667915000305  C 1.7821786852633137 5.166667915000305  8.217821314736685 5.166667915000305  8.217821314736685 5.166667915000305  C 8.168316269292577 4.2142871390755365  8.118810977954743 3.857143195037677  7.8465335968527175 3.2142865083385406  C 7.376236771655417 2.1428575145414444  6.287129214397097 1.4523816826092013  5.000000983574889 1.4523816826092013  C 3.712872383912098 1.4523816826092013  2.6237635971851656 2.1428575145414444  2.153466403147282 3.2142865083385406  C 1.881189390885841 3.857143195037677  1.8316837307074243 4.2142871390755365  1.7821786852633137 5.166667915000305  Z " fill-rule="evenodd" />
    </mask>
  </defs>
  <g transform="matrix(1 0 0 1 -166 -496 )">
    <path d="M 10 5.66666763905287  C 10 5.66666763905287  10 6.452381761451326  10 6.452381761451326  C 10 6.452381761451326  1.7821786852633137 6.452381761451326  1.7821786852633137 6.452381761451326  C 1.7821786852633137 9.023810636985235  3.0445542704166053 10.500000827842308  5.371286734309079 10.500000827842308  C 6.782177947582147 10.500000827842308  7.599011812144277 10.095239157729583  8.564358354101516 9.166667599631808  C 8.564358354101516 9.166667599631808  9.77722815612953 10.190476738616676  9.77722815612953 10.190476738616676  C 8.539604233070266 11.380952885917416  7.400990892686669 12  5.321783410121025 12  C 2.1039613577031715 12  0 10.142858776015437  0 6.000001419158242  C 0 2.2142865871806645  1.9059414218204516 0  5.000000983574889 0  C 8.143565098985993 0  10 2.190477132827298  10 5.66666763905287  Z M 1.7821786852633137 5.166667915000305  C 1.7821786852633137 5.166667915000305  8.217821314736685 5.166667915000305  8.217821314736685 5.166667915000305  C 8.168316269292577 4.2142871390755365  8.118810977954743 3.857143195037677  7.8465335968527175 3.2142865083385406  C 7.376236771655417 2.1428575145414444  6.287129214397097 1.4523816826092013  5.000000983574889 1.4523816826092013  C 3.712872383912098 1.4523816826092013  2.6237635971851656 2.1428575145414444  2.153466403147282 3.2142865083385406  C 1.881189390885841 3.857143195037677  1.8316837307074243 4.2142871390755365  1.7821786852633137 5.166667915000305  Z " fill-rule="nonzero" fill="rgba(0, 0, 0, 1)" stroke="none" transform="matrix(1 0 0 1 166 496 )" class="fill" />
    <path d="M 10 5.66666763905287  C 10 5.66666763905287  10 6.452381761451326  10 6.452381761451326  C 10 6.452381761451326  1.7821786852633137 6.452381761451326  1.7821786852633137 6.452381761451326  C 1.7821786852633137 9.023810636985235  3.0445542704166053 10.500000827842308  5.371286734309079 10.500000827842308  C 6.782177947582147 10.500000827842308  7.599011812144277 10.095239157729583  8.564358354101516 9.166667599631808  C 8.564358354101516 9.166667599631808  9.77722815612953 10.190476738616676  9.77722815612953 10.190476738616676  C 8.539604233070266 11.380952885917416  7.400990892686669 12  5.321783410121025 12  C 2.1039613577031715 12  0 10.142858776015437  0 6.000001419158242  C 0 2.2142865871806645  1.9059414218204516 0  5.000000983574889 0  C 8.143565098985993 0  10 2.190477132827298  10 5.66666763905287  Z " stroke-width="0" stroke-dasharray="0" stroke="rgba(121, 121, 121, 1)" fill="none" transform="matrix(1 0 0 1 166 496 )" class="stroke" mask="url(#Clip4997)" />
    <path d="M 1.7821786852633137 5.166667915000305  C 1.7821786852633137 5.166667915000305  8.217821314736685 5.166667915000305  8.217821314736685 5.166667915000305  C 8.168316269292577 4.2142871390755365  8.118810977954743 3.857143195037677  7.8465335968527175 3.2142865083385406  C 7.376236771655417 2.1428575145414444  6.287129214397097 1.4523816826092013  5.000000983574889 1.4523816826092013  C 3.712872383912098 1.4523816826092013  2.6237635971851656 2.1428575145414444  2.153466403147282 3.2142865083385406  C 1.881189390885841 3.857143195037677  1.8316837307074243 4.2142871390755365  1.7821786852633137 5.166667915000305  Z " stroke-width="0" stroke-dasharray="0" stroke="rgba(121, 121, 121, 1)" fill="none" transform="matrix(1 0 0 1 166 496 )" class="stroke" mask="url(#Clip4997)" />
  </g>
</svg>