<?xml version="1.0" encoding="utf-8"?>
<svg version="1.1" xmlns:xlink="http://www.w3.org/1999/xlink" width="22px" height="22px" xmlns="http://www.w3.org/2000/svg">
  <defs>
    <pattern id="BGPattern" patternUnits="userSpaceOnUse" alignment="0 0" imageRepeat="None" />
    <mask fill="white" id="Clip4938">
      <path d="M 9.883378465222812 6  L 10.714908353885278 4  L 22 4  L 22 6  L 9.883378465222812 6  Z M 13.684670903388463 10.795633594363418  L 13.684670903388463 9.13661068532557  L 21.453561757452256 9.13661068532557  L 21.453561757452256 10.795633594363418  L 13.684670903388463 10.795633594363418  Z M 13.684670903388463 16.157374041982532  L 13.684670903388463 14.450274811175886  L 21.762428663235546 14.450274811175886  L 21.762428663235546 16.157374041982532  L 13.684670903388463 16.157374041982532  Z M 12.80562070537573 22  L 12.80562070537573 4.496167930126393  L 14.611226305758024 4.496167930126393  L 14.611226305758024 22  L 12.80562070537573 22  Z M 10.215990420687799 3.6546412168124682  C 10.770346511982378 2.516570922823572  11.245495793945917 1.362464041774078  11.641463756254842 0.1923358602527846  C 11.641463756254842 0.1923358602527846  13.352058947923476 0.6491755664723418  13.352058947923476 0.6491755664723418  C 12.908574452512648 1.9154783660026267  12.385897308702123 3.165756043413912  11.784024684305638 4.4  C 11.197992005682224 5.61821596823169  10.564444210050038 6.764291657691586  9.883378465222812 7.838244265792088  C 9.202312720395586 8.912197829304391  8.497487764955316 9.865934792276104  7.768905959057229 10.699450377648228  C 7.673873836915505 10.603275759639237  7.539239726201396 10.475039432450648  7.365013539566844 10.314748083965064  C 7.206626354643275 10.154456257773578  7.032400640039767 9.994169208641091  6.842335451694232 9.833877860155507  C 6.668109737090723 9.673586511669921  6.517647953410707 9.553367522599832  6.390937827847017 9.473221370651139  C 7.103681104065165 8.719851459521808  7.7847416565508984 7.846264947851887  8.434129869987201 6.852458013994177  C 9.08351761139246 5.858650124724669  9.677473331104203 4.792710555389565  10.215990420687799 3.6546412168124682  Z M 4.300225476356566 3.582503804276076  C 4.933774688081885 2.396346678988584  5.47227997688936 1.2021860690536907  5.915764944331234 0  C 5.915764944331234 0  7.626345031006433 0.528961832167152  7.626345031006433 0.528961832167152  C 7.119505472813759 1.8754103059402296  6.517643705131303 3.221856868889707  5.820739430624139 4.568305342662785  C 5.123835156116973 5.898724872669664  4.371496735776589 7.14900159466915  3.5637211014011942 8.319129776190444  C 2.755945703041322 9.473228536239638  1.916486518879182 10.507102097042045  1.0453561757452254 11.420763356656963  C 0.9820012309711412 11.276501429643474  0.8869744191786729 11.092163799273193  0.7602645296305043 10.867755720311013  C 0.633554640082336 10.627318219876734  0.4989207063798686 10.386880241736556  0.3563721101401194 10.146442741302279  C 0.22966222059195096 9.9060057185739  0.11087112385270709 9.721668088203618  0 9.593435104956328  C 0.7919366916682916 8.8080063508828  1.5521967960077503 7.902369117268982  2.280778483898077 6.876503818172974  C 3.009360289796165 5.850638041371068  3.6825147943111847 4.752631985797369  4.300225476356566 3.582503804276076  Z M 3.397415123668701 21.975954195821203  L 3.397415123668701 6.179236643343038  L 5.155515519694165 4.375954195821202  L 5.179260569375861 4.424045804178798  L 5.179260569375861 21.975954195821203  L 3.397415123668701 21.975954195821203  Z " fill-rule="evenodd" />
    </mask>
  </defs>
  <g transform="matrix(1 0 0 1 -279 -643 )">
    <path d="M 9.883378465222812 6  L 10.714908353885278 4  L 22 4  L 22 6  L 9.883378465222812 6  Z M 13.684670903388463 10.795633594363418  L 13.684670903388463 9.13661068532557  L 21.453561757452256 9.13661068532557  L 21.453561757452256 10.795633594363418  L 13.684670903388463 10.795633594363418  Z M 13.684670903388463 16.157374041982532  L 13.684670903388463 14.450274811175886  L 21.762428663235546 14.450274811175886  L 21.762428663235546 16.157374041982532  L 13.684670903388463 16.157374041982532  Z M 12.80562070537573 22  L 12.80562070537573 4.496167930126393  L 14.611226305758024 4.496167930126393  L 14.611226305758024 22  L 12.80562070537573 22  Z M 10.215990420687799 3.6546412168124682  C 10.770346511982378 2.516570922823572  11.245495793945917 1.362464041774078  11.641463756254842 0.1923358602527846  C 11.641463756254842 0.1923358602527846  13.352058947923476 0.6491755664723418  13.352058947923476 0.6491755664723418  C 12.908574452512648 1.9154783660026267  12.385897308702123 3.165756043413912  11.784024684305638 4.4  C 11.197992005682224 5.61821596823169  10.564444210050038 6.764291657691586  9.883378465222812 7.838244265792088  C 9.202312720395586 8.912197829304391  8.497487764955316 9.865934792276104  7.768905959057229 10.699450377648228  C 7.673873836915505 10.603275759639237  7.539239726201396 10.475039432450648  7.365013539566844 10.314748083965064  C 7.206626354643275 10.154456257773578  7.032400640039767 9.994169208641091  6.842335451694232 9.833877860155507  C 6.668109737090723 9.673586511669921  6.517647953410707 9.553367522599832  6.390937827847017 9.473221370651139  C 7.103681104065165 8.719851459521808  7.7847416565508984 7.846264947851887  8.434129869987201 6.852458013994177  C 9.08351761139246 5.858650124724669  9.677473331104203 4.792710555389565  10.215990420687799 3.6546412168124682  Z M 4.300225476356566 3.582503804276076  C 4.933774688081885 2.396346678988584  5.47227997688936 1.2021860690536907  5.915764944331234 0  C 5.915764944331234 0  7.626345031006433 0.528961832167152  7.626345031006433 0.528961832167152  C 7.119505472813759 1.8754103059402296  6.517643705131303 3.221856868889707  5.820739430624139 4.568305342662785  C 5.123835156116973 5.898724872669664  4.371496735776589 7.14900159466915  3.5637211014011942 8.319129776190444  C 2.755945703041322 9.473228536239638  1.916486518879182 10.507102097042045  1.0453561757452254 11.420763356656963  C 0.9820012309711412 11.276501429643474  0.8869744191786729 11.092163799273193  0.7602645296305043 10.867755720311013  C 0.633554640082336 10.627318219876734  0.4989207063798686 10.386880241736556  0.3563721101401194 10.146442741302279  C 0.22966222059195096 9.9060057185739  0.11087112385270709 9.721668088203618  0 9.593435104956328  C 0.7919366916682916 8.8080063508828  1.5521967960077503 7.902369117268982  2.280778483898077 6.876503818172974  C 3.009360289796165 5.850638041371068  3.6825147943111847 4.752631985797369  4.300225476356566 3.582503804276076  Z M 3.397415123668701 21.975954195821203  L 3.397415123668701 6.179236643343038  L 5.155515519694165 4.375954195821202  L 5.179260569375861 4.424045804178798  L 5.179260569375861 21.975954195821203  L 3.397415123668701 21.975954195821203  Z " fill-rule="nonzero" fill="rgba(0, 0, 0, 1)" stroke="none" transform="matrix(1 0 0 1 279 643 )" class="fill" />
    <path d="M 9.883378465222812 6  L 10.714908353885278 4  L 22 4  L 22 6  L 9.883378465222812 6  Z " stroke-width="0" stroke-dasharray="0" stroke="rgba(121, 121, 121, 1)" fill="none" transform="matrix(1 0 0 1 279 643 )" class="stroke" mask="url(#Clip4938)" />
    <path d="M 13.684670903388463 10.795633594363418  L 13.684670903388463 9.13661068532557  L 21.453561757452256 9.13661068532557  L 21.453561757452256 10.795633594363418  L 13.684670903388463 10.795633594363418  Z " stroke-width="0" stroke-dasharray="0" stroke="rgba(121, 121, 121, 1)" fill="none" transform="matrix(1 0 0 1 279 643 )" class="stroke" mask="url(#Clip4938)" />
    <path d="M 13.684670903388463 16.157374041982532  L 13.684670903388463 14.450274811175886  L 21.762428663235546 14.450274811175886  L 21.762428663235546 16.157374041982532  L 13.684670903388463 16.157374041982532  Z " stroke-width="0" stroke-dasharray="0" stroke="rgba(121, 121, 121, 1)" fill="none" transform="matrix(1 0 0 1 279 643 )" class="stroke" mask="url(#Clip4938)" />
    <path d="M 12.80562070537573 22  L 12.80562070537573 4.496167930126393  L 14.611226305758024 4.496167930126393  L 14.611226305758024 22  L 12.80562070537573 22  Z " stroke-width="0" stroke-dasharray="0" stroke="rgba(121, 121, 121, 1)" fill="none" transform="matrix(1 0 0 1 279 643 )" class="stroke" mask="url(#Clip4938)" />
    <path d="M 10.215990420687799 3.6546412168124682  C 10.770346511982378 2.516570922823572  11.245495793945917 1.362464041774078  11.641463756254842 0.1923358602527846  C 11.641463756254842 0.1923358602527846  13.352058947923476 0.6491755664723418  13.352058947923476 0.6491755664723418  C 12.908574452512648 1.9154783660026267  12.385897308702123 3.165756043413912  11.784024684305638 4.4  C 11.197992005682224 5.61821596823169  10.564444210050038 6.764291657691586  9.883378465222812 7.838244265792088  C 9.202312720395586 8.912197829304391  8.497487764955316 9.865934792276104  7.768905959057229 10.699450377648228  C 7.673873836915505 10.603275759639237  7.539239726201396 10.475039432450648  7.365013539566844 10.314748083965064  C 7.206626354643275 10.154456257773578  7.032400640039767 9.994169208641091  6.842335451694232 9.833877860155507  C 6.668109737090723 9.673586511669921  6.517647953410707 9.553367522599832  6.390937827847017 9.473221370651139  C 7.103681104065165 8.719851459521808  7.7847416565508984 7.846264947851887  8.434129869987201 6.852458013994177  C 9.08351761139246 5.858650124724669  9.677473331104203 4.792710555389565  10.215990420687799 3.6546412168124682  Z " stroke-width="0" stroke-dasharray="0" stroke="rgba(121, 121, 121, 1)" fill="none" transform="matrix(1 0 0 1 279 643 )" class="stroke" mask="url(#Clip4938)" />
    <path d="M 4.300225476356566 3.582503804276076  C 4.933774688081885 2.396346678988584  5.47227997688936 1.2021860690536907  5.915764944331234 0  C 5.915764944331234 0  7.626345031006433 0.528961832167152  7.626345031006433 0.528961832167152  C 7.119505472813759 1.8754103059402296  6.517643705131303 3.221856868889707  5.820739430624139 4.568305342662785  C 5.123835156116973 5.898724872669664  4.371496735776589 7.14900159466915  3.5637211014011942 8.319129776190444  C 2.755945703041322 9.473228536239638  1.916486518879182 10.507102097042045  1.0453561757452254 11.420763356656963  C 0.9820012309711412 11.276501429643474  0.8869744191786729 11.092163799273193  0.7602645296305043 10.867755720311013  C 0.633554640082336 10.627318219876734  0.4989207063798686 10.386880241736556  0.3563721101401194 10.146442741302279  C 0.22966222059195096 9.9060057185739  0.11087112385270709 9.721668088203618  0 9.593435104956328  C 0.7919366916682916 8.8080063508828  1.5521967960077503 7.902369117268982  2.280778483898077 6.876503818172974  C 3.009360289796165 5.850638041371068  3.6825147943111847 4.752631985797369  4.300225476356566 3.582503804276076  Z " stroke-width="0" stroke-dasharray="0" stroke="rgba(121, 121, 121, 1)" fill="none" transform="matrix(1 0 0 1 279 643 )" class="stroke" mask="url(#Clip4938)" />
    <path d="M 3.397415123668701 21.975954195821203  L 3.397415123668701 6.179236643343038  L 5.155515519694165 4.375954195821202  L 5.179260569375861 4.424045804178798  L 5.179260569375861 21.975954195821203  L 3.397415123668701 21.975954195821203  Z " stroke-width="0" stroke-dasharray="0" stroke="rgba(121, 121, 121, 1)" fill="none" transform="matrix(1 0 0 1 279 643 )" class="stroke" mask="url(#Clip4938)" />
  </g>
</svg>