<?xml version="1.0" encoding="utf-8"?>
<svg version="1.1" xmlns:xlink="http://www.w3.org/1999/xlink" width="22px" height="22px" xmlns="http://www.w3.org/2000/svg">
  <defs>
    <pattern id="BGPattern" patternUnits="userSpaceOnUse" alignment="0 0" imageRepeat="None" />
    <mask fill="white" id="Clip4939">
      <path d="M 14.44053732056026 13.991340130628192  L 14.44053732056026 12.561219049508388  L 20.95815211245515 12.561219049508388  L 20.95815211245515 13.991340130628192  L 14.44053732056026 13.991340130628192  Z M 8.625549439296213 4.123516794167607  L 8.625549439296213 3  L 19.722470268572756 3  L 19.722470268572756 4.123516794167607  L 8.625549439296213 4.123516794167607  Z M 6.372250877965047 13.991340130628192  L 6.372250877965047 12.561219049508388  L 12.792956393906707 12.561219049508388  L 12.792956393906707 13.991340130628192  L 6.372250877965047 13.991340130628192  Z M 0 7.984837651558047  L 0 6.316358005557415  L 7.60793272184744 6.316358005557415  L 7.60793272184744 7.984837651558047  L 0 7.984837651558047  Z M 3 21.92848788431098  L 3 0.023837371896340564  L 5 0.023837371896340564  L 5 21.92848788431098  L 3 21.92848788431098  Z M 12.284140332966777 12.847237204099317  C 12.284140332966777 12.847237204099317  12.284140332966777 12.561219049508388  12.284140332966777 12.561219049508388  C 12.284140332966777 12.561219049508388  13.786341941259403 12.561219049508388  13.786341941259403 12.561219049508388  C 13.786341941259403 12.561219049508388  13.786341941259403 12.648607434524031  13.786341941259403 12.823399832202977  C 13.786341941259403 12.998191756316842  13.778263279932473 13.141210778478998  13.762110771163325 13.252442218171948  C 13.71365228207894 15.079816445313739  13.649040321448465 16.541715519209866  13.568276814825785 17.638139795034146  C 13.487513308203106 18.734564189249692  13.390603069472933 19.560857057437072  13.277533582535018 20.11701431509746  C 13.180617567143187 20.689061812254348  13.051392683105297 21.0863138927549  12.889865669859937 21.308776831336438  C 12.728338656614577 21.515349471225843  12.550659134600068 21.658352984131607  12.356826141039472 21.737804063222832  C 12.162994110255815 21.833145381810557  11.936858987487751 21.88876039130941  11.67841499607362 21.904650512414637  C 11.468429493743876 21.936430991407637  11.201909729333645 21.952325256207317  10.878855702842923 21.952325256207317  C 10.571954185121351 21.952325256207317  10.240822460080642 21.94437812380748  9.885462453274684 21.92848788431098  C 9.869309944505536 21.721915126030304  9.82893300507891 21.475613690835363  9.764322007225378 21.189589971854737  C 9.699711009371846 20.919456462772793  9.610871248364592 20.689049292377533  9.497802242815146 20.498366803191175  C 9.837009259463484 20.514257013089857  10.135827301973412 20.530151337085176  10.394270811999071 20.546041546983858  C 10.65271432202473 20.561931756882537  10.854629346631558 20.569878918880196  11.00000385110777 20.569878918880196  C 11.129225846814837 20.569878918880196  11.234214746871938 20.546037432887218  11.314978253494617 20.498366803191175  C 11.411894268886446 20.46658638339381  11.492655849955241 20.403039380778786  11.557266847808771 20.307698136185607  C 11.686488843515837 20.164686261896385  11.79148544578848 19.8389283164107  11.87224895241116 19.33044165884854  C 11.95301245903384 18.821955001286373  12.025703080991248 18.05127714259785  12.09031407884478 17.018413587977026  C 12.154925076698312 15.969659912250973  12.219529335113243 14.579269994262113  12.284140332966777 12.847237204099317  Z M 20.449343753730762 12.847237204099317  C 20.449343753730762 12.847237204099317  20.449343753730762 12.561219049508388  20.449343753730762 12.561219049508388  C 20.449343753730762 12.561219049508388  22 12.561219049508388  22 12.561219049508388  C 22 12.561219049508388  22 12.648607434524031  22 12.823399832202977  C 22 12.998191756316842  22 13.149157674096301  22 13.276279590068288  C 21.935389002146465 15.08776334093104  21.870777041515993 16.541715519209866  21.806166043662458 17.638139795034146  C 21.741555045808926 18.734564189249692  21.65272346840569 19.560857057437072  21.53965398146777 20.11701431509746  C 21.442737966075942 20.673171631953487  21.31351308203805 21.062476580054195  21.151986068792688 21.284939459440096  C 20.99045905554733 21.49151221772077  20.81277953353282 21.63451573062654  20.618946539972224 21.71396669132649  C 20.425114509188568 21.809308009914215  20.190900725093574 21.87287015181291  19.916304224910295 21.904650512414637  C 19.690166213811402 21.936430991407637  19.399419130412863 21.952325256207317  19.044059123606907 21.952325256207317  C 18.688699116800947 21.952325256207317  18.31718275011807 21.94437812380748  17.92951772577382 21.92848788431098  C 17.91336521700467 21.706025004925078  17.872988277578045 21.451791532217236  17.808377279724514 21.165767754040974  C 17.74376628187098 20.895634215361213  17.646840638709726 20.649332750568448  17.51761864300266 20.426869841584733  C 17.905284630123855 20.474540471280775  18.24450175593009 20.498366803191175  18.53525076488252 20.498366803191175  C 18.84215228260409 20.514257013089857  19.068287405372153 20.522204175087516  19.213661909848366 20.522204175087516  C 19.35903641432458 20.522204175087516  19.472103975708613 20.506325005174773  19.552867482331294 20.474544585377412  C 19.64978349772312 20.442764165580048  19.730552781007457 20.371254846884785  19.79516377886099 20.260023392392927  C 19.908232303021965 20.132901728002384  20.00514350452908 19.81509094451436  20.085907011151757 19.306604286952197  C 20.16667051777444 18.79811768858567  20.231282478404914 18.02743977070151  20.2797409674893 16.994576216080688  C 20.34435196534283 15.961712779851132  20.400885264646377 14.579269994262113  20.449343753730762 12.847237204099317  Z M 19.359033525993752 2.860242162239608  C 19.359033525993752 2.860242162239608  19.359033525993752 2.621883597358781  19.359033525993752 2.621883597358781  C 19.359033525993752 2.621883597358781  21.055061388408376 2.621883597358781  21.055061388408376 2.621883597358781  C 21.055061388408376 2.621883597358781  21.046998131512527 2.7092876100220837  21.03084562274338 2.8840795341359486  C 21.03084562274338 3.0588714582498135  21.014689262866465 3.209822221946694  20.982383282551226 3.3369441379186835  C 20.8854672671594 4.512819492834185  20.780477404325353 5.474184073196974  20.66740888016438 6.221023672054631  C 20.55433939322646 6.967863270912289  20.425115471965512 7.54785452631782  20.2797409674893 7.961000279661706  C 20.150518971782233 8.374145559440512  19.988995809644646 8.68400913653415  19.79516377886099 8.890582013206094  C 19.585178276531245 9.097154889878038  19.367106410659026 9.240158284392535  19.140968399560133 9.319609245092488  C 18.93098289723039 9.399060205792441  18.664470835035697 9.446728319673994  18.341416808544977 9.462618322387954  C 18.082972817130848 9.478508798666992  17.719535111774903 9.486455694284293  17.25110658080797 9.486455694284293  C 16.798830558610184 9.486455694284293  16.314246630543273 9.478508798666992  15.797359610491958 9.462618322387954  C 15.781207101722812 9.208375437574134  15.732751500969254 8.938247285697164  15.651987994346573 8.652223448325268  C 15.571224487723894 8.366199610953371  15.466235587666793 8.119897938975887  15.337013591959726 7.913325535869024  C 15.837748103241898 7.9768864938550195  16.306175671431888 8.01662239263677  16.742298222083583 8.032512395350727  C 17.17842173551222 8.032512395350727  17.485309774356594 8.032512395350727  17.662990259148042 8.032512395350727  C 17.8568222899317 8.032512395350727  18.010282195173442 8.024565026168345  18.12335168211136 8.008675023454387  C 18.236420206272335 7.976894070896308  18.333331407779447 7.913332165780153  18.414094914402128 7.817991202366241  C 18.624080416731875 7.627308328408257  18.80175993874638 7.166494461182817  18.94713444322259 6.435544865039118  C 19.092508947698807 5.6887052661814606  19.22981153028669 4.496933278640872  19.359033525993752 2.860242162239608  Z M 13.229078944558402 2.9317542779286296  C 13.422911938119 2.0419027603850237  13.55212815716441 1.0646434416574708  13.616739155017939 0  C 13.616739155017939 0  15.337013591959726 0  15.337013591959726 0  C 15.256250085337047 1.2235453630573776  15.094711518768374 2.3438080762994282  14.852420998900335 3.3607815098150238  C 14.61012951625535 4.361864940616661  14.238628554003558 5.275546253015318  13.73789500549833 6.1018368125729285  C 13.253313002985308 6.92812737213054  12.591041850688349 7.6670314409328295  11.751100804146311 8.318530549941658  C 10.927312266373422 8.954138709106363  9.885461490497741 9.502356588995106  8.625549439296213 9.963172824045946  C 8.544785932673534 9.772489950087962  8.407491052301195 9.557962127192347  8.213658058740597 9.319609245092488  C 8.03597853672609 9.06536588671359  7.858298533323111 8.858800113517855  7.680618529920131 8.69989819211795  C 8.859766593110509 8.30264244148802  9.820856269305866 7.825933835897817  10.563881300456076 7.269777110998144  C 11.306906331606285 6.71361943896831  11.888400498403366 6.078013647629007  12.308371503062856 5.362954054199265  C 12.744495016491495 4.632004458055566  13.051399422543895 3.8216057954722356  13.229078944558402 2.9317542779286296  Z M 8.649780609392291 14.468042106307266  C 8.811307622637653 13.10148411421632  8.908226044971835 11.639584685146382  8.940531543898603 10.082344529445072  C 8.940531543898603 10.082344529445072  10.539650130359998 10.082344529445072  10.539650130359998 10.082344529445072  C 10.491192122664085 11.79848708011137  10.353896760903273 13.403389903695807  10.127758749804382 14.89706933819366  C 9.917773247474637 16.374858651586287  9.546256880791761 17.717580810867403  9.013217351971294 18.925236644775907  C 8.496330331919978 20.117002239187904  7.737156161719919 21.141928783862486  6.7356876205440495 22  C 6.622618614994603 21.825207720712324  6.461088232029944 21.626574044225123  6.251102729700198 21.40411116483922  C 6.057270217528072 21.181648226257686  5.871512034186634 21.006856124556915  5.693832030783655 20.879734445367465  C 6.598384556567696 20.132894728118536  7.27679714569896 19.21921329732861  7.729073167896745 18.13867914260956  C 8.181349190094531 17.04225486678528  8.488253596146931 15.818709858901714  8.649780609392291 14.468042106307266  Z M 16.596911201507112 14.468042106307266  C 16.774591686298564 13.10148411421632  16.87959599078675 11.631637789529082  16.911901008325046 10.05850715754873  C 16.911901008325046 10.05850715754873  18.53525076488252 10.05850715754873  18.53525076488252 10.05850715754873  C 18.486792275798134 11.806430187208026  18.349489693210252 13.427227038809605  18.12335168211136 14.920906710090001  C 17.913366179781615 16.414586144587858  17.52569345322182 17.749361289860403  16.960347944086116 18.925236644775907  C 16.411155906496504 20.10111199969141  15.611604315481348 21.102197087970826  14.561677766609565 21.92848788431098  C 14.448608279671646 21.753695605023303  14.28708511753406 21.555077141814316  14.077100577981255 21.33261420323278  C 13.86711507565151 21.11015132384688  13.673279193760086 20.935359162950473  13.495598708968634 20.808237483761022  C 14.44860924244859 20.077287887617324  15.15932733050662 19.179485685935774  15.627756824250497 18.11484177071322  C 16.09618535521743 17.05019785549067  16.419231679492608 15.834600098398214  16.596911201507112 14.468042106307266  Z " fill-rule="evenodd" />
    </mask>
  </defs>
  <g transform="matrix(1 0 0 1 -255 -643 )">
    <path d="M 14.44053732056026 13.991340130628192  L 14.44053732056026 12.561219049508388  L 20.95815211245515 12.561219049508388  L 20.95815211245515 13.991340130628192  L 14.44053732056026 13.991340130628192  Z M 8.625549439296213 4.123516794167607  L 8.625549439296213 3  L 19.722470268572756 3  L 19.722470268572756 4.123516794167607  L 8.625549439296213 4.123516794167607  Z M 6.372250877965047 13.991340130628192  L 6.372250877965047 12.561219049508388  L 12.792956393906707 12.561219049508388  L 12.792956393906707 13.991340130628192  L 6.372250877965047 13.991340130628192  Z M 0 7.984837651558047  L 0 6.316358005557415  L 7.60793272184744 6.316358005557415  L 7.60793272184744 7.984837651558047  L 0 7.984837651558047  Z M 3 21.92848788431098  L 3 0.023837371896340564  L 5 0.023837371896340564  L 5 21.92848788431098  L 3 21.92848788431098  Z M 12.284140332966777 12.847237204099317  C 12.284140332966777 12.847237204099317  12.284140332966777 12.561219049508388  12.284140332966777 12.561219049508388  C 12.284140332966777 12.561219049508388  13.786341941259403 12.561219049508388  13.786341941259403 12.561219049508388  C 13.786341941259403 12.561219049508388  13.786341941259403 12.648607434524031  13.786341941259403 12.823399832202977  C 13.786341941259403 12.998191756316842  13.778263279932473 13.141210778478998  13.762110771163325 13.252442218171948  C 13.71365228207894 15.079816445313739  13.649040321448465 16.541715519209866  13.568276814825785 17.638139795034146  C 13.487513308203106 18.734564189249692  13.390603069472933 19.560857057437072  13.277533582535018 20.11701431509746  C 13.180617567143187 20.689061812254348  13.051392683105297 21.0863138927549  12.889865669859937 21.308776831336438  C 12.728338656614577 21.515349471225843  12.550659134600068 21.658352984131607  12.356826141039472 21.737804063222832  C 12.162994110255815 21.833145381810557  11.936858987487751 21.88876039130941  11.67841499607362 21.904650512414637  C 11.468429493743876 21.936430991407637  11.201909729333645 21.952325256207317  10.878855702842923 21.952325256207317  C 10.571954185121351 21.952325256207317  10.240822460080642 21.94437812380748  9.885462453274684 21.92848788431098  C 9.869309944505536 21.721915126030304  9.82893300507891 21.475613690835363  9.764322007225378 21.189589971854737  C 9.699711009371846 20.919456462772793  9.610871248364592 20.689049292377533  9.497802242815146 20.498366803191175  C 9.837009259463484 20.514257013089857  10.135827301973412 20.530151337085176  10.394270811999071 20.546041546983858  C 10.65271432202473 20.561931756882537  10.854629346631558 20.569878918880196  11.00000385110777 20.569878918880196  C 11.129225846814837 20.569878918880196  11.234214746871938 20.546037432887218  11.314978253494617 20.498366803191175  C 11.411894268886446 20.46658638339381  11.492655849955241 20.403039380778786  11.557266847808771 20.307698136185607  C 11.686488843515837 20.164686261896385  11.79148544578848 19.8389283164107  11.87224895241116 19.33044165884854  C 11.95301245903384 18.821955001286373  12.025703080991248 18.05127714259785  12.09031407884478 17.018413587977026  C 12.154925076698312 15.969659912250973  12.219529335113243 14.579269994262113  12.284140332966777 12.847237204099317  Z M 20.449343753730762 12.847237204099317  C 20.449343753730762 12.847237204099317  20.449343753730762 12.561219049508388  20.449343753730762 12.561219049508388  C 20.449343753730762 12.561219049508388  22 12.561219049508388  22 12.561219049508388  C 22 12.561219049508388  22 12.648607434524031  22 12.823399832202977  C 22 12.998191756316842  22 13.149157674096301  22 13.276279590068288  C 21.935389002146465 15.08776334093104  21.870777041515993 16.541715519209866  21.806166043662458 17.638139795034146  C 21.741555045808926 18.734564189249692  21.65272346840569 19.560857057437072  21.53965398146777 20.11701431509746  C 21.442737966075942 20.673171631953487  21.31351308203805 21.062476580054195  21.151986068792688 21.284939459440096  C 20.99045905554733 21.49151221772077  20.81277953353282 21.63451573062654  20.618946539972224 21.71396669132649  C 20.425114509188568 21.809308009914215  20.190900725093574 21.87287015181291  19.916304224910295 21.904650512414637  C 19.690166213811402 21.936430991407637  19.399419130412863 21.952325256207317  19.044059123606907 21.952325256207317  C 18.688699116800947 21.952325256207317  18.31718275011807 21.94437812380748  17.92951772577382 21.92848788431098  C 17.91336521700467 21.706025004925078  17.872988277578045 21.451791532217236  17.808377279724514 21.165767754040974  C 17.74376628187098 20.895634215361213  17.646840638709726 20.649332750568448  17.51761864300266 20.426869841584733  C 17.905284630123855 20.474540471280775  18.24450175593009 20.498366803191175  18.53525076488252 20.498366803191175  C 18.84215228260409 20.514257013089857  19.068287405372153 20.522204175087516  19.213661909848366 20.522204175087516  C 19.35903641432458 20.522204175087516  19.472103975708613 20.506325005174773  19.552867482331294 20.474544585377412  C 19.64978349772312 20.442764165580048  19.730552781007457 20.371254846884785  19.79516377886099 20.260023392392927  C 19.908232303021965 20.132901728002384  20.00514350452908 19.81509094451436  20.085907011151757 19.306604286952197  C 20.16667051777444 18.79811768858567  20.231282478404914 18.02743977070151  20.2797409674893 16.994576216080688  C 20.34435196534283 15.961712779851132  20.400885264646377 14.579269994262113  20.449343753730762 12.847237204099317  Z M 19.359033525993752 2.860242162239608  C 19.359033525993752 2.860242162239608  19.359033525993752 2.621883597358781  19.359033525993752 2.621883597358781  C 19.359033525993752 2.621883597358781  21.055061388408376 2.621883597358781  21.055061388408376 2.621883597358781  C 21.055061388408376 2.621883597358781  21.046998131512527 2.7092876100220837  21.03084562274338 2.8840795341359486  C 21.03084562274338 3.0588714582498135  21.014689262866465 3.209822221946694  20.982383282551226 3.3369441379186835  C 20.8854672671594 4.512819492834185  20.780477404325353 5.474184073196974  20.66740888016438 6.221023672054631  C 20.55433939322646 6.967863270912289  20.425115471965512 7.54785452631782  20.2797409674893 7.961000279661706  C 20.150518971782233 8.374145559440512  19.988995809644646 8.68400913653415  19.79516377886099 8.890582013206094  C 19.585178276531245 9.097154889878038  19.367106410659026 9.240158284392535  19.140968399560133 9.319609245092488  C 18.93098289723039 9.399060205792441  18.664470835035697 9.446728319673994  18.341416808544977 9.462618322387954  C 18.082972817130848 9.478508798666992  17.719535111774903 9.486455694284293  17.25110658080797 9.486455694284293  C 16.798830558610184 9.486455694284293  16.314246630543273 9.478508798666992  15.797359610491958 9.462618322387954  C 15.781207101722812 9.208375437574134  15.732751500969254 8.938247285697164  15.651987994346573 8.652223448325268  C 15.571224487723894 8.366199610953371  15.466235587666793 8.119897938975887  15.337013591959726 7.913325535869024  C 15.837748103241898 7.9768864938550195  16.306175671431888 8.01662239263677  16.742298222083583 8.032512395350727  C 17.17842173551222 8.032512395350727  17.485309774356594 8.032512395350727  17.662990259148042 8.032512395350727  C 17.8568222899317 8.032512395350727  18.010282195173442 8.024565026168345  18.12335168211136 8.008675023454387  C 18.236420206272335 7.976894070896308  18.333331407779447 7.913332165780153  18.414094914402128 7.817991202366241  C 18.624080416731875 7.627308328408257  18.80175993874638 7.166494461182817  18.94713444322259 6.435544865039118  C 19.092508947698807 5.6887052661814606  19.22981153028669 4.496933278640872  19.359033525993752 2.860242162239608  Z M 13.229078944558402 2.9317542779286296  C 13.422911938119 2.0419027603850237  13.55212815716441 1.0646434416574708  13.616739155017939 0  C 13.616739155017939 0  15.337013591959726 0  15.337013591959726 0  C 15.256250085337047 1.2235453630573776  15.094711518768374 2.3438080762994282  14.852420998900335 3.3607815098150238  C 14.61012951625535 4.361864940616661  14.238628554003558 5.275546253015318  13.73789500549833 6.1018368125729285  C 13.253313002985308 6.92812737213054  12.591041850688349 7.6670314409328295  11.751100804146311 8.318530549941658  C 10.927312266373422 8.954138709106363  9.885461490497741 9.502356588995106  8.625549439296213 9.963172824045946  C 8.544785932673534 9.772489950087962  8.407491052301195 9.557962127192347  8.213658058740597 9.319609245092488  C 8.03597853672609 9.06536588671359  7.858298533323111 8.858800113517855  7.680618529920131 8.69989819211795  C 8.859766593110509 8.30264244148802  9.820856269305866 7.825933835897817  10.563881300456076 7.269777110998144  C 11.306906331606285 6.71361943896831  11.888400498403366 6.078013647629007  12.308371503062856 5.362954054199265  C 12.744495016491495 4.632004458055566  13.051399422543895 3.8216057954722356  13.229078944558402 2.9317542779286296  Z M 8.649780609392291 14.468042106307266  C 8.811307622637653 13.10148411421632  8.908226044971835 11.639584685146382  8.940531543898603 10.082344529445072  C 8.940531543898603 10.082344529445072  10.539650130359998 10.082344529445072  10.539650130359998 10.082344529445072  C 10.491192122664085 11.79848708011137  10.353896760903273 13.403389903695807  10.127758749804382 14.89706933819366  C 9.917773247474637 16.374858651586287  9.546256880791761 17.717580810867403  9.013217351971294 18.925236644775907  C 8.496330331919978 20.117002239187904  7.737156161719919 21.141928783862486  6.7356876205440495 22  C 6.622618614994603 21.825207720712324  6.461088232029944 21.626574044225123  6.251102729700198 21.40411116483922  C 6.057270217528072 21.181648226257686  5.871512034186634 21.006856124556915  5.693832030783655 20.879734445367465  C 6.598384556567696 20.132894728118536  7.27679714569896 19.21921329732861  7.729073167896745 18.13867914260956  C 8.181349190094531 17.04225486678528  8.488253596146931 15.818709858901714  8.649780609392291 14.468042106307266  Z M 16.596911201507112 14.468042106307266  C 16.774591686298564 13.10148411421632  16.87959599078675 11.631637789529082  16.911901008325046 10.05850715754873  C 16.911901008325046 10.05850715754873  18.53525076488252 10.05850715754873  18.53525076488252 10.05850715754873  C 18.486792275798134 11.806430187208026  18.349489693210252 13.427227038809605  18.12335168211136 14.920906710090001  C 17.913366179781615 16.414586144587858  17.52569345322182 17.749361289860403  16.960347944086116 18.925236644775907  C 16.411155906496504 20.10111199969141  15.611604315481348 21.102197087970826  14.561677766609565 21.92848788431098  C 14.448608279671646 21.753695605023303  14.28708511753406 21.555077141814316  14.077100577981255 21.33261420323278  C 13.86711507565151 21.11015132384688  13.673279193760086 20.935359162950473  13.495598708968634 20.808237483761022  C 14.44860924244859 20.077287887617324  15.15932733050662 19.179485685935774  15.627756824250497 18.11484177071322  C 16.09618535521743 17.05019785549067  16.419231679492608 15.834600098398214  16.596911201507112 14.468042106307266  Z " fill-rule="nonzero" fill="rgba(0, 0, 0, 1)" stroke="none" transform="matrix(1 0 0 1 255 643 )" class="fill" />
    <path d="M 14.44053732056026 13.991340130628192  L 14.44053732056026 12.561219049508388  L 20.95815211245515 12.561219049508388  L 20.95815211245515 13.991340130628192  L 14.44053732056026 13.991340130628192  Z " stroke-width="0" stroke-dasharray="0" stroke="rgba(121, 121, 121, 1)" fill="none" transform="matrix(1 0 0 1 255 643 )" class="stroke" mask="url(#Clip4939)" />
    <path d="M 8.625549439296213 4.123516794167607  L 8.625549439296213 3  L 19.722470268572756 3  L 19.722470268572756 4.123516794167607  L 8.625549439296213 4.123516794167607  Z " stroke-width="0" stroke-dasharray="0" stroke="rgba(121, 121, 121, 1)" fill="none" transform="matrix(1 0 0 1 255 643 )" class="stroke" mask="url(#Clip4939)" />
    <path d="M 6.372250877965047 13.991340130628192  L 6.372250877965047 12.561219049508388  L 12.792956393906707 12.561219049508388  L 12.792956393906707 13.991340130628192  L 6.372250877965047 13.991340130628192  Z " stroke-width="0" stroke-dasharray="0" stroke="rgba(121, 121, 121, 1)" fill="none" transform="matrix(1 0 0 1 255 643 )" class="stroke" mask="url(#Clip4939)" />
    <path d="M 0 7.984837651558047  L 0 6.316358005557415  L 7.60793272184744 6.316358005557415  L 7.60793272184744 7.984837651558047  L 0 7.984837651558047  Z " stroke-width="0" stroke-dasharray="0" stroke="rgba(121, 121, 121, 1)" fill="none" transform="matrix(1 0 0 1 255 643 )" class="stroke" mask="url(#Clip4939)" />
    <path d="M 3 21.92848788431098  L 3 0.023837371896340564  L 5 0.023837371896340564  L 5 21.92848788431098  L 3 21.92848788431098  Z " stroke-width="0" stroke-dasharray="0" stroke="rgba(121, 121, 121, 1)" fill="none" transform="matrix(1 0 0 1 255 643 )" class="stroke" mask="url(#Clip4939)" />
    <path d="M 12.284140332966777 12.847237204099317  C 12.284140332966777 12.847237204099317  12.284140332966777 12.561219049508388  12.284140332966777 12.561219049508388  C 12.284140332966777 12.561219049508388  13.786341941259403 12.561219049508388  13.786341941259403 12.561219049508388  C 13.786341941259403 12.561219049508388  13.786341941259403 12.648607434524031  13.786341941259403 12.823399832202977  C 13.786341941259403 12.998191756316842  13.778263279932473 13.141210778478998  13.762110771163325 13.252442218171948  C 13.71365228207894 15.079816445313739  13.649040321448465 16.541715519209866  13.568276814825785 17.638139795034146  C 13.487513308203106 18.734564189249692  13.390603069472933 19.560857057437072  13.277533582535018 20.11701431509746  C 13.180617567143187 20.689061812254348  13.051392683105297 21.0863138927549  12.889865669859937 21.308776831336438  C 12.728338656614577 21.515349471225843  12.550659134600068 21.658352984131607  12.356826141039472 21.737804063222832  C 12.162994110255815 21.833145381810557  11.936858987487751 21.88876039130941  11.67841499607362 21.904650512414637  C 11.468429493743876 21.936430991407637  11.201909729333645 21.952325256207317  10.878855702842923 21.952325256207317  C 10.571954185121351 21.952325256207317  10.240822460080642 21.94437812380748  9.885462453274684 21.92848788431098  C 9.869309944505536 21.721915126030304  9.82893300507891 21.475613690835363  9.764322007225378 21.189589971854737  C 9.699711009371846 20.919456462772793  9.610871248364592 20.689049292377533  9.497802242815146 20.498366803191175  C 9.837009259463484 20.514257013089857  10.135827301973412 20.530151337085176  10.394270811999071 20.546041546983858  C 10.65271432202473 20.561931756882537  10.854629346631558 20.569878918880196  11.00000385110777 20.569878918880196  C 11.129225846814837 20.569878918880196  11.234214746871938 20.546037432887218  11.314978253494617 20.498366803191175  C 11.411894268886446 20.46658638339381  11.492655849955241 20.403039380778786  11.557266847808771 20.307698136185607  C 11.686488843515837 20.164686261896385  11.79148544578848 19.8389283164107  11.87224895241116 19.33044165884854  C 11.95301245903384 18.821955001286373  12.025703080991248 18.05127714259785  12.09031407884478 17.018413587977026  C 12.154925076698312 15.969659912250973  12.219529335113243 14.579269994262113  12.284140332966777 12.847237204099317  Z " stroke-width="0" stroke-dasharray="0" stroke="rgba(121, 121, 121, 1)" fill="none" transform="matrix(1 0 0 1 255 643 )" class="stroke" mask="url(#Clip4939)" />
    <path d="M 20.449343753730762 12.847237204099317  C 20.449343753730762 12.847237204099317  20.449343753730762 12.561219049508388  20.449343753730762 12.561219049508388  C 20.449343753730762 12.561219049508388  22 12.561219049508388  22 12.561219049508388  C 22 12.561219049508388  22 12.648607434524031  22 12.823399832202977  C 22 12.998191756316842  22 13.149157674096301  22 13.276279590068288  C 21.935389002146465 15.08776334093104  21.870777041515993 16.541715519209866  21.806166043662458 17.638139795034146  C 21.741555045808926 18.734564189249692  21.65272346840569 19.560857057437072  21.53965398146777 20.11701431509746  C 21.442737966075942 20.673171631953487  21.31351308203805 21.062476580054195  21.151986068792688 21.284939459440096  C 20.99045905554733 21.49151221772077  20.81277953353282 21.63451573062654  20.618946539972224 21.71396669132649  C 20.425114509188568 21.809308009914215  20.190900725093574 21.87287015181291  19.916304224910295 21.904650512414637  C 19.690166213811402 21.936430991407637  19.399419130412863 21.952325256207317  19.044059123606907 21.952325256207317  C 18.688699116800947 21.952325256207317  18.31718275011807 21.94437812380748  17.92951772577382 21.92848788431098  C 17.91336521700467 21.706025004925078  17.872988277578045 21.451791532217236  17.808377279724514 21.165767754040974  C 17.74376628187098 20.895634215361213  17.646840638709726 20.649332750568448  17.51761864300266 20.426869841584733  C 17.905284630123855 20.474540471280775  18.24450175593009 20.498366803191175  18.53525076488252 20.498366803191175  C 18.84215228260409 20.514257013089857  19.068287405372153 20.522204175087516  19.213661909848366 20.522204175087516  C 19.35903641432458 20.522204175087516  19.472103975708613 20.506325005174773  19.552867482331294 20.474544585377412  C 19.64978349772312 20.442764165580048  19.730552781007457 20.371254846884785  19.79516377886099 20.260023392392927  C 19.908232303021965 20.132901728002384  20.00514350452908 19.81509094451436  20.085907011151757 19.306604286952197  C 20.16667051777444 18.79811768858567  20.231282478404914 18.02743977070151  20.2797409674893 16.994576216080688  C 20.34435196534283 15.961712779851132  20.400885264646377 14.579269994262113  20.449343753730762 12.847237204099317  Z " stroke-width="0" stroke-dasharray="0" stroke="rgba(121, 121, 121, 1)" fill="none" transform="matrix(1 0 0 1 255 643 )" class="stroke" mask="url(#Clip4939)" />
    <path d="M 19.359033525993752 2.860242162239608  C 19.359033525993752 2.860242162239608  19.359033525993752 2.621883597358781  19.359033525993752 2.621883597358781  C 19.359033525993752 2.621883597358781  21.055061388408376 2.621883597358781  21.055061388408376 2.621883597358781  C 21.055061388408376 2.621883597358781  21.046998131512527 2.7092876100220837  21.03084562274338 2.8840795341359486  C 21.03084562274338 3.0588714582498135  21.014689262866465 3.209822221946694  20.982383282551226 3.3369441379186835  C 20.8854672671594 4.512819492834185  20.780477404325353 5.474184073196974  20.66740888016438 6.221023672054631  C 20.55433939322646 6.967863270912289  20.425115471965512 7.54785452631782  20.2797409674893 7.961000279661706  C 20.150518971782233 8.374145559440512  19.988995809644646 8.68400913653415  19.79516377886099 8.890582013206094  C 19.585178276531245 9.097154889878038  19.367106410659026 9.240158284392535  19.140968399560133 9.319609245092488  C 18.93098289723039 9.399060205792441  18.664470835035697 9.446728319673994  18.341416808544977 9.462618322387954  C 18.082972817130848 9.478508798666992  17.719535111774903 9.486455694284293  17.25110658080797 9.486455694284293  C 16.798830558610184 9.486455694284293  16.314246630543273 9.478508798666992  15.797359610491958 9.462618322387954  C 15.781207101722812 9.208375437574134  15.732751500969254 8.938247285697164  15.651987994346573 8.652223448325268  C 15.571224487723894 8.366199610953371  15.466235587666793 8.119897938975887  15.337013591959726 7.913325535869024  C 15.837748103241898 7.9768864938550195  16.306175671431888 8.01662239263677  16.742298222083583 8.032512395350727  C 17.17842173551222 8.032512395350727  17.485309774356594 8.032512395350727  17.662990259148042 8.032512395350727  C 17.8568222899317 8.032512395350727  18.010282195173442 8.024565026168345  18.12335168211136 8.008675023454387  C 18.236420206272335 7.976894070896308  18.333331407779447 7.913332165780153  18.414094914402128 7.817991202366241  C 18.624080416731875 7.627308328408257  18.80175993874638 7.166494461182817  18.94713444322259 6.435544865039118  C 19.092508947698807 5.6887052661814606  19.22981153028669 4.496933278640872  19.359033525993752 2.860242162239608  Z " stroke-width="0" stroke-dasharray="0" stroke="rgba(121, 121, 121, 1)" fill="none" transform="matrix(1 0 0 1 255 643 )" class="stroke" mask="url(#Clip4939)" />
    <path d="M 13.229078944558402 2.9317542779286296  C 13.422911938119 2.0419027603850237  13.55212815716441 1.0646434416574708  13.616739155017939 0  C 13.616739155017939 0  15.337013591959726 0  15.337013591959726 0  C 15.256250085337047 1.2235453630573776  15.094711518768374 2.3438080762994282  14.852420998900335 3.3607815098150238  C 14.61012951625535 4.361864940616661  14.238628554003558 5.275546253015318  13.73789500549833 6.1018368125729285  C 13.253313002985308 6.92812737213054  12.591041850688349 7.6670314409328295  11.751100804146311 8.318530549941658  C 10.927312266373422 8.954138709106363  9.885461490497741 9.502356588995106  8.625549439296213 9.963172824045946  C 8.544785932673534 9.772489950087962  8.407491052301195 9.557962127192347  8.213658058740597 9.319609245092488  C 8.03597853672609 9.06536588671359  7.858298533323111 8.858800113517855  7.680618529920131 8.69989819211795  C 8.859766593110509 8.30264244148802  9.820856269305866 7.825933835897817  10.563881300456076 7.269777110998144  C 11.306906331606285 6.71361943896831  11.888400498403366 6.078013647629007  12.308371503062856 5.362954054199265  C 12.744495016491495 4.632004458055566  13.051399422543895 3.8216057954722356  13.229078944558402 2.9317542779286296  Z " stroke-width="0" stroke-dasharray="0" stroke="rgba(121, 121, 121, 1)" fill="none" transform="matrix(1 0 0 1 255 643 )" class="stroke" mask="url(#Clip4939)" />
    <path d="M 8.649780609392291 14.468042106307266  C 8.811307622637653 13.10148411421632  8.908226044971835 11.639584685146382  8.940531543898603 10.082344529445072  C 8.940531543898603 10.082344529445072  10.539650130359998 10.082344529445072  10.539650130359998 10.082344529445072  C 10.491192122664085 11.79848708011137  10.353896760903273 13.403389903695807  10.127758749804382 14.89706933819366  C 9.917773247474637 16.374858651586287  9.546256880791761 17.717580810867403  9.013217351971294 18.925236644775907  C 8.496330331919978 20.117002239187904  7.737156161719919 21.141928783862486  6.7356876205440495 22  C 6.622618614994603 21.825207720712324  6.461088232029944 21.626574044225123  6.251102729700198 21.40411116483922  C 6.057270217528072 21.181648226257686  5.871512034186634 21.006856124556915  5.693832030783655 20.879734445367465  C 6.598384556567696 20.132894728118536  7.27679714569896 19.21921329732861  7.729073167896745 18.13867914260956  C 8.181349190094531 17.04225486678528  8.488253596146931 15.818709858901714  8.649780609392291 14.468042106307266  Z " stroke-width="0" stroke-dasharray="0" stroke="rgba(121, 121, 121, 1)" fill="none" transform="matrix(1 0 0 1 255 643 )" class="stroke" mask="url(#Clip4939)" />
    <path d="M 16.596911201507112 14.468042106307266  C 16.774591686298564 13.10148411421632  16.87959599078675 11.631637789529082  16.911901008325046 10.05850715754873  C 16.911901008325046 10.05850715754873  18.53525076488252 10.05850715754873  18.53525076488252 10.05850715754873  C 18.486792275798134 11.806430187208026  18.349489693210252 13.427227038809605  18.12335168211136 14.920906710090001  C 17.913366179781615 16.414586144587858  17.52569345322182 17.749361289860403  16.960347944086116 18.925236644775907  C 16.411155906496504 20.10111199969141  15.611604315481348 21.102197087970826  14.561677766609565 21.92848788431098  C 14.448608279671646 21.753695605023303  14.28708511753406 21.555077141814316  14.077100577981255 21.33261420323278  C 13.86711507565151 21.11015132384688  13.673279193760086 20.935359162950473  13.495598708968634 20.808237483761022  C 14.44860924244859 20.077287887617324  15.15932733050662 19.179485685935774  15.627756824250497 18.11484177071322  C 16.09618535521743 17.05019785549067  16.419231679492608 15.834600098398214  16.596911201507112 14.468042106307266  Z " stroke-width="0" stroke-dasharray="0" stroke="rgba(121, 121, 121, 1)" fill="none" transform="matrix(1 0 0 1 255 643 )" class="stroke" mask="url(#Clip4939)" />
  </g>
</svg>