<?xml version="1.0" encoding="utf-8"?>
<svg version="1.1" xmlns:xlink="http://www.w3.org/1999/xlink" width="10px" height="17px" xmlns="http://www.w3.org/2000/svg">
  <defs>
    <pattern id="BGPattern" patternUnits="userSpaceOnUse" alignment="0 0" imageRepeat="None" />
    <mask fill="white" id="Clip4983">
      <path d="M 5.254228416870256 9.741574312939166  L 10 17  L 7.845035275934316 17  L 4.0677932182150975 10.98314862587833  L 1.7433377514843909 13.609552907055138  L 1.7433377514843909 17  L 0 17  L 0 0  L 1.7433377514843909 0  L 1.7433377514843909 11.365166236709502  L 7.11864198044006 5.252808562353612  L 9.297821866922828 5.252808562353612  L 5.254228416870256 9.741574312939166  Z " fill-rule="evenodd" />
    </mask>
  </defs>
  <g transform="matrix(1 0 0 1 -269 -553 )">
    <path d="M 5.254228416870256 9.741574312939166  L 10 17  L 7.845035275934316 17  L 4.0677932182150975 10.98314862587833  L 1.7433377514843909 13.609552907055138  L 1.7433377514843909 17  L 0 17  L 0 0  L 1.7433377514843909 0  L 1.7433377514843909 11.365166236709502  L 7.11864198044006 5.252808562353612  L 9.297821866922828 5.252808562353612  L 5.254228416870256 9.741574312939166  Z " fill-rule="nonzero" fill="rgba(0, 0, 0, 1)" stroke="none" transform="matrix(1 0 0 1 269 553 )" class="fill" />
    <path d="M 5.254228416870256 9.741574312939166  L 10 17  L 7.845035275934316 17  L 4.0677932182150975 10.98314862587833  L 1.7433377514843909 13.609552907055138  L 1.7433377514843909 17  L 0 17  L 0 0  L 1.7433377514843909 0  L 1.7433377514843909 11.365166236709502  L 7.11864198044006 5.252808562353612  L 9.297821866922828 5.252808562353612  L 5.254228416870256 9.741574312939166  Z " stroke-width="0" stroke-dasharray="0" stroke="rgba(121, 121, 121, 1)" fill="none" transform="matrix(1 0 0 1 269 553 )" class="stroke" mask="url(#Clip4983)" />
  </g>
</svg>