<?xml version="1.0" encoding="utf-8"?>
<svg version="1.1" xmlns:xlink="http://www.w3.org/1999/xlink" width="22px" height="22px" xmlns="http://www.w3.org/2000/svg">
  <defs>
    <pattern id="BGPattern" patternUnits="userSpaceOnUse" alignment="0 0" imageRepeat="None" />
    <mask fill="white" id="Clip4966">
      <path d="M 0.640771718294017 16  L 0.640771718294017 14.762213103890078  L 21.430416756684465 14.762213103890078  L 21.430416756684465 16  L 0.640771718294017 16  Z M 0.7119752819700352 6  L 0.7119752819700352 4.275791656542005  L 21.335493760480645 4.275791656542005  L 21.335493760480645 6  L 0.7119752819700352 6  Z M 1.6850001200237306 10  L 1.6850001200237306 8.384374516777486  L 20.48112643985611 8.384374516777486  L 20.48112643985611 10  L 1.6850001200237306 10  Z M 2.8716356491054804 13  L 2.8716356491054804 11.609119927544237  L 19.3182254319997 11.609119927544237  L 19.3182254319997 13  L 2.8716356491054804 13  Z M 10 22  L 10 9.077098842474983  L 11.842500060011865 9.077098842474983  L 11.842500060011865 22  L 10 22  Z M 7.87918205542353 5.01629426318231  L 7.87918205542353 0  L 9.56418217544726 0  L 9.56418217544726 5.01629426318231  L 7.87918205542353 5.01629426318231  Z M 12.388348782102062 4.920737701296693  L 12.388348782102062 0  L 14.09708342335113 0  L 14.09708342335113 4.920737701296693  L 12.388348782102062 4.920737701296693  Z M 6.929876649897637 17.318138516424042  C 7.97410505162735 16.69707461188603  8.828484631818634 16.05212346525078  9.492993700468778 15.383285195166671  C 9.492993700468778 15.383285195166671  10.916929175711312 16.052120380392765  10.916929175711312 16.052120380392765  C 10.189133865895771 16.86428103522485  9.287307404778316 17.636632546555038  8.211435175183208 18.36916957520599  C 7.135563417109896 19.08578185489104  5.988498468840125 19.71480421851529  4.770231371459729 20.256244615520554  C 3.55196474560113 20.813609761491723  2.3495095423152232 21.25949596957907  1.1628859191588736 21.59391498597274  C 1.0837776461803306 21.43466785225886  0.9730275493040338 21.259496088227458  0.8306327993991955 21.06839945658177  C 0.7040596097857061 20.89322757390198  0.5695860135060989 20.71010657569629  0.4271912046610359 20.519009973712695  C 0.28479639581597277 20.343838076201862  0.14239486778528784 20.200508839509634  0 20.089035819214033  C 1.1708019449845513 19.818315620711402  2.3574313442829267 19.444078858807906  3.559876409850176 18.96633733901787  C 4.762321593297875 18.488595759903646  5.885647776646125 17.939202420962054  6.929876649897637 17.318138516424042  Z M 11.011867260612668 15.93268986502905  C 11.011867260612668 15.93268986502905  12.388348782102062 15.335506914223863  12.388348782102062 15.335506914223863  C 12.894641540556018 15.861022680911606  13.503781690551389 16.37060895269804  14.215756029477829 16.864275221453976  C 14.943551810815167 17.35794149020991  15.734627703534528 17.811807276796067  16.588996910246255 18.22584991937087  C 17.459186616325287 18.639892561945672  18.353115558847634 19.006149745350363  19.27077147824656 19.32464407210232  C 20.188427397645476 19.62721370921257  21.098166466055574 19.88201449792663  22 20.089035819214033  C 21.87342657462561 20.216433558813442  21.731025105535153 20.36771202967996  21.572808795338965 20.542883927190793  C 21.430413927553676 20.73398052917439  21.288027547160755 20.92508113554098  21.145632679375463 21.116177737524577  C 21.00323781159018 21.323199058811976  20.89248771471388 21.50633527367307  20.81337955961579 21.665582407386953  C 19.91154602567136 21.410786957850227  18.993893878446823 21.092285927464506  18.060416516637 20.71009272349732  C 17.142760597238084 20.327899519530128  16.24883165471573 19.889977732610372  15.378641948636702 19.396311493516535  C 14.524272741924975 18.902645254422694  13.717371634620331 18.361201149655393  12.957932025417598 17.771986624400803  C 12.21431480166936 17.182772099146213  11.565624346299325 16.569678637181347  11.011867260612668 15.93268986502905  Z M 17.395895188420113 1.5048943537520159  C 17.601576768892592 1.0590023318937904  17.767702385728835 0.6608724547979854  17.89427486805963 0.3105284521416422  C 17.89427486805963 0.3105284521416422  19.721682115435392 0.8121700280545185  19.721682115435392 0.8121700280545185  C 19.373605667177625 1.4491590375035897  19.001790925520133 2.1020744569959575  18.606250150029663 2.7709124897832957  C 18.210709374539196 3.4238260109015  17.846822800393678 3.9891485481234397  17.514567794546807 4.466889593319932  C 17.514567794546807 4.466889593319932  16.066882709381396 3.9652632044003626  16.066882709381396 3.9652632044003626  C 16.28838573226478 3.630843713413152  16.509885926017372 3.2486430939218893  16.731388948900754 2.8186755837327975  C 16.968713414195037 2.388708073543705  17.19021360794763 1.950786375610241  17.395895188420113 1.5048943537520159  Z M 14.07334890212579 6.831701882082662  C 14.342316252241872 6.274336380166339  14.555919398921159 5.780679365984448  14.714135709117345 5.350711855795357  C 14.714135709117345 5.350711855795357  16.541527867795576 5.828449104243522  16.541527867795576 5.828449104243522  C 16.256738132225 6.353964633634496  15.964037203927177 6.87948016302547  15.6634260259457 7.404995692416444  C 15.362814847964225 7.914586710138284  15.078026998480844 8.36843766567629  14.809058705321165 8.766555203340035  C 14.809058705321165 8.766555203340035  13.337654187627955 8.312707095363272  13.337654187627955 8.312707095363272  C 13.574978652922233 7.882739585174181  13.820202051377015 7.389066434811903  14.07334890212579 6.831701882082662  Z M 3.7734569234831574 2.651466787426274  C 3.409559032814488 1.966703293782721  3.029846772561889 1.345645440312355  2.634305525549623 0.7882808875831142  C 2.634305525549623 0.7882808875831142  4.153179085693514 0.2627653581921403  4.153179085693514 0.2627653581921403  C 4.56454177511668 0.7882808875831142  4.960079721476361 1.385460990827056  5.339799526077727 2.054299023614394  C 5.735340301568195 2.7231370564017316  6.020128622573377 3.3043879020411318  6.194166846702262 3.7980544080938388  C 6.194166846702262 3.7980544080938388  4.5803702903545505 4.419111312377123  4.5803702903545505 4.419111312377123  C 4.422153980158363 3.9254448063244163  4.153176492323625 3.3362293318827456  3.7734569234831574 2.651466787426274  Z M 6.45523149148346 7.333343457995538  C 6.233728468600078 6.823752440273697  5.996402588740403 6.369886297742385  5.743256209513424 5.971768760078642  C 5.743256209513424 5.971768760078642  7.428256329537154 5.661240307936999  7.428256329537154 5.661240307936999  C 7.697224151175033 6.043433333931609  7.950375717141789 6.4813702188583795  8.187700653957869 6.975036724911087  C 8.440847033184847 7.452777770107579  8.614885257313732 7.874770685030043  8.709814854822726 8.24103967394906  C 8.709814854822726 8.24103967394906  6.953611171122977 8.599346407033511  6.953611171122977 8.599346407033511  C 6.858681102092184 8.249002878970709  6.692555956777739 7.827009964048244  6.45523149148346 7.333343457995538  Z " fill-rule="evenodd" />
    </mask>
  </defs>
  <g transform="matrix(1 0 0 1 -285 -612 )">
    <path d="M 0.640771718294017 16  L 0.640771718294017 14.762213103890078  L 21.430416756684465 14.762213103890078  L 21.430416756684465 16  L 0.640771718294017 16  Z M 0.7119752819700352 6  L 0.7119752819700352 4.275791656542005  L 21.335493760480645 4.275791656542005  L 21.335493760480645 6  L 0.7119752819700352 6  Z M 1.6850001200237306 10  L 1.6850001200237306 8.384374516777486  L 20.48112643985611 8.384374516777486  L 20.48112643985611 10  L 1.6850001200237306 10  Z M 2.8716356491054804 13  L 2.8716356491054804 11.609119927544237  L 19.3182254319997 11.609119927544237  L 19.3182254319997 13  L 2.8716356491054804 13  Z M 10 22  L 10 9.077098842474983  L 11.842500060011865 9.077098842474983  L 11.842500060011865 22  L 10 22  Z M 7.87918205542353 5.01629426318231  L 7.87918205542353 0  L 9.56418217544726 0  L 9.56418217544726 5.01629426318231  L 7.87918205542353 5.01629426318231  Z M 12.388348782102062 4.920737701296693  L 12.388348782102062 0  L 14.09708342335113 0  L 14.09708342335113 4.920737701296693  L 12.388348782102062 4.920737701296693  Z M 6.929876649897637 17.318138516424042  C 7.97410505162735 16.69707461188603  8.828484631818634 16.05212346525078  9.492993700468778 15.383285195166671  C 9.492993700468778 15.383285195166671  10.916929175711312 16.052120380392765  10.916929175711312 16.052120380392765  C 10.189133865895771 16.86428103522485  9.287307404778316 17.636632546555038  8.211435175183208 18.36916957520599  C 7.135563417109896 19.08578185489104  5.988498468840125 19.71480421851529  4.770231371459729 20.256244615520554  C 3.55196474560113 20.813609761491723  2.3495095423152232 21.25949596957907  1.1628859191588736 21.59391498597274  C 1.0837776461803306 21.43466785225886  0.9730275493040338 21.259496088227458  0.8306327993991955 21.06839945658177  C 0.7040596097857061 20.89322757390198  0.5695860135060989 20.71010657569629  0.4271912046610359 20.519009973712695  C 0.28479639581597277 20.343838076201862  0.14239486778528784 20.200508839509634  0 20.089035819214033  C 1.1708019449845513 19.818315620711402  2.3574313442829267 19.444078858807906  3.559876409850176 18.96633733901787  C 4.762321593297875 18.488595759903646  5.885647776646125 17.939202420962054  6.929876649897637 17.318138516424042  Z M 11.011867260612668 15.93268986502905  C 11.011867260612668 15.93268986502905  12.388348782102062 15.335506914223863  12.388348782102062 15.335506914223863  C 12.894641540556018 15.861022680911606  13.503781690551389 16.37060895269804  14.215756029477829 16.864275221453976  C 14.943551810815167 17.35794149020991  15.734627703534528 17.811807276796067  16.588996910246255 18.22584991937087  C 17.459186616325287 18.639892561945672  18.353115558847634 19.006149745350363  19.27077147824656 19.32464407210232  C 20.188427397645476 19.62721370921257  21.098166466055574 19.88201449792663  22 20.089035819214033  C 21.87342657462561 20.216433558813442  21.731025105535153 20.36771202967996  21.572808795338965 20.542883927190793  C 21.430413927553676 20.73398052917439  21.288027547160755 20.92508113554098  21.145632679375463 21.116177737524577  C 21.00323781159018 21.323199058811976  20.89248771471388 21.50633527367307  20.81337955961579 21.665582407386953  C 19.91154602567136 21.410786957850227  18.993893878446823 21.092285927464506  18.060416516637 20.71009272349732  C 17.142760597238084 20.327899519530128  16.24883165471573 19.889977732610372  15.378641948636702 19.396311493516535  C 14.524272741924975 18.902645254422694  13.717371634620331 18.361201149655393  12.957932025417598 17.771986624400803  C 12.21431480166936 17.182772099146213  11.565624346299325 16.569678637181347  11.011867260612668 15.93268986502905  Z M 17.395895188420113 1.5048943537520159  C 17.601576768892592 1.0590023318937904  17.767702385728835 0.6608724547979854  17.89427486805963 0.3105284521416422  C 17.89427486805963 0.3105284521416422  19.721682115435392 0.8121700280545185  19.721682115435392 0.8121700280545185  C 19.373605667177625 1.4491590375035897  19.001790925520133 2.1020744569959575  18.606250150029663 2.7709124897832957  C 18.210709374539196 3.4238260109015  17.846822800393678 3.9891485481234397  17.514567794546807 4.466889593319932  C 17.514567794546807 4.466889593319932  16.066882709381396 3.9652632044003626  16.066882709381396 3.9652632044003626  C 16.28838573226478 3.630843713413152  16.509885926017372 3.2486430939218893  16.731388948900754 2.8186755837327975  C 16.968713414195037 2.388708073543705  17.19021360794763 1.950786375610241  17.395895188420113 1.5048943537520159  Z M 14.07334890212579 6.831701882082662  C 14.342316252241872 6.274336380166339  14.555919398921159 5.780679365984448  14.714135709117345 5.350711855795357  C 14.714135709117345 5.350711855795357  16.541527867795576 5.828449104243522  16.541527867795576 5.828449104243522  C 16.256738132225 6.353964633634496  15.964037203927177 6.87948016302547  15.6634260259457 7.404995692416444  C 15.362814847964225 7.914586710138284  15.078026998480844 8.36843766567629  14.809058705321165 8.766555203340035  C 14.809058705321165 8.766555203340035  13.337654187627955 8.312707095363272  13.337654187627955 8.312707095363272  C 13.574978652922233 7.882739585174181  13.820202051377015 7.389066434811903  14.07334890212579 6.831701882082662  Z M 3.7734569234831574 2.651466787426274  C 3.409559032814488 1.966703293782721  3.029846772561889 1.345645440312355  2.634305525549623 0.7882808875831142  C 2.634305525549623 0.7882808875831142  4.153179085693514 0.2627653581921403  4.153179085693514 0.2627653581921403  C 4.56454177511668 0.7882808875831142  4.960079721476361 1.385460990827056  5.339799526077727 2.054299023614394  C 5.735340301568195 2.7231370564017316  6.020128622573377 3.3043879020411318  6.194166846702262 3.7980544080938388  C 6.194166846702262 3.7980544080938388  4.5803702903545505 4.419111312377123  4.5803702903545505 4.419111312377123  C 4.422153980158363 3.9254448063244163  4.153176492323625 3.3362293318827456  3.7734569234831574 2.651466787426274  Z M 6.45523149148346 7.333343457995538  C 6.233728468600078 6.823752440273697  5.996402588740403 6.369886297742385  5.743256209513424 5.971768760078642  C 5.743256209513424 5.971768760078642  7.428256329537154 5.661240307936999  7.428256329537154 5.661240307936999  C 7.697224151175033 6.043433333931609  7.950375717141789 6.4813702188583795  8.187700653957869 6.975036724911087  C 8.440847033184847 7.452777770107579  8.614885257313732 7.874770685030043  8.709814854822726 8.24103967394906  C 8.709814854822726 8.24103967394906  6.953611171122977 8.599346407033511  6.953611171122977 8.599346407033511  C 6.858681102092184 8.249002878970709  6.692555956777739 7.827009964048244  6.45523149148346 7.333343457995538  Z " fill-rule="nonzero" fill="rgba(0, 0, 0, 1)" stroke="none" transform="matrix(1 0 0 1 285 612 )" class="fill" />
    <path d="M 0.640771718294017 16  L 0.640771718294017 14.762213103890078  L 21.430416756684465 14.762213103890078  L 21.430416756684465 16  L 0.640771718294017 16  Z " stroke-width="0" stroke-dasharray="0" stroke="rgba(121, 121, 121, 1)" fill="none" transform="matrix(1 0 0 1 285 612 )" class="stroke" mask="url(#Clip4966)" />
    <path d="M 0.7119752819700352 6  L 0.7119752819700352 4.275791656542005  L 21.335493760480645 4.275791656542005  L 21.335493760480645 6  L 0.7119752819700352 6  Z " stroke-width="0" stroke-dasharray="0" stroke="rgba(121, 121, 121, 1)" fill="none" transform="matrix(1 0 0 1 285 612 )" class="stroke" mask="url(#Clip4966)" />
    <path d="M 1.6850001200237306 10  L 1.6850001200237306 8.384374516777486  L 20.48112643985611 8.384374516777486  L 20.48112643985611 10  L 1.6850001200237306 10  Z " stroke-width="0" stroke-dasharray="0" stroke="rgba(121, 121, 121, 1)" fill="none" transform="matrix(1 0 0 1 285 612 )" class="stroke" mask="url(#Clip4966)" />
    <path d="M 2.8716356491054804 13  L 2.8716356491054804 11.609119927544237  L 19.3182254319997 11.609119927544237  L 19.3182254319997 13  L 2.8716356491054804 13  Z " stroke-width="0" stroke-dasharray="0" stroke="rgba(121, 121, 121, 1)" fill="none" transform="matrix(1 0 0 1 285 612 )" class="stroke" mask="url(#Clip4966)" />
    <path d="M 10 22  L 10 9.077098842474983  L 11.842500060011865 9.077098842474983  L 11.842500060011865 22  L 10 22  Z " stroke-width="0" stroke-dasharray="0" stroke="rgba(121, 121, 121, 1)" fill="none" transform="matrix(1 0 0 1 285 612 )" class="stroke" mask="url(#Clip4966)" />
    <path d="M 7.87918205542353 5.01629426318231  L 7.87918205542353 0  L 9.56418217544726 0  L 9.56418217544726 5.01629426318231  L 7.87918205542353 5.01629426318231  Z " stroke-width="0" stroke-dasharray="0" stroke="rgba(121, 121, 121, 1)" fill="none" transform="matrix(1 0 0 1 285 612 )" class="stroke" mask="url(#Clip4966)" />
    <path d="M 12.388348782102062 4.920737701296693  L 12.388348782102062 0  L 14.09708342335113 0  L 14.09708342335113 4.920737701296693  L 12.388348782102062 4.920737701296693  Z " stroke-width="0" stroke-dasharray="0" stroke="rgba(121, 121, 121, 1)" fill="none" transform="matrix(1 0 0 1 285 612 )" class="stroke" mask="url(#Clip4966)" />
    <path d="M 6.929876649897637 17.318138516424042  C 7.97410505162735 16.69707461188603  8.828484631818634 16.05212346525078  9.492993700468778 15.383285195166671  C 9.492993700468778 15.383285195166671  10.916929175711312 16.052120380392765  10.916929175711312 16.052120380392765  C 10.189133865895771 16.86428103522485  9.287307404778316 17.636632546555038  8.211435175183208 18.36916957520599  C 7.135563417109896 19.08578185489104  5.988498468840125 19.71480421851529  4.770231371459729 20.256244615520554  C 3.55196474560113 20.813609761491723  2.3495095423152232 21.25949596957907  1.1628859191588736 21.59391498597274  C 1.0837776461803306 21.43466785225886  0.9730275493040338 21.259496088227458  0.8306327993991955 21.06839945658177  C 0.7040596097857061 20.89322757390198  0.5695860135060989 20.71010657569629  0.4271912046610359 20.519009973712695  C 0.28479639581597277 20.343838076201862  0.14239486778528784 20.200508839509634  0 20.089035819214033  C 1.1708019449845513 19.818315620711402  2.3574313442829267 19.444078858807906  3.559876409850176 18.96633733901787  C 4.762321593297875 18.488595759903646  5.885647776646125 17.939202420962054  6.929876649897637 17.318138516424042  Z " stroke-width="0" stroke-dasharray="0" stroke="rgba(121, 121, 121, 1)" fill="none" transform="matrix(1 0 0 1 285 612 )" class="stroke" mask="url(#Clip4966)" />
    <path d="M 11.011867260612668 15.93268986502905  C 11.011867260612668 15.93268986502905  12.388348782102062 15.335506914223863  12.388348782102062 15.335506914223863  C 12.894641540556018 15.861022680911606  13.503781690551389 16.37060895269804  14.215756029477829 16.864275221453976  C 14.943551810815167 17.35794149020991  15.734627703534528 17.811807276796067  16.588996910246255 18.22584991937087  C 17.459186616325287 18.639892561945672  18.353115558847634 19.006149745350363  19.27077147824656 19.32464407210232  C 20.188427397645476 19.62721370921257  21.098166466055574 19.88201449792663  22 20.089035819214033  C 21.87342657462561 20.216433558813442  21.731025105535153 20.36771202967996  21.572808795338965 20.542883927190793  C 21.430413927553676 20.73398052917439  21.288027547160755 20.92508113554098  21.145632679375463 21.116177737524577  C 21.00323781159018 21.323199058811976  20.89248771471388 21.50633527367307  20.81337955961579 21.665582407386953  C 19.91154602567136 21.410786957850227  18.993893878446823 21.092285927464506  18.060416516637 20.71009272349732  C 17.142760597238084 20.327899519530128  16.24883165471573 19.889977732610372  15.378641948636702 19.396311493516535  C 14.524272741924975 18.902645254422694  13.717371634620331 18.361201149655393  12.957932025417598 17.771986624400803  C 12.21431480166936 17.182772099146213  11.565624346299325 16.569678637181347  11.011867260612668 15.93268986502905  Z " stroke-width="0" stroke-dasharray="0" stroke="rgba(121, 121, 121, 1)" fill="none" transform="matrix(1 0 0 1 285 612 )" class="stroke" mask="url(#Clip4966)" />
    <path d="M 17.395895188420113 1.5048943537520159  C 17.601576768892592 1.0590023318937904  17.767702385728835 0.6608724547979854  17.89427486805963 0.3105284521416422  C 17.89427486805963 0.3105284521416422  19.721682115435392 0.8121700280545185  19.721682115435392 0.8121700280545185  C 19.373605667177625 1.4491590375035897  19.001790925520133 2.1020744569959575  18.606250150029663 2.7709124897832957  C 18.210709374539196 3.4238260109015  17.846822800393678 3.9891485481234397  17.514567794546807 4.466889593319932  C 17.514567794546807 4.466889593319932  16.066882709381396 3.9652632044003626  16.066882709381396 3.9652632044003626  C 16.28838573226478 3.630843713413152  16.509885926017372 3.2486430939218893  16.731388948900754 2.8186755837327975  C 16.968713414195037 2.388708073543705  17.19021360794763 1.950786375610241  17.395895188420113 1.5048943537520159  Z " stroke-width="0" stroke-dasharray="0" stroke="rgba(121, 121, 121, 1)" fill="none" transform="matrix(1 0 0 1 285 612 )" class="stroke" mask="url(#Clip4966)" />
    <path d="M 14.07334890212579 6.831701882082662  C 14.342316252241872 6.274336380166339  14.555919398921159 5.780679365984448  14.714135709117345 5.350711855795357  C 14.714135709117345 5.350711855795357  16.541527867795576 5.828449104243522  16.541527867795576 5.828449104243522  C 16.256738132225 6.353964633634496  15.964037203927177 6.87948016302547  15.6634260259457 7.404995692416444  C 15.362814847964225 7.914586710138284  15.078026998480844 8.36843766567629  14.809058705321165 8.766555203340035  C 14.809058705321165 8.766555203340035  13.337654187627955 8.312707095363272  13.337654187627955 8.312707095363272  C 13.574978652922233 7.882739585174181  13.820202051377015 7.389066434811903  14.07334890212579 6.831701882082662  Z " stroke-width="0" stroke-dasharray="0" stroke="rgba(121, 121, 121, 1)" fill="none" transform="matrix(1 0 0 1 285 612 )" class="stroke" mask="url(#Clip4966)" />
    <path d="M 3.7734569234831574 2.651466787426274  C 3.409559032814488 1.966703293782721  3.029846772561889 1.345645440312355  2.634305525549623 0.7882808875831142  C 2.634305525549623 0.7882808875831142  4.153179085693514 0.2627653581921403  4.153179085693514 0.2627653581921403  C 4.56454177511668 0.7882808875831142  4.960079721476361 1.385460990827056  5.339799526077727 2.054299023614394  C 5.735340301568195 2.7231370564017316  6.020128622573377 3.3043879020411318  6.194166846702262 3.7980544080938388  C 6.194166846702262 3.7980544080938388  4.5803702903545505 4.419111312377123  4.5803702903545505 4.419111312377123  C 4.422153980158363 3.9254448063244163  4.153176492323625 3.3362293318827456  3.7734569234831574 2.651466787426274  Z " stroke-width="0" stroke-dasharray="0" stroke="rgba(121, 121, 121, 1)" fill="none" transform="matrix(1 0 0 1 285 612 )" class="stroke" mask="url(#Clip4966)" />
    <path d="M 6.45523149148346 7.333343457995538  C 6.233728468600078 6.823752440273697  5.996402588740403 6.369886297742385  5.743256209513424 5.971768760078642  C 5.743256209513424 5.971768760078642  7.428256329537154 5.661240307936999  7.428256329537154 5.661240307936999  C 7.697224151175033 6.043433333931609  7.950375717141789 6.4813702188583795  8.187700653957869 6.975036724911087  C 8.440847033184847 7.452777770107579  8.614885257313732 7.874770685030043  8.709814854822726 8.24103967394906  C 8.709814854822726 8.24103967394906  6.953611171122977 8.599346407033511  6.953611171122977 8.599346407033511  C 6.858681102092184 8.249002878970709  6.692555956777739 7.827009964048244  6.45523149148346 7.333343457995538  Z " stroke-width="0" stroke-dasharray="0" stroke="rgba(121, 121, 121, 1)" fill="none" transform="matrix(1 0 0 1 285 612 )" class="stroke" mask="url(#Clip4966)" />
  </g>
</svg>