<?xml version="1.0" encoding="utf-8"?>
<svg version="1.1" xmlns:xlink="http://www.w3.org/1999/xlink" width="10px" height="12px" xmlns="http://www.w3.org/2000/svg">
  <defs>
    <pattern id="BGPattern" patternUnits="userSpaceOnUse" alignment="0 0" imageRepeat="None" />
    <mask fill="white" id="Clip4995">
      <path d="M 6.393032327652673 5.261904786308277  C 8.532335115607278 5.452380657661582  10 6.238096435744654  10 8.428572858992831  C 10 10.690477881827482  7.985072450760448 12  5.024873812157842 12  C 2.960197650134471 12  1.3432832206347864 11.547620603812412  0 10.309525193015377  C 0 10.309525193015377  1.1940299687723146 9.166667599631808  1.1940299687723146 9.166667599631808  C 2.1641790712827866 10.14285812556791  3.4825913216056206 10.523810518722048  5.000003953872541 10.523810518722048  C 7.014928784824721 10.523810518722048  8.258706625029753 9.833335159842553  8.258706625029753 8.452382549872572  C 8.258706625029753 7.428573056098142  7.6368141217302465 6.8571436680904245  6.218903780930156 6.738096159797218  C 6.218903780930156 6.738096159797218  4.203978702860943 6.5714283236390365  4.203978702860943 6.5714283236390365  C 1.8159195066674152 6.380952452285732  0.5472634061979325 5.357143313300863  0.5472634061979325 3.4285718340452123  C 0.5472634061979325 1.2857138464510203  2.4378120099669216 0  5.049751578188225 0  C 6.791044829599954 0  8.35820953428917 0.4047619066390982  9.452736593802069 1.261905101676775  C 9.452736593802069 1.261905101676775  8.283584391060137 2.380952058075109  8.283584391060137 2.380952058075109  C 7.412937950692047 1.7380953713759724  6.293530159744359 1.4523816826092013  5.024873812157842 1.4523816826092013  C 3.233829600350471 1.4523816826092013  2.2885567811681797 2.19047595019543  2.2885567811681797 3.3809524522857313  C 2.2885567811681797 4.380952373443607  2.885574483841709 4.976191334067879  4.427862781644226 5.095238842361085  C 4.427862781644226 5.095238842361085  6.393032327652673 5.261904786308277  6.393032327652673 5.261904786308277  Z " fill-rule="evenodd" />
    </mask>
  </defs>
  <g transform="matrix(1 0 0 1 -206 -496 )">
    <path d="M 6.393032327652673 5.261904786308277  C 8.532335115607278 5.452380657661582  10 6.238096435744654  10 8.428572858992831  C 10 10.690477881827482  7.985072450760448 12  5.024873812157842 12  C 2.960197650134471 12  1.3432832206347864 11.547620603812412  0 10.309525193015377  C 0 10.309525193015377  1.1940299687723146 9.166667599631808  1.1940299687723146 9.166667599631808  C 2.1641790712827866 10.14285812556791  3.4825913216056206 10.523810518722048  5.000003953872541 10.523810518722048  C 7.014928784824721 10.523810518722048  8.258706625029753 9.833335159842553  8.258706625029753 8.452382549872572  C 8.258706625029753 7.428573056098142  7.6368141217302465 6.8571436680904245  6.218903780930156 6.738096159797218  C 6.218903780930156 6.738096159797218  4.203978702860943 6.5714283236390365  4.203978702860943 6.5714283236390365  C 1.8159195066674152 6.380952452285732  0.5472634061979325 5.357143313300863  0.5472634061979325 3.4285718340452123  C 0.5472634061979325 1.2857138464510203  2.4378120099669216 0  5.049751578188225 0  C 6.791044829599954 0  8.35820953428917 0.4047619066390982  9.452736593802069 1.261905101676775  C 9.452736593802069 1.261905101676775  8.283584391060137 2.380952058075109  8.283584391060137 2.380952058075109  C 7.412937950692047 1.7380953713759724  6.293530159744359 1.4523816826092013  5.024873812157842 1.4523816826092013  C 3.233829600350471 1.4523816826092013  2.2885567811681797 2.19047595019543  2.2885567811681797 3.3809524522857313  C 2.2885567811681797 4.380952373443607  2.885574483841709 4.976191334067879  4.427862781644226 5.095238842361085  C 4.427862781644226 5.095238842361085  6.393032327652673 5.261904786308277  6.393032327652673 5.261904786308277  Z " fill-rule="nonzero" fill="rgba(0, 0, 0, 1)" stroke="none" transform="matrix(1 0 0 1 206 496 )" class="fill" />
    <path d="M 6.393032327652673 5.261904786308277  C 8.532335115607278 5.452380657661582  10 6.238096435744654  10 8.428572858992831  C 10 10.690477881827482  7.985072450760448 12  5.024873812157842 12  C 2.960197650134471 12  1.3432832206347864 11.547620603812412  0 10.309525193015377  C 0 10.309525193015377  1.1940299687723146 9.166667599631808  1.1940299687723146 9.166667599631808  C 2.1641790712827866 10.14285812556791  3.4825913216056206 10.523810518722048  5.000003953872541 10.523810518722048  C 7.014928784824721 10.523810518722048  8.258706625029753 9.833335159842553  8.258706625029753 8.452382549872572  C 8.258706625029753 7.428573056098142  7.6368141217302465 6.8571436680904245  6.218903780930156 6.738096159797218  C 6.218903780930156 6.738096159797218  4.203978702860943 6.5714283236390365  4.203978702860943 6.5714283236390365  C 1.8159195066674152 6.380952452285732  0.5472634061979325 5.357143313300863  0.5472634061979325 3.4285718340452123  C 0.5472634061979325 1.2857138464510203  2.4378120099669216 0  5.049751578188225 0  C 6.791044829599954 0  8.35820953428917 0.4047619066390982  9.452736593802069 1.261905101676775  C 9.452736593802069 1.261905101676775  8.283584391060137 2.380952058075109  8.283584391060137 2.380952058075109  C 7.412937950692047 1.7380953713759724  6.293530159744359 1.4523816826092013  5.024873812157842 1.4523816826092013  C 3.233829600350471 1.4523816826092013  2.2885567811681797 2.19047595019543  2.2885567811681797 3.3809524522857313  C 2.2885567811681797 4.380952373443607  2.885574483841709 4.976191334067879  4.427862781644226 5.095238842361085  C 4.427862781644226 5.095238842361085  6.393032327652673 5.261904786308277  6.393032327652673 5.261904786308277  Z " stroke-width="0" stroke-dasharray="0" stroke="rgba(121, 121, 121, 1)" fill="none" transform="matrix(1 0 0 1 206 496 )" class="stroke" mask="url(#Clip4995)" />
  </g>
</svg>