<?xml version="1.0" encoding="utf-8"?>
<svg version="1.1" xmlns:xlink="http://www.w3.org/1999/xlink" width="20px" height="21px" xmlns="http://www.w3.org/2000/svg">
  <defs>
    <pattern id="BGPattern" patternUnits="userSpaceOnUse" alignment="0 0" imageRepeat="None" />
    <mask fill="white" id="Clip4946">
      <path d="M 14.679299763204948 1.7001236767816779  L 5.20187986275552 1.7001236767816779  L 5.20187986275552 6.249721256022537  L 14.679299763204948 6.249721256022537  L 14.679299763204948 1.7001236767816779  Z M 3.467899772870053 8  L 3.467899772870053 0  L 16.50829990818151 0  L 16.50829990818151 8  L 3.467899772870053 8  Z M 0 21  L 0 10.535928612543696  L 8.456060020296718 10.535928612543696  L 8.456060020296718 20.784489220691285  L 6.674600106316145 20.784489220691285  L 6.674600106316145 12.236037065337008  L 1.7101797709370317 12.236037065337008  L 1.7101797709370317 21  L 0 21  Z M 11 21  L 11 10.535928612543696  L 20 10.535928612543696  L 20 20.85633122179031  L 18.194739767070992 20.85633122179031  L 18.194739767070992 12.236037065337008  L 12.779079882085728 12.236037065337008  L 12.779079882085728 21  L 11 21  Z M 0.7838399458754168 19.706950548136074  L 0.7838399458754168 17.95894742794341  L 7.4108998211955734 17.95894742794341  L 7.4108998211955734 19.706950548136074  L 0.7838399458754168 19.706950548136074  Z M 11.923959793166771 19.706950548136074  L 11.923959793166771 17.95894742794341  L 18.97864011984729 17.95894742794341  L 18.97864011984729 19.706950548136074  L 11.923959793166771 19.706950548136074  Z " fill-rule="evenodd" />
    </mask>
  </defs>
  <g transform="matrix(1 0 0 1 -852 -613 )">
    <path d="M 14.679299763204948 1.7001236767816779  L 5.20187986275552 1.7001236767816779  L 5.20187986275552 6.249721256022537  L 14.679299763204948 6.249721256022537  L 14.679299763204948 1.7001236767816779  Z M 3.467899772870053 8  L 3.467899772870053 0  L 16.50829990818151 0  L 16.50829990818151 8  L 3.467899772870053 8  Z M 0 21  L 0 10.535928612543696  L 8.456060020296718 10.535928612543696  L 8.456060020296718 20.784489220691285  L 6.674600106316145 20.784489220691285  L 6.674600106316145 12.236037065337008  L 1.7101797709370317 12.236037065337008  L 1.7101797709370317 21  L 0 21  Z M 11 21  L 11 10.535928612543696  L 20 10.535928612543696  L 20 20.85633122179031  L 18.194739767070992 20.85633122179031  L 18.194739767070992 12.236037065337008  L 12.779079882085728 12.236037065337008  L 12.779079882085728 21  L 11 21  Z M 0.7838399458754168 19.706950548136074  L 0.7838399458754168 17.95894742794341  L 7.4108998211955734 17.95894742794341  L 7.4108998211955734 19.706950548136074  L 0.7838399458754168 19.706950548136074  Z M 11.923959793166771 19.706950548136074  L 11.923959793166771 17.95894742794341  L 18.97864011984729 17.95894742794341  L 18.97864011984729 19.706950548136074  L 11.923959793166771 19.706950548136074  Z " fill-rule="nonzero" fill="rgba(0, 0, 0, 1)" stroke="none" transform="matrix(1 0 0 1 852 613 )" class="fill" />
    <path d="M 14.679299763204948 1.7001236767816779  L 5.20187986275552 1.7001236767816779  L 5.20187986275552 6.249721256022537  L 14.679299763204948 6.249721256022537  L 14.679299763204948 1.7001236767816779  Z " stroke-width="0" stroke-dasharray="0" stroke="rgba(121, 121, 121, 1)" fill="none" transform="matrix(1 0 0 1 852 613 )" class="stroke" mask="url(#Clip4946)" />
    <path d="M 3.467899772870053 8  L 3.467899772870053 0  L 16.50829990818151 0  L 16.50829990818151 8  L 3.467899772870053 8  Z " stroke-width="0" stroke-dasharray="0" stroke="rgba(121, 121, 121, 1)" fill="none" transform="matrix(1 0 0 1 852 613 )" class="stroke" mask="url(#Clip4946)" />
    <path d="M 0 21  L 0 10.535928612543696  L 8.456060020296718 10.535928612543696  L 8.456060020296718 20.784489220691285  L 6.674600106316145 20.784489220691285  L 6.674600106316145 12.236037065337008  L 1.7101797709370317 12.236037065337008  L 1.7101797709370317 21  L 0 21  Z " stroke-width="0" stroke-dasharray="0" stroke="rgba(121, 121, 121, 1)" fill="none" transform="matrix(1 0 0 1 852 613 )" class="stroke" mask="url(#Clip4946)" />
    <path d="M 11 21  L 11 10.535928612543696  L 20 10.535928612543696  L 20 20.85633122179031  L 18.194739767070992 20.85633122179031  L 18.194739767070992 12.236037065337008  L 12.779079882085728 12.236037065337008  L 12.779079882085728 21  L 11 21  Z " stroke-width="0" stroke-dasharray="0" stroke="rgba(121, 121, 121, 1)" fill="none" transform="matrix(1 0 0 1 852 613 )" class="stroke" mask="url(#Clip4946)" />
    <path d="M 0.7838399458754168 19.706950548136074  L 0.7838399458754168 17.95894742794341  L 7.4108998211955734 17.95894742794341  L 7.4108998211955734 19.706950548136074  L 0.7838399458754168 19.706950548136074  Z " stroke-width="0" stroke-dasharray="0" stroke="rgba(121, 121, 121, 1)" fill="none" transform="matrix(1 0 0 1 852 613 )" class="stroke" mask="url(#Clip4946)" />
    <path d="M 11.923959793166771 19.706950548136074  L 11.923959793166771 17.95894742794341  L 18.97864011984729 17.95894742794341  L 18.97864011984729 19.706950548136074  L 11.923959793166771 19.706950548136074  Z " stroke-width="0" stroke-dasharray="0" stroke="rgba(121, 121, 121, 1)" fill="none" transform="matrix(1 0 0 1 852 613 )" class="stroke" mask="url(#Clip4946)" />
  </g>
</svg>