<?xml version="1.0" encoding="utf-8"?>
<svg version="1.1" xmlns:xlink="http://www.w3.org/1999/xlink" width="22px" height="22px" xmlns="http://www.w3.org/2000/svg">
  <defs>
    <pattern id="BGPattern" patternUnits="userSpaceOnUse" alignment="0 0" imageRepeat="None" />
    <mask fill="white" id="Clip4968">
      <path d="M 8.134052558269488 13.711182045108131  L 8.134052558269488 12  L 22 12  L 22 13.711182045108131  L 8.134052558269488 13.711182045108131  Z M 12.914597193826792 3.153093176345844  L 13.723239990116156 1.8393119463650622  L 20.168649449669893 1.8393119463650622  L 19.764320490865522 3.153093176345844  L 12.914597193826792 3.153093176345844  Z M 17.267027035200712 19.826270461021892  C 17.267027035200712 19.826270461021892  17.267027035200712 8.981542280589366  17.267027035200712 8.981542280589366  L 18.979455969295472 8.981542280589366  C 18.979455969295472 8.981542280589366  18.979455969295472 19.850159601493296  18.979455969295472 19.850159601493296  C 18.979455969295472 20.343825870249233  18.916031485336273 20.72602702365823  18.78918440758279 20.99674722216086  C 18.66233732982931 21.283392110305204  18.41657619650017 21.498370822843377  18.05189155677076 21.64169326691555  C 17.70306351057238 21.785015770311915  17.219462925102388 21.87259405883096  16.601084129866013 21.904443438114384  C 15.998561928160672 21.952217566363707  15.21368984593094 21.976110859528596  14.246483004496188 21.976110859528596  C 14.214770762516586 21.73724009963358  14.151353839217073 21.450596753918244  14.056219003443195 21.116177737524577  C 13.961084167669313 20.797683381110524  13.842164441598886 20.511040065057283  13.699461715396836 20.256244615520554  C 14.412975346407087 20.272169334824362  15.055138086857546 20.28013375599196  15.625948046583288 20.28013375599196  C 16.21261459984006 20.28013375599196  16.60107751428879 20.272169334824362  16.79134813091901 20.256244615520554  C 16.98161874754923 20.256244615520554  17.108468660550095 20.224386923434643  17.171891254344374 20.160688053634935  C 17.235314793221114 20.112913899431277  17.267027035200712 20.001442358532724  17.267027035200712 19.826270461021892  Z M 12.867025523068776 2.1259512580353  C 13.596394802527596 1.4252642019096953  14.198921729645244 0.7245771457840906  14.674597798679565 0.02388914047140427  C 14.674597798679565 0.02388914047140427  16.387026732774327 0.525515529390974  16.387026732774327 0.525515529390974  C 15.800360179517554 1.3376760655746758  15.102703142038333 2.12595695315779  14.294054675254202 2.89034300514701  C 13.501261856918639 3.6547300063233115  12.629190796340229 4.3633807420641055  11.677839603354046 5.01629426318231  C 10.742344531357665 5.6532823234443  9.767206085368784 6.210640231863969  8.75243135350586 6.688382226247542  C 8.673152166180552 6.576908746189446  8.56216262704056 6.457472535703241  8.419459900838511 6.330075493163092  C 8.292613295626262 6.202677501435861  8.15784122889588 6.075277611334467  8.015138502693828 5.947879619607237  C 7.8882918974815786 5.804557116210872  7.761442457021945 5.693085534526939  7.634595379268465 5.61346202699419  C 8.617658341693017 5.183494516805099  9.55315435877186 4.665943616216396  10.441082012881303 4.060804579292673  C 11.344865315439314 3.45566554236895  12.153511892058525 2.810714751678853  12.867025523068776 2.1259512580353  Z M 10.892975081784 16.60152505025514  C 10.528290442054589 16.17155777736282  10.163601549454103 15.773427662970246  9.798917382265923 15.407159148644768  C 9.798917382265923 15.407159148644768  11.178382424353021 14.595004307583554  11.178382424353021 14.595004307583554  C 11.733336735630193 15.120520074271301  12.288284431330137 15.70973554871297  12.843239687689769 16.362648832534408  C 13.3981949440494 17.01556235365261  13.810448419289443 17.59681319929201  14.079997278162512 18.10640421701385  C 14.079997278162512 18.10640421701385  12.60540401587876 19.014115619960677  12.60540401587876 19.014115619960677  C 12.44684564122814 18.67969654424282  12.209007134169747 18.305459782339323  11.891889439786047 17.89141713976452  C 11.590628338933376 17.461449748223814  11.257659721513411 17.031492441795848  10.892975081784 16.60152505025514  Z M 13.794597496253179 5.087946497603216  C 13.287210130321716 4.705753471608606  12.779819929142873 4.379303355359076  12.27243256321141 4.108582860235481  C 12.27243256321141 4.108582860235481  13.24756864649414 3.2247605977600564  13.24756864649414 3.2247605977600564  C 13.73909941889457 3.495481092883651  14.238560378225438 3.80600195152864  14.7459477441569 4.156345954184983  C 15.25333511008836 4.506689956841326  15.729005508627914 4.864997639112859  16.172969335682637 5.231266153438336  C 16.616933162737357 5.597534667763812  16.973691395866176 5.939914041617884  17.243241199821707 6.258408071748878  C 17.243241199821707 6.258408071748878  16.244326841819657 7.23778689610992  16.244326841819657 7.23778689610992  C 15.974777037864127 6.9192919167918445  15.625948991665748 6.576913492124854  15.197840813059598 6.210644977799377  C 14.769733579535906 5.828451951804767  14.301984862184637 5.454215011928693  13.794597496253179 5.087946497603216  Z M 10.916760917163007 6.9750215379177805  C 10.441085320669917 6.576904000254037  9.973337548401108 6.218595368795423  9.513517600356588 5.900101338664427  C 9.513517600356588 5.900101338664427  10.56000362911665 5.087946497603216  10.56000362911665 5.087946497603216  C 11.035679698150972 5.390516016065077  11.519280283620965 5.732894440732068  12.010811056021396 6.11508841591376  C 12.502342773504287 6.49728144190837  12.954237732571906 6.887447639388986  13.366490262729489 7.28556517705273  C 13.778741847804609 7.66775820304734  14.103780278294137 8.034015327127836  14.341618785352528 8.384359329784179  C 14.341618785352528 8.384359329784179  13.24756864649414 9.268181592259603  13.24756864649414 9.268181592259603  C 13.00973013943575 8.933762575865934  12.68468414828653 8.567504977191899  12.27243256321141 8.169387439528155  C 11.86018003305383 7.7712694272708704  11.408292162104667 7.373140024768605  10.916760917163007 6.9750215379177805  Z M 0.19027156171268186 13.567862389273012  L 0.19027156171268186 11.967426660628687  L 6.445409459553735 11.967426660628687  L 6.445409459553735 13.567862389273012  L 0.19027156171268186 13.567862389273012  Z M 6 21.952221719057192  L 6 0  L 7.37297387207845 0  L 7.37297387207845 21.952221719057192  L 6 21.952221719057192  Z M 1.4983790976627596 14.069488778192582  C 1.4983790976627596 14.069488778192582  1.4983790976627596 12.588483564911972  1.4983790976627596 12.588483564911972  L 3.09189397618186 12.588483564911972  C 3.09189397618186 12.588483564911972  3.09189397618186 14.141156199606794  3.09189397618186 14.141156199606794  C 3.09189397618186 14.650747217328636  3.0681114485914662 15.231998300264804  3.0205440307045266 15.884911584086241  C 2.9729763765469714 16.537825105204444  2.885769364997376 17.222583259670664  2.7589225235145105 17.93919542070733  C 2.6479315667508305 18.639883010750665  2.4735173073810253 19.340569948227884  2.2356795091344797 20.04125753827122  C 2.0136975956071193 20.741945128314562  1.720363846437503 21.3948607851037  1.3556792067080923 22  C 1.260544134663597 21.888526994535443  1.125764625408834 21.77705541285151  0.9513502479037211 21.665582407386953  C 0.7927916960501395 21.57003409156411  0.6263074464078103 21.466526960709867  0.4518930689026974 21.35505395524531  C 0.2933345170491158 21.259505639422468  0.14270266713439655 21.179876614739804  0 21.116177737524577  C 0.4439638861223748 20.383640768197814  0.7690099363392454 19.59536029588405  0.9751360832827284 18.75135026176854  C 1.181262112090904 17.89141553801132  1.316041621345667 17.055378972002778  1.3794650420870993 16.24321831717069  C 1.4587443475477173 15.415133032021085  1.4983790976627596 14.69055256408221  1.4983790976627596 14.069488778192582  Z M 19.502698983675504 2.1259512580353  C 19.502698983675504 2.1259512580353  19.502698983675504 1.8393119463650622  19.502698983675504 1.8393119463650622  L 19.83567799700254 1.8393119463650622  L 20.144863614290884 1.7676445249508492  C 20.144863614290884 1.7676445249508492  21.23892131380896 2.3170491948132277  21.23892131380896 2.3170491948132277  C 20.7315339478775 3.6069517253805037  20.049729723599466 4.761488787857032  19.19351336638716 5.780670823300713  C 18.33729700917486 6.7998519095573124  17.36215903572721 7.699604378824361  16.268105116538976 8.479915891669796  C 15.189906845799316 9.260226929921691  14.040361464829703 9.92110697821633  12.81946141297045 10.462547493869977  C 11.614416537018537 11.003988009523626  10.377657056380869 11.44987433625936  9.109188641552217 11.800217864322164  C 9.014053333237106 11.593196839655723  8.879281266506723 11.362289047485586  8.704867243407534 11.107493538624666  C 8.530452747767113 10.83677304350107  8.363961350938673 10.621794508935475  8.205402503746823 10.462547493869977  C 9.394591731250165 10.191827473339924  10.56000362911665 9.80962637925512  11.701625438733053 9.315959873202413  C 12.859101951715566 8.822293841743246  13.945222848725978 8.225114213092844  14.959997580588901 7.5244262077801585  C 15.974772312451822 6.823739151654554  16.878555615009834 6.027508822262476  17.671348433345397 5.135724778546025  C 18.46414125168096 4.228015273973359  19.074590805069352 3.22475680101173  19.502698983675504 2.1259512580353  Z M 1.236757590472744 8.432137610726988  L 1.236757590472744 1.051031058781948  L 2.8064866336128373 1.051031058781948  L 2.8064866336128373 6.807812741611257  L 6.683245131364744 6.807812741611257  L 6.683245131364744 8.432137610726988  L 1.236757590472744 8.432137610726988  Z " fill-rule="evenodd" />
    </mask>
  </defs>
  <g transform="matrix(1 0 0 1 -237 -612 )">
    <path d="M 8.134052558269488 13.711182045108131  L 8.134052558269488 12  L 22 12  L 22 13.711182045108131  L 8.134052558269488 13.711182045108131  Z M 12.914597193826792 3.153093176345844  L 13.723239990116156 1.8393119463650622  L 20.168649449669893 1.8393119463650622  L 19.764320490865522 3.153093176345844  L 12.914597193826792 3.153093176345844  Z M 17.267027035200712 19.826270461021892  C 17.267027035200712 19.826270461021892  17.267027035200712 8.981542280589366  17.267027035200712 8.981542280589366  L 18.979455969295472 8.981542280589366  C 18.979455969295472 8.981542280589366  18.979455969295472 19.850159601493296  18.979455969295472 19.850159601493296  C 18.979455969295472 20.343825870249233  18.916031485336273 20.72602702365823  18.78918440758279 20.99674722216086  C 18.66233732982931 21.283392110305204  18.41657619650017 21.498370822843377  18.05189155677076 21.64169326691555  C 17.70306351057238 21.785015770311915  17.219462925102388 21.87259405883096  16.601084129866013 21.904443438114384  C 15.998561928160672 21.952217566363707  15.21368984593094 21.976110859528596  14.246483004496188 21.976110859528596  C 14.214770762516586 21.73724009963358  14.151353839217073 21.450596753918244  14.056219003443195 21.116177737524577  C 13.961084167669313 20.797683381110524  13.842164441598886 20.511040065057283  13.699461715396836 20.256244615520554  C 14.412975346407087 20.272169334824362  15.055138086857546 20.28013375599196  15.625948046583288 20.28013375599196  C 16.21261459984006 20.28013375599196  16.60107751428879 20.272169334824362  16.79134813091901 20.256244615520554  C 16.98161874754923 20.256244615520554  17.108468660550095 20.224386923434643  17.171891254344374 20.160688053634935  C 17.235314793221114 20.112913899431277  17.267027035200712 20.001442358532724  17.267027035200712 19.826270461021892  Z M 12.867025523068776 2.1259512580353  C 13.596394802527596 1.4252642019096953  14.198921729645244 0.7245771457840906  14.674597798679565 0.02388914047140427  C 14.674597798679565 0.02388914047140427  16.387026732774327 0.525515529390974  16.387026732774327 0.525515529390974  C 15.800360179517554 1.3376760655746758  15.102703142038333 2.12595695315779  14.294054675254202 2.89034300514701  C 13.501261856918639 3.6547300063233115  12.629190796340229 4.3633807420641055  11.677839603354046 5.01629426318231  C 10.742344531357665 5.6532823234443  9.767206085368784 6.210640231863969  8.75243135350586 6.688382226247542  C 8.673152166180552 6.576908746189446  8.56216262704056 6.457472535703241  8.419459900838511 6.330075493163092  C 8.292613295626262 6.202677501435861  8.15784122889588 6.075277611334467  8.015138502693828 5.947879619607237  C 7.8882918974815786 5.804557116210872  7.761442457021945 5.693085534526939  7.634595379268465 5.61346202699419  C 8.617658341693017 5.183494516805099  9.55315435877186 4.665943616216396  10.441082012881303 4.060804579292673  C 11.344865315439314 3.45566554236895  12.153511892058525 2.810714751678853  12.867025523068776 2.1259512580353  Z M 10.892975081784 16.60152505025514  C 10.528290442054589 16.17155777736282  10.163601549454103 15.773427662970246  9.798917382265923 15.407159148644768  C 9.798917382265923 15.407159148644768  11.178382424353021 14.595004307583554  11.178382424353021 14.595004307583554  C 11.733336735630193 15.120520074271301  12.288284431330137 15.70973554871297  12.843239687689769 16.362648832534408  C 13.3981949440494 17.01556235365261  13.810448419289443 17.59681319929201  14.079997278162512 18.10640421701385  C 14.079997278162512 18.10640421701385  12.60540401587876 19.014115619960677  12.60540401587876 19.014115619960677  C 12.44684564122814 18.67969654424282  12.209007134169747 18.305459782339323  11.891889439786047 17.89141713976452  C 11.590628338933376 17.461449748223814  11.257659721513411 17.031492441795848  10.892975081784 16.60152505025514  Z M 13.794597496253179 5.087946497603216  C 13.287210130321716 4.705753471608606  12.779819929142873 4.379303355359076  12.27243256321141 4.108582860235481  C 12.27243256321141 4.108582860235481  13.24756864649414 3.2247605977600564  13.24756864649414 3.2247605977600564  C 13.73909941889457 3.495481092883651  14.238560378225438 3.80600195152864  14.7459477441569 4.156345954184983  C 15.25333511008836 4.506689956841326  15.729005508627914 4.864997639112859  16.172969335682637 5.231266153438336  C 16.616933162737357 5.597534667763812  16.973691395866176 5.939914041617884  17.243241199821707 6.258408071748878  C 17.243241199821707 6.258408071748878  16.244326841819657 7.23778689610992  16.244326841819657 7.23778689610992  C 15.974777037864127 6.9192919167918445  15.625948991665748 6.576913492124854  15.197840813059598 6.210644977799377  C 14.769733579535906 5.828451951804767  14.301984862184637 5.454215011928693  13.794597496253179 5.087946497603216  Z M 10.916760917163007 6.9750215379177805  C 10.441085320669917 6.576904000254037  9.973337548401108 6.218595368795423  9.513517600356588 5.900101338664427  C 9.513517600356588 5.900101338664427  10.56000362911665 5.087946497603216  10.56000362911665 5.087946497603216  C 11.035679698150972 5.390516016065077  11.519280283620965 5.732894440732068  12.010811056021396 6.11508841591376  C 12.502342773504287 6.49728144190837  12.954237732571906 6.887447639388986  13.366490262729489 7.28556517705273  C 13.778741847804609 7.66775820304734  14.103780278294137 8.034015327127836  14.341618785352528 8.384359329784179  C 14.341618785352528 8.384359329784179  13.24756864649414 9.268181592259603  13.24756864649414 9.268181592259603  C 13.00973013943575 8.933762575865934  12.68468414828653 8.567504977191899  12.27243256321141 8.169387439528155  C 11.86018003305383 7.7712694272708704  11.408292162104667 7.373140024768605  10.916760917163007 6.9750215379177805  Z M 0.19027156171268186 13.567862389273012  L 0.19027156171268186 11.967426660628687  L 6.445409459553735 11.967426660628687  L 6.445409459553735 13.567862389273012  L 0.19027156171268186 13.567862389273012  Z M 6 21.952221719057192  L 6 0  L 7.37297387207845 0  L 7.37297387207845 21.952221719057192  L 6 21.952221719057192  Z M 1.4983790976627596 14.069488778192582  C 1.4983790976627596 14.069488778192582  1.4983790976627596 12.588483564911972  1.4983790976627596 12.588483564911972  L 3.09189397618186 12.588483564911972  C 3.09189397618186 12.588483564911972  3.09189397618186 14.141156199606794  3.09189397618186 14.141156199606794  C 3.09189397618186 14.650747217328636  3.0681114485914662 15.231998300264804  3.0205440307045266 15.884911584086241  C 2.9729763765469714 16.537825105204444  2.885769364997376 17.222583259670664  2.7589225235145105 17.93919542070733  C 2.6479315667508305 18.639883010750665  2.4735173073810253 19.340569948227884  2.2356795091344797 20.04125753827122  C 2.0136975956071193 20.741945128314562  1.720363846437503 21.3948607851037  1.3556792067080923 22  C 1.260544134663597 21.888526994535443  1.125764625408834 21.77705541285151  0.9513502479037211 21.665582407386953  C 0.7927916960501395 21.57003409156411  0.6263074464078103 21.466526960709867  0.4518930689026974 21.35505395524531  C 0.2933345170491158 21.259505639422468  0.14270266713439655 21.179876614739804  0 21.116177737524577  C 0.4439638861223748 20.383640768197814  0.7690099363392454 19.59536029588405  0.9751360832827284 18.75135026176854  C 1.181262112090904 17.89141553801132  1.316041621345667 17.055378972002778  1.3794650420870993 16.24321831717069  C 1.4587443475477173 15.415133032021085  1.4983790976627596 14.69055256408221  1.4983790976627596 14.069488778192582  Z M 19.502698983675504 2.1259512580353  C 19.502698983675504 2.1259512580353  19.502698983675504 1.8393119463650622  19.502698983675504 1.8393119463650622  L 19.83567799700254 1.8393119463650622  L 20.144863614290884 1.7676445249508492  C 20.144863614290884 1.7676445249508492  21.23892131380896 2.3170491948132277  21.23892131380896 2.3170491948132277  C 20.7315339478775 3.6069517253805037  20.049729723599466 4.761488787857032  19.19351336638716 5.780670823300713  C 18.33729700917486 6.7998519095573124  17.36215903572721 7.699604378824361  16.268105116538976 8.479915891669796  C 15.189906845799316 9.260226929921691  14.040361464829703 9.92110697821633  12.81946141297045 10.462547493869977  C 11.614416537018537 11.003988009523626  10.377657056380869 11.44987433625936  9.109188641552217 11.800217864322164  C 9.014053333237106 11.593196839655723  8.879281266506723 11.362289047485586  8.704867243407534 11.107493538624666  C 8.530452747767113 10.83677304350107  8.363961350938673 10.621794508935475  8.205402503746823 10.462547493869977  C 9.394591731250165 10.191827473339924  10.56000362911665 9.80962637925512  11.701625438733053 9.315959873202413  C 12.859101951715566 8.822293841743246  13.945222848725978 8.225114213092844  14.959997580588901 7.5244262077801585  C 15.974772312451822 6.823739151654554  16.878555615009834 6.027508822262476  17.671348433345397 5.135724778546025  C 18.46414125168096 4.228015273973359  19.074590805069352 3.22475680101173  19.502698983675504 2.1259512580353  Z M 1.236757590472744 8.432137610726988  L 1.236757590472744 1.051031058781948  L 2.8064866336128373 1.051031058781948  L 2.8064866336128373 6.807812741611257  L 6.683245131364744 6.807812741611257  L 6.683245131364744 8.432137610726988  L 1.236757590472744 8.432137610726988  Z " fill-rule="nonzero" fill="rgba(0, 0, 0, 1)" stroke="none" transform="matrix(1 0 0 1 237 612 )" class="fill" />
    <path d="M 8.134052558269488 13.711182045108131  L 8.134052558269488 12  L 22 12  L 22 13.711182045108131  L 8.134052558269488 13.711182045108131  Z " stroke-width="0" stroke-dasharray="0" stroke="rgba(121, 121, 121, 1)" fill="none" transform="matrix(1 0 0 1 237 612 )" class="stroke" mask="url(#Clip4968)" />
    <path d="M 12.914597193826792 3.153093176345844  L 13.723239990116156 1.8393119463650622  L 20.168649449669893 1.8393119463650622  L 19.764320490865522 3.153093176345844  L 12.914597193826792 3.153093176345844  Z " stroke-width="0" stroke-dasharray="0" stroke="rgba(121, 121, 121, 1)" fill="none" transform="matrix(1 0 0 1 237 612 )" class="stroke" mask="url(#Clip4968)" />
    <path d="M 17.267027035200712 19.826270461021892  C 17.267027035200712 19.826270461021892  17.267027035200712 8.981542280589366  17.267027035200712 8.981542280589366  L 18.979455969295472 8.981542280589366  C 18.979455969295472 8.981542280589366  18.979455969295472 19.850159601493296  18.979455969295472 19.850159601493296  C 18.979455969295472 20.343825870249233  18.916031485336273 20.72602702365823  18.78918440758279 20.99674722216086  C 18.66233732982931 21.283392110305204  18.41657619650017 21.498370822843377  18.05189155677076 21.64169326691555  C 17.70306351057238 21.785015770311915  17.219462925102388 21.87259405883096  16.601084129866013 21.904443438114384  C 15.998561928160672 21.952217566363707  15.21368984593094 21.976110859528596  14.246483004496188 21.976110859528596  C 14.214770762516586 21.73724009963358  14.151353839217073 21.450596753918244  14.056219003443195 21.116177737524577  C 13.961084167669313 20.797683381110524  13.842164441598886 20.511040065057283  13.699461715396836 20.256244615520554  C 14.412975346407087 20.272169334824362  15.055138086857546 20.28013375599196  15.625948046583288 20.28013375599196  C 16.21261459984006 20.28013375599196  16.60107751428879 20.272169334824362  16.79134813091901 20.256244615520554  C 16.98161874754923 20.256244615520554  17.108468660550095 20.224386923434643  17.171891254344374 20.160688053634935  C 17.235314793221114 20.112913899431277  17.267027035200712 20.001442358532724  17.267027035200712 19.826270461021892  Z " stroke-width="0" stroke-dasharray="0" stroke="rgba(121, 121, 121, 1)" fill="none" transform="matrix(1 0 0 1 237 612 )" class="stroke" mask="url(#Clip4968)" />
    <path d="M 12.867025523068776 2.1259512580353  C 13.596394802527596 1.4252642019096953  14.198921729645244 0.7245771457840906  14.674597798679565 0.02388914047140427  C 14.674597798679565 0.02388914047140427  16.387026732774327 0.525515529390974  16.387026732774327 0.525515529390974  C 15.800360179517554 1.3376760655746758  15.102703142038333 2.12595695315779  14.294054675254202 2.89034300514701  C 13.501261856918639 3.6547300063233115  12.629190796340229 4.3633807420641055  11.677839603354046 5.01629426318231  C 10.742344531357665 5.6532823234443  9.767206085368784 6.210640231863969  8.75243135350586 6.688382226247542  C 8.673152166180552 6.576908746189446  8.56216262704056 6.457472535703241  8.419459900838511 6.330075493163092  C 8.292613295626262 6.202677501435861  8.15784122889588 6.075277611334467  8.015138502693828 5.947879619607237  C 7.8882918974815786 5.804557116210872  7.761442457021945 5.693085534526939  7.634595379268465 5.61346202699419  C 8.617658341693017 5.183494516805099  9.55315435877186 4.665943616216396  10.441082012881303 4.060804579292673  C 11.344865315439314 3.45566554236895  12.153511892058525 2.810714751678853  12.867025523068776 2.1259512580353  Z " stroke-width="0" stroke-dasharray="0" stroke="rgba(121, 121, 121, 1)" fill="none" transform="matrix(1 0 0 1 237 612 )" class="stroke" mask="url(#Clip4968)" />
    <path d="M 10.892975081784 16.60152505025514  C 10.528290442054589 16.17155777736282  10.163601549454103 15.773427662970246  9.798917382265923 15.407159148644768  C 9.798917382265923 15.407159148644768  11.178382424353021 14.595004307583554  11.178382424353021 14.595004307583554  C 11.733336735630193 15.120520074271301  12.288284431330137 15.70973554871297  12.843239687689769 16.362648832534408  C 13.3981949440494 17.01556235365261  13.810448419289443 17.59681319929201  14.079997278162512 18.10640421701385  C 14.079997278162512 18.10640421701385  12.60540401587876 19.014115619960677  12.60540401587876 19.014115619960677  C 12.44684564122814 18.67969654424282  12.209007134169747 18.305459782339323  11.891889439786047 17.89141713976452  C 11.590628338933376 17.461449748223814  11.257659721513411 17.031492441795848  10.892975081784 16.60152505025514  Z " stroke-width="0" stroke-dasharray="0" stroke="rgba(121, 121, 121, 1)" fill="none" transform="matrix(1 0 0 1 237 612 )" class="stroke" mask="url(#Clip4968)" />
    <path d="M 13.794597496253179 5.087946497603216  C 13.287210130321716 4.705753471608606  12.779819929142873 4.379303355359076  12.27243256321141 4.108582860235481  C 12.27243256321141 4.108582860235481  13.24756864649414 3.2247605977600564  13.24756864649414 3.2247605977600564  C 13.73909941889457 3.495481092883651  14.238560378225438 3.80600195152864  14.7459477441569 4.156345954184983  C 15.25333511008836 4.506689956841326  15.729005508627914 4.864997639112859  16.172969335682637 5.231266153438336  C 16.616933162737357 5.597534667763812  16.973691395866176 5.939914041617884  17.243241199821707 6.258408071748878  C 17.243241199821707 6.258408071748878  16.244326841819657 7.23778689610992  16.244326841819657 7.23778689610992  C 15.974777037864127 6.9192919167918445  15.625948991665748 6.576913492124854  15.197840813059598 6.210644977799377  C 14.769733579535906 5.828451951804767  14.301984862184637 5.454215011928693  13.794597496253179 5.087946497603216  Z " stroke-width="0" stroke-dasharray="0" stroke="rgba(121, 121, 121, 1)" fill="none" transform="matrix(1 0 0 1 237 612 )" class="stroke" mask="url(#Clip4968)" />
    <path d="M 10.916760917163007 6.9750215379177805  C 10.441085320669917 6.576904000254037  9.973337548401108 6.218595368795423  9.513517600356588 5.900101338664427  C 9.513517600356588 5.900101338664427  10.56000362911665 5.087946497603216  10.56000362911665 5.087946497603216  C 11.035679698150972 5.390516016065077  11.519280283620965 5.732894440732068  12.010811056021396 6.11508841591376  C 12.502342773504287 6.49728144190837  12.954237732571906 6.887447639388986  13.366490262729489 7.28556517705273  C 13.778741847804609 7.66775820304734  14.103780278294137 8.034015327127836  14.341618785352528 8.384359329784179  C 14.341618785352528 8.384359329784179  13.24756864649414 9.268181592259603  13.24756864649414 9.268181592259603  C 13.00973013943575 8.933762575865934  12.68468414828653 8.567504977191899  12.27243256321141 8.169387439528155  C 11.86018003305383 7.7712694272708704  11.408292162104667 7.373140024768605  10.916760917163007 6.9750215379177805  Z " stroke-width="0" stroke-dasharray="0" stroke="rgba(121, 121, 121, 1)" fill="none" transform="matrix(1 0 0 1 237 612 )" class="stroke" mask="url(#Clip4968)" />
    <path d="M 0.19027156171268186 13.567862389273012  L 0.19027156171268186 11.967426660628687  L 6.445409459553735 11.967426660628687  L 6.445409459553735 13.567862389273012  L 0.19027156171268186 13.567862389273012  Z " stroke-width="0" stroke-dasharray="0" stroke="rgba(121, 121, 121, 1)" fill="none" transform="matrix(1 0 0 1 237 612 )" class="stroke" mask="url(#Clip4968)" />
    <path d="M 6 21.952221719057192  L 6 0  L 7.37297387207845 0  L 7.37297387207845 21.952221719057192  L 6 21.952221719057192  Z " stroke-width="0" stroke-dasharray="0" stroke="rgba(121, 121, 121, 1)" fill="none" transform="matrix(1 0 0 1 237 612 )" class="stroke" mask="url(#Clip4968)" />
    <path d="M 1.4983790976627596 14.069488778192582  C 1.4983790976627596 14.069488778192582  1.4983790976627596 12.588483564911972  1.4983790976627596 12.588483564911972  L 3.09189397618186 12.588483564911972  C 3.09189397618186 12.588483564911972  3.09189397618186 14.141156199606794  3.09189397618186 14.141156199606794  C 3.09189397618186 14.650747217328636  3.0681114485914662 15.231998300264804  3.0205440307045266 15.884911584086241  C 2.9729763765469714 16.537825105204444  2.885769364997376 17.222583259670664  2.7589225235145105 17.93919542070733  C 2.6479315667508305 18.639883010750665  2.4735173073810253 19.340569948227884  2.2356795091344797 20.04125753827122  C 2.0136975956071193 20.741945128314562  1.720363846437503 21.3948607851037  1.3556792067080923 22  C 1.260544134663597 21.888526994535443  1.125764625408834 21.77705541285151  0.9513502479037211 21.665582407386953  C 0.7927916960501395 21.57003409156411  0.6263074464078103 21.466526960709867  0.4518930689026974 21.35505395524531  C 0.2933345170491158 21.259505639422468  0.14270266713439655 21.179876614739804  0 21.116177737524577  C 0.4439638861223748 20.383640768197814  0.7690099363392454 19.59536029588405  0.9751360832827284 18.75135026176854  C 1.181262112090904 17.89141553801132  1.316041621345667 17.055378972002778  1.3794650420870993 16.24321831717069  C 1.4587443475477173 15.415133032021085  1.4983790976627596 14.69055256408221  1.4983790976627596 14.069488778192582  Z " stroke-width="0" stroke-dasharray="0" stroke="rgba(121, 121, 121, 1)" fill="none" transform="matrix(1 0 0 1 237 612 )" class="stroke" mask="url(#Clip4968)" />
    <path d="M 19.502698983675504 2.1259512580353  C 19.502698983675504 2.1259512580353  19.502698983675504 1.8393119463650622  19.502698983675504 1.8393119463650622  L 19.83567799700254 1.8393119463650622  L 20.144863614290884 1.7676445249508492  C 20.144863614290884 1.7676445249508492  21.23892131380896 2.3170491948132277  21.23892131380896 2.3170491948132277  C 20.7315339478775 3.6069517253805037  20.049729723599466 4.761488787857032  19.19351336638716 5.780670823300713  C 18.33729700917486 6.7998519095573124  17.36215903572721 7.699604378824361  16.268105116538976 8.479915891669796  C 15.189906845799316 9.260226929921691  14.040361464829703 9.92110697821633  12.81946141297045 10.462547493869977  C 11.614416537018537 11.003988009523626  10.377657056380869 11.44987433625936  9.109188641552217 11.800217864322164  C 9.014053333237106 11.593196839655723  8.879281266506723 11.362289047485586  8.704867243407534 11.107493538624666  C 8.530452747767113 10.83677304350107  8.363961350938673 10.621794508935475  8.205402503746823 10.462547493869977  C 9.394591731250165 10.191827473339924  10.56000362911665 9.80962637925512  11.701625438733053 9.315959873202413  C 12.859101951715566 8.822293841743246  13.945222848725978 8.225114213092844  14.959997580588901 7.5244262077801585  C 15.974772312451822 6.823739151654554  16.878555615009834 6.027508822262476  17.671348433345397 5.135724778546025  C 18.46414125168096 4.228015273973359  19.074590805069352 3.22475680101173  19.502698983675504 2.1259512580353  Z " stroke-width="0" stroke-dasharray="0" stroke="rgba(121, 121, 121, 1)" fill="none" transform="matrix(1 0 0 1 237 612 )" class="stroke" mask="url(#Clip4968)" />
    <path d="M 1.236757590472744 8.432137610726988  L 1.236757590472744 1.051031058781948  L 2.8064866336128373 1.051031058781948  L 2.8064866336128373 6.807812741611257  L 6.683245131364744 6.807812741611257  L 6.683245131364744 8.432137610726988  L 1.236757590472744 8.432137610726988  Z " stroke-width="0" stroke-dasharray="0" stroke="rgba(121, 121, 121, 1)" fill="none" transform="matrix(1 0 0 1 237 612 )" class="stroke" mask="url(#Clip4968)" />
  </g>
</svg>