<?xml version="1.0" encoding="utf-8"?>
<svg version="1.1" xmlns:xlink="http://www.w3.org/1999/xlink" width="41px" height="54px" xmlns="http://www.w3.org/2000/svg">
  <defs>
    <pattern id="BGPattern" patternUnits="userSpaceOnUse" alignment="0 0" imageRepeat="None" />
    <mask fill="white" id="Clip4899">
      <path d="M 33 0  L 33 46  L 24 46  L 24 26  L 9 26  L 9 46  L 0 46  L 0 0  L 9 0  L 9 19  L 24 19  L 24 0  L 33 0  Z " fill-rule="evenodd" />
    </mask>
  </defs>
  <g transform="matrix(1 0 0 1 -325 -312 )">
    <path d="M 33 0  L 33 46  L 24 46  L 24 26  L 9 26  L 9 46  L 0 46  L 0 0  L 9 0  L 9 19  L 24 19  L 24 0  L 33 0  Z " fill-rule="nonzero" fill="rgba(61, 63, 148, 1)" stroke="none" transform="matrix(1 0 0 1 329 312 )" class="fill" />
    <path d="M 33 0  L 33 46  L 24 46  L 24 26  L 9 26  L 9 46  L 0 46  L 0 0  L 9 0  L 9 19  L 24 19  L 24 0  L 33 0  Z " stroke-width="0" stroke-dasharray="0" stroke="rgba(121, 121, 121, 1)" fill="none" transform="matrix(1 0 0 1 329 312 )" class="stroke" mask="url(#Clip4899)" />
  </g>
  <style>svg { filter: drop-shadow(0px 4px 2px rgba(0, 0, 0, 0.12941176470588237)); }</style>
</svg>