<?xml version="1.0" encoding="utf-8"?>
<svg version="1.1" xmlns:xlink="http://www.w3.org/1999/xlink" width="9px" height="17px" xmlns="http://www.w3.org/2000/svg">
  <defs>
    <pattern id="BGPattern" patternUnits="userSpaceOnUse" alignment="0 0" imageRepeat="None" />
    <mask fill="white" id="Clip4978">
      <path d="M 7.618923884941219 6.084959391348391  C 8.769818284646906 7.268803348110715  9 9.210307244329753  9 11.033427756270166  C 9 12.856547915397462  8.769818284646906 14.798051694012129  7.618923884941219 15.981896121191944  C 7.020458056228557 16.597495211565008  6.007666054529341 17  4.856771654823655 17  C 3.613804797638986 17  2.578001484272102 16.69220301270858  1.657285484316818 15.461004714358072  C 1.657285484316818 15.461004714358072  1.657285484316818 16.85794144420162  1.657285484316818 16.85794144420162  L 0 16.85794144420162  L 0 0  L 1.657285484316818 0  C 1.657285484316818 0  1.657285484316818 6.558492928462893  1.657285484316818 6.558492928462893  C 2.578001484272102 5.350971683302105  3.613804797638986 5.066847985860468  4.856771654823655 5.066847985860468  C 6.007666054529341 5.066847985860468  7.020458056228557 5.469359771755647  7.618923884941219 6.084959391348391  Z M 4.511517260443259 15.484683649217757  C 6.974432002959398 15.484683649217757  7.3427145156831815 13.306408868288415  7.3427145156831815 11.033427756270166  C 7.3427145156831815 8.760446644251918  6.974432002959398 6.582171863322577  4.511517260443259 6.582171863322577  C 2.048602060602611 6.582171863322577  1.657285484316818 8.760446644251918  1.657285484316818 11.033427756270166  C 1.657285484316818 13.306408868288415  2.048602060602611 15.484683649217757  4.511517260443259 15.484683649217757  Z " fill-rule="evenodd" />
    </mask>
  </defs>
  <g transform="matrix(1 0 0 1 -543 -553 )">
    <path d="M 7.618923884941219 6.084959391348391  C 8.769818284646906 7.268803348110715  9 9.210307244329753  9 11.033427756270166  C 9 12.856547915397462  8.769818284646906 14.798051694012129  7.618923884941219 15.981896121191944  C 7.020458056228557 16.597495211565008  6.007666054529341 17  4.856771654823655 17  C 3.613804797638986 17  2.578001484272102 16.69220301270858  1.657285484316818 15.461004714358072  C 1.657285484316818 15.461004714358072  1.657285484316818 16.85794144420162  1.657285484316818 16.85794144420162  L 0 16.85794144420162  L 0 0  L 1.657285484316818 0  C 1.657285484316818 0  1.657285484316818 6.558492928462893  1.657285484316818 6.558492928462893  C 2.578001484272102 5.350971683302105  3.613804797638986 5.066847985860468  4.856771654823655 5.066847985860468  C 6.007666054529341 5.066847985860468  7.020458056228557 5.469359771755647  7.618923884941219 6.084959391348391  Z M 4.511517260443259 15.484683649217757  C 6.974432002959398 15.484683649217757  7.3427145156831815 13.306408868288415  7.3427145156831815 11.033427756270166  C 7.3427145156831815 8.760446644251918  6.974432002959398 6.582171863322577  4.511517260443259 6.582171863322577  C 2.048602060602611 6.582171863322577  1.657285484316818 8.760446644251918  1.657285484316818 11.033427756270166  C 1.657285484316818 13.306408868288415  2.048602060602611 15.484683649217757  4.511517260443259 15.484683649217757  Z " fill-rule="nonzero" fill="rgba(0, 0, 0, 1)" stroke="none" transform="matrix(1 0 0 1 543 553 )" class="fill" />
    <path d="M 7.618923884941219 6.084959391348391  C 8.769818284646906 7.268803348110715  9 9.210307244329753  9 11.033427756270166  C 9 12.856547915397462  8.769818284646906 14.798051694012129  7.618923884941219 15.981896121191944  C 7.020458056228557 16.597495211565008  6.007666054529341 17  4.856771654823655 17  C 3.613804797638986 17  2.578001484272102 16.69220301270858  1.657285484316818 15.461004714358072  C 1.657285484316818 15.461004714358072  1.657285484316818 16.85794144420162  1.657285484316818 16.85794144420162  L 0 16.85794144420162  L 0 0  L 1.657285484316818 0  C 1.657285484316818 0  1.657285484316818 6.558492928462893  1.657285484316818 6.558492928462893  C 2.578001484272102 5.350971683302105  3.613804797638986 5.066847985860468  4.856771654823655 5.066847985860468  C 6.007666054529341 5.066847985860468  7.020458056228557 5.469359771755647  7.618923884941219 6.084959391348391  Z " stroke-width="0" stroke-dasharray="0" stroke="rgba(121, 121, 121, 1)" fill="none" transform="matrix(1 0 0 1 543 553 )" class="stroke" mask="url(#Clip4978)" />
    <path d="M 4.511517260443259 15.484683649217757  C 6.974432002959398 15.484683649217757  7.3427145156831815 13.306408868288415  7.3427145156831815 11.033427756270166  C 7.3427145156831815 8.760446644251918  6.974432002959398 6.582171863322577  4.511517260443259 6.582171863322577  C 2.048602060602611 6.582171863322577  1.657285484316818 8.760446644251918  1.657285484316818 11.033427756270166  C 1.657285484316818 13.306408868288415  2.048602060602611 15.484683649217757  4.511517260443259 15.484683649217757  Z " stroke-width="0" stroke-dasharray="0" stroke="rgba(121, 121, 121, 1)" fill="none" transform="matrix(1 0 0 1 543 553 )" class="stroke" mask="url(#Clip4978)" />
  </g>
</svg>