<?xml version="1.0" encoding="utf-8"?>
<svg version="1.1" xmlns:xlink="http://www.w3.org/1999/xlink" width="22px" height="22px" xmlns="http://www.w3.org/2000/svg">
  <defs>
    <pattern id="BGPattern" patternUnits="userSpaceOnUse" alignment="0 0" imageRepeat="None" />
    <mask fill="white" id="Clip4937">
      <path d="M 9.08798357334352 5  L 9.08798357334352 3  L 20.866945446855535 3  L 20.866945446855535 5  L 9.08798357334352 5  Z M 8.143771445723134 13.75599370865766  L 8.143771445723134 12  L 21.858356925049968 12  L 21.858356925049968 13.75599370865766  L 8.143771445723134 13.75599370865766  Z M 7.884122490466672 9.418308471080532  L 7.884122490466672 8  L 22 8  L 22 9.418308471080532  L 7.884122490466672 9.418308471080532  Z M 14.115877509533327 8.651418495466064  L 14.115877509533327 0.09585362863765845  L 15.815444331507392 0.09585362863765845  L 15.815444331507392 8.651418495466064  L 14.115877509533327 8.651418495466064  Z M 17.231755019066654 19.843133371055533  C 17.231755019066654 19.843133371055533  17.231755019066654 9.058830699589787  17.231755019066654 9.058830699589787  L 18.93132184104072 9.058830699589787  C 18.93132184104072 9.058830699589787  18.93132184104072 19.843133371055533  18.93132184104072 19.843133371055533  C 18.93132184104072 20.386343334304094  18.860503117517446 20.793765001802424  18.718872236358305 21.065369983426702  C 18.592977911331527 21.352951700667433  18.349070202127006 21.56863301883836  17.987124721162964 21.712423877458725  C 17.656653290447572 21.856214795597168  17.192418787647263 21.93610400886079  16.594421212762036 21.952080803995322  C 15.996424575860727 21.984034275228222  15.264655487035357 22  14.39913364394813 22  C 14.367660531683391 21.74437175399217  14.296841808160119 21.44880116303954  14.186684039265712 21.113289179431384  C 14.092263764487587 20.793753901680635  13.982107871561011 20.506173821187087  13.856213546534235 20.250545575179256  C 14.517157345948933 20.282499105930235  15.123029295795785 20.298480007812234  15.67381626429999 20.298480007812234  C 16.224603232804196 20.298480007812234  16.594423088729865 20.290489556871236  16.783263638286115 20.274512791495745  C 16.95636856969391 20.274512791495745  17.074380077903825 20.242566216920284  17.1373263024333 20.178659162858086  C 17.200273464946687 20.11475210879589  17.231755019066654 20.002901009930905  17.231755019066654 19.843133371055533  Z M 10.929178462524984 16.65578309690011  C 10.598706562817636 16.128550047822234  10.260368730003888 15.649244765352462  9.914159805172213 15.217872010937128  C 9.914159805172213 15.217872010937128  11.2832561344148 14.42701481900617  11.2832561344148 14.42701481900617  C 11.62946412126256 14.842410778286974  11.975673046094235 15.297744559138549  12.321881970925912 15.793024256019681  C 12.668090895757583 16.28830395290081  12.990702959253978 16.775599656552547  13.289701277704635 17.254902558299147  C 13.588699596155289 17.73420546004575  13.816882005034417 18.165583333015903  13.974249442325927 18.54902558299149  C 13.974249442325927 18.54902558299149  12.510724396449987 19.483670836193088  12.510724396449987 19.483670836193088  C 12.353356959158475 19.100228526699418  12.133045173305318 18.660860232547307  11.849783410987031 18.165580595184256  C 11.582258204801112 17.670300898303125  11.275386918364703 17.167039588915767  10.929178462524984 16.65578309690011  Z M 0.44850638852316993 14.47494925163915  C 0.44850638852316993 14.47494925163915  0 12.701527610501914  0 12.701527610501914  C 0.9127320391002859 12.445899364494085  2.0300465772966962 12.118382325441914  3.351934293374082 11.71896316129564  C 4.673822126699457 11.303567440087154  6.011448392125029 10.880180107335121  7.364809572211118 10.448807352919788  C 7.364809572211118 10.448807352919788  7.6008513483092415 12.102392912474574  7.6008513483092415 12.102392912474574  C 6.357647468125601 12.51778863368306  5.106580937779263 12.933185307180816  3.847640032471298 13.348581504533936  C 2.604435917791679 13.76397722574242  1.4713957861499 14.13943726803099  0.44850638852316993 14.47494925163915  Z M 0.3304704927314774 6.494551866521595  L 0.3304704927314774 4.81699909065032  L 7.530044818576856 4.81699909065032  L 7.530044818576856 6.494551866521595  L 0.3304704927314774 6.494551866521595  Z M 3.37554147253242 19.843133371055533  C 3.37554147253242 19.843133371055533  3.37554147253242 0  3.37554147253242 0  L 5.027893936189807 0  C 5.027893936189807 0  5.027893936189807 19.867100587372022  5.027893936189807 19.867100587372022  C 5.027893936189807 20.34640348911862  4.9649456011965265 20.721863382611996  4.83905151066573 20.993468334477235  C 4.72889421076328 21.265073316101514  4.524323201970107 21.4727641535724  4.225324883519452 21.616555012192766  C 3.9420631212011648 21.760345930331212  3.5643731112414816 21.856216104994914  3.0922703303749888 21.904146371362344  C 2.6201675495084964 21.95207663772977  2.0064399843783045 21.96805748009369  1.2510754411935248 21.952080803995322  C 1.2353387678131673 21.72840602922039  1.1723903155718973 21.44880116303954  1.0622330156694475 21.113289179431384  C 0.9678123891473556 20.793753901680635  0.8655270019987585 20.514164257248567  0.7553697020963088 20.274512791495745  C 1.2589460642194952 20.290489556871236  1.715310295737801 20.298480007812234  2.124466031338895 20.298480007812234  C 2.549358557568336 20.298480007812234  2.832618561166784 20.298480007812234  2.9742494423259274 20.298480007812234  C 3.115880088989092 20.298480007812234  3.2181655933856783 20.266518196608473  3.2811127558990663 20.202611142546278  C 3.344059683916475 20.13870408848408  3.37554147253242 20.018877775306393  3.37554147253242 19.843133371055533  Z " fill-rule="evenodd" />
    </mask>
  </defs>
  <g transform="matrix(1 0 0 1 -326 -643 )">
    <path d="M 9.08798357334352 5  L 9.08798357334352 3  L 20.866945446855535 3  L 20.866945446855535 5  L 9.08798357334352 5  Z M 8.143771445723134 13.75599370865766  L 8.143771445723134 12  L 21.858356925049968 12  L 21.858356925049968 13.75599370865766  L 8.143771445723134 13.75599370865766  Z M 7.884122490466672 9.418308471080532  L 7.884122490466672 8  L 22 8  L 22 9.418308471080532  L 7.884122490466672 9.418308471080532  Z M 14.115877509533327 8.651418495466064  L 14.115877509533327 0.09585362863765845  L 15.815444331507392 0.09585362863765845  L 15.815444331507392 8.651418495466064  L 14.115877509533327 8.651418495466064  Z M 17.231755019066654 19.843133371055533  C 17.231755019066654 19.843133371055533  17.231755019066654 9.058830699589787  17.231755019066654 9.058830699589787  L 18.93132184104072 9.058830699589787  C 18.93132184104072 9.058830699589787  18.93132184104072 19.843133371055533  18.93132184104072 19.843133371055533  C 18.93132184104072 20.386343334304094  18.860503117517446 20.793765001802424  18.718872236358305 21.065369983426702  C 18.592977911331527 21.352951700667433  18.349070202127006 21.56863301883836  17.987124721162964 21.712423877458725  C 17.656653290447572 21.856214795597168  17.192418787647263 21.93610400886079  16.594421212762036 21.952080803995322  C 15.996424575860727 21.984034275228222  15.264655487035357 22  14.39913364394813 22  C 14.367660531683391 21.74437175399217  14.296841808160119 21.44880116303954  14.186684039265712 21.113289179431384  C 14.092263764487587 20.793753901680635  13.982107871561011 20.506173821187087  13.856213546534235 20.250545575179256  C 14.517157345948933 20.282499105930235  15.123029295795785 20.298480007812234  15.67381626429999 20.298480007812234  C 16.224603232804196 20.298480007812234  16.594423088729865 20.290489556871236  16.783263638286115 20.274512791495745  C 16.95636856969391 20.274512791495745  17.074380077903825 20.242566216920284  17.1373263024333 20.178659162858086  C 17.200273464946687 20.11475210879589  17.231755019066654 20.002901009930905  17.231755019066654 19.843133371055533  Z M 10.929178462524984 16.65578309690011  C 10.598706562817636 16.128550047822234  10.260368730003888 15.649244765352462  9.914159805172213 15.217872010937128  C 9.914159805172213 15.217872010937128  11.2832561344148 14.42701481900617  11.2832561344148 14.42701481900617  C 11.62946412126256 14.842410778286974  11.975673046094235 15.297744559138549  12.321881970925912 15.793024256019681  C 12.668090895757583 16.28830395290081  12.990702959253978 16.775599656552547  13.289701277704635 17.254902558299147  C 13.588699596155289 17.73420546004575  13.816882005034417 18.165583333015903  13.974249442325927 18.54902558299149  C 13.974249442325927 18.54902558299149  12.510724396449987 19.483670836193088  12.510724396449987 19.483670836193088  C 12.353356959158475 19.100228526699418  12.133045173305318 18.660860232547307  11.849783410987031 18.165580595184256  C 11.582258204801112 17.670300898303125  11.275386918364703 17.167039588915767  10.929178462524984 16.65578309690011  Z M 0.44850638852316993 14.47494925163915  C 0.44850638852316993 14.47494925163915  0 12.701527610501914  0 12.701527610501914  C 0.9127320391002859 12.445899364494085  2.0300465772966962 12.118382325441914  3.351934293374082 11.71896316129564  C 4.673822126699457 11.303567440087154  6.011448392125029 10.880180107335121  7.364809572211118 10.448807352919788  C 7.364809572211118 10.448807352919788  7.6008513483092415 12.102392912474574  7.6008513483092415 12.102392912474574  C 6.357647468125601 12.51778863368306  5.106580937779263 12.933185307180816  3.847640032471298 13.348581504533936  C 2.604435917791679 13.76397722574242  1.4713957861499 14.13943726803099  0.44850638852316993 14.47494925163915  Z M 0.3304704927314774 6.494551866521595  L 0.3304704927314774 4.81699909065032  L 7.530044818576856 4.81699909065032  L 7.530044818576856 6.494551866521595  L 0.3304704927314774 6.494551866521595  Z M 3.37554147253242 19.843133371055533  C 3.37554147253242 19.843133371055533  3.37554147253242 0  3.37554147253242 0  L 5.027893936189807 0  C 5.027893936189807 0  5.027893936189807 19.867100587372022  5.027893936189807 19.867100587372022  C 5.027893936189807 20.34640348911862  4.9649456011965265 20.721863382611996  4.83905151066573 20.993468334477235  C 4.72889421076328 21.265073316101514  4.524323201970107 21.4727641535724  4.225324883519452 21.616555012192766  C 3.9420631212011648 21.760345930331212  3.5643731112414816 21.856216104994914  3.0922703303749888 21.904146371362344  C 2.6201675495084964 21.95207663772977  2.0064399843783045 21.96805748009369  1.2510754411935248 21.952080803995322  C 1.2353387678131673 21.72840602922039  1.1723903155718973 21.44880116303954  1.0622330156694475 21.113289179431384  C 0.9678123891473556 20.793753901680635  0.8655270019987585 20.514164257248567  0.7553697020963088 20.274512791495745  C 1.2589460642194952 20.290489556871236  1.715310295737801 20.298480007812234  2.124466031338895 20.298480007812234  C 2.549358557568336 20.298480007812234  2.832618561166784 20.298480007812234  2.9742494423259274 20.298480007812234  C 3.115880088989092 20.298480007812234  3.2181655933856783 20.266518196608473  3.2811127558990663 20.202611142546278  C 3.344059683916475 20.13870408848408  3.37554147253242 20.018877775306393  3.37554147253242 19.843133371055533  Z " fill-rule="nonzero" fill="rgba(0, 0, 0, 1)" stroke="none" transform="matrix(1 0 0 1 326 643 )" class="fill" />
    <path d="M 9.08798357334352 5  L 9.08798357334352 3  L 20.866945446855535 3  L 20.866945446855535 5  L 9.08798357334352 5  Z " stroke-width="0" stroke-dasharray="0" stroke="rgba(121, 121, 121, 1)" fill="none" transform="matrix(1 0 0 1 326 643 )" class="stroke" mask="url(#Clip4937)" />
    <path d="M 8.143771445723134 13.75599370865766  L 8.143771445723134 12  L 21.858356925049968 12  L 21.858356925049968 13.75599370865766  L 8.143771445723134 13.75599370865766  Z " stroke-width="0" stroke-dasharray="0" stroke="rgba(121, 121, 121, 1)" fill="none" transform="matrix(1 0 0 1 326 643 )" class="stroke" mask="url(#Clip4937)" />
    <path d="M 7.884122490466672 9.418308471080532  L 7.884122490466672 8  L 22 8  L 22 9.418308471080532  L 7.884122490466672 9.418308471080532  Z " stroke-width="0" stroke-dasharray="0" stroke="rgba(121, 121, 121, 1)" fill="none" transform="matrix(1 0 0 1 326 643 )" class="stroke" mask="url(#Clip4937)" />
    <path d="M 14.115877509533327 8.651418495466064  L 14.115877509533327 0.09585362863765845  L 15.815444331507392 0.09585362863765845  L 15.815444331507392 8.651418495466064  L 14.115877509533327 8.651418495466064  Z " stroke-width="0" stroke-dasharray="0" stroke="rgba(121, 121, 121, 1)" fill="none" transform="matrix(1 0 0 1 326 643 )" class="stroke" mask="url(#Clip4937)" />
    <path d="M 17.231755019066654 19.843133371055533  C 17.231755019066654 19.843133371055533  17.231755019066654 9.058830699589787  17.231755019066654 9.058830699589787  L 18.93132184104072 9.058830699589787  C 18.93132184104072 9.058830699589787  18.93132184104072 19.843133371055533  18.93132184104072 19.843133371055533  C 18.93132184104072 20.386343334304094  18.860503117517446 20.793765001802424  18.718872236358305 21.065369983426702  C 18.592977911331527 21.352951700667433  18.349070202127006 21.56863301883836  17.987124721162964 21.712423877458725  C 17.656653290447572 21.856214795597168  17.192418787647263 21.93610400886079  16.594421212762036 21.952080803995322  C 15.996424575860727 21.984034275228222  15.264655487035357 22  14.39913364394813 22  C 14.367660531683391 21.74437175399217  14.296841808160119 21.44880116303954  14.186684039265712 21.113289179431384  C 14.092263764487587 20.793753901680635  13.982107871561011 20.506173821187087  13.856213546534235 20.250545575179256  C 14.517157345948933 20.282499105930235  15.123029295795785 20.298480007812234  15.67381626429999 20.298480007812234  C 16.224603232804196 20.298480007812234  16.594423088729865 20.290489556871236  16.783263638286115 20.274512791495745  C 16.95636856969391 20.274512791495745  17.074380077903825 20.242566216920284  17.1373263024333 20.178659162858086  C 17.200273464946687 20.11475210879589  17.231755019066654 20.002901009930905  17.231755019066654 19.843133371055533  Z " stroke-width="0" stroke-dasharray="0" stroke="rgba(121, 121, 121, 1)" fill="none" transform="matrix(1 0 0 1 326 643 )" class="stroke" mask="url(#Clip4937)" />
    <path d="M 10.929178462524984 16.65578309690011  C 10.598706562817636 16.128550047822234  10.260368730003888 15.649244765352462  9.914159805172213 15.217872010937128  C 9.914159805172213 15.217872010937128  11.2832561344148 14.42701481900617  11.2832561344148 14.42701481900617  C 11.62946412126256 14.842410778286974  11.975673046094235 15.297744559138549  12.321881970925912 15.793024256019681  C 12.668090895757583 16.28830395290081  12.990702959253978 16.775599656552547  13.289701277704635 17.254902558299147  C 13.588699596155289 17.73420546004575  13.816882005034417 18.165583333015903  13.974249442325927 18.54902558299149  C 13.974249442325927 18.54902558299149  12.510724396449987 19.483670836193088  12.510724396449987 19.483670836193088  C 12.353356959158475 19.100228526699418  12.133045173305318 18.660860232547307  11.849783410987031 18.165580595184256  C 11.582258204801112 17.670300898303125  11.275386918364703 17.167039588915767  10.929178462524984 16.65578309690011  Z " stroke-width="0" stroke-dasharray="0" stroke="rgba(121, 121, 121, 1)" fill="none" transform="matrix(1 0 0 1 326 643 )" class="stroke" mask="url(#Clip4937)" />
    <path d="M 0.44850638852316993 14.47494925163915  C 0.44850638852316993 14.47494925163915  0 12.701527610501914  0 12.701527610501914  C 0.9127320391002859 12.445899364494085  2.0300465772966962 12.118382325441914  3.351934293374082 11.71896316129564  C 4.673822126699457 11.303567440087154  6.011448392125029 10.880180107335121  7.364809572211118 10.448807352919788  C 7.364809572211118 10.448807352919788  7.6008513483092415 12.102392912474574  7.6008513483092415 12.102392912474574  C 6.357647468125601 12.51778863368306  5.106580937779263 12.933185307180816  3.847640032471298 13.348581504533936  C 2.604435917791679 13.76397722574242  1.4713957861499 14.13943726803099  0.44850638852316993 14.47494925163915  Z " stroke-width="0" stroke-dasharray="0" stroke="rgba(121, 121, 121, 1)" fill="none" transform="matrix(1 0 0 1 326 643 )" class="stroke" mask="url(#Clip4937)" />
    <path d="M 0.3304704927314774 6.494551866521595  L 0.3304704927314774 4.81699909065032  L 7.530044818576856 4.81699909065032  L 7.530044818576856 6.494551866521595  L 0.3304704927314774 6.494551866521595  Z " stroke-width="0" stroke-dasharray="0" stroke="rgba(121, 121, 121, 1)" fill="none" transform="matrix(1 0 0 1 326 643 )" class="stroke" mask="url(#Clip4937)" />
    <path d="M 3.37554147253242 19.843133371055533  C 3.37554147253242 19.843133371055533  3.37554147253242 0  3.37554147253242 0  L 5.027893936189807 0  C 5.027893936189807 0  5.027893936189807 19.867100587372022  5.027893936189807 19.867100587372022  C 5.027893936189807 20.34640348911862  4.9649456011965265 20.721863382611996  4.83905151066573 20.993468334477235  C 4.72889421076328 21.265073316101514  4.524323201970107 21.4727641535724  4.225324883519452 21.616555012192766  C 3.9420631212011648 21.760345930331212  3.5643731112414816 21.856216104994914  3.0922703303749888 21.904146371362344  C 2.6201675495084964 21.95207663772977  2.0064399843783045 21.96805748009369  1.2510754411935248 21.952080803995322  C 1.2353387678131673 21.72840602922039  1.1723903155718973 21.44880116303954  1.0622330156694475 21.113289179431384  C 0.9678123891473556 20.793753901680635  0.8655270019987585 20.514164257248567  0.7553697020963088 20.274512791495745  C 1.2589460642194952 20.290489556871236  1.715310295737801 20.298480007812234  2.124466031338895 20.298480007812234  C 2.549358557568336 20.298480007812234  2.832618561166784 20.298480007812234  2.9742494423259274 20.298480007812234  C 3.115880088989092 20.298480007812234  3.2181655933856783 20.266518196608473  3.2811127558990663 20.202611142546278  C 3.344059683916475 20.13870408848408  3.37554147253242 20.018877775306393  3.37554147253242 19.843133371055533  Z " stroke-width="0" stroke-dasharray="0" stroke="rgba(121, 121, 121, 1)" fill="none" transform="matrix(1 0 0 1 326 643 )" class="stroke" mask="url(#Clip4937)" />
  </g>
</svg>