<?xml version="1.0" encoding="utf-8"?>
<svg version="1.1" xmlns:xlink="http://www.w3.org/1999/xlink" width="223px" height="65px" xmlns="http://www.w3.org/2000/svg">
  <defs>
    <pattern id="BGPattern" patternUnits="userSpaceOnUse" alignment="0 0" imageRepeat="None" />
    <mask fill="white" id="Clip4652">
      <path d="M 28.5000057220459 57  C 12.75989055633545 57  0 44.240116119384766  0 28.5  C 0 12.75988483428955  12.75988483428955 0  28.499999999999996 0  C 28.499999999999996 0  186.5 0  186.5 0  C 202.2401123046875 0  215 12.75988483428955  215 28.5  C 215 44.240116119384766  202.2401123046875 57  186.5 57  C 186.5 57  28.5000057220459 57  28.5000057220459 57  Z " fill-rule="evenodd" />
    </mask>
  </defs>
  <g transform="matrix(1 0 0 1 -51 -52 )">
    <path d="M 28.5000057220459 57  C 12.75989055633545 57  0 44.240116119384766  0 28.5  C 0 12.75988483428955  12.75988483428955 0  28.499999999999996 0  C 28.499999999999996 0  186.5 0  186.5 0  C 202.2401123046875 0  215 12.75988483428955  215 28.5  C 215 44.240116119384766  202.2401123046875 57  186.5 57  C 186.5 57  28.5000057220459 57  28.5000057220459 57  Z " fill-rule="nonzero" fill="rgba(242, 215, 232, 0.2)" stroke="none" transform="matrix(1 0 0 1 51 52 )" class="fill" />
    <path d="M 28.5000057220459 57  C 12.75989055633545 57  0 44.240116119384766  0 28.5  C 0 12.75988483428955  12.75988483428955 0  28.499999999999996 0  C 28.499999999999996 0  186.5 0  186.5 0  C 202.2401123046875 0  215 12.75988483428955  215 28.5  C 215 44.240116119384766  202.2401123046875 57  186.5 57  C 186.5 57  28.5000057220459 57  28.5000057220459 57  Z " stroke-width="0" stroke-dasharray="0" stroke="rgba(121, 121, 121, 1)" fill="none" transform="matrix(1 0 0 1 51 52 )" class="stroke" mask="url(#Clip4652)" />
  </g>
  <style>svg { filter: drop-shadow(4px 4px 2px rgba(0, 0, 0, 0.25098039215686274)); }</style>
</svg>