<?xml version="1.0" encoding="utf-8"?>
<svg version="1.1" xmlns:xlink="http://www.w3.org/1999/xlink" width="45px" height="56px" xmlns="http://www.w3.org/2000/svg">
  <defs>
    <pattern id="BGPattern" patternUnits="userSpaceOnUse" alignment="0 0" imageRepeat="None" />
    <mask fill="white" id="Clip4643">
      <path d="M 36 46.99092588790803  L 36 1.0090741120919728  L 27 1.0090741120919728  L 27 29.166577704783414  L 8.965392151670816 1.0090741120919728  L 1 1.0090741120919728  L 1 46.99092588790803  L 10 46.99092588790803  L 10 18.76936973927325  L 28.034607848329184 46.99092588790803  L 36 46.99092588790803  Z M 37 0  L 37 48  L 27.487925647407724 48  L 11 22.192732498460277  L 11 48  L 0 48  L 0 0  L 9.511094635386327 0  L 26 25.748142065284334  L 26 0  L 37 0  Z " fill-rule="evenodd" />
    </mask>
  </defs>
  <g transform="matrix(1 0 0 1 -320 -311 )">
    <path d="M 36 46.99092588790803  L 36 1.0090741120919728  L 27 1.0090741120919728  L 27 29.166577704783414  L 8.965392151670816 1.0090741120919728  L 1 1.0090741120919728  L 1 46.99092588790803  L 10 46.99092588790803  L 10 18.76936973927325  L 28.034607848329184 46.99092588790803  L 36 46.99092588790803  Z M 37 0  L 37 48  L 27.487925647407724 48  L 11 22.192732498460277  L 11 48  L 0 48  L 0 0  L 9.511094635386327 0  L 26 25.748142065284334  L 26 0  L 37 0  Z " fill-rule="nonzero" fill="rgba(127, 140, 159, 0.058823529411764705)" stroke="none" transform="matrix(1 0 0 1 324 311 )" class="fill" />
    <path d="M 36 46.99092588790803  L 36 1.0090741120919728  L 27 1.0090741120919728  L 27 29.166577704783414  L 8.965392151670816 1.0090741120919728  L 1 1.0090741120919728  L 1 46.99092588790803  L 10 46.99092588790803  L 10 18.76936973927325  L 28.034607848329184 46.99092588790803  L 36 46.99092588790803  Z " stroke-width="0" stroke-dasharray="0" stroke="rgba(121, 121, 121, 1)" fill="none" transform="matrix(1 0 0 1 324 311 )" class="stroke" mask="url(#Clip4643)" />
    <path d="M 37 0  L 37 48  L 27.487925647407724 48  L 11 22.192732498460277  L 11 48  L 0 48  L 0 0  L 9.511094635386327 0  L 26 25.748142065284334  L 26 0  L 37 0  Z " stroke-width="0" stroke-dasharray="0" stroke="rgba(121, 121, 121, 1)" fill="none" transform="matrix(1 0 0 1 324 311 )" class="stroke" mask="url(#Clip4643)" />
  </g>
  <style>svg { filter: drop-shadow(0px 4px 2px rgba(0, 0, 0, 0.12941176470588237)); }</style>
</svg>