<?xml version="1.0" encoding="utf-8"?>
<svg version="1.1" xmlns:xlink="http://www.w3.org/1999/xlink" width="51px" height="53px" xmlns="http://www.w3.org/2000/svg">
  <defs>
    <pattern id="BGPattern" patternUnits="userSpaceOnUse" alignment="0 0" imageRepeat="None" />
    <mask fill="white" id="Clip4636">
      <path d="M 20 19  L 20 1  L 1 1  L 1 44.00548193551172  L 7 44.00548193551172  L 7 19  L 20 19  Z M 30.682819181778683 38.25106832995209  C 30.682819181778683 38.25106832995209  30.682819181778683 22  30.682819181778683 22  L 12 22  L 12 41.999935252730175  L 17.24660980127604 41.999935252730175  L 17.24660980127604 39.566085380066475  C 17.24660980127604 39.566085380066475  29.326808296553775 39.566085380066475  29.326808296553775 39.566085380066475  C 29.376063500941527 39.690158869681234  29.427159176506564 39.81703973080953  29.475290996821332 39.947770535675744  C 29.73301442853842 40.679615083487725  29.958522202473596 41.3960549066438  30.151821445722515 42.09608494841801  C 30.296748025338438 42.62098804960779  30.404824421923696 43.1102343700997  30.47730339134213 43.56358181896663  C 30.47730339134213 43.56358181896663  30.538269798074506 44.00548193551172  30.538269798074506 44.00548193551172  C 32.6324187674816 44.00547960114042  34.38831007466173 43.94142391448367  35.805964005579824 43.81415375318341  C 37.25594236126197 43.68685542006309  38.4808074840209 43.384413192880096  39.4796816757758 42.90704450295679  C 40.38593471294793 42.45948637052055  41.023133916780054 41.830218309320216  41.39127352557799 41.01901411490482  C 41.39127352557799 41.01901411490482  41.46108989457797 40.85487978590236  41.46108989457797 40.85487978590236  C 41.77118745653048 40.07526798324858  41.94542736051809 39.0517007265689  41.98422099750737 37.78488798722321  C 41.98422099750737 37.78488798722321  42 37.226442784995896  42 37.226442784995896  L 42 1  L 23 1  L 23 19  L 36 19  L 36 37.13126429835542  C 36 37.13126429835542  36.14127924260788 37.27985928260025  36.14127924260788 37.27985928260025  C 36.123699779118375 37.61422636162433  36.04433920308813 37.851496810211636  35.90331359052345 37.9907843052618  C 35.90331359052345 37.9907843052618  35.83546387980516 38.04614322096085  35.83546387980516 38.04614322096085  C 35.662775432012054 38.16786282978559  35.37937765093763 38.228717090862645  34.98488417297445 38.228730521863  C 34.98488417297445 38.228730521863  34.42930320839717 38.24135623947857  34.42930320839717 38.24135623947857  C 34.18757584520871 38.24931238344615  33.889089432430914 38.26039955068192  33.53447369022845 38.27631976518324  C 33.53447369022845 38.27631976518324  31.214800246975692 38.27631976518324  31.214800246975692 38.27631976518324  C 31.038141766823188 38.26960889003725  30.86091040321843 38.259194299534286  30.682819181778683 38.25106832995209  Z M 25.22140913352695 32.35777183062114  L 25.22140913352695 35.31704579790219  L 17.24660980127604 35.31704579790219  L 17.24660980127604 32.35777183062114  L 25.22140913352695 32.35777183062114  Z M 18.253538841501065 33.35228989510942  L 18.253538841501065 34.32252773341391  L 24.214480093301926 34.32252773341391  L 24.214480093301926 33.35228989510942  L 18.253538841501065 33.35228989510942  Z M 17.24660980127604 25.4359649501446  L 25.22140913352695 25.4359649501446  L 25.22140913352695 28.30006043078517  L 17.24660980127604 28.30006043078517  L 17.24660980127604 25.4359649501446  Z M 18.253538841501065 26.430483014632884  L 18.253538841501065 27.305542366296887  L 24.214480093301926 27.305542366296887  L 24.214480093301926 26.430483014632884  L 18.253538841501065 26.430483014632884  Z M 36.145212559171256 11.49620149350369  L 36.145212559171256 14.312707730824016  L 28.411328866427315 14.312707730824016  L 28.411328866427315 11.49620149350369  L 36.145212559171256 11.49620149350369  Z M 14.202222781220701 11.49620149350369  L 14.202222781220701 14.217529244183536  L 6.758421185025955 14.217529244183536  L 6.758421185025955 11.49620149350369  L 14.202222781220701 11.49620149350369  Z M 29.418257906652336 12.490719557991971  L 29.418257906652336 13.318189666335735  L 35.13828351894624 13.318189666335735  L 35.13828351894624 12.490719557991971  L 29.418257906652336 12.490719557991971  Z M 7.765350225250978 12.490719557991971  L 7.765350225250978 13.223011179695256  L 13.195293740995679 13.223011179695256  L 13.195293740995679 12.490719557991971  L 7.765350225250978 12.490719557991971  Z M 36.145212559171256 5.147407950964735  L 36.145212559171256 7.629818275996028  L 28.411328866427315 7.629818275996028  L 28.411328866427315 5.147407950964735  L 36.145212559171256 5.147407950964735  Z M 6.758421185025955 5.147407950964735  L 14.202222781220701 5.147407950964735  L 14.202222781220701 7.629818275996028  L 6.758421185025955 7.629818275996028  L 6.758421185025955 5.147407950964735  Z M 29.418257906652336 6.141926015453015  L 29.418257906652336 6.635300211507748  L 35.13828351894624 6.635300211507748  L 35.13828351894624 6.141926015453015  L 29.418257906652336 6.141926015453015  Z M 7.765350225250978 6.141926015453015  L 7.765350225250978 6.635300211507748  L 13.195293740995679 6.635300211507748  L 13.195293740995679 6.141926015453015  L 7.765350225250978 6.141926015453015  Z M 21 0  L 21 20  L 8 20  L 8 45  L 0 45  L 0 0  L 21 0  Z M 43 0  C 43 0  43 37.226442784995896  43 37.226442784995896  C 43 38.81316884435566  42.817920860941825 40.16290436535282  42.39820256580301 41.21811196961195  C 41.94214442519463 42.36464345604908  41.09159244651719 43.22303925765864  39.93004642228269 43.79667199033108  C 39.93004642228269 43.79667199033108  39.91824647259256 43.802499244615184  39.91824647259256 43.802499244615184  C 38.78166802989542 44.3456713783935  37.431545356056624 44.66895766996538  35.89643028653754 44.80381577243492  C 35.89643028653754 44.80381577243492  35.89741361567838 44.80478698148228  35.89741361567838 44.80478698148228  C 34.438933160015026 44.935734684169795  32.65025433190074 44.99999766969244  30.538269798074506 45  C 30.538269798074506 45  29.636556975919866 45  29.636556975919866 45  C 29.636556975919866 45  29.53724073269455 44.11522855786248  29.53724073269455 44.11522855786248  C 29.479820633728405 43.604825956303685  29.363218482706518 43.01981008927072  29.180292254567906 42.35734018215565  C 29.0185026364971 41.77142174987885  28.83135617743001 41.172842863139444  28.62176130256809 40.56060344455476  C 28.62176130256809 40.56060344455476  18.253538841501065 40.56060344455476  18.253538841501065 40.56060344455476  L 18.253538841501065 42.99445331721846  L 11 42.99445331721846  L 11 21  L 31 21  L 31 37.281801700694956  C 31 37.281801700694956  33.51382377827071 37.281801700694956  33.51382377827071 37.281801700694956  C 34.20741460365261 37.250794409552945  34.70427466177069 37.23421245737472  34.98488417297445 37.23421245737472  C 35.04220424877951 37.23420978436184  35.09099667208982 37.230169646287244  35.13238354410117 37.22741399404325  C 35.13385518151304 37.199195342599666  35.138280197776574 37.16734404166042  35.13828351894624 37.13126429835542  C 35.13828351894624 37.13126429835542  35.13828351894624 20  35.13828351894624 20  L 21.894806650049166 20  L 21.894806650049166 0  L 43 0  Z " fill-rule="evenodd" />
    </mask>
  </defs>
  <g transform="matrix(1 0 0 1 -283 -377 )">
    <path d="M 20 19  L 20 1  L 1 1  L 1 44.00548193551172  L 7 44.00548193551172  L 7 19  L 20 19  Z M 30.682819181778683 38.25106832995209  C 30.682819181778683 38.25106832995209  30.682819181778683 22  30.682819181778683 22  L 12 22  L 12 41.999935252730175  L 17.24660980127604 41.999935252730175  L 17.24660980127604 39.566085380066475  C 17.24660980127604 39.566085380066475  29.326808296553775 39.566085380066475  29.326808296553775 39.566085380066475  C 29.376063500941527 39.690158869681234  29.427159176506564 39.81703973080953  29.475290996821332 39.947770535675744  C 29.73301442853842 40.679615083487725  29.958522202473596 41.3960549066438  30.151821445722515 42.09608494841801  C 30.296748025338438 42.62098804960779  30.404824421923696 43.1102343700997  30.47730339134213 43.56358181896663  C 30.47730339134213 43.56358181896663  30.538269798074506 44.00548193551172  30.538269798074506 44.00548193551172  C 32.6324187674816 44.00547960114042  34.38831007466173 43.94142391448367  35.805964005579824 43.81415375318341  C 37.25594236126197 43.68685542006309  38.4808074840209 43.384413192880096  39.4796816757758 42.90704450295679  C 40.38593471294793 42.45948637052055  41.023133916780054 41.830218309320216  41.39127352557799 41.01901411490482  C 41.39127352557799 41.01901411490482  41.46108989457797 40.85487978590236  41.46108989457797 40.85487978590236  C 41.77118745653048 40.07526798324858  41.94542736051809 39.0517007265689  41.98422099750737 37.78488798722321  C 41.98422099750737 37.78488798722321  42 37.226442784995896  42 37.226442784995896  L 42 1  L 23 1  L 23 19  L 36 19  L 36 37.13126429835542  C 36 37.13126429835542  36.14127924260788 37.27985928260025  36.14127924260788 37.27985928260025  C 36.123699779118375 37.61422636162433  36.04433920308813 37.851496810211636  35.90331359052345 37.9907843052618  C 35.90331359052345 37.9907843052618  35.83546387980516 38.04614322096085  35.83546387980516 38.04614322096085  C 35.662775432012054 38.16786282978559  35.37937765093763 38.228717090862645  34.98488417297445 38.228730521863  C 34.98488417297445 38.228730521863  34.42930320839717 38.24135623947857  34.42930320839717 38.24135623947857  C 34.18757584520871 38.24931238344615  33.889089432430914 38.26039955068192  33.53447369022845 38.27631976518324  C 33.53447369022845 38.27631976518324  31.214800246975692 38.27631976518324  31.214800246975692 38.27631976518324  C 31.038141766823188 38.26960889003725  30.86091040321843 38.259194299534286  30.682819181778683 38.25106832995209  Z M 25.22140913352695 32.35777183062114  L 25.22140913352695 35.31704579790219  L 17.24660980127604 35.31704579790219  L 17.24660980127604 32.35777183062114  L 25.22140913352695 32.35777183062114  Z M 18.253538841501065 33.35228989510942  L 18.253538841501065 34.32252773341391  L 24.214480093301926 34.32252773341391  L 24.214480093301926 33.35228989510942  L 18.253538841501065 33.35228989510942  Z M 17.24660980127604 25.4359649501446  L 25.22140913352695 25.4359649501446  L 25.22140913352695 28.30006043078517  L 17.24660980127604 28.30006043078517  L 17.24660980127604 25.4359649501446  Z M 18.253538841501065 26.430483014632884  L 18.253538841501065 27.305542366296887  L 24.214480093301926 27.305542366296887  L 24.214480093301926 26.430483014632884  L 18.253538841501065 26.430483014632884  Z M 36.145212559171256 11.49620149350369  L 36.145212559171256 14.312707730824016  L 28.411328866427315 14.312707730824016  L 28.411328866427315 11.49620149350369  L 36.145212559171256 11.49620149350369  Z M 14.202222781220701 11.49620149350369  L 14.202222781220701 14.217529244183536  L 6.758421185025955 14.217529244183536  L 6.758421185025955 11.49620149350369  L 14.202222781220701 11.49620149350369  Z M 29.418257906652336 12.490719557991971  L 29.418257906652336 13.318189666335735  L 35.13828351894624 13.318189666335735  L 35.13828351894624 12.490719557991971  L 29.418257906652336 12.490719557991971  Z M 7.765350225250978 12.490719557991971  L 7.765350225250978 13.223011179695256  L 13.195293740995679 13.223011179695256  L 13.195293740995679 12.490719557991971  L 7.765350225250978 12.490719557991971  Z M 36.145212559171256 5.147407950964735  L 36.145212559171256 7.629818275996028  L 28.411328866427315 7.629818275996028  L 28.411328866427315 5.147407950964735  L 36.145212559171256 5.147407950964735  Z M 6.758421185025955 5.147407950964735  L 14.202222781220701 5.147407950964735  L 14.202222781220701 7.629818275996028  L 6.758421185025955 7.629818275996028  L 6.758421185025955 5.147407950964735  Z M 29.418257906652336 6.141926015453015  L 29.418257906652336 6.635300211507748  L 35.13828351894624 6.635300211507748  L 35.13828351894624 6.141926015453015  L 29.418257906652336 6.141926015453015  Z M 7.765350225250978 6.141926015453015  L 7.765350225250978 6.635300211507748  L 13.195293740995679 6.635300211507748  L 13.195293740995679 6.141926015453015  L 7.765350225250978 6.141926015453015  Z M 21 0  L 21 20  L 8 20  L 8 45  L 0 45  L 0 0  L 21 0  Z M 43 0  C 43 0  43 37.226442784995896  43 37.226442784995896  C 43 38.81316884435566  42.817920860941825 40.16290436535282  42.39820256580301 41.21811196961195  C 41.94214442519463 42.36464345604908  41.09159244651719 43.22303925765864  39.93004642228269 43.79667199033108  C 39.93004642228269 43.79667199033108  39.91824647259256 43.802499244615184  39.91824647259256 43.802499244615184  C 38.78166802989542 44.3456713783935  37.431545356056624 44.66895766996538  35.89643028653754 44.80381577243492  C 35.89643028653754 44.80381577243492  35.89741361567838 44.80478698148228  35.89741361567838 44.80478698148228  C 34.438933160015026 44.935734684169795  32.65025433190074 44.99999766969244  30.538269798074506 45  C 30.538269798074506 45  29.636556975919866 45  29.636556975919866 45  C 29.636556975919866 45  29.53724073269455 44.11522855786248  29.53724073269455 44.11522855786248  C 29.479820633728405 43.604825956303685  29.363218482706518 43.01981008927072  29.180292254567906 42.35734018215565  C 29.0185026364971 41.77142174987885  28.83135617743001 41.172842863139444  28.62176130256809 40.56060344455476  C 28.62176130256809 40.56060344455476  18.253538841501065 40.56060344455476  18.253538841501065 40.56060344455476  L 18.253538841501065 42.99445331721846  L 11 42.99445331721846  L 11 21  L 31 21  L 31 37.281801700694956  C 31 37.281801700694956  33.51382377827071 37.281801700694956  33.51382377827071 37.281801700694956  C 34.20741460365261 37.250794409552945  34.70427466177069 37.23421245737472  34.98488417297445 37.23421245737472  C 35.04220424877951 37.23420978436184  35.09099667208982 37.230169646287244  35.13238354410117 37.22741399404325  C 35.13385518151304 37.199195342599666  35.138280197776574 37.16734404166042  35.13828351894624 37.13126429835542  C 35.13828351894624 37.13126429835542  35.13828351894624 20  35.13828351894624 20  L 21.894806650049166 20  L 21.894806650049166 0  L 43 0  Z " fill-rule="nonzero" fill="rgba(127, 140, 159, 0.058823529411764705)" stroke="none" transform="matrix(1 0 0 1 287 377 )" class="fill" />
    <path d="M 20 19  L 20 1  L 1 1  L 1 44.00548193551172  L 7 44.00548193551172  L 7 19  L 20 19  Z " stroke-width="0" stroke-dasharray="0" stroke="rgba(121, 121, 121, 1)" fill="none" transform="matrix(1 0 0 1 287 377 )" class="stroke" mask="url(#Clip4636)" />
    <path d="M 30.682819181778683 38.25106832995209  C 30.682819181778683 38.25106832995209  30.682819181778683 22  30.682819181778683 22  L 12 22  L 12 41.999935252730175  L 17.24660980127604 41.999935252730175  L 17.24660980127604 39.566085380066475  C 17.24660980127604 39.566085380066475  29.326808296553775 39.566085380066475  29.326808296553775 39.566085380066475  C 29.376063500941527 39.690158869681234  29.427159176506564 39.81703973080953  29.475290996821332 39.947770535675744  C 29.73301442853842 40.679615083487725  29.958522202473596 41.3960549066438  30.151821445722515 42.09608494841801  C 30.296748025338438 42.62098804960779  30.404824421923696 43.1102343700997  30.47730339134213 43.56358181896663  C 30.47730339134213 43.56358181896663  30.538269798074506 44.00548193551172  30.538269798074506 44.00548193551172  C 32.6324187674816 44.00547960114042  34.38831007466173 43.94142391448367  35.805964005579824 43.81415375318341  C 37.25594236126197 43.68685542006309  38.4808074840209 43.384413192880096  39.4796816757758 42.90704450295679  C 40.38593471294793 42.45948637052055  41.023133916780054 41.830218309320216  41.39127352557799 41.01901411490482  C 41.39127352557799 41.01901411490482  41.46108989457797 40.85487978590236  41.46108989457797 40.85487978590236  C 41.77118745653048 40.07526798324858  41.94542736051809 39.0517007265689  41.98422099750737 37.78488798722321  C 41.98422099750737 37.78488798722321  42 37.226442784995896  42 37.226442784995896  L 42 1  L 23 1  L 23 19  L 36 19  L 36 37.13126429835542  C 36 37.13126429835542  36.14127924260788 37.27985928260025  36.14127924260788 37.27985928260025  C 36.123699779118375 37.61422636162433  36.04433920308813 37.851496810211636  35.90331359052345 37.9907843052618  C 35.90331359052345 37.9907843052618  35.83546387980516 38.04614322096085  35.83546387980516 38.04614322096085  C 35.662775432012054 38.16786282978559  35.37937765093763 38.228717090862645  34.98488417297445 38.228730521863  C 34.98488417297445 38.228730521863  34.42930320839717 38.24135623947857  34.42930320839717 38.24135623947857  C 34.18757584520871 38.24931238344615  33.889089432430914 38.26039955068192  33.53447369022845 38.27631976518324  C 33.53447369022845 38.27631976518324  31.214800246975692 38.27631976518324  31.214800246975692 38.27631976518324  C 31.038141766823188 38.26960889003725  30.86091040321843 38.259194299534286  30.682819181778683 38.25106832995209  Z " stroke-width="0" stroke-dasharray="0" stroke="rgba(121, 121, 121, 1)" fill="none" transform="matrix(1 0 0 1 287 377 )" class="stroke" mask="url(#Clip4636)" />
    <path d="M 25.22140913352695 32.35777183062114  L 25.22140913352695 35.31704579790219  L 17.24660980127604 35.31704579790219  L 17.24660980127604 32.35777183062114  L 25.22140913352695 32.35777183062114  Z " stroke-width="0" stroke-dasharray="0" stroke="rgba(121, 121, 121, 1)" fill="none" transform="matrix(1 0 0 1 287 377 )" class="stroke" mask="url(#Clip4636)" />
    <path d="M 18.253538841501065 33.35228989510942  L 18.253538841501065 34.32252773341391  L 24.214480093301926 34.32252773341391  L 24.214480093301926 33.35228989510942  L 18.253538841501065 33.35228989510942  Z " stroke-width="0" stroke-dasharray="0" stroke="rgba(121, 121, 121, 1)" fill="none" transform="matrix(1 0 0 1 287 377 )" class="stroke" mask="url(#Clip4636)" />
    <path d="M 17.24660980127604 25.4359649501446  L 25.22140913352695 25.4359649501446  L 25.22140913352695 28.30006043078517  L 17.24660980127604 28.30006043078517  L 17.24660980127604 25.4359649501446  Z " stroke-width="0" stroke-dasharray="0" stroke="rgba(121, 121, 121, 1)" fill="none" transform="matrix(1 0 0 1 287 377 )" class="stroke" mask="url(#Clip4636)" />
    <path d="M 18.253538841501065 26.430483014632884  L 18.253538841501065 27.305542366296887  L 24.214480093301926 27.305542366296887  L 24.214480093301926 26.430483014632884  L 18.253538841501065 26.430483014632884  Z " stroke-width="0" stroke-dasharray="0" stroke="rgba(121, 121, 121, 1)" fill="none" transform="matrix(1 0 0 1 287 377 )" class="stroke" mask="url(#Clip4636)" />
    <path d="M 36.145212559171256 11.49620149350369  L 36.145212559171256 14.312707730824016  L 28.411328866427315 14.312707730824016  L 28.411328866427315 11.49620149350369  L 36.145212559171256 11.49620149350369  Z " stroke-width="0" stroke-dasharray="0" stroke="rgba(121, 121, 121, 1)" fill="none" transform="matrix(1 0 0 1 287 377 )" class="stroke" mask="url(#Clip4636)" />
    <path d="M 14.202222781220701 11.49620149350369  L 14.202222781220701 14.217529244183536  L 6.758421185025955 14.217529244183536  L 6.758421185025955 11.49620149350369  L 14.202222781220701 11.49620149350369  Z " stroke-width="0" stroke-dasharray="0" stroke="rgba(121, 121, 121, 1)" fill="none" transform="matrix(1 0 0 1 287 377 )" class="stroke" mask="url(#Clip4636)" />
    <path d="M 29.418257906652336 12.490719557991971  L 29.418257906652336 13.318189666335735  L 35.13828351894624 13.318189666335735  L 35.13828351894624 12.490719557991971  L 29.418257906652336 12.490719557991971  Z " stroke-width="0" stroke-dasharray="0" stroke="rgba(121, 121, 121, 1)" fill="none" transform="matrix(1 0 0 1 287 377 )" class="stroke" mask="url(#Clip4636)" />
    <path d="M 7.765350225250978 12.490719557991971  L 7.765350225250978 13.223011179695256  L 13.195293740995679 13.223011179695256  L 13.195293740995679 12.490719557991971  L 7.765350225250978 12.490719557991971  Z " stroke-width="0" stroke-dasharray="0" stroke="rgba(121, 121, 121, 1)" fill="none" transform="matrix(1 0 0 1 287 377 )" class="stroke" mask="url(#Clip4636)" />
    <path d="M 36.145212559171256 5.147407950964735  L 36.145212559171256 7.629818275996028  L 28.411328866427315 7.629818275996028  L 28.411328866427315 5.147407950964735  L 36.145212559171256 5.147407950964735  Z " stroke-width="0" stroke-dasharray="0" stroke="rgba(121, 121, 121, 1)" fill="none" transform="matrix(1 0 0 1 287 377 )" class="stroke" mask="url(#Clip4636)" />
    <path d="M 6.758421185025955 5.147407950964735  L 14.202222781220701 5.147407950964735  L 14.202222781220701 7.629818275996028  L 6.758421185025955 7.629818275996028  L 6.758421185025955 5.147407950964735  Z " stroke-width="0" stroke-dasharray="0" stroke="rgba(121, 121, 121, 1)" fill="none" transform="matrix(1 0 0 1 287 377 )" class="stroke" mask="url(#Clip4636)" />
    <path d="M 29.418257906652336 6.141926015453015  L 29.418257906652336 6.635300211507748  L 35.13828351894624 6.635300211507748  L 35.13828351894624 6.141926015453015  L 29.418257906652336 6.141926015453015  Z " stroke-width="0" stroke-dasharray="0" stroke="rgba(121, 121, 121, 1)" fill="none" transform="matrix(1 0 0 1 287 377 )" class="stroke" mask="url(#Clip4636)" />
    <path d="M 7.765350225250978 6.141926015453015  L 7.765350225250978 6.635300211507748  L 13.195293740995679 6.635300211507748  L 13.195293740995679 6.141926015453015  L 7.765350225250978 6.141926015453015  Z " stroke-width="0" stroke-dasharray="0" stroke="rgba(121, 121, 121, 1)" fill="none" transform="matrix(1 0 0 1 287 377 )" class="stroke" mask="url(#Clip4636)" />
    <path d="M 21 0  L 21 20  L 8 20  L 8 45  L 0 45  L 0 0  L 21 0  Z " stroke-width="0" stroke-dasharray="0" stroke="rgba(121, 121, 121, 1)" fill="none" transform="matrix(1 0 0 1 287 377 )" class="stroke" mask="url(#Clip4636)" />
    <path d="M 43 0  C 43 0  43 37.226442784995896  43 37.226442784995896  C 43 38.81316884435566  42.817920860941825 40.16290436535282  42.39820256580301 41.21811196961195  C 41.94214442519463 42.36464345604908  41.09159244651719 43.22303925765864  39.93004642228269 43.79667199033108  C 39.93004642228269 43.79667199033108  39.91824647259256 43.802499244615184  39.91824647259256 43.802499244615184  C 38.78166802989542 44.3456713783935  37.431545356056624 44.66895766996538  35.89643028653754 44.80381577243492  C 35.89643028653754 44.80381577243492  35.89741361567838 44.80478698148228  35.89741361567838 44.80478698148228  C 34.438933160015026 44.935734684169795  32.65025433190074 44.99999766969244  30.538269798074506 45  C 30.538269798074506 45  29.636556975919866 45  29.636556975919866 45  C 29.636556975919866 45  29.53724073269455 44.11522855786248  29.53724073269455 44.11522855786248  C 29.479820633728405 43.604825956303685  29.363218482706518 43.01981008927072  29.180292254567906 42.35734018215565  C 29.0185026364971 41.77142174987885  28.83135617743001 41.172842863139444  28.62176130256809 40.56060344455476  C 28.62176130256809 40.56060344455476  18.253538841501065 40.56060344455476  18.253538841501065 40.56060344455476  L 18.253538841501065 42.99445331721846  L 11 42.99445331721846  L 11 21  L 31 21  L 31 37.281801700694956  C 31 37.281801700694956  33.51382377827071 37.281801700694956  33.51382377827071 37.281801700694956  C 34.20741460365261 37.250794409552945  34.70427466177069 37.23421245737472  34.98488417297445 37.23421245737472  C 35.04220424877951 37.23420978436184  35.09099667208982 37.230169646287244  35.13238354410117 37.22741399404325  C 35.13385518151304 37.199195342599666  35.138280197776574 37.16734404166042  35.13828351894624 37.13126429835542  C 35.13828351894624 37.13126429835542  35.13828351894624 20  35.13828351894624 20  L 21.894806650049166 20  L 21.894806650049166 0  L 43 0  Z " stroke-width="0" stroke-dasharray="0" stroke="rgba(121, 121, 121, 1)" fill="none" transform="matrix(1 0 0 1 287 377 )" class="stroke" mask="url(#Clip4636)" />
  </g>
  <style>svg { filter: drop-shadow(0px 4px 2px rgba(0, 0, 0, 0.12941176470588237)); }</style>
</svg>