<?xml version="1.0" encoding="utf-8"?>
<svg version="1.1" xmlns:xlink="http://www.w3.org/1999/xlink" width="44px" height="56px" xmlns="http://www.w3.org/2000/svg">
  <defs>
    <pattern id="BGPattern" patternUnits="userSpaceOnUse" alignment="0 0" imageRepeat="None" />
    <mask fill="white" id="Clip4645">
      <path d="M 12.042867581391572 36.77485049296913  C 10.255177240107678 34.677582295160214  9.872209141836485 32.89755327450703  9.872209141836485 24  C 9.87221590777469 15.039126267779213  10.382908713249472 13.386381206940964  12.042867581391572 11.289154679165993  C 13.44754153938662 9.700288714934036  15.363345709309288 8.874426960653103  17.72574490541528 8.874414094068207  C 17.72574490541528 8.874414094068207  18.133961191848666 8.880232746080491  18.133961191848666 8.880232746080491  C 22.163198443969716 9.010565469660744  24.680431398486338 11.094578349765637  25.791670049525045 15.079036689833522  C 25.791670049525045 15.079036689833522  25.898839003003978 15.48343300468725  25.898839003003978 15.48343300468725  C 25.898839003003978 15.48343300468725  34.83770398636031 15.48343300468725  34.83770398636031 15.48343300468725  C 33.62447322552164 7.602719001282932  28.06920345102298 0.993049943429772  17.72574490541528 0.993049943429772  C 12.873220986492246 0.993062471248678  8.786742678437323 2.6456846733826977  5.466590890638954 5.9505414578955875  C 5.466590890638954 5.9505414578955875  5.104164975237477 6.322935186681752  5.104164975237477 6.322935186681752  C 3.33827960085654 8.200142869815238  2.2422974098616244 10.307914165412356  1.7634164163351467 12.750606109584613  C 1.252627945782506 15.292784786270609  0.9976516456897552 19.042782181893486  0.9976455305675083 24  C 0.9976455305675083 24  1.0093366891288462 25.802812348472603  1.0093366891288462 25.802812348472603  C 1.0652111437816827 29.876143400476806  1.3164881224406562 33.02501078054287  1.7634164163351467 35.24939389041539  C 2.2741878800958535 37.79148614913326  3.4874210789711375 40.07930774235544  5.466590890638954 42.04945854210441  C 8.786742678437323 45.354316510425086  12.873220986492246 47.006937528869635  17.72574490541528 47.006950056570226  C 22.67410863795973 47.006950056570226  26.783769700921493 45.516165053110356  30.22846472355281 42.18716663972846  C 30.22846472355281 42.18716663972846  30.559714216124057 41.85938257636981  30.559714216124057 41.85938257636981  C 33.688332183161485 38.5545122964482  34.90103109523423 34.676979263475836  34.90103109523423 28.06723775658639  C 34.90103109523423 28.06723775658639  34.90103109523423 22  34.90103109523423 22  L 17.72574490541528 22  L 17.72574490541528 28.830450945530952  L 26.089794592839166 28.830450945530952  C 26.089794592839166 28.830450945530952  26.089794592839166 30.545983513819298  26.089794592839166 30.545983513819298  C 26.089794592839166 33.02457537604049  25.387535512084416 35.0584923371333  24.046764634245353 36.583804751899144  C 22.450531404765773 38.299794743514624  20.343567325647477 39.12655568126718  17.72574490541528 39.12655568126718  C 17.72574490541528 39.12655568126718  17.72574490541528 38.1335057378374  17.72574490541528 38.1335057378374  C 20.103262069192986 38.1335057378374  21.924256109442233 37.39615164609261  23.301453275960053 35.92338774850493  C 24.450105442109987 34.613212273466544  25.092149062271655 32.82895469141446  25.092149062271655 30.545983513819298  C 25.092149062271655 30.545983513819298  25.092149062271655 29.823500888960726  25.092149062271655 29.823500888960726  L 16.728099374847773 29.823500888960726  L 16.728099374847773 21  L 35.89867662580174 21  C 35.89867662580174 21  35.89867662580174 28.06723775658639  35.89867662580174 28.06723775658639  C 35.89867662580174 34.814060890021416  34.654820557334375 38.98107044003556  31.285540310140455 42.540164861807014  C 31.285540310140455 42.540164861807014  31.278720467646345 42.547923064490064  31.278720467646345 42.547923064490064  C 31.278720467646345 42.547923064490064  31.27092636193878 42.55471149183772  31.27092636193878 42.55471149183772  C 27.552590629947428 46.32320517377667  23.072938126674515 48  17.72574490541528 48  C 12.618523464774295 47.999987392463375  8.2753534399864 46.24951740102736  4.761224324104896 42.751575884919994  C 2.6453246624330196 40.64532471689632  1.3353598042530141 38.18204327748707  0.7852561500365348 35.4443187328269  C 0.25472315083446656 32.80387311916619  0 28.974993875767737  0 24  C 0 19.025090884869485  0.25472951351536494 15.196096338593017  0.7852561500365348 12.555681267173107  C 1.3367091683179244 9.747650615074956  2.6506072336506454 7.3493512259829075  4.761224324104896 5.248424115080006  C 8.275353202129171 1.7504837827804267  12.618523464774295 1.2607043493115808E-05  17.72574490541528 0  C 23.124391402634572 0  27.350862248315337 1.731342321222927  30.387269627344324 4.557944076288993  C 33.412191832173015 7.373946963517254  35.1895492986066 11.214078536649426  35.82365835836649 15.33311782770325  C 35.82365835836649 15.33311782770325  36 17  36 17  L 25.116505642607777 17  C 25.116505642607777 17  24.929447105626373 15.721027961855501  24.929447105626373 15.721027961855501  C 24.422231547987536 13.67206717146335  23.569481981839125 12.23372284029265  22.42559064707315 11.302731533861323  C 21.287253873267133 10.37639330229968  19.756132752242834 9.86746403749798  17.72574490541528 9.86746403749798  C 15.633099831533652 9.867476623952726  14.008265935165827 10.583167231948035  12.813509783226436 11.921448197834168  C 12.076031717627314 12.855726109811904  11.61561798915815 13.647517010528627  11.316067224161728 15.251656699531274  C 10.999834461278747 16.945452070937552  10.869858108284726 19.51339407477372  10.869854672403996 24  C 10.869854672403996 28.462267310742284  10.968321024485975 31.04603469377576  11.27027685312982 32.76676903184096  C 11.557533729344478 34.40371073230665  12.0194685547985 35.21173512995368  12.803767151091986 36.13188944561176  C 12.803767151091986 36.13188944561176  12.806689940732321 36.13576854695329  12.806689940732321 36.13576854695329  C 13.917157101846026 37.451662287104014  15.524266591017495 38.13349435305341  17.72574490541528 38.1335057378374  C 17.72574490541528 38.1335057378374  17.72574490541528 39.12655568126718  17.72574490541528 39.12655568126718  C 17.72574490541528 39.12655568126718  17.27660956401721 39.11782770324875  17.27660956401721 39.11782770324875  C 15.062186583456809 39.02817381135439  13.299855152875597 38.264369650767236  12.042867581391572 36.77485049296913  Z " fill-rule="evenodd" />
    </mask>
  </defs>
  <g transform="matrix(1 0 0 1 -239 -311 )">
    <path d="M 12.042867581391572 36.77485049296913  C 10.255177240107678 34.677582295160214  9.872209141836485 32.89755327450703  9.872209141836485 24  C 9.87221590777469 15.039126267779213  10.382908713249472 13.386381206940964  12.042867581391572 11.289154679165993  C 13.44754153938662 9.700288714934036  15.363345709309288 8.874426960653103  17.72574490541528 8.874414094068207  C 17.72574490541528 8.874414094068207  18.133961191848666 8.880232746080491  18.133961191848666 8.880232746080491  C 22.163198443969716 9.010565469660744  24.680431398486338 11.094578349765637  25.791670049525045 15.079036689833522  C 25.791670049525045 15.079036689833522  25.898839003003978 15.48343300468725  25.898839003003978 15.48343300468725  C 25.898839003003978 15.48343300468725  34.83770398636031 15.48343300468725  34.83770398636031 15.48343300468725  C 33.62447322552164 7.602719001282932  28.06920345102298 0.993049943429772  17.72574490541528 0.993049943429772  C 12.873220986492246 0.993062471248678  8.786742678437323 2.6456846733826977  5.466590890638954 5.9505414578955875  C 5.466590890638954 5.9505414578955875  5.104164975237477 6.322935186681752  5.104164975237477 6.322935186681752  C 3.33827960085654 8.200142869815238  2.2422974098616244 10.307914165412356  1.7634164163351467 12.750606109584613  C 1.252627945782506 15.292784786270609  0.9976516456897552 19.042782181893486  0.9976455305675083 24  C 0.9976455305675083 24  1.0093366891288462 25.802812348472603  1.0093366891288462 25.802812348472603  C 1.0652111437816827 29.876143400476806  1.3164881224406562 33.02501078054287  1.7634164163351467 35.24939389041539  C 2.2741878800958535 37.79148614913326  3.4874210789711375 40.07930774235544  5.466590890638954 42.04945854210441  C 8.786742678437323 45.354316510425086  12.873220986492246 47.006937528869635  17.72574490541528 47.006950056570226  C 22.67410863795973 47.006950056570226  26.783769700921493 45.516165053110356  30.22846472355281 42.18716663972846  C 30.22846472355281 42.18716663972846  30.559714216124057 41.85938257636981  30.559714216124057 41.85938257636981  C 33.688332183161485 38.5545122964482  34.90103109523423 34.676979263475836  34.90103109523423 28.06723775658639  C 34.90103109523423 28.06723775658639  34.90103109523423 22  34.90103109523423 22  L 17.72574490541528 22  L 17.72574490541528 28.830450945530952  L 26.089794592839166 28.830450945530952  C 26.089794592839166 28.830450945530952  26.089794592839166 30.545983513819298  26.089794592839166 30.545983513819298  C 26.089794592839166 33.02457537604049  25.387535512084416 35.0584923371333  24.046764634245353 36.583804751899144  C 22.450531404765773 38.299794743514624  20.343567325647477 39.12655568126718  17.72574490541528 39.12655568126718  C 17.72574490541528 39.12655568126718  17.72574490541528 38.1335057378374  17.72574490541528 38.1335057378374  C 20.103262069192986 38.1335057378374  21.924256109442233 37.39615164609261  23.301453275960053 35.92338774850493  C 24.450105442109987 34.613212273466544  25.092149062271655 32.82895469141446  25.092149062271655 30.545983513819298  C 25.092149062271655 30.545983513819298  25.092149062271655 29.823500888960726  25.092149062271655 29.823500888960726  L 16.728099374847773 29.823500888960726  L 16.728099374847773 21  L 35.89867662580174 21  C 35.89867662580174 21  35.89867662580174 28.06723775658639  35.89867662580174 28.06723775658639  C 35.89867662580174 34.814060890021416  34.654820557334375 38.98107044003556  31.285540310140455 42.540164861807014  C 31.285540310140455 42.540164861807014  31.278720467646345 42.547923064490064  31.278720467646345 42.547923064490064  C 31.278720467646345 42.547923064490064  31.27092636193878 42.55471149183772  31.27092636193878 42.55471149183772  C 27.552590629947428 46.32320517377667  23.072938126674515 48  17.72574490541528 48  C 12.618523464774295 47.999987392463375  8.2753534399864 46.24951740102736  4.761224324104896 42.751575884919994  C 2.6453246624330196 40.64532471689632  1.3353598042530141 38.18204327748707  0.7852561500365348 35.4443187328269  C 0.25472315083446656 32.80387311916619  0 28.974993875767737  0 24  C 0 19.025090884869485  0.25472951351536494 15.196096338593017  0.7852561500365348 12.555681267173107  C 1.3367091683179244 9.747650615074956  2.6506072336506454 7.3493512259829075  4.761224324104896 5.248424115080006  C 8.275353202129171 1.7504837827804267  12.618523464774295 1.2607043493115808E-05  17.72574490541528 0  C 23.124391402634572 0  27.350862248315337 1.731342321222927  30.387269627344324 4.557944076288993  C 33.412191832173015 7.373946963517254  35.1895492986066 11.214078536649426  35.82365835836649 15.33311782770325  C 35.82365835836649 15.33311782770325  36 17  36 17  L 25.116505642607777 17  C 25.116505642607777 17  24.929447105626373 15.721027961855501  24.929447105626373 15.721027961855501  C 24.422231547987536 13.67206717146335  23.569481981839125 12.23372284029265  22.42559064707315 11.302731533861323  C 21.287253873267133 10.37639330229968  19.756132752242834 9.86746403749798  17.72574490541528 9.86746403749798  C 15.633099831533652 9.867476623952726  14.008265935165827 10.583167231948035  12.813509783226436 11.921448197834168  C 12.076031717627314 12.855726109811904  11.61561798915815 13.647517010528627  11.316067224161728 15.251656699531274  C 10.999834461278747 16.945452070937552  10.869858108284726 19.51339407477372  10.869854672403996 24  C 10.869854672403996 28.462267310742284  10.968321024485975 31.04603469377576  11.27027685312982 32.76676903184096  C 11.557533729344478 34.40371073230665  12.0194685547985 35.21173512995368  12.803767151091986 36.13188944561176  C 12.803767151091986 36.13188944561176  12.806689940732321 36.13576854695329  12.806689940732321 36.13576854695329  C 13.917157101846026 37.451662287104014  15.524266591017495 38.13349435305341  17.72574490541528 38.1335057378374  C 17.72574490541528 38.1335057378374  17.72574490541528 39.12655568126718  17.72574490541528 39.12655568126718  C 17.72574490541528 39.12655568126718  17.27660956401721 39.11782770324875  17.27660956401721 39.11782770324875  C 15.062186583456809 39.02817381135439  13.299855152875597 38.264369650767236  12.042867581391572 36.77485049296913  Z " fill-rule="nonzero" fill="rgba(127, 140, 159, 0.058823529411764705)" stroke="none" transform="matrix(1 0 0 1 243 311 )" class="fill" />
    <path d="M 12.042867581391572 36.77485049296913  C 10.255177240107678 34.677582295160214  9.872209141836485 32.89755327450703  9.872209141836485 24  C 9.87221590777469 15.039126267779213  10.382908713249472 13.386381206940964  12.042867581391572 11.289154679165993  C 13.44754153938662 9.700288714934036  15.363345709309288 8.874426960653103  17.72574490541528 8.874414094068207  C 17.72574490541528 8.874414094068207  18.133961191848666 8.880232746080491  18.133961191848666 8.880232746080491  C 22.163198443969716 9.010565469660744  24.680431398486338 11.094578349765637  25.791670049525045 15.079036689833522  C 25.791670049525045 15.079036689833522  25.898839003003978 15.48343300468725  25.898839003003978 15.48343300468725  C 25.898839003003978 15.48343300468725  34.83770398636031 15.48343300468725  34.83770398636031 15.48343300468725  C 33.62447322552164 7.602719001282932  28.06920345102298 0.993049943429772  17.72574490541528 0.993049943429772  C 12.873220986492246 0.993062471248678  8.786742678437323 2.6456846733826977  5.466590890638954 5.9505414578955875  C 5.466590890638954 5.9505414578955875  5.104164975237477 6.322935186681752  5.104164975237477 6.322935186681752  C 3.33827960085654 8.200142869815238  2.2422974098616244 10.307914165412356  1.7634164163351467 12.750606109584613  C 1.252627945782506 15.292784786270609  0.9976516456897552 19.042782181893486  0.9976455305675083 24  C 0.9976455305675083 24  1.0093366891288462 25.802812348472603  1.0093366891288462 25.802812348472603  C 1.0652111437816827 29.876143400476806  1.3164881224406562 33.02501078054287  1.7634164163351467 35.24939389041539  C 2.2741878800958535 37.79148614913326  3.4874210789711375 40.07930774235544  5.466590890638954 42.04945854210441  C 8.786742678437323 45.354316510425086  12.873220986492246 47.006937528869635  17.72574490541528 47.006950056570226  C 22.67410863795973 47.006950056570226  26.783769700921493 45.516165053110356  30.22846472355281 42.18716663972846  C 30.22846472355281 42.18716663972846  30.559714216124057 41.85938257636981  30.559714216124057 41.85938257636981  C 33.688332183161485 38.5545122964482  34.90103109523423 34.676979263475836  34.90103109523423 28.06723775658639  C 34.90103109523423 28.06723775658639  34.90103109523423 22  34.90103109523423 22  L 17.72574490541528 22  L 17.72574490541528 28.830450945530952  L 26.089794592839166 28.830450945530952  C 26.089794592839166 28.830450945530952  26.089794592839166 30.545983513819298  26.089794592839166 30.545983513819298  C 26.089794592839166 33.02457537604049  25.387535512084416 35.0584923371333  24.046764634245353 36.583804751899144  C 22.450531404765773 38.299794743514624  20.343567325647477 39.12655568126718  17.72574490541528 39.12655568126718  C 17.72574490541528 39.12655568126718  17.72574490541528 38.1335057378374  17.72574490541528 38.1335057378374  C 20.103262069192986 38.1335057378374  21.924256109442233 37.39615164609261  23.301453275960053 35.92338774850493  C 24.450105442109987 34.613212273466544  25.092149062271655 32.82895469141446  25.092149062271655 30.545983513819298  C 25.092149062271655 30.545983513819298  25.092149062271655 29.823500888960726  25.092149062271655 29.823500888960726  L 16.728099374847773 29.823500888960726  L 16.728099374847773 21  L 35.89867662580174 21  C 35.89867662580174 21  35.89867662580174 28.06723775658639  35.89867662580174 28.06723775658639  C 35.89867662580174 34.814060890021416  34.654820557334375 38.98107044003556  31.285540310140455 42.540164861807014  C 31.285540310140455 42.540164861807014  31.278720467646345 42.547923064490064  31.278720467646345 42.547923064490064  C 31.278720467646345 42.547923064490064  31.27092636193878 42.55471149183772  31.27092636193878 42.55471149183772  C 27.552590629947428 46.32320517377667  23.072938126674515 48  17.72574490541528 48  C 12.618523464774295 47.999987392463375  8.2753534399864 46.24951740102736  4.761224324104896 42.751575884919994  C 2.6453246624330196 40.64532471689632  1.3353598042530141 38.18204327748707  0.7852561500365348 35.4443187328269  C 0.25472315083446656 32.80387311916619  0 28.974993875767737  0 24  C 0 19.025090884869485  0.25472951351536494 15.196096338593017  0.7852561500365348 12.555681267173107  C 1.3367091683179244 9.747650615074956  2.6506072336506454 7.3493512259829075  4.761224324104896 5.248424115080006  C 8.275353202129171 1.7504837827804267  12.618523464774295 1.2607043493115808E-05  17.72574490541528 0  C 23.124391402634572 0  27.350862248315337 1.731342321222927  30.387269627344324 4.557944076288993  C 33.412191832173015 7.373946963517254  35.1895492986066 11.214078536649426  35.82365835836649 15.33311782770325  C 35.82365835836649 15.33311782770325  36 17  36 17  L 25.116505642607777 17  C 25.116505642607777 17  24.929447105626373 15.721027961855501  24.929447105626373 15.721027961855501  C 24.422231547987536 13.67206717146335  23.569481981839125 12.23372284029265  22.42559064707315 11.302731533861323  C 21.287253873267133 10.37639330229968  19.756132752242834 9.86746403749798  17.72574490541528 9.86746403749798  C 15.633099831533652 9.867476623952726  14.008265935165827 10.583167231948035  12.813509783226436 11.921448197834168  C 12.076031717627314 12.855726109811904  11.61561798915815 13.647517010528627  11.316067224161728 15.251656699531274  C 10.999834461278747 16.945452070937552  10.869858108284726 19.51339407477372  10.869854672403996 24  C 10.869854672403996 28.462267310742284  10.968321024485975 31.04603469377576  11.27027685312982 32.76676903184096  C 11.557533729344478 34.40371073230665  12.0194685547985 35.21173512995368  12.803767151091986 36.13188944561176  C 12.803767151091986 36.13188944561176  12.806689940732321 36.13576854695329  12.806689940732321 36.13576854695329  C 13.917157101846026 37.451662287104014  15.524266591017495 38.13349435305341  17.72574490541528 38.1335057378374  C 17.72574490541528 38.1335057378374  17.72574490541528 39.12655568126718  17.72574490541528 39.12655568126718  C 17.72574490541528 39.12655568126718  17.27660956401721 39.11782770324875  17.27660956401721 39.11782770324875  C 15.062186583456809 39.02817381135439  13.299855152875597 38.264369650767236  12.042867581391572 36.77485049296913  Z " stroke-width="0" stroke-dasharray="0" stroke="rgba(121, 121, 121, 1)" fill="none" transform="matrix(1 0 0 1 243 311 )" class="stroke" mask="url(#Clip4645)" />
  </g>
  <style>svg { filter: drop-shadow(0px 4px 2px rgba(0, 0, 0, 0.12941176470588237)); }</style>
</svg>