<?xml version="1.0" encoding="utf-8"?>
<svg version="1.1" xmlns:xlink="http://www.w3.org/1999/xlink" width="40px" height="56px" xmlns="http://www.w3.org/2000/svg">
  <defs>
    <pattern id="BGPattern" patternUnits="userSpaceOnUse" alignment="0 0" imageRepeat="None" />
    <mask fill="white" id="Clip4642">
      <path d="M 30.98632679576811 47  L 30.98632679576811 39  L 10 39  L 10 1.0090741120919728  L 1 1.0090741120919728  L 1 47  L 30.98632679576811 47  Z M 11 0  L 11 38  L 32 38  L 32 48  L 0 48  L 0 0  L 11 0  Z " fill-rule="evenodd" />
    </mask>
  </defs>
  <g transform="matrix(1 0 0 1 -381 -311 )">
    <path d="M 30.98632679576811 47  L 30.98632679576811 39  L 10 39  L 10 1.0090741120919728  L 1 1.0090741120919728  L 1 47  L 30.98632679576811 47  Z M 11 0  L 11 38  L 32 38  L 32 48  L 0 48  L 0 0  L 11 0  Z " fill-rule="nonzero" fill="rgba(127, 140, 159, 0.058823529411764705)" stroke="none" transform="matrix(1 0 0 1 385 311 )" class="fill" />
    <path d="M 30.98632679576811 47  L 30.98632679576811 39  L 10 39  L 10 1.0090741120919728  L 1 1.0090741120919728  L 1 47  L 30.98632679576811 47  Z " stroke-width="0" stroke-dasharray="0" stroke="rgba(121, 121, 121, 1)" fill="none" transform="matrix(1 0 0 1 385 311 )" class="stroke" mask="url(#Clip4642)" />
    <path d="M 11 0  L 11 38  L 32 38  L 32 48  L 0 48  L 0 0  L 11 0  Z " stroke-width="0" stroke-dasharray="0" stroke="rgba(121, 121, 121, 1)" fill="none" transform="matrix(1 0 0 1 385 311 )" class="stroke" mask="url(#Clip4642)" />
  </g>
  <style>svg { filter: drop-shadow(0px 4px 2px rgba(0, 0, 0, 0.12941176470588237)); }</style>
</svg>