<?xml version="1.0" encoding="utf-8"?>
<svg version="1.1" xmlns:xlink="http://www.w3.org/1999/xlink" width="20px" height="21px" xmlns="http://www.w3.org/2000/svg">
  <defs>
    <pattern id="BGPattern" patternUnits="userSpaceOnUse" alignment="0 0" imageRepeat="None" />
    <mask fill="white" id="Clip4689">
      <path d="M 14.679341050824139 1.7001236767816779  L 5.201898892363127 1.7001236767816779  L 5.201898892363127 6.249721256022537  L 14.679341050824139 6.249721256022537  L 14.679341050824139 1.7001236767816779  Z M 3.4679325949087514 8  L 3.4679325949087514 0  L 16.50831237338138 0  L 16.50831237338138 8  L 3.4679325949087514 8  Z M 0 21  L 0 10.535928612543696  L 8.45605130361966 10.535928612543696  L 8.45605130361966 20.784489220691285  L 6.674590044482165 20.784489220691285  L 6.674590044482165 12.236037065337008  L 1.7102112657445043 12.236037065337008  L 1.7102112657445043 21  L 0 21  Z M 11 21  L 11 10.535928612543696  L 20 10.535928612543696  L 20 20.85633122179031  L 18.194783709152635 20.85633122179031  L 18.194783709152635 12.236037065337008  L 12.779104633137289 12.236037065337008  L 12.779104633137289 21  L 11 21  Z M 0.7838405377426377 19.706950548136074  L 0.7838405377426377 17.95894742794341  L 7.41092051880506 17.95894742794341  L 7.41092051880506 19.706950548136074  L 0.7838405377426377 19.706950548136074  Z M 11.923999000265034 19.706950548136074  L 11.923999000265034 17.95894742794341  L 18.978624246895272 17.95894742794341  L 18.978624246895272 19.706950548136074  L 11.923999000265034 19.706950548136074  Z " fill-rule="evenodd" />
    </mask>
  </defs>
  <g transform="matrix(1 0 0 1 -310 -644 )">
    <path d="M 14.679341050824139 1.7001236767816779  L 5.201898892363127 1.7001236767816779  L 5.201898892363127 6.249721256022537  L 14.679341050824139 6.249721256022537  L 14.679341050824139 1.7001236767816779  Z M 3.4679325949087514 8  L 3.4679325949087514 0  L 16.50831237338138 0  L 16.50831237338138 8  L 3.4679325949087514 8  Z M 0 21  L 0 10.535928612543696  L 8.45605130361966 10.535928612543696  L 8.45605130361966 20.784489220691285  L 6.674590044482165 20.784489220691285  L 6.674590044482165 12.236037065337008  L 1.7102112657445043 12.236037065337008  L 1.7102112657445043 21  L 0 21  Z M 11 21  L 11 10.535928612543696  L 20 10.535928612543696  L 20 20.85633122179031  L 18.194783709152635 20.85633122179031  L 18.194783709152635 12.236037065337008  L 12.779104633137289 12.236037065337008  L 12.779104633137289 21  L 11 21  Z M 0.7838405377426377 19.706950548136074  L 0.7838405377426377 17.95894742794341  L 7.41092051880506 17.95894742794341  L 7.41092051880506 19.706950548136074  L 0.7838405377426377 19.706950548136074  Z M 11.923999000265034 19.706950548136074  L 11.923999000265034 17.95894742794341  L 18.978624246895272 17.95894742794341  L 18.978624246895272 19.706950548136074  L 11.923999000265034 19.706950548136074  Z " fill-rule="nonzero" fill="rgba(0, 0, 0, 1)" stroke="none" transform="matrix(1 0 0 1 310 644 )" class="fill" />
    <path d="M 14.679341050824139 1.7001236767816779  L 5.201898892363127 1.7001236767816779  L 5.201898892363127 6.249721256022537  L 14.679341050824139 6.249721256022537  L 14.679341050824139 1.7001236767816779  Z " stroke-width="0" stroke-dasharray="0" stroke="rgba(121, 121, 121, 1)" fill="none" transform="matrix(1 0 0 1 310 644 )" class="stroke" mask="url(#Clip4689)" />
    <path d="M 3.4679325949087514 8  L 3.4679325949087514 0  L 16.50831237338138 0  L 16.50831237338138 8  L 3.4679325949087514 8  Z " stroke-width="0" stroke-dasharray="0" stroke="rgba(121, 121, 121, 1)" fill="none" transform="matrix(1 0 0 1 310 644 )" class="stroke" mask="url(#Clip4689)" />
    <path d="M 0 21  L 0 10.535928612543696  L 8.45605130361966 10.535928612543696  L 8.45605130361966 20.784489220691285  L 6.674590044482165 20.784489220691285  L 6.674590044482165 12.236037065337008  L 1.7102112657445043 12.236037065337008  L 1.7102112657445043 21  L 0 21  Z " stroke-width="0" stroke-dasharray="0" stroke="rgba(121, 121, 121, 1)" fill="none" transform="matrix(1 0 0 1 310 644 )" class="stroke" mask="url(#Clip4689)" />
    <path d="M 11 21  L 11 10.535928612543696  L 20 10.535928612543696  L 20 20.85633122179031  L 18.194783709152635 20.85633122179031  L 18.194783709152635 12.236037065337008  L 12.779104633137289 12.236037065337008  L 12.779104633137289 21  L 11 21  Z " stroke-width="0" stroke-dasharray="0" stroke="rgba(121, 121, 121, 1)" fill="none" transform="matrix(1 0 0 1 310 644 )" class="stroke" mask="url(#Clip4689)" />
    <path d="M 0.7838405377426377 19.706950548136074  L 0.7838405377426377 17.95894742794341  L 7.41092051880506 17.95894742794341  L 7.41092051880506 19.706950548136074  L 0.7838405377426377 19.706950548136074  Z " stroke-width="0" stroke-dasharray="0" stroke="rgba(121, 121, 121, 1)" fill="none" transform="matrix(1 0 0 1 310 644 )" class="stroke" mask="url(#Clip4689)" />
    <path d="M 11.923999000265034 19.706950548136074  L 11.923999000265034 17.95894742794341  L 18.978624246895272 17.95894742794341  L 18.978624246895272 19.706950548136074  L 11.923999000265034 19.706950548136074  Z " stroke-width="0" stroke-dasharray="0" stroke="rgba(121, 121, 121, 1)" fill="none" transform="matrix(1 0 0 1 310 644 )" class="stroke" mask="url(#Clip4689)" />
  </g>
</svg>