<?xml version="1.0" encoding="utf-8"?>
<svg version="1.1" xmlns:xlink="http://www.w3.org/1999/xlink" width="22px" height="22px" xmlns="http://www.w3.org/2000/svg">
  <defs>
    <pattern id="BGPattern" patternUnits="userSpaceOnUse" alignment="0 0" imageRepeat="None" />
    <mask fill="white" id="Clip4691">
      <path d="M 13.19527256107128 9.66086791266279  L 13.19527256107128 7.9869471021779015  L 22 7.9869471021779015  L 22 9.66086791266279  L 13.19527256107128 9.66086791266279  Z M 0.7789693773833319 4  L 0.7789693773833319 2.4152131772901138  L 11.212449604682416 2.4152131772901138  L 11.212449604682416 4  L 0.7789693773833319 4  Z M 0.5193129182555546 13.463035793881971  L 0.5193129182555546 11.884775420083136  L 11.306863313573139 11.884775420083136  L 11.306863313573139 13.463035793881971  L 0.5193129182555546 13.463035793881971  Z M 0.44849888465185445 9.397816915278483  L 0.44849888465185445 8  L 11.495705739097215 8  L 11.495705739097215 9.397816915278483  L 0.44849888465185445 9.397816915278483  Z M 17.60943987011481 21.78477922095872  L 17.60943987011481 8.656509344970923  L 19 8.656509344970923  L 19 21.78477922095872  L 17.60943987011481 21.78477922095872  Z M 5.169529507268522 3.1804358567691864  L 5.169529507268522 0  L 6.892703508400925 0  L 6.892703508400925 3.1804358567691864  L 5.169529507268522 3.1804358567691864  Z M 5.169529507268522 21.856509344970924  L 5.169529507268522 9.13478112139651  L 7 9.13478112139651  L 7 21.856509344970924  L 5.169529507268522 21.856509344970924  Z M 12.345489150084248 10.23476971876976  C 12.345489150084248 10.23476971876976  12.345489150084248 1.8652112768523221  12.345489150084248 1.8652112768523221  C 12.345489150084248 1.8652112768523221  14.51716953973982 2.5347735196453436  14.51716953973982 2.5347735196453436  C 14.501432983607453 2.710135466661138  14.344054290508968 2.8217282235744126  14.04505597205831 2.869554641041854  C 14.04505597205831 2.869554641041854  14.04505597205831 10.258684827941273  14.04505597205831 10.258684827941273  C 14.04505597205831 11.15143828587422  13.997848179629035 12.107964734785266  13.903427904850911 13.128254672485461  C 13.824744186205157 14.148544372630932  13.659510815807245 15.184771381652826  13.407722165753697 16.23694520174011  C 13.155934453684058 17.273176961856485  12.77825898247505 18.285499789224172  12.274682620351864 19.273905606982552  C 11.771106258228677 20.262311365352254  11.110156361918534 21.171014485007273  10.291844656220368 22  C 10.213160937574612 21.87246375778748  10.095134421622063 21.728978804071776  9.937766984330553 21.569558441917437  C 9.79613610317141 21.410138198540462  9.638772886807512 21.250722112371157  9.465668424391675 21.091301868994183  C 9.308300987100163 20.947823566810754  9.158792917027649 20.84420397787545  9.017162035868505 20.780435856769184  C 9.772526579053284 20.031160582242308  10.370528374866124 19.21810400232199  10.811157574475923 18.341292366805224  C 11.267523799210048 17.464480850065822  11.59799194698174 16.563765983113747  11.802569052670355 15.639128286461625  C 12.022884590459169 14.714490708586869  12.164522037505714 13.797814539731243  12.227468262035188 12.889118784272666  C 12.306151980680943 11.96448120639791  12.345489150084248 11.079697234344712  12.345489150084248 10.23476971876976  Z M 18.152359967528703 1.0282584733610451  C 18.98640776036728 0.7413018689941846  19.686695295072685 0.4543471650651159  20.25321881970926 0.1673905606982554  C 20.25321881970926 0.1673905606982554  21.693121678684232 1.4825999371127856  21.693121678684232 1.4825999371127856  C 20.953494160623777 1.8173829589470882  20.111584186614458 2.136229859678584  19.167378624881472 2.4391282864616266  C 18.223173063148487 2.726084890828487  17.247496265118595 2.9891206847104597  16.24034354087222 3.2282508716098786  C 15.248928310742132 3.4514392360931145  14.281106190011664 3.650721043374901  13.336900628278679 3.8260829903906957  C 13.28969002189766 3.6347792209587193  13.211016621074963 3.4036204203768397  13.100858852180556 3.1326056384261616  C 12.990702021270064 2.8456490340593006  12.880546128343486 2.614490233477421  12.770388359449079 2.4391282864616266  C 13.651646758668676 2.2478235668107547  14.556504833175298 2.0325961362372023  15.484973838775915 1.7934659493377838  C 16.4291794005089 1.5543357624383654  17.318311236706208 1.2992732553117237  18.152359967528703 1.0282584733610451  Z M 5.759656459127776 14.730430155455812  C 5.759656459127776 14.730430155455812  6.703861082876848 13.893477351964535  6.703861082876848 13.893477351964535  C 6.892702101425053 14.021013831731784  7.168099337612814 14.236226058803  7.530044818576856 14.539124485586044  C 7.907727324665225 14.826081089952904  8.309013257976273 15.144928228239124  8.733905901453705 15.495652834934884  C 9.158798075939178 15.846377441630645  9.544343701182202 16.17318242561514  9.890552626013875 16.476081089952903  C 10.236761081853592 16.76303745676504  10.488554421826716 16.970276872190375  10.645922328110185 17.0978131144029  C 10.645922328110185 17.0978131144029  9.583689312440736 18.436952803491277  9.583689312440736 18.436952803491277  C 9.394848293892531 18.213764439008038  9.135184330893438 17.934782546724854  8.804712431186088 17.6  C 8.47424053147874 17.265217334497784  8.11230630632167 16.91449308413411  7.718887244100934 16.54782641746744  C 7.341205207004522 16.16521769082987  6.971385351078852 15.814493321688833  6.609439870114809 15.495652834934884  C 6.2632309452831345 15.160870288210031  5.979971058932676 14.905792577581053  5.759656459127776 14.730430155455812  Z M 2.8090141959601884 6.169566043668604  C 2.63590996804033 5.5159427726350785  2.4313314553758416 4.918114454729844  2.1952800649425956 4.376084890828487  C 2.1952800649425956 4.376084890828487  3.611590752501859 4.041303769431976  3.611590752501859 4.041303769431976  C 3.847642142935105 4.567391510917151  4.06008354025827 5.149274205530619  4.2489245588064755 5.786954703929069  C 4.437765811850659 6.424636152546414  4.563662481837221 6.974626650357456  4.6266094098546295 7.4369452017401105  C 4.6266094098546295 7.4369452017401105  3.1158850134046427 7.843471650651159  3.1158850134046427 7.843471650651159  C 3.084411432147949 7.365210326633426  2.9821186583760255 6.8072465420670545  2.8090141959601884 6.169566043668604  Z M 7.93133684878335 5.141292366805226  C 8.072967729942494 4.710858410473831  8.18312362286907 4.328256572923253  8.261807341514828 3.9934735510889507  C 8.261807341514828 3.9934735510889507  9.866945446855537 4.352169781656975  9.866945446855537 4.352169781656975  C 9.646630847050638 4.95796663522306  9.418448438171511 5.5717263231366205  9.182397282234243 6.193465949337784  C 8.946345657305018 6.8152046253200504  8.71816371741785 7.34926470334166  8.497849117612951 7.795641432308134  C 8.497849117612951 7.795641432308134  7.057938754766663 7.4369452017401105  7.057938754766663 7.4369452017401105  C 7.1995696359258075 7.118104952540886  7.341199579101037 6.759407771753966  7.482830460260179 6.36085651003604  C 7.640197897551692 5.962306198537008  7.789705967624206 5.555785450939335  7.93133684878335 5.141292366805226  Z M 3.776825998867597 15.04129616768081  C 4.343349289008193 14.2441950695733  4.80758402630448 13.463030567678043  5.169529507268522 12.697813114402898  C 5.169529507268522 12.697813114402898  6.44420462374907 13.2  6.44420462374907 13.2  C 6.050785561528334 14.060869575545858  5.562947397009366 14.93768049839845  4.9806870817444455 15.830433956331394  C 4.398427000975503 16.70724559184816  3.776828812819341 17.52826001746675  3.1158850134046427 18.293477351964533  C 2.4706777701223133 19.042752685880092  1.8333389221541567 19.664485779326345  1.2038685867481633 20.158688628816858  C 1.0622377055890198 19.951442264915844  0.8733926419851832 19.728256825325147  0.6373413101759317 19.489126386023834  C 0.4170266517470377 19.234053960987467  0.2045778678005471 19.02679946083716  0 18.867379158071504  C 0.645207184658335 18.4528863708808  1.2904164797804776 17.910868862881685  1.9356236058148182 17.241303769431976  C 2.5965675224775056 16.571738557204906  3.2103027087270024 15.838397740897765  3.776825998867597 15.04129616768081  Z " fill-rule="evenodd" />
    </mask>
  </defs>
  <g transform="matrix(1 0 0 1 -261 -643 )">
    <path d="M 13.19527256107128 9.66086791266279  L 13.19527256107128 7.9869471021779015  L 22 7.9869471021779015  L 22 9.66086791266279  L 13.19527256107128 9.66086791266279  Z M 0.7789693773833319 4  L 0.7789693773833319 2.4152131772901138  L 11.212449604682416 2.4152131772901138  L 11.212449604682416 4  L 0.7789693773833319 4  Z M 0.5193129182555546 13.463035793881971  L 0.5193129182555546 11.884775420083136  L 11.306863313573139 11.884775420083136  L 11.306863313573139 13.463035793881971  L 0.5193129182555546 13.463035793881971  Z M 0.44849888465185445 9.397816915278483  L 0.44849888465185445 8  L 11.495705739097215 8  L 11.495705739097215 9.397816915278483  L 0.44849888465185445 9.397816915278483  Z M 17.60943987011481 21.78477922095872  L 17.60943987011481 8.656509344970923  L 19 8.656509344970923  L 19 21.78477922095872  L 17.60943987011481 21.78477922095872  Z M 5.169529507268522 3.1804358567691864  L 5.169529507268522 0  L 6.892703508400925 0  L 6.892703508400925 3.1804358567691864  L 5.169529507268522 3.1804358567691864  Z M 5.169529507268522 21.856509344970924  L 5.169529507268522 9.13478112139651  L 7 9.13478112139651  L 7 21.856509344970924  L 5.169529507268522 21.856509344970924  Z M 12.345489150084248 10.23476971876976  C 12.345489150084248 10.23476971876976  12.345489150084248 1.8652112768523221  12.345489150084248 1.8652112768523221  C 12.345489150084248 1.8652112768523221  14.51716953973982 2.5347735196453436  14.51716953973982 2.5347735196453436  C 14.501432983607453 2.710135466661138  14.344054290508968 2.8217282235744126  14.04505597205831 2.869554641041854  C 14.04505597205831 2.869554641041854  14.04505597205831 10.258684827941273  14.04505597205831 10.258684827941273  C 14.04505597205831 11.15143828587422  13.997848179629035 12.107964734785266  13.903427904850911 13.128254672485461  C 13.824744186205157 14.148544372630932  13.659510815807245 15.184771381652826  13.407722165753697 16.23694520174011  C 13.155934453684058 17.273176961856485  12.77825898247505 18.285499789224172  12.274682620351864 19.273905606982552  C 11.771106258228677 20.262311365352254  11.110156361918534 21.171014485007273  10.291844656220368 22  C 10.213160937574612 21.87246375778748  10.095134421622063 21.728978804071776  9.937766984330553 21.569558441917437  C 9.79613610317141 21.410138198540462  9.638772886807512 21.250722112371157  9.465668424391675 21.091301868994183  C 9.308300987100163 20.947823566810754  9.158792917027649 20.84420397787545  9.017162035868505 20.780435856769184  C 9.772526579053284 20.031160582242308  10.370528374866124 19.21810400232199  10.811157574475923 18.341292366805224  C 11.267523799210048 17.464480850065822  11.59799194698174 16.563765983113747  11.802569052670355 15.639128286461625  C 12.022884590459169 14.714490708586869  12.164522037505714 13.797814539731243  12.227468262035188 12.889118784272666  C 12.306151980680943 11.96448120639791  12.345489150084248 11.079697234344712  12.345489150084248 10.23476971876976  Z M 18.152359967528703 1.0282584733610451  C 18.98640776036728 0.7413018689941846  19.686695295072685 0.4543471650651159  20.25321881970926 0.1673905606982554  C 20.25321881970926 0.1673905606982554  21.693121678684232 1.4825999371127856  21.693121678684232 1.4825999371127856  C 20.953494160623777 1.8173829589470882  20.111584186614458 2.136229859678584  19.167378624881472 2.4391282864616266  C 18.223173063148487 2.726084890828487  17.247496265118595 2.9891206847104597  16.24034354087222 3.2282508716098786  C 15.248928310742132 3.4514392360931145  14.281106190011664 3.650721043374901  13.336900628278679 3.8260829903906957  C 13.28969002189766 3.6347792209587193  13.211016621074963 3.4036204203768397  13.100858852180556 3.1326056384261616  C 12.990702021270064 2.8456490340593006  12.880546128343486 2.614490233477421  12.770388359449079 2.4391282864616266  C 13.651646758668676 2.2478235668107547  14.556504833175298 2.0325961362372023  15.484973838775915 1.7934659493377838  C 16.4291794005089 1.5543357624383654  17.318311236706208 1.2992732553117237  18.152359967528703 1.0282584733610451  Z M 5.759656459127776 14.730430155455812  C 5.759656459127776 14.730430155455812  6.703861082876848 13.893477351964535  6.703861082876848 13.893477351964535  C 6.892702101425053 14.021013831731784  7.168099337612814 14.236226058803  7.530044818576856 14.539124485586044  C 7.907727324665225 14.826081089952904  8.309013257976273 15.144928228239124  8.733905901453705 15.495652834934884  C 9.158798075939178 15.846377441630645  9.544343701182202 16.17318242561514  9.890552626013875 16.476081089952903  C 10.236761081853592 16.76303745676504  10.488554421826716 16.970276872190375  10.645922328110185 17.0978131144029  C 10.645922328110185 17.0978131144029  9.583689312440736 18.436952803491277  9.583689312440736 18.436952803491277  C 9.394848293892531 18.213764439008038  9.135184330893438 17.934782546724854  8.804712431186088 17.6  C 8.47424053147874 17.265217334497784  8.11230630632167 16.91449308413411  7.718887244100934 16.54782641746744  C 7.341205207004522 16.16521769082987  6.971385351078852 15.814493321688833  6.609439870114809 15.495652834934884  C 6.2632309452831345 15.160870288210031  5.979971058932676 14.905792577581053  5.759656459127776 14.730430155455812  Z M 2.8090141959601884 6.169566043668604  C 2.63590996804033 5.5159427726350785  2.4313314553758416 4.918114454729844  2.1952800649425956 4.376084890828487  C 2.1952800649425956 4.376084890828487  3.611590752501859 4.041303769431976  3.611590752501859 4.041303769431976  C 3.847642142935105 4.567391510917151  4.06008354025827 5.149274205530619  4.2489245588064755 5.786954703929069  C 4.437765811850659 6.424636152546414  4.563662481837221 6.974626650357456  4.6266094098546295 7.4369452017401105  C 4.6266094098546295 7.4369452017401105  3.1158850134046427 7.843471650651159  3.1158850134046427 7.843471650651159  C 3.084411432147949 7.365210326633426  2.9821186583760255 6.8072465420670545  2.8090141959601884 6.169566043668604  Z M 7.93133684878335 5.141292366805226  C 8.072967729942494 4.710858410473831  8.18312362286907 4.328256572923253  8.261807341514828 3.9934735510889507  C 8.261807341514828 3.9934735510889507  9.866945446855537 4.352169781656975  9.866945446855537 4.352169781656975  C 9.646630847050638 4.95796663522306  9.418448438171511 5.5717263231366205  9.182397282234243 6.193465949337784  C 8.946345657305018 6.8152046253200504  8.71816371741785 7.34926470334166  8.497849117612951 7.795641432308134  C 8.497849117612951 7.795641432308134  7.057938754766663 7.4369452017401105  7.057938754766663 7.4369452017401105  C 7.1995696359258075 7.118104952540886  7.341199579101037 6.759407771753966  7.482830460260179 6.36085651003604  C 7.640197897551692 5.962306198537008  7.789705967624206 5.555785450939335  7.93133684878335 5.141292366805226  Z M 3.776825998867597 15.04129616768081  C 4.343349289008193 14.2441950695733  4.80758402630448 13.463030567678043  5.169529507268522 12.697813114402898  C 5.169529507268522 12.697813114402898  6.44420462374907 13.2  6.44420462374907 13.2  C 6.050785561528334 14.060869575545858  5.562947397009366 14.93768049839845  4.9806870817444455 15.830433956331394  C 4.398427000975503 16.70724559184816  3.776828812819341 17.52826001746675  3.1158850134046427 18.293477351964533  C 2.4706777701223133 19.042752685880092  1.8333389221541567 19.664485779326345  1.2038685867481633 20.158688628816858  C 1.0622377055890198 19.951442264915844  0.8733926419851832 19.728256825325147  0.6373413101759317 19.489126386023834  C 0.4170266517470377 19.234053960987467  0.2045778678005471 19.02679946083716  0 18.867379158071504  C 0.645207184658335 18.4528863708808  1.2904164797804776 17.910868862881685  1.9356236058148182 17.241303769431976  C 2.5965675224775056 16.571738557204906  3.2103027087270024 15.838397740897765  3.776825998867597 15.04129616768081  Z " fill-rule="nonzero" fill="rgba(0, 0, 0, 1)" stroke="none" transform="matrix(1 0 0 1 261 643 )" class="fill" />
    <path d="M 13.19527256107128 9.66086791266279  L 13.19527256107128 7.9869471021779015  L 22 7.9869471021779015  L 22 9.66086791266279  L 13.19527256107128 9.66086791266279  Z " stroke-width="0" stroke-dasharray="0" stroke="rgba(121, 121, 121, 1)" fill="none" transform="matrix(1 0 0 1 261 643 )" class="stroke" mask="url(#Clip4691)" />
    <path d="M 0.7789693773833319 4  L 0.7789693773833319 2.4152131772901138  L 11.212449604682416 2.4152131772901138  L 11.212449604682416 4  L 0.7789693773833319 4  Z " stroke-width="0" stroke-dasharray="0" stroke="rgba(121, 121, 121, 1)" fill="none" transform="matrix(1 0 0 1 261 643 )" class="stroke" mask="url(#Clip4691)" />
    <path d="M 0.5193129182555546 13.463035793881971  L 0.5193129182555546 11.884775420083136  L 11.306863313573139 11.884775420083136  L 11.306863313573139 13.463035793881971  L 0.5193129182555546 13.463035793881971  Z " stroke-width="0" stroke-dasharray="0" stroke="rgba(121, 121, 121, 1)" fill="none" transform="matrix(1 0 0 1 261 643 )" class="stroke" mask="url(#Clip4691)" />
    <path d="M 0.44849888465185445 9.397816915278483  L 0.44849888465185445 8  L 11.495705739097215 8  L 11.495705739097215 9.397816915278483  L 0.44849888465185445 9.397816915278483  Z " stroke-width="0" stroke-dasharray="0" stroke="rgba(121, 121, 121, 1)" fill="none" transform="matrix(1 0 0 1 261 643 )" class="stroke" mask="url(#Clip4691)" />
    <path d="M 17.60943987011481 21.78477922095872  L 17.60943987011481 8.656509344970923  L 19 8.656509344970923  L 19 21.78477922095872  L 17.60943987011481 21.78477922095872  Z " stroke-width="0" stroke-dasharray="0" stroke="rgba(121, 121, 121, 1)" fill="none" transform="matrix(1 0 0 1 261 643 )" class="stroke" mask="url(#Clip4691)" />
    <path d="M 5.169529507268522 3.1804358567691864  L 5.169529507268522 0  L 6.892703508400925 0  L 6.892703508400925 3.1804358567691864  L 5.169529507268522 3.1804358567691864  Z " stroke-width="0" stroke-dasharray="0" stroke="rgba(121, 121, 121, 1)" fill="none" transform="matrix(1 0 0 1 261 643 )" class="stroke" mask="url(#Clip4691)" />
    <path d="M 5.169529507268522 21.856509344970924  L 5.169529507268522 9.13478112139651  L 7 9.13478112139651  L 7 21.856509344970924  L 5.169529507268522 21.856509344970924  Z " stroke-width="0" stroke-dasharray="0" stroke="rgba(121, 121, 121, 1)" fill="none" transform="matrix(1 0 0 1 261 643 )" class="stroke" mask="url(#Clip4691)" />
    <path d="M 12.345489150084248 10.23476971876976  C 12.345489150084248 10.23476971876976  12.345489150084248 1.8652112768523221  12.345489150084248 1.8652112768523221  C 12.345489150084248 1.8652112768523221  14.51716953973982 2.5347735196453436  14.51716953973982 2.5347735196453436  C 14.501432983607453 2.710135466661138  14.344054290508968 2.8217282235744126  14.04505597205831 2.869554641041854  C 14.04505597205831 2.869554641041854  14.04505597205831 10.258684827941273  14.04505597205831 10.258684827941273  C 14.04505597205831 11.15143828587422  13.997848179629035 12.107964734785266  13.903427904850911 13.128254672485461  C 13.824744186205157 14.148544372630932  13.659510815807245 15.184771381652826  13.407722165753697 16.23694520174011  C 13.155934453684058 17.273176961856485  12.77825898247505 18.285499789224172  12.274682620351864 19.273905606982552  C 11.771106258228677 20.262311365352254  11.110156361918534 21.171014485007273  10.291844656220368 22  C 10.213160937574612 21.87246375778748  10.095134421622063 21.728978804071776  9.937766984330553 21.569558441917437  C 9.79613610317141 21.410138198540462  9.638772886807512 21.250722112371157  9.465668424391675 21.091301868994183  C 9.308300987100163 20.947823566810754  9.158792917027649 20.84420397787545  9.017162035868505 20.780435856769184  C 9.772526579053284 20.031160582242308  10.370528374866124 19.21810400232199  10.811157574475923 18.341292366805224  C 11.267523799210048 17.464480850065822  11.59799194698174 16.563765983113747  11.802569052670355 15.639128286461625  C 12.022884590459169 14.714490708586869  12.164522037505714 13.797814539731243  12.227468262035188 12.889118784272666  C 12.306151980680943 11.96448120639791  12.345489150084248 11.079697234344712  12.345489150084248 10.23476971876976  Z " stroke-width="0" stroke-dasharray="0" stroke="rgba(121, 121, 121, 1)" fill="none" transform="matrix(1 0 0 1 261 643 )" class="stroke" mask="url(#Clip4691)" />
    <path d="M 18.152359967528703 1.0282584733610451  C 18.98640776036728 0.7413018689941846  19.686695295072685 0.4543471650651159  20.25321881970926 0.1673905606982554  C 20.25321881970926 0.1673905606982554  21.693121678684232 1.4825999371127856  21.693121678684232 1.4825999371127856  C 20.953494160623777 1.8173829589470882  20.111584186614458 2.136229859678584  19.167378624881472 2.4391282864616266  C 18.223173063148487 2.726084890828487  17.247496265118595 2.9891206847104597  16.24034354087222 3.2282508716098786  C 15.248928310742132 3.4514392360931145  14.281106190011664 3.650721043374901  13.336900628278679 3.8260829903906957  C 13.28969002189766 3.6347792209587193  13.211016621074963 3.4036204203768397  13.100858852180556 3.1326056384261616  C 12.990702021270064 2.8456490340593006  12.880546128343486 2.614490233477421  12.770388359449079 2.4391282864616266  C 13.651646758668676 2.2478235668107547  14.556504833175298 2.0325961362372023  15.484973838775915 1.7934659493377838  C 16.4291794005089 1.5543357624383654  17.318311236706208 1.2992732553117237  18.152359967528703 1.0282584733610451  Z " stroke-width="0" stroke-dasharray="0" stroke="rgba(121, 121, 121, 1)" fill="none" transform="matrix(1 0 0 1 261 643 )" class="stroke" mask="url(#Clip4691)" />
    <path d="M 5.759656459127776 14.730430155455812  C 5.759656459127776 14.730430155455812  6.703861082876848 13.893477351964535  6.703861082876848 13.893477351964535  C 6.892702101425053 14.021013831731784  7.168099337612814 14.236226058803  7.530044818576856 14.539124485586044  C 7.907727324665225 14.826081089952904  8.309013257976273 15.144928228239124  8.733905901453705 15.495652834934884  C 9.158798075939178 15.846377441630645  9.544343701182202 16.17318242561514  9.890552626013875 16.476081089952903  C 10.236761081853592 16.76303745676504  10.488554421826716 16.970276872190375  10.645922328110185 17.0978131144029  C 10.645922328110185 17.0978131144029  9.583689312440736 18.436952803491277  9.583689312440736 18.436952803491277  C 9.394848293892531 18.213764439008038  9.135184330893438 17.934782546724854  8.804712431186088 17.6  C 8.47424053147874 17.265217334497784  8.11230630632167 16.91449308413411  7.718887244100934 16.54782641746744  C 7.341205207004522 16.16521769082987  6.971385351078852 15.814493321688833  6.609439870114809 15.495652834934884  C 6.2632309452831345 15.160870288210031  5.979971058932676 14.905792577581053  5.759656459127776 14.730430155455812  Z " stroke-width="0" stroke-dasharray="0" stroke="rgba(121, 121, 121, 1)" fill="none" transform="matrix(1 0 0 1 261 643 )" class="stroke" mask="url(#Clip4691)" />
    <path d="M 2.8090141959601884 6.169566043668604  C 2.63590996804033 5.5159427726350785  2.4313314553758416 4.918114454729844  2.1952800649425956 4.376084890828487  C 2.1952800649425956 4.376084890828487  3.611590752501859 4.041303769431976  3.611590752501859 4.041303769431976  C 3.847642142935105 4.567391510917151  4.06008354025827 5.149274205530619  4.2489245588064755 5.786954703929069  C 4.437765811850659 6.424636152546414  4.563662481837221 6.974626650357456  4.6266094098546295 7.4369452017401105  C 4.6266094098546295 7.4369452017401105  3.1158850134046427 7.843471650651159  3.1158850134046427 7.843471650651159  C 3.084411432147949 7.365210326633426  2.9821186583760255 6.8072465420670545  2.8090141959601884 6.169566043668604  Z " stroke-width="0" stroke-dasharray="0" stroke="rgba(121, 121, 121, 1)" fill="none" transform="matrix(1 0 0 1 261 643 )" class="stroke" mask="url(#Clip4691)" />
    <path d="M 7.93133684878335 5.141292366805226  C 8.072967729942494 4.710858410473831  8.18312362286907 4.328256572923253  8.261807341514828 3.9934735510889507  C 8.261807341514828 3.9934735510889507  9.866945446855537 4.352169781656975  9.866945446855537 4.352169781656975  C 9.646630847050638 4.95796663522306  9.418448438171511 5.5717263231366205  9.182397282234243 6.193465949337784  C 8.946345657305018 6.8152046253200504  8.71816371741785 7.34926470334166  8.497849117612951 7.795641432308134  C 8.497849117612951 7.795641432308134  7.057938754766663 7.4369452017401105  7.057938754766663 7.4369452017401105  C 7.1995696359258075 7.118104952540886  7.341199579101037 6.759407771753966  7.482830460260179 6.36085651003604  C 7.640197897551692 5.962306198537008  7.789705967624206 5.555785450939335  7.93133684878335 5.141292366805226  Z " stroke-width="0" stroke-dasharray="0" stroke="rgba(121, 121, 121, 1)" fill="none" transform="matrix(1 0 0 1 261 643 )" class="stroke" mask="url(#Clip4691)" />
    <path d="M 3.776825998867597 15.04129616768081  C 4.343349289008193 14.2441950695733  4.80758402630448 13.463030567678043  5.169529507268522 12.697813114402898  C 5.169529507268522 12.697813114402898  6.44420462374907 13.2  6.44420462374907 13.2  C 6.050785561528334 14.060869575545858  5.562947397009366 14.93768049839845  4.9806870817444455 15.830433956331394  C 4.398427000975503 16.70724559184816  3.776828812819341 17.52826001746675  3.1158850134046427 18.293477351964533  C 2.4706777701223133 19.042752685880092  1.8333389221541567 19.664485779326345  1.2038685867481633 20.158688628816858  C 1.0622377055890198 19.951442264915844  0.8733926419851832 19.728256825325147  0.6373413101759317 19.489126386023834  C 0.4170266517470377 19.234053960987467  0.2045778678005471 19.02679946083716  0 18.867379158071504  C 0.645207184658335 18.4528863708808  1.2904164797804776 17.910868862881685  1.9356236058148182 17.241303769431976  C 2.5965675224775056 16.571738557204906  3.2103027087270024 15.838397740897765  3.776825998867597 15.04129616768081  Z " stroke-width="0" stroke-dasharray="0" stroke="rgba(121, 121, 121, 1)" fill="none" transform="matrix(1 0 0 1 261 643 )" class="stroke" mask="url(#Clip4691)" />
  </g>
</svg>