<?xml version="1.0" encoding="utf-8"?>
<svg version="1.1" xmlns:xlink="http://www.w3.org/1999/xlink" width="10px" height="12px" xmlns="http://www.w3.org/2000/svg">
  <defs>
    <pattern id="BGPattern" patternUnits="userSpaceOnUse" alignment="0 0" imageRepeat="None" />
    <mask fill="white" id="Clip4744">
      <path d="M 10 5.666664353964529  C 10 5.666664353964529  10 6.4523784144156195  10 6.4523784144156195  C 10 6.4523784144156195  1.7821464317413556 6.4523784144156195  1.7821464317413556 6.4523784144156195  C 1.7821464317413556 9.023807087212628  3.0445045803196544 10.49999905389458  5.371241163547548 10.49999905389458  C 6.7821348747159425 10.49999905389458  7.59897608689152 10.095235523483282  8.564324337934899 9.166664038596055  C 8.564324337934899 9.166664038596055  9.777223827419284 10.190474989072483  9.777223827419284 10.190474989072483  C 8.539597713223676 11.380951042513562  7.40097448838278 12  5.321763324709333 12  C 2.103935575337249 12  0 10.142857030225546  0 6  C 0 2.2142854664961993  1.905903485952952 0  4.999968525547812 0  C 8.143538206444079 0  10 2.1904741218091806  10 5.666664353964529  Z M 1.7821464317413556 5.166666561543843  C 1.7821464317413556 5.166666561543843  8.21779061935427 5.166666561543843  8.21779061935427 5.166666561543843  C 8.16828548626455 4.2142858607067915  8.118795844506764 3.857140052616076  7.846517981354535 3.2142834166011225  C 7.376220323525894 2.1428545072777583  6.287099035150669 1.452381568100353  4.999968525547812 1.452381568100353  C 3.712837647103721 1.452381568100353  2.623717096410968 2.1428545072777583  2.153419069741091 3.2142834166011225  C 1.8811415754300984 3.857140052616076  1.8316515648310765 4.2142858607067915  1.7821464317413556 5.166666561543843  Z " fill-rule="evenodd" />
    </mask>
  </defs>
  <g transform="matrix(1 0 0 1 -803 -527 )">
    <path d="M 10 5.666664353964529  C 10 5.666664353964529  10 6.4523784144156195  10 6.4523784144156195  C 10 6.4523784144156195  1.7821464317413556 6.4523784144156195  1.7821464317413556 6.4523784144156195  C 1.7821464317413556 9.023807087212628  3.0445045803196544 10.49999905389458  5.371241163547548 10.49999905389458  C 6.7821348747159425 10.49999905389458  7.59897608689152 10.095235523483282  8.564324337934899 9.166664038596055  C 8.564324337934899 9.166664038596055  9.777223827419284 10.190474989072483  9.777223827419284 10.190474989072483  C 8.539597713223676 11.380951042513562  7.40097448838278 12  5.321763324709333 12  C 2.103935575337249 12  0 10.142857030225546  0 6  C 0 2.2142854664961993  1.905903485952952 0  4.999968525547812 0  C 8.143538206444079 0  10 2.1904741218091806  10 5.666664353964529  Z M 1.7821464317413556 5.166666561543843  C 1.7821464317413556 5.166666561543843  8.21779061935427 5.166666561543843  8.21779061935427 5.166666561543843  C 8.16828548626455 4.2142858607067915  8.118795844506764 3.857140052616076  7.846517981354535 3.2142834166011225  C 7.376220323525894 2.1428545072777583  6.287099035150669 1.452381568100353  4.999968525547812 1.452381568100353  C 3.712837647103721 1.452381568100353  2.623717096410968 2.1428545072777583  2.153419069741091 3.2142834166011225  C 1.8811415754300984 3.857140052616076  1.8316515648310765 4.2142858607067915  1.7821464317413556 5.166666561543843  Z " fill-rule="nonzero" fill="rgba(0, 0, 0, 1)" stroke="none" transform="matrix(1 0 0 1 803 527 )" class="fill" />
    <path d="M 10 5.666664353964529  C 10 5.666664353964529  10 6.4523784144156195  10 6.4523784144156195  C 10 6.4523784144156195  1.7821464317413556 6.4523784144156195  1.7821464317413556 6.4523784144156195  C 1.7821464317413556 9.023807087212628  3.0445045803196544 10.49999905389458  5.371241163547548 10.49999905389458  C 6.7821348747159425 10.49999905389458  7.59897608689152 10.095235523483282  8.564324337934899 9.166664038596055  C 8.564324337934899 9.166664038596055  9.777223827419284 10.190474989072483  9.777223827419284 10.190474989072483  C 8.539597713223676 11.380951042513562  7.40097448838278 12  5.321763324709333 12  C 2.103935575337249 12  0 10.142857030225546  0 6  C 0 2.2142854664961993  1.905903485952952 0  4.999968525547812 0  C 8.143538206444079 0  10 2.1904741218091806  10 5.666664353964529  Z " stroke-width="0" stroke-dasharray="0" stroke="rgba(121, 121, 121, 1)" fill="none" transform="matrix(1 0 0 1 803 527 )" class="stroke" mask="url(#Clip4744)" />
    <path d="M 1.7821464317413556 5.166666561543843  C 1.7821464317413556 5.166666561543843  8.21779061935427 5.166666561543843  8.21779061935427 5.166666561543843  C 8.16828548626455 4.2142858607067915  8.118795844506764 3.857140052616076  7.846517981354535 3.2142834166011225  C 7.376220323525894 2.1428545072777583  6.287099035150669 1.452381568100353  4.999968525547812 1.452381568100353  C 3.712837647103721 1.452381568100353  2.623717096410968 2.1428545072777583  2.153419069741091 3.2142834166011225  C 1.8811415754300984 3.857140052616076  1.8316515648310765 4.2142858607067915  1.7821464317413556 5.166666561543843  Z " stroke-width="0" stroke-dasharray="0" stroke="rgba(121, 121, 121, 1)" fill="none" transform="matrix(1 0 0 1 803 527 )" class="stroke" mask="url(#Clip4744)" />
  </g>
</svg>