<?xml version="1.0" encoding="utf-8"?>
<svg version="1.1" xmlns:xlink="http://www.w3.org/1999/xlink" width="20px" height="21px" xmlns="http://www.w3.org/2000/svg">
  <defs>
    <pattern id="BGPattern" patternUnits="userSpaceOnUse" alignment="0 0" imageRepeat="None" />
    <mask fill="white" id="Clip4700">
      <path d="M 3.87412406556731 6  L 3.87412406556731 4.248273886430204  L 16.174337122378354 4.248273886430204  L 16.174337122378354 6  L 3.87412406556731 6  Z M 5.108991490042981 17.78965457266631  L 5.108991490042981 8.351723044273863  L 6.779701720464538 8.351723044273863  L 6.779701720464538 17.78965457266631  L 5.108991490042981 17.78965457266631  Z M 6.0048769073510755 9.89654572666312  L 6.0048769073510755 8.351723044273863  L 14.866870281653714 8.351723044273863  L 14.866870281653714 16.05172713666844  L 6.0048769073510755 16.05172713666844  L 6.0048769073510755 14.482764441768149  L 13.171960245815836 14.482764441768149  L 13.171960245815836 9.89654572666312  L 6.0048769073510755 9.89654572666312  Z M 0 21  L 0 0  L 19.322035985664847 0  L 19.322035985664847 2  L 2 2  L 2 21  L 0 21  Z M 18.20822916538381 18.634478278154212  C 18.20822916538381 18.634478278154212  18.20822916538381 0  18.20822916538381 0  L 20 0  C 20 0  20 18.65861829066525  20 18.65861829066525  C 20 19.205744629234534  19.919299344819517 19.63218445331272  19.757878791610736 19.93793152839245  C 19.61260010129435 20.259770526396128  19.35432163573443 20.49310295918951  18.983053978497274 20.637930505293806  C 18.627928184152513 20.782758111345284  18.119490772669614 20.87125610410796  17.45766573479969 20.90343994995586  C 16.811983521964557 20.9517157786749  15.972562393009767 20.975859987488967  14.939469697902684 20.975859987488967  C 14.923327835010284 20.81494051846072  14.874919564896118 20.621833007281538  14.794209288291729 20.39654572666312  C 14.729640874579736 20.18735036896865  14.648941181541645 19.97011411534944  14.552088079902461 19.744826774783835  C 14.471377803298072 19.535631417089366  14.382557628480646 19.35862010007115  14.285705488983854 19.21379253898006  C 15.044382666350572 19.229884491877602  15.73851740784985 19.237932551491095  16.368058719934975 19.237932551491095  C 16.997599069877708 19.237932551491095  17.417278845798595 19.237932551491095  17.62712594982697 19.237932551491095  C 17.853114916747742 19.221840598593552  18.006458284584784 19.165519512791978  18.087168561189177 19.068967810393513  C 18.16787883779357 18.988508060892592  18.20822916538381 18.84367363584868  18.20822916538381 18.634478278154212  Z " fill-rule="evenodd" />
    </mask>
  </defs>
  <g transform="matrix(1 0 0 1 -847 -613 )">
    <path d="M 3.87412406556731 6  L 3.87412406556731 4.248273886430204  L 16.174337122378354 4.248273886430204  L 16.174337122378354 6  L 3.87412406556731 6  Z M 5.108991490042981 17.78965457266631  L 5.108991490042981 8.351723044273863  L 6.779701720464538 8.351723044273863  L 6.779701720464538 17.78965457266631  L 5.108991490042981 17.78965457266631  Z M 6.0048769073510755 9.89654572666312  L 6.0048769073510755 8.351723044273863  L 14.866870281653714 8.351723044273863  L 14.866870281653714 16.05172713666844  L 6.0048769073510755 16.05172713666844  L 6.0048769073510755 14.482764441768149  L 13.171960245815836 14.482764441768149  L 13.171960245815836 9.89654572666312  L 6.0048769073510755 9.89654572666312  Z M 0 21  L 0 0  L 19.322035985664847 0  L 19.322035985664847 2  L 2 2  L 2 21  L 0 21  Z M 18.20822916538381 18.634478278154212  C 18.20822916538381 18.634478278154212  18.20822916538381 0  18.20822916538381 0  L 20 0  C 20 0  20 18.65861829066525  20 18.65861829066525  C 20 19.205744629234534  19.919299344819517 19.63218445331272  19.757878791610736 19.93793152839245  C 19.61260010129435 20.259770526396128  19.35432163573443 20.49310295918951  18.983053978497274 20.637930505293806  C 18.627928184152513 20.782758111345284  18.119490772669614 20.87125610410796  17.45766573479969 20.90343994995586  C 16.811983521964557 20.9517157786749  15.972562393009767 20.975859987488967  14.939469697902684 20.975859987488967  C 14.923327835010284 20.81494051846072  14.874919564896118 20.621833007281538  14.794209288291729 20.39654572666312  C 14.729640874579736 20.18735036896865  14.648941181541645 19.97011411534944  14.552088079902461 19.744826774783835  C 14.471377803298072 19.535631417089366  14.382557628480646 19.35862010007115  14.285705488983854 19.21379253898006  C 15.044382666350572 19.229884491877602  15.73851740784985 19.237932551491095  16.368058719934975 19.237932551491095  C 16.997599069877708 19.237932551491095  17.417278845798595 19.237932551491095  17.62712594982697 19.237932551491095  C 17.853114916747742 19.221840598593552  18.006458284584784 19.165519512791978  18.087168561189177 19.068967810393513  C 18.16787883779357 18.988508060892592  18.20822916538381 18.84367363584868  18.20822916538381 18.634478278154212  Z " fill-rule="nonzero" fill="rgba(0, 0, 0, 1)" stroke="none" transform="matrix(1 0 0 1 847 613 )" class="fill" />
    <path d="M 3.87412406556731 6  L 3.87412406556731 4.248273886430204  L 16.174337122378354 4.248273886430204  L 16.174337122378354 6  L 3.87412406556731 6  Z " stroke-width="0" stroke-dasharray="0" stroke="rgba(121, 121, 121, 1)" fill="none" transform="matrix(1 0 0 1 847 613 )" class="stroke" mask="url(#Clip4700)" />
    <path d="M 5.108991490042981 17.78965457266631  L 5.108991490042981 8.351723044273863  L 6.779701720464538 8.351723044273863  L 6.779701720464538 17.78965457266631  L 5.108991490042981 17.78965457266631  Z " stroke-width="0" stroke-dasharray="0" stroke="rgba(121, 121, 121, 1)" fill="none" transform="matrix(1 0 0 1 847 613 )" class="stroke" mask="url(#Clip4700)" />
    <path d="M 6.0048769073510755 9.89654572666312  L 6.0048769073510755 8.351723044273863  L 14.866870281653714 8.351723044273863  L 14.866870281653714 16.05172713666844  L 6.0048769073510755 16.05172713666844  L 6.0048769073510755 14.482764441768149  L 13.171960245815836 14.482764441768149  L 13.171960245815836 9.89654572666312  L 6.0048769073510755 9.89654572666312  Z " stroke-width="0" stroke-dasharray="0" stroke="rgba(121, 121, 121, 1)" fill="none" transform="matrix(1 0 0 1 847 613 )" class="stroke" mask="url(#Clip4700)" />
    <path d="M 0 21  L 0 0  L 19.322035985664847 0  L 19.322035985664847 2  L 2 2  L 2 21  L 0 21  Z " stroke-width="0" stroke-dasharray="0" stroke="rgba(121, 121, 121, 1)" fill="none" transform="matrix(1 0 0 1 847 613 )" class="stroke" mask="url(#Clip4700)" />
    <path d="M 18.20822916538381 18.634478278154212  C 18.20822916538381 18.634478278154212  18.20822916538381 0  18.20822916538381 0  L 20 0  C 20 0  20 18.65861829066525  20 18.65861829066525  C 20 19.205744629234534  19.919299344819517 19.63218445331272  19.757878791610736 19.93793152839245  C 19.61260010129435 20.259770526396128  19.35432163573443 20.49310295918951  18.983053978497274 20.637930505293806  C 18.627928184152513 20.782758111345284  18.119490772669614 20.87125610410796  17.45766573479969 20.90343994995586  C 16.811983521964557 20.9517157786749  15.972562393009767 20.975859987488967  14.939469697902684 20.975859987488967  C 14.923327835010284 20.81494051846072  14.874919564896118 20.621833007281538  14.794209288291729 20.39654572666312  C 14.729640874579736 20.18735036896865  14.648941181541645 19.97011411534944  14.552088079902461 19.744826774783835  C 14.471377803298072 19.535631417089366  14.382557628480646 19.35862010007115  14.285705488983854 19.21379253898006  C 15.044382666350572 19.229884491877602  15.73851740784985 19.237932551491095  16.368058719934975 19.237932551491095  C 16.997599069877708 19.237932551491095  17.417278845798595 19.237932551491095  17.62712594982697 19.237932551491095  C 17.853114916747742 19.221840598593552  18.006458284584784 19.165519512791978  18.087168561189177 19.068967810393513  C 18.16787883779357 18.988508060892592  18.20822916538381 18.84367363584868  18.20822916538381 18.634478278154212  Z " stroke-width="0" stroke-dasharray="0" stroke="rgba(121, 121, 121, 1)" fill="none" transform="matrix(1 0 0 1 847 613 )" class="stroke" mask="url(#Clip4700)" />
  </g>
</svg>