<?xml version="1.0" encoding="utf-8"?>
<svg version="1.1" xmlns:xlink="http://www.w3.org/1999/xlink" width="8px" height="12px" xmlns="http://www.w3.org/2000/svg">
  <defs>
    <pattern id="BGPattern" patternUnits="userSpaceOnUse" alignment="0 0" imageRepeat="None" />
    <mask fill="white" id="Clip4735">
      <path d="M 5.121948288327754 0  C 6.268290401803454 0  7.1463409019982596 0.2650641719217681  8 1.1084373342321105  C 8 1.1084373342321105  6.707312865502744 2.409639384822795  6.707312865502744 2.409639384822795  C 6.0487762624079515 1.759037641399411  5.5609777785961985 1.5421713510956718  4.634147381561119 1.5421713510956718  C 2.878048561830901 1.5421713510956718  1.7560956698888737 2.915664479089069  1.7560956698888737 4.722892581450083  C 1.7560956698888737 4.722892581450083  1.7560956698888737 12  1.7560956698888737 12  L 0 12  L 0 0.14458311230948062  L 1.7560956698888737 0.14458311230948062  C 1.7560956698888737 0.14458311230948062  1.7560956698888737 1.5903606151772052  1.7560956698888737 1.5903606151772052  C 2.4146329998701295 0.6024088887016437  3.7317034196616006 0  5.121948288327754 0  Z " fill-rule="evenodd" />
    </mask>
  </defs>
  <g transform="matrix(1 0 0 1 -309 -558 )">
    <path d="M 5.121948288327754 0  C 6.268290401803454 0  7.1463409019982596 0.2650641719217681  8 1.1084373342321105  C 8 1.1084373342321105  6.707312865502744 2.409639384822795  6.707312865502744 2.409639384822795  C 6.0487762624079515 1.759037641399411  5.5609777785961985 1.5421713510956718  4.634147381561119 1.5421713510956718  C 2.878048561830901 1.5421713510956718  1.7560956698888737 2.915664479089069  1.7560956698888737 4.722892581450083  C 1.7560956698888737 4.722892581450083  1.7560956698888737 12  1.7560956698888737 12  L 0 12  L 0 0.14458311230948062  L 1.7560956698888737 0.14458311230948062  C 1.7560956698888737 0.14458311230948062  1.7560956698888737 1.5903606151772052  1.7560956698888737 1.5903606151772052  C 2.4146329998701295 0.6024088887016437  3.7317034196616006 0  5.121948288327754 0  Z " fill-rule="nonzero" fill="rgba(0, 0, 0, 1)" stroke="none" transform="matrix(1 0 0 1 309 558 )" class="fill" />
    <path d="M 5.121948288327754 0  C 6.268290401803454 0  7.1463409019982596 0.2650641719217681  8 1.1084373342321105  C 8 1.1084373342321105  6.707312865502744 2.409639384822795  6.707312865502744 2.409639384822795  C 6.0487762624079515 1.759037641399411  5.5609777785961985 1.5421713510956718  4.634147381561119 1.5421713510956718  C 2.878048561830901 1.5421713510956718  1.7560956698888737 2.915664479089069  1.7560956698888737 4.722892581450083  C 1.7560956698888737 4.722892581450083  1.7560956698888737 12  1.7560956698888737 12  L 0 12  L 0 0.14458311230948062  L 1.7560956698888737 0.14458311230948062  C 1.7560956698888737 0.14458311230948062  1.7560956698888737 1.5903606151772052  1.7560956698888737 1.5903606151772052  C 2.4146329998701295 0.6024088887016437  3.7317034196616006 0  5.121948288327754 0  Z " stroke-width="0" stroke-dasharray="0" stroke="rgba(121, 121, 121, 1)" fill="none" transform="matrix(1 0 0 1 309 558 )" class="stroke" mask="url(#Clip4735)" />
  </g>
</svg>