<?xml version="1.0" encoding="utf-8"?>
<svg version="1.1" xmlns:xlink="http://www.w3.org/1999/xlink" width="20px" height="20px" xmlns="http://www.w3.org/2000/svg">
  <defs>
    <pattern id="BGPattern" patternUnits="userSpaceOnUse" alignment="0 0" imageRepeat="None" />
    <mask fill="white" id="Clip4671">
      <path d="M 5.110132696990714 12.25877181724968  L 5.110132696990714 0  L 7 0  L 7 12.25877181724968  L 5.110132696990714 12.25877181724968  Z M 13 12.25877181724968  L 13 0  L 14.801748923727494 0  L 14.801748923727494 12.25877181724968  L 13 12.25877181724968  Z M 0 12.850878869097357  L 0 11  L 20 11  L 20 12.850878869097357  L 0 12.850878869097357  Z M 0.9030911707461647 6  L 0.9030911707461647 4.4517551239558015  L 19.207026249133023 4.4517551239558015  L 19.207026249133023 6  L 0.9030911707461647 6  Z M 14.074894511544914 16.622806392127853  C 13.31131225231983 16.008771341933514  12.57708645479732 15.445908414274923  11.872240571730622 14.934212440088775  C 11.872240571730622 14.934212440088775  13.325979950318834 14.078947543537534  13.325979950318834 14.078947543537534  C 14.001456780001192 14.561403819916395  14.728337927128942 15.102339610738875  15.506604295312677 15.701754886297719  C 16.2995556079221 16.286550208977506  17.048441822945154 16.87134671994771  17.753286870544812 17.456142102042016  C 18.47281686257016 18.026317590671788  19.067542640327908 18.5307012712521  19.537439617216695 18.96929780782283  C 19.537439617216695 18.96929780782283  17.97355226452624 19.978070813362926  17.97355226452624 19.978070813362926  C 17.533024341021793 19.539474247084932  16.967678835777164 19.020468147922955  16.277517897136153 18.421052931778632  C 15.587356063351889 17.836257549684326  14.853160879728648 17.23684156115123  14.074894511544914 16.622806392127853  Z M 4.603513124566511 15.811404622012423  C 5.249621796007785 15.226609299332637  5.778270336652158 14.66374351977705  6.189430072077412 14.12280781807635  C 6.189430072077412 14.12280781807635  7.90749403428795 14.780702429835253  7.90749403428795 14.780702429835253  C 7.378860263507258 15.409357373494128  6.762097968487902 16.045322798615956  6.057252503154723 16.688597754568406  C 5.367091564513714 17.331872651106337  4.640241389342535 17.938597992226487  3.876658712383932 18.508773480856263  C 3.1130762144539808 19.078948969486035  2.3568141383747294 19.576023386601065  1.6079159881082963 20  C 1.5051260542519829 19.86842110735548  1.372971453213273 19.72953290668479  1.2114443897863343 19.583334046307584  C 1.0499173263593955 19.45175509424854  0.8884121342659501 19.312866952992373  0.7268849664056318 19.166668092615165  C 0.5800422208041032 19.035089140556124  0.4405422756346112 18.925438201697375  0.3083837732632216 18.83771888547105  C 1.027913466907485 18.442982029293926  1.762109068264245 17.98245791027818  2.511007158854461 17.456142102042016  C 3.2599055478257615 16.929826234391328  3.957405109563625 16.38158017005672  4.603513124566511 15.811404622012423  Z " fill-rule="evenodd" />
    </mask>
  </defs>
  <g transform="matrix(1 0 0 1 -1806 -72 )">
    <path d="M 5.110132696990714 12.25877181724968  L 5.110132696990714 0  L 7 0  L 7 12.25877181724968  L 5.110132696990714 12.25877181724968  Z M 13 12.25877181724968  L 13 0  L 14.801748923727494 0  L 14.801748923727494 12.25877181724968  L 13 12.25877181724968  Z M 0 12.850878869097357  L 0 11  L 20 11  L 20 12.850878869097357  L 0 12.850878869097357  Z M 0.9030911707461647 6  L 0.9030911707461647 4.4517551239558015  L 19.207026249133023 4.4517551239558015  L 19.207026249133023 6  L 0.9030911707461647 6  Z M 14.074894511544914 16.622806392127853  C 13.31131225231983 16.008771341933514  12.57708645479732 15.445908414274923  11.872240571730622 14.934212440088775  C 11.872240571730622 14.934212440088775  13.325979950318834 14.078947543537534  13.325979950318834 14.078947543537534  C 14.001456780001192 14.561403819916395  14.728337927128942 15.102339610738875  15.506604295312677 15.701754886297719  C 16.2995556079221 16.286550208977506  17.048441822945154 16.87134671994771  17.753286870544812 17.456142102042016  C 18.47281686257016 18.026317590671788  19.067542640327908 18.5307012712521  19.537439617216695 18.96929780782283  C 19.537439617216695 18.96929780782283  17.97355226452624 19.978070813362926  17.97355226452624 19.978070813362926  C 17.533024341021793 19.539474247084932  16.967678835777164 19.020468147922955  16.277517897136153 18.421052931778632  C 15.587356063351889 17.836257549684326  14.853160879728648 17.23684156115123  14.074894511544914 16.622806392127853  Z M 4.603513124566511 15.811404622012423  C 5.249621796007785 15.226609299332637  5.778270336652158 14.66374351977705  6.189430072077412 14.12280781807635  C 6.189430072077412 14.12280781807635  7.90749403428795 14.780702429835253  7.90749403428795 14.780702429835253  C 7.378860263507258 15.409357373494128  6.762097968487902 16.045322798615956  6.057252503154723 16.688597754568406  C 5.367091564513714 17.331872651106337  4.640241389342535 17.938597992226487  3.876658712383932 18.508773480856263  C 3.1130762144539808 19.078948969486035  2.3568141383747294 19.576023386601065  1.6079159881082963 20  C 1.5051260542519829 19.86842110735548  1.372971453213273 19.72953290668479  1.2114443897863343 19.583334046307584  C 1.0499173263593955 19.45175509424854  0.8884121342659501 19.312866952992373  0.7268849664056318 19.166668092615165  C 0.5800422208041032 19.035089140556124  0.4405422756346112 18.925438201697375  0.3083837732632216 18.83771888547105  C 1.027913466907485 18.442982029293926  1.762109068264245 17.98245791027818  2.511007158854461 17.456142102042016  C 3.2599055478257615 16.929826234391328  3.957405109563625 16.38158017005672  4.603513124566511 15.811404622012423  Z " fill-rule="nonzero" fill="rgba(212, 208, 208, 0.5019607843137255)" stroke="none" transform="matrix(1 0 0 1 1806 72 )" class="fill" />
    <path d="M 5.110132696990714 12.25877181724968  L 5.110132696990714 0  L 7 0  L 7 12.25877181724968  L 5.110132696990714 12.25877181724968  Z " stroke-width="0" stroke-dasharray="0" stroke="rgba(121, 121, 121, 1)" fill="none" transform="matrix(1 0 0 1 1806 72 )" class="stroke" mask="url(#Clip4671)" />
    <path d="M 13 12.25877181724968  L 13 0  L 14.801748923727494 0  L 14.801748923727494 12.25877181724968  L 13 12.25877181724968  Z " stroke-width="0" stroke-dasharray="0" stroke="rgba(121, 121, 121, 1)" fill="none" transform="matrix(1 0 0 1 1806 72 )" class="stroke" mask="url(#Clip4671)" />
    <path d="M 0 12.850878869097357  L 0 11  L 20 11  L 20 12.850878869097357  L 0 12.850878869097357  Z " stroke-width="0" stroke-dasharray="0" stroke="rgba(121, 121, 121, 1)" fill="none" transform="matrix(1 0 0 1 1806 72 )" class="stroke" mask="url(#Clip4671)" />
    <path d="M 0.9030911707461647 6  L 0.9030911707461647 4.4517551239558015  L 19.207026249133023 4.4517551239558015  L 19.207026249133023 6  L 0.9030911707461647 6  Z " stroke-width="0" stroke-dasharray="0" stroke="rgba(121, 121, 121, 1)" fill="none" transform="matrix(1 0 0 1 1806 72 )" class="stroke" mask="url(#Clip4671)" />
    <path d="M 14.074894511544914 16.622806392127853  C 13.31131225231983 16.008771341933514  12.57708645479732 15.445908414274923  11.872240571730622 14.934212440088775  C 11.872240571730622 14.934212440088775  13.325979950318834 14.078947543537534  13.325979950318834 14.078947543537534  C 14.001456780001192 14.561403819916395  14.728337927128942 15.102339610738875  15.506604295312677 15.701754886297719  C 16.2995556079221 16.286550208977506  17.048441822945154 16.87134671994771  17.753286870544812 17.456142102042016  C 18.47281686257016 18.026317590671788  19.067542640327908 18.5307012712521  19.537439617216695 18.96929780782283  C 19.537439617216695 18.96929780782283  17.97355226452624 19.978070813362926  17.97355226452624 19.978070813362926  C 17.533024341021793 19.539474247084932  16.967678835777164 19.020468147922955  16.277517897136153 18.421052931778632  C 15.587356063351889 17.836257549684326  14.853160879728648 17.23684156115123  14.074894511544914 16.622806392127853  Z " stroke-width="0" stroke-dasharray="0" stroke="rgba(121, 121, 121, 1)" fill="none" transform="matrix(1 0 0 1 1806 72 )" class="stroke" mask="url(#Clip4671)" />
    <path d="M 4.603513124566511 15.811404622012423  C 5.249621796007785 15.226609299332637  5.778270336652158 14.66374351977705  6.189430072077412 14.12280781807635  C 6.189430072077412 14.12280781807635  7.90749403428795 14.780702429835253  7.90749403428795 14.780702429835253  C 7.378860263507258 15.409357373494128  6.762097968487902 16.045322798615956  6.057252503154723 16.688597754568406  C 5.367091564513714 17.331872651106337  4.640241389342535 17.938597992226487  3.876658712383932 18.508773480856263  C 3.1130762144539808 19.078948969486035  2.3568141383747294 19.576023386601065  1.6079159881082963 20  C 1.5051260542519829 19.86842110735548  1.372971453213273 19.72953290668479  1.2114443897863343 19.583334046307584  C 1.0499173263593955 19.45175509424854  0.8884121342659501 19.312866952992373  0.7268849664056318 19.166668092615165  C 0.5800422208041032 19.035089140556124  0.4405422756346112 18.925438201697375  0.3083837732632216 18.83771888547105  C 1.027913466907485 18.442982029293926  1.762109068264245 17.98245791027818  2.511007158854461 17.456142102042016  C 3.2599055478257615 16.929826234391328  3.957405109563625 16.38158017005672  4.603513124566511 15.811404622012423  Z " stroke-width="0" stroke-dasharray="0" stroke="rgba(121, 121, 121, 1)" fill="none" transform="matrix(1 0 0 1 1806 72 )" class="stroke" mask="url(#Clip4671)" />
  </g>
</svg>