<?xml version="1.0" encoding="utf-8"?>
<svg version="1.1" xmlns:xlink="http://www.w3.org/1999/xlink" width="9px" height="12px" xmlns="http://www.w3.org/2000/svg">
  <defs>
    <pattern id="BGPattern" patternUnits="userSpaceOnUse" alignment="0 0" imageRepeat="None" />
    <mask fill="white" id="Clip4733">
      <path d="M 7.839465006048296 9.142860026226042  C 7.839465006048296 9.142860026226042  9 10.261905948290924  9 10.261905948290924  C 7.792106659985377 11.571429737165607  6.77368599618698 12  5.163161778115374 12  C 2.2263227092183393 12  0 10.000003626737444  0 6.00000378442168  C 0 2.000003469053207  2.2263227092183393 0  5.163161778115374 0  C 6.77368599618698 0  7.792106659985377 0.42857771341457646  9 1.7381016205524373  C 9 1.7381016205524373  7.839465006048296 2.833335961403945  7.839465006048296 2.833335961403945  C 6.963150202279112 1.857145335038005  6.276318191818823 1.523812527318794  5.163161778115374 1.523812527318794  C 4.026320779912296 1.523812527318794  3.078945870051147 1.9761951992088036  2.463157260715857 2.8571475426173185  C 1.9184209931921115 3.6190523871185856  1.7052731437252484 4.523812882108327  1.7052731437252484 6.00000378442168  C 1.7052731437252484 7.47619397715597  1.9184209931921115 8.380955181724776  2.463157260715857 9.142860026226042  C 3.078945870051147 10.023812369634557  4.026320779912296 10.476195041524567  5.163161778115374 10.476195041524567  C 6.276318191818823 10.476195041524567  6.963150202279112 10.119050475197216  7.839465006048296 9.142860026226042  Z " fill-rule="evenodd" />
    </mask>
  </defs>
  <g transform="matrix(1 0 0 1 -357 -558 )">
    <path d="M 7.839465006048296 9.142860026226042  C 7.839465006048296 9.142860026226042  9 10.261905948290924  9 10.261905948290924  C 7.792106659985377 11.571429737165607  6.77368599618698 12  5.163161778115374 12  C 2.2263227092183393 12  0 10.000003626737444  0 6.00000378442168  C 0 2.000003469053207  2.2263227092183393 0  5.163161778115374 0  C 6.77368599618698 0  7.792106659985377 0.42857771341457646  9 1.7381016205524373  C 9 1.7381016205524373  7.839465006048296 2.833335961403945  7.839465006048296 2.833335961403945  C 6.963150202279112 1.857145335038005  6.276318191818823 1.523812527318794  5.163161778115374 1.523812527318794  C 4.026320779912296 1.523812527318794  3.078945870051147 1.9761951992088036  2.463157260715857 2.8571475426173185  C 1.9184209931921115 3.6190523871185856  1.7052731437252484 4.523812882108327  1.7052731437252484 6.00000378442168  C 1.7052731437252484 7.47619397715597  1.9184209931921115 8.380955181724776  2.463157260715857 9.142860026226042  C 3.078945870051147 10.023812369634557  4.026320779912296 10.476195041524567  5.163161778115374 10.476195041524567  C 6.276318191818823 10.476195041524567  6.963150202279112 10.119050475197216  7.839465006048296 9.142860026226042  Z " fill-rule="nonzero" fill="rgba(0, 0, 0, 1)" stroke="none" transform="matrix(1 0 0 1 357 558 )" class="fill" />
    <path d="M 7.839465006048296 9.142860026226042  C 7.839465006048296 9.142860026226042  9 10.261905948290924  9 10.261905948290924  C 7.792106659985377 11.571429737165607  6.77368599618698 12  5.163161778115374 12  C 2.2263227092183393 12  0 10.000003626737444  0 6.00000378442168  C 0 2.000003469053207  2.2263227092183393 0  5.163161778115374 0  C 6.77368599618698 0  7.792106659985377 0.42857771341457646  9 1.7381016205524373  C 9 1.7381016205524373  7.839465006048296 2.833335961403945  7.839465006048296 2.833335961403945  C 6.963150202279112 1.857145335038005  6.276318191818823 1.523812527318794  5.163161778115374 1.523812527318794  C 4.026320779912296 1.523812527318794  3.078945870051147 1.9761951992088036  2.463157260715857 2.8571475426173185  C 1.9184209931921115 3.6190523871185856  1.7052731437252484 4.523812882108327  1.7052731437252484 6.00000378442168  C 1.7052731437252484 7.47619397715597  1.9184209931921115 8.380955181724776  2.463157260715857 9.142860026226042  C 3.078945870051147 10.023812369634557  4.026320779912296 10.476195041524567  5.163161778115374 10.476195041524567  C 6.276318191818823 10.476195041524567  6.963150202279112 10.119050475197216  7.839465006048296 9.142860026226042  Z " stroke-width="0" stroke-dasharray="0" stroke="rgba(121, 121, 121, 1)" fill="none" transform="matrix(1 0 0 1 357 558 )" class="stroke" mask="url(#Clip4733)" />
  </g>
</svg>