<?xml version="1.0" encoding="utf-8"?>
<svg version="1.1" xmlns:xlink="http://www.w3.org/1999/xlink" width="42px" height="54px" xmlns="http://www.w3.org/2000/svg">
  <defs>
    <pattern id="BGPattern" patternUnits="userSpaceOnUse" alignment="0 0" imageRepeat="None" />
    <mask fill="white" id="Clip4632">
      <path d="M 34 21  C 34 21  34 27.06629468104357  34 27.06629468104357  C 34 33.674029691671144  32.78342439034903 37.54972290430015  29.64594715460296 40.85358993623456  C 26.124290356936317 44.41160062242389  21.898298001594846 46  16.775887940602807 46  C 11.909598859721907 46  7.811669856805209 44.348062223618484  4.482103794221921 41.04419519168407  C 2.49717001485289 39.07458198955338  1.2806001299403371 36.78728957463859  0.7683591238411334 34.24585397884826  C 0.25611811774192966 31.70441743629919  0 27.955799127763527  0 23  C 0 18.044198978719002  0.25611811774192966 14.295579723424606  0.7683591238411334 11.754142234116806  C 1.2806001299403371 9.149173446694107  2.49717001485289 6.925415170170416  4.482103794221921 4.955801021280996  C 7.811669856805209 1.651934936105311  11.909598859721907 0  16.775887940602807 0  C 27.14876664439631 0  32.719387466459764 6.607735957386306  33.93595925961846 14.486188765909045  C 33.93595925961846 14.486188765909045  24.971751671174616 14.486188765909045  24.971751671174616 14.486188765909045  C 23.883238459825357 10.10221108504643  21.19396626041229 7.87845280852274  16.775887940602807 7.87845280852274  C 14.40677364519014 7.87845280852274  12.485871064971963 8.704420276575394  11.077208536729922 10.292816340495934  C 9.41242598249981 12.389504446719958  8.900182114031402 14.0414374893078  8.900182114031402 23  C 8.900182114031402 31.89502647878363  9.284365492444243 33.67403347870608  11.077208536729922 35.7707187446539  C 12.421841774067248 37.35911575533317  14.342744354285426 38.12154340444232  16.775887940602807 38.12154340444232  C 19.40112321612661 38.12154340444232  21.51412225616655 37.29557877666587  23.114875519491946 35.58010970216946  C 24.45950780270621 34.05524777664002  25.16384336038104 32.022097595842034  25.16384336038104 29.54419708520153  C 25.16384336038104 29.54419708520153  25.16384336038104 27.82873085098133  25.16384336038104 27.82873085098133  L 16.775887940602807 27.82873085098133  L 16.775887940602807 21  L 34 21  Z " fill-rule="evenodd" />
    </mask>
  </defs>
  <g transform="matrix(1 0 0 1 -240 -312 )">
    <path d="M 34 21  C 34 21  34 27.06629468104357  34 27.06629468104357  C 34 33.674029691671144  32.78342439034903 37.54972290430015  29.64594715460296 40.85358993623456  C 26.124290356936317 44.41160062242389  21.898298001594846 46  16.775887940602807 46  C 11.909598859721907 46  7.811669856805209 44.348062223618484  4.482103794221921 41.04419519168407  C 2.49717001485289 39.07458198955338  1.2806001299403371 36.78728957463859  0.7683591238411334 34.24585397884826  C 0.25611811774192966 31.70441743629919  0 27.955799127763527  0 23  C 0 18.044198978719002  0.25611811774192966 14.295579723424606  0.7683591238411334 11.754142234116806  C 1.2806001299403371 9.149173446694107  2.49717001485289 6.925415170170416  4.482103794221921 4.955801021280996  C 7.811669856805209 1.651934936105311  11.909598859721907 0  16.775887940602807 0  C 27.14876664439631 0  32.719387466459764 6.607735957386306  33.93595925961846 14.486188765909045  C 33.93595925961846 14.486188765909045  24.971751671174616 14.486188765909045  24.971751671174616 14.486188765909045  C 23.883238459825357 10.10221108504643  21.19396626041229 7.87845280852274  16.775887940602807 7.87845280852274  C 14.40677364519014 7.87845280852274  12.485871064971963 8.704420276575394  11.077208536729922 10.292816340495934  C 9.41242598249981 12.389504446719958  8.900182114031402 14.0414374893078  8.900182114031402 23  C 8.900182114031402 31.89502647878363  9.284365492444243 33.67403347870608  11.077208536729922 35.7707187446539  C 12.421841774067248 37.35911575533317  14.342744354285426 38.12154340444232  16.775887940602807 38.12154340444232  C 19.40112321612661 38.12154340444232  21.51412225616655 37.29557877666587  23.114875519491946 35.58010970216946  C 24.45950780270621 34.05524777664002  25.16384336038104 32.022097595842034  25.16384336038104 29.54419708520153  C 25.16384336038104 29.54419708520153  25.16384336038104 27.82873085098133  25.16384336038104 27.82873085098133  L 16.775887940602807 27.82873085098133  L 16.775887940602807 21  L 34 21  Z " fill-rule="nonzero" fill="rgba(116, 61, 148, 1)" stroke="none" transform="matrix(1 0 0 1 244 312 )" class="fill" />
    <path d="M 34 21  C 34 21  34 27.06629468104357  34 27.06629468104357  C 34 33.674029691671144  32.78342439034903 37.54972290430015  29.64594715460296 40.85358993623456  C 26.124290356936317 44.41160062242389  21.898298001594846 46  16.775887940602807 46  C 11.909598859721907 46  7.811669856805209 44.348062223618484  4.482103794221921 41.04419519168407  C 2.49717001485289 39.07458198955338  1.2806001299403371 36.78728957463859  0.7683591238411334 34.24585397884826  C 0.25611811774192966 31.70441743629919  0 27.955799127763527  0 23  C 0 18.044198978719002  0.25611811774192966 14.295579723424606  0.7683591238411334 11.754142234116806  C 1.2806001299403371 9.149173446694107  2.49717001485289 6.925415170170416  4.482103794221921 4.955801021280996  C 7.811669856805209 1.651934936105311  11.909598859721907 0  16.775887940602807 0  C 27.14876664439631 0  32.719387466459764 6.607735957386306  33.93595925961846 14.486188765909045  C 33.93595925961846 14.486188765909045  24.971751671174616 14.486188765909045  24.971751671174616 14.486188765909045  C 23.883238459825357 10.10221108504643  21.19396626041229 7.87845280852274  16.775887940602807 7.87845280852274  C 14.40677364519014 7.87845280852274  12.485871064971963 8.704420276575394  11.077208536729922 10.292816340495934  C 9.41242598249981 12.389504446719958  8.900182114031402 14.0414374893078  8.900182114031402 23  C 8.900182114031402 31.89502647878363  9.284365492444243 33.67403347870608  11.077208536729922 35.7707187446539  C 12.421841774067248 37.35911575533317  14.342744354285426 38.12154340444232  16.775887940602807 38.12154340444232  C 19.40112321612661 38.12154340444232  21.51412225616655 37.29557877666587  23.114875519491946 35.58010970216946  C 24.45950780270621 34.05524777664002  25.16384336038104 32.022097595842034  25.16384336038104 29.54419708520153  C 25.16384336038104 29.54419708520153  25.16384336038104 27.82873085098133  25.16384336038104 27.82873085098133  L 16.775887940602807 27.82873085098133  L 16.775887940602807 21  L 34 21  Z " stroke-width="0" stroke-dasharray="0" stroke="rgba(121, 121, 121, 1)" fill="none" transform="matrix(1 0 0 1 244 312 )" class="stroke" mask="url(#Clip4632)" />
  </g>
  <style>svg { filter: drop-shadow(0px 4px 2px rgba(0, 0, 0, 0.12941176470588237)); }</style>
</svg>