<?xml version="1.0" encoding="utf-8"?>
<svg version="1.1" xmlns:xlink="http://www.w3.org/1999/xlink" width="21px" height="22px" xmlns="http://www.w3.org/2000/svg">
  <defs>
    <pattern id="BGPattern" patternUnits="userSpaceOnUse" alignment="0 0" imageRepeat="None" />
    <mask fill="white" id="Clip4703">
      <path d="M 3.357120202066802 22  L 3.357120202066802 11  L 16.642882681306514 11  L 16.642882681306514 12  L 5.119028533862337 12  L 5.119028533862337 22  L 3.357120202066802 22  Z M 16.04760737682229 19.971792486593053  C 16.04760737682229 19.971792486593053  16.04760737682229 10.642089504689416  16.04760737682229 10.642089504689416  L 17.83337273943532 10.642089504689416  C 17.83337273943532 10.642089504689416  17.83337273943532 19.99565571470044  17.83337273943532 19.99565571470044  C 17.83337273943532 20.4887864778819  17.761940724692632 20.854661496241675  17.61908331795534 21.093273184519724  C 17.47622591121805 21.347792259423134  17.22225203710325 21.53868558045513  16.857172102786492 21.665945147536753  C 16.476219333522675 21.777297239103255  15.952363744391839 21.84092832636064  15.285696161653442 21.856835801875768  C 14.634901413862105 21.88865063438633  13.825378316600156 21.904547087570446  12.857123085440119 21.904547087570446  C 12.809503634492064 21.681842904437445  12.722225275794658 21.435289419260425  12.595240704004429 21.16486286884189  C 12.484129913268129 20.894436318423356  12.373020068638702 20.64786769235616  12.261908331795535 20.425163479593238  C 12.738100002955457 20.425163479593238  13.19844627626753 20.43311926181542  13.642891331426464 20.449026707700625  C 14.103209221532456 20.46493415358583  14.499986574292997 20.46493415358583  14.83332083871563 20.449026707700625  C 15.166654157031395 20.449026707700625  15.396858042160686 20.449026707700625  15.523842613950913 20.449026707700625  C 15.730192306583318 20.43311926181542  15.865072140198262 20.3933403507045  15.928564426093374 20.329710567163684  C 16.00792954693555 20.266080798437834  16.04760737682229 20.146774361700366  16.04760737682229 19.971792486593053  Z M 4.4285673094666915 15  L 4.4285673094666915 13.720172861180778  L 16.642882681306514 13.720172861180778  L 16.642882681306514 15  L 4.4285673094666915 15  Z M 0 9.138827498084723  L 0 8  L 21 8  L 21 9.138827498084723  L 0 9.138827498084723  Z M 1.5476189103155562 3  L 1.5476189103155562 2  L 19.714324021959772 2  L 19.714324021959772 3  L 1.5476189103155562 3  Z M 2.357123085440118 6  L 2.357123085440118 5  L 18.71432690533309 5  L 18.71432690533309 6  L 2.357123085440118 6  Z M 4.4285673094666915 18  L 4.4285673094666915 16.750544931977455  L 16.666679161284367 16.750544931977455  L 16.666679161284367 18  L 4.4285673094666915 18  Z M 9.547595843329027 8.59001876317508  L 9.547595843329027 0  L 11.357157685919912 0  L 11.357157685919912 8.59001876317508  L 9.547595843329027 8.59001876317508  Z " fill-rule="evenodd" />
    </mask>
  </defs>
  <g transform="matrix(1 0 0 1 -775 -612 )">
    <path d="M 3.357120202066802 22  L 3.357120202066802 11  L 16.642882681306514 11  L 16.642882681306514 12  L 5.119028533862337 12  L 5.119028533862337 22  L 3.357120202066802 22  Z M 16.04760737682229 19.971792486593053  C 16.04760737682229 19.971792486593053  16.04760737682229 10.642089504689416  16.04760737682229 10.642089504689416  L 17.83337273943532 10.642089504689416  C 17.83337273943532 10.642089504689416  17.83337273943532 19.99565571470044  17.83337273943532 19.99565571470044  C 17.83337273943532 20.4887864778819  17.761940724692632 20.854661496241675  17.61908331795534 21.093273184519724  C 17.47622591121805 21.347792259423134  17.22225203710325 21.53868558045513  16.857172102786492 21.665945147536753  C 16.476219333522675 21.777297239103255  15.952363744391839 21.84092832636064  15.285696161653442 21.856835801875768  C 14.634901413862105 21.88865063438633  13.825378316600156 21.904547087570446  12.857123085440119 21.904547087570446  C 12.809503634492064 21.681842904437445  12.722225275794658 21.435289419260425  12.595240704004429 21.16486286884189  C 12.484129913268129 20.894436318423356  12.373020068638702 20.64786769235616  12.261908331795535 20.425163479593238  C 12.738100002955457 20.425163479593238  13.19844627626753 20.43311926181542  13.642891331426464 20.449026707700625  C 14.103209221532456 20.46493415358583  14.499986574292997 20.46493415358583  14.83332083871563 20.449026707700625  C 15.166654157031395 20.449026707700625  15.396858042160686 20.449026707700625  15.523842613950913 20.449026707700625  C 15.730192306583318 20.43311926181542  15.865072140198262 20.3933403507045  15.928564426093374 20.329710567163684  C 16.00792954693555 20.266080798437834  16.04760737682229 20.146774361700366  16.04760737682229 19.971792486593053  Z M 4.4285673094666915 15  L 4.4285673094666915 13.720172861180778  L 16.642882681306514 13.720172861180778  L 16.642882681306514 15  L 4.4285673094666915 15  Z M 0 9.138827498084723  L 0 8  L 21 8  L 21 9.138827498084723  L 0 9.138827498084723  Z M 1.5476189103155562 3  L 1.5476189103155562 2  L 19.714324021959772 2  L 19.714324021959772 3  L 1.5476189103155562 3  Z M 2.357123085440118 6  L 2.357123085440118 5  L 18.71432690533309 5  L 18.71432690533309 6  L 2.357123085440118 6  Z M 4.4285673094666915 18  L 4.4285673094666915 16.750544931977455  L 16.666679161284367 16.750544931977455  L 16.666679161284367 18  L 4.4285673094666915 18  Z M 9.547595843329027 8.59001876317508  L 9.547595843329027 0  L 11.357157685919912 0  L 11.357157685919912 8.59001876317508  L 9.547595843329027 8.59001876317508  Z " fill-rule="nonzero" fill="rgba(0, 0, 0, 1)" stroke="none" transform="matrix(1 0 0 1 775 612 )" class="fill" />
    <path d="M 3.357120202066802 22  L 3.357120202066802 11  L 16.642882681306514 11  L 16.642882681306514 12  L 5.119028533862337 12  L 5.119028533862337 22  L 3.357120202066802 22  Z " stroke-width="0" stroke-dasharray="0" stroke="rgba(121, 121, 121, 1)" fill="none" transform="matrix(1 0 0 1 775 612 )" class="stroke" mask="url(#Clip4703)" />
    <path d="M 16.04760737682229 19.971792486593053  C 16.04760737682229 19.971792486593053  16.04760737682229 10.642089504689416  16.04760737682229 10.642089504689416  L 17.83337273943532 10.642089504689416  C 17.83337273943532 10.642089504689416  17.83337273943532 19.99565571470044  17.83337273943532 19.99565571470044  C 17.83337273943532 20.4887864778819  17.761940724692632 20.854661496241675  17.61908331795534 21.093273184519724  C 17.47622591121805 21.347792259423134  17.22225203710325 21.53868558045513  16.857172102786492 21.665945147536753  C 16.476219333522675 21.777297239103255  15.952363744391839 21.84092832636064  15.285696161653442 21.856835801875768  C 14.634901413862105 21.88865063438633  13.825378316600156 21.904547087570446  12.857123085440119 21.904547087570446  C 12.809503634492064 21.681842904437445  12.722225275794658 21.435289419260425  12.595240704004429 21.16486286884189  C 12.484129913268129 20.894436318423356  12.373020068638702 20.64786769235616  12.261908331795535 20.425163479593238  C 12.738100002955457 20.425163479593238  13.19844627626753 20.43311926181542  13.642891331426464 20.449026707700625  C 14.103209221532456 20.46493415358583  14.499986574292997 20.46493415358583  14.83332083871563 20.449026707700625  C 15.166654157031395 20.449026707700625  15.396858042160686 20.449026707700625  15.523842613950913 20.449026707700625  C 15.730192306583318 20.43311926181542  15.865072140198262 20.3933403507045  15.928564426093374 20.329710567163684  C 16.00792954693555 20.266080798437834  16.04760737682229 20.146774361700366  16.04760737682229 19.971792486593053  Z " stroke-width="0" stroke-dasharray="0" stroke="rgba(121, 121, 121, 1)" fill="none" transform="matrix(1 0 0 1 775 612 )" class="stroke" mask="url(#Clip4703)" />
    <path d="M 4.4285673094666915 15  L 4.4285673094666915 13.720172861180778  L 16.642882681306514 13.720172861180778  L 16.642882681306514 15  L 4.4285673094666915 15  Z " stroke-width="0" stroke-dasharray="0" stroke="rgba(121, 121, 121, 1)" fill="none" transform="matrix(1 0 0 1 775 612 )" class="stroke" mask="url(#Clip4703)" />
    <path d="M 0 9.138827498084723  L 0 8  L 21 8  L 21 9.138827498084723  L 0 9.138827498084723  Z " stroke-width="0" stroke-dasharray="0" stroke="rgba(121, 121, 121, 1)" fill="none" transform="matrix(1 0 0 1 775 612 )" class="stroke" mask="url(#Clip4703)" />
    <path d="M 1.5476189103155562 3  L 1.5476189103155562 2  L 19.714324021959772 2  L 19.714324021959772 3  L 1.5476189103155562 3  Z " stroke-width="0" stroke-dasharray="0" stroke="rgba(121, 121, 121, 1)" fill="none" transform="matrix(1 0 0 1 775 612 )" class="stroke" mask="url(#Clip4703)" />
    <path d="M 2.357123085440118 6  L 2.357123085440118 5  L 18.71432690533309 5  L 18.71432690533309 6  L 2.357123085440118 6  Z " stroke-width="0" stroke-dasharray="0" stroke="rgba(121, 121, 121, 1)" fill="none" transform="matrix(1 0 0 1 775 612 )" class="stroke" mask="url(#Clip4703)" />
    <path d="M 4.4285673094666915 18  L 4.4285673094666915 16.750544931977455  L 16.666679161284367 16.750544931977455  L 16.666679161284367 18  L 4.4285673094666915 18  Z " stroke-width="0" stroke-dasharray="0" stroke="rgba(121, 121, 121, 1)" fill="none" transform="matrix(1 0 0 1 775 612 )" class="stroke" mask="url(#Clip4703)" />
    <path d="M 9.547595843329027 8.59001876317508  L 9.547595843329027 0  L 11.357157685919912 0  L 11.357157685919912 8.59001876317508  L 9.547595843329027 8.59001876317508  Z " stroke-width="0" stroke-dasharray="0" stroke="rgba(121, 121, 121, 1)" fill="none" transform="matrix(1 0 0 1 775 612 )" class="stroke" mask="url(#Clip4703)" />
  </g>
</svg>