<?xml version="1.0" encoding="utf-8"?>
<svg version="1.1" xmlns:xlink="http://www.w3.org/1999/xlink" width="20px" height="19px" xmlns="http://www.w3.org/2000/svg">
  <defs>
    <pattern id="BGPattern" patternUnits="userSpaceOnUse" alignment="0 0" imageRepeat="None" />
    <mask fill="white" id="Clip4672">
      <path d="M 0.5428762924639842 1.6211599298607058  L 0.5428762924639842 0.12969232588614577  L 8.512482208616678 0.12969232588614577  L 8.512482208616678 1.6211599298607058  L 0.5428762924639842 1.6211599298607058  Z M 2.7578489182085866 8.300340714897656  L 2.7578489182085866 6.852104198553619  L 7.687293375204272 6.852104198553619  L 7.687293375204272 16.211603046628742  L 2.7578489182085866 16.211603046628742  L 2.7578489182085866 14.784983245356743  L 6.232353583504658 14.784983245356743  L 6.232353583504658 8.300340714897656  L 2.7578489182085866 8.300340714897656  Z M 2.4972851666930245 4.79863432939311  C 2.7723485131957464 3.516116591880483  2.996719140069019 2.1975727527996245  3.17044333491479 0.8430026950248563  C 3.17044333491479 0.8430026950248563  4.712257792437627 1.0807739112440848  4.712257792437627 1.0807739112440848  C 4.4951024422438985 2.579446149903903  4.22004049304724 4.042092521246844  3.8870689590252203 5.468714079404009  C 3.5540974250032003 6.880924728431171  3.148746231097832 8.20667413920271  2.6710043753624166 9.445961023336169  C 2.2077396988831905 10.670837818219372  1.6431323848360935 11.758815719957486  0.9771893756259931 12.709896661124198  C 0.919281276357605 12.580203793531792  0.8324116996701535 12.421691069534482  0.716595501133377 12.234357039702004  C 0.6007793025966006 12.047023009869527  0.47773161862993174 11.859688555456469  0.3474384173387856 11.672354306013347  C 0.2316222188020092 11.485020056570223  0.11581619853677638 11.340916550700944  0 11.240044366713542  C 0.5790809338499424 10.418656747001236  1.0712716402996483 9.460371932466172  1.4766283351783658 8.365188049097505  C 1.8819849123892038 7.255593607975869  2.2222216142715134 6.066741977655479  2.4972851666930245 4.79863432939311  Z M 2 17.984072485950342  L 2 6.852104198553619  L 3.496193208774823 6.852104198553619  L 3.496193208774823 17.984072485950342  L 2 17.984072485950342  Z M 10.228015874808907 4.733787932198682  L 10.228015874808907 3.4152442102435008  L 19.04449916785276 3.4152442102435008  L 19.04449916785276 4.733787932198682  L 10.228015874808907 4.733787932198682  Z M 10.228015874808907 8.062570904186561  L 10.228015874808907 6.722411404164762  L 19.04449916785276 6.722411404164762  L 19.04449916785276 8.062570904186561  L 10.228015874808907 8.062570904186561  Z M 9.44623425133106 11.564278226696526  L 9.44623425133106 10.116040773347068  L 18.979373291462394 10.116040773347068  L 18.979373291462394 11.564278226696526  L 9.44623425133106 11.564278226696526  Z M 14 10.742889904230156  L 14 0.7349252101999056  L 15.418024083320155 0.7349252101999056  L 15.418024083320155 10.742889904230156  L 14 10.742889904230156  Z M 11.509206334862075 15.368600820106597  C 11.45129812895717 14.619264349399655  11.364458134709954 13.920363542445656  11.248642583346513 13.271899394812856  C 11.248642583346513 13.271899394812856  12.377832501186091 13.120591759362805  12.377832501186091 13.120591759362805  C 12.493648912995901 13.754645759182505  12.587759998945696 14.439135657006501  12.660145042134515 15.174061628523312  C 12.747006918930126 15.908987600040122  12.783185087801122 16.55024582460521  12.76870825143649 17.097837766289544  C 12.76870825143649 17.097837766289544  11.574362334229491 17.29237883188367  11.574362334229491 17.29237883188367  C 11.588839170594127 16.744786890199336  11.567114540766978 16.103526850186245  11.509206334862075 15.368600820106597  Z M 14.136803500289934 14.849829642551173  C 13.96307974669871 14.215775935545665  13.767645872281403 13.632156662473486  13.550489874914337 13.098975044290766  C 13.550489874914337 13.098975044290766  14.592835249907747 12.81797461445186  14.592835249907747 12.81797461445186  C 14.82446722043524 13.336745909132961  15.03438474584209 13.905953980260945  15.222586208194958 14.52559765657903  C 15.410787670547823 15.14524109864576  15.548318748105547 15.678423917366676  15.63518062490116 16.125143682383964  C 15.63518062490116 16.125143682383964  14.52767925054033 16.470988635406457  14.52767925054033 16.470988635406457  C 14.455294207351512 16.009858576168973  14.325004962642803 15.469473201743579  14.136803500289934 14.849829642551173  Z M 16.56893266761554 13.985209763951566  C 16.293868468020694 13.495259174836534  16.011565340502603 13.041334716571148  15.72202516774733 12.623435422868573  C 15.72202516774733 12.623435422868573  16.612370000527154 12.2559718807632  16.612370000527154 12.2559718807632  C 16.93086470829662 12.645050293211188  17.227651486804255 13.08456574563883  17.502714833306975 13.574516539723803  C 17.777778179809697 14.050056776055802  17.987695705216545 14.460750498067696  18.132465791594182 14.806598086417939  C 18.132465791594182 14.806598086417939  17.17696495944694 15.238908025717741  17.17696495944694 15.238908025717741  C 17.046671714030342 14.893060437367499  16.843996014118265 14.47516047019228  16.56893266761554 13.985209763951566  Z M 8.621045417918653 15.238908025717741  C 8.867154655953243 14.359878702059104  9.033652189752162 13.480849554088982  9.12051450044808 12.601820581807377  C 9.12051450044808 12.601820581807377  10.35829775056669 12.904435852707481  10.35829775056669 12.904435852707481  C 10.256958172363674 13.841106236121224  10.083219239616046 14.777777205163353  9.837110001581456 15.714447647139934  C 9.591000337000805 16.636707765614897  9.214615797901182 17.400454149883583  8.707920083741875 18.00568732701154  C 8.707920083741875 18.00568732701154  7.5352627100136305 17.357223355067255  7.5352627100136305 17.357223355067255  C 8.013004330413287 16.809631413382924  8.374935753338002 16.103526908749085  8.621045417918653 15.238908025717741  Z M 9.44623425133106 10.850965983546974  L 9.44623425133106 0  L 19.565686916837993 0  L 19.565686916837993 1.426620738277421  L 10.944611375942284 1.426620738277421  L 10.944611375942284 10.850965983546974  L 9.44623425133106 10.850965983546974  Z M 18.501622875388776 10.397041203185976  C 18.501622875388776 10.397041203185976  18.501622875388776 10.116040773347068  18.501622875388776 10.116040773347068  C 18.501622875388776 10.116040773347068  20 10.116040773347068  20 10.116040773347068  C 20 10.116040773347068  19.99275816990883 10.20250267043463  19.978281333544196 10.37542636212478  C 19.978281333544196 10.548350053814932  19.97104036573795 10.692453559684214  19.956562667088388 10.807736301424583  C 19.88417762389957 12.49374297985675  19.797307510352418 13.855516618185678  19.69596879259577 14.893059324673562  C 19.60910691580016 15.916191590534154  19.500542287129395 16.701553460055262  19.370249041712793 17.249145401739597  C 19.254432629902986 17.782327019922313  19.102418754447847 18.156996148359077  18.91421729209498 18.373150869116913  C 18.740492670703148 18.574895237091713  18.552300621780606 18.71899698607583  18.349622333175187 18.805458934405873  C 18.161421738622927 18.89192078025095  17.915295924125868 18.949564473503713  17.61127804260895 18.978385158938806  C 17.3651683780283 18.99279539459616  17.024961593204257 19  16.590651334071346 19  C 16.170817901190986 19  15.722047377559512 18.985590897167558  15.244304874650762 18.95677031787761  C 15.22982803828613 18.75502594990281  15.179136086255733 18.517254045570223  15.092274209460122 18.243458074728057  C 15.019889166271303 17.984072368824666  14.92580820329856 17.753508817917606  14.809991791488752 17.551764420661385  C 15.287733411888409 17.594995369205165  15.72202116703944 17.61660894384497  16.112900917997727 17.61660894384497  C 16.503780668956015 17.63101926002623  16.778842824071457 17.638223784906167  16.938089751410132 17.638223784906167  C 17.126291213763 17.638223784906167  17.26382229132072 17.623814735146293  17.350684168116334 17.594994102783776  C 17.452023746319348 17.566173470421255  17.553376657763916 17.508533508719378  17.654715375520563 17.422071626272526  C 17.785008620937163 17.26355817023973  17.900814214656336 16.939324471304555  18.002153792859346 16.44937379434526  C 18.103492510615993 15.959423088104547  18.19036176371678 15.231703215343966  18.262747667351963 14.26621206780132  C 18.349609544147576 13.286310655319893  18.429237832199956 11.996585823482775  18.501622875388776 10.397041203185976  Z " fill-rule="evenodd" />
    </mask>
  </defs>
  <g transform="matrix(1 0 0 1 -1784 -72 )">
    <path d="M 0.5428762924639842 1.6211599298607058  L 0.5428762924639842 0.12969232588614577  L 8.512482208616678 0.12969232588614577  L 8.512482208616678 1.6211599298607058  L 0.5428762924639842 1.6211599298607058  Z M 2.7578489182085866 8.300340714897656  L 2.7578489182085866 6.852104198553619  L 7.687293375204272 6.852104198553619  L 7.687293375204272 16.211603046628742  L 2.7578489182085866 16.211603046628742  L 2.7578489182085866 14.784983245356743  L 6.232353583504658 14.784983245356743  L 6.232353583504658 8.300340714897656  L 2.7578489182085866 8.300340714897656  Z M 2.4972851666930245 4.79863432939311  C 2.7723485131957464 3.516116591880483  2.996719140069019 2.1975727527996245  3.17044333491479 0.8430026950248563  C 3.17044333491479 0.8430026950248563  4.712257792437627 1.0807739112440848  4.712257792437627 1.0807739112440848  C 4.4951024422438985 2.579446149903903  4.22004049304724 4.042092521246844  3.8870689590252203 5.468714079404009  C 3.5540974250032003 6.880924728431171  3.148746231097832 8.20667413920271  2.6710043753624166 9.445961023336169  C 2.2077396988831905 10.670837818219372  1.6431323848360935 11.758815719957486  0.9771893756259931 12.709896661124198  C 0.919281276357605 12.580203793531792  0.8324116996701535 12.421691069534482  0.716595501133377 12.234357039702004  C 0.6007793025966006 12.047023009869527  0.47773161862993174 11.859688555456469  0.3474384173387856 11.672354306013347  C 0.2316222188020092 11.485020056570223  0.11581619853677638 11.340916550700944  0 11.240044366713542  C 0.5790809338499424 10.418656747001236  1.0712716402996483 9.460371932466172  1.4766283351783658 8.365188049097505  C 1.8819849123892038 7.255593607975869  2.2222216142715134 6.066741977655479  2.4972851666930245 4.79863432939311  Z M 2 17.984072485950342  L 2 6.852104198553619  L 3.496193208774823 6.852104198553619  L 3.496193208774823 17.984072485950342  L 2 17.984072485950342  Z M 10.228015874808907 4.733787932198682  L 10.228015874808907 3.4152442102435008  L 19.04449916785276 3.4152442102435008  L 19.04449916785276 4.733787932198682  L 10.228015874808907 4.733787932198682  Z M 10.228015874808907 8.062570904186561  L 10.228015874808907 6.722411404164762  L 19.04449916785276 6.722411404164762  L 19.04449916785276 8.062570904186561  L 10.228015874808907 8.062570904186561  Z M 9.44623425133106 11.564278226696526  L 9.44623425133106 10.116040773347068  L 18.979373291462394 10.116040773347068  L 18.979373291462394 11.564278226696526  L 9.44623425133106 11.564278226696526  Z M 14 10.742889904230156  L 14 0.7349252101999056  L 15.418024083320155 0.7349252101999056  L 15.418024083320155 10.742889904230156  L 14 10.742889904230156  Z M 11.509206334862075 15.368600820106597  C 11.45129812895717 14.619264349399655  11.364458134709954 13.920363542445656  11.248642583346513 13.271899394812856  C 11.248642583346513 13.271899394812856  12.377832501186091 13.120591759362805  12.377832501186091 13.120591759362805  C 12.493648912995901 13.754645759182505  12.587759998945696 14.439135657006501  12.660145042134515 15.174061628523312  C 12.747006918930126 15.908987600040122  12.783185087801122 16.55024582460521  12.76870825143649 17.097837766289544  C 12.76870825143649 17.097837766289544  11.574362334229491 17.29237883188367  11.574362334229491 17.29237883188367  C 11.588839170594127 16.744786890199336  11.567114540766978 16.103526850186245  11.509206334862075 15.368600820106597  Z M 14.136803500289934 14.849829642551173  C 13.96307974669871 14.215775935545665  13.767645872281403 13.632156662473486  13.550489874914337 13.098975044290766  C 13.550489874914337 13.098975044290766  14.592835249907747 12.81797461445186  14.592835249907747 12.81797461445186  C 14.82446722043524 13.336745909132961  15.03438474584209 13.905953980260945  15.222586208194958 14.52559765657903  C 15.410787670547823 15.14524109864576  15.548318748105547 15.678423917366676  15.63518062490116 16.125143682383964  C 15.63518062490116 16.125143682383964  14.52767925054033 16.470988635406457  14.52767925054033 16.470988635406457  C 14.455294207351512 16.009858576168973  14.325004962642803 15.469473201743579  14.136803500289934 14.849829642551173  Z M 16.56893266761554 13.985209763951566  C 16.293868468020694 13.495259174836534  16.011565340502603 13.041334716571148  15.72202516774733 12.623435422868573  C 15.72202516774733 12.623435422868573  16.612370000527154 12.2559718807632  16.612370000527154 12.2559718807632  C 16.93086470829662 12.645050293211188  17.227651486804255 13.08456574563883  17.502714833306975 13.574516539723803  C 17.777778179809697 14.050056776055802  17.987695705216545 14.460750498067696  18.132465791594182 14.806598086417939  C 18.132465791594182 14.806598086417939  17.17696495944694 15.238908025717741  17.17696495944694 15.238908025717741  C 17.046671714030342 14.893060437367499  16.843996014118265 14.47516047019228  16.56893266761554 13.985209763951566  Z M 8.621045417918653 15.238908025717741  C 8.867154655953243 14.359878702059104  9.033652189752162 13.480849554088982  9.12051450044808 12.601820581807377  C 9.12051450044808 12.601820581807377  10.35829775056669 12.904435852707481  10.35829775056669 12.904435852707481  C 10.256958172363674 13.841106236121224  10.083219239616046 14.777777205163353  9.837110001581456 15.714447647139934  C 9.591000337000805 16.636707765614897  9.214615797901182 17.400454149883583  8.707920083741875 18.00568732701154  C 8.707920083741875 18.00568732701154  7.5352627100136305 17.357223355067255  7.5352627100136305 17.357223355067255  C 8.013004330413287 16.809631413382924  8.374935753338002 16.103526908749085  8.621045417918653 15.238908025717741  Z M 9.44623425133106 10.850965983546974  L 9.44623425133106 0  L 19.565686916837993 0  L 19.565686916837993 1.426620738277421  L 10.944611375942284 1.426620738277421  L 10.944611375942284 10.850965983546974  L 9.44623425133106 10.850965983546974  Z M 18.501622875388776 10.397041203185976  C 18.501622875388776 10.397041203185976  18.501622875388776 10.116040773347068  18.501622875388776 10.116040773347068  C 18.501622875388776 10.116040773347068  20 10.116040773347068  20 10.116040773347068  C 20 10.116040773347068  19.99275816990883 10.20250267043463  19.978281333544196 10.37542636212478  C 19.978281333544196 10.548350053814932  19.97104036573795 10.692453559684214  19.956562667088388 10.807736301424583  C 19.88417762389957 12.49374297985675  19.797307510352418 13.855516618185678  19.69596879259577 14.893059324673562  C 19.60910691580016 15.916191590534154  19.500542287129395 16.701553460055262  19.370249041712793 17.249145401739597  C 19.254432629902986 17.782327019922313  19.102418754447847 18.156996148359077  18.91421729209498 18.373150869116913  C 18.740492670703148 18.574895237091713  18.552300621780606 18.71899698607583  18.349622333175187 18.805458934405873  C 18.161421738622927 18.89192078025095  17.915295924125868 18.949564473503713  17.61127804260895 18.978385158938806  C 17.3651683780283 18.99279539459616  17.024961593204257 19  16.590651334071346 19  C 16.170817901190986 19  15.722047377559512 18.985590897167558  15.244304874650762 18.95677031787761  C 15.22982803828613 18.75502594990281  15.179136086255733 18.517254045570223  15.092274209460122 18.243458074728057  C 15.019889166271303 17.984072368824666  14.92580820329856 17.753508817917606  14.809991791488752 17.551764420661385  C 15.287733411888409 17.594995369205165  15.72202116703944 17.61660894384497  16.112900917997727 17.61660894384497  C 16.503780668956015 17.63101926002623  16.778842824071457 17.638223784906167  16.938089751410132 17.638223784906167  C 17.126291213763 17.638223784906167  17.26382229132072 17.623814735146293  17.350684168116334 17.594994102783776  C 17.452023746319348 17.566173470421255  17.553376657763916 17.508533508719378  17.654715375520563 17.422071626272526  C 17.785008620937163 17.26355817023973  17.900814214656336 16.939324471304555  18.002153792859346 16.44937379434526  C 18.103492510615993 15.959423088104547  18.19036176371678 15.231703215343966  18.262747667351963 14.26621206780132  C 18.349609544147576 13.286310655319893  18.429237832199956 11.996585823482775  18.501622875388776 10.397041203185976  Z " fill-rule="nonzero" fill="rgba(212, 208, 208, 0.5019607843137255)" stroke="none" transform="matrix(1 0 0 1 1784 72 )" class="fill" />
    <path d="M 0.5428762924639842 1.6211599298607058  L 0.5428762924639842 0.12969232588614577  L 8.512482208616678 0.12969232588614577  L 8.512482208616678 1.6211599298607058  L 0.5428762924639842 1.6211599298607058  Z " stroke-width="0" stroke-dasharray="0" stroke="rgba(121, 121, 121, 1)" fill="none" transform="matrix(1 0 0 1 1784 72 )" class="stroke" mask="url(#Clip4672)" />
    <path d="M 2.7578489182085866 8.300340714897656  L 2.7578489182085866 6.852104198553619  L 7.687293375204272 6.852104198553619  L 7.687293375204272 16.211603046628742  L 2.7578489182085866 16.211603046628742  L 2.7578489182085866 14.784983245356743  L 6.232353583504658 14.784983245356743  L 6.232353583504658 8.300340714897656  L 2.7578489182085866 8.300340714897656  Z " stroke-width="0" stroke-dasharray="0" stroke="rgba(121, 121, 121, 1)" fill="none" transform="matrix(1 0 0 1 1784 72 )" class="stroke" mask="url(#Clip4672)" />
    <path d="M 2.4972851666930245 4.79863432939311  C 2.7723485131957464 3.516116591880483  2.996719140069019 2.1975727527996245  3.17044333491479 0.8430026950248563  C 3.17044333491479 0.8430026950248563  4.712257792437627 1.0807739112440848  4.712257792437627 1.0807739112440848  C 4.4951024422438985 2.579446149903903  4.22004049304724 4.042092521246844  3.8870689590252203 5.468714079404009  C 3.5540974250032003 6.880924728431171  3.148746231097832 8.20667413920271  2.6710043753624166 9.445961023336169  C 2.2077396988831905 10.670837818219372  1.6431323848360935 11.758815719957486  0.9771893756259931 12.709896661124198  C 0.919281276357605 12.580203793531792  0.8324116996701535 12.421691069534482  0.716595501133377 12.234357039702004  C 0.6007793025966006 12.047023009869527  0.47773161862993174 11.859688555456469  0.3474384173387856 11.672354306013347  C 0.2316222188020092 11.485020056570223  0.11581619853677638 11.340916550700944  0 11.240044366713542  C 0.5790809338499424 10.418656747001236  1.0712716402996483 9.460371932466172  1.4766283351783658 8.365188049097505  C 1.8819849123892038 7.255593607975869  2.2222216142715134 6.066741977655479  2.4972851666930245 4.79863432939311  Z " stroke-width="0" stroke-dasharray="0" stroke="rgba(121, 121, 121, 1)" fill="none" transform="matrix(1 0 0 1 1784 72 )" class="stroke" mask="url(#Clip4672)" />
    <path d="M 2 17.984072485950342  L 2 6.852104198553619  L 3.496193208774823 6.852104198553619  L 3.496193208774823 17.984072485950342  L 2 17.984072485950342  Z " stroke-width="0" stroke-dasharray="0" stroke="rgba(121, 121, 121, 1)" fill="none" transform="matrix(1 0 0 1 1784 72 )" class="stroke" mask="url(#Clip4672)" />
    <path d="M 10.228015874808907 4.733787932198682  L 10.228015874808907 3.4152442102435008  L 19.04449916785276 3.4152442102435008  L 19.04449916785276 4.733787932198682  L 10.228015874808907 4.733787932198682  Z " stroke-width="0" stroke-dasharray="0" stroke="rgba(121, 121, 121, 1)" fill="none" transform="matrix(1 0 0 1 1784 72 )" class="stroke" mask="url(#Clip4672)" />
    <path d="M 10.228015874808907 8.062570904186561  L 10.228015874808907 6.722411404164762  L 19.04449916785276 6.722411404164762  L 19.04449916785276 8.062570904186561  L 10.228015874808907 8.062570904186561  Z " stroke-width="0" stroke-dasharray="0" stroke="rgba(121, 121, 121, 1)" fill="none" transform="matrix(1 0 0 1 1784 72 )" class="stroke" mask="url(#Clip4672)" />
    <path d="M 9.44623425133106 11.564278226696526  L 9.44623425133106 10.116040773347068  L 18.979373291462394 10.116040773347068  L 18.979373291462394 11.564278226696526  L 9.44623425133106 11.564278226696526  Z " stroke-width="0" stroke-dasharray="0" stroke="rgba(121, 121, 121, 1)" fill="none" transform="matrix(1 0 0 1 1784 72 )" class="stroke" mask="url(#Clip4672)" />
    <path d="M 14 10.742889904230156  L 14 0.7349252101999056  L 15.418024083320155 0.7349252101999056  L 15.418024083320155 10.742889904230156  L 14 10.742889904230156  Z " stroke-width="0" stroke-dasharray="0" stroke="rgba(121, 121, 121, 1)" fill="none" transform="matrix(1 0 0 1 1784 72 )" class="stroke" mask="url(#Clip4672)" />
    <path d="M 11.509206334862075 15.368600820106597  C 11.45129812895717 14.619264349399655  11.364458134709954 13.920363542445656  11.248642583346513 13.271899394812856  C 11.248642583346513 13.271899394812856  12.377832501186091 13.120591759362805  12.377832501186091 13.120591759362805  C 12.493648912995901 13.754645759182505  12.587759998945696 14.439135657006501  12.660145042134515 15.174061628523312  C 12.747006918930126 15.908987600040122  12.783185087801122 16.55024582460521  12.76870825143649 17.097837766289544  C 12.76870825143649 17.097837766289544  11.574362334229491 17.29237883188367  11.574362334229491 17.29237883188367  C 11.588839170594127 16.744786890199336  11.567114540766978 16.103526850186245  11.509206334862075 15.368600820106597  Z " stroke-width="0" stroke-dasharray="0" stroke="rgba(121, 121, 121, 1)" fill="none" transform="matrix(1 0 0 1 1784 72 )" class="stroke" mask="url(#Clip4672)" />
    <path d="M 14.136803500289934 14.849829642551173  C 13.96307974669871 14.215775935545665  13.767645872281403 13.632156662473486  13.550489874914337 13.098975044290766  C 13.550489874914337 13.098975044290766  14.592835249907747 12.81797461445186  14.592835249907747 12.81797461445186  C 14.82446722043524 13.336745909132961  15.03438474584209 13.905953980260945  15.222586208194958 14.52559765657903  C 15.410787670547823 15.14524109864576  15.548318748105547 15.678423917366676  15.63518062490116 16.125143682383964  C 15.63518062490116 16.125143682383964  14.52767925054033 16.470988635406457  14.52767925054033 16.470988635406457  C 14.455294207351512 16.009858576168973  14.325004962642803 15.469473201743579  14.136803500289934 14.849829642551173  Z " stroke-width="0" stroke-dasharray="0" stroke="rgba(121, 121, 121, 1)" fill="none" transform="matrix(1 0 0 1 1784 72 )" class="stroke" mask="url(#Clip4672)" />
    <path d="M 16.56893266761554 13.985209763951566  C 16.293868468020694 13.495259174836534  16.011565340502603 13.041334716571148  15.72202516774733 12.623435422868573  C 15.72202516774733 12.623435422868573  16.612370000527154 12.2559718807632  16.612370000527154 12.2559718807632  C 16.93086470829662 12.645050293211188  17.227651486804255 13.08456574563883  17.502714833306975 13.574516539723803  C 17.777778179809697 14.050056776055802  17.987695705216545 14.460750498067696  18.132465791594182 14.806598086417939  C 18.132465791594182 14.806598086417939  17.17696495944694 15.238908025717741  17.17696495944694 15.238908025717741  C 17.046671714030342 14.893060437367499  16.843996014118265 14.47516047019228  16.56893266761554 13.985209763951566  Z " stroke-width="0" stroke-dasharray="0" stroke="rgba(121, 121, 121, 1)" fill="none" transform="matrix(1 0 0 1 1784 72 )" class="stroke" mask="url(#Clip4672)" />
    <path d="M 8.621045417918653 15.238908025717741  C 8.867154655953243 14.359878702059104  9.033652189752162 13.480849554088982  9.12051450044808 12.601820581807377  C 9.12051450044808 12.601820581807377  10.35829775056669 12.904435852707481  10.35829775056669 12.904435852707481  C 10.256958172363674 13.841106236121224  10.083219239616046 14.777777205163353  9.837110001581456 15.714447647139934  C 9.591000337000805 16.636707765614897  9.214615797901182 17.400454149883583  8.707920083741875 18.00568732701154  C 8.707920083741875 18.00568732701154  7.5352627100136305 17.357223355067255  7.5352627100136305 17.357223355067255  C 8.013004330413287 16.809631413382924  8.374935753338002 16.103526908749085  8.621045417918653 15.238908025717741  Z " stroke-width="0" stroke-dasharray="0" stroke="rgba(121, 121, 121, 1)" fill="none" transform="matrix(1 0 0 1 1784 72 )" class="stroke" mask="url(#Clip4672)" />
    <path d="M 9.44623425133106 10.850965983546974  L 9.44623425133106 0  L 19.565686916837993 0  L 19.565686916837993 1.426620738277421  L 10.944611375942284 1.426620738277421  L 10.944611375942284 10.850965983546974  L 9.44623425133106 10.850965983546974  Z " stroke-width="0" stroke-dasharray="0" stroke="rgba(121, 121, 121, 1)" fill="none" transform="matrix(1 0 0 1 1784 72 )" class="stroke" mask="url(#Clip4672)" />
    <path d="M 18.501622875388776 10.397041203185976  C 18.501622875388776 10.397041203185976  18.501622875388776 10.116040773347068  18.501622875388776 10.116040773347068  C 18.501622875388776 10.116040773347068  20 10.116040773347068  20 10.116040773347068  C 20 10.116040773347068  19.99275816990883 10.20250267043463  19.978281333544196 10.37542636212478  C 19.978281333544196 10.548350053814932  19.97104036573795 10.692453559684214  19.956562667088388 10.807736301424583  C 19.88417762389957 12.49374297985675  19.797307510352418 13.855516618185678  19.69596879259577 14.893059324673562  C 19.60910691580016 15.916191590534154  19.500542287129395 16.701553460055262  19.370249041712793 17.249145401739597  C 19.254432629902986 17.782327019922313  19.102418754447847 18.156996148359077  18.91421729209498 18.373150869116913  C 18.740492670703148 18.574895237091713  18.552300621780606 18.71899698607583  18.349622333175187 18.805458934405873  C 18.161421738622927 18.89192078025095  17.915295924125868 18.949564473503713  17.61127804260895 18.978385158938806  C 17.3651683780283 18.99279539459616  17.024961593204257 19  16.590651334071346 19  C 16.170817901190986 19  15.722047377559512 18.985590897167558  15.244304874650762 18.95677031787761  C 15.22982803828613 18.75502594990281  15.179136086255733 18.517254045570223  15.092274209460122 18.243458074728057  C 15.019889166271303 17.984072368824666  14.92580820329856 17.753508817917606  14.809991791488752 17.551764420661385  C 15.287733411888409 17.594995369205165  15.72202116703944 17.61660894384497  16.112900917997727 17.61660894384497  C 16.503780668956015 17.63101926002623  16.778842824071457 17.638223784906167  16.938089751410132 17.638223784906167  C 17.126291213763 17.638223784906167  17.26382229132072 17.623814735146293  17.350684168116334 17.594994102783776  C 17.452023746319348 17.566173470421255  17.553376657763916 17.508533508719378  17.654715375520563 17.422071626272526  C 17.785008620937163 17.26355817023973  17.900814214656336 16.939324471304555  18.002153792859346 16.44937379434526  C 18.103492510615993 15.959423088104547  18.19036176371678 15.231703215343966  18.262747667351963 14.26621206780132  C 18.349609544147576 13.286310655319893  18.429237832199956 11.996585823482775  18.501622875388776 10.397041203185976  Z " stroke-width="0" stroke-dasharray="0" stroke="rgba(121, 121, 121, 1)" fill="none" transform="matrix(1 0 0 1 1784 72 )" class="stroke" mask="url(#Clip4672)" />
  </g>
</svg>