<?xml version="1.0" encoding="utf-8"?>
<svg version="1.1" xmlns:xlink="http://www.w3.org/1999/xlink" width="22px" height="21px" xmlns="http://www.w3.org/2000/svg">
  <defs>
    <pattern id="BGPattern" patternUnits="userSpaceOnUse" alignment="0 0" imageRepeat="None" />
    <mask fill="white" id="Clip4693">
      <path d="M 5.541088389400275 2.507464059300785  C 5.541088389400275 2.507464059300785  7.11419525653187 2.14581029442358  7.11419525653187 2.14581029442358  C 7.771612285872868 5.071182156113477  8.702956109620606 7.691163391947969  9.908220663412436 10.005743942363491  C 11.129138270182537 12.320324492779013  12.72571888566361 14.265212968488246  14.697969973686604 15.840413441219303  C 16.670221994688465 17.39954040796663  19.104234180410295 18.53272287921133  22 19.239955765293274  C 21.859124855642722 19.368543558680102  21.710422018572725 19.537312811709604  21.55389428772661 19.746267970349606  C 21.397365623901628 19.95522315892879  21.2486637198105 20.164186490964187  21.107788575453224 20.373141649604186  C 20.982566950563655 20.582096808244188  20.872998845141794 20.774967203769805  20.779081460251028 20.951775410320703  C 18.54073267000232 20.34098338050607  16.591962794159755 19.48909834147223  14.93276716782899 18.396102090199385  C 13.273571541498221 17.287032452699524  11.841335153829554 15.952925348457807  10.636071066527162 14.393798381710482  C 9.430806046245896 12.834671175449738  8.413379994151072 11.058551997678773  7.583782180985687 9.065441087911005  C 6.769837420798575 7.072330178143237  6.088935913851106 4.886338154624388  5.541088389400275 2.507464059300785  Z M 1.291362176290259 2  L 1.291362176290259 0  L 14.439699031194742 0  L 14.439699031194742 2  L 1.291362176290259 2  Z M 18.759868880846046 6.268660148251962  C 18.759868880846046 6.268660148251962  18.759868880846046 5.931118678214407  18.759868880846046 5.931118678214407  L 19.11205720822867 5.931118678214407  L 19.41729057508139 5.83466949885581  C 19.41729057508139 5.83466949885581  20.614727902649932 6.34099703277091  20.614727902649932 6.34099703277091  C 20.129491190643886 8.462695511381678  19.4251126699209 10.3352502162464  18.501597938354184 11.958671206928644  C 17.593736726255177 13.582091958097468  16.51369706277896 14.980479074739135  15.261474283031184 16.153842616417208  C 14.024903156793375 17.31113277186826  12.663108539708258 18.28358485378732  11.17609416369131 19.071185030274496  C 9.689078854695495 19.874858772623753  8.12379734782945 20.51779583842014  6.480254774476955 21  C 6.417643495542736 20.8231917934491  6.323732175014623 20.63834485792064  6.198510083635618 20.445463205264367  C 6.0889405787454525 20.252581552608095  5.971544314121433 20.059695828223713  5.846321756252994 19.86681411568909  C 5.721099664873989 19.67393243309364  5.595874774558379 19.51320201382882  5.47065221668994 19.384614205472403  C 7.020278338130542 18.998850840281502  8.49946968632911 18.452348942308745  9.908220663412436 17.745116116105155  C 11.316972106985196 17.021809724039482  12.608325886465632 16.129730561090977  13.782284800790352 15.068881321785593  C 14.971896301603909 13.99195857649648  15.989330284019124 12.722162142372252  16.83458115016278 11.259475972013883  C 17.679832016306435 9.796789562142099  18.32159086128538 8.133183010149894  18.759868880846046 6.268660148251962  Z M 14.040555743282212 0.313444504056673  C 14.040555743282212 0.313444504056673  14.040555743282212 0.09644917935859676  14.040555743282212 0.09644917935859676  L 14.251864261413216 0.09644917935859676  L 14.557097628265934 0  C 14.557097628265934 0  15.895407301255146 0.24110761953772541  15.895407301255146 0.24110761953772541  C 15.738879570409031 1.060854748114003  15.543220839830258 1.9770500979952041  15.30842924356109 2.989679298376236  C 15.07363764729192 3.9862342742332832  14.831023956183241 4.998850061862894  14.580578840446364 6.027552528714237  C 14.330134657688356 7.05625499556558  14.079684877057133 8.012629679407867  13.829239761320258 8.896670352892228  C 13.829239761320258 8.896670352892228  12.02134316387723 8.607353472533969  12.02134316387723 8.607353472533969  C 12.209176067701017 7.948340924768151  12.397013636419153 7.241108577591398  12.58484747322181 6.485655472950039  C 12.788333896513306 5.714129101838369  12.976164001400486 4.950640801042362  13.148344318735438 4.19518673834733  C 13.336178155538095 3.4236603672356596  13.500537311012408 2.700349963320231  13.641412455369684 2.0252641490841006  C 13.797940186215797 1.3501783348479706  13.93098670488148 0.7795749800177377  14.040555743282212 0.313444504056673  Z M 13.312697876336536 7.642938323241835  L 13.688367415899588 5.931118678214407  L 19.182493380939004 5.931118678214407  L 19.182493380939004 7.642938323241835  L 13.312697876336536 7.642938323241835  Z M 5.423697256160036 3.881757563149424  C 5.423697256160036 3.881757563149424  5.423697256160036 0.6509859740942288  5.423697256160036 0.6509859740942288  L 7.231593853603062 0.6509859740942288  C 7.231593853603062 0.6509859740942288  7.231593853603062 3.881757563149424  7.231593853603062 3.881757563149424  C 7.231593853603062 4.8461660060658485  7.200287747646518 5.874859850434135  7.137676468712299 6.967855383166723  C 7.075065189778081 8.044778607482673  6.934190978399673 9.161883081867055  6.71505196861934 10.319173117561398  C 6.495912958839008 11.460389886785428  6.167201178742467 12.617688784476245  5.728923159181801 13.791052326154318  C 5.306297726109974 14.96441586783239  4.734972021660037 16.12169943666444  4.014943946629537 17.262916205888473  C 3.29491563835432 18.388059349372064  2.3870574584366393 19.47302423670495  1.291362176290259 20.517800089783314  C 1.1974454911336474 20.37313877544317  1.072220600818036 20.204369537383254  0.9156926367272051 20.011487884726982  C 0.7748176089922878 19.818606172192357  0.6182864377865942 19.62572047774715  0.4461057122733879 19.432838795151703  C 0.2895778648049158 19.256030588600805  0.14087514435727594 19.119401289377716  0 19.022960440595195  C 1.2678759493484075 17.817449886949667  2.261831985009235 16.56371570167851  2.981860176662093 15.26176435164402  C 3.717541304670865 13.943739495625799  4.25756066991954 12.617686868368901  4.601922004323593 11.283588266853533  C 4.946283571972365 9.949489904851584  5.1654272466470434 8.655576625132758  5.259343698558938 7.401846032562876  C 5.368913203449104 6.132041215469008  5.423697256160036 4.9586798294117  5.423697256160036 3.881757563149424  Z " fill-rule="evenodd" />
    </mask>
  </defs>
  <g transform="matrix(1 0 0 1 -213 -644 )">
    <path d="M 5.541088389400275 2.507464059300785  C 5.541088389400275 2.507464059300785  7.11419525653187 2.14581029442358  7.11419525653187 2.14581029442358  C 7.771612285872868 5.071182156113477  8.702956109620606 7.691163391947969  9.908220663412436 10.005743942363491  C 11.129138270182537 12.320324492779013  12.72571888566361 14.265212968488246  14.697969973686604 15.840413441219303  C 16.670221994688465 17.39954040796663  19.104234180410295 18.53272287921133  22 19.239955765293274  C 21.859124855642722 19.368543558680102  21.710422018572725 19.537312811709604  21.55389428772661 19.746267970349606  C 21.397365623901628 19.95522315892879  21.2486637198105 20.164186490964187  21.107788575453224 20.373141649604186  C 20.982566950563655 20.582096808244188  20.872998845141794 20.774967203769805  20.779081460251028 20.951775410320703  C 18.54073267000232 20.34098338050607  16.591962794159755 19.48909834147223  14.93276716782899 18.396102090199385  C 13.273571541498221 17.287032452699524  11.841335153829554 15.952925348457807  10.636071066527162 14.393798381710482  C 9.430806046245896 12.834671175449738  8.413379994151072 11.058551997678773  7.583782180985687 9.065441087911005  C 6.769837420798575 7.072330178143237  6.088935913851106 4.886338154624388  5.541088389400275 2.507464059300785  Z M 1.291362176290259 2  L 1.291362176290259 0  L 14.439699031194742 0  L 14.439699031194742 2  L 1.291362176290259 2  Z M 18.759868880846046 6.268660148251962  C 18.759868880846046 6.268660148251962  18.759868880846046 5.931118678214407  18.759868880846046 5.931118678214407  L 19.11205720822867 5.931118678214407  L 19.41729057508139 5.83466949885581  C 19.41729057508139 5.83466949885581  20.614727902649932 6.34099703277091  20.614727902649932 6.34099703277091  C 20.129491190643886 8.462695511381678  19.4251126699209 10.3352502162464  18.501597938354184 11.958671206928644  C 17.593736726255177 13.582091958097468  16.51369706277896 14.980479074739135  15.261474283031184 16.153842616417208  C 14.024903156793375 17.31113277186826  12.663108539708258 18.28358485378732  11.17609416369131 19.071185030274496  C 9.689078854695495 19.874858772623753  8.12379734782945 20.51779583842014  6.480254774476955 21  C 6.417643495542736 20.8231917934491  6.323732175014623 20.63834485792064  6.198510083635618 20.445463205264367  C 6.0889405787454525 20.252581552608095  5.971544314121433 20.059695828223713  5.846321756252994 19.86681411568909  C 5.721099664873989 19.67393243309364  5.595874774558379 19.51320201382882  5.47065221668994 19.384614205472403  C 7.020278338130542 18.998850840281502  8.49946968632911 18.452348942308745  9.908220663412436 17.745116116105155  C 11.316972106985196 17.021809724039482  12.608325886465632 16.129730561090977  13.782284800790352 15.068881321785593  C 14.971896301603909 13.99195857649648  15.989330284019124 12.722162142372252  16.83458115016278 11.259475972013883  C 17.679832016306435 9.796789562142099  18.32159086128538 8.133183010149894  18.759868880846046 6.268660148251962  Z M 14.040555743282212 0.313444504056673  C 14.040555743282212 0.313444504056673  14.040555743282212 0.09644917935859676  14.040555743282212 0.09644917935859676  L 14.251864261413216 0.09644917935859676  L 14.557097628265934 0  C 14.557097628265934 0  15.895407301255146 0.24110761953772541  15.895407301255146 0.24110761953772541  C 15.738879570409031 1.060854748114003  15.543220839830258 1.9770500979952041  15.30842924356109 2.989679298376236  C 15.07363764729192 3.9862342742332832  14.831023956183241 4.998850061862894  14.580578840446364 6.027552528714237  C 14.330134657688356 7.05625499556558  14.079684877057133 8.012629679407867  13.829239761320258 8.896670352892228  C 13.829239761320258 8.896670352892228  12.02134316387723 8.607353472533969  12.02134316387723 8.607353472533969  C 12.209176067701017 7.948340924768151  12.397013636419153 7.241108577591398  12.58484747322181 6.485655472950039  C 12.788333896513306 5.714129101838369  12.976164001400486 4.950640801042362  13.148344318735438 4.19518673834733  C 13.336178155538095 3.4236603672356596  13.500537311012408 2.700349963320231  13.641412455369684 2.0252641490841006  C 13.797940186215797 1.3501783348479706  13.93098670488148 0.7795749800177377  14.040555743282212 0.313444504056673  Z M 13.312697876336536 7.642938323241835  L 13.688367415899588 5.931118678214407  L 19.182493380939004 5.931118678214407  L 19.182493380939004 7.642938323241835  L 13.312697876336536 7.642938323241835  Z M 5.423697256160036 3.881757563149424  C 5.423697256160036 3.881757563149424  5.423697256160036 0.6509859740942288  5.423697256160036 0.6509859740942288  L 7.231593853603062 0.6509859740942288  C 7.231593853603062 0.6509859740942288  7.231593853603062 3.881757563149424  7.231593853603062 3.881757563149424  C 7.231593853603062 4.8461660060658485  7.200287747646518 5.874859850434135  7.137676468712299 6.967855383166723  C 7.075065189778081 8.044778607482673  6.934190978399673 9.161883081867055  6.71505196861934 10.319173117561398  C 6.495912958839008 11.460389886785428  6.167201178742467 12.617688784476245  5.728923159181801 13.791052326154318  C 5.306297726109974 14.96441586783239  4.734972021660037 16.12169943666444  4.014943946629537 17.262916205888473  C 3.29491563835432 18.388059349372064  2.3870574584366393 19.47302423670495  1.291362176290259 20.517800089783314  C 1.1974454911336474 20.37313877544317  1.072220600818036 20.204369537383254  0.9156926367272051 20.011487884726982  C 0.7748176089922878 19.818606172192357  0.6182864377865942 19.62572047774715  0.4461057122733879 19.432838795151703  C 0.2895778648049158 19.256030588600805  0.14087514435727594 19.119401289377716  0 19.022960440595195  C 1.2678759493484075 17.817449886949667  2.261831985009235 16.56371570167851  2.981860176662093 15.26176435164402  C 3.717541304670865 13.943739495625799  4.25756066991954 12.617686868368901  4.601922004323593 11.283588266853533  C 4.946283571972365 9.949489904851584  5.1654272466470434 8.655576625132758  5.259343698558938 7.401846032562876  C 5.368913203449104 6.132041215469008  5.423697256160036 4.9586798294117  5.423697256160036 3.881757563149424  Z " fill-rule="nonzero" fill="rgba(0, 0, 0, 1)" stroke="none" transform="matrix(1 0 0 1 213 644 )" class="fill" />
    <path d="M 5.541088389400275 2.507464059300785  C 5.541088389400275 2.507464059300785  7.11419525653187 2.14581029442358  7.11419525653187 2.14581029442358  C 7.771612285872868 5.071182156113477  8.702956109620606 7.691163391947969  9.908220663412436 10.005743942363491  C 11.129138270182537 12.320324492779013  12.72571888566361 14.265212968488246  14.697969973686604 15.840413441219303  C 16.670221994688465 17.39954040796663  19.104234180410295 18.53272287921133  22 19.239955765293274  C 21.859124855642722 19.368543558680102  21.710422018572725 19.537312811709604  21.55389428772661 19.746267970349606  C 21.397365623901628 19.95522315892879  21.2486637198105 20.164186490964187  21.107788575453224 20.373141649604186  C 20.982566950563655 20.582096808244188  20.872998845141794 20.774967203769805  20.779081460251028 20.951775410320703  C 18.54073267000232 20.34098338050607  16.591962794159755 19.48909834147223  14.93276716782899 18.396102090199385  C 13.273571541498221 17.287032452699524  11.841335153829554 15.952925348457807  10.636071066527162 14.393798381710482  C 9.430806046245896 12.834671175449738  8.413379994151072 11.058551997678773  7.583782180985687 9.065441087911005  C 6.769837420798575 7.072330178143237  6.088935913851106 4.886338154624388  5.541088389400275 2.507464059300785  Z " stroke-width="0" stroke-dasharray="0" stroke="rgba(121, 121, 121, 1)" fill="none" transform="matrix(1 0 0 1 213 644 )" class="stroke" mask="url(#Clip4693)" />
    <path d="M 1.291362176290259 2  L 1.291362176290259 0  L 14.439699031194742 0  L 14.439699031194742 2  L 1.291362176290259 2  Z " stroke-width="0" stroke-dasharray="0" stroke="rgba(121, 121, 121, 1)" fill="none" transform="matrix(1 0 0 1 213 644 )" class="stroke" mask="url(#Clip4693)" />
    <path d="M 18.759868880846046 6.268660148251962  C 18.759868880846046 6.268660148251962  18.759868880846046 5.931118678214407  18.759868880846046 5.931118678214407  L 19.11205720822867 5.931118678214407  L 19.41729057508139 5.83466949885581  C 19.41729057508139 5.83466949885581  20.614727902649932 6.34099703277091  20.614727902649932 6.34099703277091  C 20.129491190643886 8.462695511381678  19.4251126699209 10.3352502162464  18.501597938354184 11.958671206928644  C 17.593736726255177 13.582091958097468  16.51369706277896 14.980479074739135  15.261474283031184 16.153842616417208  C 14.024903156793375 17.31113277186826  12.663108539708258 18.28358485378732  11.17609416369131 19.071185030274496  C 9.689078854695495 19.874858772623753  8.12379734782945 20.51779583842014  6.480254774476955 21  C 6.417643495542736 20.8231917934491  6.323732175014623 20.63834485792064  6.198510083635618 20.445463205264367  C 6.0889405787454525 20.252581552608095  5.971544314121433 20.059695828223713  5.846321756252994 19.86681411568909  C 5.721099664873989 19.67393243309364  5.595874774558379 19.51320201382882  5.47065221668994 19.384614205472403  C 7.020278338130542 18.998850840281502  8.49946968632911 18.452348942308745  9.908220663412436 17.745116116105155  C 11.316972106985196 17.021809724039482  12.608325886465632 16.129730561090977  13.782284800790352 15.068881321785593  C 14.971896301603909 13.99195857649648  15.989330284019124 12.722162142372252  16.83458115016278 11.259475972013883  C 17.679832016306435 9.796789562142099  18.32159086128538 8.133183010149894  18.759868880846046 6.268660148251962  Z " stroke-width="0" stroke-dasharray="0" stroke="rgba(121, 121, 121, 1)" fill="none" transform="matrix(1 0 0 1 213 644 )" class="stroke" mask="url(#Clip4693)" />
    <path d="M 14.040555743282212 0.313444504056673  C 14.040555743282212 0.313444504056673  14.040555743282212 0.09644917935859676  14.040555743282212 0.09644917935859676  L 14.251864261413216 0.09644917935859676  L 14.557097628265934 0  C 14.557097628265934 0  15.895407301255146 0.24110761953772541  15.895407301255146 0.24110761953772541  C 15.738879570409031 1.060854748114003  15.543220839830258 1.9770500979952041  15.30842924356109 2.989679298376236  C 15.07363764729192 3.9862342742332832  14.831023956183241 4.998850061862894  14.580578840446364 6.027552528714237  C 14.330134657688356 7.05625499556558  14.079684877057133 8.012629679407867  13.829239761320258 8.896670352892228  C 13.829239761320258 8.896670352892228  12.02134316387723 8.607353472533969  12.02134316387723 8.607353472533969  C 12.209176067701017 7.948340924768151  12.397013636419153 7.241108577591398  12.58484747322181 6.485655472950039  C 12.788333896513306 5.714129101838369  12.976164001400486 4.950640801042362  13.148344318735438 4.19518673834733  C 13.336178155538095 3.4236603672356596  13.500537311012408 2.700349963320231  13.641412455369684 2.0252641490841006  C 13.797940186215797 1.3501783348479706  13.93098670488148 0.7795749800177377  14.040555743282212 0.313444504056673  Z " stroke-width="0" stroke-dasharray="0" stroke="rgba(121, 121, 121, 1)" fill="none" transform="matrix(1 0 0 1 213 644 )" class="stroke" mask="url(#Clip4693)" />
    <path d="M 13.312697876336536 7.642938323241835  L 13.688367415899588 5.931118678214407  L 19.182493380939004 5.931118678214407  L 19.182493380939004 7.642938323241835  L 13.312697876336536 7.642938323241835  Z " stroke-width="0" stroke-dasharray="0" stroke="rgba(121, 121, 121, 1)" fill="none" transform="matrix(1 0 0 1 213 644 )" class="stroke" mask="url(#Clip4693)" />
    <path d="M 5.423697256160036 3.881757563149424  C 5.423697256160036 3.881757563149424  5.423697256160036 0.6509859740942288  5.423697256160036 0.6509859740942288  L 7.231593853603062 0.6509859740942288  C 7.231593853603062 0.6509859740942288  7.231593853603062 3.881757563149424  7.231593853603062 3.881757563149424  C 7.231593853603062 4.8461660060658485  7.200287747646518 5.874859850434135  7.137676468712299 6.967855383166723  C 7.075065189778081 8.044778607482673  6.934190978399673 9.161883081867055  6.71505196861934 10.319173117561398  C 6.495912958839008 11.460389886785428  6.167201178742467 12.617688784476245  5.728923159181801 13.791052326154318  C 5.306297726109974 14.96441586783239  4.734972021660037 16.12169943666444  4.014943946629537 17.262916205888473  C 3.29491563835432 18.388059349372064  2.3870574584366393 19.47302423670495  1.291362176290259 20.517800089783314  C 1.1974454911336474 20.37313877544317  1.072220600818036 20.204369537383254  0.9156926367272051 20.011487884726982  C 0.7748176089922878 19.818606172192357  0.6182864377865942 19.62572047774715  0.4461057122733879 19.432838795151703  C 0.2895778648049158 19.256030588600805  0.14087514435727594 19.119401289377716  0 19.022960440595195  C 1.2678759493484075 17.817449886949667  2.261831985009235 16.56371570167851  2.981860176662093 15.26176435164402  C 3.717541304670865 13.943739495625799  4.25756066991954 12.617686868368901  4.601922004323593 11.283588266853533  C 4.946283571972365 9.949489904851584  5.1654272466470434 8.655576625132758  5.259343698558938 7.401846032562876  C 5.368913203449104 6.132041215469008  5.423697256160036 4.9586798294117  5.423697256160036 3.881757563149424  Z " stroke-width="0" stroke-dasharray="0" stroke="rgba(121, 121, 121, 1)" fill="none" transform="matrix(1 0 0 1 213 644 )" class="stroke" mask="url(#Clip4693)" />
  </g>
</svg>