<?xml version="1.0" encoding="utf-8"?>
<svg version="1.1" xmlns:xlink="http://www.w3.org/1999/xlink" width="23px" height="22px" xmlns="http://www.w3.org/2000/svg">
  <defs>
    <pattern id="BGPattern" patternUnits="userSpaceOnUse" alignment="0 0" imageRepeat="None" />
    <mask fill="white" id="Clip4712">
      <path d="M 11.305495554226342 18.272427719292317  C 11.305495554226342 18.272427719292317  11.305495554226342 0.21927260233078177  11.305495554226342 0.21927260233078177  L 13.153280060217886 0.21927260233078177  C 13.153280060217886 0.21927260233078177  13.153280060217886 18.32115840641669  13.153280060217886 18.32115840641669  C 13.153280060217886 18.775938904196728  13.193796667181923 19.12514286194568  13.274839542182763 19.368775241217325  C 13.355882417183604 19.596165459853967  13.50985769659863 19.75858269459104  13.736777939822439 19.85603564327436  C 13.97990656482496 19.93724643888602  14.328404646051897 19.977862361085297  14.782245132499513 19.977862361085297  C 14.944331848608469 19.977862361085297  15.236069195123427 19.977862361085297  15.657491951906339 19.977862361085297  C 16.09512405657524 19.977862361085297  16.57329305646099 19.977862361085297  17.09196803613073 19.977862361085297  C 17.626851397579188 19.977862361085297  18.12120269434718 19.977862361085297  18.575043180794797 19.977862361085297  C 19.02888366724241 19.977862361085297  19.35304647228028 19.977862361085297  19.547549951946664 19.977862361085297  C 20.00139043839428 19.977862361085297  20.333675307306123 19.856045566381937  20.544387168751218 19.612413187110292  C 20.771307411975027 19.352538647203644  20.933404755264025 18.897748740623435  21.030656012043575 18.24806237573013  C 21.14411661670912 17.59837607134358  21.225149830637193 16.688827177134204  21.273774975973332 15.519391732427607  C 21.50069521919714 15.681813399284374  21.776250268829852 15.844230709654887  22.100422734940487 16.006652134484643  C 22.44080261672256 16.152831610453035  22.74066202711149 16.25027870510795  23 16.299005277773084  C 22.91895712499916 17.63086226832294  22.773072994025256 18.694720688944418  22.56236113258016 19.49058646929936  C 22.36785765291378 20.27021005876592  22.04369484787591 20.830570424448496  21.589854361428294 21.171655767530147  C 21.15222225675939 21.512741110611802  20.503864765143522 21.68328151314937  19.644809903691705 21.68328151314937  C 19.51514091724745 21.68328151314937  19.280133390011628 21.68328151314937  18.939752542122278 21.68328151314937  C 18.61558104211892 21.68328151314937  18.22656635392794 21.68328151314937  17.772725867480325 21.68328151314937  C 17.33509376281142 21.68328151314937  16.897472285322564 21.68328151314937  16.45984018065366 21.68328151314937  C 16.022208075984757 21.68328151314937  15.63319338779378 21.68328151314937  15.292813506011708 21.68328151314937  C 14.968642006008347 21.68328151314937  14.749815809547492 21.68328151314937  14.63635520488195 21.68328151314937  C 13.793508725208847 21.68328151314937  13.12896990281801 21.585834297480947  12.642711686705692 21.39092836986093  C 12.15645443670065 21.196022442240913  11.80795635547371 20.846818423985212  11.597244494028617 20.343311535060295  C 11.402741497415873 19.856046776517008  11.305495554226342 19.16574640295051  11.305495554226342 18.272427719292317  Z M 17.991545301190243 6.261351154970512  C 18.94785238552889 5.5629386409593495  19.766366487334754 4.8970080884548  20.447127217006177 4.263563369889093  C 20.447127217006177 4.263563369889093  21.76004381926569 5.822821440037852  21.76004381926569 5.822821440037852  C 20.94961410315001 6.504992005187651  20.033823625775405 7.17903046266412  19.012682048214636 7.844959078952557  C 17.991540470653863 8.4946452623256  16.921774713864227 9.128098693863814  15.8033818795239 9.74530097951413  C 14.701198393069566 10.362502781110416  13.615219423964838 10.947217296605778  12.54545173496065 11.49945081870258  C 12.480618207845799 11.288302579180678  12.36715953539481 11.052792384474785  12.205072819285855 10.792917814314762  C 12.059195451062886 10.516801295293375  11.921432417855678 10.27316770588666  11.7917643975187 10.062019466364758  C 12.829114356858186 9.509786428321982  13.88266786744 8.908825607479004  14.952434590336912 8.259138940051933  C 16.022201313233822 7.609452756678889  17.0352382168516 6.943521720120313  17.991545301190243 6.261351154970512  Z M 5.178644156647154 3.776302967832058  C 5.924239138013886 2.5418983965314275  6.5644743242289625 1.2831304178847227  7.099358168731055 0  C 7.099358168731055 0  8.874213168630245 0.6090871198679711  8.874213168630245 0.6090871198679711  C 8.25828693218095 2.022154096751663  7.536987375078129 3.4108625068295626  6.710349277183739 4.775204605237218  C 5.883710937762529 6.139545735536817  4.992254770469713 7.422668408557089  4.035947927657888 8.624588114026935  C 3.0958497081515928 9.810265386581388  2.115238504583549 10.857877380841739  1.0940971685495957 11.767438618428834  C 1.0454714193964099 11.605016709545053  0.948194621155733 11.410122520235218  0.8023173133144705 11.182732331851952  C 0.6726486287787397 10.955342143468686  0.5348862597702849 10.727954859409587  0.3890088915473174 10.500564671026321  C 0.24313158370605473 10.25693253378169  0.11346012161190379 10.062022370688926  0 9.915842894720537  C 0.9400982798879988 9.136219184240469  1.847767478350796 8.226655042329204  2.723031325398372 7.187156761689113  C 3.61450391651489 6.131416532187657  4.433048933753604 4.994464622163267  5.178644156647154 3.776302967832058  Z M 4.303397337240327 22  L 4.303397337240327 6.383177872781449  L 6.102551867359351 4.580297346468623  L 6.126851397579188 4.629012543864096  L 6.126851397579188 22  L 4.303397337240327 22  Z " fill-rule="evenodd" />
    </mask>
  </defs>
  <g transform="matrix(1 0 0 1 -552 -612 )">
    <path d="M 11.305495554226342 18.272427719292317  C 11.305495554226342 18.272427719292317  11.305495554226342 0.21927260233078177  11.305495554226342 0.21927260233078177  L 13.153280060217886 0.21927260233078177  C 13.153280060217886 0.21927260233078177  13.153280060217886 18.32115840641669  13.153280060217886 18.32115840641669  C 13.153280060217886 18.775938904196728  13.193796667181923 19.12514286194568  13.274839542182763 19.368775241217325  C 13.355882417183604 19.596165459853967  13.50985769659863 19.75858269459104  13.736777939822439 19.85603564327436  C 13.97990656482496 19.93724643888602  14.328404646051897 19.977862361085297  14.782245132499513 19.977862361085297  C 14.944331848608469 19.977862361085297  15.236069195123427 19.977862361085297  15.657491951906339 19.977862361085297  C 16.09512405657524 19.977862361085297  16.57329305646099 19.977862361085297  17.09196803613073 19.977862361085297  C 17.626851397579188 19.977862361085297  18.12120269434718 19.977862361085297  18.575043180794797 19.977862361085297  C 19.02888366724241 19.977862361085297  19.35304647228028 19.977862361085297  19.547549951946664 19.977862361085297  C 20.00139043839428 19.977862361085297  20.333675307306123 19.856045566381937  20.544387168751218 19.612413187110292  C 20.771307411975027 19.352538647203644  20.933404755264025 18.897748740623435  21.030656012043575 18.24806237573013  C 21.14411661670912 17.59837607134358  21.225149830637193 16.688827177134204  21.273774975973332 15.519391732427607  C 21.50069521919714 15.681813399284374  21.776250268829852 15.844230709654887  22.100422734940487 16.006652134484643  C 22.44080261672256 16.152831610453035  22.74066202711149 16.25027870510795  23 16.299005277773084  C 22.91895712499916 17.63086226832294  22.773072994025256 18.694720688944418  22.56236113258016 19.49058646929936  C 22.36785765291378 20.27021005876592  22.04369484787591 20.830570424448496  21.589854361428294 21.171655767530147  C 21.15222225675939 21.512741110611802  20.503864765143522 21.68328151314937  19.644809903691705 21.68328151314937  C 19.51514091724745 21.68328151314937  19.280133390011628 21.68328151314937  18.939752542122278 21.68328151314937  C 18.61558104211892 21.68328151314937  18.22656635392794 21.68328151314937  17.772725867480325 21.68328151314937  C 17.33509376281142 21.68328151314937  16.897472285322564 21.68328151314937  16.45984018065366 21.68328151314937  C 16.022208075984757 21.68328151314937  15.63319338779378 21.68328151314937  15.292813506011708 21.68328151314937  C 14.968642006008347 21.68328151314937  14.749815809547492 21.68328151314937  14.63635520488195 21.68328151314937  C 13.793508725208847 21.68328151314937  13.12896990281801 21.585834297480947  12.642711686705692 21.39092836986093  C 12.15645443670065 21.196022442240913  11.80795635547371 20.846818423985212  11.597244494028617 20.343311535060295  C 11.402741497415873 19.856046776517008  11.305495554226342 19.16574640295051  11.305495554226342 18.272427719292317  Z M 17.991545301190243 6.261351154970512  C 18.94785238552889 5.5629386409593495  19.766366487334754 4.8970080884548  20.447127217006177 4.263563369889093  C 20.447127217006177 4.263563369889093  21.76004381926569 5.822821440037852  21.76004381926569 5.822821440037852  C 20.94961410315001 6.504992005187651  20.033823625775405 7.17903046266412  19.012682048214636 7.844959078952557  C 17.991540470653863 8.4946452623256  16.921774713864227 9.128098693863814  15.8033818795239 9.74530097951413  C 14.701198393069566 10.362502781110416  13.615219423964838 10.947217296605778  12.54545173496065 11.49945081870258  C 12.480618207845799 11.288302579180678  12.36715953539481 11.052792384474785  12.205072819285855 10.792917814314762  C 12.059195451062886 10.516801295293375  11.921432417855678 10.27316770588666  11.7917643975187 10.062019466364758  C 12.829114356858186 9.509786428321982  13.88266786744 8.908825607479004  14.952434590336912 8.259138940051933  C 16.022201313233822 7.609452756678889  17.0352382168516 6.943521720120313  17.991545301190243 6.261351154970512  Z M 5.178644156647154 3.776302967832058  C 5.924239138013886 2.5418983965314275  6.5644743242289625 1.2831304178847227  7.099358168731055 0  C 7.099358168731055 0  8.874213168630245 0.6090871198679711  8.874213168630245 0.6090871198679711  C 8.25828693218095 2.022154096751663  7.536987375078129 3.4108625068295626  6.710349277183739 4.775204605237218  C 5.883710937762529 6.139545735536817  4.992254770469713 7.422668408557089  4.035947927657888 8.624588114026935  C 3.0958497081515928 9.810265386581388  2.115238504583549 10.857877380841739  1.0940971685495957 11.767438618428834  C 1.0454714193964099 11.605016709545053  0.948194621155733 11.410122520235218  0.8023173133144705 11.182732331851952  C 0.6726486287787397 10.955342143468686  0.5348862597702849 10.727954859409587  0.3890088915473174 10.500564671026321  C 0.24313158370605473 10.25693253378169  0.11346012161190379 10.062022370688926  0 9.915842894720537  C 0.9400982798879988 9.136219184240469  1.847767478350796 8.226655042329204  2.723031325398372 7.187156761689113  C 3.61450391651489 6.131416532187657  4.433048933753604 4.994464622163267  5.178644156647154 3.776302967832058  Z M 4.303397337240327 22  L 4.303397337240327 6.383177872781449  L 6.102551867359351 4.580297346468623  L 6.126851397579188 4.629012543864096  L 6.126851397579188 22  L 4.303397337240327 22  Z " fill-rule="nonzero" fill="rgba(0, 0, 0, 1)" stroke="none" transform="matrix(1 0 0 1 552 612 )" class="fill" />
    <path d="M 11.305495554226342 18.272427719292317  C 11.305495554226342 18.272427719292317  11.305495554226342 0.21927260233078177  11.305495554226342 0.21927260233078177  L 13.153280060217886 0.21927260233078177  C 13.153280060217886 0.21927260233078177  13.153280060217886 18.32115840641669  13.153280060217886 18.32115840641669  C 13.153280060217886 18.775938904196728  13.193796667181923 19.12514286194568  13.274839542182763 19.368775241217325  C 13.355882417183604 19.596165459853967  13.50985769659863 19.75858269459104  13.736777939822439 19.85603564327436  C 13.97990656482496 19.93724643888602  14.328404646051897 19.977862361085297  14.782245132499513 19.977862361085297  C 14.944331848608469 19.977862361085297  15.236069195123427 19.977862361085297  15.657491951906339 19.977862361085297  C 16.09512405657524 19.977862361085297  16.57329305646099 19.977862361085297  17.09196803613073 19.977862361085297  C 17.626851397579188 19.977862361085297  18.12120269434718 19.977862361085297  18.575043180794797 19.977862361085297  C 19.02888366724241 19.977862361085297  19.35304647228028 19.977862361085297  19.547549951946664 19.977862361085297  C 20.00139043839428 19.977862361085297  20.333675307306123 19.856045566381937  20.544387168751218 19.612413187110292  C 20.771307411975027 19.352538647203644  20.933404755264025 18.897748740623435  21.030656012043575 18.24806237573013  C 21.14411661670912 17.59837607134358  21.225149830637193 16.688827177134204  21.273774975973332 15.519391732427607  C 21.50069521919714 15.681813399284374  21.776250268829852 15.844230709654887  22.100422734940487 16.006652134484643  C 22.44080261672256 16.152831610453035  22.74066202711149 16.25027870510795  23 16.299005277773084  C 22.91895712499916 17.63086226832294  22.773072994025256 18.694720688944418  22.56236113258016 19.49058646929936  C 22.36785765291378 20.27021005876592  22.04369484787591 20.830570424448496  21.589854361428294 21.171655767530147  C 21.15222225675939 21.512741110611802  20.503864765143522 21.68328151314937  19.644809903691705 21.68328151314937  C 19.51514091724745 21.68328151314937  19.280133390011628 21.68328151314937  18.939752542122278 21.68328151314937  C 18.61558104211892 21.68328151314937  18.22656635392794 21.68328151314937  17.772725867480325 21.68328151314937  C 17.33509376281142 21.68328151314937  16.897472285322564 21.68328151314937  16.45984018065366 21.68328151314937  C 16.022208075984757 21.68328151314937  15.63319338779378 21.68328151314937  15.292813506011708 21.68328151314937  C 14.968642006008347 21.68328151314937  14.749815809547492 21.68328151314937  14.63635520488195 21.68328151314937  C 13.793508725208847 21.68328151314937  13.12896990281801 21.585834297480947  12.642711686705692 21.39092836986093  C 12.15645443670065 21.196022442240913  11.80795635547371 20.846818423985212  11.597244494028617 20.343311535060295  C 11.402741497415873 19.856046776517008  11.305495554226342 19.16574640295051  11.305495554226342 18.272427719292317  Z " stroke-width="0" stroke-dasharray="0" stroke="rgba(121, 121, 121, 1)" fill="none" transform="matrix(1 0 0 1 552 612 )" class="stroke" mask="url(#Clip4712)" />
    <path d="M 17.991545301190243 6.261351154970512  C 18.94785238552889 5.5629386409593495  19.766366487334754 4.8970080884548  20.447127217006177 4.263563369889093  C 20.447127217006177 4.263563369889093  21.76004381926569 5.822821440037852  21.76004381926569 5.822821440037852  C 20.94961410315001 6.504992005187651  20.033823625775405 7.17903046266412  19.012682048214636 7.844959078952557  C 17.991540470653863 8.4946452623256  16.921774713864227 9.128098693863814  15.8033818795239 9.74530097951413  C 14.701198393069566 10.362502781110416  13.615219423964838 10.947217296605778  12.54545173496065 11.49945081870258  C 12.480618207845799 11.288302579180678  12.36715953539481 11.052792384474785  12.205072819285855 10.792917814314762  C 12.059195451062886 10.516801295293375  11.921432417855678 10.27316770588666  11.7917643975187 10.062019466364758  C 12.829114356858186 9.509786428321982  13.88266786744 8.908825607479004  14.952434590336912 8.259138940051933  C 16.022201313233822 7.609452756678889  17.0352382168516 6.943521720120313  17.991545301190243 6.261351154970512  Z " stroke-width="0" stroke-dasharray="0" stroke="rgba(121, 121, 121, 1)" fill="none" transform="matrix(1 0 0 1 552 612 )" class="stroke" mask="url(#Clip4712)" />
    <path d="M 5.178644156647154 3.776302967832058  C 5.924239138013886 2.5418983965314275  6.5644743242289625 1.2831304178847227  7.099358168731055 0  C 7.099358168731055 0  8.874213168630245 0.6090871198679711  8.874213168630245 0.6090871198679711  C 8.25828693218095 2.022154096751663  7.536987375078129 3.4108625068295626  6.710349277183739 4.775204605237218  C 5.883710937762529 6.139545735536817  4.992254770469713 7.422668408557089  4.035947927657888 8.624588114026935  C 3.0958497081515928 9.810265386581388  2.115238504583549 10.857877380841739  1.0940971685495957 11.767438618428834  C 1.0454714193964099 11.605016709545053  0.948194621155733 11.410122520235218  0.8023173133144705 11.182732331851952  C 0.6726486287787397 10.955342143468686  0.5348862597702849 10.727954859409587  0.3890088915473174 10.500564671026321  C 0.24313158370605473 10.25693253378169  0.11346012161190379 10.062022370688926  0 9.915842894720537  C 0.9400982798879988 9.136219184240469  1.847767478350796 8.226655042329204  2.723031325398372 7.187156761689113  C 3.61450391651489 6.131416532187657  4.433048933753604 4.994464622163267  5.178644156647154 3.776302967832058  Z " stroke-width="0" stroke-dasharray="0" stroke="rgba(121, 121, 121, 1)" fill="none" transform="matrix(1 0 0 1 552 612 )" class="stroke" mask="url(#Clip4712)" />
    <path d="M 4.303397337240327 22  L 4.303397337240327 6.383177872781449  L 6.102551867359351 4.580297346468623  L 6.126851397579188 4.629012543864096  L 6.126851397579188 22  L 4.303397337240327 22  Z " stroke-width="0" stroke-dasharray="0" stroke="rgba(121, 121, 121, 1)" fill="none" transform="matrix(1 0 0 1 552 612 )" class="stroke" mask="url(#Clip4712)" />
  </g>
</svg>