<?xml version="1.0" encoding="utf-8"?>
<svg version="1.1" xmlns:xlink="http://www.w3.org/1999/xlink" width="22px" height="21px" xmlns="http://www.w3.org/2000/svg">
  <defs>
    <pattern id="BGPattern" patternUnits="userSpaceOnUse" alignment="0 0" imageRepeat="None" />
    <mask fill="white" id="Clip4694">
      <path d="M 17.36455308432664 4  L 4.954291676205773 4  L 4.954291676205773 5.4162888410054  L 17.36455308432664 5.4162888410054  L 17.36455308432664 4  Z M 17.36455308432664 1.211537299735618  L 4.954291676205773 1.211537299735618  L 4.954291676205773 3  L 17.36455308432664 3  L 17.36455308432664 1.211537299735618  Z M 3.1638803027092006 7  L 3.1638803027092006 0  L 19.20401329969898 0  L 19.20401329969898 7  L 3.1638803027092006 7  Z M 0.29431644126025347 10  L 0.29431644126025347 8.148198519575493  L 22 8.148198519575493  L 22 10  L 0.29431644126025347 10  Z M 16.89855400149838 12  L 5.49386792018196 12  L 5.49386792018196 14.51470499391547  L 16.89855400149838 14.51470499391547  L 16.89855400149838 12  Z M 3.727980967623271 15.845030825395638  L 3.727980967623271 10.8325776820108  L 18.738014216870713 10.8325776820108  L 18.738014216870713 15.845030825395638  L 3.727980967623271 15.845030825395638  Z M 10.202899793671799 8.908369605555762  L 10.202899793671799 6.390279284125856  L 12.066888328316296 6.390279284125856  L 12.066888328316296 8.908369605555762  L 10.202899793671799 8.908369605555762  Z M 10.251952533881841 19.242080764550362  C 10.251952533881841 19.242080764550362  10.251952533881841 15.037329223280583  10.251952533881841 15.037329223280583  L 12.115944966860614 15.037329223280583  C 12.115944966860614 15.037329223280583  12.115944966860614 19.289596177248182  12.115944966860614 19.289596177248182  C 12.115944966860614 19.717197899907546  12.050540663524844 20.041852059295195  11.919734006020446 20.263571516931673  C 11.788927348516047 20.50112804918614  11.535490789653679 20.667415474244326  11.159422380266207 20.76243803994787  C 10.816055635254834 20.87329785726281  10.35005752701014 20.93664757168199  9.761429030115696 20.95248458730218  C 9.172800045929465 20.984158854533764  8.445188135384189 21  7.578595734938786 21  C 7.545894070562686 20.77828048336572  7.472315934831191 20.532802198422125  7.357860353160733 20.263571516931673  C 7.259755847324218 20.01017785106141  7.145301727529114 19.780540741082948  7.014495070024716 19.574658446561163  C 7.439615732330445 19.590495550678053  7.8402090499475845 19.598416152910072  8.216277459335057 19.598416152910072  C 8.608696944556472 19.614253257026963  8.952062714984276 19.614253257026963  9.24637720707739 19.598416152910072  C 9.54069121187872 19.598416152910072  9.736901198135321 19.598416152910072  9.83500619126362 19.598416152910072  C 10.014865101686278 19.582579048793182  10.129319221481381 19.550911743302077  10.17837147439964 19.5034004309514  C 10.227423727317897 19.455889118600727  10.251952533881841 19.368777582736044  10.251952533881841 19.242080764550362  Z M 16.653294198782444 18.339363440476635  C 15.8357540512553 17.959273000669047  15.059085014873919 17.62669820955048  14.32329878464113 17.341630394444238  C 14.32329878464113 17.341630394444238  15.52508507228575 16.343897348411836  15.52508507228575 16.343897348411836  C 16.24451973939281 16.5972910142821  17.013004222959204 16.90610402820351  17.83054437048635 17.270357275397508  C 18.648084518013494 17.618773565969114  19.424753554394876 17.983030677519057  20.160539784627662 18.363121146825545  C 20.896326014860453 18.727374512015142  21.509476496233855 19.075790448599946  22 19.408369605555762  C 22 19.408369605555762  20.724636551207457 20.54864888968162  20.724636551207457 20.54864888968162  C 20.266814224525625 20.216069732725803  19.678189138673673 19.85181259167696  18.958753496983043 19.455885018253582  C 18.239318829875984 19.075794578445993  17.470834346309587 18.703616805666236  16.653294198782444 18.339363440476635  Z M 4.3166099518095 17.484161529100724  C 4.986992609644195 17.119908163911127  5.567448492372377 16.747745435570536  6.057972483430307 16.36765505476075  C 6.057972483430307 16.36765505476075  7.725753955568912 17.009052712433437  7.725753955568912 17.009052712433437  C 7.18617722430094 17.46832870232438  6.548494525321098 17.91968226105149  5.8127087823800965 18.363121146825545  C 5.093273627981251 18.8065600031007  4.349314296290416 19.218325683603585  3.580826645327421 19.598416152910072  C 2.812338994364426 19.978506592717665  2.07655337324637 20.31108138383623  1.3734689292126285 20.59614919894247  C 1.275364179730221 20.485289499623136  1.1363813751941194 20.342763910759906  0.9565225865944081 20.168555794973  C 0.7930146301827468 20.01018475380409  0.6295071610628702 19.85181798997572  0.4659990828282628 19.693446978305712  C 0.30249112641660153 19.5350759666357  0.14715718513508436 19.40837649354899  0 19.31335388359709  C 0.719435215310318 19.075797351342622  1.4470474304129612 18.798651701910117  2.18283329517691 18.481909678570094  C 2.934970113951855 18.16516759623227  3.646227050328913 17.832577760674532  4.3166099518095 17.484161529100724  Z " fill-rule="evenodd" />
    </mask>
  </defs>
  <g transform="matrix(1 0 0 1 -189 -644 )">
    <path d="M 17.36455308432664 4  L 4.954291676205773 4  L 4.954291676205773 5.4162888410054  L 17.36455308432664 5.4162888410054  L 17.36455308432664 4  Z M 17.36455308432664 1.211537299735618  L 4.954291676205773 1.211537299735618  L 4.954291676205773 3  L 17.36455308432664 3  L 17.36455308432664 1.211537299735618  Z M 3.1638803027092006 7  L 3.1638803027092006 0  L 19.20401329969898 0  L 19.20401329969898 7  L 3.1638803027092006 7  Z M 0.29431644126025347 10  L 0.29431644126025347 8.148198519575493  L 22 8.148198519575493  L 22 10  L 0.29431644126025347 10  Z M 16.89855400149838 12  L 5.49386792018196 12  L 5.49386792018196 14.51470499391547  L 16.89855400149838 14.51470499391547  L 16.89855400149838 12  Z M 3.727980967623271 15.845030825395638  L 3.727980967623271 10.8325776820108  L 18.738014216870713 10.8325776820108  L 18.738014216870713 15.845030825395638  L 3.727980967623271 15.845030825395638  Z M 10.202899793671799 8.908369605555762  L 10.202899793671799 6.390279284125856  L 12.066888328316296 6.390279284125856  L 12.066888328316296 8.908369605555762  L 10.202899793671799 8.908369605555762  Z M 10.251952533881841 19.242080764550362  C 10.251952533881841 19.242080764550362  10.251952533881841 15.037329223280583  10.251952533881841 15.037329223280583  L 12.115944966860614 15.037329223280583  C 12.115944966860614 15.037329223280583  12.115944966860614 19.289596177248182  12.115944966860614 19.289596177248182  C 12.115944966860614 19.717197899907546  12.050540663524844 20.041852059295195  11.919734006020446 20.263571516931673  C 11.788927348516047 20.50112804918614  11.535490789653679 20.667415474244326  11.159422380266207 20.76243803994787  C 10.816055635254834 20.87329785726281  10.35005752701014 20.93664757168199  9.761429030115696 20.95248458730218  C 9.172800045929465 20.984158854533764  8.445188135384189 21  7.578595734938786 21  C 7.545894070562686 20.77828048336572  7.472315934831191 20.532802198422125  7.357860353160733 20.263571516931673  C 7.259755847324218 20.01017785106141  7.145301727529114 19.780540741082948  7.014495070024716 19.574658446561163  C 7.439615732330445 19.590495550678053  7.8402090499475845 19.598416152910072  8.216277459335057 19.598416152910072  C 8.608696944556472 19.614253257026963  8.952062714984276 19.614253257026963  9.24637720707739 19.598416152910072  C 9.54069121187872 19.598416152910072  9.736901198135321 19.598416152910072  9.83500619126362 19.598416152910072  C 10.014865101686278 19.582579048793182  10.129319221481381 19.550911743302077  10.17837147439964 19.5034004309514  C 10.227423727317897 19.455889118600727  10.251952533881841 19.368777582736044  10.251952533881841 19.242080764550362  Z M 16.653294198782444 18.339363440476635  C 15.8357540512553 17.959273000669047  15.059085014873919 17.62669820955048  14.32329878464113 17.341630394444238  C 14.32329878464113 17.341630394444238  15.52508507228575 16.343897348411836  15.52508507228575 16.343897348411836  C 16.24451973939281 16.5972910142821  17.013004222959204 16.90610402820351  17.83054437048635 17.270357275397508  C 18.648084518013494 17.618773565969114  19.424753554394876 17.983030677519057  20.160539784627662 18.363121146825545  C 20.896326014860453 18.727374512015142  21.509476496233855 19.075790448599946  22 19.408369605555762  C 22 19.408369605555762  20.724636551207457 20.54864888968162  20.724636551207457 20.54864888968162  C 20.266814224525625 20.216069732725803  19.678189138673673 19.85181259167696  18.958753496983043 19.455885018253582  C 18.239318829875984 19.075794578445993  17.470834346309587 18.703616805666236  16.653294198782444 18.339363440476635  Z M 4.3166099518095 17.484161529100724  C 4.986992609644195 17.119908163911127  5.567448492372377 16.747745435570536  6.057972483430307 16.36765505476075  C 6.057972483430307 16.36765505476075  7.725753955568912 17.009052712433437  7.725753955568912 17.009052712433437  C 7.18617722430094 17.46832870232438  6.548494525321098 17.91968226105149  5.8127087823800965 18.363121146825545  C 5.093273627981251 18.8065600031007  4.349314296290416 19.218325683603585  3.580826645327421 19.598416152910072  C 2.812338994364426 19.978506592717665  2.07655337324637 20.31108138383623  1.3734689292126285 20.59614919894247  C 1.275364179730221 20.485289499623136  1.1363813751941194 20.342763910759906  0.9565225865944081 20.168555794973  C 0.7930146301827468 20.01018475380409  0.6295071610628702 19.85181798997572  0.4659990828282628 19.693446978305712  C 0.30249112641660153 19.5350759666357  0.14715718513508436 19.40837649354899  0 19.31335388359709  C 0.719435215310318 19.075797351342622  1.4470474304129612 18.798651701910117  2.18283329517691 18.481909678570094  C 2.934970113951855 18.16516759623227  3.646227050328913 17.832577760674532  4.3166099518095 17.484161529100724  Z " fill-rule="nonzero" fill="rgba(0, 0, 0, 1)" stroke="none" transform="matrix(1 0 0 1 189 644 )" class="fill" />
    <path d="M 17.36455308432664 4  L 4.954291676205773 4  L 4.954291676205773 5.4162888410054  L 17.36455308432664 5.4162888410054  L 17.36455308432664 4  Z " stroke-width="0" stroke-dasharray="0" stroke="rgba(121, 121, 121, 1)" fill="none" transform="matrix(1 0 0 1 189 644 )" class="stroke" mask="url(#Clip4694)" />
    <path d="M 17.36455308432664 1.211537299735618  L 4.954291676205773 1.211537299735618  L 4.954291676205773 3  L 17.36455308432664 3  L 17.36455308432664 1.211537299735618  Z " stroke-width="0" stroke-dasharray="0" stroke="rgba(121, 121, 121, 1)" fill="none" transform="matrix(1 0 0 1 189 644 )" class="stroke" mask="url(#Clip4694)" />
    <path d="M 3.1638803027092006 7  L 3.1638803027092006 0  L 19.20401329969898 0  L 19.20401329969898 7  L 3.1638803027092006 7  Z " stroke-width="0" stroke-dasharray="0" stroke="rgba(121, 121, 121, 1)" fill="none" transform="matrix(1 0 0 1 189 644 )" class="stroke" mask="url(#Clip4694)" />
    <path d="M 0.29431644126025347 10  L 0.29431644126025347 8.148198519575493  L 22 8.148198519575493  L 22 10  L 0.29431644126025347 10  Z " stroke-width="0" stroke-dasharray="0" stroke="rgba(121, 121, 121, 1)" fill="none" transform="matrix(1 0 0 1 189 644 )" class="stroke" mask="url(#Clip4694)" />
    <path d="M 16.89855400149838 12  L 5.49386792018196 12  L 5.49386792018196 14.51470499391547  L 16.89855400149838 14.51470499391547  L 16.89855400149838 12  Z " stroke-width="0" stroke-dasharray="0" stroke="rgba(121, 121, 121, 1)" fill="none" transform="matrix(1 0 0 1 189 644 )" class="stroke" mask="url(#Clip4694)" />
    <path d="M 3.727980967623271 15.845030825395638  L 3.727980967623271 10.8325776820108  L 18.738014216870713 10.8325776820108  L 18.738014216870713 15.845030825395638  L 3.727980967623271 15.845030825395638  Z " stroke-width="0" stroke-dasharray="0" stroke="rgba(121, 121, 121, 1)" fill="none" transform="matrix(1 0 0 1 189 644 )" class="stroke" mask="url(#Clip4694)" />
    <path d="M 10.202899793671799 8.908369605555762  L 10.202899793671799 6.390279284125856  L 12.066888328316296 6.390279284125856  L 12.066888328316296 8.908369605555762  L 10.202899793671799 8.908369605555762  Z " stroke-width="0" stroke-dasharray="0" stroke="rgba(121, 121, 121, 1)" fill="none" transform="matrix(1 0 0 1 189 644 )" class="stroke" mask="url(#Clip4694)" />
    <path d="M 10.251952533881841 19.242080764550362  C 10.251952533881841 19.242080764550362  10.251952533881841 15.037329223280583  10.251952533881841 15.037329223280583  L 12.115944966860614 15.037329223280583  C 12.115944966860614 15.037329223280583  12.115944966860614 19.289596177248182  12.115944966860614 19.289596177248182  C 12.115944966860614 19.717197899907546  12.050540663524844 20.041852059295195  11.919734006020446 20.263571516931673  C 11.788927348516047 20.50112804918614  11.535490789653679 20.667415474244326  11.159422380266207 20.76243803994787  C 10.816055635254834 20.87329785726281  10.35005752701014 20.93664757168199  9.761429030115696 20.95248458730218  C 9.172800045929465 20.984158854533764  8.445188135384189 21  7.578595734938786 21  C 7.545894070562686 20.77828048336572  7.472315934831191 20.532802198422125  7.357860353160733 20.263571516931673  C 7.259755847324218 20.01017785106141  7.145301727529114 19.780540741082948  7.014495070024716 19.574658446561163  C 7.439615732330445 19.590495550678053  7.8402090499475845 19.598416152910072  8.216277459335057 19.598416152910072  C 8.608696944556472 19.614253257026963  8.952062714984276 19.614253257026963  9.24637720707739 19.598416152910072  C 9.54069121187872 19.598416152910072  9.736901198135321 19.598416152910072  9.83500619126362 19.598416152910072  C 10.014865101686278 19.582579048793182  10.129319221481381 19.550911743302077  10.17837147439964 19.5034004309514  C 10.227423727317897 19.455889118600727  10.251952533881841 19.368777582736044  10.251952533881841 19.242080764550362  Z " stroke-width="0" stroke-dasharray="0" stroke="rgba(121, 121, 121, 1)" fill="none" transform="matrix(1 0 0 1 189 644 )" class="stroke" mask="url(#Clip4694)" />
    <path d="M 16.653294198782444 18.339363440476635  C 15.8357540512553 17.959273000669047  15.059085014873919 17.62669820955048  14.32329878464113 17.341630394444238  C 14.32329878464113 17.341630394444238  15.52508507228575 16.343897348411836  15.52508507228575 16.343897348411836  C 16.24451973939281 16.5972910142821  17.013004222959204 16.90610402820351  17.83054437048635 17.270357275397508  C 18.648084518013494 17.618773565969114  19.424753554394876 17.983030677519057  20.160539784627662 18.363121146825545  C 20.896326014860453 18.727374512015142  21.509476496233855 19.075790448599946  22 19.408369605555762  C 22 19.408369605555762  20.724636551207457 20.54864888968162  20.724636551207457 20.54864888968162  C 20.266814224525625 20.216069732725803  19.678189138673673 19.85181259167696  18.958753496983043 19.455885018253582  C 18.239318829875984 19.075794578445993  17.470834346309587 18.703616805666236  16.653294198782444 18.339363440476635  Z " stroke-width="0" stroke-dasharray="0" stroke="rgba(121, 121, 121, 1)" fill="none" transform="matrix(1 0 0 1 189 644 )" class="stroke" mask="url(#Clip4694)" />
    <path d="M 4.3166099518095 17.484161529100724  C 4.986992609644195 17.119908163911127  5.567448492372377 16.747745435570536  6.057972483430307 16.36765505476075  C 6.057972483430307 16.36765505476075  7.725753955568912 17.009052712433437  7.725753955568912 17.009052712433437  C 7.18617722430094 17.46832870232438  6.548494525321098 17.91968226105149  5.8127087823800965 18.363121146825545  C 5.093273627981251 18.8065600031007  4.349314296290416 19.218325683603585  3.580826645327421 19.598416152910072  C 2.812338994364426 19.978506592717665  2.07655337324637 20.31108138383623  1.3734689292126285 20.59614919894247  C 1.275364179730221 20.485289499623136  1.1363813751941194 20.342763910759906  0.9565225865944081 20.168555794973  C 0.7930146301827468 20.01018475380409  0.6295071610628702 19.85181798997572  0.4659990828282628 19.693446978305712  C 0.30249112641660153 19.5350759666357  0.14715718513508436 19.40837649354899  0 19.31335388359709  C 0.719435215310318 19.075797351342622  1.4470474304129612 18.798651701910117  2.18283329517691 18.481909678570094  C 2.934970113951855 18.16516759623227  3.646227050328913 17.832577760674532  4.3166099518095 17.484161529100724  Z " stroke-width="0" stroke-dasharray="0" stroke="rgba(121, 121, 121, 1)" fill="none" transform="matrix(1 0 0 1 189 644 )" class="stroke" mask="url(#Clip4694)" />
  </g>
</svg>