<?xml version="1.0" encoding="utf-8"?>
<svg version="1.1" xmlns:xlink="http://www.w3.org/1999/xlink" width="6px" height="17px" xmlns="http://www.w3.org/2000/svg">
  <defs>
    <pattern id="BGPattern" patternUnits="userSpaceOnUse" alignment="0 0" imageRepeat="None" />
    <mask fill="white" id="Clip4763">
      <path d="M 6 5.357143401749739  L 6 6.666666787248726  L 3.3750044703467 6.666666787248726  L 3.3750044703467 17  L 1.5750004967051892 17  L 1.5750004967051892 6.666666787248726  L 0 6.666666787248726  L 0 5.357143401749739  L 1.5750004967051892 5.357143401749739  C 1.5750004967051892 5.357143401749739  1.5750004967051892 3.142857544355646  1.5750004967051892 3.142857544355646  C 1.5750004967051892 1.404762137975557  2.5999998344316038 0  4.699999337726415 0  C 4.699999337726415 0  6 0  6 0  L 6 1.476190729280292  C 6 1.476190729280292  5.025003476936322 1.476190729280292  5.025003476936322 1.476190729280292  C 3.875003808073115 1.476190729280292  3.3750044703467 2.1190485240755996  3.3750044703467 3.190475974488547  C 3.3750044703467 3.190475974488547  3.3750044703467 5.357143401749739  3.3750044703467 5.357143401749739  L 6 5.357143401749739  Z " fill-rule="evenodd" />
    </mask>
  </defs>
  <g transform="matrix(1 0 0 1 -247 -491 )">
    <path d="M 6 5.357143401749739  L 6 6.666666787248726  L 3.3750044703467 6.666666787248726  L 3.3750044703467 17  L 1.5750004967051892 17  L 1.5750004967051892 6.666666787248726  L 0 6.666666787248726  L 0 5.357143401749739  L 1.5750004967051892 5.357143401749739  C 1.5750004967051892 5.357143401749739  1.5750004967051892 3.142857544355646  1.5750004967051892 3.142857544355646  C 1.5750004967051892 1.404762137975557  2.5999998344316038 0  4.699999337726415 0  C 4.699999337726415 0  6 0  6 0  L 6 1.476190729280292  C 6 1.476190729280292  5.025003476936322 1.476190729280292  5.025003476936322 1.476190729280292  C 3.875003808073115 1.476190729280292  3.3750044703467 2.1190485240755996  3.3750044703467 3.190475974488547  C 3.3750044703467 3.190475974488547  3.3750044703467 5.357143401749739  3.3750044703467 5.357143401749739  L 6 5.357143401749739  Z " fill-rule="nonzero" fill="rgba(0, 0, 0, 1)" stroke="none" transform="matrix(1 0 0 1 247 491 )" class="fill" />
    <path d="M 6 5.357143401749739  L 6 6.666666787248726  L 3.3750044703467 6.666666787248726  L 3.3750044703467 17  L 1.5750004967051892 17  L 1.5750004967051892 6.666666787248726  L 0 6.666666787248726  L 0 5.357143401749739  L 1.5750004967051892 5.357143401749739  C 1.5750004967051892 5.357143401749739  1.5750004967051892 3.142857544355646  1.5750004967051892 3.142857544355646  C 1.5750004967051892 1.404762137975557  2.5999998344316038 0  4.699999337726415 0  C 4.699999337726415 0  6 0  6 0  L 6 1.476190729280292  C 6 1.476190729280292  5.025003476936322 1.476190729280292  5.025003476936322 1.476190729280292  C 3.875003808073115 1.476190729280292  3.3750044703467 2.1190485240755996  3.3750044703467 3.190475974488547  C 3.3750044703467 3.190475974488547  3.3750044703467 5.357143401749739  3.3750044703467 5.357143401749739  L 6 5.357143401749739  Z " stroke-width="0" stroke-dasharray="0" stroke="rgba(121, 121, 121, 1)" fill="none" transform="matrix(1 0 0 1 247 491 )" class="stroke" mask="url(#Clip4763)" />
  </g>
</svg>