<?xml version="1.0" encoding="utf-8"?>
<svg version="1.1" xmlns:xlink="http://www.w3.org/1999/xlink" width="11px" height="16px" xmlns="http://www.w3.org/2000/svg">
  <defs>
    <pattern id="BGPattern" patternUnits="userSpaceOnUse" alignment="0 0" imageRepeat="None" />
    <mask fill="white" id="Clip4675">
      <path d="M 9.653069168466676 8.419889688008181  C 10.528579573381974 9.149171223083611  11 10.232044124796728  11 11.535911750406544  C 11 14.298342685663512  8.800012748096897 16  5.47756334946028 16  C 3.0755221677108135 16  1.5040817796166337 15.403314269428538  0 13.922651319744313  C 0 13.922651319744313  1.1673442060474637 12.773481054645869  1.1673442060474637 12.773481054645869  C 2.4918343728502514 14.077348321011248  3.7265334164687363 14.497237410278702  5.5224522207344044 14.497237410278702  C 7.857146471652337 14.497237410278702  9.29388034730027 13.414365227054459  9.29388034730027 11.580111269976985  C 9.29388034730027 10.762431773493988  9.046940465591284 10.055249579085269  8.530613833693335 9.613260430662232  C 8.014287201795385 9.171271940853996  7.610215469820008 9.03867344201675  6.442868709287479 8.861878177816417  C 6.442868709287479 8.861878177816417  4.579599081641608 8.574586090534389  4.579599081641608 8.574586090534389  C 3.3224562105967914 8.375691006674762  2.33469723115051 7.977900898829581  1.6387785606912033 7.381216305865504  C 0.8306152690706575 6.674033931834566  0.4265299131749325 5.701658032825362  0.4265299131749325 4.441989447793401  C 0.4265299131749325 1.767956833188438  2.3795979625338655 0  5.544904441468807 0  C 7.587762154306292 0  8.934701744074125 0.5082876494157488  10.304090148596277 1.7237573136179987  C 10.304090148596277 1.7237573136179987  9.20408703455734 2.806630215331116  9.20408703455734 2.806630215331116  C 8.216331826017583 1.9226519184850424  7.161237350101489 1.45856498612119  5.47756334946028 1.45856498612119  C 3.3449101343212386 1.45856498612119  2.110212915334943 2.6298350110048547  2.110212915334943 4.3756911264229075  C 2.110212915334943 5.149172300816922  2.3346973832031925 5.76795623444771  2.82857498747307 6.187845563211454  C 3.3224525917429486 6.6077348919751975  4.15306478934942 6.917126798916518  4.983676774082137 7.04972374102787  C 4.983676774082137 7.04972374102787  6.734700868250674 7.314917026509844  6.734700868250674 7.314917026509844  C 8.238782647867309 7.535911930028764  8.979599677688123 7.845304256088594  9.653069168466676 8.419889688008181  Z " fill-rule="evenodd" />
    </mask>
  </defs>
  <g transform="matrix(1 0 0 1 -1737 -74 )">
    <path d="M 9.653069168466676 8.419889688008181  C 10.528579573381974 9.149171223083611  11 10.232044124796728  11 11.535911750406544  C 11 14.298342685663512  8.800012748096897 16  5.47756334946028 16  C 3.0755221677108135 16  1.5040817796166337 15.403314269428538  0 13.922651319744313  C 0 13.922651319744313  1.1673442060474637 12.773481054645869  1.1673442060474637 12.773481054645869  C 2.4918343728502514 14.077348321011248  3.7265334164687363 14.497237410278702  5.5224522207344044 14.497237410278702  C 7.857146471652337 14.497237410278702  9.29388034730027 13.414365227054459  9.29388034730027 11.580111269976985  C 9.29388034730027 10.762431773493988  9.046940465591284 10.055249579085269  8.530613833693335 9.613260430662232  C 8.014287201795385 9.171271940853996  7.610215469820008 9.03867344201675  6.442868709287479 8.861878177816417  C 6.442868709287479 8.861878177816417  4.579599081641608 8.574586090534389  4.579599081641608 8.574586090534389  C 3.3224562105967914 8.375691006674762  2.33469723115051 7.977900898829581  1.6387785606912033 7.381216305865504  C 0.8306152690706575 6.674033931834566  0.4265299131749325 5.701658032825362  0.4265299131749325 4.441989447793401  C 0.4265299131749325 1.767956833188438  2.3795979625338655 0  5.544904441468807 0  C 7.587762154306292 0  8.934701744074125 0.5082876494157488  10.304090148596277 1.7237573136179987  C 10.304090148596277 1.7237573136179987  9.20408703455734 2.806630215331116  9.20408703455734 2.806630215331116  C 8.216331826017583 1.9226519184850424  7.161237350101489 1.45856498612119  5.47756334946028 1.45856498612119  C 3.3449101343212386 1.45856498612119  2.110212915334943 2.6298350110048547  2.110212915334943 4.3756911264229075  C 2.110212915334943 5.149172300816922  2.3346973832031925 5.76795623444771  2.82857498747307 6.187845563211454  C 3.3224525917429486 6.6077348919751975  4.15306478934942 6.917126798916518  4.983676774082137 7.04972374102787  C 4.983676774082137 7.04972374102787  6.734700868250674 7.314917026509844  6.734700868250674 7.314917026509844  C 8.238782647867309 7.535911930028764  8.979599677688123 7.845304256088594  9.653069168466676 8.419889688008181  Z " fill-rule="nonzero" fill="rgba(212, 208, 208, 0.5019607843137255)" stroke="none" transform="matrix(1 0 0 1 1737 74 )" class="fill" />
    <path d="M 9.653069168466676 8.419889688008181  C 10.528579573381974 9.149171223083611  11 10.232044124796728  11 11.535911750406544  C 11 14.298342685663512  8.800012748096897 16  5.47756334946028 16  C 3.0755221677108135 16  1.5040817796166337 15.403314269428538  0 13.922651319744313  C 0 13.922651319744313  1.1673442060474637 12.773481054645869  1.1673442060474637 12.773481054645869  C 2.4918343728502514 14.077348321011248  3.7265334164687363 14.497237410278702  5.5224522207344044 14.497237410278702  C 7.857146471652337 14.497237410278702  9.29388034730027 13.414365227054459  9.29388034730027 11.580111269976985  C 9.29388034730027 10.762431773493988  9.046940465591284 10.055249579085269  8.530613833693335 9.613260430662232  C 8.014287201795385 9.171271940853996  7.610215469820008 9.03867344201675  6.442868709287479 8.861878177816417  C 6.442868709287479 8.861878177816417  4.579599081641608 8.574586090534389  4.579599081641608 8.574586090534389  C 3.3224562105967914 8.375691006674762  2.33469723115051 7.977900898829581  1.6387785606912033 7.381216305865504  C 0.8306152690706575 6.674033931834566  0.4265299131749325 5.701658032825362  0.4265299131749325 4.441989447793401  C 0.4265299131749325 1.767956833188438  2.3795979625338655 0  5.544904441468807 0  C 7.587762154306292 0  8.934701744074125 0.5082876494157488  10.304090148596277 1.7237573136179987  C 10.304090148596277 1.7237573136179987  9.20408703455734 2.806630215331116  9.20408703455734 2.806630215331116  C 8.216331826017583 1.9226519184850424  7.161237350101489 1.45856498612119  5.47756334946028 1.45856498612119  C 3.3449101343212386 1.45856498612119  2.110212915334943 2.6298350110048547  2.110212915334943 4.3756911264229075  C 2.110212915334943 5.149172300816922  2.3346973832031925 5.76795623444771  2.82857498747307 6.187845563211454  C 3.3224525917429486 6.6077348919751975  4.15306478934942 6.917126798916518  4.983676774082137 7.04972374102787  C 4.983676774082137 7.04972374102787  6.734700868250674 7.314917026509844  6.734700868250674 7.314917026509844  C 8.238782647867309 7.535911930028764  8.979599677688123 7.845304256088594  9.653069168466676 8.419889688008181  Z " stroke-width="0" stroke-dasharray="0" stroke="rgba(121, 121, 121, 1)" fill="none" transform="matrix(1 0 0 1 1737 74 )" class="stroke" mask="url(#Clip4675)" />
  </g>
</svg>