<?xml version="1.0" encoding="utf-8"?>
<svg version="1.1" xmlns:xlink="http://www.w3.org/1999/xlink" width="5px" height="8px" xmlns="http://www.w3.org/2000/svg">
  <defs>
    <pattern id="BGPattern" patternUnits="userSpaceOnUse" alignment="0 0" imageRepeat="None" />
    <mask fill="white" id="Clip4709">
      <path d="M 3.7948550748263834 5.964912932988052  C 2.991440153157706 6.884991745969189  1.9145367876006651 7.563352358812386  0.5641159401388934 8  C 0.5641159401388934 8  0 6.760244572138184  0 6.760244572138184  C 1.0427299505232956 6.3703806648863495  1.8376245068631605 5.871344419420025  2.3846304326562553 5.263156720621506  C 2.948730070750872 4.654969021822988  3.230771738776043 3.906429569321775  3.230771738776043 3.017539815474077  C 3.230771738776043 3.017539815474077  2.7692282612239576 1.0526343185498188  2.7692282612239576 1.0526343185498188  C 2.7692282612239576 1.0526343185498188  4.15382608979166 2.830403834034492  4.15382608979166 2.830403834034492  C 3.965792707280493 3.03313312506158  3.7521447377001076 3.173490688189114  3.512829708845489 3.251463510305455  C 3.273514679990871 3.3138416285723316  3.0341701036810016 3.345024064961453  2.7948550748263834 3.345024064961453  C 2.264943116054253 3.345024064961453  1.8119831742525514 3.2046812577730104  1.4359166639496592 2.9239792608180784  C 1.0598501536467673 2.6432772638631468  0.8718007238107659 2.2300183670775713  0.8718007238107659 1.684208960828675  C 0.8718007238107659 1.1228047345418177  1.0598501536467673 0.7017466849098098  1.4359166639496592 0.42104480414337475  C 1.8290771412735158 0.1403426909999461  2.2906027884646734 0  2.8205144925173613 0  C 3.5384595790812168 0  4.076911007140295 0.24951805011535194  4.435884059861107 0.7485439257583391  C 4.811950315444557 1.2319752137403588  5 1.8791386342553433  5 2.6900555659867007  C 5 3.9532147265666393  4.598269741775619 5.044834120006915  3.7948550748263834 5.964912932988052  Z " fill-rule="evenodd" />
    </mask>
  </defs>
  <g transform="matrix(1 0 0 1 -626 -626 )">
    <path d="M 3.7948550748263834 5.964912932988052  C 2.991440153157706 6.884991745969189  1.9145367876006651 7.563352358812386  0.5641159401388934 8  C 0.5641159401388934 8  0 6.760244572138184  0 6.760244572138184  C 1.0427299505232956 6.3703806648863495  1.8376245068631605 5.871344419420025  2.3846304326562553 5.263156720621506  C 2.948730070750872 4.654969021822988  3.230771738776043 3.906429569321775  3.230771738776043 3.017539815474077  C 3.230771738776043 3.017539815474077  2.7692282612239576 1.0526343185498188  2.7692282612239576 1.0526343185498188  C 2.7692282612239576 1.0526343185498188  4.15382608979166 2.830403834034492  4.15382608979166 2.830403834034492  C 3.965792707280493 3.03313312506158  3.7521447377001076 3.173490688189114  3.512829708845489 3.251463510305455  C 3.273514679990871 3.3138416285723316  3.0341701036810016 3.345024064961453  2.7948550748263834 3.345024064961453  C 2.264943116054253 3.345024064961453  1.8119831742525514 3.2046812577730104  1.4359166639496592 2.9239792608180784  C 1.0598501536467673 2.6432772638631468  0.8718007238107659 2.2300183670775713  0.8718007238107659 1.684208960828675  C 0.8718007238107659 1.1228047345418177  1.0598501536467673 0.7017466849098098  1.4359166639496592 0.42104480414337475  C 1.8290771412735158 0.1403426909999461  2.2906027884646734 0  2.8205144925173613 0  C 3.5384595790812168 0  4.076911007140295 0.24951805011535194  4.435884059861107 0.7485439257583391  C 4.811950315444557 1.2319752137403588  5 1.8791386342553433  5 2.6900555659867007  C 5 3.9532147265666393  4.598269741775619 5.044834120006915  3.7948550748263834 5.964912932988052  Z " fill-rule="nonzero" fill="rgba(0, 0, 0, 1)" stroke="none" transform="matrix(1 0 0 1 626 626 )" class="fill" />
    <path d="M 3.7948550748263834 5.964912932988052  C 2.991440153157706 6.884991745969189  1.9145367876006651 7.563352358812386  0.5641159401388934 8  C 0.5641159401388934 8  0 6.760244572138184  0 6.760244572138184  C 1.0427299505232956 6.3703806648863495  1.8376245068631605 5.871344419420025  2.3846304326562553 5.263156720621506  C 2.948730070750872 4.654969021822988  3.230771738776043 3.906429569321775  3.230771738776043 3.017539815474077  C 3.230771738776043 3.017539815474077  2.7692282612239576 1.0526343185498188  2.7692282612239576 1.0526343185498188  C 2.7692282612239576 1.0526343185498188  4.15382608979166 2.830403834034492  4.15382608979166 2.830403834034492  C 3.965792707280493 3.03313312506158  3.7521447377001076 3.173490688189114  3.512829708845489 3.251463510305455  C 3.273514679990871 3.3138416285723316  3.0341701036810016 3.345024064961453  2.7948550748263834 3.345024064961453  C 2.264943116054253 3.345024064961453  1.8119831742525514 3.2046812577730104  1.4359166639496592 2.9239792608180784  C 1.0598501536467673 2.6432772638631468  0.8718007238107659 2.2300183670775713  0.8718007238107659 1.684208960828675  C 0.8718007238107659 1.1228047345418177  1.0598501536467673 0.7017466849098098  1.4359166639496592 0.42104480414337475  C 1.8290771412735158 0.1403426909999461  2.2906027884646734 0  2.8205144925173613 0  C 3.5384595790812168 0  4.076911007140295 0.24951805011535194  4.435884059861107 0.7485439257583391  C 4.811950315444557 1.2319752137403588  5 1.8791386342553433  5 2.6900555659867007  C 5 3.9532147265666393  4.598269741775619 5.044834120006915  3.7948550748263834 5.964912932988052  Z " stroke-width="0" stroke-dasharray="0" stroke="rgba(121, 121, 121, 1)" fill="none" transform="matrix(1 0 0 1 626 626 )" class="stroke" mask="url(#Clip4709)" />
  </g>
</svg>