<?xml version="1.0" encoding="utf-8"?>
<svg version="1.1" xmlns:xlink="http://www.w3.org/1999/xlink" width="9px" height="17px" xmlns="http://www.w3.org/2000/svg">
  <defs>
    <pattern id="BGPattern" patternUnits="userSpaceOnUse" alignment="0 0" imageRepeat="None" />
    <mask fill="white" id="Clip4757">
      <path d="M 7.6189283763040825 6.084958985138131  C 8.769819033215066 7.2688026798294985  9 9.210308027921762  9 11.033428136272722  C 9 12.856547891810642  8.769819033215066 14.798052181463785  7.6189283763040825 15.981896346572539  C 7.020464493847075 16.59749530066866  6.00767578582323 17  4.856785128912247 17  C 3.6138223139487993 17  2.578022369091793 16.69220214001171  1.6573093633738325 15.461004114215129  C 1.6573093633738325 15.461004114215129  1.6573093633738325 16.857941475649536  1.6573093633738325 16.857941475649536  L 0 16.857941475649536  L 0 0  L 1.6573093633738325 0  C 1.6573093633738325 0  1.6573093633738325 6.558496180764245  1.6573093633738325 6.558496180764245  C 2.578022369091793 5.350975202915923  3.6138223139487993 5.0668525092063454  4.856785128912247 5.0668525092063454  C 6.00767578582323 5.0668525092063454  7.020464493847075 5.469359501822452  7.6189283763040825 6.084958985138131  Z M 4.511531857324973 15.484681162163389  C 6.974438590258084 15.484681162163389  7.342690636626168 13.306408745114577  7.342690636626168 11.033428136272722  C 7.342690636626168 8.760447527430868  6.974438590258084 6.582173228712507  4.511531857324973 6.582173228712507  C 2.04862466706884 6.582173228712507  1.6573093633738325 8.760447527430868  1.6573093633738325 11.033428136272722  C 1.6573093633738325 13.306408745114577  2.04862466706884 15.484681162163389  4.511531857324973 15.484681162163389  Z " fill-rule="evenodd" />
    </mask>
  </defs>
  <g transform="matrix(1 0 0 1 -881 -491 )">
    <path d="M 7.6189283763040825 6.084958985138131  C 8.769819033215066 7.2688026798294985  9 9.210308027921762  9 11.033428136272722  C 9 12.856547891810642  8.769819033215066 14.798052181463785  7.6189283763040825 15.981896346572539  C 7.020464493847075 16.59749530066866  6.00767578582323 17  4.856785128912247 17  C 3.6138223139487993 17  2.578022369091793 16.69220214001171  1.6573093633738325 15.461004114215129  C 1.6573093633738325 15.461004114215129  1.6573093633738325 16.857941475649536  1.6573093633738325 16.857941475649536  L 0 16.857941475649536  L 0 0  L 1.6573093633738325 0  C 1.6573093633738325 0  1.6573093633738325 6.558496180764245  1.6573093633738325 6.558496180764245  C 2.578022369091793 5.350975202915923  3.6138223139487993 5.0668525092063454  4.856785128912247 5.0668525092063454  C 6.00767578582323 5.0668525092063454  7.020464493847075 5.469359501822452  7.6189283763040825 6.084958985138131  Z M 4.511531857324973 15.484681162163389  C 6.974438590258084 15.484681162163389  7.342690636626168 13.306408745114577  7.342690636626168 11.033428136272722  C 7.342690636626168 8.760447527430868  6.974438590258084 6.582173228712507  4.511531857324973 6.582173228712507  C 2.04862466706884 6.582173228712507  1.6573093633738325 8.760447527430868  1.6573093633738325 11.033428136272722  C 1.6573093633738325 13.306408745114577  2.04862466706884 15.484681162163389  4.511531857324973 15.484681162163389  Z " fill-rule="nonzero" fill="rgba(0, 0, 0, 1)" stroke="none" transform="matrix(1 0 0 1 881 491 )" class="fill" />
    <path d="M 7.6189283763040825 6.084958985138131  C 8.769819033215066 7.2688026798294985  9 9.210308027921762  9 11.033428136272722  C 9 12.856547891810642  8.769819033215066 14.798052181463785  7.6189283763040825 15.981896346572539  C 7.020464493847075 16.59749530066866  6.00767578582323 17  4.856785128912247 17  C 3.6138223139487993 17  2.578022369091793 16.69220214001171  1.6573093633738325 15.461004114215129  C 1.6573093633738325 15.461004114215129  1.6573093633738325 16.857941475649536  1.6573093633738325 16.857941475649536  L 0 16.857941475649536  L 0 0  L 1.6573093633738325 0  C 1.6573093633738325 0  1.6573093633738325 6.558496180764245  1.6573093633738325 6.558496180764245  C 2.578022369091793 5.350975202915923  3.6138223139487993 5.0668525092063454  4.856785128912247 5.0668525092063454  C 6.00767578582323 5.0668525092063454  7.020464493847075 5.469359501822452  7.6189283763040825 6.084958985138131  Z " stroke-width="0" stroke-dasharray="0" stroke="rgba(121, 121, 121, 1)" fill="none" transform="matrix(1 0 0 1 881 491 )" class="stroke" mask="url(#Clip4757)" />
    <path d="M 4.511531857324973 15.484681162163389  C 6.974438590258084 15.484681162163389  7.342690636626168 13.306408745114577  7.342690636626168 11.033428136272722  C 7.342690636626168 8.760447527430868  6.974438590258084 6.582173228712507  4.511531857324973 6.582173228712507  C 2.04862466706884 6.582173228712507  1.6573093633738325 8.760447527430868  1.6573093633738325 11.033428136272722  C 1.6573093633738325 13.306408745114577  2.04862466706884 15.484681162163389  4.511531857324973 15.484681162163389  Z " stroke-width="0" stroke-dasharray="0" stroke="rgba(121, 121, 121, 1)" fill="none" transform="matrix(1 0 0 1 881 491 )" class="stroke" mask="url(#Clip4757)" />
  </g>
</svg>