<?xml version="1.0" encoding="utf-8"?>
<svg version="1.1" xmlns:xlink="http://www.w3.org/1999/xlink" width="10px" height="12px" xmlns="http://www.w3.org/2000/svg">
  <defs>
    <pattern id="BGPattern" patternUnits="userSpaceOnUse" alignment="0 0" imageRepeat="None" />
    <mask fill="white" id="Clip4756">
      <path d="M 10 5.66666763905287  C 10 5.66666763905287  10 6.452381761451326  10 6.452381761451326  C 10 6.452381761451326  1.7821464317413556 6.452381761451326  1.7821464317413556 6.452381761451326  C 1.7821464317413556 9.023810636985235  3.0445045803196544 10.500000827842308  5.371241163547548 10.500000827842308  C 6.7821348747159425 10.500000827842308  7.59897608689152 10.095239157729583  8.564324337934899 9.166667599631808  C 8.564324337934899 9.166667599631808  9.777223827419284 10.190476738616676  9.777223827419284 10.190476738616676  C 8.539597713223676 11.380952885917416  7.40097448838278 12  5.321763324709333 12  C 2.103935575337249 12  0 10.142858776015437  0 6.000001419158242  C 0 2.2142865871806645  1.905903485952952 0  4.999968525547812 0  C 8.143538206444079 0  10 2.190477132827298  10 5.66666763905287  Z M 1.7821464317413556 5.166667915000305  C 1.7821464317413556 5.166667915000305  8.21779061935427 5.166667915000305  8.21779061935427 5.166667915000305  C 8.16828548626455 4.2142871390755365  8.118795844506764 3.857143195037677  7.846517981354535 3.2142865083385406  C 7.376220323525894 2.1428575145414444  6.287099035150669 1.4523816826092013  4.999968525547812 1.4523816826092013  C 3.712837647103721 1.4523816826092013  2.623717096410968 2.1428575145414444  2.153419069741091 3.2142865083385406  C 1.8811415754300984 3.857143195037677  1.8316515648310765 4.2142871390755365  1.7821464317413556 5.166667915000305  Z " fill-rule="evenodd" />
    </mask>
  </defs>
  <g transform="matrix(1 0 0 1 -900 -496 )">
    <path d="M 10 5.66666763905287  C 10 5.66666763905287  10 6.452381761451326  10 6.452381761451326  C 10 6.452381761451326  1.7821464317413556 6.452381761451326  1.7821464317413556 6.452381761451326  C 1.7821464317413556 9.023810636985235  3.0445045803196544 10.500000827842308  5.371241163547548 10.500000827842308  C 6.7821348747159425 10.500000827842308  7.59897608689152 10.095239157729583  8.564324337934899 9.166667599631808  C 8.564324337934899 9.166667599631808  9.777223827419284 10.190476738616676  9.777223827419284 10.190476738616676  C 8.539597713223676 11.380952885917416  7.40097448838278 12  5.321763324709333 12  C 2.103935575337249 12  0 10.142858776015437  0 6.000001419158242  C 0 2.2142865871806645  1.905903485952952 0  4.999968525547812 0  C 8.143538206444079 0  10 2.190477132827298  10 5.66666763905287  Z M 1.7821464317413556 5.166667915000305  C 1.7821464317413556 5.166667915000305  8.21779061935427 5.166667915000305  8.21779061935427 5.166667915000305  C 8.16828548626455 4.2142871390755365  8.118795844506764 3.857143195037677  7.846517981354535 3.2142865083385406  C 7.376220323525894 2.1428575145414444  6.287099035150669 1.4523816826092013  4.999968525547812 1.4523816826092013  C 3.712837647103721 1.4523816826092013  2.623717096410968 2.1428575145414444  2.153419069741091 3.2142865083385406  C 1.8811415754300984 3.857143195037677  1.8316515648310765 4.2142871390755365  1.7821464317413556 5.166667915000305  Z " fill-rule="nonzero" fill="rgba(0, 0, 0, 1)" stroke="none" transform="matrix(1 0 0 1 900 496 )" class="fill" />
    <path d="M 10 5.66666763905287  C 10 5.66666763905287  10 6.452381761451326  10 6.452381761451326  C 10 6.452381761451326  1.7821464317413556 6.452381761451326  1.7821464317413556 6.452381761451326  C 1.7821464317413556 9.023810636985235  3.0445045803196544 10.500000827842308  5.371241163547548 10.500000827842308  C 6.7821348747159425 10.500000827842308  7.59897608689152 10.095239157729583  8.564324337934899 9.166667599631808  C 8.564324337934899 9.166667599631808  9.777223827419284 10.190476738616676  9.777223827419284 10.190476738616676  C 8.539597713223676 11.380952885917416  7.40097448838278 12  5.321763324709333 12  C 2.103935575337249 12  0 10.142858776015437  0 6.000001419158242  C 0 2.2142865871806645  1.905903485952952 0  4.999968525547812 0  C 8.143538206444079 0  10 2.190477132827298  10 5.66666763905287  Z " stroke-width="0" stroke-dasharray="0" stroke="rgba(121, 121, 121, 1)" fill="none" transform="matrix(1 0 0 1 900 496 )" class="stroke" mask="url(#Clip4756)" />
    <path d="M 1.7821464317413556 5.166667915000305  C 1.7821464317413556 5.166667915000305  8.21779061935427 5.166667915000305  8.21779061935427 5.166667915000305  C 8.16828548626455 4.2142871390755365  8.118795844506764 3.857143195037677  7.846517981354535 3.2142865083385406  C 7.376220323525894 2.1428575145414444  6.287099035150669 1.4523816826092013  4.999968525547812 1.4523816826092013  C 3.712837647103721 1.4523816826092013  2.623717096410968 2.1428575145414444  2.153419069741091 3.2142865083385406  C 1.8811415754300984 3.857143195037677  1.8316515648310765 4.2142871390755365  1.7821464317413556 5.166667915000305  Z " stroke-width="0" stroke-dasharray="0" stroke="rgba(121, 121, 121, 1)" fill="none" transform="matrix(1 0 0 1 900 496 )" class="stroke" mask="url(#Clip4756)" />
  </g>
</svg>