<?xml version="1.0" encoding="utf-8"?>
<svg version="1.1" xmlns:xlink="http://www.w3.org/1999/xlink" width="22px" height="22px" xmlns="http://www.w3.org/2000/svg">
  <defs>
    <pattern id="BGPattern" patternUnits="userSpaceOnUse" alignment="0 0" imageRepeat="None" />
    <mask fill="white" id="Clip4727">
      <path d="M 14.596150253939511 9.35358138053112  L 14.596150253939511 0  L 16.382479702160232 0  L 16.382479702160232 9.35358138053112  L 14.596150253939511 9.35358138053112  Z M 11.540600094688157 20.735355103949093  L 11.540600094688157 19.112792127327555  L 19.931624825686164 19.112792127327555  L 19.931624825686164 20.735355103949093  L 11.540600094688157 20.735355103949093  Z M 9.143166592061817 5  L 9.143166592061817 3.388290151367312  L 22 3.388290151367312  L 22 5  L 9.143166592061817 5  Z M 9.895300981319807 10.260308196011394  L 9.895300981319807 9  L 21.45939990531184 9  L 21.45939990531184 10.260308196011394  L 9.895300981319807 10.260308196011394  Z M 10.647435370577796 21.928410315677837  L 10.647435370577796 12.83730927380789  L 20.80128324868683 12.83730927380789  L 20.80128324868683 21.856835801875768  L 19.10897153309908 21.856835801875768  L 19.10897153309908 14.459872250429429  L 12.292734483946147 14.459872250429429  L 12.292734483946147 21.928410315677837  L 10.647435370577796 21.928410315677837  Z M 3.2670919256270032 1.765727174745773  C 3.564812799848662 1.113521863822516  3.8076934212787523 0.5249455068022543  3.995727485581113 0  C 3.995727485581113 0  5.570515167426187 0.6203984192318062  5.570515167426187 0.6203984192318062  C 5.288463837478714 1.1930656414613072  4.975074586452529 1.7975388072247533  4.6303453129022465 2.4338368796722616  C 4.285615805858032 3.0701349521197696  3.948716284325306 3.682578329877443  3.619656555049209 4.271153738740199  C 3.290596825773111 4.843821909127206  2.969370584417481 5.352855436666182  2.6559803994155686 5.798263802932186  C 2.6559803994155686 5.798263802932186  1.4337648187985201 5.249455068022543  1.4337648187985201 5.249455068022543  C 1.7314855762732126 4.7881385151232845  2.03703818721085 4.255237966846897  2.350428372212762 3.6507553195083924  C 2.6638187907086057 3.030365433694139  2.9693712848992764 2.4020252471932815  3.2670919256270032 1.765727174745773  Z M 5.73504433158244 4.772236017435065  C 6.158120859515786 4.040493565975558  6.526352931766791 3.356477570730826  6.8397433502626335 2.720180446440824  C 6.8397433502626335 2.720180446440824  8.391024730998009 3.388290151367312  8.391024730998009 3.388290151367312  C 7.842591381883316 4.295014122375068  7.231478921696154 5.249465497755108  6.557690152363706 6.25163479593237  C 5.899570693811511 7.237895907476377  5.233615645893462 8.20028810196796  4.55982640957315 9.138827498084723  C 3.8860374067467687 10.077366420122729  3.251421914364954 10.888644115803475  2.6559803994155686 11.572664377756983  C 2.6559803994155686 11.572664377756983  1.5277825514314962 10.97614435715266  1.5277825514314962 10.97614435715266  C 1.9821984014071448 10.435291137795902  2.4522786587904775 9.822847285959476  2.9380335973144973 9.138827498084723  C 3.4237885358385167 8.454807710209966  3.901713021863183 7.73896965275369  4.371798416113017 6.991319014660928  C 4.857553354637036 6.243669324725673  5.31196733666123 5.503978468894573  5.73504433158244 4.772236017435065  Z M 1.5982939829547733 6.299346081627053  C 1.15954767725331 5.8380304768853  0.728636377182871 5.416494820301742  0.3055594990086272 5.034716356096239  C 0.3055594990086272 5.034716356096239  1.1752179220092909 3.841645973847403  1.1752179220092909 3.841645973847403  C 1.6139643444577203 4.207517199577157  2.060541803140332 4.6131560474175295  2.514957536369015 5.058564413683533  C 2.969373619838595 5.503972779949538  3.3846187612968612 5.949390627790599  3.760686889901583 6.394798994056604  C 4.136755252000236 6.82430012184686  4.426641470831768 7.214026990423955  4.6303453129022465 7.563990977677959  C 4.6303453129022465 7.563990977677959  3.690175458378306 8.947936843745712  3.690175458378306 8.947936843745712  C 3.4708023055275743 8.566158379540209  3.173079096366597 8.144607552436558  2.7970107342679427 7.683291947694806  C 2.4366119164434745 7.221975394795547  2.0370404054032027 6.760661686368805  1.5982939829547733 6.299346081627053  Z M 7.027778815528586 9.950116571655538  C 6.73005817480086 9.34563345023828  6.416668690280742 8.780909417514088  6.087608961004645 8.255963910711834  C 6.087608961004645 8.255963910711834  7.403849746060491 7.683291947694806  7.403849746060491 7.683291947694806  C 7.748579253104705 8.208237454497059  8.077634312502166 8.765005971668364  8.391024730998009 9.35358138053112  C 8.70441468250599 9.942156789393875  8.978635092966245 10.514821641229613  9.213678023585095 11.071582099062116  C 9.464390264984196 11.628342556894621  9.644584070042066 12.129435739400806  9.754270646467432 12.57484410566681  C 9.754270646467432 12.57484410566681  8.36751842988831 13.2429538105933  8.36751842988831 13.2429538105933  C 8.24216254268269 12.797545444327294  8.061968737624822 12.288496272189473  7.826925807005973 11.715828575881217  C 7.591883343374988 11.14316040549421  7.325499923244177 10.554599218994042  7.027778815528586 9.950116571655538  Z M 0.39957723164160325 12.288500538898248  C 0.39957723164160325 12.288500538898248  0.25854689678922915 10.665937562276708  0.25854689678922915 10.665937562276708  C 1.3084042617142633 10.634122611246458  2.554132331030206 10.594359255844616  3.995727485581113 10.546636592259862  C 5.452992301153171 10.483007164278114  6.949430393675864 10.411419850349715  8.485042463630986 10.331882709813465  C 8.485042463630986 10.331882709813465  8.461536162521286 11.811281488310769  8.461536162521286 11.811281488310769  C 7.0042715804431595 11.906726341401521  5.5705130659807995 12.002165031468486  4.1602566497373665 12.097609884559237  C 2.7500004669878635 12.177147025095488  1.4964431126422275 12.240778349392247  0.39957723164160325 12.288500538898248  Z M 7.591877739520623 16.392626851406824  C 7.309826409573149 15.517717594389943  7.012110905711924 14.714395651301459  6.69872048721608 13.98265319984195  C 6.69872048721608 13.98265319984195  8.014961272271925 13.529282206841767  8.014961272271925 13.529282206841767  C 8.359690312328276 14.261024421261897  8.680909315372018 15.056405782278212  8.978629956099745 15.915407800819345  C 9.292020374595587 16.77440981936048  9.511397730337094 17.51410055667189  9.636754084530576 18.13449079804521  C 9.636754084530576 18.13449079804521  8.179490436428178 18.635573076740076  8.179490436428178 18.635573076740076  C 8.069803860002812 17.999275300591787  7.873929069468095 17.251628869947957  7.591877739520623 16.392626851406824  Z M 0.9636761556336397 16.726681703870067  C 1.214388397032742 15.708605404256433  1.4102557157616387 14.682566951987372  1.5512813807353751 13.648583176858613  C 1.5512813807353751 13.648583176858613  3.0555576310571726 13.911063515519787  3.0555576310571726 13.911063515519787  C 2.898862655303182 15.040491906699922  2.679484832573813 16.15401365200275  2.39743350262634 17.25162721067232  C 2.1153822894258325 18.33333341234646  1.7863268797874747 19.255961599577915  1.4102585176888212 20.019518942807828  C 1.300571941263455 19.939981728196774  1.1595470935184802 19.86043906168006  0.9871824567433387 19.780901832254045  C 0.8304873642423826 19.701364617642987  0.6581228442142072 19.62183712164637  0.47008866316488035 19.54229989222035  C 0.2977240263897389 19.44685524653905  0.14102563578699512 19.37526834742956  0 19.327546009773954  C 0.4074073630868 18.595803558314444  0.7286335168822056 17.728850765007955  0.9636761556336397 16.726681703870067  Z M 4.254274382370342 22  L 4.254274382370342 11.357910495310584  L 6 11.357910495310584  L 6 22  L 4.254274382370342 22  Z " fill-rule="evenodd" />
    </mask>
  </defs>
  <g transform="matrix(1 0 0 1 -237 -612 )">
    <path d="M 14.596150253939511 9.35358138053112  L 14.596150253939511 0  L 16.382479702160232 0  L 16.382479702160232 9.35358138053112  L 14.596150253939511 9.35358138053112  Z M 11.540600094688157 20.735355103949093  L 11.540600094688157 19.112792127327555  L 19.931624825686164 19.112792127327555  L 19.931624825686164 20.735355103949093  L 11.540600094688157 20.735355103949093  Z M 9.143166592061817 5  L 9.143166592061817 3.388290151367312  L 22 3.388290151367312  L 22 5  L 9.143166592061817 5  Z M 9.895300981319807 10.260308196011394  L 9.895300981319807 9  L 21.45939990531184 9  L 21.45939990531184 10.260308196011394  L 9.895300981319807 10.260308196011394  Z M 10.647435370577796 21.928410315677837  L 10.647435370577796 12.83730927380789  L 20.80128324868683 12.83730927380789  L 20.80128324868683 21.856835801875768  L 19.10897153309908 21.856835801875768  L 19.10897153309908 14.459872250429429  L 12.292734483946147 14.459872250429429  L 12.292734483946147 21.928410315677837  L 10.647435370577796 21.928410315677837  Z M 3.2670919256270032 1.765727174745773  C 3.564812799848662 1.113521863822516  3.8076934212787523 0.5249455068022543  3.995727485581113 0  C 3.995727485581113 0  5.570515167426187 0.6203984192318062  5.570515167426187 0.6203984192318062  C 5.288463837478714 1.1930656414613072  4.975074586452529 1.7975388072247533  4.6303453129022465 2.4338368796722616  C 4.285615805858032 3.0701349521197696  3.948716284325306 3.682578329877443  3.619656555049209 4.271153738740199  C 3.290596825773111 4.843821909127206  2.969370584417481 5.352855436666182  2.6559803994155686 5.798263802932186  C 2.6559803994155686 5.798263802932186  1.4337648187985201 5.249455068022543  1.4337648187985201 5.249455068022543  C 1.7314855762732126 4.7881385151232845  2.03703818721085 4.255237966846897  2.350428372212762 3.6507553195083924  C 2.6638187907086057 3.030365433694139  2.9693712848992764 2.4020252471932815  3.2670919256270032 1.765727174745773  Z M 5.73504433158244 4.772236017435065  C 6.158120859515786 4.040493565975558  6.526352931766791 3.356477570730826  6.8397433502626335 2.720180446440824  C 6.8397433502626335 2.720180446440824  8.391024730998009 3.388290151367312  8.391024730998009 3.388290151367312  C 7.842591381883316 4.295014122375068  7.231478921696154 5.249465497755108  6.557690152363706 6.25163479593237  C 5.899570693811511 7.237895907476377  5.233615645893462 8.20028810196796  4.55982640957315 9.138827498084723  C 3.8860374067467687 10.077366420122729  3.251421914364954 10.888644115803475  2.6559803994155686 11.572664377756983  C 2.6559803994155686 11.572664377756983  1.5277825514314962 10.97614435715266  1.5277825514314962 10.97614435715266  C 1.9821984014071448 10.435291137795902  2.4522786587904775 9.822847285959476  2.9380335973144973 9.138827498084723  C 3.4237885358385167 8.454807710209966  3.901713021863183 7.73896965275369  4.371798416113017 6.991319014660928  C 4.857553354637036 6.243669324725673  5.31196733666123 5.503978468894573  5.73504433158244 4.772236017435065  Z M 1.5982939829547733 6.299346081627053  C 1.15954767725331 5.8380304768853  0.728636377182871 5.416494820301742  0.3055594990086272 5.034716356096239  C 0.3055594990086272 5.034716356096239  1.1752179220092909 3.841645973847403  1.1752179220092909 3.841645973847403  C 1.6139643444577203 4.207517199577157  2.060541803140332 4.6131560474175295  2.514957536369015 5.058564413683533  C 2.969373619838595 5.503972779949538  3.3846187612968612 5.949390627790599  3.760686889901583 6.394798994056604  C 4.136755252000236 6.82430012184686  4.426641470831768 7.214026990423955  4.6303453129022465 7.563990977677959  C 4.6303453129022465 7.563990977677959  3.690175458378306 8.947936843745712  3.690175458378306 8.947936843745712  C 3.4708023055275743 8.566158379540209  3.173079096366597 8.144607552436558  2.7970107342679427 7.683291947694806  C 2.4366119164434745 7.221975394795547  2.0370404054032027 6.760661686368805  1.5982939829547733 6.299346081627053  Z M 7.027778815528586 9.950116571655538  C 6.73005817480086 9.34563345023828  6.416668690280742 8.780909417514088  6.087608961004645 8.255963910711834  C 6.087608961004645 8.255963910711834  7.403849746060491 7.683291947694806  7.403849746060491 7.683291947694806  C 7.748579253104705 8.208237454497059  8.077634312502166 8.765005971668364  8.391024730998009 9.35358138053112  C 8.70441468250599 9.942156789393875  8.978635092966245 10.514821641229613  9.213678023585095 11.071582099062116  C 9.464390264984196 11.628342556894621  9.644584070042066 12.129435739400806  9.754270646467432 12.57484410566681  C 9.754270646467432 12.57484410566681  8.36751842988831 13.2429538105933  8.36751842988831 13.2429538105933  C 8.24216254268269 12.797545444327294  8.061968737624822 12.288496272189473  7.826925807005973 11.715828575881217  C 7.591883343374988 11.14316040549421  7.325499923244177 10.554599218994042  7.027778815528586 9.950116571655538  Z M 0.39957723164160325 12.288500538898248  C 0.39957723164160325 12.288500538898248  0.25854689678922915 10.665937562276708  0.25854689678922915 10.665937562276708  C 1.3084042617142633 10.634122611246458  2.554132331030206 10.594359255844616  3.995727485581113 10.546636592259862  C 5.452992301153171 10.483007164278114  6.949430393675864 10.411419850349715  8.485042463630986 10.331882709813465  C 8.485042463630986 10.331882709813465  8.461536162521286 11.811281488310769  8.461536162521286 11.811281488310769  C 7.0042715804431595 11.906726341401521  5.5705130659807995 12.002165031468486  4.1602566497373665 12.097609884559237  C 2.7500004669878635 12.177147025095488  1.4964431126422275 12.240778349392247  0.39957723164160325 12.288500538898248  Z M 7.591877739520623 16.392626851406824  C 7.309826409573149 15.517717594389943  7.012110905711924 14.714395651301459  6.69872048721608 13.98265319984195  C 6.69872048721608 13.98265319984195  8.014961272271925 13.529282206841767  8.014961272271925 13.529282206841767  C 8.359690312328276 14.261024421261897  8.680909315372018 15.056405782278212  8.978629956099745 15.915407800819345  C 9.292020374595587 16.77440981936048  9.511397730337094 17.51410055667189  9.636754084530576 18.13449079804521  C 9.636754084530576 18.13449079804521  8.179490436428178 18.635573076740076  8.179490436428178 18.635573076740076  C 8.069803860002812 17.999275300591787  7.873929069468095 17.251628869947957  7.591877739520623 16.392626851406824  Z M 0.9636761556336397 16.726681703870067  C 1.214388397032742 15.708605404256433  1.4102557157616387 14.682566951987372  1.5512813807353751 13.648583176858613  C 1.5512813807353751 13.648583176858613  3.0555576310571726 13.911063515519787  3.0555576310571726 13.911063515519787  C 2.898862655303182 15.040491906699922  2.679484832573813 16.15401365200275  2.39743350262634 17.25162721067232  C 2.1153822894258325 18.33333341234646  1.7863268797874747 19.255961599577915  1.4102585176888212 20.019518942807828  C 1.300571941263455 19.939981728196774  1.1595470935184802 19.86043906168006  0.9871824567433387 19.780901832254045  C 0.8304873642423826 19.701364617642987  0.6581228442142072 19.62183712164637  0.47008866316488035 19.54229989222035  C 0.2977240263897389 19.44685524653905  0.14102563578699512 19.37526834742956  0 19.327546009773954  C 0.4074073630868 18.595803558314444  0.7286335168822056 17.728850765007955  0.9636761556336397 16.726681703870067  Z M 4.254274382370342 22  L 4.254274382370342 11.357910495310584  L 6 11.357910495310584  L 6 22  L 4.254274382370342 22  Z " fill-rule="nonzero" fill="rgba(0, 0, 0, 1)" stroke="none" transform="matrix(1 0 0 1 237 612 )" class="fill" />
    <path d="M 14.596150253939511 9.35358138053112  L 14.596150253939511 0  L 16.382479702160232 0  L 16.382479702160232 9.35358138053112  L 14.596150253939511 9.35358138053112  Z " stroke-width="0" stroke-dasharray="0" stroke="rgba(121, 121, 121, 1)" fill="none" transform="matrix(1 0 0 1 237 612 )" class="stroke" mask="url(#Clip4727)" />
    <path d="M 11.540600094688157 20.735355103949093  L 11.540600094688157 19.112792127327555  L 19.931624825686164 19.112792127327555  L 19.931624825686164 20.735355103949093  L 11.540600094688157 20.735355103949093  Z " stroke-width="0" stroke-dasharray="0" stroke="rgba(121, 121, 121, 1)" fill="none" transform="matrix(1 0 0 1 237 612 )" class="stroke" mask="url(#Clip4727)" />
    <path d="M 9.143166592061817 5  L 9.143166592061817 3.388290151367312  L 22 3.388290151367312  L 22 5  L 9.143166592061817 5  Z " stroke-width="0" stroke-dasharray="0" stroke="rgba(121, 121, 121, 1)" fill="none" transform="matrix(1 0 0 1 237 612 )" class="stroke" mask="url(#Clip4727)" />
    <path d="M 9.895300981319807 10.260308196011394  L 9.895300981319807 9  L 21.45939990531184 9  L 21.45939990531184 10.260308196011394  L 9.895300981319807 10.260308196011394  Z " stroke-width="0" stroke-dasharray="0" stroke="rgba(121, 121, 121, 1)" fill="none" transform="matrix(1 0 0 1 237 612 )" class="stroke" mask="url(#Clip4727)" />
    <path d="M 10.647435370577796 21.928410315677837  L 10.647435370577796 12.83730927380789  L 20.80128324868683 12.83730927380789  L 20.80128324868683 21.856835801875768  L 19.10897153309908 21.856835801875768  L 19.10897153309908 14.459872250429429  L 12.292734483946147 14.459872250429429  L 12.292734483946147 21.928410315677837  L 10.647435370577796 21.928410315677837  Z " stroke-width="0" stroke-dasharray="0" stroke="rgba(121, 121, 121, 1)" fill="none" transform="matrix(1 0 0 1 237 612 )" class="stroke" mask="url(#Clip4727)" />
    <path d="M 3.2670919256270032 1.765727174745773  C 3.564812799848662 1.113521863822516  3.8076934212787523 0.5249455068022543  3.995727485581113 0  C 3.995727485581113 0  5.570515167426187 0.6203984192318062  5.570515167426187 0.6203984192318062  C 5.288463837478714 1.1930656414613072  4.975074586452529 1.7975388072247533  4.6303453129022465 2.4338368796722616  C 4.285615805858032 3.0701349521197696  3.948716284325306 3.682578329877443  3.619656555049209 4.271153738740199  C 3.290596825773111 4.843821909127206  2.969370584417481 5.352855436666182  2.6559803994155686 5.798263802932186  C 2.6559803994155686 5.798263802932186  1.4337648187985201 5.249455068022543  1.4337648187985201 5.249455068022543  C 1.7314855762732126 4.7881385151232845  2.03703818721085 4.255237966846897  2.350428372212762 3.6507553195083924  C 2.6638187907086057 3.030365433694139  2.9693712848992764 2.4020252471932815  3.2670919256270032 1.765727174745773  Z " stroke-width="0" stroke-dasharray="0" stroke="rgba(121, 121, 121, 1)" fill="none" transform="matrix(1 0 0 1 237 612 )" class="stroke" mask="url(#Clip4727)" />
    <path d="M 5.73504433158244 4.772236017435065  C 6.158120859515786 4.040493565975558  6.526352931766791 3.356477570730826  6.8397433502626335 2.720180446440824  C 6.8397433502626335 2.720180446440824  8.391024730998009 3.388290151367312  8.391024730998009 3.388290151367312  C 7.842591381883316 4.295014122375068  7.231478921696154 5.249465497755108  6.557690152363706 6.25163479593237  C 5.899570693811511 7.237895907476377  5.233615645893462 8.20028810196796  4.55982640957315 9.138827498084723  C 3.8860374067467687 10.077366420122729  3.251421914364954 10.888644115803475  2.6559803994155686 11.572664377756983  C 2.6559803994155686 11.572664377756983  1.5277825514314962 10.97614435715266  1.5277825514314962 10.97614435715266  C 1.9821984014071448 10.435291137795902  2.4522786587904775 9.822847285959476  2.9380335973144973 9.138827498084723  C 3.4237885358385167 8.454807710209966  3.901713021863183 7.73896965275369  4.371798416113017 6.991319014660928  C 4.857553354637036 6.243669324725673  5.31196733666123 5.503978468894573  5.73504433158244 4.772236017435065  Z " stroke-width="0" stroke-dasharray="0" stroke="rgba(121, 121, 121, 1)" fill="none" transform="matrix(1 0 0 1 237 612 )" class="stroke" mask="url(#Clip4727)" />
    <path d="M 1.5982939829547733 6.299346081627053  C 1.15954767725331 5.8380304768853  0.728636377182871 5.416494820301742  0.3055594990086272 5.034716356096239  C 0.3055594990086272 5.034716356096239  1.1752179220092909 3.841645973847403  1.1752179220092909 3.841645973847403  C 1.6139643444577203 4.207517199577157  2.060541803140332 4.6131560474175295  2.514957536369015 5.058564413683533  C 2.969373619838595 5.503972779949538  3.3846187612968612 5.949390627790599  3.760686889901583 6.394798994056604  C 4.136755252000236 6.82430012184686  4.426641470831768 7.214026990423955  4.6303453129022465 7.563990977677959  C 4.6303453129022465 7.563990977677959  3.690175458378306 8.947936843745712  3.690175458378306 8.947936843745712  C 3.4708023055275743 8.566158379540209  3.173079096366597 8.144607552436558  2.7970107342679427 7.683291947694806  C 2.4366119164434745 7.221975394795547  2.0370404054032027 6.760661686368805  1.5982939829547733 6.299346081627053  Z " stroke-width="0" stroke-dasharray="0" stroke="rgba(121, 121, 121, 1)" fill="none" transform="matrix(1 0 0 1 237 612 )" class="stroke" mask="url(#Clip4727)" />
    <path d="M 7.027778815528586 9.950116571655538  C 6.73005817480086 9.34563345023828  6.416668690280742 8.780909417514088  6.087608961004645 8.255963910711834  C 6.087608961004645 8.255963910711834  7.403849746060491 7.683291947694806  7.403849746060491 7.683291947694806  C 7.748579253104705 8.208237454497059  8.077634312502166 8.765005971668364  8.391024730998009 9.35358138053112  C 8.70441468250599 9.942156789393875  8.978635092966245 10.514821641229613  9.213678023585095 11.071582099062116  C 9.464390264984196 11.628342556894621  9.644584070042066 12.129435739400806  9.754270646467432 12.57484410566681  C 9.754270646467432 12.57484410566681  8.36751842988831 13.2429538105933  8.36751842988831 13.2429538105933  C 8.24216254268269 12.797545444327294  8.061968737624822 12.288496272189473  7.826925807005973 11.715828575881217  C 7.591883343374988 11.14316040549421  7.325499923244177 10.554599218994042  7.027778815528586 9.950116571655538  Z " stroke-width="0" stroke-dasharray="0" stroke="rgba(121, 121, 121, 1)" fill="none" transform="matrix(1 0 0 1 237 612 )" class="stroke" mask="url(#Clip4727)" />
    <path d="M 0.39957723164160325 12.288500538898248  C 0.39957723164160325 12.288500538898248  0.25854689678922915 10.665937562276708  0.25854689678922915 10.665937562276708  C 1.3084042617142633 10.634122611246458  2.554132331030206 10.594359255844616  3.995727485581113 10.546636592259862  C 5.452992301153171 10.483007164278114  6.949430393675864 10.411419850349715  8.485042463630986 10.331882709813465  C 8.485042463630986 10.331882709813465  8.461536162521286 11.811281488310769  8.461536162521286 11.811281488310769  C 7.0042715804431595 11.906726341401521  5.5705130659807995 12.002165031468486  4.1602566497373665 12.097609884559237  C 2.7500004669878635 12.177147025095488  1.4964431126422275 12.240778349392247  0.39957723164160325 12.288500538898248  Z " stroke-width="0" stroke-dasharray="0" stroke="rgba(121, 121, 121, 1)" fill="none" transform="matrix(1 0 0 1 237 612 )" class="stroke" mask="url(#Clip4727)" />
    <path d="M 7.591877739520623 16.392626851406824  C 7.309826409573149 15.517717594389943  7.012110905711924 14.714395651301459  6.69872048721608 13.98265319984195  C 6.69872048721608 13.98265319984195  8.014961272271925 13.529282206841767  8.014961272271925 13.529282206841767  C 8.359690312328276 14.261024421261897  8.680909315372018 15.056405782278212  8.978629956099745 15.915407800819345  C 9.292020374595587 16.77440981936048  9.511397730337094 17.51410055667189  9.636754084530576 18.13449079804521  C 9.636754084530576 18.13449079804521  8.179490436428178 18.635573076740076  8.179490436428178 18.635573076740076  C 8.069803860002812 17.999275300591787  7.873929069468095 17.251628869947957  7.591877739520623 16.392626851406824  Z " stroke-width="0" stroke-dasharray="0" stroke="rgba(121, 121, 121, 1)" fill="none" transform="matrix(1 0 0 1 237 612 )" class="stroke" mask="url(#Clip4727)" />
    <path d="M 0.9636761556336397 16.726681703870067  C 1.214388397032742 15.708605404256433  1.4102557157616387 14.682566951987372  1.5512813807353751 13.648583176858613  C 1.5512813807353751 13.648583176858613  3.0555576310571726 13.911063515519787  3.0555576310571726 13.911063515519787  C 2.898862655303182 15.040491906699922  2.679484832573813 16.15401365200275  2.39743350262634 17.25162721067232  C 2.1153822894258325 18.33333341234646  1.7863268797874747 19.255961599577915  1.4102585176888212 20.019518942807828  C 1.300571941263455 19.939981728196774  1.1595470935184802 19.86043906168006  0.9871824567433387 19.780901832254045  C 0.8304873642423826 19.701364617642987  0.6581228442142072 19.62183712164637  0.47008866316488035 19.54229989222035  C 0.2977240263897389 19.44685524653905  0.14102563578699512 19.37526834742956  0 19.327546009773954  C 0.4074073630868 18.595803558314444  0.7286335168822056 17.728850765007955  0.9636761556336397 16.726681703870067  Z " stroke-width="0" stroke-dasharray="0" stroke="rgba(121, 121, 121, 1)" fill="none" transform="matrix(1 0 0 1 237 612 )" class="stroke" mask="url(#Clip4727)" />
    <path d="M 4.254274382370342 22  L 4.254274382370342 11.357910495310584  L 6 11.357910495310584  L 6 22  L 4.254274382370342 22  Z " stroke-width="0" stroke-dasharray="0" stroke="rgba(121, 121, 121, 1)" fill="none" transform="matrix(1 0 0 1 237 612 )" class="stroke" mask="url(#Clip4727)" />
  </g>
</svg>