<?xml version="1.0" encoding="utf-8"?>
<svg version="1.1" xmlns:xlink="http://www.w3.org/1999/xlink" width="49px" height="51px" xmlns="http://www.w3.org/2000/svg">
  <defs>
    <pattern id="BGPattern" patternUnits="userSpaceOnUse" alignment="0 0" imageRepeat="None" />
    <mask fill="white" id="Clip4623">
      <path d="M 13.73112228812889 31  L 13.73112228812889 27  L 26.93042037774355 27  L 26.93042037774355 31  L 13.73112228812889 31  Z M 13.39268032375448 24  L 13.39268032375448 21  L 29 21  L 29 38  L 13.39268032375448 38  L 13.39268032375448 34  L 24.222869292995103 34  L 24.222869292995103 24  L 13.39268032375448 24  Z M 11 40.995554460243554  L 11 20.187566142839778  L 17 20.187566142839778  L 17 40.995554460243554  L 11 40.995554460243554  Z M 2.9009333188882644 11  L 2.9009333188882644 7  L 14.988199028556625 7  L 14.988199028556625 11  L 2.9009333188882644 11  Z M 25.3349016729414 11  L 25.3349016729414 7  L 37.518873869432824 7  L 37.518873869432824 11  L 25.3349016729414 11  Z M 35.14976474905879 36.127627212560135  C 35.14976474905879 36.127627212560135  35.14976474905879 0  35.14976474905879 0  L 41 0  C 41 0  41 36.22307736138869  41 36.22307736138869  C 41 37.75026907533479  40.82271950350449 38.95929840705461  40.46816043173261 39.85016025994412  C 40.1135994387416 40.74102211283362  39.45282685373281 41.425079655869354  38.48584651914453 41.90232708129322  C 37.486631969761326 42.379574506717084  36.261795207785944 42.68183370642643  34.81132278468438 42.809099702342884  C 33.39308457637774 42.936365698259344  31.636390955162682 43  29.54126497566893 43  C 29.476798467298227 42.427303136901635  29.347880820309967 41.79096000096937  29.15448513763614 41.090997023428876  C 28.961089454962313 40.39103416441406  28.7354480301787 39.675166996888386  28.477585839134164 38.94338763889445  C 28.21972364808963 38.243424720616794  27.945752034524215 37.6389138475785  27.6556575499039 37.12984998243835  C 28.52594100376484 37.19348292113374  29.380113113885745 37.24120491388046  30.218164274170903 37.27302141285957  C 31.0884458068127 37.27302141285957  31.862032379946296 37.27302141285957  32.538920151133404 37.27302141285957  C 33.2480402158963 37.24120491388046  33.73153230440958 37.22530013126691  33.989394495454114 37.22530013126691  C 34.440652369172476 37.22530013126691  34.74685051265624 37.1457610469127  34.90801390175429 36.98667855201714  C 35.06917729085234 36.827596116384406  35.14976474905879 36.541241640025774  35.14976474905879 36.127627212560135  Z M 3.336081770085737 4.15205492429087  L 3.336081770085737 0  L 19 0  L 19 18  L 3.336081770085737 18  L 3.336081770085737 13.21975079221459  L 13.199282719861507 13.21975079221459  L 13.199282719861507 4.15205492429087  L 3.336081770085737 4.15205492429087  Z M 22 0  L 38.24411104159318 0  L 38.24411104159318 5  L 27.4139067025994 5  L 27.4139067025994 14  L 38.24411104159318 14  L 38.24411104159318 18  L 22 18  L 22 0  Z M 0 43  L 0 0  L 6 0  L 6 43  L 0 43  Z " fill-rule="evenodd" />
    </mask>
  </defs>
  <g transform="matrix(1 0 0 1 -284 -378 )">
    <path d="M 13.73112228812889 31  L 13.73112228812889 27  L 26.93042037774355 27  L 26.93042037774355 31  L 13.73112228812889 31  Z M 13.39268032375448 24  L 13.39268032375448 21  L 29 21  L 29 38  L 13.39268032375448 38  L 13.39268032375448 34  L 24.222869292995103 34  L 24.222869292995103 24  L 13.39268032375448 24  Z M 11 40.995554460243554  L 11 20.187566142839778  L 17 20.187566142839778  L 17 40.995554460243554  L 11 40.995554460243554  Z M 2.9009333188882644 11  L 2.9009333188882644 7  L 14.988199028556625 7  L 14.988199028556625 11  L 2.9009333188882644 11  Z M 25.3349016729414 11  L 25.3349016729414 7  L 37.518873869432824 7  L 37.518873869432824 11  L 25.3349016729414 11  Z M 35.14976474905879 36.127627212560135  C 35.14976474905879 36.127627212560135  35.14976474905879 0  35.14976474905879 0  L 41 0  C 41 0  41 36.22307736138869  41 36.22307736138869  C 41 37.75026907533479  40.82271950350449 38.95929840705461  40.46816043173261 39.85016025994412  C 40.1135994387416 40.74102211283362  39.45282685373281 41.425079655869354  38.48584651914453 41.90232708129322  C 37.486631969761326 42.379574506717084  36.261795207785944 42.68183370642643  34.81132278468438 42.809099702342884  C 33.39308457637774 42.936365698259344  31.636390955162682 43  29.54126497566893 43  C 29.476798467298227 42.427303136901635  29.347880820309967 41.79096000096937  29.15448513763614 41.090997023428876  C 28.961089454962313 40.39103416441406  28.7354480301787 39.675166996888386  28.477585839134164 38.94338763889445  C 28.21972364808963 38.243424720616794  27.945752034524215 37.6389138475785  27.6556575499039 37.12984998243835  C 28.52594100376484 37.19348292113374  29.380113113885745 37.24120491388046  30.218164274170903 37.27302141285957  C 31.0884458068127 37.27302141285957  31.862032379946296 37.27302141285957  32.538920151133404 37.27302141285957  C 33.2480402158963 37.24120491388046  33.73153230440958 37.22530013126691  33.989394495454114 37.22530013126691  C 34.440652369172476 37.22530013126691  34.74685051265624 37.1457610469127  34.90801390175429 36.98667855201714  C 35.06917729085234 36.827596116384406  35.14976474905879 36.541241640025774  35.14976474905879 36.127627212560135  Z M 3.336081770085737 4.15205492429087  L 3.336081770085737 0  L 19 0  L 19 18  L 3.336081770085737 18  L 3.336081770085737 13.21975079221459  L 13.199282719861507 13.21975079221459  L 13.199282719861507 4.15205492429087  L 3.336081770085737 4.15205492429087  Z M 22 0  L 38.24411104159318 0  L 38.24411104159318 5  L 27.4139067025994 5  L 27.4139067025994 14  L 38.24411104159318 14  L 38.24411104159318 18  L 22 18  L 22 0  Z M 0 43  L 0 0  L 6 0  L 6 43  L 0 43  Z " fill-rule="nonzero" fill="rgba(116, 61, 148, 1)" stroke="none" transform="matrix(1 0 0 1 288 378 )" class="fill" />
    <path d="M 13.73112228812889 31  L 13.73112228812889 27  L 26.93042037774355 27  L 26.93042037774355 31  L 13.73112228812889 31  Z " stroke-width="0" stroke-dasharray="0" stroke="rgba(121, 121, 121, 1)" fill="none" transform="matrix(1 0 0 1 288 378 )" class="stroke" mask="url(#Clip4623)" />
    <path d="M 13.39268032375448 24  L 13.39268032375448 21  L 29 21  L 29 38  L 13.39268032375448 38  L 13.39268032375448 34  L 24.222869292995103 34  L 24.222869292995103 24  L 13.39268032375448 24  Z " stroke-width="0" stroke-dasharray="0" stroke="rgba(121, 121, 121, 1)" fill="none" transform="matrix(1 0 0 1 288 378 )" class="stroke" mask="url(#Clip4623)" />
    <path d="M 11 40.995554460243554  L 11 20.187566142839778  L 17 20.187566142839778  L 17 40.995554460243554  L 11 40.995554460243554  Z " stroke-width="0" stroke-dasharray="0" stroke="rgba(121, 121, 121, 1)" fill="none" transform="matrix(1 0 0 1 288 378 )" class="stroke" mask="url(#Clip4623)" />
    <path d="M 2.9009333188882644 11  L 2.9009333188882644 7  L 14.988199028556625 7  L 14.988199028556625 11  L 2.9009333188882644 11  Z " stroke-width="0" stroke-dasharray="0" stroke="rgba(121, 121, 121, 1)" fill="none" transform="matrix(1 0 0 1 288 378 )" class="stroke" mask="url(#Clip4623)" />
    <path d="M 25.3349016729414 11  L 25.3349016729414 7  L 37.518873869432824 7  L 37.518873869432824 11  L 25.3349016729414 11  Z " stroke-width="0" stroke-dasharray="0" stroke="rgba(121, 121, 121, 1)" fill="none" transform="matrix(1 0 0 1 288 378 )" class="stroke" mask="url(#Clip4623)" />
    <path d="M 35.14976474905879 36.127627212560135  C 35.14976474905879 36.127627212560135  35.14976474905879 0  35.14976474905879 0  L 41 0  C 41 0  41 36.22307736138869  41 36.22307736138869  C 41 37.75026907533479  40.82271950350449 38.95929840705461  40.46816043173261 39.85016025994412  C 40.1135994387416 40.74102211283362  39.45282685373281 41.425079655869354  38.48584651914453 41.90232708129322  C 37.486631969761326 42.379574506717084  36.261795207785944 42.68183370642643  34.81132278468438 42.809099702342884  C 33.39308457637774 42.936365698259344  31.636390955162682 43  29.54126497566893 43  C 29.476798467298227 42.427303136901635  29.347880820309967 41.79096000096937  29.15448513763614 41.090997023428876  C 28.961089454962313 40.39103416441406  28.7354480301787 39.675166996888386  28.477585839134164 38.94338763889445  C 28.21972364808963 38.243424720616794  27.945752034524215 37.6389138475785  27.6556575499039 37.12984998243835  C 28.52594100376484 37.19348292113374  29.380113113885745 37.24120491388046  30.218164274170903 37.27302141285957  C 31.0884458068127 37.27302141285957  31.862032379946296 37.27302141285957  32.538920151133404 37.27302141285957  C 33.2480402158963 37.24120491388046  33.73153230440958 37.22530013126691  33.989394495454114 37.22530013126691  C 34.440652369172476 37.22530013126691  34.74685051265624 37.1457610469127  34.90801390175429 36.98667855201714  C 35.06917729085234 36.827596116384406  35.14976474905879 36.541241640025774  35.14976474905879 36.127627212560135  Z " stroke-width="0" stroke-dasharray="0" stroke="rgba(121, 121, 121, 1)" fill="none" transform="matrix(1 0 0 1 288 378 )" class="stroke" mask="url(#Clip4623)" />
    <path d="M 3.336081770085737 4.15205492429087  L 3.336081770085737 0  L 19 0  L 19 18  L 3.336081770085737 18  L 3.336081770085737 13.21975079221459  L 13.199282719861507 13.21975079221459  L 13.199282719861507 4.15205492429087  L 3.336081770085737 4.15205492429087  Z " stroke-width="0" stroke-dasharray="0" stroke="rgba(121, 121, 121, 1)" fill="none" transform="matrix(1 0 0 1 288 378 )" class="stroke" mask="url(#Clip4623)" />
    <path d="M 22 0  L 38.24411104159318 0  L 38.24411104159318 5  L 27.4139067025994 5  L 27.4139067025994 14  L 38.24411104159318 14  L 38.24411104159318 18  L 22 18  L 22 0  Z " stroke-width="0" stroke-dasharray="0" stroke="rgba(121, 121, 121, 1)" fill="none" transform="matrix(1 0 0 1 288 378 )" class="stroke" mask="url(#Clip4623)" />
    <path d="M 0 43  L 0 0  L 6 0  L 6 43  L 0 43  Z " stroke-width="0" stroke-dasharray="0" stroke="rgba(121, 121, 121, 1)" fill="none" transform="matrix(1 0 0 1 288 378 )" class="stroke" mask="url(#Clip4623)" />
  </g>
  <style>svg { filter: drop-shadow(0px 4px 2px rgba(0, 0, 0, 0.12941176470588237)); }</style>
</svg>