<?xml version="1.0" encoding="utf-8"?>
<svg version="1.1" xmlns:xlink="http://www.w3.org/1999/xlink" width="10px" height="16px" xmlns="http://www.w3.org/2000/svg">
  <defs>
    <pattern id="BGPattern" patternUnits="userSpaceOnUse" alignment="0 0" imageRepeat="None" />
    <mask fill="white" id="Clip4668">
      <path d="M 10 13.213482582384849  L 10 16  L 0 16  L 0 0  L 3 0  L 3 13.213482582384849  L 10 13.213482582384849  Z " fill-rule="evenodd" />
    </mask>
  </defs>
  <g transform="matrix(1 0 0 1 -294 -74 )">
    <path d="M 10 13.213482582384849  L 10 16  L 0 16  L 0 0  L 3 0  L 3 13.213482582384849  L 10 13.213482582384849  Z " fill-rule="nonzero" fill="rgba(142, 108, 135, 1)" stroke="none" transform="matrix(1 0 0 1 294 74 )" class="fill" />
    <path d="M 10 13.213482582384849  L 10 16  L 0 16  L 0 0  L 3 0  L 3 13.213482582384849  L 10 13.213482582384849  Z " stroke-width="0" stroke-dasharray="0" stroke="rgba(121, 121, 121, 1)" fill="none" transform="matrix(1 0 0 1 294 74 )" class="stroke" mask="url(#Clip4668)" />
  </g>
</svg>