<?xml version="1.0" encoding="utf-8"?>
<svg version="1.1" xmlns:xlink="http://www.w3.org/1999/xlink" width="22px" height="22px" xmlns="http://www.w3.org/2000/svg">
  <defs>
    <pattern id="BGPattern" patternUnits="userSpaceOnUse" alignment="0 0" imageRepeat="None" />
    <mask fill="white" id="Clip4722">
      <path d="M 6.892700706524075 21  L 6.892700706524075 19.630040775890336  L 22 19.630040775890336  L 22 21  L 6.892700706524075 21  Z M 16.452789361413295 5.003270926527297  L 16.452789361413295 3.4472341714967256  L 21.952785609475075 3.4472341714967256  L 21.952785609475075 5.003270926527297  L 16.452789361413295 5.003270926527297  Z M 15.980690479422666 11.203492032305242  L 15.980690479422666 9.647440057227378  L 21.59870769604389 9.647440057227378  L 21.59870769604389 11.203492032305242  L 15.980690479422666 11.203492032305242  Z M 8.686697468942478 20.443963244969428  L 8.686697468942478 13.549510122023271  L 20.560081151012785 13.549510122023271  L 20.560081151012785 20.443963244969428  L 19.02574852872859 20.443963244969428  L 19.02574852872859 15.009797559534599  L 16.877688860631867 15.009797559534599  L 16.877688860631867 20.443963244969428  L 15.626612565991476 20.443963244969428  L 15.626612565991476 15.009797559534599  L 13.502145085404345 15.009797559534599  L 13.502145085404345 20.443963244969428  L 12.274675986026418 20.443963244969428  L 12.274675986026418 15.009797559534599  L 10.173815700701748 15.009797559534599  L 10.173815700701748 20.443963244969428  L 8.686697468942478 20.443963244969428  Z M 15.933476088897743 3.973893467970794  C 16.21673804444887 2.665224336578893  16.437049980592246 1.3405874730708938  16.594417525235198 0  C 16.594417525235198 0  18.199571733306776 0.26333725826068066  18.199571733306776 0.26333725826068066  C 18.0107301169445 1.7316000005534562  17.743211294152637 3.175916852189819  17.397002133147417 4.596302081964105  C 17.06653047699414 6.000727189645939  16.649502544155197 7.181722954321871  16.14592583850703 8.139285570980075  C 16.05150549931817 8.059488765529636  15.917738584045804 7.963738496757438  15.744633534550916 7.852022398375053  C 15.58726598990797 7.740306299992667  15.42203156880816 7.636558847621037  15.248927457297826 7.5408028713311035  C 15.07582240780294 7.429087724201674  14.918459553082762 7.349300431280795  14.7768285753072 7.3014219675093495  C 15.264668714087982 6.375777692530139  15.650214133346614 5.266602477270243  15.933476088897743 3.973893467970794  Z M 0.49570607725309007 6.870511988554525  L 0.49570607725309007 5.194784781613076  L 7.577249338123989 5.194784781613076  L 7.577249338123989 6.870511988554525  L 0.49570607725309007 6.870511988554525  Z M 3.4699575485244987 22  L 3.4699575485244987 0  L 5 0  L 5 22  L 3.4699575485244987 22  Z M 2.8326082996966386 8.85745872253992  C 3.0843966525207227 7.931815398813666  3.281112180224011 7.046068575306719  3.4227431579995757 6.2002211057779455  C 3.4227431579995757 6.2002211057779455  4.461369703030679 6.535366547166235  4.461369703030679 6.535366547166235  C 4.304001923891592 7.461010822145445  4.099431010042233 8.44250839005107  3.8476426572181492 9.479867336533232  C 3.595854304394065 10.501267587802378  3.3125939903159067 11.50671009511146  2.9978586665338707 12.496191529075134  C 2.683123342751835 13.485672963038809  2.3447701541330326 14.40334668950135  1.9828243090123603 15.249193683403647  C 1.6366153825032794 16.095040677305942  1.2668103992983193 16.821182712689783  0.8733911859467401 17.42763905242753  C 0.7789705536377087 17.204207806915715  0.6373329513462296 16.948867732254463  0.4484916867281666 16.661598852131707  C 0.27538722347362626 16.37433020982219  0.12589414710002464 16.126956640852544  0 15.919484566180225  C 0.36194569856058595 15.376865861053421  0.7081543612615108 14.730510880777217  1.0386265450311036 13.980420100978094  C 1.3848354715401843 13.23032955899221  1.7074328646082397 12.416403284901296  2.006431504274822 11.538637473693534  C 2.3211669453049266 10.660871662485766  2.596556748236077 9.767143351053159  2.8326082996966386 8.85745872253992  Z M 4.248919953421392 9.216545298319845  C 4.248919953421392 9.216545298319845  4.980682975546231 8.522313281151632  4.980682975546231 8.522313281151632  C 5.106576917462134 8.681906892052506  5.295422285762622 8.961192381743691  5.547210638586707 9.360176884622357  C 5.814736027270451 9.75916138750102  6.097996106852471 10.198051427502072  6.396994629270985 10.676832735831173  C 6.695993151689498 11.155614044160275  6.9713830718687175 11.60247082766617  7.223171424692801 12.017414501384334  C 7.474959777516886 12.432358650728972  7.648063889027218 12.727607591897954  7.7424846972083525 12.903160373638325  C 7.7424846972083525 12.903160373638325  6.821894128489558 14.195875090455507  6.821894128489558 14.195875090455507  C 6.7117367534410395 13.908606210332751  6.538617634177838 13.533554756195596  6.302565848221138 13.07073309433247  C 6.0822510981240985 12.591951786003369  5.838342753540636 12.105186611616219  5.570817833849168 11.610445656821142  C 5.3032924451654235 11.099745531186569  5.0514989334262905 10.628943808277215  4.815447616461868 10.19804048809308  C 4.579396065001307 9.767137643535424  4.390550931196957 9.439976543831662  4.248919953421392 9.216545298319845  Z M 7.931327251555178 11.9934733669927  L 7.931327251555178 10.652891601439539  L 15.130906488738386 10.652891601439539  L 15.130906488738386 11.9934733669927  L 7.931327251555178 11.9934733669927  Z M 8.757504046976996 5.290534099132319  L 8.757504046976996 3.973893467970794  L 14.729614184782275 3.973893467970794  L 14.729614184782275 8.761694184973386  L 8.757504046976996 8.761694184973386  L 8.757504046976996 7.445053553811861  L 13.360516921582445 7.445053553811861  L 13.360516921582445 5.290534099132319  L 8.757504046976996 5.290534099132319  Z M 11.18883505047039 4.668125485139008  L 11.18883505047039 1.5081697062945965  L 12.534340126160629 1.5081697062945965  L 12.534340126160629 4.668125485139008  L 11.18883505047039 4.668125485139008  Z M 11.18883505047039 11.179550897913607  L 11.18883505047039 7.756257860808517  L 12.534340126160629 7.756257860808517  L 12.534340126160629 11.179550897913607  L 11.18883505047039 11.179550897913607  Z M 8 11.46681407051863  L 8 0.8618047378623582  L 14.942063934391562 0.8618047378623582  L 14.942063934391562 2.2024017234628097  L 9.347638905279933 2.2024017234628097  L 9.347638905279933 11.46681407051863  L 8 11.46681407051863  Z " fill-rule="evenodd" />
    </mask>
  </defs>
  <g transform="matrix(1 0 0 1 -357 -612 )">
    <path d="M 6.892700706524075 21  L 6.892700706524075 19.630040775890336  L 22 19.630040775890336  L 22 21  L 6.892700706524075 21  Z M 16.452789361413295 5.003270926527297  L 16.452789361413295 3.4472341714967256  L 21.952785609475075 3.4472341714967256  L 21.952785609475075 5.003270926527297  L 16.452789361413295 5.003270926527297  Z M 15.980690479422666 11.203492032305242  L 15.980690479422666 9.647440057227378  L 21.59870769604389 9.647440057227378  L 21.59870769604389 11.203492032305242  L 15.980690479422666 11.203492032305242  Z M 8.686697468942478 20.443963244969428  L 8.686697468942478 13.549510122023271  L 20.560081151012785 13.549510122023271  L 20.560081151012785 20.443963244969428  L 19.02574852872859 20.443963244969428  L 19.02574852872859 15.009797559534599  L 16.877688860631867 15.009797559534599  L 16.877688860631867 20.443963244969428  L 15.626612565991476 20.443963244969428  L 15.626612565991476 15.009797559534599  L 13.502145085404345 15.009797559534599  L 13.502145085404345 20.443963244969428  L 12.274675986026418 20.443963244969428  L 12.274675986026418 15.009797559534599  L 10.173815700701748 15.009797559534599  L 10.173815700701748 20.443963244969428  L 8.686697468942478 20.443963244969428  Z M 15.933476088897743 3.973893467970794  C 16.21673804444887 2.665224336578893  16.437049980592246 1.3405874730708938  16.594417525235198 0  C 16.594417525235198 0  18.199571733306776 0.26333725826068066  18.199571733306776 0.26333725826068066  C 18.0107301169445 1.7316000005534562  17.743211294152637 3.175916852189819  17.397002133147417 4.596302081964105  C 17.06653047699414 6.000727189645939  16.649502544155197 7.181722954321871  16.14592583850703 8.139285570980075  C 16.05150549931817 8.059488765529636  15.917738584045804 7.963738496757438  15.744633534550916 7.852022398375053  C 15.58726598990797 7.740306299992667  15.42203156880816 7.636558847621037  15.248927457297826 7.5408028713311035  C 15.07582240780294 7.429087724201674  14.918459553082762 7.349300431280795  14.7768285753072 7.3014219675093495  C 15.264668714087982 6.375777692530139  15.650214133346614 5.266602477270243  15.933476088897743 3.973893467970794  Z M 0.49570607725309007 6.870511988554525  L 0.49570607725309007 5.194784781613076  L 7.577249338123989 5.194784781613076  L 7.577249338123989 6.870511988554525  L 0.49570607725309007 6.870511988554525  Z M 3.4699575485244987 22  L 3.4699575485244987 0  L 5 0  L 5 22  L 3.4699575485244987 22  Z M 2.8326082996966386 8.85745872253992  C 3.0843966525207227 7.931815398813666  3.281112180224011 7.046068575306719  3.4227431579995757 6.2002211057779455  C 3.4227431579995757 6.2002211057779455  4.461369703030679 6.535366547166235  4.461369703030679 6.535366547166235  C 4.304001923891592 7.461010822145445  4.099431010042233 8.44250839005107  3.8476426572181492 9.479867336533232  C 3.595854304394065 10.501267587802378  3.3125939903159067 11.50671009511146  2.9978586665338707 12.496191529075134  C 2.683123342751835 13.485672963038809  2.3447701541330326 14.40334668950135  1.9828243090123603 15.249193683403647  C 1.6366153825032794 16.095040677305942  1.2668103992983193 16.821182712689783  0.8733911859467401 17.42763905242753  C 0.7789705536377087 17.204207806915715  0.6373329513462296 16.948867732254463  0.4484916867281666 16.661598852131707  C 0.27538722347362626 16.37433020982219  0.12589414710002464 16.126956640852544  0 15.919484566180225  C 0.36194569856058595 15.376865861053421  0.7081543612615108 14.730510880777217  1.0386265450311036 13.980420100978094  C 1.3848354715401843 13.23032955899221  1.7074328646082397 12.416403284901296  2.006431504274822 11.538637473693534  C 2.3211669453049266 10.660871662485766  2.596556748236077 9.767143351053159  2.8326082996966386 8.85745872253992  Z M 4.248919953421392 9.216545298319845  C 4.248919953421392 9.216545298319845  4.980682975546231 8.522313281151632  4.980682975546231 8.522313281151632  C 5.106576917462134 8.681906892052506  5.295422285762622 8.961192381743691  5.547210638586707 9.360176884622357  C 5.814736027270451 9.75916138750102  6.097996106852471 10.198051427502072  6.396994629270985 10.676832735831173  C 6.695993151689498 11.155614044160275  6.9713830718687175 11.60247082766617  7.223171424692801 12.017414501384334  C 7.474959777516886 12.432358650728972  7.648063889027218 12.727607591897954  7.7424846972083525 12.903160373638325  C 7.7424846972083525 12.903160373638325  6.821894128489558 14.195875090455507  6.821894128489558 14.195875090455507  C 6.7117367534410395 13.908606210332751  6.538617634177838 13.533554756195596  6.302565848221138 13.07073309433247  C 6.0822510981240985 12.591951786003369  5.838342753540636 12.105186611616219  5.570817833849168 11.610445656821142  C 5.3032924451654235 11.099745531186569  5.0514989334262905 10.628943808277215  4.815447616461868 10.19804048809308  C 4.579396065001307 9.767137643535424  4.390550931196957 9.439976543831662  4.248919953421392 9.216545298319845  Z M 7.931327251555178 11.9934733669927  L 7.931327251555178 10.652891601439539  L 15.130906488738386 10.652891601439539  L 15.130906488738386 11.9934733669927  L 7.931327251555178 11.9934733669927  Z M 8.757504046976996 5.290534099132319  L 8.757504046976996 3.973893467970794  L 14.729614184782275 3.973893467970794  L 14.729614184782275 8.761694184973386  L 8.757504046976996 8.761694184973386  L 8.757504046976996 7.445053553811861  L 13.360516921582445 7.445053553811861  L 13.360516921582445 5.290534099132319  L 8.757504046976996 5.290534099132319  Z M 11.18883505047039 4.668125485139008  L 11.18883505047039 1.5081697062945965  L 12.534340126160629 1.5081697062945965  L 12.534340126160629 4.668125485139008  L 11.18883505047039 4.668125485139008  Z M 11.18883505047039 11.179550897913607  L 11.18883505047039 7.756257860808517  L 12.534340126160629 7.756257860808517  L 12.534340126160629 11.179550897913607  L 11.18883505047039 11.179550897913607  Z M 8 11.46681407051863  L 8 0.8618047378623582  L 14.942063934391562 0.8618047378623582  L 14.942063934391562 2.2024017234628097  L 9.347638905279933 2.2024017234628097  L 9.347638905279933 11.46681407051863  L 8 11.46681407051863  Z " fill-rule="nonzero" fill="rgba(0, 0, 0, 1)" stroke="none" transform="matrix(1 0 0 1 357 612 )" class="fill" />
    <path d="M 6.892700706524075 21  L 6.892700706524075 19.630040775890336  L 22 19.630040775890336  L 22 21  L 6.892700706524075 21  Z " stroke-width="0" stroke-dasharray="0" stroke="rgba(121, 121, 121, 1)" fill="none" transform="matrix(1 0 0 1 357 612 )" class="stroke" mask="url(#Clip4722)" />
    <path d="M 16.452789361413295 5.003270926527297  L 16.452789361413295 3.4472341714967256  L 21.952785609475075 3.4472341714967256  L 21.952785609475075 5.003270926527297  L 16.452789361413295 5.003270926527297  Z " stroke-width="0" stroke-dasharray="0" stroke="rgba(121, 121, 121, 1)" fill="none" transform="matrix(1 0 0 1 357 612 )" class="stroke" mask="url(#Clip4722)" />
    <path d="M 15.980690479422666 11.203492032305242  L 15.980690479422666 9.647440057227378  L 21.59870769604389 9.647440057227378  L 21.59870769604389 11.203492032305242  L 15.980690479422666 11.203492032305242  Z " stroke-width="0" stroke-dasharray="0" stroke="rgba(121, 121, 121, 1)" fill="none" transform="matrix(1 0 0 1 357 612 )" class="stroke" mask="url(#Clip4722)" />
    <path d="M 8.686697468942478 20.443963244969428  L 8.686697468942478 13.549510122023271  L 20.560081151012785 13.549510122023271  L 20.560081151012785 20.443963244969428  L 19.02574852872859 20.443963244969428  L 19.02574852872859 15.009797559534599  L 16.877688860631867 15.009797559534599  L 16.877688860631867 20.443963244969428  L 15.626612565991476 20.443963244969428  L 15.626612565991476 15.009797559534599  L 13.502145085404345 15.009797559534599  L 13.502145085404345 20.443963244969428  L 12.274675986026418 20.443963244969428  L 12.274675986026418 15.009797559534599  L 10.173815700701748 15.009797559534599  L 10.173815700701748 20.443963244969428  L 8.686697468942478 20.443963244969428  Z " stroke-width="0" stroke-dasharray="0" stroke="rgba(121, 121, 121, 1)" fill="none" transform="matrix(1 0 0 1 357 612 )" class="stroke" mask="url(#Clip4722)" />
    <path d="M 15.933476088897743 3.973893467970794  C 16.21673804444887 2.665224336578893  16.437049980592246 1.3405874730708938  16.594417525235198 0  C 16.594417525235198 0  18.199571733306776 0.26333725826068066  18.199571733306776 0.26333725826068066  C 18.0107301169445 1.7316000005534562  17.743211294152637 3.175916852189819  17.397002133147417 4.596302081964105  C 17.06653047699414 6.000727189645939  16.649502544155197 7.181722954321871  16.14592583850703 8.139285570980075  C 16.05150549931817 8.059488765529636  15.917738584045804 7.963738496757438  15.744633534550916 7.852022398375053  C 15.58726598990797 7.740306299992667  15.42203156880816 7.636558847621037  15.248927457297826 7.5408028713311035  C 15.07582240780294 7.429087724201674  14.918459553082762 7.349300431280795  14.7768285753072 7.3014219675093495  C 15.264668714087982 6.375777692530139  15.650214133346614 5.266602477270243  15.933476088897743 3.973893467970794  Z " stroke-width="0" stroke-dasharray="0" stroke="rgba(121, 121, 121, 1)" fill="none" transform="matrix(1 0 0 1 357 612 )" class="stroke" mask="url(#Clip4722)" />
    <path d="M 0.49570607725309007 6.870511988554525  L 0.49570607725309007 5.194784781613076  L 7.577249338123989 5.194784781613076  L 7.577249338123989 6.870511988554525  L 0.49570607725309007 6.870511988554525  Z " stroke-width="0" stroke-dasharray="0" stroke="rgba(121, 121, 121, 1)" fill="none" transform="matrix(1 0 0 1 357 612 )" class="stroke" mask="url(#Clip4722)" />
    <path d="M 3.4699575485244987 22  L 3.4699575485244987 0  L 5 0  L 5 22  L 3.4699575485244987 22  Z " stroke-width="0" stroke-dasharray="0" stroke="rgba(121, 121, 121, 1)" fill="none" transform="matrix(1 0 0 1 357 612 )" class="stroke" mask="url(#Clip4722)" />
    <path d="M 2.8326082996966386 8.85745872253992  C 3.0843966525207227 7.931815398813666  3.281112180224011 7.046068575306719  3.4227431579995757 6.2002211057779455  C 3.4227431579995757 6.2002211057779455  4.461369703030679 6.535366547166235  4.461369703030679 6.535366547166235  C 4.304001923891592 7.461010822145445  4.099431010042233 8.44250839005107  3.8476426572181492 9.479867336533232  C 3.595854304394065 10.501267587802378  3.3125939903159067 11.50671009511146  2.9978586665338707 12.496191529075134  C 2.683123342751835 13.485672963038809  2.3447701541330326 14.40334668950135  1.9828243090123603 15.249193683403647  C 1.6366153825032794 16.095040677305942  1.2668103992983193 16.821182712689783  0.8733911859467401 17.42763905242753  C 0.7789705536377087 17.204207806915715  0.6373329513462296 16.948867732254463  0.4484916867281666 16.661598852131707  C 0.27538722347362626 16.37433020982219  0.12589414710002464 16.126956640852544  0 15.919484566180225  C 0.36194569856058595 15.376865861053421  0.7081543612615108 14.730510880777217  1.0386265450311036 13.980420100978094  C 1.3848354715401843 13.23032955899221  1.7074328646082397 12.416403284901296  2.006431504274822 11.538637473693534  C 2.3211669453049266 10.660871662485766  2.596556748236077 9.767143351053159  2.8326082996966386 8.85745872253992  Z " stroke-width="0" stroke-dasharray="0" stroke="rgba(121, 121, 121, 1)" fill="none" transform="matrix(1 0 0 1 357 612 )" class="stroke" mask="url(#Clip4722)" />
    <path d="M 4.248919953421392 9.216545298319845  C 4.248919953421392 9.216545298319845  4.980682975546231 8.522313281151632  4.980682975546231 8.522313281151632  C 5.106576917462134 8.681906892052506  5.295422285762622 8.961192381743691  5.547210638586707 9.360176884622357  C 5.814736027270451 9.75916138750102  6.097996106852471 10.198051427502072  6.396994629270985 10.676832735831173  C 6.695993151689498 11.155614044160275  6.9713830718687175 11.60247082766617  7.223171424692801 12.017414501384334  C 7.474959777516886 12.432358650728972  7.648063889027218 12.727607591897954  7.7424846972083525 12.903160373638325  C 7.7424846972083525 12.903160373638325  6.821894128489558 14.195875090455507  6.821894128489558 14.195875090455507  C 6.7117367534410395 13.908606210332751  6.538617634177838 13.533554756195596  6.302565848221138 13.07073309433247  C 6.0822510981240985 12.591951786003369  5.838342753540636 12.105186611616219  5.570817833849168 11.610445656821142  C 5.3032924451654235 11.099745531186569  5.0514989334262905 10.628943808277215  4.815447616461868 10.19804048809308  C 4.579396065001307 9.767137643535424  4.390550931196957 9.439976543831662  4.248919953421392 9.216545298319845  Z " stroke-width="0" stroke-dasharray="0" stroke="rgba(121, 121, 121, 1)" fill="none" transform="matrix(1 0 0 1 357 612 )" class="stroke" mask="url(#Clip4722)" />
    <path d="M 7.931327251555178 11.9934733669927  L 7.931327251555178 10.652891601439539  L 15.130906488738386 10.652891601439539  L 15.130906488738386 11.9934733669927  L 7.931327251555178 11.9934733669927  Z " stroke-width="0" stroke-dasharray="0" stroke="rgba(121, 121, 121, 1)" fill="none" transform="matrix(1 0 0 1 357 612 )" class="stroke" mask="url(#Clip4722)" />
    <path d="M 8.757504046976996 5.290534099132319  L 8.757504046976996 3.973893467970794  L 14.729614184782275 3.973893467970794  L 14.729614184782275 8.761694184973386  L 8.757504046976996 8.761694184973386  L 8.757504046976996 7.445053553811861  L 13.360516921582445 7.445053553811861  L 13.360516921582445 5.290534099132319  L 8.757504046976996 5.290534099132319  Z " stroke-width="0" stroke-dasharray="0" stroke="rgba(121, 121, 121, 1)" fill="none" transform="matrix(1 0 0 1 357 612 )" class="stroke" mask="url(#Clip4722)" />
    <path d="M 11.18883505047039 4.668125485139008  L 11.18883505047039 1.5081697062945965  L 12.534340126160629 1.5081697062945965  L 12.534340126160629 4.668125485139008  L 11.18883505047039 4.668125485139008  Z " stroke-width="0" stroke-dasharray="0" stroke="rgba(121, 121, 121, 1)" fill="none" transform="matrix(1 0 0 1 357 612 )" class="stroke" mask="url(#Clip4722)" />
    <path d="M 11.18883505047039 11.179550897913607  L 11.18883505047039 7.756257860808517  L 12.534340126160629 7.756257860808517  L 12.534340126160629 11.179550897913607  L 11.18883505047039 11.179550897913607  Z " stroke-width="0" stroke-dasharray="0" stroke="rgba(121, 121, 121, 1)" fill="none" transform="matrix(1 0 0 1 357 612 )" class="stroke" mask="url(#Clip4722)" />
    <path d="M 8 11.46681407051863  L 8 0.8618047378623582  L 14.942063934391562 0.8618047378623582  L 14.942063934391562 2.2024017234628097  L 9.347638905279933 2.2024017234628097  L 9.347638905279933 11.46681407051863  L 8 11.46681407051863  Z " stroke-width="0" stroke-dasharray="0" stroke="rgba(121, 121, 121, 1)" fill="none" transform="matrix(1 0 0 1 357 612 )" class="stroke" mask="url(#Clip4722)" />
  </g>
</svg>