<?xml version="1.0" encoding="utf-8"?>
<svg version="1.1" xmlns:xlink="http://www.w3.org/1999/xlink" width="10px" height="17px" xmlns="http://www.w3.org/2000/svg">
  <defs>
    <pattern id="BGPattern" patternUnits="userSpaceOnUse" alignment="0 0" imageRepeat="None" />
    <mask fill="white" id="Clip4762">
      <path d="M 8.164696237809794 0  L 10 0  C 10 0  4.729403246532739 14.775248965948538  4.729403246532739 14.775248965948538  C 4.494108932265916 15.428165218293723  4.235289358898794 15.863440677924906  3.9058771786789777 16.177807562197962  C 3.2941124524471666 16.782359567626987  2.470581885025738 17  1.6470521357075218 17  C 1.6470521357075218 17  0.9176369214935067 17  0.9176369214935067 17  L 0.9176369214935067 15.452346020501508  C 0.9176369214935067 15.452346020501508  1.4352840155160986 15.452346020501508  1.4352840155160986 15.452346020501508  C 2.611755002490774 15.452346020501508  2.9646964154550637 15.06543228539956  3.3411671780357146 13.977238771718245  C 3.3411671780357146 13.977238771718245  4.164693245889476 11.655760685198425  4.164693245889476 11.655760685198425  L 0 0  L 1.8352888025886094 0  L 5.011765726655168 9.551920869005677  L 8.164696237809794 0  Z " fill-rule="evenodd" />
    </mask>
  </defs>
  <g transform="matrix(1 0 0 1 -286 -496 )">
    <path d="M 8.164696237809794 0  L 10 0  C 10 0  4.729403246532739 14.775248965948538  4.729403246532739 14.775248965948538  C 4.494108932265916 15.428165218293723  4.235289358898794 15.863440677924906  3.9058771786789777 16.177807562197962  C 3.2941124524471666 16.782359567626987  2.470581885025738 17  1.6470521357075218 17  C 1.6470521357075218 17  0.9176369214935067 17  0.9176369214935067 17  L 0.9176369214935067 15.452346020501508  C 0.9176369214935067 15.452346020501508  1.4352840155160986 15.452346020501508  1.4352840155160986 15.452346020501508  C 2.611755002490774 15.452346020501508  2.9646964154550637 15.06543228539956  3.3411671780357146 13.977238771718245  C 3.3411671780357146 13.977238771718245  4.164693245889476 11.655760685198425  4.164693245889476 11.655760685198425  L 0 0  L 1.8352888025886094 0  L 5.011765726655168 9.551920869005677  L 8.164696237809794 0  Z " fill-rule="nonzero" fill="rgba(0, 0, 0, 1)" stroke="none" transform="matrix(1 0 0 1 286 496 )" class="fill" />
    <path d="M 8.164696237809794 0  L 10 0  C 10 0  4.729403246532739 14.775248965948538  4.729403246532739 14.775248965948538  C 4.494108932265916 15.428165218293723  4.235289358898794 15.863440677924906  3.9058771786789777 16.177807562197962  C 3.2941124524471666 16.782359567626987  2.470581885025738 17  1.6470521357075218 17  C 1.6470521357075218 17  0.9176369214935067 17  0.9176369214935067 17  L 0.9176369214935067 15.452346020501508  C 0.9176369214935067 15.452346020501508  1.4352840155160986 15.452346020501508  1.4352840155160986 15.452346020501508  C 2.611755002490774 15.452346020501508  2.9646964154550637 15.06543228539956  3.3411671780357146 13.977238771718245  C 3.3411671780357146 13.977238771718245  4.164693245889476 11.655760685198425  4.164693245889476 11.655760685198425  L 0 0  L 1.8352888025886094 0  L 5.011765726655168 9.551920869005677  L 8.164696237809794 0  Z " stroke-width="0" stroke-dasharray="0" stroke="rgba(121, 121, 121, 1)" fill="none" transform="matrix(1 0 0 1 286 496 )" class="stroke" mask="url(#Clip4762)" />
  </g>
</svg>