<?xml version="1.0" encoding="utf-8"?>
<svg version="1.1" xmlns:xlink="http://www.w3.org/1999/xlink" width="22px" height="22px" xmlns="http://www.w3.org/2000/svg">
  <defs>
    <pattern id="BGPattern" patternUnits="userSpaceOnUse" alignment="0 0" imageRepeat="None" />
    <mask fill="white" id="Clip4707">
      <path d="M 12.065280076155478 8.02183732849139  L 12.065280076155478 6.34062262275602  L 22 6.34062262275602  L 22 8.02183732849139  L 12.065280076155478 8.02183732849139  Z M 0 6.532763627681254  L 0 5  L 12.304660648760537 5  L 12.304660648760537 6.532763627681254  L 0 6.532763627681254  Z M 0.885744646701682 11.768564019700932  L 0.885744646701682 10.231451250187403  L 11.442841883298373 10.231451250187403  L 11.442841883298373 11.768564019700932  L 0.885744646701682 11.768564019700932  Z M 1.5081828395587853 15.731435980299068  L 1.5081828395587853 14.218342745137234  L 10.940154856848736 14.218342745137234  L 10.940154856848736 15.731435980299068  L 1.5081828395587853 15.731435980299068  Z M 17.71489293403364 19.74236227948893  C 17.71489293403364 19.74236227948893  17.71489293403364 0.024019534351696067  17.71489293403364 0.024019534351696067  L 19.43846958485303 0.024019534351696067  C 19.43846958485303 0.024019534351696067  19.43846958485303 19.74236227948893  19.43846958485303 19.74236227948893  C 19.43846958485303 20.302769686616774  19.35868240232894 20.72708120173067  19.19908901224797 21.015290710910474  C 19.05545477092477 21.30350019026628  18.80812744212239 21.519652319175023  18.457021413193274 21.663757058852926  C 18.105915384264154 21.79185018729906  17.627132360266323 21.87990650360161  17.020677097457977 21.92794139694491  C 16.414221834649634 21.975976290288212  15.616229200450514 22  14.626749611197512 22  C 14.578871213672564 21.759825413987496  14.491118249918365 21.471617485479726  14.363443157352934 21.13537311278062  C 14.2357680647875 20.81514032148928  14.108059678414683 20.534940331013438  13.98038553710089 20.294765759912934  C 14.714515892474665 20.3107774009687  15.37683340781922 20.31878529426463  15.967329521869793 20.31878529426463  C 16.557825635920366 20.31878529426463  16.94088896368225 20.31878529426463  17.11644150252099 20.31878529426463  C 17.339872438884676 20.302773653208863  17.491480071451104 20.254726285977288  17.57127676649159 20.174668088154455  C 17.667033561541484 20.09460989033162  17.71489293403364 19.9505135833899  17.71489293403364 19.74236227948893  Z M 13.74100496449583 12.344987034476631  C 13.453736481849425 11.67249828907842  13.142555435486459 11.048035251231308  12.80740855531511 10.471616053927693  C 12.80740855531511 10.471616053927693  14.33945639600848 9.943232107855385  14.33945639600848 9.943232107855385  C 14.674603276179829 10.519651305159002  14.993811935129482 11.13610624094218  15.297039566533654 11.792583554052628  C 15.600267197937825 12.449060867163078  15.863588871808638 13.08952436206571  16.087019808172325 13.713978333416623  C 16.31045074453601 14.338432066175532  16.46205837710244 14.898832196247216  16.541855072142923 15.395193039151993  C 16.541855072142923 15.395193039151993  14.914042826386543 15.99563558827939  14.914042826386543 15.99563558827939  C 14.834246131346058 15.499274983966616  14.69060523126138 14.938859584006597  14.483133443655461 14.314405612655683  C 14.275661656049545 13.673939970425003  14.028272495890592 13.017475779874841  13.74100496449583 12.344987034476631  Z M 1.2688022669537256 3.050221274563698  C 0.9655745166430988 2.345708710221941  0.6303716315314667 1.7132537945672512  0.2633064538445786 1.1528460295513985  C 0.2633064538445786 1.1528460295513985  1.556034602037823 0.5764230147756992  1.556034602037823 0.5764230147756992  C 1.9390591662953902 1.136830779791552  2.290195159651157 1.7532857155747308  2.609382177626008 2.4257744609729417  C 2.944528582171538 3.0982632063711524  3.1759231594491455 3.682686688266618  3.303598014201668 4.179047769763399  C 3.303598014201668 4.179047769763399  1.9151054609454128 4.827514117705852  1.9151054609454128 4.827514117705852  C 1.8033898738571144 4.347164468496833  1.5879892849285766 3.7547328845374333  1.2688022669537256 3.050221274563698  Z M 2.7769242264075755 8.74236227948893  C 2.553493290043889 8.117907830954007  2.2901718539859863 7.549500553186409  1.9869439847689045 7.037128039401864  C 1.9869439847689045 7.037128039401864  3.423288300504198 6.556767892144615  3.423288300504198 6.556767892144615  C 3.7265161697212794 7.053128973641397  4.005831475221797 7.605536271537483  4.261181184726842 8.213978333416623  C 4.516530894231886 8.806408963008002  4.684071516135996 9.318776704952441  4.76386821117648 9.751091102930152  C 4.76386821117648 9.751091102930152  3.231759490378176 10.303494583354157  3.231759490378176 10.303494583354157  C 3.16792218190837 9.871180185376444  3.0163145493419417 9.350804341368072  2.7769242264075755 8.74236227948893  Z M 3.7584332781722685 5.7401800736286255  L 3.7584332781722685 0  L 5.242629356386599 0  L 5.242629356386599 5.7401800736286255  L 3.7584332781722685 5.7401800736286255  Z M 5.314467880210092 19.406119338341856  L 5.314467880210092 10.735815661908013  L 6.990192768550445 10.735815661908013  L 6.990192768550445 19.406119338341856  L 5.314467880210092 19.406119338341856  Z M 7.062031292373937 5.7401800736286255  L 7.062031292373937 0  L 8.546227370588268 0  L 8.546227370588268 5.7401800736286255  L 7.062031292373937 5.7401800736286255  Z M 0.3351449776680706 20.91921257350369  C 0.3351449776680706 20.91921257350369  0.09576440506301091 19.213978333416623  0.09576440506301091 19.213978333416623  C 1.0852443510353769 19.101896816202256  2.2343113850466008 18.96579314012413  3.542978586806728 18.805676789214463  C 4.8516456696604 18.645560378656793  6.240134655723007 18.46943247616336  7.708395366470559 18.277292843142153  C 9.176656077218112 18.06914147959318  10.636904395405212 17.87699785015589  12.089205957394995 17.700869828366454  C 12.089205957394995 17.700869828366454  12.137118599978969 19.286021666583377  12.137118599978969 19.286021666583377  C 10.732695435514133 19.47816132942858  9.32024608534007 19.6783128968978  7.899863296491645 19.88646421571077  C 6.47948098326904 20.078603878555974  5.122979736091663 20.26273967434534  3.8302718019957602 20.438867696134775  C 2.5375641057127676 20.614995717924213  1.3725030833524736 20.775107804001784  0.3351449776680706 20.91921257350369  Z M 10.293790782752113 1.7292690443270977  C 10.517221719115799 1.248919395118078  10.700756210462524 0.8246083273641952  10.844390451785724 0.45634061290555433  C 10.844390451785724 0.45634061290555433  12.424350935063067 1.0807874264963102  12.424350935063067 1.0807874264963102  C 12.073244906133947 1.7212523529509753  11.69821014221039 2.393747778925333  11.299225715756325 3.0982603432670897  C 10.900242240553899 3.786760520953063  10.525206525378701 4.379192104912462  10.174100496449583 4.875553186409244  C 10.174100496449583 4.875553186409244  8.953210872079831 4.323149705985241  8.953210872079831 4.323149705985241  C 9.160682659685747 3.9708934238143625  9.384110266668696 3.5706057078842597  9.623500827415972 3.122279877618786  C 9.862890912537427 2.6579426150655494  10.086318995146195 2.193606306880334  10.293790782752113 1.7292690443270977  Z M 8.40261120304622 7.637555318640924  C 8.56220506875301 7.221252352950976  8.689852099395074 6.844987988844653  8.785607943193328 6.5087440933295575  C 8.785607943193328 6.5087440933295575  10.46133283153368 6.989088970698473  10.46133283153368 6.989088970698473  C 10.205983122028636 7.565508168002088  9.934695191301895 8.149931649897553  9.647426708655491 8.74236227948893  C 9.360158226009087 9.334792909080308  9.096836552138274 9.847160651024748  8.85744646701682 10.27947504900246  C 8.85744646701682 10.27947504900246  7.445028032521044 9.871188774688633  7.445028032521044 9.871188774688633  C 7.6046214226020155 9.566967743749062  7.764256192129309 9.222704293753782  7.923850057836099 8.83842514700738  C 8.099402596674839 8.438134090789204  8.258976961723018 8.0378463748591  8.40261120304622 7.637555318640924  Z " fill-rule="evenodd" />
    </mask>
  </defs>
  <g transform="matrix(1 0 0 1 -672 -612 )">
    <path d="M 12.065280076155478 8.02183732849139  L 12.065280076155478 6.34062262275602  L 22 6.34062262275602  L 22 8.02183732849139  L 12.065280076155478 8.02183732849139  Z M 0 6.532763627681254  L 0 5  L 12.304660648760537 5  L 12.304660648760537 6.532763627681254  L 0 6.532763627681254  Z M 0.885744646701682 11.768564019700932  L 0.885744646701682 10.231451250187403  L 11.442841883298373 10.231451250187403  L 11.442841883298373 11.768564019700932  L 0.885744646701682 11.768564019700932  Z M 1.5081828395587853 15.731435980299068  L 1.5081828395587853 14.218342745137234  L 10.940154856848736 14.218342745137234  L 10.940154856848736 15.731435980299068  L 1.5081828395587853 15.731435980299068  Z M 17.71489293403364 19.74236227948893  C 17.71489293403364 19.74236227948893  17.71489293403364 0.024019534351696067  17.71489293403364 0.024019534351696067  L 19.43846958485303 0.024019534351696067  C 19.43846958485303 0.024019534351696067  19.43846958485303 19.74236227948893  19.43846958485303 19.74236227948893  C 19.43846958485303 20.302769686616774  19.35868240232894 20.72708120173067  19.19908901224797 21.015290710910474  C 19.05545477092477 21.30350019026628  18.80812744212239 21.519652319175023  18.457021413193274 21.663757058852926  C 18.105915384264154 21.79185018729906  17.627132360266323 21.87990650360161  17.020677097457977 21.92794139694491  C 16.414221834649634 21.975976290288212  15.616229200450514 22  14.626749611197512 22  C 14.578871213672564 21.759825413987496  14.491118249918365 21.471617485479726  14.363443157352934 21.13537311278062  C 14.2357680647875 20.81514032148928  14.108059678414683 20.534940331013438  13.98038553710089 20.294765759912934  C 14.714515892474665 20.3107774009687  15.37683340781922 20.31878529426463  15.967329521869793 20.31878529426463  C 16.557825635920366 20.31878529426463  16.94088896368225 20.31878529426463  17.11644150252099 20.31878529426463  C 17.339872438884676 20.302773653208863  17.491480071451104 20.254726285977288  17.57127676649159 20.174668088154455  C 17.667033561541484 20.09460989033162  17.71489293403364 19.9505135833899  17.71489293403364 19.74236227948893  Z M 13.74100496449583 12.344987034476631  C 13.453736481849425 11.67249828907842  13.142555435486459 11.048035251231308  12.80740855531511 10.471616053927693  C 12.80740855531511 10.471616053927693  14.33945639600848 9.943232107855385  14.33945639600848 9.943232107855385  C 14.674603276179829 10.519651305159002  14.993811935129482 11.13610624094218  15.297039566533654 11.792583554052628  C 15.600267197937825 12.449060867163078  15.863588871808638 13.08952436206571  16.087019808172325 13.713978333416623  C 16.31045074453601 14.338432066175532  16.46205837710244 14.898832196247216  16.541855072142923 15.395193039151993  C 16.541855072142923 15.395193039151993  14.914042826386543 15.99563558827939  14.914042826386543 15.99563558827939  C 14.834246131346058 15.499274983966616  14.69060523126138 14.938859584006597  14.483133443655461 14.314405612655683  C 14.275661656049545 13.673939970425003  14.028272495890592 13.017475779874841  13.74100496449583 12.344987034476631  Z M 1.2688022669537256 3.050221274563698  C 0.9655745166430988 2.345708710221941  0.6303716315314667 1.7132537945672512  0.2633064538445786 1.1528460295513985  C 0.2633064538445786 1.1528460295513985  1.556034602037823 0.5764230147756992  1.556034602037823 0.5764230147756992  C 1.9390591662953902 1.136830779791552  2.290195159651157 1.7532857155747308  2.609382177626008 2.4257744609729417  C 2.944528582171538 3.0982632063711524  3.1759231594491455 3.682686688266618  3.303598014201668 4.179047769763399  C 3.303598014201668 4.179047769763399  1.9151054609454128 4.827514117705852  1.9151054609454128 4.827514117705852  C 1.8033898738571144 4.347164468496833  1.5879892849285766 3.7547328845374333  1.2688022669537256 3.050221274563698  Z M 2.7769242264075755 8.74236227948893  C 2.553493290043889 8.117907830954007  2.2901718539859863 7.549500553186409  1.9869439847689045 7.037128039401864  C 1.9869439847689045 7.037128039401864  3.423288300504198 6.556767892144615  3.423288300504198 6.556767892144615  C 3.7265161697212794 7.053128973641397  4.005831475221797 7.605536271537483  4.261181184726842 8.213978333416623  C 4.516530894231886 8.806408963008002  4.684071516135996 9.318776704952441  4.76386821117648 9.751091102930152  C 4.76386821117648 9.751091102930152  3.231759490378176 10.303494583354157  3.231759490378176 10.303494583354157  C 3.16792218190837 9.871180185376444  3.0163145493419417 9.350804341368072  2.7769242264075755 8.74236227948893  Z M 3.7584332781722685 5.7401800736286255  L 3.7584332781722685 0  L 5.242629356386599 0  L 5.242629356386599 5.7401800736286255  L 3.7584332781722685 5.7401800736286255  Z M 5.314467880210092 19.406119338341856  L 5.314467880210092 10.735815661908013  L 6.990192768550445 10.735815661908013  L 6.990192768550445 19.406119338341856  L 5.314467880210092 19.406119338341856  Z M 7.062031292373937 5.7401800736286255  L 7.062031292373937 0  L 8.546227370588268 0  L 8.546227370588268 5.7401800736286255  L 7.062031292373937 5.7401800736286255  Z M 0.3351449776680706 20.91921257350369  C 0.3351449776680706 20.91921257350369  0.09576440506301091 19.213978333416623  0.09576440506301091 19.213978333416623  C 1.0852443510353769 19.101896816202256  2.2343113850466008 18.96579314012413  3.542978586806728 18.805676789214463  C 4.8516456696604 18.645560378656793  6.240134655723007 18.46943247616336  7.708395366470559 18.277292843142153  C 9.176656077218112 18.06914147959318  10.636904395405212 17.87699785015589  12.089205957394995 17.700869828366454  C 12.089205957394995 17.700869828366454  12.137118599978969 19.286021666583377  12.137118599978969 19.286021666583377  C 10.732695435514133 19.47816132942858  9.32024608534007 19.6783128968978  7.899863296491645 19.88646421571077  C 6.47948098326904 20.078603878555974  5.122979736091663 20.26273967434534  3.8302718019957602 20.438867696134775  C 2.5375641057127676 20.614995717924213  1.3725030833524736 20.775107804001784  0.3351449776680706 20.91921257350369  Z M 10.293790782752113 1.7292690443270977  C 10.517221719115799 1.248919395118078  10.700756210462524 0.8246083273641952  10.844390451785724 0.45634061290555433  C 10.844390451785724 0.45634061290555433  12.424350935063067 1.0807874264963102  12.424350935063067 1.0807874264963102  C 12.073244906133947 1.7212523529509753  11.69821014221039 2.393747778925333  11.299225715756325 3.0982603432670897  C 10.900242240553899 3.786760520953063  10.525206525378701 4.379192104912462  10.174100496449583 4.875553186409244  C 10.174100496449583 4.875553186409244  8.953210872079831 4.323149705985241  8.953210872079831 4.323149705985241  C 9.160682659685747 3.9708934238143625  9.384110266668696 3.5706057078842597  9.623500827415972 3.122279877618786  C 9.862890912537427 2.6579426150655494  10.086318995146195 2.193606306880334  10.293790782752113 1.7292690443270977  Z M 8.40261120304622 7.637555318640924  C 8.56220506875301 7.221252352950976  8.689852099395074 6.844987988844653  8.785607943193328 6.5087440933295575  C 8.785607943193328 6.5087440933295575  10.46133283153368 6.989088970698473  10.46133283153368 6.989088970698473  C 10.205983122028636 7.565508168002088  9.934695191301895 8.149931649897553  9.647426708655491 8.74236227948893  C 9.360158226009087 9.334792909080308  9.096836552138274 9.847160651024748  8.85744646701682 10.27947504900246  C 8.85744646701682 10.27947504900246  7.445028032521044 9.871188774688633  7.445028032521044 9.871188774688633  C 7.6046214226020155 9.566967743749062  7.764256192129309 9.222704293753782  7.923850057836099 8.83842514700738  C 8.099402596674839 8.438134090789204  8.258976961723018 8.0378463748591  8.40261120304622 7.637555318640924  Z " fill-rule="nonzero" fill="rgba(0, 0, 0, 1)" stroke="none" transform="matrix(1 0 0 1 672 612 )" class="fill" />
    <path d="M 12.065280076155478 8.02183732849139  L 12.065280076155478 6.34062262275602  L 22 6.34062262275602  L 22 8.02183732849139  L 12.065280076155478 8.02183732849139  Z " stroke-width="0" stroke-dasharray="0" stroke="rgba(121, 121, 121, 1)" fill="none" transform="matrix(1 0 0 1 672 612 )" class="stroke" mask="url(#Clip4707)" />
    <path d="M 0 6.532763627681254  L 0 5  L 12.304660648760537 5  L 12.304660648760537 6.532763627681254  L 0 6.532763627681254  Z " stroke-width="0" stroke-dasharray="0" stroke="rgba(121, 121, 121, 1)" fill="none" transform="matrix(1 0 0 1 672 612 )" class="stroke" mask="url(#Clip4707)" />
    <path d="M 0.885744646701682 11.768564019700932  L 0.885744646701682 10.231451250187403  L 11.442841883298373 10.231451250187403  L 11.442841883298373 11.768564019700932  L 0.885744646701682 11.768564019700932  Z " stroke-width="0" stroke-dasharray="0" stroke="rgba(121, 121, 121, 1)" fill="none" transform="matrix(1 0 0 1 672 612 )" class="stroke" mask="url(#Clip4707)" />
    <path d="M 1.5081828395587853 15.731435980299068  L 1.5081828395587853 14.218342745137234  L 10.940154856848736 14.218342745137234  L 10.940154856848736 15.731435980299068  L 1.5081828395587853 15.731435980299068  Z " stroke-width="0" stroke-dasharray="0" stroke="rgba(121, 121, 121, 1)" fill="none" transform="matrix(1 0 0 1 672 612 )" class="stroke" mask="url(#Clip4707)" />
    <path d="M 17.71489293403364 19.74236227948893  C 17.71489293403364 19.74236227948893  17.71489293403364 0.024019534351696067  17.71489293403364 0.024019534351696067  L 19.43846958485303 0.024019534351696067  C 19.43846958485303 0.024019534351696067  19.43846958485303 19.74236227948893  19.43846958485303 19.74236227948893  C 19.43846958485303 20.302769686616774  19.35868240232894 20.72708120173067  19.19908901224797 21.015290710910474  C 19.05545477092477 21.30350019026628  18.80812744212239 21.519652319175023  18.457021413193274 21.663757058852926  C 18.105915384264154 21.79185018729906  17.627132360266323 21.87990650360161  17.020677097457977 21.92794139694491  C 16.414221834649634 21.975976290288212  15.616229200450514 22  14.626749611197512 22  C 14.578871213672564 21.759825413987496  14.491118249918365 21.471617485479726  14.363443157352934 21.13537311278062  C 14.2357680647875 20.81514032148928  14.108059678414683 20.534940331013438  13.98038553710089 20.294765759912934  C 14.714515892474665 20.3107774009687  15.37683340781922 20.31878529426463  15.967329521869793 20.31878529426463  C 16.557825635920366 20.31878529426463  16.94088896368225 20.31878529426463  17.11644150252099 20.31878529426463  C 17.339872438884676 20.302773653208863  17.491480071451104 20.254726285977288  17.57127676649159 20.174668088154455  C 17.667033561541484 20.09460989033162  17.71489293403364 19.9505135833899  17.71489293403364 19.74236227948893  Z " stroke-width="0" stroke-dasharray="0" stroke="rgba(121, 121, 121, 1)" fill="none" transform="matrix(1 0 0 1 672 612 )" class="stroke" mask="url(#Clip4707)" />
    <path d="M 13.74100496449583 12.344987034476631  C 13.453736481849425 11.67249828907842  13.142555435486459 11.048035251231308  12.80740855531511 10.471616053927693  C 12.80740855531511 10.471616053927693  14.33945639600848 9.943232107855385  14.33945639600848 9.943232107855385  C 14.674603276179829 10.519651305159002  14.993811935129482 11.13610624094218  15.297039566533654 11.792583554052628  C 15.600267197937825 12.449060867163078  15.863588871808638 13.08952436206571  16.087019808172325 13.713978333416623  C 16.31045074453601 14.338432066175532  16.46205837710244 14.898832196247216  16.541855072142923 15.395193039151993  C 16.541855072142923 15.395193039151993  14.914042826386543 15.99563558827939  14.914042826386543 15.99563558827939  C 14.834246131346058 15.499274983966616  14.69060523126138 14.938859584006597  14.483133443655461 14.314405612655683  C 14.275661656049545 13.673939970425003  14.028272495890592 13.017475779874841  13.74100496449583 12.344987034476631  Z " stroke-width="0" stroke-dasharray="0" stroke="rgba(121, 121, 121, 1)" fill="none" transform="matrix(1 0 0 1 672 612 )" class="stroke" mask="url(#Clip4707)" />
    <path d="M 1.2688022669537256 3.050221274563698  C 0.9655745166430988 2.345708710221941  0.6303716315314667 1.7132537945672512  0.2633064538445786 1.1528460295513985  C 0.2633064538445786 1.1528460295513985  1.556034602037823 0.5764230147756992  1.556034602037823 0.5764230147756992  C 1.9390591662953902 1.136830779791552  2.290195159651157 1.7532857155747308  2.609382177626008 2.4257744609729417  C 2.944528582171538 3.0982632063711524  3.1759231594491455 3.682686688266618  3.303598014201668 4.179047769763399  C 3.303598014201668 4.179047769763399  1.9151054609454128 4.827514117705852  1.9151054609454128 4.827514117705852  C 1.8033898738571144 4.347164468496833  1.5879892849285766 3.7547328845374333  1.2688022669537256 3.050221274563698  Z " stroke-width="0" stroke-dasharray="0" stroke="rgba(121, 121, 121, 1)" fill="none" transform="matrix(1 0 0 1 672 612 )" class="stroke" mask="url(#Clip4707)" />
    <path d="M 2.7769242264075755 8.74236227948893  C 2.553493290043889 8.117907830954007  2.2901718539859863 7.549500553186409  1.9869439847689045 7.037128039401864  C 1.9869439847689045 7.037128039401864  3.423288300504198 6.556767892144615  3.423288300504198 6.556767892144615  C 3.7265161697212794 7.053128973641397  4.005831475221797 7.605536271537483  4.261181184726842 8.213978333416623  C 4.516530894231886 8.806408963008002  4.684071516135996 9.318776704952441  4.76386821117648 9.751091102930152  C 4.76386821117648 9.751091102930152  3.231759490378176 10.303494583354157  3.231759490378176 10.303494583354157  C 3.16792218190837 9.871180185376444  3.0163145493419417 9.350804341368072  2.7769242264075755 8.74236227948893  Z " stroke-width="0" stroke-dasharray="0" stroke="rgba(121, 121, 121, 1)" fill="none" transform="matrix(1 0 0 1 672 612 )" class="stroke" mask="url(#Clip4707)" />
    <path d="M 3.7584332781722685 5.7401800736286255  L 3.7584332781722685 0  L 5.242629356386599 0  L 5.242629356386599 5.7401800736286255  L 3.7584332781722685 5.7401800736286255  Z " stroke-width="0" stroke-dasharray="0" stroke="rgba(121, 121, 121, 1)" fill="none" transform="matrix(1 0 0 1 672 612 )" class="stroke" mask="url(#Clip4707)" />
    <path d="M 5.314467880210092 19.406119338341856  L 5.314467880210092 10.735815661908013  L 6.990192768550445 10.735815661908013  L 6.990192768550445 19.406119338341856  L 5.314467880210092 19.406119338341856  Z " stroke-width="0" stroke-dasharray="0" stroke="rgba(121, 121, 121, 1)" fill="none" transform="matrix(1 0 0 1 672 612 )" class="stroke" mask="url(#Clip4707)" />
    <path d="M 7.062031292373937 5.7401800736286255  L 7.062031292373937 0  L 8.546227370588268 0  L 8.546227370588268 5.7401800736286255  L 7.062031292373937 5.7401800736286255  Z " stroke-width="0" stroke-dasharray="0" stroke="rgba(121, 121, 121, 1)" fill="none" transform="matrix(1 0 0 1 672 612 )" class="stroke" mask="url(#Clip4707)" />
    <path d="M 0.3351449776680706 20.91921257350369  C 0.3351449776680706 20.91921257350369  0.09576440506301091 19.213978333416623  0.09576440506301091 19.213978333416623  C 1.0852443510353769 19.101896816202256  2.2343113850466008 18.96579314012413  3.542978586806728 18.805676789214463  C 4.8516456696604 18.645560378656793  6.240134655723007 18.46943247616336  7.708395366470559 18.277292843142153  C 9.176656077218112 18.06914147959318  10.636904395405212 17.87699785015589  12.089205957394995 17.700869828366454  C 12.089205957394995 17.700869828366454  12.137118599978969 19.286021666583377  12.137118599978969 19.286021666583377  C 10.732695435514133 19.47816132942858  9.32024608534007 19.6783128968978  7.899863296491645 19.88646421571077  C 6.47948098326904 20.078603878555974  5.122979736091663 20.26273967434534  3.8302718019957602 20.438867696134775  C 2.5375641057127676 20.614995717924213  1.3725030833524736 20.775107804001784  0.3351449776680706 20.91921257350369  Z " stroke-width="0" stroke-dasharray="0" stroke="rgba(121, 121, 121, 1)" fill="none" transform="matrix(1 0 0 1 672 612 )" class="stroke" mask="url(#Clip4707)" />
    <path d="M 10.293790782752113 1.7292690443270977  C 10.517221719115799 1.248919395118078  10.700756210462524 0.8246083273641952  10.844390451785724 0.45634061290555433  C 10.844390451785724 0.45634061290555433  12.424350935063067 1.0807874264963102  12.424350935063067 1.0807874264963102  C 12.073244906133947 1.7212523529509753  11.69821014221039 2.393747778925333  11.299225715756325 3.0982603432670897  C 10.900242240553899 3.786760520953063  10.525206525378701 4.379192104912462  10.174100496449583 4.875553186409244  C 10.174100496449583 4.875553186409244  8.953210872079831 4.323149705985241  8.953210872079831 4.323149705985241  C 9.160682659685747 3.9708934238143625  9.384110266668696 3.5706057078842597  9.623500827415972 3.122279877618786  C 9.862890912537427 2.6579426150655494  10.086318995146195 2.193606306880334  10.293790782752113 1.7292690443270977  Z " stroke-width="0" stroke-dasharray="0" stroke="rgba(121, 121, 121, 1)" fill="none" transform="matrix(1 0 0 1 672 612 )" class="stroke" mask="url(#Clip4707)" />
    <path d="M 8.40261120304622 7.637555318640924  C 8.56220506875301 7.221252352950976  8.689852099395074 6.844987988844653  8.785607943193328 6.5087440933295575  C 8.785607943193328 6.5087440933295575  10.46133283153368 6.989088970698473  10.46133283153368 6.989088970698473  C 10.205983122028636 7.565508168002088  9.934695191301895 8.149931649897553  9.647426708655491 8.74236227948893  C 9.360158226009087 9.334792909080308  9.096836552138274 9.847160651024748  8.85744646701682 10.27947504900246  C 8.85744646701682 10.27947504900246  7.445028032521044 9.871188774688633  7.445028032521044 9.871188774688633  C 7.6046214226020155 9.566967743749062  7.764256192129309 9.222704293753782  7.923850057836099 8.83842514700738  C 8.099402596674839 8.438134090789204  8.258976961723018 8.0378463748591  8.40261120304622 7.637555318640924  Z " stroke-width="0" stroke-dasharray="0" stroke="rgba(121, 121, 121, 1)" fill="none" transform="matrix(1 0 0 1 672 612 )" class="stroke" mask="url(#Clip4707)" />
  </g>
</svg>